<?xml version="1.0" encoding="UTF-8" standalone="no"?>
<!DOCTYPE svg PUBLIC "-//W3C//DTD SVG 1.1//EN"
 "http://www.w3.org/Graphics/SVG/1.1/DTD/svg11.dtd">
<!-- Generated by graphviz version 2.43.0 (0)
 -->
<!-- Title: inc/base/BaseNvs.h Pages: 1 -->
<svg width="690pt" height="238pt"
 viewBox="0.00 0.00 690.00 238.00" xmlns="http://www.w3.org/2000/svg" xmlns:xlink="http://www.w3.org/1999/xlink">
<g id="graph0" class="graph" transform="scale(1 1) rotate(0) translate(4 234)">
<title>inc/base/BaseNvs.h</title>
<!-- Node1 -->
<g id="Node000001" class="node">
<title>Node1</title>
<g id="a_Node000001"><a xlink:title="Abstract base class for Non&#45;Volatile Storage implementations in the HardFOC system.">
<polygon fill="#999999" stroke="#666666" points="297.5,-230 161.5,-230 161.5,-207 297.5,-207 297.5,-230"/>
<text text-anchor="middle" x="229.5" y="-214.8" font-family="Arial" font-size="14.00">inc/base/BaseNvs.h</text>
</a>
</g>
</g>
<!-- Node2 -->
<g id="Node000002" class="node">
<title>Node2</title>
<g id="a_Node000002"><a xlink:href="NvsComprehensiveTest_8cpp.html" target="_top" xlink:title="Comprehensive NVS (Non&#45;Volatile Storage) testing suite for ESP32&#45;C6 DevKit&#45;M&#45;1 (noexcept)">
<polygon fill="white" stroke="#666666" points="189,-38 0,-38 0,0 189,0 189,-38"/>
<text text-anchor="start" x="8" y="-22.8" font-family="Arial" font-size="14.00">examples/esp32/main</text>
<text text-anchor="middle" x="94.5" y="-7.8" font-family="Arial" font-size="14.00">/NvsComprehensiveTest.cpp</text>
</a>
</g>
</g>
<!-- Node1&#45;&gt;Node2 -->
<g id="edge1_Node000001_Node000002" class="edge">
<title>Node1&#45;&gt;Node2</title>
<g id="a_edge1_Node000001_Node000002"><a xlink:title=" ">
<path fill="none" stroke="#63b8ff" d="M190.78,-202.66C175.1,-195.1 157.83,-184.6 145.5,-171 110.55,-132.47 99.43,-69.09 95.99,-38.15"/>
<polygon fill="#63b8ff" stroke="#63b8ff" points="189.72,-206.02 200.27,-206.98 192.62,-199.65 189.72,-206.02"/>
</a>
</g>
</g>
<!-- Node3 -->
<g id="Node000003" class="node">
<title>Node3</title>
<g id="a_Node000003"><a xlink:href="EspNvs_8h.html" target="_top" xlink:title="World&#45;class ESP32 NVS storage implementation with ESP&#45;IDF v5.5+ features.">
<polygon fill="white" stroke="#666666" points="288.5,-97 122.5,-97 122.5,-74 288.5,-74 288.5,-97"/>
<text text-anchor="middle" x="205.5" y="-81.8" font-family="Arial" font-size="14.00">inc/mcu/esp32/EspNvs.h</text>
</a>
</g>
</g>
<!-- Node1&#45;&gt;Node3 -->
<g id="edge2_Node000001_Node000003" class="edge">
<title>Node1&#45;&gt;Node3</title>
<g id="a_edge2_Node000001_Node000003"><a xlink:title=" ">
<path fill="none" stroke="#63b8ff" d="M189.45,-202.34C175.86,-195.05 162.19,-184.81 154.5,-171 146.29,-156.24 147.68,-148.45 154.5,-133 161.28,-117.65 175.89,-105.19 187.75,-97.04"/>
<polygon fill="#63b8ff" stroke="#63b8ff" points="188.25,-205.65 198.77,-206.93 191.34,-199.37 188.25,-205.65"/>
</a>
</g>
</g>
<!-- Node5 -->
<g id="Node000005" class="node">
<title>Node5</title>
<g id="a_Node000005"><a xlink:href="EspTypes__NVS_8h.html" target="_top" xlink:title="ESP32 NVS type definitions for hardware abstraction.">
<polygon fill="white" stroke="#666666" points="295.5,-171 163.5,-171 163.5,-133 295.5,-133 295.5,-171"/>
<text text-anchor="start" x="171.5" y="-155.8" font-family="Arial" font-size="14.00">inc/mcu/esp32/utils</text>
<text text-anchor="middle" x="229.5" y="-140.8" font-family="Arial" font-size="14.00">/EspTypes_NVS.h</text>
</a>
</g>
</g>
<!-- Node1&#45;&gt;Node5 -->
<g id="edge5_Node000001_Node000005" class="edge">
<title>Node1&#45;&gt;Node5</title>
<g id="a_edge5_Node000001_Node000005"><a xlink:title=" ">
<path fill="none" stroke="#63b8ff" d="M229.5,-196.63C229.5,-188.45 229.5,-179.15 229.5,-171.24"/>
<polygon fill="#63b8ff" stroke="#63b8ff" points="226,-196.85 229.5,-206.85 233,-196.85 226,-196.85"/>
</a>
</g>
</g>
<!-- Node6 -->
<g id="Node000006" class="node">
<title>Node6</title>
<g id="a_Node000006"><a xlink:href="HostNvs_8h.html" target="_top" xlink:title="In&#45;memory BaseNvs for host / unit&#45;test builds (hf&#45;internal&#45;interface&#45;wrap).">
<polygon fill="white" stroke="#666666" points="473,-163.5 314,-163.5 314,-140.5 473,-140.5 473,-163.5"/>
<text text-anchor="middle" x="393.5" y="-148.3" font-family="Arial" font-size="14.00">inc/mcu/host/HostNvs.h</text>
</a>
</g>
</g>
<!-- Node1&#45;&gt;Node6 -->
<g id="edge7_Node000001_Node000006" class="edge">
<title>Node1&#45;&gt;Node6</title>
<g id="a_edge7_Node000001_Node000006"><a xlink:title=" ">
<path fill="none" stroke="#63b8ff" d="M265.66,-203.28C296.22,-191.26 339.28,-174.32 366.8,-163.5"/>
<polygon fill="#63b8ff" stroke="#63b8ff" points="264.24,-200.08 256.21,-206.99 266.8,-206.59 264.24,-200.08"/>
</a>
</g>
</g>
<!-- Node8 -->
<g id="Node000008" class="node">
<title>Node8</title>
<g id="a_Node000008"><a xlink:href="StmNvs_8h.html" target="_top" xlink:title="STM32 NVS (Non&#45;Volatile Storage) — flash&#45;based key&#45;value store.">
<polygon fill="white" stroke="#666666" points="666.5,-163.5 498.5,-163.5 498.5,-140.5 666.5,-140.5 666.5,-163.5"/>
<text text-anchor="middle" x="582.5" y="-148.3" font-family="Arial" font-size="14.00">inc/mcu/stm32/StmNvs.h</text>
</a>
</g>
</g>
<!-- Node1&#45;&gt;Node8 -->
<g id="edge9_Node000001_Node000008" class="edge">
<title>Node1&#45;&gt;Node8</title>
<g id="a_edge9_Node000001_Node000008"><a xlink:title=" ">
<path fill="none" stroke="#63b8ff" d="M296.9,-205.18C362.97,-193.11 462.6,-174.91 525.02,-163.5"/>
<polygon fill="#63b8ff" stroke="#63b8ff" points="296.21,-201.75 287,-206.99 297.47,-208.64 296.21,-201.75"/>
</a>
</g>
</g>
<!-- Node3&#45;&gt;Node2 -->
<g id="edge3_Node000003_Node000002" class="edge">
<title>Node3&#45;&gt;Node2</title>
<g id="a_edge3_Node000003_Node000002"><a xlink:title=" ">
<path fill="none" stroke="#63b8ff" d="M178.38,-68.74C162.52,-59.53 142.44,-47.86 125.9,-38.24"/>
<polygon fill="#63b8ff" stroke="#63b8ff" points="176.77,-71.85 187.17,-73.85 180.28,-65.8 176.77,-71.85"/>
</a>
</g>
</g>
<!-- Node4 -->
<g id="Node000004" class="node">
<title>Node4</title>
<g id="a_Node000004"><a xlink:href="EspNvs_8cpp.html" target="_top" xlink:title="World&#45;class ESP32 NVS implementation with ESP&#45;IDF v5.5+ advanced features.">
<polygon fill="white" stroke="#666666" points="388,-30.5 207,-30.5 207,-7.5 388,-7.5 388,-30.5"/>
<text text-anchor="middle" x="297.5" y="-15.3" font-family="Arial" font-size="14.00">src/mcu/esp32/EspNvs.cpp</text>
</a>
</g>
</g>
<!-- Node3&#45;&gt;Node4 -->
<g id="edge4_Node000003_Node000004" class="edge">
<title>Node3&#45;&gt;Node4</title>
<g id="a_edge4_Node000003_Node000004"><a xlink:title=" ">
<path fill="none" stroke="#63b8ff" d="M228.9,-68.09C245.67,-56.34 267.76,-40.85 282.29,-30.67"/>
<polygon fill="#63b8ff" stroke="#63b8ff" points="226.87,-65.24 220.69,-73.85 230.89,-70.97 226.87,-65.24"/>
</a>
</g>
</g>
<!-- Node5&#45;&gt;Node3 -->
<g id="edge6_Node000005_Node000003" class="edge">
<title>Node5&#45;&gt;Node3</title>
<g id="a_edge6_Node000005_Node000003"><a xlink:title=" ">
<path fill="none" stroke="#63b8ff" d="M219.11,-123.08C215.7,-113.91 212.11,-104.27 209.48,-97.19"/>
<polygon fill="#63b8ff" stroke="#63b8ff" points="215.92,-124.54 222.69,-132.69 222.48,-122.1 215.92,-124.54"/>
</a>
</g>
</g>
<!-- Node7 -->
<g id="Node000007" class="node">
<title>Node7</title>
<g id="a_Node000007"><a xlink:href="HostNvs_8cpp.html" target="_top" xlink:title="In&#45;memory NVS for host / unit&#45;test builds.">
<polygon fill="white" stroke="#666666" points="480.5,-97 306.5,-97 306.5,-74 480.5,-74 480.5,-97"/>
<text text-anchor="middle" x="393.5" y="-81.8" font-family="Arial" font-size="14.00">src/mcu/host/HostNvs.cpp</text>
</a>
</g>
</g>
<!-- Node6&#45;&gt;Node7 -->
<g id="edge8_Node000006_Node000007" class="edge">
<title>Node6&#45;&gt;Node7</title>
<g id="a_edge8_Node000006_Node000007"><a xlink:title=" ">
<path fill="none" stroke="#63b8ff" d="M393.5,-130.31C393.5,-119.36 393.5,-106.36 393.5,-97.38"/>
<polygon fill="#63b8ff" stroke="#63b8ff" points="390,-130.35 393.5,-140.35 397,-130.35 390,-130.35"/>
</a>
</g>
</g>
<!-- Node9 -->
<g id="Node000009" class="node">
<title>Node9</title>
<g id="a_Node000009"><a xlink:href="StmNvs_8cpp.html" target="_top" xlink:title="STM32 NVS implementation — flash&#45;backed key&#45;value store.">
<polygon fill="white" stroke="#666666" points="682,-97 499,-97 499,-74 682,-74 682,-97"/>
<text text-anchor="middle" x="590.5" y="-81.8" font-family="Arial" font-size="14.00">src/mcu/stm32/StmNvs.cpp</text>
</a>
</g>
</g>
<!-- Node8&#45;&gt;Node9 -->
<g id="edge10_Node000008_Node000009" class="edge">
<title>Node8&#45;&gt;Node9</title>
<g id="a_edge10_Node000008_Node000009"><a xlink:title=" ">
<path fill="none" stroke="#63b8ff" d="M585.07,-130.31C586.42,-119.36 588.04,-106.36 589.15,-97.38"/>
<polygon fill="#63b8ff" stroke="#63b8ff" points="581.58,-129.99 583.82,-140.35 588.53,-130.86 581.58,-129.99"/>
</a>
</g>
</g>
</g>
</svg>
