<?xml version="1.0" encoding="UTF-8" standalone="no"?>
<!DOCTYPE svg PUBLIC "-//W3C//DTD SVG 1.1//EN"
 "http://www.w3.org/Graphics/SVG/1.1/DTD/svg11.dtd">
<!-- Generated by graphviz version 2.43.0 (0)
 -->
<!-- Title: inc/base/BaseCan.h Pages: 1 -->
<svg width="2097pt" height="327pt"
 viewBox="0.00 0.00 2097.00 327.00" xmlns="http://www.w3.org/2000/svg" xmlns:xlink="http://www.w3.org/1999/xlink">
<g id="graph0" class="graph" transform="scale(1 1) rotate(0) translate(4 323)">
<title>inc/base/BaseCan.h</title>
<!-- Node1 -->
<g id="Node000001" class="node">
<title>Node1</title>
<g id="a_Node000001"><a xlink:title="Abstract base class for CAN bus implementations in the HardFOC system.">
<polygon fill="#999999" stroke="#666666" points="262,-319 125,-319 125,-296 262,-296 262,-319"/>
<text text-anchor="middle" x="193.5" y="-303.8" font-family="Arial" font-size="14.00">inc/base/BaseCan.h</text>
</a>
</g>
</g>
<!-- Node2 -->
<g id="Node000002" class="node">
<title>Node2</title>
<g id="a_Node000002"><a xlink:href="CanComprehensiveTest_8cpp.html" target="_top" xlink:title="Comprehensive CAN testing suite for ESP32&#45;C6 with ESP&#45;IDF v5.5 TWAI API and SN65 transceiver.">
<polygon fill="white" stroke="#666666" points="191,-112 0,-112 0,-74 191,-74 191,-112"/>
<text text-anchor="start" x="8" y="-96.8" font-family="Arial" font-size="14.00">examples/esp32/main</text>
<text text-anchor="middle" x="95.5" y="-81.8" font-family="Arial" font-size="14.00">/CanComprehensiveTest.cpp</text>
</a>
</g>
</g>
<!-- Node1&#45;&gt;Node2 -->
<g id="edge1_Node000001_Node000002" class="edge">
<title>Node1&#45;&gt;Node2</title>
<g id="a_edge1_Node000001_Node000002"><a xlink:title=" ">
<path fill="none" stroke="#63b8ff" d="M184.38,-286.72C165.42,-245.62 122.04,-151.54 103.81,-112.01"/>
<polygon fill="#63b8ff" stroke="#63b8ff" points="181.27,-288.35 188.64,-295.96 187.63,-285.42 181.27,-288.35"/>
</a>
</g>
</g>
<!-- Node3 -->
<g id="Node000003" class="node">
<title>Node3</title>
<g id="a_Node000003"><a xlink:href="EspCan_8h.html" target="_top" xlink:title="ESP32 CAN (TWAI) implementation for the HardFOC system &#45; ESP&#45;IDF v5.5 Compatible.">
<polygon fill="white" stroke="#666666" points="337,-178.5 170,-178.5 170,-155.5 337,-155.5 337,-178.5"/>
<text text-anchor="middle" x="253.5" y="-163.3" font-family="Arial" font-size="14.00">inc/mcu/esp32/EspCan.h</text>
</a>
</g>
</g>
<!-- Node1&#45;&gt;Node3 -->
<g id="edge2_Node000001_Node000003" class="edge">
<title>Node1&#45;&gt;Node3</title>
<g id="a_edge2_Node000001_Node000003"><a xlink:title=" ">
<path fill="none" stroke="#63b8ff" d="M195.64,-285.85C198.05,-268.23 202.94,-242.56 212.5,-222 220.24,-205.35 233.77,-188.94 243.16,-178.66"/>
<polygon fill="#63b8ff" stroke="#63b8ff" points="192.15,-285.54 194.42,-295.89 199.1,-286.39 192.15,-285.54"/>
</a>
</g>
</g>
<!-- Node5 -->
<g id="Node000005" class="node">
<title>Node5</title>
<g id="a_Node000005"><a xlink:href="EspTypes__CAN_8h.html" target="_top" xlink:title="ESP32 CAN type definitions for hardware abstraction.">
<polygon fill="white" stroke="#666666" points="353.5,-260 221.5,-260 221.5,-222 353.5,-222 353.5,-260"/>
<text text-anchor="start" x="229.5" y="-244.8" font-family="Arial" font-size="14.00">inc/mcu/esp32/utils</text>
<text text-anchor="middle" x="287.5" y="-229.8" font-family="Arial" font-size="14.00">/EspTypes_CAN.h</text>
</a>
</g>
</g>
<!-- Node1&#45;&gt;Node5 -->
<g id="edge5_Node000001_Node000005" class="edge">
<title>Node1&#45;&gt;Node5</title>
<g id="a_edge5_Node000001_Node000005"><a xlink:title=" ">
<path fill="none" stroke="#63b8ff" d="M217.6,-289.96C230.85,-280.87 247.3,-269.59 260.91,-260.24"/>
<polygon fill="#63b8ff" stroke="#63b8ff" points="215.29,-287.31 209.02,-295.85 219.25,-293.08 215.29,-287.31"/>
</a>
</g>
</g>
<!-- Node3&#45;&gt;Node2 -->
<g id="edge3_Node000003_Node000002" class="edge">
<title>Node3&#45;&gt;Node2</title>
<g id="a_edge3_Node000003_Node000002"><a xlink:title=" ">
<path fill="none" stroke="#63b8ff" d="M220.82,-151.11C195.95,-139.77 161.6,-124.12 135.16,-112.07"/>
<polygon fill="#63b8ff" stroke="#63b8ff" points="219.64,-154.41 230.19,-155.38 222.54,-148.04 219.64,-154.41"/>
</a>
</g>
</g>
<!-- Node4 -->
<g id="Node000004" class="node">
<title>Node4</title>
<g id="a_Node000004"><a xlink:href="EspCan_8cpp.html" target="_top" xlink:title="ESP32 CAN (TWAI) implementation for the HardFOC system &#45; ESP&#45;IDF v5.5 Compatible.">
<polygon fill="white" stroke="#666666" points="391.5,-104.5 209.5,-104.5 209.5,-81.5 391.5,-81.5 391.5,-104.5"/>
<text text-anchor="middle" x="300.5" y="-89.3" font-family="Arial" font-size="14.00">src/mcu/esp32/EspCan.cpp</text>
</a>
</g>
</g>
<!-- Node3&#45;&gt;Node4 -->
<g id="edge4_Node000003_Node000004" class="edge">
<title>Node3&#45;&gt;Node4</title>
<g id="a_edge4_Node000003_Node000004"><a xlink:title=" ">
<path fill="none" stroke="#63b8ff" d="M266.03,-146.81C274.84,-133.31 286.31,-115.74 293.54,-104.67"/>
<polygon fill="#63b8ff" stroke="#63b8ff" points="262.97,-145.09 260.44,-155.38 268.83,-148.92 262.97,-145.09"/>
</a>
</g>
</g>
<!-- Node5&#45;&gt;Node3 -->
<g id="edge6_Node000005_Node000003" class="edge">
<title>Node5&#45;&gt;Node3</title>
<g id="a_edge6_Node000005_Node000003"><a xlink:title=" ">
<path fill="none" stroke="#63b8ff" d="M274.6,-212.68C268.98,-200.78 262.72,-187.52 258.49,-178.57"/>
<polygon fill="#63b8ff" stroke="#63b8ff" points="271.49,-214.28 278.92,-221.83 277.82,-211.29 271.49,-214.28"/>
</a>
</g>
</g>
<!-- Node6 -->
<g id="Node000006" class="node">
<title>Node6</title>
<g id="a_Node000006"><a xlink:href="EspTypes_8h.html" target="_top" xlink:title="Consolidated MCU&#45;specific type definitions for hardware abstraction (hf_* types).">
<polygon fill="white" stroke="#666666" points="958.5,-186 826.5,-186 826.5,-148 958.5,-148 958.5,-186"/>
<text text-anchor="start" x="834.5" y="-170.8" font-family="Arial" font-size="14.00">inc/mcu/esp32/utils</text>
<text text-anchor="middle" x="892.5" y="-155.8" font-family="Arial" font-size="14.00">/EspTypes.h</text>
</a>
</g>
</g>
<!-- Node5&#45;&gt;Node6 -->
<g id="edge7_Node000005_Node000006" class="edge">
<title>Node5&#45;&gt;Node6</title>
<g id="a_edge7_Node000005_Node000006"><a xlink:title=" ">
<path fill="none" stroke="#63b8ff" d="M363.86,-230.91C483.53,-216.67 713.23,-189.33 826.3,-175.88"/>
<polygon fill="#63b8ff" stroke="#63b8ff" points="363.2,-227.47 353.69,-232.12 364.03,-234.42 363.2,-227.47"/>
</a>
</g>
</g>
<!-- Node7 -->
<g id="Node000007" class="node">
<title>Node7</title>
<g id="a_Node000007"><a xlink:href="EspI2c_8h.html" target="_top" xlink:title="Advanced ESP32&#45;integrated I2C controller for ESP&#45;IDF v5.5+ with proper bus&#45;device architecture.">
<polygon fill="white" stroke="#666666" points="571,-104.5 410,-104.5 410,-81.5 571,-81.5 571,-104.5"/>
<text text-anchor="middle" x="490.5" y="-89.3" font-family="Arial" font-size="14.00">inc/mcu/esp32/EspI2c.h</text>
</a>
</g>
</g>
<!-- Node6&#45;&gt;Node7 -->
<g id="edge8_Node000006_Node000007" class="edge">
<title>Node6&#45;&gt;Node7</title>
<g id="a_edge8_Node000006_Node000007"><a xlink:title=" ">
<path fill="none" stroke="#63b8ff" d="M815.91,-152.28C738.21,-138.37 619.65,-117.13 549.13,-104.5"/>
<polygon fill="#63b8ff" stroke="#63b8ff" points="815.66,-155.79 826.12,-154.11 816.89,-148.9 815.66,-155.79"/>
</a>
</g>
</g>
<!-- Node10 -->
<g id="Node000010" class="node">
<title>Node10</title>
<g id="a_Node000010"><a xlink:href="EspPeriodicTimer_8h.html" target="_top" xlink:title="MCU&#45;integrated periodic timer implementation.">
<polygon fill="white" stroke="#666666" points="882.5,-112 702.5,-112 702.5,-74 882.5,-74 882.5,-112"/>
<text text-anchor="start" x="710.5" y="-96.8" font-family="Arial" font-size="14.00">inc/mcu/esp32/EspPeriodic</text>
<text text-anchor="middle" x="792.5" y="-81.8" font-family="Arial" font-size="14.00">Timer.h</text>
</a>
</g>
</g>
<!-- Node6&#45;&gt;Node10 -->
<g id="edge11_Node000006_Node000010" class="edge">
<title>Node6&#45;&gt;Node10</title>
<g id="a_edge11_Node000006_Node000010"><a xlink:title=" ">
<path fill="none" stroke="#63b8ff" d="M859.13,-141.97C845.62,-132.25 830.28,-121.2 817.73,-112.16"/>
<polygon fill="#63b8ff" stroke="#63b8ff" points="857.11,-144.83 867.27,-147.83 861.2,-139.15 857.11,-144.83"/>
</a>
</g>
</g>
<!-- Node13 -->
<g id="Node000013" class="node">
<title>Node13</title>
<g id="a_Node000013"><a xlink:href="EspPio_8h.html" target="_top" xlink:title="ESP32C6 RMT&#45;based Programmable IO Channel implementation with ESP&#45;IDF v5.5+ features.">
<polygon fill="white" stroke="#666666" points="1074.5,-104.5 912.5,-104.5 912.5,-81.5 1074.5,-81.5 1074.5,-104.5"/>
<text text-anchor="middle" x="993.5" y="-89.3" font-family="Arial" font-size="14.00">inc/mcu/esp32/EspPio.h</text>
</a>
</g>
</g>
<!-- Node6&#45;&gt;Node13 -->
<g id="edge14_Node000006_Node000013" class="edge">
<title>Node6&#45;&gt;Node13</title>
<g id="a_edge14_Node000006_Node000013"><a xlink:title=" ">
<path fill="none" stroke="#63b8ff" d="M926.41,-141.83C944.16,-129.17 964.99,-114.32 978.68,-104.57"/>
<polygon fill="#63b8ff" stroke="#63b8ff" points="924.1,-139.18 917.99,-147.83 928.16,-144.88 924.1,-139.18"/>
</a>
</g>
</g>
<!-- Node16 -->
<g id="Node000016" class="node">
<title>Node16</title>
<g id="a_Node000016"><a xlink:href="EspSpi_8h.html" target="_top" xlink:title="Advanced MCU&#45;integrated SPI controller implementation with ESP32C6/ESP&#45;IDF v5.5+ features.">
<polygon fill="white" stroke="#666666" points="1472.5,-104.5 1310.5,-104.5 1310.5,-81.5 1472.5,-81.5 1472.5,-104.5"/>
<text text-anchor="middle" x="1391.5" y="-89.3" font-family="Arial" font-size="14.00">inc/mcu/esp32/EspSpi.h</text>
</a>
</g>
</g>
<!-- Node6&#45;&gt;Node16 -->
<g id="edge17_Node000006_Node000016" class="edge">
<title>Node6&#45;&gt;Node16</title>
<g id="a_edge17_Node000006_Node000016"><a xlink:title=" ">
<path fill="none" stroke="#63b8ff" d="M968.62,-155.02C1063.59,-141.31 1224.85,-118.05 1318.39,-104.55"/>
<polygon fill="#63b8ff" stroke="#63b8ff" points="967.9,-151.58 958.51,-156.48 968.9,-158.51 967.9,-151.58"/>
</a>
</g>
</g>
<!-- Node19 -->
<g id="Node000019" class="node">
<title>Node19</title>
<g id="a_Node000019"><a xlink:href="EspUart_8h.html" target="_top" xlink:title="ESP32 UART implementation for the HardFOC system.">
<polygon fill="white" stroke="#666666" points="1876.5,-104.5 1708.5,-104.5 1708.5,-81.5 1876.5,-81.5 1876.5,-104.5"/>
<text text-anchor="middle" x="1792.5" y="-89.3" font-family="Arial" font-size="14.00">inc/mcu/esp32/EspUart.h</text>
</a>
</g>
</g>
<!-- Node6&#45;&gt;Node19 -->
<g id="edge20_Node000006_Node000019" class="edge">
<title>Node6&#45;&gt;Node19</title>
<g id="a_edge20_Node000006_Node000019"><a xlink:title=" ">
<path fill="none" stroke="#63b8ff" d="M968.88,-159.89C1136.19,-146.5 1533.97,-114.68 1708.25,-100.74"/>
<polygon fill="#63b8ff" stroke="#63b8ff" points="968.37,-156.42 958.68,-160.71 968.93,-163.4 968.37,-156.42"/>
</a>
</g>
</g>
<!-- Node8 -->
<g id="Node000008" class="node">
<title>Node8</title>
<g id="a_Node000008"><a xlink:href="I2cComprehensiveTest_8cpp.html" target="_top" xlink:title="Comprehensive I2C testing suite for ESP32&#45;C6 DevKit&#45;M&#45;1 (noexcept)">
<polygon fill="white" stroke="#666666" points="270.5,-38 86.5,-38 86.5,0 270.5,0 270.5,-38"/>
<text text-anchor="start" x="94.5" y="-22.8" font-family="Arial" font-size="14.00">examples/esp32/main</text>
<text text-anchor="middle" x="178.5" y="-7.8" font-family="Arial" font-size="14.00">/I2cComprehensiveTest.cpp</text>
</a>
</g>
</g>
<!-- Node7&#45;&gt;Node8 -->
<g id="edge9_Node000007_Node000008" class="edge">
<title>Node7&#45;&gt;Node8</title>
<g id="a_edge9_Node000007_Node000008"><a xlink:title=" ">
<path fill="none" stroke="#63b8ff" d="M434.9,-79.17C385.3,-67.72 312.16,-50.84 256.68,-38.04"/>
<polygon fill="#63b8ff" stroke="#63b8ff" points="434.27,-82.62 444.8,-81.45 435.84,-75.79 434.27,-82.62"/>
</a>
</g>
</g>
<!-- Node9 -->
<g id="Node000009" class="node">
<title>Node9</title>
<g id="a_Node000009"><a xlink:href="EspI2c_8cpp.html" target="_top" xlink:title="Implementation of ESP32&#45;integrated I2C controller with proper bus&#45;device architecture.">
<polygon fill="white" stroke="#666666" points="464.5,-30.5 288.5,-30.5 288.5,-7.5 464.5,-7.5 464.5,-30.5"/>
<text text-anchor="middle" x="376.5" y="-15.3" font-family="Arial" font-size="14.00">src/mcu/esp32/EspI2c.cpp</text>
</a>
</g>
</g>
<!-- Node7&#45;&gt;Node9 -->
<g id="edge10_Node000007_Node000009" class="edge">
<title>Node7&#45;&gt;Node9</title>
<g id="a_edge10_Node000007_Node000009"><a xlink:title=" ">
<path fill="none" stroke="#63b8ff" d="M465.22,-76.03C443.36,-62.23 412.36,-42.65 393.39,-30.67"/>
<polygon fill="#63b8ff" stroke="#63b8ff" points="463.36,-79 473.68,-81.38 467.09,-73.08 463.36,-79"/>
</a>
</g>
</g>
<!-- Node11 -->
<g id="Node000011" class="node">
<title>Node11</title>
<g id="a_Node000011"><a xlink:href="TimerComprehensiveTest_8cpp.html" target="_top" xlink:title="ESP32&#45;C6 Periodic Timer Comprehensive Test Suite v2.0.">
<polygon fill="white" stroke="#666666" points="684,-38 483,-38 483,0 684,0 684,-38"/>
<text text-anchor="start" x="491" y="-22.8" font-family="Arial" font-size="14.00">examples/esp32/main</text>
<text text-anchor="middle" x="583.5" y="-7.8" font-family="Arial" font-size="14.00">/TimerComprehensiveTest.cpp</text>
</a>
</g>
</g>
<!-- Node10&#45;&gt;Node11 -->
<g id="edge12_Node000010_Node000011" class="edge">
<title>Node10&#45;&gt;Node11</title>
<g id="a_edge12_Node000010_Node000011"><a xlink:title=" ">
<path fill="none" stroke="#63b8ff" d="M730.48,-70.64C700.41,-60.28 664.69,-47.97 635.99,-38.08"/>
<polygon fill="#63b8ff" stroke="#63b8ff" points="729.44,-73.98 740.03,-73.92 731.72,-67.36 729.44,-73.98"/>
</a>
</g>
</g>
<!-- Node12 -->
<g id="Node000012" class="node">
<title>Node12</title>
<g id="a_Node000012"><a xlink:href="EspPeriodicTimer_8cpp.html" target="_top" xlink:title="Implementation of MCU&#45;integrated periodic timer.">
<polygon fill="white" stroke="#666666" points="883,-38 702,-38 702,0 883,0 883,-38"/>
<text text-anchor="start" x="710" y="-22.8" font-family="Arial" font-size="14.00">src/mcu/esp32/EspPeriodic</text>
<text text-anchor="middle" x="792.5" y="-7.8" font-family="Arial" font-size="14.00">Timer.cpp</text>
</a>
</g>
</g>
<!-- Node10&#45;&gt;Node12 -->
<g id="edge13_Node000010_Node000012" class="edge">
<title>Node10&#45;&gt;Node12</title>
<g id="a_edge13_Node000010_Node000012"><a xlink:title=" ">
<path fill="none" stroke="#63b8ff" d="M792.5,-63.57C792.5,-55.11 792.5,-46.06 792.5,-38.41"/>
<polygon fill="#63b8ff" stroke="#63b8ff" points="789,-63.83 792.5,-73.83 796,-63.83 789,-63.83"/>
</a>
</g>
</g>
<!-- Node14 -->
<g id="Node000014" class="node">
<title>Node14</title>
<g id="a_Node000014"><a xlink:href="PioComprehensiveTest_8cpp.html" target="_top" xlink:title="Comprehensive PIO testing suite for ESP32&#45;C6 DevKit&#45;M&#45;1 with RMT peripheral (noexcept)">
<polygon fill="white" stroke="#666666" points="1086,-38 901,-38 901,0 1086,0 1086,-38"/>
<text text-anchor="start" x="909" y="-22.8" font-family="Arial" font-size="14.00">examples/esp32/main</text>
<text text-anchor="middle" x="993.5" y="-7.8" font-family="Arial" font-size="14.00">/PioComprehensiveTest.cpp</text>
</a>
</g>
</g>
<!-- Node13&#45;&gt;Node14 -->
<g id="edge15_Node000013_Node000014" class="edge">
<title>Node13&#45;&gt;Node14</title>
<g id="a_edge15_Node000013_Node000014"><a xlink:title=" ">
<path fill="none" stroke="#63b8ff" d="M993.5,-71.1C993.5,-60.69 993.5,-48.23 993.5,-38.21"/>
<polygon fill="#63b8ff" stroke="#63b8ff" points="990,-71.38 993.5,-81.38 997,-71.38 990,-71.38"/>
</a>
</g>
</g>
<!-- Node15 -->
<g id="Node000015" class="node">
<title>Node15</title>
<g id="a_Node000015"><a xlink:href="EspPio_8cpp.html" target="_top" xlink:title="ESP32C6 RMT&#45;based Programmable IO Channel implementation.">
<polygon fill="white" stroke="#666666" points="1281,-30.5 1104,-30.5 1104,-7.5 1281,-7.5 1281,-30.5"/>
<text text-anchor="middle" x="1192.5" y="-15.3" font-family="Arial" font-size="14.00">src/mcu/esp32/EspPio.cpp</text>
</a>
</g>
</g>
<!-- Node13&#45;&gt;Node15 -->
<g id="edge16_Node000013_Node000015" class="edge">
<title>Node13&#45;&gt;Node15</title>
<g id="a_edge16_Node000013_Node000015"><a xlink:title=" ">
<path fill="none" stroke="#63b8ff" d="M1032.67,-77.83C1071.09,-63.93 1128.79,-43.05 1163.34,-30.55"/>
<polygon fill="#63b8ff" stroke="#63b8ff" points="1031.08,-74.68 1022.86,-81.38 1033.46,-81.27 1031.08,-74.68"/>
</a>
</g>
</g>
<!-- Node17 -->
<g id="Node000017" class="node">
<title>Node17</title>
<g id="a_Node000017"><a xlink:href="SpiComprehensiveTest_8cpp.html" target="_top" xlink:title="Comprehensive SPI testing suite for ESP32&#45;C6 DevKit&#45;M&#45;1 (noexcept)">
<polygon fill="white" stroke="#666666" points="1484,-38 1299,-38 1299,0 1484,0 1484,-38"/>
<text text-anchor="start" x="1307" y="-22.8" font-family="Arial" font-size="14.00">examples/esp32/main</text>
<text text-anchor="middle" x="1391.5" y="-7.8" font-family="Arial" font-size="14.00">/SpiComprehensiveTest.cpp</text>
</a>
</g>
</g>
<!-- Node16&#45;&gt;Node17 -->
<g id="edge18_Node000016_Node000017" class="edge">
<title>Node16&#45;&gt;Node17</title>
<g id="a_edge18_Node000016_Node000017"><a xlink:title=" ">
<path fill="none" stroke="#63b8ff" d="M1391.5,-71.1C1391.5,-60.69 1391.5,-48.23 1391.5,-38.21"/>
<polygon fill="#63b8ff" stroke="#63b8ff" points="1388,-71.38 1391.5,-81.38 1395,-71.38 1388,-71.38"/>
</a>
</g>
</g>
<!-- Node18 -->
<g id="Node000018" class="node">
<title>Node18</title>
<g id="a_Node000018"><a xlink:href="EspSpi_8cpp.html" target="_top" xlink:title="Implementation of MCU&#45;integrated SPI controller for ESP32C6 with ESP&#45;IDF v5.5+ features.">
<polygon fill="white" stroke="#666666" points="1679,-30.5 1502,-30.5 1502,-7.5 1679,-7.5 1679,-30.5"/>
<text text-anchor="middle" x="1590.5" y="-15.3" font-family="Arial" font-size="14.00">src/mcu/esp32/EspSpi.cpp</text>
</a>
</g>
</g>
<!-- Node16&#45;&gt;Node18 -->
<g id="edge19_Node000016_Node000018" class="edge">
<title>Node16&#45;&gt;Node18</title>
<g id="a_edge19_Node000016_Node000018"><a xlink:title=" ">
<path fill="none" stroke="#63b8ff" d="M1430.67,-77.83C1469.09,-63.93 1526.79,-43.05 1561.34,-30.55"/>
<polygon fill="#63b8ff" stroke="#63b8ff" points="1429.08,-74.68 1420.86,-81.38 1431.46,-81.27 1429.08,-74.68"/>
</a>
</g>
</g>
<!-- Node20 -->
<g id="Node000020" class="node">
<title>Node20</title>
<g id="a_Node000020"><a xlink:href="UartComprehensiveTest_8cpp.html" target="_top" xlink:title="Comprehensive UART testing suite for ESP32&#45;C6 DevKit&#45;M&#45;1 (noexcept)">
<polygon fill="white" stroke="#666666" points="1888,-38 1697,-38 1697,0 1888,0 1888,-38"/>
<text text-anchor="start" x="1705" y="-22.8" font-family="Arial" font-size="14.00">examples/esp32/main</text>
<text text-anchor="middle" x="1792.5" y="-7.8" font-family="Arial" font-size="14.00">/UartComprehensiveTest.cpp</text>
</a>
</g>
</g>
<!-- Node19&#45;&gt;Node20 -->
<g id="edge21_Node000019_Node000020" class="edge">
<title>Node19&#45;&gt;Node20</title>
<g id="a_edge21_Node000019_Node000020"><a xlink:title=" ">
<path fill="none" stroke="#63b8ff" d="M1792.5,-71.1C1792.5,-60.69 1792.5,-48.23 1792.5,-38.21"/>
<polygon fill="#63b8ff" stroke="#63b8ff" points="1789,-71.38 1792.5,-81.38 1796,-71.38 1789,-71.38"/>
</a>
</g>
</g>
<!-- Node21 -->
<g id="Node000021" class="node">
<title>Node21</title>
<g id="a_Node000021"><a xlink:href="EspUart_8cpp.html" target="_top" xlink:title="Implementation of ESP32 UART controller for the HardFOC system.">
<polygon fill="white" stroke="#666666" points="2089,-30.5 1906,-30.5 1906,-7.5 2089,-7.5 2089,-30.5"/>
<text text-anchor="middle" x="1997.5" y="-15.3" font-family="Arial" font-size="14.00">src/mcu/esp32/EspUart.cpp</text>
</a>
</g>
</g>
<!-- Node19&#45;&gt;Node21 -->
<g id="edge22_Node000019_Node000021" class="edge">
<title>Node19&#45;&gt;Node21</title>
<g id="a_edge22_Node000019_Node000021"><a xlink:title=" ">
<path fill="none" stroke="#63b8ff" d="M1832.35,-78C1871.93,-64.1 1931.72,-43.1 1967.46,-30.55"/>
<polygon fill="#63b8ff" stroke="#63b8ff" points="1831.02,-74.76 1822.75,-81.38 1833.34,-81.36 1831.02,-74.76"/>
</a>
</g>
</g>
</g>
</svg>
