<?xml version="1.0" encoding="UTF-8" standalone="no"?>
<!DOCTYPE svg PUBLIC "-//W3C//DTD SVG 1.1//EN"
 "http://www.w3.org/Graphics/SVG/1.1/DTD/svg11.dtd">
<!-- Generated by graphviz version 2.43.0 (0)
 -->
<!-- Title: inc/base/BaseGpio.h Pages: 1 -->
<svg width="4479pt" height="416pt"
 viewBox="0.00 0.00 4479.00 416.00" xmlns="http://www.w3.org/2000/svg" xmlns:xlink="http://www.w3.org/1999/xlink">
<g id="graph0" class="graph" transform="scale(1 1) rotate(0) translate(4 412)">
<title>inc/base/BaseGpio.h</title>
<!-- Node1 -->
<g id="Node000001" class="node">
<title>Node1</title>
<g id="a_Node000001"><a xlink:title="Unified GPIO base class for all digital GPIO implementations.">
<polygon fill="#999999" stroke="#666666" points="1632.5,-408 1490.5,-408 1490.5,-385 1632.5,-385 1632.5,-408"/>
<text text-anchor="middle" x="1561.5" y="-392.8" font-family="Arial" font-size="14.00">inc/base/BaseGpio.h</text>
</a>
</g>
</g>
<!-- Node2 -->
<g id="Node000002" class="node">
<title>Node2</title>
<g id="a_Node000002"><a xlink:href="GpioComprehensiveTest_8cpp.html" target="_top" xlink:title="Comprehensive GPIO testing suite for ESP32&#45;C6 DevKit&#45;M&#45;1 (noexcept)">
<polygon fill="white" stroke="#666666" points="446,-45.5 251,-45.5 251,-7.5 446,-7.5 446,-45.5"/>
<text text-anchor="start" x="259" y="-30.3" font-family="Arial" font-size="14.00">examples/esp32/main</text>
<text text-anchor="middle" x="348.5" y="-15.3" font-family="Arial" font-size="14.00">/GpioComprehensiveTest.cpp</text>
</a>
</g>
</g>
<!-- Node1&#45;&gt;Node2 -->
<g id="edge1_Node000001_Node000002" class="edge">
<title>Node1&#45;&gt;Node2</title>
<g id="a_edge1_Node000001_Node000002"><a xlink:title=" ">
<path fill="none" stroke="#63b8ff" d="M1487.38,-383.18C1379.64,-363.15 1192.5,-319.37 1192.5,-257 1192.5,-257 1192.5,-257 1192.5,-181 1192.5,-14.77 618.32,-86.51 455.5,-53 444.46,-50.73 432.83,-48.15 421.46,-45.53"/>
<polygon fill="#63b8ff" stroke="#63b8ff" points="1486.76,-386.63 1497.23,-384.99 1488.02,-379.74 1486.76,-386.63"/>
</a>
</g>
</g>
<!-- Node3 -->
<g id="Node000003" class="node">
<title>Node3</title>
<g id="a_Node000003"><a xlink:href="EspGpio_8h.html" target="_top" xlink:title="Advanced MCU&#45;specific implementation of the unified BaseGpio class with ESP32C6/ESP&#45;IDF v5....">
<polygon fill="white" stroke="#666666" points="2029.5,-193.5 1857.5,-193.5 1857.5,-170.5 2029.5,-170.5 2029.5,-193.5"/>
<text text-anchor="middle" x="1943.5" y="-178.3" font-family="Arial" font-size="14.00">inc/mcu/esp32/EspGpio.h</text>
</a>
</g>
</g>
<!-- Node1&#45;&gt;Node3 -->
<g id="edge2_Node000001_Node000003" class="edge">
<title>Node1&#45;&gt;Node3</title>
<g id="a_edge2_Node000001_Node000003"><a xlink:title=" ">
<path fill="none" stroke="#63b8ff" d="M1589.63,-379.85C1663.57,-338.72 1862.03,-228.32 1924.44,-193.6"/>
<polygon fill="#63b8ff" stroke="#63b8ff" points="1587.48,-377.04 1580.44,-384.96 1590.88,-383.16 1587.48,-377.04"/>
</a>
</g>
</g>
<!-- Node21 -->
<g id="Node000021" class="node">
<title>Node21</title>
<g id="a_Node000021"><a xlink:href="EspTypes__GPIO_8h.html" target="_top" xlink:title="ESP32 GPIO type definitions for hardware abstraction.">
<polygon fill="white" stroke="#666666" points="2010.5,-349 1876.5,-349 1876.5,-311 2010.5,-311 2010.5,-349"/>
<text text-anchor="start" x="1884.5" y="-333.8" font-family="Arial" font-size="14.00">inc/mcu/esp32/utils</text>
<text text-anchor="middle" x="1943.5" y="-318.8" font-family="Arial" font-size="14.00">/EspTypes_GPIO.h</text>
</a>
</g>
</g>
<!-- Node1&#45;&gt;Node21 -->
<g id="edge27_Node000001_Node000021" class="edge">
<title>Node1&#45;&gt;Node21</title>
<g id="a_edge27_Node000001_Node000021"><a xlink:title=" ">
<path fill="none" stroke="#63b8ff" d="M1633.76,-383.3C1703.58,-371.51 1808.49,-353.8 1876.48,-342.32"/>
<polygon fill="#63b8ff" stroke="#63b8ff" points="1633,-379.88 1623.73,-384.99 1634.17,-386.78 1633,-379.88"/>
</a>
</g>
</g>
<!-- Node36 -->
<g id="Node000036" class="node">
<title>Node36</title>
<g id="a_Node000036"><a xlink:href="StmGpio_8h.html" target="_top" xlink:title="STM32 GPIO stub implementation — placeholder for future STM32 HAL integration.">
<polygon fill="white" stroke="#666666" points="2272.5,-341.5 2098.5,-341.5 2098.5,-318.5 2272.5,-318.5 2272.5,-341.5"/>
<text text-anchor="middle" x="2185.5" y="-326.3" font-family="Arial" font-size="14.00">inc/mcu/stm32/StmGpio.h</text>
</a>
</g>
</g>
<!-- Node1&#45;&gt;Node36 -->
<g id="edge51_Node000001_Node000036" class="edge">
<title>Node1&#45;&gt;Node36</title>
<g id="a_edge51_Node000001_Node000036"><a xlink:title=" ">
<path fill="none" stroke="#63b8ff" d="M1642.55,-387.44C1734.1,-378.3 1887.53,-362.85 2019.5,-349 2045.16,-346.31 2073.04,-343.31 2098.5,-340.55"/>
<polygon fill="#63b8ff" stroke="#63b8ff" points="1642.12,-383.96 1632.52,-388.44 1642.82,-390.93 1642.12,-383.96"/>
</a>
</g>
</g>
<!-- Node38 -->
<g id="Node000038" class="node">
<title>Node38</title>
<g id="a_Node000038"><a xlink:href="DigitalOutputGuard_8h.html" target="_top" xlink:title="Header file for the DigitalOutputGuard class.">
<polygon fill="white" stroke="#666666" points="502.5,-341.5 308.5,-341.5 308.5,-318.5 502.5,-318.5 502.5,-341.5"/>
<text text-anchor="middle" x="405.5" y="-326.3" font-family="Arial" font-size="14.00">inc/utils/DigitalOutputGuard.h</text>
</a>
</g>
</g>
<!-- Node1&#45;&gt;Node38 -->
<g id="edge53_Node000001_Node000038" class="edge">
<title>Node1&#45;&gt;Node38</title>
<g id="a_edge53_Node000001_Node000038"><a xlink:title=" ">
<path fill="none" stroke="#63b8ff" d="M1480.3,-390.97C1273.22,-379.42 726.07,-348.89 502.63,-336.42"/>
<polygon fill="#63b8ff" stroke="#63b8ff" points="1480.31,-394.48 1490.49,-391.54 1480.7,-387.49 1480.31,-394.48"/>
</a>
</g>
</g>
<!-- Node3&#45;&gt;Node2 -->
<g id="edge4_Node000003_Node000002" class="edge">
<title>Node3&#45;&gt;Node2</title>
<g id="a_edge4_Node000003_Node000002"><a xlink:title=" ">
<path fill="none" stroke="#63b8ff" d="M1916.21,-165.24C1899.52,-155.12 1878.08,-141.25 1860.5,-127 1841.94,-111.96 1844.44,-98.43 1822.5,-89 1682.9,-29.01 606.16,-72.72 455.5,-53 442.15,-51.25 428.04,-48.53 414.6,-45.51"/>
<polygon fill="#63b8ff" stroke="#63b8ff" points="1914.56,-168.32 1924.94,-170.45 1918.15,-162.32 1914.56,-168.32"/>
</a>
</g>
</g>
<!-- Node4 -->
<g id="Node000004" class="node">
<title>Node4</title>
<g id="a_Node000004"><a xlink:href="DigitalOutputGuardComprehensiveTest_8cpp.html" target="_top" xlink:title="DigitalOutputGuard comprehensive test suite for ESP32&#45;C6 DevKit&#45;M&#45;1.">
<polygon fill="white" stroke="#666666" points="233,-53 0,-53 0,0 233,0 233,-53"/>
<text text-anchor="start" x="8" y="-37.8" font-family="Arial" font-size="14.00">examples/esp32/main</text>
<text text-anchor="start" x="8" y="-22.8" font-family="Arial" font-size="14.00">/DigitalOutputGuardComprehensive</text>
<text text-anchor="middle" x="116.5" y="-7.8" font-family="Arial" font-size="14.00">Test.cpp</text>
</a>
</g>
</g>
<!-- Node3&#45;&gt;Node4 -->
<g id="edge3_Node000003_Node000004" class="edge">
<title>Node3&#45;&gt;Node4</title>
<g id="a_edge3_Node000003_Node000004"><a xlink:title=" ">
<path fill="none" stroke="#63b8ff" d="M1847.02,-178.01C1586.77,-169.02 848.99,-137.46 241.5,-53 238.76,-52.62 235.99,-52.21 233.19,-51.79"/>
<polygon fill="#63b8ff" stroke="#63b8ff" points="1847.08,-181.51 1857.2,-178.36 1847.32,-174.52 1847.08,-181.51"/>
</a>
</g>
</g>
<!-- Node5 -->
<g id="Node000005" class="node">
<title>Node5</title>
<g id="a_Node000005"><a xlink:href="I2cComprehensiveTest_8cpp.html" target="_top" xlink:title="Comprehensive I2C testing suite for ESP32&#45;C6 DevKit&#45;M&#45;1 (noexcept)">
<polygon fill="white" stroke="#666666" points="3064.5,-45.5 2880.5,-45.5 2880.5,-7.5 3064.5,-7.5 3064.5,-45.5"/>
<text text-anchor="start" x="2888.5" y="-30.3" font-family="Arial" font-size="14.00">examples/esp32/main</text>
<text text-anchor="middle" x="2972.5" y="-15.3" font-family="Arial" font-size="14.00">/I2cComprehensiveTest.cpp</text>
</a>
</g>
</g>
<!-- Node3&#45;&gt;Node5 -->
<g id="edge5_Node000003_Node000005" class="edge">
<title>Node3&#45;&gt;Node5</title>
<g id="a_edge5_Node000003_Node000005"><a xlink:title=" ">
<path fill="none" stroke="#63b8ff" d="M2015.74,-168.64C2078.31,-157.36 2163.63,-140.46 2195.5,-127 2223.55,-115.16 2223.63,-98.67 2252.5,-89 2383.16,-45.26 2735.32,-73.96 2871.5,-53 2883.65,-51.13 2896.48,-48.45 2908.76,-45.53"/>
<polygon fill="#63b8ff" stroke="#63b8ff" points="2014.75,-165.26 2005.52,-170.47 2015.98,-172.15 2014.75,-165.26"/>
</a>
</g>
</g>
<!-- Node6 -->
<g id="Node000006" class="node">
<title>Node6</title>
<g id="a_Node000006"><a xlink:href="PioComprehensiveTest_8cpp.html" target="_top" xlink:title="Comprehensive PIO testing suite for ESP32&#45;C6 DevKit&#45;M&#45;1 with RMT peripheral (noexcept)">
<polygon fill="white" stroke="#666666" points="3268,-45.5 3083,-45.5 3083,-7.5 3268,-7.5 3268,-45.5"/>
<text text-anchor="start" x="3091" y="-30.3" font-family="Arial" font-size="14.00">examples/esp32/main</text>
<text text-anchor="middle" x="3175.5" y="-15.3" font-family="Arial" font-size="14.00">/PioComprehensiveTest.cpp</text>
</a>
</g>
</g>
<!-- Node3&#45;&gt;Node6 -->
<g id="edge6_Node000003_Node000006" class="edge">
<title>Node3&#45;&gt;Node6</title>
<g id="a_edge6_Node000003_Node000006"><a xlink:title=" ">
<path fill="none" stroke="#63b8ff" d="M2020.53,-168.83C2100.9,-155.82 2217.95,-135.86 2237.5,-127 2262.28,-115.77 2260.01,-98.53 2285.5,-89 2449.7,-27.63 2900.05,-78.38 3073.5,-53 3085.96,-51.18 3099.12,-48.48 3111.68,-45.52"/>
<polygon fill="#63b8ff" stroke="#63b8ff" points="2019.74,-165.41 2010.42,-170.46 2020.85,-172.32 2019.74,-165.41"/>
</a>
</g>
</g>
<!-- Node7 -->
<g id="Node000007" class="node">
<title>Node7</title>
<g id="a_Node000007"><a xlink:href="PwmComprehensiveTest_8cpp.html" target="_top" xlink:title="Comprehensive PWM testing suite for ESP32 family (noexcept)">
<polygon fill="white" stroke="#666666" points="2450,-45.5 2253,-45.5 2253,-7.5 2450,-7.5 2450,-45.5"/>
<text text-anchor="start" x="2261" y="-30.3" font-family="Arial" font-size="14.00">examples/esp32/main</text>
<text text-anchor="middle" x="2351.5" y="-15.3" font-family="Arial" font-size="14.00">/PwmComprehensiveTest.cpp</text>
</a>
</g>
</g>
<!-- Node3&#45;&gt;Node7 -->
<g id="edge7_Node000003_Node000007" class="edge">
<title>Node3&#45;&gt;Node7</title>
<g id="a_edge7_Node000003_Node000007"><a xlink:title=" ">
<path fill="none" stroke="#63b8ff" d="M1980.98,-166.9C2055.29,-138.94 2221.2,-76.52 2303.42,-45.59"/>
<polygon fill="#63b8ff" stroke="#63b8ff" points="1979.67,-163.65 1971.54,-170.45 1982.14,-170.2 1979.67,-163.65"/>
</a>
</g>
</g>
<!-- Node8 -->
<g id="Node000008" class="node">
<title>Node8</title>
<g id="a_Node000008"><a xlink:href="TestFramework_8h.html" target="_top" xlink:title="Shared testing framework for ESP32&#45;C6 comprehensive test suites.">
<polygon fill="white" stroke="#666666" points="2018,-127 1869,-127 1869,-89 2018,-89 2018,-127"/>
<text text-anchor="start" x="1877" y="-111.8" font-family="Arial" font-size="14.00">examples/esp32/main</text>
<text text-anchor="middle" x="1943.5" y="-96.8" font-family="Arial" font-size="14.00">/TestFramework.h</text>
</a>
</g>
</g>
<!-- Node3&#45;&gt;Node8 -->
<g id="edge8_Node000003_Node000008" class="edge">
<title>Node3&#45;&gt;Node8</title>
<g id="a_edge8_Node000003_Node000008"><a xlink:title=" ">
<path fill="none" stroke="#63b8ff" d="M1943.5,-160.1C1943.5,-149.69 1943.5,-137.23 1943.5,-127.21"/>
<polygon fill="#63b8ff" stroke="#63b8ff" points="1940,-160.38 1943.5,-170.38 1947,-160.38 1940,-160.38"/>
</a>
</g>
</g>
<!-- Node18 -->
<g id="Node000018" class="node">
<title>Node18</title>
<g id="a_Node000018"><a xlink:href="UartComprehensiveTest_8cpp.html" target="_top" xlink:title="Comprehensive UART testing suite for ESP32&#45;C6 DevKit&#45;M&#45;1 (noexcept)">
<polygon fill="white" stroke="#666666" points="2862,-45.5 2671,-45.5 2671,-7.5 2862,-7.5 2862,-45.5"/>
<text text-anchor="start" x="2679" y="-30.3" font-family="Arial" font-size="14.00">examples/esp32/main</text>
<text text-anchor="middle" x="2766.5" y="-15.3" font-family="Arial" font-size="14.00">/UartComprehensiveTest.cpp</text>
</a>
</g>
</g>
<!-- Node3&#45;&gt;Node18 -->
<g id="edge25_Node000003_Node000018" class="edge">
<title>Node3&#45;&gt;Node18</title>
<g id="a_edge25_Node000003_Node000018"><a xlink:title=" ">
<path fill="none" stroke="#63b8ff" d="M2010.27,-168.34C2051.34,-159.38 2104.53,-145.63 2149.5,-127 2180.42,-114.19 2182.58,-99.04 2214.5,-89 2405.06,-29.09 2465.31,-84.89 2662.5,-53 2674.61,-51.04 2687.39,-48.4 2699.69,-45.55"/>
<polygon fill="#63b8ff" stroke="#63b8ff" points="2009.41,-164.94 2000.37,-170.46 2010.88,-171.79 2009.41,-164.94"/>
</a>
</g>
</g>
<!-- Node20 -->
<g id="Node000020" class="node">
<title>Node20</title>
<g id="a_Node000020"><a xlink:href="EspGpio_8cpp.html" target="_top" xlink:title="Production&#45;quality ESP32C6 GPIO implementation with ESP&#45;IDF v5.5+ advanced features.">
<polygon fill="white" stroke="#666666" points="1814,-119.5 1627,-119.5 1627,-96.5 1814,-96.5 1814,-119.5"/>
<text text-anchor="middle" x="1720.5" y="-104.3" font-family="Arial" font-size="14.00">src/mcu/esp32/EspGpio.cpp</text>
</a>
</g>
</g>
<!-- Node3&#45;&gt;Node20 -->
<g id="edge26_Node000003_Node000020" class="edge">
<title>Node3&#45;&gt;Node20</title>
<g id="a_edge26_Node000003_Node000020"><a xlink:title=" ">
<path fill="none" stroke="#63b8ff" d="M1900.97,-167.27C1857.93,-153.37 1792.3,-132.18 1753.18,-119.55"/>
<polygon fill="#63b8ff" stroke="#63b8ff" points="1900,-170.63 1910.6,-170.38 1902.15,-163.97 1900,-170.63"/>
</a>
</g>
</g>
<!-- Node8&#45;&gt;Node2 -->
<g id="edge14_Node000008_Node000002" class="edge">
<title>Node8&#45;&gt;Node2</title>
<g id="a_edge14_Node000008_Node000002"><a xlink:title=" ">
<path fill="none" stroke="#63b8ff" d="M1858.77,-89.39C1857.68,-89.25 1856.58,-89.12 1855.5,-89 1237.09,-18.36 1072.69,-133.58 455.5,-53 442.15,-51.26 428.04,-48.54 414.6,-45.52"/>
<polygon fill="#63b8ff" stroke="#63b8ff" points="1858.36,-92.87 1868.75,-90.78 1859.33,-85.93 1858.36,-92.87"/>
</a>
</g>
</g>
<!-- Node8&#45;&gt;Node4 -->
<g id="edge13_Node000008_Node000004" class="edge">
<title>Node8&#45;&gt;Node4</title>
<g id="a_edge13_Node000008_Node000004"><a xlink:title=" ">
<path fill="none" stroke="#63b8ff" d="M1858.69,-93.01C1846.57,-91.42 1834.24,-90 1822.5,-89 1122.2,-29.17 939.94,-131.56 241.5,-53 238.75,-52.69 235.97,-52.35 233.17,-51.98"/>
<polygon fill="#63b8ff" stroke="#63b8ff" points="1858.42,-96.51 1868.8,-94.4 1859.36,-89.57 1858.42,-96.51"/>
</a>
</g>
</g>
<!-- Node8&#45;&gt;Node5 -->
<g id="edge15_Node000008_Node000005" class="edge">
<title>Node8&#45;&gt;Node5</title>
<g id="a_edge15_Node000008_Node000005"><a xlink:title=" ">
<path fill="none" stroke="#63b8ff" d="M2028.36,-101.11C2081.77,-97.47 2152.16,-92.78 2214.5,-89 2506.4,-71.31 2582.39,-97 2871.5,-53 2883.75,-51.14 2896.67,-48.44 2909.03,-45.5"/>
<polygon fill="#63b8ff" stroke="#63b8ff" points="2027.99,-97.63 2018.25,-101.8 2028.47,-104.61 2027.99,-97.63"/>
</a>
</g>
</g>
<!-- Node8&#45;&gt;Node6 -->
<g id="edge18_Node000008_Node000006" class="edge">
<title>Node8&#45;&gt;Node6</title>
<g id="a_edge18_Node000008_Node000006"><a xlink:title=" ">
<path fill="none" stroke="#63b8ff" d="M2028.23,-101.74C2090.31,-97.96 2176.63,-92.87 2252.5,-89 2617.26,-70.38 2712.06,-105.56 3073.5,-53 3085.96,-51.19 3099.12,-48.5 3111.69,-45.54"/>
<polygon fill="#63b8ff" stroke="#63b8ff" points="2027.86,-98.25 2018.1,-102.35 2028.29,-105.24 2027.86,-98.25"/>
</a>
</g>
</g>
<!-- Node8&#45;&gt;Node7 -->
<g id="edge19_Node000008_Node000007" class="edge">
<title>Node8&#45;&gt;Node7</title>
<g id="a_edge19_Node000008_Node000007"><a xlink:title=" ">
<path fill="none" stroke="#63b8ff" d="M2028.13,-93.13C2088.59,-82.9 2171.76,-68.18 2244.5,-53 2255.44,-50.72 2266.96,-48.15 2278.24,-45.54"/>
<polygon fill="#63b8ff" stroke="#63b8ff" points="2027.53,-89.68 2018.25,-94.8 2028.7,-96.58 2027.53,-89.68"/>
</a>
</g>
</g>
<!-- Node9 -->
<g id="Node000009" class="node">
<title>Node9</title>
<g id="a_Node000009"><a xlink:href="AdcComprehensiveTest_8cpp.html" target="_top" xlink:title="Comprehensive ADC testing suite for ESP32&#45;C6 DevKit&#45;M&#45;1 (noexcept)">
<polygon fill="white" stroke="#666666" points="1555,-45.5 1366,-45.5 1366,-7.5 1555,-7.5 1555,-45.5"/>
<text text-anchor="start" x="1374" y="-30.3" font-family="Arial" font-size="14.00">examples/esp32/main</text>
<text text-anchor="middle" x="1460.5" y="-15.3" font-family="Arial" font-size="14.00">/AdcComprehensiveTest.cpp</text>
</a>
</g>
</g>
<!-- Node8&#45;&gt;Node9 -->
<g id="edge9_Node000008_Node000009" class="edge">
<title>Node8&#45;&gt;Node9</title>
<g id="a_edge9_Node000008_Node000009"><a xlink:title=" ">
<path fill="none" stroke="#63b8ff" d="M1858.75,-89.54C1857.66,-89.36 1856.58,-89.18 1855.5,-89 1726.9,-67.93 1692.67,-76.56 1564.5,-53 1552.98,-50.88 1540.83,-48.26 1529.06,-45.52"/>
<polygon fill="#63b8ff" stroke="#63b8ff" points="1858.23,-93 1868.68,-91.28 1859.43,-86.11 1858.23,-93"/>
</a>
</g>
</g>
<!-- Node10 -->
<g id="Node000010" class="node">
<title>Node10</title>
<g id="a_Node000010"><a xlink:href="AsciiArtComprehensiveTest_8cpp.html" target="_top" xlink:title="ASCII Art Generator comprehensive example and test suite for ESP32&#45;C6 DevKit&#45;M&#45;1 (noexcept)">
<polygon fill="white" stroke="#666666" points="1785.5,-45.5 1573.5,-45.5 1573.5,-7.5 1785.5,-7.5 1785.5,-45.5"/>
<text text-anchor="start" x="1581.5" y="-30.3" font-family="Arial" font-size="14.00">examples/esp32/main</text>
<text text-anchor="middle" x="1679.5" y="-15.3" font-family="Arial" font-size="14.00">/AsciiArtComprehensiveTest.cpp</text>
</a>
</g>
</g>
<!-- Node8&#45;&gt;Node10 -->
<g id="edge10_Node000008_Node000010" class="edge">
<title>Node8&#45;&gt;Node10</title>
<g id="a_edge10_Node000008_Node000010"><a xlink:title=" ">
<path fill="none" stroke="#63b8ff" d="M1873.78,-86C1832.04,-73.44 1779.53,-57.62 1739.62,-45.61"/>
<polygon fill="#63b8ff" stroke="#63b8ff" points="1873.01,-89.43 1883.59,-88.96 1875.03,-82.73 1873.01,-89.43"/>
</a>
</g>
</g>
<!-- Node11 -->
<g id="Node000011" class="node">
<title>Node11</title>
<g id="a_Node000011"><a xlink:href="BluetoothComprehensiveTest_8cpp.html" target="_top" xlink:title="Comprehensive Bluetooth/NimBLE testing suite for ESP32&#45;C6 DevKit&#45;M&#45;1 (noexcept)">
<polygon fill="white" stroke="#666666" points="2026,-45.5 1803,-45.5 1803,-7.5 2026,-7.5 2026,-45.5"/>
<text text-anchor="start" x="1811" y="-30.3" font-family="Arial" font-size="14.00">examples/esp32/main</text>
<text text-anchor="middle" x="1914.5" y="-15.3" font-family="Arial" font-size="14.00">/BluetoothComprehensiveTest.cpp</text>
</a>
</g>
</g>
<!-- Node8&#45;&gt;Node11 -->
<g id="edge11_Node000008_Node000011" class="edge">
<title>Node8&#45;&gt;Node11</title>
<g id="a_edge11_Node000008_Node000011"><a xlink:title=" ">
<path fill="none" stroke="#63b8ff" d="M1933.38,-79.26C1929.33,-68.16 1924.78,-55.67 1921.15,-45.74"/>
<polygon fill="#63b8ff" stroke="#63b8ff" points="1930.2,-80.77 1936.92,-88.96 1936.78,-78.37 1930.2,-80.77"/>
</a>
</g>
</g>
<!-- Node12 -->
<g id="Node000012" class="node">
<title>Node12</title>
<g id="a_Node000012"><a xlink:href="CanComprehensiveTest_8cpp.html" target="_top" xlink:title="Comprehensive CAN testing suite for ESP32&#45;C6 with ESP&#45;IDF v5.5 TWAI API and SN65 transceiver.">
<polygon fill="white" stroke="#666666" points="2235,-45.5 2044,-45.5 2044,-7.5 2235,-7.5 2235,-45.5"/>
<text text-anchor="start" x="2052" y="-30.3" font-family="Arial" font-size="14.00">examples/esp32/main</text>
<text text-anchor="middle" x="2139.5" y="-15.3" font-family="Arial" font-size="14.00">/CanComprehensiveTest.cpp</text>
</a>
</g>
</g>
<!-- Node8&#45;&gt;Node12 -->
<g id="edge12_Node000008_Node000012" class="edge">
<title>Node8&#45;&gt;Node12</title>
<g id="a_edge12_Node000008_Node000012"><a xlink:title=" ">
<path fill="none" stroke="#63b8ff" d="M1997.63,-85.04C2028.22,-72.64 2065.99,-57.32 2094.86,-45.61"/>
<polygon fill="#63b8ff" stroke="#63b8ff" points="1995.93,-81.96 1987.98,-88.96 1998.56,-88.44 1995.93,-81.96"/>
</a>
</g>
</g>
<!-- Node13 -->
<g id="Node000013" class="node">
<title>Node13</title>
<g id="a_Node000013"><a xlink:href="LoggerComprehensiveTest_8cpp.html" target="_top" xlink:title="Comprehensive Logger testing suite for ESP32&#45;C6 DevKit&#45;M&#45;1 (noexcept)">
<polygon fill="white" stroke="#666666" points="672.5,-45.5 464.5,-45.5 464.5,-7.5 672.5,-7.5 672.5,-45.5"/>
<text text-anchor="start" x="472.5" y="-30.3" font-family="Arial" font-size="14.00">examples/esp32/main</text>
<text text-anchor="middle" x="568.5" y="-15.3" font-family="Arial" font-size="14.00">/LoggerComprehensiveTest.cpp</text>
</a>
</g>
</g>
<!-- Node8&#45;&gt;Node13 -->
<g id="edge16_Node000008_Node000013" class="edge">
<title>Node8&#45;&gt;Node13</title>
<g id="a_edge16_Node000008_Node000013"><a xlink:title=" ">
<path fill="none" stroke="#63b8ff" d="M1858.77,-89.4C1857.67,-89.26 1856.58,-89.13 1855.5,-89 1337,-28.47 1199.36,-118.76 681.5,-53 667.53,-51.23 652.76,-48.52 638.66,-45.51"/>
<polygon fill="#63b8ff" stroke="#63b8ff" points="1858.36,-92.88 1868.75,-90.8 1859.33,-85.94 1858.36,-92.88"/>
</a>
</g>
</g>
<!-- Node14 -->
<g id="Node000014" class="node">
<title>Node14</title>
<g id="a_Node000014"><a xlink:href="NvsComprehensiveTest_8cpp.html" target="_top" xlink:title="Comprehensive NVS (Non&#45;Volatile Storage) testing suite for ESP32&#45;C6 DevKit&#45;M&#45;1 (noexcept)">
<polygon fill="white" stroke="#666666" points="880,-45.5 691,-45.5 691,-7.5 880,-7.5 880,-45.5"/>
<text text-anchor="start" x="699" y="-30.3" font-family="Arial" font-size="14.00">examples/esp32/main</text>
<text text-anchor="middle" x="785.5" y="-15.3" font-family="Arial" font-size="14.00">/NvsComprehensiveTest.cpp</text>
</a>
</g>
</g>
<!-- Node8&#45;&gt;Node14 -->
<g id="edge17_Node000008_Node000014" class="edge">
<title>Node8&#45;&gt;Node14</title>
<g id="a_edge17_Node000008_Node000014"><a xlink:title=" ">
<path fill="none" stroke="#63b8ff" d="M1858.77,-89.41C1857.67,-89.27 1856.58,-89.13 1855.5,-89 1428.93,-37.78 1315,-112.46 889.5,-53 876.7,-51.21 863.19,-48.52 850.29,-45.53"/>
<polygon fill="#63b8ff" stroke="#63b8ff" points="1858.35,-92.88 1868.74,-90.84 1859.34,-85.96 1858.35,-92.88"/>
</a>
</g>
</g>
<!-- Node15 -->
<g id="Node000015" class="node">
<title>Node15</title>
<g id="a_Node000015"><a xlink:href="SpiComprehensiveTest_8cpp.html" target="_top" xlink:title="Comprehensive SPI testing suite for ESP32&#45;C6 DevKit&#45;M&#45;1 (noexcept)">
<polygon fill="white" stroke="#666666" points="2653,-45.5 2468,-45.5 2468,-7.5 2653,-7.5 2653,-45.5"/>
<text text-anchor="start" x="2476" y="-30.3" font-family="Arial" font-size="14.00">examples/esp32/main</text>
<text text-anchor="middle" x="2560.5" y="-15.3" font-family="Arial" font-size="14.00">/SpiComprehensiveTest.cpp</text>
</a>
</g>
</g>
<!-- Node8&#45;&gt;Node15 -->
<g id="edge20_Node000008_Node000015" class="edge">
<title>Node8&#45;&gt;Node15</title>
<g id="a_edge20_Node000008_Node000015"><a xlink:title=" ">
<path fill="none" stroke="#63b8ff" d="M2028.42,-99.6C2152.93,-88.5 2378.96,-67.31 2459.5,-53 2470.99,-50.96 2483.09,-48.33 2494.78,-45.53"/>
<polygon fill="#63b8ff" stroke="#63b8ff" points="2027.82,-96.14 2018.17,-100.51 2028.44,-103.11 2027.82,-96.14"/>
</a>
</g>
</g>
<!-- Node16 -->
<g id="Node000016" class="node">
<title>Node16</title>
<g id="a_Node000016"><a xlink:href="TemperatureComprehensiveTest_8cpp.html" target="_top" xlink:title="Comprehensive Temperature sensor testing suite for ESP32&#45;C6 DevKit&#45;M&#45;1 (noexcept)">
<polygon fill="white" stroke="#666666" points="1140.5,-45.5 898.5,-45.5 898.5,-7.5 1140.5,-7.5 1140.5,-45.5"/>
<text text-anchor="start" x="906.5" y="-30.3" font-family="Arial" font-size="14.00">examples/esp32/main</text>
<text text-anchor="middle" x="1019.5" y="-15.3" font-family="Arial" font-size="14.00">/TemperatureComprehensiveTest.cpp</text>
</a>
</g>
</g>
<!-- Node8&#45;&gt;Node16 -->
<g id="edge21_Node000008_Node000016" class="edge">
<title>Node8&#45;&gt;Node16</title>
<g id="a_edge21_Node000008_Node000016"><a xlink:title=" ">
<path fill="none" stroke="#63b8ff" d="M1858.77,-89.43C1857.67,-89.28 1856.58,-89.14 1855.5,-89 1543.82,-49.41 1461.34,-91.34 1149.5,-53 1134.09,-51.11 1117.77,-48.44 1102.09,-45.54"/>
<polygon fill="#63b8ff" stroke="#63b8ff" points="1858.33,-92.9 1868.74,-90.91 1859.36,-85.98 1858.33,-92.9"/>
</a>
</g>
</g>
<!-- Node17 -->
<g id="Node000017" class="node">
<title>Node17</title>
<g id="a_Node000017"><a xlink:href="TimerComprehensiveTest_8cpp.html" target="_top" xlink:title="ESP32&#45;C6 Periodic Timer Comprehensive Test Suite v2.0.">
<polygon fill="white" stroke="#666666" points="3883,-45.5 3682,-45.5 3682,-7.5 3883,-7.5 3883,-45.5"/>
<text text-anchor="start" x="3690" y="-30.3" font-family="Arial" font-size="14.00">examples/esp32/main</text>
<text text-anchor="middle" x="3782.5" y="-15.3" font-family="Arial" font-size="14.00">/TimerComprehensiveTest.cpp</text>
</a>
</g>
</g>
<!-- Node8&#45;&gt;Node17 -->
<g id="edge22_Node000008_Node000017" class="edge">
<title>Node8&#45;&gt;Node17</title>
<g id="a_edge22_Node000008_Node000017"><a xlink:title=" ">
<path fill="none" stroke="#63b8ff" d="M2028.6,-101.89C2097.78,-97.89 2197.91,-92.44 2285.5,-89 2593.81,-76.89 3367.47,-92.35 3673.5,-53 3687.09,-51.25 3701.46,-48.53 3715.15,-45.51"/>
<polygon fill="#63b8ff" stroke="#63b8ff" points="2027.98,-98.42 2018.2,-102.49 2028.38,-105.41 2027.98,-98.42"/>
</a>
</g>
</g>
<!-- Node8&#45;&gt;Node18 -->
<g id="edge23_Node000008_Node000018" class="edge">
<title>Node8&#45;&gt;Node18</title>
<g id="a_edge23_Node000008_Node000018"><a xlink:title=" ">
<path fill="none" stroke="#63b8ff" d="M2028.38,-100.38C2072.55,-96.95 2127.43,-92.71 2176.5,-89 2392.47,-72.66 2448.58,-86.91 2662.5,-53 2674.71,-51.06 2687.59,-48.41 2699.98,-45.55"/>
<polygon fill="#63b8ff" stroke="#63b8ff" points="2027.96,-96.9 2018.26,-101.16 2028.5,-103.88 2027.96,-96.9"/>
</a>
</g>
</g>
<!-- Node19 -->
<g id="Node000019" class="node">
<title>Node19</title>
<g id="a_Node000019"><a xlink:href="WifiComprehensiveTest_8cpp.html" target="_top" xlink:title="Comprehensive WiFi testing suite for ESP32&#45;C6 DevKit&#45;M&#45;1 with ESP&#45;IDF v5.5f.">
<polygon fill="white" stroke="#666666" points="1348,-45.5 1159,-45.5 1159,-7.5 1348,-7.5 1348,-45.5"/>
<text text-anchor="start" x="1167" y="-30.3" font-family="Arial" font-size="14.00">examples/esp32/main</text>
<text text-anchor="middle" x="1253.5" y="-15.3" font-family="Arial" font-size="14.00">/WifiComprehensiveTest.cpp</text>
</a>
</g>
</g>
<!-- Node8&#45;&gt;Node19 -->
<g id="edge24_Node000008_Node000019" class="edge">
<title>Node8&#45;&gt;Node19</title>
<g id="a_edge24_Node000008_Node000019"><a xlink:title=" ">
<path fill="none" stroke="#63b8ff" d="M1858.76,-89.46C1857.67,-89.3 1856.58,-89.15 1855.5,-89 1635.23,-58.66 1576.11,-87.84 1356.5,-53 1344.31,-51.07 1331.45,-48.4 1319.09,-45.51"/>
<polygon fill="#63b8ff" stroke="#63b8ff" points="1858.3,-92.93 1868.72,-91.02 1859.38,-86.02 1858.3,-92.93"/>
</a>
</g>
</g>
<!-- Node21&#45;&gt;Node2 -->
<g id="edge28_Node000021_Node000002" class="edge">
<title>Node21&#45;&gt;Node2</title>
<g id="a_edge28_Node000021_Node000002"><a xlink:title=" ">
<path fill="none" stroke="#63b8ff" d="M1891.78,-306.81C1773.25,-257.16 1471.7,-137.63 1206.5,-89 877.82,-28.73 786.35,-99.94 455.5,-53 442.55,-51.16 428.87,-48.48 415.77,-45.54"/>
<polygon fill="#63b8ff" stroke="#63b8ff" points="1890.77,-310.18 1901.34,-310.83 1893.48,-303.73 1890.77,-310.18"/>
</a>
</g>
</g>
<!-- Node21&#45;&gt;Node3 -->
<g id="edge29_Node000021_Node000003" class="edge">
<title>Node21&#45;&gt;Node3</title>
<g id="a_edge29_Node000021_Node000003"><a xlink:title=" ">
<path fill="none" stroke="#63b8ff" d="M1943.5,-300.51C1943.5,-267.77 1943.5,-215.7 1943.5,-193.54"/>
<polygon fill="#63b8ff" stroke="#63b8ff" points="1940,-300.8 1943.5,-310.8 1947,-300.8 1940,-300.8"/>
</a>
</g>
</g>
<!-- Node22 -->
<g id="Node000022" class="node">
<title>Node22</title>
<g id="a_Node000022"><a xlink:href="EspTypes_8h.html" target="_top" xlink:title="Consolidated MCU&#45;specific type definitions for hardware abstraction (hf_* types).">
<polygon fill="white" stroke="#666666" points="2866.5,-201 2734.5,-201 2734.5,-163 2866.5,-163 2866.5,-201"/>
<text text-anchor="start" x="2742.5" y="-185.8" font-family="Arial" font-size="14.00">inc/mcu/esp32/utils</text>
<text text-anchor="middle" x="2800.5" y="-170.8" font-family="Arial" font-size="14.00">/EspTypes.h</text>
</a>
</g>
</g>
<!-- Node21&#45;&gt;Node22 -->
<g id="edge30_Node000021_Node000022" class="edge">
<title>Node21&#45;&gt;Node22</title>
<g id="a_edge30_Node000021_Node000022"><a xlink:title=" ">
<path fill="none" stroke="#63b8ff" d="M2020.59,-320.18C2064.31,-312.75 2118.83,-299.26 2162.5,-275 2183.66,-263.25 2179.51,-247.11 2201.5,-237 2294.88,-194.04 2598.9,-185.22 2734.35,-183.44"/>
<polygon fill="#63b8ff" stroke="#63b8ff" points="2019.88,-316.75 2010.58,-321.81 2021.01,-323.66 2019.88,-316.75"/>
</a>
</g>
</g>
<!-- Node33 -->
<g id="Node000033" class="node">
<title>Node33</title>
<g id="a_Node000033"><a xlink:href="EspTypes__PWM_8h.html" target="_top" xlink:title="ESP32 PWM type definitions for LEDC peripheral hardware abstraction.">
<polygon fill="white" stroke="#666666" points="2153,-275 2020,-275 2020,-237 2153,-237 2153,-275"/>
<text text-anchor="start" x="2028" y="-259.8" font-family="Arial" font-size="14.00">inc/mcu/esp32/utils</text>
<text text-anchor="middle" x="2086.5" y="-244.8" font-family="Arial" font-size="14.00">/EspTypes_PWM.h</text>
</a>
</g>
</g>
<!-- Node21&#45;&gt;Node33 -->
<g id="edge46_Node000021_Node000033" class="edge">
<title>Node21&#45;&gt;Node33</title>
<g id="a_edge46_Node000021_Node000033"><a xlink:title=" ">
<path fill="none" stroke="#63b8ff" d="M1988.77,-306.21C2008.67,-296.19 2031.71,-284.58 2050.43,-275.16"/>
<polygon fill="#63b8ff" stroke="#63b8ff" points="1986.94,-303.21 1979.58,-310.83 1990.09,-309.46 1986.94,-303.21"/>
</a>
</g>
</g>
<!-- Node23 -->
<g id="Node000023" class="node">
<title>Node23</title>
<g id="a_Node000023"><a xlink:href="EspI2c_8h.html" target="_top" xlink:title="Advanced ESP32&#45;integrated I2C controller for ESP&#45;IDF v5.5+ with proper bus&#45;device architecture.">
<polygon fill="white" stroke="#666666" points="3064,-119.5 2903,-119.5 2903,-96.5 3064,-96.5 3064,-119.5"/>
<text text-anchor="middle" x="2983.5" y="-104.3" font-family="Arial" font-size="14.00">inc/mcu/esp32/EspI2c.h</text>
</a>
</g>
</g>
<!-- Node22&#45;&gt;Node23 -->
<g id="edge31_Node000022_Node000023" class="edge">
<title>Node22&#45;&gt;Node23</title>
<g id="a_edge31_Node000022_Node000023"><a xlink:title=" ">
<path fill="none" stroke="#63b8ff" d="M2856.3,-159.05C2889.6,-145.94 2930.38,-129.9 2956.65,-119.57"/>
<polygon fill="#63b8ff" stroke="#63b8ff" points="2854.7,-155.91 2846.68,-162.83 2857.27,-162.43 2854.7,-155.91"/>
</a>
</g>
</g>
<!-- Node25 -->
<g id="Node000025" class="node">
<title>Node25</title>
<g id="a_Node000025"><a xlink:href="EspPeriodicTimer_8h.html" target="_top" xlink:title="MCU&#45;integrated periodic timer implementation.">
<polygon fill="white" stroke="#666666" points="3872.5,-127 3692.5,-127 3692.5,-89 3872.5,-89 3872.5,-127"/>
<text text-anchor="start" x="3700.5" y="-111.8" font-family="Arial" font-size="14.00">inc/mcu/esp32/EspPeriodic</text>
<text text-anchor="middle" x="3782.5" y="-96.8" font-family="Arial" font-size="14.00">Timer.h</text>
</a>
</g>
</g>
<!-- Node22&#45;&gt;Node25 -->
<g id="edge34_Node000022_Node000025" class="edge">
<title>Node22&#45;&gt;Node25</title>
<g id="a_edge34_Node000022_Node000025"><a xlink:title=" ">
<path fill="none" stroke="#63b8ff" d="M2876.95,-175.39C3055.8,-162.28 3500.8,-129.65 3692.4,-115.61"/>
<polygon fill="#63b8ff" stroke="#63b8ff" points="2876.56,-171.91 2866.84,-176.14 2877.07,-178.9 2876.56,-171.91"/>
</a>
</g>
</g>
<!-- Node27 -->
<g id="Node000027" class="node">
<title>Node27</title>
<g id="a_Node000027"><a xlink:href="EspPio_8h.html" target="_top" xlink:title="ESP32C6 RMT&#45;based Programmable IO Channel implementation with ESP&#45;IDF v5.5+ features.">
<polygon fill="white" stroke="#666666" points="3256.5,-119.5 3094.5,-119.5 3094.5,-96.5 3256.5,-96.5 3256.5,-119.5"/>
<text text-anchor="middle" x="3175.5" y="-104.3" font-family="Arial" font-size="14.00">inc/mcu/esp32/EspPio.h</text>
</a>
</g>
</g>
<!-- Node22&#45;&gt;Node27 -->
<g id="edge37_Node000022_Node000027" class="edge">
<title>Node22&#45;&gt;Node27</title>
<g id="a_edge37_Node000022_Node000027"><a xlink:title=" ">
<path fill="none" stroke="#63b8ff" d="M2876.66,-166.38C2949.08,-152.47 3056.25,-131.9 3120.64,-119.53"/>
<polygon fill="#63b8ff" stroke="#63b8ff" points="2875.84,-162.97 2866.68,-168.29 2877.16,-169.85 2875.84,-162.97"/>
</a>
</g>
</g>
<!-- Node29 -->
<g id="Node000029" class="node">
<title>Node29</title>
<g id="a_Node000029"><a xlink:href="EspSpi_8h.html" target="_top" xlink:title="Advanced MCU&#45;integrated SPI controller implementation with ESP32C6/ESP&#45;IDF v5.5+ features.">
<polygon fill="white" stroke="#666666" points="2698.5,-119.5 2536.5,-119.5 2536.5,-96.5 2698.5,-96.5 2698.5,-119.5"/>
<text text-anchor="middle" x="2617.5" y="-104.3" font-family="Arial" font-size="14.00">inc/mcu/esp32/EspSpi.h</text>
</a>
</g>
</g>
<!-- Node22&#45;&gt;Node29 -->
<g id="edge40_Node000022_Node000029" class="edge">
<title>Node22&#45;&gt;Node29</title>
<g id="a_edge40_Node000022_Node000029"><a xlink:title=" ">
<path fill="none" stroke="#63b8ff" d="M2744.7,-159.05C2711.4,-145.94 2670.62,-129.9 2644.35,-119.57"/>
<polygon fill="#63b8ff" stroke="#63b8ff" points="2743.73,-162.43 2754.32,-162.83 2746.3,-155.91 2743.73,-162.43"/>
</a>
</g>
</g>
<!-- Node31 -->
<g id="Node000031" class="node">
<title>Node31</title>
<g id="a_Node000031"><a xlink:href="EspUart_8h.html" target="_top" xlink:title="ESP32 UART implementation for the HardFOC system.">
<polygon fill="white" stroke="#666666" points="2884.5,-119.5 2716.5,-119.5 2716.5,-96.5 2884.5,-96.5 2884.5,-119.5"/>
<text text-anchor="middle" x="2800.5" y="-104.3" font-family="Arial" font-size="14.00">inc/mcu/esp32/EspUart.h</text>
</a>
</g>
</g>
<!-- Node22&#45;&gt;Node31 -->
<g id="edge43_Node000022_Node000031" class="edge">
<title>Node22&#45;&gt;Node31</title>
<g id="a_edge43_Node000022_Node000031"><a xlink:title=" ">
<path fill="none" stroke="#63b8ff" d="M2800.5,-152.62C2800.5,-140.99 2800.5,-128.26 2800.5,-119.57"/>
<polygon fill="#63b8ff" stroke="#63b8ff" points="2797,-152.83 2800.5,-162.83 2804,-152.83 2797,-152.83"/>
</a>
</g>
</g>
<!-- Node23&#45;&gt;Node5 -->
<g id="edge32_Node000023_Node000005" class="edge">
<title>Node23&#45;&gt;Node5</title>
<g id="a_edge32_Node000023_Node000005"><a xlink:title=" ">
<path fill="none" stroke="#63b8ff" d="M2980.63,-86.25C2978.89,-73.65 2976.68,-57.73 2975.01,-45.64"/>
<polygon fill="#63b8ff" stroke="#63b8ff" points="2977.18,-86.85 2982.02,-96.28 2984.11,-85.89 2977.18,-86.85"/>
</a>
</g>
</g>
<!-- Node24 -->
<g id="Node000024" class="node">
<title>Node24</title>
<g id="a_Node000024"><a xlink:href="EspI2c_8cpp.html" target="_top" xlink:title="Implementation of ESP32&#45;integrated I2C controller with proper bus&#45;device architecture.">
<polygon fill="white" stroke="#666666" points="4077.5,-38 3901.5,-38 3901.5,-15 4077.5,-15 4077.5,-38"/>
<text text-anchor="middle" x="3989.5" y="-22.8" font-family="Arial" font-size="14.00">src/mcu/esp32/EspI2c.cpp</text>
</a>
</g>
</g>
<!-- Node23&#45;&gt;Node24 -->
<g id="edge33_Node000023_Node000024" class="edge">
<title>Node23&#45;&gt;Node24</title>
<g id="a_edge33_Node000023_Node000024"><a xlink:title=" ">
<path fill="none" stroke="#63b8ff" d="M3045.39,-94.75C3058.58,-92.51 3072.47,-90.43 3085.5,-89 3442.37,-49.72 3537.55,-106.94 3892.5,-53 3914.02,-49.73 3937.65,-43.57 3956.2,-38.13"/>
<polygon fill="#63b8ff" stroke="#63b8ff" points="3044.71,-91.32 3035.46,-96.48 3045.92,-98.21 3044.71,-91.32"/>
</a>
</g>
</g>
<!-- Node25&#45;&gt;Node17 -->
<g id="edge35_Node000025_Node000017" class="edge">
<title>Node25&#45;&gt;Node17</title>
<g id="a_edge35_Node000025_Node000017"><a xlink:title=" ">
<path fill="none" stroke="#63b8ff" d="M3782.5,-78.92C3782.5,-67.9 3782.5,-55.57 3782.5,-45.74"/>
<polygon fill="#63b8ff" stroke="#63b8ff" points="3779,-78.96 3782.5,-88.96 3786,-78.96 3779,-78.96"/>
</a>
</g>
</g>
<!-- Node26 -->
<g id="Node000026" class="node">
<title>Node26</title>
<g id="a_Node000026"><a xlink:href="EspPeriodicTimer_8cpp.html" target="_top" xlink:title="Implementation of MCU&#45;integrated periodic timer.">
<polygon fill="white" stroke="#666666" points="4471,-45.5 4290,-45.5 4290,-7.5 4471,-7.5 4471,-45.5"/>
<text text-anchor="start" x="4298" y="-30.3" font-family="Arial" font-size="14.00">src/mcu/esp32/EspPeriodic</text>
<text text-anchor="middle" x="4380.5" y="-15.3" font-family="Arial" font-size="14.00">Timer.cpp</text>
</a>
</g>
</g>
<!-- Node25&#45;&gt;Node26 -->
<g id="edge36_Node000025_Node000026" class="edge">
<title>Node25&#45;&gt;Node26</title>
<g id="a_edge36_Node000025_Node000026"><a xlink:title=" ">
<path fill="none" stroke="#63b8ff" d="M3882.97,-100.41C3984.18,-92.76 4144.53,-77.92 4281.5,-53 4292.76,-50.95 4304.63,-48.32 4316.09,-45.52"/>
<polygon fill="#63b8ff" stroke="#63b8ff" points="3882.47,-96.93 3872.75,-101.17 3882.99,-103.92 3882.47,-96.93"/>
</a>
</g>
</g>
<!-- Node27&#45;&gt;Node6 -->
<g id="edge38_Node000027_Node000006" class="edge">
<title>Node27&#45;&gt;Node6</title>
<g id="a_edge38_Node000027_Node000006"><a xlink:title=" ">
<path fill="none" stroke="#63b8ff" d="M3175.5,-86.25C3175.5,-73.65 3175.5,-57.73 3175.5,-45.64"/>
<polygon fill="#63b8ff" stroke="#63b8ff" points="3172,-86.28 3175.5,-96.28 3179,-86.28 3172,-86.28"/>
</a>
</g>
</g>
<!-- Node28 -->
<g id="Node000028" class="node">
<title>Node28</title>
<g id="a_Node000028"><a xlink:href="EspPio_8cpp.html" target="_top" xlink:title="ESP32C6 RMT&#45;based Programmable IO Channel implementation.">
<polygon fill="white" stroke="#666666" points="4272,-38 4095,-38 4095,-15 4272,-15 4272,-38"/>
<text text-anchor="middle" x="4183.5" y="-22.8" font-family="Arial" font-size="14.00">src/mcu/esp32/EspPio.cpp</text>
</a>
</g>
</g>
<!-- Node27&#45;&gt;Node28 -->
<g id="edge39_Node000027_Node000028" class="edge">
<title>Node27&#45;&gt;Node28</title>
<g id="a_edge39_Node000027_Node000028"><a xlink:title=" ">
<path fill="none" stroke="#63b8ff" d="M3266.87,-103.88C3465.36,-96.74 3930.6,-77.86 4086.5,-53 4107.99,-49.57 4131.62,-43.41 4150.18,-38.01"/>
<polygon fill="#63b8ff" stroke="#63b8ff" points="3266.63,-100.39 3256.76,-104.25 3266.88,-107.39 3266.63,-100.39"/>
</a>
</g>
</g>
<!-- Node29&#45;&gt;Node15 -->
<g id="edge41_Node000029_Node000015" class="edge">
<title>Node29&#45;&gt;Node15</title>
<g id="a_edge41_Node000029_Node000015"><a xlink:title=" ">
<path fill="none" stroke="#63b8ff" d="M2603.97,-88.13C2594.75,-75.27 2582.61,-58.34 2573.51,-45.64"/>
<polygon fill="#63b8ff" stroke="#63b8ff" points="2601.14,-90.19 2609.81,-96.28 2606.83,-86.11 2601.14,-90.19"/>
</a>
</g>
</g>
<!-- Node30 -->
<g id="Node000030" class="node">
<title>Node30</title>
<g id="a_Node000030"><a xlink:href="EspSpi_8cpp.html" target="_top" xlink:title="Implementation of MCU&#45;integrated SPI controller for ESP32C6 with ESP&#45;IDF v5.5+ features.">
<polygon fill="white" stroke="#666666" points="3463,-38 3286,-38 3286,-15 3463,-15 3463,-38"/>
<text text-anchor="middle" x="3374.5" y="-22.8" font-family="Arial" font-size="14.00">src/mcu/esp32/EspSpi.cpp</text>
</a>
</g>
</g>
<!-- Node29&#45;&gt;Node30 -->
<g id="edge42_Node000029_Node000030" class="edge">
<title>Node29&#45;&gt;Node30</title>
<g id="a_edge42_Node000029_Node000030"><a xlink:title=" ">
<path fill="none" stroke="#63b8ff" d="M2674,-94.5C2685.07,-92.39 2696.61,-90.43 2707.5,-89 2959.19,-56.03 3026.91,-93.46 3277.5,-53 3298.82,-49.56 3322.24,-43.47 3340.73,-38.1"/>
<polygon fill="#63b8ff" stroke="#63b8ff" points="2673.15,-91.1 2664.01,-96.46 2674.5,-97.96 2673.15,-91.1"/>
</a>
</g>
</g>
<!-- Node31&#45;&gt;Node18 -->
<g id="edge44_Node000031_Node000018" class="edge">
<title>Node31&#45;&gt;Node18</title>
<g id="a_edge44_Node000031_Node000018"><a xlink:title=" ">
<path fill="none" stroke="#63b8ff" d="M2791.95,-87.01C2786.51,-74.3 2779.53,-57.98 2774.26,-45.64"/>
<polygon fill="#63b8ff" stroke="#63b8ff" points="2788.76,-88.46 2795.91,-96.28 2795.2,-85.71 2788.76,-88.46"/>
</a>
</g>
</g>
<!-- Node32 -->
<g id="Node000032" class="node">
<title>Node32</title>
<g id="a_Node000032"><a xlink:href="EspUart_8cpp.html" target="_top" xlink:title="Implementation of ESP32 UART controller for the HardFOC system.">
<polygon fill="white" stroke="#666666" points="3664,-38 3481,-38 3481,-15 3664,-15 3664,-38"/>
<text text-anchor="middle" x="3572.5" y="-22.8" font-family="Arial" font-size="14.00">src/mcu/esp32/EspUart.cpp</text>
</a>
</g>
</g>
<!-- Node31&#45;&gt;Node32 -->
<g id="edge45_Node000031_Node000032" class="edge">
<title>Node31&#45;&gt;Node32</title>
<g id="a_edge45_Node000031_Node000032"><a xlink:title=" ">
<path fill="none" stroke="#63b8ff" d="M2859.18,-94.57C2870.84,-92.44 2883.02,-90.45 2894.5,-89 3149.86,-56.73 3218.24,-92.97 3472.5,-53 3494.45,-49.55 3518.59,-43.46 3537.66,-38.1"/>
<polygon fill="#63b8ff" stroke="#63b8ff" points="2858.28,-91.18 2849.1,-96.47 2859.58,-98.06 2858.28,-91.18"/>
</a>
</g>
</g>
<!-- Node33&#45;&gt;Node22 -->
<g id="edge50_Node000033_Node000022" class="edge">
<title>Node33&#45;&gt;Node22</title>
<g id="a_edge50_Node000033_Node000022"><a xlink:title=" ">
<path fill="none" stroke="#63b8ff" d="M2163.06,-237.71C2164.55,-237.46 2166.03,-237.22 2167.5,-237 2372.74,-205.59 2618.42,-191.17 2734.09,-185.74"/>
<polygon fill="#63b8ff" stroke="#63b8ff" points="2162.35,-234.28 2153.11,-239.46 2163.57,-241.17 2162.35,-234.28"/>
</a>
</g>
</g>
<!-- Node34 -->
<g id="Node000034" class="node">
<title>Node34</title>
<g id="a_Node000034"><a xlink:href="EspPwm_8h.html" target="_top" xlink:title="ESP32C6 LEDC (PWM) controller implementation for the HardFOC system.">
<polygon fill="white" stroke="#666666" points="2239,-193.5 2066,-193.5 2066,-170.5 2239,-170.5 2239,-193.5"/>
<text text-anchor="middle" x="2152.5" y="-178.3" font-family="Arial" font-size="14.00">inc/mcu/esp32/EspPwm.h</text>
</a>
</g>
</g>
<!-- Node33&#45;&gt;Node34 -->
<g id="edge47_Node000033_Node000034" class="edge">
<title>Node33&#45;&gt;Node34</title>
<g id="a_edge47_Node000033_Node000034"><a xlink:title=" ">
<path fill="none" stroke="#63b8ff" d="M2109.93,-229.44C2121.24,-217.1 2134.2,-202.97 2142.81,-193.57"/>
<polygon fill="#63b8ff" stroke="#63b8ff" points="2107.33,-227.09 2103.15,-236.83 2112.49,-231.82 2107.33,-227.09"/>
</a>
</g>
</g>
<!-- Node34&#45;&gt;Node7 -->
<g id="edge48_Node000034_Node000007" class="edge">
<title>Node34&#45;&gt;Node7</title>
<g id="a_edge48_Node000034_Node000007"><a xlink:title=" ">
<path fill="none" stroke="#63b8ff" d="M2174.46,-164.06C2212.2,-134.95 2289.03,-75.68 2327.88,-45.72"/>
<polygon fill="#63b8ff" stroke="#63b8ff" points="2171.96,-161.57 2166.18,-170.45 2176.23,-167.11 2171.96,-161.57"/>
</a>
</g>
</g>
<!-- Node35 -->
<g id="Node000035" class="node">
<title>Node35</title>
<g id="a_Node000035"><a xlink:href="EspPwm_8cpp.html" target="_top" xlink:title="Implementation of ESP32 family LEDC (PWM) controller for the HardFOC system.">
<polygon fill="white" stroke="#666666" points="2482.5,-119.5 2294.5,-119.5 2294.5,-96.5 2482.5,-96.5 2482.5,-119.5"/>
<text text-anchor="middle" x="2388.5" y="-104.3" font-family="Arial" font-size="14.00">src/mcu/esp32/EspPwm.cpp</text>
</a>
</g>
</g>
<!-- Node34&#45;&gt;Node35 -->
<g id="edge49_Node000034_Node000035" class="edge">
<title>Node34&#45;&gt;Node35</title>
<g id="a_edge49_Node000034_Node000035"><a xlink:title=" ">
<path fill="none" stroke="#63b8ff" d="M2196.67,-167.52C2242.18,-153.64 2312.17,-132.29 2353.84,-119.57"/>
<polygon fill="#63b8ff" stroke="#63b8ff" points="2195.61,-164.19 2187.07,-170.45 2197.66,-170.88 2195.61,-164.19"/>
</a>
</g>
</g>
<!-- Node37 -->
<g id="Node000037" class="node">
<title>Node37</title>
<g id="a_Node000037"><a xlink:href="StmGpio_8cpp.html" target="_top" xlink:title="STM32 GPIO stub implementation.">
<polygon fill="white" stroke="#666666" points="2399,-267.5 2210,-267.5 2210,-244.5 2399,-244.5 2399,-267.5"/>
<text text-anchor="middle" x="2304.5" y="-252.3" font-family="Arial" font-size="14.00">src/mcu/stm32/StmGpio.cpp</text>
</a>
</g>
</g>
<!-- Node36&#45;&gt;Node37 -->
<g id="edge52_Node000036_Node000037" class="edge">
<title>Node36&#45;&gt;Node37</title>
<g id="a_edge52_Node000036_Node000037"><a xlink:title=" ">
<path fill="none" stroke="#63b8ff" d="M2211.89,-313.03C2234.71,-299.23 2267.06,-279.65 2286.87,-267.67"/>
<polygon fill="#63b8ff" stroke="#63b8ff" points="2209.8,-310.2 2203.06,-318.38 2213.43,-316.19 2209.8,-310.2"/>
</a>
</g>
</g>
<!-- Node38&#45;&gt;Node4 -->
<g id="edge54_Node000038_Node000004" class="edge">
<title>Node38&#45;&gt;Node4</title>
<g id="a_edge54_Node000038_Node000004"><a xlink:title=" ">
<path fill="none" stroke="#63b8ff" d="M404.99,-308.44C403.64,-288.74 399.24,-258.84 385.5,-237 331.6,-151.32 229.68,-86.63 167.95,-53.12"/>
<polygon fill="#63b8ff" stroke="#63b8ff" points="401.5,-308.66 405.48,-318.48 408.49,-308.32 401.5,-308.66"/>
</a>
</g>
</g>
<!-- Node39 -->
<g id="Node000039" class="node">
<title>Node39</title>
<g id="a_Node000039"><a xlink:href="DigitalOutputGuard_8cpp.html" target="_top" xlink:title="Implementation of the DigitalOutputGuard class for unified DigitalGpio.">
<polygon fill="white" stroke="#666666" points="377,-267.5 168,-267.5 168,-244.5 377,-244.5 377,-267.5"/>
<text text-anchor="middle" x="272.5" y="-252.3" font-family="Arial" font-size="14.00">src/utils/DigitalOutputGuard.cpp</text>
</a>
</g>
</g>
<!-- Node38&#45;&gt;Node39 -->
<g id="edge55_Node000038_Node000039" class="edge">
<title>Node38&#45;&gt;Node39</title>
<g id="a_edge55_Node000038_Node000039"><a xlink:title=" ">
<path fill="none" stroke="#63b8ff" d="M377.02,-313.58C351.47,-299.75 314.64,-279.81 292.21,-267.67"/>
<polygon fill="#63b8ff" stroke="#63b8ff" points="375.42,-316.69 385.88,-318.38 378.75,-310.54 375.42,-316.69"/>
</a>
</g>
</g>
</g>
</svg>
