<?xml version="1.0" encoding="UTF-8" standalone="no"?>
<!DOCTYPE svg PUBLIC "-//W3C//DTD SVG 1.1//EN"
 "http://www.w3.org/Graphics/SVG/1.1/DTD/svg11.dtd">
<!-- Generated by graphviz version 2.43.0 (0)
 -->
<!-- Title: inc/base/BasePio.h Pages: 1 -->
<svg width="2011pt" height="327pt"
 viewBox="0.00 0.00 2011.00 327.00" xmlns="http://www.w3.org/2000/svg" xmlns:xlink="http://www.w3.org/1999/xlink">
<g id="graph0" class="graph" transform="scale(1 1) rotate(0) translate(4 323)">
<title>inc/base/BasePio.h</title>
<!-- Node1 -->
<g id="Node000001" class="node">
<title>Node1</title>
<g id="a_Node000001"><a xlink:title="Abstract base class for Programmable IO Channel implementations in the HardFOC system.">
<polygon fill="#999999" stroke="#666666" points="196.5,-319 64.5,-319 64.5,-296 196.5,-296 196.5,-319"/>
<text text-anchor="middle" x="130.5" y="-303.8" font-family="Arial" font-size="14.00">inc/base/BasePio.h</text>
</a>
</g>
</g>
<!-- Node2 -->
<g id="Node000002" class="node">
<title>Node2</title>
<g id="a_Node000002"><a xlink:href="PioComprehensiveTest_8cpp.html" target="_top" xlink:title="Comprehensive PIO testing suite for ESP32&#45;C6 DevKit&#45;M&#45;1 with RMT peripheral (noexcept)">
<polygon fill="white" stroke="#666666" points="185,-38 0,-38 0,0 185,0 185,-38"/>
<text text-anchor="start" x="8" y="-22.8" font-family="Arial" font-size="14.00">examples/esp32/main</text>
<text text-anchor="middle" x="92.5" y="-7.8" font-family="Arial" font-size="14.00">/PioComprehensiveTest.cpp</text>
</a>
</g>
</g>
<!-- Node1&#45;&gt;Node2 -->
<g id="edge1_Node000001_Node000002" class="edge">
<title>Node1&#45;&gt;Node2</title>
<g id="a_edge1_Node000001_Node000002"><a xlink:title=" ">
<path fill="none" stroke="#63b8ff" d="M127.78,-285.96C120.67,-232.41 101.67,-89.14 94.92,-38.25"/>
<polygon fill="#63b8ff" stroke="#63b8ff" points="124.32,-286.51 129.1,-295.96 131.26,-285.59 124.32,-286.51"/>
</a>
</g>
</g>
<!-- Node3 -->
<g id="Node000003" class="node">
<title>Node3</title>
<g id="a_Node000003"><a xlink:href="EspPio_8h.html" target="_top" xlink:title="ESP32C6 RMT&#45;based Programmable IO Channel implementation with ESP&#45;IDF v5.5+ features.">
<polygon fill="white" stroke="#666666" points="358.5,-104.5 196.5,-104.5 196.5,-81.5 358.5,-81.5 358.5,-104.5"/>
<text text-anchor="middle" x="277.5" y="-89.3" font-family="Arial" font-size="14.00">inc/mcu/esp32/EspPio.h</text>
</a>
</g>
</g>
<!-- Node1&#45;&gt;Node3 -->
<g id="edge2_Node000001_Node000003" class="edge">
<title>Node1&#45;&gt;Node3</title>
<g id="a_edge2_Node000001_Node000003"><a xlink:title=" ">
<path fill="none" stroke="#63b8ff" d="M143.5,-287.71C173.49,-244.36 246.74,-138.47 270.17,-104.6"/>
<polygon fill="#63b8ff" stroke="#63b8ff" points="140.6,-285.75 137.79,-295.96 146.36,-289.73 140.6,-285.75"/>
</a>
</g>
</g>
<!-- Node5 -->
<g id="Node000005" class="node">
<title>Node5</title>
<g id="a_Node000005"><a xlink:href="EspTypes__PIO_8h.html" target="_top" xlink:title="ESP32 PIO/RMT type definitions for hardware abstraction.">
<polygon fill="white" stroke="#666666" points="371.5,-260 239.5,-260 239.5,-222 371.5,-222 371.5,-260"/>
<text text-anchor="start" x="247.5" y="-244.8" font-family="Arial" font-size="14.00">inc/mcu/esp32/utils</text>
<text text-anchor="middle" x="305.5" y="-229.8" font-family="Arial" font-size="14.00">/EspTypes_PIO.h</text>
</a>
</g>
</g>
<!-- Node1&#45;&gt;Node5 -->
<g id="edge5_Node000001_Node000005" class="edge">
<title>Node1&#45;&gt;Node5</title>
<g id="a_edge5_Node000001_Node000005"><a xlink:title=" ">
<path fill="none" stroke="#63b8ff" d="M168.44,-292.52C194.24,-283.01 228.61,-270.34 256.48,-260.07"/>
<polygon fill="#63b8ff" stroke="#63b8ff" points="167.18,-289.25 159.01,-295.99 169.6,-295.82 167.18,-289.25"/>
</a>
</g>
</g>
<!-- Node3&#45;&gt;Node2 -->
<g id="edge3_Node000003_Node000002" class="edge">
<title>Node3&#45;&gt;Node2</title>
<g id="a_edge3_Node000003_Node000002"><a xlink:title=" ">
<path fill="none" stroke="#63b8ff" d="M240.77,-77.71C211.54,-66.33 170.45,-50.34 138.93,-38.07"/>
<polygon fill="#63b8ff" stroke="#63b8ff" points="239.61,-81.01 250.2,-81.38 242.15,-74.49 239.61,-81.01"/>
</a>
</g>
</g>
<!-- Node4 -->
<g id="Node000004" class="node">
<title>Node4</title>
<g id="a_Node000004"><a xlink:href="EspPio_8cpp.html" target="_top" xlink:title="ESP32C6 RMT&#45;based Programmable IO Channel implementation.">
<polygon fill="white" stroke="#666666" points="380,-30.5 203,-30.5 203,-7.5 380,-7.5 380,-30.5"/>
<text text-anchor="middle" x="291.5" y="-15.3" font-family="Arial" font-size="14.00">src/mcu/esp32/EspPio.cpp</text>
</a>
</g>
</g>
<!-- Node3&#45;&gt;Node4 -->
<g id="edge4_Node000003_Node000004" class="edge">
<title>Node3&#45;&gt;Node4</title>
<g id="a_edge4_Node000003_Node000004"><a xlink:title=" ">
<path fill="none" stroke="#63b8ff" d="M281.54,-71.23C284.12,-57.97 287.35,-41.32 289.43,-30.67"/>
<polygon fill="#63b8ff" stroke="#63b8ff" points="278.04,-70.89 279.57,-81.38 284.91,-72.23 278.04,-70.89"/>
</a>
</g>
</g>
<!-- Node5&#45;&gt;Node2 -->
<g id="edge6_Node000005_Node000002" class="edge">
<title>Node5&#45;&gt;Node2</title>
<g id="a_edge6_Node000005_Node000002"><a xlink:title=" ">
<path fill="none" stroke="#63b8ff" d="M281.02,-214.71C237.61,-169.87 148.15,-77.48 110.17,-38.25"/>
<polygon fill="#63b8ff" stroke="#63b8ff" points="278.6,-217.25 288.07,-222 283.63,-212.38 278.6,-217.25"/>
</a>
</g>
</g>
<!-- Node5&#45;&gt;Node4 -->
<g id="edge21_Node000005_Node000004" class="edge">
<title>Node5&#45;&gt;Node4</title>
<g id="a_edge21_Node000005_Node000004"><a xlink:title=" ">
<path fill="none" stroke="#63b8ff" d="M328.38,-214.06C354.88,-180.69 391.96,-121.38 367.5,-74 357.03,-53.72 335.04,-39.4 317.39,-30.62"/>
<polygon fill="#63b8ff" stroke="#63b8ff" points="325.54,-212.01 321.91,-221.96 330.96,-216.44 325.54,-212.01"/>
</a>
</g>
</g>
<!-- Node6 -->
<g id="Node000006" class="node">
<title>Node6</title>
<g id="a_Node000006"><a xlink:href="EspTypes_8h.html" target="_top" xlink:title="Consolidated MCU&#45;specific type definitions for hardware abstraction (hf_* types).">
<polygon fill="white" stroke="#666666" points="856.5,-186 724.5,-186 724.5,-148 856.5,-148 856.5,-186"/>
<text text-anchor="start" x="732.5" y="-170.8" font-family="Arial" font-size="14.00">inc/mcu/esp32/utils</text>
<text text-anchor="middle" x="790.5" y="-155.8" font-family="Arial" font-size="14.00">/EspTypes.h</text>
</a>
</g>
</g>
<!-- Node5&#45;&gt;Node6 -->
<g id="edge7_Node000005_Node000006" class="edge">
<title>Node5&#45;&gt;Node6</title>
<g id="a_edge7_Node000005_Node000006"><a xlink:title=" ">
<path fill="none" stroke="#63b8ff" d="M381.71,-228.69C476.02,-214.69 635.05,-191.08 724.42,-177.81"/>
<polygon fill="#63b8ff" stroke="#63b8ff" points="381.04,-225.25 371.67,-230.18 382.07,-232.17 381.04,-225.25"/>
</a>
</g>
</g>
<!-- Node6&#45;&gt;Node3 -->
<g id="edge14_Node000006_Node000003" class="edge">
<title>Node6&#45;&gt;Node3</title>
<g id="a_edge14_Node000006_Node000003"><a xlink:title=" ">
<path fill="none" stroke="#63b8ff" d="M714.41,-155.32C617,-141.65 449.25,-118.11 352.41,-104.51"/>
<polygon fill="#63b8ff" stroke="#63b8ff" points="714.1,-158.81 724.48,-156.73 715.07,-151.88 714.1,-158.81"/>
</a>
</g>
</g>
<!-- Node7 -->
<g id="Node000007" class="node">
<title>Node7</title>
<g id="a_Node000007"><a xlink:href="EspI2c_8h.html" target="_top" xlink:title="Advanced ESP32&#45;integrated I2C controller for ESP&#45;IDF v5.5+ with proper bus&#45;device architecture.">
<polygon fill="white" stroke="#666666" points="1375,-104.5 1214,-104.5 1214,-81.5 1375,-81.5 1375,-104.5"/>
<text text-anchor="middle" x="1294.5" y="-89.3" font-family="Arial" font-size="14.00">inc/mcu/esp32/EspI2c.h</text>
</a>
</g>
</g>
<!-- Node6&#45;&gt;Node7 -->
<g id="edge8_Node000006_Node000007" class="edge">
<title>Node6&#45;&gt;Node7</title>
<g id="a_edge8_Node000006_Node000007"><a xlink:title=" ">
<path fill="none" stroke="#63b8ff" d="M866.57,-155.13C962.46,-141.43 1126.2,-118.04 1220.91,-104.51"/>
<polygon fill="#63b8ff" stroke="#63b8ff" points="866.05,-151.67 856.65,-156.55 867.04,-158.6 866.05,-151.67"/>
</a>
</g>
</g>
<!-- Node10 -->
<g id="Node000010" class="node">
<title>Node10</title>
<g id="a_Node000010"><a xlink:href="EspPeriodicTimer_8h.html" target="_top" xlink:title="MCU&#45;integrated periodic timer implementation.">
<polygon fill="white" stroke="#666666" points="1783.5,-112 1603.5,-112 1603.5,-74 1783.5,-74 1783.5,-112"/>
<text text-anchor="start" x="1611.5" y="-96.8" font-family="Arial" font-size="14.00">inc/mcu/esp32/EspPeriodic</text>
<text text-anchor="middle" x="1693.5" y="-81.8" font-family="Arial" font-size="14.00">Timer.h</text>
</a>
</g>
</g>
<!-- Node6&#45;&gt;Node10 -->
<g id="edge11_Node000006_Node000010" class="edge">
<title>Node6&#45;&gt;Node10</title>
<g id="a_edge11_Node000006_Node000010"><a xlink:title=" ">
<path fill="none" stroke="#63b8ff" d="M866.65,-159.93C1032.47,-146.71 1425.58,-115.36 1603.39,-101.19"/>
<polygon fill="#63b8ff" stroke="#63b8ff" points="866.22,-156.45 856.53,-160.73 866.78,-163.43 866.22,-156.45"/>
</a>
</g>
</g>
<!-- Node13 -->
<g id="Node000013" class="node">
<title>Node13</title>
<g id="a_Node000013"><a xlink:href="EspSpi_8h.html" target="_top" xlink:title="Advanced MCU&#45;integrated SPI controller implementation with ESP32C6/ESP&#45;IDF v5.5+ features.">
<polygon fill="white" stroke="#666666" points="770.5,-104.5 608.5,-104.5 608.5,-81.5 770.5,-81.5 770.5,-104.5"/>
<text text-anchor="middle" x="689.5" y="-89.3" font-family="Arial" font-size="14.00">inc/mcu/esp32/EspSpi.h</text>
</a>
</g>
</g>
<!-- Node6&#45;&gt;Node13 -->
<g id="edge15_Node000006_Node000013" class="edge">
<title>Node6&#45;&gt;Node13</title>
<g id="a_edge15_Node000006_Node000013"><a xlink:title=" ">
<path fill="none" stroke="#63b8ff" d="M756.59,-141.83C738.84,-129.17 718.01,-114.32 704.32,-104.57"/>
<polygon fill="#63b8ff" stroke="#63b8ff" points="754.84,-144.88 765.01,-147.83 758.9,-139.18 754.84,-144.88"/>
</a>
</g>
</g>
<!-- Node16 -->
<g id="Node000016" class="node">
<title>Node16</title>
<g id="a_Node000016"><a xlink:href="EspUart_8h.html" target="_top" xlink:title="ESP32 UART implementation for the HardFOC system.">
<polygon fill="white" stroke="#666666" points="975.5,-104.5 807.5,-104.5 807.5,-81.5 975.5,-81.5 975.5,-104.5"/>
<text text-anchor="middle" x="891.5" y="-89.3" font-family="Arial" font-size="14.00">inc/mcu/esp32/EspUart.h</text>
</a>
</g>
</g>
<!-- Node6&#45;&gt;Node16 -->
<g id="edge18_Node000006_Node000016" class="edge">
<title>Node6&#45;&gt;Node16</title>
<g id="a_edge18_Node000006_Node000016"><a xlink:title=" ">
<path fill="none" stroke="#63b8ff" d="M824.41,-141.83C842.16,-129.17 862.99,-114.32 876.68,-104.57"/>
<polygon fill="#63b8ff" stroke="#63b8ff" points="822.1,-139.18 815.99,-147.83 826.16,-144.88 822.1,-139.18"/>
</a>
</g>
</g>
<!-- Node8 -->
<g id="Node000008" class="node">
<title>Node8</title>
<g id="a_Node000008"><a xlink:href="I2cComprehensiveTest_8cpp.html" target="_top" xlink:title="Comprehensive I2C testing suite for ESP32&#45;C6 DevKit&#45;M&#45;1 (noexcept)">
<polygon fill="white" stroke="#666666" points="1584.5,-38 1400.5,-38 1400.5,0 1584.5,0 1584.5,-38"/>
<text text-anchor="start" x="1408.5" y="-22.8" font-family="Arial" font-size="14.00">examples/esp32/main</text>
<text text-anchor="middle" x="1492.5" y="-7.8" font-family="Arial" font-size="14.00">/I2cComprehensiveTest.cpp</text>
</a>
</g>
</g>
<!-- Node7&#45;&gt;Node8 -->
<g id="edge9_Node000007_Node000008" class="edge">
<title>Node7&#45;&gt;Node8</title>
<g id="a_edge9_Node000007_Node000008"><a xlink:title=" ">
<path fill="none" stroke="#63b8ff" d="M1333.4,-77.85C1364.71,-66.47 1408.93,-50.39 1442.8,-38.07"/>
<polygon fill="#63b8ff" stroke="#63b8ff" points="1331.92,-74.67 1323.72,-81.38 1334.31,-81.25 1331.92,-74.67"/>
</a>
</g>
</g>
<!-- Node9 -->
<g id="Node000009" class="node">
<title>Node9</title>
<g id="a_Node000009"><a xlink:href="EspI2c_8cpp.html" target="_top" xlink:title="Implementation of ESP32&#45;integrated I2C controller with proper bus&#45;device architecture.">
<polygon fill="white" stroke="#666666" points="1382.5,-30.5 1206.5,-30.5 1206.5,-7.5 1382.5,-7.5 1382.5,-30.5"/>
<text text-anchor="middle" x="1294.5" y="-15.3" font-family="Arial" font-size="14.00">src/mcu/esp32/EspI2c.cpp</text>
</a>
</g>
</g>
<!-- Node7&#45;&gt;Node9 -->
<g id="edge10_Node000007_Node000009" class="edge">
<title>Node7&#45;&gt;Node9</title>
<g id="a_edge10_Node000007_Node000009"><a xlink:title=" ">
<path fill="none" stroke="#63b8ff" d="M1294.5,-71.23C1294.5,-57.97 1294.5,-41.32 1294.5,-30.67"/>
<polygon fill="#63b8ff" stroke="#63b8ff" points="1291,-71.38 1294.5,-81.38 1298,-71.38 1291,-71.38"/>
</a>
</g>
</g>
<!-- Node11 -->
<g id="Node000011" class="node">
<title>Node11</title>
<g id="a_Node000011"><a xlink:href="TimerComprehensiveTest_8cpp.html" target="_top" xlink:title="ESP32&#45;C6 Periodic Timer Comprehensive Test Suite v2.0.">
<polygon fill="white" stroke="#666666" points="2003,-38 1802,-38 1802,0 2003,0 2003,-38"/>
<text text-anchor="start" x="1810" y="-22.8" font-family="Arial" font-size="14.00">examples/esp32/main</text>
<text text-anchor="middle" x="1902.5" y="-7.8" font-family="Arial" font-size="14.00">/TimerComprehensiveTest.cpp</text>
</a>
</g>
</g>
<!-- Node10&#45;&gt;Node11 -->
<g id="edge12_Node000010_Node000011" class="edge">
<title>Node10&#45;&gt;Node11</title>
<g id="a_edge12_Node000010_Node000011"><a xlink:title=" ">
<path fill="none" stroke="#63b8ff" d="M1755.52,-70.64C1785.59,-60.28 1821.31,-47.97 1850.01,-38.08"/>
<polygon fill="#63b8ff" stroke="#63b8ff" points="1754.28,-67.36 1745.97,-73.92 1756.56,-73.98 1754.28,-67.36"/>
</a>
</g>
</g>
<!-- Node12 -->
<g id="Node000012" class="node">
<title>Node12</title>
<g id="a_Node000012"><a xlink:href="EspPeriodicTimer_8cpp.html" target="_top" xlink:title="Implementation of MCU&#45;integrated periodic timer.">
<polygon fill="white" stroke="#666666" points="1784,-38 1603,-38 1603,0 1784,0 1784,-38"/>
<text text-anchor="start" x="1611" y="-22.8" font-family="Arial" font-size="14.00">src/mcu/esp32/EspPeriodic</text>
<text text-anchor="middle" x="1693.5" y="-7.8" font-family="Arial" font-size="14.00">Timer.cpp</text>
</a>
</g>
</g>
<!-- Node10&#45;&gt;Node12 -->
<g id="edge13_Node000010_Node000012" class="edge">
<title>Node10&#45;&gt;Node12</title>
<g id="a_edge13_Node000010_Node000012"><a xlink:title=" ">
<path fill="none" stroke="#63b8ff" d="M1693.5,-63.57C1693.5,-55.11 1693.5,-46.06 1693.5,-38.41"/>
<polygon fill="#63b8ff" stroke="#63b8ff" points="1690,-63.83 1693.5,-73.83 1697,-63.83 1690,-63.83"/>
</a>
</g>
</g>
<!-- Node14 -->
<g id="Node000014" class="node">
<title>Node14</title>
<g id="a_Node000014"><a xlink:href="SpiComprehensiveTest_8cpp.html" target="_top" xlink:title="Comprehensive SPI testing suite for ESP32&#45;C6 DevKit&#45;M&#45;1 (noexcept)">
<polygon fill="white" stroke="#666666" points="583,-38 398,-38 398,0 583,0 583,-38"/>
<text text-anchor="start" x="406" y="-22.8" font-family="Arial" font-size="14.00">examples/esp32/main</text>
<text text-anchor="middle" x="490.5" y="-7.8" font-family="Arial" font-size="14.00">/SpiComprehensiveTest.cpp</text>
</a>
</g>
</g>
<!-- Node13&#45;&gt;Node14 -->
<g id="edge16_Node000013_Node000014" class="edge">
<title>Node13&#45;&gt;Node14</title>
<g id="a_edge16_Node000013_Node000014"><a xlink:title=" ">
<path fill="none" stroke="#63b8ff" d="M650.4,-77.85C618.93,-66.47 574.49,-50.39 540.45,-38.07"/>
<polygon fill="#63b8ff" stroke="#63b8ff" points="649.54,-81.27 660.14,-81.38 651.92,-74.68 649.54,-81.27"/>
</a>
</g>
</g>
<!-- Node15 -->
<g id="Node000015" class="node">
<title>Node15</title>
<g id="a_Node000015"><a xlink:href="EspSpi_8cpp.html" target="_top" xlink:title="Implementation of MCU&#45;integrated SPI controller for ESP32C6 with ESP&#45;IDF v5.5+ features.">
<polygon fill="white" stroke="#666666" points="778,-30.5 601,-30.5 601,-7.5 778,-7.5 778,-30.5"/>
<text text-anchor="middle" x="689.5" y="-15.3" font-family="Arial" font-size="14.00">src/mcu/esp32/EspSpi.cpp</text>
</a>
</g>
</g>
<!-- Node13&#45;&gt;Node15 -->
<g id="edge17_Node000013_Node000015" class="edge">
<title>Node13&#45;&gt;Node15</title>
<g id="a_edge17_Node000013_Node000015"><a xlink:title=" ">
<path fill="none" stroke="#63b8ff" d="M689.5,-71.23C689.5,-57.97 689.5,-41.32 689.5,-30.67"/>
<polygon fill="#63b8ff" stroke="#63b8ff" points="686,-71.38 689.5,-81.38 693,-71.38 686,-71.38"/>
</a>
</g>
</g>
<!-- Node17 -->
<g id="Node000017" class="node">
<title>Node17</title>
<g id="a_Node000017"><a xlink:href="UartComprehensiveTest_8cpp.html" target="_top" xlink:title="Comprehensive UART testing suite for ESP32&#45;C6 DevKit&#45;M&#45;1 (noexcept)">
<polygon fill="white" stroke="#666666" points="987,-38 796,-38 796,0 987,0 987,-38"/>
<text text-anchor="start" x="804" y="-22.8" font-family="Arial" font-size="14.00">examples/esp32/main</text>
<text text-anchor="middle" x="891.5" y="-7.8" font-family="Arial" font-size="14.00">/UartComprehensiveTest.cpp</text>
</a>
</g>
</g>
<!-- Node16&#45;&gt;Node17 -->
<g id="edge19_Node000016_Node000017" class="edge">
<title>Node16&#45;&gt;Node17</title>
<g id="a_edge19_Node000016_Node000017"><a xlink:title=" ">
<path fill="none" stroke="#63b8ff" d="M891.5,-71.1C891.5,-60.69 891.5,-48.23 891.5,-38.21"/>
<polygon fill="#63b8ff" stroke="#63b8ff" points="888,-71.38 891.5,-81.38 895,-71.38 888,-71.38"/>
</a>
</g>
</g>
<!-- Node18 -->
<g id="Node000018" class="node">
<title>Node18</title>
<g id="a_Node000018"><a xlink:href="EspUart_8cpp.html" target="_top" xlink:title="Implementation of ESP32 UART controller for the HardFOC system.">
<polygon fill="white" stroke="#666666" points="1188,-30.5 1005,-30.5 1005,-7.5 1188,-7.5 1188,-30.5"/>
<text text-anchor="middle" x="1096.5" y="-15.3" font-family="Arial" font-size="14.00">src/mcu/esp32/EspUart.cpp</text>
</a>
</g>
</g>
<!-- Node16&#45;&gt;Node18 -->
<g id="edge20_Node000016_Node000018" class="edge">
<title>Node16&#45;&gt;Node18</title>
<g id="a_edge20_Node000016_Node000018"><a xlink:title=" ">
<path fill="none" stroke="#63b8ff" d="M931.35,-78C970.93,-64.1 1030.72,-43.1 1066.46,-30.55"/>
<polygon fill="#63b8ff" stroke="#63b8ff" points="930.02,-74.76 921.75,-81.38 932.34,-81.36 930.02,-74.76"/>
</a>
</g>
</g>
</g>
</svg>
