<?xml version="1.0" encoding="UTF-8" standalone="no"?>
<!DOCTYPE svg PUBLIC "-//W3C//DTD SVG 1.1//EN"
 "http://www.w3.org/Graphics/SVG/1.1/DTD/svg11.dtd">
<!-- Generated by graphviz version 2.43.0 (0)
 -->
<!-- Title: inc/base/BaseTemperature.h Pages: 1 -->
<svg width="756pt" height="164pt"
 viewBox="0.00 0.00 756.00 164.00" xmlns="http://www.w3.org/2000/svg" xmlns:xlink="http://www.w3.org/1999/xlink">
<g id="graph0" class="graph" transform="scale(1 1) rotate(0) translate(4 160)">
<title>inc/base/BaseTemperature.h</title>
<!-- Node1 -->
<g id="Node000001" class="node">
<title>Node1</title>
<g id="a_Node000001"><a xlink:title="Abstract base class for temperature sensor implementations in the HardFOC system.">
<polygon fill="#999999" stroke="#666666" points="441.5,-156 252.5,-156 252.5,-133 441.5,-133 441.5,-156"/>
<text text-anchor="middle" x="347" y="-140.8" font-family="Arial" font-size="14.00">inc/base/BaseTemperature.h</text>
</a>
</g>
</g>
<!-- Node2 -->
<g id="Node000002" class="node">
<title>Node2</title>
<g id="a_Node000002"><a xlink:href="TemperatureComprehensiveTest_8cpp.html" target="_top" xlink:title="Comprehensive Temperature sensor testing suite for ESP32&#45;C6 DevKit&#45;M&#45;1 (noexcept)">
<polygon fill="white" stroke="#666666" points="242,-38 0,-38 0,0 242,0 242,-38"/>
<text text-anchor="start" x="8" y="-22.8" font-family="Arial" font-size="14.00">examples/esp32/main</text>
<text text-anchor="middle" x="121" y="-7.8" font-family="Arial" font-size="14.00">/TemperatureComprehensiveTest.cpp</text>
</a>
</g>
</g>
<!-- Node1&#45;&gt;Node2 -->
<g id="edge1_Node000001_Node000002" class="edge">
<title>Node1&#45;&gt;Node2</title>
<g id="a_edge1_Node000001_Node000002"><a xlink:title=" ">
<path fill="none" stroke="#63b8ff" d="M303.88,-129.61C280.75,-121.43 252.13,-110.12 228,-97 196.64,-79.94 163.76,-55.08 142.87,-38.26"/>
<polygon fill="#63b8ff" stroke="#63b8ff" points="302.83,-132.95 313.43,-132.91 305.12,-126.33 302.83,-132.95"/>
</a>
</g>
</g>
<!-- Node3 -->
<g id="Node000003" class="node">
<title>Node3</title>
<g id="a_Node000003"><a xlink:href="EspTemperature_8h.html" target="_top" xlink:title="ESP32&#45;C6 internal temperature sensor implementation for the HardFOC system.">
<polygon fill="white" stroke="#666666" points="456.5,-97 237.5,-97 237.5,-74 456.5,-74 456.5,-97"/>
<text text-anchor="middle" x="347" y="-81.8" font-family="Arial" font-size="14.00">inc/mcu/esp32/EspTemperature.h</text>
</a>
</g>
</g>
<!-- Node1&#45;&gt;Node3 -->
<g id="edge2_Node000001_Node000003" class="edge">
<title>Node1&#45;&gt;Node3</title>
<g id="a_edge2_Node000001_Node000003"><a xlink:title=" ">
<path fill="none" stroke="#63b8ff" d="M347,-122.63C347,-113.99 347,-104.33 347,-97.17"/>
<polygon fill="#63b8ff" stroke="#63b8ff" points="343.5,-122.78 347,-132.78 350.5,-122.78 343.5,-122.78"/>
</a>
</g>
</g>
<!-- Node5 -->
<g id="Node000005" class="node">
<title>Node5</title>
<g id="a_Node000005"><a xlink:href="StmTemperature_8h.html" target="_top" xlink:title="STM32 Temperature sensor — reads the internal temp sensor via ADC or an external sensor via a user&#45;su...">
<polygon fill="white" stroke="#666666" points="717.5,-97 496.5,-97 496.5,-74 717.5,-74 717.5,-97"/>
<text text-anchor="middle" x="607" y="-81.8" font-family="Arial" font-size="14.00">inc/mcu/stm32/StmTemperature.h</text>
</a>
</g>
</g>
<!-- Node1&#45;&gt;Node5 -->
<g id="edge5_Node000001_Node000005" class="edge">
<title>Node1&#45;&gt;Node5</title>
<g id="a_edge5_Node000001_Node000005"><a xlink:title=" ">
<path fill="none" stroke="#63b8ff" d="M404.88,-130.81C451.18,-120.66 515.33,-106.6 558.85,-97.06"/>
<polygon fill="#63b8ff" stroke="#63b8ff" points="404.01,-127.42 394.99,-132.98 405.51,-134.26 404.01,-127.42"/>
</a>
</g>
</g>
<!-- Node3&#45;&gt;Node2 -->
<g id="edge3_Node000003_Node000002" class="edge">
<title>Node3&#45;&gt;Node2</title>
<g id="a_edge3_Node000003_Node000002"><a xlink:title=" ">
<path fill="none" stroke="#63b8ff" d="M300.19,-71.14C266.65,-61.57 221.09,-48.57 184.31,-38.07"/>
<polygon fill="#63b8ff" stroke="#63b8ff" points="299.61,-74.61 310.19,-73.99 301.53,-67.88 299.61,-74.61"/>
</a>
</g>
</g>
<!-- Node4 -->
<g id="Node000004" class="node">
<title>Node4</title>
<g id="a_Node000004"><a xlink:href="EspTemperature_8cpp.html" target="_top" xlink:title="ESP32&#45;C6 internal temperature sensor implementation for the HardFOC system.">
<polygon fill="white" stroke="#666666" points="494,-30.5 260,-30.5 260,-7.5 494,-7.5 494,-30.5"/>
<text text-anchor="middle" x="377" y="-15.3" font-family="Arial" font-size="14.00">src/mcu/esp32/EspTemperature.cpp</text>
</a>
</g>
</g>
<!-- Node3&#45;&gt;Node4 -->
<g id="edge4_Node000003_Node000004" class="edge">
<title>Node3&#45;&gt;Node4</title>
<g id="a_edge4_Node000003_Node000004"><a xlink:title=" ">
<path fill="none" stroke="#63b8ff" d="M356.31,-64.49C361.46,-53.4 367.68,-40.05 371.94,-30.88"/>
<polygon fill="#63b8ff" stroke="#63b8ff" points="353,-63.31 351.95,-73.85 359.34,-66.26 353,-63.31"/>
</a>
</g>
</g>
<!-- Node6 -->
<g id="Node000006" class="node">
<title>Node6</title>
<g id="a_Node000006"><a xlink:href="StmTemperature_8cpp.html" target="_top" xlink:title="STM32 Temperature sensor implementation — ADC&#45;based with internal/external modes.">
<polygon fill="white" stroke="#666666" points="748,-30.5 512,-30.5 512,-7.5 748,-7.5 748,-30.5"/>
<text text-anchor="middle" x="630" y="-15.3" font-family="Arial" font-size="14.00">src/mcu/stm32/StmTemperature.cpp</text>
</a>
</g>
</g>
<!-- Node5&#45;&gt;Node6 -->
<g id="edge6_Node000005_Node000006" class="edge">
<title>Node5&#45;&gt;Node6</title>
<g id="a_edge6_Node000005_Node000006"><a xlink:title=" ">
<path fill="none" stroke="#63b8ff" d="M614.26,-64.15C618.19,-53.13 622.88,-39.95 626.12,-30.88"/>
<polygon fill="#63b8ff" stroke="#63b8ff" points="610.86,-63.25 610.8,-73.85 617.45,-65.61 610.86,-63.25"/>
</a>
</g>
</g>
</g>
</svg>
