<?xml version="1.0" encoding="UTF-8" standalone="no"?>
<!DOCTYPE svg PUBLIC "-//W3C//DTD SVG 1.1//EN"
 "http://www.w3.org/Graphics/SVG/1.1/DTD/svg11.dtd">
<!-- Generated by graphviz version 2.43.0 (0)
 -->
<!-- Title: inc/base/BaseI2c.h Pages: 1 -->
<!--zoomable 327 -->

<svg id="main" version="1.1" xmlns="http://www.w3.org/2000/svg" xmlns:xlink="http://www.w3.org/1999/xlink" xml:space="preserve" onload="init(evt)">
<style type="text/css"><![CDATA[
.node, .edge {opacity: 0.7;}
.node.selected, .edge.selected {opacity: 1;}
.edge:hover path { stroke: red; }
.edge:hover polygon { stroke: red; fill: red; }
]]></style>

<defs>
  <circle id="rim" cx="0" cy="0" r="7"/>
  <circle id="rim2" cx="0" cy="0" r="3.5"/>
  <g id="zoomPlus">
    <use xlink:href="#rim" fill="#404040"><set attributeName="fill" to="#808080" begin="zoomplus.mouseover" end="zoomplus.mouseout"/></use>
    <path d="M-4,0h8M0,-4v8" fill="none" stroke="white" stroke-width="1.5" pointer-events="none"/>
  </g>
  <g id="zoomMin">
    <use xlink:href="#rim" fill="#404040"><set attributeName="fill" to="#808080" begin="zoomminus.mouseover" end="zoomminus.mouseout"/></use>
    <path d="M-4,0h8" fill="none" stroke="white" stroke-width="1.5" pointer-events="none"/>
  </g>
  <g id="arrowUp" transform="translate(30 24)">
    <use xlink:href="#rim"/>
    <path pointer-events="none" fill="none" stroke="white" stroke-width="1.5" d="M0,-3.0v7 M-2.5,-0.5L0,-3.0L2.5,-0.5"/>
  </g>
  <g id="arrowRight" transform="rotate(90) translate(36 -43)">
    <use xlink:href="#rim"/>
    <path pointer-events="none" fill="none" stroke="white" stroke-width="1.5" d="M0,-3.0v7 M-2.5,-0.5L0,-3.0L2.5,-0.5"/>
  </g>
  <g id="arrowDown" transform="rotate(180) translate(-30 -48)">
    <use xlink:href="#rim"/>
    <path pointer-events="none" fill="none" stroke="white" stroke-width="1.5" d="M0,-3.0v7 M-2.5,-0.5L0,-3.0L2.5,-0.5"/>
  </g>
  <g id="arrowLeft" transform="rotate(270) translate(-36 17)">
    <use xlink:href="#rim"/>
    <path pointer-events="none" fill="none" stroke="white" stroke-width="1.5" d="M0,-3.0v7 M-2.5,-0.5L0,-3.0L2.5,-0.5"/>
  </g>
  <g id="resetDef">
    <use xlink:href="#rim2" fill="#404040"><set attributeName="fill" to="#808080" begin="reset.mouseover" end="reset.mouseout"/></use>
  </g>
</defs>
<script type="application/ecmascript">
var viewWidth = 2416;
var viewHeight = 327;
var sectionId = 'dynsection-1';
</script>
<script type="application/ecmascript" xlink:href="svg.min.js"/>
<svg id="graph" class="graph">
<g id="viewport">
<title>inc/base/BaseI2c.h</title>
<!-- Node1 -->
<g id="Node000001" class="node">
<title>Node1</title>
<g id="a_Node000001"><a xlink:title="Abstract base class for I2C device implementations in the HardFOC system.">
<polygon fill="#999999" stroke="#666666" points="2284,-319 2153,-319 2153,-296 2284,-296 2284,-319"/>
<text text-anchor="middle" x="2218.5" y="-303.8" font-family="Arial" font-size="14.00">inc/base/BaseI2c.h</text>
</a>
</g>
</g>
<!-- Node2 -->
<g id="Node000002" class="node">
<title>Node2</title>
<g id="a_Node000002"><a xlink:href="I2cComprehensiveTest_8cpp.html" target="_top" xlink:title="Comprehensive I2C testing suite for ESP32&#45;C6 DevKit&#45;M&#45;1 (noexcept)">
<polygon fill="white" stroke="#666666" points="2407.5,-38 2223.5,-38 2223.5,0 2407.5,0 2407.5,-38"/>
<text text-anchor="start" x="2231.5" y="-22.8" font-family="Arial" font-size="14.00">examples/esp32/main</text>
<text text-anchor="middle" x="2315.5" y="-7.8" font-family="Arial" font-size="14.00">/I2cComprehensiveTest.cpp</text>
</a>
</g>
</g>
<!-- Node1&#45;&gt;Node2 -->
<g id="edge1_Node000001_Node000002" class="edge">
<title>Node1&#45;&gt;Node2</title>
<g id="a_edge1_Node000001_Node000002"><a xlink:title=" ">
<path fill="none" stroke="#63b8ff" d="M2257.24,-291.29C2270.96,-283.93 2285.06,-273.66 2293.5,-260 2337.83,-188.28 2326,-80.77 2318.96,-38.25"/>
<polygon fill="#63b8ff" stroke="#63b8ff" points="2255.29,-288.36 2247.89,-295.93 2258.4,-294.63 2255.29,-288.36"/>
</a>
</g>
</g>
<!-- Node3 -->
<g id="Node000003" class="node">
<title>Node3</title>
<g id="a_Node000003"><a xlink:href="EspI2c_8h.html" target="_top" xlink:title="Advanced ESP32&#45;integrated I2C controller for ESP&#45;IDF v5.5+ with proper bus&#45;device architecture.">
<polygon fill="white" stroke="#666666" points="2199,-104.5 2038,-104.5 2038,-81.5 2199,-81.5 2199,-104.5"/>
<text text-anchor="middle" x="2118.5" y="-89.3" font-family="Arial" font-size="14.00">inc/mcu/esp32/EspI2c.h</text>
</a>
</g>
</g>
<!-- Node1&#45;&gt;Node3 -->
<g id="edge2_Node000001_Node000003" class="edge">
<title>Node1&#45;&gt;Node3</title>
<g id="a_edge2_Node000001_Node000003"><a xlink:title=" ">
<path fill="none" stroke="#63b8ff" d="M2180.88,-291.42C2167,-283.99 2152.49,-273.64 2143.5,-260 2110.47,-209.87 2114.41,-132.93 2117.21,-104.79"/>
<polygon fill="#63b8ff" stroke="#63b8ff" points="2179.33,-294.55 2189.84,-295.88 2182.45,-288.29 2179.33,-294.55"/>
</a>
</g>
</g>
<!-- Node5 -->
<g id="Node000005" class="node">
<title>Node5</title>
<g id="a_Node000005"><a xlink:href="EspTypes__I2C_8h.html" target="_top" xlink:title="ESP32 I2C type definitions for hardware abstraction.">
<polygon fill="white" stroke="#666666" points="2284.5,-260 2152.5,-260 2152.5,-222 2284.5,-222 2284.5,-260"/>
<text text-anchor="start" x="2160.5" y="-244.8" font-family="Arial" font-size="14.00">inc/mcu/esp32/utils</text>
<text text-anchor="middle" x="2218.5" y="-229.8" font-family="Arial" font-size="14.00">/EspTypes_I2C.h</text>
</a>
</g>
</g>
<!-- Node1&#45;&gt;Node5 -->
<g id="edge5_Node000001_Node000005" class="edge">
<title>Node1&#45;&gt;Node5</title>
<g id="a_edge5_Node000001_Node000005"><a xlink:title=" ">
<path fill="none" stroke="#63b8ff" d="M2218.5,-285.63C2218.5,-277.45 2218.5,-268.15 2218.5,-260.24"/>
<polygon fill="#63b8ff" stroke="#63b8ff" points="2215,-285.85 2218.5,-295.85 2222,-285.85 2215,-285.85"/>
</a>
</g>
</g>
<!-- Node3&#45;&gt;Node2 -->
<g id="edge3_Node000003_Node000002" class="edge">
<title>Node3&#45;&gt;Node2</title>
<g id="a_edge3_Node000003_Node000002"><a xlink:title=" ">
<path fill="none" stroke="#63b8ff" d="M2157.2,-77.85C2188.36,-66.47 2232.35,-50.39 2266.05,-38.07"/>
<polygon fill="#63b8ff" stroke="#63b8ff" points="2155.76,-74.66 2147.57,-81.38 2158.16,-81.23 2155.76,-74.66"/>
</a>
</g>
</g>
<!-- Node4 -->
<g id="Node000004" class="node">
<title>Node4</title>
<g id="a_Node000004"><a xlink:href="EspI2c_8cpp.html" target="_top" xlink:title="Implementation of ESP32&#45;integrated I2C controller with proper bus&#45;device architecture.">
<polygon fill="white" stroke="#666666" points="2205.5,-30.5 2029.5,-30.5 2029.5,-7.5 2205.5,-7.5 2205.5,-30.5"/>
<text text-anchor="middle" x="2117.5" y="-15.3" font-family="Arial" font-size="14.00">src/mcu/esp32/EspI2c.cpp</text>
</a>
</g>
</g>
<!-- Node3&#45;&gt;Node4 -->
<g id="edge4_Node000003_Node000004" class="edge">
<title>Node3&#45;&gt;Node4</title>
<g id="a_edge4_Node000003_Node000004"><a xlink:title=" ">
<path fill="none" stroke="#63b8ff" d="M2118.21,-71.23C2118.03,-57.97 2117.8,-41.32 2117.65,-30.67"/>
<polygon fill="#63b8ff" stroke="#63b8ff" points="2114.71,-71.43 2118.35,-81.38 2121.71,-71.33 2114.71,-71.43"/>
</a>
</g>
</g>
<!-- Node5&#45;&gt;Node2 -->
<g id="edge6_Node000005_Node000002" class="edge">
<title>Node5&#45;&gt;Node2</title>
<g id="a_edge6_Node000005_Node000002"><a xlink:title=" ">
<path fill="none" stroke="#63b8ff" d="M2230.52,-212.74C2250.59,-167.21 2290.41,-76.91 2307.45,-38.25"/>
<polygon fill="#63b8ff" stroke="#63b8ff" points="2227.27,-211.43 2226.44,-222 2233.67,-214.26 2227.27,-211.43"/>
</a>
</g>
</g>
<!-- Node6 -->
<g id="Node000006" class="node">
<title>Node6</title>
<g id="a_Node000006"><a xlink:href="EspTypes_8h.html" target="_top" xlink:title="Consolidated MCU&#45;specific type definitions for hardware abstraction (hf_* types).">
<polygon fill="white" stroke="#666666" points="1491.5,-186 1359.5,-186 1359.5,-148 1491.5,-148 1491.5,-186"/>
<text text-anchor="start" x="1367.5" y="-170.8" font-family="Arial" font-size="14.00">inc/mcu/esp32/utils</text>
<text text-anchor="middle" x="1425.5" y="-155.8" font-family="Arial" font-size="14.00">/EspTypes.h</text>
</a>
</g>
</g>
<!-- Node5&#45;&gt;Node6 -->
<g id="edge7_Node000005_Node000006" class="edge">
<title>Node5&#45;&gt;Node6</title>
<g id="a_edge7_Node000005_Node000006"><a xlink:title=" ">
<path fill="none" stroke="#63b8ff" d="M2141.87,-233.04C1986.64,-218.95 1637.48,-187.25 1491.56,-174"/>
<polygon fill="#63b8ff" stroke="#63b8ff" points="2141.98,-236.57 2152.25,-233.99 2142.61,-229.6 2141.98,-236.57"/>
</a>
</g>
</g>
<!-- Node6&#45;&gt;Node3 -->
<g id="edge11_Node000006_Node000003" class="edge">
<title>Node6&#45;&gt;Node3</title>
<g id="a_edge11_Node000006_Node000003"><a xlink:title=" ">
<path fill="none" stroke="#63b8ff" d="M1501.65,-158.09C1633.48,-144.39 1903.02,-116.39 2037.89,-102.38"/>
<polygon fill="#63b8ff" stroke="#63b8ff" points="1501.22,-154.61 1491.63,-159.13 1501.94,-161.58 1501.22,-154.61"/>
</a>
</g>
</g>
<!-- Node7 -->
<g id="Node000007" class="node">
<title>Node7</title>
<g id="a_Node000007"><a xlink:href="EspAdc_8h.html" target="_top" xlink:title="ESP32 ADC implementation for the HardFOC system.">
<polygon fill="white" stroke="#666666" points="790.5,-104.5 624.5,-104.5 624.5,-81.5 790.5,-81.5 790.5,-104.5"/>
<text text-anchor="middle" x="707.5" y="-89.3" font-family="Arial" font-size="14.00">inc/mcu/esp32/EspAdc.h</text>
</a>
</g>
</g>
<!-- Node6&#45;&gt;Node7 -->
<g id="edge8_Node000006_Node000007" class="edge">
<title>Node6&#45;&gt;Node7</title>
<g id="a_edge8_Node000006_Node000007"><a xlink:title=" ">
<path fill="none" stroke="#63b8ff" d="M1348.92,-158.32C1213.04,-144.69 930.88,-116.4 790.52,-102.33"/>
<polygon fill="#63b8ff" stroke="#63b8ff" points="1348.94,-161.84 1359.24,-159.36 1349.64,-154.88 1348.94,-161.84"/>
</a>
</g>
</g>
<!-- Node10 -->
<g id="Node000010" class="node">
<title>Node10</title>
<g id="a_Node000010"><a xlink:href="EspPeriodicTimer_8h.html" target="_top" xlink:title="MCU&#45;integrated periodic timer implementation.">
<polygon fill="white" stroke="#666666" points="1215.5,-112 1035.5,-112 1035.5,-74 1215.5,-74 1215.5,-112"/>
<text text-anchor="start" x="1043.5" y="-96.8" font-family="Arial" font-size="14.00">inc/mcu/esp32/EspPeriodic</text>
<text text-anchor="middle" x="1125.5" y="-81.8" font-family="Arial" font-size="14.00">Timer.h</text>
</a>
</g>
</g>
<!-- Node6&#45;&gt;Node10 -->
<g id="edge12_Node000006_Node000010" class="edge">
<title>Node6&#45;&gt;Node10</title>
<g id="a_edge12_Node000006_Node000010"><a xlink:title=" ">
<path fill="none" stroke="#63b8ff" d="M1349.45,-147.75C1303.8,-136.79 1245.97,-122.91 1200.51,-112"/>
<polygon fill="#63b8ff" stroke="#63b8ff" points="1348.75,-151.18 1359.29,-150.11 1350.39,-144.37 1348.75,-151.18"/>
</a>
</g>
</g>
<!-- Node13 -->
<g id="Node000013" class="node">
<title>Node13</title>
<g id="a_Node000013"><a xlink:href="EspPio_8h.html" target="_top" xlink:title="ESP32C6 RMT&#45;based Programmable IO Channel implementation with ESP&#45;IDF v5.5+ features.">
<polygon fill="white" stroke="#666666" points="1506.5,-104.5 1344.5,-104.5 1344.5,-81.5 1506.5,-81.5 1506.5,-104.5"/>
<text text-anchor="middle" x="1425.5" y="-89.3" font-family="Arial" font-size="14.00">inc/mcu/esp32/EspPio.h</text>
</a>
</g>
</g>
<!-- Node6&#45;&gt;Node13 -->
<g id="edge15_Node000006_Node000013" class="edge">
<title>Node6&#45;&gt;Node13</title>
<g id="a_edge15_Node000006_Node000013"><a xlink:title=" ">
<path fill="none" stroke="#63b8ff" d="M1425.5,-137.62C1425.5,-125.99 1425.5,-113.26 1425.5,-104.57"/>
<polygon fill="#63b8ff" stroke="#63b8ff" points="1422,-137.83 1425.5,-147.83 1429,-137.83 1422,-137.83"/>
</a>
</g>
</g>
<!-- Node16 -->
<g id="Node000016" class="node">
<title>Node16</title>
<g id="a_Node000016"><a xlink:href="EspSpi_8h.html" target="_top" xlink:title="Advanced MCU&#45;integrated SPI controller implementation with ESP32C6/ESP&#45;IDF v5.5+ features.">
<polygon fill="white" stroke="#666666" points="1805.5,-104.5 1643.5,-104.5 1643.5,-81.5 1805.5,-81.5 1805.5,-104.5"/>
<text text-anchor="middle" x="1724.5" y="-89.3" font-family="Arial" font-size="14.00">inc/mcu/esp32/EspSpi.h</text>
</a>
</g>
</g>
<!-- Node6&#45;&gt;Node16 -->
<g id="edge18_Node000006_Node000016" class="edge">
<title>Node6&#45;&gt;Node16</title>
<g id="a_edge18_Node000006_Node000016"><a xlink:title=" ">
<path fill="none" stroke="#63b8ff" d="M1501.84,-147.62C1558.45,-133.99 1633.63,-115.88 1680.53,-104.59"/>
<polygon fill="#63b8ff" stroke="#63b8ff" points="1500.76,-144.28 1491.86,-150.02 1502.4,-151.08 1500.76,-144.28"/>
</a>
</g>
</g>
<!-- Node19 -->
<g id="Node000019" class="node">
<title>Node19</title>
<g id="a_Node000019"><a xlink:href="EspUart_8h.html" target="_top" xlink:title="ESP32 UART implementation for the HardFOC system.">
<polygon fill="white" stroke="#666666" points="384.5,-104.5 216.5,-104.5 216.5,-81.5 384.5,-81.5 384.5,-104.5"/>
<text text-anchor="middle" x="300.5" y="-89.3" font-family="Arial" font-size="14.00">inc/mcu/esp32/EspUart.h</text>
</a>
</g>
</g>
<!-- Node6&#45;&gt;Node19 -->
<g id="edge21_Node000006_Node000019" class="edge">
<title>Node6&#45;&gt;Node19</title>
<g id="a_edge21_Node000006_Node000019"><a xlink:title=" ">
<path fill="none" stroke="#63b8ff" d="M1349.07,-161.11C1146.4,-148.14 596.3,-112.93 384.86,-99.4"/>
<polygon fill="#63b8ff" stroke="#63b8ff" points="1349.12,-164.62 1359.33,-161.76 1349.57,-157.63 1349.12,-164.62"/>
</a>
</g>
</g>
<!-- Node8 -->
<g id="Node000008" class="node">
<title>Node8</title>
<g id="a_Node000008"><a xlink:href="AdcComprehensiveTest_8cpp.html" target="_top" xlink:title="Comprehensive ADC testing suite for ESP32&#45;C6 DevKit&#45;M&#45;1 (noexcept)">
<polygon fill="white" stroke="#666666" points="599,-38 410,-38 410,0 599,0 599,-38"/>
<text text-anchor="start" x="418" y="-22.8" font-family="Arial" font-size="14.00">examples/esp32/main</text>
<text text-anchor="middle" x="504.5" y="-7.8" font-family="Arial" font-size="14.00">/AdcComprehensiveTest.cpp</text>
</a>
</g>
</g>
<!-- Node7&#45;&gt;Node8 -->
<g id="edge9_Node000007_Node000008" class="edge">
<title>Node7&#45;&gt;Node8</title>
<g id="a_edge9_Node000007_Node000008"><a xlink:title=" ">
<path fill="none" stroke="#63b8ff" d="M668.03,-78C635.91,-66.61 590.33,-50.44 555.45,-38.07"/>
<polygon fill="#63b8ff" stroke="#63b8ff" points="666.95,-81.33 677.55,-81.38 669.29,-74.73 666.95,-81.33"/>
</a>
</g>
</g>
<!-- Node9 -->
<g id="Node000009" class="node">
<title>Node9</title>
<g id="a_Node000009"><a xlink:href="EspAdc_8cpp.html" target="_top" xlink:title="ESP32 ADC implementation for the HardFOC system.">
<polygon fill="white" stroke="#666666" points="798,-30.5 617,-30.5 617,-7.5 798,-7.5 798,-30.5"/>
<text text-anchor="middle" x="707.5" y="-15.3" font-family="Arial" font-size="14.00">src/mcu/esp32/EspAdc.cpp</text>
</a>
</g>
</g>
<!-- Node7&#45;&gt;Node9 -->
<g id="edge10_Node000007_Node000009" class="edge">
<title>Node7&#45;&gt;Node9</title>
<g id="a_edge10_Node000007_Node000009"><a xlink:title=" ">
<path fill="none" stroke="#63b8ff" d="M707.5,-71.23C707.5,-57.97 707.5,-41.32 707.5,-30.67"/>
<polygon fill="#63b8ff" stroke="#63b8ff" points="704,-71.38 707.5,-81.38 711,-71.38 704,-71.38"/>
</a>
</g>
</g>
<!-- Node11 -->
<g id="Node000011" class="node">
<title>Node11</title>
<g id="a_Node000011"><a xlink:href="TimerComprehensiveTest_8cpp.html" target="_top" xlink:title="ESP32&#45;C6 Periodic Timer Comprehensive Test Suite v2.0.">
<polygon fill="white" stroke="#666666" points="1017,-38 816,-38 816,0 1017,0 1017,-38"/>
<text text-anchor="start" x="824" y="-22.8" font-family="Arial" font-size="14.00">examples/esp32/main</text>
<text text-anchor="middle" x="916.5" y="-7.8" font-family="Arial" font-size="14.00">/TimerComprehensiveTest.cpp</text>
</a>
</g>
</g>
<!-- Node10&#45;&gt;Node11 -->
<g id="edge13_Node000010_Node000011" class="edge">
<title>Node10&#45;&gt;Node11</title>
<g id="a_edge13_Node000010_Node000011"><a xlink:title=" ">
<path fill="none" stroke="#63b8ff" d="M1063.48,-70.64C1033.41,-60.28 997.69,-47.97 968.99,-38.08"/>
<polygon fill="#63b8ff" stroke="#63b8ff" points="1062.44,-73.98 1073.03,-73.92 1064.72,-67.36 1062.44,-73.98"/>
</a>
</g>
</g>
<!-- Node12 -->
<g id="Node000012" class="node">
<title>Node12</title>
<g id="a_Node000012"><a xlink:href="EspPeriodicTimer_8cpp.html" target="_top" xlink:title="Implementation of MCU&#45;integrated periodic timer.">
<polygon fill="white" stroke="#666666" points="1216,-38 1035,-38 1035,0 1216,0 1216,-38"/>
<text text-anchor="start" x="1043" y="-22.8" font-family="Arial" font-size="14.00">src/mcu/esp32/EspPeriodic</text>
<text text-anchor="middle" x="1125.5" y="-7.8" font-family="Arial" font-size="14.00">Timer.cpp</text>
</a>
</g>
</g>
<!-- Node10&#45;&gt;Node12 -->
<g id="edge14_Node000010_Node000012" class="edge">
<title>Node10&#45;&gt;Node12</title>
<g id="a_edge14_Node000010_Node000012"><a xlink:title=" ">
<path fill="none" stroke="#63b8ff" d="M1125.5,-63.57C1125.5,-55.11 1125.5,-46.06 1125.5,-38.41"/>
<polygon fill="#63b8ff" stroke="#63b8ff" points="1122,-63.83 1125.5,-73.83 1129,-63.83 1122,-63.83"/>
</a>
</g>
</g>
<!-- Node14 -->
<g id="Node000014" class="node">
<title>Node14</title>
<g id="a_Node000014"><a xlink:href="PioComprehensiveTest_8cpp.html" target="_top" xlink:title="Comprehensive PIO testing suite for ESP32&#45;C6 DevKit&#45;M&#45;1 with RMT peripheral (noexcept)">
<polygon fill="white" stroke="#666666" points="1419,-38 1234,-38 1234,0 1419,0 1419,-38"/>
<text text-anchor="start" x="1242" y="-22.8" font-family="Arial" font-size="14.00">examples/esp32/main</text>
<text text-anchor="middle" x="1326.5" y="-7.8" font-family="Arial" font-size="14.00">/PioComprehensiveTest.cpp</text>
</a>
</g>
</g>
<!-- Node13&#45;&gt;Node14 -->
<g id="edge16_Node000013_Node000014" class="edge">
<title>Node13&#45;&gt;Node14</title>
<g id="a_edge16_Node000013_Node000014"><a xlink:title=" ">
<path fill="none" stroke="#63b8ff" d="M1402.52,-75.29C1387.26,-64.19 1367.22,-49.61 1351.54,-38.21"/>
<polygon fill="#63b8ff" stroke="#63b8ff" points="1400.75,-78.32 1410.89,-81.38 1404.86,-72.66 1400.75,-78.32"/>
</a>
</g>
</g>
<!-- Node15 -->
<g id="Node000015" class="node">
<title>Node15</title>
<g id="a_Node000015"><a xlink:href="EspPio_8cpp.html" target="_top" xlink:title="ESP32C6 RMT&#45;based Programmable IO Channel implementation.">
<polygon fill="white" stroke="#666666" points="1614,-30.5 1437,-30.5 1437,-7.5 1614,-7.5 1614,-30.5"/>
<text text-anchor="middle" x="1525.5" y="-15.3" font-family="Arial" font-size="14.00">src/mcu/esp32/EspPio.cpp</text>
</a>
</g>
</g>
<!-- Node13&#45;&gt;Node15 -->
<g id="edge17_Node000013_Node000015" class="edge">
<title>Node13&#45;&gt;Node15</title>
<g id="a_edge17_Node000013_Node000015"><a xlink:title=" ">
<path fill="none" stroke="#63b8ff" d="M1448.45,-75.48C1467.58,-61.7 1494.26,-42.49 1510.68,-30.67"/>
<polygon fill="#63b8ff" stroke="#63b8ff" points="1446.33,-72.69 1440.26,-81.38 1450.42,-78.37 1446.33,-72.69"/>
</a>
</g>
</g>
<!-- Node17 -->
<g id="Node000017" class="node">
<title>Node17</title>
<g id="a_Node000017"><a xlink:href="SpiComprehensiveTest_8cpp.html" target="_top" xlink:title="Comprehensive SPI testing suite for ESP32&#45;C6 DevKit&#45;M&#45;1 (noexcept)">
<polygon fill="white" stroke="#666666" points="1817,-38 1632,-38 1632,0 1817,0 1817,-38"/>
<text text-anchor="start" x="1640" y="-22.8" font-family="Arial" font-size="14.00">examples/esp32/main</text>
<text text-anchor="middle" x="1724.5" y="-7.8" font-family="Arial" font-size="14.00">/SpiComprehensiveTest.cpp</text>
</a>
</g>
</g>
<!-- Node16&#45;&gt;Node17 -->
<g id="edge19_Node000016_Node000017" class="edge">
<title>Node16&#45;&gt;Node17</title>
<g id="a_edge19_Node000016_Node000017"><a xlink:title=" ">
<path fill="none" stroke="#63b8ff" d="M1724.5,-71.1C1724.5,-60.69 1724.5,-48.23 1724.5,-38.21"/>
<polygon fill="#63b8ff" stroke="#63b8ff" points="1721,-71.38 1724.5,-81.38 1728,-71.38 1721,-71.38"/>
</a>
</g>
</g>
<!-- Node18 -->
<g id="Node000018" class="node">
<title>Node18</title>
<g id="a_Node000018"><a xlink:href="EspSpi_8cpp.html" target="_top" xlink:title="Implementation of MCU&#45;integrated SPI controller for ESP32C6 with ESP&#45;IDF v5.5+ features.">
<polygon fill="white" stroke="#666666" points="2012,-30.5 1835,-30.5 1835,-7.5 2012,-7.5 2012,-30.5"/>
<text text-anchor="middle" x="1923.5" y="-15.3" font-family="Arial" font-size="14.00">src/mcu/esp32/EspSpi.cpp</text>
</a>
</g>
</g>
<!-- Node16&#45;&gt;Node18 -->
<g id="edge20_Node000016_Node000018" class="edge">
<title>Node16&#45;&gt;Node18</title>
<g id="a_edge20_Node000016_Node000018"><a xlink:title=" ">
<path fill="none" stroke="#63b8ff" d="M1763.67,-77.83C1802.09,-63.93 1859.79,-43.05 1894.34,-30.55"/>
<polygon fill="#63b8ff" stroke="#63b8ff" points="1762.08,-74.68 1753.86,-81.38 1764.46,-81.27 1762.08,-74.68"/>
</a>
</g>
</g>
<!-- Node20 -->
<g id="Node000020" class="node">
<title>Node20</title>
<g id="a_Node000020"><a xlink:href="UartComprehensiveTest_8cpp.html" target="_top" xlink:title="Comprehensive UART testing suite for ESP32&#45;C6 DevKit&#45;M&#45;1 (noexcept)">
<polygon fill="white" stroke="#666666" points="191,-38 0,-38 0,0 191,0 191,-38"/>
<text text-anchor="start" x="8" y="-22.8" font-family="Arial" font-size="14.00">examples/esp32/main</text>
<text text-anchor="middle" x="95.5" y="-7.8" font-family="Arial" font-size="14.00">/UartComprehensiveTest.cpp</text>
</a>
</g>
</g>
<!-- Node19&#45;&gt;Node20 -->
<g id="edge22_Node000019_Node000020" class="edge">
<title>Node19&#45;&gt;Node20</title>
<g id="a_edge22_Node000019_Node000020"><a xlink:title=" ">
<path fill="none" stroke="#63b8ff" d="M260.65,-78C228.2,-66.61 182.18,-50.44 146.95,-38.07"/>
<polygon fill="#63b8ff" stroke="#63b8ff" points="259.66,-81.36 270.25,-81.38 261.98,-74.76 259.66,-81.36"/>
</a>
</g>
</g>
<!-- Node21 -->
<g id="Node000021" class="node">
<title>Node21</title>
<g id="a_Node000021"><a xlink:href="EspUart_8cpp.html" target="_top" xlink:title="Implementation of ESP32 UART controller for the HardFOC system.">
<polygon fill="white" stroke="#666666" points="392,-30.5 209,-30.5 209,-7.5 392,-7.5 392,-30.5"/>
<text text-anchor="middle" x="300.5" y="-15.3" font-family="Arial" font-size="14.00">src/mcu/esp32/EspUart.cpp</text>
</a>
</g>
</g>
<!-- Node19&#45;&gt;Node21 -->
<g id="edge23_Node000019_Node000021" class="edge">
<title>Node19&#45;&gt;Node21</title>
<g id="a_edge23_Node000019_Node000021"><a xlink:title=" ">
<path fill="none" stroke="#63b8ff" d="M300.5,-71.23C300.5,-57.97 300.5,-41.32 300.5,-30.67"/>
<polygon fill="#63b8ff" stroke="#63b8ff" points="297,-71.38 300.5,-81.38 304,-71.38 297,-71.38"/>
</a>
</g>
</g>
</g>
</svg>

<g id="navigator" transform="translate(0 0)" fill="#404254">
  <rect fill="#f2f5e9" fill-opacity="0.5" stroke="#606060" stroke-width=".5" x="0" y="0" width="60" height="60"/>
  <use id="zoomplus" xlink:href="#zoomPlus" x="17" y="9" onmousedown="handleZoom(evt,'in')"/>
  <use id="zoomminus" xlink:href="#zoomMin" x="42" y="9" onmousedown="handleZoom(evt,'out')"/>
  <use id="reset" xlink:href="#resetDef" x="30" y="36" onmousedown="handleReset()"/>
   <use id="arrowup" xlink:href="#arrowUp" x="0" y="0" onmousedown="handlePan(0,-1)"/>
  <use id="arrowright" xlink:href="#arrowRight" x="0" y="0" onmousedown="handlePan(1,0)"/>
  <use id="arrowdown" xlink:href="#arrowDown" x="0" y="0" onmousedown="handlePan(0,1)"/>
  <use id="arrowleft" xlink:href="#arrowLeft" x="0" y="0" onmousedown="handlePan(-1,0)"/>
</g>
<svg viewBox="0 0 15 15" width="100%" height="30px" preserveAspectRatio="xMaxYMin meet">
 <g id="arrow_out" transform="scale(0.3 0.3)">
  <a xlink:href="BaseI2c_8h__dep__incl_org.svg" target="_base">
   <rect id="button" ry="5" rx="5" y="6" x="6" height="38" width="38"
        fill="#f2f5e9" fill-opacity="0.5" stroke="#606060" stroke-width="1.0"/>
   <path id="arrow"
     d="M 11.500037,31.436501 C 11.940474,20.09759 22.043105,11.32322 32.158766,21.979434 L 37.068811,17.246167 C 37.068811,17.246167 37.088388,32 37.088388,32 L 22.160133,31.978069 C 22.160133,31.978069 26.997745,27.140456 26.997745,27.140456 C 18.528582,18.264221 13.291696,25.230495 11.500037,31.436501 z"
     style="fill:#404040;"/>
  </a>
 </g>
</svg>

<style type='text/css'>
<![CDATA[
[data-mouse-over-selected='false'] { opacity: 0.7; }
[data-mouse-over-selected='true']  { opacity: 1.0; }
]]>
</style>
<script type="application/ecmascript"><![CDATA[
document.addEventListener('DOMContentLoaded', (event) => {
  highlightEdges();
  highlightAdjacentNodes();
});
]]></script>
</svg>
