<?xml version="1.0" encoding="UTF-8" standalone="no"?>
<!DOCTYPE svg PUBLIC "-//W3C//DTD SVG 1.1//EN"
 "http://www.w3.org/Graphics/SVG/1.1/DTD/svg11.dtd">
<!-- Generated by graphviz version 2.43.0 (0)
 -->
<!-- Title: inc/base/BaseUsbSerialJtag.h Pages: 1 -->
<svg width="358pt" height="208pt"
 viewBox="0.00 0.00 357.64 208.00" xmlns="http://www.w3.org/2000/svg" xmlns:xlink="http://www.w3.org/1999/xlink">
<g id="graph0" class="graph" transform="scale(1 1) rotate(0) translate(4 204)">
<title>inc/base/BaseUsbSerialJtag.h</title>
<!-- Node1 -->
<g id="Node000001" class="node">
<title>Node1</title>
<g id="a_Node000001"><a xlink:title="Abstract base class for USB Serial/JTAG controller &quot;console&#45;style&quot; serial transports in the HardFOC s...">
<polygon fill="#999999" stroke="#666666" points="303.14,-200 106.14,-200 106.14,-177 303.14,-177 303.14,-200"/>
<text text-anchor="middle" x="204.64" y="-184.8" font-family="Arial" font-size="14.00">inc/base/BaseUsbSerialJtag.h</text>
</a>
</g>
</g>
<!-- Node2 -->
<g id="Node000002" class="node">
<title>Node2</title>
<g id="a_Node000002"><a xlink:href="BaseUart_8h.html" target="_top" xlink:title="Abstract base class for UART driver implementations in the HardFOC system.">
<polygon fill="white" stroke="#666666" points="211.64,-141 127.64,-141 127.64,-118 211.64,-118 211.64,-141"/>
<text text-anchor="middle" x="169.64" y="-125.8" font-family="Arial" font-size="14.00">BaseUart.h</text>
</a>
</g>
</g>
<!-- Node1&#45;&gt;Node2 -->
<g id="edge1_Node000001_Node000002" class="edge">
<title>Node1&#45;&gt;Node2</title>
<g id="a_edge1_Node000001_Node000002"><a xlink:title=" ">
<path fill="none" stroke="#63b8ff" d="M198.06,-176.78C193.41,-169.22 187.06,-158.87 181.54,-149.88"/>
<polygon fill="#63b8ff" stroke="#63b8ff" points="184.41,-147.86 176.19,-141.17 178.44,-151.53 184.41,-147.86"/>
</a>
</g>
</g>
<!-- Node4 -->
<g id="Node000004" class="node">
<title>Node4</title>
<g id="a_Node000004"><a xlink:title=" ">
<polygon fill="#e0e0e0" stroke="#999999" points="153.64,-23 97.64,-23 97.64,0 153.64,0 153.64,-23"/>
<text text-anchor="middle" x="125.64" y="-7.8" font-family="Arial" font-size="14.00">cstdint</text>
</a>
</g>
</g>
<!-- Node1&#45;&gt;Node4 -->
<g id="edge9_Node000001_Node000004" class="edge">
<title>Node1&#45;&gt;Node4</title>
<g id="a_edge9_Node000001_Node000004"><a xlink:title=" ">
<path fill="none" stroke="#63b8ff" d="M155.49,-176.93C107.53,-163.72 37.18,-135.95 4.64,-82 -16.79,-46.47 44.61,-27.37 87.61,-18.62"/>
<polygon fill="#63b8ff" stroke="#63b8ff" points="88.38,-22.04 97.54,-16.72 87.06,-15.17 88.38,-22.04"/>
</a>
</g>
</g>
<!-- Node6 -->
<g id="Node000006" class="node">
<title>Node6</title>
<g id="a_Node000006"><a xlink:title=" ">
<polygon fill="#e0e0e0" stroke="#999999" points="349.64,-82 293.64,-82 293.64,-59 349.64,-59 349.64,-82"/>
<text text-anchor="middle" x="321.64" y="-66.8" font-family="Arial" font-size="14.00">cstring</text>
</a>
</g>
</g>
<!-- Node1&#45;&gt;Node6 -->
<g id="edge10_Node000001_Node000006" class="edge">
<title>Node1&#45;&gt;Node6</title>
<g id="a_edge10_Node000001_Node000006"><a xlink:title=" ">
<path fill="none" stroke="#63b8ff" d="M211.71,-176.92C221.52,-162.66 240.24,-136.9 259.64,-118 270.93,-107 284.87,-96.33 296.67,-87.99"/>
<polygon fill="#63b8ff" stroke="#63b8ff" points="298.95,-90.67 305.19,-82.1 294.98,-84.91 298.95,-90.67"/>
</a>
</g>
</g>
<!-- Node8 -->
<g id="Node000008" class="node">
<title>Node8</title>
<g id="a_Node000008"><a xlink:title=" ">
<polygon fill="#e0e0e0" stroke="#999999" points="329.14,-141 268.14,-141 268.14,-118 329.14,-118 329.14,-141"/>
<text text-anchor="middle" x="298.64" y="-125.8" font-family="Arial" font-size="14.00">cstdarg</text>
</a>
</g>
</g>
<!-- Node1&#45;&gt;Node8 -->
<g id="edge8_Node000001_Node000008" class="edge">
<title>Node1&#45;&gt;Node8</title>
<g id="a_edge8_Node000001_Node000008"><a xlink:title=" ">
<path fill="none" stroke="#63b8ff" d="M222.32,-176.78C236.37,-168.26 256.23,-156.21 272.18,-146.55"/>
<polygon fill="#63b8ff" stroke="#63b8ff" points="274.3,-149.35 281.04,-141.17 270.67,-143.37 274.3,-149.35"/>
</a>
</g>
</g>
<!-- Node3 -->
<g id="Node000003" class="node">
<title>Node3</title>
<g id="a_Node000003"><a xlink:href="HardwareTypes_8h.html" target="_top" xlink:title="Platform&#45;agnostic hardware type definitions for the HardFOC system.">
<polygon fill="white" stroke="#666666" points="275.64,-82 153.64,-82 153.64,-59 275.64,-59 275.64,-82"/>
<text text-anchor="middle" x="214.64" y="-66.8" font-family="Arial" font-size="14.00">HardwareTypes.h</text>
</a>
</g>
</g>
<!-- Node2&#45;&gt;Node3 -->
<g id="edge2_Node000002_Node000003" class="edge">
<title>Node2&#45;&gt;Node3</title>
<g id="a_edge2_Node000002_Node000003"><a xlink:title=" ">
<path fill="none" stroke="#63b8ff" d="M178.1,-117.78C184.26,-109.98 192.76,-99.21 200.01,-90.03"/>
<polygon fill="#63b8ff" stroke="#63b8ff" points="202.76,-92.19 206.21,-82.17 197.27,-87.85 202.76,-92.19"/>
</a>
</g>
</g>
<!-- Node2&#45;&gt;Node4 -->
<g id="edge5_Node000002_Node000004" class="edge">
<title>Node2&#45;&gt;Node4</title>
<g id="a_edge5_Node000002_Node000004"><a xlink:title=" ">
<path fill="none" stroke="#63b8ff" d="M162.95,-117.75C157.45,-108.54 149.74,-94.77 144.64,-82 138.27,-66.05 133.26,-47.22 130,-33.18"/>
<polygon fill="#63b8ff" stroke="#63b8ff" points="133.34,-32.1 127.75,-23.1 126.51,-33.62 133.34,-32.1"/>
</a>
</g>
</g>
<!-- Node2&#45;&gt;Node6 -->
<g id="edge6_Node000002_Node000006" class="edge">
<title>Node2&#45;&gt;Node6</title>
<g id="a_edge6_Node000002_Node000006"><a xlink:title=" ">
<path fill="none" stroke="#63b8ff" d="M197.87,-117.91C222.19,-108.79 257.47,-95.56 284.15,-85.56"/>
<polygon fill="#63b8ff" stroke="#63b8ff" points="285.42,-88.82 293.56,-82.03 282.96,-82.27 285.42,-88.82"/>
</a>
</g>
</g>
<!-- Node7 -->
<g id="Node000007" class="node">
<title>Node7</title>
<g id="a_Node000007"><a xlink:title=" ">
<polygon fill="#e0e0e0" stroke="#999999" points="97.64,-82 13.64,-82 13.64,-59 97.64,-59 97.64,-82"/>
<text text-anchor="middle" x="55.64" y="-66.8" font-family="Arial" font-size="14.00">string_view</text>
</a>
</g>
</g>
<!-- Node2&#45;&gt;Node7 -->
<g id="edge7_Node000002_Node000007" class="edge">
<title>Node2&#45;&gt;Node7</title>
<g id="a_edge7_Node000002_Node000007"><a xlink:title=" ">
<path fill="none" stroke="#63b8ff" d="M148.46,-117.91C130.87,-109.11 105.61,-96.49 85.88,-86.62"/>
<polygon fill="#63b8ff" stroke="#63b8ff" points="87.21,-83.37 76.7,-82.03 84.08,-89.63 87.21,-83.37"/>
</a>
</g>
</g>
<!-- Node3&#45;&gt;Node4 -->
<g id="edge3_Node000003_Node000004" class="edge">
<title>Node3&#45;&gt;Node4</title>
<g id="a_edge3_Node000003_Node000004"><a xlink:title=" ">
<path fill="none" stroke="#63b8ff" d="M197.9,-58.78C184.72,-50.34 166.14,-38.44 151.12,-28.82"/>
<polygon fill="#63b8ff" stroke="#63b8ff" points="152.61,-25.62 142.3,-23.17 148.84,-31.51 152.61,-25.62"/>
</a>
</g>
</g>
<!-- Node5 -->
<g id="Node000005" class="node">
<title>Node5</title>
<g id="a_Node000005"><a xlink:title=" ">
<polygon fill="#e0e0e0" stroke="#999999" points="238.64,-23 190.64,-23 190.64,0 238.64,0 238.64,-23"/>
<text text-anchor="middle" x="214.64" y="-7.8" font-family="Arial" font-size="14.00">limits</text>
</a>
</g>
</g>
<!-- Node3&#45;&gt;Node5 -->
<g id="edge4_Node000003_Node000005" class="edge">
<title>Node3&#45;&gt;Node5</title>
<g id="a_edge4_Node000003_Node000005"><a xlink:title=" ">
<path fill="none" stroke="#63b8ff" d="M214.64,-58.78C214.64,-51.61 214.64,-41.95 214.64,-33.31"/>
<polygon fill="#63b8ff" stroke="#63b8ff" points="218.14,-33.17 214.64,-23.17 211.14,-33.17 218.14,-33.17"/>
</a>
</g>
</g>
</g>
</svg>
