<?xml version="1.0" encoding="UTF-8" standalone="no"?>
<!DOCTYPE svg PUBLIC "-//W3C//DTD SVG 1.1//EN"
 "http://www.w3.org/Graphics/SVG/1.1/DTD/svg11.dtd">
<!-- Generated by graphviz version 2.43.0 (0)
 -->
<!-- Title: inc/base/BasePwm.h Pages: 1 -->
<svg width="2515pt" height="327pt"
 viewBox="0.00 0.00 2515.00 327.00" xmlns="http://www.w3.org/2000/svg" xmlns:xlink="http://www.w3.org/1999/xlink">
<g id="graph0" class="graph" transform="scale(1 1) rotate(0) translate(4 323)">
<title>inc/base/BasePwm.h</title>
<!-- Node1 -->
<g id="Node000001" class="node">
<title>Node1</title>
<g id="a_Node000001"><a xlink:title="Abstract base class for PWM implementations in the HardFOC system.">
<polygon fill="#999999" stroke="#666666" points="270,-319 127,-319 127,-296 270,-296 270,-319"/>
<text text-anchor="middle" x="198.5" y="-303.8" font-family="Arial" font-size="14.00">inc/base/BasePwm.h</text>
</a>
</g>
</g>
<!-- Node2 -->
<g id="Node000002" class="node">
<title>Node2</title>
<g id="a_Node000002"><a xlink:href="PwmComprehensiveTest_8cpp.html" target="_top" xlink:title="Comprehensive PWM testing suite for ESP32 family (noexcept)">
<polygon fill="white" stroke="#666666" points="197,-112 0,-112 0,-74 197,-74 197,-112"/>
<text text-anchor="start" x="8" y="-96.8" font-family="Arial" font-size="14.00">examples/esp32/main</text>
<text text-anchor="middle" x="98.5" y="-81.8" font-family="Arial" font-size="14.00">/PwmComprehensiveTest.cpp</text>
</a>
</g>
</g>
<!-- Node1&#45;&gt;Node2 -->
<g id="edge1_Node000001_Node000002" class="edge">
<title>Node1&#45;&gt;Node2</title>
<g id="a_edge1_Node000001_Node000002"><a xlink:title=" ">
<path fill="none" stroke="#63b8ff" d="M189.19,-286.72C169.85,-245.62 125.58,-151.54 106.98,-112.01"/>
<polygon fill="#63b8ff" stroke="#63b8ff" points="186.12,-288.4 193.54,-295.96 192.45,-285.42 186.12,-288.4"/>
</a>
</g>
</g>
<!-- Node3 -->
<g id="Node000003" class="node">
<title>Node3</title>
<g id="a_Node000003"><a xlink:href="EspPwm_8h.html" target="_top" xlink:title="ESP32C6 LEDC (PWM) controller implementation for the HardFOC system.">
<polygon fill="white" stroke="#666666" points="348,-178.5 175,-178.5 175,-155.5 348,-155.5 348,-178.5"/>
<text text-anchor="middle" x="261.5" y="-163.3" font-family="Arial" font-size="14.00">inc/mcu/esp32/EspPwm.h</text>
</a>
</g>
</g>
<!-- Node1&#45;&gt;Node3 -->
<g id="edge2_Node000001_Node000003" class="edge">
<title>Node1&#45;&gt;Node3</title>
<g id="a_edge2_Node000001_Node000003"><a xlink:title=" ">
<path fill="none" stroke="#63b8ff" d="M200.47,-285.76C202.76,-268.09 207.59,-242.4 217.5,-222 225.75,-205.03 240.28,-188.69 250.38,-178.52"/>
<polygon fill="#63b8ff" stroke="#63b8ff" points="196.97,-285.51 199.32,-295.84 203.93,-286.3 196.97,-285.51"/>
</a>
</g>
</g>
<!-- Node5 -->
<g id="Node000005" class="node">
<title>Node5</title>
<g id="a_Node000005"><a xlink:href="EspTypes__PWM_8h.html" target="_top" xlink:title="ESP32 PWM type definitions for LEDC peripheral hardware abstraction.">
<polygon fill="white" stroke="#666666" points="360,-260 227,-260 227,-222 360,-222 360,-260"/>
<text text-anchor="start" x="235" y="-244.8" font-family="Arial" font-size="14.00">inc/mcu/esp32/utils</text>
<text text-anchor="middle" x="293.5" y="-229.8" font-family="Arial" font-size="14.00">/EspTypes_PWM.h</text>
</a>
</g>
</g>
<!-- Node1&#45;&gt;Node5 -->
<g id="edge5_Node000001_Node000005" class="edge">
<title>Node1&#45;&gt;Node5</title>
<g id="a_edge5_Node000001_Node000005"><a xlink:title=" ">
<path fill="none" stroke="#63b8ff" d="M222.47,-290.22C235.92,-281.09 252.74,-269.68 266.63,-260.24"/>
<polygon fill="#63b8ff" stroke="#63b8ff" points="220.49,-287.34 214.19,-295.85 224.43,-293.13 220.49,-287.34"/>
</a>
</g>
</g>
<!-- Node3&#45;&gt;Node2 -->
<g id="edge3_Node000003_Node000002" class="edge">
<title>Node3&#45;&gt;Node2</title>
<g id="a_edge3_Node000003_Node000002"><a xlink:title=" ">
<path fill="none" stroke="#63b8ff" d="M228.13,-151.26C202.44,-139.91 166.82,-124.18 139.41,-112.07"/>
<polygon fill="#63b8ff" stroke="#63b8ff" points="226.89,-154.54 237.45,-155.38 229.72,-148.13 226.89,-154.54"/>
</a>
</g>
</g>
<!-- Node4 -->
<g id="Node000004" class="node">
<title>Node4</title>
<g id="a_Node000004"><a xlink:href="EspPwm_8cpp.html" target="_top" xlink:title="Implementation of ESP32 family LEDC (PWM) controller for the HardFOC system.">
<polygon fill="white" stroke="#666666" points="403.5,-104.5 215.5,-104.5 215.5,-81.5 403.5,-81.5 403.5,-104.5"/>
<text text-anchor="middle" x="309.5" y="-89.3" font-family="Arial" font-size="14.00">src/mcu/esp32/EspPwm.cpp</text>
</a>
</g>
</g>
<!-- Node3&#45;&gt;Node4 -->
<g id="edge4_Node000003_Node000004" class="edge">
<title>Node3&#45;&gt;Node4</title>
<g id="a_edge4_Node000003_Node000004"><a xlink:title=" ">
<path fill="none" stroke="#63b8ff" d="M274.29,-146.81C283.29,-133.31 295,-115.74 302.39,-104.67"/>
<polygon fill="#63b8ff" stroke="#63b8ff" points="271.22,-145.11 268.58,-155.38 277.04,-149 271.22,-145.11"/>
</a>
</g>
</g>
<!-- Node5&#45;&gt;Node3 -->
<g id="edge6_Node000005_Node000003" class="edge">
<title>Node5&#45;&gt;Node3</title>
<g id="a_edge6_Node000005_Node000003"><a xlink:title=" ">
<path fill="none" stroke="#63b8ff" d="M281.36,-212.68C276.07,-200.78 270.18,-187.52 266.2,-178.57"/>
<polygon fill="#63b8ff" stroke="#63b8ff" points="278.17,-214.11 285.43,-221.83 284.56,-211.27 278.17,-214.11"/>
</a>
</g>
</g>
<!-- Node6 -->
<g id="Node000006" class="node">
<title>Node6</title>
<g id="a_Node000006"><a xlink:href="EspTypes_8h.html" target="_top" xlink:title="Consolidated MCU&#45;specific type definitions for hardware abstraction (hf_* types).">
<polygon fill="white" stroke="#666666" points="1171.5,-186 1039.5,-186 1039.5,-148 1171.5,-148 1171.5,-186"/>
<text text-anchor="start" x="1047.5" y="-170.8" font-family="Arial" font-size="14.00">inc/mcu/esp32/utils</text>
<text text-anchor="middle" x="1105.5" y="-155.8" font-family="Arial" font-size="14.00">/EspTypes.h</text>
</a>
</g>
</g>
<!-- Node5&#45;&gt;Node6 -->
<g id="edge7_Node000005_Node000006" class="edge">
<title>Node5&#45;&gt;Node6</title>
<g id="a_edge7_Node000005_Node000006"><a xlink:title=" ">
<path fill="none" stroke="#63b8ff" d="M370.45,-233.18C529.14,-219.11 890.35,-187.08 1039.34,-173.87"/>
<polygon fill="#63b8ff" stroke="#63b8ff" points="369.95,-229.71 360.29,-234.08 370.56,-236.68 369.95,-229.71"/>
</a>
</g>
</g>
<!-- Node7 -->
<g id="Node000007" class="node">
<title>Node7</title>
<g id="a_Node000007"><a xlink:href="EspAdc_8h.html" target="_top" xlink:title="ESP32 ADC implementation for the HardFOC system.">
<polygon fill="white" stroke="#666666" points="587.5,-104.5 421.5,-104.5 421.5,-81.5 587.5,-81.5 587.5,-104.5"/>
<text text-anchor="middle" x="504.5" y="-89.3" font-family="Arial" font-size="14.00">inc/mcu/esp32/EspAdc.h</text>
</a>
</g>
</g>
<!-- Node6&#45;&gt;Node7 -->
<g id="edge8_Node000006_Node000007" class="edge">
<title>Node6&#45;&gt;Node7</title>
<g id="a_edge8_Node000006_Node000007"><a xlink:title=" ">
<path fill="none" stroke="#63b8ff" d="M1029.5,-156.9C916.44,-143.35 704.75,-117.99 587.67,-103.96"/>
<polygon fill="#63b8ff" stroke="#63b8ff" points="1029.12,-160.37 1039.46,-158.09 1029.95,-153.42 1029.12,-160.37"/>
</a>
</g>
</g>
<!-- Node10 -->
<g id="Node000010" class="node">
<title>Node10</title>
<g id="a_Node000010"><a xlink:href="EspI2c_8h.html" target="_top" xlink:title="Advanced ESP32&#45;integrated I2C controller for ESP&#45;IDF v5.5+ with proper bus&#45;device architecture.">
<polygon fill="white" stroke="#666666" points="875,-104.5 714,-104.5 714,-81.5 875,-81.5 875,-104.5"/>
<text text-anchor="middle" x="794.5" y="-89.3" font-family="Arial" font-size="14.00">inc/mcu/esp32/EspI2c.h</text>
</a>
</g>
</g>
<!-- Node6&#45;&gt;Node10 -->
<g id="edge11_Node000006_Node000010" class="edge">
<title>Node6&#45;&gt;Node10</title>
<g id="a_edge11_Node000006_Node000010"><a xlink:title=" ">
<path fill="none" stroke="#63b8ff" d="M1029.1,-148.31C969.85,-134.6 889.72,-116.04 840.11,-104.56"/>
<polygon fill="#63b8ff" stroke="#63b8ff" points="1028.63,-151.8 1039.16,-150.64 1030.21,-144.98 1028.63,-151.8"/>
</a>
</g>
</g>
<!-- Node13 -->
<g id="Node000013" class="node">
<title>Node13</title>
<g id="a_Node000013"><a xlink:href="EspPeriodicTimer_8h.html" target="_top" xlink:title="MCU&#45;integrated periodic timer implementation.">
<polygon fill="white" stroke="#666666" points="1195.5,-112 1015.5,-112 1015.5,-74 1195.5,-74 1195.5,-112"/>
<text text-anchor="start" x="1023.5" y="-96.8" font-family="Arial" font-size="14.00">inc/mcu/esp32/EspPeriodic</text>
<text text-anchor="middle" x="1105.5" y="-81.8" font-family="Arial" font-size="14.00">Timer.h</text>
</a>
</g>
</g>
<!-- Node6&#45;&gt;Node13 -->
<g id="edge14_Node000006_Node000013" class="edge">
<title>Node6&#45;&gt;Node13</title>
<g id="a_edge14_Node000006_Node000013"><a xlink:title=" ">
<path fill="none" stroke="#63b8ff" d="M1105.5,-137.57C1105.5,-129.11 1105.5,-120.06 1105.5,-112.41"/>
<polygon fill="#63b8ff" stroke="#63b8ff" points="1102,-137.83 1105.5,-147.83 1109,-137.83 1102,-137.83"/>
</a>
</g>
</g>
<!-- Node16 -->
<g id="Node000016" class="node">
<title>Node16</title>
<g id="a_Node000016"><a xlink:href="EspPio_8h.html" target="_top" xlink:title="ESP32C6 RMT&#45;based Programmable IO Channel implementation with ESP&#45;IDF v5.5+ features.">
<polygon fill="white" stroke="#666666" points="1492.5,-104.5 1330.5,-104.5 1330.5,-81.5 1492.5,-81.5 1492.5,-104.5"/>
<text text-anchor="middle" x="1411.5" y="-89.3" font-family="Arial" font-size="14.00">inc/mcu/esp32/EspPio.h</text>
</a>
</g>
</g>
<!-- Node6&#45;&gt;Node16 -->
<g id="edge17_Node000006_Node000016" class="edge">
<title>Node6&#45;&gt;Node16</title>
<g id="a_edge17_Node000006_Node000016"><a xlink:title=" ">
<path fill="none" stroke="#63b8ff" d="M1181.43,-148.13C1239.74,-134.41 1318.27,-115.94 1366.85,-104.51"/>
<polygon fill="#63b8ff" stroke="#63b8ff" points="1180.45,-144.77 1171.52,-150.47 1182.06,-151.58 1180.45,-144.77"/>
</a>
</g>
</g>
<!-- Node19 -->
<g id="Node000019" class="node">
<title>Node19</title>
<g id="a_Node000019"><a xlink:href="EspSpi_8h.html" target="_top" xlink:title="Advanced MCU&#45;integrated SPI controller implementation with ESP32C6/ESP&#45;IDF v5.5+ features.">
<polygon fill="white" stroke="#666666" points="1890.5,-104.5 1728.5,-104.5 1728.5,-81.5 1890.5,-81.5 1890.5,-104.5"/>
<text text-anchor="middle" x="1809.5" y="-89.3" font-family="Arial" font-size="14.00">inc/mcu/esp32/EspSpi.h</text>
</a>
</g>
</g>
<!-- Node6&#45;&gt;Node19 -->
<g id="edge20_Node000006_Node000019" class="edge">
<title>Node6&#45;&gt;Node19</title>
<g id="a_edge20_Node000006_Node000019"><a xlink:title=" ">
<path fill="none" stroke="#63b8ff" d="M1181.9,-158.19C1315.74,-144.5 1591.4,-116.31 1728.46,-102.29"/>
<polygon fill="#63b8ff" stroke="#63b8ff" points="1181.32,-154.73 1171.73,-159.23 1182.03,-161.69 1181.32,-154.73"/>
</a>
</g>
</g>
<!-- Node22 -->
<g id="Node000022" class="node">
<title>Node22</title>
<g id="a_Node000022"><a xlink:href="EspUart_8h.html" target="_top" xlink:title="ESP32 UART implementation for the HardFOC system.">
<polygon fill="white" stroke="#666666" points="2294.5,-104.5 2126.5,-104.5 2126.5,-81.5 2294.5,-81.5 2294.5,-104.5"/>
<text text-anchor="middle" x="2210.5" y="-89.3" font-family="Arial" font-size="14.00">inc/mcu/esp32/EspUart.h</text>
</a>
</g>
</g>
<!-- Node6&#45;&gt;Node22 -->
<g id="edge23_Node000006_Node000022" class="edge">
<title>Node6&#45;&gt;Node22</title>
<g id="a_edge23_Node000006_Node000022"><a xlink:title=" ">
<path fill="none" stroke="#63b8ff" d="M1181.83,-161.03C1381.5,-148.02 1918.19,-113.05 2126.36,-99.48"/>
<polygon fill="#63b8ff" stroke="#63b8ff" points="1181.47,-157.54 1171.72,-161.68 1181.93,-164.53 1181.47,-157.54"/>
</a>
</g>
</g>
<!-- Node8 -->
<g id="Node000008" class="node">
<title>Node8</title>
<g id="a_Node000008"><a xlink:href="AdcComprehensiveTest_8cpp.html" target="_top" xlink:title="Comprehensive ADC testing suite for ESP32&#45;C6 DevKit&#45;M&#45;1 (noexcept)">
<polygon fill="white" stroke="#666666" points="287,-38 98,-38 98,0 287,0 287,-38"/>
<text text-anchor="start" x="106" y="-22.8" font-family="Arial" font-size="14.00">examples/esp32/main</text>
<text text-anchor="middle" x="192.5" y="-7.8" font-family="Arial" font-size="14.00">/AdcComprehensiveTest.cpp</text>
</a>
</g>
</g>
<!-- Node7&#45;&gt;Node8 -->
<g id="edge9_Node000007_Node000008" class="edge">
<title>Node7&#45;&gt;Node8</title>
<g id="a_edge9_Node000007_Node000008"><a xlink:title=" ">
<path fill="none" stroke="#63b8ff" d="M448.9,-79.17C399.3,-67.72 326.16,-50.84 270.68,-38.04"/>
<polygon fill="#63b8ff" stroke="#63b8ff" points="448.27,-82.62 458.8,-81.45 449.84,-75.79 448.27,-82.62"/>
</a>
</g>
</g>
<!-- Node9 -->
<g id="Node000009" class="node">
<title>Node9</title>
<g id="a_Node000009"><a xlink:href="EspAdc_8cpp.html" target="_top" xlink:title="ESP32 ADC implementation for the HardFOC system.">
<polygon fill="white" stroke="#666666" points="486,-30.5 305,-30.5 305,-7.5 486,-7.5 486,-30.5"/>
<text text-anchor="middle" x="395.5" y="-15.3" font-family="Arial" font-size="14.00">src/mcu/esp32/EspAdc.cpp</text>
</a>
</g>
</g>
<!-- Node7&#45;&gt;Node9 -->
<g id="edge10_Node000007_Node000009" class="edge">
<title>Node7&#45;&gt;Node9</title>
<g id="a_edge10_Node000007_Node000009"><a xlink:title=" ">
<path fill="none" stroke="#63b8ff" d="M480.05,-75.85C459.16,-62.05 429.71,-42.6 411.65,-30.67"/>
<polygon fill="#63b8ff" stroke="#63b8ff" points="478.14,-78.78 488.42,-81.38 482,-72.94 478.14,-78.78"/>
</a>
</g>
</g>
<!-- Node11 -->
<g id="Node000011" class="node">
<title>Node11</title>
<g id="a_Node000011"><a xlink:href="I2cComprehensiveTest_8cpp.html" target="_top" xlink:title="Comprehensive I2C testing suite for ESP32&#45;C6 DevKit&#45;M&#45;1 (noexcept)">
<polygon fill="white" stroke="#666666" points="688.5,-38 504.5,-38 504.5,0 688.5,0 688.5,-38"/>
<text text-anchor="start" x="512.5" y="-22.8" font-family="Arial" font-size="14.00">examples/esp32/main</text>
<text text-anchor="middle" x="596.5" y="-7.8" font-family="Arial" font-size="14.00">/I2cComprehensiveTest.cpp</text>
</a>
</g>
</g>
<!-- Node10&#45;&gt;Node11 -->
<g id="edge12_Node000010_Node000011" class="edge">
<title>Node10&#45;&gt;Node11</title>
<g id="a_edge12_Node000010_Node000011"><a xlink:title=" ">
<path fill="none" stroke="#63b8ff" d="M755.6,-77.85C724.29,-66.47 680.07,-50.39 646.2,-38.07"/>
<polygon fill="#63b8ff" stroke="#63b8ff" points="754.69,-81.25 765.28,-81.38 757.08,-74.67 754.69,-81.25"/>
</a>
</g>
</g>
<!-- Node12 -->
<g id="Node000012" class="node">
<title>Node12</title>
<g id="a_Node000012"><a xlink:href="EspI2c_8cpp.html" target="_top" xlink:title="Implementation of ESP32&#45;integrated I2C controller with proper bus&#45;device architecture.">
<polygon fill="white" stroke="#666666" points="882.5,-30.5 706.5,-30.5 706.5,-7.5 882.5,-7.5 882.5,-30.5"/>
<text text-anchor="middle" x="794.5" y="-15.3" font-family="Arial" font-size="14.00">src/mcu/esp32/EspI2c.cpp</text>
</a>
</g>
</g>
<!-- Node10&#45;&gt;Node12 -->
<g id="edge13_Node000010_Node000012" class="edge">
<title>Node10&#45;&gt;Node12</title>
<g id="a_edge13_Node000010_Node000012"><a xlink:title=" ">
<path fill="none" stroke="#63b8ff" d="M794.5,-71.23C794.5,-57.97 794.5,-41.32 794.5,-30.67"/>
<polygon fill="#63b8ff" stroke="#63b8ff" points="791,-71.38 794.5,-81.38 798,-71.38 791,-71.38"/>
</a>
</g>
</g>
<!-- Node14 -->
<g id="Node000014" class="node">
<title>Node14</title>
<g id="a_Node000014"><a xlink:href="TimerComprehensiveTest_8cpp.html" target="_top" xlink:title="ESP32&#45;C6 Periodic Timer Comprehensive Test Suite v2.0.">
<polygon fill="white" stroke="#666666" points="1102,-38 901,-38 901,0 1102,0 1102,-38"/>
<text text-anchor="start" x="909" y="-22.8" font-family="Arial" font-size="14.00">examples/esp32/main</text>
<text text-anchor="middle" x="1001.5" y="-7.8" font-family="Arial" font-size="14.00">/TimerComprehensiveTest.cpp</text>
</a>
</g>
</g>
<!-- Node13&#45;&gt;Node14 -->
<g id="edge15_Node000013_Node000014" class="edge">
<title>Node13&#45;&gt;Node14</title>
<g id="a_edge15_Node000013_Node000014"><a xlink:title=" ">
<path fill="none" stroke="#63b8ff" d="M1070.8,-67.97C1056.74,-58.25 1040.79,-47.2 1027.74,-38.16"/>
<polygon fill="#63b8ff" stroke="#63b8ff" points="1069.04,-71.02 1079.26,-73.83 1073.03,-65.26 1069.04,-71.02"/>
</a>
</g>
</g>
<!-- Node15 -->
<g id="Node000015" class="node">
<title>Node15</title>
<g id="a_Node000015"><a xlink:href="EspPeriodicTimer_8cpp.html" target="_top" xlink:title="Implementation of MCU&#45;integrated periodic timer.">
<polygon fill="white" stroke="#666666" points="1301,-38 1120,-38 1120,0 1301,0 1301,-38"/>
<text text-anchor="start" x="1128" y="-22.8" font-family="Arial" font-size="14.00">src/mcu/esp32/EspPeriodic</text>
<text text-anchor="middle" x="1210.5" y="-7.8" font-family="Arial" font-size="14.00">Timer.cpp</text>
</a>
</g>
</g>
<!-- Node13&#45;&gt;Node15 -->
<g id="edge16_Node000013_Node000015" class="edge">
<title>Node13&#45;&gt;Node15</title>
<g id="a_edge16_Node000013_Node000015"><a xlink:title=" ">
<path fill="none" stroke="#63b8ff" d="M1140.54,-67.97C1154.73,-58.25 1170.83,-47.2 1184.01,-38.16"/>
<polygon fill="#63b8ff" stroke="#63b8ff" points="1138.26,-65.29 1132,-73.83 1142.22,-71.06 1138.26,-65.29"/>
</a>
</g>
</g>
<!-- Node17 -->
<g id="Node000017" class="node">
<title>Node17</title>
<g id="a_Node000017"><a xlink:href="PioComprehensiveTest_8cpp.html" target="_top" xlink:title="Comprehensive PIO testing suite for ESP32&#45;C6 DevKit&#45;M&#45;1 with RMT peripheral (noexcept)">
<polygon fill="white" stroke="#666666" points="1504,-38 1319,-38 1319,0 1504,0 1504,-38"/>
<text text-anchor="start" x="1327" y="-22.8" font-family="Arial" font-size="14.00">examples/esp32/main</text>
<text text-anchor="middle" x="1411.5" y="-7.8" font-family="Arial" font-size="14.00">/PioComprehensiveTest.cpp</text>
</a>
</g>
</g>
<!-- Node16&#45;&gt;Node17 -->
<g id="edge18_Node000016_Node000017" class="edge">
<title>Node16&#45;&gt;Node17</title>
<g id="a_edge18_Node000016_Node000017"><a xlink:title=" ">
<path fill="none" stroke="#63b8ff" d="M1411.5,-71.1C1411.5,-60.69 1411.5,-48.23 1411.5,-38.21"/>
<polygon fill="#63b8ff" stroke="#63b8ff" points="1408,-71.38 1411.5,-81.38 1415,-71.38 1408,-71.38"/>
</a>
</g>
</g>
<!-- Node18 -->
<g id="Node000018" class="node">
<title>Node18</title>
<g id="a_Node000018"><a xlink:href="EspPio_8cpp.html" target="_top" xlink:title="ESP32C6 RMT&#45;based Programmable IO Channel implementation.">
<polygon fill="white" stroke="#666666" points="1699,-30.5 1522,-30.5 1522,-7.5 1699,-7.5 1699,-30.5"/>
<text text-anchor="middle" x="1610.5" y="-15.3" font-family="Arial" font-size="14.00">src/mcu/esp32/EspPio.cpp</text>
</a>
</g>
</g>
<!-- Node16&#45;&gt;Node18 -->
<g id="edge19_Node000016_Node000018" class="edge">
<title>Node16&#45;&gt;Node18</title>
<g id="a_edge19_Node000016_Node000018"><a xlink:title=" ">
<path fill="none" stroke="#63b8ff" d="M1450.67,-77.83C1489.09,-63.93 1546.79,-43.05 1581.34,-30.55"/>
<polygon fill="#63b8ff" stroke="#63b8ff" points="1449.08,-74.68 1440.86,-81.38 1451.46,-81.27 1449.08,-74.68"/>
</a>
</g>
</g>
<!-- Node20 -->
<g id="Node000020" class="node">
<title>Node20</title>
<g id="a_Node000020"><a xlink:href="SpiComprehensiveTest_8cpp.html" target="_top" xlink:title="Comprehensive SPI testing suite for ESP32&#45;C6 DevKit&#45;M&#45;1 (noexcept)">
<polygon fill="white" stroke="#666666" points="1902,-38 1717,-38 1717,0 1902,0 1902,-38"/>
<text text-anchor="start" x="1725" y="-22.8" font-family="Arial" font-size="14.00">examples/esp32/main</text>
<text text-anchor="middle" x="1809.5" y="-7.8" font-family="Arial" font-size="14.00">/SpiComprehensiveTest.cpp</text>
</a>
</g>
</g>
<!-- Node19&#45;&gt;Node20 -->
<g id="edge21_Node000019_Node000020" class="edge">
<title>Node19&#45;&gt;Node20</title>
<g id="a_edge21_Node000019_Node000020"><a xlink:title=" ">
<path fill="none" stroke="#63b8ff" d="M1809.5,-71.1C1809.5,-60.69 1809.5,-48.23 1809.5,-38.21"/>
<polygon fill="#63b8ff" stroke="#63b8ff" points="1806,-71.38 1809.5,-81.38 1813,-71.38 1806,-71.38"/>
</a>
</g>
</g>
<!-- Node21 -->
<g id="Node000021" class="node">
<title>Node21</title>
<g id="a_Node000021"><a xlink:href="EspSpi_8cpp.html" target="_top" xlink:title="Implementation of MCU&#45;integrated SPI controller for ESP32C6 with ESP&#45;IDF v5.5+ features.">
<polygon fill="white" stroke="#666666" points="2097,-30.5 1920,-30.5 1920,-7.5 2097,-7.5 2097,-30.5"/>
<text text-anchor="middle" x="2008.5" y="-15.3" font-family="Arial" font-size="14.00">src/mcu/esp32/EspSpi.cpp</text>
</a>
</g>
</g>
<!-- Node19&#45;&gt;Node21 -->
<g id="edge22_Node000019_Node000021" class="edge">
<title>Node19&#45;&gt;Node21</title>
<g id="a_edge22_Node000019_Node000021"><a xlink:title=" ">
<path fill="none" stroke="#63b8ff" d="M1848.67,-77.83C1887.09,-63.93 1944.79,-43.05 1979.34,-30.55"/>
<polygon fill="#63b8ff" stroke="#63b8ff" points="1847.08,-74.68 1838.86,-81.38 1849.46,-81.27 1847.08,-74.68"/>
</a>
</g>
</g>
<!-- Node23 -->
<g id="Node000023" class="node">
<title>Node23</title>
<g id="a_Node000023"><a xlink:href="UartComprehensiveTest_8cpp.html" target="_top" xlink:title="Comprehensive UART testing suite for ESP32&#45;C6 DevKit&#45;M&#45;1 (noexcept)">
<polygon fill="white" stroke="#666666" points="2306,-38 2115,-38 2115,0 2306,0 2306,-38"/>
<text text-anchor="start" x="2123" y="-22.8" font-family="Arial" font-size="14.00">examples/esp32/main</text>
<text text-anchor="middle" x="2210.5" y="-7.8" font-family="Arial" font-size="14.00">/UartComprehensiveTest.cpp</text>
</a>
</g>
</g>
<!-- Node22&#45;&gt;Node23 -->
<g id="edge24_Node000022_Node000023" class="edge">
<title>Node22&#45;&gt;Node23</title>
<g id="a_edge24_Node000022_Node000023"><a xlink:title=" ">
<path fill="none" stroke="#63b8ff" d="M2210.5,-71.1C2210.5,-60.69 2210.5,-48.23 2210.5,-38.21"/>
<polygon fill="#63b8ff" stroke="#63b8ff" points="2207,-71.38 2210.5,-81.38 2214,-71.38 2207,-71.38"/>
</a>
</g>
</g>
<!-- Node24 -->
<g id="Node000024" class="node">
<title>Node24</title>
<g id="a_Node000024"><a xlink:href="EspUart_8cpp.html" target="_top" xlink:title="Implementation of ESP32 UART controller for the HardFOC system.">
<polygon fill="white" stroke="#666666" points="2507,-30.5 2324,-30.5 2324,-7.5 2507,-7.5 2507,-30.5"/>
<text text-anchor="middle" x="2415.5" y="-15.3" font-family="Arial" font-size="14.00">src/mcu/esp32/EspUart.cpp</text>
</a>
</g>
</g>
<!-- Node22&#45;&gt;Node24 -->
<g id="edge25_Node000022_Node000024" class="edge">
<title>Node22&#45;&gt;Node24</title>
<g id="a_edge25_Node000022_Node000024"><a xlink:title=" ">
<path fill="none" stroke="#63b8ff" d="M2250.35,-78C2289.93,-64.1 2349.72,-43.1 2385.46,-30.55"/>
<polygon fill="#63b8ff" stroke="#63b8ff" points="2249.02,-74.76 2240.75,-81.38 2251.34,-81.36 2249.02,-74.76"/>
</a>
</g>
</g>
</g>
</svg>
