<?xml version="1.0" encoding="UTF-8" standalone="no"?>
<!DOCTYPE svg PUBLIC "-//W3C//DTD SVG 1.1//EN"
 "http://www.w3.org/Graphics/SVG/1.1/DTD/svg11.dtd">
<!-- Generated by graphviz version 2.43.0 (0)
 -->
<!-- Title: examples/esp32/main/BluetoothComprehensiveTest.cpp Pages: 1 -->
<svg width="1258pt" height="400pt"
 viewBox="0.00 0.00 1257.93 400.00" xmlns="http://www.w3.org/2000/svg" xmlns:xlink="http://www.w3.org/1999/xlink">
<g id="graph0" class="graph" transform="scale(1 1) rotate(0) translate(4 396)">
<title>examples/esp32/main/BluetoothComprehensiveTest.cpp</title>
<!-- Node1 -->
<g id="Node000001" class="node">
<title>Node1</title>
<g id="a_Node000001"><a xlink:title="Comprehensive Bluetooth/NimBLE testing suite for ESP32&#45;C6 DevKit&#45;M&#45;1 (noexcept)">
<polygon fill="#999999" stroke="#666666" points="308.43,-392 85.43,-392 85.43,-354 308.43,-354 308.43,-392"/>
<text text-anchor="start" x="93.43" y="-376.8" font-family="Arial" font-size="14.00">examples/esp32/main</text>
<text text-anchor="middle" x="196.93" y="-361.8" font-family="Arial" font-size="14.00">/BluetoothComprehensiveTest.cpp</text>
</a>
</g>
</g>
<!-- Node2 -->
<g id="Node000002" class="node">
<title>Node2</title>
<g id="a_Node000002"><a xlink:href="BaseBluetooth_8h.html" target="_top" xlink:title="Unified Bluetooth base class for all Bluetooth implementations.">
<polygon fill="white" stroke="#666666" points="540.43,-141 391.43,-141 391.43,-118 540.43,-118 540.43,-141"/>
<text text-anchor="middle" x="465.93" y="-125.8" font-family="Arial" font-size="14.00">base/BaseBluetooth.h</text>
</a>
</g>
</g>
<!-- Node1&#45;&gt;Node2 -->
<g id="edge1_Node000001_Node000002" class="edge">
<title>Node1&#45;&gt;Node2</title>
<g id="a_edge1_Node000001_Node000002"><a xlink:title=" ">
<path fill="none" stroke="#63b8ff" d="M91.12,-353.95C68.99,-345.99 47.41,-334.53 30.93,-318 4.52,-291.51 -11.33,-265.29 11.93,-236 57.17,-179.05 262.73,-150.06 381.16,-137.84"/>
<polygon fill="#63b8ff" stroke="#63b8ff" points="381.69,-141.31 391.28,-136.82 380.98,-134.34 381.69,-141.31"/>
</a>
</g>
</g>
<!-- Node10 -->
<g id="Node000010" class="node">
<title>Node10</title>
<g id="a_Node000010"><a xlink:title=" ">
<polygon fill="#e0e0e0" stroke="#999999" points="650.43,-82 597.43,-82 597.43,-59 650.43,-59 650.43,-82"/>
<text text-anchor="middle" x="623.93" y="-66.8" font-family="Arial" font-size="14.00">vector</text>
</a>
</g>
</g>
<!-- Node1&#45;&gt;Node10 -->
<g id="edge48_Node000001_Node000010" class="edge">
<title>Node1&#45;&gt;Node10</title>
<g id="a_edge48_Node000001_Node000010"><a xlink:title=" ">
<path fill="none" stroke="#63b8ff" d="M308.57,-370.63C476.82,-365.49 775.93,-343.06 775.93,-248.5 775.93,-248.5 775.93,-248.5 775.93,-187.5 775.93,-147.27 749.53,-142.9 717.93,-118 700.52,-104.28 678.4,-93.09 660,-85.13"/>
<polygon fill="#63b8ff" stroke="#63b8ff" points="661.33,-81.89 650.76,-81.26 658.63,-88.35 661.33,-81.89"/>
</a>
</g>
</g>
<!-- Node11 -->
<g id="Node000011" class="node">
<title>Node11</title>
<g id="a_Node000011"><a xlink:href="EspBluetooth_8h.html" target="_top" xlink:title="ESP32 Bluetooth implementation using NimBLE for BLE&#45;only support (ESP32C6)">
<polygon fill="white" stroke="#666666" points="555.43,-200 376.43,-200 376.43,-177 555.43,-177 555.43,-200"/>
<text text-anchor="middle" x="465.93" y="-184.8" font-family="Arial" font-size="14.00">mcu/esp32/EspBluetooth.h</text>
</a>
</g>
</g>
<!-- Node1&#45;&gt;Node11 -->
<g id="edge11_Node000001_Node000011" class="edge">
<title>Node1&#45;&gt;Node11</title>
<g id="a_edge11_Node000001_Node000011"><a xlink:title=" ">
<path fill="none" stroke="#63b8ff" d="M141.39,-353.97C76.1,-330 -18.09,-284.92 25.93,-236 48.27,-211.18 243.21,-198.63 366.01,-193.12"/>
<polygon fill="#63b8ff" stroke="#63b8ff" points="366.35,-196.61 376.19,-192.68 366.05,-189.62 366.35,-196.61"/>
</a>
</g>
</g>
<!-- Node18 -->
<g id="Node000018" class="node">
<title>Node18</title>
<g id="a_Node000018"><a xlink:href="TestFramework_8h.html" target="_top" xlink:title="Shared testing framework for ESP32&#45;C6 comprehensive test suites.">
<polygon fill="white" stroke="#666666" points="452.43,-318 331.43,-318 331.43,-295 452.43,-295 452.43,-318"/>
<text text-anchor="middle" x="391.93" y="-302.8" font-family="Arial" font-size="14.00">TestFramework.h</text>
</a>
</g>
</g>
<!-- Node1&#45;&gt;Node18 -->
<g id="edge23_Node000001_Node000018" class="edge">
<title>Node1&#45;&gt;Node18</title>
<g id="a_edge23_Node000001_Node000018"><a xlink:title=" ">
<path fill="none" stroke="#63b8ff" d="M251.51,-353.95C282.76,-343.61 321.35,-330.85 350.16,-321.32"/>
<polygon fill="#63b8ff" stroke="#63b8ff" points="351.52,-324.55 359.92,-318.09 349.33,-317.91 351.52,-324.55"/>
</a>
</g>
</g>
<!-- Node3 -->
<g id="Node000003" class="node">
<title>Node3</title>
<g id="a_Node000003"><a xlink:href="HardwareTypes_8h.html" target="_top" xlink:title="Platform&#45;agnostic hardware type definitions for the HardFOC system.">
<polygon fill="white" stroke="#666666" points="892.93,-82 770.93,-82 770.93,-59 892.93,-59 892.93,-82"/>
<text text-anchor="middle" x="831.93" y="-66.8" font-family="Arial" font-size="14.00">HardwareTypes.h</text>
</a>
</g>
</g>
<!-- Node2&#45;&gt;Node3 -->
<g id="edge2_Node000002_Node000003" class="edge">
<title>Node2&#45;&gt;Node3</title>
<g id="a_edge2_Node000002_Node000003"><a xlink:title=" ">
<path fill="none" stroke="#63b8ff" d="M533.49,-117.98C598,-107.93 694.84,-92.85 760.58,-82.61"/>
<polygon fill="#63b8ff" stroke="#63b8ff" points="761.51,-86.01 770.85,-81.01 760.43,-79.09 761.51,-86.01"/>
</a>
</g>
</g>
<!-- Node4 -->
<g id="Node000004" class="node">
<title>Node4</title>
<g id="a_Node000004"><a xlink:title=" ">
<polygon fill="#e0e0e0" stroke="#999999" points="948.93,-23 892.93,-23 892.93,0 948.93,0 948.93,-23"/>
<text text-anchor="middle" x="920.93" y="-7.8" font-family="Arial" font-size="14.00">cstdint</text>
</a>
</g>
</g>
<!-- Node2&#45;&gt;Node4 -->
<g id="edge6_Node000002_Node000004" class="edge">
<title>Node2&#45;&gt;Node4</title>
<g id="a_edge6_Node000002_Node000004"><a xlink:title=" ">
<path fill="none" stroke="#63b8ff" d="M485.4,-118C502.51,-108.71 528.01,-94.7 549.93,-82 567.02,-72.11 569.3,-65.52 587.93,-59 705.11,-17.98 742.32,-42.45 864.93,-23 870.76,-22.08 876.9,-21.01 882.9,-19.93"/>
<polygon fill="#63b8ff" stroke="#63b8ff" points="883.59,-23.36 892.79,-18.1 882.32,-16.48 883.59,-23.36"/>
</a>
</g>
</g>
<!-- Node6 -->
<g id="Node000006" class="node">
<title>Node6</title>
<g id="a_Node000006"><a xlink:title=" ">
<polygon fill="#e0e0e0" stroke="#999999" points="540.93,-82 484.93,-82 484.93,-59 540.93,-59 540.93,-82"/>
<text text-anchor="middle" x="512.93" y="-66.8" font-family="Arial" font-size="14.00">cctype</text>
</a>
</g>
</g>
<!-- Node2&#45;&gt;Node6 -->
<g id="edge5_Node000002_Node000006" class="edge">
<title>Node2&#45;&gt;Node6</title>
<g id="a_edge5_Node000002_Node000006"><a xlink:title=" ">
<path fill="none" stroke="#63b8ff" d="M474.77,-117.78C481.21,-109.98 490.08,-99.21 497.65,-90.03"/>
<polygon fill="#63b8ff" stroke="#63b8ff" points="500.47,-92.12 504.13,-82.17 495.07,-87.66 500.47,-92.12"/>
</a>
</g>
</g>
<!-- Node7 -->
<g id="Node000007" class="node">
<title>Node7</title>
<g id="a_Node000007"><a xlink:title=" ">
<polygon fill="#e0e0e0" stroke="#999999" points="398.93,-82 324.93,-82 324.93,-59 398.93,-59 398.93,-82"/>
<text text-anchor="middle" x="361.93" y="-66.8" font-family="Arial" font-size="14.00">functional</text>
</a>
</g>
</g>
<!-- Node2&#45;&gt;Node7 -->
<g id="edge7_Node000002_Node000007" class="edge">
<title>Node2&#45;&gt;Node7</title>
<g id="a_edge7_Node000002_Node000007"><a xlink:title=" ">
<path fill="none" stroke="#63b8ff" d="M446.37,-117.78C430.54,-109.1 408.02,-96.76 390.23,-87.01"/>
<polygon fill="#63b8ff" stroke="#63b8ff" points="391.86,-83.91 381.41,-82.17 388.5,-90.05 391.86,-83.91"/>
</a>
</g>
</g>
<!-- Node8 -->
<g id="Node000008" class="node">
<title>Node8</title>
<g id="a_Node000008"><a xlink:title=" ">
<polygon fill="#e0e0e0" stroke="#999999" points="466.93,-82 416.93,-82 416.93,-59 466.93,-59 466.93,-82"/>
<text text-anchor="middle" x="441.93" y="-66.8" font-family="Arial" font-size="14.00">string</text>
</a>
</g>
</g>
<!-- Node2&#45;&gt;Node8 -->
<g id="edge8_Node000002_Node000008" class="edge">
<title>Node2&#45;&gt;Node8</title>
<g id="a_edge8_Node000002_Node000008"><a xlink:title=" ">
<path fill="none" stroke="#63b8ff" d="M461.42,-117.78C458.3,-110.37 454.06,-100.3 450.33,-91.45"/>
<polygon fill="#63b8ff" stroke="#63b8ff" points="453.53,-90.03 446.43,-82.17 447.08,-92.75 453.53,-90.03"/>
</a>
</g>
</g>
<!-- Node9 -->
<g id="Node000009" class="node">
<title>Node9</title>
<g id="a_Node000009"><a xlink:title=" ">
<polygon fill="#e0e0e0" stroke="#999999" points="752.93,-82 668.93,-82 668.93,-59 752.93,-59 752.93,-82"/>
<text text-anchor="middle" x="710.93" y="-66.8" font-family="Arial" font-size="14.00">string_view</text>
</a>
</g>
</g>
<!-- Node2&#45;&gt;Node9 -->
<g id="edge9_Node000002_Node000009" class="edge">
<title>Node2&#45;&gt;Node9</title>
<g id="a_edge9_Node000002_Node000009"><a xlink:title=" ">
<path fill="none" stroke="#63b8ff" d="M511.16,-117.98C552.97,-108.25 615.1,-93.8 658.94,-83.6"/>
<polygon fill="#63b8ff" stroke="#63b8ff" points="659.89,-86.97 668.84,-81.29 658.31,-80.15 659.89,-86.97"/>
</a>
</g>
</g>
<!-- Node2&#45;&gt;Node10 -->
<g id="edge10_Node000002_Node000010" class="edge">
<title>Node2&#45;&gt;Node10</title>
<g id="a_edge10_Node000002_Node000010"><a xlink:title=" ">
<path fill="none" stroke="#63b8ff" d="M495.28,-117.91C521.47,-108.47 559.89,-94.6 587.93,-84.49"/>
<polygon fill="#63b8ff" stroke="#63b8ff" points="589.15,-87.77 597.37,-81.08 586.78,-81.18 589.15,-87.77"/>
</a>
</g>
</g>
<!-- Node3&#45;&gt;Node4 -->
<g id="edge3_Node000003_Node000004" class="edge">
<title>Node3&#45;&gt;Node4</title>
<g id="a_edge3_Node000003_Node000004"><a xlink:title=" ">
<path fill="none" stroke="#63b8ff" d="M848.67,-58.78C861.85,-50.34 880.44,-38.44 895.46,-28.82"/>
<polygon fill="#63b8ff" stroke="#63b8ff" points="897.74,-31.51 904.27,-23.17 893.96,-25.62 897.74,-31.51"/>
</a>
</g>
</g>
<!-- Node5 -->
<g id="Node000005" class="node">
<title>Node5</title>
<g id="a_Node000005"><a xlink:title=" ">
<polygon fill="#e0e0e0" stroke="#999999" points="855.93,-23 807.93,-23 807.93,0 855.93,0 855.93,-23"/>
<text text-anchor="middle" x="831.93" y="-7.8" font-family="Arial" font-size="14.00">limits</text>
</a>
</g>
</g>
<!-- Node3&#45;&gt;Node5 -->
<g id="edge4_Node000003_Node000005" class="edge">
<title>Node3&#45;&gt;Node5</title>
<g id="a_edge4_Node000003_Node000005"><a xlink:title=" ">
<path fill="none" stroke="#63b8ff" d="M831.93,-58.78C831.93,-51.61 831.93,-41.95 831.93,-33.31"/>
<polygon fill="#63b8ff" stroke="#63b8ff" points="835.43,-33.17 831.93,-23.17 828.43,-33.17 835.43,-33.17"/>
</a>
</g>
</g>
<!-- Node11&#45;&gt;Node2 -->
<g id="edge12_Node000011_Node000002" class="edge">
<title>Node11&#45;&gt;Node2</title>
<g id="a_edge12_Node000011_Node000002"><a xlink:title=" ">
<path fill="none" stroke="#63b8ff" d="M465.93,-176.78C465.93,-169.61 465.93,-159.95 465.93,-151.31"/>
<polygon fill="#63b8ff" stroke="#63b8ff" points="469.43,-151.17 465.93,-141.17 462.43,-151.17 469.43,-151.17"/>
</a>
</g>
</g>
<!-- Node11&#45;&gt;Node3 -->
<g id="edge13_Node000011_Node000003" class="edge">
<title>Node11&#45;&gt;Node3</title>
<g id="a_edge13_Node000011_Node000003"><a xlink:title=" ">
<path fill="none" stroke="#63b8ff" d="M492.11,-176.97C514.7,-167.77 548.15,-153.92 576.93,-141 598.52,-131.32 602.59,-125.75 624.93,-118 669.04,-102.7 720.22,-91.15 760.66,-83.39"/>
<polygon fill="#63b8ff" stroke="#63b8ff" points="761.51,-86.79 770.69,-81.5 760.22,-79.91 761.51,-86.79"/>
</a>
</g>
</g>
<!-- Node11&#45;&gt;Node7 -->
<g id="edge20_Node000011_Node000007" class="edge">
<title>Node11&#45;&gt;Node7</title>
<g id="a_edge20_Node000011_Node000007"><a xlink:title=" ">
<path fill="none" stroke="#63b8ff" d="M434.32,-176.94C416.56,-169.49 395.33,-157.82 381.93,-141 370.84,-127.07 365.9,-107.24 363.7,-92.32"/>
<polygon fill="#63b8ff" stroke="#63b8ff" points="367.14,-91.58 362.49,-82.06 360.18,-92.4 367.14,-91.58"/>
</a>
</g>
</g>
<!-- Node11&#45;&gt;Node10 -->
<g id="edge22_Node000011_Node000010" class="edge">
<title>Node11&#45;&gt;Node10</title>
<g id="a_edge22_Node000011_Node000010"><a xlink:title=" ">
<path fill="none" stroke="#63b8ff" d="M487.94,-176.98C505.18,-168.32 529.44,-155.19 548.93,-141 570.25,-125.49 592.07,-104.59 606.64,-89.77"/>
<polygon fill="#63b8ff" stroke="#63b8ff" points="609.5,-91.85 613.94,-82.23 604.47,-86.98 609.5,-91.85"/>
</a>
</g>
</g>
<!-- Node12 -->
<g id="Node000012" class="node">
<title>Node12</title>
<g id="a_Node000012"><a xlink:title=" ">
<polygon fill="#e0e0e0" stroke="#999999" points="709.43,-141 634.43,-141 634.43,-118 709.43,-118 709.43,-141"/>
<text text-anchor="middle" x="671.93" y="-125.8" font-family="Arial" font-size="14.00">esp_log.h</text>
</a>
</g>
</g>
<!-- Node11&#45;&gt;Node12 -->
<g id="edge14_Node000011_Node000012" class="edge">
<title>Node11&#45;&gt;Node12</title>
<g id="a_edge14_Node000011_Node000012"><a xlink:title=" ">
<path fill="none" stroke="#63b8ff" d="M504.2,-176.91C538.13,-167.52 587.81,-153.78 624.3,-143.68"/>
<polygon fill="#63b8ff" stroke="#63b8ff" points="625.52,-146.97 634.22,-140.93 623.65,-140.23 625.52,-146.97"/>
</a>
</g>
</g>
<!-- Node13 -->
<g id="Node000013" class="node">
<title>Node13</title>
<g id="a_Node000013"><a xlink:title=" ">
<polygon fill="#e0e0e0" stroke="#999999" points="273.43,-141 188.43,-141 188.43,-118 273.43,-118 273.43,-141"/>
<text text-anchor="middle" x="230.93" y="-125.8" font-family="Arial" font-size="14.00">nvs_flash.h</text>
</a>
</g>
</g>
<!-- Node11&#45;&gt;Node13 -->
<g id="edge15_Node000011_Node000013" class="edge">
<title>Node11&#45;&gt;Node13</title>
<g id="a_edge15_Node000011_Node000013"><a xlink:title=" ">
<path fill="none" stroke="#63b8ff" d="M422.56,-176.98C383.27,-167.45 325.29,-153.39 283.41,-143.23"/>
<polygon fill="#63b8ff" stroke="#63b8ff" points="284.2,-139.82 273.66,-140.86 282.55,-146.62 284.2,-139.82"/>
</a>
</g>
</g>
<!-- Node14 -->
<g id="Node000014" class="node">
<title>Node14</title>
<g id="a_Node000014"><a xlink:href="PlatformMutex_8h.html" target="_top" xlink:title="Cross&#45;platform RTOS mutex and synchronization primitives.">
<polygon fill="white" stroke="#666666" points="1063.93,-141 947.93,-141 947.93,-118 1063.93,-118 1063.93,-141"/>
<text text-anchor="middle" x="1005.93" y="-125.8" font-family="Arial" font-size="14.00">PlatformMutex.h</text>
</a>
</g>
</g>
<!-- Node11&#45;&gt;Node14 -->
<g id="edge16_Node000011_Node000014" class="edge">
<title>Node11&#45;&gt;Node14</title>
<g id="a_edge16_Node000011_Node000014"><a xlink:title=" ">
<path fill="none" stroke="#63b8ff" d="M555.71,-178.02C663.17,-166.68 840.73,-147.94 937.64,-137.71"/>
<polygon fill="#63b8ff" stroke="#63b8ff" points="938.04,-141.19 947.62,-136.66 937.31,-134.22 938.04,-141.19"/>
</a>
</g>
</g>
<!-- Node17 -->
<g id="Node000017" class="node">
<title>Node17</title>
<g id="a_Node000017"><a xlink:title=" ">
<polygon fill="#e0e0e0" stroke="#999999" points="335.93,-141 291.93,-141 291.93,-118 335.93,-118 335.93,-141"/>
<text text-anchor="middle" x="313.93" y="-125.8" font-family="Arial" font-size="14.00">map</text>
</a>
</g>
</g>
<!-- Node11&#45;&gt;Node17 -->
<g id="edge21_Node000011_Node000017" class="edge">
<title>Node11&#45;&gt;Node17</title>
<g id="a_edge21_Node000011_Node000017"><a xlink:title=" ">
<path fill="none" stroke="#63b8ff" d="M437.7,-176.91C411.55,-167.11 372.71,-152.54 345.54,-142.35"/>
<polygon fill="#63b8ff" stroke="#63b8ff" points="346.69,-139.04 336.1,-138.81 344.23,-145.6 346.69,-139.04"/>
</a>
</g>
</g>
<!-- Node14&#45;&gt;Node4 -->
<g id="edge19_Node000014_Node000004" class="edge">
<title>Node14&#45;&gt;Node4</title>
<g id="a_edge19_Node000014_Node000004"><a xlink:title=" ">
<path fill="none" stroke="#63b8ff" d="M998.09,-117.79C983.67,-98.11 952.77,-55.95 934.76,-31.37"/>
<polygon fill="#63b8ff" stroke="#63b8ff" points="937.49,-29.18 928.76,-23.18 931.85,-33.31 937.49,-29.18"/>
</a>
</g>
</g>
<!-- Node15 -->
<g id="Node000015" class="node">
<title>Node15</title>
<g id="a_Node000015"><a xlink:href="McuSelect_8h.html" target="_top" xlink:title="Centralized MCU platform selection and configuration header.">
<polygon fill="white" stroke="#666666" points="1192.93,-82 1100.93,-82 1100.93,-59 1192.93,-59 1192.93,-82"/>
<text text-anchor="middle" x="1146.93" y="-66.8" font-family="Arial" font-size="14.00">McuSelect.h</text>
</a>
</g>
</g>
<!-- Node14&#45;&gt;Node15 -->
<g id="edge17_Node000014_Node000015" class="edge">
<title>Node14&#45;&gt;Node15</title>
<g id="a_edge17_Node000014_Node000015"><a xlink:title=" ">
<path fill="none" stroke="#63b8ff" d="M1032.13,-117.91C1054.48,-108.87 1086.84,-95.79 1111.51,-85.82"/>
<polygon fill="#63b8ff" stroke="#63b8ff" points="1112.92,-89.02 1120.88,-82.03 1110.3,-82.53 1112.92,-89.02"/>
</a>
</g>
</g>
<!-- Node16 -->
<g id="Node000016" class="node">
<title>Node16</title>
<g id="a_Node000016"><a xlink:title=" ">
<polygon fill="#e0e0e0" stroke="#999999" points="1044.43,-82 987.43,-82 987.43,-59 1044.43,-59 1044.43,-82"/>
<text text-anchor="middle" x="1015.93" y="-66.8" font-family="Arial" font-size="14.00">atomic</text>
</a>
</g>
</g>
<!-- Node14&#45;&gt;Node16 -->
<g id="edge18_Node000014_Node000016" class="edge">
<title>Node14&#45;&gt;Node16</title>
<g id="a_edge18_Node000014_Node000016"><a xlink:title=" ">
<path fill="none" stroke="#63b8ff" d="M1007.82,-117.78C1009.07,-110.61 1010.77,-100.95 1012.28,-92.31"/>
<polygon fill="#63b8ff" stroke="#63b8ff" points="1015.78,-92.63 1014.06,-82.17 1008.89,-91.42 1015.78,-92.63"/>
</a>
</g>
</g>
<!-- Node18&#45;&gt;Node3 -->
<g id="edge30_Node000018_Node000003" class="edge">
<title>Node18&#45;&gt;Node3</title>
<g id="a_edge30_Node000018_Node000003"><a xlink:title=" ">
<path fill="none" stroke="#63b8ff" d="M331.15,-306.12C244.88,-305.56 93.51,-298.74 58.93,-259 52.22,-251.29 51.97,-243.48 58.93,-236 97.27,-194.83 509.02,-212.19 563.93,-200 635.49,-184.11 652.15,-173.32 717.93,-141 750.3,-125.1 785.43,-102.86 808.01,-87.86"/>
<polygon fill="#63b8ff" stroke="#63b8ff" points="810.23,-90.58 816.59,-82.1 806.33,-84.77 810.23,-90.58"/>
</a>
</g>
</g>
<!-- Node18&#45;&gt;Node12 -->
<g id="edge24_Node000018_Node000012" class="edge">
<title>Node18&#45;&gt;Node12</title>
<g id="a_edge24_Node000018_Node000012"><a xlink:title=" ">
<path fill="none" stroke="#63b8ff" d="M452.69,-305.94C537.6,-305.11 685.16,-297.92 718.93,-259 747.15,-226.48 711.85,-175.6 688.83,-148.65"/>
<polygon fill="#63b8ff" stroke="#63b8ff" points="691.41,-146.28 682.17,-141.11 686.17,-150.92 691.41,-146.28"/>
</a>
</g>
</g>
<!-- Node19 -->
<g id="Node000019" class="node">
<title>Node19</title>
<g id="a_Node000019"><a xlink:title=" ">
<polygon fill="#e0e0e0" stroke="#999999" points="155.43,-259 68.43,-259 68.43,-236 155.43,-236 155.43,-259"/>
<text text-anchor="middle" x="111.93" y="-243.8" font-family="Arial" font-size="14.00">esp_timer.h</text>
</a>
</g>
</g>
<!-- Node18&#45;&gt;Node19 -->
<g id="edge25_Node000018_Node000019" class="edge">
<title>Node18&#45;&gt;Node19</title>
<g id="a_edge25_Node000018_Node000019"><a xlink:title=" ">
<path fill="none" stroke="#63b8ff" d="M340.25,-294.98C290.58,-284.87 215.84,-269.65 165.53,-259.41"/>
<polygon fill="#63b8ff" stroke="#63b8ff" points="166,-255.93 155.5,-257.37 164.6,-262.79 166,-255.93"/>
</a>
</g>
</g>
<!-- Node20 -->
<g id="Node000020" class="node">
<title>Node20</title>
<g id="a_Node000020"><a xlink:title=" ">
<polygon fill="#e0e0e0" stroke="#999999" points="316.43,-259 173.43,-259 173.43,-236 316.43,-236 316.43,-259"/>
<text text-anchor="middle" x="244.93" y="-243.8" font-family="Arial" font-size="14.00">freertos/FreeRTOS.h</text>
</a>
</g>
</g>
<!-- Node18&#45;&gt;Node20 -->
<g id="edge26_Node000018_Node000020" class="edge">
<title>Node18&#45;&gt;Node20</title>
<g id="a_edge26_Node000018_Node000020"><a xlink:title=" ">
<path fill="none" stroke="#63b8ff" d="M364.63,-294.91C341.22,-285.83 307.29,-272.68 281.53,-262.69"/>
<polygon fill="#63b8ff" stroke="#63b8ff" points="282.68,-259.38 272.09,-259.03 280.15,-265.91 282.68,-259.38"/>
</a>
</g>
</g>
<!-- Node21 -->
<g id="Node000021" class="node">
<title>Node21</title>
<g id="a_Node000021"><a xlink:title=" ">
<polygon fill="#e0e0e0" stroke="#999999" points="449.43,-259 334.43,-259 334.43,-236 449.43,-236 449.43,-259"/>
<text text-anchor="middle" x="391.93" y="-243.8" font-family="Arial" font-size="14.00">freertos/queue.h</text>
</a>
</g>
</g>
<!-- Node18&#45;&gt;Node21 -->
<g id="edge27_Node000018_Node000021" class="edge">
<title>Node18&#45;&gt;Node21</title>
<g id="a_edge27_Node000018_Node000021"><a xlink:title=" ">
<path fill="none" stroke="#63b8ff" d="M391.93,-294.78C391.93,-287.61 391.93,-277.95 391.93,-269.31"/>
<polygon fill="#63b8ff" stroke="#63b8ff" points="395.43,-269.17 391.93,-259.17 388.43,-269.17 395.43,-269.17"/>
</a>
</g>
</g>
<!-- Node22 -->
<g id="Node000022" class="node">
<title>Node22</title>
<g id="a_Node000022"><a xlink:title=" ">
<polygon fill="#e0e0e0" stroke="#999999" points="589.93,-259 467.93,-259 467.93,-236 589.93,-236 589.93,-259"/>
<text text-anchor="middle" x="528.93" y="-243.8" font-family="Arial" font-size="14.00">freertos/semphr.h</text>
</a>
</g>
</g>
<!-- Node18&#45;&gt;Node22 -->
<g id="edge28_Node000018_Node000022" class="edge">
<title>Node18&#45;&gt;Node22</title>
<g id="a_edge28_Node000018_Node000022"><a xlink:title=" ">
<path fill="none" stroke="#63b8ff" d="M417.38,-294.91C439.01,-285.91 470.27,-272.91 494.19,-262.95"/>
<polygon fill="#63b8ff" stroke="#63b8ff" points="495.73,-266.1 503.62,-259.03 493.05,-259.64 495.73,-266.1"/>
</a>
</g>
</g>
<!-- Node23 -->
<g id="Node000023" class="node">
<title>Node23</title>
<g id="a_Node000023"><a xlink:title=" ">
<polygon fill="#e0e0e0" stroke="#999999" points="709.93,-259 607.93,-259 607.93,-236 709.93,-236 709.93,-259"/>
<text text-anchor="middle" x="658.93" y="-243.8" font-family="Arial" font-size="14.00">freertos/task.h</text>
</a>
</g>
</g>
<!-- Node18&#45;&gt;Node23 -->
<g id="edge29_Node000018_Node000023" class="edge">
<title>Node18&#45;&gt;Node23</title>
<g id="a_edge29_Node000018_Node000023"><a xlink:title=" ">
<path fill="none" stroke="#63b8ff" d="M441.22,-294.98C485.95,-285.43 552.01,-271.33 599.62,-261.16"/>
<polygon fill="#63b8ff" stroke="#63b8ff" points="600.44,-264.57 609.49,-259.06 598.98,-257.72 600.44,-264.57"/>
</a>
</g>
</g>
<!-- Node24 -->
<g id="Node000024" class="node">
<title>Node24</title>
<g id="a_Node000024"><a xlink:href="EspGpio_8h.html" target="_top" xlink:title="Advanced MCU&#45;specific implementation of the unified BaseGpio class with ESP32C6/ESP&#45;IDF v5....">
<polygon fill="white" stroke="#666666" points="1069.43,-259 918.43,-259 918.43,-236 1069.43,-236 1069.43,-259"/>
<text text-anchor="middle" x="993.93" y="-243.8" font-family="Arial" font-size="14.00">mcu/esp32/EspGpio.h</text>
</a>
</g>
</g>
<!-- Node18&#45;&gt;Node24 -->
<g id="edge31_Node000018_Node000024" class="edge">
<title>Node18&#45;&gt;Node24</title>
<g id="a_edge31_Node000018_Node000024"><a xlink:title=" ">
<path fill="none" stroke="#63b8ff" d="M452.69,-299.75C560.28,-289.56 784.55,-268.33 907.95,-256.64"/>
<polygon fill="#63b8ff" stroke="#63b8ff" points="908.48,-260.11 918.11,-255.68 907.82,-253.14 908.48,-260.11"/>
</a>
</g>
</g>
<!-- Node25 -->
<g id="Node000025" class="node">
<title>Node25</title>
<g id="a_Node000025"><a xlink:title=" ">
<polygon fill="#e0e0e0" stroke="#999999" points="895.43,-200 804.43,-200 804.43,-177 895.43,-177 895.43,-200"/>
<text text-anchor="middle" x="849.93" y="-184.8" font-family="Arial" font-size="14.00">driver/gpio.h</text>
</a>
</g>
</g>
<!-- Node24&#45;&gt;Node25 -->
<g id="edge32_Node000024_Node000025" class="edge">
<title>Node24&#45;&gt;Node25</title>
<g id="a_edge32_Node000024_Node000025"><a xlink:title=" ">
<path fill="none" stroke="#63b8ff" d="M967.19,-235.91C944.35,-226.87 911.31,-213.79 886.11,-203.82"/>
<polygon fill="#63b8ff" stroke="#63b8ff" points="887.13,-200.46 876.54,-200.03 884.55,-206.97 887.13,-200.46"/>
</a>
</g>
</g>
<!-- Node26 -->
<g id="Node000026" class="node">
<title>Node26</title>
<g id="a_Node000026"><a xlink:title=" ">
<polygon fill="#e0e0e0" stroke="#999999" points="989.93,-200 913.93,-200 913.93,-177 989.93,-177 989.93,-200"/>
<text text-anchor="middle" x="951.93" y="-184.8" font-family="Arial" font-size="14.00">esp_attr.h</text>
</a>
</g>
</g>
<!-- Node24&#45;&gt;Node26 -->
<g id="edge33_Node000024_Node000026" class="edge">
<title>Node24&#45;&gt;Node26</title>
<g id="a_edge33_Node000024_Node000026"><a xlink:title=" ">
<path fill="none" stroke="#63b8ff" d="M986.03,-235.78C980.34,-228.06 972.52,-217.43 965.8,-208.31"/>
<polygon fill="#63b8ff" stroke="#63b8ff" points="968.55,-206.15 959.8,-200.17 962.91,-210.3 968.55,-206.15"/>
</a>
</g>
</g>
<!-- Node27 -->
<g id="Node000027" class="node">
<title>Node27</title>
<g id="a_Node000027"><a xlink:href="BaseGpio_8h.html" target="_top" xlink:title="Unified GPIO base class for all digital GPIO implementations.">
<polygon fill="white" stroke="#666666" points="891.93,-141 803.93,-141 803.93,-118 891.93,-118 891.93,-141"/>
<text text-anchor="middle" x="847.93" y="-125.8" font-family="Arial" font-size="14.00">BaseGpio.h</text>
</a>
</g>
</g>
<!-- Node24&#45;&gt;Node27 -->
<g id="edge34_Node000024_Node000027" class="edge">
<title>Node24&#45;&gt;Node27</title>
<g id="a_edge34_Node000024_Node000027"><a xlink:title=" ">
<path fill="none" stroke="#63b8ff" d="M1022.39,-235.94C1052.24,-223.29 1092.32,-200.8 1072.93,-177 1070.2,-173.65 967.86,-153.49 902.16,-140.84"/>
<polygon fill="#63b8ff" stroke="#63b8ff" points="902.43,-137.33 891.95,-138.87 901.11,-144.2 902.43,-137.33"/>
</a>
</g>
</g>
<!-- Node28 -->
<g id="Node000028" class="node">
<title>Node28</title>
<g id="a_Node000028"><a xlink:href="EspTypes__GPIO_8h.html" target="_top" xlink:title="ESP32 GPIO type definitions for hardware abstraction.">
<polygon fill="white" stroke="#666666" points="1249.93,-200 1119.93,-200 1119.93,-177 1249.93,-177 1249.93,-200"/>
<text text-anchor="middle" x="1184.93" y="-184.8" font-family="Arial" font-size="14.00">EspTypes_GPIO.h</text>
</a>
</g>
</g>
<!-- Node24&#45;&gt;Node28 -->
<g id="edge38_Node000024_Node000028" class="edge">
<title>Node24&#45;&gt;Node28</title>
<g id="a_edge38_Node000024_Node000028"><a xlink:title=" ">
<path fill="none" stroke="#63b8ff" d="M1029.41,-235.91C1060.64,-226.59 1106.26,-212.98 1140.02,-202.9"/>
<polygon fill="#63b8ff" stroke="#63b8ff" points="1141.07,-206.24 1149.65,-200.03 1139.06,-199.54 1141.07,-206.24"/>
</a>
</g>
</g>
<!-- Node30 -->
<g id="Node000030" class="node">
<title>Node30</title>
<g id="a_Node000030"><a xlink:title=" ">
<polygon fill="#e0e0e0" stroke="#999999" points="1063.93,-200 1007.93,-200 1007.93,-177 1063.93,-177 1063.93,-200"/>
<text text-anchor="middle" x="1035.93" y="-184.8" font-family="Arial" font-size="14.00">stdio.h</text>
</a>
</g>
</g>
<!-- Node24&#45;&gt;Node30 -->
<g id="edge47_Node000024_Node000030" class="edge">
<title>Node24&#45;&gt;Node30</title>
<g id="a_edge47_Node000024_Node000030"><a xlink:title=" ">
<path fill="none" stroke="#63b8ff" d="M1001.83,-235.78C1007.52,-228.06 1015.35,-217.43 1022.07,-208.31"/>
<polygon fill="#63b8ff" stroke="#63b8ff" points="1024.96,-210.3 1028.07,-200.17 1019.32,-206.15 1024.96,-210.3"/>
</a>
</g>
</g>
<!-- Node27&#45;&gt;Node3 -->
<g id="edge35_Node000027_Node000003" class="edge">
<title>Node27&#45;&gt;Node3</title>
<g id="a_edge35_Node000027_Node000003"><a xlink:title=" ">
<path fill="none" stroke="#63b8ff" d="M844.93,-117.78C842.89,-110.53 840.14,-100.74 837.7,-92.02"/>
<polygon fill="#63b8ff" stroke="#63b8ff" points="841,-90.86 834.93,-82.17 834.26,-92.75 841,-90.86"/>
</a>
</g>
</g>
<!-- Node27&#45;&gt;Node4 -->
<g id="edge36_Node000027_Node000004" class="edge">
<title>Node27&#45;&gt;Node4</title>
<g id="a_edge36_Node000027_Node000004"><a xlink:title=" ">
<path fill="none" stroke="#63b8ff" d="M864.94,-117.89C876.96,-109.54 892.55,-96.85 901.93,-82 911.3,-67.17 916.11,-47.73 918.54,-33.18"/>
<polygon fill="#63b8ff" stroke="#63b8ff" points="922.02,-33.56 919.97,-23.17 915.09,-32.57 922.02,-33.56"/>
</a>
</g>
</g>
<!-- Node27&#45;&gt;Node9 -->
<g id="edge37_Node000027_Node000009" class="edge">
<title>Node27&#45;&gt;Node9</title>
<g id="a_edge37_Node000027_Node000009"><a xlink:title=" ">
<path fill="none" stroke="#63b8ff" d="M822.49,-117.91C800.86,-108.91 769.6,-95.91 745.67,-85.95"/>
<polygon fill="#63b8ff" stroke="#63b8ff" points="746.82,-82.64 736.25,-82.03 744.13,-89.1 746.82,-82.64"/>
</a>
</g>
</g>
<!-- Node28&#45;&gt;Node3 -->
<g id="edge45_Node000028_Node000003" class="edge">
<title>Node28&#45;&gt;Node3</title>
<g id="a_edge45_Node000028_Node000003"><a xlink:title=" ">
<path fill="none" stroke="#63b8ff" d="M1119.85,-178.12C1058.41,-168.73 971.06,-153.88 938.93,-141 930.08,-137.45 884.73,-107.23 855.99,-87.83"/>
<polygon fill="#63b8ff" stroke="#63b8ff" points="857.9,-84.9 847.66,-82.2 853.98,-90.7 857.9,-84.9"/>
</a>
</g>
</g>
<!-- Node28&#45;&gt;Node15 -->
<g id="edge46_Node000028_Node000015" class="edge">
<title>Node28&#45;&gt;Node15</title>
<g id="a_edge46_Node000028_Node000015"><a xlink:title=" ">
<path fill="none" stroke="#63b8ff" d="M1195.76,-176.92C1208.53,-163.11 1226.73,-138.3 1215.93,-118 1208.84,-104.66 1196.02,-94.46 1183.34,-87.06"/>
<polygon fill="#63b8ff" stroke="#63b8ff" points="1184.68,-83.8 1174.22,-82.16 1181.37,-89.97 1184.68,-83.8"/>
</a>
</g>
</g>
<!-- Node28&#45;&gt;Node27 -->
<g id="edge39_Node000028_Node000027" class="edge">
<title>Node28&#45;&gt;Node27</title>
<g id="a_edge39_Node000028_Node000027"><a xlink:title=" ">
<path fill="none" stroke="#63b8ff" d="M1120.34,-177C1063.76,-167.73 979.35,-153.76 905.93,-141 904.66,-140.78 903.37,-140.55 902.06,-140.32"/>
<polygon fill="#63b8ff" stroke="#63b8ff" points="902.4,-136.83 891.94,-138.53 901.18,-143.72 902.4,-136.83"/>
</a>
</g>
</g>
<!-- Node29 -->
<g id="Node000029" class="node">
<title>Node29</title>
<g id="a_Node000029"><a xlink:href="EspTypes__Base_8h.html" target="_top" xlink:title="ESP32 base type definitions for hardware abstraction.">
<polygon fill="white" stroke="#666666" points="1207.43,-141 1082.43,-141 1082.43,-118 1207.43,-118 1207.43,-141"/>
<text text-anchor="middle" x="1144.93" y="-125.8" font-family="Arial" font-size="14.00">EspTypes_Base.h</text>
</a>
</g>
</g>
<!-- Node28&#45;&gt;Node29 -->
<g id="edge40_Node000028_Node000029" class="edge">
<title>Node28&#45;&gt;Node29</title>
<g id="a_edge40_Node000028_Node000029"><a xlink:title=" ">
<path fill="none" stroke="#63b8ff" d="M1177.41,-176.78C1172.05,-169.14 1164.69,-158.65 1158.34,-149.6"/>
<polygon fill="#63b8ff" stroke="#63b8ff" points="1161.03,-147.35 1152.42,-141.17 1155.3,-151.37 1161.03,-147.35"/>
</a>
</g>
</g>
<!-- Node29&#45;&gt;Node3 -->
<g id="edge42_Node000029_Node000003" class="edge">
<title>Node29&#45;&gt;Node3</title>
<g id="a_edge42_Node000029_Node000003"><a xlink:title=" ">
<path fill="none" stroke="#63b8ff" d="M1087.16,-117.98C1034.2,-108.33 955.74,-94.05 899.81,-83.86"/>
<polygon fill="#63b8ff" stroke="#63b8ff" points="900.1,-80.36 889.64,-82.01 898.85,-87.24 900.1,-80.36"/>
</a>
</g>
</g>
<!-- Node29&#45;&gt;Node4 -->
<g id="edge44_Node000029_Node000004" class="edge">
<title>Node29&#45;&gt;Node4</title>
<g id="a_edge44_Node000029_Node000004"><a xlink:title=" ">
<path fill="none" stroke="#63b8ff" d="M1133.26,-117.77C1116.54,-102.87 1084.33,-75.86 1052.93,-59 1022.85,-42.84 986.01,-30.41 958.91,-22.48"/>
<polygon fill="#63b8ff" stroke="#63b8ff" points="959.6,-19.04 949.03,-19.67 957.68,-25.78 959.6,-19.04"/>
</a>
</g>
</g>
<!-- Node29&#45;&gt;Node15 -->
<g id="edge41_Node000029_Node000015" class="edge">
<title>Node29&#45;&gt;Node15</title>
<g id="a_edge41_Node000029_Node000015"><a xlink:title=" ">
<path fill="none" stroke="#63b8ff" d="M1145.31,-117.78C1145.56,-110.61 1145.9,-100.95 1146.2,-92.31"/>
<polygon fill="#63b8ff" stroke="#63b8ff" points="1149.71,-92.29 1146.56,-82.17 1142.71,-92.04 1149.71,-92.29"/>
</a>
</g>
</g>
<!-- Node29&#45;&gt;Node16 -->
<g id="edge43_Node000029_Node000016" class="edge">
<title>Node29&#45;&gt;Node16</title>
<g id="a_edge43_Node000029_Node000016"><a xlink:title=" ">
<path fill="none" stroke="#63b8ff" d="M1120.97,-117.91C1100.7,-108.95 1071.44,-96.02 1048.95,-86.09"/>
<polygon fill="#63b8ff" stroke="#63b8ff" points="1050.33,-82.87 1039.77,-82.03 1047.5,-89.27 1050.33,-82.87"/>
</a>
</g>
</g>
</g>
</svg>
