<?xml version="1.0" encoding="UTF-8" standalone="no"?>
<!DOCTYPE svg PUBLIC "-//W3C//DTD SVG 1.1//EN"
 "http://www.w3.org/Graphics/SVG/1.1/DTD/svg11.dtd">
<!-- Generated by graphviz version 2.43.0 (0)
 -->
<!-- Title: StmPwm Pages: 1 -->
<svg width="312pt" height="165pt"
 viewBox="0.00 0.00 312.00 165.00" xmlns="http://www.w3.org/2000/svg" xmlns:xlink="http://www.w3.org/1999/xlink">

<svg id="main" version="1.1" xmlns="http://www.w3.org/2000/svg" xmlns:xlink="http://www.w3.org/1999/xlink" xml:space="preserve" onload="init(evt)">
<style type="text/css"><![CDATA[
.node, .edge {opacity: 0.7;}
.node.selected, .edge.selected {opacity: 1;}
.edge:hover path { stroke: red; }
.edge:hover polygon { stroke: red; fill: red; }
]]></style>
<script type="application/ecmascript" xlink:href="svg.min.js"/>
<svg id="graph" class="graph">
<g id="graph0" class="graph" transform="scale(1 1) rotate(0) translate(4 161)">
<title>StmPwm</title>
<!-- Node1 -->
<g id="Node000001" class="node">
<title>Node1</title>
<g id="a_Node000001"><a xlink:title="STM32 PWM implementation.">
<polygon fill="#999999" stroke="#666666" points="183.5,-23 111.5,-23 111.5,0 183.5,0 183.5,-23"/>
<text text-anchor="middle" x="147.5" y="-7.8" font-family="Arial" font-size="14.00">StmPwm</text>
</a>
</g>
</g>
<!-- Node2 -->
<g id="Node000002" class="node">
<title>Node2</title>
<g id="a_Node000002"><a xlink:href="classBasePwm.html" target="_top" xlink:title="Abstract base class for PWM implementations.">
<polygon fill="white" stroke="#666666" points="186.5,-83 108.5,-83 108.5,-60 186.5,-60 186.5,-83"/>
<text text-anchor="middle" x="147.5" y="-67.8" font-family="Arial" font-size="14.00">BasePwm</text>
</a>
</g>
</g>
<!-- Node2&#45;&gt;Node1 -->
<g id="edge1_Node000001_Node000002" class="edge">
<title>Node2&#45;&gt;Node1</title>
<g id="a_edge1_Node000001_Node000002"><a xlink:title=" ">
<path fill="none" stroke="#63b8ff" d="M147.5,-49.69C147.5,-40.67 147.5,-30.49 147.5,-23.07"/>
<polygon fill="#63b8ff" stroke="#63b8ff" points="144,-49.86 147.5,-59.86 151,-49.86 144,-49.86"/>
</a>
</g>
</g>
<!-- Node3 -->
<g id="Node000003" class="node">
<title>Node3</title>
<g id="a_Node000003"><a xlink:href="structhf__pwm__statistics__t.html" target="_top" xlink:title="PWM statistics information.">
<polygon fill="white" stroke="#666666" points="135,-157 0,-157 0,-134 135,-134 135,-157"/>
<text text-anchor="middle" x="67.5" y="-141.8" font-family="Arial" font-size="14.00">hf_pwm_statistics_t</text>
</a>
</g>
</g>
<!-- Node3&#45;&gt;Node2 -->
<g id="edge2_Node000002_Node000003" class="edge">
<title>Node3&#45;&gt;Node2</title>
<g id="a_edge2_Node000002_Node000003"><a xlink:title=" ">
<path fill="none" stroke="#9a32cd" stroke-dasharray="5,2" d="M87.11,-126.85C102.31,-113.17 122.87,-94.67 135.65,-83.17"/>
<polygon fill="#9a32cd" stroke="#9a32cd" points="84.4,-124.58 79.3,-133.88 89.08,-129.79 84.4,-124.58"/>
</a>
</g>
<text text-anchor="middle" x="147.5" y="-104.8" font-family="Arial" font-size="14.00" fill="grey"> statistics_</text>
</g>
<!-- Node4 -->
<g id="Node000004" class="node">
<title>Node4</title>
<g id="a_Node000004"><a xlink:href="structhf__pwm__diagnostics__t.html" target="_top" xlink:title="PWM diagnostics information.">
<polygon fill="white" stroke="#666666" points="304,-157 153,-157 153,-134 304,-134 304,-157"/>
<text text-anchor="middle" x="228.5" y="-141.8" font-family="Arial" font-size="14.00">hf_pwm_diagnostics_t</text>
</a>
</g>
</g>
<!-- Node4&#45;&gt;Node2 -->
<g id="edge3_Node000002_Node000004" class="edge">
<title>Node4&#45;&gt;Node2</title>
<g id="a_edge3_Node000002_Node000004"><a xlink:title=" ">
<path fill="none" stroke="#9a32cd" stroke-dasharray="5,2" d="M210.6,-126.41C202.5,-118.43 192.7,-109.05 183.5,-101 176.42,-94.8 168.22,-88.27 161.44,-83.02"/>
<polygon fill="#9a32cd" stroke="#9a32cd" points="208.5,-129.25 218.05,-133.82 213.43,-124.29 208.5,-129.25"/>
</a>
</g>
<text text-anchor="middle" x="238" y="-104.8" font-family="Arial" font-size="14.00" fill="grey"> diagnostics_</text>
</g>
</g>
</svg>
</svg>

<style type='text/css'>
<![CDATA[
[data-mouse-over-selected='false'] { opacity: 0.7; }
[data-mouse-over-selected='true']  { opacity: 1.0; }
]]>
</style>
<script type="application/ecmascript"><![CDATA[
document.addEventListener('DOMContentLoaded', (event) => {
  highlightEdges();
  highlightAdjacentNodes();
});
]]></script>
</svg>
