<?xml version="1.0" encoding="UTF-8" standalone="no"?>
<!DOCTYPE svg PUBLIC "-//W3C//DTD SVG 1.1//EN"
 "http://www.w3.org/Graphics/SVG/1.1/DTD/svg11.dtd">
<!-- Generated by graphviz version 2.43.0 (0)
 -->
<!-- Title: EspPeriodicTimer Pages: 1 -->
<svg width="354pt" height="179pt"
 viewBox="0.00 0.00 354.00 179.00" xmlns="http://www.w3.org/2000/svg" xmlns:xlink="http://www.w3.org/1999/xlink">

<svg id="main" version="1.1" xmlns="http://www.w3.org/2000/svg" xmlns:xlink="http://www.w3.org/1999/xlink" xml:space="preserve" onload="init(evt)">
<style type="text/css"><![CDATA[
.node, .edge {opacity: 0.7;}
.node.selected, .edge.selected {opacity: 1;}
.edge:hover path { stroke: red; }
.edge:hover polygon { stroke: red; fill: red; }
]]></style>
<script type="application/ecmascript" xlink:href="svg.min.js"/>
<svg id="graph" class="graph">
<g id="graph0" class="graph" transform="scale(1 1) rotate(0) translate(4 175)">
<title>EspPeriodicTimer</title>
<!-- Node1 -->
<g id="Node000001" class="node">
<title>Node1</title>
<g id="a_Node000001"><a xlink:title="MCU&#45;integrated periodic timer implementation.">
<polygon fill="#999999" stroke="#666666" points="281.5,-23 157.5,-23 157.5,0 281.5,0 281.5,-23"/>
<text text-anchor="middle" x="219.5" y="-7.8" font-family="Arial" font-size="14.00">EspPeriodicTimer</text>
</a>
</g>
</g>
<!-- Node2 -->
<g id="Node000002" class="node">
<title>Node2</title>
<g id="a_Node000002"><a xlink:href="classBasePeriodicTimer.html" target="_top" xlink:title="Abstract base class for periodic timer operations.">
<polygon fill="white" stroke="#666666" points="215,-97 84,-97 84,-74 215,-74 215,-97"/>
<text text-anchor="middle" x="149.5" y="-81.8" font-family="Arial" font-size="14.00">BasePeriodicTimer</text>
</a>
</g>
</g>
<!-- Node2&#45;&gt;Node1 -->
<g id="edge1_Node000001_Node000002" class="edge">
<title>Node2&#45;&gt;Node1</title>
<g id="a_edge1_Node000001_Node000002"><a xlink:title=" ">
<path fill="none" stroke="#63b8ff" d="M167.03,-66.47C180.29,-52.83 198.05,-34.56 209.13,-23.17"/>
<polygon fill="#63b8ff" stroke="#63b8ff" points="164.29,-64.27 159.83,-73.88 169.31,-69.15 164.29,-64.27"/>
</a>
</g>
</g>
<!-- Node3 -->
<g id="Node000003" class="node">
<title>Node3</title>
<g id="a_Node000003"><a xlink:href="structhf__timer__statistics__t.html" target="_top" xlink:title="Timer operation statistics.">
<polygon fill="white" stroke="#666666" points="137,-171 0,-171 0,-148 137,-148 137,-171"/>
<text text-anchor="middle" x="68.5" y="-155.8" font-family="Arial" font-size="14.00">hf_timer_statistics_t</text>
</a>
</g>
</g>
<!-- Node3&#45;&gt;Node2 -->
<g id="edge2_Node000002_Node000003" class="edge">
<title>Node3&#45;&gt;Node2</title>
<g id="a_edge2_Node000002_Node000003"><a xlink:title=" ">
<path fill="none" stroke="#9a32cd" stroke-dasharray="5,2" d="M87.93,-141.23C103.36,-127.51 124.44,-108.78 137.5,-97.17"/>
<polygon fill="#9a32cd" stroke="#9a32cd" points="85.6,-138.62 80.45,-147.88 90.25,-143.85 85.6,-138.62"/>
</a>
</g>
<text text-anchor="middle" x="148.5" y="-118.8" font-family="Arial" font-size="14.00" fill="grey"> statistics_</text>
</g>
<!-- Node4 -->
<g id="Node000004" class="node">
<title>Node4</title>
<g id="a_Node000004"><a xlink:href="structhf__timer__diagnostics__t.html" target="_top" xlink:title="Timer diagnostic information.">
<polygon fill="white" stroke="#666666" points="307.5,-171 155.5,-171 155.5,-148 307.5,-148 307.5,-171"/>
<text text-anchor="middle" x="231.5" y="-155.8" font-family="Arial" font-size="14.00">hf_timer_diagnostics_t</text>
</a>
</g>
</g>
<!-- Node4&#45;&gt;Node2 -->
<g id="edge3_Node000002_Node000004" class="edge">
<title>Node4&#45;&gt;Node2</title>
<g id="a_edge3_Node000002_Node000004"><a xlink:title=" ">
<path fill="none" stroke="#9a32cd" stroke-dasharray="5,2" d="M213.18,-141.04C204.59,-132.99 194.14,-123.37 184.5,-115 177.52,-108.94 169.54,-102.41 162.96,-97.13"/>
<polygon fill="#9a32cd" stroke="#9a32cd" points="210.8,-143.61 220.48,-147.93 215.6,-138.52 210.8,-143.61"/>
</a>
</g>
<text text-anchor="middle" x="240" y="-118.8" font-family="Arial" font-size="14.00" fill="grey"> diagnostics_</text>
</g>
<!-- Node5 -->
<g id="Node000005" class="node">
<title>Node5</title>
<g id="a_Node000005"><a xlink:href="structhf__timer__stats__t.html" target="_top" xlink:title="Timer statistics structure.">
<polygon fill="white" stroke="#666666" points="346,-97 233,-97 233,-74 346,-74 346,-97"/>
<text text-anchor="middle" x="289.5" y="-81.8" font-family="Arial" font-size="14.00">hf_timer_stats_t</text>
</a>
</g>
</g>
<!-- Node5&#45;&gt;Node1 -->
<g id="edge4_Node000001_Node000005" class="edge">
<title>Node5&#45;&gt;Node1</title>
<g id="a_edge4_Node000001_Node000005"><a xlink:title=" ">
<path fill="none" stroke="#9a32cd" stroke-dasharray="5,2" d="M271.97,-66.47C258.71,-52.83 240.95,-34.56 229.87,-23.17"/>
<polygon fill="#9a32cd" stroke="#9a32cd" points="269.69,-69.15 279.17,-73.88 274.71,-64.27 269.69,-69.15"/>
</a>
</g>
<text text-anchor="middle" x="280.5" y="-44.8" font-family="Arial" font-size="14.00" fill="grey"> stats_</text>
</g>
</g>
</svg>
</svg>

<style type='text/css'>
<![CDATA[
[data-mouse-over-selected='false'] { opacity: 0.7; }
[data-mouse-over-selected='true']  { opacity: 1.0; }
]]>
</style>
<script type="application/ecmascript"><![CDATA[
document.addEventListener('DOMContentLoaded', (event) => {
  highlightEdges();
  highlightAdjacentNodes();
});
]]></script>
</svg>
