<?xml version="1.0" encoding="UTF-8" standalone="no"?>
<!DOCTYPE svg PUBLIC "-//W3C//DTD SVG 1.1//EN"
 "http://www.w3.org/Graphics/SVG/1.1/DTD/svg11.dtd">
<!-- Generated by graphviz version 2.43.0 (0)
 -->
<!-- Title: EspPwm Pages: 1 -->
<svg width="677pt" height="254pt"
 viewBox="0.00 0.00 677.00 253.50" xmlns="http://www.w3.org/2000/svg" xmlns:xlink="http://www.w3.org/1999/xlink">
<g id="graph0" class="graph" transform="scale(1 1) rotate(0) translate(4 249.5)">
<title>EspPwm</title>
<!-- Node1 -->
<g id="Node000001" class="node">
<title>Node1</title>
<g id="a_Node000001"><a xlink:title="ESP32 PWM implementation using LEDC peripheral with comprehensive ESP32 variant support.">
<polygon fill="#999999" stroke="#666666" points="669,-129 598,-129 598,-106 669,-106 669,-129"/>
<text text-anchor="middle" x="633.5" y="-113.8" font-family="Arial" font-size="14.00">EspPwm</text>
</a>
</g>
</g>
<!-- Node2 -->
<g id="Node000002" class="node">
<title>Node2</title>
<g id="a_Node000002"><a xlink:href="classBasePwm.html" target="_top" xlink:title="Abstract base class for PWM implementations.">
<polygon fill="white" stroke="#666666" points="396,-198 318,-198 318,-175 396,-175 396,-198"/>
<text text-anchor="middle" x="357" y="-182.8" font-family="Arial" font-size="14.00">BasePwm</text>
</a>
</g>
</g>
<!-- Node2&#45;&gt;Node1 -->
<g id="edge1_Node000001_Node000002" class="edge">
<title>Node2&#45;&gt;Node1</title>
<g id="a_edge1_Node000001_Node000002"><a xlink:title=" ">
<path fill="none" stroke="#63b8ff" d="M406.39,-186.42C452.56,-184.81 523.28,-178.33 580,-155.5 595.24,-149.37 610.17,-137.87 620.19,-129.12"/>
<polygon fill="#63b8ff" stroke="#63b8ff" points="406.25,-182.92 396.35,-186.7 406.45,-189.92 406.25,-182.92"/>
</a>
</g>
</g>
<!-- Node3 -->
<g id="Node000003" class="node">
<title>Node3</title>
<g id="a_Node000003"><a xlink:href="structhf__pwm__statistics__t.html" target="_top" xlink:title="PWM statistics information.">
<polygon fill="white" stroke="#666666" points="143,-233 8,-233 8,-210 143,-210 143,-233"/>
<text text-anchor="middle" x="75.5" y="-217.8" font-family="Arial" font-size="14.00">hf_pwm_statistics_t</text>
</a>
</g>
</g>
<!-- Node3&#45;&gt;Node1 -->
<g id="edge6_Node000001_Node000003" class="edge">
<title>Node3&#45;&gt;Node1</title>
<g id="a_edge6_Node000001_Node000003"><a xlink:title=" ">
<path fill="none" stroke="#9a32cd" stroke-dasharray="5,2" d="M153.56,-226.98C183.1,-228.35 217.12,-229.04 248,-227.5 396.72,-220.08 452.23,-258.97 580,-182.5 601.66,-169.54 618.13,-144.17 626.46,-129.25"/>
<polygon fill="#9a32cd" stroke="#9a32cd" points="153.47,-223.47 143.3,-226.47 153.12,-230.46 153.47,-223.47"/>
</a>
</g>
<text text-anchor="middle" x="357" y="-234.3" font-family="Arial" font-size="14.00" fill="grey"> statistics_</text>
</g>
<!-- Node3&#45;&gt;Node2 -->
<g id="edge2_Node000002_Node000003" class="edge">
<title>Node3&#45;&gt;Node2</title>
<g id="a_edge2_Node000002_Node000003"><a xlink:title=" ">
<path fill="none" stroke="#9a32cd" stroke-dasharray="5,2" d="M153.22,-211.89C206.67,-205.2 275.69,-196.56 317.85,-191.28"/>
<polygon fill="#9a32cd" stroke="#9a32cd" points="152.58,-208.45 143.09,-213.16 153.45,-215.39 152.58,-208.45"/>
</a>
</g>
<text text-anchor="middle" x="208.5" y="-212.3" font-family="Arial" font-size="14.00" fill="grey"> statistics_</text>
</g>
<!-- Node4 -->
<g id="Node000004" class="node">
<title>Node4</title>
<g id="a_Node000004"><a xlink:href="structhf__pwm__diagnostics__t.html" target="_top" xlink:title="PWM diagnostics information.">
<polygon fill="white" stroke="#666666" points="151,-177 0,-177 0,-154 151,-154 151,-177"/>
<text text-anchor="middle" x="75.5" y="-161.8" font-family="Arial" font-size="14.00">hf_pwm_diagnostics_t</text>
</a>
</g>
</g>
<!-- Node4&#45;&gt;Node1 -->
<g id="edge7_Node000001_Node000004" class="edge">
<title>Node4&#45;&gt;Node1</title>
<g id="a_edge7_Node000001_Node000004"><a xlink:title=" ">
<path fill="none" stroke="#9a32cd" stroke-dasharray="5,2" d="M161.39,-159.22C302.22,-148.77 569.77,-128.86 580,-127.5 585.79,-126.73 591.92,-125.74 597.85,-124.67"/>
<polygon fill="#9a32cd" stroke="#9a32cd" points="160.78,-155.75 151.07,-159.98 161.3,-162.73 160.78,-155.75"/>
</a>
</g>
<text text-anchor="middle" x="357" y="-154.3" font-family="Arial" font-size="14.00" fill="grey"> diagnostics_</text>
</g>
<!-- Node4&#45;&gt;Node2 -->
<g id="edge3_Node000002_Node000004" class="edge">
<title>Node4&#45;&gt;Node2</title>
<g id="a_edge3_Node000002_Node000004"><a xlink:title=" ">
<path fill="none" stroke="#9a32cd" stroke-dasharray="5,2" d="M161.29,-169.72C188.95,-171.29 219.8,-173.24 248,-175.5 271.2,-177.36 297.15,-179.98 317.8,-182.2"/>
<polygon fill="#9a32cd" stroke="#9a32cd" points="161.44,-166.22 151.26,-169.16 161.05,-173.21 161.44,-166.22"/>
</a>
</g>
<text text-anchor="middle" x="208.5" y="-179.3" font-family="Arial" font-size="14.00" fill="grey"> diagnostics_</text>
</g>
<!-- Node5 -->
<g id="Node000005" class="node">
<title>Node5</title>
<g id="a_Node000005"><a xlink:href="classRtosMutex.html" target="_top" xlink:title=" ">
<polygon fill="white" stroke="#666666" points="398,-105 316,-105 316,-82 398,-82 398,-105"/>
<text text-anchor="middle" x="357" y="-89.8" font-family="Arial" font-size="14.00">RtosMutex</text>
</a>
</g>
</g>
<!-- Node5&#45;&gt;Node1 -->
<g id="edge4_Node000001_Node000005" class="edge">
<title>Node5&#45;&gt;Node1</title>
<g id="a_edge4_Node000001_Node000005"><a xlink:title=" ">
<path fill="none" stroke="#9a32cd" stroke-dasharray="5,2" d="M408.2,-97.66C453.2,-101.42 521.03,-107.17 580,-112.5 585.74,-113.02 591.84,-113.59 597.77,-114.15"/>
<polygon fill="#9a32cd" stroke="#9a32cd" points="408.37,-94.16 398.12,-96.82 407.79,-101.14 408.37,-94.16"/>
</a>
</g>
<text text-anchor="middle" x="523" y="-116.3" font-family="Arial" font-size="14.00" fill="grey"> mutex_</text>
</g>
<!-- Node6 -->
<g id="Node000006" class="node">
<title>Node6</title>
<g id="a_Node000006"><a xlink:href="structhf__pwm__unit__config__t.html" target="_top" xlink:title="ESP32 PWM unit configuration.">
<polygon fill="white" stroke="#666666" points="431.5,-64 282.5,-64 282.5,-41 431.5,-41 431.5,-64"/>
<text text-anchor="middle" x="357" y="-48.8" font-family="Arial" font-size="14.00">hf_pwm_unit_config_t</text>
</a>
</g>
</g>
<!-- Node6&#45;&gt;Node1 -->
<g id="edge5_Node000001_Node000006" class="edge">
<title>Node6&#45;&gt;Node1</title>
<g id="a_edge5_Node000001_Node000006"><a xlink:title=" ">
<path fill="none" stroke="#9a32cd" stroke-dasharray="5,2" d="M441.73,-55.59C484.23,-59.29 536.03,-67.11 580,-83.5 594.04,-88.73 608.2,-98.2 618.27,-105.82"/>
<polygon fill="#9a32cd" stroke="#9a32cd" points="441.94,-52.1 431.69,-54.78 441.38,-59.07 441.94,-52.1"/>
</a>
</g>
<text text-anchor="middle" x="523" y="-87.3" font-family="Arial" font-size="14.00" fill="grey"> unit_config_</text>
</g>
<!-- Node7 -->
<g id="Node000007" class="node">
<title>Node7</title>
<g id="a_Node000007"><a xlink:href="structhf__pwm__eviction__request__t.html" target="_top" xlink:title="Eviction request information passed to user callback.">
<polygon fill="white" stroke="#666666" points="448,-23 266,-23 266,0 448,0 448,-23"/>
<text text-anchor="middle" x="357" y="-7.8" font-family="Arial" font-size="14.00">hf_pwm_eviction_request_t</text>
</a>
</g>
</g>
<!-- Node7&#45;&gt;Node1 -->
<g id="edge8_Node000001_Node000007" class="edge">
<title>Node7&#45;&gt;Node1</title>
<g id="a_edge8_Node000001_Node000007"><a xlink:title=" ">
<path fill="none" stroke="#9a32cd" stroke-dasharray="5,2" d="M458.4,-6.03C498.76,-8.16 544.13,-16.38 580,-38.5 605.65,-54.32 621.46,-87.89 628.38,-105.75"/>
<polygon fill="#9a32cd" stroke="#9a32cd" points="458.39,-2.53 448.26,-5.62 458.11,-9.53 458.39,-2.53"/>
</a>
</g>
<text text-anchor="middle" x="523" y="-42.3" font-family="Arial" font-size="14.00" fill="grey"> eviction_callback_</text>
</g>
</g>
</svg>
