<?xml version="1.0" encoding="UTF-8" standalone="no"?>
<!DOCTYPE svg PUBLIC "-//W3C//DTD SVG 1.1//EN"
 "http://www.w3.org/Graphics/SVG/1.1/DTD/svg11.dtd">
<!-- Generated by graphviz version 2.43.0 (0)
 -->
<!-- Title: StmSpiDevice Pages: 1 -->
<svg width="350pt" height="179pt"
 viewBox="0.00 0.00 349.50 179.00" xmlns="http://www.w3.org/2000/svg" xmlns:xlink="http://www.w3.org/1999/xlink">
<g id="graph0" class="graph" transform="scale(1 1) rotate(0) translate(4 175)">
<title>StmSpiDevice</title>
<!-- Node1 -->
<g id="Node000001" class="node">
<title>Node1</title>
<g id="a_Node000001"><a xlink:title="STM32 SPI device — stub implementation.">
<polygon fill="#999999" stroke="#666666" points="250.5,-23 148.5,-23 148.5,0 250.5,0 250.5,-23"/>
<text text-anchor="middle" x="199.5" y="-7.8" font-family="Arial" font-size="14.00">StmSpiDevice</text>
</a>
</g>
</g>
<!-- Node2 -->
<g id="Node000002" class="node">
<title>Node2</title>
<g id="a_Node000002"><a xlink:href="classBaseSpi.html" target="_top" xlink:title="Abstract base class for SPI device implementations.">
<polygon fill="white" stroke="#666666" points="169,-97 102,-97 102,-74 169,-74 169,-97"/>
<text text-anchor="middle" x="135.5" y="-81.8" font-family="Arial" font-size="14.00">BaseSpi</text>
</a>
</g>
</g>
<!-- Node2&#45;&gt;Node1 -->
<g id="edge1_Node000001_Node000002" class="edge">
<title>Node2&#45;&gt;Node1</title>
<g id="a_edge1_Node000001_Node000002"><a xlink:title=" ">
<path fill="none" stroke="#63b8ff" d="M151.87,-66.08C163.95,-52.49 179.98,-34.46 190.02,-23.17"/>
<polygon fill="#63b8ff" stroke="#63b8ff" points="148.97,-64.08 144.94,-73.88 154.2,-68.73 148.97,-64.08"/>
</a>
</g>
</g>
<!-- Node3 -->
<g id="Node000003" class="node">
<title>Node3</title>
<g id="a_Node000003"><a xlink:href="structhf__spi__statistics__t.html" target="_top" xlink:title="SPI operation statistics.">
<polygon fill="white" stroke="#666666" points="123,-171 0,-171 0,-148 123,-148 123,-171"/>
<text text-anchor="middle" x="61.5" y="-155.8" font-family="Arial" font-size="14.00">hf_spi_statistics_t</text>
</a>
</g>
</g>
<!-- Node3&#45;&gt;Node2 -->
<g id="edge2_Node000002_Node000003" class="edge">
<title>Node3&#45;&gt;Node2</title>
<g id="a_edge2_Node000002_Node000003"><a xlink:title=" ">
<path fill="none" stroke="#9a32cd" stroke-dasharray="5,2" d="M79.64,-140.85C93.7,-127.17 112.71,-108.67 124.54,-97.17"/>
<polygon fill="#9a32cd" stroke="#9a32cd" points="77.15,-138.39 72.42,-147.88 82.03,-143.41 77.15,-138.39"/>
</a>
</g>
<text text-anchor="middle" x="137.5" y="-118.8" font-family="Arial" font-size="14.00" fill="grey"> statistics_</text>
</g>
<!-- Node4 -->
<g id="Node000004" class="node">
<title>Node4</title>
<g id="a_Node000004"><a xlink:href="structhf__spi__diagnostics__t.html" target="_top" xlink:title="SPI diagnostic information.">
<polygon fill="white" stroke="#666666" points="280,-171 141,-171 141,-148 280,-148 280,-171"/>
<text text-anchor="middle" x="210.5" y="-155.8" font-family="Arial" font-size="14.00">hf_spi_diagnostics_t</text>
</a>
</g>
</g>
<!-- Node4&#45;&gt;Node2 -->
<g id="edge3_Node000002_Node000004" class="edge">
<title>Node4&#45;&gt;Node2</title>
<g id="a_edge3_Node000002_Node000004"><a xlink:title=" ">
<path fill="none" stroke="#9a32cd" stroke-dasharray="5,2" d="M196.16,-139.83C189.63,-131.82 181.56,-122.58 173.5,-115 166.65,-108.56 158.37,-102.2 151.28,-97.13"/>
<polygon fill="#9a32cd" stroke="#9a32cd" points="193.62,-142.26 202.58,-147.91 199.1,-137.9 193.62,-142.26"/>
</a>
</g>
<text text-anchor="middle" x="228" y="-118.8" font-family="Arial" font-size="14.00" fill="grey"> diagnostics_</text>
</g>
<!-- Node5 -->
<g id="Node000005" class="node">
<title>Node5</title>
<g id="a_Node000005"><a xlink:href="structhf__spi__device__config__t.html" target="_top" xlink:title="Platform&#45;agnostic SPI device configuration structure for ESP32.">
<polygon fill="white" stroke="#666666" points="341.5,-97 187.5,-97 187.5,-74 341.5,-74 341.5,-97"/>
<text text-anchor="middle" x="264.5" y="-81.8" font-family="Arial" font-size="14.00">hf_spi_device_config_t</text>
</a>
</g>
</g>
<!-- Node5&#45;&gt;Node1 -->
<g id="edge4_Node000001_Node000005" class="edge">
<title>Node5&#45;&gt;Node1</title>
<g id="a_edge4_Node000001_Node000005"><a xlink:title=" ">
<path fill="none" stroke="#9a32cd" stroke-dasharray="5,2" d="M247.87,-66.08C235.6,-52.49 219.32,-34.46 209.13,-23.17"/>
<polygon fill="#9a32cd" stroke="#9a32cd" points="245.61,-68.8 254.91,-73.88 250.81,-64.11 245.61,-68.8"/>
</a>
</g>
<text text-anchor="middle" x="261.5" y="-44.8" font-family="Arial" font-size="14.00" fill="grey"> config_</text>
</g>
</g>
</svg>
