<?xml version="1.0" encoding="UTF-8" standalone="no"?>
<!DOCTYPE svg PUBLIC "-//W3C//DTD SVG 1.1//EN"
 "http://www.w3.org/Graphics/SVG/1.1/DTD/svg11.dtd">
<!-- Generated by graphviz version 2.43.0 (0)
 -->
<!-- Title: BaseNvs Pages: 1 -->
<svg width="154pt" height="90pt"
 viewBox="0.00 0.00 154.00 90.00" xmlns="http://www.w3.org/2000/svg" xmlns:xlink="http://www.w3.org/1999/xlink">
<g id="graph0" class="graph" transform="scale(1 1) rotate(0) translate(4 86)">
<title>BaseNvs</title>
<!-- Node1 -->
<g id="Node000001" class="node">
<title>Node1</title>
<g id="a_Node000001"><a xlink:title="Abstract base class for non&#45;volatile storage operations.">
<polygon fill="#999999" stroke="#666666" points="108,-82 37,-82 37,-59 108,-59 108,-82"/>
<text text-anchor="middle" x="72.5" y="-66.8" font-family="Arial" font-size="14.00">BaseNvs</text>
</a>
</g>
</g>
<!-- Node2 -->
<g id="Node000002" class="node">
<title>Node2</title>
<g id="a_Node000002"><a xlink:href="classEspNvs.html" target="_top" xlink:title="Production&#45;ready MCU&#45;integrated non&#45;volatile storage implementation.">
<polygon fill="white" stroke="#666666" points="63,-23 0,-23 0,0 63,0 63,-23"/>
<text text-anchor="middle" x="31.5" y="-7.8" font-family="Arial" font-size="14.00">EspNvs</text>
</a>
</g>
</g>
<!-- Node1&#45;&gt;Node2 -->
<g id="edge1_Node000001_Node000002" class="edge">
<title>Node1&#45;&gt;Node2</title>
<g id="a_edge1_Node000001_Node000002"><a xlink:title=" ">
<path fill="none" stroke="#63b8ff" d="M58.93,-50.63C52.36,-41.5 44.72,-30.88 39.18,-23.17"/>
<polygon fill="#63b8ff" stroke="#63b8ff" points="56.11,-52.7 64.79,-58.78 61.79,-48.62 56.11,-52.7"/>
</a>
</g>
</g>
<!-- Node3 -->
<g id="Node000003" class="node">
<title>Node3</title>
<g id="a_Node000003"><a xlink:href="classStmNvs.html" target="_top" xlink:title="STM32 NVS — flash&#45;backed key&#45;value store with wear leveling.">
<polygon fill="white" stroke="#666666" points="146,-23 81,-23 81,0 146,0 146,-23"/>
<text text-anchor="middle" x="113.5" y="-7.8" font-family="Arial" font-size="14.00">StmNvs</text>
</a>
</g>
</g>
<!-- Node1&#45;&gt;Node3 -->
<g id="edge2_Node000001_Node000003" class="edge">
<title>Node1&#45;&gt;Node3</title>
<g id="a_edge2_Node000001_Node000003"><a xlink:title=" ">
<path fill="none" stroke="#63b8ff" d="M86.07,-50.63C92.64,-41.5 100.28,-30.88 105.82,-23.17"/>
<polygon fill="#63b8ff" stroke="#63b8ff" points="83.21,-48.62 80.21,-58.78 88.89,-52.7 83.21,-48.62"/>
</a>
</g>
</g>
</g>
</svg>
