<?xml version="1.0" encoding="UTF-8" standalone="no"?>
<!DOCTYPE svg PUBLIC "-//W3C//DTD SVG 1.1//EN"
 "http://www.w3.org/Graphics/SVG/1.1/DTD/svg11.dtd">
<!-- Generated by graphviz version 2.43.0 (0)
 -->
<!-- Title: DigitalOutputGuard Pages: 1 -->
<svg width="304pt" height="179pt"
 viewBox="0.00 0.00 304.00 179.00" xmlns="http://www.w3.org/2000/svg" xmlns:xlink="http://www.w3.org/1999/xlink">
<g id="graph0" class="graph" transform="scale(1 1) rotate(0) translate(4 175)">
<title>DigitalOutputGuard</title>
<!-- Node1 -->
<g id="Node000001" class="node">
<title>Node1</title>
<g id="a_Node000001"><a xlink:title="DigitalOutputGuard class.">
<polygon fill="#999999" stroke="#666666" points="210.5,-23 76.5,-23 76.5,0 210.5,0 210.5,-23"/>
<text text-anchor="middle" x="143.5" y="-7.8" font-family="Arial" font-size="14.00">DigitalOutputGuard</text>
</a>
</g>
</g>
<!-- Node2 -->
<g id="Node000002" class="node">
<title>Node2</title>
<g id="a_Node000002"><a xlink:href="classBaseGpio.html" target="_top" xlink:title="Unified GPIO base class for all digital GPIO implementations.">
<polygon fill="white" stroke="#666666" points="182,-97 105,-97 105,-74 182,-74 182,-97"/>
<text text-anchor="middle" x="143.5" y="-81.8" font-family="Arial" font-size="14.00">BaseGpio</text>
</a>
</g>
</g>
<!-- Node2&#45;&gt;Node1 -->
<g id="edge1_Node000001_Node000002" class="edge">
<title>Node2&#45;&gt;Node1</title>
<g id="a_edge1_Node000001_Node000002"><a xlink:title=" ">
<path fill="none" stroke="#9a32cd" stroke-dasharray="5,2" d="M143.5,-63.73C143.5,-50.47 143.5,-33.82 143.5,-23.17"/>
<polygon fill="#9a32cd" stroke="#9a32cd" points="140,-63.88 143.5,-73.88 147,-63.88 140,-63.88"/>
</a>
</g>
<text text-anchor="middle" x="162" y="-44.8" font-family="Arial" font-size="14.00" fill="grey"> gpio_</text>
</g>
<!-- Node3 -->
<g id="Node000003" class="node">
<title>Node3</title>
<g id="a_Node000003"><a xlink:href="structhf__gpio__statistics__t.html" target="_top" xlink:title="GPIO operation statistics.">
<polygon fill="white" stroke="#666666" points="131,-171 0,-171 0,-148 131,-148 131,-171"/>
<text text-anchor="middle" x="65.5" y="-155.8" font-family="Arial" font-size="14.00">hf_gpio_statistics_t</text>
</a>
</g>
</g>
<!-- Node3&#45;&gt;Node2 -->
<g id="edge2_Node000002_Node000003" class="edge">
<title>Node3&#45;&gt;Node2</title>
<g id="a_edge2_Node000002_Node000003"><a xlink:title=" ">
<path fill="none" stroke="#9a32cd" stroke-dasharray="5,2" d="M84.62,-140.85C99.44,-127.17 119.48,-108.67 131.94,-97.17"/>
<polygon fill="#9a32cd" stroke="#9a32cd" points="81.98,-138.52 77.01,-147.88 86.73,-143.67 81.98,-138.52"/>
</a>
</g>
<text text-anchor="middle" x="143.5" y="-118.8" font-family="Arial" font-size="14.00" fill="grey"> statistics_</text>
</g>
<!-- Node4 -->
<g id="Node000004" class="node">
<title>Node4</title>
<g id="a_Node000004"><a xlink:href="structhf__gpio__diagnostics__t.html" target="_top" xlink:title="GPIO diagnostic information.">
<polygon fill="white" stroke="#666666" points="296,-171 149,-171 149,-148 296,-148 296,-171"/>
<text text-anchor="middle" x="222.5" y="-155.8" font-family="Arial" font-size="14.00">hf_gpio_diagnostics_t</text>
</a>
</g>
</g>
<!-- Node4&#45;&gt;Node2 -->
<g id="edge3_Node000002_Node000004" class="edge">
<title>Node4&#45;&gt;Node2</title>
<g id="a_edge3_Node000002_Node000004"><a xlink:title=" ">
<path fill="none" stroke="#9a32cd" stroke-dasharray="5,2" d="M205.5,-140.33C197.78,-132.34 188.4,-122.97 179.5,-115 172.61,-108.83 164.57,-102.4 157.84,-97.21"/>
<polygon fill="#9a32cd" stroke="#9a32cd" points="203.16,-142.94 212.59,-147.77 208.22,-138.12 203.16,-142.94"/>
</a>
</g>
<text text-anchor="middle" x="233" y="-118.8" font-family="Arial" font-size="14.00" fill="grey"> diagnostics_</text>
</g>
</g>
</svg>
