<?xml version="1.0" encoding="UTF-8" standalone="no"?>
<!DOCTYPE svg PUBLIC "-//W3C//DTD SVG 1.1//EN"
 "http://www.w3.org/Graphics/SVG/1.1/DTD/svg11.dtd">
<!-- Generated by graphviz version 2.43.0 (0)
 -->
<!-- Title: BaseNvs Pages: 1 -->
<svg width="296pt" height="105pt"
 viewBox="0.00 0.00 296.00 105.00" xmlns="http://www.w3.org/2000/svg" xmlns:xlink="http://www.w3.org/1999/xlink">
<g id="graph0" class="graph" transform="scale(1 1) rotate(0) translate(4 101)">
<title>BaseNvs</title>
<!-- Node1 -->
<g id="Node000001" class="node">
<title>Node1</title>
<g id="a_Node000001"><a xlink:title="Abstract base class for non&#45;volatile storage operations.">
<polygon fill="#999999" stroke="#666666" points="175,-23 104,-23 104,0 175,0 175,-23"/>
<text text-anchor="middle" x="139.5" y="-7.8" font-family="Arial" font-size="14.00">BaseNvs</text>
</a>
</g>
</g>
<!-- Node2 -->
<g id="Node000002" class="node">
<title>Node2</title>
<g id="a_Node000002"><a xlink:href="structhf__nvs__statistics__t.html" target="_top" xlink:title="NVS operation statistics.">
<polygon fill="white" stroke="#666666" points="127,-97 0,-97 0,-74 127,-74 127,-97"/>
<text text-anchor="middle" x="63.5" y="-81.8" font-family="Arial" font-size="14.00">hf_nvs_statistics_t</text>
</a>
</g>
</g>
<!-- Node2&#45;&gt;Node1 -->
<g id="edge1_Node000001_Node000002" class="edge">
<title>Node2&#45;&gt;Node1</title>
<g id="a_edge1_Node000001_Node000002"><a xlink:title=" ">
<path fill="none" stroke="#9a32cd" stroke-dasharray="5,2" d="M82.13,-66.85C96.57,-53.17 116.1,-34.67 128.24,-23.17"/>
<polygon fill="#9a32cd" stroke="#9a32cd" points="79.57,-64.46 74.71,-73.88 84.38,-69.54 79.57,-64.46"/>
</a>
</g>
<text text-anchor="middle" x="140.5" y="-44.8" font-family="Arial" font-size="14.00" fill="grey"> statistics_</text>
</g>
<!-- Node3 -->
<g id="Node000003" class="node">
<title>Node3</title>
<g id="a_Node000003"><a xlink:href="structhf__nvs__diagnostics__t.html" target="_top" xlink:title="NVS diagnostic information.">
<polygon fill="white" stroke="#666666" points="288,-97 145,-97 145,-74 288,-74 288,-97"/>
<text text-anchor="middle" x="216.5" y="-81.8" font-family="Arial" font-size="14.00">hf_nvs_diagnostics_t</text>
</a>
</g>
</g>
<!-- Node3&#45;&gt;Node1 -->
<g id="edge2_Node000001_Node000003" class="edge">
<title>Node3&#45;&gt;Node1</title>
<g id="a_edge2_Node000001_Node000003"><a xlink:title=" ">
<path fill="none" stroke="#9a32cd" stroke-dasharray="5,2" d="M200.68,-65.92C193.58,-57.95 184.92,-48.72 176.5,-41 169.57,-34.65 161.32,-28.2 154.37,-23.05"/>
<polygon fill="#9a32cd" stroke="#9a32cd" points="198.22,-68.42 207.44,-73.65 203.49,-63.82 198.22,-68.42"/>
</a>
</g>
<text text-anchor="middle" x="230" y="-44.8" font-family="Arial" font-size="14.00" fill="grey"> diagnostics_</text>
</g>
</g>
</svg>
