<?xml version="1.0" encoding="UTF-8" standalone="no"?>
<!DOCTYPE svg PUBLIC "-//W3C//DTD SVG 1.1//EN"
 "http://www.w3.org/Graphics/SVG/1.1/DTD/svg11.dtd">
<!-- Generated by graphviz version 2.43.0 (0)
 -->
<!-- Title: EspUart Pages: 1 -->
<svg width="658pt" height="233pt"
 viewBox="0.00 0.00 658.00 232.69" xmlns="http://www.w3.org/2000/svg" xmlns:xlink="http://www.w3.org/1999/xlink">
<g id="graph0" class="graph" transform="scale(1 1) rotate(0) translate(4 228.69)">
<title>EspUart</title>
<!-- Node1 -->
<g id="Node000001" class="node">
<title>Node1</title>
<g id="a_Node000001"><a xlink:title="ESP32 UART implementation class.">
<polygon fill="#999999" stroke="#666666" points="650,-132.19 585,-132.19 585,-109.19 650,-109.19 650,-132.19"/>
<text text-anchor="middle" x="617.5" y="-116.99" font-family="Arial" font-size="14.00">EspUart</text>
</a>
</g>
</g>
<!-- Node2 -->
<g id="Node000002" class="node">
<title>Node2</title>
<g id="a_Node000002"><a xlink:href="classBaseUart.html" target="_top" xlink:title="Abstract base class for UART driver implementations.">
<polygon fill="white" stroke="#666666" points="401.5,-177.19 328.5,-177.19 328.5,-154.19 401.5,-154.19 401.5,-177.19"/>
<text text-anchor="middle" x="365" y="-161.99" font-family="Arial" font-size="14.00">BaseUart</text>
</a>
</g>
</g>
<!-- Node2&#45;&gt;Node1 -->
<g id="edge1_Node000001_Node000002" class="edge">
<title>Node2&#45;&gt;Node1</title>
<g id="a_edge1_Node000001_Node000002"><a xlink:title=" ">
<path fill="none" stroke="#63b8ff" d="M411.77,-160.26C452.7,-155.02 514.2,-146.19 567,-134.69 572.85,-133.42 579.02,-131.86 584.96,-130.24"/>
<polygon fill="#63b8ff" stroke="#63b8ff" points="411.31,-156.79 401.83,-161.52 412.19,-163.74 411.31,-156.79"/>
</a>
</g>
</g>
<!-- Node3 -->
<g id="Node000003" class="node">
<title>Node3</title>
<g id="a_Node000003"><a xlink:href="structhf__uart__statistics__t.html" target="_top" xlink:title="UART operation statistics.">
<polygon fill="white" stroke="#666666" points="137,-212.19 8,-212.19 8,-189.19 137,-189.19 137,-212.19"/>
<text text-anchor="middle" x="72.5" y="-196.99" font-family="Arial" font-size="14.00">hf_uart_statistics_t</text>
</a>
</g>
</g>
<!-- Node3&#45;&gt;Node1 -->
<g id="edge6_Node000001_Node000003" class="edge">
<title>Node3&#45;&gt;Node1</title>
<g id="a_edge6_Node000001_Node000003"><a xlink:title=" ">
<path fill="none" stroke="#9a32cd" stroke-dasharray="5,2" d="M147.27,-206.92C152.59,-207.23 157.88,-207.49 163,-207.69 299.66,-213.03 335.98,-213.94 470,-186.69 514.35,-177.68 526.49,-175.88 567,-155.69 579.81,-149.31 592.98,-139.83 602.51,-132.35"/>
<polygon fill="#9a32cd" stroke="#9a32cd" points="147.22,-203.41 137.02,-206.28 146.79,-210.4 147.22,-203.41"/>
</a>
</g>
<text text-anchor="middle" x="365" y="-213.49" font-family="Arial" font-size="14.00" fill="grey"> statistics_</text>
</g>
<!-- Node3&#45;&gt;Node2 -->
<g id="edge2_Node000002_Node000003" class="edge">
<title>Node3&#45;&gt;Node2</title>
<g id="a_edge2_Node000002_Node000003"><a xlink:title=" ">
<path fill="none" stroke="#9a32cd" stroke-dasharray="5,2" d="M147.45,-191.78C205.36,-184.81 283.38,-175.41 328.23,-170"/>
<polygon fill="#9a32cd" stroke="#9a32cd" points="146.76,-188.34 137.25,-193.01 147.6,-195.29 146.76,-188.34"/>
</a>
</g>
<text text-anchor="middle" x="202.5" y="-192.49" font-family="Arial" font-size="14.00" fill="grey"> statistics_</text>
</g>
<!-- Node4 -->
<g id="Node000004" class="node">
<title>Node4</title>
<g id="a_Node000004"><a xlink:href="structhf__uart__diagnostics__t.html" target="_top" xlink:title="UART diagnostic information.">
<polygon fill="white" stroke="#666666" points="145,-156.19 0,-156.19 0,-133.19 145,-133.19 145,-156.19"/>
<text text-anchor="middle" x="72.5" y="-140.99" font-family="Arial" font-size="14.00">hf_uart_diagnostics_t</text>
</a>
</g>
</g>
<!-- Node4&#45;&gt;Node1 -->
<g id="edge7_Node000001_Node000004" class="edge">
<title>Node4&#45;&gt;Node1</title>
<g id="a_edge7_Node000001_Node000004"><a xlink:title=" ">
<path fill="none" stroke="#9a32cd" stroke-dasharray="5,2" d="M155.55,-137.7C188.05,-135.15 225.77,-132.46 260,-130.69 379.65,-124.53 522.1,-121.97 584.52,-121.09"/>
<polygon fill="#9a32cd" stroke="#9a32cd" points="154.88,-134.24 145.19,-138.52 155.43,-141.22 154.88,-134.24"/>
</a>
</g>
<text text-anchor="middle" x="365" y="-134.49" font-family="Arial" font-size="14.00" fill="grey"> diagnostics_</text>
</g>
<!-- Node4&#45;&gt;Node2 -->
<g id="edge3_Node000002_Node000004" class="edge">
<title>Node4&#45;&gt;Node2</title>
<g id="a_edge3_Node000002_Node000004"><a xlink:title=" ">
<path fill="none" stroke="#9a32cd" stroke-dasharray="5,2" d="M155.27,-149.04C182.83,-150.64 213.76,-152.58 242,-154.69 271.05,-156.87 303.95,-159.86 328.26,-162.18"/>
<polygon fill="#9a32cd" stroke="#9a32cd" points="155.46,-145.55 145.28,-148.47 155.06,-152.54 155.46,-145.55"/>
</a>
</g>
<text text-anchor="middle" x="202.5" y="-158.49" font-family="Arial" font-size="14.00" fill="grey"> diagnostics_</text>
</g>
<!-- Node5 -->
<g id="Node000005" class="node">
<title>Node5</title>
<g id="a_Node000005"><a xlink:href="classPlatformMutexImpl.html" target="_top" xlink:title=" ">
<polygon fill="white" stroke="#666666" points="470,-79.69 260,-79.69 260,-41.69 470,-41.69 470,-79.69"/>
<text text-anchor="start" x="268" y="-64.49" font-family="Arial" font-size="14.00">PlatformMutexImpl&lt;</text>
<text text-anchor="middle" x="365" y="-49.49" font-family="Arial" font-size="14.00"> PlatformMutexActiveBackend &gt;</text>
</a>
</g>
</g>
<!-- Node5&#45;&gt;Node1 -->
<g id="edge4_Node000001_Node000005" class="edge">
<title>Node5&#45;&gt;Node1</title>
<g id="a_edge4_Node000001_Node000005"><a xlink:title=" ">
<path fill="none" stroke="#9a32cd" stroke-dasharray="5,2" d="M480.49,-44.58C509.8,-44.87 540.51,-49.26 567,-61.69 587.82,-71.47 603.01,-94.74 610.73,-108.96"/>
<polygon fill="#9a32cd" stroke="#9a32cd" points="480.16,-41.08 470.19,-44.64 480.21,-48.08 480.16,-41.08"/>
</a>
</g>
<text text-anchor="middle" x="527.5" y="-95.49" font-family="Arial" font-size="14.00" fill="grey"> mutex_</text>
<text text-anchor="middle" x="527.5" y="-80.49" font-family="Arial" font-size="14.00" fill="grey">rx_mutex_</text>
<text text-anchor="middle" x="527.5" y="-65.49" font-family="Arial" font-size="14.00" fill="grey">tx_mutex_</text>
</g>
<!-- Node6 -->
<g id="Node000006" class="node">
<title>Node6</title>
<g id="a_Node000006"><a xlink:href="structhf__uart__config__t.html" target="_top" xlink:title="ESP32 UART port configuration.">
<polygon fill="white" stroke="#666666" points="421.5,-23.19 308.5,-23.19 308.5,-0.19 421.5,-0.19 421.5,-23.19"/>
<text text-anchor="middle" x="365" y="-7.99" font-family="Arial" font-size="14.00">hf_uart_config_t</text>
</a>
</g>
</g>
<!-- Node6&#45;&gt;Node1 -->
<g id="edge5_Node000001_Node000006" class="edge">
<title>Node6&#45;&gt;Node1</title>
<g id="a_edge5_Node000001_Node000006"><a xlink:title=" ">
<path fill="none" stroke="#9a32cd" stroke-dasharray="5,2" d="M431.9,-1.21C473.85,1.96 527.53,-0.82 567,-26.69 596.31,-45.91 609.38,-88.38 614.17,-109"/>
<polygon fill="#9a32cd" stroke="#9a32cd" points="431.43,2.26 421.77,-2.11 432.04,-4.71 431.43,2.26"/>
</a>
</g>
<text text-anchor="middle" x="527.5" y="-30.49" font-family="Arial" font-size="14.00" fill="grey"> port_config_</text>
</g>
</g>
</svg>
