<?xml version="1.0" encoding="UTF-8" standalone="no"?>
<!DOCTYPE svg PUBLIC "-//W3C//DTD SVG 1.1//EN"
 "http://www.w3.org/Graphics/SVG/1.1/DTD/svg11.dtd">
<!-- Generated by graphviz version 2.43.0 (0)
 -->
<!-- Title: src/mcu/esp32/EspAdc.cpp Pages: 1 -->
<svg width="189pt" height="149pt"
 viewBox="0.00 0.00 189.00 149.00" xmlns="http://www.w3.org/2000/svg" xmlns:xlink="http://www.w3.org/1999/xlink">
<g id="graph0" class="graph" transform="scale(1 1) rotate(0) translate(4 145)">
<title>src/mcu/esp32/EspAdc.cpp</title>
<!-- Node1 -->
<g id="Node000001" class="node">
<title>Node1</title>
<g id="a_Node000001"><a xlink:title="ESP32 ADC implementation for the HardFOC system.">
<polygon fill="#999999" stroke="#666666" points="181,-141 0,-141 0,-118 181,-118 181,-141"/>
<text text-anchor="middle" x="90.5" y="-125.8" font-family="Arial" font-size="14.00">src/mcu/esp32/EspAdc.cpp</text>
</a>
</g>
</g>
<!-- Node2 -->
<g id="Node000002" class="node">
<title>Node2</title>
<g id="a_Node000002"><a xlink:href="EspAdc_8h.html" target="_top" xlink:title="ESP32 ADC implementation for the HardFOC system.">
<polygon fill="white" stroke="#666666" points="127.5,-82 53.5,-82 53.5,-59 127.5,-59 127.5,-82"/>
<text text-anchor="middle" x="90.5" y="-66.8" font-family="Arial" font-size="14.00">EspAdc.h</text>
</a>
</g>
</g>
<!-- Node1&#45;&gt;Node2 -->
<g id="edge1_Node000001_Node000002" class="edge">
<title>Node1&#45;&gt;Node2</title>
<g id="a_edge1_Node000001_Node000002"><a xlink:title=" ">
<path fill="none" stroke="#63b8ff" d="M90.5,-117.78C90.5,-110.61 90.5,-100.95 90.5,-92.31"/>
<polygon fill="#63b8ff" stroke="#63b8ff" points="94,-92.17 90.5,-82.17 87,-92.17 94,-92.17"/>
</a>
</g>
</g>
<!-- Node3 -->
<g id="Node000003" class="node">
<title>Node3</title>
<g id="a_Node000003"><a xlink:href="McuSelect_8h.html" target="_top" xlink:title="Centralized MCU platform selection and configuration header.">
<polygon fill="white" stroke="#666666" points="136.5,-23 44.5,-23 44.5,0 136.5,0 136.5,-23"/>
<text text-anchor="middle" x="90.5" y="-7.8" font-family="Arial" font-size="14.00">McuSelect.h</text>
</a>
</g>
</g>
<!-- Node2&#45;&gt;Node3 -->
<g id="edge2_Node000002_Node000003" class="edge">
<title>Node2&#45;&gt;Node3</title>
<g id="a_edge2_Node000002_Node000003"><a xlink:title=" ">
<path fill="none" stroke="#63b8ff" d="M90.5,-58.78C90.5,-51.61 90.5,-41.95 90.5,-33.31"/>
<polygon fill="#63b8ff" stroke="#63b8ff" points="94,-33.17 90.5,-23.17 87,-33.17 94,-33.17"/>
</a>
</g>
</g>
</g>
</svg>
