<?xml version="1.0" encoding="UTF-8" standalone="no"?>
<!DOCTYPE svg PUBLIC "-//W3C//DTD SVG 1.1//EN"
 "http://www.w3.org/Graphics/SVG/1.1/DTD/svg11.dtd">
<!-- Generated by graphviz version 2.43.0 (0)
 -->
<!-- Title: src/mcu/esp32/EspBluetooth.cpp Pages: 1 -->
<svg width="872pt" height="267pt"
 viewBox="0.00 0.00 871.50 267.00" xmlns="http://www.w3.org/2000/svg" xmlns:xlink="http://www.w3.org/1999/xlink">
<g id="graph0" class="graph" transform="scale(1 1) rotate(0) translate(4 263)">
<title>src/mcu/esp32/EspBluetooth.cpp</title>
<!-- Node1 -->
<g id="Node000001" class="node">
<title>Node1</title>
<g id="a_Node000001"><a xlink:title="ESP32 Bluetooth implementation using NimBLE for BLE&#45;only support (ESP32C6)">
<polygon fill="#999999" stroke="#666666" points="776.5,-259 561.5,-259 561.5,-236 776.5,-236 776.5,-259"/>
<text text-anchor="middle" x="669" y="-243.8" font-family="Arial" font-size="14.00">src/mcu/esp32/EspBluetooth.cpp</text>
</a>
</g>
</g>
<!-- Node2 -->
<g id="Node000002" class="node">
<title>Node2</title>
<g id="a_Node000002"><a xlink:href="EspBluetooth_8h.html" target="_top" xlink:title="ESP32 Bluetooth implementation using NimBLE for BLE&#45;only support (ESP32C6)">
<polygon fill="white" stroke="#666666" points="531,-200 423,-200 423,-177 531,-177 531,-200"/>
<text text-anchor="middle" x="477" y="-184.8" font-family="Arial" font-size="14.00">EspBluetooth.h</text>
</a>
</g>
</g>
<!-- Node1&#45;&gt;Node2 -->
<g id="edge1_Node000001_Node000002" class="edge">
<title>Node1&#45;&gt;Node2</title>
<g id="a_edge1_Node000001_Node000002"><a xlink:title=" ">
<path fill="none" stroke="#63b8ff" d="M633.34,-235.91C601.95,-226.59 556.09,-212.98 522.15,-202.9"/>
<polygon fill="#63b8ff" stroke="#63b8ff" points="523.06,-199.52 512.47,-200.03 521.06,-206.23 523.06,-199.52"/>
</a>
</g>
</g>
<!-- Node18 -->
<g id="Node000018" class="node">
<title>Node18</title>
<g id="a_Node000018"><a xlink:title=" ">
<polygon fill="#e0e0e0" stroke="#999999" points="622.5,-200 549.5,-200 549.5,-177 622.5,-177 622.5,-200"/>
<text text-anchor="middle" x="586" y="-184.8" font-family="Arial" font-size="14.00">algorithm</text>
</a>
</g>
</g>
<!-- Node1&#45;&gt;Node18 -->
<g id="edge22_Node000001_Node000018" class="edge">
<title>Node1&#45;&gt;Node18</title>
<g id="a_edge22_Node000001_Node000018"><a xlink:title=" ">
<path fill="none" stroke="#63b8ff" d="M653.39,-235.78C641.22,-227.42 624.1,-215.66 610.16,-206.09"/>
<polygon fill="#63b8ff" stroke="#63b8ff" points="611.77,-202.95 601.54,-200.17 607.8,-208.72 611.77,-202.95"/>
</a>
</g>
</g>
<!-- Node19 -->
<g id="Node000019" class="node">
<title>Node19</title>
<g id="a_Node000019"><a xlink:title=" ">
<polygon fill="#e0e0e0" stroke="#999999" points="697,-200 641,-200 641,-177 697,-177 697,-200"/>
<text text-anchor="middle" x="669" y="-184.8" font-family="Arial" font-size="14.00">cstring</text>
</a>
</g>
</g>
<!-- Node1&#45;&gt;Node19 -->
<g id="edge23_Node000001_Node000019" class="edge">
<title>Node1&#45;&gt;Node19</title>
<g id="a_edge23_Node000001_Node000019"><a xlink:title=" ">
<path fill="none" stroke="#63b8ff" d="M669,-235.78C669,-228.61 669,-218.95 669,-210.31"/>
<polygon fill="#63b8ff" stroke="#63b8ff" points="672.5,-210.17 669,-200.17 665.5,-210.17 672.5,-210.17"/>
</a>
</g>
</g>
<!-- Node20 -->
<g id="Node000020" class="node">
<title>Node20</title>
<g id="a_Node000020"><a xlink:title=" ">
<polygon fill="#e0e0e0" stroke="#999999" points="780.5,-200 715.5,-200 715.5,-177 780.5,-177 780.5,-200"/>
<text text-anchor="middle" x="748" y="-184.8" font-family="Arial" font-size="14.00">iomanip</text>
</a>
</g>
</g>
<!-- Node1&#45;&gt;Node20 -->
<g id="edge24_Node000001_Node000020" class="edge">
<title>Node1&#45;&gt;Node20</title>
<g id="a_edge24_Node000001_Node000020"><a xlink:title=" ">
<path fill="none" stroke="#63b8ff" d="M683.86,-235.78C695.45,-227.42 711.74,-215.66 725.01,-206.09"/>
<polygon fill="#63b8ff" stroke="#63b8ff" points="727.15,-208.86 733.21,-200.17 723.05,-203.19 727.15,-208.86"/>
</a>
</g>
</g>
<!-- Node21 -->
<g id="Node000021" class="node">
<title>Node21</title>
<g id="a_Node000021"><a xlink:title=" ">
<polygon fill="#e0e0e0" stroke="#999999" points="863.5,-200 798.5,-200 798.5,-177 863.5,-177 863.5,-200"/>
<text text-anchor="middle" x="831" y="-184.8" font-family="Arial" font-size="14.00">sstream</text>
</a>
</g>
</g>
<!-- Node1&#45;&gt;Node21 -->
<g id="edge25_Node000001_Node000021" class="edge">
<title>Node1&#45;&gt;Node21</title>
<g id="a_edge25_Node000001_Node000021"><a xlink:title=" ">
<path fill="none" stroke="#63b8ff" d="M699.09,-235.91C725.12,-226.75 762.94,-213.45 791.42,-203.43"/>
<polygon fill="#63b8ff" stroke="#63b8ff" points="792.8,-206.65 801.07,-200.03 790.48,-200.05 792.8,-206.65"/>
</a>
</g>
</g>
<!-- Node3 -->
<g id="Node000003" class="node">
<title>Node3</title>
<g id="a_Node000003"><a xlink:href="BaseBluetooth_8h.html" target="_top" xlink:title="Unified Bluetooth base class for all Bluetooth implementations.">
<polygon fill="white" stroke="#666666" points="378,-141 262,-141 262,-118 378,-118 378,-141"/>
<text text-anchor="middle" x="320" y="-125.8" font-family="Arial" font-size="14.00">BaseBluetooth.h</text>
</a>
</g>
</g>
<!-- Node2&#45;&gt;Node3 -->
<g id="edge2_Node000002_Node000003" class="edge">
<title>Node2&#45;&gt;Node3</title>
<g id="a_edge2_Node000002_Node000003"><a xlink:title=" ">
<path fill="none" stroke="#63b8ff" d="M447.84,-176.91C422.72,-167.79 386.28,-154.56 358.72,-144.56"/>
<polygon fill="#63b8ff" stroke="#63b8ff" points="359.6,-141.15 349.01,-141.03 357.21,-147.73 359.6,-141.15"/>
</a>
</g>
</g>
<!-- Node4 -->
<g id="Node000004" class="node">
<title>Node4</title>
<g id="a_Node000004"><a xlink:href="HardwareTypes_8h.html" target="_top" xlink:title="Platform&#45;agnostic hardware type definitions for the HardFOC system.">
<polygon fill="white" stroke="#666666" points="122,-82 0,-82 0,-59 122,-59 122,-82"/>
<text text-anchor="middle" x="61" y="-66.8" font-family="Arial" font-size="14.00">HardwareTypes.h</text>
</a>
</g>
</g>
<!-- Node2&#45;&gt;Node4 -->
<g id="edge12_Node000002_Node000004" class="edge">
<title>Node2&#45;&gt;Node4</title>
<g id="a_edge12_Node000002_Node000004"><a xlink:title=" ">
<path fill="none" stroke="#63b8ff" d="M422.62,-178.45C376.93,-170.32 310.13,-157.18 253,-141 197.11,-125.17 134.11,-101.13 95.99,-85.88"/>
<polygon fill="#63b8ff" stroke="#63b8ff" points="96.98,-82.5 86.4,-82.01 94.36,-88.99 96.98,-82.5"/>
</a>
</g>
</g>
<!-- Node8 -->
<g id="Node000008" class="node">
<title>Node8</title>
<g id="a_Node000008"><a xlink:title=" ">
<polygon fill="#e0e0e0" stroke="#999999" points="496,-82 422,-82 422,-59 496,-59 496,-82"/>
<text text-anchor="middle" x="459" y="-66.8" font-family="Arial" font-size="14.00">functional</text>
</a>
</g>
</g>
<!-- Node2&#45;&gt;Node8 -->
<g id="edge19_Node000002_Node000008" class="edge">
<title>Node2&#45;&gt;Node8</title>
<g id="a_edge19_Node000002_Node000008"><a xlink:title=" ">
<path fill="none" stroke="#63b8ff" d="M461.07,-177C450.05,-168.7 436.28,-156.04 430,-141 422.83,-123.81 432.61,-104.24 442.71,-90.25"/>
<polygon fill="#63b8ff" stroke="#63b8ff" points="445.49,-92.37 448.88,-82.33 439.97,-88.07 445.49,-92.37"/>
</a>
</g>
</g>
<!-- Node11 -->
<g id="Node000011" class="node">
<title>Node11</title>
<g id="a_Node000011"><a xlink:title=" ">
<polygon fill="#e0e0e0" stroke="#999999" points="567.5,-82 514.5,-82 514.5,-59 567.5,-59 567.5,-82"/>
<text text-anchor="middle" x="541" y="-66.8" font-family="Arial" font-size="14.00">vector</text>
</a>
</g>
</g>
<!-- Node2&#45;&gt;Node11 -->
<g id="edge21_Node000002_Node000011" class="edge">
<title>Node2&#45;&gt;Node11</title>
<g id="a_edge21_Node000002_Node000011"><a xlink:title=" ">
<path fill="none" stroke="#63b8ff" d="M470.87,-176.89C463.51,-162.61 453.38,-136.82 464,-118 472.83,-102.34 489.29,-91.37 504.73,-84.02"/>
<polygon fill="#63b8ff" stroke="#63b8ff" points="506.37,-87.13 514.14,-79.91 503.57,-80.71 506.37,-87.13"/>
</a>
</g>
</g>
<!-- Node12 -->
<g id="Node000012" class="node">
<title>Node12</title>
<g id="a_Node000012"><a xlink:title=" ">
<polygon fill="#e0e0e0" stroke="#999999" points="547.5,-141 472.5,-141 472.5,-118 547.5,-118 547.5,-141"/>
<text text-anchor="middle" x="510" y="-125.8" font-family="Arial" font-size="14.00">esp_log.h</text>
</a>
</g>
</g>
<!-- Node2&#45;&gt;Node12 -->
<g id="edge13_Node000002_Node000012" class="edge">
<title>Node2&#45;&gt;Node12</title>
<g id="a_edge13_Node000002_Node000012"><a xlink:title=" ">
<path fill="none" stroke="#63b8ff" d="M483.21,-176.78C487.59,-169.22 493.57,-158.87 498.78,-149.88"/>
<polygon fill="#63b8ff" stroke="#63b8ff" points="501.84,-151.58 503.82,-141.17 495.78,-148.07 501.84,-151.58"/>
</a>
</g>
</g>
<!-- Node13 -->
<g id="Node000013" class="node">
<title>Node13</title>
<g id="a_Node000013"><a xlink:title=" ">
<polygon fill="#e0e0e0" stroke="#999999" points="650.5,-141 565.5,-141 565.5,-118 650.5,-118 650.5,-141"/>
<text text-anchor="middle" x="608" y="-125.8" font-family="Arial" font-size="14.00">nvs_flash.h</text>
</a>
</g>
</g>
<!-- Node2&#45;&gt;Node13 -->
<g id="edge14_Node000002_Node000013" class="edge">
<title>Node2&#45;&gt;Node13</title>
<g id="a_edge14_Node000002_Node000013"><a xlink:title=" ">
<path fill="none" stroke="#63b8ff" d="M501.33,-176.91C521.92,-167.95 551.64,-155.02 574.48,-145.09"/>
<polygon fill="#63b8ff" stroke="#63b8ff" points="576.02,-148.23 583.8,-141.03 573.23,-141.81 576.02,-148.23"/>
</a>
</g>
</g>
<!-- Node14 -->
<g id="Node000014" class="node">
<title>Node14</title>
<g id="a_Node000014"><a xlink:href="PlatformMutex_8h.html" target="_top" xlink:title="Cross&#45;platform RTOS mutex and synchronization primitives.">
<polygon fill="white" stroke="#666666" points="785,-141 669,-141 669,-118 785,-118 785,-141"/>
<text text-anchor="middle" x="727" y="-125.8" font-family="Arial" font-size="14.00">PlatformMutex.h</text>
</a>
</g>
</g>
<!-- Node2&#45;&gt;Node14 -->
<g id="edge15_Node000002_Node000014" class="edge">
<title>Node2&#45;&gt;Node14</title>
<g id="a_edge15_Node000002_Node000014"><a xlink:title=" ">
<path fill="none" stroke="#63b8ff" d="M523.15,-176.98C564.86,-167.47 626.37,-153.44 670.9,-143.29"/>
<polygon fill="#63b8ff" stroke="#63b8ff" points="671.73,-146.69 680.7,-141.06 670.17,-139.87 671.73,-146.69"/>
</a>
</g>
</g>
<!-- Node17 -->
<g id="Node000017" class="node">
<title>Node17</title>
<g id="a_Node000017"><a xlink:title=" ">
<polygon fill="#e0e0e0" stroke="#999999" points="847,-141 803,-141 803,-118 847,-118 847,-141"/>
<text text-anchor="middle" x="825" y="-125.8" font-family="Arial" font-size="14.00">map</text>
</a>
</g>
</g>
<!-- Node2&#45;&gt;Node17 -->
<g id="edge20_Node000002_Node000017" class="edge">
<title>Node2&#45;&gt;Node17</title>
<g id="a_edge20_Node000002_Node000017"><a xlink:title=" ">
<path fill="none" stroke="#63b8ff" d="M531.11,-178.54C534.45,-178.01 537.77,-177.49 541,-177 650.09,-160.29 681.74,-166.92 792.87,-140.93"/>
<polygon fill="#63b8ff" stroke="#63b8ff" points="793.87,-144.29 802.79,-138.57 792.25,-137.48 793.87,-144.29"/>
</a>
</g>
</g>
<!-- Node3&#45;&gt;Node4 -->
<g id="edge3_Node000003_Node000004" class="edge">
<title>Node3&#45;&gt;Node4</title>
<g id="a_edge3_Node000003_Node000004"><a xlink:title=" ">
<path fill="none" stroke="#63b8ff" d="M272.19,-117.98C228.89,-108.45 164.99,-94.39 118.83,-84.23"/>
<polygon fill="#63b8ff" stroke="#63b8ff" points="119.48,-80.79 108.97,-82.06 117.98,-87.62 119.48,-80.79"/>
</a>
</g>
</g>
<!-- Node5 -->
<g id="Node000005" class="node">
<title>Node5</title>
<g id="a_Node000005"><a xlink:title=" ">
<polygon fill="#e0e0e0" stroke="#999999" points="348,-23 292,-23 292,0 348,0 348,-23"/>
<text text-anchor="middle" x="320" y="-7.8" font-family="Arial" font-size="14.00">cstdint</text>
</a>
</g>
</g>
<!-- Node3&#45;&gt;Node5 -->
<g id="edge7_Node000003_Node000005" class="edge">
<title>Node3&#45;&gt;Node5</title>
<g id="a_edge7_Node000003_Node000005"><a xlink:title=" ">
<path fill="none" stroke="#63b8ff" d="M320,-117.79C320,-98.63 320,-58.15 320,-33.34"/>
<polygon fill="#63b8ff" stroke="#63b8ff" points="323.5,-33.18 320,-23.18 316.5,-33.18 323.5,-33.18"/>
</a>
</g>
</g>
<!-- Node7 -->
<g id="Node000007" class="node">
<title>Node7</title>
<g id="a_Node000007"><a xlink:title=" ">
<polygon fill="#e0e0e0" stroke="#999999" points="404,-82 348,-82 348,-59 404,-59 404,-82"/>
<text text-anchor="middle" x="376" y="-66.8" font-family="Arial" font-size="14.00">cctype</text>
</a>
</g>
</g>
<!-- Node3&#45;&gt;Node7 -->
<g id="edge6_Node000003_Node000007" class="edge">
<title>Node3&#45;&gt;Node7</title>
<g id="a_edge6_Node000003_Node000007"><a xlink:title=" ">
<path fill="none" stroke="#63b8ff" d="M330.53,-117.78C338.35,-109.82 349.2,-98.77 358.34,-89.47"/>
<polygon fill="#63b8ff" stroke="#63b8ff" points="361,-91.76 365.51,-82.17 356.01,-86.85 361,-91.76"/>
</a>
</g>
</g>
<!-- Node3&#45;&gt;Node8 -->
<g id="edge8_Node000003_Node000008" class="edge">
<title>Node3&#45;&gt;Node8</title>
<g id="a_edge8_Node000003_Node000008"><a xlink:title=" ">
<path fill="none" stroke="#63b8ff" d="M345.82,-117.91C367.76,-108.91 399.48,-95.91 423.75,-85.95"/>
<polygon fill="#63b8ff" stroke="#63b8ff" points="425.39,-89.06 433.32,-82.03 422.74,-82.59 425.39,-89.06"/>
</a>
</g>
</g>
<!-- Node9 -->
<g id="Node000009" class="node">
<title>Node9</title>
<g id="a_Node000009"><a xlink:title=" ">
<polygon fill="#e0e0e0" stroke="#999999" points="190,-82 140,-82 140,-59 190,-59 190,-82"/>
<text text-anchor="middle" x="165" y="-66.8" font-family="Arial" font-size="14.00">string</text>
</a>
</g>
</g>
<!-- Node3&#45;&gt;Node9 -->
<g id="edge9_Node000003_Node000009" class="edge">
<title>Node3&#45;&gt;Node9</title>
<g id="a_edge9_Node000003_Node000009"><a xlink:title=" ">
<path fill="none" stroke="#63b8ff" d="M291.21,-117.91C265.32,-108.39 227.24,-94.39 199.69,-84.26"/>
<polygon fill="#63b8ff" stroke="#63b8ff" points="200.64,-80.88 190.05,-80.71 198.23,-87.45 200.64,-80.88"/>
</a>
</g>
</g>
<!-- Node10 -->
<g id="Node000010" class="node">
<title>Node10</title>
<g id="a_Node000010"><a xlink:title=" ">
<polygon fill="#e0e0e0" stroke="#999999" points="292,-82 208,-82 208,-59 292,-59 292,-82"/>
<text text-anchor="middle" x="250" y="-66.8" font-family="Arial" font-size="14.00">string_view</text>
</a>
</g>
</g>
<!-- Node3&#45;&gt;Node10 -->
<g id="edge10_Node000003_Node000010" class="edge">
<title>Node3&#45;&gt;Node10</title>
<g id="a_edge10_Node000003_Node000010"><a xlink:title=" ">
<path fill="none" stroke="#63b8ff" d="M306.83,-117.78C296.76,-109.58 282.68,-98.11 271.05,-88.64"/>
<polygon fill="#63b8ff" stroke="#63b8ff" points="273.07,-85.77 263.11,-82.17 268.65,-91.2 273.07,-85.77"/>
</a>
</g>
</g>
<!-- Node3&#45;&gt;Node11 -->
<g id="edge11_Node000003_Node000011" class="edge">
<title>Node3&#45;&gt;Node11</title>
<g id="a_edge11_Node000003_Node000011"><a xlink:title=" ">
<path fill="none" stroke="#63b8ff" d="M363.85,-117.97C399.29,-109.35 450.67,-96.6 504.56,-82.05"/>
<polygon fill="#63b8ff" stroke="#63b8ff" points="505.56,-85.41 514.3,-79.41 503.73,-78.65 505.56,-85.41"/>
</a>
</g>
</g>
<!-- Node4&#45;&gt;Node5 -->
<g id="edge4_Node000004_Node000005" class="edge">
<title>Node4&#45;&gt;Node5</title>
<g id="a_edge4_Node000004_Node000005"><a xlink:title=" ">
<path fill="none" stroke="#63b8ff" d="M108.81,-58.98C158.68,-48 235.87,-31.02 281.82,-20.9"/>
<polygon fill="#63b8ff" stroke="#63b8ff" points="282.67,-24.3 291.69,-18.73 281.17,-17.46 282.67,-24.3"/>
</a>
</g>
</g>
<!-- Node6 -->
<g id="Node000006" class="node">
<title>Node6</title>
<g id="a_Node000006"><a xlink:title=" ">
<polygon fill="#e0e0e0" stroke="#999999" points="85,-23 37,-23 37,0 85,0 85,-23"/>
<text text-anchor="middle" x="61" y="-7.8" font-family="Arial" font-size="14.00">limits</text>
</a>
</g>
</g>
<!-- Node4&#45;&gt;Node6 -->
<g id="edge5_Node000004_Node000006" class="edge">
<title>Node4&#45;&gt;Node6</title>
<g id="a_edge5_Node000004_Node000006"><a xlink:title=" ">
<path fill="none" stroke="#63b8ff" d="M61,-58.78C61,-51.61 61,-41.95 61,-33.31"/>
<polygon fill="#63b8ff" stroke="#63b8ff" points="64.5,-33.17 61,-23.17 57.5,-33.17 64.5,-33.17"/>
</a>
</g>
</g>
<!-- Node14&#45;&gt;Node5 -->
<g id="edge18_Node000014_Node000005" class="edge">
<title>Node14&#45;&gt;Node5</title>
<g id="a_edge18_Node000014_Node000005"><a xlink:title=" ">
<path fill="none" stroke="#63b8ff" d="M708.21,-117.88C680.4,-102.61 626.26,-74.58 577,-59 501.53,-35.12 409.47,-22.18 358.55,-16.37"/>
<polygon fill="#63b8ff" stroke="#63b8ff" points="358.65,-12.86 348.33,-15.24 357.88,-19.82 358.65,-12.86"/>
</a>
</g>
</g>
<!-- Node15 -->
<g id="Node000015" class="node">
<title>Node15</title>
<g id="a_Node000015"><a xlink:href="McuSelect_8h.html" target="_top" xlink:title="Centralized MCU platform selection and configuration header.">
<polygon fill="white" stroke="#666666" points="759,-82 667,-82 667,-59 759,-59 759,-82"/>
<text text-anchor="middle" x="713" y="-66.8" font-family="Arial" font-size="14.00">McuSelect.h</text>
</a>
</g>
</g>
<!-- Node14&#45;&gt;Node15 -->
<g id="edge16_Node000014_Node000015" class="edge">
<title>Node14&#45;&gt;Node15</title>
<g id="a_edge16_Node000014_Node000015"><a xlink:title=" ">
<path fill="none" stroke="#63b8ff" d="M724.37,-117.78C722.59,-110.53 720.18,-100.74 718.04,-92.02"/>
<polygon fill="#63b8ff" stroke="#63b8ff" points="721.41,-91.05 715.62,-82.17 714.61,-92.72 721.41,-91.05"/>
</a>
</g>
</g>
<!-- Node16 -->
<g id="Node000016" class="node">
<title>Node16</title>
<g id="a_Node000016"><a xlink:title=" ">
<polygon fill="#e0e0e0" stroke="#999999" points="834.5,-82 777.5,-82 777.5,-59 834.5,-59 834.5,-82"/>
<text text-anchor="middle" x="806" y="-66.8" font-family="Arial" font-size="14.00">atomic</text>
</a>
</g>
</g>
<!-- Node14&#45;&gt;Node16 -->
<g id="edge17_Node000014_Node000016" class="edge">
<title>Node14&#45;&gt;Node16</title>
<g id="a_edge17_Node000014_Node000016"><a xlink:title=" ">
<path fill="none" stroke="#63b8ff" d="M741.86,-117.78C753.45,-109.42 769.74,-97.66 783.01,-88.09"/>
<polygon fill="#63b8ff" stroke="#63b8ff" points="785.15,-90.86 791.21,-82.17 781.05,-85.19 785.15,-90.86"/>
</a>
</g>
</g>
</g>
</svg>
