<?xml version="1.0" encoding="UTF-8" standalone="no"?>
<!DOCTYPE svg PUBLIC "-//W3C//DTD SVG 1.1//EN"
 "http://www.w3.org/Graphics/SVG/1.1/DTD/svg11.dtd">
<!-- Generated by graphviz version 2.43.0 (0)
 -->
<!-- Title: inc/mcu/esp32/EspCan.h Pages: 1 -->
<svg width="754pt" height="267pt"
 viewBox="0.00 0.00 753.89 267.00" xmlns="http://www.w3.org/2000/svg" xmlns:xlink="http://www.w3.org/1999/xlink">
<g id="graph0" class="graph" transform="scale(1 1) rotate(0) translate(4 263)">
<title>inc/mcu/esp32/EspCan.h</title>
<!-- Node1 -->
<g id="Node000001" class="node">
<title>Node1</title>
<g id="a_Node000001"><a xlink:title="ESP32 CAN (TWAI) implementation for the HardFOC system &#45; ESP&#45;IDF v5.5 Compatible.">
<polygon fill="#999999" stroke="#666666" points="435.89,-259 268.89,-259 268.89,-236 435.89,-236 435.89,-259"/>
<text text-anchor="middle" x="352.39" y="-243.8" font-family="Arial" font-size="14.00">inc/mcu/esp32/EspCan.h</text>
</a>
</g>
</g>
<!-- Node2 -->
<g id="Node000002" class="node">
<title>Node2</title>
<g id="a_Node000002"><a xlink:href="McuSelect_8h.html" target="_top" xlink:title="Centralized MCU platform selection and configuration header.">
<polygon fill="white" stroke="#666666" points="183.39,-82 91.39,-82 91.39,-59 183.39,-59 183.39,-82"/>
<text text-anchor="middle" x="137.39" y="-66.8" font-family="Arial" font-size="14.00">McuSelect.h</text>
</a>
</g>
</g>
<!-- Node1&#45;&gt;Node2 -->
<g id="edge1_Node000001_Node000002" class="edge">
<title>Node1&#45;&gt;Node2</title>
<g id="a_edge1_Node000001_Node000002"><a xlink:title=" ">
<path fill="none" stroke="#63b8ff" d="M282.71,-235.98C190.42,-220.38 35.75,-187.82 5.39,-141 -16.35,-107.46 36.09,-89.1 81.18,-79.81"/>
<polygon fill="#63b8ff" stroke="#63b8ff" points="82.1,-83.2 91.25,-77.85 80.77,-76.33 82.1,-83.2"/>
</a>
</g>
</g>
<!-- Node3 -->
<g id="Node000003" class="node">
<title>Node3</title>
<g id="a_Node000003"><a xlink:title=" ">
<polygon fill="#e0e0e0" stroke="#999999" points="513.89,-200 432.89,-200 432.89,-177 513.89,-177 513.89,-200"/>
<text text-anchor="middle" x="473.39" y="-184.8" font-family="Arial" font-size="14.00">esp_twai.h</text>
</a>
</g>
</g>
<!-- Node1&#45;&gt;Node3 -->
<g id="edge2_Node000001_Node000003" class="edge">
<title>Node1&#45;&gt;Node3</title>
<g id="a_edge2_Node000001_Node000003"><a xlink:title=" ">
<path fill="none" stroke="#63b8ff" d="M374.87,-235.91C393.72,-227.03 420.84,-214.26 441.86,-204.35"/>
<polygon fill="#63b8ff" stroke="#63b8ff" points="443.48,-207.46 451.04,-200.03 440.5,-201.13 443.48,-207.46"/>
</a>
</g>
</g>
<!-- Node4 -->
<g id="Node000004" class="node">
<title>Node4</title>
<g id="a_Node000004"><a xlink:title=" ">
<polygon fill="#e0e0e0" stroke="#999999" points="660.39,-200 532.39,-200 532.39,-177 660.39,-177 660.39,-200"/>
<text text-anchor="middle" x="596.39" y="-184.8" font-family="Arial" font-size="14.00">esp_twai_onchip.h</text>
</a>
</g>
</g>
<!-- Node1&#45;&gt;Node4 -->
<g id="edge3_Node000001_Node000004" class="edge">
<title>Node1&#45;&gt;Node4</title>
<g id="a_edge3_Node000001_Node000004"><a xlink:title=" ">
<path fill="none" stroke="#63b8ff" d="M397.43,-235.98C438.06,-226.49 497.92,-212.5 541.37,-202.35"/>
<polygon fill="#63b8ff" stroke="#63b8ff" points="542.27,-205.74 551.21,-200.06 540.67,-198.92 542.27,-205.74"/>
</a>
</g>
</g>
<!-- Node5 -->
<g id="Node000005" class="node">
<title>Node5</title>
<g id="a_Node000005"><a xlink:href="BaseCan_8h.html" target="_top" xlink:title="Abstract base class for CAN bus implementations in the HardFOC system.">
<polygon fill="white" stroke="#666666" points="489.89,-141 406.89,-141 406.89,-118 489.89,-118 489.89,-141"/>
<text text-anchor="middle" x="448.39" y="-125.8" font-family="Arial" font-size="14.00">BaseCan.h</text>
</a>
</g>
</g>
<!-- Node1&#45;&gt;Node5 -->
<g id="edge4_Node000001_Node000005" class="edge">
<title>Node1&#45;&gt;Node5</title>
<g id="a_edge4_Node000001_Node000005"><a xlink:title=" ">
<path fill="none" stroke="#63b8ff" d="M361.25,-235.79C377.61,-216.03 412.74,-173.58 433.05,-149.04"/>
<polygon fill="#63b8ff" stroke="#63b8ff" points="435.88,-151.11 439.56,-141.18 430.48,-146.65 435.88,-151.11"/>
</a>
</g>
</g>
<!-- Node9 -->
<g id="Node000009" class="node">
<title>Node9</title>
<g id="a_Node000009"><a xlink:title=" ">
<polygon fill="#e0e0e0" stroke="#999999" points="258.89,-82 201.89,-82 201.89,-59 258.89,-59 258.89,-82"/>
<text text-anchor="middle" x="230.39" y="-66.8" font-family="Arial" font-size="14.00">atomic</text>
</a>
</g>
</g>
<!-- Node1&#45;&gt;Node9 -->
<g id="edge24_Node000001_Node000009" class="edge">
<title>Node1&#45;&gt;Node9</title>
<g id="a_edge24_Node000001_Node000009"><a xlink:title=" ">
<path fill="none" stroke="#63b8ff" d="M269.47,-235.92C248.48,-229.08 228.27,-217.97 215.39,-200 192.19,-167.62 208.34,-118.44 220.45,-91.27"/>
<polygon fill="#63b8ff" stroke="#63b8ff" points="223.71,-92.55 224.8,-82.01 217.38,-89.57 223.71,-92.55"/>
</a>
</g>
</g>
<!-- Node11 -->
<g id="Node000011" class="node">
<title>Node11</title>
<g id="a_Node000011"><a xlink:href="PlatformMutex_8h.html" target="_top" xlink:title="Cross&#45;platform RTOS mutex and synchronization primitives.">
<polygon fill="white" stroke="#666666" points="130.39,-141 14.39,-141 14.39,-118 130.39,-118 130.39,-141"/>
<text text-anchor="middle" x="72.39" y="-125.8" font-family="Arial" font-size="14.00">PlatformMutex.h</text>
</a>
</g>
</g>
<!-- Node1&#45;&gt;Node11 -->
<g id="edge11_Node000001_Node000011" class="edge">
<title>Node1&#45;&gt;Node11</title>
<g id="a_edge11_Node000001_Node000011"><a xlink:title=" ">
<path fill="none" stroke="#63b8ff" d="M298.16,-235.98C264.06,-228.33 219.63,-216.42 182.39,-200 149.88,-185.66 115.78,-162.7 94.33,-147.13"/>
<polygon fill="#63b8ff" stroke="#63b8ff" points="96.35,-144.27 86.22,-141.15 92.2,-149.9 96.35,-144.27"/>
</a>
</g>
</g>
<!-- Node12 -->
<g id="Node000012" class="node">
<title>Node12</title>
<g id="a_Node000012"><a xlink:href="EspTypes__CAN_8h.html" target="_top" xlink:title="ESP32 CAN type definitions for hardware abstraction.">
<polygon fill="white" stroke="#666666" points="375.89,-200 224.89,-200 224.89,-177 375.89,-177 375.89,-200"/>
<text text-anchor="middle" x="300.39" y="-184.8" font-family="Arial" font-size="14.00">utils/EspTypes_CAN.h</text>
</a>
</g>
</g>
<!-- Node1&#45;&gt;Node12 -->
<g id="edge15_Node000001_Node000012" class="edge">
<title>Node1&#45;&gt;Node12</title>
<g id="a_edge15_Node000001_Node000012"><a xlink:title=" ">
<path fill="none" stroke="#63b8ff" d="M342.61,-235.78C335.42,-227.9 325.48,-216.99 317.05,-207.75"/>
<polygon fill="#63b8ff" stroke="#63b8ff" points="319.46,-205.2 310.13,-200.17 314.29,-209.92 319.46,-205.2"/>
</a>
</g>
</g>
<!-- Node14 -->
<g id="Node000014" class="node">
<title>Node14</title>
<g id="a_Node000014"><a xlink:title=" ">
<polygon fill="#e0e0e0" stroke="#999999" points="745.89,-200 678.89,-200 678.89,-177 745.89,-177 745.89,-200"/>
<text text-anchor="middle" x="712.39" y="-184.8" font-family="Arial" font-size="14.00">memory</text>
</a>
</g>
</g>
<!-- Node1&#45;&gt;Node14 -->
<g id="edge25_Node000001_Node000014" class="edge">
<title>Node1&#45;&gt;Node14</title>
<g id="a_edge25_Node000001_Node000014"><a xlink:title=" ">
<path fill="none" stroke="#63b8ff" d="M436.19,-236.39C497.86,-228.44 583.92,-216.3 668.61,-200.01"/>
<polygon fill="#63b8ff" stroke="#63b8ff" points="669.51,-203.4 678.66,-198.05 668.18,-196.53 669.51,-203.4"/>
</a>
</g>
</g>
<!-- Node6 -->
<g id="Node000006" class="node">
<title>Node6</title>
<g id="a_Node000006"><a xlink:href="HardwareTypes_8h.html" target="_top" xlink:title="Platform&#45;agnostic hardware type definitions for the HardFOC system.">
<polygon fill="white" stroke="#666666" points="437.39,-82 315.39,-82 315.39,-59 437.39,-59 437.39,-82"/>
<text text-anchor="middle" x="376.39" y="-66.8" font-family="Arial" font-size="14.00">HardwareTypes.h</text>
</a>
</g>
</g>
<!-- Node5&#45;&gt;Node6 -->
<g id="edge5_Node000005_Node000006" class="edge">
<title>Node5&#45;&gt;Node6</title>
<g id="a_edge5_Node000005_Node000006"><a xlink:title=" ">
<path fill="none" stroke="#63b8ff" d="M434.85,-117.78C424.49,-109.58 410.01,-98.11 398.04,-88.64"/>
<polygon fill="#63b8ff" stroke="#63b8ff" points="399.89,-85.64 389.88,-82.17 395.54,-91.12 399.89,-85.64"/>
</a>
</g>
</g>
<!-- Node7 -->
<g id="Node000007" class="node">
<title>Node7</title>
<g id="a_Node000007"><a xlink:title=" ">
<polygon fill="#e0e0e0" stroke="#999999" points="325.39,-23 269.39,-23 269.39,0 325.39,0 325.39,-23"/>
<text text-anchor="middle" x="297.39" y="-7.8" font-family="Arial" font-size="14.00">cstdint</text>
</a>
</g>
</g>
<!-- Node5&#45;&gt;Node7 -->
<g id="edge9_Node000005_Node000007" class="edge">
<title>Node5&#45;&gt;Node7</title>
<g id="a_edge9_Node000005_Node000007"><a xlink:title=" ">
<path fill="none" stroke="#63b8ff" d="M451.57,-117.84C455.27,-103.04 459.37,-76.12 446.39,-59 439.51,-49.92 377.4,-32.71 335.57,-21.96"/>
<polygon fill="#63b8ff" stroke="#63b8ff" points="336.23,-18.52 325.68,-19.45 334.51,-25.31 336.23,-18.52"/>
</a>
</g>
</g>
<!-- Node5&#45;&gt;Node9 -->
<g id="edge8_Node000005_Node000009" class="edge">
<title>Node5&#45;&gt;Node9</title>
<g id="a_edge8_Node000005_Node000009"><a xlink:title=" ">
<path fill="none" stroke="#63b8ff" d="M408.16,-117.98C368.32,-107.56 307.77,-91.73 268.64,-81.5"/>
<polygon fill="#63b8ff" stroke="#63b8ff" points="269.5,-78.11 258.94,-78.96 267.73,-84.88 269.5,-78.11"/>
</a>
</g>
</g>
<!-- Node10 -->
<g id="Node000010" class="node">
<title>Node10</title>
<g id="a_Node000010"><a xlink:title=" ">
<polygon fill="#e0e0e0" stroke="#999999" points="577.39,-82 493.39,-82 493.39,-59 577.39,-59 577.39,-82"/>
<text text-anchor="middle" x="535.39" y="-66.8" font-family="Arial" font-size="14.00">string_view</text>
</a>
</g>
</g>
<!-- Node5&#45;&gt;Node10 -->
<g id="edge10_Node000005_Node000010" class="edge">
<title>Node5&#45;&gt;Node10</title>
<g id="a_edge10_Node000005_Node000010"><a xlink:title=" ">
<path fill="none" stroke="#63b8ff" d="M464.76,-117.78C477.64,-109.34 495.81,-97.44 510.49,-87.82"/>
<polygon fill="#63b8ff" stroke="#63b8ff" points="512.66,-90.58 519.1,-82.17 508.82,-84.73 512.66,-90.58"/>
</a>
</g>
</g>
<!-- Node6&#45;&gt;Node7 -->
<g id="edge6_Node000006_Node000007" class="edge">
<title>Node6&#45;&gt;Node7</title>
<g id="a_edge6_Node000006_Node000007"><a xlink:title=" ">
<path fill="none" stroke="#63b8ff" d="M361.54,-58.78C349.95,-50.42 333.65,-38.66 320.39,-29.09"/>
<polygon fill="#63b8ff" stroke="#63b8ff" points="322.34,-26.19 312.19,-23.17 318.25,-31.86 322.34,-26.19"/>
</a>
</g>
</g>
<!-- Node8 -->
<g id="Node000008" class="node">
<title>Node8</title>
<g id="a_Node000008"><a xlink:title=" ">
<polygon fill="#e0e0e0" stroke="#999999" points="400.39,-23 352.39,-23 352.39,0 400.39,0 400.39,-23"/>
<text text-anchor="middle" x="376.39" y="-7.8" font-family="Arial" font-size="14.00">limits</text>
</a>
</g>
</g>
<!-- Node6&#45;&gt;Node8 -->
<g id="edge7_Node000006_Node000008" class="edge">
<title>Node6&#45;&gt;Node8</title>
<g id="a_edge7_Node000006_Node000008"><a xlink:title=" ">
<path fill="none" stroke="#63b8ff" d="M376.39,-58.78C376.39,-51.61 376.39,-41.95 376.39,-33.31"/>
<polygon fill="#63b8ff" stroke="#63b8ff" points="379.89,-33.17 376.39,-23.17 372.89,-33.17 379.89,-33.17"/>
</a>
</g>
</g>
<!-- Node11&#45;&gt;Node2 -->
<g id="edge12_Node000011_Node000002" class="edge">
<title>Node11&#45;&gt;Node2</title>
<g id="a_edge12_Node000011_Node000002"><a xlink:title=" ">
<path fill="none" stroke="#63b8ff" d="M84.62,-117.78C93.88,-109.66 106.8,-98.33 117.53,-88.92"/>
<polygon fill="#63b8ff" stroke="#63b8ff" points="120.01,-91.4 125.22,-82.17 115.4,-86.13 120.01,-91.4"/>
</a>
</g>
</g>
<!-- Node11&#45;&gt;Node7 -->
<g id="edge14_Node000011_Node000007" class="edge">
<title>Node11&#45;&gt;Node7</title>
<g id="a_edge14_Node000011_Node000007"><a xlink:title=" ">
<path fill="none" stroke="#63b8ff" d="M70.53,-117.75C68.55,-102.58 67.52,-74.96 82.39,-59 106,-33.68 204.02,-20.9 259.2,-15.6"/>
<polygon fill="#63b8ff" stroke="#63b8ff" points="259.67,-19.07 269.31,-14.66 259.03,-12.1 259.67,-19.07"/>
</a>
</g>
</g>
<!-- Node11&#45;&gt;Node9 -->
<g id="edge13_Node000011_Node000009" class="edge">
<title>Node11&#45;&gt;Node9</title>
<g id="a_edge13_Node000011_Node000009"><a xlink:title=" ">
<path fill="none" stroke="#63b8ff" d="M101.74,-117.91C127.29,-108.7 164.48,-95.28 192.32,-85.24"/>
<polygon fill="#63b8ff" stroke="#63b8ff" points="193.52,-88.52 201.74,-81.84 191.14,-81.94 193.52,-88.52"/>
</a>
</g>
</g>
<!-- Node12&#45;&gt;Node2 -->
<g id="edge23_Node000012_Node000002" class="edge">
<title>Node12&#45;&gt;Node2</title>
<g id="a_edge23_Node000012_Node000002"><a xlink:title=" ">
<path fill="none" stroke="#63b8ff" d="M277.92,-176.96C260.29,-168.29 235.46,-155.15 215.39,-141 193.18,-125.33 170.24,-104.19 155.04,-89.35"/>
<polygon fill="#63b8ff" stroke="#63b8ff" points="157.41,-86.77 147.84,-82.23 152.49,-91.75 157.41,-86.77"/>
</a>
</g>
</g>
<!-- Node12&#45;&gt;Node5 -->
<g id="edge16_Node000012_Node000005" class="edge">
<title>Node12&#45;&gt;Node5</title>
<g id="a_edge16_Node000012_Node000005"><a xlink:title=" ">
<path fill="none" stroke="#63b8ff" d="M327.89,-176.91C351.46,-167.83 385.62,-154.68 411.55,-144.69"/>
<polygon fill="#63b8ff" stroke="#63b8ff" points="412.98,-147.89 421.05,-141.03 410.46,-141.36 412.98,-147.89"/>
</a>
</g>
</g>
<!-- Node12&#45;&gt;Node6 -->
<g id="edge22_Node000012_Node000006" class="edge">
<title>Node12&#45;&gt;Node6</title>
<g id="a_edge22_Node000012_Node000006"><a xlink:title=" ">
<path fill="none" stroke="#63b8ff" d="M319.28,-176.85C332.15,-168.66 348.58,-156.17 358.39,-141 367.89,-126.32 372.38,-106.87 374.51,-92.27"/>
<polygon fill="#63b8ff" stroke="#63b8ff" points="378,-92.57 375.71,-82.22 371.05,-91.74 378,-92.57"/>
</a>
</g>
</g>
<!-- Node13 -->
<g id="Node000013" class="node">
<title>Node13</title>
<g id="a_Node000013"><a xlink:href="EspTypes__Base_8h.html" target="_top" xlink:title="ESP32 base type definitions for hardware abstraction.">
<polygon fill="white" stroke="#666666" points="349.89,-141 224.89,-141 224.89,-118 349.89,-118 349.89,-141"/>
<text text-anchor="middle" x="287.39" y="-125.8" font-family="Arial" font-size="14.00">EspTypes_Base.h</text>
</a>
</g>
</g>
<!-- Node12&#45;&gt;Node13 -->
<g id="edge17_Node000012_Node000013" class="edge">
<title>Node12&#45;&gt;Node13</title>
<g id="a_edge17_Node000012_Node000013"><a xlink:title=" ">
<path fill="none" stroke="#63b8ff" d="M297.95,-176.78C296.3,-169.53 294.06,-159.74 292.08,-151.02"/>
<polygon fill="#63b8ff" stroke="#63b8ff" points="295.47,-150.14 289.83,-141.17 288.64,-151.7 295.47,-150.14"/>
</a>
</g>
</g>
<!-- Node13&#45;&gt;Node2 -->
<g id="edge18_Node000013_Node000002" class="edge">
<title>Node13&#45;&gt;Node2</title>
<g id="a_edge18_Node000013_Node000002"><a xlink:title=" ">
<path fill="none" stroke="#63b8ff" d="M259.53,-117.91C235.64,-108.83 201.02,-95.68 174.73,-85.69"/>
<polygon fill="#63b8ff" stroke="#63b8ff" points="175.7,-82.31 165.11,-82.03 173.21,-88.85 175.7,-82.31"/>
</a>
</g>
</g>
<!-- Node13&#45;&gt;Node6 -->
<g id="edge19_Node000013_Node000006" class="edge">
<title>Node13&#45;&gt;Node6</title>
<g id="a_edge19_Node000013_Node000006"><a xlink:title=" ">
<path fill="none" stroke="#63b8ff" d="M304.14,-117.78C317.31,-109.34 335.9,-97.44 350.92,-87.82"/>
<polygon fill="#63b8ff" stroke="#63b8ff" points="353.2,-90.51 359.73,-82.17 349.42,-84.62 353.2,-90.51"/>
</a>
</g>
</g>
<!-- Node13&#45;&gt;Node7 -->
<g id="edge21_Node000013_Node000007" class="edge">
<title>Node13&#45;&gt;Node7</title>
<g id="a_edge21_Node000013_Node000007"><a xlink:title=" ">
<path fill="none" stroke="#63b8ff" d="M288.32,-117.79C289.97,-98.63 293.46,-58.15 295.6,-33.34"/>
<polygon fill="#63b8ff" stroke="#63b8ff" points="299.1,-33.44 296.47,-23.18 292.13,-32.84 299.1,-33.44"/>
</a>
</g>
</g>
<!-- Node13&#45;&gt;Node9 -->
<g id="edge20_Node000013_Node000009" class="edge">
<title>Node13&#45;&gt;Node9</title>
<g id="a_edge20_Node000013_Node000009"><a xlink:title=" ">
<path fill="none" stroke="#63b8ff" d="M276.67,-117.78C268.71,-109.82 257.67,-98.77 248.37,-89.47"/>
<polygon fill="#63b8ff" stroke="#63b8ff" points="250.61,-86.77 241.07,-82.17 245.66,-91.72 250.61,-86.77"/>
</a>
</g>
</g>
</g>
</svg>
