<?xml version="1.0" encoding="UTF-8" standalone="no"?>
<!DOCTYPE svg PUBLIC "-//W3C//DTD SVG 1.1//EN"
 "http://www.w3.org/Graphics/SVG/1.1/DTD/svg11.dtd">
<!-- Generated by graphviz version 2.43.0 (0)
 -->
<!-- Title: inc/mcu/esp32/EspCan.h Pages: 1 -->
<!--zoomable 267 -->

<svg id="main" version="1.1" xmlns="http://www.w3.org/2000/svg" xmlns:xlink="http://www.w3.org/1999/xlink" xml:space="preserve" onload="init(evt)">
<style type="text/css"><![CDATA[
.node, .edge {opacity: 0.7;}
.node.selected, .edge.selected {opacity: 1;}
.edge:hover path { stroke: red; }
.edge:hover polygon { stroke: red; fill: red; }
]]></style>

<defs>
  <circle id="rim" cx="0" cy="0" r="7"/>
  <circle id="rim2" cx="0" cy="0" r="3.5"/>
  <g id="zoomPlus">
    <use xlink:href="#rim" fill="#404040"><set attributeName="fill" to="#808080" begin="zoomplus.mouseover" end="zoomplus.mouseout"/></use>
    <path d="M-4,0h8M0,-4v8" fill="none" stroke="white" stroke-width="1.5" pointer-events="none"/>
  </g>
  <g id="zoomMin">
    <use xlink:href="#rim" fill="#404040"><set attributeName="fill" to="#808080" begin="zoomminus.mouseover" end="zoomminus.mouseout"/></use>
    <path d="M-4,0h8" fill="none" stroke="white" stroke-width="1.5" pointer-events="none"/>
  </g>
  <g id="arrowUp" transform="translate(30 24)">
    <use xlink:href="#rim"/>
    <path pointer-events="none" fill="none" stroke="white" stroke-width="1.5" d="M0,-3.0v7 M-2.5,-0.5L0,-3.0L2.5,-0.5"/>
  </g>
  <g id="arrowRight" transform="rotate(90) translate(36 -43)">
    <use xlink:href="#rim"/>
    <path pointer-events="none" fill="none" stroke="white" stroke-width="1.5" d="M0,-3.0v7 M-2.5,-0.5L0,-3.0L2.5,-0.5"/>
  </g>
  <g id="arrowDown" transform="rotate(180) translate(-30 -48)">
    <use xlink:href="#rim"/>
    <path pointer-events="none" fill="none" stroke="white" stroke-width="1.5" d="M0,-3.0v7 M-2.5,-0.5L0,-3.0L2.5,-0.5"/>
  </g>
  <g id="arrowLeft" transform="rotate(270) translate(-36 17)">
    <use xlink:href="#rim"/>
    <path pointer-events="none" fill="none" stroke="white" stroke-width="1.5" d="M0,-3.0v7 M-2.5,-0.5L0,-3.0L2.5,-0.5"/>
  </g>
  <g id="resetDef">
    <use xlink:href="#rim2" fill="#404040"><set attributeName="fill" to="#808080" begin="reset.mouseover" end="reset.mouseout"/></use>
  </g>
</defs>
<script type="application/ecmascript">
var viewWidth = 1009;
var viewHeight = 267;
var sectionId = 'dynsection-0';
</script>
<script type="application/ecmascript" xlink:href="svg.min.js"/>
<svg id="graph" class="graph">
<g id="viewport">
<title>inc/mcu/esp32/EspCan.h</title>
<!-- Node1 -->
<g id="Node000001" class="node">
<title>Node1</title>
<g id="a_Node000001"><a xlink:title="ESP32 CAN (TWAI) implementation for the HardFOC system &#45; ESP&#45;IDF v5.5 Compatible.">
<polygon fill="#999999" stroke="#666666" points="475.31,-259 308.31,-259 308.31,-236 475.31,-236 475.31,-259"/>
<text text-anchor="middle" x="391.81" y="-243.8" font-family="Arial" font-size="14.00">inc/mcu/esp32/EspCan.h</text>
</a>
</g>
</g>
<!-- Node2 -->
<g id="Node000002" class="node">
<title>Node2</title>
<g id="a_Node000002"><a xlink:href="McuSelect_8h.html" target="_top" xlink:title="Centralized MCU platform selection and configuration header.">
<polygon fill="white" stroke="#666666" points="540.81,-82 448.81,-82 448.81,-59 540.81,-59 540.81,-82"/>
<text text-anchor="middle" x="494.81" y="-66.8" font-family="Arial" font-size="14.00">McuSelect.h</text>
</a>
</g>
</g>
<!-- Node1&#45;&gt;Node2 -->
<g id="edge1_Node000001_Node000002" class="edge">
<title>Node1&#45;&gt;Node2</title>
<g id="a_edge1_Node000001_Node000002"><a xlink:title=" ">
<path fill="none" stroke="#63b8ff" d="M405.78,-235.92C416.5,-227.23 431.07,-214.09 440.81,-200 464.75,-165.36 481.09,-118.43 489.11,-91.93"/>
<polygon fill="#63b8ff" stroke="#63b8ff" points="492.5,-92.81 491.94,-82.23 485.78,-90.85 492.5,-92.81"/>
</a>
</g>
</g>
<!-- Node3 -->
<g id="Node000003" class="node">
<title>Node3</title>
<g id="a_Node000003"><a xlink:title=" ">
<polygon fill="#e0e0e0" stroke="#999999" points="99.31,-200 18.31,-200 18.31,-177 99.31,-177 99.31,-200"/>
<text text-anchor="middle" x="58.81" y="-184.8" font-family="Arial" font-size="14.00">esp_twai.h</text>
</a>
</g>
</g>
<!-- Node1&#45;&gt;Node3 -->
<g id="edge2_Node000001_Node000003" class="edge">
<title>Node1&#45;&gt;Node3</title>
<g id="a_edge2_Node000001_Node000003"><a xlink:title=" ">
<path fill="none" stroke="#63b8ff" d="M322.46,-235.98C267.43,-227.43 188.3,-214.69 109.54,-200.07"/>
<polygon fill="#63b8ff" stroke="#63b8ff" points="109.91,-196.58 99.44,-198.19 108.62,-203.46 109.91,-196.58"/>
</a>
</g>
</g>
<!-- Node4 -->
<g id="Node000004" class="node">
<title>Node4</title>
<g id="a_Node000004"><a xlink:title=" ">
<polygon fill="#e0e0e0" stroke="#999999" points="245.81,-200 117.81,-200 117.81,-177 245.81,-177 245.81,-200"/>
<text text-anchor="middle" x="181.81" y="-184.8" font-family="Arial" font-size="14.00">esp_twai_onchip.h</text>
</a>
</g>
</g>
<!-- Node1&#45;&gt;Node4 -->
<g id="edge3_Node000001_Node000004" class="edge">
<title>Node1&#45;&gt;Node4</title>
<g id="a_edge3_Node000001_Node000004"><a xlink:title=" ">
<path fill="none" stroke="#63b8ff" d="M352.8,-235.91C318.32,-226.55 267.88,-212.86 230.71,-202.77"/>
<polygon fill="#63b8ff" stroke="#63b8ff" points="231.17,-199.27 220.61,-200.03 229.34,-206.03 231.17,-199.27"/>
</a>
</g>
</g>
<!-- Node5 -->
<g id="Node000005" class="node">
<title>Node5</title>
<g id="a_Node000005"><a xlink:href="BaseCan_8h.html" target="_top" xlink:title="Abstract base class for CAN bus implementations in the HardFOC system.">
<polygon fill="white" stroke="#666666" points="216.31,-141 133.31,-141 133.31,-118 216.31,-118 216.31,-141"/>
<text text-anchor="middle" x="174.81" y="-125.8" font-family="Arial" font-size="14.00">BaseCan.h</text>
</a>
</g>
</g>
<!-- Node1&#45;&gt;Node5 -->
<g id="edge4_Node000001_Node000005" class="edge">
<title>Node1&#45;&gt;Node5</title>
<g id="a_edge4_Node000001_Node000005"><a xlink:title=" ">
<path fill="none" stroke="#63b8ff" d="M308.25,-242.15C201.56,-235.73 28.32,-222.03 8.81,-200 -27.13,-159.43 61.85,-141.93 122.96,-134.86"/>
<polygon fill="#63b8ff" stroke="#63b8ff" points="123.7,-138.3 133.26,-133.74 122.94,-131.35 123.7,-138.3"/>
</a>
</g>
</g>
<!-- Node9 -->
<g id="Node000009" class="node">
<title>Node9</title>
<g id="a_Node000009"><a xlink:title=" ">
<polygon fill="#e0e0e0" stroke="#999999" points="430.31,-82 373.31,-82 373.31,-59 430.31,-59 430.31,-82"/>
<text text-anchor="middle" x="401.81" y="-66.8" font-family="Arial" font-size="14.00">atomic</text>
</a>
</g>
</g>
<!-- Node1&#45;&gt;Node9 -->
<g id="edge27_Node000001_Node000009" class="edge">
<title>Node1&#45;&gt;Node9</title>
<g id="a_edge27_Node000001_Node000009"><a xlink:title=" ">
<path fill="none" stroke="#63b8ff" d="M402.42,-235.75C410.3,-226.96 420.42,-213.77 424.81,-200 436.73,-162.61 422,-117.02 411.22,-91.42"/>
<polygon fill="#63b8ff" stroke="#63b8ff" points="414.32,-89.78 407.07,-82.05 407.92,-92.61 414.32,-89.78"/>
</a>
</g>
</g>
<!-- Node11 -->
<g id="Node000011" class="node">
<title>Node11</title>
<g id="a_Node000011"><a xlink:href="RtosMutex_8h.html" target="_top" xlink:title="Cross&#45;platform RTOS mutex and synchronization primitives.">
<polygon fill="white" stroke="#666666" points="634.31,-141 541.31,-141 541.31,-118 634.31,-118 634.31,-141"/>
<text text-anchor="middle" x="587.81" y="-125.8" font-family="Arial" font-size="14.00">RtosMutex.h</text>
</a>
</g>
</g>
<!-- Node1&#45;&gt;Node11 -->
<g id="edge11_Node000001_Node000011" class="edge">
<title>Node1&#45;&gt;Node11</title>
<g id="a_edge11_Node000001_Node000011"><a xlink:title=" ">
<path fill="none" stroke="#63b8ff" d="M441.47,-236C468.29,-228.76 501.08,-217.27 526.81,-200 546.75,-186.61 564.22,-165.13 575.3,-149.59"/>
<polygon fill="#63b8ff" stroke="#63b8ff" points="578.26,-151.46 581.05,-141.23 572.49,-147.49 578.26,-151.46"/>
</a>
</g>
</g>
<!-- Node15 -->
<g id="Node000015" class="node">
<title>Node15</title>
<g id="a_Node000015"><a xlink:href="EspTypes__CAN_8h.html" target="_top" xlink:title="ESP32 CAN type definitions for hardware abstraction.">
<polygon fill="white" stroke="#666666" points="415.31,-200 264.31,-200 264.31,-177 415.31,-177 415.31,-200"/>
<text text-anchor="middle" x="339.81" y="-184.8" font-family="Arial" font-size="14.00">utils/EspTypes_CAN.h</text>
</a>
</g>
</g>
<!-- Node1&#45;&gt;Node15 -->
<g id="edge18_Node000001_Node000015" class="edge">
<title>Node1&#45;&gt;Node15</title>
<g id="a_edge18_Node000001_Node000015"><a xlink:title=" ">
<path fill="none" stroke="#63b8ff" d="M382.03,-235.78C374.84,-227.9 364.89,-216.99 356.46,-207.75"/>
<polygon fill="#63b8ff" stroke="#63b8ff" points="358.87,-205.2 349.54,-200.17 353.7,-209.92 358.87,-205.2"/>
</a>
</g>
</g>
<!-- Node17 -->
<g id="Node000017" class="node">
<title>Node17</title>
<g id="a_Node000017"><a xlink:title=" ">
<polygon fill="#e0e0e0" stroke="#999999" points="646.31,-200 579.31,-200 579.31,-177 646.31,-177 646.31,-200"/>
<text text-anchor="middle" x="612.81" y="-184.8" font-family="Arial" font-size="14.00">memory</text>
</a>
</g>
</g>
<!-- Node1&#45;&gt;Node17 -->
<g id="edge28_Node000001_Node000017" class="edge">
<title>Node1&#45;&gt;Node17</title>
<g id="a_edge28_Node000001_Node000017"><a xlink:title=" ">
<path fill="none" stroke="#63b8ff" d="M432.6,-235.98C471.38,-225.98 529.52,-210.98 569.2,-200.75"/>
<polygon fill="#63b8ff" stroke="#63b8ff" points="570.31,-204.07 579.12,-198.19 568.56,-197.3 570.31,-204.07"/>
</a>
</g>
</g>
<!-- Node6 -->
<g id="Node000006" class="node">
<title>Node6</title>
<g id="a_Node000006"><a xlink:href="HardwareTypes_8h.html" target="_top" xlink:title="Platform&#45;agnostic hardware type definitions for the HardFOC system.">
<polygon fill="white" stroke="#666666" points="316.81,-82 194.81,-82 194.81,-59 316.81,-59 316.81,-82"/>
<text text-anchor="middle" x="255.81" y="-66.8" font-family="Arial" font-size="14.00">HardwareTypes.h</text>
</a>
</g>
</g>
<!-- Node5&#45;&gt;Node6 -->
<g id="edge5_Node000005_Node000006" class="edge">
<title>Node5&#45;&gt;Node6</title>
<g id="a_edge5_Node000005_Node000006"><a xlink:title=" ">
<path fill="none" stroke="#63b8ff" d="M190.04,-117.78C201.92,-109.42 218.63,-97.66 232.23,-88.09"/>
<polygon fill="#63b8ff" stroke="#63b8ff" points="234.48,-90.79 240.64,-82.17 230.45,-85.07 234.48,-90.79"/>
</a>
</g>
</g>
<!-- Node7 -->
<g id="Node000007" class="node">
<title>Node7</title>
<g id="a_Node000007"><a xlink:title=" ">
<polygon fill="#e0e0e0" stroke="#999999" points="362.81,-23 306.81,-23 306.81,0 362.81,0 362.81,-23"/>
<text text-anchor="middle" x="334.81" y="-7.8" font-family="Arial" font-size="14.00">cstdint</text>
</a>
</g>
</g>
<!-- Node5&#45;&gt;Node7 -->
<g id="edge9_Node000005_Node000007" class="edge">
<title>Node5&#45;&gt;Node7</title>
<g id="a_edge9_Node000005_Node000007"><a xlink:title=" ">
<path fill="none" stroke="#63b8ff" d="M173.31,-117.91C171.83,-102.93 171.51,-75.55 185.81,-59 193.25,-50.38 255.19,-33.03 296.83,-22.13"/>
<polygon fill="#63b8ff" stroke="#63b8ff" points="297.88,-25.47 306.68,-19.57 296.12,-18.7 297.88,-25.47"/>
</a>
</g>
</g>
<!-- Node5&#45;&gt;Node9 -->
<g id="edge8_Node000005_Node000009" class="edge">
<title>Node5&#45;&gt;Node9</title>
<g id="a_edge8_Node000005_Node000009"><a xlink:title=" ">
<path fill="none" stroke="#63b8ff" d="M216.44,-118.05C258.33,-107.53 322.4,-91.44 363.19,-81.2"/>
<polygon fill="#63b8ff" stroke="#63b8ff" points="364.18,-84.56 373.02,-78.73 362.47,-77.77 364.18,-84.56"/>
</a>
</g>
</g>
<!-- Node10 -->
<g id="Node000010" class="node">
<title>Node10</title>
<g id="a_Node000010"><a xlink:title=" ">
<polygon fill="#e0e0e0" stroke="#999999" points="138.81,-82 54.81,-82 54.81,-59 138.81,-59 138.81,-82"/>
<text text-anchor="middle" x="96.81" y="-66.8" font-family="Arial" font-size="14.00">string_view</text>
</a>
</g>
</g>
<!-- Node5&#45;&gt;Node10 -->
<g id="edge10_Node000005_Node000010" class="edge">
<title>Node5&#45;&gt;Node10</title>
<g id="a_edge10_Node000005_Node000010"><a xlink:title=" ">
<path fill="none" stroke="#63b8ff" d="M160.14,-117.78C148.7,-109.42 132.61,-97.66 119.51,-88.09"/>
<polygon fill="#63b8ff" stroke="#63b8ff" points="121.55,-85.25 111.41,-82.17 117.42,-90.9 121.55,-85.25"/>
</a>
</g>
</g>
<!-- Node6&#45;&gt;Node7 -->
<g id="edge6_Node000006_Node000007" class="edge">
<title>Node6&#45;&gt;Node7</title>
<g id="a_edge6_Node000006_Node000007"><a xlink:title=" ">
<path fill="none" stroke="#63b8ff" d="M270.67,-58.78C282.25,-50.42 298.55,-38.66 311.81,-29.09"/>
<polygon fill="#63b8ff" stroke="#63b8ff" points="313.95,-31.86 320.01,-23.17 309.86,-26.19 313.95,-31.86"/>
</a>
</g>
</g>
<!-- Node8 -->
<g id="Node000008" class="node">
<title>Node8</title>
<g id="a_Node000008"><a xlink:title=" ">
<polygon fill="#e0e0e0" stroke="#999999" points="279.81,-23 231.81,-23 231.81,0 279.81,0 279.81,-23"/>
<text text-anchor="middle" x="255.81" y="-7.8" font-family="Arial" font-size="14.00">limits</text>
</a>
</g>
</g>
<!-- Node6&#45;&gt;Node8 -->
<g id="edge7_Node000006_Node000008" class="edge">
<title>Node6&#45;&gt;Node8</title>
<g id="a_edge7_Node000006_Node000008"><a xlink:title=" ">
<path fill="none" stroke="#63b8ff" d="M255.81,-58.78C255.81,-51.61 255.81,-41.95 255.81,-33.31"/>
<polygon fill="#63b8ff" stroke="#63b8ff" points="259.31,-33.17 255.81,-23.17 252.31,-33.17 259.31,-33.17"/>
</a>
</g>
</g>
<!-- Node11&#45;&gt;Node2 -->
<g id="edge12_Node000011_Node000002" class="edge">
<title>Node11&#45;&gt;Node2</title>
<g id="a_edge12_Node000011_Node000002"><a xlink:title=" ">
<path fill="none" stroke="#63b8ff" d="M570.31,-117.78C556.42,-109.26 536.76,-97.21 520.99,-87.55"/>
<polygon fill="#63b8ff" stroke="#63b8ff" points="522.58,-84.41 512.22,-82.17 518.92,-90.38 522.58,-84.41"/>
</a>
</g>
</g>
<!-- Node11&#45;&gt;Node7 -->
<g id="edge17_Node000011_Node000007" class="edge">
<title>Node11&#45;&gt;Node7</title>
<g id="a_edge17_Node000011_Node000007"><a xlink:title=" ">
<path fill="none" stroke="#63b8ff" d="M585.07,-117.94C580.49,-102.47 569.75,-73.9 549.81,-59 522.27,-38.43 427.17,-23.8 373.12,-16.92"/>
<polygon fill="#63b8ff" stroke="#63b8ff" points="373.25,-13.41 362.89,-15.65 372.39,-20.36 373.25,-13.41"/>
</a>
</g>
</g>
<!-- Node11&#45;&gt;Node9 -->
<g id="edge16_Node000011_Node000009" class="edge">
<title>Node11&#45;&gt;Node9</title>
<g id="a_edge16_Node000011_Node000009"><a xlink:title=" ">
<path fill="none" stroke="#63b8ff" d="M553.26,-117.91C521.17,-108.08 473.48,-93.46 440.21,-83.27"/>
<polygon fill="#63b8ff" stroke="#63b8ff" points="440.97,-79.84 430.38,-80.26 438.92,-86.53 440.97,-79.84"/>
</a>
</g>
</g>
<!-- Node12 -->
<g id="Node000012" class="node">
<title>Node12</title>
<g id="a_Node000012"><a xlink:title=" ">
<polygon fill="#e0e0e0" stroke="#999999" points="740.31,-82 597.31,-82 597.31,-59 740.31,-59 740.31,-82"/>
<text text-anchor="middle" x="668.81" y="-66.8" font-family="Arial" font-size="14.00">freertos/FreeRTOS.h</text>
</a>
</g>
</g>
<!-- Node11&#45;&gt;Node12 -->
<g id="edge13_Node000011_Node000012" class="edge">
<title>Node11&#45;&gt;Node12</title>
<g id="a_edge13_Node000011_Node000012"><a xlink:title=" ">
<path fill="none" stroke="#63b8ff" d="M603.04,-117.78C614.92,-109.42 631.63,-97.66 645.23,-88.09"/>
<polygon fill="#63b8ff" stroke="#63b8ff" points="647.48,-90.79 653.64,-82.17 643.45,-85.07 647.48,-90.79"/>
</a>
</g>
</g>
<!-- Node13 -->
<g id="Node000013" class="node">
<title>Node13</title>
<g id="a_Node000013"><a xlink:title=" ">
<polygon fill="#e0e0e0" stroke="#999999" points="880.81,-82 758.81,-82 758.81,-59 880.81,-59 880.81,-82"/>
<text text-anchor="middle" x="819.81" y="-66.8" font-family="Arial" font-size="14.00">freertos/semphr.h</text>
</a>
</g>
</g>
<!-- Node11&#45;&gt;Node13 -->
<g id="edge14_Node000011_Node000013" class="edge">
<title>Node11&#45;&gt;Node13</title>
<g id="a_edge14_Node000011_Node000013"><a xlink:title=" ">
<path fill="none" stroke="#63b8ff" d="M630.63,-117.98C669.09,-108.53 725.7,-94.62 766.97,-84.48"/>
<polygon fill="#63b8ff" stroke="#63b8ff" points="767.97,-87.84 776.84,-82.06 766.3,-81.04 767.97,-87.84"/>
</a>
</g>
</g>
<!-- Node14 -->
<g id="Node000014" class="node">
<title>Node14</title>
<g id="a_Node000014"><a xlink:title=" ">
<polygon fill="#e0e0e0" stroke="#999999" points="1000.81,-82 898.81,-82 898.81,-59 1000.81,-59 1000.81,-82"/>
<text text-anchor="middle" x="949.81" y="-66.8" font-family="Arial" font-size="14.00">freertos/task.h</text>
</a>
</g>
</g>
<!-- Node11&#45;&gt;Node14 -->
<g id="edge15_Node000011_Node000014" class="edge">
<title>Node11&#45;&gt;Node14</title>
<g id="a_edge15_Node000011_Node000014"><a xlink:title=" ">
<path fill="none" stroke="#63b8ff" d="M634.42,-121.63C691.81,-113.09 792.54,-97.9 888.85,-82.13"/>
<polygon fill="#63b8ff" stroke="#63b8ff" points="889.46,-85.58 898.76,-80.51 888.32,-78.67 889.46,-85.58"/>
</a>
</g>
</g>
<!-- Node15&#45;&gt;Node2 -->
<g id="edge26_Node000015_Node000002" class="edge">
<title>Node15&#45;&gt;Node2</title>
<g id="a_edge26_Node000015_Node000002"><a xlink:title=" ">
<path fill="none" stroke="#63b8ff" d="M360.05,-176.87C376.21,-168.05 399.16,-154.76 417.81,-141 439.52,-124.97 462.2,-103.89 477.27,-89.16"/>
<polygon fill="#63b8ff" stroke="#63b8ff" points="479.77,-91.62 484.42,-82.1 474.85,-86.64 479.77,-91.62"/>
</a>
</g>
</g>
<!-- Node15&#45;&gt;Node5 -->
<g id="edge19_Node000015_Node000005" class="edge">
<title>Node15&#45;&gt;Node5</title>
<g id="a_edge19_Node000015_Node000005"><a xlink:title=" ">
<path fill="none" stroke="#63b8ff" d="M309.16,-176.91C282.65,-167.75 244.12,-154.45 215.12,-144.43"/>
<polygon fill="#63b8ff" stroke="#63b8ff" points="215.89,-140.99 205.29,-141.03 213.6,-147.6 215.89,-140.99"/>
</a>
</g>
</g>
<!-- Node15&#45;&gt;Node6 -->
<g id="edge25_Node000015_Node000006" class="edge">
<title>Node15&#45;&gt;Node6</title>
<g id="a_edge25_Node000015_Node000006"><a xlink:title=" ">
<path fill="none" stroke="#63b8ff" d="M318.08,-176.98C303.78,-169 285.75,-156.71 274.81,-141 264.78,-126.6 260.04,-107.12 257.8,-92.45"/>
<polygon fill="#63b8ff" stroke="#63b8ff" points="261.25,-91.81 256.53,-82.33 254.3,-92.68 261.25,-91.81"/>
</a>
</g>
</g>
<!-- Node16 -->
<g id="Node000016" class="node">
<title>Node16</title>
<g id="a_Node000016"><a xlink:href="EspTypes__Base_8h.html" target="_top" xlink:title="ESP32 base type definitions for hardware abstraction.">
<polygon fill="white" stroke="#666666" points="408.31,-141 283.31,-141 283.31,-118 408.31,-118 408.31,-141"/>
<text text-anchor="middle" x="345.81" y="-125.8" font-family="Arial" font-size="14.00">EspTypes_Base.h</text>
</a>
</g>
</g>
<!-- Node15&#45;&gt;Node16 -->
<g id="edge20_Node000015_Node000016" class="edge">
<title>Node15&#45;&gt;Node16</title>
<g id="a_edge20_Node000015_Node000016"><a xlink:title=" ">
<path fill="none" stroke="#63b8ff" d="M340.94,-176.78C341.69,-169.61 342.71,-159.95 343.62,-151.31"/>
<polygon fill="#63b8ff" stroke="#63b8ff" points="347.12,-151.48 344.68,-141.17 340.16,-150.75 347.12,-151.48"/>
</a>
</g>
</g>
<!-- Node16&#45;&gt;Node2 -->
<g id="edge21_Node000016_Node000002" class="edge">
<title>Node16&#45;&gt;Node2</title>
<g id="a_edge21_Node000016_Node000002"><a xlink:title=" ">
<path fill="none" stroke="#63b8ff" d="M373.48,-117.91C397.21,-108.83 431.61,-95.68 457.72,-85.69"/>
<polygon fill="#63b8ff" stroke="#63b8ff" points="459.19,-88.87 467.28,-82.03 456.69,-82.34 459.19,-88.87"/>
</a>
</g>
</g>
<!-- Node16&#45;&gt;Node6 -->
<g id="edge22_Node000016_Node000006" class="edge">
<title>Node16&#45;&gt;Node6</title>
<g id="a_edge22_Node000016_Node000006"><a xlink:title=" ">
<path fill="none" stroke="#63b8ff" d="M328.88,-117.78C315.43,-109.26 296.41,-97.21 281.14,-87.55"/>
<polygon fill="#63b8ff" stroke="#63b8ff" points="282.98,-84.57 272.66,-82.17 279.23,-90.48 282.98,-84.57"/>
</a>
</g>
</g>
<!-- Node16&#45;&gt;Node7 -->
<g id="edge24_Node000016_Node000007" class="edge">
<title>Node16&#45;&gt;Node7</title>
<g id="a_edge24_Node000016_Node000007"><a xlink:title=" ">
<path fill="none" stroke="#63b8ff" d="M344.79,-117.79C342.97,-98.63 339.14,-58.15 336.78,-33.34"/>
<polygon fill="#63b8ff" stroke="#63b8ff" points="340.25,-32.8 335.82,-23.18 333.28,-33.46 340.25,-32.8"/>
</a>
</g>
</g>
<!-- Node16&#45;&gt;Node9 -->
<g id="edge23_Node000016_Node000009" class="edge">
<title>Node16&#45;&gt;Node9</title>
<g id="a_edge23_Node000016_Node000009"><a xlink:title=" ">
<path fill="none" stroke="#63b8ff" d="M356.34,-117.78C364.16,-109.82 375.01,-98.77 384.15,-89.47"/>
<polygon fill="#63b8ff" stroke="#63b8ff" points="386.81,-91.76 391.32,-82.17 381.82,-86.85 386.81,-91.76"/>
</a>
</g>
</g>
</g>
</svg>

<g id="navigator" transform="translate(0 0)" fill="#404254">
  <rect fill="#f2f5e9" fill-opacity="0.5" stroke="#606060" stroke-width=".5" x="0" y="0" width="60" height="60"/>
  <use id="zoomplus" xlink:href="#zoomPlus" x="17" y="9" onmousedown="handleZoom(evt,'in')"/>
  <use id="zoomminus" xlink:href="#zoomMin" x="42" y="9" onmousedown="handleZoom(evt,'out')"/>
  <use id="reset" xlink:href="#resetDef" x="30" y="36" onmousedown="handleReset()"/>
   <use id="arrowup" xlink:href="#arrowUp" x="0" y="0" onmousedown="handlePan(0,-1)"/>
  <use id="arrowright" xlink:href="#arrowRight" x="0" y="0" onmousedown="handlePan(1,0)"/>
  <use id="arrowdown" xlink:href="#arrowDown" x="0" y="0" onmousedown="handlePan(0,1)"/>
  <use id="arrowleft" xlink:href="#arrowLeft" x="0" y="0" onmousedown="handlePan(-1,0)"/>
</g>
<svg viewBox="0 0 15 15" width="100%" height="30px" preserveAspectRatio="xMaxYMin meet">
 <g id="arrow_out" transform="scale(0.3 0.3)">
  <a xlink:href="EspCan_8h__incl_org.svg" target="_base">
   <rect id="button" ry="5" rx="5" y="6" x="6" height="38" width="38"
        fill="#f2f5e9" fill-opacity="0.5" stroke="#606060" stroke-width="1.0"/>
   <path id="arrow"
     d="M 11.500037,31.436501 C 11.940474,20.09759 22.043105,11.32322 32.158766,21.979434 L 37.068811,17.246167 C 37.068811,17.246167 37.088388,32 37.088388,32 L 22.160133,31.978069 C 22.160133,31.978069 26.997745,27.140456 26.997745,27.140456 C 18.528582,18.264221 13.291696,25.230495 11.500037,31.436501 z"
     style="fill:#404040;"/>
  </a>
 </g>
</svg>

<style type='text/css'>
<![CDATA[
[data-mouse-over-selected='false'] { opacity: 0.7; }
[data-mouse-over-selected='true']  { opacity: 1.0; }
]]>
</style>
<script type="application/ecmascript"><![CDATA[
document.addEventListener('DOMContentLoaded', (event) => {
  highlightEdges();
  highlightAdjacentNodes();
});
]]></script>
</svg>
