<?xml version="1.0" encoding="UTF-8" standalone="no"?>
<!DOCTYPE svg PUBLIC "-//W3C//DTD SVG 1.1//EN"
 "http://www.w3.org/Graphics/SVG/1.1/DTD/svg11.dtd">
<!-- Generated by graphviz version 2.43.0 (0)
 -->
<!-- Title: src/mcu/esp32/EspCan.cpp Pages: 1 -->
<svg width="1329pt" height="326pt"
 viewBox="0.00 0.00 1328.50 326.00" xmlns="http://www.w3.org/2000/svg" xmlns:xlink="http://www.w3.org/1999/xlink">
<g id="graph0" class="graph" transform="scale(1 1) rotate(0) translate(4 322)">
<title>src/mcu/esp32/EspCan.cpp</title>
<!-- Node1 -->
<g id="Node000001" class="node">
<title>Node1</title>
<g id="a_Node000001"><a xlink:title="ESP32 CAN (TWAI) implementation for the HardFOC system &#45; ESP&#45;IDF v5.5 Compatible.">
<polygon fill="#999999" stroke="#666666" points="1102,-318 920,-318 920,-295 1102,-295 1102,-318"/>
<text text-anchor="middle" x="1011" y="-302.8" font-family="Arial" font-size="14.00">src/mcu/esp32/EspCan.cpp</text>
</a>
</g>
</g>
<!-- Node2 -->
<g id="Node000002" class="node">
<title>Node2</title>
<g id="a_Node000002"><a xlink:href="EspCan_8h.html" target="_top" xlink:title="ESP32 CAN (TWAI) implementation for the HardFOC system &#45; ESP&#45;IDF v5.5 Compatible.">
<polygon fill="white" stroke="#666666" points="517,-259 441,-259 441,-236 517,-236 517,-259"/>
<text text-anchor="middle" x="479" y="-243.8" font-family="Arial" font-size="14.00">EspCan.h</text>
</a>
</g>
</g>
<!-- Node1&#45;&gt;Node2 -->
<g id="edge1_Node000001_Node000002" class="edge">
<title>Node1&#45;&gt;Node2</title>
<g id="a_edge1_Node000001_Node000002"><a xlink:title=" ">
<path fill="none" stroke="#63b8ff" d="M919.85,-295.73C806.17,-283.55 616.01,-263.18 527.31,-253.68"/>
<polygon fill="#63b8ff" stroke="#63b8ff" points="527.57,-250.18 517.26,-252.6 526.83,-257.14 527.57,-250.18"/>
</a>
</g>
</g>
<!-- Node14 -->
<g id="Node000014" class="node">
<title>Node14</title>
<g id="a_Node000014"><a xlink:title=" ">
<polygon fill="#e0e0e0" stroke="#999999" points="979.5,-141 836.5,-141 836.5,-118 979.5,-118 979.5,-141"/>
<text text-anchor="middle" x="908" y="-125.8" font-family="Arial" font-size="14.00">freertos/FreeRTOS.h</text>
</a>
</g>
</g>
<!-- Node1&#45;&gt;Node14 -->
<g id="edge36_Node000001_Node000014" class="edge">
<title>Node1&#45;&gt;Node14</title>
<g id="a_edge36_Node000001_Node000014"><a xlink:title=" ">
<path fill="none" stroke="#63b8ff" d="M995.58,-294.8C984.19,-286.22 968.98,-273.3 959,-259 935.09,-224.75 920.12,-177.69 912.98,-151.06"/>
<polygon fill="#63b8ff" stroke="#63b8ff" points="916.36,-150.11 910.48,-141.3 909.58,-151.85 916.36,-150.11"/>
</a>
</g>
</g>
<!-- Node16 -->
<g id="Node000016" class="node">
<title>Node16</title>
<g id="a_Node000016"><a xlink:title=" ">
<polygon fill="#e0e0e0" stroke="#999999" points="1100,-141 998,-141 998,-118 1100,-118 1100,-141"/>
<text text-anchor="middle" x="1049" y="-125.8" font-family="Arial" font-size="14.00">freertos/task.h</text>
</a>
</g>
</g>
<!-- Node1&#45;&gt;Node16 -->
<g id="edge37_Node000001_Node000016" class="edge">
<title>Node1&#45;&gt;Node16</title>
<g id="a_edge37_Node000001_Node000016"><a xlink:title=" ">
<path fill="none" stroke="#63b8ff" d="M995.41,-294.92C984.61,-286.59 971.13,-273.91 965,-259 961.11,-249.55 961.63,-245.65 965,-236 977.55,-200.1 1007.99,-167.28 1028.57,-148.09"/>
<polygon fill="#63b8ff" stroke="#63b8ff" points="1031.12,-150.5 1036.18,-141.19 1026.42,-145.32 1031.12,-150.5"/>
</a>
</g>
</g>
<!-- Node20 -->
<g id="Node000020" class="node">
<title>Node20</title>
<g id="a_Node000020"><a xlink:title=" ">
<polygon fill="#e0e0e0" stroke="#999999" points="1047.5,-259 974.5,-259 974.5,-236 1047.5,-236 1047.5,-259"/>
<text text-anchor="middle" x="1011" y="-243.8" font-family="Arial" font-size="14.00">algorithm</text>
</a>
</g>
</g>
<!-- Node1&#45;&gt;Node20 -->
<g id="edge32_Node000001_Node000020" class="edge">
<title>Node1&#45;&gt;Node20</title>
<g id="a_edge32_Node000001_Node000020"><a xlink:title=" ">
<path fill="none" stroke="#63b8ff" d="M1011,-294.78C1011,-287.61 1011,-277.95 1011,-269.31"/>
<polygon fill="#63b8ff" stroke="#63b8ff" points="1014.5,-269.17 1011,-259.17 1007.5,-269.17 1014.5,-269.17"/>
</a>
</g>
</g>
<!-- Node21 -->
<g id="Node000021" class="node">
<title>Node21</title>
<g id="a_Node000021"><a xlink:title=" ">
<polygon fill="#e0e0e0" stroke="#999999" points="1122,-259 1066,-259 1066,-236 1122,-236 1122,-259"/>
<text text-anchor="middle" x="1094" y="-243.8" font-family="Arial" font-size="14.00">cstring</text>
</a>
</g>
</g>
<!-- Node1&#45;&gt;Node21 -->
<g id="edge33_Node000001_Node000021" class="edge">
<title>Node1&#45;&gt;Node21</title>
<g id="a_edge33_Node000001_Node000021"><a xlink:title=" ">
<path fill="none" stroke="#63b8ff" d="M1026.61,-294.78C1038.78,-286.42 1055.9,-274.66 1069.84,-265.09"/>
<polygon fill="#63b8ff" stroke="#63b8ff" points="1072.2,-267.72 1078.46,-259.17 1068.23,-261.95 1072.2,-267.72"/>
</a>
</g>
</g>
<!-- Node22 -->
<g id="Node000022" class="node">
<title>Node22</title>
<g id="a_Node000022"><a xlink:title=" ">
<polygon fill="#e0e0e0" stroke="#999999" points="1215.5,-259 1140.5,-259 1140.5,-236 1215.5,-236 1215.5,-259"/>
<text text-anchor="middle" x="1178" y="-243.8" font-family="Arial" font-size="14.00">esp_log.h</text>
</a>
</g>
</g>
<!-- Node1&#45;&gt;Node22 -->
<g id="edge34_Node000001_Node000022" class="edge">
<title>Node1&#45;&gt;Node22</title>
<g id="a_edge34_Node000001_Node000022"><a xlink:title=" ">
<path fill="none" stroke="#63b8ff" d="M1042.02,-294.91C1068.97,-285.71 1108.18,-272.33 1137.58,-262.29"/>
<polygon fill="#63b8ff" stroke="#63b8ff" points="1138.81,-265.57 1147.15,-259.03 1136.55,-258.95 1138.81,-265.57"/>
</a>
</g>
</g>
<!-- Node23 -->
<g id="Node000023" class="node">
<title>Node23</title>
<g id="a_Node000023"><a xlink:title=" ">
<polygon fill="#e0e0e0" stroke="#999999" points="1320.5,-259 1233.5,-259 1233.5,-236 1320.5,-236 1320.5,-259"/>
<text text-anchor="middle" x="1277" y="-243.8" font-family="Arial" font-size="14.00">esp_timer.h</text>
</a>
</g>
</g>
<!-- Node1&#45;&gt;Node23 -->
<g id="edge35_Node000001_Node000023" class="edge">
<title>Node1&#45;&gt;Node23</title>
<g id="a_edge35_Node000001_Node000023"><a xlink:title=" ">
<path fill="none" stroke="#63b8ff" d="M1060.1,-294.98C1106.49,-285.04 1175.89,-270.17 1223.63,-259.94"/>
<polygon fill="#63b8ff" stroke="#63b8ff" points="1224.43,-263.34 1233.47,-257.83 1222.96,-256.5 1224.43,-263.34"/>
</a>
</g>
</g>
<!-- Node3 -->
<g id="Node000003" class="node">
<title>Node3</title>
<g id="a_Node000003"><a xlink:href="McuSelect_8h.html" target="_top" xlink:title="Centralized MCU platform selection and configuration header.">
<polygon fill="white" stroke="#666666" points="607,-82 515,-82 515,-59 607,-59 607,-82"/>
<text text-anchor="middle" x="561" y="-66.8" font-family="Arial" font-size="14.00">McuSelect.h</text>
</a>
</g>
</g>
<!-- Node2&#45;&gt;Node3 -->
<g id="edge2_Node000002_Node000003" class="edge">
<title>Node2&#45;&gt;Node3</title>
<g id="a_edge2_Node000002_Node000003"><a xlink:title=" ">
<path fill="none" stroke="#63b8ff" d="M517.11,-246.67C591.86,-246.1 753.45,-240.14 788,-200 804.49,-180.84 787.24,-133.96 770,-118 748.09,-97.72 671.38,-84.58 617.27,-77.61"/>
<polygon fill="#63b8ff" stroke="#63b8ff" points="617.47,-74.1 607.11,-76.33 616.6,-81.05 617.47,-74.1"/>
</a>
</g>
</g>
<!-- Node4 -->
<g id="Node000004" class="node">
<title>Node4</title>
<g id="a_Node000004"><a xlink:title=" ">
<polygon fill="#e0e0e0" stroke="#999999" points="779.5,-200 698.5,-200 698.5,-177 779.5,-177 779.5,-200"/>
<text text-anchor="middle" x="739" y="-184.8" font-family="Arial" font-size="14.00">esp_twai.h</text>
</a>
</g>
</g>
<!-- Node2&#45;&gt;Node4 -->
<g id="edge3_Node000002_Node000004" class="edge">
<title>Node2&#45;&gt;Node4</title>
<g id="a_edge3_Node000002_Node000004"><a xlink:title=" ">
<path fill="none" stroke="#63b8ff" d="M517.08,-238.15C562.35,-228.23 638.04,-211.63 688.25,-200.63"/>
<polygon fill="#63b8ff" stroke="#63b8ff" points="689.22,-204 698.24,-198.44 687.72,-197.16 689.22,-204"/>
</a>
</g>
</g>
<!-- Node5 -->
<g id="Node000005" class="node">
<title>Node5</title>
<g id="a_Node000005"><a xlink:title=" ">
<polygon fill="#e0e0e0" stroke="#999999" points="128,-200 0,-200 0,-177 128,-177 128,-200"/>
<text text-anchor="middle" x="64" y="-184.8" font-family="Arial" font-size="14.00">esp_twai_onchip.h</text>
</a>
</g>
</g>
<!-- Node2&#45;&gt;Node5 -->
<g id="edge4_Node000002_Node000005" class="edge">
<title>Node2&#45;&gt;Node5</title>
<g id="a_edge4_Node000002_Node000005"><a xlink:title=" ">
<path fill="none" stroke="#63b8ff" d="M440.7,-241.24C372.01,-231.81 226.79,-211.86 138.07,-199.67"/>
<polygon fill="#63b8ff" stroke="#63b8ff" points="138.46,-196.19 128.08,-198.3 137.51,-203.13 138.46,-196.19"/>
</a>
</g>
</g>
<!-- Node6 -->
<g id="Node000006" class="node">
<title>Node6</title>
<g id="a_Node000006"><a xlink:href="BaseCan_8h.html" target="_top" xlink:title="Abstract base class for CAN bus implementations in the HardFOC system.">
<polygon fill="white" stroke="#666666" points="267.5,-141 184.5,-141 184.5,-118 267.5,-118 267.5,-141"/>
<text text-anchor="middle" x="226" y="-125.8" font-family="Arial" font-size="14.00">BaseCan.h</text>
</a>
</g>
</g>
<!-- Node2&#45;&gt;Node6 -->
<g id="edge5_Node000002_Node000006" class="edge">
<title>Node2&#45;&gt;Node6</title>
<g id="a_edge5_Node000002_Node000006"><a xlink:title=" ">
<path fill="none" stroke="#63b8ff" d="M441,-244.8C399.13,-241.35 331.21,-231 282,-200 262.35,-187.62 246.51,-165.91 236.76,-150.04"/>
<polygon fill="#63b8ff" stroke="#63b8ff" points="239.57,-147.91 231.49,-141.05 233.53,-151.45 239.57,-147.91"/>
</a>
</g>
</g>
<!-- Node10 -->
<g id="Node000010" class="node">
<title>Node10</title>
<g id="a_Node000010"><a xlink:title=" ">
<polygon fill="#e0e0e0" stroke="#999999" points="318.5,-82 261.5,-82 261.5,-59 318.5,-59 318.5,-82"/>
<text text-anchor="middle" x="290" y="-66.8" font-family="Arial" font-size="14.00">atomic</text>
</a>
</g>
</g>
<!-- Node2&#45;&gt;Node10 -->
<g id="edge29_Node000002_Node000010" class="edge">
<title>Node2&#45;&gt;Node10</title>
<g id="a_edge29_Node000002_Node000010"><a xlink:title=" ">
<path fill="none" stroke="#63b8ff" d="M440.81,-245.21C405.7,-241.94 354.58,-231.6 324,-200 295.65,-170.7 290.24,-120.65 289.6,-92.44"/>
<polygon fill="#63b8ff" stroke="#63b8ff" points="293.1,-92.12 289.57,-82.13 286.1,-92.14 293.1,-92.12"/>
</a>
</g>
</g>
<!-- Node11 -->
<g id="Node000011" class="node">
<title>Node11</title>
<g id="a_Node000011"><a xlink:title=" ">
<polygon fill="#e0e0e0" stroke="#999999" points="103,-82 29,-82 29,-59 103,-59 103,-82"/>
<text text-anchor="middle" x="66" y="-66.8" font-family="Arial" font-size="14.00">functional</text>
</a>
</g>
</g>
<!-- Node2&#45;&gt;Node11 -->
<g id="edge30_Node000002_Node000011" class="edge">
<title>Node2&#45;&gt;Node11</title>
<g id="a_edge30_Node000002_Node000011"><a xlink:title=" ">
<path fill="none" stroke="#63b8ff" d="M440.83,-243.31C394.76,-238.43 315.66,-226.67 253,-200 185.79,-171.39 117.84,-116.81 85.48,-88.89"/>
<polygon fill="#63b8ff" stroke="#63b8ff" points="87.51,-86.02 77.68,-82.08 82.91,-91.29 87.51,-86.02"/>
</a>
</g>
</g>
<!-- Node13 -->
<g id="Node000013" class="node">
<title>Node13</title>
<g id="a_Node000013"><a xlink:href="RtosMutex_8h.html" target="_top" xlink:title="Cross&#45;platform RTOS mutex and synchronization primitives.">
<polygon fill="white" stroke="#666666" points="595.5,-200 502.5,-200 502.5,-177 595.5,-177 595.5,-200"/>
<text text-anchor="middle" x="549" y="-184.8" font-family="Arial" font-size="14.00">RtosMutex.h</text>
</a>
</g>
</g>
<!-- Node2&#45;&gt;Node13 -->
<g id="edge13_Node000002_Node000013" class="edge">
<title>Node2&#45;&gt;Node13</title>
<g id="a_edge13_Node000002_Node000013"><a xlink:title=" ">
<path fill="none" stroke="#63b8ff" d="M492.17,-235.78C502.24,-227.58 516.32,-216.11 527.95,-206.64"/>
<polygon fill="#63b8ff" stroke="#63b8ff" points="530.35,-209.2 535.89,-200.17 525.93,-203.77 530.35,-209.2"/>
</a>
</g>
</g>
<!-- Node17 -->
<g id="Node000017" class="node">
<title>Node17</title>
<g id="a_Node000017"><a xlink:href="EspTypes__CAN_8h.html" target="_top" xlink:title="ESP32 CAN type definitions for hardware abstraction.">
<polygon fill="white" stroke="#666666" points="484.5,-200 333.5,-200 333.5,-177 484.5,-177 484.5,-200"/>
<text text-anchor="middle" x="409" y="-184.8" font-family="Arial" font-size="14.00">utils/EspTypes_CAN.h</text>
</a>
</g>
</g>
<!-- Node2&#45;&gt;Node17 -->
<g id="edge20_Node000002_Node000017" class="edge">
<title>Node2&#45;&gt;Node17</title>
<g id="a_edge20_Node000002_Node000017"><a xlink:title=" ">
<path fill="none" stroke="#63b8ff" d="M465.83,-235.78C455.76,-227.58 441.68,-216.11 430.05,-206.64"/>
<polygon fill="#63b8ff" stroke="#63b8ff" points="432.07,-203.77 422.11,-200.17 427.65,-209.2 432.07,-203.77"/>
</a>
</g>
</g>
<!-- Node19 -->
<g id="Node000019" class="node">
<title>Node19</title>
<g id="a_Node000019"><a xlink:title=" ">
<polygon fill="#e0e0e0" stroke="#999999" points="680.5,-200 613.5,-200 613.5,-177 680.5,-177 680.5,-200"/>
<text text-anchor="middle" x="647" y="-184.8" font-family="Arial" font-size="14.00">memory</text>
</a>
</g>
</g>
<!-- Node2&#45;&gt;Node19 -->
<g id="edge31_Node000002_Node000019" class="edge">
<title>Node2&#45;&gt;Node19</title>
<g id="a_edge31_Node000002_Node000019"><a xlink:title=" ">
<path fill="none" stroke="#63b8ff" d="M510.21,-235.91C537.32,-226.71 576.77,-213.33 606.34,-203.29"/>
<polygon fill="#63b8ff" stroke="#63b8ff" points="607.62,-206.56 615.96,-200.03 605.37,-199.93 607.62,-206.56"/>
</a>
</g>
</g>
<!-- Node7 -->
<g id="Node000007" class="node">
<title>Node7</title>
<g id="a_Node000007"><a xlink:href="HardwareTypes_8h.html" target="_top" xlink:title="Platform&#45;agnostic hardware type definitions for the HardFOC system.">
<polygon fill="white" stroke="#666666" points="497,-82 375,-82 375,-59 497,-59 497,-82"/>
<text text-anchor="middle" x="436" y="-66.8" font-family="Arial" font-size="14.00">HardwareTypes.h</text>
</a>
</g>
</g>
<!-- Node6&#45;&gt;Node7 -->
<g id="edge6_Node000006_Node000007" class="edge">
<title>Node6&#45;&gt;Node7</title>
<g id="a_edge6_Node000006_Node000007"><a xlink:title=" ">
<path fill="none" stroke="#63b8ff" d="M265.01,-117.91C299.49,-108.55 349.93,-94.86 387.09,-84.77"/>
<polygon fill="#63b8ff" stroke="#63b8ff" points="388.47,-88.03 397.2,-82.03 386.63,-81.27 388.47,-88.03"/>
</a>
</g>
</g>
<!-- Node8 -->
<g id="Node000008" class="node">
<title>Node8</title>
<g id="a_Node000008"><a xlink:title=" ">
<polygon fill="#e0e0e0" stroke="#999999" points="385,-23 329,-23 329,0 385,0 385,-23"/>
<text text-anchor="middle" x="357" y="-7.8" font-family="Arial" font-size="14.00">cstdint</text>
</a>
</g>
</g>
<!-- Node6&#45;&gt;Node8 -->
<g id="edge10_Node000006_Node000008" class="edge">
<title>Node6&#45;&gt;Node8</title>
<g id="a_edge10_Node000006_Node000008"><a xlink:title=" ">
<path fill="none" stroke="#63b8ff" d="M227.39,-117.72C229.84,-102.77 236.27,-75.69 252,-59 269.91,-40 296.97,-28.28 319.13,-21.35"/>
<polygon fill="#63b8ff" stroke="#63b8ff" points="320.3,-24.65 328.92,-18.5 318.34,-17.93 320.3,-24.65"/>
</a>
</g>
</g>
<!-- Node6&#45;&gt;Node10 -->
<g id="edge9_Node000006_Node000010" class="edge">
<title>Node6&#45;&gt;Node10</title>
<g id="a_edge9_Node000006_Node000010"><a xlink:title=" ">
<path fill="none" stroke="#63b8ff" d="M238.04,-117.78C247.16,-109.66 259.87,-98.33 270.45,-88.92"/>
<polygon fill="#63b8ff" stroke="#63b8ff" points="272.88,-91.44 278.02,-82.17 268.22,-86.21 272.88,-91.44"/>
</a>
</g>
</g>
<!-- Node6&#45;&gt;Node11 -->
<g id="edge11_Node000006_Node000011" class="edge">
<title>Node6&#45;&gt;Node11</title>
<g id="a_edge11_Node000006_Node000011"><a xlink:title=" ">
<path fill="none" stroke="#63b8ff" d="M196.28,-117.91C170.57,-108.75 133.22,-95.45 105.09,-85.43"/>
<polygon fill="#63b8ff" stroke="#63b8ff" points="106.16,-82.09 95.56,-82.03 103.81,-88.68 106.16,-82.09"/>
</a>
</g>
</g>
<!-- Node12 -->
<g id="Node000012" class="node">
<title>Node12</title>
<g id="a_Node000012"><a xlink:title=" ">
<polygon fill="#e0e0e0" stroke="#999999" points="205,-82 121,-82 121,-59 205,-59 205,-82"/>
<text text-anchor="middle" x="163" y="-66.8" font-family="Arial" font-size="14.00">string_view</text>
</a>
</g>
</g>
<!-- Node6&#45;&gt;Node12 -->
<g id="edge12_Node000006_Node000012" class="edge">
<title>Node6&#45;&gt;Node12</title>
<g id="a_edge12_Node000006_Node000012"><a xlink:title=" ">
<path fill="none" stroke="#63b8ff" d="M214.15,-117.78C205.17,-109.66 192.66,-98.33 182.25,-88.92"/>
<polygon fill="#63b8ff" stroke="#63b8ff" points="184.56,-86.29 174.8,-82.17 179.86,-91.48 184.56,-86.29"/>
</a>
</g>
</g>
<!-- Node7&#45;&gt;Node8 -->
<g id="edge7_Node000007_Node000008" class="edge">
<title>Node7&#45;&gt;Node8</title>
<g id="a_edge7_Node000007_Node000008"><a xlink:title=" ">
<path fill="none" stroke="#63b8ff" d="M421.14,-58.78C409.55,-50.42 393.26,-38.66 379.99,-29.09"/>
<polygon fill="#63b8ff" stroke="#63b8ff" points="381.95,-26.19 371.79,-23.17 377.85,-31.86 381.95,-26.19"/>
</a>
</g>
</g>
<!-- Node9 -->
<g id="Node000009" class="node">
<title>Node9</title>
<g id="a_Node000009"><a xlink:title=" ">
<polygon fill="#e0e0e0" stroke="#999999" points="460,-23 412,-23 412,0 460,0 460,-23"/>
<text text-anchor="middle" x="436" y="-7.8" font-family="Arial" font-size="14.00">limits</text>
</a>
</g>
</g>
<!-- Node7&#45;&gt;Node9 -->
<g id="edge8_Node000007_Node000009" class="edge">
<title>Node7&#45;&gt;Node9</title>
<g id="a_edge8_Node000007_Node000009"><a xlink:title=" ">
<path fill="none" stroke="#63b8ff" d="M436,-58.78C436,-51.61 436,-41.95 436,-33.31"/>
<polygon fill="#63b8ff" stroke="#63b8ff" points="439.5,-33.17 436,-23.17 432.5,-33.17 439.5,-33.17"/>
</a>
</g>
</g>
<!-- Node13&#45;&gt;Node3 -->
<g id="edge14_Node000013_Node000003" class="edge">
<title>Node13&#45;&gt;Node3</title>
<g id="a_edge14_Node000013_Node000003"><a xlink:title=" ">
<path fill="none" stroke="#63b8ff" d="M595.9,-178.23C654.03,-166.52 746.11,-147.14 751,-141 789.28,-92.9 686.42,-78.09 617.51,-73.53"/>
<polygon fill="#63b8ff" stroke="#63b8ff" points="617.38,-70.01 607.18,-72.9 616.96,-77 617.38,-70.01"/>
</a>
</g>
</g>
<!-- Node13&#45;&gt;Node8 -->
<g id="edge19_Node000013_Node000008" class="edge">
<title>Node13&#45;&gt;Node8</title>
<g id="a_edge19_Node000013_Node000008"><a xlink:title=" ">
<path fill="none" stroke="#63b8ff" d="M557.58,-176.97C579.15,-149.94 632.73,-78.79 616,-59 585.01,-22.34 450.09,-32.35 403,-23 400.38,-22.48 397.68,-21.92 394.96,-21.34"/>
<polygon fill="#63b8ff" stroke="#63b8ff" points="395.68,-17.92 385.17,-19.2 394.18,-24.76 395.68,-17.92"/>
</a>
</g>
</g>
<!-- Node13&#45;&gt;Node10 -->
<g id="edge18_Node000013_Node000010" class="edge">
<title>Node13&#45;&gt;Node10</title>
<g id="a_edge18_Node000013_Node000010"><a xlink:title=" ">
<path fill="none" stroke="#63b8ff" d="M502.31,-177.94C448.51,-166.69 365.83,-148.58 353,-141 331.79,-128.47 313.64,-106.47 302.35,-90.58"/>
<polygon fill="#63b8ff" stroke="#63b8ff" points="305.05,-88.32 296.52,-82.04 299.27,-92.27 305.05,-88.32"/>
</a>
</g>
</g>
<!-- Node13&#45;&gt;Node14 -->
<g id="edge15_Node000013_Node000014" class="edge">
<title>Node13&#45;&gt;Node14</title>
<g id="a_edge15_Node000013_Node000014"><a xlink:title=" ">
<path fill="none" stroke="#63b8ff" d="M595.79,-178.45C598.56,-177.95 601.32,-177.46 604,-177 679.14,-164.09 765.04,-151.11 826.32,-142.16"/>
<polygon fill="#63b8ff" stroke="#63b8ff" points="826.93,-145.61 836.32,-140.7 825.92,-138.68 826.93,-145.61"/>
</a>
</g>
</g>
<!-- Node15 -->
<g id="Node000015" class="node">
<title>Node15</title>
<g id="a_Node000015"><a xlink:title=" ">
<polygon fill="#e0e0e0" stroke="#999999" points="742,-141 620,-141 620,-118 742,-118 742,-141"/>
<text text-anchor="middle" x="681" y="-125.8" font-family="Arial" font-size="14.00">freertos/semphr.h</text>
</a>
</g>
</g>
<!-- Node13&#45;&gt;Node15 -->
<g id="edge16_Node000013_Node000015" class="edge">
<title>Node13&#45;&gt;Node15</title>
<g id="a_edge16_Node000013_Node000015"><a xlink:title=" ">
<path fill="none" stroke="#63b8ff" d="M573.52,-176.91C594.26,-167.95 624.21,-155.02 647.22,-145.09"/>
<polygon fill="#63b8ff" stroke="#63b8ff" points="648.82,-148.21 656.61,-141.03 646.04,-141.78 648.82,-148.21"/>
</a>
</g>
</g>
<!-- Node13&#45;&gt;Node16 -->
<g id="edge17_Node000013_Node000016" class="edge">
<title>Node13&#45;&gt;Node16</title>
<g id="a_edge17_Node000013_Node000016"><a xlink:title=" ">
<path fill="none" stroke="#63b8ff" d="M595.76,-178.26C598.54,-177.81 601.31,-177.38 604,-177 770.48,-153.36 816.34,-163.16 987.67,-140.94"/>
<polygon fill="#63b8ff" stroke="#63b8ff" points="988.33,-144.38 997.79,-139.61 987.42,-137.44 988.33,-144.38"/>
</a>
</g>
</g>
<!-- Node17&#45;&gt;Node3 -->
<g id="edge28_Node000017_Node000003" class="edge">
<title>Node17&#45;&gt;Node3</title>
<g id="a_edge28_Node000017_Node000003"><a xlink:title=" ">
<path fill="none" stroke="#63b8ff" d="M444.03,-176.95C465.27,-169.34 492.03,-157.49 512,-141 528.62,-127.27 542.22,-106.59 550.84,-91.36"/>
<polygon fill="#63b8ff" stroke="#63b8ff" points="554.08,-92.72 555.77,-82.26 547.93,-89.39 554.08,-92.72"/>
</a>
</g>
</g>
<!-- Node17&#45;&gt;Node6 -->
<g id="edge21_Node000017_Node000006" class="edge">
<title>Node17&#45;&gt;Node6</title>
<g id="a_edge21_Node000017_Node000006"><a xlink:title=" ">
<path fill="none" stroke="#63b8ff" d="M375.01,-176.91C345.22,-167.63 301.76,-154.1 269.45,-144.03"/>
<polygon fill="#63b8ff" stroke="#63b8ff" points="270.4,-140.66 259.81,-141.03 268.32,-147.35 270.4,-140.66"/>
</a>
</g>
</g>
<!-- Node17&#45;&gt;Node7 -->
<g id="edge27_Node000017_Node000007" class="edge">
<title>Node17&#45;&gt;Node7</title>
<g id="a_edge27_Node000017_Node000007"><a xlink:title=" ">
<path fill="none" stroke="#63b8ff" d="M447.63,-177C465.66,-169.95 485.43,-158.63 496,-141 508.12,-120.78 486.22,-100.73 465.55,-87.4"/>
<polygon fill="#63b8ff" stroke="#63b8ff" points="467.24,-84.33 456.88,-82.12 463.6,-90.31 467.24,-84.33"/>
</a>
</g>
</g>
<!-- Node18 -->
<g id="Node000018" class="node">
<title>Node18</title>
<g id="a_Node000018"><a xlink:href="EspTypes__Base_8h.html" target="_top" xlink:title="ESP32 base type definitions for hardware abstraction.">
<polygon fill="white" stroke="#666666" points="487.5,-141 362.5,-141 362.5,-118 487.5,-118 487.5,-141"/>
<text text-anchor="middle" x="425" y="-125.8" font-family="Arial" font-size="14.00">EspTypes_Base.h</text>
</a>
</g>
</g>
<!-- Node17&#45;&gt;Node18 -->
<g id="edge22_Node000017_Node000018" class="edge">
<title>Node17&#45;&gt;Node18</title>
<g id="a_edge22_Node000017_Node000018"><a xlink:title=" ">
<path fill="none" stroke="#63b8ff" d="M412.01,-176.78C414.04,-169.53 416.79,-159.74 419.24,-151.02"/>
<polygon fill="#63b8ff" stroke="#63b8ff" points="422.67,-151.75 422,-141.17 415.93,-149.86 422.67,-151.75"/>
</a>
</g>
</g>
<!-- Node18&#45;&gt;Node3 -->
<g id="edge23_Node000018_Node000003" class="edge">
<title>Node18&#45;&gt;Node3</title>
<g id="a_edge23_Node000018_Node000003"><a xlink:title=" ">
<path fill="none" stroke="#63b8ff" d="M450.26,-117.91C471.73,-108.91 502.76,-95.91 526.51,-85.95"/>
<polygon fill="#63b8ff" stroke="#63b8ff" points="528,-89.12 535.87,-82.03 525.3,-82.67 528,-89.12"/>
</a>
</g>
</g>
<!-- Node18&#45;&gt;Node7 -->
<g id="edge24_Node000018_Node000007" class="edge">
<title>Node18&#45;&gt;Node7</title>
<g id="a_edge24_Node000018_Node000007"><a xlink:title=" ">
<path fill="none" stroke="#63b8ff" d="M427.07,-117.78C428.47,-110.53 430.36,-100.74 432.04,-92.02"/>
<polygon fill="#63b8ff" stroke="#63b8ff" points="435.48,-92.66 433.94,-82.17 428.61,-91.33 435.48,-92.66"/>
</a>
</g>
</g>
<!-- Node18&#45;&gt;Node8 -->
<g id="edge26_Node000018_Node000008" class="edge">
<title>Node18&#45;&gt;Node8</title>
<g id="a_edge26_Node000018_Node000008"><a xlink:title=" ">
<path fill="none" stroke="#63b8ff" d="M404.61,-117.95C391.33,-109.94 374.88,-97.65 366,-82 357.58,-67.16 355.68,-47.72 355.69,-33.17"/>
<polygon fill="#63b8ff" stroke="#63b8ff" points="359.19,-33.26 355.99,-23.16 352.19,-33.05 359.19,-33.26"/>
</a>
</g>
</g>
<!-- Node18&#45;&gt;Node10 -->
<g id="edge25_Node000018_Node000010" class="edge">
<title>Node18&#45;&gt;Node10</title>
<g id="a_edge25_Node000018_Node000010"><a xlink:title=" ">
<path fill="none" stroke="#63b8ff" d="M399.92,-117.91C378.61,-108.91 347.81,-95.91 324.23,-85.95"/>
<polygon fill="#63b8ff" stroke="#63b8ff" points="325.52,-82.7 314.94,-82.03 322.79,-89.15 325.52,-82.7"/>
</a>
</g>
</g>
</g>
</svg>
