<?xml version="1.0" encoding="UTF-8" standalone="no"?>
<!DOCTYPE svg PUBLIC "-//W3C//DTD SVG 1.1//EN"
 "http://www.w3.org/Graphics/SVG/1.1/DTD/svg11.dtd">
<!-- Generated by graphviz version 2.43.0 (0)
 -->
<!-- Title: src/mcu/esp32/EspCan.cpp Pages: 1 -->
<!--zoomable 326 -->

<svg id="main" version="1.1" xmlns="http://www.w3.org/2000/svg" xmlns:xlink="http://www.w3.org/1999/xlink" xml:space="preserve" onload="init(evt)">
<style type="text/css"><![CDATA[
.node, .edge {opacity: 0.7;}
.node.selected, .edge.selected {opacity: 1;}
.edge:hover path { stroke: red; }
.edge:hover polygon { stroke: red; fill: red; }
]]></style>

<defs>
  <circle id="rim" cx="0" cy="0" r="7"/>
  <circle id="rim2" cx="0" cy="0" r="3.5"/>
  <g id="zoomPlus">
    <use xlink:href="#rim" fill="#404040"><set attributeName="fill" to="#808080" begin="zoomplus.mouseover" end="zoomplus.mouseout"/></use>
    <path d="M-4,0h8M0,-4v8" fill="none" stroke="white" stroke-width="1.5" pointer-events="none"/>
  </g>
  <g id="zoomMin">
    <use xlink:href="#rim" fill="#404040"><set attributeName="fill" to="#808080" begin="zoomminus.mouseover" end="zoomminus.mouseout"/></use>
    <path d="M-4,0h8" fill="none" stroke="white" stroke-width="1.5" pointer-events="none"/>
  </g>
  <g id="arrowUp" transform="translate(30 24)">
    <use xlink:href="#rim"/>
    <path pointer-events="none" fill="none" stroke="white" stroke-width="1.5" d="M0,-3.0v7 M-2.5,-0.5L0,-3.0L2.5,-0.5"/>
  </g>
  <g id="arrowRight" transform="rotate(90) translate(36 -43)">
    <use xlink:href="#rim"/>
    <path pointer-events="none" fill="none" stroke="white" stroke-width="1.5" d="M0,-3.0v7 M-2.5,-0.5L0,-3.0L2.5,-0.5"/>
  </g>
  <g id="arrowDown" transform="rotate(180) translate(-30 -48)">
    <use xlink:href="#rim"/>
    <path pointer-events="none" fill="none" stroke="white" stroke-width="1.5" d="M0,-3.0v7 M-2.5,-0.5L0,-3.0L2.5,-0.5"/>
  </g>
  <g id="arrowLeft" transform="rotate(270) translate(-36 17)">
    <use xlink:href="#rim"/>
    <path pointer-events="none" fill="none" stroke="white" stroke-width="1.5" d="M0,-3.0v7 M-2.5,-0.5L0,-3.0L2.5,-0.5"/>
  </g>
  <g id="resetDef">
    <use xlink:href="#rim2" fill="#404040"><set attributeName="fill" to="#808080" begin="reset.mouseover" end="reset.mouseout"/></use>
  </g>
</defs>
<script type="application/ecmascript">
var viewWidth = 1179;
var viewHeight = 326;
var sectionId = 'dynsection-0';
</script>
<script type="application/ecmascript" xlink:href="svg.min.js"/>
<svg id="graph" class="graph">
<g id="viewport">
<title>src/mcu/esp32/EspCan.cpp</title>
<!-- Node1 -->
<g id="Node000001" class="node">
<title>Node1</title>
<g id="a_Node000001"><a xlink:title="ESP32 CAN (TWAI) implementation for the HardFOC system &#45; ESP&#45;IDF v5.5 Compatible.">
<polygon fill="#999999" stroke="#666666" points="838,-318 656,-318 656,-295 838,-295 838,-318"/>
<text text-anchor="middle" x="747" y="-302.8" font-family="Arial" font-size="14.00">src/mcu/esp32/EspCan.cpp</text>
</a>
</g>
</g>
<!-- Node2 -->
<g id="Node000002" class="node">
<title>Node2</title>
<g id="a_Node000002"><a xlink:href="EspCan_8h.html" target="_top" xlink:title="ESP32 CAN (TWAI) implementation for the HardFOC system &#45; ESP&#45;IDF v5.5 Compatible.">
<polygon fill="white" stroke="#666666" points="525,-259 449,-259 449,-236 525,-236 525,-259"/>
<text text-anchor="middle" x="487" y="-243.8" font-family="Arial" font-size="14.00">EspCan.h</text>
</a>
</g>
</g>
<!-- Node1&#45;&gt;Node2 -->
<g id="edge1_Node000001_Node000002" class="edge">
<title>Node1&#45;&gt;Node2</title>
<g id="a_edge1_Node000001_Node000002"><a xlink:title=" ">
<path fill="none" stroke="#63b8ff" d="M699.01,-294.98C652.26,-284.73 581.59,-269.24 534.88,-259"/>
<polygon fill="#63b8ff" stroke="#63b8ff" points="535.52,-255.55 525,-256.83 534.02,-262.39 535.52,-255.55"/>
</a>
</g>
</g>
<!-- Node16 -->
<g id="Node000016" class="node">
<title>Node16</title>
<g id="a_Node000016"><a xlink:title=" ">
<polygon fill="#e0e0e0" stroke="#999999" points="616.5,-259 543.5,-259 543.5,-236 616.5,-236 616.5,-259"/>
<text text-anchor="middle" x="580" y="-243.8" font-family="Arial" font-size="14.00">algorithm</text>
</a>
</g>
</g>
<!-- Node1&#45;&gt;Node16 -->
<g id="edge26_Node000001_Node000016" class="edge">
<title>Node1&#45;&gt;Node16</title>
<g id="a_edge26_Node000001_Node000016"><a xlink:title=" ">
<path fill="none" stroke="#63b8ff" d="M715.98,-294.91C689.03,-285.71 649.82,-272.33 620.42,-262.29"/>
<polygon fill="#63b8ff" stroke="#63b8ff" points="621.45,-258.95 610.85,-259.03 619.19,-265.57 621.45,-258.95"/>
</a>
</g>
</g>
<!-- Node17 -->
<g id="Node000017" class="node">
<title>Node17</title>
<g id="a_Node000017"><a xlink:title=" ">
<polygon fill="#e0e0e0" stroke="#999999" points="691,-259 635,-259 635,-236 691,-236 691,-259"/>
<text text-anchor="middle" x="663" y="-243.8" font-family="Arial" font-size="14.00">cstring</text>
</a>
</g>
</g>
<!-- Node1&#45;&gt;Node17 -->
<g id="edge27_Node000001_Node000017" class="edge">
<title>Node1&#45;&gt;Node17</title>
<g id="a_edge27_Node000001_Node000017"><a xlink:title=" ">
<path fill="none" stroke="#63b8ff" d="M731.2,-294.78C718.76,-286.34 701.22,-274.44 687.05,-264.82"/>
<polygon fill="#63b8ff" stroke="#63b8ff" points="688.97,-261.89 678.73,-259.17 685.04,-267.68 688.97,-261.89"/>
</a>
</g>
</g>
<!-- Node18 -->
<g id="Node000018" class="node">
<title>Node18</title>
<g id="a_Node000018"><a xlink:title=" ">
<polygon fill="#e0e0e0" stroke="#999999" points="784.5,-259 709.5,-259 709.5,-236 784.5,-236 784.5,-259"/>
<text text-anchor="middle" x="747" y="-243.8" font-family="Arial" font-size="14.00">esp_log.h</text>
</a>
</g>
</g>
<!-- Node1&#45;&gt;Node18 -->
<g id="edge28_Node000001_Node000018" class="edge">
<title>Node1&#45;&gt;Node18</title>
<g id="a_edge28_Node000001_Node000018"><a xlink:title=" ">
<path fill="none" stroke="#63b8ff" d="M747,-294.78C747,-287.61 747,-277.95 747,-269.31"/>
<polygon fill="#63b8ff" stroke="#63b8ff" points="750.5,-269.17 747,-259.17 743.5,-269.17 750.5,-269.17"/>
</a>
</g>
</g>
<!-- Node19 -->
<g id="Node000019" class="node">
<title>Node19</title>
<g id="a_Node000019"><a xlink:title=" ">
<polygon fill="#e0e0e0" stroke="#999999" points="889.5,-259 802.5,-259 802.5,-236 889.5,-236 889.5,-259"/>
<text text-anchor="middle" x="846" y="-243.8" font-family="Arial" font-size="14.00">esp_timer.h</text>
</a>
</g>
</g>
<!-- Node1&#45;&gt;Node19 -->
<g id="edge29_Node000001_Node000019" class="edge">
<title>Node1&#45;&gt;Node19</title>
<g id="a_edge29_Node000001_Node000019"><a xlink:title=" ">
<path fill="none" stroke="#63b8ff" d="M765.62,-294.78C780.56,-286.18 801.73,-273.99 818.6,-264.28"/>
<polygon fill="#63b8ff" stroke="#63b8ff" points="820.54,-267.2 827.46,-259.17 817.05,-261.13 820.54,-267.2"/>
</a>
</g>
</g>
<!-- Node20 -->
<g id="Node000020" class="node">
<title>Node20</title>
<g id="a_Node000020"><a xlink:title=" ">
<polygon fill="#e0e0e0" stroke="#999999" points="1050.5,-259 907.5,-259 907.5,-236 1050.5,-236 1050.5,-259"/>
<text text-anchor="middle" x="979" y="-243.8" font-family="Arial" font-size="14.00">freertos/FreeRTOS.h</text>
</a>
</g>
</g>
<!-- Node1&#45;&gt;Node20 -->
<g id="edge30_Node000001_Node000020" class="edge">
<title>Node1&#45;&gt;Node20</title>
<g id="a_edge30_Node000001_Node000020"><a xlink:title=" ">
<path fill="none" stroke="#63b8ff" d="M789.82,-294.98C828.29,-285.53 884.89,-271.62 926.16,-261.48"/>
<polygon fill="#63b8ff" stroke="#63b8ff" points="927.16,-264.84 936.03,-259.06 925.49,-258.04 927.16,-264.84"/>
</a>
</g>
</g>
<!-- Node21 -->
<g id="Node000021" class="node">
<title>Node21</title>
<g id="a_Node000021"><a xlink:title=" ">
<polygon fill="#e0e0e0" stroke="#999999" points="1171,-259 1069,-259 1069,-236 1171,-236 1171,-259"/>
<text text-anchor="middle" x="1120" y="-243.8" font-family="Arial" font-size="14.00">freertos/task.h</text>
</a>
</g>
</g>
<!-- Node1&#45;&gt;Node21 -->
<g id="edge31_Node000001_Node000021" class="edge">
<title>Node1&#45;&gt;Node21</title>
<g id="a_edge31_Node000001_Node000021"><a xlink:title=" ">
<path fill="none" stroke="#63b8ff" d="M821.39,-295C882.51,-286.24 971.61,-273.19 1058.87,-259.15"/>
<polygon fill="#63b8ff" stroke="#63b8ff" points="1059.64,-262.57 1068.95,-257.53 1058.52,-255.66 1059.64,-262.57"/>
</a>
</g>
</g>
<!-- Node3 -->
<g id="Node000003" class="node">
<title>Node3</title>
<g id="a_Node000003"><a xlink:href="McuSelect_8h.html" target="_top" xlink:title="Centralized MCU platform selection and configuration header.">
<polygon fill="white" stroke="#666666" points="92,-82 0,-82 0,-59 92,-59 92,-82"/>
<text text-anchor="middle" x="46" y="-66.8" font-family="Arial" font-size="14.00">McuSelect.h</text>
</a>
</g>
</g>
<!-- Node2&#45;&gt;Node3 -->
<g id="edge2_Node000002_Node000003" class="edge">
<title>Node2&#45;&gt;Node3</title>
<g id="a_edge2_Node000002_Node000003"><a xlink:title=" ">
<path fill="none" stroke="#63b8ff" d="M448.83,-245.46C368.14,-242.65 183.41,-232.72 131,-200 89.98,-174.39 64.5,-120.86 53.08,-91.62"/>
<polygon fill="#63b8ff" stroke="#63b8ff" points="56.28,-90.19 49.5,-82.04 49.72,-92.64 56.28,-90.19"/>
</a>
</g>
</g>
<!-- Node4 -->
<g id="Node000004" class="node">
<title>Node4</title>
<g id="a_Node000004"><a xlink:title=" ">
<polygon fill="#e0e0e0" stroke="#999999" points="639.5,-200 558.5,-200 558.5,-177 639.5,-177 639.5,-200"/>
<text text-anchor="middle" x="599" y="-184.8" font-family="Arial" font-size="14.00">esp_twai.h</text>
</a>
</g>
</g>
<!-- Node2&#45;&gt;Node4 -->
<g id="edge3_Node000002_Node000004" class="edge">
<title>Node2&#45;&gt;Node4</title>
<g id="a_edge3_Node000002_Node000004"><a xlink:title=" ">
<path fill="none" stroke="#63b8ff" d="M507.8,-235.91C525.09,-227.11 549.91,-214.49 569.29,-204.62"/>
<polygon fill="#63b8ff" stroke="#63b8ff" points="570.98,-207.69 578.31,-200.03 567.81,-201.45 570.98,-207.69"/>
</a>
</g>
</g>
<!-- Node5 -->
<g id="Node000005" class="node">
<title>Node5</title>
<g id="a_Node000005"><a xlink:title=" ">
<polygon fill="#e0e0e0" stroke="#999999" points="786,-200 658,-200 658,-177 786,-177 786,-200"/>
<text text-anchor="middle" x="722" y="-184.8" font-family="Arial" font-size="14.00">esp_twai_onchip.h</text>
</a>
</g>
</g>
<!-- Node2&#45;&gt;Node5 -->
<g id="edge4_Node000002_Node000005" class="edge">
<title>Node2&#45;&gt;Node5</title>
<g id="a_edge4_Node000002_Node000005"><a xlink:title=" ">
<path fill="none" stroke="#63b8ff" d="M525.02,-237.28C563.94,-227.84 624.78,-213.08 668.55,-202.47"/>
<polygon fill="#63b8ff" stroke="#63b8ff" points="669.55,-205.82 678.44,-200.06 667.9,-199.02 669.55,-205.82"/>
</a>
</g>
</g>
<!-- Node6 -->
<g id="Node000006" class="node">
<title>Node6</title>
<g id="a_Node000006"><a xlink:href="BaseCan_8h.html" target="_top" xlink:title="Abstract base class for CAN bus implementations in the HardFOC system.">
<polygon fill="white" stroke="#666666" points="379.5,-141 296.5,-141 296.5,-118 379.5,-118 379.5,-141"/>
<text text-anchor="middle" x="338" y="-125.8" font-family="Arial" font-size="14.00">BaseCan.h</text>
</a>
</g>
</g>
<!-- Node2&#45;&gt;Node6 -->
<g id="edge5_Node000002_Node000006" class="edge">
<title>Node2&#45;&gt;Node6</title>
<g id="a_edge5_Node000002_Node000006"><a xlink:title=" ">
<path fill="none" stroke="#63b8ff" d="M473.25,-235.79C447.3,-215.6 390.94,-171.72 359.79,-147.46"/>
<polygon fill="#63b8ff" stroke="#63b8ff" points="361.76,-144.56 351.72,-141.18 357.46,-150.08 361.76,-144.56"/>
</a>
</g>
</g>
<!-- Node10 -->
<g id="Node000010" class="node">
<title>Node10</title>
<g id="a_Node000010"><a xlink:title=" ">
<polygon fill="#e0e0e0" stroke="#999999" points="485.5,-82 428.5,-82 428.5,-59 485.5,-59 485.5,-82"/>
<text text-anchor="middle" x="457" y="-66.8" font-family="Arial" font-size="14.00">atomic</text>
</a>
</g>
</g>
<!-- Node2&#45;&gt;Node10 -->
<g id="edge24_Node000002_Node000010" class="edge">
<title>Node2&#45;&gt;Node10</title>
<g id="a_edge24_Node000002_Node000010"><a xlink:title=" ">
<path fill="none" stroke="#63b8ff" d="M494.96,-235.97C511.04,-213.32 544.12,-158.72 523,-118 516.14,-104.78 503.62,-94.53 491.3,-87.05"/>
<polygon fill="#63b8ff" stroke="#63b8ff" points="492.89,-83.93 482.46,-82.1 489.47,-90.04 492.89,-83.93"/>
</a>
</g>
</g>
<!-- Node12 -->
<g id="Node000012" class="node">
<title>Node12</title>
<g id="a_Node000012"><a xlink:href="PlatformMutex_8h.html" target="_top" xlink:title="Cross&#45;platform mutex and synchronization primitives with pluggable backend.">
<polygon fill="white" stroke="#666666" points="514,-141 398,-141 398,-118 514,-118 514,-141"/>
<text text-anchor="middle" x="456" y="-125.8" font-family="Arial" font-size="14.00">PlatformMutex.h</text>
</a>
</g>
</g>
<!-- Node2&#45;&gt;Node12 -->
<g id="edge12_Node000002_Node000012" class="edge">
<title>Node2&#45;&gt;Node12</title>
<g id="a_edge12_Node000002_Node000012"><a xlink:title=" ">
<path fill="none" stroke="#63b8ff" d="M484.14,-235.79C478.99,-216.55 468.1,-175.79 461.48,-151.01"/>
<polygon fill="#63b8ff" stroke="#63b8ff" points="464.82,-149.94 458.85,-141.18 458.05,-151.74 464.82,-149.94"/>
</a>
</g>
</g>
<!-- Node13 -->
<g id="Node000013" class="node">
<title>Node13</title>
<g id="a_Node000013"><a xlink:href="EspTypes__CAN_8h.html" target="_top" xlink:title="ESP32 CAN type definitions for hardware abstraction.">
<polygon fill="white" stroke="#666666" points="291.5,-200 140.5,-200 140.5,-177 291.5,-177 291.5,-200"/>
<text text-anchor="middle" x="216" y="-184.8" font-family="Arial" font-size="14.00">utils/EspTypes_CAN.h</text>
</a>
</g>
</g>
<!-- Node2&#45;&gt;Node13 -->
<g id="edge15_Node000002_Node000013" class="edge">
<title>Node2&#45;&gt;Node13</title>
<g id="a_edge15_Node000002_Node000013"><a xlink:title=" ">
<path fill="none" stroke="#63b8ff" d="M448.75,-238.45C403.79,-229 328.64,-213.19 275.93,-202.11"/>
<polygon fill="#63b8ff" stroke="#63b8ff" points="276.54,-198.66 266.03,-200.02 275.1,-205.51 276.54,-198.66"/>
</a>
</g>
</g>
<!-- Node15 -->
<g id="Node000015" class="node">
<title>Node15</title>
<g id="a_Node000015"><a xlink:title=" ">
<polygon fill="#e0e0e0" stroke="#999999" points="871.5,-200 804.5,-200 804.5,-177 871.5,-177 871.5,-200"/>
<text text-anchor="middle" x="838" y="-184.8" font-family="Arial" font-size="14.00">memory</text>
</a>
</g>
</g>
<!-- Node2&#45;&gt;Node15 -->
<g id="edge25_Node000002_Node000015" class="edge">
<title>Node2&#45;&gt;Node15</title>
<g id="a_edge25_Node000002_Node000015"><a xlink:title=" ">
<path fill="none" stroke="#63b8ff" d="M525.2,-237.86C528.51,-237.2 531.81,-236.57 535,-236 646.71,-216.08 678.67,-221.54 794.32,-199.97"/>
<polygon fill="#63b8ff" stroke="#63b8ff" points="795.1,-203.38 804.27,-198.08 793.79,-196.5 795.1,-203.38"/>
</a>
</g>
</g>
<!-- Node7 -->
<g id="Node000007" class="node">
<title>Node7</title>
<g id="a_Node000007"><a xlink:href="HardwareTypes_8h.html" target="_top" xlink:title="Platform&#45;agnostic hardware type definitions for the HardFOC system.">
<polygon fill="white" stroke="#666666" points="232,-82 110,-82 110,-59 232,-59 232,-82"/>
<text text-anchor="middle" x="171" y="-66.8" font-family="Arial" font-size="14.00">HardwareTypes.h</text>
</a>
</g>
</g>
<!-- Node6&#45;&gt;Node7 -->
<g id="edge6_Node000006_Node000007" class="edge">
<title>Node6&#45;&gt;Node7</title>
<g id="a_edge6_Node000006_Node000007"><a xlink:title=" ">
<path fill="none" stroke="#63b8ff" d="M306.98,-117.91C280.03,-108.71 240.82,-95.33 211.42,-85.29"/>
<polygon fill="#63b8ff" stroke="#63b8ff" points="212.45,-81.95 201.85,-82.03 210.19,-88.57 212.45,-81.95"/>
</a>
</g>
</g>
<!-- Node8 -->
<g id="Node000008" class="node">
<title>Node8</title>
<g id="a_Node000008"><a xlink:title=" ">
<polygon fill="#e0e0e0" stroke="#999999" points="307,-23 251,-23 251,0 307,0 307,-23"/>
<text text-anchor="middle" x="279" y="-7.8" font-family="Arial" font-size="14.00">cstdint</text>
</a>
</g>
</g>
<!-- Node6&#45;&gt;Node8 -->
<g id="edge10_Node000006_Node000008" class="edge">
<title>Node6&#45;&gt;Node8</title>
<g id="a_edge10_Node000006_Node000008"><a xlink:title=" ">
<path fill="none" stroke="#63b8ff" d="M332.56,-117.79C322.68,-98.37 301.66,-57.06 289.09,-32.35"/>
<polygon fill="#63b8ff" stroke="#63b8ff" points="292.08,-30.51 284.43,-23.18 285.85,-33.68 292.08,-30.51"/>
</a>
</g>
</g>
<!-- Node6&#45;&gt;Node10 -->
<g id="edge9_Node000006_Node000010" class="edge">
<title>Node6&#45;&gt;Node10</title>
<g id="a_edge9_Node000006_Node000010"><a xlink:title=" ">
<path fill="none" stroke="#63b8ff" d="M360.1,-117.91C378.64,-109.03 405.32,-96.26 425.99,-86.35"/>
<polygon fill="#63b8ff" stroke="#63b8ff" points="427.51,-89.51 435.01,-82.03 424.48,-83.19 427.51,-89.51"/>
</a>
</g>
</g>
<!-- Node11 -->
<g id="Node000011" class="node">
<title>Node11</title>
<g id="a_Node000011"><a xlink:title=" ">
<polygon fill="#e0e0e0" stroke="#999999" points="410,-82 326,-82 326,-59 410,-59 410,-82"/>
<text text-anchor="middle" x="368" y="-66.8" font-family="Arial" font-size="14.00">string_view</text>
</a>
</g>
</g>
<!-- Node6&#45;&gt;Node11 -->
<g id="edge11_Node000006_Node000011" class="edge">
<title>Node6&#45;&gt;Node11</title>
<g id="a_edge11_Node000006_Node000011"><a xlink:title=" ">
<path fill="none" stroke="#63b8ff" d="M343.64,-117.78C347.58,-110.29 352.95,-100.09 357.65,-91.16"/>
<polygon fill="#63b8ff" stroke="#63b8ff" points="360.82,-92.65 362.38,-82.17 354.63,-89.39 360.82,-92.65"/>
</a>
</g>
</g>
<!-- Node7&#45;&gt;Node8 -->
<g id="edge7_Node000007_Node000008" class="edge">
<title>Node7&#45;&gt;Node8</title>
<g id="a_edge7_Node000007_Node000008"><a xlink:title=" ">
<path fill="none" stroke="#63b8ff" d="M191.06,-58.91C207.66,-50.15 231.44,-37.6 250.09,-27.76"/>
<polygon fill="#63b8ff" stroke="#63b8ff" points="251.84,-30.79 259.05,-23.03 248.57,-24.6 251.84,-30.79"/>
</a>
</g>
</g>
<!-- Node9 -->
<g id="Node000009" class="node">
<title>Node9</title>
<g id="a_Node000009"><a xlink:title=" ">
<polygon fill="#e0e0e0" stroke="#999999" points="195,-23 147,-23 147,0 195,0 195,-23"/>
<text text-anchor="middle" x="171" y="-7.8" font-family="Arial" font-size="14.00">limits</text>
</a>
</g>
</g>
<!-- Node7&#45;&gt;Node9 -->
<g id="edge8_Node000007_Node000009" class="edge">
<title>Node7&#45;&gt;Node9</title>
<g id="a_edge8_Node000007_Node000009"><a xlink:title=" ">
<path fill="none" stroke="#63b8ff" d="M171,-58.78C171,-51.61 171,-41.95 171,-33.31"/>
<polygon fill="#63b8ff" stroke="#63b8ff" points="174.5,-33.17 171,-23.17 167.5,-33.17 174.5,-33.17"/>
</a>
</g>
</g>
<!-- Node12&#45;&gt;Node8 -->
<g id="edge14_Node000012_Node000008" class="edge">
<title>Node12&#45;&gt;Node8</title>
<g id="a_edge14_Node000012_Node000008"><a xlink:title=" ">
<path fill="none" stroke="#63b8ff" d="M469.53,-117.93C486.13,-103.69 510.3,-77.94 495,-59 473.09,-31.88 373.38,-19.83 317.41,-15.12"/>
<polygon fill="#63b8ff" stroke="#63b8ff" points="317.42,-11.61 307.17,-14.3 316.86,-18.59 317.42,-11.61"/>
</a>
</g>
</g>
<!-- Node12&#45;&gt;Node10 -->
<g id="edge13_Node000012_Node000010" class="edge">
<title>Node12&#45;&gt;Node10</title>
<g id="a_edge13_Node000012_Node000010"><a xlink:title=" ">
<path fill="none" stroke="#63b8ff" d="M456.19,-117.78C456.31,-110.61 456.48,-100.95 456.63,-92.31"/>
<polygon fill="#63b8ff" stroke="#63b8ff" points="460.14,-92.23 456.81,-82.17 453.14,-92.11 460.14,-92.23"/>
</a>
</g>
</g>
<!-- Node13&#45;&gt;Node3 -->
<g id="edge23_Node000013_Node000003" class="edge">
<title>Node13&#45;&gt;Node3</title>
<g id="a_edge23_Node000013_Node000003"><a xlink:title=" ">
<path fill="none" stroke="#63b8ff" d="M197.05,-176.98C181.03,-167.9 157.62,-154.2 138,-141 113.02,-124.19 85.64,-103.15 67.3,-88.64"/>
<polygon fill="#63b8ff" stroke="#63b8ff" points="69.08,-85.59 59.07,-82.1 64.72,-91.06 69.08,-85.59"/>
</a>
</g>
</g>
<!-- Node13&#45;&gt;Node6 -->
<g id="edge16_Node000013_Node000006" class="edge">
<title>Node13&#45;&gt;Node6</title>
<g id="a_edge16_Node000013_Node000006"><a xlink:title=" ">
<path fill="none" stroke="#63b8ff" d="M238.66,-176.91C257.66,-168.03 285.01,-155.26 306.21,-145.35"/>
<polygon fill="#63b8ff" stroke="#63b8ff" points="307.88,-148.43 315.46,-141.03 304.92,-142.09 307.88,-148.43"/>
</a>
</g>
</g>
<!-- Node13&#45;&gt;Node7 -->
<g id="edge22_Node000013_Node000007" class="edge">
<title>Node13&#45;&gt;Node7</title>
<g id="a_edge22_Node000013_Node000007"><a xlink:title=" ">
<path fill="none" stroke="#63b8ff" d="M187.59,-176.87C172,-169.4 154.04,-157.72 145,-141 136.17,-124.67 145.52,-104.7 155.38,-90.37"/>
<polygon fill="#63b8ff" stroke="#63b8ff" points="158.26,-92.36 161.43,-82.25 152.64,-88.18 158.26,-92.36"/>
</a>
</g>
</g>
<!-- Node14 -->
<g id="Node000014" class="node">
<title>Node14</title>
<g id="a_Node000014"><a xlink:href="EspTypes__Base_8h.html" target="_top" xlink:title="ESP32 base type definitions for hardware abstraction.">
<polygon fill="white" stroke="#666666" points="278.5,-141 153.5,-141 153.5,-118 278.5,-118 278.5,-141"/>
<text text-anchor="middle" x="216" y="-125.8" font-family="Arial" font-size="14.00">EspTypes_Base.h</text>
</a>
</g>
</g>
<!-- Node13&#45;&gt;Node14 -->
<g id="edge17_Node000013_Node000014" class="edge">
<title>Node13&#45;&gt;Node14</title>
<g id="a_edge17_Node000013_Node000014"><a xlink:title=" ">
<path fill="none" stroke="#63b8ff" d="M216,-176.78C216,-169.61 216,-159.95 216,-151.31"/>
<polygon fill="#63b8ff" stroke="#63b8ff" points="219.5,-151.17 216,-141.17 212.5,-151.17 219.5,-151.17"/>
</a>
</g>
</g>
<!-- Node14&#45;&gt;Node3 -->
<g id="edge18_Node000014_Node000003" class="edge">
<title>Node14&#45;&gt;Node3</title>
<g id="a_edge18_Node000014_Node000003"><a xlink:title=" ">
<path fill="none" stroke="#63b8ff" d="M184.42,-117.91C156.99,-108.71 117.07,-95.33 87.14,-85.29"/>
<polygon fill="#63b8ff" stroke="#63b8ff" points="88,-81.89 77.41,-82.03 85.78,-88.53 88,-81.89"/>
</a>
</g>
</g>
<!-- Node14&#45;&gt;Node7 -->
<g id="edge19_Node000014_Node000007" class="edge">
<title>Node14&#45;&gt;Node7</title>
<g id="a_edge19_Node000014_Node000007"><a xlink:title=" ">
<path fill="none" stroke="#63b8ff" d="M207.54,-117.78C201.38,-109.98 192.88,-99.21 185.63,-90.03"/>
<polygon fill="#63b8ff" stroke="#63b8ff" points="188.37,-87.85 179.43,-82.17 182.88,-92.19 188.37,-87.85"/>
</a>
</g>
</g>
<!-- Node14&#45;&gt;Node8 -->
<g id="edge21_Node000014_Node000008" class="edge">
<title>Node14&#45;&gt;Node8</title>
<g id="a_edge21_Node000014_Node000008"><a xlink:title=" ">
<path fill="none" stroke="#63b8ff" d="M221.81,-117.79C232.41,-98.29 255,-56.69 268.4,-32.02"/>
<polygon fill="#63b8ff" stroke="#63b8ff" points="271.5,-33.64 273.2,-23.18 265.35,-30.3 271.5,-33.64"/>
</a>
</g>
</g>
<!-- Node14&#45;&gt;Node10 -->
<g id="edge20_Node000014_Node000010" class="edge">
<title>Node14&#45;&gt;Node10</title>
<g id="a_edge20_Node000014_Node000010"><a xlink:title=" ">
<path fill="none" stroke="#63b8ff" d="M264.96,-117.92C303.99,-109.35 360.27,-96.66 418.64,-82.01"/>
<polygon fill="#63b8ff" stroke="#63b8ff" points="419.56,-85.39 428.4,-79.55 417.85,-78.6 419.56,-85.39"/>
</a>
</g>
</g>
</g>
</svg>

<g id="navigator" transform="translate(0 0)" fill="#404254">
  <rect fill="#f2f5e9" fill-opacity="0.5" stroke="#606060" stroke-width=".5" x="0" y="0" width="60" height="60"/>
  <use id="zoomplus" xlink:href="#zoomPlus" x="17" y="9" onmousedown="handleZoom(evt,'in')"/>
  <use id="zoomminus" xlink:href="#zoomMin" x="42" y="9" onmousedown="handleZoom(evt,'out')"/>
  <use id="reset" xlink:href="#resetDef" x="30" y="36" onmousedown="handleReset()"/>
   <use id="arrowup" xlink:href="#arrowUp" x="0" y="0" onmousedown="handlePan(0,-1)"/>
  <use id="arrowright" xlink:href="#arrowRight" x="0" y="0" onmousedown="handlePan(1,0)"/>
  <use id="arrowdown" xlink:href="#arrowDown" x="0" y="0" onmousedown="handlePan(0,1)"/>
  <use id="arrowleft" xlink:href="#arrowLeft" x="0" y="0" onmousedown="handlePan(-1,0)"/>
</g>
<svg viewBox="0 0 15 15" width="100%" height="30px" preserveAspectRatio="xMaxYMin meet">
 <g id="arrow_out" transform="scale(0.3 0.3)">
  <a xlink:href="EspCan_8cpp__incl_org.svg" target="_base">
   <rect id="button" ry="5" rx="5" y="6" x="6" height="38" width="38"
        fill="#f2f5e9" fill-opacity="0.5" stroke="#606060" stroke-width="1.0"/>
   <path id="arrow"
     d="M 11.500037,31.436501 C 11.940474,20.09759 22.043105,11.32322 32.158766,21.979434 L 37.068811,17.246167 C 37.068811,17.246167 37.088388,32 37.088388,32 L 22.160133,31.978069 C 22.160133,31.978069 26.997745,27.140456 26.997745,27.140456 C 18.528582,18.264221 13.291696,25.230495 11.500037,31.436501 z"
     style="fill:#404040;"/>
  </a>
 </g>
</svg>

<style type='text/css'>
<![CDATA[
[data-mouse-over-selected='false'] { opacity: 0.7; }
[data-mouse-over-selected='true']  { opacity: 1.0; }
]]>
</style>
<script type="application/ecmascript"><![CDATA[
document.addEventListener('DOMContentLoaded', (event) => {
  highlightEdges();
  highlightAdjacentNodes();
});
]]></script>
</svg>
