<?xml version="1.0" encoding="UTF-8" standalone="no"?>
<!DOCTYPE svg PUBLIC "-//W3C//DTD SVG 1.1//EN"
 "http://www.w3.org/Graphics/SVG/1.1/DTD/svg11.dtd">
<!-- Generated by graphviz version 2.43.0 (0)
 -->
<!-- Title: inc/mcu/esp32/EspGpio.h Pages: 1 -->
<svg width="3714pt" height="194pt"
 viewBox="0.00 0.00 3714.00 194.00" xmlns="http://www.w3.org/2000/svg" xmlns:xlink="http://www.w3.org/1999/xlink">
<g id="graph0" class="graph" transform="scale(1 1) rotate(0) translate(4 190)">
<title>inc/mcu/esp32/EspGpio.h</title>
<!-- Node1 -->
<g id="Node000001" class="node">
<title>Node1</title>
<g id="a_Node000001"><a xlink:title="Advanced MCU&#45;specific implementation of the unified BaseGpio class with ESP32/ESP&#45;IDF v5....">
<polygon fill="#999999" stroke="#666666" points="975.5,-186 803.5,-186 803.5,-163 975.5,-163 975.5,-186"/>
<text text-anchor="middle" x="889.5" y="-170.8" font-family="Arial" font-size="14.00">inc/mcu/esp32/EspGpio.h</text>
</a>
</g>
</g>
<!-- Node2 -->
<g id="Node000002" class="node">
<title>Node2</title>
<g id="a_Node000002"><a xlink:href="DigitalOutputGuardComprehensiveTest_8cpp.html" target="_top" xlink:title="DigitalOutputGuard comprehensive test suite for ESP32&#45;C6 DevKit&#45;M&#45;1.">
<polygon fill="white" stroke="#666666" points="233,-53 0,-53 0,0 233,0 233,-53"/>
<text text-anchor="start" x="8" y="-37.8" font-family="Arial" font-size="14.00">examples/esp32/main</text>
<text text-anchor="start" x="8" y="-22.8" font-family="Arial" font-size="14.00">/DigitalOutputGuardComprehensive</text>
<text text-anchor="middle" x="116.5" y="-7.8" font-family="Arial" font-size="14.00">Test.cpp</text>
</a>
</g>
</g>
<!-- Node1&#45;&gt;Node2 -->
<g id="edge1_Node000001_Node000002" class="edge">
<title>Node1&#45;&gt;Node2</title>
<g id="a_edge1_Node000001_Node000002"><a xlink:title=" ">
<path fill="none" stroke="#63b8ff" d="M793.36,-161.97C727.58,-153.58 638.5,-141.23 560.5,-127 442.96,-105.56 309.32,-74.72 219.64,-53.07"/>
<polygon fill="#63b8ff" stroke="#63b8ff" points="792.94,-165.45 803.3,-163.23 793.82,-158.5 792.94,-165.45"/>
</a>
</g>
</g>
<!-- Node3 -->
<g id="Node000003" class="node">
<title>Node3</title>
<g id="a_Node000003"><a xlink:href="GpioComprehensiveTest_8cpp.html" target="_top" xlink:title="Comprehensive GPIO testing suite for ESP32&#45;C6 DevKit&#45;M&#45;1 (noexcept)">
<polygon fill="white" stroke="#666666" points="446,-45.5 251,-45.5 251,-7.5 446,-7.5 446,-45.5"/>
<text text-anchor="start" x="259" y="-30.3" font-family="Arial" font-size="14.00">examples/esp32/main</text>
<text text-anchor="middle" x="348.5" y="-15.3" font-family="Arial" font-size="14.00">/GpioComprehensiveTest.cpp</text>
</a>
</g>
</g>
<!-- Node1&#45;&gt;Node3 -->
<g id="edge2_Node000001_Node000003" class="edge">
<title>Node1&#45;&gt;Node3</title>
<g id="a_edge2_Node000001_Node000003"><a xlink:title=" ">
<path fill="none" stroke="#63b8ff" d="M834.62,-160.62C796.6,-151.57 744.86,-138.98 699.5,-127 597.38,-100.04 479.37,-65.99 409.5,-45.52"/>
<polygon fill="#63b8ff" stroke="#63b8ff" points="833.93,-164.06 844.47,-162.96 835.55,-157.25 833.93,-164.06"/>
</a>
</g>
</g>
<!-- Node4 -->
<g id="Node000004" class="node">
<title>Node4</title>
<g id="a_Node000004"><a xlink:href="I2cComprehensiveTest_8cpp.html" target="_top" xlink:title="Comprehensive I2C testing suite for ESP32&#45;C6 DevKit&#45;M&#45;1 (noexcept)">
<polygon fill="white" stroke="#666666" points="648.5,-45.5 464.5,-45.5 464.5,-7.5 648.5,-7.5 648.5,-45.5"/>
<text text-anchor="start" x="472.5" y="-30.3" font-family="Arial" font-size="14.00">examples/esp32/main</text>
<text text-anchor="middle" x="556.5" y="-15.3" font-family="Arial" font-size="14.00">/I2cComprehensiveTest.cpp</text>
</a>
</g>
</g>
<!-- Node1&#45;&gt;Node4 -->
<g id="edge3_Node000001_Node000004" class="edge">
<title>Node1&#45;&gt;Node4</title>
<g id="a_edge3_Node000001_Node000004"><a xlink:title=" ">
<path fill="none" stroke="#63b8ff" d="M856.06,-158.84C794.75,-131.96 664.54,-74.87 597.81,-45.61"/>
<polygon fill="#63b8ff" stroke="#63b8ff" points="854.72,-162.07 865.28,-162.88 857.53,-155.66 854.72,-162.07"/>
</a>
</g>
</g>
<!-- Node5 -->
<g id="Node000005" class="node">
<title>Node5</title>
<g id="a_Node000005"><a xlink:href="PioComprehensiveTest_8cpp.html" target="_top" xlink:title="Comprehensive PIO testing suite for ESP32&#45;C6 DevKit&#45;M&#45;1 with RMT peripheral (noexcept)">
<polygon fill="white" stroke="#666666" points="852,-45.5 667,-45.5 667,-7.5 852,-7.5 852,-45.5"/>
<text text-anchor="start" x="675" y="-30.3" font-family="Arial" font-size="14.00">examples/esp32/main</text>
<text text-anchor="middle" x="759.5" y="-15.3" font-family="Arial" font-size="14.00">/PioComprehensiveTest.cpp</text>
</a>
</g>
</g>
<!-- Node1&#45;&gt;Node5 -->
<g id="edge4_Node000001_Node000005" class="edge">
<title>Node1&#45;&gt;Node5</title>
<g id="a_edge4_Node000001_Node000005"><a xlink:title=" ">
<path fill="none" stroke="#63b8ff" d="M873.01,-154.98C847.96,-126.85 800.64,-73.7 775.74,-45.74"/>
<polygon fill="#63b8ff" stroke="#63b8ff" points="870.46,-157.39 879.73,-162.53 875.69,-152.73 870.46,-157.39"/>
</a>
</g>
</g>
<!-- Node6 -->
<g id="Node000006" class="node">
<title>Node6</title>
<g id="a_Node000006"><a xlink:href="PwmComprehensiveTest_8cpp.html" target="_top" xlink:title="Comprehensive PWM testing suite for ESP32 family (noexcept)">
<polygon fill="white" stroke="#666666" points="1067,-45.5 870,-45.5 870,-7.5 1067,-7.5 1067,-45.5"/>
<text text-anchor="start" x="878" y="-30.3" font-family="Arial" font-size="14.00">examples/esp32/main</text>
<text text-anchor="middle" x="968.5" y="-15.3" font-family="Arial" font-size="14.00">/PwmComprehensiveTest.cpp</text>
</a>
</g>
</g>
<!-- Node1&#45;&gt;Node6 -->
<g id="edge5_Node000001_Node000006" class="edge">
<title>Node1&#45;&gt;Node6</title>
<g id="a_edge5_Node000001_Node000006"><a xlink:title=" ">
<path fill="none" stroke="#63b8ff" d="M900.32,-153.51C915.72,-125.03 943.76,-73.22 958.63,-45.74"/>
<polygon fill="#63b8ff" stroke="#63b8ff" points="897.12,-152.07 895.44,-162.53 903.28,-155.4 897.12,-152.07"/>
</a>
</g>
</g>
<!-- Node7 -->
<g id="Node000007" class="node">
<title>Node7</title>
<g id="a_Node000007"><a xlink:href="TestFramework_8h.html" target="_top" xlink:title="Shared testing framework for ESP32&#45;C6 comprehensive test suites.">
<polygon fill="white" stroke="#666666" points="1740,-127 1591,-127 1591,-89 1740,-89 1740,-127"/>
<text text-anchor="start" x="1599" y="-111.8" font-family="Arial" font-size="14.00">examples/esp32/main</text>
<text text-anchor="middle" x="1665.5" y="-96.8" font-family="Arial" font-size="14.00">/TestFramework.h</text>
</a>
</g>
</g>
<!-- Node1&#45;&gt;Node7 -->
<g id="edge6_Node000001_Node000007" class="edge">
<title>Node1&#45;&gt;Node7</title>
<g id="a_edge6_Node000001_Node000007"><a xlink:title=" ">
<path fill="none" stroke="#63b8ff" d="M985.61,-165.51C1142.29,-152.49 1449.44,-126.96 1590.91,-115.2"/>
<polygon fill="#63b8ff" stroke="#63b8ff" points="985.19,-162.03 975.51,-166.35 985.77,-169.01 985.19,-162.03"/>
</a>
</g>
</g>
<!-- Node17 -->
<g id="Node000017" class="node">
<title>Node17</title>
<g id="a_Node000017"><a xlink:href="UartComprehensiveTest_8cpp.html" target="_top" xlink:title="Comprehensive UART testing suite for ESP32&#45;C6 DevKit&#45;M&#45;1 (noexcept)">
<polygon fill="white" stroke="#666666" points="3706,-45.5 3515,-45.5 3515,-7.5 3706,-7.5 3706,-45.5"/>
<text text-anchor="start" x="3523" y="-30.3" font-family="Arial" font-size="14.00">examples/esp32/main</text>
<text text-anchor="middle" x="3610.5" y="-15.3" font-family="Arial" font-size="14.00">/UartComprehensiveTest.cpp</text>
</a>
</g>
</g>
<!-- Node1&#45;&gt;Node17 -->
<g id="edge24_Node000001_Node000017" class="edge">
<title>Node1&#45;&gt;Node17</title>
<g id="a_edge24_Node000001_Node000017"><a xlink:title=" ">
<path fill="none" stroke="#63b8ff" d="M985.65,-172.23C1195.54,-168.89 1681.48,-157.9 1749.5,-127 1770.96,-117.25 1764.88,-98.39 1786.5,-89 1874.16,-50.92 3411.74,-65.46 3506.5,-53 3519.59,-51.28 3533.41,-48.55 3546.56,-45.51"/>
<polygon fill="#63b8ff" stroke="#63b8ff" points="985.5,-168.73 975.56,-172.39 985.61,-175.73 985.5,-168.73"/>
</a>
</g>
</g>
<!-- Node20 -->
<g id="Node000020" class="node">
<title>Node20</title>
<g id="a_Node000020"><a xlink:href="EspGpio_8cpp.html" target="_top" xlink:title="Production&#45;quality ESP32 GPIO implementation with ESP&#45;IDF v5.5+ advanced features.">
<polygon fill="white" stroke="#666666" points="1982,-119.5 1795,-119.5 1795,-96.5 1982,-96.5 1982,-119.5"/>
<text text-anchor="middle" x="1888.5" y="-104.3" font-family="Arial" font-size="14.00">src/mcu/esp32/EspGpio.cpp</text>
</a>
</g>
</g>
<!-- Node1&#45;&gt;Node20 -->
<g id="edge25_Node000001_Node000020" class="edge">
<title>Node1&#45;&gt;Node20</title>
<g id="a_edge25_Node000001_Node000020"><a xlink:title=" ">
<path fill="none" stroke="#63b8ff" d="M985.61,-172.1C1149.4,-168.9 1492.93,-158.69 1781.5,-127 1798.45,-125.14 1816.78,-122.34 1833.41,-119.51"/>
<polygon fill="#63b8ff" stroke="#63b8ff" points="985.49,-168.6 975.56,-172.29 985.63,-175.6 985.49,-168.6"/>
</a>
</g>
</g>
<!-- Node7&#45;&gt;Node2 -->
<g id="edge11_Node000007_Node000002" class="edge">
<title>Node7&#45;&gt;Node2</title>
<g id="a_edge11_Node000007_Node000002"><a xlink:title=" ">
<path fill="none" stroke="#63b8ff" d="M1580.26,-105.6C1314.46,-100.93 502.98,-84.42 241.5,-53 238.75,-52.67 235.97,-52.31 233.17,-51.93"/>
<polygon fill="#63b8ff" stroke="#63b8ff" points="1580.56,-109.1 1590.62,-105.78 1580.68,-102.1 1580.56,-109.1"/>
</a>
</g>
</g>
<!-- Node7&#45;&gt;Node3 -->
<g id="edge12_Node000007_Node000003" class="edge">
<title>Node7&#45;&gt;Node3</title>
<g id="a_edge12_Node000007_Node000003"><a xlink:title=" ">
<path fill="none" stroke="#63b8ff" d="M1580.61,-105.3C1342.79,-100.22 673.26,-83.53 455.5,-53 442.45,-51.17 428.66,-48.48 415.48,-45.51"/>
<polygon fill="#63b8ff" stroke="#63b8ff" points="1580.85,-108.81 1590.92,-105.52 1581,-101.81 1580.85,-108.81"/>
</a>
</g>
</g>
<!-- Node7&#45;&gt;Node4 -->
<g id="edge13_Node000007_Node000004" class="edge">
<title>Node7&#45;&gt;Node4</title>
<g id="a_edge13_Node000007_Node000004"><a xlink:title=" ">
<path fill="none" stroke="#63b8ff" d="M1580.74,-104.57C1371.5,-98.24 834.59,-79.84 657.5,-53 645.25,-51.14 632.33,-48.46 619.96,-45.51"/>
<polygon fill="#63b8ff" stroke="#63b8ff" points="1580.66,-108.07 1590.76,-104.88 1580.87,-101.08 1580.66,-108.07"/>
</a>
</g>
</g>
<!-- Node7&#45;&gt;Node5 -->
<g id="edge16_Node000007_Node000005" class="edge">
<title>Node7&#45;&gt;Node5</title>
<g id="a_edge16_Node000007_Node000005"><a xlink:title=" ">
<path fill="none" stroke="#63b8ff" d="M1580.59,-106.32C1433.18,-104.03 1120.74,-94.24 860.5,-53 848.44,-51.09 835.72,-48.41 823.53,-45.51"/>
<polygon fill="#63b8ff" stroke="#63b8ff" points="1580.87,-109.83 1590.92,-106.47 1580.97,-102.83 1580.87,-109.83"/>
</a>
</g>
</g>
<!-- Node7&#45;&gt;Node6 -->
<g id="edge17_Node000007_Node000006" class="edge">
<title>Node7&#45;&gt;Node6</title>
<g id="a_edge17_Node000007_Node000006"><a xlink:title=" ">
<path fill="none" stroke="#63b8ff" d="M1580.56,-102.96C1465.65,-96.65 1254.56,-82.04 1076.5,-53 1064.14,-50.98 1051.09,-48.35 1038.51,-45.54"/>
<polygon fill="#63b8ff" stroke="#63b8ff" points="1580.52,-106.47 1590.69,-103.51 1580.9,-99.48 1580.52,-106.47"/>
</a>
</g>
</g>
<!-- Node8 -->
<g id="Node000008" class="node">
<title>Node8</title>
<g id="a_Node000008"><a xlink:href="AdcComprehensiveTest_8cpp.html" target="_top" xlink:title="Comprehensive ADC testing suite for ESP32&#45;C6 DevKit&#45;M&#45;1 (noexcept)">
<polygon fill="white" stroke="#666666" points="2180,-45.5 1991,-45.5 1991,-7.5 2180,-7.5 2180,-45.5"/>
<text text-anchor="start" x="1999" y="-30.3" font-family="Arial" font-size="14.00">examples/esp32/main</text>
<text text-anchor="middle" x="2085.5" y="-15.3" font-family="Arial" font-size="14.00">/AdcComprehensiveTest.cpp</text>
</a>
</g>
</g>
<!-- Node7&#45;&gt;Node8 -->
<g id="edge7_Node000007_Node000008" class="edge">
<title>Node7&#45;&gt;Node8</title>
<g id="a_edge7_Node000007_Node000008"><a xlink:title=" ">
<path fill="none" stroke="#63b8ff" d="M1750.26,-89.59C1751.34,-89.39 1752.43,-89.19 1753.5,-89 1854.88,-70.67 1881.51,-73.4 1982.5,-53 1993.42,-50.79 2004.94,-48.21 2016.15,-45.54"/>
<polygon fill="#63b8ff" stroke="#63b8ff" points="1749.53,-86.17 1740.35,-91.45 1750.82,-93.05 1749.53,-86.17"/>
</a>
</g>
</g>
<!-- Node9 -->
<g id="Node000009" class="node">
<title>Node9</title>
<g id="a_Node000009"><a xlink:href="AsciiArtComprehensiveTest_8cpp.html" target="_top" xlink:title="ASCII Art Generator comprehensive example and test suite for ESP32&#45;C6 DevKit&#45;M&#45;1 (noexcept)">
<polygon fill="white" stroke="#666666" points="2410.5,-45.5 2198.5,-45.5 2198.5,-7.5 2410.5,-7.5 2410.5,-45.5"/>
<text text-anchor="start" x="2206.5" y="-30.3" font-family="Arial" font-size="14.00">examples/esp32/main</text>
<text text-anchor="middle" x="2304.5" y="-15.3" font-family="Arial" font-size="14.00">/AsciiArtComprehensiveTest.cpp</text>
</a>
</g>
</g>
<!-- Node7&#45;&gt;Node9 -->
<g id="edge8_Node000007_Node000009" class="edge">
<title>Node7&#45;&gt;Node9</title>
<g id="a_edge8_Node000007_Node000009"><a xlink:title=" ">
<path fill="none" stroke="#63b8ff" d="M1750.24,-89.48C1751.33,-89.31 1752.42,-89.15 1753.5,-89 1945.98,-61.47 1997.25,-82.11 2189.5,-53 2202.74,-50.99 2216.74,-48.35 2230.23,-45.51"/>
<polygon fill="#63b8ff" stroke="#63b8ff" points="1749.61,-86.03 1740.29,-91.07 1750.71,-92.95 1749.61,-86.03"/>
</a>
</g>
</g>
<!-- Node10 -->
<g id="Node000010" class="node">
<title>Node10</title>
<g id="a_Node000010"><a xlink:href="BluetoothComprehensiveTest_8cpp.html" target="_top" xlink:title="Comprehensive Bluetooth/NimBLE testing suite for ESP32&#45;C6 DevKit&#45;M&#45;1 (noexcept)">
<polygon fill="white" stroke="#666666" points="2651,-45.5 2428,-45.5 2428,-7.5 2651,-7.5 2651,-45.5"/>
<text text-anchor="start" x="2436" y="-30.3" font-family="Arial" font-size="14.00">examples/esp32/main</text>
<text text-anchor="middle" x="2539.5" y="-15.3" font-family="Arial" font-size="14.00">/BluetoothComprehensiveTest.cpp</text>
</a>
</g>
</g>
<!-- Node7&#45;&gt;Node10 -->
<g id="edge9_Node000007_Node000010" class="edge">
<title>Node7&#45;&gt;Node10</title>
<g id="a_edge9_Node000007_Node000010"><a xlink:title=" ">
<path fill="none" stroke="#63b8ff" d="M1750.23,-89.43C1751.33,-89.28 1752.42,-89.14 1753.5,-89 2047.51,-51.19 2125.63,-91.93 2419.5,-53 2433.75,-51.11 2448.83,-48.45 2463.31,-45.55"/>
<polygon fill="#63b8ff" stroke="#63b8ff" points="1749.64,-85.98 1740.27,-90.92 1750.67,-92.91 1749.64,-85.98"/>
</a>
</g>
</g>
<!-- Node11 -->
<g id="Node000011" class="node">
<title>Node11</title>
<g id="a_Node000011"><a xlink:href="CanComprehensiveTest_8cpp.html" target="_top" xlink:title="Comprehensive CAN testing suite for ESP32&#45;C6 with ESP&#45;IDF v5.5 TWAI API and SN65 transceiver.">
<polygon fill="white" stroke="#666666" points="2860,-45.5 2669,-45.5 2669,-7.5 2860,-7.5 2860,-45.5"/>
<text text-anchor="start" x="2677" y="-30.3" font-family="Arial" font-size="14.00">examples/esp32/main</text>
<text text-anchor="middle" x="2764.5" y="-15.3" font-family="Arial" font-size="14.00">/CanComprehensiveTest.cpp</text>
</a>
</g>
</g>
<!-- Node7&#45;&gt;Node11 -->
<g id="edge10_Node000007_Node000011" class="edge">
<title>Node7&#45;&gt;Node11</title>
<g id="a_edge10_Node000007_Node000011"><a xlink:title=" ">
<path fill="none" stroke="#63b8ff" d="M1750.23,-89.41C1751.33,-89.27 1752.42,-89.13 1753.5,-89 2153.99,-40.42 2261.02,-109.32 2660.5,-53 2673.29,-51.2 2686.81,-48.49 2699.7,-45.51"/>
<polygon fill="#63b8ff" stroke="#63b8ff" points="1749.66,-85.96 1740.26,-90.85 1750.65,-92.89 1749.66,-85.96"/>
</a>
</g>
</g>
<!-- Node12 -->
<g id="Node000012" class="node">
<title>Node12</title>
<g id="a_Node000012"><a xlink:href="LoggerComprehensiveTest_8cpp.html" target="_top" xlink:title="Comprehensive Logger testing suite for ESP32&#45;C6 DevKit&#45;M&#45;1 (noexcept)">
<polygon fill="white" stroke="#666666" points="3086.5,-45.5 2878.5,-45.5 2878.5,-7.5 3086.5,-7.5 3086.5,-45.5"/>
<text text-anchor="start" x="2886.5" y="-30.3" font-family="Arial" font-size="14.00">examples/esp32/main</text>
<text text-anchor="middle" x="2982.5" y="-15.3" font-family="Arial" font-size="14.00">/LoggerComprehensiveTest.cpp</text>
</a>
</g>
</g>
<!-- Node7&#45;&gt;Node12 -->
<g id="edge14_Node000007_Node000012" class="edge">
<title>Node7&#45;&gt;Node12</title>
<g id="a_edge14_Node000007_Node000012"><a xlink:title=" ">
<path fill="none" stroke="#63b8ff" d="M1750.23,-89.4C1751.33,-89.26 1752.42,-89.13 1753.5,-89 2246.36,-31.07 2377.24,-115.9 2869.5,-53 2883.36,-51.23 2898.03,-48.54 2912.04,-45.56"/>
<polygon fill="#63b8ff" stroke="#63b8ff" points="1749.66,-85.95 1740.25,-90.81 1750.64,-92.88 1749.66,-85.95"/>
</a>
</g>
</g>
<!-- Node13 -->
<g id="Node000013" class="node">
<title>Node13</title>
<g id="a_Node000013"><a xlink:href="NvsComprehensiveTest_8cpp.html" target="_top" xlink:title="Comprehensive NVS (Non&#45;Volatile Storage) testing suite for ESP32&#45;C6 DevKit&#45;M&#45;1 (noexcept)">
<polygon fill="white" stroke="#666666" points="3294,-45.5 3105,-45.5 3105,-7.5 3294,-7.5 3294,-45.5"/>
<text text-anchor="start" x="3113" y="-30.3" font-family="Arial" font-size="14.00">examples/esp32/main</text>
<text text-anchor="middle" x="3199.5" y="-15.3" font-family="Arial" font-size="14.00">/NvsComprehensiveTest.cpp</text>
</a>
</g>
</g>
<!-- Node7&#45;&gt;Node13 -->
<g id="edge15_Node000007_Node000013" class="edge">
<title>Node7&#45;&gt;Node13</title>
<g id="a_edge15_Node000007_Node000013"><a xlink:title=" ">
<path fill="none" stroke="#63b8ff" d="M1750.23,-89.39C1751.32,-89.26 1752.42,-89.12 1753.5,-89 2346.27,-20.96 2504.16,-132.5 3095.5,-53 3108.49,-51.25 3122.21,-48.54 3135.28,-45.51"/>
<polygon fill="#63b8ff" stroke="#63b8ff" points="1749.67,-85.94 1740.25,-90.78 1750.64,-92.87 1749.67,-85.94"/>
</a>
</g>
</g>
<!-- Node14 -->
<g id="Node000014" class="node">
<title>Node14</title>
<g id="a_Node000014"><a xlink:href="SpiComprehensiveTest_8cpp.html" target="_top" xlink:title="Comprehensive SPI testing suite for ESP32&#45;C6 DevKit&#45;M&#45;1 (noexcept)">
<polygon fill="white" stroke="#666666" points="3497,-45.5 3312,-45.5 3312,-7.5 3497,-7.5 3497,-45.5"/>
<text text-anchor="start" x="3320" y="-30.3" font-family="Arial" font-size="14.00">examples/esp32/main</text>
<text text-anchor="middle" x="3404.5" y="-15.3" font-family="Arial" font-size="14.00">/SpiComprehensiveTest.cpp</text>
</a>
</g>
</g>
<!-- Node7&#45;&gt;Node14 -->
<g id="edge18_Node000007_Node000014" class="edge">
<title>Node7&#45;&gt;Node14</title>
<g id="a_edge18_Node000007_Node000014"><a xlink:title=" ">
<path fill="none" stroke="#63b8ff" d="M1750.23,-89.39C1751.32,-89.25 1752.42,-89.12 1753.5,-89 2438.22,-11.65 2620.72,-145.92 3303.5,-53 3316.13,-51.28 3329.47,-48.57 3342.16,-45.56"/>
<polygon fill="#63b8ff" stroke="#63b8ff" points="1749.67,-85.93 1740.25,-90.77 1750.63,-92.86 1749.67,-85.93"/>
</a>
</g>
</g>
<!-- Node15 -->
<g id="Node000015" class="node">
<title>Node15</title>
<g id="a_Node000015"><a xlink:href="TemperatureComprehensiveTest_8cpp.html" target="_top" xlink:title="Comprehensive Temperature sensor testing suite for ESP32&#45;C6 DevKit&#45;M&#45;1 (noexcept)">
<polygon fill="white" stroke="#666666" points="1327.5,-45.5 1085.5,-45.5 1085.5,-7.5 1327.5,-7.5 1327.5,-45.5"/>
<text text-anchor="start" x="1093.5" y="-30.3" font-family="Arial" font-size="14.00">examples/esp32/main</text>
<text text-anchor="middle" x="1206.5" y="-15.3" font-family="Arial" font-size="14.00">/TemperatureComprehensiveTest.cpp</text>
</a>
</g>
</g>
<!-- Node7&#45;&gt;Node15 -->
<g id="edge19_Node000007_Node000015" class="edge">
<title>Node7&#45;&gt;Node15</title>
<g id="a_edge19_Node000007_Node000015"><a xlink:title=" ">
<path fill="none" stroke="#63b8ff" d="M1580.89,-93.85C1514.37,-83.34 1419.4,-67.93 1336.5,-53 1323.6,-50.68 1310,-48.12 1296.65,-45.56"/>
<polygon fill="#63b8ff" stroke="#63b8ff" points="1580.48,-97.33 1590.91,-95.43 1581.58,-90.42 1580.48,-97.33"/>
</a>
</g>
</g>
<!-- Node16 -->
<g id="Node000016" class="node">
<title>Node16</title>
<g id="a_Node000016"><a xlink:href="TimerComprehensiveTest_8cpp.html" target="_top" xlink:title="ESP32&#45;C6 Periodic Timer Comprehensive Test Suite v2.0.">
<polygon fill="white" stroke="#666666" points="1547,-45.5 1346,-45.5 1346,-7.5 1547,-7.5 1547,-45.5"/>
<text text-anchor="start" x="1354" y="-30.3" font-family="Arial" font-size="14.00">examples/esp32/main</text>
<text text-anchor="middle" x="1446.5" y="-15.3" font-family="Arial" font-size="14.00">/TimerComprehensiveTest.cpp</text>
</a>
</g>
</g>
<!-- Node7&#45;&gt;Node16 -->
<g id="edge20_Node000007_Node000016" class="edge">
<title>Node7&#45;&gt;Node16</title>
<g id="a_edge20_Node000007_Node000016"><a xlink:title=" ">
<path fill="none" stroke="#63b8ff" d="M1606.34,-85.52C1571.94,-73.04 1529.06,-57.47 1496.38,-45.61"/>
<polygon fill="#63b8ff" stroke="#63b8ff" points="1605.21,-88.84 1615.81,-88.96 1607.6,-82.26 1605.21,-88.84"/>
</a>
</g>
</g>
<!-- Node7&#45;&gt;Node17 -->
<g id="edge21_Node000007_Node000017" class="edge">
<title>Node7&#45;&gt;Node17</title>
<g id="a_edge21_Node000007_Node000017"><a xlink:title=" ">
<path fill="none" stroke="#63b8ff" d="M1750.23,-89.38C1751.32,-89.25 1752.42,-89.12 1753.5,-89 2140.73,-45.78 3120.17,-103.7 3506.5,-53 3519.59,-51.28 3533.41,-48.56 3546.56,-45.51"/>
<polygon fill="#63b8ff" stroke="#63b8ff" points="1749.68,-85.93 1740.25,-90.75 1750.63,-92.86 1749.68,-85.93"/>
</a>
</g>
</g>
<!-- Node18 -->
<g id="Node000018" class="node">
<title>Node18</title>
<g id="a_Node000018"><a xlink:href="UsbSerialJtagComprehensiveTest_8cpp.html" target="_top" xlink:title="Comprehensive test suite for the EspUsbSerialJtag wrapper (noexcept).">
<polygon fill="white" stroke="#666666" points="1765.5,-53 1565.5,-53 1565.5,0 1765.5,0 1765.5,-53"/>
<text text-anchor="start" x="1573.5" y="-37.8" font-family="Arial" font-size="14.00">examples/esp32/main</text>
<text text-anchor="start" x="1573.5" y="-22.8" font-family="Arial" font-size="14.00">/UsbSerialJtagComprehensive</text>
<text text-anchor="middle" x="1665.5" y="-7.8" font-family="Arial" font-size="14.00">Test.cpp</text>
</a>
</g>
</g>
<!-- Node7&#45;&gt;Node18 -->
<g id="edge22_Node000007_Node000018" class="edge">
<title>Node7&#45;&gt;Node18</title>
<g id="a_edge22_Node000007_Node000018"><a xlink:title=" ">
<path fill="none" stroke="#63b8ff" d="M1665.5,-78.83C1665.5,-70.42 1665.5,-61.24 1665.5,-53"/>
<polygon fill="#63b8ff" stroke="#63b8ff" points="1662,-78.96 1665.5,-88.96 1669,-78.96 1662,-78.96"/>
</a>
</g>
</g>
<!-- Node19 -->
<g id="Node000019" class="node">
<title>Node19</title>
<g id="a_Node000019"><a xlink:href="WifiComprehensiveTest_8cpp.html" target="_top" xlink:title="Comprehensive WiFi testing suite for ESP32&#45;C6 DevKit&#45;M&#45;1 with ESP&#45;IDF v5.5f.">
<polygon fill="white" stroke="#666666" points="1973,-45.5 1784,-45.5 1784,-7.5 1973,-7.5 1973,-45.5"/>
<text text-anchor="start" x="1792" y="-30.3" font-family="Arial" font-size="14.00">examples/esp32/main</text>
<text text-anchor="middle" x="1878.5" y="-15.3" font-family="Arial" font-size="14.00">/WifiComprehensiveTest.cpp</text>
</a>
</g>
</g>
<!-- Node7&#45;&gt;Node19 -->
<g id="edge23_Node000007_Node000019" class="edge">
<title>Node7&#45;&gt;Node19</title>
<g id="a_edge23_Node000007_Node000019"><a xlink:title=" ">
<path fill="none" stroke="#63b8ff" d="M1723.47,-85.36C1756.85,-72.9 1798.34,-57.42 1829.99,-45.61"/>
<polygon fill="#63b8ff" stroke="#63b8ff" points="1721.98,-82.18 1713.83,-88.96 1724.43,-88.74 1721.98,-82.18"/>
</a>
</g>
</g>
</g>
</svg>
