<?xml version="1.0" encoding="UTF-8" standalone="no"?>
<!DOCTYPE svg PUBLIC "-//W3C//DTD SVG 1.1//EN"
 "http://www.w3.org/Graphics/SVG/1.1/DTD/svg11.dtd">
<!-- Generated by graphviz version 2.43.0 (0)
 -->
<!-- Title: inc/mcu/esp32/EspGpio.h Pages: 1 -->
<svg width="637pt" height="267pt"
 viewBox="0.00 0.00 636.50 267.00" xmlns="http://www.w3.org/2000/svg" xmlns:xlink="http://www.w3.org/1999/xlink">
<g id="graph0" class="graph" transform="scale(1 1) rotate(0) translate(4 263)">
<title>inc/mcu/esp32/EspGpio.h</title>
<!-- Node1 -->
<g id="Node000001" class="node">
<title>Node1</title>
<g id="a_Node000001"><a xlink:title="Advanced MCU&#45;specific implementation of the unified BaseGpio class with ESP32/ESP&#45;IDF v5....">
<polygon fill="#999999" stroke="#666666" points="299.5,-259 127.5,-259 127.5,-236 299.5,-236 299.5,-259"/>
<text text-anchor="middle" x="213.5" y="-243.8" font-family="Arial" font-size="14.00">inc/mcu/esp32/EspGpio.h</text>
</a>
</g>
</g>
<!-- Node2 -->
<g id="Node000002" class="node">
<title>Node2</title>
<g id="a_Node000002"><a xlink:title=" ">
<polygon fill="#e0e0e0" stroke="#999999" points="91,-200 0,-200 0,-177 91,-177 91,-200"/>
<text text-anchor="middle" x="45.5" y="-184.8" font-family="Arial" font-size="14.00">driver/gpio.h</text>
</a>
</g>
</g>
<!-- Node1&#45;&gt;Node2 -->
<g id="edge1_Node000001_Node000002" class="edge">
<title>Node1&#45;&gt;Node2</title>
<g id="a_edge1_Node000001_Node000002"><a xlink:title=" ">
<path fill="none" stroke="#63b8ff" d="M182.29,-235.91C155.18,-226.71 115.73,-213.33 86.16,-203.29"/>
<polygon fill="#63b8ff" stroke="#63b8ff" points="87.13,-199.93 76.54,-200.03 84.88,-206.56 87.13,-199.93"/>
</a>
</g>
</g>
<!-- Node3 -->
<g id="Node000003" class="node">
<title>Node3</title>
<g id="a_Node000003"><a xlink:title=" ">
<polygon fill="#e0e0e0" stroke="#999999" points="185.5,-200 109.5,-200 109.5,-177 185.5,-177 185.5,-200"/>
<text text-anchor="middle" x="147.5" y="-184.8" font-family="Arial" font-size="14.00">esp_attr.h</text>
</a>
</g>
</g>
<!-- Node1&#45;&gt;Node3 -->
<g id="edge2_Node000001_Node000003" class="edge">
<title>Node1&#45;&gt;Node3</title>
<g id="a_edge2_Node000001_Node000003"><a xlink:title=" ">
<path fill="none" stroke="#63b8ff" d="M201.09,-235.78C191.68,-227.66 178.57,-216.33 167.67,-206.92"/>
<polygon fill="#63b8ff" stroke="#63b8ff" points="169.71,-204.06 159.86,-200.17 165.14,-209.36 169.71,-204.06"/>
</a>
</g>
</g>
<!-- Node4 -->
<g id="Node000004" class="node">
<title>Node4</title>
<g id="a_Node000004"><a xlink:href="BaseGpio_8h.html" target="_top" xlink:title="Unified GPIO base class for all digital GPIO implementations.">
<polygon fill="white" stroke="#666666" points="257.5,-141 169.5,-141 169.5,-118 257.5,-118 257.5,-141"/>
<text text-anchor="middle" x="213.5" y="-125.8" font-family="Arial" font-size="14.00">BaseGpio.h</text>
</a>
</g>
</g>
<!-- Node1&#45;&gt;Node4 -->
<g id="edge3_Node000001_Node000004" class="edge">
<title>Node1&#45;&gt;Node4</title>
<g id="a_edge3_Node000001_Node000004"><a xlink:title=" ">
<path fill="none" stroke="#63b8ff" d="M213.5,-235.79C213.5,-216.63 213.5,-176.15 213.5,-151.34"/>
<polygon fill="#63b8ff" stroke="#63b8ff" points="217,-151.18 213.5,-141.18 210,-151.18 217,-151.18"/>
</a>
</g>
</g>
<!-- Node9 -->
<g id="Node000009" class="node">
<title>Node9</title>
<g id="a_Node000009"><a xlink:href="EspTypes__GPIO_8h.html" target="_top" xlink:title="ESP32 GPIO type definitions for hardware abstraction.">
<polygon fill="white" stroke="#666666" points="371.5,-200 241.5,-200 241.5,-177 371.5,-177 371.5,-200"/>
<text text-anchor="middle" x="306.5" y="-184.8" font-family="Arial" font-size="14.00">EspTypes_GPIO.h</text>
</a>
</g>
</g>
<!-- Node1&#45;&gt;Node9 -->
<g id="edge9_Node000001_Node000009" class="edge">
<title>Node1&#45;&gt;Node9</title>
<g id="a_edge9_Node000001_Node000009"><a xlink:title=" ">
<path fill="none" stroke="#63b8ff" d="M230.99,-235.78C244.89,-227.26 264.55,-215.21 280.32,-205.55"/>
<polygon fill="#63b8ff" stroke="#63b8ff" points="282.39,-208.38 289.09,-200.17 278.73,-202.41 282.39,-208.38"/>
</a>
</g>
</g>
<!-- Node13 -->
<g id="Node000013" class="node">
<title>Node13</title>
<g id="a_Node000013"><a xlink:title=" ">
<polygon fill="#e0e0e0" stroke="#999999" points="445.5,-200 389.5,-200 389.5,-177 445.5,-177 445.5,-200"/>
<text text-anchor="middle" x="417.5" y="-184.8" font-family="Arial" font-size="14.00">stdio.h</text>
</a>
</g>
</g>
<!-- Node1&#45;&gt;Node13 -->
<g id="edge18_Node000001_Node000013" class="edge">
<title>Node1&#45;&gt;Node13</title>
<g id="a_edge18_Node000001_Node000013"><a xlink:title=" ">
<path fill="none" stroke="#63b8ff" d="M251.65,-235.93C283.4,-227.13 330.03,-214.17 379.33,-200.32"/>
<polygon fill="#63b8ff" stroke="#63b8ff" points="380.54,-203.62 389.22,-197.54 378.65,-196.88 380.54,-203.62"/>
</a>
</g>
</g>
<!-- Node5 -->
<g id="Node000005" class="node">
<title>Node5</title>
<g id="a_Node000005"><a xlink:href="HardwareTypes_8h.html" target="_top" xlink:title="Platform&#45;agnostic hardware type definitions for the HardFOC system.">
<polygon fill="white" stroke="#666666" points="354.5,-82 232.5,-82 232.5,-59 354.5,-59 354.5,-82"/>
<text text-anchor="middle" x="293.5" y="-66.8" font-family="Arial" font-size="14.00">HardwareTypes.h</text>
</a>
</g>
</g>
<!-- Node4&#45;&gt;Node5 -->
<g id="edge4_Node000004_Node000005" class="edge">
<title>Node4&#45;&gt;Node5</title>
<g id="a_edge4_Node000004_Node000005"><a xlink:title=" ">
<path fill="none" stroke="#63b8ff" d="M228.55,-117.78C240.28,-109.42 256.78,-97.66 270.22,-88.09"/>
<polygon fill="#63b8ff" stroke="#63b8ff" points="272.41,-90.83 278.52,-82.17 268.34,-85.13 272.41,-90.83"/>
</a>
</g>
</g>
<!-- Node6 -->
<g id="Node000006" class="node">
<title>Node6</title>
<g id="a_Node000006"><a xlink:title=" ">
<polygon fill="#e0e0e0" stroke="#999999" points="356.5,-23 300.5,-23 300.5,0 356.5,0 356.5,-23"/>
<text text-anchor="middle" x="328.5" y="-7.8" font-family="Arial" font-size="14.00">cstdint</text>
</a>
</g>
</g>
<!-- Node4&#45;&gt;Node6 -->
<g id="edge7_Node000004_Node000006" class="edge">
<title>Node4&#45;&gt;Node6</title>
<g id="a_edge7_Node000004_Node000006"><a xlink:title=" ">
<path fill="none" stroke="#63b8ff" d="M212.07,-117.89C210.68,-103.14 210.4,-76.29 223.5,-59 232.19,-47.54 264.43,-34.22 290.93,-24.79"/>
<polygon fill="#63b8ff" stroke="#63b8ff" points="292.08,-28.09 300.37,-21.5 289.78,-21.48 292.08,-28.09"/>
</a>
</g>
</g>
<!-- Node8 -->
<g id="Node000008" class="node">
<title>Node8</title>
<g id="a_Node000008"><a xlink:title=" ">
<polygon fill="#e0e0e0" stroke="#999999" points="176.5,-82 92.5,-82 92.5,-59 176.5,-59 176.5,-82"/>
<text text-anchor="middle" x="134.5" y="-66.8" font-family="Arial" font-size="14.00">string_view</text>
</a>
</g>
</g>
<!-- Node4&#45;&gt;Node8 -->
<g id="edge8_Node000004_Node000008" class="edge">
<title>Node4&#45;&gt;Node8</title>
<g id="a_edge8_Node000004_Node000008"><a xlink:title=" ">
<path fill="none" stroke="#63b8ff" d="M198.64,-117.78C187.05,-109.42 170.76,-97.66 157.49,-88.09"/>
<polygon fill="#63b8ff" stroke="#63b8ff" points="159.45,-85.19 149.29,-82.17 155.35,-90.86 159.45,-85.19"/>
</a>
</g>
</g>
<!-- Node5&#45;&gt;Node6 -->
<g id="edge5_Node000005_Node000006" class="edge">
<title>Node5&#45;&gt;Node6</title>
<g id="a_edge5_Node000005_Node000006"><a xlink:title=" ">
<path fill="none" stroke="#63b8ff" d="M300.08,-58.78C304.73,-51.22 311.08,-40.87 316.6,-31.88"/>
<polygon fill="#63b8ff" stroke="#63b8ff" points="319.7,-33.53 321.95,-23.17 313.73,-29.86 319.7,-33.53"/>
</a>
</g>
</g>
<!-- Node7 -->
<g id="Node000007" class="node">
<title>Node7</title>
<g id="a_Node000007"><a xlink:title=" ">
<polygon fill="#e0e0e0" stroke="#999999" points="282.5,-23 234.5,-23 234.5,0 282.5,0 282.5,-23"/>
<text text-anchor="middle" x="258.5" y="-7.8" font-family="Arial" font-size="14.00">limits</text>
</a>
</g>
</g>
<!-- Node5&#45;&gt;Node7 -->
<g id="edge6_Node000005_Node000007" class="edge">
<title>Node5&#45;&gt;Node7</title>
<g id="a_edge6_Node000005_Node000007"><a xlink:title=" ">
<path fill="none" stroke="#63b8ff" d="M286.92,-58.78C282.27,-51.22 275.92,-40.87 270.4,-31.88"/>
<polygon fill="#63b8ff" stroke="#63b8ff" points="273.27,-29.86 265.05,-23.17 267.3,-33.53 273.27,-29.86"/>
</a>
</g>
</g>
<!-- Node9&#45;&gt;Node4 -->
<g id="edge10_Node000009_Node000004" class="edge">
<title>Node9&#45;&gt;Node4</title>
<g id="a_edge10_Node000009_Node000004"><a xlink:title=" ">
<path fill="none" stroke="#63b8ff" d="M289.01,-176.78C275.11,-168.26 255.45,-156.21 239.68,-146.55"/>
<polygon fill="#63b8ff" stroke="#63b8ff" points="241.27,-143.41 230.91,-141.17 237.61,-149.38 241.27,-143.41"/>
</a>
</g>
</g>
<!-- Node9&#45;&gt;Node5 -->
<g id="edge16_Node000009_Node000005" class="edge">
<title>Node9&#45;&gt;Node5</title>
<g id="a_edge16_Node000009_Node000005"><a xlink:title=" ">
<path fill="none" stroke="#63b8ff" d="M305.3,-176.79C303.15,-157.63 298.62,-117.15 295.84,-92.34"/>
<polygon fill="#63b8ff" stroke="#63b8ff" points="299.29,-91.73 294.7,-82.18 292.33,-92.51 299.29,-91.73"/>
</a>
</g>
</g>
<!-- Node10 -->
<g id="Node000010" class="node">
<title>Node10</title>
<g id="a_Node000010"><a xlink:href="EspTypes__Base_8h.html" target="_top" xlink:title="ESP32 base type definitions for hardware abstraction.">
<polygon fill="white" stroke="#666666" points="447,-141 322,-141 322,-118 447,-118 447,-141"/>
<text text-anchor="middle" x="384.5" y="-125.8" font-family="Arial" font-size="14.00">EspTypes_Base.h</text>
</a>
</g>
</g>
<!-- Node9&#45;&gt;Node10 -->
<g id="edge11_Node000009_Node000010" class="edge">
<title>Node9&#45;&gt;Node10</title>
<g id="a_edge11_Node000009_Node000010"><a xlink:title=" ">
<path fill="none" stroke="#63b8ff" d="M321.17,-176.78C332.61,-168.42 348.7,-156.66 361.8,-147.09"/>
<polygon fill="#63b8ff" stroke="#63b8ff" points="363.89,-149.9 369.89,-141.17 359.76,-144.25 363.89,-149.9"/>
</a>
</g>
</g>
<!-- Node11 -->
<g id="Node000011" class="node">
<title>Node11</title>
<g id="a_Node000011"><a xlink:href="McuSelect_8h.html" target="_top" xlink:title="Centralized MCU platform selection and configuration header.">
<polygon fill="white" stroke="#666666" points="628.5,-82 486.5,-82 486.5,-59 628.5,-59 628.5,-82"/>
<text text-anchor="middle" x="557.5" y="-66.8" font-family="Arial" font-size="14.00">../../utils/McuSelect.h</text>
</a>
</g>
</g>
<!-- Node9&#45;&gt;Node11 -->
<g id="edge17_Node000009_Node000011" class="edge">
<title>Node9&#45;&gt;Node11</title>
<g id="a_edge17_Node000009_Node000011"><a xlink:title=" ">
<path fill="none" stroke="#63b8ff" d="M353.16,-176.92C383.48,-169.12 423.38,-157.06 456.5,-141 486.36,-126.51 517.32,-103.89 536.95,-88.42"/>
<polygon fill="#63b8ff" stroke="#63b8ff" points="539.27,-91.05 544.89,-82.07 534.89,-85.58 539.27,-91.05"/>
</a>
</g>
</g>
<!-- Node10&#45;&gt;Node5 -->
<g id="edge13_Node000010_Node000005" class="edge">
<title>Node10&#45;&gt;Node5</title>
<g id="a_edge13_Node000010_Node000005"><a xlink:title=" ">
<path fill="none" stroke="#63b8ff" d="M367.38,-117.78C353.78,-109.26 334.55,-97.21 319.12,-87.55"/>
<polygon fill="#63b8ff" stroke="#63b8ff" points="320.87,-84.52 310.54,-82.17 317.16,-90.45 320.87,-84.52"/>
</a>
</g>
</g>
<!-- Node10&#45;&gt;Node6 -->
<g id="edge15_Node000010_Node000006" class="edge">
<title>Node10&#45;&gt;Node6</title>
<g id="a_edge15_Node000010_Node000006"><a xlink:title=" ">
<path fill="none" stroke="#63b8ff" d="M382.47,-117.7C379.56,-103.64 373.42,-78.56 363.5,-59 358.48,-49.1 351.32,-39.14 344.79,-30.98"/>
<polygon fill="#63b8ff" stroke="#63b8ff" points="347.41,-28.66 338.32,-23.22 342.04,-33.15 347.41,-28.66"/>
</a>
</g>
</g>
<!-- Node10&#45;&gt;Node11 -->
<g id="edge12_Node000010_Node000011" class="edge">
<title>Node10&#45;&gt;Node11</title>
<g id="a_edge12_Node000010_Node000011"><a xlink:title=" ">
<path fill="none" stroke="#63b8ff" d="M416.63,-117.91C444.67,-108.67 485.53,-95.21 516.03,-85.16"/>
<polygon fill="#63b8ff" stroke="#63b8ff" points="517.14,-88.48 525.54,-82.03 514.94,-81.84 517.14,-88.48"/>
</a>
</g>
</g>
<!-- Node12 -->
<g id="Node000012" class="node">
<title>Node12</title>
<g id="a_Node000012"><a xlink:title=" ">
<polygon fill="#e0e0e0" stroke="#999999" points="468,-82 411,-82 411,-59 468,-59 468,-82"/>
<text text-anchor="middle" x="439.5" y="-66.8" font-family="Arial" font-size="14.00">atomic</text>
</a>
</g>
</g>
<!-- Node10&#45;&gt;Node12 -->
<g id="edge14_Node000010_Node000012" class="edge">
<title>Node10&#45;&gt;Node12</title>
<g id="a_edge14_Node000010_Node000012"><a xlink:title=" ">
<path fill="none" stroke="#63b8ff" d="M394.85,-117.78C402.53,-109.82 413.18,-98.77 422.16,-89.47"/>
<polygon fill="#63b8ff" stroke="#63b8ff" points="424.78,-91.8 429.2,-82.17 419.74,-86.94 424.78,-91.8"/>
</a>
</g>
</g>
</g>
</svg>
