<?xml version="1.0" encoding="UTF-8" standalone="no"?>
<!DOCTYPE svg PUBLIC "-//W3C//DTD SVG 1.1//EN"
 "http://www.w3.org/Graphics/SVG/1.1/DTD/svg11.dtd">
<!-- Generated by graphviz version 2.43.0 (0)
 -->
<!-- Title: inc/mcu/esp32/EspNvs.h Pages: 1 -->
<svg width="529pt" height="267pt"
 viewBox="0.00 0.00 529.33 267.00" xmlns="http://www.w3.org/2000/svg" xmlns:xlink="http://www.w3.org/1999/xlink">
<g id="graph0" class="graph" transform="scale(1 1) rotate(0) translate(4 263)">
<title>inc/mcu/esp32/EspNvs.h</title>
<!-- Node1 -->
<g id="Node000001" class="node">
<title>Node1</title>
<g id="a_Node000001"><a xlink:title="World&#45;class ESP32&#45;C6 NVS storage implementation with ESP&#45;IDF v5.5+ features.">
<polygon fill="#999999" stroke="#666666" points="196.33,-259 30.33,-259 30.33,-236 196.33,-236 196.33,-259"/>
<text text-anchor="middle" x="113.33" y="-243.8" font-family="Arial" font-size="14.00">inc/mcu/esp32/EspNvs.h</text>
</a>
</g>
</g>
<!-- Node2 -->
<g id="Node000002" class="node">
<title>Node2</title>
<g id="a_Node000002"><a xlink:href="BaseNvs_8h.html" target="_top" xlink:title="Abstract base class for Non&#45;Volatile Storage implementations in the HardFOC system.">
<polygon fill="white" stroke="#666666" points="93.33,-141 11.33,-141 11.33,-118 93.33,-118 93.33,-141"/>
<text text-anchor="middle" x="52.33" y="-125.8" font-family="Arial" font-size="14.00">BaseNvs.h</text>
</a>
</g>
</g>
<!-- Node1&#45;&gt;Node2 -->
<g id="edge1_Node000001_Node000002" class="edge">
<title>Node1&#45;&gt;Node2</title>
<g id="a_edge1_Node000001_Node000002"><a xlink:title=" ">
<path fill="none" stroke="#63b8ff" d="M107.7,-235.79C97.49,-216.37 75.76,-175.06 62.77,-150.35"/>
<polygon fill="#63b8ff" stroke="#63b8ff" points="65.7,-148.4 57.95,-141.18 59.51,-151.66 65.7,-148.4"/>
</a>
</g>
</g>
<!-- Node4 -->
<g id="Node000004" class="node">
<title>Node4</title>
<g id="a_Node000004"><a xlink:title=" ">
<polygon fill="#e0e0e0" stroke="#999999" points="190.33,-23 134.33,-23 134.33,0 190.33,0 190.33,-23"/>
<text text-anchor="middle" x="162.33" y="-7.8" font-family="Arial" font-size="14.00">cstdint</text>
</a>
</g>
</g>
<!-- Node1&#45;&gt;Node4 -->
<g id="edge21_Node000001_Node000004" class="edge">
<title>Node1&#45;&gt;Node4</title>
<g id="a_edge21_Node000001_Node000004"><a xlink:title=" ">
<path fill="none" stroke="#63b8ff" d="M94.78,-235.75C68.42,-219.27 21.21,-184.98 2.33,-141 -1.7,-131.61 1.06,-128.14 2.33,-118 5.69,-91.15 -1.2,-78.71 17.33,-59 44.95,-29.63 91.12,-18.75 123.94,-14.76"/>
<polygon fill="#63b8ff" stroke="#63b8ff" points="124.5,-18.21 134.08,-13.68 123.77,-11.25 124.5,-18.21"/>
</a>
</g>
</g>
<!-- Node7 -->
<g id="Node000007" class="node">
<title>Node7</title>
<g id="a_Node000007"><a xlink:href="PlatformMutex_8h.html" target="_top" xlink:title="Cross&#45;platform RTOS mutex and synchronization primitives.">
<polygon fill="white" stroke="#666666" points="521.33,-141 405.33,-141 405.33,-118 521.33,-118 521.33,-141"/>
<text text-anchor="middle" x="463.33" y="-125.8" font-family="Arial" font-size="14.00">PlatformMutex.h</text>
</a>
</g>
</g>
<!-- Node1&#45;&gt;Node7 -->
<g id="edge7_Node000001_Node000007" class="edge">
<title>Node1&#45;&gt;Node7</title>
<g id="a_edge7_Node000001_Node000007"><a xlink:title=" ">
<path fill="none" stroke="#63b8ff" d="M150.7,-235.98C182.42,-226.9 229.05,-213.21 269.33,-200 323.95,-182.09 386.41,-159.29 425.37,-144.79"/>
<polygon fill="#63b8ff" stroke="#63b8ff" points="427.08,-147.89 435.23,-141.11 424.63,-141.33 427.08,-147.89"/>
</a>
</g>
</g>
<!-- Node10 -->
<g id="Node000010" class="node">
<title>Node10</title>
<g id="a_Node000010"><a xlink:href="EspTypes__NVS_8h.html" target="_top" xlink:title="ESP32 NVS type definitions for hardware abstraction.">
<polygon fill="white" stroke="#666666" points="260.33,-200 110.33,-200 110.33,-177 260.33,-177 260.33,-200"/>
<text text-anchor="middle" x="185.33" y="-184.8" font-family="Arial" font-size="14.00">utils/EspTypes_NVS.h</text>
</a>
</g>
</g>
<!-- Node1&#45;&gt;Node10 -->
<g id="edge11_Node000001_Node000010" class="edge">
<title>Node1&#45;&gt;Node10</title>
<g id="a_edge11_Node000001_Node000010"><a xlink:title=" ">
<path fill="none" stroke="#63b8ff" d="M126.88,-235.78C137.23,-227.58 151.72,-216.11 163.68,-206.64"/>
<polygon fill="#63b8ff" stroke="#63b8ff" points="166.18,-209.12 171.85,-200.17 161.84,-203.64 166.18,-209.12"/>
</a>
</g>
</g>
<!-- Node3 -->
<g id="Node000003" class="node">
<title>Node3</title>
<g id="a_Node000003"><a xlink:href="HardwareTypes_8h.html" target="_top" xlink:title="Platform&#45;agnostic hardware type definitions for the HardFOC system.">
<polygon fill="white" stroke="#666666" points="258.33,-82 136.33,-82 136.33,-59 258.33,-59 258.33,-82"/>
<text text-anchor="middle" x="197.33" y="-66.8" font-family="Arial" font-size="14.00">HardwareTypes.h</text>
</a>
</g>
</g>
<!-- Node2&#45;&gt;Node3 -->
<g id="edge2_Node000002_Node000003" class="edge">
<title>Node2&#45;&gt;Node3</title>
<g id="a_edge2_Node000002_Node000003"><a xlink:title=" ">
<path fill="none" stroke="#63b8ff" d="M79.27,-117.91C102.26,-108.87 135.53,-95.79 160.9,-85.82"/>
<polygon fill="#63b8ff" stroke="#63b8ff" points="162.52,-88.95 170.54,-82.03 159.96,-82.43 162.52,-88.95"/>
</a>
</g>
</g>
<!-- Node2&#45;&gt;Node4 -->
<g id="edge5_Node000002_Node000004" class="edge">
<title>Node2&#45;&gt;Node4</title>
<g id="a_edge5_Node000002_Node000004"><a xlink:title=" ">
<path fill="none" stroke="#63b8ff" d="M42.18,-117.81C29.8,-103.42 12.06,-77.52 25.33,-59 47.64,-27.87 91.99,-17.32 124.2,-13.89"/>
<polygon fill="#63b8ff" stroke="#63b8ff" points="124.53,-17.37 134.19,-13.01 123.92,-10.4 124.53,-17.37"/>
</a>
</g>
</g>
<!-- Node6 -->
<g id="Node000006" class="node">
<title>Node6</title>
<g id="a_Node000006"><a xlink:title=" ">
<polygon fill="#e0e0e0" stroke="#999999" points="118.33,-82 34.33,-82 34.33,-59 118.33,-59 118.33,-82"/>
<text text-anchor="middle" x="76.33" y="-66.8" font-family="Arial" font-size="14.00">string_view</text>
</a>
</g>
</g>
<!-- Node2&#45;&gt;Node6 -->
<g id="edge6_Node000002_Node000006" class="edge">
<title>Node2&#45;&gt;Node6</title>
<g id="a_edge6_Node000002_Node000006"><a xlink:title=" ">
<path fill="none" stroke="#63b8ff" d="M56.85,-117.78C59.96,-110.37 64.2,-100.3 67.93,-91.45"/>
<polygon fill="#63b8ff" stroke="#63b8ff" points="71.18,-92.75 71.84,-82.17 64.73,-90.03 71.18,-92.75"/>
</a>
</g>
</g>
<!-- Node3&#45;&gt;Node4 -->
<g id="edge3_Node000003_Node000004" class="edge">
<title>Node3&#45;&gt;Node4</title>
<g id="a_edge3_Node000003_Node000004"><a xlink:title=" ">
<path fill="none" stroke="#63b8ff" d="M190.75,-58.78C186.11,-51.22 179.75,-40.87 174.23,-31.88"/>
<polygon fill="#63b8ff" stroke="#63b8ff" points="177.1,-29.86 168.89,-23.17 171.14,-33.53 177.1,-29.86"/>
</a>
</g>
</g>
<!-- Node5 -->
<g id="Node000005" class="node">
<title>Node5</title>
<g id="a_Node000005"><a xlink:title=" ">
<polygon fill="#e0e0e0" stroke="#999999" points="256.33,-23 208.33,-23 208.33,0 256.33,0 256.33,-23"/>
<text text-anchor="middle" x="232.33" y="-7.8" font-family="Arial" font-size="14.00">limits</text>
</a>
</g>
</g>
<!-- Node3&#45;&gt;Node5 -->
<g id="edge4_Node000003_Node000005" class="edge">
<title>Node3&#45;&gt;Node5</title>
<g id="a_edge4_Node000003_Node000005"><a xlink:title=" ">
<path fill="none" stroke="#63b8ff" d="M203.92,-58.78C208.56,-51.22 214.91,-40.87 220.43,-31.88"/>
<polygon fill="#63b8ff" stroke="#63b8ff" points="223.53,-33.53 225.78,-23.17 217.56,-29.86 223.53,-33.53"/>
</a>
</g>
</g>
<!-- Node7&#45;&gt;Node4 -->
<g id="edge10_Node000007_Node000004" class="edge">
<title>Node7&#45;&gt;Node4</title>
<g id="a_edge10_Node000007_Node000004"><a xlink:title=" ">
<path fill="none" stroke="#63b8ff" d="M473.82,-117.91C487.14,-103.17 506.67,-76.35 491.33,-59 449.88,-12.13 279.02,-33.87 200.5,-22.69"/>
<polygon fill="#63b8ff" stroke="#63b8ff" points="200.95,-19.22 190.51,-20.98 199.77,-26.12 200.95,-19.22"/>
</a>
</g>
</g>
<!-- Node8 -->
<g id="Node000008" class="node">
<title>Node8</title>
<g id="a_Node000008"><a xlink:href="McuSelect_8h.html" target="_top" xlink:title="Centralized MCU platform selection and configuration header.">
<polygon fill="white" stroke="#666666" points="406.33,-82 314.33,-82 314.33,-59 406.33,-59 406.33,-82"/>
<text text-anchor="middle" x="360.33" y="-66.8" font-family="Arial" font-size="14.00">McuSelect.h</text>
</a>
</g>
</g>
<!-- Node7&#45;&gt;Node8 -->
<g id="edge8_Node000007_Node000008" class="edge">
<title>Node7&#45;&gt;Node8</title>
<g id="a_edge8_Node000007_Node000008"><a xlink:title=" ">
<path fill="none" stroke="#63b8ff" d="M443.96,-117.78C428.42,-109.18 406.39,-96.99 388.84,-87.28"/>
<polygon fill="#63b8ff" stroke="#63b8ff" points="390.06,-83.95 379.62,-82.17 386.67,-90.08 390.06,-83.95"/>
</a>
</g>
</g>
<!-- Node9 -->
<g id="Node000009" class="node">
<title>Node9</title>
<g id="a_Node000009"><a xlink:title=" ">
<polygon fill="#e0e0e0" stroke="#999999" points="481.83,-82 424.83,-82 424.83,-59 481.83,-59 481.83,-82"/>
<text text-anchor="middle" x="453.33" y="-66.8" font-family="Arial" font-size="14.00">atomic</text>
</a>
</g>
</g>
<!-- Node7&#45;&gt;Node9 -->
<g id="edge9_Node000007_Node000009" class="edge">
<title>Node7&#45;&gt;Node9</title>
<g id="a_edge9_Node000007_Node000009"><a xlink:title=" ">
<path fill="none" stroke="#63b8ff" d="M461.45,-117.78C460.2,-110.61 458.5,-100.95 456.98,-92.31"/>
<polygon fill="#63b8ff" stroke="#63b8ff" points="460.38,-91.42 455.21,-82.17 453.49,-92.63 460.38,-91.42"/>
</a>
</g>
</g>
<!-- Node10&#45;&gt;Node2 -->
<g id="edge12_Node000010_Node000002" class="edge">
<title>Node10&#45;&gt;Node2</title>
<g id="a_edge12_Node000010_Node000002"><a xlink:title=" ">
<path fill="none" stroke="#63b8ff" d="M160.63,-176.91C139.73,-167.95 109.56,-155.02 86.37,-145.09"/>
<polygon fill="#63b8ff" stroke="#63b8ff" points="87.48,-141.75 76.91,-141.03 84.72,-148.19 87.48,-141.75"/>
</a>
</g>
</g>
<!-- Node10&#45;&gt;Node3 -->
<g id="edge18_Node000010_Node000003" class="edge">
<title>Node10&#45;&gt;Node3</title>
<g id="a_edge18_Node000010_Node000003"><a xlink:title=" ">
<path fill="none" stroke="#63b8ff" d="M186.44,-176.79C188.42,-157.63 192.61,-117.15 195.18,-92.34"/>
<polygon fill="#63b8ff" stroke="#63b8ff" points="198.68,-92.49 196.23,-82.18 191.72,-91.77 198.68,-92.49"/>
</a>
</g>
</g>
<!-- Node10&#45;&gt;Node8 -->
<g id="edge19_Node000010_Node000008" class="edge">
<title>Node10&#45;&gt;Node8</title>
<g id="a_edge19_Node000010_Node000008"><a xlink:title=" ">
<path fill="none" stroke="#63b8ff" d="M257.42,-176.94C298.97,-169.24 345.47,-157.29 358.33,-141 369.05,-127.43 368.4,-107.29 365.75,-92.18"/>
<polygon fill="#63b8ff" stroke="#63b8ff" points="369.13,-91.26 363.6,-82.23 362.29,-92.74 369.13,-91.26"/>
</a>
</g>
</g>
<!-- Node11 -->
<g id="Node000011" class="node">
<title>Node11</title>
<g id="a_Node000011"><a xlink:href="EspTypes__Base_8h.html" target="_top" xlink:title="ESP32 base type definitions for hardware abstraction.">
<polygon fill="white" stroke="#666666" points="348.83,-141 223.83,-141 223.83,-118 348.83,-118 348.83,-141"/>
<text text-anchor="middle" x="286.33" y="-125.8" font-family="Arial" font-size="14.00">EspTypes_Base.h</text>
</a>
</g>
</g>
<!-- Node10&#45;&gt;Node11 -->
<g id="edge13_Node000010_Node000011" class="edge">
<title>Node10&#45;&gt;Node11</title>
<g id="a_edge13_Node000010_Node000011"><a xlink:title=" ">
<path fill="none" stroke="#63b8ff" d="M204.33,-176.78C219.57,-168.18 241.17,-155.99 258.38,-146.28"/>
<polygon fill="#63b8ff" stroke="#63b8ff" points="260.43,-149.14 267.42,-141.17 256.99,-143.04 260.43,-149.14"/>
</a>
</g>
</g>
<!-- Node12 -->
<g id="Node000012" class="node">
<title>Node12</title>
<g id="a_Node000012"><a xlink:title=" ">
<polygon fill="#e0e0e0" stroke="#999999" points="167.33,-141 111.33,-141 111.33,-118 167.33,-118 167.33,-141"/>
<text text-anchor="middle" x="139.33" y="-125.8" font-family="Arial" font-size="14.00">cstring</text>
</a>
</g>
</g>
<!-- Node10&#45;&gt;Node12 -->
<g id="edge20_Node000010_Node000012" class="edge">
<title>Node10&#45;&gt;Node12</title>
<g id="a_edge20_Node000010_Node000012"><a xlink:title=" ">
<path fill="none" stroke="#63b8ff" d="M176.68,-176.78C170.38,-168.98 161.7,-158.21 154.29,-149.03"/>
<polygon fill="#63b8ff" stroke="#63b8ff" points="156.95,-146.76 147.95,-141.17 151.5,-151.15 156.95,-146.76"/>
</a>
</g>
</g>
<!-- Node11&#45;&gt;Node3 -->
<g id="edge15_Node000011_Node000003" class="edge">
<title>Node11&#45;&gt;Node3</title>
<g id="a_edge15_Node000011_Node000003"><a xlink:title=" ">
<path fill="none" stroke="#63b8ff" d="M269.59,-117.78C256.42,-109.34 237.83,-97.44 222.81,-87.82"/>
<polygon fill="#63b8ff" stroke="#63b8ff" points="224.31,-84.62 214,-82.17 220.53,-90.51 224.31,-84.62"/>
</a>
</g>
</g>
<!-- Node11&#45;&gt;Node4 -->
<g id="edge17_Node000011_Node000004" class="edge">
<title>Node11&#45;&gt;Node4</title>
<g id="a_edge17_Node000011_Node000004"><a xlink:title=" ">
<path fill="none" stroke="#63b8ff" d="M286.16,-117.78C285.37,-102.89 281.85,-75.88 267.33,-59 258.02,-48.18 226.27,-34.91 200.1,-25.32"/>
<polygon fill="#63b8ff" stroke="#63b8ff" points="201,-21.93 190.4,-21.84 198.63,-28.51 201,-21.93"/>
</a>
</g>
</g>
<!-- Node11&#45;&gt;Node8 -->
<g id="edge14_Node000011_Node000008" class="edge">
<title>Node11&#45;&gt;Node8</title>
<g id="a_edge14_Node000011_Node000008"><a xlink:title=" ">
<path fill="none" stroke="#63b8ff" d="M300.25,-117.78C311,-109.5 326.08,-97.89 338.44,-88.36"/>
<polygon fill="#63b8ff" stroke="#63b8ff" points="340.69,-91.05 346.48,-82.17 336.42,-85.5 340.69,-91.05"/>
</a>
</g>
</g>
<!-- Node11&#45;&gt;Node9 -->
<g id="edge16_Node000011_Node000009" class="edge">
<title>Node11&#45;&gt;Node9</title>
<g id="a_edge16_Node000011_Node000009"><a xlink:title=" ">
<path fill="none" stroke="#63b8ff" d="M317.35,-117.91C344.98,-108.48 385.5,-94.65 415.12,-84.54"/>
<polygon fill="#63b8ff" stroke="#63b8ff" points="416.38,-87.81 424.71,-81.27 414.11,-81.19 416.38,-87.81"/>
</a>
</g>
</g>
</g>
</svg>
