<?xml version="1.0" encoding="UTF-8" standalone="no"?>
<!DOCTYPE svg PUBLIC "-//W3C//DTD SVG 1.1//EN"
 "http://www.w3.org/Graphics/SVG/1.1/DTD/svg11.dtd">
<!-- Generated by graphviz version 2.43.0 (0)
 -->
<!-- Title: inc/mcu/esp32/EspNvs.h Pages: 1 -->
<svg width="564pt" height="267pt"
 viewBox="0.00 0.00 564.38 267.00" xmlns="http://www.w3.org/2000/svg" xmlns:xlink="http://www.w3.org/1999/xlink">
<g id="graph0" class="graph" transform="scale(1 1) rotate(0) translate(4 263)">
<title>inc/mcu/esp32/EspNvs.h</title>
<!-- Node1 -->
<g id="Node000001" class="node">
<title>Node1</title>
<g id="a_Node000001"><a xlink:title="World&#45;class ESP32&#45;C6 NVS storage implementation with ESP&#45;IDF v5.5+ features.">
<polygon fill="#999999" stroke="#666666" points="210.38,-259 44.38,-259 44.38,-236 210.38,-236 210.38,-259"/>
<text text-anchor="middle" x="127.38" y="-243.8" font-family="Arial" font-size="14.00">inc/mcu/esp32/EspNvs.h</text>
</a>
</g>
</g>
<!-- Node2 -->
<g id="Node000002" class="node">
<title>Node2</title>
<g id="a_Node000002"><a xlink:href="BaseNvs_8h.html" target="_top" xlink:title="Abstract base class for Non&#45;Volatile Storage implementations in the HardFOC system.">
<polygon fill="white" stroke="#666666" points="112.38,-141 30.38,-141 30.38,-118 112.38,-118 112.38,-141"/>
<text text-anchor="middle" x="71.38" y="-125.8" font-family="Arial" font-size="14.00">BaseNvs.h</text>
</a>
</g>
</g>
<!-- Node1&#45;&gt;Node2 -->
<g id="edge1_Node000001_Node000002" class="edge">
<title>Node1&#45;&gt;Node2</title>
<g id="a_edge1_Node000001_Node000002"><a xlink:title=" ">
<path fill="none" stroke="#63b8ff" d="M122.21,-235.79C112.83,-216.37 92.89,-175.06 80.96,-150.35"/>
<polygon fill="#63b8ff" stroke="#63b8ff" points="84.03,-148.66 76.53,-141.18 77.73,-151.71 84.03,-148.66"/>
</a>
</g>
</g>
<!-- Node4 -->
<g id="Node000004" class="node">
<title>Node4</title>
<g id="a_Node000004"><a xlink:title=" ">
<polygon fill="#e0e0e0" stroke="#999999" points="185.38,-23 129.38,-23 129.38,0 185.38,0 185.38,-23"/>
<text text-anchor="middle" x="157.38" y="-7.8" font-family="Arial" font-size="14.00">cstdint</text>
</a>
</g>
</g>
<!-- Node1&#45;&gt;Node4 -->
<g id="edge20_Node000001_Node000004" class="edge">
<title>Node1&#45;&gt;Node4</title>
<g id="a_edge20_Node000001_Node000004"><a xlink:title=" ">
<path fill="none" stroke="#63b8ff" d="M111.83,-235.96C70.74,-206.84 -34.43,-123.17 12.38,-59 36.59,-25.81 84.85,-15.78 119.03,-13.02"/>
<polygon fill="#63b8ff" stroke="#63b8ff" points="119.38,-16.51 129.14,-12.38 118.94,-9.52 119.38,-16.51"/>
</a>
</g>
</g>
<!-- Node7 -->
<g id="Node000007" class="node">
<title>Node7</title>
<g id="a_Node000007"><a xlink:href="PlatformMutex_8h.html" target="_top" xlink:title="Cross&#45;platform mutex and synchronization primitives with pluggable backend.">
<polygon fill="white" stroke="#666666" points="556.38,-141 440.38,-141 440.38,-118 556.38,-118 556.38,-141"/>
<text text-anchor="middle" x="498.38" y="-125.8" font-family="Arial" font-size="14.00">PlatformMutex.h</text>
</a>
</g>
</g>
<!-- Node1&#45;&gt;Node7 -->
<g id="edge7_Node000001_Node000007" class="edge">
<title>Node1&#45;&gt;Node7</title>
<g id="a_edge7_Node000001_Node000007"><a xlink:title=" ">
<path fill="none" stroke="#63b8ff" d="M161.28,-235.9C228.9,-214.76 380.43,-167.38 455.1,-144.03"/>
<polygon fill="#63b8ff" stroke="#63b8ff" points="456.18,-147.36 464.68,-141.04 454.09,-140.68 456.18,-147.36"/>
</a>
</g>
</g>
<!-- Node9 -->
<g id="Node000009" class="node">
<title>Node9</title>
<g id="a_Node000009"><a xlink:href="EspTypes__NVS_8h.html" target="_top" xlink:title="ESP32 NVS type definitions for hardware abstraction.">
<polygon fill="white" stroke="#666666" points="265.38,-200 115.38,-200 115.38,-177 265.38,-177 265.38,-200"/>
<text text-anchor="middle" x="190.38" y="-184.8" font-family="Arial" font-size="14.00">utils/EspTypes_NVS.h</text>
</a>
</g>
</g>
<!-- Node1&#45;&gt;Node9 -->
<g id="edge10_Node000001_Node000009" class="edge">
<title>Node1&#45;&gt;Node9</title>
<g id="a_edge10_Node000001_Node000009"><a xlink:title=" ">
<path fill="none" stroke="#63b8ff" d="M139.23,-235.78C148.2,-227.66 160.72,-216.33 171.13,-206.92"/>
<polygon fill="#63b8ff" stroke="#63b8ff" points="173.51,-209.48 178.58,-200.17 168.82,-204.29 173.51,-209.48"/>
</a>
</g>
</g>
<!-- Node3 -->
<g id="Node000003" class="node">
<title>Node3</title>
<g id="a_Node000003"><a xlink:href="HardwareTypes_8h.html" target="_top" xlink:title="Platform&#45;agnostic hardware type definitions for the HardFOC system.">
<polygon fill="white" stroke="#666666" points="253.38,-82 131.38,-82 131.38,-59 253.38,-59 253.38,-82"/>
<text text-anchor="middle" x="192.38" y="-66.8" font-family="Arial" font-size="14.00">HardwareTypes.h</text>
</a>
</g>
</g>
<!-- Node2&#45;&gt;Node3 -->
<g id="edge2_Node000002_Node000003" class="edge">
<title>Node2&#45;&gt;Node3</title>
<g id="a_edge2_Node000002_Node000003"><a xlink:title=" ">
<path fill="none" stroke="#63b8ff" d="M93.85,-117.91C112.7,-109.03 139.82,-96.26 160.84,-86.35"/>
<polygon fill="#63b8ff" stroke="#63b8ff" points="162.47,-89.46 170.02,-82.03 159.48,-83.13 162.47,-89.46"/>
</a>
</g>
</g>
<!-- Node2&#45;&gt;Node4 -->
<g id="edge5_Node000002_Node000004" class="edge">
<title>Node2&#45;&gt;Node4</title>
<g id="a_edge5_Node000002_Node000004"><a xlink:title=" ">
<path fill="none" stroke="#63b8ff" d="M54.01,-117.96C33.89,-104.39 5.29,-80.05 20.38,-59 42.69,-27.87 87.03,-17.32 119.24,-13.89"/>
<polygon fill="#63b8ff" stroke="#63b8ff" points="119.58,-17.37 129.23,-13.01 118.96,-10.4 119.58,-17.37"/>
</a>
</g>
</g>
<!-- Node6 -->
<g id="Node000006" class="node">
<title>Node6</title>
<g id="a_Node000006"><a xlink:title=" ">
<polygon fill="#e0e0e0" stroke="#999999" points="113.38,-82 29.38,-82 29.38,-59 113.38,-59 113.38,-82"/>
<text text-anchor="middle" x="71.38" y="-66.8" font-family="Arial" font-size="14.00">string_view</text>
</a>
</g>
</g>
<!-- Node2&#45;&gt;Node6 -->
<g id="edge6_Node000002_Node000006" class="edge">
<title>Node2&#45;&gt;Node6</title>
<g id="a_edge6_Node000002_Node000006"><a xlink:title=" ">
<path fill="none" stroke="#63b8ff" d="M71.38,-117.78C71.38,-110.61 71.38,-100.95 71.38,-92.31"/>
<polygon fill="#63b8ff" stroke="#63b8ff" points="74.88,-92.17 71.38,-82.17 67.88,-92.17 74.88,-92.17"/>
</a>
</g>
</g>
<!-- Node3&#45;&gt;Node4 -->
<g id="edge3_Node000003_Node000004" class="edge">
<title>Node3&#45;&gt;Node4</title>
<g id="a_edge3_Node000003_Node000004"><a xlink:title=" ">
<path fill="none" stroke="#63b8ff" d="M185.79,-58.78C181.15,-51.22 174.8,-40.87 169.28,-31.88"/>
<polygon fill="#63b8ff" stroke="#63b8ff" points="172.14,-29.86 163.93,-23.17 166.18,-33.53 172.14,-29.86"/>
</a>
</g>
</g>
<!-- Node5 -->
<g id="Node000005" class="node">
<title>Node5</title>
<g id="a_Node000005"><a xlink:title=" ">
<polygon fill="#e0e0e0" stroke="#999999" points="251.38,-23 203.38,-23 203.38,0 251.38,0 251.38,-23"/>
<text text-anchor="middle" x="227.38" y="-7.8" font-family="Arial" font-size="14.00">limits</text>
</a>
</g>
</g>
<!-- Node3&#45;&gt;Node5 -->
<g id="edge4_Node000003_Node000005" class="edge">
<title>Node3&#45;&gt;Node5</title>
<g id="a_edge4_Node000003_Node000005"><a xlink:title=" ">
<path fill="none" stroke="#63b8ff" d="M198.96,-58.78C203.6,-51.22 209.95,-40.87 215.48,-31.88"/>
<polygon fill="#63b8ff" stroke="#63b8ff" points="218.57,-33.53 220.82,-23.17 212.61,-29.86 218.57,-33.53"/>
</a>
</g>
</g>
<!-- Node7&#45;&gt;Node4 -->
<g id="edge9_Node000007_Node000004" class="edge">
<title>Node7&#45;&gt;Node4</title>
<g id="a_edge9_Node000007_Node000004"><a xlink:title=" ">
<path fill="none" stroke="#63b8ff" d="M511.65,-117.9C528.26,-103.39 552.66,-77.09 536.38,-59 487.14,-4.31 285.2,-34.99 195.4,-22.66"/>
<polygon fill="#63b8ff" stroke="#63b8ff" points="195.97,-19.2 185.54,-21.03 194.84,-26.11 195.97,-19.2"/>
</a>
</g>
</g>
<!-- Node8 -->
<g id="Node000008" class="node">
<title>Node8</title>
<g id="a_Node000008"><a xlink:title=" ">
<polygon fill="#e0e0e0" stroke="#999999" points="526.88,-82 469.88,-82 469.88,-59 526.88,-59 526.88,-82"/>
<text text-anchor="middle" x="498.38" y="-66.8" font-family="Arial" font-size="14.00">atomic</text>
</a>
</g>
</g>
<!-- Node7&#45;&gt;Node8 -->
<g id="edge8_Node000007_Node000008" class="edge">
<title>Node7&#45;&gt;Node8</title>
<g id="a_edge8_Node000007_Node000008"><a xlink:title=" ">
<path fill="none" stroke="#63b8ff" d="M498.38,-117.78C498.38,-110.61 498.38,-100.95 498.38,-92.31"/>
<polygon fill="#63b8ff" stroke="#63b8ff" points="501.88,-92.17 498.38,-82.17 494.88,-92.17 501.88,-92.17"/>
</a>
</g>
</g>
<!-- Node9&#45;&gt;Node2 -->
<g id="edge11_Node000009_Node000002" class="edge">
<title>Node9&#45;&gt;Node2</title>
<g id="a_edge11_Node000009_Node000002"><a xlink:title=" ">
<path fill="none" stroke="#63b8ff" d="M168.27,-176.91C149.74,-168.03 123.06,-155.26 102.39,-145.35"/>
<polygon fill="#63b8ff" stroke="#63b8ff" points="103.89,-142.19 93.36,-141.03 100.87,-148.51 103.89,-142.19"/>
</a>
</g>
</g>
<!-- Node9&#45;&gt;Node3 -->
<g id="edge17_Node000009_Node000003" class="edge">
<title>Node9&#45;&gt;Node3</title>
<g id="a_edge17_Node000009_Node000003"><a xlink:title=" ">
<path fill="none" stroke="#63b8ff" d="M204.98,-176.7C215.08,-168.26 227.68,-155.54 233.38,-141 237.1,-131.48 236.99,-127.56 233.38,-118 229.27,-107.13 221.33,-97.15 213.52,-89.25"/>
<polygon fill="#63b8ff" stroke="#63b8ff" points="215.59,-86.39 205.91,-82.09 210.79,-91.49 215.59,-86.39"/>
</a>
</g>
</g>
<!-- Node10 -->
<g id="Node000010" class="node">
<title>Node10</title>
<g id="a_Node000010"><a xlink:href="EspTypes__Base_8h.html" target="_top" xlink:title="ESP32 base type definitions for hardware abstraction.">
<polygon fill="white" stroke="#666666" points="405.88,-141 280.88,-141 280.88,-118 405.88,-118 405.88,-141"/>
<text text-anchor="middle" x="343.38" y="-125.8" font-family="Arial" font-size="14.00">EspTypes_Base.h</text>
</a>
</g>
</g>
<!-- Node9&#45;&gt;Node10 -->
<g id="edge12_Node000009_Node000010" class="edge">
<title>Node9&#45;&gt;Node10</title>
<g id="a_edge12_Node000009_Node000010"><a xlink:title=" ">
<path fill="none" stroke="#63b8ff" d="M218.79,-176.91C243.27,-167.79 278.79,-154.56 305.64,-144.56"/>
<polygon fill="#63b8ff" stroke="#63b8ff" points="306.96,-147.8 315.11,-141.03 304.52,-141.24 306.96,-147.8"/>
</a>
</g>
</g>
<!-- Node11 -->
<g id="Node000011" class="node">
<title>Node11</title>
<g id="a_Node000011"><a xlink:href="McuSelect_8h.html" target="_top" xlink:title="Centralized MCU platform selection and configuration header.">
<polygon fill="white" stroke="#666666" points="413.38,-82 271.38,-82 271.38,-59 413.38,-59 413.38,-82"/>
<text text-anchor="middle" x="342.38" y="-66.8" font-family="Arial" font-size="14.00">../../utils/McuSelect.h</text>
</a>
</g>
</g>
<!-- Node9&#45;&gt;Node11 -->
<g id="edge18_Node000009_Node000011" class="edge">
<title>Node9&#45;&gt;Node11</title>
<g id="a_edge18_Node000009_Node000011"><a xlink:title=" ">
<path fill="none" stroke="#63b8ff" d="M179,-176.76C165.11,-162.32 145.1,-136.36 159.38,-118 172.3,-101.38 218.36,-89.72 261.02,-82.24"/>
<polygon fill="#63b8ff" stroke="#63b8ff" points="261.64,-85.69 270.92,-80.57 260.47,-78.79 261.64,-85.69"/>
</a>
</g>
</g>
<!-- Node12 -->
<g id="Node000012" class="node">
<title>Node12</title>
<g id="a_Node000012"><a xlink:title=" ">
<polygon fill="#e0e0e0" stroke="#999999" points="224.38,-141 168.38,-141 168.38,-118 224.38,-118 224.38,-141"/>
<text text-anchor="middle" x="196.38" y="-125.8" font-family="Arial" font-size="14.00">cstring</text>
</a>
</g>
</g>
<!-- Node9&#45;&gt;Node12 -->
<g id="edge19_Node000009_Node000012" class="edge">
<title>Node9&#45;&gt;Node12</title>
<g id="a_edge19_Node000009_Node000012"><a xlink:title=" ">
<path fill="none" stroke="#63b8ff" d="M191.5,-176.78C192.26,-169.61 193.28,-159.95 194.18,-151.31"/>
<polygon fill="#63b8ff" stroke="#63b8ff" points="197.69,-151.48 195.25,-141.17 190.72,-150.75 197.69,-151.48"/>
</a>
</g>
</g>
<!-- Node10&#45;&gt;Node3 -->
<g id="edge14_Node000010_Node000003" class="edge">
<title>Node10&#45;&gt;Node3</title>
<g id="a_edge14_Node000010_Node000003"><a xlink:title=" ">
<path fill="none" stroke="#63b8ff" d="M315.33,-117.91C291.28,-108.83 256.43,-95.68 229.96,-85.69"/>
<polygon fill="#63b8ff" stroke="#63b8ff" points="230.86,-82.29 220.27,-82.03 228.39,-88.84 230.86,-82.29"/>
</a>
</g>
</g>
<!-- Node10&#45;&gt;Node4 -->
<g id="edge16_Node000010_Node000004" class="edge">
<title>Node10&#45;&gt;Node4</title>
<g id="a_edge16_Node000010_Node000004"><a xlink:title=" ">
<path fill="none" stroke="#63b8ff" d="M371.76,-117.89C401.82,-105.11 442.37,-82.4 422.38,-59 390.81,-22.06 259.41,-32.69 195.57,-22.74"/>
<polygon fill="#63b8ff" stroke="#63b8ff" points="196.04,-19.27 185.57,-20.88 194.76,-26.15 196.04,-19.27"/>
</a>
</g>
</g>
<!-- Node10&#45;&gt;Node8 -->
<g id="edge15_Node000010_Node000008" class="edge">
<title>Node10&#45;&gt;Node8</title>
<g id="a_edge15_Node000010_Node000008"><a xlink:title=" ">
<path fill="none" stroke="#63b8ff" d="M372.17,-117.91C396.96,-108.79 432.94,-95.56 460.15,-85.56"/>
<polygon fill="#63b8ff" stroke="#63b8ff" points="461.56,-88.77 469.74,-82.03 459.14,-82.2 461.56,-88.77"/>
</a>
</g>
</g>
<!-- Node10&#45;&gt;Node11 -->
<g id="edge13_Node000010_Node000011" class="edge">
<title>Node10&#45;&gt;Node11</title>
<g id="a_edge13_Node000010_Node000011"><a xlink:title=" ">
<path fill="none" stroke="#63b8ff" d="M343.19,-117.78C343.06,-110.61 342.89,-100.95 342.74,-92.31"/>
<polygon fill="#63b8ff" stroke="#63b8ff" points="346.24,-92.11 342.56,-82.17 339.24,-92.23 346.24,-92.11"/>
</a>
</g>
</g>
</g>
</svg>
