<?xml version="1.0" encoding="UTF-8" standalone="no"?>
<!DOCTYPE svg PUBLIC "-//W3C//DTD SVG 1.1//EN"
 "http://www.w3.org/Graphics/SVG/1.1/DTD/svg11.dtd">
<!-- Generated by graphviz version 2.43.0 (0)
 -->
<!-- Title: src/mcu/esp32/EspPwm.cpp Pages: 1 -->
<svg width="838pt" height="385pt"
 viewBox="0.00 0.00 837.61 385.00" xmlns="http://www.w3.org/2000/svg" xmlns:xlink="http://www.w3.org/1999/xlink">
<g id="graph0" class="graph" transform="scale(1 1) rotate(0) translate(4 381)">
<title>src/mcu/esp32/EspPwm.cpp</title>
<!-- Node1 -->
<g id="Node000001" class="node">
<title>Node1</title>
<g id="a_Node000001"><a xlink:title="Implementation of ESP32 family LEDC (PWM) controller for the HardFOC system.">
<polygon fill="#999999" stroke="#666666" points="782.11,-377 594.11,-377 594.11,-354 782.11,-354 782.11,-377"/>
<text text-anchor="middle" x="688.11" y="-361.8" font-family="Arial" font-size="14.00">src/mcu/esp32/EspPwm.cpp</text>
</a>
</g>
</g>
<!-- Node2 -->
<g id="Node000002" class="node">
<title>Node2</title>
<g id="a_Node000002"><a xlink:href="EspPwm_8h.html" target="_top" xlink:title="ESP32 LEDC (PWM) controller implementation for the HardFOC system.">
<polygon fill="white" stroke="#666666" points="592.11,-318 510.11,-318 510.11,-295 592.11,-295 592.11,-318"/>
<text text-anchor="middle" x="551.11" y="-302.8" font-family="Arial" font-size="14.00">EspPwm.h</text>
</a>
</g>
</g>
<!-- Node1&#45;&gt;Node2 -->
<g id="edge1_Node000001_Node000002" class="edge">
<title>Node1&#45;&gt;Node2</title>
<g id="a_edge1_Node000001_Node000002"><a xlink:title=" ">
<path fill="none" stroke="#63b8ff" d="M662.66,-353.91C641.03,-344.91 609.78,-331.91 585.85,-321.95"/>
<polygon fill="#63b8ff" stroke="#63b8ff" points="587,-318.64 576.42,-318.03 584.31,-325.1 587,-318.64"/>
</a>
</g>
</g>
<!-- Node17 -->
<g id="Node000017" class="node">
<title>Node17</title>
<g id="a_Node000017"><a xlink:title=" ">
<polygon fill="#e0e0e0" stroke="#999999" points="683.61,-318 610.61,-318 610.61,-295 683.61,-295 683.61,-318"/>
<text text-anchor="middle" x="647.11" y="-302.8" font-family="Arial" font-size="14.00">algorithm</text>
</a>
</g>
</g>
<!-- Node1&#45;&gt;Node17 -->
<g id="edge31_Node000001_Node000017" class="edge">
<title>Node1&#45;&gt;Node17</title>
<g id="a_edge31_Node000001_Node000017"><a xlink:title=" ">
<path fill="none" stroke="#63b8ff" d="M680.4,-353.78C674.84,-346.06 667.2,-335.43 660.64,-326.31"/>
<polygon fill="#63b8ff" stroke="#63b8ff" points="663.46,-324.25 654.78,-318.17 657.78,-328.34 663.46,-324.25"/>
</a>
</g>
</g>
<!-- Node18 -->
<g id="Node000018" class="node">
<title>Node18</title>
<g id="a_Node000018"><a xlink:title=" ">
<polygon fill="#e0e0e0" stroke="#999999" points="758.11,-318 702.11,-318 702.11,-295 758.11,-295 758.11,-318"/>
<text text-anchor="middle" x="730.11" y="-302.8" font-family="Arial" font-size="14.00">cstring</text>
</a>
</g>
</g>
<!-- Node1&#45;&gt;Node18 -->
<g id="edge32_Node000001_Node000018" class="edge">
<title>Node1&#45;&gt;Node18</title>
<g id="a_edge32_Node000001_Node000018"><a xlink:title=" ">
<path fill="none" stroke="#63b8ff" d="M696.01,-353.78C701.7,-346.06 709.52,-335.43 716.24,-326.31"/>
<polygon fill="#63b8ff" stroke="#63b8ff" points="719.13,-328.3 722.24,-318.17 713.49,-324.15 719.13,-328.3"/>
</a>
</g>
</g>
<!-- Node19 -->
<g id="Node000019" class="node">
<title>Node19</title>
<g id="a_Node000019"><a xlink:title=" ">
<polygon fill="#e0e0e0" stroke="#999999" points="829.61,-318 776.61,-318 776.61,-295 829.61,-295 829.61,-318"/>
<text text-anchor="middle" x="803.11" y="-302.8" font-family="Arial" font-size="14.00">vector</text>
</a>
</g>
</g>
<!-- Node1&#45;&gt;Node19 -->
<g id="edge33_Node000001_Node000019" class="edge">
<title>Node1&#45;&gt;Node19</title>
<g id="a_edge33_Node000001_Node000019"><a xlink:title=" ">
<path fill="none" stroke="#63b8ff" d="M709.47,-353.91C727.3,-345.07 752.93,-332.37 772.87,-322.49"/>
<polygon fill="#63b8ff" stroke="#63b8ff" points="774.45,-325.61 781.86,-318.03 771.35,-319.34 774.45,-325.61"/>
</a>
</g>
</g>
<!-- Node3 -->
<g id="Node000003" class="node">
<title>Node3</title>
<g id="a_Node000003"><a xlink:href="BasePwm_8h.html" target="_top" xlink:title="Abstract base class for PWM implementations in the HardFOC system.">
<polygon fill="white" stroke="#666666" points="100.61,-141 11.61,-141 11.61,-118 100.61,-118 100.61,-141"/>
<text text-anchor="middle" x="56.11" y="-125.8" font-family="Arial" font-size="14.00">BasePwm.h</text>
</a>
</g>
</g>
<!-- Node2&#45;&gt;Node3 -->
<g id="edge2_Node000002_Node000003" class="edge">
<title>Node2&#45;&gt;Node3</title>
<g id="a_edge2_Node000002_Node000003"><a xlink:title=" ">
<path fill="none" stroke="#63b8ff" d="M509.97,-303.66C445.82,-299.94 318.58,-289.12 215.11,-259 154.57,-241.38 130.21,-245.06 86.11,-200 72.94,-186.55 65.12,-166.39 60.78,-151.24"/>
<polygon fill="#63b8ff" stroke="#63b8ff" points="64.09,-150.08 58.21,-141.27 57.31,-151.83 64.09,-150.08"/>
</a>
</g>
</g>
<!-- Node8 -->
<g id="Node000008" class="node">
<title>Node8</title>
<g id="a_Node000008"><a xlink:href="PlatformMutex_8h.html" target="_top" xlink:title="Cross&#45;platform mutex and synchronization primitives with pluggable backend.">
<polygon fill="white" stroke="#666666" points="676.11,-141 560.11,-141 560.11,-118 676.11,-118 676.11,-141"/>
<text text-anchor="middle" x="618.11" y="-125.8" font-family="Arial" font-size="14.00">PlatformMutex.h</text>
</a>
</g>
</g>
<!-- Node2&#45;&gt;Node8 -->
<g id="edge8_Node000002_Node000008" class="edge">
<title>Node2&#45;&gt;Node8</title>
<g id="a_edge8_Node000002_Node000008"><a xlink:title=" ">
<path fill="none" stroke="#63b8ff" d="M555.2,-294.82C566.11,-266.31 596.05,-188.11 610.33,-150.81"/>
<polygon fill="#63b8ff" stroke="#63b8ff" points="613.76,-151.63 614.07,-141.04 607.23,-149.13 613.76,-151.63"/>
</a>
</g>
</g>
<!-- Node9 -->
<g id="Node000009" class="node">
<title>Node9</title>
<g id="a_Node000009"><a xlink:title=" ">
<polygon fill="#e0e0e0" stroke="#999999" points="561.61,-82 504.61,-82 504.61,-59 561.61,-59 561.61,-82"/>
<text text-anchor="middle" x="533.11" y="-66.8" font-family="Arial" font-size="14.00">atomic</text>
</a>
</g>
</g>
<!-- Node2&#45;&gt;Node9 -->
<g id="edge29_Node000002_Node000009" class="edge">
<title>Node2&#45;&gt;Node9</title>
<g id="a_edge29_Node000002_Node000009"><a xlink:title=" ">
<path fill="none" stroke="#63b8ff" d="M550.29,-294.84C547.51,-258.75 538.43,-140.75 534.72,-92.43"/>
<polygon fill="#63b8ff" stroke="#63b8ff" points="538.19,-91.93 533.93,-82.23 531.21,-92.46 538.19,-91.93"/>
</a>
</g>
</g>
<!-- Node10 -->
<g id="Node000010" class="node">
<title>Node10</title>
<g id="a_Node000010"><a xlink:href="EspTypes__PWM_8h.html" target="_top" xlink:title="ESP32 PWM type definitions for LEDC peripheral hardware abstraction.">
<polygon fill="white" stroke="#666666" points="381.61,-259 224.61,-259 224.61,-236 381.61,-236 381.61,-259"/>
<text text-anchor="middle" x="303.11" y="-243.8" font-family="Arial" font-size="14.00">utils/EspTypes_PWM.h</text>
</a>
</g>
</g>
<!-- Node2&#45;&gt;Node10 -->
<g id="edge11_Node000002_Node000010" class="edge">
<title>Node2&#45;&gt;Node10</title>
<g id="a_edge11_Node000002_Node000010"><a xlink:title=" ">
<path fill="none" stroke="#63b8ff" d="M509.88,-296.02C468.56,-286.53 404.67,-271.84 358.85,-261.31"/>
<polygon fill="#63b8ff" stroke="#63b8ff" points="359.6,-257.89 349.07,-259.07 358.04,-264.72 359.6,-257.89"/>
</a>
</g>
</g>
<!-- Node15 -->
<g id="Node000015" class="node">
<title>Node15</title>
<g id="a_Node000015"><a xlink:title=" ">
<polygon fill="#e0e0e0" stroke="#999999" points="645.61,-259 598.61,-259 598.61,-236 645.61,-236 645.61,-259"/>
<text text-anchor="middle" x="622.11" y="-243.8" font-family="Arial" font-size="14.00">array</text>
</a>
</g>
</g>
<!-- Node2&#45;&gt;Node15 -->
<g id="edge28_Node000002_Node000015" class="edge">
<title>Node2&#45;&gt;Node15</title>
<g id="a_edge28_Node000002_Node000015"><a xlink:title=" ">
<path fill="none" stroke="#63b8ff" d="M564.46,-294.78C574.68,-286.58 588.96,-275.11 600.76,-265.64"/>
<polygon fill="#63b8ff" stroke="#63b8ff" points="603.21,-268.16 608.81,-259.17 598.82,-262.7 603.21,-268.16"/>
</a>
</g>
</g>
<!-- Node16 -->
<g id="Node000016" class="node">
<title>Node16</title>
<g id="a_Node000016"><a xlink:title=" ">
<polygon fill="#e0e0e0" stroke="#999999" points="714.11,-259 664.11,-259 664.11,-236 714.11,-236 714.11,-259"/>
<text text-anchor="middle" x="689.11" y="-243.8" font-family="Arial" font-size="14.00">string</text>
</a>
</g>
</g>
<!-- Node2&#45;&gt;Node16 -->
<g id="edge30_Node000002_Node000016" class="edge">
<title>Node2&#45;&gt;Node16</title>
<g id="a_edge30_Node000002_Node000016"><a xlink:title=" ">
<path fill="none" stroke="#63b8ff" d="M576.74,-294.91C598.66,-285.86 630.41,-272.75 654.57,-262.77"/>
<polygon fill="#63b8ff" stroke="#63b8ff" points="656.17,-265.89 664.08,-258.84 653.5,-259.42 656.17,-265.89"/>
</a>
</g>
</g>
<!-- Node4 -->
<g id="Node000004" class="node">
<title>Node4</title>
<g id="a_Node000004"><a xlink:href="HardwareTypes_8h.html" target="_top" xlink:title="Platform&#45;agnostic hardware type definitions for the HardFOC system.">
<polygon fill="white" stroke="#666666" points="238.11,-82 116.11,-82 116.11,-59 238.11,-59 238.11,-82"/>
<text text-anchor="middle" x="177.11" y="-66.8" font-family="Arial" font-size="14.00">HardwareTypes.h</text>
</a>
</g>
</g>
<!-- Node3&#45;&gt;Node4 -->
<g id="edge3_Node000003_Node000004" class="edge">
<title>Node3&#45;&gt;Node4</title>
<g id="a_edge3_Node000003_Node000004"><a xlink:title=" ">
<path fill="none" stroke="#63b8ff" d="M78.58,-117.91C97.43,-109.03 124.56,-96.26 145.58,-86.35"/>
<polygon fill="#63b8ff" stroke="#63b8ff" points="147.2,-89.46 154.75,-82.03 144.21,-83.13 147.2,-89.46"/>
</a>
</g>
</g>
<!-- Node5 -->
<g id="Node000005" class="node">
<title>Node5</title>
<g id="a_Node000005"><a xlink:title=" ">
<polygon fill="#e0e0e0" stroke="#999999" points="294.11,-23 238.11,-23 238.11,0 294.11,0 294.11,-23"/>
<text text-anchor="middle" x="266.11" y="-7.8" font-family="Arial" font-size="14.00">cstdint</text>
</a>
</g>
</g>
<!-- Node3&#45;&gt;Node5 -->
<g id="edge6_Node000003_Node000005" class="edge">
<title>Node3&#45;&gt;Node5</title>
<g id="a_edge6_Node000003_Node000005"><a xlink:title=" ">
<path fill="none" stroke="#63b8ff" d="M38.61,-117.81C17.94,-103.88 -11.64,-78.94 5.11,-59 34.85,-23.58 164.6,-31.26 210.11,-23 215.91,-21.95 222.04,-20.82 228.04,-19.7"/>
<polygon fill="#63b8ff" stroke="#63b8ff" points="228.73,-23.13 237.92,-17.85 227.44,-16.25 228.73,-23.13"/>
</a>
</g>
</g>
<!-- Node7 -->
<g id="Node000007" class="node">
<title>Node7</title>
<g id="a_Node000007"><a xlink:title=" ">
<polygon fill="#e0e0e0" stroke="#999999" points="98.11,-82 14.11,-82 14.11,-59 98.11,-59 98.11,-82"/>
<text text-anchor="middle" x="56.11" y="-66.8" font-family="Arial" font-size="14.00">string_view</text>
</a>
</g>
</g>
<!-- Node3&#45;&gt;Node7 -->
<g id="edge7_Node000003_Node000007" class="edge">
<title>Node3&#45;&gt;Node7</title>
<g id="a_edge7_Node000003_Node000007"><a xlink:title=" ">
<path fill="none" stroke="#63b8ff" d="M56.11,-117.78C56.11,-110.61 56.11,-100.95 56.11,-92.31"/>
<polygon fill="#63b8ff" stroke="#63b8ff" points="59.61,-92.17 56.11,-82.17 52.61,-92.17 59.61,-92.17"/>
</a>
</g>
</g>
<!-- Node4&#45;&gt;Node5 -->
<g id="edge4_Node000004_Node000005" class="edge">
<title>Node4&#45;&gt;Node5</title>
<g id="a_edge4_Node000004_Node000005"><a xlink:title=" ">
<path fill="none" stroke="#63b8ff" d="M193.85,-58.78C207.02,-50.34 225.61,-38.44 240.63,-28.82"/>
<polygon fill="#63b8ff" stroke="#63b8ff" points="242.91,-31.51 249.44,-23.17 239.13,-25.62 242.91,-31.51"/>
</a>
</g>
</g>
<!-- Node6 -->
<g id="Node000006" class="node">
<title>Node6</title>
<g id="a_Node000006"><a xlink:title=" ">
<polygon fill="#e0e0e0" stroke="#999999" points="201.11,-23 153.11,-23 153.11,0 201.11,0 201.11,-23"/>
<text text-anchor="middle" x="177.11" y="-7.8" font-family="Arial" font-size="14.00">limits</text>
</a>
</g>
</g>
<!-- Node4&#45;&gt;Node6 -->
<g id="edge5_Node000004_Node000006" class="edge">
<title>Node4&#45;&gt;Node6</title>
<g id="a_edge5_Node000004_Node000006"><a xlink:title=" ">
<path fill="none" stroke="#63b8ff" d="M177.11,-58.78C177.11,-51.61 177.11,-41.95 177.11,-33.31"/>
<polygon fill="#63b8ff" stroke="#63b8ff" points="180.61,-33.17 177.11,-23.17 173.61,-33.17 180.61,-33.17"/>
</a>
</g>
</g>
<!-- Node8&#45;&gt;Node5 -->
<g id="edge10_Node000008_Node000005" class="edge">
<title>Node8&#45;&gt;Node5</title>
<g id="a_edge10_Node000008_Node000005"><a xlink:title=" ">
<path fill="none" stroke="#63b8ff" d="M614.06,-117.98C607.45,-102.31 592.73,-73.16 570.11,-59 526.52,-31.73 376.43,-19.17 304.77,-14.62"/>
<polygon fill="#63b8ff" stroke="#63b8ff" points="304.58,-11.11 294.38,-13.99 304.15,-18.09 304.58,-11.11"/>
</a>
</g>
</g>
<!-- Node8&#45;&gt;Node9 -->
<g id="edge9_Node000008_Node000009" class="edge">
<title>Node8&#45;&gt;Node9</title>
<g id="a_edge9_Node000008_Node000009"><a xlink:title=" ">
<path fill="none" stroke="#63b8ff" d="M602.12,-117.78C589.53,-109.34 571.79,-97.44 557.44,-87.82"/>
<polygon fill="#63b8ff" stroke="#63b8ff" points="559.28,-84.84 549.02,-82.17 555.38,-90.65 559.28,-84.84"/>
</a>
</g>
</g>
<!-- Node10&#45;&gt;Node3 -->
<g id="edge12_Node000010_Node000003" class="edge">
<title>Node10&#45;&gt;Node3</title>
<g id="a_edge12_Node000010_Node000003"><a xlink:title=" ">
<path fill="none" stroke="#63b8ff" d="M224.32,-237.89C189.23,-231.38 148.6,-219.97 116.11,-200 95.56,-187.37 78.34,-165.39 67.69,-149.53"/>
<polygon fill="#63b8ff" stroke="#63b8ff" points="70.57,-147.52 62.21,-141.01 64.68,-151.31 70.57,-147.52"/>
</a>
</g>
</g>
<!-- Node10&#45;&gt;Node4 -->
<g id="edge13_Node000010_Node000004" class="edge">
<title>Node10&#45;&gt;Node4</title>
<g id="a_edge13_Node000010_Node000004"><a xlink:title=" ">
<path fill="none" stroke="#63b8ff" d="M255.02,-235.94C231.33,-228.86 203.54,-217.53 183.11,-200 153.16,-174.32 138.55,-156.01 149.11,-118 151.82,-108.24 157.19,-98.47 162.51,-90.43"/>
<polygon fill="#63b8ff" stroke="#63b8ff" points="165.44,-92.36 168.36,-82.17 159.72,-88.31 165.44,-92.36"/>
</a>
</g>
</g>
<!-- Node11 -->
<g id="Node000011" class="node">
<title>Node11</title>
<g id="a_Node000011"><a xlink:href="McuSelect_8h.html" target="_top" xlink:title="Centralized MCU platform selection and configuration header.">
<polygon fill="white" stroke="#666666" points="447.61,-82 294.61,-82 294.61,-59 447.61,-59 447.61,-82"/>
<text text-anchor="middle" x="371.11" y="-66.8" font-family="Arial" font-size="14.00">../../../utils/McuSelect.h</text>
</a>
</g>
</g>
<!-- Node10&#45;&gt;Node11 -->
<g id="edge14_Node000010_Node000011" class="edge">
<title>Node10&#45;&gt;Node11</title>
<g id="a_edge14_Node000010_Node000011"><a xlink:title=" ">
<path fill="none" stroke="#63b8ff" d="M310.56,-235.82C316.7,-226.64 325.32,-212.9 331.11,-200 347.6,-163.26 360.02,-117.73 366.37,-91.91"/>
<polygon fill="#63b8ff" stroke="#63b8ff" points="369.79,-92.68 368.72,-82.14 362.98,-91.05 369.79,-92.68"/>
</a>
</g>
</g>
<!-- Node12 -->
<g id="Node000012" class="node">
<title>Node12</title>
<g id="a_Node000012"><a xlink:href="EspTypes__Base_8h.html" target="_top" xlink:title="ESP32 base type definitions for hardware abstraction.">
<polygon fill="white" stroke="#666666" points="503.61,-141 378.61,-141 378.61,-118 503.61,-118 503.61,-141"/>
<text text-anchor="middle" x="441.11" y="-125.8" font-family="Arial" font-size="14.00">EspTypes_Base.h</text>
</a>
</g>
</g>
<!-- Node10&#45;&gt;Node12 -->
<g id="edge15_Node000010_Node000012" class="edge">
<title>Node10&#45;&gt;Node12</title>
<g id="a_edge15_Node000010_Node000012"><a xlink:title=" ">
<path fill="none" stroke="#63b8ff" d="M317.67,-235.93C330.19,-226.71 348.63,-212.84 364.11,-200 384.64,-182.96 407.2,-162.36 422.56,-148.03"/>
<polygon fill="#63b8ff" stroke="#63b8ff" points="424.99,-150.56 429.89,-141.16 420.2,-145.45 424.99,-150.56"/>
</a>
</g>
</g>
<!-- Node13 -->
<g id="Node000013" class="node">
<title>Node13</title>
<g id="a_Node000013"><a xlink:href="EspTypes__GPIO_8h.html" target="_top" xlink:title="ESP32 GPIO type definitions for hardware abstraction.">
<polygon fill="white" stroke="#666666" points="322.11,-200 192.11,-200 192.11,-177 322.11,-177 322.11,-200"/>
<text text-anchor="middle" x="257.11" y="-184.8" font-family="Arial" font-size="14.00">EspTypes_GPIO.h</text>
</a>
</g>
</g>
<!-- Node10&#45;&gt;Node13 -->
<g id="edge20_Node000010_Node000013" class="edge">
<title>Node10&#45;&gt;Node13</title>
<g id="a_edge20_Node000010_Node000013"><a xlink:title=" ">
<path fill="none" stroke="#63b8ff" d="M294.45,-235.78C288.16,-227.98 279.47,-217.21 272.06,-208.03"/>
<polygon fill="#63b8ff" stroke="#63b8ff" points="274.72,-205.76 265.72,-200.17 269.28,-210.15 274.72,-205.76"/>
</a>
</g>
</g>
<!-- Node12&#45;&gt;Node4 -->
<g id="edge17_Node000012_Node000004" class="edge">
<title>Node12&#45;&gt;Node4</title>
<g id="a_edge17_Node000012_Node000004"><a xlink:title=" ">
<path fill="none" stroke="#63b8ff" d="M392.38,-117.98C348.24,-108.45 283.1,-94.39 236.05,-84.23"/>
<polygon fill="#63b8ff" stroke="#63b8ff" points="236.51,-80.75 226,-82.06 235.03,-87.59 236.51,-80.75"/>
</a>
</g>
</g>
<!-- Node12&#45;&gt;Node5 -->
<g id="edge19_Node000012_Node000005" class="edge">
<title>Node12&#45;&gt;Node5</title>
<g id="a_edge19_Node000012_Node000005"><a xlink:title=" ">
<path fill="none" stroke="#63b8ff" d="M448.21,-117.89C457.12,-103.13 469.67,-76.28 456.11,-59 437.61,-35.43 354.35,-22.26 304.39,-16.35"/>
<polygon fill="#63b8ff" stroke="#63b8ff" points="304.6,-12.85 294.27,-15.2 303.81,-19.81 304.6,-12.85"/>
</a>
</g>
</g>
<!-- Node12&#45;&gt;Node9 -->
<g id="edge18_Node000012_Node000009" class="edge">
<title>Node12&#45;&gt;Node9</title>
<g id="a_edge18_Node000012_Node000009"><a xlink:title=" ">
<path fill="none" stroke="#63b8ff" d="M458.41,-117.78C472.16,-109.26 491.61,-97.21 507.21,-87.55"/>
<polygon fill="#63b8ff" stroke="#63b8ff" points="509.22,-90.42 515.88,-82.17 505.54,-84.46 509.22,-90.42"/>
</a>
</g>
</g>
<!-- Node12&#45;&gt;Node11 -->
<g id="edge16_Node000012_Node000011" class="edge">
<title>Node12&#45;&gt;Node11</title>
<g id="a_edge16_Node000012_Node000011"><a xlink:title=" ">
<path fill="none" stroke="#63b8ff" d="M427.94,-117.78C417.87,-109.58 403.78,-98.11 392.16,-88.64"/>
<polygon fill="#63b8ff" stroke="#63b8ff" points="394.18,-85.77 384.21,-82.17 389.76,-91.2 394.18,-85.77"/>
</a>
</g>
</g>
<!-- Node13&#45;&gt;Node4 -->
<g id="edge26_Node000013_Node000004" class="edge">
<title>Node13&#45;&gt;Node4</title>
<g id="a_edge26_Node000013_Node000004"><a xlink:title=" ">
<path fill="none" stroke="#63b8ff" d="M259.8,-176.75C262.78,-162.3 265.87,-136.32 255.11,-118 246.86,-103.95 232.55,-93.66 218.43,-86.39"/>
<polygon fill="#63b8ff" stroke="#63b8ff" points="219.78,-83.16 209.24,-82.04 216.78,-89.49 219.78,-83.16"/>
</a>
</g>
</g>
<!-- Node13&#45;&gt;Node11 -->
<g id="edge27_Node000013_Node000011" class="edge">
<title>Node13&#45;&gt;Node11</title>
<g id="a_edge27_Node000013_Node000011"><a xlink:title=" ">
<path fill="none" stroke="#63b8ff" d="M267.63,-176.79C287.22,-156.85 329.5,-113.84 353.51,-89.41"/>
<polygon fill="#63b8ff" stroke="#63b8ff" points="356.1,-91.76 360.61,-82.18 351.11,-86.86 356.1,-91.76"/>
</a>
</g>
</g>
<!-- Node13&#45;&gt;Node12 -->
<g id="edge25_Node000013_Node000012" class="edge">
<title>Node13&#45;&gt;Node12</title>
<g id="a_edge25_Node000013_Node000012"><a xlink:title=" ">
<path fill="none" stroke="#63b8ff" d="M291.28,-176.91C321.24,-167.63 364.94,-154.1 397.42,-144.03"/>
<polygon fill="#63b8ff" stroke="#63b8ff" points="398.6,-147.33 407.11,-141.03 396.52,-140.65 398.6,-147.33"/>
</a>
</g>
</g>
<!-- Node14 -->
<g id="Node000014" class="node">
<title>Node14</title>
<g id="a_Node000014"><a xlink:href="BaseGpio_8h.html" target="_top" xlink:title="Unified GPIO base class for all digital GPIO implementations.">
<polygon fill="white" stroke="#666666" points="246.11,-141 158.11,-141 158.11,-118 246.11,-118 246.11,-141"/>
<text text-anchor="middle" x="202.11" y="-125.8" font-family="Arial" font-size="14.00">BaseGpio.h</text>
</a>
</g>
</g>
<!-- Node13&#45;&gt;Node14 -->
<g id="edge21_Node000013_Node000014" class="edge">
<title>Node13&#45;&gt;Node14</title>
<g id="a_edge21_Node000013_Node000014"><a xlink:title=" ">
<path fill="none" stroke="#63b8ff" d="M246.76,-176.78C239.08,-168.82 228.42,-157.77 219.45,-148.47"/>
<polygon fill="#63b8ff" stroke="#63b8ff" points="221.87,-145.94 212.41,-141.17 216.83,-150.8 221.87,-145.94"/>
</a>
</g>
</g>
<!-- Node14&#45;&gt;Node4 -->
<g id="edge22_Node000014_Node000004" class="edge">
<title>Node14&#45;&gt;Node4</title>
<g id="a_edge22_Node000014_Node000004"><a xlink:title=" ">
<path fill="none" stroke="#63b8ff" d="M197.4,-117.78C194.16,-110.37 189.74,-100.3 185.86,-91.45"/>
<polygon fill="#63b8ff" stroke="#63b8ff" points="189.01,-89.93 181.79,-82.17 182.6,-92.74 189.01,-89.93"/>
</a>
</g>
</g>
<!-- Node14&#45;&gt;Node5 -->
<g id="edge23_Node000014_Node000005" class="edge">
<title>Node14&#45;&gt;Node5</title>
<g id="a_edge23_Node000014_Node000005"><a xlink:title=" ">
<path fill="none" stroke="#63b8ff" d="M215.81,-117.66C225.86,-109.01 239.1,-96.06 247.11,-82 255.79,-66.76 260.66,-47.36 263.29,-32.93"/>
<polygon fill="#63b8ff" stroke="#63b8ff" points="266.76,-33.45 264.89,-23.02 259.84,-32.33 266.76,-33.45"/>
</a>
</g>
</g>
<!-- Node14&#45;&gt;Node7 -->
<g id="edge24_Node000014_Node000007" class="edge">
<title>Node14&#45;&gt;Node7</title>
<g id="a_edge24_Node000014_Node000007"><a xlink:title=" ">
<path fill="none" stroke="#63b8ff" d="M174.99,-117.91C151.73,-108.83 118.04,-95.68 92.45,-85.69"/>
<polygon fill="#63b8ff" stroke="#63b8ff" points="93.67,-82.41 83.08,-82.03 91.12,-88.93 93.67,-82.41"/>
</a>
</g>
</g>
</g>
</svg>
