<?xml version="1.0" encoding="UTF-8" standalone="no"?>
<!DOCTYPE svg PUBLIC "-//W3C//DTD SVG 1.1//EN"
 "http://www.w3.org/Graphics/SVG/1.1/DTD/svg11.dtd">
<!-- Generated by graphviz version 2.43.0 (0)
 -->
<!-- Title: src/mcu/esp32/EspTemperature.cpp Pages: 1 -->
<svg width="1261pt" height="282pt"
 viewBox="0.00 0.00 1261.00 282.00" xmlns="http://www.w3.org/2000/svg" xmlns:xlink="http://www.w3.org/1999/xlink">
<g id="graph0" class="graph" transform="scale(1 1) rotate(0) translate(4 278)">
<title>src/mcu/esp32/EspTemperature.cpp</title>
<!-- Node1 -->
<g id="Node000001" class="node">
<title>Node1</title>
<g id="a_Node000001"><a xlink:title="ESP32&#45;C6 internal temperature sensor implementation for the HardFOC system.">
<polygon fill="#999999" stroke="#666666" points="1038,-274 804,-274 804,-251 1038,-251 1038,-274"/>
<text text-anchor="middle" x="921" y="-258.8" font-family="Arial" font-size="14.00">src/mcu/esp32/EspTemperature.cpp</text>
</a>
</g>
</g>
<!-- Node2 -->
<g id="Node000002" class="node">
<title>Node2</title>
<g id="a_Node000002"><a xlink:href="EspTemperature_8h.html" target="_top" xlink:title="ESP32&#45;C6 internal temperature sensor implementation for the HardFOC system.">
<polygon fill="white" stroke="#666666" points="825,-215 697,-215 697,-192 825,-192 825,-215"/>
<text text-anchor="middle" x="761" y="-199.8" font-family="Arial" font-size="14.00">EspTemperature.h</text>
</a>
</g>
</g>
<!-- Node1&#45;&gt;Node2 -->
<g id="edge1_Node000001_Node000002" class="edge">
<title>Node1&#45;&gt;Node2</title>
<g id="a_edge1_Node000001_Node000002"><a xlink:title=" ">
<path fill="none" stroke="#63b8ff" d="M891.28,-250.91C865.57,-241.75 828.22,-228.45 800.09,-218.43"/>
<polygon fill="#63b8ff" stroke="#63b8ff" points="801.16,-215.09 790.56,-215.03 798.81,-221.68 801.16,-215.09"/>
</a>
</g>
</g>
<!-- Node19 -->
<g id="Node000019" class="node">
<title>Node19</title>
<g id="a_Node000019"><a xlink:title=" ">
<polygon fill="#e0e0e0" stroke="#999999" points="916.5,-215 843.5,-215 843.5,-192 916.5,-192 916.5,-215"/>
<text text-anchor="middle" x="880" y="-199.8" font-family="Arial" font-size="14.00">algorithm</text>
</a>
</g>
</g>
<!-- Node1&#45;&gt;Node19 -->
<g id="edge23_Node000001_Node000019" class="edge">
<title>Node1&#45;&gt;Node19</title>
<g id="a_edge23_Node000001_Node000019"><a xlink:title=" ">
<path fill="none" stroke="#63b8ff" d="M913.29,-250.78C907.73,-243.06 900.09,-232.43 893.53,-223.31"/>
<polygon fill="#63b8ff" stroke="#63b8ff" points="896.36,-221.25 887.68,-215.17 890.68,-225.34 896.36,-221.25"/>
</a>
</g>
</g>
<!-- Node20 -->
<g id="Node000020" class="node">
<title>Node20</title>
<g id="a_Node000020"><a xlink:title=" ">
<polygon fill="#e0e0e0" stroke="#999999" points="989,-215 935,-215 935,-192 989,-192 989,-215"/>
<text text-anchor="middle" x="962" y="-199.8" font-family="Arial" font-size="14.00">cmath</text>
</a>
</g>
</g>
<!-- Node1&#45;&gt;Node20 -->
<g id="edge24_Node000001_Node000020" class="edge">
<title>Node1&#45;&gt;Node20</title>
<g id="a_edge24_Node000001_Node000020"><a xlink:title=" ">
<path fill="none" stroke="#63b8ff" d="M928.71,-250.78C934.27,-243.06 941.91,-232.43 948.47,-223.31"/>
<polygon fill="#63b8ff" stroke="#63b8ff" points="951.32,-225.34 954.32,-215.17 945.64,-221.25 951.32,-225.34"/>
</a>
</g>
</g>
<!-- Node21 -->
<g id="Node000021" class="node">
<title>Node21</title>
<g id="a_Node000021"><a xlink:title=" ">
<polygon fill="#e0e0e0" stroke="#999999" points="1063,-215 1007,-215 1007,-192 1063,-192 1063,-215"/>
<text text-anchor="middle" x="1035" y="-199.8" font-family="Arial" font-size="14.00">cstring</text>
</a>
</g>
</g>
<!-- Node1&#45;&gt;Node21 -->
<g id="edge25_Node000001_Node000021" class="edge">
<title>Node1&#45;&gt;Node21</title>
<g id="a_edge25_Node000001_Node000021"><a xlink:title=" ">
<path fill="none" stroke="#63b8ff" d="M942.18,-250.91C959.77,-242.11 985.03,-229.49 1004.76,-219.62"/>
<polygon fill="#63b8ff" stroke="#63b8ff" points="1006.56,-222.63 1013.94,-215.03 1003.43,-216.37 1006.56,-222.63"/>
</a>
</g>
</g>
<!-- Node3 -->
<g id="Node000003" class="node">
<title>Node3</title>
<g id="a_Node000003"><a xlink:href="BaseTemperature_8h.html" target="_top" xlink:title="Abstract base class for temperature sensor implementations in the HardFOC system.">
<polygon fill="white" stroke="#666666" points="315,-148.5 147,-148.5 147,-125.5 315,-125.5 315,-148.5"/>
<text text-anchor="middle" x="231" y="-133.3" font-family="Arial" font-size="14.00">base/BaseTemperature.h</text>
</a>
</g>
</g>
<!-- Node2&#45;&gt;Node3 -->
<g id="edge2_Node000002_Node000003" class="edge">
<title>Node2&#45;&gt;Node3</title>
<g id="a_edge2_Node000002_Node000003"><a xlink:title=" ">
<path fill="none" stroke="#63b8ff" d="M696.72,-195.6C617.13,-186.94 477.45,-171.35 358,-156 343.46,-154.13 328.01,-152.03 313.07,-149.95"/>
<polygon fill="#63b8ff" stroke="#63b8ff" points="313.21,-146.44 302.82,-148.51 312.24,-153.37 313.21,-146.44"/>
</a>
</g>
</g>
<!-- Node8 -->
<g id="Node000008" class="node">
<title>Node8</title>
<g id="a_Node000008"><a xlink:href="RtosMutex_8h.html" target="_top" xlink:title="Cross&#45;platform RTOS mutex and synchronization primitives.">
<polygon fill="white" stroke="#666666" points="648.5,-148.5 527.5,-148.5 527.5,-125.5 648.5,-125.5 648.5,-148.5"/>
<text text-anchor="middle" x="588" y="-133.3" font-family="Arial" font-size="14.00">utils/RtosMutex.h</text>
</a>
</g>
</g>
<!-- Node2&#45;&gt;Node8 -->
<g id="edge8_Node000002_Node000008" class="edge">
<title>Node2&#45;&gt;Node8</title>
<g id="a_edge8_Node000002_Node000008"><a xlink:title=" ">
<path fill="none" stroke="#63b8ff" d="M732.82,-191.99C703.67,-181.12 657.97,-164.09 625.71,-152.06"/>
<polygon fill="#63b8ff" stroke="#63b8ff" points="626.76,-148.72 616.17,-148.5 624.32,-155.28 626.76,-148.72"/>
</a>
</g>
</g>
<!-- Node10 -->
<g id="Node000010" class="node">
<title>Node10</title>
<g id="a_Node000010"><a xlink:title=" ">
<polygon fill="#e0e0e0" stroke="#999999" points="423.5,-82 280.5,-82 280.5,-59 423.5,-59 423.5,-82"/>
<text text-anchor="middle" x="352" y="-66.8" font-family="Arial" font-size="14.00">freertos/FreeRTOS.h</text>
</a>
</g>
</g>
<!-- Node2&#45;&gt;Node10 -->
<g id="edge19_Node000002_Node000010" class="edge">
<title>Node2&#45;&gt;Node10</title>
<g id="a_edge19_Node000002_Node000010"><a xlink:title=" ">
<path fill="none" stroke="#63b8ff" d="M696.8,-195.24C647.05,-188.42 576.92,-176.18 518,-156 465.65,-138.07 409.12,-106.36 377.39,-87.3"/>
<polygon fill="#63b8ff" stroke="#63b8ff" points="379.1,-84.25 368.74,-82.05 375.47,-90.23 379.1,-84.25"/>
</a>
</g>
</g>
<!-- Node12 -->
<g id="Node000012" class="node">
<title>Node12</title>
<g id="a_Node000012"><a xlink:title=" ">
<polygon fill="#e0e0e0" stroke="#999999" points="832,-82 730,-82 730,-59 832,-59 832,-82"/>
<text text-anchor="middle" x="781" y="-66.8" font-family="Arial" font-size="14.00">freertos/task.h</text>
</a>
</g>
</g>
<!-- Node2&#45;&gt;Node12 -->
<g id="edge20_Node000002_Node000012" class="edge">
<title>Node2&#45;&gt;Node12</title>
<g id="a_edge20_Node000002_Node000012"><a xlink:title=" ">
<path fill="none" stroke="#63b8ff" d="M738.71,-191.86C725.09,-184.03 708.83,-171.98 701,-156 693.57,-140.83 692.58,-132.64 701,-118 709.15,-103.84 723.45,-93.59 737.73,-86.38"/>
<polygon fill="#63b8ff" stroke="#63b8ff" points="739.44,-89.44 747.05,-82.07 736.5,-83.09 739.44,-89.44"/>
</a>
</g>
</g>
<!-- Node13 -->
<g id="Node000013" class="node">
<title>Node13</title>
<g id="a_Node000013"><a xlink:title=" ">
<polygon fill="#e0e0e0" stroke="#999999" points="907.5,-82 850.5,-82 850.5,-59 907.5,-59 907.5,-82"/>
<text text-anchor="middle" x="879" y="-66.8" font-family="Arial" font-size="14.00">atomic</text>
</a>
</g>
</g>
<!-- Node2&#45;&gt;Node13 -->
<g id="edge21_Node000002_Node000013" class="edge">
<title>Node2&#45;&gt;Node13</title>
<g id="a_edge21_Node000002_Node000013"><a xlink:title=" ">
<path fill="none" stroke="#63b8ff" d="M752.05,-191.92C738.79,-174.9 717.21,-141.02 734,-118 737.27,-113.51 798.72,-94.88 840.56,-82.61"/>
<polygon fill="#63b8ff" stroke="#63b8ff" points="841.59,-85.96 850.21,-79.79 839.62,-79.24 841.59,-85.96"/>
</a>
</g>
</g>
<!-- Node14 -->
<g id="Node000014" class="node">
<title>Node14</title>
<g id="a_Node000014"><a xlink:title=" ">
<polygon fill="#e0e0e0" stroke="#999999" points="871,-156 743,-156 743,-118 871,-118 871,-156"/>
<text text-anchor="start" x="751" y="-140.8" font-family="Arial" font-size="14.00">driver/temperature</text>
<text text-anchor="middle" x="807" y="-125.8" font-family="Arial" font-size="14.00">_sensor.h</text>
</a>
</g>
</g>
<!-- Node2&#45;&gt;Node14 -->
<g id="edge15_Node000002_Node000014" class="edge">
<title>Node2&#45;&gt;Node14</title>
<g id="a_edge15_Node000002_Node000014"><a xlink:title=" ">
<path fill="none" stroke="#63b8ff" d="M768.6,-191.85C773.92,-184.38 781.3,-174.04 788.16,-164.42"/>
<polygon fill="#63b8ff" stroke="#63b8ff" points="791.03,-166.42 793.99,-156.24 785.33,-162.35 791.03,-166.42"/>
</a>
</g>
</g>
<!-- Node15 -->
<g id="Node000015" class="node">
<title>Node15</title>
<g id="a_Node000015"><a xlink:title=" ">
<polygon fill="#e0e0e0" stroke="#999999" points="962.5,-148.5 889.5,-148.5 889.5,-125.5 962.5,-125.5 962.5,-148.5"/>
<text text-anchor="middle" x="926" y="-133.3" font-family="Arial" font-size="14.00">esp_err.h</text>
</a>
</g>
</g>
<!-- Node2&#45;&gt;Node15 -->
<g id="edge16_Node000002_Node000015" class="edge">
<title>Node2&#45;&gt;Node15</title>
<g id="a_edge16_Node000002_Node000015"><a xlink:title=" ">
<path fill="none" stroke="#63b8ff" d="M787.94,-191.98C812.06,-182.55 848.39,-168.36 880,-156 883.04,-154.81 886.18,-153.58 889.34,-152.35"/>
<polygon fill="#63b8ff" stroke="#63b8ff" points="890.72,-155.57 898.76,-148.66 888.17,-149.05 890.72,-155.57"/>
</a>
</g>
</g>
<!-- Node16 -->
<g id="Node000016" class="node">
<title>Node16</title>
<g id="a_Node000016"><a xlink:title=" ">
<polygon fill="#e0e0e0" stroke="#999999" points="1055.5,-148.5 980.5,-148.5 980.5,-125.5 1055.5,-125.5 1055.5,-148.5"/>
<text text-anchor="middle" x="1018" y="-133.3" font-family="Arial" font-size="14.00">esp_log.h</text>
</a>
</g>
</g>
<!-- Node2&#45;&gt;Node16 -->
<g id="edge17_Node000002_Node000016" class="edge">
<title>Node2&#45;&gt;Node16</title>
<g id="a_edge17_Node000002_Node000016"><a xlink:title=" ">
<path fill="none" stroke="#63b8ff" d="M820.76,-191.91C863.36,-183.74 921.75,-171.27 972,-156 975.77,-154.85 979.67,-153.54 983.53,-152.16"/>
<polygon fill="#63b8ff" stroke="#63b8ff" points="984.81,-155.41 992.94,-148.62 982.35,-148.86 984.81,-155.41"/>
</a>
</g>
</g>
<!-- Node17 -->
<g id="Node000017" class="node">
<title>Node17</title>
<g id="a_Node000017"><a xlink:title=" ">
<polygon fill="#e0e0e0" stroke="#999999" points="1160.5,-148.5 1073.5,-148.5 1073.5,-125.5 1160.5,-125.5 1160.5,-148.5"/>
<text text-anchor="middle" x="1117" y="-133.3" font-family="Arial" font-size="14.00">esp_timer.h</text>
</a>
</g>
</g>
<!-- Node2&#45;&gt;Node17 -->
<g id="edge18_Node000002_Node000017" class="edge">
<title>Node2&#45;&gt;Node17</title>
<g id="a_edge18_Node000002_Node000017"><a xlink:title=" ">
<path fill="none" stroke="#63b8ff" d="M825.18,-193.32C907.44,-181.45 1042.23,-161.63 1065,-156 1069.79,-154.81 1074.76,-153.38 1079.65,-151.83"/>
<polygon fill="#63b8ff" stroke="#63b8ff" points="1081.1,-155.04 1089.48,-148.57 1078.89,-148.4 1081.1,-155.04"/>
</a>
</g>
</g>
<!-- Node18 -->
<g id="Node000018" class="node">
<title>Node18</title>
<g id="a_Node000018"><a xlink:title=" ">
<polygon fill="#e0e0e0" stroke="#999999" points="1253,-148.5 1179,-148.5 1179,-125.5 1253,-125.5 1253,-148.5"/>
<text text-anchor="middle" x="1216" y="-133.3" font-family="Arial" font-size="14.00">functional</text>
</a>
</g>
</g>
<!-- Node2&#45;&gt;Node18 -->
<g id="edge22_Node000002_Node000018" class="edge">
<title>Node2&#45;&gt;Node18</title>
<g id="a_edge22_Node000002_Node000018"><a xlink:title=" ">
<path fill="none" stroke="#63b8ff" d="M825.16,-193.26C828.48,-192.82 831.78,-192.4 835,-192 983.6,-173.48 1024.55,-191.6 1170,-156 1174.22,-154.97 1178.57,-153.64 1182.83,-152.17"/>
<polygon fill="#63b8ff" stroke="#63b8ff" points="1184.36,-155.34 1192.52,-148.58 1181.92,-148.78 1184.36,-155.34"/>
</a>
</g>
</g>
<!-- Node4 -->
<g id="Node000004" class="node">
<title>Node4</title>
<g id="a_Node000004"><a xlink:href="HardwareTypes_8h.html" target="_top" xlink:title="Platform&#45;agnostic hardware type definitions for the HardFOC system.">
<polygon fill="white" stroke="#666666" points="122,-82 0,-82 0,-59 122,-59 122,-82"/>
<text text-anchor="middle" x="61" y="-66.8" font-family="Arial" font-size="14.00">HardwareTypes.h</text>
</a>
</g>
</g>
<!-- Node3&#45;&gt;Node4 -->
<g id="edge3_Node000003_Node000004" class="edge">
<title>Node3&#45;&gt;Node4</title>
<g id="a_edge3_Node000003_Node000004"><a xlink:title=" ">
<path fill="none" stroke="#63b8ff" d="M203.31,-125.49C174.66,-114.62 129.75,-97.59 98.06,-85.56"/>
<polygon fill="#63b8ff" stroke="#63b8ff" points="99.27,-82.28 88.68,-82 96.79,-88.82 99.27,-82.28"/>
</a>
</g>
</g>
<!-- Node5 -->
<g id="Node000005" class="node">
<title>Node5</title>
<g id="a_Node000005"><a xlink:title=" ">
<polygon fill="#e0e0e0" stroke="#999999" points="280,-23 224,-23 224,0 280,0 280,-23"/>
<text text-anchor="middle" x="252" y="-7.8" font-family="Arial" font-size="14.00">cstdint</text>
</a>
</g>
</g>
<!-- Node3&#45;&gt;Node5 -->
<g id="edge6_Node000003_Node000005" class="edge">
<title>Node3&#45;&gt;Node5</title>
<g id="a_edge6_Node000003_Node000005"><a xlink:title=" ">
<path fill="none" stroke="#63b8ff" d="M232.79,-125.47C236.26,-105.05 243.96,-59.76 248.49,-33.14"/>
<polygon fill="#63b8ff" stroke="#63b8ff" points="251.99,-33.45 250.21,-23 245.09,-32.27 251.99,-33.45"/>
</a>
</g>
</g>
<!-- Node7 -->
<g id="Node000007" class="node">
<title>Node7</title>
<g id="a_Node000007"><a xlink:title=" ">
<polygon fill="#e0e0e0" stroke="#999999" points="224,-82 140,-82 140,-59 224,-59 224,-82"/>
<text text-anchor="middle" x="182" y="-66.8" font-family="Arial" font-size="14.00">string_view</text>
</a>
</g>
</g>
<!-- Node3&#45;&gt;Node7 -->
<g id="edge7_Node000003_Node000007" class="edge">
<title>Node3&#45;&gt;Node7</title>
<g id="a_edge7_Node000003_Node000007"><a xlink:title=" ">
<path fill="none" stroke="#63b8ff" d="M222.91,-125.35C215.72,-115.88 205.03,-101.82 196.39,-90.44"/>
<polygon fill="#63b8ff" stroke="#63b8ff" points="199.1,-88.23 190.27,-82.38 193.53,-92.46 199.1,-88.23"/>
</a>
</g>
</g>
<!-- Node4&#45;&gt;Node5 -->
<g id="edge4_Node000004_Node000005" class="edge">
<title>Node4&#45;&gt;Node5</title>
<g id="a_edge4_Node000004_Node000005"><a xlink:title=" ">
<path fill="none" stroke="#63b8ff" d="M96.48,-58.91C129.96,-48.92 180,-33.99 214.22,-23.78"/>
<polygon fill="#63b8ff" stroke="#63b8ff" points="215.27,-27.11 223.85,-20.9 213.27,-20.41 215.27,-27.11"/>
</a>
</g>
</g>
<!-- Node6 -->
<g id="Node000006" class="node">
<title>Node6</title>
<g id="a_Node000006"><a xlink:title=" ">
<polygon fill="#e0e0e0" stroke="#999999" points="85,-23 37,-23 37,0 85,0 85,-23"/>
<text text-anchor="middle" x="61" y="-7.8" font-family="Arial" font-size="14.00">limits</text>
</a>
</g>
</g>
<!-- Node4&#45;&gt;Node6 -->
<g id="edge5_Node000004_Node000006" class="edge">
<title>Node4&#45;&gt;Node6</title>
<g id="a_edge5_Node000004_Node000006"><a xlink:title=" ">
<path fill="none" stroke="#63b8ff" d="M61,-58.78C61,-51.61 61,-41.95 61,-33.31"/>
<polygon fill="#63b8ff" stroke="#63b8ff" points="64.5,-33.17 61,-23.17 57.5,-33.17 64.5,-33.17"/>
</a>
</g>
</g>
<!-- Node8&#45;&gt;Node5 -->
<g id="edge14_Node000008_Node000005" class="edge">
<title>Node8&#45;&gt;Node5</title>
<g id="a_edge14_Node000008_Node000005"><a xlink:title=" ">
<path fill="none" stroke="#63b8ff" d="M563,-125.33C539.07,-114.92 502.11,-98.3 471,-82 453.18,-72.66 450.59,-66.7 432,-59 384.85,-39.46 327.27,-26.32 290.13,-19.13"/>
<polygon fill="#63b8ff" stroke="#63b8ff" points="290.7,-15.67 280.23,-17.25 289.4,-22.55 290.7,-15.67"/>
</a>
</g>
</g>
<!-- Node9 -->
<g id="Node000009" class="node">
<title>Node9</title>
<g id="a_Node000009"><a xlink:href="McuSelect_8h.html" target="_top" xlink:title="Centralized MCU platform selection and configuration header.">
<polygon fill="white" stroke="#666666" points="572,-82 480,-82 480,-59 572,-59 572,-82"/>
<text text-anchor="middle" x="526" y="-66.8" font-family="Arial" font-size="14.00">McuSelect.h</text>
</a>
</g>
</g>
<!-- Node8&#45;&gt;Node9 -->
<g id="edge9_Node000008_Node000009" class="edge">
<title>Node8&#45;&gt;Node9</title>
<g id="a_edge9_Node000008_Node000009"><a xlink:title=" ">
<path fill="none" stroke="#63b8ff" d="M577.76,-125.35C568.48,-115.7 554.61,-101.27 543.57,-89.78"/>
<polygon fill="#63b8ff" stroke="#63b8ff" points="545.91,-87.17 536.46,-82.38 540.87,-92.02 545.91,-87.17"/>
</a>
</g>
</g>
<!-- Node8&#45;&gt;Node10 -->
<g id="edge10_Node000008_Node000010" class="edge">
<title>Node8&#45;&gt;Node10</title>
<g id="a_edge10_Node000008_Node000010"><a xlink:title=" ">
<path fill="none" stroke="#63b8ff" d="M549.56,-125.49C508.84,-114.37 444.48,-96.77 400.35,-84.71"/>
<polygon fill="#63b8ff" stroke="#63b8ff" points="401,-81.26 390.43,-82 399.15,-88.01 401,-81.26"/>
</a>
</g>
</g>
<!-- Node11 -->
<g id="Node000011" class="node">
<title>Node11</title>
<g id="a_Node000011"><a xlink:title=" ">
<polygon fill="#e0e0e0" stroke="#999999" points="712,-82 590,-82 590,-59 712,-59 712,-82"/>
<text text-anchor="middle" x="651" y="-66.8" font-family="Arial" font-size="14.00">freertos/semphr.h</text>
</a>
</g>
</g>
<!-- Node8&#45;&gt;Node11 -->
<g id="edge11_Node000008_Node000011" class="edge">
<title>Node8&#45;&gt;Node11</title>
<g id="a_edge11_Node000008_Node000011"><a xlink:title=" ">
<path fill="none" stroke="#63b8ff" d="M598.4,-125.35C607.83,-115.7 621.92,-101.27 633.15,-89.78"/>
<polygon fill="#63b8ff" stroke="#63b8ff" points="635.89,-91.98 640.37,-82.38 630.88,-87.09 635.89,-91.98"/>
</a>
</g>
</g>
<!-- Node8&#45;&gt;Node12 -->
<g id="edge12_Node000008_Node000012" class="edge">
<title>Node8&#45;&gt;Node12</title>
<g id="a_edge12_Node000008_Node000012"><a xlink:title=" ">
<path fill="none" stroke="#63b8ff" d="M619.44,-125.49C652.24,-114.53 703.83,-97.29 739.85,-85.25"/>
<polygon fill="#63b8ff" stroke="#63b8ff" points="741.2,-88.49 749.58,-82 738.98,-81.85 741.2,-88.49"/>
</a>
</g>
</g>
<!-- Node8&#45;&gt;Node13 -->
<g id="edge13_Node000008_Node000013" class="edge">
<title>Node8&#45;&gt;Node13</title>
<g id="a_edge13_Node000008_Node000013"><a xlink:title=" ">
<path fill="none" stroke="#63b8ff" d="M642.01,-125.44C691.17,-115.61 765.96,-100.11 840.39,-82.04"/>
<polygon fill="#63b8ff" stroke="#63b8ff" points="841.53,-85.37 850.41,-79.59 839.87,-78.57 841.53,-85.37"/>
</a>
</g>
</g>
</g>
</svg>
