<?xml version="1.0" encoding="UTF-8" standalone="no"?>
<!DOCTYPE svg PUBLIC "-//W3C//DTD SVG 1.1//EN"
 "http://www.w3.org/Graphics/SVG/1.1/DTD/svg11.dtd">
<!-- Generated by graphviz version 2.43.0 (0)
 -->
<!-- Title: inc/mcu/esp32/utils/EspTypes_ADC.h Pages: 1 -->
<svg width="866pt" height="223pt"
 viewBox="0.00 0.00 866.00 223.00" xmlns="http://www.w3.org/2000/svg" xmlns:xlink="http://www.w3.org/1999/xlink">
<g id="graph0" class="graph" transform="scale(1 1) rotate(0) translate(4 219)">
<title>inc/mcu/esp32/utils/EspTypes_ADC.h</title>
<!-- Node1 -->
<g id="Node000001" class="node">
<title>Node1</title>
<g id="a_Node000001"><a xlink:title="ESP32 ADC type definitions for hardware abstraction.">
<polygon fill="#999999" stroke="#666666" points="495,-215 363,-215 363,-177 495,-177 495,-215"/>
<text text-anchor="start" x="371" y="-199.8" font-family="Arial" font-size="14.00">inc/mcu/esp32/utils</text>
<text text-anchor="middle" x="429" y="-184.8" font-family="Arial" font-size="14.00">/EspTypes_ADC.h</text>
</a>
</g>
</g>
<!-- Node2 -->
<g id="Node000002" class="node">
<title>Node2</title>
<g id="a_Node000002"><a xlink:href="BaseAdc_8h.html" target="_top" xlink:title="Abstract base class for ADC implementations in the HardFOC system.">
<polygon fill="white" stroke="#666666" points="245,-141 163,-141 163,-118 245,-118 245,-141"/>
<text text-anchor="middle" x="204" y="-125.8" font-family="Arial" font-size="14.00">BaseAdc.h</text>
</a>
</g>
</g>
<!-- Node1&#45;&gt;Node2 -->
<g id="edge1_Node000001_Node000002" class="edge">
<title>Node1&#45;&gt;Node2</title>
<g id="a_edge1_Node000001_Node000002"><a xlink:title=" ">
<path fill="none" stroke="#63b8ff" d="M366.03,-176.95C329.5,-166.48 284.28,-153.51 250.9,-143.94"/>
<polygon fill="#63b8ff" stroke="#63b8ff" points="251.52,-140.48 240.94,-141.09 249.59,-147.21 251.52,-140.48"/>
</a>
</g>
</g>
<!-- Node3 -->
<g id="Node000003" class="node">
<title>Node3</title>
<g id="a_Node000003"><a xlink:href="HardwareTypes_8h.html" target="_top" xlink:title="Platform&#45;agnostic hardware type definitions for the HardFOC system.">
<polygon fill="white" stroke="#666666" points="354,-82 232,-82 232,-59 354,-59 354,-82"/>
<text text-anchor="middle" x="293" y="-66.8" font-family="Arial" font-size="14.00">HardwareTypes.h</text>
</a>
</g>
</g>
<!-- Node1&#45;&gt;Node3 -->
<g id="edge13_Node000001_Node000003" class="edge">
<title>Node1&#45;&gt;Node3</title>
<g id="a_edge13_Node000001_Node000003"><a xlink:title=" ">
<path fill="none" stroke="#63b8ff" d="M364.37,-176.91C345.18,-168.71 325.66,-157.13 312,-141 300.53,-127.46 295.94,-107.59 294.12,-92.56"/>
<polygon fill="#63b8ff" stroke="#63b8ff" points="297.58,-91.85 293.21,-82.19 290.6,-92.46 297.58,-91.85"/>
</a>
</g>
</g>
<!-- Node8 -->
<g id="Node000008" class="node">
<title>Node8</title>
<g id="a_Node000008"><a xlink:href="EspTypes__Base_8h.html" target="_top" xlink:title="ESP32 base type definitions for hardware abstraction.">
<polygon fill="white" stroke="#666666" points="446.5,-141 321.5,-141 321.5,-118 446.5,-118 446.5,-141"/>
<text text-anchor="middle" x="384" y="-125.8" font-family="Arial" font-size="14.00">EspTypes_Base.h</text>
</a>
</g>
</g>
<!-- Node1&#45;&gt;Node8 -->
<g id="edge8_Node000001_Node000008" class="edge">
<title>Node1&#45;&gt;Node8</title>
<g id="a_edge8_Node000001_Node000008"><a xlink:title=" ">
<path fill="none" stroke="#63b8ff" d="M416.23,-176.69C410.29,-168.18 403.23,-158.06 397.23,-149.46"/>
<polygon fill="#63b8ff" stroke="#63b8ff" points="400.05,-147.39 391.46,-141.19 394.31,-151.4 400.05,-147.39"/>
</a>
</g>
</g>
<!-- Node9 -->
<g id="Node000009" class="node">
<title>Node9</title>
<g id="a_Node000009"><a xlink:href="McuSelect_8h.html" target="_top" xlink:title="Centralized MCU platform selection and configuration header.">
<polygon fill="white" stroke="#666666" points="628,-82 486,-82 486,-59 628,-59 628,-82"/>
<text text-anchor="middle" x="557" y="-66.8" font-family="Arial" font-size="14.00">../../utils/McuSelect.h</text>
</a>
</g>
</g>
<!-- Node1&#45;&gt;Node9 -->
<g id="edge14_Node000001_Node000009" class="edge">
<title>Node1&#45;&gt;Node9</title>
<g id="a_edge14_Node000001_Node000009"><a xlink:title=" ">
<path fill="none" stroke="#63b8ff" d="M442.37,-176.84C454.81,-160.54 474.34,-136.42 494,-118 505.82,-106.93 520.27,-96.1 532.36,-87.68"/>
<polygon fill="#63b8ff" stroke="#63b8ff" points="534.38,-90.53 540.66,-82 530.43,-84.75 534.38,-90.53"/>
</a>
</g>
</g>
<!-- Node11 -->
<g id="Node000011" class="node">
<title>Node11</title>
<g id="a_Node000011"><a xlink:title=" ">
<polygon fill="#e0e0e0" stroke="#999999" points="679.5,-141 502.5,-141 502.5,-118 679.5,-118 679.5,-141"/>
<text text-anchor="middle" x="591" y="-125.8" font-family="Arial" font-size="14.00">esp_adc/adc_continuous.h</text>
</a>
</g>
</g>
<!-- Node1&#45;&gt;Node11 -->
<g id="edge15_Node000001_Node000011" class="edge">
<title>Node1&#45;&gt;Node11</title>
<g id="a_edge15_Node000001_Node000011"><a xlink:title=" ">
<path fill="none" stroke="#63b8ff" d="M474.56,-176.86C500.06,-166.71 531.39,-154.23 555.13,-144.78"/>
<polygon fill="#63b8ff" stroke="#63b8ff" points="556.48,-148.01 564.47,-141.06 553.89,-141.51 556.48,-148.01"/>
</a>
</g>
</g>
<!-- Node12 -->
<g id="Node000012" class="node">
<title>Node12</title>
<g id="a_Node000012"><a xlink:title=" ">
<polygon fill="#e0e0e0" stroke="#999999" points="858,-141 698,-141 698,-118 858,-118 858,-141"/>
<text text-anchor="middle" x="778" y="-125.8" font-family="Arial" font-size="14.00">esp_adc/adc_oneshot.h</text>
</a>
</g>
</g>
<!-- Node1&#45;&gt;Node12 -->
<g id="edge16_Node000001_Node000012" class="edge">
<title>Node1&#45;&gt;Node12</title>
<g id="a_edge16_Node000001_Node000012"><a xlink:title=" ">
<path fill="none" stroke="#63b8ff" d="M495.05,-182.79C556.92,-171.36 648.92,-154.36 711.07,-142.87"/>
<polygon fill="#63b8ff" stroke="#63b8ff" points="711.96,-146.26 721.16,-141 710.69,-139.38 711.96,-146.26"/>
</a>
</g>
</g>
<!-- Node2&#45;&gt;Node3 -->
<g id="edge2_Node000002_Node000003" class="edge">
<title>Node2&#45;&gt;Node3</title>
<g id="a_edge2_Node000002_Node000003"><a xlink:title=" ">
<path fill="none" stroke="#63b8ff" d="M220.74,-117.78C233.92,-109.34 252.5,-97.44 267.52,-87.82"/>
<polygon fill="#63b8ff" stroke="#63b8ff" points="269.8,-90.51 276.33,-82.17 266.03,-84.62 269.8,-90.51"/>
</a>
</g>
</g>
<!-- Node4 -->
<g id="Node000004" class="node">
<title>Node4</title>
<g id="a_Node000004"><a xlink:title=" ">
<polygon fill="#e0e0e0" stroke="#999999" points="286,-23 230,-23 230,0 286,0 286,-23"/>
<text text-anchor="middle" x="258" y="-7.8" font-family="Arial" font-size="14.00">cstdint</text>
</a>
</g>
</g>
<!-- Node2&#45;&gt;Node4 -->
<g id="edge5_Node000002_Node000004" class="edge">
<title>Node2&#45;&gt;Node4</title>
<g id="a_edge5_Node000002_Node000004"><a xlink:title=" ">
<path fill="none" stroke="#63b8ff" d="M205.65,-117.69C208.08,-103.63 213.41,-78.54 223,-59 227.89,-49.04 235.02,-39.06 241.58,-30.92"/>
<polygon fill="#63b8ff" stroke="#63b8ff" points="244.33,-33.09 248.08,-23.18 238.97,-28.58 244.33,-33.09"/>
</a>
</g>
</g>
<!-- Node6 -->
<g id="Node000006" class="node">
<title>Node6</title>
<g id="a_Node000006"><a xlink:title=" ">
<polygon fill="#e0e0e0" stroke="#999999" points="74,-82 0,-82 0,-59 74,-59 74,-82"/>
<text text-anchor="middle" x="37" y="-66.8" font-family="Arial" font-size="14.00">functional</text>
</a>
</g>
</g>
<!-- Node2&#45;&gt;Node6 -->
<g id="edge6_Node000002_Node000006" class="edge">
<title>Node2&#45;&gt;Node6</title>
<g id="a_edge6_Node000002_Node000006"><a xlink:title=" ">
<path fill="none" stroke="#63b8ff" d="M172.98,-117.91C146.03,-108.71 106.82,-95.33 77.42,-85.29"/>
<polygon fill="#63b8ff" stroke="#63b8ff" points="78.45,-81.95 67.85,-82.03 76.19,-88.57 78.45,-81.95"/>
</a>
</g>
</g>
<!-- Node7 -->
<g id="Node000007" class="node">
<title>Node7</title>
<g id="a_Node000007"><a xlink:title=" ">
<polygon fill="#e0e0e0" stroke="#999999" points="176,-82 92,-82 92,-59 176,-59 176,-82"/>
<text text-anchor="middle" x="134" y="-66.8" font-family="Arial" font-size="14.00">string_view</text>
</a>
</g>
</g>
<!-- Node2&#45;&gt;Node7 -->
<g id="edge7_Node000002_Node000007" class="edge">
<title>Node2&#45;&gt;Node7</title>
<g id="a_edge7_Node000002_Node000007"><a xlink:title=" ">
<path fill="none" stroke="#63b8ff" d="M190.83,-117.78C180.76,-109.58 166.68,-98.11 155.05,-88.64"/>
<polygon fill="#63b8ff" stroke="#63b8ff" points="157.07,-85.77 147.11,-82.17 152.65,-91.2 157.07,-85.77"/>
</a>
</g>
</g>
<!-- Node3&#45;&gt;Node4 -->
<g id="edge3_Node000003_Node000004" class="edge">
<title>Node3&#45;&gt;Node4</title>
<g id="a_edge3_Node000003_Node000004"><a xlink:title=" ">
<path fill="none" stroke="#63b8ff" d="M286.42,-58.78C281.77,-51.22 275.42,-40.87 269.9,-31.88"/>
<polygon fill="#63b8ff" stroke="#63b8ff" points="272.77,-29.86 264.55,-23.17 266.8,-33.53 272.77,-29.86"/>
</a>
</g>
</g>
<!-- Node5 -->
<g id="Node000005" class="node">
<title>Node5</title>
<g id="a_Node000005"><a xlink:title=" ">
<polygon fill="#e0e0e0" stroke="#999999" points="352,-23 304,-23 304,0 352,0 352,-23"/>
<text text-anchor="middle" x="328" y="-7.8" font-family="Arial" font-size="14.00">limits</text>
</a>
</g>
</g>
<!-- Node3&#45;&gt;Node5 -->
<g id="edge4_Node000003_Node000005" class="edge">
<title>Node3&#45;&gt;Node5</title>
<g id="a_edge4_Node000003_Node000005"><a xlink:title=" ">
<path fill="none" stroke="#63b8ff" d="M299.58,-58.78C304.23,-51.22 310.58,-40.87 316.1,-31.88"/>
<polygon fill="#63b8ff" stroke="#63b8ff" points="319.2,-33.53 321.45,-23.17 313.23,-29.86 319.2,-33.53"/>
</a>
</g>
</g>
<!-- Node8&#45;&gt;Node3 -->
<g id="edge10_Node000008_Node000003" class="edge">
<title>Node8&#45;&gt;Node3</title>
<g id="a_edge10_Node000008_Node000003"><a xlink:title=" ">
<path fill="none" stroke="#63b8ff" d="M366.88,-117.78C353.28,-109.26 334.05,-97.21 318.62,-87.55"/>
<polygon fill="#63b8ff" stroke="#63b8ff" points="320.37,-84.52 310.04,-82.17 316.66,-90.45 320.37,-84.52"/>
</a>
</g>
</g>
<!-- Node8&#45;&gt;Node4 -->
<g id="edge12_Node000008_Node000004" class="edge">
<title>Node8&#45;&gt;Node4</title>
<g id="a_edge12_Node000008_Node000004"><a xlink:title=" ">
<path fill="none" stroke="#63b8ff" d="M383.48,-117.76C382.21,-102.85 377.86,-75.81 363,-59 353.55,-48.3 321.81,-35.02 295.68,-25.4"/>
<polygon fill="#63b8ff" stroke="#63b8ff" points="296.6,-22 286,-21.9 294.22,-28.59 296.6,-22"/>
</a>
</g>
</g>
<!-- Node8&#45;&gt;Node9 -->
<g id="edge9_Node000008_Node000009" class="edge">
<title>Node8&#45;&gt;Node9</title>
<g id="a_edge9_Node000008_Node000009"><a xlink:title=" ">
<path fill="none" stroke="#63b8ff" d="M416.13,-117.91C444.17,-108.67 485.03,-95.21 515.53,-85.16"/>
<polygon fill="#63b8ff" stroke="#63b8ff" points="516.64,-88.48 525.04,-82.03 514.44,-81.84 516.64,-88.48"/>
</a>
</g>
</g>
<!-- Node10 -->
<g id="Node000010" class="node">
<title>Node10</title>
<g id="a_Node000010"><a xlink:title=" ">
<polygon fill="#e0e0e0" stroke="#999999" points="467.5,-82 410.5,-82 410.5,-59 467.5,-59 467.5,-82"/>
<text text-anchor="middle" x="439" y="-66.8" font-family="Arial" font-size="14.00">atomic</text>
</a>
</g>
</g>
<!-- Node8&#45;&gt;Node10 -->
<g id="edge11_Node000008_Node000010" class="edge">
<title>Node8&#45;&gt;Node10</title>
<g id="a_edge11_Node000008_Node000010"><a xlink:title=" ">
<path fill="none" stroke="#63b8ff" d="M394.35,-117.78C402.03,-109.82 412.68,-98.77 421.66,-89.47"/>
<polygon fill="#63b8ff" stroke="#63b8ff" points="424.28,-91.8 428.7,-82.17 419.24,-86.94 424.28,-91.8"/>
</a>
</g>
</g>
</g>
</svg>
