<?xml version="1.0" encoding="UTF-8" standalone="no"?>
<!DOCTYPE svg PUBLIC "-//W3C//DTD SVG 1.1//EN"
 "http://www.w3.org/Graphics/SVG/1.1/DTD/svg11.dtd">
<!-- Generated by graphviz version 2.43.0 (0)
 -->
<!-- Title: inc/mcu/esp32/utils/EspTypes_Timer.h Pages: 1 -->
<svg width="413pt" height="223pt"
 viewBox="0.00 0.00 412.50 223.00" xmlns="http://www.w3.org/2000/svg" xmlns:xlink="http://www.w3.org/1999/xlink">

<svg id="main" version="1.1" xmlns="http://www.w3.org/2000/svg" xmlns:xlink="http://www.w3.org/1999/xlink" xml:space="preserve" onload="init(evt)">
<style type="text/css"><![CDATA[
.node, .edge {opacity: 0.7;}
.node.selected, .edge.selected {opacity: 1;}
.edge:hover path { stroke: red; }
.edge:hover polygon { stroke: red; fill: red; }
]]></style>
<script type="application/ecmascript" xlink:href="svg.min.js"/>
<svg id="graph" class="graph">
<g id="graph0" class="graph" transform="scale(1 1) rotate(0) translate(4 219)">
<title>inc/mcu/esp32/utils/EspTypes_Timer.h</title>
<!-- Node1 -->
<g id="Node000001" class="node">
<title>Node1</title>
<g id="a_Node000001"><a xlink:title="ESP32 timer type definitions for hardware abstraction.">
<polygon fill="#999999" stroke="#666666" points="309.5,-215 176.5,-215 176.5,-177 309.5,-177 309.5,-215"/>
<text text-anchor="start" x="184.5" y="-199.8" font-family="Arial" font-size="14.00">inc/mcu/esp32/utils</text>
<text text-anchor="middle" x="243" y="-184.8" font-family="Arial" font-size="14.00">/EspTypes_Timer.h</text>
</a>
</g>
</g>
<!-- Node2 -->
<g id="Node000002" class="node">
<title>Node2</title>
<g id="a_Node000002"><a xlink:href="EspTypes__Base_8h.html" target="_top" xlink:title="ESP32 base type definitions for hardware abstraction.">
<polygon fill="white" stroke="#666666" points="260.5,-141 135.5,-141 135.5,-118 260.5,-118 260.5,-141"/>
<text text-anchor="middle" x="198" y="-125.8" font-family="Arial" font-size="14.00">EspTypes_Base.h</text>
</a>
</g>
</g>
<!-- Node1&#45;&gt;Node2 -->
<g id="edge1_Node000001_Node000002" class="edge">
<title>Node1&#45;&gt;Node2</title>
<g id="a_edge1_Node000001_Node000002"><a xlink:title=" ">
<path fill="none" stroke="#63b8ff" d="M230.23,-176.69C224.29,-168.18 217.23,-158.06 211.23,-149.46"/>
<polygon fill="#63b8ff" stroke="#63b8ff" points="214.05,-147.39 205.46,-141.19 208.31,-151.4 214.05,-147.39"/>
</a>
</g>
</g>
<!-- Node3 -->
<g id="Node000003" class="node">
<title>Node3</title>
<g id="a_Node000003"><a xlink:href="McuSelect_8h.html" target="_top" xlink:title="Centralized MCU platform selection and configuration header.">
<polygon fill="white" stroke="#666666" points="142,-82 0,-82 0,-59 142,-59 142,-82"/>
<text text-anchor="middle" x="71" y="-66.8" font-family="Arial" font-size="14.00">../../utils/McuSelect.h</text>
</a>
</g>
</g>
<!-- Node1&#45;&gt;Node3 -->
<g id="edge9_Node000001_Node000003" class="edge">
<title>Node1&#45;&gt;Node3</title>
<g id="a_edge9_Node000001_Node000003"><a xlink:title=" ">
<path fill="none" stroke="#63b8ff" d="M190.52,-176.95C169.22,-168.11 145.16,-156.08 126,-141 108.18,-126.97 92.64,-106.05 82.67,-90.83"/>
<polygon fill="#63b8ff" stroke="#63b8ff" points="85.52,-88.78 77.21,-82.21 79.6,-92.53 85.52,-88.78"/>
</a>
</g>
</g>
<!-- Node4 -->
<g id="Node000004" class="node">
<title>Node4</title>
<g id="a_Node000004"><a xlink:href="HardwareTypes_8h.html" target="_top" xlink:title="Platform&#45;agnostic hardware type definitions for the HardFOC system.">
<polygon fill="white" stroke="#666666" points="396,-82 274,-82 274,-59 396,-59 396,-82"/>
<text text-anchor="middle" x="335" y="-66.8" font-family="Arial" font-size="14.00">HardwareTypes.h</text>
</a>
</g>
</g>
<!-- Node1&#45;&gt;Node4 -->
<g id="edge8_Node000001_Node000004" class="edge">
<title>Node1&#45;&gt;Node4</title>
<g id="a_edge8_Node000001_Node000004"><a xlink:title=" ">
<path fill="none" stroke="#63b8ff" d="M256.57,-176.78C273.86,-153.57 303.57,-113.69 321.04,-90.24"/>
<polygon fill="#63b8ff" stroke="#63b8ff" points="323.92,-92.24 327.08,-82.13 318.3,-88.05 323.92,-92.24"/>
</a>
</g>
</g>
<!-- Node8 -->
<g id="Node000008" class="node">
<title>Node8</title>
<g id="a_Node000008"><a xlink:title=" ">
<polygon fill="#e0e0e0" stroke="#999999" points="404.5,-141 317.5,-141 317.5,-118 404.5,-118 404.5,-141"/>
<text text-anchor="middle" x="361" y="-125.8" font-family="Arial" font-size="14.00">esp_timer.h</text>
</a>
</g>
</g>
<!-- Node1&#45;&gt;Node8 -->
<g id="edge10_Node000001_Node000008" class="edge">
<title>Node1&#45;&gt;Node8</title>
<g id="a_edge10_Node000001_Node000008"><a xlink:title=" ">
<path fill="none" stroke="#63b8ff" d="M276.18,-176.86C294.01,-167.12 315.76,-155.23 332.77,-145.93"/>
<polygon fill="#63b8ff" stroke="#63b8ff" points="334.58,-148.93 341.68,-141.06 331.23,-142.79 334.58,-148.93"/>
</a>
</g>
</g>
<!-- Node2&#45;&gt;Node3 -->
<g id="edge2_Node000002_Node000003" class="edge">
<title>Node2&#45;&gt;Node3</title>
<g id="a_edge2_Node000002_Node000003"><a xlink:title=" ">
<path fill="none" stroke="#63b8ff" d="M174.41,-117.91C154.54,-108.99 125.9,-96.14 103.8,-86.22"/>
<polygon fill="#63b8ff" stroke="#63b8ff" points="105.02,-82.93 94.46,-82.03 102.15,-89.32 105.02,-82.93"/>
</a>
</g>
</g>
<!-- Node2&#45;&gt;Node4 -->
<g id="edge3_Node000002_Node000004" class="edge">
<title>Node2&#45;&gt;Node4</title>
<g id="a_edge3_Node000002_Node000004"><a xlink:title=" ">
<path fill="none" stroke="#63b8ff" d="M223.45,-117.91C245.08,-108.91 276.33,-95.91 300.26,-85.95"/>
<polygon fill="#63b8ff" stroke="#63b8ff" points="301.8,-89.1 309.69,-82.03 299.11,-82.64 301.8,-89.1"/>
</a>
</g>
</g>
<!-- Node5 -->
<g id="Node000005" class="node">
<title>Node5</title>
<g id="a_Node000005"><a xlink:title=" ">
<polygon fill="#e0e0e0" stroke="#999999" points="246,-23 190,-23 190,0 246,0 246,-23"/>
<text text-anchor="middle" x="218" y="-7.8" font-family="Arial" font-size="14.00">cstdint</text>
</a>
</g>
</g>
<!-- Node2&#45;&gt;Node5 -->
<g id="edge7_Node000002_Node000005" class="edge">
<title>Node2&#45;&gt;Node5</title>
<g id="a_edge7_Node000002_Node000005"><a xlink:title=" ">
<path fill="none" stroke="#63b8ff" d="M194.03,-117.94C189.43,-104.15 183.17,-79.35 189,-59 191.82,-49.16 197.38,-39.39 202.89,-31.35"/>
<polygon fill="#63b8ff" stroke="#63b8ff" points="205.84,-33.25 208.94,-23.12 200.2,-29.11 205.84,-33.25"/>
</a>
</g>
</g>
<!-- Node7 -->
<g id="Node000007" class="node">
<title>Node7</title>
<g id="a_Node000007"><a xlink:title=" ">
<polygon fill="#e0e0e0" stroke="#999999" points="255.5,-82 198.5,-82 198.5,-59 255.5,-59 255.5,-82"/>
<text text-anchor="middle" x="227" y="-66.8" font-family="Arial" font-size="14.00">atomic</text>
</a>
</g>
</g>
<!-- Node2&#45;&gt;Node7 -->
<g id="edge6_Node000002_Node000007" class="edge">
<title>Node2&#45;&gt;Node7</title>
<g id="a_edge6_Node000002_Node000007"><a xlink:title=" ">
<path fill="none" stroke="#63b8ff" d="M203.45,-117.78C207.26,-110.29 212.46,-100.09 217,-91.16"/>
<polygon fill="#63b8ff" stroke="#63b8ff" points="220.15,-92.67 221.57,-82.17 213.92,-89.5 220.15,-92.67"/>
</a>
</g>
</g>
<!-- Node4&#45;&gt;Node5 -->
<g id="edge4_Node000004_Node000005" class="edge">
<title>Node4&#45;&gt;Node5</title>
<g id="a_edge4_Node000004_Node000005"><a xlink:title=" ">
<path fill="none" stroke="#63b8ff" d="M313.27,-58.91C295.13,-50.07 269.05,-37.37 248.76,-27.49"/>
<polygon fill="#63b8ff" stroke="#63b8ff" points="250.14,-24.26 239.62,-23.03 247.07,-30.56 250.14,-24.26"/>
</a>
</g>
</g>
<!-- Node6 -->
<g id="Node000006" class="node">
<title>Node6</title>
<g id="a_Node000006"><a xlink:title=" ">
<polygon fill="#e0e0e0" stroke="#999999" points="359,-23 311,-23 311,0 359,0 359,-23"/>
<text text-anchor="middle" x="335" y="-7.8" font-family="Arial" font-size="14.00">limits</text>
</a>
</g>
</g>
<!-- Node4&#45;&gt;Node6 -->
<g id="edge5_Node000004_Node000006" class="edge">
<title>Node4&#45;&gt;Node6</title>
<g id="a_edge5_Node000004_Node000006"><a xlink:title=" ">
<path fill="none" stroke="#63b8ff" d="M335,-58.78C335,-51.61 335,-41.95 335,-33.31"/>
<polygon fill="#63b8ff" stroke="#63b8ff" points="338.5,-33.17 335,-23.17 331.5,-33.17 338.5,-33.17"/>
</a>
</g>
</g>
</g>
</svg>
</svg>

<style type='text/css'>
<![CDATA[
[data-mouse-over-selected='false'] { opacity: 0.7; }
[data-mouse-over-selected='true']  { opacity: 1.0; }
]]>
</style>
<script type="application/ecmascript"><![CDATA[
document.addEventListener('DOMContentLoaded', (event) => {
  highlightEdges();
  highlightAdjacentNodes();
});
]]></script>
</svg>
