<?xml version="1.0" encoding="UTF-8" standalone="no"?>
<!DOCTYPE svg PUBLIC "-//W3C//DTD SVG 1.1//EN"
 "http://www.w3.org/Graphics/SVG/1.1/DTD/svg11.dtd">
<!-- Generated by graphviz version 2.43.0 (0)
 -->
<!-- Title: Graphical Class Hierarchy Pages: 1 -->
<svg width="194pt" height="72pt"
 viewBox="0.00 0.00 194.00 72.00" xmlns="http://www.w3.org/2000/svg" xmlns:xlink="http://www.w3.org/1999/xlink">
<g id="graph0" class="graph" transform="scale(1 1) rotate(0) translate(4 68)">
<title>Graphical Class Hierarchy</title>
<!-- Node0 -->
<g id="Node000000" class="node">
<title>Node0</title>
<g id="a_Node000000"><a xlink:href="classBasePwm.html" target="_top" xlink:title="Abstract base class for PWM implementations.">
<polygon fill="white" stroke="#666666" points="78,-43 0,-43 0,-20 78,-20 78,-43"/>
<text text-anchor="middle" x="39" y="-27.8" font-family="Arial" font-size="14.00">BasePwm</text>
</a>
</g>
</g>
<!-- Node1 -->
<g id="Node000001" class="node">
<title>Node1</title>
<g id="a_Node000001"><a xlink:href="classEspPwm.html" target="_top" xlink:title="ESP32 PWM implementation using LEDC peripheral with comprehensive ESP32 variant support.">
<polygon fill="white" stroke="#666666" points="185.5,-64 114.5,-64 114.5,-41 185.5,-41 185.5,-64"/>
<text text-anchor="middle" x="150" y="-48.8" font-family="Arial" font-size="14.00">EspPwm</text>
</a>
</g>
</g>
<!-- Node0&#45;&gt;Node1 -->
<g id="edge15_Node000000_Node000001" class="edge">
<title>Node0&#45;&gt;Node1</title>
<g id="a_edge15_Node000000_Node000001"><a xlink:title=" ">
<path fill="none" stroke="#63b8ff" d="M87.99,-40.75C96.87,-42.46 105.98,-44.21 114.36,-45.83"/>
<polygon fill="#63b8ff" stroke="#63b8ff" points="88.6,-37.3 78.12,-38.84 87.28,-44.17 88.6,-37.3"/>
</a>
</g>
</g>
<!-- Node2 -->
<g id="Node000002" class="node">
<title>Node2</title>
<g id="a_Node000002"><a xlink:href="classStmPwm.html" target="_top" xlink:title="STM32 PWM implementation.">
<polygon fill="white" stroke="#666666" points="186,-23 114,-23 114,0 186,0 186,-23"/>
<text text-anchor="middle" x="150" y="-7.8" font-family="Arial" font-size="14.00">StmPwm</text>
</a>
</g>
</g>
<!-- Node0&#45;&gt;Node2 -->
<g id="edge16_Node000000_Node000002" class="edge">
<title>Node0&#45;&gt;Node2</title>
<g id="a_edge16_Node000000_Node000002"><a xlink:title=" ">
<path fill="none" stroke="#63b8ff" d="M88.07,-22.68C96.66,-21.1 105.48,-19.49 113.64,-17.99"/>
<polygon fill="#63b8ff" stroke="#63b8ff" points="87.33,-19.26 78.12,-24.5 88.59,-26.14 87.33,-19.26"/>
</a>
</g>
</g>
</g>
</svg>
