<?xml version="1.0" encoding="UTF-8" standalone="no"?>
<!DOCTYPE svg PUBLIC "-//W3C//DTD SVG 1.1//EN"
 "http://www.w3.org/Graphics/SVG/1.1/DTD/svg11.dtd">
<!-- Generated by graphviz version 2.43.0 (0)
 -->
<!-- Title: Graphical Class Hierarchy Pages: 1 -->
<svg width="182pt" height="72pt"
 viewBox="0.00 0.00 182.00 72.00" xmlns="http://www.w3.org/2000/svg" xmlns:xlink="http://www.w3.org/1999/xlink">
<g id="graph0" class="graph" transform="scale(1 1) rotate(0) translate(4 68)">
<title>Graphical Class Hierarchy</title>
<!-- Node0 -->
<g id="Node000000" class="node">
<title>Node0</title>
<g id="a_Node000000"><a xlink:href="classBaseCan.html" target="_top" xlink:title="Abstract base class defining the unified CAN bus API.">
<polygon fill="white" stroke="#666666" points="72,-43 0,-43 0,-20 72,-20 72,-43"/>
<text text-anchor="middle" x="36" y="-27.8" font-family="Arial" font-size="14.00">BaseCan</text>
</a>
</g>
</g>
<!-- Node1 -->
<g id="Node000001" class="node">
<title>Node1</title>
<g id="a_Node000001"><a xlink:href="classEspCan.html" target="_top" xlink:title="ESP32 CAN (TWAI) implementation using ESP&#45;IDF v5.5+ node&#45;based API.">
<polygon fill="white" stroke="#666666" points="173.5,-64 108.5,-64 108.5,-41 173.5,-41 173.5,-64"/>
<text text-anchor="middle" x="141" y="-48.8" font-family="Arial" font-size="14.00">EspCan</text>
</a>
</g>
</g>
<!-- Node0&#45;&gt;Node1 -->
<g id="edge3_Node000000_Node000001" class="edge">
<title>Node0&#45;&gt;Node1</title>
<g id="a_edge3_Node000000_Node000001"><a xlink:title=" ">
<path fill="none" stroke="#63b8ff" d="M82.04,-40.68C90.95,-42.5 100.11,-44.37 108.45,-46.07"/>
<polygon fill="#63b8ff" stroke="#63b8ff" points="82.66,-37.24 72.16,-38.67 81.26,-44.1 82.66,-37.24"/>
</a>
</g>
</g>
<!-- Node2 -->
<g id="Node000002" class="node">
<title>Node2</title>
<g id="a_Node000002"><a xlink:href="classStmCan.html" target="_top" xlink:title="STM32 CAN implementation.">
<polygon fill="white" stroke="#666666" points="174,-23 108,-23 108,0 174,0 174,-23"/>
<text text-anchor="middle" x="141" y="-7.8" font-family="Arial" font-size="14.00">StmCan</text>
</a>
</g>
</g>
<!-- Node0&#45;&gt;Node2 -->
<g id="edge4_Node000000_Node000002" class="edge">
<title>Node0&#45;&gt;Node2</title>
<g id="a_edge4_Node000000_Node000002"><a xlink:title=" ">
<path fill="none" stroke="#63b8ff" d="M82.13,-22.74C90.76,-21.06 99.64,-19.34 107.77,-17.76"/>
<polygon fill="#63b8ff" stroke="#63b8ff" points="81.31,-19.33 72.16,-24.67 82.64,-26.2 81.31,-19.33"/>
</a>
</g>
</g>
</g>
</svg>
