<?xml version="1.0" encoding="UTF-8" standalone="no"?>
<!DOCTYPE svg PUBLIC "-//W3C//DTD SVG 1.1//EN"
 "http://www.w3.org/Graphics/SVG/1.1/DTD/svg11.dtd">
<!-- Generated by graphviz version 2.43.0 (0)
 -->
<!-- Title: inc/utils/memory_utils.h Pages: 1 -->
<svg width="199pt" height="90pt"
 viewBox="0.00 0.00 199.00 90.00" xmlns="http://www.w3.org/2000/svg" xmlns:xlink="http://www.w3.org/1999/xlink">
<g id="graph0" class="graph" transform="scale(1 1) rotate(0) translate(4 86)">
<title>inc/utils/memory_utils.h</title>
<!-- Node1 -->
<g id="Node000001" class="node">
<title>Node1</title>
<g id="a_Node000001"><a xlink:title="Memory management utilities for exception&#45;free design.">
<polygon fill="#999999" stroke="#666666" points="184.5,-82 26.5,-82 26.5,-59 184.5,-59 184.5,-82"/>
<text text-anchor="middle" x="105.5" y="-66.8" font-family="Arial" font-size="14.00">inc/utils/memory_utils.h</text>
</a>
</g>
</g>
<!-- Node2 -->
<g id="Node000002" class="node">
<title>Node2</title>
<g id="a_Node000002"><a xlink:title=" ">
<polygon fill="#e0e0e0" stroke="#999999" points="67,-23 0,-23 0,0 67,0 67,-23"/>
<text text-anchor="middle" x="33.5" y="-7.8" font-family="Arial" font-size="14.00">memory</text>
</a>
</g>
</g>
<!-- Node1&#45;&gt;Node2 -->
<g id="edge1_Node000001_Node000002" class="edge">
<title>Node1&#45;&gt;Node2</title>
<g id="a_edge1_Node000001_Node000002"><a xlink:title=" ">
<path fill="none" stroke="#63b8ff" d="M91.96,-58.78C81.6,-50.58 67.11,-39.11 55.15,-29.64"/>
<polygon fill="#63b8ff" stroke="#63b8ff" points="56.99,-26.64 46.98,-23.17 52.65,-32.12 56.99,-26.64"/>
</a>
</g>
</g>
<!-- Node3 -->
<g id="Node000003" class="node">
<title>Node3</title>
<g id="a_Node000003"><a xlink:title=" ">
<polygon fill="#e0e0e0" stroke="#999999" points="126,-23 85,-23 85,0 126,0 126,-23"/>
<text text-anchor="middle" x="105.5" y="-7.8" font-family="Arial" font-size="14.00">new</text>
</a>
</g>
</g>
<!-- Node1&#45;&gt;Node3 -->
<g id="edge2_Node000001_Node000003" class="edge">
<title>Node1&#45;&gt;Node3</title>
<g id="a_edge2_Node000001_Node000003"><a xlink:title=" ">
<path fill="none" stroke="#63b8ff" d="M105.5,-58.78C105.5,-51.61 105.5,-41.95 105.5,-33.31"/>
<polygon fill="#63b8ff" stroke="#63b8ff" points="109,-33.17 105.5,-23.17 102,-33.17 109,-33.17"/>
</a>
</g>
</g>
<!-- Node4 -->
<g id="Node000004" class="node">
<title>Node4</title>
<g id="a_Node000004"><a xlink:title=" ">
<polygon fill="#e0e0e0" stroke="#999999" points="191,-23 144,-23 144,0 191,0 191,-23"/>
<text text-anchor="middle" x="167.5" y="-7.8" font-family="Arial" font-size="14.00">utility</text>
</a>
</g>
</g>
<!-- Node1&#45;&gt;Node4 -->
<g id="edge3_Node000001_Node000004" class="edge">
<title>Node1&#45;&gt;Node4</title>
<g id="a_edge3_Node000001_Node000004"><a xlink:title=" ">
<path fill="none" stroke="#63b8ff" d="M117.16,-58.78C125.91,-50.74 138.07,-39.55 148.25,-30.19"/>
<polygon fill="#63b8ff" stroke="#63b8ff" points="150.9,-32.52 155.89,-23.17 146.16,-27.36 150.9,-32.52"/>
</a>
</g>
</g>
</g>
</svg>
