<?xml version="1.0" encoding="UTF-8" standalone="no"?>
<!DOCTYPE svg PUBLIC "-//W3C//DTD SVG 1.1//EN"
 "http://www.w3.org/Graphics/SVG/1.1/DTD/svg11.dtd">
<!-- Generated by graphviz version 2.43.0 (0)
 -->
<!-- Title: examples/esp32/main/NvsComprehensiveTest.cpp Pages: 1 -->
<!--zoomable 400 -->

<svg id="main" version="1.1" xmlns="http://www.w3.org/2000/svg" xmlns:xlink="http://www.w3.org/1999/xlink" xml:space="preserve" onload="init(evt)">
<style type="text/css"><![CDATA[
.node, .edge {opacity: 0.7;}
.node.selected, .edge.selected {opacity: 1;}
.edge:hover path { stroke: red; }
.edge:hover polygon { stroke: red; fill: red; }
]]></style>

<defs>
  <circle id="rim" cx="0" cy="0" r="7"/>
  <circle id="rim2" cx="0" cy="0" r="3.5"/>
  <g id="zoomPlus">
    <use xlink:href="#rim" fill="#404040"><set attributeName="fill" to="#808080" begin="zoomplus.mouseover" end="zoomplus.mouseout"/></use>
    <path d="M-4,0h8M0,-4v8" fill="none" stroke="white" stroke-width="1.5" pointer-events="none"/>
  </g>
  <g id="zoomMin">
    <use xlink:href="#rim" fill="#404040"><set attributeName="fill" to="#808080" begin="zoomminus.mouseover" end="zoomminus.mouseout"/></use>
    <path d="M-4,0h8" fill="none" stroke="white" stroke-width="1.5" pointer-events="none"/>
  </g>
  <g id="arrowUp" transform="translate(30 24)">
    <use xlink:href="#rim"/>
    <path pointer-events="none" fill="none" stroke="white" stroke-width="1.5" d="M0,-3.0v7 M-2.5,-0.5L0,-3.0L2.5,-0.5"/>
  </g>
  <g id="arrowRight" transform="rotate(90) translate(36 -43)">
    <use xlink:href="#rim"/>
    <path pointer-events="none" fill="none" stroke="white" stroke-width="1.5" d="M0,-3.0v7 M-2.5,-0.5L0,-3.0L2.5,-0.5"/>
  </g>
  <g id="arrowDown" transform="rotate(180) translate(-30 -48)">
    <use xlink:href="#rim"/>
    <path pointer-events="none" fill="none" stroke="white" stroke-width="1.5" d="M0,-3.0v7 M-2.5,-0.5L0,-3.0L2.5,-0.5"/>
  </g>
  <g id="arrowLeft" transform="rotate(270) translate(-36 17)">
    <use xlink:href="#rim"/>
    <path pointer-events="none" fill="none" stroke="white" stroke-width="1.5" d="M0,-3.0v7 M-2.5,-0.5L0,-3.0L2.5,-0.5"/>
  </g>
  <g id="resetDef">
    <use xlink:href="#rim2" fill="#404040"><set attributeName="fill" to="#808080" begin="reset.mouseover" end="reset.mouseout"/></use>
  </g>
</defs>
<script type="application/ecmascript">
var viewWidth = 1220;
var viewHeight = 400;
var sectionId = 'dynsection-0';
</script>
<script type="application/ecmascript" xlink:href="svg.min.js"/>
<svg id="graph" class="graph">
<g id="viewport">
<title>examples/esp32/main/NvsComprehensiveTest.cpp</title>
<!-- Node1 -->
<g id="Node000001" class="node">
<title>Node1</title>
<g id="a_Node000001"><a xlink:title="Comprehensive NVS (Non&#45;Volatile Storage) testing suite for ESP32&#45;C6 DevKit&#45;M&#45;1 (noexcept)">
<polygon fill="#999999" stroke="#666666" points="1125.5,-392 936.5,-392 936.5,-354 1125.5,-354 1125.5,-392"/>
<text text-anchor="start" x="944.5" y="-376.8" font-family="Arial" font-size="14.00">examples/esp32/main</text>
<text text-anchor="middle" x="1031" y="-361.8" font-family="Arial" font-size="14.00">/NvsComprehensiveTest.cpp</text>
</a>
</g>
</g>
<!-- Node2 -->
<g id="Node000002" class="node">
<title>Node2</title>
<g id="a_Node000002"><a xlink:href="TestFramework_8h.html" target="_top" xlink:title="Shared testing framework for ESP32&#45;C6 comprehensive test suites.">
<polygon fill="white" stroke="#666666" points="565.5,-318 444.5,-318 444.5,-295 565.5,-295 565.5,-318"/>
<text text-anchor="middle" x="505" y="-302.8" font-family="Arial" font-size="14.00">TestFramework.h</text>
</a>
</g>
</g>
<!-- Node1&#45;&gt;Node2 -->
<g id="edge1_Node000001_Node000002" class="edge">
<title>Node1&#45;&gt;Node2</title>
<g id="a_edge1_Node000001_Node000002"><a xlink:title=" ">
<path fill="none" stroke="#63b8ff" d="M936.35,-360.39C832.72,-347.69 668.93,-327.6 575.84,-316.19"/>
<polygon fill="#63b8ff" stroke="#63b8ff" points="576.03,-312.68 565.68,-314.94 575.18,-319.63 576.03,-312.68"/>
</a>
</g>
</g>
<!-- Node22 -->
<g id="Node000022" class="node">
<title>Node22</title>
<g id="a_Node000022"><a xlink:href="BaseNvs_8h.html" target="_top" xlink:title="Abstract base class for Non&#45;Volatile Storage implementations in the HardFOC system.">
<polygon fill="white" stroke="#666666" points="664.5,-141 549.5,-141 549.5,-118 664.5,-118 664.5,-141"/>
<text text-anchor="middle" x="607" y="-125.8" font-family="Arial" font-size="14.00">base/BaseNvs.h</text>
</a>
</g>
</g>
<!-- Node1&#45;&gt;Node22 -->
<g id="edge28_Node000001_Node000022" class="edge">
<title>Node1&#45;&gt;Node22</title>
<g id="a_edge28_Node000001_Node000022"><a xlink:title=" ">
<path fill="none" stroke="#63b8ff" d="M1025.44,-353.76C1015.43,-324.15 991.46,-265.9 950,-236 889.48,-192.35 854.37,-229.91 786,-200 769.62,-192.83 769.03,-184.91 753,-177 723.98,-162.68 689.57,-151.46 661.45,-143.64"/>
<polygon fill="#63b8ff" stroke="#63b8ff" points="662.35,-140.26 651.78,-141.02 660.51,-147.02 662.35,-140.26"/>
</a>
</g>
</g>
<!-- Node23 -->
<g id="Node000023" class="node">
<title>Node23</title>
<g id="a_Node000023"><a xlink:href="EspNvs_8h.html" target="_top" xlink:title="World&#45;class ESP32&#45;C6 NVS storage implementation with ESP&#45;IDF v5.5+ features.">
<polygon fill="white" stroke="#666666" points="1185.5,-259 1040.5,-259 1040.5,-236 1185.5,-236 1185.5,-259"/>
<text text-anchor="middle" x="1113" y="-243.8" font-family="Arial" font-size="14.00">mcu/esp32/EspNvs.h</text>
</a>
</g>
</g>
<!-- Node1&#45;&gt;Node23 -->
<g id="edge32_Node000001_Node000023" class="edge">
<title>Node1&#45;&gt;Node23</title>
<g id="a_edge32_Node000001_Node000023"><a xlink:title=" ">
<path fill="none" stroke="#63b8ff" d="M1038.18,-353.73C1044.94,-337.57 1055.97,-313.72 1069,-295 1076.2,-284.66 1085.64,-274.37 1093.94,-266.1"/>
<polygon fill="#63b8ff" stroke="#63b8ff" points="1096.38,-268.61 1101.13,-259.14 1091.51,-263.58 1096.38,-268.61"/>
</a>
</g>
</g>
<!-- Node26 -->
<g id="Node000026" class="node">
<title>Node26</title>
<g id="a_Node000026"><a xlink:title=" ">
<polygon fill="#e0e0e0" stroke="#999999" points="997,-141 941,-141 941,-118 997,-118 997,-141"/>
<text text-anchor="middle" x="969" y="-125.8" font-family="Arial" font-size="14.00">cstring</text>
</a>
</g>
</g>
<!-- Node1&#45;&gt;Node26 -->
<g id="edge46_Node000001_Node000026" class="edge">
<title>Node1&#45;&gt;Node26</title>
<g id="a_edge46_Node000001_Node000026"><a xlink:title=" ">
<path fill="none" stroke="#63b8ff" d="M1030.07,-353.95C1027.78,-318.83 1020.26,-239.3 997,-177 993.41,-167.38 987.8,-157.52 982.54,-149.37"/>
<polygon fill="#63b8ff" stroke="#63b8ff" points="985.38,-147.33 976.88,-141 979.59,-151.25 985.38,-147.33"/>
</a>
</g>
</g>
<!-- Node27 -->
<g id="Node000027" class="node">
<title>Node27</title>
<g id="a_Node000027"><a xlink:title=" ">
<polygon fill="#e0e0e0" stroke="#999999" points="1130,-318 1078,-318 1078,-295 1130,-295 1130,-318"/>
<text text-anchor="middle" x="1104" y="-302.8" font-family="Arial" font-size="14.00">cstdio</text>
</a>
</g>
</g>
<!-- Node1&#45;&gt;Node27 -->
<g id="edge45_Node000001_Node000027" class="edge">
<title>Node1&#45;&gt;Node27</title>
<g id="a_edge45_Node000001_Node000027"><a xlink:title=" ">
<path fill="none" stroke="#63b8ff" d="M1051.72,-353.69C1061.97,-344.64 1074.27,-333.77 1084.36,-324.85"/>
<polygon fill="#63b8ff" stroke="#63b8ff" points="1086.72,-327.44 1091.9,-318.19 1082.09,-322.19 1086.72,-327.44"/>
</a>
</g>
</g>
<!-- Node28 -->
<g id="Node000028" class="node">
<title>Node28</title>
<g id="a_Node000028"><a xlink:title=" ">
<polygon fill="#e0e0e0" stroke="#999999" points="1211.5,-318 1148.5,-318 1148.5,-295 1211.5,-295 1211.5,-318"/>
<text text-anchor="middle" x="1180" y="-302.8" font-family="Arial" font-size="14.00">random</text>
</a>
</g>
</g>
<!-- Node1&#45;&gt;Node28 -->
<g id="edge47_Node000001_Node000028" class="edge">
<title>Node1&#45;&gt;Node28</title>
<g id="a_edge47_Node000001_Node000028"><a xlink:title=" ">
<path fill="none" stroke="#63b8ff" d="M1072.9,-353.86C1096.14,-343.8 1124.66,-331.45 1146.42,-322.03"/>
<polygon fill="#63b8ff" stroke="#63b8ff" points="1147.82,-325.25 1155.6,-318.06 1145.04,-318.82 1147.82,-325.25"/>
</a>
</g>
</g>
<!-- Node3 -->
<g id="Node000003" class="node">
<title>Node3</title>
<g id="a_Node000003"><a xlink:title=" ">
<polygon fill="#e0e0e0" stroke="#999999" points="542.5,-259 467.5,-259 467.5,-236 542.5,-236 542.5,-259"/>
<text text-anchor="middle" x="505" y="-243.8" font-family="Arial" font-size="14.00">esp_log.h</text>
</a>
</g>
</g>
<!-- Node2&#45;&gt;Node3 -->
<g id="edge2_Node000002_Node000003" class="edge">
<title>Node2&#45;&gt;Node3</title>
<g id="a_edge2_Node000002_Node000003"><a xlink:title=" ">
<path fill="none" stroke="#63b8ff" d="M505,-294.78C505,-287.61 505,-277.95 505,-269.31"/>
<polygon fill="#63b8ff" stroke="#63b8ff" points="508.5,-269.17 505,-259.17 501.5,-269.17 508.5,-269.17"/>
</a>
</g>
</g>
<!-- Node4 -->
<g id="Node000004" class="node">
<title>Node4</title>
<g id="a_Node000004"><a xlink:title=" ">
<polygon fill="#e0e0e0" stroke="#999999" points="647.5,-259 560.5,-259 560.5,-236 647.5,-236 647.5,-259"/>
<text text-anchor="middle" x="604" y="-243.8" font-family="Arial" font-size="14.00">esp_timer.h</text>
</a>
</g>
</g>
<!-- Node2&#45;&gt;Node4 -->
<g id="edge3_Node000002_Node000004" class="edge">
<title>Node2&#45;&gt;Node4</title>
<g id="a_edge3_Node000002_Node000004"><a xlink:title=" ">
<path fill="none" stroke="#63b8ff" d="M523.62,-294.78C538.56,-286.18 559.73,-273.99 576.6,-264.28"/>
<polygon fill="#63b8ff" stroke="#63b8ff" points="578.54,-267.2 585.46,-259.17 575.05,-261.13 578.54,-267.2"/>
</a>
</g>
</g>
<!-- Node5 -->
<g id="Node000005" class="node">
<title>Node5</title>
<g id="a_Node000005"><a xlink:title=" ">
<polygon fill="#e0e0e0" stroke="#999999" points="808.5,-259 665.5,-259 665.5,-236 808.5,-236 808.5,-259"/>
<text text-anchor="middle" x="737" y="-243.8" font-family="Arial" font-size="14.00">freertos/FreeRTOS.h</text>
</a>
</g>
</g>
<!-- Node2&#45;&gt;Node5 -->
<g id="edge4_Node000002_Node000005" class="edge">
<title>Node2&#45;&gt;Node5</title>
<g id="a_edge4_Node000002_Node000005"><a xlink:title=" ">
<path fill="none" stroke="#63b8ff" d="M547.82,-294.98C586.29,-285.53 642.89,-271.62 684.16,-261.48"/>
<polygon fill="#63b8ff" stroke="#63b8ff" points="685.16,-264.84 694.03,-259.06 683.49,-258.04 685.16,-264.84"/>
</a>
</g>
</g>
<!-- Node6 -->
<g id="Node000006" class="node">
<title>Node6</title>
<g id="a_Node000006"><a xlink:title=" ">
<polygon fill="#e0e0e0" stroke="#999999" points="941.5,-259 826.5,-259 826.5,-236 941.5,-236 941.5,-259"/>
<text text-anchor="middle" x="884" y="-243.8" font-family="Arial" font-size="14.00">freertos/queue.h</text>
</a>
</g>
</g>
<!-- Node2&#45;&gt;Node6 -->
<g id="edge5_Node000002_Node000006" class="edge">
<title>Node2&#45;&gt;Node6</title>
<g id="a_edge5_Node000002_Node000006"><a xlink:title=" ">
<path fill="none" stroke="#63b8ff" d="M565.71,-296.59C626.45,-287.64 722.84,-273.36 816.35,-259.09"/>
<polygon fill="#63b8ff" stroke="#63b8ff" points="816.9,-262.55 826.26,-257.58 815.85,-255.63 816.9,-262.55"/>
</a>
</g>
</g>
<!-- Node7 -->
<g id="Node000007" class="node">
<title>Node7</title>
<g id="a_Node000007"><a xlink:title=" ">
<polygon fill="#e0e0e0" stroke="#999999" points="122,-259 0,-259 0,-236 122,-236 122,-259"/>
<text text-anchor="middle" x="61" y="-243.8" font-family="Arial" font-size="14.00">freertos/semphr.h</text>
</a>
</g>
</g>
<!-- Node2&#45;&gt;Node7 -->
<g id="edge6_Node000002_Node000007" class="edge">
<title>Node2&#45;&gt;Node7</title>
<g id="a_edge6_Node000002_Node000007"><a xlink:title=" ">
<path fill="none" stroke="#63b8ff" d="M444.37,-298.44C372.44,-289.95 248.62,-275.01 132.23,-259.14"/>
<polygon fill="#63b8ff" stroke="#63b8ff" points="132.45,-255.64 122.07,-257.75 131.5,-262.58 132.45,-255.64"/>
</a>
</g>
</g>
<!-- Node8 -->
<g id="Node000008" class="node">
<title>Node8</title>
<g id="a_Node000008"><a xlink:title=" ">
<polygon fill="#e0e0e0" stroke="#999999" points="242,-259 140,-259 140,-236 242,-236 242,-259"/>
<text text-anchor="middle" x="191" y="-243.8" font-family="Arial" font-size="14.00">freertos/task.h</text>
</a>
</g>
</g>
<!-- Node2&#45;&gt;Node8 -->
<g id="edge7_Node000002_Node000008" class="edge">
<title>Node2&#45;&gt;Node8</title>
<g id="a_edge7_Node000002_Node000008"><a xlink:title=" ">
<path fill="none" stroke="#63b8ff" d="M447.04,-294.98C391.63,-284.92 308.39,-269.81 251.98,-259.57"/>
<polygon fill="#63b8ff" stroke="#63b8ff" points="252.59,-256.12 242.13,-257.78 251.34,-263.01 252.59,-256.12"/>
</a>
</g>
</g>
<!-- Node9 -->
<g id="Node000009" class="node">
<title>Node9</title>
<g id="a_Node000009"><a xlink:href="HardwareTypes_8h.html" target="_top" xlink:title="Platform&#45;agnostic hardware type definitions for the HardFOC system.">
<polygon fill="white" stroke="#666666" points="668,-82 546,-82 546,-59 668,-59 668,-82"/>
<text text-anchor="middle" x="607" y="-66.8" font-family="Arial" font-size="14.00">HardwareTypes.h</text>
</a>
</g>
</g>
<!-- Node2&#45;&gt;Node9 -->
<g id="edge8_Node000002_Node000009" class="edge">
<title>Node2&#45;&gt;Node9</title>
<g id="a_edge8_Node000002_Node000009"><a xlink:title=" ">
<path fill="none" stroke="#63b8ff" d="M444.26,-300.8C387.34,-294.99 308.22,-282.8 289,-259 282.58,-251.05 286.12,-245.81 289,-236 297.8,-206.08 302.74,-196.6 327,-177 336.83,-169.06 493.38,-112.28 568.01,-85.46"/>
<polygon fill="#63b8ff" stroke="#63b8ff" points="569.31,-88.71 577.54,-82.04 566.95,-82.12 569.31,-88.71"/>
</a>
</g>
</g>
<!-- Node12 -->
<g id="Node000012" class="node">
<title>Node12</title>
<g id="a_Node000012"><a xlink:href="EspGpio_8h.html" target="_top" xlink:title="Advanced MCU&#45;specific implementation of the unified BaseGpio class with ESP32C6/ESP&#45;IDF v5....">
<polygon fill="white" stroke="#666666" points="449.5,-259 298.5,-259 298.5,-236 449.5,-236 449.5,-259"/>
<text text-anchor="middle" x="374" y="-243.8" font-family="Arial" font-size="14.00">mcu/esp32/EspGpio.h</text>
</a>
</g>
</g>
<!-- Node2&#45;&gt;Node12 -->
<g id="edge11_Node000002_Node000012" class="edge">
<title>Node2&#45;&gt;Node12</title>
<g id="a_edge11_Node000002_Node000012"><a xlink:title=" ">
<path fill="none" stroke="#63b8ff" d="M480.67,-294.91C460.08,-285.95 430.36,-273.02 407.52,-263.09"/>
<polygon fill="#63b8ff" stroke="#63b8ff" points="408.77,-259.81 398.2,-259.03 405.98,-266.23 408.77,-259.81"/>
</a>
</g>
</g>
<!-- Node10 -->
<g id="Node000010" class="node">
<title>Node10</title>
<g id="a_Node000010"><a xlink:title=" ">
<polygon fill="#e0e0e0" stroke="#999999" points="776,-23 720,-23 720,0 776,0 776,-23"/>
<text text-anchor="middle" x="748" y="-7.8" font-family="Arial" font-size="14.00">cstdint</text>
</a>
</g>
</g>
<!-- Node9&#45;&gt;Node10 -->
<g id="edge9_Node000009_Node000010" class="edge">
<title>Node9&#45;&gt;Node10</title>
<g id="a_edge9_Node000009_Node000010"><a xlink:title=" ">
<path fill="none" stroke="#63b8ff" d="M633.19,-58.91C655.55,-49.87 687.9,-36.79 712.57,-26.82"/>
<polygon fill="#63b8ff" stroke="#63b8ff" points="713.99,-30.02 721.95,-23.03 711.37,-23.53 713.99,-30.02"/>
</a>
</g>
</g>
<!-- Node11 -->
<g id="Node000011" class="node">
<title>Node11</title>
<g id="a_Node000011"><a xlink:title=" ">
<polygon fill="#e0e0e0" stroke="#999999" points="631,-23 583,-23 583,0 631,0 631,-23"/>
<text text-anchor="middle" x="607" y="-7.8" font-family="Arial" font-size="14.00">limits</text>
</a>
</g>
</g>
<!-- Node9&#45;&gt;Node11 -->
<g id="edge10_Node000009_Node000011" class="edge">
<title>Node9&#45;&gt;Node11</title>
<g id="a_edge10_Node000009_Node000011"><a xlink:title=" ">
<path fill="none" stroke="#63b8ff" d="M607,-58.78C607,-51.61 607,-41.95 607,-33.31"/>
<polygon fill="#63b8ff" stroke="#63b8ff" points="610.5,-33.17 607,-23.17 603.5,-33.17 610.5,-33.17"/>
</a>
</g>
</g>
<!-- Node13 -->
<g id="Node000013" class="node">
<title>Node13</title>
<g id="a_Node000013"><a xlink:title=" ">
<polygon fill="#e0e0e0" stroke="#999999" points="427.5,-200 336.5,-200 336.5,-177 427.5,-177 427.5,-200"/>
<text text-anchor="middle" x="382" y="-184.8" font-family="Arial" font-size="14.00">driver/gpio.h</text>
</a>
</g>
</g>
<!-- Node12&#45;&gt;Node13 -->
<g id="edge12_Node000012_Node000013" class="edge">
<title>Node12&#45;&gt;Node13</title>
<g id="a_edge12_Node000012_Node000013"><a xlink:title=" ">
<path fill="none" stroke="#63b8ff" d="M375.5,-235.78C376.51,-228.61 377.87,-218.95 379.08,-210.31"/>
<polygon fill="#63b8ff" stroke="#63b8ff" points="382.58,-210.56 380.5,-200.17 375.65,-209.59 382.58,-210.56"/>
</a>
</g>
</g>
<!-- Node14 -->
<g id="Node000014" class="node">
<title>Node14</title>
<g id="a_Node000014"><a xlink:title=" ">
<polygon fill="#e0e0e0" stroke="#999999" points="522,-200 446,-200 446,-177 522,-177 522,-200"/>
<text text-anchor="middle" x="484" y="-184.8" font-family="Arial" font-size="14.00">esp_attr.h</text>
</a>
</g>
</g>
<!-- Node12&#45;&gt;Node14 -->
<g id="edge13_Node000012_Node000014" class="edge">
<title>Node12&#45;&gt;Node14</title>
<g id="a_edge13_Node000012_Node000014"><a xlink:title=" ">
<path fill="none" stroke="#63b8ff" d="M394.43,-235.91C411.33,-227.15 435.56,-214.6 454.56,-204.76"/>
<polygon fill="#63b8ff" stroke="#63b8ff" points="456.41,-207.74 463.68,-200.03 453.19,-201.52 456.41,-207.74"/>
</a>
</g>
</g>
<!-- Node15 -->
<g id="Node000015" class="node">
<title>Node15</title>
<g id="a_Node000015"><a xlink:href="BaseGpio_8h.html" target="_top" xlink:title="Unified GPIO base class for all digital GPIO implementations.">
<polygon fill="white" stroke="#666666" points="404,-141 316,-141 316,-118 404,-118 404,-141"/>
<text text-anchor="middle" x="360" y="-125.8" font-family="Arial" font-size="14.00">BaseGpio.h</text>
</a>
</g>
</g>
<!-- Node12&#45;&gt;Node15 -->
<g id="edge14_Node000012_Node000015" class="edge">
<title>Node12&#45;&gt;Node15</title>
<g id="a_edge14_Node000012_Node000015"><a xlink:title=" ">
<path fill="none" stroke="#63b8ff" d="M358.07,-236C347.05,-227.7 333.28,-215.04 327,-200 319.67,-182.44 330.71,-162.91 341.95,-149.03"/>
<polygon fill="#63b8ff" stroke="#63b8ff" points="344.86,-151.02 348.81,-141.19 339.6,-146.41 344.86,-151.02"/>
</a>
</g>
</g>
<!-- Node17 -->
<g id="Node000017" class="node">
<title>Node17</title>
<g id="a_Node000017"><a xlink:href="EspTypes__GPIO_8h.html" target="_top" xlink:title="ESP32 GPIO type definitions for hardware abstraction.">
<polygon fill="white" stroke="#666666" points="744,-200 614,-200 614,-177 744,-177 744,-200"/>
<text text-anchor="middle" x="679" y="-184.8" font-family="Arial" font-size="14.00">EspTypes_GPIO.h</text>
</a>
</g>
</g>
<!-- Node12&#45;&gt;Node17 -->
<g id="edge18_Node000012_Node000017" class="edge">
<title>Node12&#45;&gt;Node17</title>
<g id="a_edge18_Node000012_Node000017"><a xlink:title=" ">
<path fill="none" stroke="#63b8ff" d="M430.3,-235.98C481.91,-226.33 558.36,-212.05 612.86,-201.86"/>
<polygon fill="#63b8ff" stroke="#63b8ff" points="613.59,-205.29 622.77,-200.01 612.3,-198.4 613.59,-205.29"/>
</a>
</g>
</g>
<!-- Node21 -->
<g id="Node000021" class="node">
<title>Node21</title>
<g id="a_Node000021"><a xlink:title=" ">
<polygon fill="#e0e0e0" stroke="#999999" points="596,-200 540,-200 540,-177 596,-177 596,-200"/>
<text text-anchor="middle" x="568" y="-184.8" font-family="Arial" font-size="14.00">stdio.h</text>
</a>
</g>
</g>
<!-- Node12&#45;&gt;Node21 -->
<g id="edge27_Node000012_Node000021" class="edge">
<title>Node12&#45;&gt;Node21</title>
<g id="a_edge27_Node000012_Node000021"><a xlink:title=" ">
<path fill="none" stroke="#63b8ff" d="M410.04,-235.91C444.14,-225.89 495.16,-210.9 529.93,-200.69"/>
<polygon fill="#63b8ff" stroke="#63b8ff" points="531.11,-203.99 539.71,-197.81 529.13,-197.27 531.11,-203.99"/>
</a>
</g>
</g>
<!-- Node15&#45;&gt;Node9 -->
<g id="edge15_Node000015_Node000009" class="edge">
<title>Node15&#45;&gt;Node9</title>
<g id="a_edge15_Node000015_Node000009"><a xlink:title=" ">
<path fill="none" stroke="#63b8ff" d="M404.16,-118.31C445.31,-108.81 506.85,-94.61 551.34,-84.34"/>
<polygon fill="#63b8ff" stroke="#63b8ff" points="552.17,-87.74 561.13,-82.09 550.6,-80.92 552.17,-87.74"/>
</a>
</g>
</g>
<!-- Node15&#45;&gt;Node10 -->
<g id="edge16_Node000015_Node000010" class="edge">
<title>Node15&#45;&gt;Node10</title>
<g id="a_edge16_Node000015_Node000010"><a xlink:title=" ">
<path fill="none" stroke="#63b8ff" d="M367.74,-117.94C379.9,-102.2 405.12,-72.97 434,-59 458.43,-47.18 631.18,-26.02 709.53,-16.89"/>
<polygon fill="#63b8ff" stroke="#63b8ff" points="710.4,-20.31 719.93,-15.68 709.59,-13.36 710.4,-20.31"/>
</a>
</g>
</g>
<!-- Node16 -->
<g id="Node000016" class="node">
<title>Node16</title>
<g id="a_Node000016"><a xlink:title=" ">
<polygon fill="#e0e0e0" stroke="#999999" points="527,-82 443,-82 443,-59 527,-59 527,-82"/>
<text text-anchor="middle" x="485" y="-66.8" font-family="Arial" font-size="14.00">string_view</text>
</a>
</g>
</g>
<!-- Node15&#45;&gt;Node16 -->
<g id="edge17_Node000015_Node000016" class="edge">
<title>Node15&#45;&gt;Node16</title>
<g id="a_edge17_Node000015_Node000016"><a xlink:title=" ">
<path fill="none" stroke="#63b8ff" d="M383.22,-117.91C402.78,-108.99 430.96,-96.14 452.72,-86.22"/>
<polygon fill="#63b8ff" stroke="#63b8ff" points="454.26,-89.36 461.91,-82.03 451.35,-83 454.26,-89.36"/>
</a>
</g>
</g>
<!-- Node17&#45;&gt;Node9 -->
<g id="edge25_Node000017_Node000009" class="edge">
<title>Node17&#45;&gt;Node9</title>
<g id="a_edge25_Node000017_Node000009"><a xlink:title=" ">
<path fill="none" stroke="#63b8ff" d="M627.87,-176.95C592.76,-168.54 550.63,-155.77 540,-141 525.33,-120.62 550.79,-100.28 574.43,-86.92"/>
<polygon fill="#63b8ff" stroke="#63b8ff" points="576.15,-89.97 583.31,-82.16 572.84,-83.8 576.15,-89.97"/>
</a>
</g>
</g>
<!-- Node17&#45;&gt;Node15 -->
<g id="edge19_Node000017_Node000015" class="edge">
<title>Node17&#45;&gt;Node15</title>
<g id="a_edge19_Node000017_Node000015"><a xlink:title=" ">
<path fill="none" stroke="#63b8ff" d="M620.12,-176.98C561.19,-166.45 471.28,-150.38 414.1,-140.17"/>
<polygon fill="#63b8ff" stroke="#63b8ff" points="414.63,-136.71 404.17,-138.39 413.4,-143.6 414.63,-136.71"/>
</a>
</g>
</g>
<!-- Node18 -->
<g id="Node000018" class="node">
<title>Node18</title>
<g id="a_Node000018"><a xlink:href="EspTypes__Base_8h.html" target="_top" xlink:title="ESP32 base type definitions for hardware abstraction.">
<polygon fill="white" stroke="#666666" points="884.5,-141 759.5,-141 759.5,-118 884.5,-118 884.5,-141"/>
<text text-anchor="middle" x="822" y="-125.8" font-family="Arial" font-size="14.00">EspTypes_Base.h</text>
</a>
</g>
</g>
<!-- Node17&#45;&gt;Node18 -->
<g id="edge20_Node000017_Node000018" class="edge">
<title>Node17&#45;&gt;Node18</title>
<g id="a_edge20_Node000017_Node000018"><a xlink:title=" ">
<path fill="none" stroke="#63b8ff" d="M705.56,-176.91C728.24,-167.87 761.05,-154.79 786.07,-144.82"/>
<polygon fill="#63b8ff" stroke="#63b8ff" points="787.59,-147.98 795.58,-141.03 784.99,-141.48 787.59,-147.98"/>
</a>
</g>
</g>
<!-- Node19 -->
<g id="Node000019" class="node">
<title>Node19</title>
<g id="a_Node000019"><a xlink:href="McuSelect_8h.html" target="_top" xlink:title="Centralized MCU platform selection and configuration header.">
<polygon fill="white" stroke="#666666" points="947,-82 805,-82 805,-59 947,-59 947,-82"/>
<text text-anchor="middle" x="876" y="-66.8" font-family="Arial" font-size="14.00">../../utils/McuSelect.h</text>
</a>
</g>
</g>
<!-- Node17&#45;&gt;Node19 -->
<g id="edge26_Node000017_Node000019" class="edge">
<title>Node17&#45;&gt;Node19</title>
<g id="a_edge26_Node000017_Node000019"><a xlink:title=" ">
<path fill="none" stroke="#63b8ff" d="M687.32,-176.9C699.59,-161.91 723.91,-134.51 750,-118 772.86,-103.54 800.88,-92.63 824.68,-85.03"/>
<polygon fill="#63b8ff" stroke="#63b8ff" points="825.74,-88.37 834.26,-82.08 823.67,-81.68 825.74,-88.37"/>
</a>
</g>
</g>
<!-- Node18&#45;&gt;Node9 -->
<g id="edge22_Node000018_Node000009" class="edge">
<title>Node18&#45;&gt;Node9</title>
<g id="a_edge22_Node000018_Node000009"><a xlink:title=" ">
<path fill="none" stroke="#63b8ff" d="M782.32,-117.98C746.9,-108.59 694.88,-94.8 656.7,-84.68"/>
<polygon fill="#63b8ff" stroke="#63b8ff" points="657.38,-81.24 646.82,-82.06 655.59,-88 657.38,-81.24"/>
</a>
</g>
</g>
<!-- Node18&#45;&gt;Node10 -->
<g id="edge24_Node000018_Node000010" class="edge">
<title>Node18&#45;&gt;Node10</title>
<g id="a_edge24_Node000018_Node000010"><a xlink:title=" ">
<path fill="none" stroke="#63b8ff" d="M815.17,-117.79C802.67,-98.2 775.95,-56.32 760.24,-31.69"/>
<polygon fill="#63b8ff" stroke="#63b8ff" points="763.14,-29.73 754.81,-23.18 757.24,-33.49 763.14,-29.73"/>
</a>
</g>
</g>
<!-- Node18&#45;&gt;Node19 -->
<g id="edge21_Node000018_Node000019" class="edge">
<title>Node18&#45;&gt;Node19</title>
<g id="a_edge21_Node000018_Node000019"><a xlink:title=" ">
<path fill="none" stroke="#63b8ff" d="M832.16,-117.78C839.7,-109.82 850.16,-98.77 858.97,-89.47"/>
<polygon fill="#63b8ff" stroke="#63b8ff" points="861.55,-91.84 865.89,-82.17 856.47,-87.03 861.55,-91.84"/>
</a>
</g>
</g>
<!-- Node20 -->
<g id="Node000020" class="node">
<title>Node20</title>
<g id="a_Node000020"><a xlink:title=" ">
<polygon fill="#e0e0e0" stroke="#999999" points="1026.5,-82 969.5,-82 969.5,-59 1026.5,-59 1026.5,-82"/>
<text text-anchor="middle" x="998" y="-66.8" font-family="Arial" font-size="14.00">atomic</text>
</a>
</g>
</g>
<!-- Node18&#45;&gt;Node20 -->
<g id="edge23_Node000018_Node000020" class="edge">
<title>Node18&#45;&gt;Node20</title>
<g id="a_edge23_Node000018_Node000020"><a xlink:title=" ">
<path fill="none" stroke="#63b8ff" d="M854.69,-117.91C884.38,-108.3 928.2,-94.11 959.56,-83.95"/>
<polygon fill="#63b8ff" stroke="#63b8ff" points="960.84,-87.22 969.27,-80.8 958.68,-80.56 960.84,-87.22"/>
</a>
</g>
</g>
<!-- Node22&#45;&gt;Node9 -->
<g id="edge29_Node000022_Node000009" class="edge">
<title>Node22&#45;&gt;Node9</title>
<g id="a_edge29_Node000022_Node000009"><a xlink:title=" ">
<path fill="none" stroke="#63b8ff" d="M607,-117.78C607,-110.61 607,-100.95 607,-92.31"/>
<polygon fill="#63b8ff" stroke="#63b8ff" points="610.5,-92.17 607,-82.17 603.5,-92.17 610.5,-92.17"/>
</a>
</g>
</g>
<!-- Node22&#45;&gt;Node10 -->
<g id="edge30_Node000022_Node000010" class="edge">
<title>Node22&#45;&gt;Node10</title>
<g id="a_edge30_Node000022_Node000010"><a xlink:title=" ">
<path fill="none" stroke="#63b8ff" d="M624.9,-117.91C639.44,-109.01 660.22,-95.59 677,-82 696.91,-65.88 717.61,-45.08 731.49,-30.45"/>
<polygon fill="#63b8ff" stroke="#63b8ff" points="734.16,-32.71 738.45,-23.02 729.05,-27.93 734.16,-32.71"/>
</a>
</g>
</g>
<!-- Node22&#45;&gt;Node16 -->
<g id="edge31_Node000022_Node000016" class="edge">
<title>Node22&#45;&gt;Node16</title>
<g id="a_edge31_Node000022_Node000016"><a xlink:title=" ">
<path fill="none" stroke="#63b8ff" d="M584.34,-117.91C565.34,-109.03 537.99,-96.26 516.79,-86.35"/>
<polygon fill="#63b8ff" stroke="#63b8ff" points="518.08,-83.09 507.54,-82.03 515.12,-89.43 518.08,-83.09"/>
</a>
</g>
</g>
<!-- Node23&#45;&gt;Node10 -->
<g id="edge44_Node000023_Node000010" class="edge">
<title>Node23&#45;&gt;Node10</title>
<g id="a_edge44_Node000023_Node000010"><a xlink:title=" ">
<path fill="none" stroke="#63b8ff" d="M1119.68,-235.9C1133.12,-213.1 1160.47,-158.23 1140,-118 1119.8,-78.3 1100.21,-75.89 1059,-59 966.31,-21.01 846.73,-13.59 786.42,-12.44"/>
<polygon fill="#63b8ff" stroke="#63b8ff" points="786.26,-8.93 776.21,-12.29 786.16,-15.93 786.26,-8.93"/>
</a>
</g>
</g>
<!-- Node23&#45;&gt;Node22 -->
<g id="edge33_Node000023_Node000022" class="edge">
<title>Node23&#45;&gt;Node22</title>
<g id="a_edge33_Node000023_Node000022"><a xlink:title=" ">
<path fill="none" stroke="#63b8ff" d="M1040.22,-241.21C981.88,-235.41 898.56,-223.57 829,-200 808.47,-193.04 806.19,-184.89 786,-177 748.85,-162.48 705.6,-151.1 670.92,-143.23"/>
<polygon fill="#63b8ff" stroke="#63b8ff" points="671.44,-139.76 660.91,-141.01 669.92,-146.59 671.44,-139.76"/>
</a>
</g>
</g>
<!-- Node24 -->
<g id="Node000024" class="node">
<title>Node24</title>
<g id="a_Node000024"><a xlink:href="PlatformMutex_8h.html" target="_top" xlink:title="Cross&#45;platform RTOS mutex and synchronization primitives.">
<polygon fill="white" stroke="#666666" points="1131,-141 1015,-141 1015,-118 1131,-118 1131,-141"/>
<text text-anchor="middle" x="1073" y="-125.8" font-family="Arial" font-size="14.00">PlatformMutex.h</text>
</a>
</g>
</g>
<!-- Node23&#45;&gt;Node24 -->
<g id="edge34_Node000023_Node000024" class="edge">
<title>Node23&#45;&gt;Node24</title>
<g id="a_edge34_Node000023_Node000024"><a xlink:title=" ">
<path fill="none" stroke="#63b8ff" d="M1109.31,-235.79C1102.64,-216.46 1088.49,-175.42 1079.96,-150.68"/>
<polygon fill="#63b8ff" stroke="#63b8ff" points="1083.25,-149.49 1076.68,-141.18 1076.63,-151.77 1083.25,-149.49"/>
</a>
</g>
</g>
<!-- Node25 -->
<g id="Node000025" class="node">
<title>Node25</title>
<g id="a_Node000025"><a xlink:href="EspTypes__NVS_8h.html" target="_top" xlink:title="ESP32 NVS type definitions for hardware abstraction.">
<polygon fill="white" stroke="#666666" points="988,-200 838,-200 838,-177 988,-177 988,-200"/>
<text text-anchor="middle" x="913" y="-184.8" font-family="Arial" font-size="14.00">utils/EspTypes_NVS.h</text>
</a>
</g>
</g>
<!-- Node23&#45;&gt;Node25 -->
<g id="edge38_Node000023_Node000025" class="edge">
<title>Node23&#45;&gt;Node25</title>
<g id="a_edge38_Node000023_Node000025"><a xlink:title=" ">
<path fill="none" stroke="#63b8ff" d="M1075.85,-235.91C1043.01,-226.55 994.97,-212.86 959.58,-202.77"/>
<polygon fill="#63b8ff" stroke="#63b8ff" points="960.53,-199.41 949.95,-200.03 958.61,-206.14 960.53,-199.41"/>
</a>
</g>
</g>
<!-- Node24&#45;&gt;Node10 -->
<g id="edge37_Node000024_Node000010" class="edge">
<title>Node24&#45;&gt;Node10</title>
<g id="a_edge37_Node000024_Node000010"><a xlink:title=" ">
<path fill="none" stroke="#63b8ff" d="M1070.52,-117.81C1066.29,-102.18 1056.12,-73.39 1036,-59 996.62,-30.84 855.43,-18.8 786.46,-14.52"/>
<polygon fill="#63b8ff" stroke="#63b8ff" points="786.63,-11.02 776.44,-13.92 786.21,-18.01 786.63,-11.02"/>
</a>
</g>
</g>
<!-- Node24&#45;&gt;Node19 -->
<g id="edge35_Node000024_Node000019" class="edge">
<title>Node24&#45;&gt;Node19</title>
<g id="a_edge35_Node000024_Node000019"><a xlink:title=" ">
<path fill="none" stroke="#63b8ff" d="M1036.41,-117.91C1004.2,-108.59 957.15,-94.98 922.33,-84.9"/>
<polygon fill="#63b8ff" stroke="#63b8ff" points="922.98,-81.45 912.4,-82.03 921.03,-88.17 922.98,-81.45"/>
</a>
</g>
</g>
<!-- Node24&#45;&gt;Node20 -->
<g id="edge36_Node000024_Node000020" class="edge">
<title>Node24&#45;&gt;Node20</title>
<g id="a_edge36_Node000024_Node000020"><a xlink:title=" ">
<path fill="none" stroke="#63b8ff" d="M1058.89,-117.78C1048,-109.5 1032.72,-97.89 1020.19,-88.36"/>
<polygon fill="#63b8ff" stroke="#63b8ff" points="1022.12,-85.44 1012.04,-82.17 1017.89,-91.01 1022.12,-85.44"/>
</a>
</g>
</g>
<!-- Node25&#45;&gt;Node9 -->
<g id="edge41_Node000025_Node000009" class="edge">
<title>Node25&#45;&gt;Node9</title>
<g id="a_edge41_Node000025_Node000009"><a xlink:title=" ">
<path fill="none" stroke="#63b8ff" d="M868.04,-176.93C834.91,-168.6 789.03,-155.92 750,-141 708.77,-125.24 663.25,-102.05 634.88,-86.86"/>
<polygon fill="#63b8ff" stroke="#63b8ff" points="636.42,-83.71 625.95,-82.04 633.09,-89.87 636.42,-83.71"/>
</a>
</g>
</g>
<!-- Node25&#45;&gt;Node18 -->
<g id="edge40_Node000025_Node000018" class="edge">
<title>Node25&#45;&gt;Node18</title>
<g id="a_edge40_Node000025_Node000018"><a xlink:title=" ">
<path fill="none" stroke="#63b8ff" d="M895.88,-176.78C882.28,-168.26 863.05,-156.21 847.62,-146.55"/>
<polygon fill="#63b8ff" stroke="#63b8ff" points="849.37,-143.52 839.04,-141.17 845.66,-149.45 849.37,-143.52"/>
</a>
</g>
</g>
<!-- Node25&#45;&gt;Node19 -->
<g id="edge42_Node000025_Node000019" class="edge">
<title>Node25&#45;&gt;Node19</title>
<g id="a_edge42_Node000025_Node000019"><a xlink:title=" ">
<path fill="none" stroke="#63b8ff" d="M910.12,-176.59C906.42,-162.85 899.7,-138.53 893,-118 890.15,-109.27 886.72,-99.72 883.68,-91.56"/>
<polygon fill="#63b8ff" stroke="#63b8ff" points="886.93,-90.26 880.13,-82.14 880.38,-92.73 886.93,-90.26"/>
</a>
</g>
</g>
<!-- Node25&#45;&gt;Node22 -->
<g id="edge39_Node000025_Node000022" class="edge">
<title>Node25&#45;&gt;Node22</title>
<g id="a_edge39_Node000025_Node000022"><a xlink:title=" ">
<path fill="none" stroke="#63b8ff" d="M856.52,-176.98C804.74,-167.33 728.03,-153.05 673.35,-142.86"/>
<polygon fill="#63b8ff" stroke="#63b8ff" points="673.88,-139.4 663.41,-141.01 672.6,-146.28 673.88,-139.4"/>
</a>
</g>
</g>
<!-- Node25&#45;&gt;Node26 -->
<g id="edge43_Node000025_Node000026" class="edge">
<title>Node25&#45;&gt;Node26</title>
<g id="a_edge43_Node000025_Node000026"><a xlink:title=" ">
<path fill="none" stroke="#63b8ff" d="M923.53,-176.78C931.35,-168.82 942.2,-157.77 951.34,-148.47"/>
<polygon fill="#63b8ff" stroke="#63b8ff" points="954,-150.76 958.51,-141.17 949.01,-145.85 954,-150.76"/>
</a>
</g>
</g>
</g>
</svg>

<g id="navigator" transform="translate(0 0)" fill="#404254">
  <rect fill="#f2f5e9" fill-opacity="0.5" stroke="#606060" stroke-width=".5" x="0" y="0" width="60" height="60"/>
  <use id="zoomplus" xlink:href="#zoomPlus" x="17" y="9" onmousedown="handleZoom(evt,'in')"/>
  <use id="zoomminus" xlink:href="#zoomMin" x="42" y="9" onmousedown="handleZoom(evt,'out')"/>
  <use id="reset" xlink:href="#resetDef" x="30" y="36" onmousedown="handleReset()"/>
   <use id="arrowup" xlink:href="#arrowUp" x="0" y="0" onmousedown="handlePan(0,-1)"/>
  <use id="arrowright" xlink:href="#arrowRight" x="0" y="0" onmousedown="handlePan(1,0)"/>
  <use id="arrowdown" xlink:href="#arrowDown" x="0" y="0" onmousedown="handlePan(0,1)"/>
  <use id="arrowleft" xlink:href="#arrowLeft" x="0" y="0" onmousedown="handlePan(-1,0)"/>
</g>
<svg viewBox="0 0 15 15" width="100%" height="30px" preserveAspectRatio="xMaxYMin meet">
 <g id="arrow_out" transform="scale(0.3 0.3)">
  <a xlink:href="NvsComprehensiveTest_8cpp__incl_org.svg" target="_base">
   <rect id="button" ry="5" rx="5" y="6" x="6" height="38" width="38"
        fill="#f2f5e9" fill-opacity="0.5" stroke="#606060" stroke-width="1.0"/>
   <path id="arrow"
     d="M 11.500037,31.436501 C 11.940474,20.09759 22.043105,11.32322 32.158766,21.979434 L 37.068811,17.246167 C 37.068811,17.246167 37.088388,32 37.088388,32 L 22.160133,31.978069 C 22.160133,31.978069 26.997745,27.140456 26.997745,27.140456 C 18.528582,18.264221 13.291696,25.230495 11.500037,31.436501 z"
     style="fill:#404040;"/>
  </a>
 </g>
</svg>

<style type='text/css'>
<![CDATA[
[data-mouse-over-selected='false'] { opacity: 0.7; }
[data-mouse-over-selected='true']  { opacity: 1.0; }
]]>
</style>
<script type="application/ecmascript"><![CDATA[
document.addEventListener('DOMContentLoaded', (event) => {
  highlightEdges();
  highlightAdjacentNodes();
});
]]></script>
</svg>
