<?xml version="1.0" encoding="UTF-8" standalone="no"?>
<!DOCTYPE svg PUBLIC "-//W3C//DTD SVG 1.1//EN"
 "http://www.w3.org/Graphics/SVG/1.1/DTD/svg11.dtd">
<!-- Generated by graphviz version 2.43.0 (0)
 -->
<!-- Title: inc/utils/PlatformMutex.h Pages: 1 -->
<svg width="173pt" height="90pt"
 viewBox="0.00 0.00 173.00 90.00" xmlns="http://www.w3.org/2000/svg" xmlns:xlink="http://www.w3.org/1999/xlink">
<g id="graph0" class="graph" transform="scale(1 1) rotate(0) translate(4 86)">
<title>inc/utils/PlatformMutex.h</title>
<!-- Node1 -->
<g id="Node000001" class="node">
<title>Node1</title>
<g id="a_Node000001"><a xlink:title="Cross&#45;platform mutex and synchronization primitives with pluggable backend.">
<polygon fill="#999999" stroke="#666666" points="165,-82 0,-82 0,-59 165,-59 165,-82"/>
<text text-anchor="middle" x="82.5" y="-66.8" font-family="Arial" font-size="14.00">inc/utils/PlatformMutex.h</text>
</a>
</g>
</g>
<!-- Node2 -->
<g id="Node000002" class="node">
<title>Node2</title>
<g id="a_Node000002"><a xlink:title=" ">
<polygon fill="#e0e0e0" stroke="#999999" points="74,-23 17,-23 17,0 74,0 74,-23"/>
<text text-anchor="middle" x="45.5" y="-7.8" font-family="Arial" font-size="14.00">atomic</text>
</a>
</g>
</g>
<!-- Node1&#45;&gt;Node2 -->
<g id="edge1_Node000001_Node000002" class="edge">
<title>Node1&#45;&gt;Node2</title>
<g id="a_edge1_Node000001_Node000002"><a xlink:title=" ">
<path fill="none" stroke="#63b8ff" d="M75.54,-58.78C70.58,-51.14 63.77,-40.65 57.9,-31.6"/>
<polygon fill="#63b8ff" stroke="#63b8ff" points="60.81,-29.66 52.43,-23.17 54.94,-33.47 60.81,-29.66"/>
</a>
</g>
</g>
<!-- Node3 -->
<g id="Node000003" class="node">
<title>Node3</title>
<g id="a_Node000003"><a xlink:title=" ">
<polygon fill="#e0e0e0" stroke="#999999" points="148.5,-23 92.5,-23 92.5,0 148.5,0 148.5,-23"/>
<text text-anchor="middle" x="120.5" y="-7.8" font-family="Arial" font-size="14.00">cstdint</text>
</a>
</g>
</g>
<!-- Node1&#45;&gt;Node3 -->
<g id="edge2_Node000001_Node000003" class="edge">
<title>Node1&#45;&gt;Node3</title>
<g id="a_edge2_Node000001_Node000003"><a xlink:title=" ">
<path fill="none" stroke="#63b8ff" d="M89.65,-58.78C94.74,-51.14 101.73,-40.65 107.77,-31.6"/>
<polygon fill="#63b8ff" stroke="#63b8ff" points="110.75,-33.44 113.38,-23.17 104.93,-29.55 110.75,-33.44"/>
</a>
</g>
</g>
</g>
</svg>
