<?xml version="1.0" encoding="UTF-8" standalone="no"?>
<!DOCTYPE svg PUBLIC "-//W3C//DTD SVG 1.1//EN"
 "http://www.w3.org/Graphics/SVG/1.1/DTD/svg11.dtd">
<!-- Generated by graphviz version 2.43.0 (0)
 -->
<!-- Title: examples/esp32/main/PwmComprehensiveTest.cpp Pages: 1 -->
<svg width="1453pt" height="400pt"
 viewBox="0.00 0.00 1452.50 400.00" xmlns="http://www.w3.org/2000/svg" xmlns:xlink="http://www.w3.org/1999/xlink">
<g id="graph0" class="graph" transform="scale(1 1) rotate(0) translate(4 396)">
<title>examples/esp32/main/PwmComprehensiveTest.cpp</title>
<!-- Node1 -->
<g id="Node000001" class="node">
<title>Node1</title>
<g id="a_Node000001"><a xlink:title="Comprehensive PWM testing suite for ESP32 family (noexcept)">
<polygon fill="#999999" stroke="#666666" points="659.5,-392 462.5,-392 462.5,-354 659.5,-354 659.5,-392"/>
<text text-anchor="start" x="470.5" y="-376.8" font-family="Arial" font-size="14.00">examples/esp32/main</text>
<text text-anchor="middle" x="561" y="-361.8" font-family="Arial" font-size="14.00">/PwmComprehensiveTest.cpp</text>
</a>
</g>
</g>
<!-- Node2 -->
<g id="Node000002" class="node">
<title>Node2</title>
<g id="a_Node000002"><a xlink:href="TestFramework_8h.html" target="_top" xlink:title="Shared testing framework for ESP32&#45;C6 comprehensive test suites.">
<polygon fill="white" stroke="#666666" points="621.5,-318 500.5,-318 500.5,-295 621.5,-295 621.5,-318"/>
<text text-anchor="middle" x="561" y="-302.8" font-family="Arial" font-size="14.00">TestFramework.h</text>
</a>
</g>
</g>
<!-- Node1&#45;&gt;Node2 -->
<g id="edge1_Node000001_Node000002" class="edge">
<title>Node1&#45;&gt;Node2</title>
<g id="a_edge1_Node000001_Node000002"><a xlink:title=" ">
<path fill="none" stroke="#63b8ff" d="M561,-353.69C561,-345.8 561,-336.54 561,-328.39"/>
<polygon fill="#63b8ff" stroke="#63b8ff" points="564.5,-328.19 561,-318.19 557.5,-328.19 564.5,-328.19"/>
</a>
</g>
</g>
<!-- Node12 -->
<g id="Node000012" class="node">
<title>Node12</title>
<g id="a_Node000012"><a xlink:href="EspGpio_8h.html" target="_top" xlink:title="Advanced MCU&#45;specific implementation of the unified BaseGpio class with ESP32C6/ESP&#45;IDF v5....">
<polygon fill="white" stroke="#666666" points="293.5,-259 142.5,-259 142.5,-236 293.5,-236 293.5,-259"/>
<text text-anchor="middle" x="218" y="-243.8" font-family="Arial" font-size="14.00">mcu/esp32/EspGpio.h</text>
</a>
</g>
</g>
<!-- Node1&#45;&gt;Node12 -->
<g id="edge34_Node000001_Node000012" class="edge">
<title>Node1&#45;&gt;Node12</title>
<g id="a_edge34_Node000001_Node000012"><a xlink:title=" ">
<path fill="none" stroke="#63b8ff" d="M462.24,-361.37C414.08,-353.61 356.29,-340.38 308,-318 280.14,-305.09 252.91,-282.21 235.83,-266.24"/>
<polygon fill="#63b8ff" stroke="#63b8ff" points="237.94,-263.42 228.3,-259.03 233.1,-268.48 237.94,-263.42"/>
</a>
</g>
</g>
<!-- Node23 -->
<g id="Node000023" class="node">
<title>Node23</title>
<g id="a_Node000023"><a xlink:href="BasePwm_8h.html" target="_top" xlink:title="Abstract base class for PWM implementations in the HardFOC system.">
<polygon fill="white" stroke="#666666" points="931,-141 809,-141 809,-118 931,-118 931,-141"/>
<text text-anchor="middle" x="870" y="-125.8" font-family="Arial" font-size="14.00">base/BasePwm.h</text>
</a>
</g>
</g>
<!-- Node1&#45;&gt;Node23 -->
<g id="edge29_Node000001_Node000023" class="edge">
<title>Node1&#45;&gt;Node23</title>
<g id="a_edge29_Node000001_Node000023"><a xlink:title=" ">
<path fill="none" stroke="#63b8ff" d="M515.26,-353.91C436.9,-320.46 291.31,-246.05 355,-177 387.06,-142.25 717.5,-146.2 798.82,-140.78"/>
<polygon fill="#63b8ff" stroke="#63b8ff" points="799.29,-144.25 808.95,-139.91 798.69,-137.28 799.29,-144.25"/>
</a>
</g>
</g>
<!-- Node24 -->
<g id="Node000024" class="node">
<title>Node24</title>
<g id="a_Node000024"><a xlink:href="EspPwm_8h.html" target="_top" xlink:title="ESP32C6 LEDC (PWM) controller implementation for the HardFOC system.">
<polygon fill="white" stroke="#666666" points="1209,-318 1057,-318 1057,-295 1209,-295 1209,-318"/>
<text text-anchor="middle" x="1133" y="-302.8" font-family="Arial" font-size="14.00">mcu/esp32/EspPwm.h</text>
</a>
</g>
</g>
<!-- Node1&#45;&gt;Node24 -->
<g id="edge35_Node000001_Node000024" class="edge">
<title>Node1&#45;&gt;Node24</title>
<g id="a_edge35_Node000001_Node000024"><a xlink:title=" ">
<path fill="none" stroke="#63b8ff" d="M659.66,-360.88C768.68,-348.58 942.56,-328.97 1046.47,-317.26"/>
<polygon fill="#63b8ff" stroke="#63b8ff" points="1047.06,-320.71 1056.61,-316.11 1046.28,-313.76 1047.06,-320.71"/>
</a>
</g>
</g>
<!-- Node27 -->
<g id="Node000027" class="node">
<title>Node27</title>
<g id="a_Node000027"><a xlink:title=" ">
<polygon fill="#e0e0e0" stroke="#999999" points="1444.5,-259 1397.5,-259 1397.5,-236 1444.5,-236 1444.5,-259"/>
<text text-anchor="middle" x="1421" y="-243.8" font-family="Arial" font-size="14.00">array</text>
</a>
</g>
</g>
<!-- Node1&#45;&gt;Node27 -->
<g id="edge54_Node000001_Node000027" class="edge">
<title>Node1&#45;&gt;Node27</title>
<g id="a_edge54_Node000001_Node000027"><a xlink:title=" ">
<path fill="none" stroke="#63b8ff" d="M659.76,-371.47C789.27,-369.05 1022.93,-358.75 1218,-318 1279.68,-305.11 1348.49,-278.91 1388.07,-262.62"/>
<polygon fill="#63b8ff" stroke="#63b8ff" points="1389.59,-265.77 1397.48,-258.7 1386.9,-259.31 1389.59,-265.77"/>
</a>
</g>
</g>
<!-- Node3 -->
<g id="Node000003" class="node">
<title>Node3</title>
<g id="a_Node000003"><a xlink:title=" ">
<polygon fill="#e0e0e0" stroke="#999999" points="463.5,-259 388.5,-259 388.5,-236 463.5,-236 463.5,-259"/>
<text text-anchor="middle" x="426" y="-243.8" font-family="Arial" font-size="14.00">esp_log.h</text>
</a>
</g>
</g>
<!-- Node2&#45;&gt;Node3 -->
<g id="edge2_Node000002_Node000003" class="edge">
<title>Node2&#45;&gt;Node3</title>
<g id="a_edge2_Node000002_Node000003"><a xlink:title=" ">
<path fill="none" stroke="#63b8ff" d="M535.92,-294.91C514.61,-285.91 483.81,-272.91 460.23,-262.95"/>
<polygon fill="#63b8ff" stroke="#63b8ff" points="461.52,-259.7 450.94,-259.03 458.79,-266.15 461.52,-259.7"/>
</a>
</g>
</g>
<!-- Node4 -->
<g id="Node000004" class="node">
<title>Node4</title>
<g id="a_Node000004"><a xlink:title=" ">
<polygon fill="#e0e0e0" stroke="#999999" points="568.5,-259 481.5,-259 481.5,-236 568.5,-236 568.5,-259"/>
<text text-anchor="middle" x="525" y="-243.8" font-family="Arial" font-size="14.00">esp_timer.h</text>
</a>
</g>
</g>
<!-- Node2&#45;&gt;Node4 -->
<g id="edge3_Node000002_Node000004" class="edge">
<title>Node2&#45;&gt;Node4</title>
<g id="a_edge3_Node000002_Node000004"><a xlink:title=" ">
<path fill="none" stroke="#63b8ff" d="M554.23,-294.78C549.45,-287.22 542.92,-276.87 537.24,-267.88"/>
<polygon fill="#63b8ff" stroke="#63b8ff" points="540.04,-265.76 531.74,-259.17 534.12,-269.5 540.04,-265.76"/>
</a>
</g>
</g>
<!-- Node5 -->
<g id="Node000005" class="node">
<title>Node5</title>
<g id="a_Node000005"><a xlink:title=" ">
<polygon fill="#e0e0e0" stroke="#999999" points="507.5,-200 364.5,-200 364.5,-177 507.5,-177 507.5,-200"/>
<text text-anchor="middle" x="436" y="-184.8" font-family="Arial" font-size="14.00">freertos/FreeRTOS.h</text>
</a>
</g>
</g>
<!-- Node2&#45;&gt;Node5 -->
<g id="edge4_Node000002_Node000005" class="edge">
<title>Node2&#45;&gt;Node5</title>
<g id="a_edge4_Node000002_Node000005"><a xlink:title=" ">
<path fill="none" stroke="#63b8ff" d="M500.48,-298.05C453.51,-290.88 393.95,-278.25 379,-259 364.59,-240.45 386.83,-219.69 407.6,-205.73"/>
<polygon fill="#63b8ff" stroke="#63b8ff" points="409.74,-208.51 416.3,-200.19 405.98,-202.61 409.74,-208.51"/>
</a>
</g>
</g>
<!-- Node6 -->
<g id="Node000006" class="node">
<title>Node6</title>
<g id="a_Node000006"><a xlink:title=" ">
<polygon fill="#e0e0e0" stroke="#999999" points="740.5,-259 625.5,-259 625.5,-236 740.5,-236 740.5,-259"/>
<text text-anchor="middle" x="683" y="-243.8" font-family="Arial" font-size="14.00">freertos/queue.h</text>
</a>
</g>
</g>
<!-- Node2&#45;&gt;Node6 -->
<g id="edge5_Node000002_Node000006" class="edge">
<title>Node2&#45;&gt;Node6</title>
<g id="a_edge5_Node000002_Node000006"><a xlink:title=" ">
<path fill="none" stroke="#63b8ff" d="M583.66,-294.91C602.66,-286.03 630.01,-273.26 651.21,-263.35"/>
<polygon fill="#63b8ff" stroke="#63b8ff" points="652.88,-266.43 660.46,-259.03 649.92,-260.09 652.88,-266.43"/>
</a>
</g>
</g>
<!-- Node7 -->
<g id="Node000007" class="node">
<title>Node7</title>
<g id="a_Node000007"><a xlink:title=" ">
<polygon fill="#e0e0e0" stroke="#999999" points="658,-200 536,-200 536,-177 658,-177 658,-200"/>
<text text-anchor="middle" x="597" y="-184.8" font-family="Arial" font-size="14.00">freertos/semphr.h</text>
</a>
</g>
</g>
<!-- Node2&#45;&gt;Node7 -->
<g id="edge6_Node000002_Node000007" class="edge">
<title>Node2&#45;&gt;Node7</title>
<g id="a_edge6_Node000002_Node000007"><a xlink:title=" ">
<path fill="none" stroke="#63b8ff" d="M564.84,-294.84C568.19,-285.45 573.09,-271.37 577,-259 582.13,-242.75 587.44,-224.2 591.3,-210.35"/>
<polygon fill="#63b8ff" stroke="#63b8ff" points="594.76,-210.96 594.05,-200.39 588.02,-209.09 594.76,-210.96"/>
</a>
</g>
</g>
<!-- Node8 -->
<g id="Node000008" class="node">
<title>Node8</title>
<g id="a_Node000008"><a xlink:title=" ">
<polygon fill="#e0e0e0" stroke="#999999" points="778,-200 676,-200 676,-177 778,-177 778,-200"/>
<text text-anchor="middle" x="727" y="-184.8" font-family="Arial" font-size="14.00">freertos/task.h</text>
</a>
</g>
</g>
<!-- Node2&#45;&gt;Node8 -->
<g id="edge7_Node000002_Node000008" class="edge">
<title>Node2&#45;&gt;Node8</title>
<g id="a_edge7_Node000002_Node000008"><a xlink:title=" ">
<path fill="none" stroke="#63b8ff" d="M621.56,-298.61C670.34,-291.66 733.3,-279.06 749,-259 760.37,-244.47 751.66,-223.96 742.05,-208.99"/>
<polygon fill="#63b8ff" stroke="#63b8ff" points="744.71,-206.68 736.13,-200.48 738.97,-210.69 744.71,-206.68"/>
</a>
</g>
</g>
<!-- Node9 -->
<g id="Node000009" class="node">
<title>Node9</title>
<g id="a_Node000009"><a xlink:href="HardwareTypes_8h.html" target="_top" xlink:title="Platform&#45;agnostic hardware type definitions for the HardFOC system.">
<polygon fill="white" stroke="#666666" points="1092,-82 970,-82 970,-59 1092,-59 1092,-82"/>
<text text-anchor="middle" x="1031" y="-66.8" font-family="Arial" font-size="14.00">HardwareTypes.h</text>
</a>
</g>
</g>
<!-- Node2&#45;&gt;Node9 -->
<g id="edge8_Node000002_Node000009" class="edge">
<title>Node2&#45;&gt;Node9</title>
<g id="a_edge8_Node000002_Node000009"><a xlink:title=" ">
<path fill="none" stroke="#63b8ff" d="M621.7,-302.91C706.1,-298.36 853.66,-286.61 899,-259 933.14,-238.21 994.94,-134.66 1020,-90.99"/>
<polygon fill="#63b8ff" stroke="#63b8ff" points="1023.12,-92.59 1025.03,-82.16 1017.04,-89.12 1023.12,-92.59"/>
</a>
</g>
</g>
<!-- Node2&#45;&gt;Node12 -->
<g id="edge11_Node000002_Node000012" class="edge">
<title>Node2&#45;&gt;Node12</title>
<g id="a_edge11_Node000002_Node000012"><a xlink:title=" ">
<path fill="none" stroke="#63b8ff" d="M500.47,-295.44C442.17,-285.75 353.89,-271.08 291.57,-260.73"/>
<polygon fill="#63b8ff" stroke="#63b8ff" points="291.85,-257.22 281.41,-259.04 290.7,-264.13 291.85,-257.22"/>
</a>
</g>
</g>
<!-- Node10 -->
<g id="Node000010" class="node">
<title>Node10</title>
<g id="a_Node000010"><a xlink:title=" ">
<polygon fill="#e0e0e0" stroke="#999999" points="970,-23 914,-23 914,0 970,0 970,-23"/>
<text text-anchor="middle" x="942" y="-7.8" font-family="Arial" font-size="14.00">cstdint</text>
</a>
</g>
</g>
<!-- Node9&#45;&gt;Node10 -->
<g id="edge9_Node000009_Node000010" class="edge">
<title>Node9&#45;&gt;Node10</title>
<g id="a_edge9_Node000009_Node000010"><a xlink:title=" ">
<path fill="none" stroke="#63b8ff" d="M1014.26,-58.78C1001.08,-50.34 982.5,-38.44 967.48,-28.82"/>
<polygon fill="#63b8ff" stroke="#63b8ff" points="968.97,-25.62 958.67,-23.17 965.2,-31.51 968.97,-25.62"/>
</a>
</g>
</g>
<!-- Node11 -->
<g id="Node000011" class="node">
<title>Node11</title>
<g id="a_Node000011"><a xlink:title=" ">
<polygon fill="#e0e0e0" stroke="#999999" points="1055,-23 1007,-23 1007,0 1055,0 1055,-23"/>
<text text-anchor="middle" x="1031" y="-7.8" font-family="Arial" font-size="14.00">limits</text>
</a>
</g>
</g>
<!-- Node9&#45;&gt;Node11 -->
<g id="edge10_Node000009_Node000011" class="edge">
<title>Node9&#45;&gt;Node11</title>
<g id="a_edge10_Node000009_Node000011"><a xlink:title=" ">
<path fill="none" stroke="#63b8ff" d="M1031,-58.78C1031,-51.61 1031,-41.95 1031,-33.31"/>
<polygon fill="#63b8ff" stroke="#63b8ff" points="1034.5,-33.17 1031,-23.17 1027.5,-33.17 1034.5,-33.17"/>
</a>
</g>
</g>
<!-- Node13 -->
<g id="Node000013" class="node">
<title>Node13</title>
<g id="a_Node000013"><a xlink:title=" ">
<polygon fill="#e0e0e0" stroke="#999999" points="259.5,-200 168.5,-200 168.5,-177 259.5,-177 259.5,-200"/>
<text text-anchor="middle" x="214" y="-184.8" font-family="Arial" font-size="14.00">driver/gpio.h</text>
</a>
</g>
</g>
<!-- Node12&#45;&gt;Node13 -->
<g id="edge12_Node000012_Node000013" class="edge">
<title>Node12&#45;&gt;Node13</title>
<g id="a_edge12_Node000012_Node000013"><a xlink:title=" ">
<path fill="none" stroke="#63b8ff" d="M217.25,-235.78C216.74,-228.61 216.07,-218.95 215.46,-210.31"/>
<polygon fill="#63b8ff" stroke="#63b8ff" points="218.94,-209.9 214.75,-200.17 211.96,-210.39 218.94,-209.9"/>
</a>
</g>
</g>
<!-- Node14 -->
<g id="Node000014" class="node">
<title>Node14</title>
<g id="a_Node000014"><a xlink:title=" ">
<polygon fill="#e0e0e0" stroke="#999999" points="76,-200 0,-200 0,-177 76,-177 76,-200"/>
<text text-anchor="middle" x="38" y="-184.8" font-family="Arial" font-size="14.00">esp_attr.h</text>
</a>
</g>
</g>
<!-- Node12&#45;&gt;Node14 -->
<g id="edge13_Node000012_Node000014" class="edge">
<title>Node12&#45;&gt;Node14</title>
<g id="a_edge13_Node000012_Node000014"><a xlink:title=" ">
<path fill="none" stroke="#63b8ff" d="M184.57,-235.91C155.39,-226.67 112.88,-213.21 81.15,-203.16"/>
<polygon fill="#63b8ff" stroke="#63b8ff" points="81.85,-199.71 71.26,-200.03 79.73,-206.39 81.85,-199.71"/>
</a>
</g>
</g>
<!-- Node15 -->
<g id="Node000015" class="node">
<title>Node15</title>
<g id="a_Node000015"><a xlink:href="BaseGpio_8h.html" target="_top" xlink:title="Unified GPIO base class for all digital GPIO implementations.">
<polygon fill="white" stroke="#666666" points="791,-141 703,-141 703,-118 791,-118 791,-141"/>
<text text-anchor="middle" x="747" y="-125.8" font-family="Arial" font-size="14.00">BaseGpio.h</text>
</a>
</g>
</g>
<!-- Node12&#45;&gt;Node15 -->
<g id="edge14_Node000012_Node000015" class="edge">
<title>Node12&#45;&gt;Node15</title>
<g id="a_edge14_Node000012_Node000015"><a xlink:title=" ">
<path fill="none" stroke="#63b8ff" d="M228.39,-235.8C244.59,-219.88 277.58,-190.41 312,-177 380.09,-150.47 591.62,-137.55 692.46,-132.77"/>
<polygon fill="#63b8ff" stroke="#63b8ff" points="692.91,-136.25 702.74,-132.29 692.59,-129.26 692.91,-136.25"/>
</a>
</g>
</g>
<!-- Node18 -->
<g id="Node000018" class="node">
<title>Node18</title>
<g id="a_Node000018"><a xlink:href="EspTypes__GPIO_8h.html" target="_top" xlink:title="ESP32 GPIO type definitions for hardware abstraction.">
<polygon fill="white" stroke="#666666" points="1115,-200 985,-200 985,-177 1115,-177 1115,-200"/>
<text text-anchor="middle" x="1050" y="-184.8" font-family="Arial" font-size="14.00">EspTypes_GPIO.h</text>
</a>
</g>
</g>
<!-- Node12&#45;&gt;Node18 -->
<g id="edge19_Node000012_Node000018" class="edge">
<title>Node12&#45;&gt;Node18</title>
<g id="a_edge19_Node000012_Node000018"><a xlink:title=" ">
<path fill="none" stroke="#63b8ff" d="M293.67,-241.32C452.03,-230.47 816.74,-205.48 974.74,-194.66"/>
<polygon fill="#63b8ff" stroke="#63b8ff" points="975.1,-198.14 984.84,-193.96 974.63,-191.16 975.1,-198.14"/>
</a>
</g>
</g>
<!-- Node22 -->
<g id="Node000022" class="node">
<title>Node22</title>
<g id="a_Node000022"><a xlink:title=" ">
<polygon fill="#e0e0e0" stroke="#999999" points="150,-200 94,-200 94,-177 150,-177 150,-200"/>
<text text-anchor="middle" x="122" y="-184.8" font-family="Arial" font-size="14.00">stdio.h</text>
</a>
</g>
</g>
<!-- Node12&#45;&gt;Node22 -->
<g id="edge28_Node000012_Node000022" class="edge">
<title>Node12&#45;&gt;Node22</title>
<g id="a_edge28_Node000012_Node000022"><a xlink:title=" ">
<path fill="none" stroke="#63b8ff" d="M199.94,-235.78C185.6,-227.26 165.31,-215.21 149.02,-205.55"/>
<polygon fill="#63b8ff" stroke="#63b8ff" points="150.36,-202.27 139.98,-200.17 146.79,-208.29 150.36,-202.27"/>
</a>
</g>
</g>
<!-- Node15&#45;&gt;Node9 -->
<g id="edge15_Node000015_Node000009" class="edge">
<title>Node15&#45;&gt;Node9</title>
<g id="a_edge15_Node000015_Node000009"><a xlink:title=" ">
<path fill="none" stroke="#63b8ff" d="M791.06,-119.66C838.63,-110.11 914.79,-94.82 968.53,-84.04"/>
<polygon fill="#63b8ff" stroke="#63b8ff" points="969.51,-87.41 978.62,-82.01 968.13,-80.55 969.51,-87.41"/>
</a>
</g>
</g>
<!-- Node15&#45;&gt;Node10 -->
<g id="edge16_Node000015_Node000010" class="edge">
<title>Node15&#45;&gt;Node10</title>
<g id="a_edge16_Node000015_Node000010"><a xlink:title=" ">
<path fill="none" stroke="#63b8ff" d="M739.13,-117.89C729.22,-103.13 715.09,-76.28 729,-59 750.52,-32.27 848.4,-20.08 903.69,-15.24"/>
<polygon fill="#63b8ff" stroke="#63b8ff" points="904.14,-18.71 913.81,-14.39 903.56,-11.74 904.14,-18.71"/>
</a>
</g>
</g>
<!-- Node16 -->
<g id="Node000016" class="node">
<title>Node16</title>
<g id="a_Node000016"><a xlink:title=" ">
<polygon fill="#e0e0e0" stroke="#999999" points="812,-82 738,-82 738,-59 812,-59 812,-82"/>
<text text-anchor="middle" x="775" y="-66.8" font-family="Arial" font-size="14.00">functional</text>
</a>
</g>
</g>
<!-- Node15&#45;&gt;Node16 -->
<g id="edge17_Node000015_Node000016" class="edge">
<title>Node15&#45;&gt;Node16</title>
<g id="a_edge17_Node000015_Node000016"><a xlink:title=" ">
<path fill="none" stroke="#63b8ff" d="M752.27,-117.78C755.94,-110.29 760.96,-100.09 765.34,-91.16"/>
<polygon fill="#63b8ff" stroke="#63b8ff" points="768.49,-92.69 769.76,-82.17 762.21,-89.61 768.49,-92.69"/>
</a>
</g>
</g>
<!-- Node17 -->
<g id="Node000017" class="node">
<title>Node17</title>
<g id="a_Node000017"><a xlink:title=" ">
<polygon fill="#e0e0e0" stroke="#999999" points="914,-82 830,-82 830,-59 914,-59 914,-82"/>
<text text-anchor="middle" x="872" y="-66.8" font-family="Arial" font-size="14.00">string_view</text>
</a>
</g>
</g>
<!-- Node15&#45;&gt;Node17 -->
<g id="edge18_Node000015_Node000017" class="edge">
<title>Node15&#45;&gt;Node17</title>
<g id="a_edge18_Node000015_Node000017"><a xlink:title=" ">
<path fill="none" stroke="#63b8ff" d="M770.22,-117.91C789.78,-108.99 817.96,-96.14 839.72,-86.22"/>
<polygon fill="#63b8ff" stroke="#63b8ff" points="841.26,-89.36 848.91,-82.03 838.35,-83 841.26,-89.36"/>
</a>
</g>
</g>
<!-- Node18&#45;&gt;Node9 -->
<g id="edge26_Node000018_Node000009" class="edge">
<title>Node18&#45;&gt;Node9</title>
<g id="a_edge26_Node000018_Node000009"><a xlink:title=" ">
<path fill="none" stroke="#63b8ff" d="M1040.94,-176.88C1033.96,-167.96 1024.88,-154.54 1021,-141 1016.35,-124.75 1019.67,-105.71 1023.69,-91.68"/>
<polygon fill="#63b8ff" stroke="#63b8ff" points="1027.06,-92.64 1026.78,-82.05 1020.39,-90.5 1027.06,-92.64"/>
</a>
</g>
</g>
<!-- Node18&#45;&gt;Node15 -->
<g id="edge20_Node000018_Node000015" class="edge">
<title>Node18&#45;&gt;Node15</title>
<g id="a_edge20_Node000018_Node000015"><a xlink:title=" ">
<path fill="none" stroke="#63b8ff" d="M992.37,-176.98C943.96,-168.09 872.66,-154.91 801.3,-141.24"/>
<polygon fill="#63b8ff" stroke="#63b8ff" points="801.72,-137.75 791.24,-139.3 800.4,-144.63 801.72,-137.75"/>
</a>
</g>
</g>
<!-- Node19 -->
<g id="Node000019" class="node">
<title>Node19</title>
<g id="a_Node000019"><a xlink:href="EspTypes__Base_8h.html" target="_top" xlink:title="ESP32 base type definitions for hardware abstraction.">
<polygon fill="white" stroke="#666666" points="1226.5,-141 1101.5,-141 1101.5,-118 1226.5,-118 1226.5,-141"/>
<text text-anchor="middle" x="1164" y="-125.8" font-family="Arial" font-size="14.00">EspTypes_Base.h</text>
</a>
</g>
</g>
<!-- Node18&#45;&gt;Node19 -->
<g id="edge21_Node000018_Node000019" class="edge">
<title>Node18&#45;&gt;Node19</title>
<g id="a_edge21_Node000018_Node000019"><a xlink:title=" ">
<path fill="none" stroke="#63b8ff" d="M1071.18,-176.91C1088.77,-168.11 1114.03,-155.49 1133.76,-145.62"/>
<polygon fill="#63b8ff" stroke="#63b8ff" points="1135.56,-148.63 1142.94,-141.03 1132.43,-142.37 1135.56,-148.63"/>
</a>
</g>
</g>
<!-- Node20 -->
<g id="Node000020" class="node">
<title>Node20</title>
<g id="a_Node000020"><a xlink:href="McuSelect_8h.html" target="_top" xlink:title="Centralized MCU platform selection and configuration header.">
<polygon fill="white" stroke="#666666" points="1290,-82 1148,-82 1148,-59 1290,-59 1290,-82"/>
<text text-anchor="middle" x="1219" y="-66.8" font-family="Arial" font-size="14.00">../../utils/McuSelect.h</text>
</a>
</g>
</g>
<!-- Node18&#45;&gt;Node20 -->
<g id="edge27_Node000018_Node000020" class="edge">
<title>Node18&#45;&gt;Node20</title>
<g id="a_edge27_Node000018_Node000020"><a xlink:title=" ">
<path fill="none" stroke="#63b8ff" d="M1053.83,-176.77C1059.75,-161.63 1072.52,-134.05 1092,-118 1110.71,-102.59 1134.98,-92.05 1157.28,-84.95"/>
<polygon fill="#63b8ff" stroke="#63b8ff" points="1158.46,-88.25 1167.03,-82.02 1156.45,-81.55 1158.46,-88.25"/>
</a>
</g>
</g>
<!-- Node19&#45;&gt;Node9 -->
<g id="edge23_Node000019_Node000009" class="edge">
<title>Node19&#45;&gt;Node9</title>
<g id="a_edge23_Node000019_Node000009"><a xlink:title=" ">
<path fill="none" stroke="#63b8ff" d="M1139.3,-117.91C1118.39,-108.95 1088.22,-96.02 1065.04,-86.09"/>
<polygon fill="#63b8ff" stroke="#63b8ff" points="1066.14,-82.75 1055.57,-82.03 1063.39,-89.19 1066.14,-82.75"/>
</a>
</g>
</g>
<!-- Node19&#45;&gt;Node10 -->
<g id="edge25_Node000019_Node000010" class="edge">
<title>Node19&#45;&gt;Node10</title>
<g id="a_edge25_Node000019_Node000010"><a xlink:title=" ">
<path fill="none" stroke="#63b8ff" d="M1157.21,-117.87C1146.9,-102.6 1125.84,-74.56 1101,-59 1080.83,-46.37 1020.3,-30.64 980.02,-21.09"/>
<polygon fill="#63b8ff" stroke="#63b8ff" points="980.78,-17.68 970.25,-18.81 979.19,-24.49 980.78,-17.68"/>
</a>
</g>
</g>
<!-- Node19&#45;&gt;Node20 -->
<g id="edge22_Node000019_Node000020" class="edge">
<title>Node19&#45;&gt;Node20</title>
<g id="a_edge22_Node000019_Node000020"><a xlink:title=" ">
<path fill="none" stroke="#63b8ff" d="M1174.35,-117.78C1182.03,-109.82 1192.68,-98.77 1201.66,-89.47"/>
<polygon fill="#63b8ff" stroke="#63b8ff" points="1204.28,-91.8 1208.7,-82.17 1199.24,-86.94 1204.28,-91.8"/>
</a>
</g>
</g>
<!-- Node21 -->
<g id="Node000021" class="node">
<title>Node21</title>
<g id="a_Node000021"><a xlink:title=" ">
<polygon fill="#e0e0e0" stroke="#999999" points="1365.5,-82 1308.5,-82 1308.5,-59 1365.5,-59 1365.5,-82"/>
<text text-anchor="middle" x="1337" y="-66.8" font-family="Arial" font-size="14.00">atomic</text>
</a>
</g>
</g>
<!-- Node19&#45;&gt;Node21 -->
<g id="edge24_Node000019_Node000021" class="edge">
<title>Node19&#45;&gt;Node21</title>
<g id="a_edge24_Node000019_Node000021"><a xlink:title=" ">
<path fill="none" stroke="#63b8ff" d="M1196.13,-117.91C1225.23,-108.33 1268.13,-94.19 1298.94,-84.04"/>
<polygon fill="#63b8ff" stroke="#63b8ff" points="1300.08,-87.35 1308.48,-80.9 1297.89,-80.7 1300.08,-87.35"/>
</a>
</g>
</g>
<!-- Node23&#45;&gt;Node9 -->
<g id="edge30_Node000023_Node000009" class="edge">
<title>Node23&#45;&gt;Node9</title>
<g id="a_edge30_Node000023_Node000009"><a xlink:title=" ">
<path fill="none" stroke="#63b8ff" d="M899.91,-117.91C925.77,-108.75 963.36,-95.45 991.67,-85.43"/>
<polygon fill="#63b8ff" stroke="#63b8ff" points="993,-88.67 1001.25,-82.03 990.66,-82.07 993,-88.67"/>
</a>
</g>
</g>
<!-- Node23&#45;&gt;Node10 -->
<g id="edge31_Node000023_Node000010" class="edge">
<title>Node23&#45;&gt;Node10</title>
<g id="a_edge31_Node000023_Node000010"><a xlink:title=" ">
<path fill="none" stroke="#63b8ff" d="M886.44,-117.99C898.27,-109.61 913.72,-96.84 923,-82 932.3,-67.12 937.11,-47.69 939.56,-33.15"/>
<polygon fill="#63b8ff" stroke="#63b8ff" points="943.04,-33.55 941.01,-23.15 936.12,-32.55 943.04,-33.55"/>
</a>
</g>
</g>
<!-- Node23&#45;&gt;Node16 -->
<g id="edge32_Node000023_Node000016" class="edge">
<title>Node23&#45;&gt;Node16</title>
<g id="a_edge32_Node000023_Node000016"><a xlink:title=" ">
<path fill="none" stroke="#63b8ff" d="M852.13,-117.78C837.93,-109.26 817.85,-97.21 801.74,-87.55"/>
<polygon fill="#63b8ff" stroke="#63b8ff" points="803.16,-84.32 792.79,-82.17 799.56,-90.32 803.16,-84.32"/>
</a>
</g>
</g>
<!-- Node23&#45;&gt;Node17 -->
<g id="edge33_Node000023_Node000017" class="edge">
<title>Node23&#45;&gt;Node17</title>
<g id="a_edge33_Node000023_Node000017"><a xlink:title=" ">
<path fill="none" stroke="#63b8ff" d="M870.38,-117.78C870.63,-110.61 870.97,-100.95 871.27,-92.31"/>
<polygon fill="#63b8ff" stroke="#63b8ff" points="874.77,-92.29 871.63,-82.17 867.78,-92.04 874.77,-92.29"/>
</a>
</g>
</g>
<!-- Node24&#45;&gt;Node21 -->
<g id="edge51_Node000024_Node000021" class="edge">
<title>Node24&#45;&gt;Node21</title>
<g id="a_edge51_Node000024_Node000021"><a xlink:title=" ">
<path fill="none" stroke="#63b8ff" d="M1197.52,-294.99C1254.22,-285.1 1329.08,-270.18 1338,-259 1376.83,-210.38 1357.12,-129.84 1344.64,-92.15"/>
<polygon fill="#63b8ff" stroke="#63b8ff" points="1347.81,-90.61 1341.22,-82.31 1341.2,-92.91 1347.81,-90.61"/>
</a>
</g>
</g>
<!-- Node24&#45;&gt;Node23 -->
<g id="edge36_Node000024_Node000023" class="edge">
<title>Node24&#45;&gt;Node23</title>
<g id="a_edge36_Node000024_Node000023"><a xlink:title=" ">
<path fill="none" stroke="#63b8ff" d="M1076.2,-294.96C1047.57,-287.86 1013.24,-276.52 986,-259 940.35,-229.65 901.38,-177.76 882.38,-149.74"/>
<polygon fill="#63b8ff" stroke="#63b8ff" points="885.17,-147.62 876.73,-141.22 879.34,-151.49 885.17,-147.62"/>
</a>
</g>
</g>
<!-- Node25 -->
<g id="Node000025" class="node">
<title>Node25</title>
<g id="a_Node000025"><a xlink:href="RtosMutex_8h.html" target="_top" xlink:title="Cross&#45;platform RTOS mutex and synchronization primitives.">
<polygon fill="white" stroke="#666666" points="890.5,-259 797.5,-259 797.5,-236 890.5,-236 890.5,-259"/>
<text text-anchor="middle" x="844" y="-243.8" font-family="Arial" font-size="14.00">RtosMutex.h</text>
</a>
</g>
</g>
<!-- Node24&#45;&gt;Node25 -->
<g id="edge37_Node000024_Node000025" class="edge">
<title>Node24&#45;&gt;Node25</title>
<g id="a_edge37_Node000024_Node000025"><a xlink:title=" ">
<path fill="none" stroke="#63b8ff" d="M1079.66,-294.98C1028.89,-284.97 952.76,-269.95 900.86,-259.72"/>
<polygon fill="#63b8ff" stroke="#63b8ff" points="901.31,-256.24 890.82,-257.73 899.96,-263.1 901.31,-256.24"/>
</a>
</g>
</g>
<!-- Node26 -->
<g id="Node000026" class="node">
<title>Node26</title>
<g id="a_Node000026"><a xlink:href="EspTypes__PWM_8h.html" target="_top" xlink:title="ESP32 PWM type definitions for LEDC peripheral hardware abstraction.">
<polygon fill="white" stroke="#666666" points="1152.5,-259 995.5,-259 995.5,-236 1152.5,-236 1152.5,-259"/>
<text text-anchor="middle" x="1074" y="-243.8" font-family="Arial" font-size="14.00">utils/EspTypes_PWM.h</text>
</a>
</g>
</g>
<!-- Node24&#45;&gt;Node26 -->
<g id="edge44_Node000024_Node000026" class="edge">
<title>Node24&#45;&gt;Node26</title>
<g id="a_edge44_Node000024_Node000026"><a xlink:title=" ">
<path fill="none" stroke="#63b8ff" d="M1121.9,-294.78C1113.58,-286.74 1102,-275.55 1092.31,-266.19"/>
<polygon fill="#63b8ff" stroke="#63b8ff" points="1094.67,-263.6 1085.05,-259.17 1089.81,-268.64 1094.67,-263.6"/>
</a>
</g>
</g>
<!-- Node24&#45;&gt;Node27 -->
<g id="edge50_Node000024_Node000027" class="edge">
<title>Node24&#45;&gt;Node27</title>
<g id="a_edge50_Node000024_Node000027"><a xlink:title=" ">
<path fill="none" stroke="#63b8ff" d="M1198.06,-294.97C1248.71,-286.4 1320.63,-273.39 1383,-259 1384.46,-258.66 1385.95,-258.31 1387.45,-257.94"/>
<polygon fill="#63b8ff" stroke="#63b8ff" points="1388.56,-261.27 1397.36,-255.37 1386.8,-254.49 1388.56,-261.27"/>
</a>
</g>
</g>
<!-- Node28 -->
<g id="Node000028" class="node">
<title>Node28</title>
<g id="a_Node000028"><a xlink:title=" ">
<polygon fill="#e0e0e0" stroke="#999999" points="1221,-259 1171,-259 1171,-236 1221,-236 1221,-259"/>
<text text-anchor="middle" x="1196" y="-243.8" font-family="Arial" font-size="14.00">string</text>
</a>
</g>
</g>
<!-- Node24&#45;&gt;Node28 -->
<g id="edge52_Node000024_Node000028" class="edge">
<title>Node24&#45;&gt;Node28</title>
<g id="a_edge52_Node000024_Node000028"><a xlink:title=" ">
<path fill="none" stroke="#63b8ff" d="M1144.85,-294.78C1153.83,-286.66 1166.34,-275.33 1176.75,-265.92"/>
<polygon fill="#63b8ff" stroke="#63b8ff" points="1179.14,-268.48 1184.2,-259.17 1174.44,-263.29 1179.14,-268.48"/>
</a>
</g>
</g>
<!-- Node29 -->
<g id="Node000029" class="node">
<title>Node29</title>
<g id="a_Node000029"><a xlink:title=" ">
<polygon fill="#e0e0e0" stroke="#999999" points="1329,-259 1239,-259 1239,-236 1329,-236 1329,-259"/>
<text text-anchor="middle" x="1284" y="-243.8" font-family="Arial" font-size="14.00">driver/ledc.h</text>
</a>
</g>
</g>
<!-- Node24&#45;&gt;Node29 -->
<g id="edge53_Node000024_Node000029" class="edge">
<title>Node24&#45;&gt;Node29</title>
<g id="a_edge53_Node000024_Node000029"><a xlink:title=" ">
<path fill="none" stroke="#63b8ff" d="M1161.05,-294.91C1185.1,-285.83 1219.95,-272.68 1246.41,-262.69"/>
<polygon fill="#63b8ff" stroke="#63b8ff" points="1247.98,-265.84 1256.1,-259.03 1245.51,-259.29 1247.98,-265.84"/>
</a>
</g>
</g>
<!-- Node25&#45;&gt;Node5 -->
<g id="edge39_Node000025_Node000005" class="edge">
<title>Node25&#45;&gt;Node5</title>
<g id="a_edge39_Node000025_Node000005"><a xlink:title=" ">
<path fill="none" stroke="#63b8ff" d="M797.2,-239.96C729.01,-230.44 601.38,-212.6 517.54,-200.89"/>
<polygon fill="#63b8ff" stroke="#63b8ff" points="517.93,-197.41 507.54,-199.49 516.96,-204.34 517.93,-197.41"/>
</a>
</g>
</g>
<!-- Node25&#45;&gt;Node7 -->
<g id="edge40_Node000025_Node000007" class="edge">
<title>Node25&#45;&gt;Node7</title>
<g id="a_edge40_Node000025_Node000007"><a xlink:title=" ">
<path fill="none" stroke="#63b8ff" d="M798.41,-235.98C757.28,-226.49 696.68,-212.5 652.7,-202.35"/>
<polygon fill="#63b8ff" stroke="#63b8ff" points="653.27,-198.89 642.74,-200.06 651.7,-205.72 653.27,-198.89"/>
</a>
</g>
</g>
<!-- Node25&#45;&gt;Node8 -->
<g id="edge41_Node000025_Node000008" class="edge">
<title>Node25&#45;&gt;Node8</title>
<g id="a_edge41_Node000025_Node000008"><a xlink:title=" ">
<path fill="none" stroke="#63b8ff" d="M822.27,-235.91C804.13,-227.07 778.05,-214.37 757.76,-204.49"/>
<polygon fill="#63b8ff" stroke="#63b8ff" points="759.14,-201.26 748.62,-200.03 756.07,-207.56 759.14,-201.26"/>
</a>
</g>
</g>
<!-- Node25&#45;&gt;Node10 -->
<g id="edge43_Node000025_Node000010" class="edge">
<title>Node25&#45;&gt;Node10</title>
<g id="a_edge43_Node000025_Node000010"><a xlink:title=" ">
<path fill="none" stroke="#63b8ff" d="M837.77,-235.87C828.48,-220.83 809.63,-193.38 787,-177 751.1,-151.01 719.05,-177.56 694,-141 688.22,-132.57 691.89,-128 694,-118 699.9,-89.96 697.74,-77.04 720,-59 747.73,-36.52 847.54,-22.56 903.42,-16.32"/>
<polygon fill="#63b8ff" stroke="#63b8ff" points="904.08,-19.77 913.65,-15.22 903.33,-12.81 904.08,-19.77"/>
</a>
</g>
</g>
<!-- Node25&#45;&gt;Node20 -->
<g id="edge38_Node000025_Node000020" class="edge">
<title>Node25&#45;&gt;Node20</title>
<g id="a_edge38_Node000025_Node000020"><a xlink:title=" ">
<path fill="none" stroke="#63b8ff" d="M890.7,-243.38C947.22,-238.56 1044.66,-226.87 1124,-200 1176.92,-182.08 1206.22,-188.89 1235,-141 1244.12,-125.82 1238.06,-105.92 1230.93,-91.3"/>
<polygon fill="#63b8ff" stroke="#63b8ff" points="1233.82,-89.29 1226,-82.15 1227.66,-92.61 1233.82,-89.29"/>
</a>
</g>
</g>
<!-- Node25&#45;&gt;Node21 -->
<g id="edge42_Node000025_Node000021" class="edge">
<title>Node25&#45;&gt;Node21</title>
<g id="a_edge42_Node000025_Node000021"><a xlink:title=" ">
<path fill="none" stroke="#63b8ff" d="M890.53,-242.96C969.35,-236.47 1125.47,-221.34 1176,-200 1236.87,-174.29 1293.74,-118.76 1320.68,-89.84"/>
<polygon fill="#63b8ff" stroke="#63b8ff" points="1323.58,-91.85 1327.75,-82.11 1318.42,-87.12 1323.58,-91.85"/>
</a>
</g>
</g>
<!-- Node26&#45;&gt;Node9 -->
<g id="edge46_Node000026_Node000009" class="edge">
<title>Node26&#45;&gt;Node9</title>
<g id="a_edge46_Node000026_Node000009"><a xlink:title=" ">
<path fill="none" stroke="#63b8ff" d="M1091.41,-235.88C1103.04,-227.7 1117.37,-215.22 1124,-200 1128.08,-190.63 1127.63,-186.55 1124,-177 1116.39,-156.99 1106.17,-157.04 1092,-141 1076.72,-123.7 1059.36,-103.91 1047.08,-89.88"/>
<polygon fill="#63b8ff" stroke="#63b8ff" points="1049.71,-87.57 1040.49,-82.35 1044.44,-92.18 1049.71,-87.57"/>
</a>
</g>
</g>
<!-- Node26&#45;&gt;Node18 -->
<g id="edge49_Node000026_Node000018" class="edge">
<title>Node26&#45;&gt;Node18</title>
<g id="a_edge49_Node000026_Node000018"><a xlink:title=" ">
<path fill="none" stroke="#63b8ff" d="M1069.49,-235.78C1066.37,-228.37 1062.13,-218.3 1058.4,-209.45"/>
<polygon fill="#63b8ff" stroke="#63b8ff" points="1061.6,-208.03 1054.49,-200.17 1055.15,-210.75 1061.6,-208.03"/>
</a>
</g>
</g>
<!-- Node26&#45;&gt;Node19 -->
<g id="edge48_Node000026_Node000019" class="edge">
<title>Node26&#45;&gt;Node19</title>
<g id="a_edge48_Node000026_Node000019"><a xlink:title=" ">
<path fill="none" stroke="#63b8ff" d="M1141.11,-236C1161.85,-229.25 1182.51,-218.18 1195,-200 1206.01,-183.98 1194.12,-163.42 1182.02,-148.83"/>
<polygon fill="#63b8ff" stroke="#63b8ff" points="1184.32,-146.14 1175.05,-141 1179.09,-150.8 1184.32,-146.14"/>
</a>
</g>
</g>
<!-- Node26&#45;&gt;Node20 -->
<g id="edge47_Node000026_Node000020" class="edge">
<title>Node26&#45;&gt;Node20</title>
<g id="a_edge47_Node000026_Node000020"><a xlink:title=" ">
<path fill="none" stroke="#63b8ff" d="M1131.15,-235.9C1180.3,-223.15 1246.72,-196.14 1269,-141 1272.83,-131.52 1273.08,-127.37 1269,-118 1263.87,-106.23 1254.14,-96.1 1244.61,-88.33"/>
<polygon fill="#63b8ff" stroke="#63b8ff" points="1246.5,-85.36 1236.41,-82.12 1242.27,-90.94 1246.5,-85.36"/>
</a>
</g>
</g>
<!-- Node26&#45;&gt;Node23 -->
<g id="edge45_Node000026_Node000023" class="edge">
<title>Node26&#45;&gt;Node23</title>
<g id="a_edge45_Node000026_Node000023"><a xlink:title=" ">
<path fill="none" stroke="#63b8ff" d="M1049.37,-235.94C1029.26,-227.06 1000.3,-213.65 976,-200 946.45,-183.41 914.09,-161.63 893,-146.9"/>
<polygon fill="#63b8ff" stroke="#63b8ff" points="894.89,-143.95 884.69,-141.06 890.86,-149.68 894.89,-143.95"/>
</a>
</g>
</g>
</g>
</svg>
