<?xml version="1.0" encoding="UTF-8" standalone="no"?>
<!DOCTYPE svg PUBLIC "-//W3C//DTD SVG 1.1//EN"
 "http://www.w3.org/Graphics/SVG/1.1/DTD/svg11.dtd">
<!-- Generated by graphviz version 2.43.0 (0)
 -->
<!-- Title: examples/esp32/main/PwmComprehensiveTest.cpp Pages: 1 -->
<!--zoomable 400 -->

<svg id="main" version="1.1" xmlns="http://www.w3.org/2000/svg" xmlns:xlink="http://www.w3.org/1999/xlink" xml:space="preserve" onload="init(evt)">
<style type="text/css"><![CDATA[
.node, .edge {opacity: 0.7;}
.node.selected, .edge.selected {opacity: 1;}
.edge:hover path { stroke: red; }
.edge:hover polygon { stroke: red; fill: red; }
]]></style>

<defs>
  <circle id="rim" cx="0" cy="0" r="7"/>
  <circle id="rim2" cx="0" cy="0" r="3.5"/>
  <g id="zoomPlus">
    <use xlink:href="#rim" fill="#404040"><set attributeName="fill" to="#808080" begin="zoomplus.mouseover" end="zoomplus.mouseout"/></use>
    <path d="M-4,0h8M0,-4v8" fill="none" stroke="white" stroke-width="1.5" pointer-events="none"/>
  </g>
  <g id="zoomMin">
    <use xlink:href="#rim" fill="#404040"><set attributeName="fill" to="#808080" begin="zoomminus.mouseover" end="zoomminus.mouseout"/></use>
    <path d="M-4,0h8" fill="none" stroke="white" stroke-width="1.5" pointer-events="none"/>
  </g>
  <g id="arrowUp" transform="translate(30 24)">
    <use xlink:href="#rim"/>
    <path pointer-events="none" fill="none" stroke="white" stroke-width="1.5" d="M0,-3.0v7 M-2.5,-0.5L0,-3.0L2.5,-0.5"/>
  </g>
  <g id="arrowRight" transform="rotate(90) translate(36 -43)">
    <use xlink:href="#rim"/>
    <path pointer-events="none" fill="none" stroke="white" stroke-width="1.5" d="M0,-3.0v7 M-2.5,-0.5L0,-3.0L2.5,-0.5"/>
  </g>
  <g id="arrowDown" transform="rotate(180) translate(-30 -48)">
    <use xlink:href="#rim"/>
    <path pointer-events="none" fill="none" stroke="white" stroke-width="1.5" d="M0,-3.0v7 M-2.5,-0.5L0,-3.0L2.5,-0.5"/>
  </g>
  <g id="arrowLeft" transform="rotate(270) translate(-36 17)">
    <use xlink:href="#rim"/>
    <path pointer-events="none" fill="none" stroke="white" stroke-width="1.5" d="M0,-3.0v7 M-2.5,-0.5L0,-3.0L2.5,-0.5"/>
  </g>
  <g id="resetDef">
    <use xlink:href="#rim2" fill="#404040"><set attributeName="fill" to="#808080" begin="reset.mouseover" end="reset.mouseout"/></use>
  </g>
</defs>
<script type="application/ecmascript">
var viewWidth = 1468;
var viewHeight = 400;
var sectionId = 'dynsection-0';
</script>
<script type="application/ecmascript" xlink:href="svg.min.js"/>
<svg id="graph" class="graph">
<g id="viewport">
<title>examples/esp32/main/PwmComprehensiveTest.cpp</title>
<!-- Node1 -->
<g id="Node000001" class="node">
<title>Node1</title>
<g id="a_Node000001"><a xlink:title="Comprehensive PWM testing suite for ESP32 family (noexcept)">
<polygon fill="#999999" stroke="#666666" points="648.5,-392 451.5,-392 451.5,-354 648.5,-354 648.5,-392"/>
<text text-anchor="start" x="459.5" y="-376.8" font-family="Arial" font-size="14.00">examples/esp32/main</text>
<text text-anchor="middle" x="550" y="-361.8" font-family="Arial" font-size="14.00">/PwmComprehensiveTest.cpp</text>
</a>
</g>
</g>
<!-- Node2 -->
<g id="Node000002" class="node">
<title>Node2</title>
<g id="a_Node000002"><a xlink:href="TestFramework_8h.html" target="_top" xlink:title="Shared testing framework for ESP32&#45;C6 comprehensive test suites.">
<polygon fill="white" stroke="#666666" points="610.5,-318 489.5,-318 489.5,-295 610.5,-295 610.5,-318"/>
<text text-anchor="middle" x="550" y="-302.8" font-family="Arial" font-size="14.00">TestFramework.h</text>
</a>
</g>
</g>
<!-- Node1&#45;&gt;Node2 -->
<g id="edge1_Node000001_Node000002" class="edge">
<title>Node1&#45;&gt;Node2</title>
<g id="a_edge1_Node000001_Node000002"><a xlink:title=" ">
<path fill="none" stroke="#63b8ff" d="M550,-353.69C550,-345.8 550,-336.54 550,-328.39"/>
<polygon fill="#63b8ff" stroke="#63b8ff" points="553.5,-328.19 550,-318.19 546.5,-328.19 553.5,-328.19"/>
</a>
</g>
</g>
<!-- Node12 -->
<g id="Node000012" class="node">
<title>Node12</title>
<g id="a_Node000012"><a xlink:href="EspGpio_8h.html" target="_top" xlink:title="Advanced MCU&#45;specific implementation of the unified BaseGpio class with ESP32C6/ESP&#45;IDF v5....">
<polygon fill="white" stroke="#666666" points="259.5,-259 108.5,-259 108.5,-236 259.5,-236 259.5,-259"/>
<text text-anchor="middle" x="184" y="-243.8" font-family="Arial" font-size="14.00">mcu/esp32/EspGpio.h</text>
</a>
</g>
</g>
<!-- Node1&#45;&gt;Node12 -->
<g id="edge32_Node000001_Node000012" class="edge">
<title>Node1&#45;&gt;Node12</title>
<g id="a_edge32_Node000001_Node000012"><a xlink:title=" ">
<path fill="none" stroke="#63b8ff" d="M451.47,-363.92C397.24,-356.76 329.81,-343.29 274,-318 246.03,-305.33 218.82,-282.4 201.78,-266.35"/>
<polygon fill="#63b8ff" stroke="#63b8ff" points="203.89,-263.53 194.27,-259.1 199.03,-268.57 203.89,-263.53"/>
</a>
</g>
</g>
<!-- Node22 -->
<g id="Node000022" class="node">
<title>Node22</title>
<g id="a_Node000022"><a xlink:href="BasePwm_8h.html" target="_top" xlink:title="Abstract base class for PWM implementations in the HardFOC system.">
<polygon fill="white" stroke="#666666" points="658,-141 536,-141 536,-118 658,-118 658,-141"/>
<text text-anchor="middle" x="597" y="-125.8" font-family="Arial" font-size="14.00">base/BasePwm.h</text>
</a>
</g>
</g>
<!-- Node1&#45;&gt;Node22 -->
<g id="edge28_Node000001_Node000022" class="edge">
<title>Node1&#45;&gt;Node22</title>
<g id="a_edge28_Node000001_Node000022"><a xlink:title=" ">
<path fill="none" stroke="#63b8ff" d="M472.55,-353.95C399.51,-333 306.55,-293.78 345,-236 368.49,-200.7 482.12,-163.24 548.5,-143.86"/>
<polygon fill="#63b8ff" stroke="#63b8ff" points="549.7,-147.16 558.33,-141.02 547.75,-140.43 549.7,-147.16"/>
</a>
</g>
</g>
<!-- Node23 -->
<g id="Node000023" class="node">
<title>Node23</title>
<g id="a_Node000023"><a xlink:href="EspPwm_8h.html" target="_top" xlink:title="ESP32C6 LEDC (PWM) controller implementation for the HardFOC system.">
<polygon fill="white" stroke="#666666" points="1159,-318 1007,-318 1007,-295 1159,-295 1159,-318"/>
<text text-anchor="middle" x="1083" y="-302.8" font-family="Arial" font-size="14.00">mcu/esp32/EspPwm.h</text>
</a>
</g>
</g>
<!-- Node1&#45;&gt;Node23 -->
<g id="edge33_Node000001_Node000023" class="edge">
<title>Node1&#45;&gt;Node23</title>
<g id="a_edge33_Node000001_Node000023"><a xlink:title=" ">
<path fill="none" stroke="#63b8ff" d="M648.69,-360.06C748.57,-347.97 901.47,-329.47 996.67,-317.95"/>
<polygon fill="#63b8ff" stroke="#63b8ff" points="997.34,-321.39 1006.84,-316.72 996.49,-314.44 997.34,-321.39"/>
</a>
</g>
</g>
<!-- Node26 -->
<g id="Node000026" class="node">
<title>Node26</title>
<g id="a_Node000026"><a xlink:title=" ">
<polygon fill="#e0e0e0" stroke="#999999" points="1459.5,-259 1412.5,-259 1412.5,-236 1459.5,-236 1459.5,-259"/>
<text text-anchor="middle" x="1436" y="-243.8" font-family="Arial" font-size="14.00">array</text>
</a>
</g>
</g>
<!-- Node1&#45;&gt;Node26 -->
<g id="edge52_Node000001_Node000026" class="edge">
<title>Node1&#45;&gt;Node26</title>
<g id="a_edge52_Node000001_Node000026"><a xlink:title=" ">
<path fill="none" stroke="#63b8ff" d="M648.57,-368.37C771.08,-362.72 986.19,-349.05 1168,-318 1253.77,-303.35 1352.25,-274.67 1402.58,-259.12"/>
<polygon fill="#63b8ff" stroke="#63b8ff" points="1403.76,-262.42 1412.27,-256.11 1401.68,-255.73 1403.76,-262.42"/>
</a>
</g>
</g>
<!-- Node3 -->
<g id="Node000003" class="node">
<title>Node3</title>
<g id="a_Node000003"><a xlink:title=" ">
<polygon fill="#e0e0e0" stroke="#999999" points="429.5,-259 354.5,-259 354.5,-236 429.5,-236 429.5,-259"/>
<text text-anchor="middle" x="392" y="-243.8" font-family="Arial" font-size="14.00">esp_log.h</text>
</a>
</g>
</g>
<!-- Node2&#45;&gt;Node3 -->
<g id="edge2_Node000002_Node000003" class="edge">
<title>Node2&#45;&gt;Node3</title>
<g id="a_edge2_Node000002_Node000003"><a xlink:title=" ">
<path fill="none" stroke="#63b8ff" d="M520.65,-294.91C495.27,-285.75 458.38,-272.45 430.6,-262.43"/>
<polygon fill="#63b8ff" stroke="#63b8ff" points="431.79,-259.13 421.19,-259.03 429.41,-265.72 431.79,-259.13"/>
</a>
</g>
</g>
<!-- Node4 -->
<g id="Node000004" class="node">
<title>Node4</title>
<g id="a_Node000004"><a xlink:title=" ">
<polygon fill="#e0e0e0" stroke="#999999" points="534.5,-259 447.5,-259 447.5,-236 534.5,-236 534.5,-259"/>
<text text-anchor="middle" x="491" y="-243.8" font-family="Arial" font-size="14.00">esp_timer.h</text>
</a>
</g>
</g>
<!-- Node2&#45;&gt;Node4 -->
<g id="edge3_Node000002_Node000004" class="edge">
<title>Node2&#45;&gt;Node4</title>
<g id="a_edge3_Node000002_Node000004"><a xlink:title=" ">
<path fill="none" stroke="#63b8ff" d="M538.9,-294.78C530.58,-286.74 519,-275.55 509.31,-266.19"/>
<polygon fill="#63b8ff" stroke="#63b8ff" points="511.67,-263.6 502.05,-259.17 506.81,-268.64 511.67,-263.6"/>
</a>
</g>
</g>
<!-- Node5 -->
<g id="Node000005" class="node">
<title>Node5</title>
<g id="a_Node000005"><a xlink:title=" ">
<polygon fill="#e0e0e0" stroke="#999999" points="981.5,-200 838.5,-200 838.5,-177 981.5,-177 981.5,-200"/>
<text text-anchor="middle" x="910" y="-184.8" font-family="Arial" font-size="14.00">freertos/FreeRTOS.h</text>
</a>
</g>
</g>
<!-- Node2&#45;&gt;Node5 -->
<g id="edge4_Node000002_Node000005" class="edge">
<title>Node2&#45;&gt;Node5</title>
<g id="a_edge4_Node000002_Node000005"><a xlink:title=" ">
<path fill="none" stroke="#63b8ff" d="M610.67,-304.93C696.99,-302.87 849.34,-294.18 890,-259 903.83,-247.03 908.4,-226.19 909.76,-210.44"/>
<polygon fill="#63b8ff" stroke="#63b8ff" points="913.28,-210.23 910.28,-200.07 906.29,-209.88 913.28,-210.23"/>
</a>
</g>
</g>
<!-- Node6 -->
<g id="Node000006" class="node">
<title>Node6</title>
<g id="a_Node000006"><a xlink:title=" ">
<polygon fill="#e0e0e0" stroke="#999999" points="667.5,-259 552.5,-259 552.5,-236 667.5,-236 667.5,-259"/>
<text text-anchor="middle" x="610" y="-243.8" font-family="Arial" font-size="14.00">freertos/queue.h</text>
</a>
</g>
</g>
<!-- Node2&#45;&gt;Node6 -->
<g id="edge5_Node000002_Node000006" class="edge">
<title>Node2&#45;&gt;Node6</title>
<g id="a_edge5_Node000002_Node000006"><a xlink:title=" ">
<path fill="none" stroke="#63b8ff" d="M561.29,-294.78C569.75,-286.74 581.52,-275.55 591.38,-266.19"/>
<polygon fill="#63b8ff" stroke="#63b8ff" points="593.93,-268.6 598.77,-259.17 589.1,-263.52 593.93,-268.6"/>
</a>
</g>
</g>
<!-- Node7 -->
<g id="Node000007" class="node">
<title>Node7</title>
<g id="a_Node000007"><a xlink:title=" ">
<polygon fill="#e0e0e0" stroke="#999999" points="1122,-200 1000,-200 1000,-177 1122,-177 1122,-200"/>
<text text-anchor="middle" x="1061" y="-184.8" font-family="Arial" font-size="14.00">freertos/semphr.h</text>
</a>
</g>
</g>
<!-- Node2&#45;&gt;Node7 -->
<g id="edge6_Node000002_Node000007" class="edge">
<title>Node2&#45;&gt;Node7</title>
<g id="a_edge6_Node000002_Node000007"><a xlink:title=" ">
<path fill="none" stroke="#63b8ff" d="M610.73,-303.4C683.59,-299.59 808.84,-288.9 912,-259 935.66,-252.14 995.13,-222.95 1031.38,-204.65"/>
<polygon fill="#63b8ff" stroke="#63b8ff" points="1033.16,-207.67 1040.5,-200.03 1030,-201.42 1033.16,-207.67"/>
</a>
</g>
</g>
<!-- Node8 -->
<g id="Node000008" class="node">
<title>Node8</title>
<g id="a_Node000008"><a xlink:title=" ">
<polygon fill="#e0e0e0" stroke="#999999" points="1242,-200 1140,-200 1140,-177 1242,-177 1242,-200"/>
<text text-anchor="middle" x="1191" y="-184.8" font-family="Arial" font-size="14.00">freertos/task.h</text>
</a>
</g>
</g>
<!-- Node2&#45;&gt;Node8 -->
<g id="edge7_Node000002_Node000008" class="edge">
<title>Node2&#45;&gt;Node8</title>
<g id="a_edge7_Node000002_Node000008"><a xlink:title=" ">
<path fill="none" stroke="#63b8ff" d="M610.63,-304.01C690.24,-300.82 833.76,-290.74 952,-259 976.8,-252.34 980.68,-244.25 1005,-236 1045.91,-222.11 1093.15,-210.36 1129.79,-202.14"/>
<polygon fill="#63b8ff" stroke="#63b8ff" points="1130.82,-205.49 1139.82,-199.91 1129.3,-198.66 1130.82,-205.49"/>
</a>
</g>
</g>
<!-- Node9 -->
<g id="Node000009" class="node">
<title>Node9</title>
<g id="a_Node000009"><a xlink:href="HardwareTypes_8h.html" target="_top" xlink:title="Platform&#45;agnostic hardware type definitions for the HardFOC system.">
<polygon fill="white" stroke="#666666" points="481,-82 359,-82 359,-59 481,-59 481,-82"/>
<text text-anchor="middle" x="420" y="-66.8" font-family="Arial" font-size="14.00">HardwareTypes.h</text>
</a>
</g>
</g>
<!-- Node2&#45;&gt;Node9 -->
<g id="edge8_Node000002_Node000009" class="edge">
<title>Node2&#45;&gt;Node9</title>
<g id="a_edge8_Node000002_Node000009"><a xlink:title=" ">
<path fill="none" stroke="#63b8ff" d="M489.24,-300C435.47,-293.72 362.82,-281.31 345,-259 302.49,-205.77 367.72,-125.33 401.62,-89.65"/>
<polygon fill="#63b8ff" stroke="#63b8ff" points="404.26,-91.96 408.72,-82.35 399.24,-87.08 404.26,-91.96"/>
</a>
</g>
</g>
<!-- Node2&#45;&gt;Node12 -->
<g id="edge11_Node000002_Node000012" class="edge">
<title>Node2&#45;&gt;Node12</title>
<g id="a_edge11_Node000002_Node000012"><a xlink:title=" ">
<path fill="none" stroke="#63b8ff" d="M489.15,-296.02C426.8,-286.31 329.63,-271.18 261.74,-260.61"/>
<polygon fill="#63b8ff" stroke="#63b8ff" points="261.94,-257.1 251.52,-259.02 260.86,-264.01 261.94,-257.1"/>
</a>
</g>
</g>
<!-- Node10 -->
<g id="Node000010" class="node">
<title>Node10</title>
<g id="a_Node000010"><a xlink:title=" ">
<polygon fill="#e0e0e0" stroke="#999999" points="677,-23 621,-23 621,0 677,0 677,-23"/>
<text text-anchor="middle" x="649" y="-7.8" font-family="Arial" font-size="14.00">cstdint</text>
</a>
</g>
</g>
<!-- Node9&#45;&gt;Node10 -->
<g id="edge9_Node000009_Node000010" class="edge">
<title>Node9&#45;&gt;Node10</title>
<g id="a_edge9_Node000009_Node000010"><a xlink:title=" ">
<path fill="none" stroke="#63b8ff" d="M462.27,-58.98C504.8,-48.39 569.81,-32.21 610.82,-22"/>
<polygon fill="#63b8ff" stroke="#63b8ff" points="611.85,-25.35 620.71,-19.54 610.16,-18.56 611.85,-25.35"/>
</a>
</g>
</g>
<!-- Node11 -->
<g id="Node000011" class="node">
<title>Node11</title>
<g id="a_Node000011"><a xlink:title=" ">
<polygon fill="#e0e0e0" stroke="#999999" points="444,-23 396,-23 396,0 444,0 444,-23"/>
<text text-anchor="middle" x="420" y="-7.8" font-family="Arial" font-size="14.00">limits</text>
</a>
</g>
</g>
<!-- Node9&#45;&gt;Node11 -->
<g id="edge10_Node000009_Node000011" class="edge">
<title>Node9&#45;&gt;Node11</title>
<g id="a_edge10_Node000009_Node000011"><a xlink:title=" ">
<path fill="none" stroke="#63b8ff" d="M420,-58.78C420,-51.61 420,-41.95 420,-33.31"/>
<polygon fill="#63b8ff" stroke="#63b8ff" points="423.5,-33.17 420,-23.17 416.5,-33.17 423.5,-33.17"/>
</a>
</g>
</g>
<!-- Node13 -->
<g id="Node000013" class="node">
<title>Node13</title>
<g id="a_Node000013"><a xlink:title=" ">
<polygon fill="#e0e0e0" stroke="#999999" points="259.5,-200 168.5,-200 168.5,-177 259.5,-177 259.5,-200"/>
<text text-anchor="middle" x="214" y="-184.8" font-family="Arial" font-size="14.00">driver/gpio.h</text>
</a>
</g>
</g>
<!-- Node12&#45;&gt;Node13 -->
<g id="edge12_Node000012_Node000013" class="edge">
<title>Node12&#45;&gt;Node13</title>
<g id="a_edge12_Node000012_Node000013"><a xlink:title=" ">
<path fill="none" stroke="#63b8ff" d="M189.64,-235.78C193.58,-228.29 198.95,-218.09 203.65,-209.16"/>
<polygon fill="#63b8ff" stroke="#63b8ff" points="206.82,-210.65 208.38,-200.17 200.63,-207.39 206.82,-210.65"/>
</a>
</g>
</g>
<!-- Node14 -->
<g id="Node000014" class="node">
<title>Node14</title>
<g id="a_Node000014"><a xlink:title=" ">
<polygon fill="#e0e0e0" stroke="#999999" points="76,-200 0,-200 0,-177 76,-177 76,-200"/>
<text text-anchor="middle" x="38" y="-184.8" font-family="Arial" font-size="14.00">esp_attr.h</text>
</a>
</g>
</g>
<!-- Node12&#45;&gt;Node14 -->
<g id="edge13_Node000012_Node000014" class="edge">
<title>Node12&#45;&gt;Node14</title>
<g id="a_edge13_Node000012_Node000014"><a xlink:title=" ">
<path fill="none" stroke="#63b8ff" d="M156.88,-235.91C133.63,-226.83 99.93,-213.68 74.34,-203.69"/>
<polygon fill="#63b8ff" stroke="#63b8ff" points="75.56,-200.41 64.97,-200.03 73.02,-206.93 75.56,-200.41"/>
</a>
</g>
</g>
<!-- Node15 -->
<g id="Node000015" class="node">
<title>Node15</title>
<g id="a_Node000015"><a xlink:href="BaseGpio_8h.html" target="_top" xlink:title="Unified GPIO base class for all digital GPIO implementations.">
<polygon fill="white" stroke="#666666" points="518,-141 430,-141 430,-118 518,-118 518,-141"/>
<text text-anchor="middle" x="474" y="-125.8" font-family="Arial" font-size="14.00">BaseGpio.h</text>
</a>
</g>
</g>
<!-- Node12&#45;&gt;Node15 -->
<g id="edge14_Node000012_Node000015" class="edge">
<title>Node12&#45;&gt;Node15</title>
<g id="a_edge14_Node000012_Node000015"><a xlink:title=" ">
<path fill="none" stroke="#63b8ff" d="M210.5,-235.9C262.82,-214.97 379.4,-168.34 438.37,-144.75"/>
<polygon fill="#63b8ff" stroke="#63b8ff" points="439.68,-148 447.66,-141.04 437.08,-141.5 439.68,-148"/>
</a>
</g>
</g>
<!-- Node17 -->
<g id="Node000017" class="node">
<title>Node17</title>
<g id="a_Node000017"><a xlink:href="EspTypes__GPIO_8h.html" target="_top" xlink:title="ESP32 GPIO type definitions for hardware abstraction.">
<polygon fill="white" stroke="#666666" points="706,-200 576,-200 576,-177 706,-177 706,-200"/>
<text text-anchor="middle" x="641" y="-184.8" font-family="Arial" font-size="14.00">EspTypes_GPIO.h</text>
</a>
</g>
</g>
<!-- Node12&#45;&gt;Node17 -->
<g id="edge18_Node000012_Node000017" class="edge">
<title>Node12&#45;&gt;Node17</title>
<g id="a_edge18_Node000012_Node000017"><a xlink:title=" ">
<path fill="none" stroke="#63b8ff" d="M259.72,-237.06C344.55,-226.48 481.22,-209.43 565.82,-198.88"/>
<polygon fill="#63b8ff" stroke="#63b8ff" points="566.38,-202.33 575.87,-197.62 565.52,-195.39 566.38,-202.33"/>
</a>
</g>
</g>
<!-- Node21 -->
<g id="Node000021" class="node">
<title>Node21</title>
<g id="a_Node000021"><a xlink:title=" ">
<polygon fill="#e0e0e0" stroke="#999999" points="150,-200 94,-200 94,-177 150,-177 150,-200"/>
<text text-anchor="middle" x="122" y="-184.8" font-family="Arial" font-size="14.00">stdio.h</text>
</a>
</g>
</g>
<!-- Node12&#45;&gt;Node21 -->
<g id="edge27_Node000012_Node000021" class="edge">
<title>Node12&#45;&gt;Node21</title>
<g id="a_edge27_Node000012_Node000021"><a xlink:title=" ">
<path fill="none" stroke="#63b8ff" d="M172.34,-235.78C163.59,-227.74 151.43,-216.55 141.25,-207.19"/>
<polygon fill="#63b8ff" stroke="#63b8ff" points="143.34,-204.36 133.61,-200.17 138.6,-209.52 143.34,-204.36"/>
</a>
</g>
</g>
<!-- Node15&#45;&gt;Node9 -->
<g id="edge15_Node000015_Node000009" class="edge">
<title>Node15&#45;&gt;Node9</title>
<g id="a_edge15_Node000015_Node000009"><a xlink:title=" ">
<path fill="none" stroke="#63b8ff" d="M463.84,-117.78C456.3,-109.82 445.84,-98.77 437.03,-89.47"/>
<polygon fill="#63b8ff" stroke="#63b8ff" points="439.53,-87.03 430.11,-82.17 434.45,-91.84 439.53,-87.03"/>
</a>
</g>
</g>
<!-- Node15&#45;&gt;Node10 -->
<g id="edge16_Node000015_Node000010" class="edge">
<title>Node15&#45;&gt;Node10</title>
<g id="a_edge16_Node000015_Node000010"><a xlink:title=" ">
<path fill="none" stroke="#63b8ff" d="M479.76,-117.84C488.39,-102.79 506.04,-75.3 528,-59 552.78,-40.61 585.72,-28.58 610.98,-21.37"/>
<polygon fill="#63b8ff" stroke="#63b8ff" points="612.21,-24.66 620.94,-18.66 610.37,-17.91 612.21,-24.66"/>
</a>
</g>
</g>
<!-- Node16 -->
<g id="Node000016" class="node">
<title>Node16</title>
<g id="a_Node000016"><a xlink:title=" ">
<polygon fill="#e0e0e0" stroke="#999999" points="621,-82 537,-82 537,-59 621,-59 621,-82"/>
<text text-anchor="middle" x="579" y="-66.8" font-family="Arial" font-size="14.00">string_view</text>
</a>
</g>
</g>
<!-- Node15&#45;&gt;Node16 -->
<g id="edge17_Node000015_Node000016" class="edge">
<title>Node15&#45;&gt;Node16</title>
<g id="a_edge17_Node000015_Node000016"><a xlink:title=" ">
<path fill="none" stroke="#63b8ff" d="M493.75,-117.78C509.74,-109.1 532.47,-96.76 550.44,-87.01"/>
<polygon fill="#63b8ff" stroke="#63b8ff" points="552.22,-90.02 559.34,-82.17 548.88,-83.87 552.22,-90.02"/>
</a>
</g>
</g>
<!-- Node17&#45;&gt;Node9 -->
<g id="edge25_Node000017_Node000009" class="edge">
<title>Node17&#45;&gt;Node9</title>
<g id="a_edge25_Node000017_Node000009"><a xlink:title=" ">
<path fill="none" stroke="#63b8ff" d="M575.93,-182.58C518.31,-176.72 440.41,-164.59 421,-141 409.96,-127.58 411.02,-107.26 414.07,-92.05"/>
<polygon fill="#63b8ff" stroke="#63b8ff" points="417.54,-92.6 416.49,-82.05 410.74,-90.95 417.54,-92.6"/>
</a>
</g>
</g>
<!-- Node17&#45;&gt;Node15 -->
<g id="edge19_Node000017_Node000015" class="edge">
<title>Node17&#45;&gt;Node15</title>
<g id="a_edge19_Node000017_Node000015"><a xlink:title=" ">
<path fill="none" stroke="#63b8ff" d="M609.98,-176.91C583.03,-167.71 543.82,-154.33 514.42,-144.29"/>
<polygon fill="#63b8ff" stroke="#63b8ff" points="515.45,-140.95 504.85,-141.03 513.19,-147.57 515.45,-140.95"/>
</a>
</g>
</g>
<!-- Node18 -->
<g id="Node000018" class="node">
<title>Node18</title>
<g id="a_Node000018"><a xlink:href="EspTypes__Base_8h.html" target="_top" xlink:title="ESP32 base type definitions for hardware abstraction.">
<polygon fill="white" stroke="#666666" points="801.5,-141 676.5,-141 676.5,-118 801.5,-118 801.5,-141"/>
<text text-anchor="middle" x="739" y="-125.8" font-family="Arial" font-size="14.00">EspTypes_Base.h</text>
</a>
</g>
</g>
<!-- Node17&#45;&gt;Node18 -->
<g id="edge20_Node000017_Node000018" class="edge">
<title>Node17&#45;&gt;Node18</title>
<g id="a_edge20_Node000017_Node000018"><a xlink:title=" ">
<path fill="none" stroke="#63b8ff" d="M659.43,-176.78C674.22,-168.18 695.18,-155.99 711.88,-146.28"/>
<polygon fill="#63b8ff" stroke="#63b8ff" points="713.77,-149.23 720.65,-141.17 710.25,-143.18 713.77,-149.23"/>
</a>
</g>
</g>
<!-- Node19 -->
<g id="Node000019" class="node">
<title>Node19</title>
<g id="a_Node000019"><a xlink:href="McuSelect_8h.html" target="_top" xlink:title="Centralized MCU platform selection and configuration header.">
<polygon fill="white" stroke="#666666" points="916,-82 774,-82 774,-59 916,-59 916,-82"/>
<text text-anchor="middle" x="845" y="-66.8" font-family="Arial" font-size="14.00">../../utils/McuSelect.h</text>
</a>
</g>
</g>
<!-- Node17&#45;&gt;Node19 -->
<g id="edge26_Node000017_Node000019" class="edge">
<title>Node17&#45;&gt;Node19</title>
<g id="a_edge26_Node000017_Node000019"><a xlink:title=" ">
<path fill="none" stroke="#63b8ff" d="M706.18,-182.23C740.25,-176.57 780.81,-164.91 810,-141 825.28,-128.48 834.53,-107.58 839.64,-91.96"/>
<polygon fill="#63b8ff" stroke="#63b8ff" points="843.06,-92.75 842.55,-82.16 836.35,-90.76 843.06,-92.75"/>
</a>
</g>
</g>
<!-- Node18&#45;&gt;Node9 -->
<g id="edge22_Node000018_Node000009" class="edge">
<title>Node18&#45;&gt;Node9</title>
<g id="a_edge22_Node000018_Node000009"><a xlink:title=" ">
<path fill="none" stroke="#63b8ff" d="M680.12,-117.98C626.03,-108.31 545.84,-93.99 488.82,-83.8"/>
<polygon fill="#63b8ff" stroke="#63b8ff" points="489.27,-80.32 478.81,-82.01 488.04,-87.21 489.27,-80.32"/>
</a>
</g>
</g>
<!-- Node18&#45;&gt;Node10 -->
<g id="edge24_Node000018_Node000010" class="edge">
<title>Node18&#45;&gt;Node10</title>
<g id="a_edge24_Node000018_Node000010"><a xlink:title=" ">
<path fill="none" stroke="#63b8ff" d="M730.69,-117.79C715.42,-98.11 682.71,-55.95 663.64,-31.37"/>
<polygon fill="#63b8ff" stroke="#63b8ff" points="666.18,-28.93 657.29,-23.18 660.65,-33.23 666.18,-28.93"/>
</a>
</g>
</g>
<!-- Node18&#45;&gt;Node19 -->
<g id="edge21_Node000018_Node000019" class="edge">
<title>Node18&#45;&gt;Node19</title>
<g id="a_edge21_Node000018_Node000019"><a xlink:title=" ">
<path fill="none" stroke="#63b8ff" d="M758.94,-117.78C775.08,-109.1 798.02,-96.76 816.16,-87.01"/>
<polygon fill="#63b8ff" stroke="#63b8ff" points="818,-89.99 825.15,-82.17 814.69,-83.83 818,-89.99"/>
</a>
</g>
</g>
<!-- Node20 -->
<g id="Node000020" class="node">
<title>Node20</title>
<g id="a_Node000020"><a xlink:title=" ">
<polygon fill="#e0e0e0" stroke="#999999" points="1317.5,-82 1260.5,-82 1260.5,-59 1317.5,-59 1317.5,-82"/>
<text text-anchor="middle" x="1289" y="-66.8" font-family="Arial" font-size="14.00">atomic</text>
</a>
</g>
</g>
<!-- Node18&#45;&gt;Node20 -->
<g id="edge23_Node000018_Node000020" class="edge">
<title>Node18&#45;&gt;Node20</title>
<g id="a_edge23_Node000018_Node000020"><a xlink:title=" ">
<path fill="none" stroke="#63b8ff" d="M801.56,-122.02C916.1,-110.15 1156.36,-85.25 1250.24,-75.52"/>
<polygon fill="#63b8ff" stroke="#63b8ff" points="1250.84,-78.97 1260.43,-74.46 1250.12,-72.01 1250.84,-78.97"/>
</a>
</g>
</g>
<!-- Node22&#45;&gt;Node9 -->
<g id="edge29_Node000022_Node000009" class="edge">
<title>Node22&#45;&gt;Node9</title>
<g id="a_edge29_Node000022_Node000009"><a xlink:title=" ">
<path fill="none" stroke="#63b8ff" d="M564.12,-117.91C535.44,-108.67 493.64,-95.21 462.43,-85.16"/>
<polygon fill="#63b8ff" stroke="#63b8ff" points="463.29,-81.76 452.7,-82.03 461.15,-88.43 463.29,-81.76"/>
</a>
</g>
</g>
<!-- Node22&#45;&gt;Node10 -->
<g id="edge30_Node000022_Node000010" class="edge">
<title>Node22&#45;&gt;Node10</title>
<g id="a_edge30_Node000022_Node000010"><a xlink:title=" ">
<path fill="none" stroke="#63b8ff" d="M606.32,-117.73C613.68,-108.72 623.73,-95.24 630,-82 637.35,-66.48 642.28,-47.61 645.27,-33.46"/>
<polygon fill="#63b8ff" stroke="#63b8ff" points="648.78,-33.75 647.27,-23.27 641.91,-32.41 648.78,-33.75"/>
</a>
</g>
</g>
<!-- Node22&#45;&gt;Node16 -->
<g id="edge31_Node000022_Node000016" class="edge">
<title>Node22&#45;&gt;Node16</title>
<g id="a_edge31_Node000022_Node000016"><a xlink:title=" ">
<path fill="none" stroke="#63b8ff" d="M593.61,-117.78C591.3,-110.45 588.16,-100.52 585.39,-91.74"/>
<polygon fill="#63b8ff" stroke="#63b8ff" points="588.72,-90.66 582.37,-82.17 582.04,-92.76 588.72,-90.66"/>
</a>
</g>
</g>
<!-- Node23&#45;&gt;Node20 -->
<g id="edge49_Node000023_Node000020" class="edge">
<title>Node23&#45;&gt;Node20</title>
<g id="a_edge49_Node000023_Node000020"><a xlink:title=" ">
<path fill="none" stroke="#63b8ff" d="M1146.99,-294.95C1204.64,-284.86 1281.89,-269.64 1292,-259 1335.52,-213.2 1323.3,-179.76 1310,-118 1308.01,-108.77 1304.04,-99.16 1300.07,-91.09"/>
<polygon fill="#63b8ff" stroke="#63b8ff" points="1303.12,-89.37 1295.38,-82.13 1296.92,-92.62 1303.12,-89.37"/>
</a>
</g>
</g>
<!-- Node23&#45;&gt;Node22 -->
<g id="edge34_Node000023_Node000022" class="edge">
<title>Node23&#45;&gt;Node22</title>
<g id="a_edge34_Node000023_Node000022"><a xlink:title=" ">
<path fill="none" stroke="#63b8ff" d="M1006.98,-304.82C931.13,-302.09 812.2,-292.21 715,-259 695.96,-252.49 694.33,-244.31 676,-236 629.54,-214.92 596.89,-241.35 567,-200 555.67,-184.33 567.27,-163.72 579.19,-149.02"/>
<polygon fill="#63b8ff" stroke="#63b8ff" points="582.14,-150.96 586.07,-141.13 576.86,-146.36 582.14,-150.96"/>
</a>
</g>
</g>
<!-- Node24 -->
<g id="Node000024" class="node">
<title>Node24</title>
<g id="a_Node000024"><a xlink:href="RtosMutex_8h.html" target="_top" xlink:title="Cross&#45;platform RTOS mutex and synchronization primitives.">
<polygon fill="white" stroke="#666666" points="1283.5,-259 1190.5,-259 1190.5,-236 1283.5,-236 1283.5,-259"/>
<text text-anchor="middle" x="1237" y="-243.8" font-family="Arial" font-size="14.00">RtosMutex.h</text>
</a>
</g>
</g>
<!-- Node23&#45;&gt;Node24 -->
<g id="edge35_Node000023_Node000024" class="edge">
<title>Node23&#45;&gt;Node24</title>
<g id="a_edge35_Node000023_Node000024"><a xlink:title=" ">
<path fill="none" stroke="#63b8ff" d="M1111.61,-294.91C1136.24,-285.79 1171.99,-272.56 1199.02,-262.56"/>
<polygon fill="#63b8ff" stroke="#63b8ff" points="1200.38,-265.78 1208.55,-259.03 1197.95,-259.22 1200.38,-265.78"/>
</a>
</g>
</g>
<!-- Node25 -->
<g id="Node000025" class="node">
<title>Node25</title>
<g id="a_Node000025"><a xlink:href="EspTypes__PWM_8h.html" target="_top" xlink:title="ESP32 PWM type definitions for LEDC peripheral hardware abstraction.">
<polygon fill="white" stroke="#666666" points="881.5,-259 724.5,-259 724.5,-236 881.5,-236 881.5,-259"/>
<text text-anchor="middle" x="803" y="-243.8" font-family="Arial" font-size="14.00">utils/EspTypes_PWM.h</text>
</a>
</g>
</g>
<!-- Node23&#45;&gt;Node25 -->
<g id="edge42_Node000023_Node000025" class="edge">
<title>Node23&#45;&gt;Node25</title>
<g id="a_edge42_Node000023_Node000025"><a xlink:title=" ">
<path fill="none" stroke="#63b8ff" d="M1031.32,-294.98C984.31,-285.41 914.84,-271.27 864.89,-261.1"/>
<polygon fill="#63b8ff" stroke="#63b8ff" points="865.35,-257.62 854.85,-259.06 863.96,-264.48 865.35,-257.62"/>
</a>
</g>
</g>
<!-- Node23&#45;&gt;Node26 -->
<g id="edge48_Node000023_Node000026" class="edge">
<title>Node23&#45;&gt;Node26</title>
<g id="a_edge48_Node000023_Node000026"><a xlink:title=" ">
<path fill="none" stroke="#63b8ff" d="M1159.21,-296.92C1223.29,-289.06 1317.14,-276.07 1398,-259 1399.46,-258.69 1400.96,-258.36 1402.46,-258.01"/>
<polygon fill="#63b8ff" stroke="#63b8ff" points="1403.55,-261.34 1412.39,-255.51 1401.84,-254.55 1403.55,-261.34"/>
</a>
</g>
</g>
<!-- Node27 -->
<g id="Node000027" class="node">
<title>Node27</title>
<g id="a_Node000027"><a xlink:title=" ">
<polygon fill="#e0e0e0" stroke="#999999" points="1064,-259 1014,-259 1014,-236 1064,-236 1064,-259"/>
<text text-anchor="middle" x="1039" y="-243.8" font-family="Arial" font-size="14.00">string</text>
</a>
</g>
</g>
<!-- Node23&#45;&gt;Node27 -->
<g id="edge50_Node000023_Node000027" class="edge">
<title>Node23&#45;&gt;Node27</title>
<g id="a_edge50_Node000023_Node000027"><a xlink:title=" ">
<path fill="none" stroke="#63b8ff" d="M1074.72,-294.78C1068.76,-287.06 1060.56,-276.43 1053.52,-267.31"/>
<polygon fill="#63b8ff" stroke="#63b8ff" points="1056.12,-264.95 1047.24,-259.17 1050.58,-269.23 1056.12,-264.95"/>
</a>
</g>
</g>
<!-- Node28 -->
<g id="Node000028" class="node">
<title>Node28</title>
<g id="a_Node000028"><a xlink:title=" ">
<polygon fill="#e0e0e0" stroke="#999999" points="1172,-259 1082,-259 1082,-236 1172,-236 1172,-259"/>
<text text-anchor="middle" x="1127" y="-243.8" font-family="Arial" font-size="14.00">driver/ledc.h</text>
</a>
</g>
</g>
<!-- Node23&#45;&gt;Node28 -->
<g id="edge51_Node000023_Node000028" class="edge">
<title>Node23&#45;&gt;Node28</title>
<g id="a_edge51_Node000023_Node000028"><a xlink:title=" ">
<path fill="none" stroke="#63b8ff" d="M1091.28,-294.78C1097.24,-287.06 1105.44,-276.43 1112.48,-267.31"/>
<polygon fill="#63b8ff" stroke="#63b8ff" points="1115.42,-269.23 1118.76,-259.17 1109.88,-264.95 1115.42,-269.23"/>
</a>
</g>
</g>
<!-- Node24&#45;&gt;Node5 -->
<g id="edge37_Node000024_Node000005" class="edge">
<title>Node24&#45;&gt;Node5</title>
<g id="a_edge37_Node000024_Node000005"><a xlink:title=" ">
<path fill="none" stroke="#63b8ff" d="M1190.26,-237.68C1187.13,-237.11 1184.02,-236.54 1181,-236 1113.99,-223.97 1037.53,-210.91 982.95,-201.7"/>
<polygon fill="#63b8ff" stroke="#63b8ff" points="983.46,-198.24 973.02,-200.03 982.3,-205.14 983.46,-198.24"/>
</a>
</g>
</g>
<!-- Node24&#45;&gt;Node7 -->
<g id="edge38_Node000024_Node000007" class="edge">
<title>Node24&#45;&gt;Node7</title>
<g id="a_edge38_Node000024_Node000007"><a xlink:title=" ">
<path fill="none" stroke="#63b8ff" d="M1204.31,-235.91C1175.78,-226.67 1134.22,-213.21 1103.19,-203.16"/>
<polygon fill="#63b8ff" stroke="#63b8ff" points="1104.11,-199.78 1093.52,-200.03 1101.95,-206.44 1104.11,-199.78"/>
</a>
</g>
</g>
<!-- Node24&#45;&gt;Node8 -->
<g id="edge39_Node000024_Node000008" class="edge">
<title>Node24&#45;&gt;Node8</title>
<g id="a_edge39_Node000024_Node000008"><a xlink:title=" ">
<path fill="none" stroke="#63b8ff" d="M1228.35,-235.78C1222.05,-227.98 1213.37,-217.21 1205.96,-208.03"/>
<polygon fill="#63b8ff" stroke="#63b8ff" points="1208.62,-205.76 1199.61,-200.17 1203.17,-210.15 1208.62,-205.76"/>
</a>
</g>
</g>
<!-- Node24&#45;&gt;Node10 -->
<g id="edge41_Node000024_Node000010" class="edge">
<title>Node24&#45;&gt;Node10</title>
<g id="a_edge41_Node000024_Node000010"><a xlink:title=" ">
<path fill="none" stroke="#63b8ff" d="M1259.69,-235.86C1274.03,-227.97 1291.73,-215.83 1302,-200 1336.58,-146.66 1369.38,-105.46 1326,-59 1282.27,-12.16 823.82,-11.35 687.21,-12.16"/>
<polygon fill="#63b8ff" stroke="#63b8ff" points="687.18,-8.66 677.2,-12.23 687.22,-15.66 687.18,-8.66"/>
</a>
</g>
</g>
<!-- Node24&#45;&gt;Node19 -->
<g id="edge36_Node000024_Node000019" class="edge">
<title>Node24&#45;&gt;Node19</title>
<g id="a_edge36_Node000024_Node000019"><a xlink:title=" ">
<path fill="none" stroke="#63b8ff" d="M1243.84,-235.9C1252.4,-221.16 1264.4,-194.33 1251,-177 1211.62,-126.07 1032.99,-95.17 926.23,-80.92"/>
<polygon fill="#63b8ff" stroke="#63b8ff" points="926.5,-77.43 916.13,-79.6 925.59,-84.37 926.5,-77.43"/>
</a>
</g>
</g>
<!-- Node24&#45;&gt;Node20 -->
<g id="edge40_Node000024_Node000020" class="edge">
<title>Node24&#45;&gt;Node20</title>
<g id="a_edge40_Node000024_Node000020"><a xlink:title=" ">
<path fill="none" stroke="#63b8ff" d="M1252.75,-235.92C1263.69,-227.59 1277.43,-214.92 1284,-200 1299.59,-164.6 1296.37,-118.26 1292.66,-92"/>
<polygon fill="#63b8ff" stroke="#63b8ff" points="1296.11,-91.4 1291.09,-82.07 1289.19,-92.49 1296.11,-91.4"/>
</a>
</g>
</g>
<!-- Node25&#45;&gt;Node9 -->
<g id="edge44_Node000025_Node000009" class="edge">
<title>Node25&#45;&gt;Node9</title>
<g id="a_edge44_Node000025_Node000009"><a xlink:title=" ">
<path fill="none" stroke="#63b8ff" d="M724.25,-237.33C619.9,-223.3 444.78,-192.56 409,-141 399.04,-126.65 403.64,-106.64 409.64,-91.78"/>
<polygon fill="#63b8ff" stroke="#63b8ff" points="412.93,-93 413.86,-82.44 406.55,-90.12 412.93,-93"/>
</a>
</g>
</g>
<!-- Node25&#45;&gt;Node17 -->
<g id="edge47_Node000025_Node000017" class="edge">
<title>Node25&#45;&gt;Node17</title>
<g id="a_edge47_Node000025_Node000017"><a xlink:title=" ">
<path fill="none" stroke="#63b8ff" d="M772.91,-235.91C746.88,-226.75 709.06,-213.45 680.58,-203.43"/>
<polygon fill="#63b8ff" stroke="#63b8ff" points="681.52,-200.05 670.93,-200.03 679.2,-206.65 681.52,-200.05"/>
</a>
</g>
</g>
<!-- Node25&#45;&gt;Node18 -->
<g id="edge46_Node000025_Node000018" class="edge">
<title>Node25&#45;&gt;Node18</title>
<g id="a_edge46_Node000025_Node000018"><a xlink:title=" ">
<path fill="none" stroke="#63b8ff" d="M797.09,-235.79C786.33,-216.29 763.38,-174.69 749.77,-150.02"/>
<polygon fill="#63b8ff" stroke="#63b8ff" points="752.79,-148.24 744.89,-141.18 746.66,-151.63 752.79,-148.24"/>
</a>
</g>
</g>
<!-- Node25&#45;&gt;Node19 -->
<g id="edge45_Node000025_Node000019" class="edge">
<title>Node25&#45;&gt;Node19</title>
<g id="a_edge45_Node000025_Node000019"><a xlink:title=" ">
<path fill="none" stroke="#63b8ff" d="M806.63,-235.84C812.96,-216.93 826.08,-176.2 834,-141 837.64,-124.83 840.51,-106.27 842.41,-92.4"/>
<polygon fill="#63b8ff" stroke="#63b8ff" points="845.89,-92.79 843.71,-82.42 838.95,-91.88 845.89,-92.79"/>
</a>
</g>
</g>
<!-- Node25&#45;&gt;Node22 -->
<g id="edge43_Node000025_Node000022" class="edge">
<title>Node25&#45;&gt;Node22</title>
<g id="a_edge43_Node000025_Node000022"><a xlink:title=" ">
<path fill="none" stroke="#63b8ff" d="M791.84,-235.89C775.85,-221.13 745.04,-194.28 715,-177 691.62,-163.55 663.59,-152.33 640.72,-144.28"/>
<polygon fill="#63b8ff" stroke="#63b8ff" points="641.86,-140.97 631.27,-141.02 639.58,-147.59 641.86,-140.97"/>
</a>
</g>
</g>
</g>
</svg>

<g id="navigator" transform="translate(0 0)" fill="#404254">
  <rect fill="#f2f5e9" fill-opacity="0.5" stroke="#606060" stroke-width=".5" x="0" y="0" width="60" height="60"/>
  <use id="zoomplus" xlink:href="#zoomPlus" x="17" y="9" onmousedown="handleZoom(evt,'in')"/>
  <use id="zoomminus" xlink:href="#zoomMin" x="42" y="9" onmousedown="handleZoom(evt,'out')"/>
  <use id="reset" xlink:href="#resetDef" x="30" y="36" onmousedown="handleReset()"/>
   <use id="arrowup" xlink:href="#arrowUp" x="0" y="0" onmousedown="handlePan(0,-1)"/>
  <use id="arrowright" xlink:href="#arrowRight" x="0" y="0" onmousedown="handlePan(1,0)"/>
  <use id="arrowdown" xlink:href="#arrowDown" x="0" y="0" onmousedown="handlePan(0,1)"/>
  <use id="arrowleft" xlink:href="#arrowLeft" x="0" y="0" onmousedown="handlePan(-1,0)"/>
</g>
<svg viewBox="0 0 15 15" width="100%" height="30px" preserveAspectRatio="xMaxYMin meet">
 <g id="arrow_out" transform="scale(0.3 0.3)">
  <a xlink:href="PwmComprehensiveTest_8cpp__incl_org.svg" target="_base">
   <rect id="button" ry="5" rx="5" y="6" x="6" height="38" width="38"
        fill="#f2f5e9" fill-opacity="0.5" stroke="#606060" stroke-width="1.0"/>
   <path id="arrow"
     d="M 11.500037,31.436501 C 11.940474,20.09759 22.043105,11.32322 32.158766,21.979434 L 37.068811,17.246167 C 37.068811,17.246167 37.088388,32 37.088388,32 L 22.160133,31.978069 C 22.160133,31.978069 26.997745,27.140456 26.997745,27.140456 C 18.528582,18.264221 13.291696,25.230495 11.500037,31.436501 z"
     style="fill:#404040;"/>
  </a>
 </g>
</svg>

<style type='text/css'>
<![CDATA[
[data-mouse-over-selected='false'] { opacity: 0.7; }
[data-mouse-over-selected='true']  { opacity: 1.0; }
]]>
</style>
<script type="application/ecmascript"><![CDATA[
document.addEventListener('DOMContentLoaded', (event) => {
  highlightEdges();
  highlightAdjacentNodes();
});
]]></script>
</svg>
