<?xml version="1.0" encoding="UTF-8" standalone="no"?>
<!DOCTYPE svg PUBLIC "-//W3C//DTD SVG 1.1//EN"
 "http://www.w3.org/Graphics/SVG/1.1/DTD/svg11.dtd">
<!-- Generated by graphviz version 2.43.0 (0)
 -->
<!-- Title: src/mcu/stm32/StmGpio.cpp Pages: 1 -->
<svg width="362pt" height="267pt"
 viewBox="0.00 0.00 361.96 267.00" xmlns="http://www.w3.org/2000/svg" xmlns:xlink="http://www.w3.org/1999/xlink">
<g id="graph0" class="graph" transform="scale(1 1) rotate(0) translate(4 263)">
<title>src/mcu/stm32/StmGpio.cpp</title>
<!-- Node1 -->
<g id="Node000001" class="node">
<title>Node1</title>
<g id="a_Node000001"><a xlink:title="STM32 GPIO wrapper implementation — full STM32 HAL integration.">
<polygon fill="#999999" stroke="#666666" points="260.46,-259 71.46,-259 71.46,-236 260.46,-236 260.46,-259"/>
<text text-anchor="middle" x="165.96" y="-243.8" font-family="Arial" font-size="14.00">src/mcu/stm32/StmGpio.cpp</text>
</a>
</g>
</g>
<!-- Node2 -->
<g id="Node000002" class="node">
<title>Node2</title>
<g id="a_Node000002"><a xlink:href="StmGpio_8h.html" target="_top" xlink:title="STM32 GPIO wrapper — full HAL integration with EXTI interrupt support.">
<polygon fill="white" stroke="#666666" points="163.96,-200 81.96,-200 81.96,-177 163.96,-177 163.96,-200"/>
<text text-anchor="middle" x="122.96" y="-184.8" font-family="Arial" font-size="14.00">StmGpio.h</text>
</a>
</g>
</g>
<!-- Node1&#45;&gt;Node2 -->
<g id="edge1_Node000001_Node000002" class="edge">
<title>Node1&#45;&gt;Node2</title>
<g id="a_edge1_Node000001_Node000002"><a xlink:title=" ">
<path fill="none" stroke="#63b8ff" d="M157.87,-235.78C152.04,-228.06 144.03,-217.43 137.15,-208.31"/>
<polygon fill="#63b8ff" stroke="#63b8ff" points="139.83,-206.05 131.01,-200.17 134.24,-210.26 139.83,-206.05"/>
</a>
</g>
</g>
<!-- Node10 -->
<g id="Node000010" class="node">
<title>Node10</title>
<g id="a_Node000010"><a xlink:title=" ">
<polygon fill="#e0e0e0" stroke="#999999" points="237.96,-200 181.96,-200 181.96,-177 237.96,-177 237.96,-200"/>
<text text-anchor="middle" x="209.96" y="-184.8" font-family="Arial" font-size="14.00">cstring</text>
</a>
</g>
</g>
<!-- Node1&#45;&gt;Node10 -->
<g id="edge12_Node000001_Node000010" class="edge">
<title>Node1&#45;&gt;Node10</title>
<g id="a_edge12_Node000001_Node000010"><a xlink:title=" ">
<path fill="none" stroke="#63b8ff" d="M174.23,-235.78C180.2,-228.06 188.4,-217.43 195.44,-208.31"/>
<polygon fill="#63b8ff" stroke="#63b8ff" points="198.38,-210.23 201.72,-200.17 192.84,-205.95 198.38,-210.23"/>
</a>
</g>
</g>
<!-- Node3 -->
<g id="Node000003" class="node">
<title>Node3</title>
<g id="a_Node000003"><a xlink:href="BaseGpio_8h.html" target="_top" xlink:title="Unified GPIO base class for all digital GPIO implementations.">
<polygon fill="white" stroke="#666666" points="106.96,-141 18.96,-141 18.96,-118 106.96,-118 106.96,-141"/>
<text text-anchor="middle" x="62.96" y="-125.8" font-family="Arial" font-size="14.00">BaseGpio.h</text>
</a>
</g>
</g>
<!-- Node2&#45;&gt;Node3 -->
<g id="edge2_Node000002_Node000003" class="edge">
<title>Node2&#45;&gt;Node3</title>
<g id="a_edge2_Node000002_Node000003"><a xlink:title=" ">
<path fill="none" stroke="#63b8ff" d="M111.67,-176.78C103.21,-168.74 91.44,-157.55 81.58,-148.19"/>
<polygon fill="#63b8ff" stroke="#63b8ff" points="83.85,-145.52 74.19,-141.17 79.03,-150.6 83.85,-145.52"/>
</a>
</g>
</g>
<!-- Node8 -->
<g id="Node000008" class="node">
<title>Node8</title>
<g id="a_Node000008"><a xlink:href="StmTypes_8h.html" target="_top" xlink:title="STM32 platform&#45;specific type definitions for hardware abstraction.">
<polygon fill="white" stroke="#666666" points="265.46,-141 176.46,-141 176.46,-118 265.46,-118 265.46,-141"/>
<text text-anchor="middle" x="220.96" y="-125.8" font-family="Arial" font-size="14.00">StmTypes.h</text>
</a>
</g>
</g>
<!-- Node2&#45;&gt;Node8 -->
<g id="edge8_Node000002_Node000008" class="edge">
<title>Node2&#45;&gt;Node8</title>
<g id="a_edge8_Node000002_Node000008"><a xlink:title=" ">
<path fill="none" stroke="#63b8ff" d="M141.39,-176.78C156.17,-168.18 177.14,-155.99 193.84,-146.28"/>
<polygon fill="#63b8ff" stroke="#63b8ff" points="195.72,-149.23 202.61,-141.17 192.2,-143.18 195.72,-149.23"/>
</a>
</g>
</g>
<!-- Node4 -->
<g id="Node000004" class="node">
<title>Node4</title>
<g id="a_Node000004"><a xlink:href="HardwareTypes_8h.html" target="_top" xlink:title="Platform&#45;agnostic hardware type definitions for the HardFOC system.">
<polygon fill="white" stroke="#666666" points="237.96,-82 115.96,-82 115.96,-59 237.96,-59 237.96,-82"/>
<text text-anchor="middle" x="176.96" y="-66.8" font-family="Arial" font-size="14.00">HardwareTypes.h</text>
</a>
</g>
</g>
<!-- Node3&#45;&gt;Node4 -->
<g id="edge3_Node000003_Node000004" class="edge">
<title>Node3&#45;&gt;Node4</title>
<g id="a_edge3_Node000003_Node000004"><a xlink:title=" ">
<path fill="none" stroke="#63b8ff" d="M84.13,-117.91C101.73,-109.11 126.99,-96.49 146.71,-86.62"/>
<polygon fill="#63b8ff" stroke="#63b8ff" points="148.52,-89.63 155.9,-82.03 145.39,-83.37 148.52,-89.63"/>
</a>
</g>
</g>
<!-- Node5 -->
<g id="Node000005" class="node">
<title>Node5</title>
<g id="a_Node000005"><a xlink:title=" ">
<polygon fill="#e0e0e0" stroke="#999999" points="239.96,-23 183.96,-23 183.96,0 239.96,0 239.96,-23"/>
<text text-anchor="middle" x="211.96" y="-7.8" font-family="Arial" font-size="14.00">cstdint</text>
</a>
</g>
</g>
<!-- Node3&#45;&gt;Node5 -->
<g id="edge6_Node000003_Node000005" class="edge">
<title>Node3&#45;&gt;Node5</title>
<g id="a_edge6_Node000003_Node000005"><a xlink:title=" ">
<path fill="none" stroke="#63b8ff" d="M43.22,-117.98C20.35,-104.44 -12.16,-80.12 4.96,-59 51.59,-1.46 96.18,-38.23 173.61,-22.98"/>
<polygon fill="#63b8ff" stroke="#63b8ff" points="174.73,-26.32 183.73,-20.72 173.21,-19.48 174.73,-26.32"/>
</a>
</g>
</g>
<!-- Node7 -->
<g id="Node000007" class="node">
<title>Node7</title>
<g id="a_Node000007"><a xlink:title=" ">
<polygon fill="#e0e0e0" stroke="#999999" points="97.96,-82 13.96,-82 13.96,-59 97.96,-59 97.96,-82"/>
<text text-anchor="middle" x="55.96" y="-66.8" font-family="Arial" font-size="14.00">string_view</text>
</a>
</g>
</g>
<!-- Node3&#45;&gt;Node7 -->
<g id="edge7_Node000003_Node000007" class="edge">
<title>Node3&#45;&gt;Node7</title>
<g id="a_edge7_Node000003_Node000007"><a xlink:title=" ">
<path fill="none" stroke="#63b8ff" d="M61.64,-117.78C60.76,-110.61 59.58,-100.95 58.51,-92.31"/>
<polygon fill="#63b8ff" stroke="#63b8ff" points="61.96,-91.67 57.27,-82.17 55.01,-92.53 61.96,-91.67"/>
</a>
</g>
</g>
<!-- Node4&#45;&gt;Node5 -->
<g id="edge4_Node000004_Node000005" class="edge">
<title>Node4&#45;&gt;Node5</title>
<g id="a_edge4_Node000004_Node000005"><a xlink:title=" ">
<path fill="none" stroke="#63b8ff" d="M183.54,-58.78C188.19,-51.22 194.54,-40.87 200.06,-31.88"/>
<polygon fill="#63b8ff" stroke="#63b8ff" points="203.15,-33.53 205.41,-23.17 197.19,-29.86 203.15,-33.53"/>
</a>
</g>
</g>
<!-- Node6 -->
<g id="Node000006" class="node">
<title>Node6</title>
<g id="a_Node000006"><a xlink:title=" ">
<polygon fill="#e0e0e0" stroke="#999999" points="165.96,-23 117.96,-23 117.96,0 165.96,0 165.96,-23"/>
<text text-anchor="middle" x="141.96" y="-7.8" font-family="Arial" font-size="14.00">limits</text>
</a>
</g>
</g>
<!-- Node4&#45;&gt;Node6 -->
<g id="edge5_Node000004_Node000006" class="edge">
<title>Node4&#45;&gt;Node6</title>
<g id="a_edge5_Node000004_Node000006"><a xlink:title=" ">
<path fill="none" stroke="#63b8ff" d="M170.38,-58.78C165.73,-51.22 159.38,-40.87 153.86,-31.88"/>
<polygon fill="#63b8ff" stroke="#63b8ff" points="156.73,-29.86 148.51,-23.17 150.76,-33.53 156.73,-29.86"/>
</a>
</g>
</g>
<!-- Node8&#45;&gt;Node4 -->
<g id="edge9_Node000008_Node000004" class="edge">
<title>Node8&#45;&gt;Node4</title>
<g id="a_edge9_Node000008_Node000004"><a xlink:title=" ">
<path fill="none" stroke="#63b8ff" d="M212.68,-117.78C206.72,-110.06 198.52,-99.43 191.48,-90.31"/>
<polygon fill="#63b8ff" stroke="#63b8ff" points="194.08,-87.95 185.2,-82.17 188.54,-92.23 194.08,-87.95"/>
</a>
</g>
</g>
<!-- Node8&#45;&gt;Node5 -->
<g id="edge10_Node000008_Node000005" class="edge">
<title>Node8&#45;&gt;Node5</title>
<g id="a_edge10_Node000008_Node000005"><a xlink:title=" ">
<path fill="none" stroke="#63b8ff" d="M229.79,-117.75C239.83,-104.16 253.98,-80.02 246.96,-59 243.49,-48.62 236.68,-38.69 229.99,-30.7"/>
<polygon fill="#63b8ff" stroke="#63b8ff" points="232.48,-28.24 223.2,-23.13 227.27,-32.91 232.48,-28.24"/>
</a>
</g>
</g>
<!-- Node9 -->
<g id="Node000009" class="node">
<title>Node9</title>
<g id="a_Node000009"><a xlink:title=" ">
<polygon fill="#e0e0e0" stroke="#999999" points="353.96,-82 293.96,-82 293.96,-59 353.96,-59 353.96,-82"/>
<text text-anchor="middle" x="323.96" y="-66.8" font-family="Arial" font-size="14.00">cstddef</text>
</a>
</g>
</g>
<!-- Node8&#45;&gt;Node9 -->
<g id="edge11_Node000008_Node000009" class="edge">
<title>Node8&#45;&gt;Node9</title>
<g id="a_edge11_Node000008_Node000009"><a xlink:title=" ">
<path fill="none" stroke="#63b8ff" d="M240.33,-117.78C255.87,-109.18 277.9,-96.99 295.45,-87.28"/>
<polygon fill="#63b8ff" stroke="#63b8ff" points="297.62,-90.08 304.67,-82.17 294.23,-83.95 297.62,-90.08"/>
</a>
</g>
</g>
</g>
</svg>
