<?xml version="1.0" encoding="UTF-8" standalone="no"?>
<!DOCTYPE svg PUBLIC "-//W3C//DTD SVG 1.1//EN"
 "http://www.w3.org/Graphics/SVG/1.1/DTD/svg11.dtd">
<!-- Generated by graphviz version 2.43.0 (0)
 -->
<!-- Title: inc/mcu/stm32/StmSpi.h Pages: 1 -->
<svg width="430pt" height="208pt"
 viewBox="0.00 0.00 430.49 208.00" xmlns="http://www.w3.org/2000/svg" xmlns:xlink="http://www.w3.org/1999/xlink">
<g id="graph0" class="graph" transform="scale(1 1) rotate(0) translate(4 204)">
<title>inc/mcu/stm32/StmSpi.h</title>
<!-- Node1 -->
<g id="Node000001" class="node">
<title>Node1</title>
<g id="a_Node000001"><a xlink:title="STM32 SPI Bus+Device wrapper — wraps STM32 HAL SPI via CubeMX handle.">
<polygon fill="#999999" stroke="#666666" points="347.99,-200 183.99,-200 183.99,-177 347.99,-177 347.99,-200"/>
<text text-anchor="middle" x="265.99" y="-184.8" font-family="Arial" font-size="14.00">inc/mcu/stm32/StmSpi.h</text>
</a>
</g>
</g>
<!-- Node2 -->
<g id="Node000002" class="node">
<title>Node2</title>
<g id="a_Node000002"><a xlink:href="BaseSpi_8h.html" target="_top" xlink:title="Abstract base class for SPI device implementations in the HardFOC system.">
<polygon fill="white" stroke="#666666" points="149.99,-141 71.99,-141 71.99,-118 149.99,-118 149.99,-141"/>
<text text-anchor="middle" x="110.99" y="-125.8" font-family="Arial" font-size="14.00">BaseSpi.h</text>
</a>
</g>
</g>
<!-- Node1&#45;&gt;Node2 -->
<g id="edge1_Node000001_Node000002" class="edge">
<title>Node1&#45;&gt;Node2</title>
<g id="a_edge1_Node000001_Node000002"><a xlink:title=" ">
<path fill="none" stroke="#63b8ff" d="M237.2,-176.91C212.4,-167.79 176.42,-154.56 149.21,-144.56"/>
<polygon fill="#63b8ff" stroke="#63b8ff" points="150.22,-141.2 139.62,-141.03 147.8,-147.77 150.22,-141.2"/>
</a>
</g>
</g>
<!-- Node7 -->
<g id="Node000007" class="node">
<title>Node7</title>
<g id="a_Node000007"><a xlink:href="StmTypes_8h.html" target="_top" xlink:title="STM32 platform&#45;specific type definitions for hardware abstraction.">
<polygon fill="white" stroke="#666666" points="266.49,-141 177.49,-141 177.49,-118 266.49,-118 266.49,-141"/>
<text text-anchor="middle" x="221.99" y="-125.8" font-family="Arial" font-size="14.00">StmTypes.h</text>
</a>
</g>
</g>
<!-- Node1&#45;&gt;Node7 -->
<g id="edge7_Node000001_Node000007" class="edge">
<title>Node1&#45;&gt;Node7</title>
<g id="a_edge7_Node000001_Node000007"><a xlink:title=" ">
<path fill="none" stroke="#63b8ff" d="M257.71,-176.78C251.75,-169.06 243.55,-158.43 236.51,-149.31"/>
<polygon fill="#63b8ff" stroke="#63b8ff" points="239.11,-146.95 230.23,-141.17 233.57,-151.23 239.11,-146.95"/>
</a>
</g>
</g>
<!-- Node9 -->
<g id="Node000009" class="node">
<title>Node9</title>
<g id="a_Node000009"><a xlink:title=" ">
<polygon fill="#e0e0e0" stroke="#999999" points="337.49,-141 284.49,-141 284.49,-118 337.49,-118 337.49,-141"/>
<text text-anchor="middle" x="310.99" y="-125.8" font-family="Arial" font-size="14.00">vector</text>
</a>
</g>
</g>
<!-- Node1&#45;&gt;Node9 -->
<g id="edge11_Node000001_Node000009" class="edge">
<title>Node1&#45;&gt;Node9</title>
<g id="a_edge11_Node000001_Node000009"><a xlink:title=" ">
<path fill="none" stroke="#63b8ff" d="M274.45,-176.78C280.61,-168.98 289.11,-158.21 296.36,-149.03"/>
<polygon fill="#63b8ff" stroke="#63b8ff" points="299.11,-151.19 302.56,-141.17 293.62,-146.85 299.11,-151.19"/>
</a>
</g>
</g>
<!-- Node10 -->
<g id="Node000010" class="node">
<title>Node10</title>
<g id="a_Node000010"><a xlink:title=" ">
<polygon fill="#e0e0e0" stroke="#999999" points="422.49,-141 355.49,-141 355.49,-118 422.49,-118 422.49,-141"/>
<text text-anchor="middle" x="388.99" y="-125.8" font-family="Arial" font-size="14.00">memory</text>
</a>
</g>
</g>
<!-- Node1&#45;&gt;Node10 -->
<g id="edge12_Node000001_Node000010" class="edge">
<title>Node1&#45;&gt;Node10</title>
<g id="a_edge12_Node000001_Node000010"><a xlink:title=" ">
<path fill="none" stroke="#63b8ff" d="M288.83,-176.91C307.99,-168.03 335.57,-155.26 356.93,-145.35"/>
<polygon fill="#63b8ff" stroke="#63b8ff" points="358.66,-148.41 366.26,-141.03 355.72,-142.06 358.66,-148.41"/>
</a>
</g>
</g>
<!-- Node3 -->
<g id="Node000003" class="node">
<title>Node3</title>
<g id="a_Node000003"><a xlink:href="HardwareTypes_8h.html" target="_top" xlink:title="Platform&#45;agnostic hardware type definitions for the HardFOC system.">
<polygon fill="white" stroke="#666666" points="238.99,-82 116.99,-82 116.99,-59 238.99,-59 238.99,-82"/>
<text text-anchor="middle" x="177.99" y="-66.8" font-family="Arial" font-size="14.00">HardwareTypes.h</text>
</a>
</g>
</g>
<!-- Node2&#45;&gt;Node3 -->
<g id="edge2_Node000002_Node000003" class="edge">
<title>Node2&#45;&gt;Node3</title>
<g id="a_edge2_Node000002_Node000003"><a xlink:title=" ">
<path fill="none" stroke="#63b8ff" d="M123.59,-117.78C133.14,-109.66 146.45,-98.33 157.52,-88.92"/>
<polygon fill="#63b8ff" stroke="#63b8ff" points="160.09,-91.32 165.44,-82.17 155.56,-85.99 160.09,-91.32"/>
</a>
</g>
</g>
<!-- Node4 -->
<g id="Node000004" class="node">
<title>Node4</title>
<g id="a_Node000004"><a xlink:title=" ">
<polygon fill="#e0e0e0" stroke="#999999" points="240.99,-23 184.99,-23 184.99,0 240.99,0 240.99,-23"/>
<text text-anchor="middle" x="212.99" y="-7.8" font-family="Arial" font-size="14.00">cstdint</text>
</a>
</g>
</g>
<!-- Node2&#45;&gt;Node4 -->
<g id="edge5_Node000002_Node000004" class="edge">
<title>Node2&#45;&gt;Node4</title>
<g id="a_edge5_Node000002_Node000004"><a xlink:title=" ">
<path fill="none" stroke="#63b8ff" d="M71.66,-118.92C33.16,-107.67 -16.65,-86.94 5.99,-59 52.62,-1.46 97.21,-38.23 174.64,-22.98"/>
<polygon fill="#63b8ff" stroke="#63b8ff" points="175.76,-26.32 184.76,-20.72 174.24,-19.48 175.76,-26.32"/>
</a>
</g>
</g>
<!-- Node6 -->
<g id="Node000006" class="node">
<title>Node6</title>
<g id="a_Node000006"><a xlink:title=" ">
<polygon fill="#e0e0e0" stroke="#999999" points="98.99,-82 14.99,-82 14.99,-59 98.99,-59 98.99,-82"/>
<text text-anchor="middle" x="56.99" y="-66.8" font-family="Arial" font-size="14.00">string_view</text>
</a>
</g>
</g>
<!-- Node2&#45;&gt;Node6 -->
<g id="edge6_Node000002_Node000006" class="edge">
<title>Node2&#45;&gt;Node6</title>
<g id="a_edge6_Node000002_Node000006"><a xlink:title=" ">
<path fill="none" stroke="#63b8ff" d="M100.83,-117.78C93.29,-109.82 82.83,-98.77 74.01,-89.47"/>
<polygon fill="#63b8ff" stroke="#63b8ff" points="76.52,-87.03 67.1,-82.17 71.44,-91.84 76.52,-87.03"/>
</a>
</g>
</g>
<!-- Node3&#45;&gt;Node4 -->
<g id="edge3_Node000003_Node000004" class="edge">
<title>Node3&#45;&gt;Node4</title>
<g id="a_edge3_Node000003_Node000004"><a xlink:title=" ">
<path fill="none" stroke="#63b8ff" d="M184.57,-58.78C189.21,-51.22 195.57,-40.87 201.09,-31.88"/>
<polygon fill="#63b8ff" stroke="#63b8ff" points="204.18,-33.53 206.43,-23.17 198.22,-29.86 204.18,-33.53"/>
</a>
</g>
</g>
<!-- Node5 -->
<g id="Node000005" class="node">
<title>Node5</title>
<g id="a_Node000005"><a xlink:title=" ">
<polygon fill="#e0e0e0" stroke="#999999" points="166.99,-23 118.99,-23 118.99,0 166.99,0 166.99,-23"/>
<text text-anchor="middle" x="142.99" y="-7.8" font-family="Arial" font-size="14.00">limits</text>
</a>
</g>
</g>
<!-- Node3&#45;&gt;Node5 -->
<g id="edge4_Node000003_Node000005" class="edge">
<title>Node3&#45;&gt;Node5</title>
<g id="a_edge4_Node000003_Node000005"><a xlink:title=" ">
<path fill="none" stroke="#63b8ff" d="M171.4,-58.78C166.76,-51.22 160.41,-40.87 154.89,-31.88"/>
<polygon fill="#63b8ff" stroke="#63b8ff" points="157.76,-29.86 149.54,-23.17 151.79,-33.53 157.76,-29.86"/>
</a>
</g>
</g>
<!-- Node7&#45;&gt;Node3 -->
<g id="edge8_Node000007_Node000003" class="edge">
<title>Node7&#45;&gt;Node3</title>
<g id="a_edge8_Node000007_Node000003"><a xlink:title=" ">
<path fill="none" stroke="#63b8ff" d="M213.71,-117.78C207.75,-110.06 199.55,-99.43 192.51,-90.31"/>
<polygon fill="#63b8ff" stroke="#63b8ff" points="195.11,-87.95 186.23,-82.17 189.57,-92.23 195.11,-87.95"/>
</a>
</g>
</g>
<!-- Node7&#45;&gt;Node4 -->
<g id="edge9_Node000007_Node000004" class="edge">
<title>Node7&#45;&gt;Node4</title>
<g id="a_edge9_Node000007_Node000004"><a xlink:title=" ">
<path fill="none" stroke="#63b8ff" d="M230.82,-117.75C240.86,-104.16 255.01,-80.02 247.99,-59 244.52,-48.62 237.71,-38.69 231.02,-30.7"/>
<polygon fill="#63b8ff" stroke="#63b8ff" points="233.51,-28.24 224.23,-23.13 228.3,-32.91 233.51,-28.24"/>
</a>
</g>
</g>
<!-- Node8 -->
<g id="Node000008" class="node">
<title>Node8</title>
<g id="a_Node000008"><a xlink:title=" ">
<polygon fill="#e0e0e0" stroke="#999999" points="354.99,-82 294.99,-82 294.99,-59 354.99,-59 354.99,-82"/>
<text text-anchor="middle" x="324.99" y="-66.8" font-family="Arial" font-size="14.00">cstddef</text>
</a>
</g>
</g>
<!-- Node7&#45;&gt;Node8 -->
<g id="edge10_Node000007_Node000008" class="edge">
<title>Node7&#45;&gt;Node8</title>
<g id="a_edge10_Node000007_Node000008"><a xlink:title=" ">
<path fill="none" stroke="#63b8ff" d="M241.36,-117.78C256.9,-109.18 278.93,-96.99 296.48,-87.28"/>
<polygon fill="#63b8ff" stroke="#63b8ff" points="298.65,-90.08 305.7,-82.17 295.26,-83.95 298.65,-90.08"/>
</a>
</g>
</g>
</g>
</svg>
