<?xml version="1.0" encoding="UTF-8" standalone="no"?>
<!DOCTYPE svg PUBLIC "-//W3C//DTD SVG 1.1//EN"
 "http://www.w3.org/Graphics/SVG/1.1/DTD/svg11.dtd">
<!-- Generated by graphviz version 2.43.0 (0)
 -->
<!-- Title: src/mcu/stm32/StmTemperature.cpp Pages: 1 -->
<svg width="363pt" height="267pt"
 viewBox="0.00 0.00 362.58 267.00" xmlns="http://www.w3.org/2000/svg" xmlns:xlink="http://www.w3.org/1999/xlink">
<g id="graph0" class="graph" transform="scale(1 1) rotate(0) translate(4 263)">
<title>src/mcu/stm32/StmTemperature.cpp</title>
<!-- Node1 -->
<g id="Node000001" class="node">
<title>Node1</title>
<g id="a_Node000001"><a xlink:title="STM32 Temperature sensor implementation — ADC&#45;based with internal/external modes.">
<polygon fill="#999999" stroke="#666666" points="334.58,-259 98.58,-259 98.58,-236 334.58,-236 334.58,-259"/>
<text text-anchor="middle" x="216.58" y="-243.8" font-family="Arial" font-size="14.00">src/mcu/stm32/StmTemperature.cpp</text>
</a>
</g>
</g>
<!-- Node2 -->
<g id="Node000002" class="node">
<title>Node2</title>
<g id="a_Node000002"><a xlink:href="StmTemperature_8h.html" target="_top" xlink:title="STM32 Temperature sensor — reads the internal temp sensor via ADC or an external sensor via a user&#45;su...">
<polygon fill="white" stroke="#666666" points="226.08,-200 97.08,-200 97.08,-177 226.08,-177 226.08,-200"/>
<text text-anchor="middle" x="161.58" y="-184.8" font-family="Arial" font-size="14.00">StmTemperature.h</text>
</a>
</g>
</g>
<!-- Node1&#45;&gt;Node2 -->
<g id="edge1_Node000001_Node000002" class="edge">
<title>Node1&#45;&gt;Node2</title>
<g id="a_edge1_Node000001_Node000002"><a xlink:title=" ">
<path fill="none" stroke="#63b8ff" d="M206.24,-235.78C198.55,-227.82 187.9,-216.77 178.92,-207.47"/>
<polygon fill="#63b8ff" stroke="#63b8ff" points="181.34,-204.94 171.88,-200.17 176.3,-209.8 181.34,-204.94"/>
</a>
</g>
</g>
<!-- Node10 -->
<g id="Node000010" class="node">
<title>Node10</title>
<g id="a_Node000010"><a xlink:title=" ">
<polygon fill="#e0e0e0" stroke="#999999" points="300.58,-200 244.58,-200 244.58,-177 300.58,-177 300.58,-200"/>
<text text-anchor="middle" x="272.58" y="-184.8" font-family="Arial" font-size="14.00">cstring</text>
</a>
</g>
</g>
<!-- Node1&#45;&gt;Node10 -->
<g id="edge12_Node000001_Node000010" class="edge">
<title>Node1&#45;&gt;Node10</title>
<g id="a_edge12_Node000001_Node000010"><a xlink:title=" ">
<path fill="none" stroke="#63b8ff" d="M227.11,-235.78C234.94,-227.82 245.78,-216.77 254.92,-207.47"/>
<polygon fill="#63b8ff" stroke="#63b8ff" points="257.58,-209.76 262.09,-200.17 252.59,-204.85 257.58,-209.76"/>
</a>
</g>
</g>
<!-- Node3 -->
<g id="Node000003" class="node">
<title>Node3</title>
<g id="a_Node000003"><a xlink:href="BaseTemperature_8h.html" target="_top" xlink:title="Abstract base class for temperature sensor implementations in the HardFOC system.">
<polygon fill="white" stroke="#666666" points="164.08,-141 29.08,-141 29.08,-118 164.08,-118 164.08,-141"/>
<text text-anchor="middle" x="96.58" y="-125.8" font-family="Arial" font-size="14.00">BaseTemperature.h</text>
</a>
</g>
</g>
<!-- Node2&#45;&gt;Node3 -->
<g id="edge2_Node000002_Node000003" class="edge">
<title>Node2&#45;&gt;Node3</title>
<g id="a_edge2_Node000002_Node000003"><a xlink:title=" ">
<path fill="none" stroke="#63b8ff" d="M149.35,-176.78C140.09,-168.66 127.18,-157.33 116.44,-147.92"/>
<polygon fill="#63b8ff" stroke="#63b8ff" points="118.58,-145.13 108.75,-141.17 113.96,-150.4 118.58,-145.13"/>
</a>
</g>
</g>
<!-- Node8 -->
<g id="Node000008" class="node">
<title>Node8</title>
<g id="a_Node000008"><a xlink:href="StmTypes_8h.html" target="_top" xlink:title="STM32 platform&#45;specific type definitions for hardware abstraction.">
<polygon fill="white" stroke="#666666" points="291.08,-141 202.08,-141 202.08,-118 291.08,-118 291.08,-141"/>
<text text-anchor="middle" x="246.58" y="-125.8" font-family="Arial" font-size="14.00">StmTypes.h</text>
</a>
</g>
</g>
<!-- Node2&#45;&gt;Node8 -->
<g id="edge8_Node000002_Node000008" class="edge">
<title>Node2&#45;&gt;Node8</title>
<g id="a_edge8_Node000002_Node000008"><a xlink:title=" ">
<path fill="none" stroke="#63b8ff" d="M177.57,-176.78C190.15,-168.34 207.9,-156.44 222.25,-146.82"/>
<polygon fill="#63b8ff" stroke="#63b8ff" points="224.31,-149.65 230.66,-141.17 220.41,-143.84 224.31,-149.65"/>
</a>
</g>
</g>
<!-- Node4 -->
<g id="Node000004" class="node">
<title>Node4</title>
<g id="a_Node000004"><a xlink:href="HardwareTypes_8h.html" target="_top" xlink:title="Platform&#45;agnostic hardware type definitions for the HardFOC system.">
<polygon fill="white" stroke="#666666" points="238.58,-82 116.58,-82 116.58,-59 238.58,-59 238.58,-82"/>
<text text-anchor="middle" x="177.58" y="-66.8" font-family="Arial" font-size="14.00">HardwareTypes.h</text>
</a>
</g>
</g>
<!-- Node3&#45;&gt;Node4 -->
<g id="edge3_Node000003_Node000004" class="edge">
<title>Node3&#45;&gt;Node4</title>
<g id="a_edge3_Node000003_Node000004"><a xlink:title=" ">
<path fill="none" stroke="#63b8ff" d="M111.82,-117.78C123.7,-109.42 140.4,-97.66 154,-88.09"/>
<polygon fill="#63b8ff" stroke="#63b8ff" points="156.25,-90.79 162.41,-82.17 152.22,-85.07 156.25,-90.79"/>
</a>
</g>
</g>
<!-- Node5 -->
<g id="Node000005" class="node">
<title>Node5</title>
<g id="a_Node000005"><a xlink:title=" ">
<polygon fill="#e0e0e0" stroke="#999999" points="240.58,-23 184.58,-23 184.58,0 240.58,0 240.58,-23"/>
<text text-anchor="middle" x="212.58" y="-7.8" font-family="Arial" font-size="14.00">cstdint</text>
</a>
</g>
</g>
<!-- Node3&#45;&gt;Node5 -->
<g id="edge6_Node000003_Node000005" class="edge">
<title>Node3&#45;&gt;Node5</title>
<g id="a_edge6_Node000003_Node000005"><a xlink:title=" ">
<path fill="none" stroke="#63b8ff" d="M62.12,-117.95C28.44,-105.86 -15.01,-84.41 5.58,-59 52.21,-1.46 96.8,-38.23 174.23,-22.98"/>
<polygon fill="#63b8ff" stroke="#63b8ff" points="175.35,-26.32 184.35,-20.72 173.83,-19.48 175.35,-26.32"/>
</a>
</g>
</g>
<!-- Node7 -->
<g id="Node000007" class="node">
<title>Node7</title>
<g id="a_Node000007"><a xlink:title=" ">
<polygon fill="#e0e0e0" stroke="#999999" points="98.58,-82 14.58,-82 14.58,-59 98.58,-59 98.58,-82"/>
<text text-anchor="middle" x="56.58" y="-66.8" font-family="Arial" font-size="14.00">string_view</text>
</a>
</g>
</g>
<!-- Node3&#45;&gt;Node7 -->
<g id="edge7_Node000003_Node000007" class="edge">
<title>Node3&#45;&gt;Node7</title>
<g id="a_edge7_Node000003_Node000007"><a xlink:title=" ">
<path fill="none" stroke="#63b8ff" d="M89.06,-117.78C83.69,-110.14 76.34,-99.65 69.98,-90.6"/>
<polygon fill="#63b8ff" stroke="#63b8ff" points="72.68,-88.35 64.07,-82.17 66.95,-92.37 72.68,-88.35"/>
</a>
</g>
</g>
<!-- Node4&#45;&gt;Node5 -->
<g id="edge4_Node000004_Node000005" class="edge">
<title>Node4&#45;&gt;Node5</title>
<g id="a_edge4_Node000004_Node000005"><a xlink:title=" ">
<path fill="none" stroke="#63b8ff" d="M184.16,-58.78C188.81,-51.22 195.16,-40.87 200.68,-31.88"/>
<polygon fill="#63b8ff" stroke="#63b8ff" points="203.78,-33.53 206.03,-23.17 197.81,-29.86 203.78,-33.53"/>
</a>
</g>
</g>
<!-- Node6 -->
<g id="Node000006" class="node">
<title>Node6</title>
<g id="a_Node000006"><a xlink:title=" ">
<polygon fill="#e0e0e0" stroke="#999999" points="166.58,-23 118.58,-23 118.58,0 166.58,0 166.58,-23"/>
<text text-anchor="middle" x="142.58" y="-7.8" font-family="Arial" font-size="14.00">limits</text>
</a>
</g>
</g>
<!-- Node4&#45;&gt;Node6 -->
<g id="edge5_Node000004_Node000006" class="edge">
<title>Node4&#45;&gt;Node6</title>
<g id="a_edge5_Node000004_Node000006"><a xlink:title=" ">
<path fill="none" stroke="#63b8ff" d="M171,-58.78C166.35,-51.22 160,-40.87 154.48,-31.88"/>
<polygon fill="#63b8ff" stroke="#63b8ff" points="157.35,-29.86 149.13,-23.17 151.38,-33.53 157.35,-29.86"/>
</a>
</g>
</g>
<!-- Node8&#45;&gt;Node4 -->
<g id="edge9_Node000008_Node000004" class="edge">
<title>Node8&#45;&gt;Node4</title>
<g id="a_edge9_Node000008_Node000004"><a xlink:title=" ">
<path fill="none" stroke="#63b8ff" d="M233.6,-117.78C223.68,-109.58 209.79,-98.11 198.33,-88.64"/>
<polygon fill="#63b8ff" stroke="#63b8ff" points="200.44,-85.84 190.5,-82.17 195.98,-91.24 200.44,-85.84"/>
</a>
</g>
</g>
<!-- Node8&#45;&gt;Node5 -->
<g id="edge10_Node000008_Node000005" class="edge">
<title>Node8&#45;&gt;Node5</title>
<g id="a_edge10_Node000008_Node000005"><a xlink:title=" ">
<path fill="none" stroke="#63b8ff" d="M248.87,-117.81C251.38,-103.86 254.24,-78.91 247.58,-59 244.11,-48.62 237.31,-38.69 230.61,-30.7"/>
<polygon fill="#63b8ff" stroke="#63b8ff" points="233.11,-28.24 223.82,-23.13 227.89,-32.91 233.11,-28.24"/>
</a>
</g>
</g>
<!-- Node9 -->
<g id="Node000009" class="node">
<title>Node9</title>
<g id="a_Node000009"><a xlink:title=" ">
<polygon fill="#e0e0e0" stroke="#999999" points="354.58,-82 294.58,-82 294.58,-59 354.58,-59 354.58,-82"/>
<text text-anchor="middle" x="324.58" y="-66.8" font-family="Arial" font-size="14.00">cstddef</text>
</a>
</g>
</g>
<!-- Node8&#45;&gt;Node9 -->
<g id="edge11_Node000008_Node000009" class="edge">
<title>Node8&#45;&gt;Node9</title>
<g id="a_edge11_Node000008_Node000009"><a xlink:title=" ">
<path fill="none" stroke="#63b8ff" d="M261.25,-117.78C272.69,-109.42 288.78,-97.66 301.88,-88.09"/>
<polygon fill="#63b8ff" stroke="#63b8ff" points="303.97,-90.9 309.97,-82.17 299.84,-85.25 303.97,-90.9"/>
</a>
</g>
</g>
</g>
</svg>
