<?xml version="1.0" encoding="UTF-8" standalone="no"?>
<!DOCTYPE svg PUBLIC "-//W3C//DTD SVG 1.1//EN"
 "http://www.w3.org/Graphics/SVG/1.1/DTD/svg11.dtd">
<!-- Generated by graphviz version 2.43.0 (0)
 -->
<!-- Title: inc/mcu/stm32/StmTemperature.h Pages: 1 -->
<svg width="362pt" height="208pt"
 viewBox="0.00 0.00 362.13 208.00" xmlns="http://www.w3.org/2000/svg" xmlns:xlink="http://www.w3.org/1999/xlink">
<g id="graph0" class="graph" transform="scale(1 1) rotate(0) translate(4 204)">
<title>inc/mcu/stm32/StmTemperature.h</title>
<!-- Node1 -->
<g id="Node000001" class="node">
<title>Node1</title>
<g id="a_Node000001"><a xlink:title="STM32 Temperature sensor — reads the internal temp sensor via ADC or an external sensor via a user&#45;su...">
<polygon fill="#999999" stroke="#666666" points="271.63,-200 50.63,-200 50.63,-177 271.63,-177 271.63,-200"/>
<text text-anchor="middle" x="161.13" y="-184.8" font-family="Arial" font-size="14.00">inc/mcu/stm32/StmTemperature.h</text>
</a>
</g>
</g>
<!-- Node2 -->
<g id="Node000002" class="node">
<title>Node2</title>
<g id="a_Node000002"><a xlink:href="BaseTemperature_8h.html" target="_top" xlink:title="Abstract base class for temperature sensor implementations in the HardFOC system.">
<polygon fill="white" stroke="#666666" points="143.63,-141 8.63,-141 8.63,-118 143.63,-118 143.63,-141"/>
<text text-anchor="middle" x="76.13" y="-125.8" font-family="Arial" font-size="14.00">BaseTemperature.h</text>
</a>
</g>
</g>
<!-- Node1&#45;&gt;Node2 -->
<g id="edge1_Node000001_Node000002" class="edge">
<title>Node1&#45;&gt;Node2</title>
<g id="a_edge1_Node000001_Node000002"><a xlink:title=" ">
<path fill="none" stroke="#63b8ff" d="M145.14,-176.78C132.55,-168.34 114.81,-156.44 100.46,-146.82"/>
<polygon fill="#63b8ff" stroke="#63b8ff" points="102.3,-143.84 92.04,-141.17 98.4,-149.65 102.3,-143.84"/>
</a>
</g>
</g>
<!-- Node7 -->
<g id="Node000007" class="node">
<title>Node7</title>
<g id="a_Node000007"><a xlink:href="StmTypes_8h.html" target="_top" xlink:title="STM32 platform&#45;specific type definitions for hardware abstraction.">
<polygon fill="white" stroke="#666666" points="290.63,-141 201.63,-141 201.63,-118 290.63,-118 290.63,-141"/>
<text text-anchor="middle" x="246.13" y="-125.8" font-family="Arial" font-size="14.00">StmTypes.h</text>
</a>
</g>
</g>
<!-- Node1&#45;&gt;Node7 -->
<g id="edge7_Node000001_Node000007" class="edge">
<title>Node1&#45;&gt;Node7</title>
<g id="a_edge7_Node000001_Node000007"><a xlink:title=" ">
<path fill="none" stroke="#63b8ff" d="M177.12,-176.78C189.7,-168.34 207.45,-156.44 221.79,-146.82"/>
<polygon fill="#63b8ff" stroke="#63b8ff" points="223.86,-149.65 230.21,-141.17 219.96,-143.84 223.86,-149.65"/>
</a>
</g>
</g>
<!-- Node3 -->
<g id="Node000003" class="node">
<title>Node3</title>
<g id="a_Node000003"><a xlink:href="HardwareTypes_8h.html" target="_top" xlink:title="Platform&#45;agnostic hardware type definitions for the HardFOC system.">
<polygon fill="white" stroke="#666666" points="238.13,-82 116.13,-82 116.13,-59 238.13,-59 238.13,-82"/>
<text text-anchor="middle" x="177.13" y="-66.8" font-family="Arial" font-size="14.00">HardwareTypes.h</text>
</a>
</g>
</g>
<!-- Node2&#45;&gt;Node3 -->
<g id="edge2_Node000002_Node000003" class="edge">
<title>Node2&#45;&gt;Node3</title>
<g id="a_edge2_Node000002_Node000003"><a xlink:title=" ">
<path fill="none" stroke="#63b8ff" d="M95.12,-117.78C110.36,-109.18 131.97,-96.99 149.18,-87.28"/>
<polygon fill="#63b8ff" stroke="#63b8ff" points="151.23,-90.14 158.22,-82.17 147.79,-84.04 151.23,-90.14"/>
</a>
</g>
</g>
<!-- Node4 -->
<g id="Node000004" class="node">
<title>Node4</title>
<g id="a_Node000004"><a xlink:title=" ">
<polygon fill="#e0e0e0" stroke="#999999" points="240.13,-23 184.13,-23 184.13,0 240.13,0 240.13,-23"/>
<text text-anchor="middle" x="212.13" y="-7.8" font-family="Arial" font-size="14.00">cstdint</text>
</a>
</g>
</g>
<!-- Node2&#45;&gt;Node4 -->
<g id="edge5_Node000002_Node000004" class="edge">
<title>Node2&#45;&gt;Node4</title>
<g id="a_edge5_Node000002_Node000004"><a xlink:title=" ">
<path fill="none" stroke="#63b8ff" d="M51.22,-117.95C24.03,-104.95 -13.34,-81.78 5.13,-59 51.76,-1.46 96.35,-38.23 173.78,-22.98"/>
<polygon fill="#63b8ff" stroke="#63b8ff" points="174.9,-26.32 183.9,-20.72 173.38,-19.48 174.9,-26.32"/>
</a>
</g>
</g>
<!-- Node6 -->
<g id="Node000006" class="node">
<title>Node6</title>
<g id="a_Node000006"><a xlink:title=" ">
<polygon fill="#e0e0e0" stroke="#999999" points="98.13,-82 14.13,-82 14.13,-59 98.13,-59 98.13,-82"/>
<text text-anchor="middle" x="56.13" y="-66.8" font-family="Arial" font-size="14.00">string_view</text>
</a>
</g>
</g>
<!-- Node2&#45;&gt;Node6 -->
<g id="edge6_Node000002_Node000006" class="edge">
<title>Node2&#45;&gt;Node6</title>
<g id="a_edge6_Node000002_Node000006"><a xlink:title=" ">
<path fill="none" stroke="#63b8ff" d="M72.37,-117.78C69.8,-110.45 66.31,-100.52 63.23,-91.74"/>
<polygon fill="#63b8ff" stroke="#63b8ff" points="66.49,-90.45 59.87,-82.17 59.88,-92.77 66.49,-90.45"/>
</a>
</g>
</g>
<!-- Node3&#45;&gt;Node4 -->
<g id="edge3_Node000003_Node000004" class="edge">
<title>Node3&#45;&gt;Node4</title>
<g id="a_edge3_Node000003_Node000004"><a xlink:title=" ">
<path fill="none" stroke="#63b8ff" d="M183.71,-58.78C188.35,-51.22 194.71,-40.87 200.23,-31.88"/>
<polygon fill="#63b8ff" stroke="#63b8ff" points="203.32,-33.53 205.57,-23.17 197.36,-29.86 203.32,-33.53"/>
</a>
</g>
</g>
<!-- Node5 -->
<g id="Node000005" class="node">
<title>Node5</title>
<g id="a_Node000005"><a xlink:title=" ">
<polygon fill="#e0e0e0" stroke="#999999" points="166.13,-23 118.13,-23 118.13,0 166.13,0 166.13,-23"/>
<text text-anchor="middle" x="142.13" y="-7.8" font-family="Arial" font-size="14.00">limits</text>
</a>
</g>
</g>
<!-- Node3&#45;&gt;Node5 -->
<g id="edge4_Node000003_Node000005" class="edge">
<title>Node3&#45;&gt;Node5</title>
<g id="a_edge4_Node000003_Node000005"><a xlink:title=" ">
<path fill="none" stroke="#63b8ff" d="M170.54,-58.78C165.9,-51.22 159.55,-40.87 154.03,-31.88"/>
<polygon fill="#63b8ff" stroke="#63b8ff" points="156.9,-29.86 148.68,-23.17 150.93,-33.53 156.9,-29.86"/>
</a>
</g>
</g>
<!-- Node7&#45;&gt;Node3 -->
<g id="edge8_Node000007_Node000003" class="edge">
<title>Node7&#45;&gt;Node3</title>
<g id="a_edge8_Node000007_Node000003"><a xlink:title=" ">
<path fill="none" stroke="#63b8ff" d="M233.15,-117.78C223.22,-109.58 209.34,-98.11 197.87,-88.64"/>
<polygon fill="#63b8ff" stroke="#63b8ff" points="199.99,-85.84 190.05,-82.17 195.53,-91.24 199.99,-85.84"/>
</a>
</g>
</g>
<!-- Node7&#45;&gt;Node4 -->
<g id="edge9_Node000007_Node000004" class="edge">
<title>Node7&#45;&gt;Node4</title>
<g id="a_edge9_Node000007_Node000004"><a xlink:title=" ">
<path fill="none" stroke="#63b8ff" d="M248.42,-117.81C250.93,-103.86 253.78,-78.91 247.13,-59 243.66,-48.62 236.85,-38.69 230.16,-30.7"/>
<polygon fill="#63b8ff" stroke="#63b8ff" points="232.65,-28.24 223.37,-23.13 227.44,-32.91 232.65,-28.24"/>
</a>
</g>
</g>
<!-- Node8 -->
<g id="Node000008" class="node">
<title>Node8</title>
<g id="a_Node000008"><a xlink:title=" ">
<polygon fill="#e0e0e0" stroke="#999999" points="354.13,-82 294.13,-82 294.13,-59 354.13,-59 354.13,-82"/>
<text text-anchor="middle" x="324.13" y="-66.8" font-family="Arial" font-size="14.00">cstddef</text>
</a>
</g>
</g>
<!-- Node7&#45;&gt;Node8 -->
<g id="edge10_Node000007_Node000008" class="edge">
<title>Node7&#45;&gt;Node8</title>
<g id="a_edge10_Node000007_Node000008"><a xlink:title=" ">
<path fill="none" stroke="#63b8ff" d="M260.8,-117.78C272.24,-109.42 288.33,-97.66 301.43,-88.09"/>
<polygon fill="#63b8ff" stroke="#63b8ff" points="303.51,-90.9 309.52,-82.17 299.38,-85.25 303.51,-90.9"/>
</a>
</g>
</g>
</g>
</svg>
