<?xml version="1.0" encoding="UTF-8" standalone="no"?>
<!DOCTYPE svg PUBLIC "-//W3C//DTD SVG 1.1//EN"
 "http://www.w3.org/Graphics/SVG/1.1/DTD/svg11.dtd">
<!-- Generated by graphviz version 2.43.0 (0)
 -->
<!-- Title: src/mcu/stm32/StmUart.cpp Pages: 1 -->
<svg width="578pt" height="267pt"
 viewBox="0.00 0.00 577.50 267.00" xmlns="http://www.w3.org/2000/svg" xmlns:xlink="http://www.w3.org/1999/xlink">
<g id="graph0" class="graph" transform="scale(1 1) rotate(0) translate(4 263)">
<title>src/mcu/stm32/StmUart.cpp</title>
<!-- Node1 -->
<g id="Node000001" class="node">
<title>Node1</title>
<g id="a_Node000001"><a xlink:title="STM32 UART implementation — blocking TX/RX with optional ring buffer.">
<polygon fill="#999999" stroke="#666666" points="529.5,-259 344.5,-259 344.5,-236 529.5,-236 529.5,-259"/>
<text text-anchor="middle" x="437" y="-243.8" font-family="Arial" font-size="14.00">src/mcu/stm32/StmUart.cpp</text>
</a>
</g>
</g>
<!-- Node2 -->
<g id="Node000002" class="node">
<title>Node2</title>
<g id="a_Node000002"><a xlink:href="StmUart_8h.html" target="_top" xlink:title="STM32 UART wrapper — wraps UART_HandleTypeDef for BaseUart interface.">
<polygon fill="white" stroke="#666666" points="351,-200 273,-200 273,-177 351,-177 351,-200"/>
<text text-anchor="middle" x="312" y="-184.8" font-family="Arial" font-size="14.00">StmUart.h</text>
</a>
</g>
</g>
<!-- Node1&#45;&gt;Node2 -->
<g id="edge1_Node000001_Node000002" class="edge">
<title>Node1&#45;&gt;Node2</title>
<g id="a_edge1_Node000001_Node000002"><a xlink:title=" ">
<path fill="none" stroke="#63b8ff" d="M413.78,-235.91C394.22,-226.99 366.04,-214.14 344.28,-204.22"/>
<polygon fill="#63b8ff" stroke="#63b8ff" points="345.65,-201 335.09,-200.03 342.74,-207.36 345.65,-201"/>
</a>
</g>
</g>
<!-- Node7 -->
<g id="Node000007" class="node">
<title>Node7</title>
<g id="a_Node000007"><a xlink:title=" ">
<polygon fill="#e0e0e0" stroke="#999999" points="452,-82 396,-82 396,-59 452,-59 452,-82"/>
<text text-anchor="middle" x="424" y="-66.8" font-family="Arial" font-size="14.00">cstring</text>
</a>
</g>
</g>
<!-- Node1&#45;&gt;Node7 -->
<g id="edge15_Node000001_Node000007" class="edge">
<title>Node1&#45;&gt;Node7</title>
<g id="a_edge15_Node000001_Node000007"><a xlink:title=" ">
<path fill="none" stroke="#63b8ff" d="M434.76,-235.84C432.88,-226.45 430.3,-212.38 429,-200 425.04,-162.26 424.13,-117.99 423.97,-92.5"/>
<polygon fill="#63b8ff" stroke="#63b8ff" points="427.47,-92.19 423.94,-82.2 420.47,-92.21 427.47,-92.19"/>
</a>
</g>
</g>
<!-- Node11 -->
<g id="Node000011" class="node">
<title>Node11</title>
<g id="a_Node000011"><a xlink:title=" ">
<polygon fill="#e0e0e0" stroke="#999999" points="490,-200 438,-200 438,-177 490,-177 490,-200"/>
<text text-anchor="middle" x="464" y="-184.8" font-family="Arial" font-size="14.00">cstdio</text>
</a>
</g>
</g>
<!-- Node1&#45;&gt;Node11 -->
<g id="edge13_Node000001_Node000011" class="edge">
<title>Node1&#45;&gt;Node11</title>
<g id="a_edge13_Node000001_Node000011"><a xlink:title=" ">
<path fill="none" stroke="#63b8ff" d="M442.08,-235.78C445.59,-228.37 450.36,-218.3 454.55,-209.45"/>
<polygon fill="#63b8ff" stroke="#63b8ff" points="457.83,-210.71 458.94,-200.17 451.5,-207.71 457.83,-210.71"/>
</a>
</g>
</g>
<!-- Node12 -->
<g id="Node000012" class="node">
<title>Node12</title>
<g id="a_Node000012"><a xlink:title=" ">
<polygon fill="#e0e0e0" stroke="#999999" points="569.5,-200 508.5,-200 508.5,-177 569.5,-177 569.5,-200"/>
<text text-anchor="middle" x="539" y="-184.8" font-family="Arial" font-size="14.00">cstdarg</text>
</a>
</g>
</g>
<!-- Node1&#45;&gt;Node12 -->
<g id="edge14_Node000001_Node000012" class="edge">
<title>Node1&#45;&gt;Node12</title>
<g id="a_edge14_Node000001_Node000012"><a xlink:title=" ">
<path fill="none" stroke="#63b8ff" d="M456.19,-235.78C471.57,-227.18 493.39,-214.99 510.77,-205.28"/>
<polygon fill="#63b8ff" stroke="#63b8ff" points="512.88,-208.11 519.9,-200.17 509.46,-202 512.88,-208.11"/>
</a>
</g>
</g>
<!-- Node3 -->
<g id="Node000003" class="node">
<title>Node3</title>
<g id="a_Node000003"><a xlink:href="BaseUart_8h.html" target="_top" xlink:title="Abstract base class for UART driver implementations in the HardFOC system.">
<polygon fill="white" stroke="#666666" points="354,-141 270,-141 270,-118 354,-118 354,-141"/>
<text text-anchor="middle" x="312" y="-125.8" font-family="Arial" font-size="14.00">BaseUart.h</text>
</a>
</g>
</g>
<!-- Node2&#45;&gt;Node3 -->
<g id="edge2_Node000002_Node000003" class="edge">
<title>Node2&#45;&gt;Node3</title>
<g id="a_edge2_Node000002_Node000003"><a xlink:title=" ">
<path fill="none" stroke="#63b8ff" d="M312,-176.78C312,-169.61 312,-159.95 312,-151.31"/>
<polygon fill="#63b8ff" stroke="#63b8ff" points="315.5,-151.17 312,-141.17 308.5,-151.17 315.5,-151.17"/>
</a>
</g>
</g>
<!-- Node9 -->
<g id="Node000009" class="node">
<title>Node9</title>
<g id="a_Node000009"><a xlink:href="StmTypes_8h.html" target="_top" xlink:title="STM32 platform&#45;specific type definitions for hardware abstraction.">
<polygon fill="white" stroke="#666666" points="177.5,-141 88.5,-141 88.5,-118 177.5,-118 177.5,-141"/>
<text text-anchor="middle" x="133" y="-125.8" font-family="Arial" font-size="14.00">StmTypes.h</text>
</a>
</g>
</g>
<!-- Node2&#45;&gt;Node9 -->
<g id="edge9_Node000002_Node000009" class="edge">
<title>Node2&#45;&gt;Node9</title>
<g id="a_edge9_Node000002_Node000009"><a xlink:title=" ">
<path fill="none" stroke="#63b8ff" d="M278.75,-176.91C249.74,-167.67 207.47,-154.21 175.91,-144.16"/>
<polygon fill="#63b8ff" stroke="#63b8ff" points="176.66,-140.73 166.07,-141.03 174.54,-147.4 176.66,-140.73"/>
</a>
</g>
</g>
<!-- Node4 -->
<g id="Node000004" class="node">
<title>Node4</title>
<g id="a_Node000004"><a xlink:href="HardwareTypes_8h.html" target="_top" xlink:title="Platform&#45;agnostic hardware type definitions for the HardFOC system.">
<polygon fill="white" stroke="#666666" points="238,-82 116,-82 116,-59 238,-59 238,-82"/>
<text text-anchor="middle" x="177" y="-66.8" font-family="Arial" font-size="14.00">HardwareTypes.h</text>
</a>
</g>
</g>
<!-- Node3&#45;&gt;Node4 -->
<g id="edge3_Node000003_Node000004" class="edge">
<title>Node3&#45;&gt;Node4</title>
<g id="a_edge3_Node000003_Node000004"><a xlink:title=" ">
<path fill="none" stroke="#63b8ff" d="M286.92,-117.91C265.61,-108.91 234.81,-95.91 211.23,-85.95"/>
<polygon fill="#63b8ff" stroke="#63b8ff" points="212.52,-82.7 201.94,-82.03 209.79,-89.15 212.52,-82.7"/>
</a>
</g>
</g>
<!-- Node5 -->
<g id="Node000005" class="node">
<title>Node5</title>
<g id="a_Node000005"><a xlink:title=" ">
<polygon fill="#e0e0e0" stroke="#999999" points="170,-23 114,-23 114,0 170,0 170,-23"/>
<text text-anchor="middle" x="142" y="-7.8" font-family="Arial" font-size="14.00">cstdint</text>
</a>
</g>
</g>
<!-- Node3&#45;&gt;Node5 -->
<g id="edge6_Node000003_Node000005" class="edge">
<title>Node3&#45;&gt;Node5</title>
<g id="a_edge6_Node000003_Node000005"><a xlink:title=" ">
<path fill="none" stroke="#63b8ff" d="M325.02,-117.86C340.98,-103.53 364.15,-77.69 349,-59 302.37,-1.46 257.78,-38.23 180.35,-22.98"/>
<polygon fill="#63b8ff" stroke="#63b8ff" points="180.75,-19.48 170.23,-20.72 179.23,-26.32 180.75,-19.48"/>
</a>
</g>
</g>
<!-- Node3&#45;&gt;Node7 -->
<g id="edge7_Node000003_Node000007" class="edge">
<title>Node3&#45;&gt;Node7</title>
<g id="a_edge7_Node000003_Node000007"><a xlink:title=" ">
<path fill="none" stroke="#63b8ff" d="M332.8,-117.91C350.09,-109.11 374.91,-96.49 394.29,-86.62"/>
<polygon fill="#63b8ff" stroke="#63b8ff" points="395.98,-89.69 403.31,-82.03 392.81,-83.45 395.98,-89.69"/>
</a>
</g>
</g>
<!-- Node8 -->
<g id="Node000008" class="node">
<title>Node8</title>
<g id="a_Node000008"><a xlink:title=" ">
<polygon fill="#e0e0e0" stroke="#999999" points="340,-82 256,-82 256,-59 340,-59 340,-82"/>
<text text-anchor="middle" x="298" y="-66.8" font-family="Arial" font-size="14.00">string_view</text>
</a>
</g>
</g>
<!-- Node3&#45;&gt;Node8 -->
<g id="edge8_Node000003_Node000008" class="edge">
<title>Node3&#45;&gt;Node8</title>
<g id="a_edge8_Node000003_Node000008"><a xlink:title=" ">
<path fill="none" stroke="#63b8ff" d="M309.37,-117.78C307.59,-110.53 305.18,-100.74 303.04,-92.02"/>
<polygon fill="#63b8ff" stroke="#63b8ff" points="306.41,-91.05 300.62,-82.17 299.61,-92.72 306.41,-91.05"/>
</a>
</g>
</g>
<!-- Node4&#45;&gt;Node5 -->
<g id="edge4_Node000004_Node000005" class="edge">
<title>Node4&#45;&gt;Node5</title>
<g id="a_edge4_Node000004_Node000005"><a xlink:title=" ">
<path fill="none" stroke="#63b8ff" d="M170.42,-58.78C165.77,-51.22 159.42,-40.87 153.9,-31.88"/>
<polygon fill="#63b8ff" stroke="#63b8ff" points="156.77,-29.86 148.55,-23.17 150.8,-33.53 156.77,-29.86"/>
</a>
</g>
</g>
<!-- Node6 -->
<g id="Node000006" class="node">
<title>Node6</title>
<g id="a_Node000006"><a xlink:title=" ">
<polygon fill="#e0e0e0" stroke="#999999" points="236,-23 188,-23 188,0 236,0 236,-23"/>
<text text-anchor="middle" x="212" y="-7.8" font-family="Arial" font-size="14.00">limits</text>
</a>
</g>
</g>
<!-- Node4&#45;&gt;Node6 -->
<g id="edge5_Node000004_Node000006" class="edge">
<title>Node4&#45;&gt;Node6</title>
<g id="a_edge5_Node000004_Node000006"><a xlink:title=" ">
<path fill="none" stroke="#63b8ff" d="M183.58,-58.78C188.23,-51.22 194.58,-40.87 200.1,-31.88"/>
<polygon fill="#63b8ff" stroke="#63b8ff" points="203.2,-33.53 205.45,-23.17 197.23,-29.86 203.2,-33.53"/>
</a>
</g>
</g>
<!-- Node9&#45;&gt;Node4 -->
<g id="edge10_Node000009_Node000004" class="edge">
<title>Node9&#45;&gt;Node4</title>
<g id="a_edge10_Node000009_Node000004"><a xlink:title=" ">
<path fill="none" stroke="#63b8ff" d="M141.28,-117.78C147.24,-110.06 155.44,-99.43 162.48,-90.31"/>
<polygon fill="#63b8ff" stroke="#63b8ff" points="165.42,-92.23 168.76,-82.17 159.88,-87.95 165.42,-92.23"/>
</a>
</g>
</g>
<!-- Node9&#45;&gt;Node5 -->
<g id="edge11_Node000009_Node000005" class="edge">
<title>Node9&#45;&gt;Node5</title>
<g id="a_edge11_Node000009_Node000005"><a xlink:title=" ">
<path fill="none" stroke="#63b8ff" d="M124.17,-117.75C114.13,-104.16 99.97,-80.02 107,-59 110.47,-48.62 117.27,-38.69 123.97,-30.7"/>
<polygon fill="#63b8ff" stroke="#63b8ff" points="126.69,-32.91 130.76,-23.13 121.47,-28.24 126.69,-32.91"/>
</a>
</g>
</g>
<!-- Node10 -->
<g id="Node000010" class="node">
<title>Node10</title>
<g id="a_Node000010"><a xlink:title=" ">
<polygon fill="#e0e0e0" stroke="#999999" points="60,-82 0,-82 0,-59 60,-59 60,-82"/>
<text text-anchor="middle" x="30" y="-66.8" font-family="Arial" font-size="14.00">cstddef</text>
</a>
</g>
</g>
<!-- Node9&#45;&gt;Node10 -->
<g id="edge12_Node000009_Node000010" class="edge">
<title>Node9&#45;&gt;Node10</title>
<g id="a_edge12_Node000009_Node000010"><a xlink:title=" ">
<path fill="none" stroke="#63b8ff" d="M113.63,-117.78C98.09,-109.18 76.06,-96.99 58.51,-87.28"/>
<polygon fill="#63b8ff" stroke="#63b8ff" points="59.73,-83.95 49.29,-82.17 56.34,-90.08 59.73,-83.95"/>
</a>
</g>
</g>
</g>
</svg>
