<?xml version="1.0" encoding="UTF-8" standalone="no"?>
<!DOCTYPE svg PUBLIC "-//W3C//DTD SVG 1.1//EN"
 "http://www.w3.org/Graphics/SVG/1.1/DTD/svg11.dtd">
<!-- Generated by graphviz version 2.43.0 (0)
 -->
<!-- Title: examples/esp32/main/TemperatureComprehensiveTest.cpp Pages: 1 -->
<svg width="1667pt" height="415pt"
 viewBox="0.00 0.00 1666.50 415.00" xmlns="http://www.w3.org/2000/svg" xmlns:xlink="http://www.w3.org/1999/xlink">
<g id="graph0" class="graph" transform="scale(1 1) rotate(0) translate(4 411)">
<title>examples/esp32/main/TemperatureComprehensiveTest.cpp</title>
<!-- Node1 -->
<g id="Node000001" class="node">
<title>Node1</title>
<g id="a_Node000001"><a xlink:title="Comprehensive Temperature sensor testing suite for ESP32&#45;C6 DevKit&#45;M&#45;1 (noexcept)">
<polygon fill="#999999" stroke="#666666" points="1432.5,-407 1190.5,-407 1190.5,-369 1432.5,-369 1432.5,-407"/>
<text text-anchor="start" x="1198.5" y="-391.8" font-family="Arial" font-size="14.00">examples/esp32/main</text>
<text text-anchor="middle" x="1311.5" y="-376.8" font-family="Arial" font-size="14.00">/TemperatureComprehensiveTest.cpp</text>
</a>
</g>
</g>
<!-- Node2 -->
<g id="Node000002" class="node">
<title>Node2</title>
<g id="a_Node000002"><a xlink:href="TestFramework_8h.html" target="_top" xlink:title="Shared testing framework for ESP32&#45;C6 comprehensive test suites.">
<polygon fill="white" stroke="#666666" points="657,-333 536,-333 536,-310 657,-310 657,-333"/>
<text text-anchor="middle" x="596.5" y="-317.8" font-family="Arial" font-size="14.00">TestFramework.h</text>
</a>
</g>
</g>
<!-- Node1&#45;&gt;Node2 -->
<g id="edge1_Node000001_Node000002" class="edge">
<title>Node1&#45;&gt;Node2</title>
<g id="a_edge1_Node000001_Node000002"><a xlink:title=" ">
<path fill="none" stroke="#63b8ff" d="M1190.21,-376.06C1040.04,-362.51 789.23,-339.89 667.33,-328.89"/>
<polygon fill="#63b8ff" stroke="#63b8ff" points="667.63,-325.4 657.36,-327.99 667,-332.37 667.63,-325.4"/>
</a>
</g>
</g>
<!-- Node20 -->
<g id="Node000020" class="node">
<title>Node20</title>
<g id="a_Node000020"><a xlink:title=" ">
<polygon fill="#e0e0e0" stroke="#999999" points="1479,-82 1422,-82 1422,-59 1479,-59 1479,-82"/>
<text text-anchor="middle" x="1450.5" y="-66.8" font-family="Arial" font-size="14.00">atomic</text>
</a>
</g>
</g>
<!-- Node1&#45;&gt;Node20 -->
<g id="edge45_Node000001_Node000020" class="edge">
<title>Node1&#45;&gt;Node20</title>
<g id="a_edge45_Node000001_Node000020"><a xlink:title=" ">
<path fill="none" stroke="#63b8ff" d="M1349.33,-368.94C1364.79,-359.97 1381.76,-347.84 1393.5,-333 1449.83,-261.75 1447.7,-230.44 1463.5,-141 1466.43,-124.43 1462.49,-105.68 1458.21,-91.84"/>
<polygon fill="#63b8ff" stroke="#63b8ff" points="1461.5,-90.66 1454.97,-82.32 1454.88,-92.92 1461.5,-90.66"/>
</a>
</g>
</g>
<!-- Node22 -->
<g id="Node000022" class="node">
<title>Node22</title>
<g id="a_Node000022"><a xlink:href="BaseTemperature_8h.html" target="_top" xlink:title="Abstract base class for temperature sensor implementations in the HardFOC system.">
<polygon fill="white" stroke="#666666" points="832.5,-141 664.5,-141 664.5,-118 832.5,-118 832.5,-141"/>
<text text-anchor="middle" x="748.5" y="-125.8" font-family="Arial" font-size="14.00">base/BaseTemperature.h</text>
</a>
</g>
</g>
<!-- Node1&#45;&gt;Node22 -->
<g id="edge28_Node000001_Node000022" class="edge">
<title>Node1&#45;&gt;Node22</title>
<g id="a_edge28_Node000001_Node000022"><a xlink:title=" ">
<path fill="none" stroke="#63b8ff" d="M1334.39,-368.76C1369.33,-338.77 1428.32,-278.17 1392.5,-236 1323.1,-154.31 1004.46,-135.74 842.94,-131.61"/>
<polygon fill="#63b8ff" stroke="#63b8ff" points="842.61,-128.11 832.53,-131.36 842.44,-135.1 842.61,-128.11"/>
</a>
</g>
</g>
<!-- Node23 -->
<g id="Node000023" class="node">
<title>Node23</title>
<g id="a_Node000023"><a xlink:href="EspTemperature_8h.html" target="_top" xlink:title="ESP32&#45;C6 internal temperature sensor implementation for the HardFOC system.">
<polygon fill="white" stroke="#666666" points="1234.5,-333 1036.5,-333 1036.5,-310 1234.5,-310 1234.5,-333"/>
<text text-anchor="middle" x="1135.5" y="-317.8" font-family="Arial" font-size="14.00">mcu/esp32/EspTemperature.h</text>
</a>
</g>
</g>
<!-- Node1&#45;&gt;Node23 -->
<g id="edge32_Node000001_Node000023" class="edge">
<title>Node1&#45;&gt;Node23</title>
<g id="a_edge32_Node000001_Node000023"><a xlink:title=" ">
<path fill="none" stroke="#63b8ff" d="M1262.01,-368.86C1234.06,-358.62 1199.66,-346.01 1173.78,-336.53"/>
<polygon fill="#63b8ff" stroke="#63b8ff" points="1174.91,-333.22 1164.32,-333.06 1172.5,-339.79 1174.91,-333.22"/>
</a>
</g>
</g>
<!-- Node3 -->
<g id="Node000003" class="node">
<title>Node3</title>
<g id="a_Node000003"><a xlink:title=" ">
<polygon fill="#e0e0e0" stroke="#999999" points="1015,-266.5 940,-266.5 940,-243.5 1015,-243.5 1015,-266.5"/>
<text text-anchor="middle" x="977.5" y="-251.3" font-family="Arial" font-size="14.00">esp_log.h</text>
</a>
</g>
</g>
<!-- Node2&#45;&gt;Node3 -->
<g id="edge2_Node000002_Node000003" class="edge">
<title>Node2&#45;&gt;Node3</title>
<g id="a_edge2_Node000002_Node000003"><a xlink:title=" ">
<path fill="none" stroke="#63b8ff" d="M657.03,-316.23C724.57,-310.52 836.67,-298.16 930.5,-274 934.69,-272.92 939.01,-271.59 943.27,-270.14"/>
<polygon fill="#63b8ff" stroke="#63b8ff" points="944.77,-273.32 952.96,-266.6 942.37,-266.74 944.77,-273.32"/>
</a>
</g>
</g>
<!-- Node4 -->
<g id="Node000004" class="node">
<title>Node4</title>
<g id="a_Node000004"><a xlink:title=" ">
<polygon fill="#e0e0e0" stroke="#999999" points="640,-266.5 553,-266.5 553,-243.5 640,-243.5 640,-266.5"/>
<text text-anchor="middle" x="596.5" y="-251.3" font-family="Arial" font-size="14.00">esp_timer.h</text>
</a>
</g>
</g>
<!-- Node2&#45;&gt;Node4 -->
<g id="edge3_Node000002_Node000004" class="edge">
<title>Node2&#45;&gt;Node4</title>
<g id="a_edge3_Node000002_Node000004"><a xlink:title=" ">
<path fill="none" stroke="#63b8ff" d="M596.5,-309.85C596.5,-300.94 596.5,-287.96 596.5,-276.98"/>
<polygon fill="#63b8ff" stroke="#63b8ff" points="600,-276.88 596.5,-266.88 593,-276.88 600,-276.88"/>
</a>
</g>
</g>
<!-- Node5 -->
<g id="Node000005" class="node">
<title>Node5</title>
<g id="a_Node000005"><a xlink:title=" ">
<polygon fill="#e0e0e0" stroke="#999999" points="801,-266.5 658,-266.5 658,-243.5 801,-243.5 801,-266.5"/>
<text text-anchor="middle" x="729.5" y="-251.3" font-family="Arial" font-size="14.00">freertos/FreeRTOS.h</text>
</a>
</g>
</g>
<!-- Node2&#45;&gt;Node5 -->
<g id="edge4_Node000002_Node000005" class="edge">
<title>Node2&#45;&gt;Node5</title>
<g id="a_edge4_Node000002_Node000005"><a xlink:title=" ">
<path fill="none" stroke="#63b8ff" d="M618.16,-309.99C640,-299.4 673.9,-282.96 698.56,-271"/>
<polygon fill="#63b8ff" stroke="#63b8ff" points="700.37,-274.01 707.84,-266.5 697.32,-267.72 700.37,-274.01"/>
</a>
</g>
</g>
<!-- Node6 -->
<g id="Node000006" class="node">
<title>Node6</title>
<g id="a_Node000006"><a xlink:title=" ">
<polygon fill="#e0e0e0" stroke="#999999" points="356,-266.5 241,-266.5 241,-243.5 356,-243.5 356,-266.5"/>
<text text-anchor="middle" x="298.5" y="-251.3" font-family="Arial" font-size="14.00">freertos/queue.h</text>
</a>
</g>
</g>
<!-- Node2&#45;&gt;Node6 -->
<g id="edge5_Node000002_Node000006" class="edge">
<title>Node2&#45;&gt;Node6</title>
<g id="a_edge5_Node000002_Node000006"><a xlink:title=" ">
<path fill="none" stroke="#63b8ff" d="M538.85,-309.95C491.98,-301.12 424.24,-287.79 365.5,-274 359.19,-272.52 352.57,-270.87 346.06,-269.18"/>
<polygon fill="#63b8ff" stroke="#63b8ff" points="346.52,-265.68 335.96,-266.51 344.73,-272.45 346.52,-265.68"/>
</a>
</g>
</g>
<!-- Node7 -->
<g id="Node000007" class="node">
<title>Node7</title>
<g id="a_Node000007"><a xlink:title=" ">
<polygon fill="#e0e0e0" stroke="#999999" points="496.5,-266.5 374.5,-266.5 374.5,-243.5 496.5,-243.5 496.5,-266.5"/>
<text text-anchor="middle" x="435.5" y="-251.3" font-family="Arial" font-size="14.00">freertos/semphr.h</text>
</a>
</g>
</g>
<!-- Node2&#45;&gt;Node7 -->
<g id="edge6_Node000002_Node000007" class="edge">
<title>Node2&#45;&gt;Node7</title>
<g id="a_edge6_Node000002_Node000007"><a xlink:title=" ">
<path fill="none" stroke="#63b8ff" d="M570.27,-309.99C543.38,-299.22 501.34,-282.38 471.38,-270.37"/>
<polygon fill="#63b8ff" stroke="#63b8ff" points="472.3,-266.97 461.71,-266.5 469.7,-273.47 472.3,-266.97"/>
</a>
</g>
</g>
<!-- Node8 -->
<g id="Node000008" class="node">
<title>Node8</title>
<g id="a_Node000008"><a xlink:title=" ">
<polygon fill="#e0e0e0" stroke="#999999" points="921.5,-266.5 819.5,-266.5 819.5,-243.5 921.5,-243.5 921.5,-266.5"/>
<text text-anchor="middle" x="870.5" y="-251.3" font-family="Arial" font-size="14.00">freertos/task.h</text>
</a>
</g>
</g>
<!-- Node2&#45;&gt;Node8 -->
<g id="edge7_Node000002_Node000008" class="edge">
<title>Node2&#45;&gt;Node8</title>
<g id="a_edge7_Node000002_Node000008"><a xlink:title=" ">
<path fill="none" stroke="#63b8ff" d="M650.42,-309.99C693.86,-301.23 756.39,-287.97 810.5,-274 815.9,-272.61 821.54,-271.05 827.11,-269.45"/>
<polygon fill="#63b8ff" stroke="#63b8ff" points="828.38,-272.72 836.99,-266.55 826.41,-266.01 828.38,-272.72"/>
</a>
</g>
</g>
<!-- Node9 -->
<g id="Node000009" class="node">
<title>Node9</title>
<g id="a_Node000009"><a xlink:href="HardwareTypes_8h.html" target="_top" xlink:title="Platform&#45;agnostic hardware type definitions for the HardFOC system.">
<polygon fill="white" stroke="#666666" points="580.5,-82 458.5,-82 458.5,-59 580.5,-59 580.5,-82"/>
<text text-anchor="middle" x="519.5" y="-66.8" font-family="Arial" font-size="14.00">HardwareTypes.h</text>
</a>
</g>
</g>
<!-- Node2&#45;&gt;Node9 -->
<g id="edge8_Node000002_Node000009" class="edge">
<title>Node2&#45;&gt;Node9</title>
<g id="a_edge8_Node000002_Node000009"><a xlink:title=" ">
<path fill="none" stroke="#63b8ff" d="M579.24,-309.94C567.39,-301.7 552.42,-289.13 544.5,-274 513.11,-214.01 514.66,-130.72 517.46,-92.36"/>
<polygon fill="#63b8ff" stroke="#63b8ff" points="520.95,-92.64 518.29,-82.38 513.97,-92.05 520.95,-92.64"/>
</a>
</g>
</g>
<!-- Node12 -->
<g id="Node000012" class="node">
<title>Node12</title>
<g id="a_Node000012"><a xlink:href="EspGpio_8h.html" target="_top" xlink:title="Advanced MCU&#45;specific implementation of the unified BaseGpio class with ESP32C6/ESP&#45;IDF v5....">
<polygon fill="white" stroke="#666666" points="223,-266.5 72,-266.5 72,-243.5 223,-243.5 223,-266.5"/>
<text text-anchor="middle" x="147.5" y="-251.3" font-family="Arial" font-size="14.00">mcu/esp32/EspGpio.h</text>
</a>
</g>
</g>
<!-- Node2&#45;&gt;Node12 -->
<g id="edge11_Node000002_Node000012" class="edge">
<title>Node2&#45;&gt;Node12</title>
<g id="a_edge11_Node000002_Node000012"><a xlink:title=" ">
<path fill="none" stroke="#63b8ff" d="M535.88,-314.36C463.27,-306.64 338.08,-292.17 231.5,-274 222.32,-272.43 212.63,-270.56 203.21,-268.63"/>
<polygon fill="#63b8ff" stroke="#63b8ff" points="203.65,-265.14 193.14,-266.51 202.21,-271.99 203.65,-265.14"/>
</a>
</g>
</g>
<!-- Node10 -->
<g id="Node000010" class="node">
<title>Node10</title>
<g id="a_Node000010"><a xlink:title=" ">
<polygon fill="#e0e0e0" stroke="#999999" points="636.5,-23 580.5,-23 580.5,0 636.5,0 636.5,-23"/>
<text text-anchor="middle" x="608.5" y="-7.8" font-family="Arial" font-size="14.00">cstdint</text>
</a>
</g>
</g>
<!-- Node9&#45;&gt;Node10 -->
<g id="edge9_Node000009_Node000010" class="edge">
<title>Node9&#45;&gt;Node10</title>
<g id="a_edge9_Node000009_Node000010"><a xlink:title=" ">
<path fill="none" stroke="#63b8ff" d="M536.24,-58.78C549.42,-50.34 568,-38.44 583.02,-28.82"/>
<polygon fill="#63b8ff" stroke="#63b8ff" points="585.3,-31.51 591.83,-23.17 581.53,-25.62 585.3,-31.51"/>
</a>
</g>
</g>
<!-- Node11 -->
<g id="Node000011" class="node">
<title>Node11</title>
<g id="a_Node000011"><a xlink:title=" ">
<polygon fill="#e0e0e0" stroke="#999999" points="543.5,-23 495.5,-23 495.5,0 543.5,0 543.5,-23"/>
<text text-anchor="middle" x="519.5" y="-7.8" font-family="Arial" font-size="14.00">limits</text>
</a>
</g>
</g>
<!-- Node9&#45;&gt;Node11 -->
<g id="edge10_Node000009_Node000011" class="edge">
<title>Node9&#45;&gt;Node11</title>
<g id="a_edge10_Node000009_Node000011"><a xlink:title=" ">
<path fill="none" stroke="#63b8ff" d="M519.5,-58.78C519.5,-51.61 519.5,-41.95 519.5,-33.31"/>
<polygon fill="#63b8ff" stroke="#63b8ff" points="523,-33.17 519.5,-23.17 516,-33.17 523,-33.17"/>
</a>
</g>
</g>
<!-- Node13 -->
<g id="Node000013" class="node">
<title>Node13</title>
<g id="a_Node000013"><a xlink:title=" ">
<polygon fill="#e0e0e0" stroke="#999999" points="91,-200 0,-200 0,-177 91,-177 91,-200"/>
<text text-anchor="middle" x="45.5" y="-184.8" font-family="Arial" font-size="14.00">driver/gpio.h</text>
</a>
</g>
</g>
<!-- Node12&#45;&gt;Node13 -->
<g id="edge12_Node000012_Node000013" class="edge">
<title>Node12&#45;&gt;Node13</title>
<g id="a_edge12_Node000012_Node000013"><a xlink:title=" ">
<path fill="none" stroke="#63b8ff" d="M130.66,-243.35C114.42,-233.08 89.62,-217.4 70.97,-205.6"/>
<polygon fill="#63b8ff" stroke="#63b8ff" points="72.69,-202.55 62.37,-200.17 68.95,-208.47 72.69,-202.55"/>
</a>
</g>
</g>
<!-- Node14 -->
<g id="Node000014" class="node">
<title>Node14</title>
<g id="a_Node000014"><a xlink:title=" ">
<polygon fill="#e0e0e0" stroke="#999999" points="185.5,-200 109.5,-200 109.5,-177 185.5,-177 185.5,-200"/>
<text text-anchor="middle" x="147.5" y="-184.8" font-family="Arial" font-size="14.00">esp_attr.h</text>
</a>
</g>
</g>
<!-- Node12&#45;&gt;Node14 -->
<g id="edge13_Node000012_Node000014" class="edge">
<title>Node12&#45;&gt;Node14</title>
<g id="a_edge13_Node000012_Node000014"><a xlink:title=" ">
<path fill="none" stroke="#63b8ff" d="M147.5,-243.35C147.5,-234.44 147.5,-221.46 147.5,-210.48"/>
<polygon fill="#63b8ff" stroke="#63b8ff" points="151,-210.38 147.5,-200.38 144,-210.38 151,-210.38"/>
</a>
</g>
</g>
<!-- Node15 -->
<g id="Node000015" class="node">
<title>Node15</title>
<g id="a_Node000015"><a xlink:href="BaseGpio_8h.html" target="_top" xlink:title="Unified GPIO base class for all digital GPIO implementations.">
<polygon fill="white" stroke="#666666" points="640.5,-141 552.5,-141 552.5,-118 640.5,-118 640.5,-141"/>
<text text-anchor="middle" x="596.5" y="-125.8" font-family="Arial" font-size="14.00">BaseGpio.h</text>
</a>
</g>
</g>
<!-- Node12&#45;&gt;Node15 -->
<g id="edge14_Node000012_Node000015" class="edge">
<title>Node12&#45;&gt;Node15</title>
<g id="a_edge14_Node000012_Node000015"><a xlink:title=" ">
<path fill="none" stroke="#63b8ff" d="M194.05,-243.5C206.21,-240.9 219.32,-238.22 231.5,-236 336.74,-216.78 368.13,-234.2 469.5,-200 507.89,-187.05 548.29,-162.85 572.95,-146.7"/>
<polygon fill="#63b8ff" stroke="#63b8ff" points="574.9,-149.61 581.28,-141.16 571.02,-143.78 574.9,-149.61"/>
</a>
</g>
</g>
<!-- Node17 -->
<g id="Node000017" class="node">
<title>Node17</title>
<g id="a_Node000017"><a xlink:href="EspTypes__GPIO_8h.html" target="_top" xlink:title="ESP32 GPIO type definitions for hardware abstraction.">
<polygon fill="white" stroke="#666666" points="460.5,-200 330.5,-200 330.5,-177 460.5,-177 460.5,-200"/>
<text text-anchor="middle" x="395.5" y="-184.8" font-family="Arial" font-size="14.00">EspTypes_GPIO.h</text>
</a>
</g>
</g>
<!-- Node12&#45;&gt;Node17 -->
<g id="edge18_Node000012_Node000017" class="edge">
<title>Node12&#45;&gt;Node17</title>
<g id="a_edge18_Node000012_Node000017"><a xlink:title=" ">
<path fill="none" stroke="#63b8ff" d="M187.9,-243.49C230.86,-232.32 298.89,-214.63 345.28,-202.56"/>
<polygon fill="#63b8ff" stroke="#63b8ff" points="346.32,-205.91 355.12,-200 344.56,-199.13 346.32,-205.91"/>
</a>
</g>
</g>
<!-- Node21 -->
<g id="Node000021" class="node">
<title>Node21</title>
<g id="a_Node000021"><a xlink:title=" ">
<polygon fill="#e0e0e0" stroke="#999999" points="259.5,-200 203.5,-200 203.5,-177 259.5,-177 259.5,-200"/>
<text text-anchor="middle" x="231.5" y="-184.8" font-family="Arial" font-size="14.00">stdio.h</text>
</a>
</g>
</g>
<!-- Node12&#45;&gt;Node21 -->
<g id="edge27_Node000012_Node000021" class="edge">
<title>Node12&#45;&gt;Node21</title>
<g id="a_edge27_Node000012_Node000021"><a xlink:title=" ">
<path fill="none" stroke="#63b8ff" d="M161.37,-243.35C174.38,-233.36 194.06,-218.25 209.26,-206.58"/>
<polygon fill="#63b8ff" stroke="#63b8ff" points="211.81,-209.03 217.61,-200.17 207.55,-203.48 211.81,-209.03"/>
</a>
</g>
</g>
<!-- Node15&#45;&gt;Node9 -->
<g id="edge15_Node000015_Node000009" class="edge">
<title>Node15&#45;&gt;Node9</title>
<g id="a_edge15_Node000015_Node000009"><a xlink:title=" ">
<path fill="none" stroke="#63b8ff" d="M582.02,-117.78C570.83,-109.5 555.14,-97.89 542.28,-88.36"/>
<polygon fill="#63b8ff" stroke="#63b8ff" points="544.04,-85.31 533.92,-82.17 539.87,-90.94 544.04,-85.31"/>
</a>
</g>
</g>
<!-- Node15&#45;&gt;Node10 -->
<g id="edge16_Node000015_Node000010" class="edge">
<title>Node15&#45;&gt;Node10</title>
<g id="a_edge16_Node000015_Node000010"><a xlink:title=" ">
<path fill="none" stroke="#63b8ff" d="M597.61,-117.79C599.59,-98.63 603.78,-58.15 606.34,-33.34"/>
<polygon fill="#63b8ff" stroke="#63b8ff" points="609.85,-33.49 607.4,-23.18 602.88,-32.77 609.85,-33.49"/>
</a>
</g>
</g>
<!-- Node16 -->
<g id="Node000016" class="node">
<title>Node16</title>
<g id="a_Node000016"><a xlink:title=" ">
<polygon fill="#e0e0e0" stroke="#999999" points="720.5,-82 636.5,-82 636.5,-59 720.5,-59 720.5,-82"/>
<text text-anchor="middle" x="678.5" y="-66.8" font-family="Arial" font-size="14.00">string_view</text>
</a>
</g>
</g>
<!-- Node15&#45;&gt;Node16 -->
<g id="edge17_Node000015_Node000016" class="edge">
<title>Node15&#45;&gt;Node16</title>
<g id="a_edge17_Node000015_Node000016"><a xlink:title=" ">
<path fill="none" stroke="#63b8ff" d="M611.92,-117.78C623.95,-109.42 640.86,-97.66 654.63,-88.09"/>
<polygon fill="#63b8ff" stroke="#63b8ff" points="656.93,-90.75 663.15,-82.17 652.94,-85.01 656.93,-90.75"/>
</a>
</g>
</g>
<!-- Node17&#45;&gt;Node9 -->
<g id="edge25_Node000017_Node000009" class="edge">
<title>Node17&#45;&gt;Node9</title>
<g id="a_edge25_Node000017_Node000009"><a xlink:title=" ">
<path fill="none" stroke="#63b8ff" d="M415.79,-176.98C431.01,-168.51 451.84,-155.62 467.5,-141 483.41,-126.15 497.91,-105.95 507.53,-91.15"/>
<polygon fill="#63b8ff" stroke="#63b8ff" points="510.73,-92.64 513.12,-82.32 504.82,-88.9 510.73,-92.64"/>
</a>
</g>
</g>
<!-- Node17&#45;&gt;Node15 -->
<g id="edge19_Node000017_Node000015" class="edge">
<title>Node17&#45;&gt;Node15</title>
<g id="a_edge19_Node000017_Node000015"><a xlink:title=" ">
<path fill="none" stroke="#63b8ff" d="M432.84,-176.91C465.84,-167.55 514.12,-153.86 549.69,-143.77"/>
<polygon fill="#63b8ff" stroke="#63b8ff" points="550.7,-147.13 559.36,-141.03 548.79,-140.39 550.7,-147.13"/>
</a>
</g>
</g>
<!-- Node18 -->
<g id="Node000018" class="node">
<title>Node18</title>
<g id="a_Node000018"><a xlink:href="EspTypes__Base_8h.html" target="_top" xlink:title="ESP32 base type definitions for hardware abstraction.">
<polygon fill="white" stroke="#666666" points="458,-141 333,-141 333,-118 458,-118 458,-141"/>
<text text-anchor="middle" x="395.5" y="-125.8" font-family="Arial" font-size="14.00">EspTypes_Base.h</text>
</a>
</g>
</g>
<!-- Node17&#45;&gt;Node18 -->
<g id="edge20_Node000017_Node000018" class="edge">
<title>Node17&#45;&gt;Node18</title>
<g id="a_edge20_Node000017_Node000018"><a xlink:title=" ">
<path fill="none" stroke="#63b8ff" d="M395.5,-176.78C395.5,-169.61 395.5,-159.95 395.5,-151.31"/>
<polygon fill="#63b8ff" stroke="#63b8ff" points="399,-151.17 395.5,-141.17 392,-151.17 399,-151.17"/>
</a>
</g>
</g>
<!-- Node19 -->
<g id="Node000019" class="node">
<title>Node19</title>
<g id="a_Node000019"><a xlink:href="McuSelect_8h.html" target="_top" xlink:title="Centralized MCU platform selection and configuration header.">
<polygon fill="white" stroke="#666666" points="382.5,-82 240.5,-82 240.5,-59 382.5,-59 382.5,-82"/>
<text text-anchor="middle" x="311.5" y="-66.8" font-family="Arial" font-size="14.00">../../utils/McuSelect.h</text>
</a>
</g>
</g>
<!-- Node17&#45;&gt;Node19 -->
<g id="edge26_Node000017_Node000019" class="edge">
<title>Node17&#45;&gt;Node19</title>
<g id="a_edge26_Node000017_Node000019"><a xlink:title=" ">
<path fill="none" stroke="#63b8ff" d="M369.61,-176.9C354.11,-169.22 335.37,-157.31 324.5,-141 314.95,-126.67 311.96,-107.19 311.21,-92.49"/>
<polygon fill="#63b8ff" stroke="#63b8ff" points="314.71,-92.28 311,-82.35 307.71,-92.42 314.71,-92.28"/>
</a>
</g>
</g>
<!-- Node18&#45;&gt;Node9 -->
<g id="edge22_Node000018_Node000009" class="edge">
<title>Node18&#45;&gt;Node9</title>
<g id="a_edge22_Node000018_Node000009"><a xlink:title=" ">
<path fill="none" stroke="#63b8ff" d="M418.53,-117.91C437.93,-108.99 465.9,-96.14 487.48,-86.22"/>
<polygon fill="#63b8ff" stroke="#63b8ff" points="488.97,-89.39 496.59,-82.03 486.04,-83.03 488.97,-89.39"/>
</a>
</g>
</g>
<!-- Node18&#45;&gt;Node10 -->
<g id="edge24_Node000018_Node000010" class="edge">
<title>Node18&#45;&gt;Node10</title>
<g id="a_edge24_Node000018_Node000010"><a xlink:title=" ">
<path fill="none" stroke="#63b8ff" d="M400.94,-117.85C409.3,-102.55 426.76,-74.47 449.5,-59 469.23,-45.58 530.19,-30.02 570.63,-20.73"/>
<polygon fill="#63b8ff" stroke="#63b8ff" points="571.46,-24.13 580.44,-18.51 569.91,-17.31 571.46,-24.13"/>
</a>
</g>
</g>
<!-- Node18&#45;&gt;Node19 -->
<g id="edge21_Node000018_Node000019" class="edge">
<title>Node18&#45;&gt;Node19</title>
<g id="a_edge21_Node000018_Node000019"><a xlink:title=" ">
<path fill="none" stroke="#63b8ff" d="M379.7,-117.78C367.26,-109.34 349.72,-97.44 335.55,-87.82"/>
<polygon fill="#63b8ff" stroke="#63b8ff" points="337.47,-84.89 327.23,-82.17 333.54,-90.68 337.47,-84.89"/>
</a>
</g>
</g>
<!-- Node18&#45;&gt;Node20 -->
<g id="edge23_Node000018_Node000020" class="edge">
<title>Node18&#45;&gt;Node20</title>
<g id="a_edge23_Node000018_Node000020"><a xlink:title=" ">
<path fill="none" stroke="#63b8ff" d="M458.13,-123.78C484.48,-121.87 515.47,-119.71 543.5,-118 879.55,-97.47 1286.01,-78.84 1411.64,-73.22"/>
<polygon fill="#63b8ff" stroke="#63b8ff" points="1412.06,-76.7 1421.89,-72.76 1411.75,-69.71 1412.06,-76.7"/>
</a>
</g>
</g>
<!-- Node22&#45;&gt;Node9 -->
<g id="edge29_Node000022_Node000009" class="edge">
<title>Node22&#45;&gt;Node9</title>
<g id="a_edge29_Node000022_Node000009"><a xlink:title=" ">
<path fill="none" stroke="#63b8ff" d="M706.23,-117.98C668.26,-108.53 612.39,-94.62 571.66,-84.48"/>
<polygon fill="#63b8ff" stroke="#63b8ff" points="572.46,-81.08 561.91,-82.06 570.77,-87.87 572.46,-81.08"/>
</a>
</g>
</g>
<!-- Node22&#45;&gt;Node10 -->
<g id="edge30_Node000022_Node000010" class="edge">
<title>Node22&#45;&gt;Node10</title>
<g id="a_edge30_Node000022_Node000010"><a xlink:title=" ">
<path fill="none" stroke="#63b8ff" d="M748.45,-117.93C747.83,-102.97 744.52,-75.6 729.5,-59 708.08,-35.32 673.24,-23.61 646.43,-17.87"/>
<polygon fill="#63b8ff" stroke="#63b8ff" points="647.08,-14.43 636.59,-15.95 645.74,-21.3 647.08,-14.43"/>
</a>
</g>
</g>
<!-- Node22&#45;&gt;Node16 -->
<g id="edge31_Node000022_Node000016" class="edge">
<title>Node22&#45;&gt;Node16</title>
<g id="a_edge31_Node000022_Node000016"><a xlink:title=" ">
<path fill="none" stroke="#63b8ff" d="M735.33,-117.78C725.26,-109.58 711.18,-98.11 699.55,-88.64"/>
<polygon fill="#63b8ff" stroke="#63b8ff" points="701.57,-85.77 691.61,-82.17 697.15,-91.2 701.57,-85.77"/>
</a>
</g>
</g>
<!-- Node23&#45;&gt;Node3 -->
<g id="edge39_Node000023_Node000003" class="edge">
<title>Node23&#45;&gt;Node3</title>
<g id="a_edge39_Node000023_Node000003"><a xlink:title=" ">
<path fill="none" stroke="#63b8ff" d="M1109.76,-309.99C1083.37,-299.22 1042.12,-282.38 1012.71,-270.37"/>
<polygon fill="#63b8ff" stroke="#63b8ff" points="1013.81,-267.04 1003.23,-266.5 1011.16,-273.52 1013.81,-267.04"/>
</a>
</g>
</g>
<!-- Node23&#45;&gt;Node4 -->
<g id="edge40_Node000023_Node000004" class="edge">
<title>Node23&#45;&gt;Node4</title>
<g id="a_edge40_Node000023_Node000004"><a xlink:title=" ">
<path fill="none" stroke="#63b8ff" d="M1036.27,-317.73C937.32,-313.4 781.48,-302.32 649.5,-274 644.16,-272.85 638.6,-271.34 633.19,-269.68"/>
<polygon fill="#63b8ff" stroke="#63b8ff" points="634.26,-266.35 623.67,-266.58 632.09,-273 634.26,-266.35"/>
</a>
</g>
</g>
<!-- Node23&#45;&gt;Node5 -->
<g id="edge41_Node000023_Node000005" class="edge">
<title>Node23&#45;&gt;Node5</title>
<g id="a_edge41_Node000023_Node000005"><a xlink:title=" ">
<path fill="none" stroke="#63b8ff" d="M1049.33,-310C983.66,-301.55 891.11,-288.7 810.5,-274 801.85,-272.42 792.72,-270.57 783.83,-268.67"/>
<polygon fill="#63b8ff" stroke="#63b8ff" points="784.45,-265.23 773.94,-266.52 782.96,-272.07 784.45,-265.23"/>
</a>
</g>
</g>
<!-- Node23&#45;&gt;Node8 -->
<g id="edge42_Node000023_Node000008" class="edge">
<title>Node23&#45;&gt;Node8</title>
<g id="a_edge42_Node000023_Node000008"><a xlink:title=" ">
<path fill="none" stroke="#63b8ff" d="M1084.98,-309.91C1043.57,-301.01 983.52,-287.59 931.5,-274 926.09,-272.59 920.44,-271.03 914.84,-269.44"/>
<polygon fill="#63b8ff" stroke="#63b8ff" points="915.49,-265.98 904.91,-266.57 913.55,-272.71 915.49,-265.98"/>
</a>
</g>
</g>
<!-- Node23&#45;&gt;Node20 -->
<g id="edge43_Node000023_Node000020" class="edge">
<title>Node23&#45;&gt;Node20</title>
<g id="a_edge43_Node000023_Node000020"><a xlink:title=" ">
<path fill="none" stroke="#63b8ff" d="M1234.52,-313.31C1296.69,-306.82 1369.34,-294.95 1392.5,-274 1445.3,-226.23 1451.33,-134 1451.2,-92.56"/>
<polygon fill="#63b8ff" stroke="#63b8ff" points="1454.69,-92.24 1451.03,-82.3 1447.69,-92.35 1454.69,-92.24"/>
</a>
</g>
</g>
<!-- Node23&#45;&gt;Node22 -->
<g id="edge33_Node000023_Node000022" class="edge">
<title>Node23&#45;&gt;Node22</title>
<g id="a_edge33_Node000023_Node000022"><a xlink:title=" ">
<path fill="none" stroke="#63b8ff" d="M1116.44,-309.91C1101.24,-301.11 1079.73,-287.83 1062.5,-274 1043.87,-259.05 1044.54,-248.99 1024.5,-236 953.7,-190.09 859.94,-159.63 801.95,-143.71"/>
<polygon fill="#63b8ff" stroke="#63b8ff" points="802.83,-140.32 792.26,-141.09 801,-147.08 802.83,-140.32"/>
</a>
</g>
</g>
<!-- Node24 -->
<g id="Node000024" class="node">
<title>Node24</title>
<g id="a_Node000024"><a xlink:href="PlatformMutex_8h.html" target="_top" xlink:title="Cross&#45;platform mutex and synchronization primitives with pluggable backend.">
<polygon fill="white" stroke="#666666" points="1658.5,-141 1514.5,-141 1514.5,-118 1658.5,-118 1658.5,-141"/>
<text text-anchor="middle" x="1586.5" y="-125.8" font-family="Arial" font-size="14.00">utils/PlatformMutex.h</text>
</a>
</g>
</g>
<!-- Node23&#45;&gt;Node24 -->
<g id="edge34_Node000023_Node000024" class="edge">
<title>Node23&#45;&gt;Node24</title>
<g id="a_edge34_Node000023_Node000024"><a xlink:title=" ">
<path fill="none" stroke="#63b8ff" d="M1234.6,-318.39C1292.63,-313.86 1365.97,-302.28 1425.5,-274 1488.87,-243.89 1545.73,-180.98 1571.66,-149.41"/>
<polygon fill="#63b8ff" stroke="#63b8ff" points="1574.57,-151.37 1578.13,-141.4 1569.13,-146.98 1574.57,-151.37"/>
</a>
</g>
</g>
<!-- Node25 -->
<g id="Node000025" class="node">
<title>Node25</title>
<g id="a_Node000025"><a xlink:title=" ">
<polygon fill="#e0e0e0" stroke="#999999" points="1199.5,-274 1071.5,-274 1071.5,-236 1199.5,-236 1199.5,-274"/>
<text text-anchor="start" x="1079.5" y="-258.8" font-family="Arial" font-size="14.00">driver/temperature</text>
<text text-anchor="middle" x="1135.5" y="-243.8" font-family="Arial" font-size="14.00">_sensor.h</text>
</a>
</g>
</g>
<!-- Node23&#45;&gt;Node25 -->
<g id="edge37_Node000023_Node000025" class="edge">
<title>Node23&#45;&gt;Node25</title>
<g id="a_edge37_Node000023_Node000025"><a xlink:title=" ">
<path fill="none" stroke="#63b8ff" d="M1135.5,-309.85C1135.5,-302.91 1135.5,-293.49 1135.5,-284.47"/>
<polygon fill="#63b8ff" stroke="#63b8ff" points="1139,-284.24 1135.5,-274.24 1132,-284.24 1139,-284.24"/>
</a>
</g>
</g>
<!-- Node26 -->
<g id="Node000026" class="node">
<title>Node26</title>
<g id="a_Node000026"><a xlink:title=" ">
<polygon fill="#e0e0e0" stroke="#999999" points="1291,-266.5 1218,-266.5 1218,-243.5 1291,-243.5 1291,-266.5"/>
<text text-anchor="middle" x="1254.5" y="-251.3" font-family="Arial" font-size="14.00">esp_err.h</text>
</a>
</g>
</g>
<!-- Node23&#45;&gt;Node26 -->
<g id="edge38_Node000023_Node000026" class="edge">
<title>Node23&#45;&gt;Node26</title>
<g id="a_edge38_Node000023_Node000026"><a xlink:title=" ">
<path fill="none" stroke="#63b8ff" d="M1154.88,-309.99C1174.25,-299.5 1204.22,-283.25 1226.23,-271.32"/>
<polygon fill="#63b8ff" stroke="#63b8ff" points="1228,-274.34 1235.12,-266.5 1224.66,-268.19 1228,-274.34"/>
</a>
</g>
</g>
<!-- Node27 -->
<g id="Node000027" class="node">
<title>Node27</title>
<g id="a_Node000027"><a xlink:title=" ">
<polygon fill="#e0e0e0" stroke="#999999" points="1383.5,-266.5 1309.5,-266.5 1309.5,-243.5 1383.5,-243.5 1383.5,-266.5"/>
<text text-anchor="middle" x="1346.5" y="-251.3" font-family="Arial" font-size="14.00">functional</text>
</a>
</g>
</g>
<!-- Node23&#45;&gt;Node27 -->
<g id="edge44_Node000023_Node000027" class="edge">
<title>Node23&#45;&gt;Node27</title>
<g id="a_edge44_Node000023_Node000027"><a xlink:title=" ">
<path fill="none" stroke="#63b8ff" d="M1177.21,-309.96C1210.78,-301.19 1259.02,-287.92 1300.5,-274 1304.04,-272.81 1307.71,-271.51 1311.36,-270.16"/>
<polygon fill="#63b8ff" stroke="#63b8ff" points="1312.77,-273.37 1320.87,-266.54 1310.28,-266.82 1312.77,-273.37"/>
</a>
</g>
</g>
<!-- Node24&#45;&gt;Node10 -->
<g id="edge36_Node000024_Node000010" class="edge">
<title>Node24&#45;&gt;Node10</title>
<g id="a_edge36_Node000024_Node000010"><a xlink:title=" ">
<path fill="none" stroke="#63b8ff" d="M1575.93,-117.83C1559.14,-101.67 1524.55,-71.54 1488.5,-59 1408.34,-31.11 805.96,-16.63 646.91,-13.27"/>
<polygon fill="#63b8ff" stroke="#63b8ff" points="646.73,-9.77 636.66,-13.06 646.59,-16.76 646.73,-9.77"/>
</a>
</g>
</g>
<!-- Node24&#45;&gt;Node20 -->
<g id="edge35_Node000024_Node000020" class="edge">
<title>Node24&#45;&gt;Node20</title>
<g id="a_edge35_Node000024_Node000020"><a xlink:title=" ">
<path fill="none" stroke="#63b8ff" d="M1561.24,-117.91C1539.77,-108.91 1508.74,-95.91 1484.99,-85.95"/>
<polygon fill="#63b8ff" stroke="#63b8ff" points="1486.2,-82.67 1475.63,-82.03 1483.5,-89.12 1486.2,-82.67"/>
</a>
</g>
</g>
</g>
</svg>
