<?xml version="1.0" encoding="UTF-8" standalone="no"?>
<!DOCTYPE svg PUBLIC "-//W3C//DTD SVG 1.1//EN"
 "http://www.w3.org/Graphics/SVG/1.1/DTD/svg11.dtd">
<!-- Generated by graphviz version 2.43.0 (0)
 -->
<!-- Title: examples/esp32/main/TestFramework.h Pages: 1 -->
<svg width="3712pt" height="135pt"
 viewBox="0.00 0.00 3712.00 135.00" xmlns="http://www.w3.org/2000/svg" xmlns:xlink="http://www.w3.org/1999/xlink">
<g id="graph0" class="graph" transform="scale(1 1) rotate(0) translate(4 131)">
<title>examples/esp32/main/TestFramework.h</title>
<!-- Node1 -->
<g id="Node000001" class="node">
<title>Node1</title>
<g id="a_Node000001"><a xlink:title="Shared testing framework for ESP32&#45;C6 comprehensive test suites.">
<polygon fill="#999999" stroke="#666666" points="1949,-127 1800,-127 1800,-89 1949,-89 1949,-127"/>
<text text-anchor="start" x="1808" y="-111.8" font-family="Arial" font-size="14.00">examples/esp32/main</text>
<text text-anchor="middle" x="1874.5" y="-96.8" font-family="Arial" font-size="14.00">/TestFramework.h</text>
</a>
</g>
</g>
<!-- Node2 -->
<g id="Node000002" class="node">
<title>Node2</title>
<g id="a_Node000002"><a xlink:href="AdcComprehensiveTest_8cpp.html" target="_top" xlink:title="Comprehensive ADC testing suite for ESP32&#45;C6 DevKit&#45;M&#45;1 (noexcept)">
<polygon fill="white" stroke="#666666" points="189,-45.5 0,-45.5 0,-7.5 189,-7.5 189,-45.5"/>
<text text-anchor="start" x="8" y="-30.3" font-family="Arial" font-size="14.00">examples/esp32/main</text>
<text text-anchor="middle" x="94.5" y="-15.3" font-family="Arial" font-size="14.00">/AdcComprehensiveTest.cpp</text>
</a>
</g>
</g>
<!-- Node1&#45;&gt;Node2 -->
<g id="edge1_Node000001_Node000002" class="edge">
<title>Node1&#45;&gt;Node2</title>
<g id="a_edge1_Node000001_Node000002"><a xlink:title=" ">
<path fill="none" stroke="#63b8ff" d="M1789.64,-106.6C1494.07,-104.84 510.8,-95.84 198.5,-53 185.61,-51.23 171.99,-48.52 159.01,-45.52"/>
<polygon fill="#63b8ff" stroke="#63b8ff" points="1789.84,-110.1 1799.86,-106.66 1789.89,-103.1 1789.84,-110.1"/>
</a>
</g>
</g>
<!-- Node3 -->
<g id="Node000003" class="node">
<title>Node3</title>
<g id="a_Node000003"><a xlink:href="AsciiArtComprehensiveTest_8cpp.html" target="_top" xlink:title="ASCII Art Generator comprehensive example and test suite for ESP32&#45;C6 DevKit&#45;M&#45;1 (noexcept)">
<polygon fill="white" stroke="#666666" points="419.5,-45.5 207.5,-45.5 207.5,-7.5 419.5,-7.5 419.5,-45.5"/>
<text text-anchor="start" x="215.5" y="-30.3" font-family="Arial" font-size="14.00">examples/esp32/main</text>
<text text-anchor="middle" x="313.5" y="-15.3" font-family="Arial" font-size="14.00">/AsciiArtComprehensiveTest.cpp</text>
</a>
</g>
</g>
<!-- Node1&#45;&gt;Node3 -->
<g id="edge2_Node000001_Node000003" class="edge">
<title>Node1&#45;&gt;Node3</title>
<g id="a_edge2_Node000001_Node000003"><a xlink:title=" ">
<path fill="none" stroke="#63b8ff" d="M1789.66,-105.87C1521.38,-101.98 693.49,-87.42 427.5,-53 413.52,-51.19 398.73,-48.49 384.6,-45.5"/>
<polygon fill="#63b8ff" stroke="#63b8ff" points="1789.68,-109.37 1799.73,-106.02 1789.78,-102.37 1789.68,-109.37"/>
</a>
</g>
</g>
<!-- Node4 -->
<g id="Node000004" class="node">
<title>Node4</title>
<g id="a_Node000004"><a xlink:href="BluetoothComprehensiveTest_8cpp.html" target="_top" xlink:title="Comprehensive Bluetooth/NimBLE testing suite for ESP32&#45;C6 DevKit&#45;M&#45;1 (noexcept)">
<polygon fill="white" stroke="#666666" points="660,-45.5 437,-45.5 437,-7.5 660,-7.5 660,-45.5"/>
<text text-anchor="start" x="445" y="-30.3" font-family="Arial" font-size="14.00">examples/esp32/main</text>
<text text-anchor="middle" x="548.5" y="-15.3" font-family="Arial" font-size="14.00">/BluetoothComprehensiveTest.cpp</text>
</a>
</g>
</g>
<!-- Node1&#45;&gt;Node4 -->
<g id="edge3_Node000001_Node000004" class="edge">
<title>Node1&#45;&gt;Node4</title>
<g id="a_edge3_Node000001_Node000004"><a xlink:title=" ">
<path fill="none" stroke="#63b8ff" d="M1789.5,-105.02C1552.21,-99.19 885.77,-80.76 668.5,-53 654.03,-51.15 638.71,-48.47 624.03,-45.52"/>
<polygon fill="#63b8ff" stroke="#63b8ff" points="1789.72,-108.52 1799.8,-105.27 1789.89,-101.52 1789.72,-108.52"/>
</a>
</g>
</g>
<!-- Node5 -->
<g id="Node000005" class="node">
<title>Node5</title>
<g id="a_Node000005"><a xlink:href="CanComprehensiveTest_8cpp.html" target="_top" xlink:title="Comprehensive CAN testing suite for ESP32&#45;C6 with ESP&#45;IDF v5.5 TWAI API and SN65 transceiver.">
<polygon fill="white" stroke="#666666" points="869,-45.5 678,-45.5 678,-7.5 869,-7.5 869,-45.5"/>
<text text-anchor="start" x="686" y="-30.3" font-family="Arial" font-size="14.00">examples/esp32/main</text>
<text text-anchor="middle" x="773.5" y="-15.3" font-family="Arial" font-size="14.00">/CanComprehensiveTest.cpp</text>
</a>
</g>
</g>
<!-- Node1&#45;&gt;Node5 -->
<g id="edge4_Node000001_Node000005" class="edge">
<title>Node1&#45;&gt;Node5</title>
<g id="a_edge4_Node000001_Node000005"><a xlink:title=" ">
<path fill="none" stroke="#63b8ff" d="M1789.89,-107.71C1617.31,-108 1212.69,-102.73 877.5,-53 865,-51.14 851.8,-48.48 839.15,-45.56"/>
<polygon fill="#63b8ff" stroke="#63b8ff" points="1789.93,-111.21 1799.92,-107.69 1789.91,-104.21 1789.93,-111.21"/>
</a>
</g>
</g>
<!-- Node6 -->
<g id="Node000006" class="node">
<title>Node6</title>
<g id="a_Node000006"><a xlink:href="DigitalOutputGuardComprehensiveTest_8cpp.html" target="_top" xlink:title="DigitalOutputGuard comprehensive test suite for ESP32&#45;C6 DevKit&#45;M&#45;1.">
<polygon fill="white" stroke="#666666" points="1120,-53 887,-53 887,0 1120,0 1120,-53"/>
<text text-anchor="start" x="895" y="-37.8" font-family="Arial" font-size="14.00">examples/esp32/main</text>
<text text-anchor="start" x="895" y="-22.8" font-family="Arial" font-size="14.00">/DigitalOutputGuardComprehensive</text>
<text text-anchor="middle" x="1003.5" y="-7.8" font-family="Arial" font-size="14.00">Test.cpp</text>
</a>
</g>
</g>
<!-- Node1&#45;&gt;Node6 -->
<g id="edge5_Node000001_Node000006" class="edge">
<title>Node1&#45;&gt;Node6</title>
<g id="a_edge5_Node000001_Node000006"><a xlink:title=" ">
<path fill="none" stroke="#63b8ff" d="M1789.64,-104.42C1650.83,-99.4 1366.79,-85.79 1128.5,-53 1125.76,-52.62 1122.98,-52.22 1120.19,-51.8"/>
<polygon fill="#63b8ff" stroke="#63b8ff" points="1789.67,-107.92 1799.78,-104.78 1789.92,-100.93 1789.67,-107.92"/>
</a>
</g>
</g>
<!-- Node7 -->
<g id="Node000007" class="node">
<title>Node7</title>
<g id="a_Node000007"><a xlink:href="GpioComprehensiveTest_8cpp.html" target="_top" xlink:title="Comprehensive GPIO testing suite for ESP32&#45;C6 DevKit&#45;M&#45;1 (noexcept)">
<polygon fill="white" stroke="#666666" points="1333,-45.5 1138,-45.5 1138,-7.5 1333,-7.5 1333,-45.5"/>
<text text-anchor="start" x="1146" y="-30.3" font-family="Arial" font-size="14.00">examples/esp32/main</text>
<text text-anchor="middle" x="1235.5" y="-15.3" font-family="Arial" font-size="14.00">/GpioComprehensiveTest.cpp</text>
</a>
</g>
</g>
<!-- Node1&#45;&gt;Node7 -->
<g id="edge6_Node000001_Node000007" class="edge">
<title>Node1&#45;&gt;Node7</title>
<g id="a_edge6_Node000001_Node000007"><a xlink:title=" ">
<path fill="none" stroke="#63b8ff" d="M1789.37,-101.86C1683.93,-94.68 1499.08,-79.48 1342.5,-53 1330.36,-50.95 1317.54,-48.31 1305.16,-45.51"/>
<polygon fill="#63b8ff" stroke="#63b8ff" points="1789.42,-105.37 1799.63,-102.55 1789.89,-98.38 1789.42,-105.37"/>
</a>
</g>
</g>
<!-- Node8 -->
<g id="Node000008" class="node">
<title>Node8</title>
<g id="a_Node000008"><a xlink:href="I2cComprehensiveTest_8cpp.html" target="_top" xlink:title="Comprehensive I2C testing suite for ESP32&#45;C6 DevKit&#45;M&#45;1 (noexcept)">
<polygon fill="white" stroke="#666666" points="1535.5,-45.5 1351.5,-45.5 1351.5,-7.5 1535.5,-7.5 1535.5,-45.5"/>
<text text-anchor="start" x="1359.5" y="-30.3" font-family="Arial" font-size="14.00">examples/esp32/main</text>
<text text-anchor="middle" x="1443.5" y="-15.3" font-family="Arial" font-size="14.00">/I2cComprehensiveTest.cpp</text>
</a>
</g>
</g>
<!-- Node1&#45;&gt;Node8 -->
<g id="edge7_Node000001_Node000008" class="edge">
<title>Node1&#45;&gt;Node8</title>
<g id="a_edge7_Node000001_Node000008"><a xlink:title=" ">
<path fill="none" stroke="#63b8ff" d="M1789.72,-95.16C1722.85,-85.33 1627.36,-70.21 1544.5,-53 1533.79,-50.78 1522.5,-48.18 1511.5,-45.51"/>
<polygon fill="#63b8ff" stroke="#63b8ff" points="1789.39,-98.64 1799.79,-96.63 1790.4,-91.72 1789.39,-98.64"/>
</a>
</g>
</g>
<!-- Node9 -->
<g id="Node000009" class="node">
<title>Node9</title>
<g id="a_Node000009"><a xlink:href="LoggerComprehensiveTest_8cpp.html" target="_top" xlink:title="Comprehensive Logger testing suite for ESP32&#45;C6 DevKit&#45;M&#45;1 (noexcept)">
<polygon fill="white" stroke="#666666" points="1761.5,-45.5 1553.5,-45.5 1553.5,-7.5 1761.5,-7.5 1761.5,-45.5"/>
<text text-anchor="start" x="1561.5" y="-30.3" font-family="Arial" font-size="14.00">examples/esp32/main</text>
<text text-anchor="middle" x="1657.5" y="-15.3" font-family="Arial" font-size="14.00">/LoggerComprehensiveTest.cpp</text>
</a>
</g>
</g>
<!-- Node1&#45;&gt;Node9 -->
<g id="edge8_Node000001_Node000009" class="edge">
<title>Node1&#45;&gt;Node9</title>
<g id="a_edge8_Node000001_Node000009"><a xlink:title=" ">
<path fill="none" stroke="#63b8ff" d="M1815.44,-85.36C1781.43,-72.9 1739.17,-57.42 1706.92,-45.61"/>
<polygon fill="#63b8ff" stroke="#63b8ff" points="1814.67,-88.81 1825.26,-88.96 1817.07,-82.23 1814.67,-88.81"/>
</a>
</g>
</g>
<!-- Node10 -->
<g id="Node000010" class="node">
<title>Node10</title>
<g id="a_Node000010"><a xlink:href="NvsComprehensiveTest_8cpp.html" target="_top" xlink:title="Comprehensive NVS (Non&#45;Volatile Storage) testing suite for ESP32&#45;C6 DevKit&#45;M&#45;1 (noexcept)">
<polygon fill="white" stroke="#666666" points="1969,-45.5 1780,-45.5 1780,-7.5 1969,-7.5 1969,-45.5"/>
<text text-anchor="start" x="1788" y="-30.3" font-family="Arial" font-size="14.00">examples/esp32/main</text>
<text text-anchor="middle" x="1874.5" y="-15.3" font-family="Arial" font-size="14.00">/NvsComprehensiveTest.cpp</text>
</a>
</g>
</g>
<!-- Node1&#45;&gt;Node10 -->
<g id="edge9_Node000001_Node000010" class="edge">
<title>Node1&#45;&gt;Node10</title>
<g id="a_edge9_Node000001_Node000010"><a xlink:title=" ">
<path fill="none" stroke="#63b8ff" d="M1874.5,-78.92C1874.5,-67.9 1874.5,-55.57 1874.5,-45.74"/>
<polygon fill="#63b8ff" stroke="#63b8ff" points="1871,-78.96 1874.5,-88.96 1878,-78.96 1871,-78.96"/>
</a>
</g>
</g>
<!-- Node11 -->
<g id="Node000011" class="node">
<title>Node11</title>
<g id="a_Node000011"><a xlink:href="PioComprehensiveTest_8cpp.html" target="_top" xlink:title="Comprehensive PIO testing suite for ESP32&#45;C6 DevKit&#45;M&#45;1 with RMT peripheral (noexcept)">
<polygon fill="white" stroke="#666666" points="2172,-45.5 1987,-45.5 1987,-7.5 2172,-7.5 2172,-45.5"/>
<text text-anchor="start" x="1995" y="-30.3" font-family="Arial" font-size="14.00">examples/esp32/main</text>
<text text-anchor="middle" x="2079.5" y="-15.3" font-family="Arial" font-size="14.00">/PioComprehensiveTest.cpp</text>
</a>
</g>
</g>
<!-- Node1&#45;&gt;Node11 -->
<g id="edge10_Node000001_Node000011" class="edge">
<title>Node1&#45;&gt;Node11</title>
<g id="a_edge10_Node000001_Node000011"><a xlink:title=" ">
<path fill="none" stroke="#63b8ff" d="M1930.7,-85.2C1962.77,-72.77 2002.48,-57.37 2032.81,-45.61"/>
<polygon fill="#63b8ff" stroke="#63b8ff" points="1929.08,-82.08 1921.02,-88.96 1931.61,-88.61 1929.08,-82.08"/>
</a>
</g>
</g>
<!-- Node12 -->
<g id="Node000012" class="node">
<title>Node12</title>
<g id="a_Node000012"><a xlink:href="PwmComprehensiveTest_8cpp.html" target="_top" xlink:title="Comprehensive PWM testing suite for ESP32 family (noexcept)">
<polygon fill="white" stroke="#666666" points="2387,-45.5 2190,-45.5 2190,-7.5 2387,-7.5 2387,-45.5"/>
<text text-anchor="start" x="2198" y="-30.3" font-family="Arial" font-size="14.00">examples/esp32/main</text>
<text text-anchor="middle" x="2288.5" y="-15.3" font-family="Arial" font-size="14.00">/PwmComprehensiveTest.cpp</text>
</a>
</g>
</g>
<!-- Node1&#45;&gt;Node12 -->
<g id="edge11_Node000001_Node000012" class="edge">
<title>Node1&#45;&gt;Node12</title>
<g id="a_edge11_Node000001_Node000012"><a xlink:title=" ">
<path fill="none" stroke="#63b8ff" d="M1959.27,-93.49C2021.06,-83.3 2106.7,-68.48 2181.5,-53 2192.53,-50.72 2204.16,-48.13 2215.53,-45.51"/>
<polygon fill="#63b8ff" stroke="#63b8ff" points="1958.48,-90.07 1949.18,-95.15 1959.62,-96.98 1958.48,-90.07"/>
</a>
</g>
</g>
<!-- Node13 -->
<g id="Node000013" class="node">
<title>Node13</title>
<g id="a_Node000013"><a xlink:href="SpiComprehensiveTest_8cpp.html" target="_top" xlink:title="Comprehensive SPI testing suite for ESP32&#45;C6 DevKit&#45;M&#45;1 (noexcept)">
<polygon fill="white" stroke="#666666" points="2590,-45.5 2405,-45.5 2405,-7.5 2590,-7.5 2590,-45.5"/>
<text text-anchor="start" x="2413" y="-30.3" font-family="Arial" font-size="14.00">examples/esp32/main</text>
<text text-anchor="middle" x="2497.5" y="-15.3" font-family="Arial" font-size="14.00">/SpiComprehensiveTest.cpp</text>
</a>
</g>
</g>
<!-- Node1&#45;&gt;Node13 -->
<g id="edge12_Node000001_Node000013" class="edge">
<title>Node1&#45;&gt;Node13</title>
<g id="a_edge12_Node000001_Node000013"><a xlink:title=" ">
<path fill="none" stroke="#63b8ff" d="M1959.41,-101.99C2063.14,-95.01 2243.69,-80.05 2396.5,-53 2407.99,-50.97 2420.1,-48.34 2431.79,-45.55"/>
<polygon fill="#63b8ff" stroke="#63b8ff" points="1959.06,-98.51 1949.31,-102.66 1959.52,-105.49 1959.06,-98.51"/>
</a>
</g>
</g>
<!-- Node14 -->
<g id="Node000014" class="node">
<title>Node14</title>
<g id="a_Node000014"><a xlink:href="TemperatureComprehensiveTest_8cpp.html" target="_top" xlink:title="Comprehensive Temperature sensor testing suite for ESP32&#45;C6 DevKit&#45;M&#45;1 (noexcept)">
<polygon fill="white" stroke="#666666" points="2849.5,-45.5 2607.5,-45.5 2607.5,-7.5 2849.5,-7.5 2849.5,-45.5"/>
<text text-anchor="start" x="2615.5" y="-30.3" font-family="Arial" font-size="14.00">examples/esp32/main</text>
<text text-anchor="middle" x="2728.5" y="-15.3" font-family="Arial" font-size="14.00">/TemperatureComprehensiveTest.cpp</text>
</a>
</g>
</g>
<!-- Node1&#45;&gt;Node14 -->
<g id="edge13_Node000001_Node000014" class="edge">
<title>Node1&#45;&gt;Node14</title>
<g id="a_edge13_Node000001_Node000014"><a xlink:title=" ">
<path fill="none" stroke="#63b8ff" d="M1959.5,-104C2095.28,-98.46 2369.27,-84.21 2599.5,-53 2614.32,-50.99 2630,-48.34 2645.13,-45.51"/>
<polygon fill="#63b8ff" stroke="#63b8ff" points="1959.02,-100.52 1949.17,-104.41 1959.31,-107.51 1959.02,-100.52"/>
</a>
</g>
</g>
<!-- Node15 -->
<g id="Node000015" class="node">
<title>Node15</title>
<g id="a_Node000015"><a xlink:href="TimerComprehensiveTest_8cpp.html" target="_top" xlink:title="ESP32&#45;C6 Periodic Timer Comprehensive Test Suite v2.0.">
<polygon fill="white" stroke="#666666" points="3069,-45.5 2868,-45.5 2868,-7.5 3069,-7.5 3069,-45.5"/>
<text text-anchor="start" x="2876" y="-30.3" font-family="Arial" font-size="14.00">examples/esp32/main</text>
<text text-anchor="middle" x="2968.5" y="-15.3" font-family="Arial" font-size="14.00">/TimerComprehensiveTest.cpp</text>
</a>
</g>
</g>
<!-- Node1&#45;&gt;Node15 -->
<g id="edge14_Node000001_Node000015" class="edge">
<title>Node1&#45;&gt;Node15</title>
<g id="a_edge14_Node000001_Node000015"><a xlink:title=" ">
<path fill="none" stroke="#63b8ff" d="M1959.5,-107.27C2130.59,-106.72 2528.38,-99.96 2858.5,-53 2871.7,-51.12 2885.65,-48.44 2899.01,-45.52"/>
<polygon fill="#63b8ff" stroke="#63b8ff" points="1959.29,-103.77 1949.3,-107.29 1959.31,-110.77 1959.29,-103.77"/>
</a>
</g>
</g>
<!-- Node16 -->
<g id="Node000016" class="node">
<title>Node16</title>
<g id="a_Node000016"><a xlink:href="UartComprehensiveTest_8cpp.html" target="_top" xlink:title="Comprehensive UART testing suite for ESP32&#45;C6 DevKit&#45;M&#45;1 (noexcept)">
<polygon fill="white" stroke="#666666" points="3278,-45.5 3087,-45.5 3087,-7.5 3278,-7.5 3278,-45.5"/>
<text text-anchor="start" x="3095" y="-30.3" font-family="Arial" font-size="14.00">examples/esp32/main</text>
<text text-anchor="middle" x="3182.5" y="-15.3" font-family="Arial" font-size="14.00">/UartComprehensiveTest.cpp</text>
</a>
</g>
</g>
<!-- Node1&#45;&gt;Node16 -->
<g id="edge15_Node000001_Node000016" class="edge">
<title>Node1&#45;&gt;Node16</title>
<g id="a_edge15_Node000001_Node000016"><a xlink:title=" ">
<path fill="none" stroke="#63b8ff" d="M1959.4,-105.35C2196.43,-100.41 2862.05,-84.08 3078.5,-53 3091.2,-51.18 3104.6,-48.48 3117.42,-45.52"/>
<polygon fill="#63b8ff" stroke="#63b8ff" points="1959.04,-101.86 1949.12,-105.57 1959.19,-108.86 1959.04,-101.86"/>
</a>
</g>
</g>
<!-- Node17 -->
<g id="Node000017" class="node">
<title>Node17</title>
<g id="a_Node000017"><a xlink:href="UsbSerialJtagComprehensiveTest_8cpp.html" target="_top" xlink:title="Comprehensive test suite for the EspUsbSerialJtag wrapper (noexcept).">
<polygon fill="white" stroke="#666666" points="3496.5,-53 3296.5,-53 3296.5,0 3496.5,0 3496.5,-53"/>
<text text-anchor="start" x="3304.5" y="-37.8" font-family="Arial" font-size="14.00">examples/esp32/main</text>
<text text-anchor="start" x="3304.5" y="-22.8" font-family="Arial" font-size="14.00">/UsbSerialJtagComprehensive</text>
<text text-anchor="middle" x="3396.5" y="-7.8" font-family="Arial" font-size="14.00">Test.cpp</text>
</a>
</g>
</g>
<!-- Node1&#45;&gt;Node17 -->
<g id="edge16_Node000001_Node000017" class="edge">
<title>Node1&#45;&gt;Node17</title>
<g id="a_edge16_Node000001_Node000017"><a xlink:title=" ">
<path fill="none" stroke="#63b8ff" d="M1959.58,-105.89C2223.92,-102.09 3028.66,-87.89 3287.5,-53 3290.39,-52.61 3293.31,-52.18 3296.26,-51.71"/>
<polygon fill="#63b8ff" stroke="#63b8ff" points="1959.23,-102.39 1949.28,-106.03 1959.33,-109.39 1959.23,-102.39"/>
</a>
</g>
</g>
<!-- Node18 -->
<g id="Node000018" class="node">
<title>Node18</title>
<g id="a_Node000018"><a xlink:href="WifiComprehensiveTest_8cpp.html" target="_top" xlink:title="Comprehensive WiFi testing suite for ESP32&#45;C6 DevKit&#45;M&#45;1 with ESP&#45;IDF v5.5f.">
<polygon fill="white" stroke="#666666" points="3704,-45.5 3515,-45.5 3515,-7.5 3704,-7.5 3704,-45.5"/>
<text text-anchor="start" x="3523" y="-30.3" font-family="Arial" font-size="14.00">examples/esp32/main</text>
<text text-anchor="middle" x="3609.5" y="-15.3" font-family="Arial" font-size="14.00">/WifiComprehensiveTest.cpp</text>
</a>
</g>
</g>
<!-- Node1&#45;&gt;Node18 -->
<g id="edge17_Node000001_Node000018" class="edge">
<title>Node1&#45;&gt;Node18</title>
<g id="a_edge17_Node000001_Node000018"><a xlink:title=" ">
<path fill="none" stroke="#63b8ff" d="M1959.06,-106.51C2249.09,-104.49 3202.29,-94.73 3505.5,-53 3518.39,-51.23 3532.01,-48.52 3544.99,-45.51"/>
<polygon fill="#63b8ff" stroke="#63b8ff" points="1959,-103.01 1949.02,-106.58 1959.05,-110.01 1959,-103.01"/>
</a>
</g>
</g>
</g>
</svg>
