<?xml version="1.0" encoding="UTF-8" standalone="no"?>
<!DOCTYPE svg PUBLIC "-//W3C//DTD SVG 1.1//EN"
 "http://www.w3.org/Graphics/SVG/1.1/DTD/svg11.dtd">
<!-- Generated by graphviz version 2.43.0 (0)
 -->
<!-- Title: examples/esp32/main/TestFramework.h Pages: 1 -->
<!--zoomable 341 -->

<svg id="main" version="1.1" xmlns="http://www.w3.org/2000/svg" xmlns:xlink="http://www.w3.org/1999/xlink" xml:space="preserve" onload="init(evt)">
<style type="text/css"><![CDATA[
.node, .edge {opacity: 0.7;}
.node.selected, .edge.selected {opacity: 1;}
.edge:hover path { stroke: red; }
.edge:hover polygon { stroke: red; fill: red; }
]]></style>

<defs>
  <circle id="rim" cx="0" cy="0" r="7"/>
  <circle id="rim2" cx="0" cy="0" r="3.5"/>
  <g id="zoomPlus">
    <use xlink:href="#rim" fill="#404040"><set attributeName="fill" to="#808080" begin="zoomplus.mouseover" end="zoomplus.mouseout"/></use>
    <path d="M-4,0h8M0,-4v8" fill="none" stroke="white" stroke-width="1.5" pointer-events="none"/>
  </g>
  <g id="zoomMin">
    <use xlink:href="#rim" fill="#404040"><set attributeName="fill" to="#808080" begin="zoomminus.mouseover" end="zoomminus.mouseout"/></use>
    <path d="M-4,0h8" fill="none" stroke="white" stroke-width="1.5" pointer-events="none"/>
  </g>
  <g id="arrowUp" transform="translate(30 24)">
    <use xlink:href="#rim"/>
    <path pointer-events="none" fill="none" stroke="white" stroke-width="1.5" d="M0,-3.0v7 M-2.5,-0.5L0,-3.0L2.5,-0.5"/>
  </g>
  <g id="arrowRight" transform="rotate(90) translate(36 -43)">
    <use xlink:href="#rim"/>
    <path pointer-events="none" fill="none" stroke="white" stroke-width="1.5" d="M0,-3.0v7 M-2.5,-0.5L0,-3.0L2.5,-0.5"/>
  </g>
  <g id="arrowDown" transform="rotate(180) translate(-30 -48)">
    <use xlink:href="#rim"/>
    <path pointer-events="none" fill="none" stroke="white" stroke-width="1.5" d="M0,-3.0v7 M-2.5,-0.5L0,-3.0L2.5,-0.5"/>
  </g>
  <g id="arrowLeft" transform="rotate(270) translate(-36 17)">
    <use xlink:href="#rim"/>
    <path pointer-events="none" fill="none" stroke="white" stroke-width="1.5" d="M0,-3.0v7 M-2.5,-0.5L0,-3.0L2.5,-0.5"/>
  </g>
  <g id="resetDef">
    <use xlink:href="#rim2" fill="#404040"><set attributeName="fill" to="#808080" begin="reset.mouseover" end="reset.mouseout"/></use>
  </g>
</defs>
<script type="application/ecmascript">
var viewWidth = 1281;
var viewHeight = 341;
var sectionId = 'dynsection-0';
</script>
<script type="application/ecmascript" xlink:href="svg.min.js"/>
<svg id="graph" class="graph">
<g id="viewport">
<title>examples/esp32/main/TestFramework.h</title>
<!-- Node1 -->
<g id="Node000001" class="node">
<title>Node1</title>
<g id="a_Node000001"><a xlink:title="Shared testing framework for ESP32&#45;C6 comprehensive test suites.">
<polygon fill="#999999" stroke="#666666" points="559,-333 410,-333 410,-295 559,-295 559,-333"/>
<text text-anchor="start" x="418" y="-317.8" font-family="Arial" font-size="14.00">examples/esp32/main</text>
<text text-anchor="middle" x="484.5" y="-302.8" font-family="Arial" font-size="14.00">/TestFramework.h</text>
</a>
</g>
</g>
<!-- Node2 -->
<g id="Node000002" class="node">
<title>Node2</title>
<g id="a_Node000002"><a xlink:title=" ">
<polygon fill="#e0e0e0" stroke="#999999" points="75,-259 0,-259 0,-236 75,-236 75,-259"/>
<text text-anchor="middle" x="37.5" y="-243.8" font-family="Arial" font-size="14.00">esp_log.h</text>
</a>
</g>
</g>
<!-- Node1&#45;&gt;Node2 -->
<g id="edge1_Node000001_Node000002" class="edge">
<title>Node1&#45;&gt;Node2</title>
<g id="a_edge1_Node000001_Node000002"><a xlink:title=" ">
<path fill="none" stroke="#63b8ff" d="M409.91,-305C331.35,-296.12 203.89,-280.39 85.1,-259.18"/>
<polygon fill="#63b8ff" stroke="#63b8ff" points="85.56,-255.7 75.1,-257.37 84.32,-262.59 85.56,-255.7"/>
</a>
</g>
</g>
<!-- Node3 -->
<g id="Node000003" class="node">
<title>Node3</title>
<g id="a_Node000003"><a xlink:title=" ">
<polygon fill="#e0e0e0" stroke="#999999" points="180,-259 93,-259 93,-236 180,-236 180,-259"/>
<text text-anchor="middle" x="136.5" y="-243.8" font-family="Arial" font-size="14.00">esp_timer.h</text>
</a>
</g>
</g>
<!-- Node1&#45;&gt;Node3 -->
<g id="edge2_Node000001_Node000003" class="edge">
<title>Node1&#45;&gt;Node3</title>
<g id="a_edge2_Node000001_Node000003"><a xlink:title=" ">
<path fill="none" stroke="#63b8ff" d="M409.92,-299.79C352.48,-289.53 270.81,-274.74 190.48,-259.36"/>
<polygon fill="#63b8ff" stroke="#63b8ff" points="190.66,-255.83 180.18,-257.38 189.34,-262.7 190.66,-255.83"/>
</a>
</g>
</g>
<!-- Node4 -->
<g id="Node000004" class="node">
<title>Node4</title>
<g id="a_Node000004"><a xlink:title=" ">
<polygon fill="#e0e0e0" stroke="#999999" points="341,-259 198,-259 198,-236 341,-236 341,-259"/>
<text text-anchor="middle" x="269.5" y="-243.8" font-family="Arial" font-size="14.00">freertos/FreeRTOS.h</text>
</a>
</g>
</g>
<!-- Node1&#45;&gt;Node4 -->
<g id="edge3_Node000001_Node000004" class="edge">
<title>Node1&#45;&gt;Node4</title>
<g id="a_edge3_Node000001_Node000004"><a xlink:title=" ">
<path fill="none" stroke="#63b8ff" d="M424.32,-294.95C389.57,-284.52 346.58,-271.62 314.73,-262.07"/>
<polygon fill="#63b8ff" stroke="#63b8ff" points="315.38,-258.61 304.8,-259.09 313.37,-265.32 315.38,-258.61"/>
</a>
</g>
</g>
<!-- Node5 -->
<g id="Node000005" class="node">
<title>Node5</title>
<g id="a_Node000005"><a xlink:title=" ">
<polygon fill="#e0e0e0" stroke="#999999" points="474,-259 359,-259 359,-236 474,-236 474,-259"/>
<text text-anchor="middle" x="416.5" y="-243.8" font-family="Arial" font-size="14.00">freertos/queue.h</text>
</a>
</g>
</g>
<!-- Node1&#45;&gt;Node5 -->
<g id="edge4_Node000001_Node000005" class="edge">
<title>Node1&#45;&gt;Node5</title>
<g id="a_edge4_Node000001_Node000005"><a xlink:title=" ">
<path fill="none" stroke="#63b8ff" d="M465.2,-294.69C455.75,-285.73 444.42,-274.99 435.08,-266.12"/>
<polygon fill="#63b8ff" stroke="#63b8ff" points="437.44,-263.53 427.77,-259.19 432.62,-268.61 437.44,-263.53"/>
</a>
</g>
</g>
<!-- Node6 -->
<g id="Node000006" class="node">
<title>Node6</title>
<g id="a_Node000006"><a xlink:title=" ">
<polygon fill="#e0e0e0" stroke="#999999" points="614.5,-259 492.5,-259 492.5,-236 614.5,-236 614.5,-259"/>
<text text-anchor="middle" x="553.5" y="-243.8" font-family="Arial" font-size="14.00">freertos/semphr.h</text>
</a>
</g>
</g>
<!-- Node1&#45;&gt;Node6 -->
<g id="edge5_Node000001_Node000006" class="edge">
<title>Node1&#45;&gt;Node6</title>
<g id="a_edge5_Node000001_Node000006"><a xlink:title=" ">
<path fill="none" stroke="#63b8ff" d="M504.09,-294.69C513.68,-285.73 525.16,-274.99 534.65,-266.12"/>
<polygon fill="#63b8ff" stroke="#63b8ff" points="537.15,-268.58 542.06,-259.19 532.37,-263.46 537.15,-268.58"/>
</a>
</g>
</g>
<!-- Node7 -->
<g id="Node000007" class="node">
<title>Node7</title>
<g id="a_Node000007"><a xlink:title=" ">
<polygon fill="#e0e0e0" stroke="#999999" points="734.5,-259 632.5,-259 632.5,-236 734.5,-236 734.5,-259"/>
<text text-anchor="middle" x="683.5" y="-243.8" font-family="Arial" font-size="14.00">freertos/task.h</text>
</a>
</g>
</g>
<!-- Node1&#45;&gt;Node7 -->
<g id="edge6_Node000001_Node000007" class="edge">
<title>Node1&#45;&gt;Node7</title>
<g id="a_edge6_Node000001_Node000007"><a xlink:title=" ">
<path fill="none" stroke="#63b8ff" d="M540.2,-294.95C572.22,-284.57 611.81,-271.74 641.26,-262.19"/>
<polygon fill="#63b8ff" stroke="#63b8ff" points="642.39,-265.5 650.83,-259.09 640.24,-258.84 642.39,-265.5"/>
</a>
</g>
</g>
<!-- Node8 -->
<g id="Node000008" class="node">
<title>Node8</title>
<g id="a_Node000008"><a xlink:href="HardwareTypes_8h.html" target="_top" xlink:title="Platform&#45;agnostic hardware type definitions for the HardFOC system.">
<polygon fill="white" stroke="#666666" points="825.5,-82 703.5,-82 703.5,-59 825.5,-59 825.5,-82"/>
<text text-anchor="middle" x="764.5" y="-66.8" font-family="Arial" font-size="14.00">HardwareTypes.h</text>
</a>
</g>
</g>
<!-- Node1&#45;&gt;Node8 -->
<g id="edge7_Node000001_Node000008" class="edge">
<title>Node1&#45;&gt;Node8</title>
<g id="a_edge7_Node000001_Node000008"><a xlink:title=" ">
<path fill="none" stroke="#63b8ff" d="M559.21,-307.05C626.73,-300.03 719.15,-285.75 743.5,-259 785.84,-212.48 776.47,-130.24 769.15,-92.05"/>
<polygon fill="#63b8ff" stroke="#63b8ff" points="772.55,-91.19 767.09,-82.11 765.69,-92.61 772.55,-91.19"/>
</a>
</g>
</g>
<!-- Node11 -->
<g id="Node000011" class="node">
<title>Node11</title>
<g id="a_Node000011"><a xlink:href="EspGpio_8h.html" target="_top" xlink:title="Advanced MCU&#45;specific implementation of the unified BaseGpio class with ESP32/ESP&#45;IDF v5....">
<polygon fill="white" stroke="#666666" points="1069,-259 918,-259 918,-236 1069,-236 1069,-259"/>
<text text-anchor="middle" x="993.5" y="-243.8" font-family="Arial" font-size="14.00">mcu/esp32/EspGpio.h</text>
</a>
</g>
</g>
<!-- Node1&#45;&gt;Node11 -->
<g id="edge10_Node000001_Node000011" class="edge">
<title>Node1&#45;&gt;Node11</title>
<g id="a_edge10_Node000001_Node000011"><a xlink:title=" ">
<path fill="none" stroke="#63b8ff" d="M559.06,-303.55C651.87,-291.79 810.04,-271.75 907.77,-259.36"/>
<polygon fill="#63b8ff" stroke="#63b8ff" points="908.43,-262.81 917.91,-258.08 907.55,-255.86 908.43,-262.81"/>
</a>
</g>
</g>
<!-- Node9 -->
<g id="Node000009" class="node">
<title>Node9</title>
<g id="a_Node000009"><a xlink:title=" ">
<polygon fill="#e0e0e0" stroke="#999999" points="881.5,-23 825.5,-23 825.5,0 881.5,0 881.5,-23"/>
<text text-anchor="middle" x="853.5" y="-7.8" font-family="Arial" font-size="14.00">cstdint</text>
</a>
</g>
</g>
<!-- Node8&#45;&gt;Node9 -->
<g id="edge8_Node000008_Node000009" class="edge">
<title>Node8&#45;&gt;Node9</title>
<g id="a_edge8_Node000008_Node000009"><a xlink:title=" ">
<path fill="none" stroke="#63b8ff" d="M781.24,-58.78C794.42,-50.34 813,-38.44 828.02,-28.82"/>
<polygon fill="#63b8ff" stroke="#63b8ff" points="830.3,-31.51 836.83,-23.17 826.53,-25.62 830.3,-31.51"/>
</a>
</g>
</g>
<!-- Node10 -->
<g id="Node000010" class="node">
<title>Node10</title>
<g id="a_Node000010"><a xlink:title=" ">
<polygon fill="#e0e0e0" stroke="#999999" points="788.5,-23 740.5,-23 740.5,0 788.5,0 788.5,-23"/>
<text text-anchor="middle" x="764.5" y="-7.8" font-family="Arial" font-size="14.00">limits</text>
</a>
</g>
</g>
<!-- Node8&#45;&gt;Node10 -->
<g id="edge9_Node000008_Node000010" class="edge">
<title>Node8&#45;&gt;Node10</title>
<g id="a_edge9_Node000008_Node000010"><a xlink:title=" ">
<path fill="none" stroke="#63b8ff" d="M764.5,-58.78C764.5,-51.61 764.5,-41.95 764.5,-33.31"/>
<polygon fill="#63b8ff" stroke="#63b8ff" points="768,-33.17 764.5,-23.17 761,-33.17 768,-33.17"/>
</a>
</g>
</g>
<!-- Node12 -->
<g id="Node000012" class="node">
<title>Node12</title>
<g id="a_Node000012"><a xlink:title=" ">
<polygon fill="#e0e0e0" stroke="#999999" points="1104,-200 1013,-200 1013,-177 1104,-177 1104,-200"/>
<text text-anchor="middle" x="1058.5" y="-184.8" font-family="Arial" font-size="14.00">driver/gpio.h</text>
</a>
</g>
</g>
<!-- Node11&#45;&gt;Node12 -->
<g id="edge11_Node000011_Node000012" class="edge">
<title>Node11&#45;&gt;Node12</title>
<g id="a_edge11_Node000011_Node000012"><a xlink:title=" ">
<path fill="none" stroke="#63b8ff" d="M1005.73,-235.78C1014.99,-227.66 1027.9,-216.33 1038.64,-206.92"/>
<polygon fill="#63b8ff" stroke="#63b8ff" points="1041.12,-209.4 1046.33,-200.17 1036.5,-204.13 1041.12,-209.4"/>
</a>
</g>
</g>
<!-- Node13 -->
<g id="Node000013" class="node">
<title>Node13</title>
<g id="a_Node000013"><a xlink:title=" ">
<polygon fill="#e0e0e0" stroke="#999999" points="1198.5,-200 1122.5,-200 1122.5,-177 1198.5,-177 1198.5,-200"/>
<text text-anchor="middle" x="1160.5" y="-184.8" font-family="Arial" font-size="14.00">esp_attr.h</text>
</a>
</g>
</g>
<!-- Node11&#45;&gt;Node13 -->
<g id="edge12_Node000011_Node000013" class="edge">
<title>Node11&#45;&gt;Node13</title>
<g id="a_edge12_Node000011_Node000013"><a xlink:title=" ">
<path fill="none" stroke="#63b8ff" d="M1024.52,-235.91C1051.47,-226.71 1090.68,-213.33 1120.08,-203.29"/>
<polygon fill="#63b8ff" stroke="#63b8ff" points="1121.31,-206.57 1129.65,-200.03 1119.05,-199.95 1121.31,-206.57"/>
</a>
</g>
</g>
<!-- Node14 -->
<g id="Node000014" class="node">
<title>Node14</title>
<g id="a_Node000014"><a xlink:href="BaseGpio_8h.html" target="_top" xlink:title="Unified GPIO base class for all digital GPIO implementations.">
<polygon fill="white" stroke="#666666" points="916.5,-141 828.5,-141 828.5,-118 916.5,-118 916.5,-141"/>
<text text-anchor="middle" x="872.5" y="-125.8" font-family="Arial" font-size="14.00">BaseGpio.h</text>
</a>
</g>
</g>
<!-- Node11&#45;&gt;Node14 -->
<g id="edge13_Node000011_Node000014" class="edge">
<title>Node11&#45;&gt;Node14</title>
<g id="a_edge13_Node000011_Node000014"><a xlink:title=" ">
<path fill="none" stroke="#63b8ff" d="M917.93,-238.42C894.05,-231.89 870.1,-220.33 855.5,-200 845.04,-185.43 851.78,-165.19 859.65,-150.31"/>
<polygon fill="#63b8ff" stroke="#63b8ff" points="862.82,-151.82 864.82,-141.42 856.77,-148.31 862.82,-151.82"/>
</a>
</g>
</g>
<!-- Node16 -->
<g id="Node000016" class="node">
<title>Node16</title>
<g id="a_Node000016"><a xlink:href="EspTypes__GPIO_8h.html" target="_top" xlink:title="ESP32 GPIO type definitions for hardware abstraction.">
<polygon fill="white" stroke="#666666" points="994.5,-200 864.5,-200 864.5,-177 994.5,-177 994.5,-200"/>
<text text-anchor="middle" x="929.5" y="-184.8" font-family="Arial" font-size="14.00">EspTypes_GPIO.h</text>
</a>
</g>
</g>
<!-- Node11&#45;&gt;Node16 -->
<g id="edge17_Node000011_Node000016" class="edge">
<title>Node11&#45;&gt;Node16</title>
<g id="a_edge17_Node000011_Node000016"><a xlink:title=" ">
<path fill="none" stroke="#63b8ff" d="M981.46,-235.78C972.34,-227.66 959.63,-216.33 949.05,-206.92"/>
<polygon fill="#63b8ff" stroke="#63b8ff" points="951.28,-204.21 941.48,-200.17 946.62,-209.44 951.28,-204.21"/>
</a>
</g>
</g>
<!-- Node20 -->
<g id="Node000020" class="node">
<title>Node20</title>
<g id="a_Node000020"><a xlink:title=" ">
<polygon fill="#e0e0e0" stroke="#999999" points="1272.5,-200 1216.5,-200 1216.5,-177 1272.5,-177 1272.5,-200"/>
<text text-anchor="middle" x="1244.5" y="-184.8" font-family="Arial" font-size="14.00">stdio.h</text>
</a>
</g>
</g>
<!-- Node11&#45;&gt;Node20 -->
<g id="edge26_Node000011_Node000020" class="edge">
<title>Node11&#45;&gt;Node20</title>
<g id="a_edge26_Node000011_Node000020"><a xlink:title=" ">
<path fill="none" stroke="#63b8ff" d="M1046.48,-235.95C1087.63,-227.54 1146.32,-215.06 1206.25,-200.21"/>
<polygon fill="#63b8ff" stroke="#63b8ff" points="1207.41,-203.53 1216.27,-197.71 1205.72,-196.74 1207.41,-203.53"/>
</a>
</g>
</g>
<!-- Node14&#45;&gt;Node8 -->
<g id="edge14_Node000014_Node000008" class="edge">
<title>Node14&#45;&gt;Node8</title>
<g id="a_edge14_Node000014_Node000008"><a xlink:title=" ">
<path fill="none" stroke="#63b8ff" d="M852.44,-117.91C835.84,-109.15 812.06,-96.6 793.41,-86.76"/>
<polygon fill="#63b8ff" stroke="#63b8ff" points="794.93,-83.6 784.45,-82.03 791.66,-89.79 794.93,-83.6"/>
</a>
</g>
</g>
<!-- Node14&#45;&gt;Node9 -->
<g id="edge15_Node000014_Node000009" class="edge">
<title>Node14&#45;&gt;Node9</title>
<g id="a_edge15_Node000014_Node000009"><a xlink:title=" ">
<path fill="none" stroke="#63b8ff" d="M870.75,-117.79C867.61,-98.63 860.98,-58.15 856.91,-33.34"/>
<polygon fill="#63b8ff" stroke="#63b8ff" points="860.32,-32.48 855.25,-23.18 853.41,-33.61 860.32,-32.48"/>
</a>
</g>
</g>
<!-- Node15 -->
<g id="Node000015" class="node">
<title>Node15</title>
<g id="a_Node000015"><a xlink:title=" ">
<polygon fill="#e0e0e0" stroke="#999999" points="965.5,-82 881.5,-82 881.5,-59 965.5,-59 965.5,-82"/>
<text text-anchor="middle" x="923.5" y="-66.8" font-family="Arial" font-size="14.00">string_view</text>
</a>
</g>
</g>
<!-- Node14&#45;&gt;Node15 -->
<g id="edge16_Node000014_Node000015" class="edge">
<title>Node14&#45;&gt;Node15</title>
<g id="a_edge16_Node000014_Node000015"><a xlink:title=" ">
<path fill="none" stroke="#63b8ff" d="M882.09,-117.78C889.14,-109.9 898.9,-98.99 907.17,-89.75"/>
<polygon fill="#63b8ff" stroke="#63b8ff" points="909.89,-91.96 913.95,-82.17 904.67,-87.29 909.89,-91.96"/>
</a>
</g>
</g>
<!-- Node16&#45;&gt;Node8 -->
<g id="edge24_Node000016_Node000008" class="edge">
<title>Node16&#45;&gt;Node8</title>
<g id="a_edge24_Node000016_Node000008"><a xlink:title=" ">
<path fill="none" stroke="#63b8ff" d="M892.15,-176.92C869.63,-169.33 841.19,-157.51 819.5,-141 801.35,-127.18 785.78,-106.07 775.89,-90.73"/>
<polygon fill="#63b8ff" stroke="#63b8ff" points="778.74,-88.7 770.49,-82.05 772.8,-92.39 778.74,-88.7"/>
</a>
</g>
</g>
<!-- Node16&#45;&gt;Node14 -->
<g id="edge18_Node000016_Node000014" class="edge">
<title>Node16&#45;&gt;Node14</title>
<g id="a_edge18_Node000016_Node000014"><a xlink:title=" ">
<path fill="none" stroke="#63b8ff" d="M918.78,-176.78C910.82,-168.82 899.77,-157.77 890.47,-148.47"/>
<polygon fill="#63b8ff" stroke="#63b8ff" points="892.72,-145.77 883.17,-141.17 887.77,-150.72 892.72,-145.77"/>
</a>
</g>
</g>
<!-- Node17 -->
<g id="Node000017" class="node">
<title>Node17</title>
<g id="a_Node000017"><a xlink:href="EspTypes__Base_8h.html" target="_top" xlink:title="ESP32 base type definitions for hardware abstraction.">
<polygon fill="white" stroke="#666666" points="1059,-141 934,-141 934,-118 1059,-118 1059,-141"/>
<text text-anchor="middle" x="996.5" y="-125.8" font-family="Arial" font-size="14.00">EspTypes_Base.h</text>
</a>
</g>
</g>
<!-- Node16&#45;&gt;Node17 -->
<g id="edge19_Node000016_Node000017" class="edge">
<title>Node16&#45;&gt;Node17</title>
<g id="a_edge19_Node000016_Node000017"><a xlink:title=" ">
<path fill="none" stroke="#63b8ff" d="M942.1,-176.78C951.65,-168.66 964.96,-157.33 976.03,-147.92"/>
<polygon fill="#63b8ff" stroke="#63b8ff" points="978.61,-150.32 983.95,-141.17 974.07,-144.99 978.61,-150.32"/>
</a>
</g>
</g>
<!-- Node18 -->
<g id="Node000018" class="node">
<title>Node18</title>
<g id="a_Node000018"><a xlink:href="McuSelect_8h.html" target="_top" xlink:title="Centralized MCU platform selection and configuration header.">
<polygon fill="white" stroke="#666666" points="1239.5,-82 1097.5,-82 1097.5,-59 1239.5,-59 1239.5,-82"/>
<text text-anchor="middle" x="1168.5" y="-66.8" font-family="Arial" font-size="14.00">../../utils/McuSelect.h</text>
</a>
</g>
</g>
<!-- Node16&#45;&gt;Node18 -->
<g id="edge25_Node000016_Node000018" class="edge">
<title>Node16&#45;&gt;Node18</title>
<g id="a_edge25_Node000016_Node000018"><a xlink:title=" ">
<path fill="none" stroke="#63b8ff" d="M971.17,-176.92C999.45,-168.94 1037.23,-156.69 1068.5,-141 1097.8,-126.3 1128.29,-103.91 1147.78,-88.54"/>
<polygon fill="#63b8ff" stroke="#63b8ff" points="1150.05,-91.2 1155.67,-82.22 1145.68,-85.74 1150.05,-91.2"/>
</a>
</g>
</g>
<!-- Node17&#45;&gt;Node8 -->
<g id="edge21_Node000017_Node000008" class="edge">
<title>Node17&#45;&gt;Node8</title>
<g id="a_edge21_Node000017_Node000008"><a xlink:title=" ">
<path fill="none" stroke="#63b8ff" d="M953.68,-117.98C915.21,-108.53 858.61,-94.62 817.34,-84.48"/>
<polygon fill="#63b8ff" stroke="#63b8ff" points="818.01,-81.04 807.47,-82.06 816.34,-87.84 818.01,-81.04"/>
</a>
</g>
</g>
<!-- Node17&#45;&gt;Node9 -->
<g id="edge23_Node000017_Node000009" class="edge">
<title>Node17&#45;&gt;Node9</title>
<g id="a_edge23_Node000017_Node000009"><a xlink:title=" ">
<path fill="none" stroke="#63b8ff" d="M995.94,-117.9C994.6,-102.9 990.03,-75.49 974.5,-59 952.78,-35.93 918.35,-24.17 891.76,-18.26"/>
<polygon fill="#63b8ff" stroke="#63b8ff" points="892.13,-14.76 881.63,-16.2 890.73,-21.62 892.13,-14.76"/>
</a>
</g>
</g>
<!-- Node17&#45;&gt;Node18 -->
<g id="edge20_Node000017_Node000018" class="edge">
<title>Node17&#45;&gt;Node18</title>
<g id="a_edge20_Node000017_Node000018"><a xlink:title=" ">
<path fill="none" stroke="#63b8ff" d="M1028.45,-117.91C1056.21,-108.71 1096.59,-95.33 1126.87,-85.29"/>
<polygon fill="#63b8ff" stroke="#63b8ff" points="1128.33,-88.5 1136.72,-82.03 1126.13,-81.85 1128.33,-88.5"/>
</a>
</g>
</g>
<!-- Node19 -->
<g id="Node000019" class="node">
<title>Node19</title>
<g id="a_Node000019"><a xlink:title=" ">
<polygon fill="#e0e0e0" stroke="#999999" points="1079,-82 1022,-82 1022,-59 1079,-59 1079,-82"/>
<text text-anchor="middle" x="1050.5" y="-66.8" font-family="Arial" font-size="14.00">atomic</text>
</a>
</g>
</g>
<!-- Node17&#45;&gt;Node19 -->
<g id="edge22_Node000017_Node000019" class="edge">
<title>Node17&#45;&gt;Node19</title>
<g id="a_edge22_Node000017_Node000019"><a xlink:title=" ">
<path fill="none" stroke="#63b8ff" d="M1006.66,-117.78C1014.2,-109.82 1024.66,-98.77 1033.47,-89.47"/>
<polygon fill="#63b8ff" stroke="#63b8ff" points="1036.05,-91.84 1040.39,-82.17 1030.97,-87.03 1036.05,-91.84"/>
</a>
</g>
</g>
</g>
</svg>

<g id="navigator" transform="translate(0 0)" fill="#404254">
  <rect fill="#f2f5e9" fill-opacity="0.5" stroke="#606060" stroke-width=".5" x="0" y="0" width="60" height="60"/>
  <use id="zoomplus" xlink:href="#zoomPlus" x="17" y="9" onmousedown="handleZoom(evt,'in')"/>
  <use id="zoomminus" xlink:href="#zoomMin" x="42" y="9" onmousedown="handleZoom(evt,'out')"/>
  <use id="reset" xlink:href="#resetDef" x="30" y="36" onmousedown="handleReset()"/>
   <use id="arrowup" xlink:href="#arrowUp" x="0" y="0" onmousedown="handlePan(0,-1)"/>
  <use id="arrowright" xlink:href="#arrowRight" x="0" y="0" onmousedown="handlePan(1,0)"/>
  <use id="arrowdown" xlink:href="#arrowDown" x="0" y="0" onmousedown="handlePan(0,1)"/>
  <use id="arrowleft" xlink:href="#arrowLeft" x="0" y="0" onmousedown="handlePan(-1,0)"/>
</g>
<svg viewBox="0 0 15 15" width="100%" height="30px" preserveAspectRatio="xMaxYMin meet">
 <g id="arrow_out" transform="scale(0.3 0.3)">
  <a xlink:href="TestFramework_8h__incl_org.svg" target="_base">
   <rect id="button" ry="5" rx="5" y="6" x="6" height="38" width="38"
        fill="#f2f5e9" fill-opacity="0.5" stroke="#606060" stroke-width="1.0"/>
   <path id="arrow"
     d="M 11.500037,31.436501 C 11.940474,20.09759 22.043105,11.32322 32.158766,21.979434 L 37.068811,17.246167 C 37.068811,17.246167 37.088388,32 37.088388,32 L 22.160133,31.978069 C 22.160133,31.978069 26.997745,27.140456 26.997745,27.140456 C 18.528582,18.264221 13.291696,25.230495 11.500037,31.436501 z"
     style="fill:#404040;"/>
  </a>
 </g>
</svg>

<style type='text/css'>
<![CDATA[
[data-mouse-over-selected='false'] { opacity: 0.7; }
[data-mouse-over-selected='true']  { opacity: 1.0; }
]]>
</style>
<script type="application/ecmascript"><![CDATA[
document.addEventListener('DOMContentLoaded', (event) => {
  highlightEdges();
  highlightAdjacentNodes();
});
]]></script>
</svg>
