<?xml version="1.0" encoding="UTF-8" standalone="no"?>
<!DOCTYPE svg PUBLIC "-//W3C//DTD SVG 1.1//EN"
 "http://www.w3.org/Graphics/SVG/1.1/DTD/svg11.dtd">
<!-- Generated by graphviz version 2.43.0 (0)
 -->
<!-- Title: examples/esp32/main/WifiComprehensiveTest.cpp Pages: 1 -->
<svg width="2453pt" height="400pt"
 viewBox="0.00 0.00 2452.50 400.00" xmlns="http://www.w3.org/2000/svg" xmlns:xlink="http://www.w3.org/1999/xlink">
<g id="graph0" class="graph" transform="scale(1 1) rotate(0) translate(4 396)">
<title>examples/esp32/main/WifiComprehensiveTest.cpp</title>
<!-- Node1 -->
<g id="Node000001" class="node">
<title>Node1</title>
<g id="a_Node000001"><a xlink:title="Comprehensive WiFi testing suite for ESP32&#45;C6 DevKit&#45;M&#45;1 with ESP&#45;IDF v5.5f.">
<polygon fill="#999999" stroke="#666666" points="1334,-392 1145,-392 1145,-354 1334,-354 1334,-392"/>
<text text-anchor="start" x="1153" y="-376.8" font-family="Arial" font-size="14.00">examples/esp32/main</text>
<text text-anchor="middle" x="1239.5" y="-361.8" font-family="Arial" font-size="14.00">/WifiComprehensiveTest.cpp</text>
</a>
</g>
</g>
<!-- Node2 -->
<g id="Node000002" class="node">
<title>Node2</title>
<g id="a_Node000002"><a xlink:href="TestFramework_8h.html" target="_top" xlink:title="Shared testing framework for ESP32&#45;C6 comprehensive test suites.">
<polygon fill="white" stroke="#666666" points="614,-318 493,-318 493,-295 614,-295 614,-318"/>
<text text-anchor="middle" x="553.5" y="-302.8" font-family="Arial" font-size="14.00">TestFramework.h</text>
</a>
</g>
</g>
<!-- Node1&#45;&gt;Node2 -->
<g id="edge1_Node000001_Node000002" class="edge">
<title>Node1&#45;&gt;Node2</title>
<g id="a_edge1_Node000001_Node000002"><a xlink:title=" ">
<path fill="none" stroke="#63b8ff" d="M1144.83,-363.1C1005.59,-350.01 748.65,-325.85 624.42,-314.17"/>
<polygon fill="#63b8ff" stroke="#63b8ff" points="624.55,-310.67 614.27,-313.21 623.9,-317.63 624.55,-310.67"/>
</a>
</g>
</g>
<!-- Node22 -->
<g id="Node000022" class="node">
<title>Node22</title>
<g id="a_Node000022"><a xlink:href="BaseWifi_8h.html" target="_top" xlink:title="Unified WiFi base class for all WiFi implementations.">
<polygon fill="white" stroke="#666666" points="1060,-141 945,-141 945,-118 1060,-118 1060,-141"/>
<text text-anchor="middle" x="1002.5" y="-125.8" font-family="Arial" font-size="14.00">base/BaseWifi.h</text>
</a>
</g>
</g>
<!-- Node1&#45;&gt;Node22 -->
<g id="edge28_Node000001_Node000022" class="edge">
<title>Node1&#45;&gt;Node22</title>
<g id="a_edge28_Node000001_Node000022"><a xlink:title=" ">
<path fill="none" stroke="#63b8ff" d="M1248.9,-353.9C1267.04,-316.19 1301.44,-228.44 1258.5,-177 1255.45,-173.35 1145.42,-154.34 1070.61,-141.79"/>
<polygon fill="#63b8ff" stroke="#63b8ff" points="1070.75,-138.26 1060.31,-140.06 1069.59,-145.17 1070.75,-138.26"/>
</a>
</g>
</g>
<!-- Node25 -->
<g id="Node000025" class="node">
<title>Node25</title>
<g id="a_Node000025"><a xlink:href="EspWifi_8h.html" target="_top" xlink:title="Advanced ESP32 implementation of the unified BaseWifi class with ESP&#45;IDF v5.5+ features.">
<polygon fill="white" stroke="#666666" points="1791,-200 1646,-200 1646,-177 1791,-177 1791,-200"/>
<text text-anchor="middle" x="1718.5" y="-184.8" font-family="Arial" font-size="14.00">mcu/esp32/EspWifi.h</text>
</a>
</g>
</g>
<!-- Node1&#45;&gt;Node25 -->
<g id="edge34_Node000001_Node000025" class="edge">
<title>Node1&#45;&gt;Node25</title>
<g id="a_edge34_Node000001_Node000025"><a xlink:title=" ">
<path fill="none" stroke="#63b8ff" d="M1287.18,-353.83C1382.65,-317.46 1595.48,-236.37 1681.43,-203.62"/>
<polygon fill="#63b8ff" stroke="#63b8ff" points="1682.69,-206.89 1690.79,-200.06 1680.2,-200.35 1682.69,-206.89"/>
</a>
</g>
</g>
<!-- Node3 -->
<g id="Node000003" class="node">
<title>Node3</title>
<g id="a_Node000003"><a xlink:title=" ">
<polygon fill="#e0e0e0" stroke="#999999" points="75,-259 0,-259 0,-236 75,-236 75,-259"/>
<text text-anchor="middle" x="37.5" y="-243.8" font-family="Arial" font-size="14.00">esp_log.h</text>
</a>
</g>
</g>
<!-- Node2&#45;&gt;Node3 -->
<g id="edge2_Node000002_Node000003" class="edge">
<title>Node2&#45;&gt;Node3</title>
<g id="a_edge2_Node000002_Node000003"><a xlink:title=" ">
<path fill="none" stroke="#63b8ff" d="M492.72,-301.94C404.77,-296.24 236.79,-283.34 85.05,-259.1"/>
<polygon fill="#63b8ff" stroke="#63b8ff" points="85.51,-255.63 75.08,-257.48 84.39,-262.54 85.51,-255.63"/>
</a>
</g>
</g>
<!-- Node4 -->
<g id="Node000004" class="node">
<title>Node4</title>
<g id="a_Node000004"><a xlink:title=" ">
<polygon fill="#e0e0e0" stroke="#999999" points="180,-259 93,-259 93,-236 180,-236 180,-259"/>
<text text-anchor="middle" x="136.5" y="-243.8" font-family="Arial" font-size="14.00">esp_timer.h</text>
</a>
</g>
</g>
<!-- Node2&#45;&gt;Node4 -->
<g id="edge3_Node000002_Node000004" class="edge">
<title>Node2&#45;&gt;Node4</title>
<g id="a_edge3_Node000002_Node000004"><a xlink:title=" ">
<path fill="none" stroke="#63b8ff" d="M492.92,-299.14C422.47,-291.45 302.47,-277.4 190.29,-259.21"/>
<polygon fill="#63b8ff" stroke="#63b8ff" points="190.58,-255.71 180.15,-257.55 189.45,-262.62 190.58,-255.71"/>
</a>
</g>
</g>
<!-- Node5 -->
<g id="Node000005" class="node">
<title>Node5</title>
<g id="a_Node000005"><a xlink:title=" ">
<polygon fill="#e0e0e0" stroke="#999999" points="341,-259 198,-259 198,-236 341,-236 341,-259"/>
<text text-anchor="middle" x="269.5" y="-243.8" font-family="Arial" font-size="14.00">freertos/FreeRTOS.h</text>
</a>
</g>
</g>
<!-- Node2&#45;&gt;Node5 -->
<g id="edge4_Node000002_Node000005" class="edge">
<title>Node2&#45;&gt;Node5</title>
<g id="a_edge4_Node000002_Node000005"><a xlink:title=" ">
<path fill="none" stroke="#63b8ff" d="M501.08,-294.98C453.3,-285.39 382.64,-271.21 331.95,-261.03"/>
<polygon fill="#63b8ff" stroke="#63b8ff" points="332.59,-257.59 322.1,-259.06 331.21,-264.46 332.59,-257.59"/>
</a>
</g>
</g>
<!-- Node6 -->
<g id="Node000006" class="node">
<title>Node6</title>
<g id="a_Node000006"><a xlink:title=" ">
<polygon fill="#e0e0e0" stroke="#999999" points="474,-259 359,-259 359,-236 474,-236 474,-259"/>
<text text-anchor="middle" x="416.5" y="-243.8" font-family="Arial" font-size="14.00">freertos/queue.h</text>
</a>
</g>
</g>
<!-- Node2&#45;&gt;Node6 -->
<g id="edge5_Node000002_Node000006" class="edge">
<title>Node2&#45;&gt;Node6</title>
<g id="a_edge5_Node000002_Node000006"><a xlink:title=" ">
<path fill="none" stroke="#63b8ff" d="M528.05,-294.91C506.42,-285.91 475.17,-272.91 451.24,-262.95"/>
<polygon fill="#63b8ff" stroke="#63b8ff" points="452.39,-259.64 441.81,-259.03 449.7,-266.1 452.39,-259.64"/>
</a>
</g>
</g>
<!-- Node7 -->
<g id="Node000007" class="node">
<title>Node7</title>
<g id="a_Node000007"><a xlink:title=" ">
<polygon fill="#e0e0e0" stroke="#999999" points="614.5,-259 492.5,-259 492.5,-236 614.5,-236 614.5,-259"/>
<text text-anchor="middle" x="553.5" y="-243.8" font-family="Arial" font-size="14.00">freertos/semphr.h</text>
</a>
</g>
</g>
<!-- Node2&#45;&gt;Node7 -->
<g id="edge6_Node000002_Node000007" class="edge">
<title>Node2&#45;&gt;Node7</title>
<g id="a_edge6_Node000002_Node000007"><a xlink:title=" ">
<path fill="none" stroke="#63b8ff" d="M553.5,-294.78C553.5,-287.61 553.5,-277.95 553.5,-269.31"/>
<polygon fill="#63b8ff" stroke="#63b8ff" points="557,-269.17 553.5,-259.17 550,-269.17 557,-269.17"/>
</a>
</g>
</g>
<!-- Node8 -->
<g id="Node000008" class="node">
<title>Node8</title>
<g id="a_Node000008"><a xlink:title=" ">
<polygon fill="#e0e0e0" stroke="#999999" points="734.5,-259 632.5,-259 632.5,-236 734.5,-236 734.5,-259"/>
<text text-anchor="middle" x="683.5" y="-243.8" font-family="Arial" font-size="14.00">freertos/task.h</text>
</a>
</g>
</g>
<!-- Node2&#45;&gt;Node8 -->
<g id="edge7_Node000002_Node000008" class="edge">
<title>Node2&#45;&gt;Node8</title>
<g id="a_edge7_Node000002_Node000008"><a xlink:title=" ">
<path fill="none" stroke="#63b8ff" d="M577.65,-294.91C598.08,-285.95 627.57,-273.02 650.23,-263.09"/>
<polygon fill="#63b8ff" stroke="#63b8ff" points="651.73,-266.25 659.48,-259.03 648.92,-259.84 651.73,-266.25"/>
</a>
</g>
</g>
<!-- Node9 -->
<g id="Node000009" class="node">
<title>Node9</title>
<g id="a_Node000009"><a xlink:href="HardwareTypes_8h.html" target="_top" xlink:title="Platform&#45;agnostic hardware type definitions for the HardFOC system.">
<polygon fill="white" stroke="#666666" points="823.5,-82 701.5,-82 701.5,-59 823.5,-59 823.5,-82"/>
<text text-anchor="middle" x="762.5" y="-66.8" font-family="Arial" font-size="14.00">HardwareTypes.h</text>
</a>
</g>
</g>
<!-- Node2&#45;&gt;Node9 -->
<g id="edge8_Node000002_Node000009" class="edge">
<title>Node2&#45;&gt;Node9</title>
<g id="a_edge8_Node000002_Node000009"><a xlink:title=" ">
<path fill="none" stroke="#63b8ff" d="M614.19,-298.28C663.17,-291.13 726.62,-278.41 743.5,-259 784.74,-211.59 774.8,-129.8 767.26,-91.88"/>
<polygon fill="#63b8ff" stroke="#63b8ff" points="770.66,-91.06 765.15,-82.02 763.81,-92.53 770.66,-91.06"/>
</a>
</g>
</g>
<!-- Node12 -->
<g id="Node000012" class="node">
<title>Node12</title>
<g id="a_Node000012"><a xlink:href="EspGpio_8h.html" target="_top" xlink:title="Advanced MCU&#45;specific implementation of the unified BaseGpio class with ESP32C6/ESP&#45;IDF v5....">
<polygon fill="white" stroke="#666666" points="1047,-259 896,-259 896,-236 1047,-236 1047,-259"/>
<text text-anchor="middle" x="971.5" y="-243.8" font-family="Arial" font-size="14.00">mcu/esp32/EspGpio.h</text>
</a>
</g>
</g>
<!-- Node2&#45;&gt;Node12 -->
<g id="edge11_Node000002_Node000012" class="edge">
<title>Node2&#45;&gt;Node12</title>
<g id="a_edge11_Node000002_Node000012"><a xlink:title=" ">
<path fill="none" stroke="#63b8ff" d="M614.28,-297.21C685.72,-287.47 804.76,-271.24 885.61,-260.21"/>
<polygon fill="#63b8ff" stroke="#63b8ff" points="886.33,-263.65 895.77,-258.83 885.39,-256.71 886.33,-263.65"/>
</a>
</g>
</g>
<!-- Node10 -->
<g id="Node000010" class="node">
<title>Node10</title>
<g id="a_Node000010"><a xlink:title=" ">
<polygon fill="#e0e0e0" stroke="#999999" points="981.5,-23 925.5,-23 925.5,0 981.5,0 981.5,-23"/>
<text text-anchor="middle" x="953.5" y="-7.8" font-family="Arial" font-size="14.00">cstdint</text>
</a>
</g>
</g>
<!-- Node9&#45;&gt;Node10 -->
<g id="edge9_Node000009_Node000010" class="edge">
<title>Node9&#45;&gt;Node10</title>
<g id="a_edge9_Node000009_Node000010"><a xlink:title=" ">
<path fill="none" stroke="#63b8ff" d="M797.98,-58.91C831.46,-48.92 881.5,-33.99 915.72,-23.78"/>
<polygon fill="#63b8ff" stroke="#63b8ff" points="916.77,-27.11 925.35,-20.9 914.77,-20.41 916.77,-27.11"/>
</a>
</g>
</g>
<!-- Node11 -->
<g id="Node000011" class="node">
<title>Node11</title>
<g id="a_Node000011"><a xlink:title=" ">
<polygon fill="#e0e0e0" stroke="#999999" points="786.5,-23 738.5,-23 738.5,0 786.5,0 786.5,-23"/>
<text text-anchor="middle" x="762.5" y="-7.8" font-family="Arial" font-size="14.00">limits</text>
</a>
</g>
</g>
<!-- Node9&#45;&gt;Node11 -->
<g id="edge10_Node000009_Node000011" class="edge">
<title>Node9&#45;&gt;Node11</title>
<g id="a_edge10_Node000009_Node000011"><a xlink:title=" ">
<path fill="none" stroke="#63b8ff" d="M762.5,-58.78C762.5,-51.61 762.5,-41.95 762.5,-33.31"/>
<polygon fill="#63b8ff" stroke="#63b8ff" points="766,-33.17 762.5,-23.17 759,-33.17 766,-33.17"/>
</a>
</g>
</g>
<!-- Node13 -->
<g id="Node000013" class="node">
<title>Node13</title>
<g id="a_Node000013"><a xlink:title=" ">
<polygon fill="#e0e0e0" stroke="#999999" points="1081,-200 990,-200 990,-177 1081,-177 1081,-200"/>
<text text-anchor="middle" x="1035.5" y="-184.8" font-family="Arial" font-size="14.00">driver/gpio.h</text>
</a>
</g>
</g>
<!-- Node12&#45;&gt;Node13 -->
<g id="edge12_Node000012_Node000013" class="edge">
<title>Node12&#45;&gt;Node13</title>
<g id="a_edge12_Node000012_Node000013"><a xlink:title=" ">
<path fill="none" stroke="#63b8ff" d="M983.54,-235.78C992.66,-227.66 1005.37,-216.33 1015.95,-206.92"/>
<polygon fill="#63b8ff" stroke="#63b8ff" points="1018.38,-209.44 1023.52,-200.17 1013.72,-204.21 1018.38,-209.44"/>
</a>
</g>
</g>
<!-- Node14 -->
<g id="Node000014" class="node">
<title>Node14</title>
<g id="a_Node000014"><a xlink:title=" ">
<polygon fill="#e0e0e0" stroke="#999999" points="1175.5,-200 1099.5,-200 1099.5,-177 1175.5,-177 1175.5,-200"/>
<text text-anchor="middle" x="1137.5" y="-184.8" font-family="Arial" font-size="14.00">esp_attr.h</text>
</a>
</g>
</g>
<!-- Node12&#45;&gt;Node14 -->
<g id="edge13_Node000012_Node000014" class="edge">
<title>Node12&#45;&gt;Node14</title>
<g id="a_edge13_Node000012_Node000014"><a xlink:title=" ">
<path fill="none" stroke="#63b8ff" d="M1002.33,-235.91C1029.12,-226.71 1068.1,-213.33 1097.33,-203.29"/>
<polygon fill="#63b8ff" stroke="#63b8ff" points="1098.51,-206.59 1106.83,-200.03 1096.24,-199.97 1098.51,-206.59"/>
</a>
</g>
</g>
<!-- Node15 -->
<g id="Node000015" class="node">
<title>Node15</title>
<g id="a_Node000015"><a xlink:href="BaseGpio_8h.html" target="_top" xlink:title="Unified GPIO base class for all digital GPIO implementations.">
<polygon fill="white" stroke="#666666" points="878.5,-141 790.5,-141 790.5,-118 878.5,-118 878.5,-141"/>
<text text-anchor="middle" x="834.5" y="-125.8" font-family="Arial" font-size="14.00">BaseGpio.h</text>
</a>
</g>
</g>
<!-- Node12&#45;&gt;Node15 -->
<g id="edge14_Node000012_Node000015" class="edge">
<title>Node12&#45;&gt;Node15</title>
<g id="a_edge14_Node000012_Node000015"><a xlink:title=" ">
<path fill="none" stroke="#63b8ff" d="M895.76,-238.65C871.59,-232.15 847.29,-220.55 832.5,-200 822.4,-185.97 824.23,-165.88 827.8,-150.91"/>
<polygon fill="#63b8ff" stroke="#63b8ff" points="831.23,-151.64 830.56,-141.07 824.49,-149.75 831.23,-151.64"/>
</a>
</g>
</g>
<!-- Node17 -->
<g id="Node000017" class="node">
<title>Node17</title>
<g id="a_Node000017"><a xlink:href="EspTypes__GPIO_8h.html" target="_top" xlink:title="ESP32 GPIO type definitions for hardware abstraction.">
<polygon fill="white" stroke="#666666" points="971.5,-200 841.5,-200 841.5,-177 971.5,-177 971.5,-200"/>
<text text-anchor="middle" x="906.5" y="-184.8" font-family="Arial" font-size="14.00">EspTypes_GPIO.h</text>
</a>
</g>
</g>
<!-- Node12&#45;&gt;Node17 -->
<g id="edge18_Node000012_Node000017" class="edge">
<title>Node12&#45;&gt;Node17</title>
<g id="a_edge18_Node000012_Node000017"><a xlink:title=" ">
<path fill="none" stroke="#63b8ff" d="M959.27,-235.78C950.01,-227.66 937.1,-216.33 926.36,-206.92"/>
<polygon fill="#63b8ff" stroke="#63b8ff" points="928.5,-204.13 918.67,-200.17 923.88,-209.4 928.5,-204.13"/>
</a>
</g>
</g>
<!-- Node21 -->
<g id="Node000021" class="node">
<title>Node21</title>
<g id="a_Node000021"><a xlink:title=" ">
<polygon fill="#e0e0e0" stroke="#999999" points="1249.5,-200 1193.5,-200 1193.5,-177 1249.5,-177 1249.5,-200"/>
<text text-anchor="middle" x="1221.5" y="-184.8" font-family="Arial" font-size="14.00">stdio.h</text>
</a>
</g>
</g>
<!-- Node12&#45;&gt;Node21 -->
<g id="edge27_Node000012_Node000021" class="edge">
<title>Node12&#45;&gt;Node21</title>
<g id="a_edge27_Node000012_Node000021"><a xlink:title=" ">
<path fill="none" stroke="#63b8ff" d="M1024.23,-235.93C1065.18,-227.51 1123.61,-215.03 1183.29,-200.2"/>
<polygon fill="#63b8ff" stroke="#63b8ff" points="1184.42,-203.53 1193.27,-197.71 1182.72,-196.74 1184.42,-203.53"/>
</a>
</g>
</g>
<!-- Node15&#45;&gt;Node9 -->
<g id="edge15_Node000015_Node000009" class="edge">
<title>Node15&#45;&gt;Node9</title>
<g id="a_edge15_Node000015_Node000009"><a xlink:title=" ">
<path fill="none" stroke="#63b8ff" d="M820.96,-117.78C810.6,-109.58 796.11,-98.11 784.15,-88.64"/>
<polygon fill="#63b8ff" stroke="#63b8ff" points="785.99,-85.64 775.98,-82.17 781.65,-91.12 785.99,-85.64"/>
</a>
</g>
</g>
<!-- Node15&#45;&gt;Node10 -->
<g id="edge16_Node000015_Node000010" class="edge">
<title>Node15&#45;&gt;Node10</title>
<g id="a_edge16_Node000015_Node000010"><a xlink:title=" ">
<path fill="none" stroke="#63b8ff" d="M790.24,-122.87C738.02,-114.45 661.92,-95.51 692.5,-59 720.43,-25.66 849.35,-16.2 914.94,-13.54"/>
<polygon fill="#63b8ff" stroke="#63b8ff" points="915.42,-17.02 925.28,-13.15 915.16,-10.03 915.42,-17.02"/>
</a>
</g>
</g>
<!-- Node16 -->
<g id="Node000016" class="node">
<title>Node16</title>
<g id="a_Node000016"><a xlink:title=" ">
<polygon fill="#e0e0e0" stroke="#999999" points="925.5,-82 841.5,-82 841.5,-59 925.5,-59 925.5,-82"/>
<text text-anchor="middle" x="883.5" y="-66.8" font-family="Arial" font-size="14.00">string_view</text>
</a>
</g>
</g>
<!-- Node15&#45;&gt;Node16 -->
<g id="edge17_Node000015_Node000016" class="edge">
<title>Node15&#45;&gt;Node16</title>
<g id="a_edge17_Node000015_Node000016"><a xlink:title=" ">
<path fill="none" stroke="#63b8ff" d="M843.72,-117.78C850.42,-109.98 859.68,-99.21 867.57,-90.03"/>
<polygon fill="#63b8ff" stroke="#63b8ff" points="870.46,-92.04 874.32,-82.17 865.15,-87.47 870.46,-92.04"/>
</a>
</g>
</g>
<!-- Node17&#45;&gt;Node9 -->
<g id="edge25_Node000017_Node000009" class="edge">
<title>Node17&#45;&gt;Node9</title>
<g id="a_edge25_Node000017_Node000009"><a xlink:title=" ">
<path fill="none" stroke="#63b8ff" d="M906.48,-176.9C905.88,-161.92 902.61,-134.52 887.5,-118 873.2,-102.36 853.15,-91.96 833.28,-85.05"/>
<polygon fill="#63b8ff" stroke="#63b8ff" points="834.16,-81.66 823.57,-81.93 832.02,-88.32 834.16,-81.66"/>
</a>
</g>
</g>
<!-- Node17&#45;&gt;Node15 -->
<g id="edge19_Node000017_Node000015" class="edge">
<title>Node17&#45;&gt;Node15</title>
<g id="a_edge19_Node000017_Node000015"><a xlink:title=" ">
<path fill="none" stroke="#63b8ff" d="M892.96,-176.78C882.6,-168.58 868.11,-157.11 856.15,-147.64"/>
<polygon fill="#63b8ff" stroke="#63b8ff" points="857.99,-144.64 847.98,-141.17 853.65,-150.12 857.99,-144.64"/>
</a>
</g>
</g>
<!-- Node18 -->
<g id="Node000018" class="node">
<title>Node18</title>
<g id="a_Node000018"><a xlink:href="EspTypes__Base_8h.html" target="_top" xlink:title="ESP32 base type definitions for hardware abstraction.">
<polygon fill="white" stroke="#666666" points="1203,-141 1078,-141 1078,-118 1203,-118 1203,-141"/>
<text text-anchor="middle" x="1140.5" y="-125.8" font-family="Arial" font-size="14.00">EspTypes_Base.h</text>
</a>
</g>
</g>
<!-- Node17&#45;&gt;Node18 -->
<g id="edge20_Node000017_Node000018" class="edge">
<title>Node17&#45;&gt;Node18</title>
<g id="a_edge20_Node000017_Node000018"><a xlink:title=" ">
<path fill="none" stroke="#63b8ff" d="M949.69,-176.98C988.49,-167.53 1045.58,-153.62 1087.2,-143.48"/>
<polygon fill="#63b8ff" stroke="#63b8ff" points="1088.28,-146.82 1097.16,-141.06 1086.62,-140.02 1088.28,-146.82"/>
</a>
</g>
</g>
<!-- Node19 -->
<g id="Node000019" class="node">
<title>Node19</title>
<g id="a_Node000019"><a xlink:href="McuSelect_8h.html" target="_top" xlink:title="Centralized MCU platform selection and configuration header.">
<polygon fill="white" stroke="#666666" points="1321.5,-82 1179.5,-82 1179.5,-59 1321.5,-59 1321.5,-82"/>
<text text-anchor="middle" x="1250.5" y="-66.8" font-family="Arial" font-size="14.00">../../utils/McuSelect.h</text>
</a>
</g>
</g>
<!-- Node17&#45;&gt;Node19 -->
<g id="edge26_Node000017_Node000019" class="edge">
<title>Node17&#45;&gt;Node19</title>
<g id="a_edge26_Node000017_Node000019"><a xlink:title=" ">
<path fill="none" stroke="#63b8ff" d="M971.64,-177.93C1060.49,-164.82 1209.03,-142.71 1211.5,-141 1228.39,-129.31 1238.81,-107.8 1244.58,-91.8"/>
<polygon fill="#63b8ff" stroke="#63b8ff" points="1247.93,-92.82 1247.72,-82.23 1241.28,-90.64 1247.93,-92.82"/>
</a>
</g>
</g>
<!-- Node18&#45;&gt;Node9 -->
<g id="edge22_Node000018_Node000009" class="edge">
<title>Node18&#45;&gt;Node9</title>
<g id="a_edge22_Node000018_Node000009"><a xlink:title=" ">
<path fill="none" stroke="#63b8ff" d="M1077.66,-119.02C1010.43,-108.89 904,-92.84 833.71,-82.24"/>
<polygon fill="#63b8ff" stroke="#63b8ff" points="834.02,-78.75 823.61,-80.72 832.98,-85.67 834.02,-78.75"/>
</a>
</g>
</g>
<!-- Node18&#45;&gt;Node10 -->
<g id="edge24_Node000018_Node000010" class="edge">
<title>Node18&#45;&gt;Node10</title>
<g id="a_edge24_Node000018_Node000010"><a xlink:title=" ">
<path fill="none" stroke="#63b8ff" d="M1142.64,-117.87C1144.99,-102.85 1146.76,-75.41 1132.5,-59 1114.24,-37.99 1038.6,-24.11 991.69,-17.34"/>
<polygon fill="#63b8ff" stroke="#63b8ff" points="991.96,-13.84 981.57,-15.92 990.99,-20.78 991.96,-13.84"/>
</a>
</g>
</g>
<!-- Node18&#45;&gt;Node19 -->
<g id="edge21_Node000018_Node000019" class="edge">
<title>Node18&#45;&gt;Node19</title>
<g id="a_edge21_Node000018_Node000019"><a xlink:title=" ">
<path fill="none" stroke="#63b8ff" d="M1160.93,-117.91C1177.83,-109.15 1202.06,-96.6 1221.06,-86.76"/>
<polygon fill="#63b8ff" stroke="#63b8ff" points="1222.91,-89.74 1230.18,-82.03 1219.69,-83.52 1222.91,-89.74"/>
</a>
</g>
</g>
<!-- Node20 -->
<g id="Node000020" class="node">
<title>Node20</title>
<g id="a_Node000020"><a xlink:title=" ">
<polygon fill="#e0e0e0" stroke="#999999" points="1435,-82 1378,-82 1378,-59 1435,-59 1435,-82"/>
<text text-anchor="middle" x="1406.5" y="-66.8" font-family="Arial" font-size="14.00">atomic</text>
</a>
</g>
</g>
<!-- Node18&#45;&gt;Node20 -->
<g id="edge23_Node000018_Node000020" class="edge">
<title>Node18&#45;&gt;Node20</title>
<g id="a_edge23_Node000018_Node000020"><a xlink:title=" ">
<path fill="none" stroke="#63b8ff" d="M1189.6,-117.98C1241.06,-106.95 1320.86,-89.85 1367.97,-79.76"/>
<polygon fill="#63b8ff" stroke="#63b8ff" points="1368.74,-83.17 1377.79,-77.65 1367.28,-76.33 1368.74,-83.17"/>
</a>
</g>
</g>
<!-- Node22&#45;&gt;Node9 -->
<g id="edge29_Node000022_Node000009" class="edge">
<title>Node22&#45;&gt;Node9</title>
<g id="a_edge29_Node000022_Node000009"><a xlink:title=" ">
<path fill="none" stroke="#63b8ff" d="M958.2,-117.98C918.33,-108.51 859.6,-94.56 816.89,-84.42"/>
<polygon fill="#63b8ff" stroke="#63b8ff" points="817.49,-80.96 806.95,-82.06 815.87,-87.77 817.49,-80.96"/>
</a>
</g>
</g>
<!-- Node22&#45;&gt;Node10 -->
<g id="edge30_Node000022_Node000010" class="edge">
<title>Node22&#45;&gt;Node10</title>
<g id="a_edge30_Node000022_Node000010"><a xlink:title=" ">
<path fill="none" stroke="#63b8ff" d="M994.35,-117.95C987.66,-108.86 978.38,-95.16 972.5,-82 965.5,-66.32 960.54,-47.47 957.45,-33.36"/>
<polygon fill="#63b8ff" stroke="#63b8ff" points="960.81,-32.3 955.37,-23.21 953.95,-33.71 960.81,-32.3"/>
</a>
</g>
</g>
<!-- Node22&#45;&gt;Node16 -->
<g id="edge33_Node000022_Node000016" class="edge">
<title>Node22&#45;&gt;Node16</title>
<g id="a_edge33_Node000022_Node000016"><a xlink:title=" ">
<path fill="none" stroke="#63b8ff" d="M980.4,-117.91C961.86,-109.03 935.18,-96.26 914.51,-86.35"/>
<polygon fill="#63b8ff" stroke="#63b8ff" points="916.02,-83.19 905.49,-82.03 912.99,-89.51 916.02,-83.19"/>
</a>
</g>
</g>
<!-- Node23 -->
<g id="Node000023" class="node">
<title>Node23</title>
<g id="a_Node000023"><a xlink:title=" ">
<polygon fill="#e0e0e0" stroke="#999999" points="1055.5,-82 981.5,-82 981.5,-59 1055.5,-59 1055.5,-82"/>
<text text-anchor="middle" x="1018.5" y="-66.8" font-family="Arial" font-size="14.00">functional</text>
</a>
</g>
</g>
<!-- Node22&#45;&gt;Node23 -->
<g id="edge31_Node000022_Node000023" class="edge">
<title>Node22&#45;&gt;Node23</title>
<g id="a_edge31_Node000022_Node000023"><a xlink:title=" ">
<path fill="none" stroke="#63b8ff" d="M1005.51,-117.78C1007.54,-110.53 1010.29,-100.74 1012.74,-92.02"/>
<polygon fill="#63b8ff" stroke="#63b8ff" points="1016.17,-92.75 1015.5,-82.17 1009.43,-90.86 1016.17,-92.75"/>
</a>
</g>
</g>
<!-- Node24 -->
<g id="Node000024" class="node">
<title>Node24</title>
<g id="a_Node000024"><a xlink:title=" ">
<polygon fill="#e0e0e0" stroke="#999999" points="1123.5,-82 1073.5,-82 1073.5,-59 1123.5,-59 1123.5,-82"/>
<text text-anchor="middle" x="1098.5" y="-66.8" font-family="Arial" font-size="14.00">string</text>
</a>
</g>
</g>
<!-- Node22&#45;&gt;Node24 -->
<g id="edge32_Node000022_Node000024" class="edge">
<title>Node22&#45;&gt;Node24</title>
<g id="a_edge32_Node000022_Node000024"><a xlink:title=" ">
<path fill="none" stroke="#63b8ff" d="M1020.56,-117.78C1034.9,-109.26 1055.19,-97.21 1071.48,-87.55"/>
<polygon fill="#63b8ff" stroke="#63b8ff" points="1073.71,-90.29 1080.52,-82.17 1070.14,-84.27 1073.71,-90.29"/>
</a>
</g>
</g>
<!-- Node25&#45;&gt;Node18 -->
<g id="edge44_Node000025_Node000018" class="edge">
<title>Node25&#45;&gt;Node18</title>
<g id="a_edge44_Node000025_Node000018"><a xlink:title=" ">
<path fill="none" stroke="#63b8ff" d="M1645.88,-180.34C1534.89,-169.39 1324.26,-148.62 1213.21,-137.67"/>
<polygon fill="#63b8ff" stroke="#63b8ff" points="1213.4,-134.17 1203.11,-136.67 1212.72,-141.14 1213.4,-134.17"/>
</a>
</g>
</g>
<!-- Node25&#45;&gt;Node20 -->
<g id="edge49_Node000025_Node000020" class="edge">
<title>Node25&#45;&gt;Node20</title>
<g id="a_edge49_Node000025_Node000020"><a xlink:title=" ">
<path fill="none" stroke="#63b8ff" d="M1645.99,-181.55C1577.84,-174.79 1481.76,-161.89 1450.5,-141 1432.87,-129.22 1420.89,-107.72 1413.94,-91.75"/>
<polygon fill="#63b8ff" stroke="#63b8ff" points="1417.07,-90.17 1410.08,-82.2 1410.58,-92.79 1417.07,-90.17"/>
</a>
</g>
</g>
<!-- Node25&#45;&gt;Node22 -->
<g id="edge43_Node000025_Node000022" class="edge">
<title>Node25&#45;&gt;Node22</title>
<g id="a_edge43_Node000025_Node000022"><a xlink:title=" ">
<path fill="none" stroke="#63b8ff" d="M1645.69,-184.35C1527.17,-178.76 1284.99,-165.45 1070.26,-141.12"/>
<polygon fill="#63b8ff" stroke="#63b8ff" points="1070.39,-137.61 1060.05,-139.96 1069.59,-144.57 1070.39,-137.61"/>
</a>
</g>
</g>
<!-- Node26 -->
<g id="Node000026" class="node">
<title>Node26</title>
<g id="a_Node000026"><a xlink:title=" ">
<polygon fill="#e0e0e0" stroke="#999999" points="1549.5,-141 1459.5,-141 1459.5,-118 1549.5,-118 1549.5,-141"/>
<text text-anchor="middle" x="1504.5" y="-125.8" font-family="Arial" font-size="14.00">esp_event.h</text>
</a>
</g>
</g>
<!-- Node25&#45;&gt;Node26 -->
<g id="edge35_Node000025_Node000026" class="edge">
<title>Node25&#45;&gt;Node26</title>
<g id="a_edge35_Node000025_Node000026"><a xlink:title=" ">
<path fill="none" stroke="#63b8ff" d="M1679,-176.98C1643.75,-167.59 1591.97,-153.8 1553.97,-143.68"/>
<polygon fill="#63b8ff" stroke="#63b8ff" points="1554.7,-140.25 1544.13,-141.06 1552.89,-147.01 1554.7,-140.25"/>
</a>
</g>
</g>
<!-- Node27 -->
<g id="Node000027" class="node">
<title>Node27</title>
<g id="a_Node000027"><a xlink:title=" ">
<polygon fill="#e0e0e0" stroke="#999999" points="1659,-141 1568,-141 1568,-118 1659,-118 1659,-141"/>
<text text-anchor="middle" x="1613.5" y="-125.8" font-family="Arial" font-size="14.00">esp_mesh.h</text>
</a>
</g>
</g>
<!-- Node25&#45;&gt;Node27 -->
<g id="edge36_Node000025_Node000027" class="edge">
<title>Node25&#45;&gt;Node27</title>
<g id="a_edge36_Node000025_Node000027"><a xlink:title=" ">
<path fill="none" stroke="#63b8ff" d="M1698.75,-176.78C1682.76,-168.1 1660.03,-155.76 1642.06,-146.01"/>
<polygon fill="#63b8ff" stroke="#63b8ff" points="1643.62,-142.87 1633.16,-141.17 1640.28,-149.02 1643.62,-142.87"/>
</a>
</g>
</g>
<!-- Node28 -->
<g id="Node000028" class="node">
<title>Node28</title>
<g id="a_Node000028"><a xlink:title=" ">
<polygon fill="#e0e0e0" stroke="#999999" points="1760,-141 1677,-141 1677,-118 1760,-118 1760,-141"/>
<text text-anchor="middle" x="1718.5" y="-125.8" font-family="Arial" font-size="14.00">esp_netif.h</text>
</a>
</g>
</g>
<!-- Node25&#45;&gt;Node28 -->
<g id="edge37_Node000025_Node000028" class="edge">
<title>Node25&#45;&gt;Node28</title>
<g id="a_edge37_Node000025_Node000028"><a xlink:title=" ">
<path fill="none" stroke="#63b8ff" d="M1718.5,-176.78C1718.5,-169.61 1718.5,-159.95 1718.5,-151.31"/>
<polygon fill="#63b8ff" stroke="#63b8ff" points="1722,-151.17 1718.5,-141.17 1715,-151.17 1722,-151.17"/>
</a>
</g>
</g>
<!-- Node29 -->
<g id="Node000029" class="node">
<title>Node29</title>
<g id="a_Node000029"><a xlink:title=" ">
<polygon fill="#e0e0e0" stroke="#999999" points="1906.5,-141 1778.5,-141 1778.5,-118 1906.5,-118 1906.5,-141"/>
<text text-anchor="middle" x="1842.5" y="-125.8" font-family="Arial" font-size="14.00">esp_smartconfig.h</text>
</a>
</g>
</g>
<!-- Node25&#45;&gt;Node29 -->
<g id="edge38_Node000025_Node000029" class="edge">
<title>Node25&#45;&gt;Node29</title>
<g id="a_edge38_Node000025_Node000029"><a xlink:title=" ">
<path fill="none" stroke="#63b8ff" d="M1741.53,-176.91C1760.93,-167.99 1788.9,-155.14 1810.48,-145.22"/>
<polygon fill="#63b8ff" stroke="#63b8ff" points="1811.97,-148.39 1819.59,-141.03 1809.04,-142.03 1811.97,-148.39"/>
</a>
</g>
</g>
<!-- Node30 -->
<g id="Node000030" class="node">
<title>Node30</title>
<g id="a_Node000030"><a xlink:title=" ">
<polygon fill="#e0e0e0" stroke="#999999" points="2002,-141 1925,-141 1925,-118 2002,-118 2002,-141"/>
<text text-anchor="middle" x="1963.5" y="-125.8" font-family="Arial" font-size="14.00">esp_wifi.h</text>
</a>
</g>
</g>
<!-- Node25&#45;&gt;Node30 -->
<g id="edge39_Node000025_Node000030" class="edge">
<title>Node25&#45;&gt;Node30</title>
<g id="a_edge39_Node000025_Node000030"><a xlink:title=" ">
<path fill="none" stroke="#63b8ff" d="M1763.72,-176.98C1806.69,-166.98 1871.11,-152 1915.1,-141.76"/>
<polygon fill="#63b8ff" stroke="#63b8ff" points="1916.04,-145.14 1924.99,-139.46 1914.45,-138.32 1916.04,-145.14"/>
</a>
</g>
</g>
<!-- Node31 -->
<g id="Node000031" class="node">
<title>Node31</title>
<g id="a_Node000031"><a xlink:title=" ">
<polygon fill="#e0e0e0" stroke="#999999" points="2091,-141 2020,-141 2020,-118 2091,-118 2091,-141"/>
<text text-anchor="middle" x="2055.5" y="-125.8" font-family="Arial" font-size="14.00">lwip/err.h</text>
</a>
</g>
</g>
<!-- Node25&#45;&gt;Node31 -->
<g id="edge40_Node000025_Node000031" class="edge">
<title>Node25&#45;&gt;Node31</title>
<g id="a_edge40_Node000025_Node000031"><a xlink:title=" ">
<path fill="none" stroke="#63b8ff" d="M1791.05,-177.41C1847.86,-169.18 1929.08,-156.67 2009.39,-141.11"/>
<polygon fill="#63b8ff" stroke="#63b8ff" points="2010.55,-144.45 2019.69,-139.1 2009.2,-137.58 2010.55,-144.45"/>
</a>
</g>
</g>
<!-- Node32 -->
<g id="Node000032" class="node">
<title>Node32</title>
<g id="a_Node000032"><a xlink:title=" ">
<polygon fill="#e0e0e0" stroke="#999999" points="2184,-141 2109,-141 2109,-118 2184,-118 2184,-141"/>
<text text-anchor="middle" x="2146.5" y="-125.8" font-family="Arial" font-size="14.00">lwip/sys.h</text>
</a>
</g>
</g>
<!-- Node25&#45;&gt;Node32 -->
<g id="edge41_Node000025_Node000032" class="edge">
<title>Node25&#45;&gt;Node32</title>
<g id="a_edge41_Node000025_Node000032"><a xlink:title=" ">
<path fill="none" stroke="#63b8ff" d="M1791.35,-180.89C1866.2,-173.59 1986.26,-160.46 2098.75,-141.18"/>
<polygon fill="#63b8ff" stroke="#63b8ff" points="2099.65,-144.57 2108.91,-139.41 2098.46,-137.67 2099.65,-144.57"/>
</a>
</g>
</g>
<!-- Node33 -->
<g id="Node000033" class="node">
<title>Node33</title>
<g id="a_Node000033"><a xlink:title=" ">
<polygon fill="#e0e0e0" stroke="#999999" points="2287,-141 2202,-141 2202,-118 2287,-118 2287,-141"/>
<text text-anchor="middle" x="2244.5" y="-125.8" font-family="Arial" font-size="14.00">nvs_flash.h</text>
</a>
</g>
</g>
<!-- Node25&#45;&gt;Node33 -->
<g id="edge42_Node000025_Node000033" class="edge">
<title>Node25&#45;&gt;Node33</title>
<g id="a_edge42_Node000025_Node000033"><a xlink:title=" ">
<path fill="none" stroke="#63b8ff" d="M1791.22,-182.78C1882.57,-176.3 2044.3,-163.08 2191.84,-141.13"/>
<polygon fill="#63b8ff" stroke="#63b8ff" points="2192.62,-144.55 2201.98,-139.6 2191.57,-137.63 2192.62,-144.55"/>
</a>
</g>
</g>
<!-- Node34 -->
<g id="Node000034" class="node">
<title>Node34</title>
<g id="a_Node000034"><a xlink:href="PlatformMutex_8h.html" target="_top" xlink:title="Cross&#45;platform RTOS mutex and synchronization primitives.">
<polygon fill="white" stroke="#666666" points="1403.5,-141 1259.5,-141 1259.5,-118 1403.5,-118 1403.5,-141"/>
<text text-anchor="middle" x="1331.5" y="-125.8" font-family="Arial" font-size="14.00">utils/PlatformMutex.h</text>
</a>
</g>
</g>
<!-- Node25&#45;&gt;Node34 -->
<g id="edge45_Node000025_Node000034" class="edge">
<title>Node25&#45;&gt;Node34</title>
<g id="a_edge45_Node000025_Node000034"><a xlink:title=" ">
<path fill="none" stroke="#63b8ff" d="M1647.07,-176.98C1580.77,-167.21 1482.15,-152.69 1412.85,-142.48"/>
<polygon fill="#63b8ff" stroke="#63b8ff" points="1413.25,-139 1402.84,-141.01 1412.23,-145.93 1413.25,-139"/>
</a>
</g>
</g>
<!-- Node35 -->
<g id="Node000035" class="node">
<title>Node35</title>
<g id="a_Node000035"><a xlink:title=" ">
<polygon fill="#e0e0e0" stroke="#999999" points="2372,-141 2305,-141 2305,-118 2372,-118 2372,-141"/>
<text text-anchor="middle" x="2338.5" y="-125.8" font-family="Arial" font-size="14.00">memory</text>
</a>
</g>
</g>
<!-- Node25&#45;&gt;Node35 -->
<g id="edge50_Node000025_Node000035" class="edge">
<title>Node25&#45;&gt;Node35</title>
<g id="a_edge50_Node000025_Node000035"><a xlink:title=" ">
<path fill="none" stroke="#63b8ff" d="M1791.05,-185.49C1899.09,-181.66 2108.66,-170.97 2294.71,-141.09"/>
<polygon fill="#63b8ff" stroke="#63b8ff" points="2295.37,-144.53 2304.67,-139.46 2294.24,-137.62 2295.37,-144.53"/>
</a>
</g>
</g>
<!-- Node36 -->
<g id="Node000036" class="node">
<title>Node36</title>
<g id="a_Node000036"><a xlink:title=" ">
<polygon fill="#e0e0e0" stroke="#999999" points="2444.5,-141 2390.5,-141 2390.5,-118 2444.5,-118 2444.5,-141"/>
<text text-anchor="middle" x="2417.5" y="-125.8" font-family="Arial" font-size="14.00">queue</text>
</a>
</g>
</g>
<!-- Node25&#45;&gt;Node36 -->
<g id="edge51_Node000025_Node000036" class="edge">
<title>Node25&#45;&gt;Node36</title>
<g id="a_edge51_Node000025_Node000036"><a xlink:title=" ">
<path fill="none" stroke="#63b8ff" d="M1791.23,-187.46C1912.06,-186.28 2161.67,-179.14 2380.08,-140.92"/>
<polygon fill="#63b8ff" stroke="#63b8ff" points="2380.89,-144.33 2390.13,-139.14 2379.67,-137.44 2380.89,-144.33"/>
</a>
</g>
</g>
<!-- Node34&#45;&gt;Node10 -->
<g id="edge48_Node000034_Node000010" class="edge">
<title>Node34&#45;&gt;Node10</title>
<g id="a_edge48_Node000034_Node000010"><a xlink:title=" ">
<path fill="none" stroke="#63b8ff" d="M1335.2,-117.78C1339.67,-102.65 1344.92,-75.08 1330.5,-59 1308.1,-34.03 1083.21,-19.38 991.81,-14.42"/>
<polygon fill="#63b8ff" stroke="#63b8ff" points="991.78,-10.91 981.6,-13.87 991.4,-17.9 991.78,-10.91"/>
</a>
</g>
</g>
<!-- Node34&#45;&gt;Node19 -->
<g id="edge46_Node000034_Node000019" class="edge">
<title>Node34&#45;&gt;Node19</title>
<g id="a_edge46_Node000034_Node000019"><a xlink:title=" ">
<path fill="none" stroke="#63b8ff" d="M1316.26,-117.78C1304.39,-109.42 1287.68,-97.66 1274.08,-88.09"/>
<polygon fill="#63b8ff" stroke="#63b8ff" points="1275.86,-85.07 1265.67,-82.17 1271.83,-90.79 1275.86,-85.07"/>
</a>
</g>
</g>
<!-- Node34&#45;&gt;Node20 -->
<g id="edge47_Node000034_Node000020" class="edge">
<title>Node34&#45;&gt;Node20</title>
<g id="a_edge47_Node000034_Node000020"><a xlink:title=" ">
<path fill="none" stroke="#63b8ff" d="M1345.61,-117.78C1356.5,-109.5 1371.78,-97.89 1384.31,-88.36"/>
<polygon fill="#63b8ff" stroke="#63b8ff" points="1386.61,-91.01 1392.46,-82.17 1382.38,-85.44 1386.61,-91.01"/>
</a>
</g>
</g>
</g>
</svg>
