<?xml version="1.0" encoding="UTF-8" standalone="no"?>
<!DOCTYPE svg PUBLIC "-//W3C//DTD SVG 1.1//EN"
 "http://www.w3.org/Graphics/SVG/1.1/DTD/svg11.dtd">
<!-- Generated by graphviz version 2.43.0 (0)
 -->
<!-- Title: examples/esp32/main/WifiComprehensiveTest.cpp Pages: 1 -->
<!--zoomable 400 -->

<svg id="main" version="1.1" xmlns="http://www.w3.org/2000/svg" xmlns:xlink="http://www.w3.org/1999/xlink" xml:space="preserve" onload="init(evt)">
<style type="text/css"><![CDATA[
.node, .edge {opacity: 0.7;}
.node.selected, .edge.selected {opacity: 1;}
.edge:hover path { stroke: red; }
.edge:hover polygon { stroke: red; fill: red; }
]]></style>

<defs>
  <circle id="rim" cx="0" cy="0" r="7"/>
  <circle id="rim2" cx="0" cy="0" r="3.5"/>
  <g id="zoomPlus">
    <use xlink:href="#rim" fill="#404040"><set attributeName="fill" to="#808080" begin="zoomplus.mouseover" end="zoomplus.mouseout"/></use>
    <path d="M-4,0h8M0,-4v8" fill="none" stroke="white" stroke-width="1.5" pointer-events="none"/>
  </g>
  <g id="zoomMin">
    <use xlink:href="#rim" fill="#404040"><set attributeName="fill" to="#808080" begin="zoomminus.mouseover" end="zoomminus.mouseout"/></use>
    <path d="M-4,0h8" fill="none" stroke="white" stroke-width="1.5" pointer-events="none"/>
  </g>
  <g id="arrowUp" transform="translate(30 24)">
    <use xlink:href="#rim"/>
    <path pointer-events="none" fill="none" stroke="white" stroke-width="1.5" d="M0,-3.0v7 M-2.5,-0.5L0,-3.0L2.5,-0.5"/>
  </g>
  <g id="arrowRight" transform="rotate(90) translate(36 -43)">
    <use xlink:href="#rim"/>
    <path pointer-events="none" fill="none" stroke="white" stroke-width="1.5" d="M0,-3.0v7 M-2.5,-0.5L0,-3.0L2.5,-0.5"/>
  </g>
  <g id="arrowDown" transform="rotate(180) translate(-30 -48)">
    <use xlink:href="#rim"/>
    <path pointer-events="none" fill="none" stroke="white" stroke-width="1.5" d="M0,-3.0v7 M-2.5,-0.5L0,-3.0L2.5,-0.5"/>
  </g>
  <g id="arrowLeft" transform="rotate(270) translate(-36 17)">
    <use xlink:href="#rim"/>
    <path pointer-events="none" fill="none" stroke="white" stroke-width="1.5" d="M0,-3.0v7 M-2.5,-0.5L0,-3.0L2.5,-0.5"/>
  </g>
  <g id="resetDef">
    <use xlink:href="#rim2" fill="#404040"><set attributeName="fill" to="#808080" begin="reset.mouseover" end="reset.mouseout"/></use>
  </g>
</defs>
<script type="application/ecmascript">
var viewWidth = 2464;
var viewHeight = 400;
var sectionId = 'dynsection-0';
</script>
<script type="application/ecmascript" xlink:href="svg.min.js"/>
<svg id="graph" class="graph">
<g id="viewport">
<title>examples/esp32/main/WifiComprehensiveTest.cpp</title>
<!-- Node1 -->
<g id="Node000001" class="node">
<title>Node1</title>
<g id="a_Node000001"><a xlink:title="Comprehensive WiFi testing suite for ESP32&#45;C6 DevKit&#45;M&#45;1 with ESP&#45;IDF v5.5f.">
<polygon fill="#999999" stroke="#666666" points="1334,-392 1145,-392 1145,-354 1334,-354 1334,-392"/>
<text text-anchor="start" x="1153" y="-376.8" font-family="Arial" font-size="14.00">examples/esp32/main</text>
<text text-anchor="middle" x="1239.5" y="-361.8" font-family="Arial" font-size="14.00">/WifiComprehensiveTest.cpp</text>
</a>
</g>
</g>
<!-- Node2 -->
<g id="Node000002" class="node">
<title>Node2</title>
<g id="a_Node000002"><a xlink:href="TestFramework_8h.html" target="_top" xlink:title="Shared testing framework for ESP32&#45;C6 comprehensive test suites.">
<polygon fill="white" stroke="#666666" points="614,-318 493,-318 493,-295 614,-295 614,-318"/>
<text text-anchor="middle" x="553.5" y="-302.8" font-family="Arial" font-size="14.00">TestFramework.h</text>
</a>
</g>
</g>
<!-- Node1&#45;&gt;Node2 -->
<g id="edge1_Node000001_Node000002" class="edge">
<title>Node1&#45;&gt;Node2</title>
<g id="a_edge1_Node000001_Node000002"><a xlink:title=" ">
<path fill="none" stroke="#63b8ff" d="M1144.83,-363.1C1005.59,-350.01 748.65,-325.85 624.42,-314.17"/>
<polygon fill="#63b8ff" stroke="#63b8ff" points="624.55,-310.67 614.27,-313.21 623.9,-317.63 624.55,-310.67"/>
</a>
</g>
</g>
<!-- Node22 -->
<g id="Node000022" class="node">
<title>Node22</title>
<g id="a_Node000022"><a xlink:href="BaseWifi_8h.html" target="_top" xlink:title="Unified WiFi base class for all WiFi implementations.">
<polygon fill="white" stroke="#666666" points="1071,-141 956,-141 956,-118 1071,-118 1071,-141"/>
<text text-anchor="middle" x="1013.5" y="-125.8" font-family="Arial" font-size="14.00">base/BaseWifi.h</text>
</a>
</g>
</g>
<!-- Node1&#45;&gt;Node22 -->
<g id="edge28_Node000001_Node000022" class="edge">
<title>Node1&#45;&gt;Node22</title>
<g id="a_edge28_Node000001_Node000022"><a xlink:title=" ">
<path fill="none" stroke="#63b8ff" d="M1248.87,-353.93C1266.95,-316.26 1301.24,-228.61 1258.5,-177 1255.62,-173.53 1152.65,-154.87 1081.14,-142.27"/>
<polygon fill="#63b8ff" stroke="#63b8ff" points="1081.72,-138.82 1071.27,-140.53 1080.51,-145.71 1081.72,-138.82"/>
</a>
</g>
</g>
<!-- Node25 -->
<g id="Node000025" class="node">
<title>Node25</title>
<g id="a_Node000025"><a xlink:href="EspWifi_8h.html" target="_top" xlink:title="Advanced ESP32 implementation of the unified BaseWifi class with ESP&#45;IDF v5.5+ features.">
<polygon fill="white" stroke="#666666" points="1802,-200 1657,-200 1657,-177 1802,-177 1802,-200"/>
<text text-anchor="middle" x="1729.5" y="-184.8" font-family="Arial" font-size="14.00">mcu/esp32/EspWifi.h</text>
</a>
</g>
</g>
<!-- Node1&#45;&gt;Node25 -->
<g id="edge34_Node000001_Node000025" class="edge">
<title>Node1&#45;&gt;Node25</title>
<g id="a_edge34_Node000001_Node000025"><a xlink:title=" ">
<path fill="none" stroke="#63b8ff" d="M1288.27,-353.83C1385.94,-317.46 1603.66,-236.37 1691.58,-203.62"/>
<polygon fill="#63b8ff" stroke="#63b8ff" points="1693.01,-206.83 1701.16,-200.06 1690.56,-200.27 1693.01,-206.83"/>
</a>
</g>
</g>
<!-- Node3 -->
<g id="Node000003" class="node">
<title>Node3</title>
<g id="a_Node000003"><a xlink:title=" ">
<polygon fill="#e0e0e0" stroke="#999999" points="75,-259 0,-259 0,-236 75,-236 75,-259"/>
<text text-anchor="middle" x="37.5" y="-243.8" font-family="Arial" font-size="14.00">esp_log.h</text>
</a>
</g>
</g>
<!-- Node2&#45;&gt;Node3 -->
<g id="edge2_Node000002_Node000003" class="edge">
<title>Node2&#45;&gt;Node3</title>
<g id="a_edge2_Node000002_Node000003"><a xlink:title=" ">
<path fill="none" stroke="#63b8ff" d="M492.72,-301.94C404.77,-296.24 236.79,-283.34 85.05,-259.1"/>
<polygon fill="#63b8ff" stroke="#63b8ff" points="85.51,-255.63 75.08,-257.48 84.39,-262.54 85.51,-255.63"/>
</a>
</g>
</g>
<!-- Node4 -->
<g id="Node000004" class="node">
<title>Node4</title>
<g id="a_Node000004"><a xlink:title=" ">
<polygon fill="#e0e0e0" stroke="#999999" points="180,-259 93,-259 93,-236 180,-236 180,-259"/>
<text text-anchor="middle" x="136.5" y="-243.8" font-family="Arial" font-size="14.00">esp_timer.h</text>
</a>
</g>
</g>
<!-- Node2&#45;&gt;Node4 -->
<g id="edge3_Node000002_Node000004" class="edge">
<title>Node2&#45;&gt;Node4</title>
<g id="a_edge3_Node000002_Node000004"><a xlink:title=" ">
<path fill="none" stroke="#63b8ff" d="M492.92,-299.14C422.47,-291.45 302.47,-277.4 190.29,-259.21"/>
<polygon fill="#63b8ff" stroke="#63b8ff" points="190.58,-255.71 180.15,-257.55 189.45,-262.62 190.58,-255.71"/>
</a>
</g>
</g>
<!-- Node5 -->
<g id="Node000005" class="node">
<title>Node5</title>
<g id="a_Node000005"><a xlink:title=" ">
<polygon fill="#e0e0e0" stroke="#999999" points="341,-259 198,-259 198,-236 341,-236 341,-259"/>
<text text-anchor="middle" x="269.5" y="-243.8" font-family="Arial" font-size="14.00">freertos/FreeRTOS.h</text>
</a>
</g>
</g>
<!-- Node2&#45;&gt;Node5 -->
<g id="edge4_Node000002_Node000005" class="edge">
<title>Node2&#45;&gt;Node5</title>
<g id="a_edge4_Node000002_Node000005"><a xlink:title=" ">
<path fill="none" stroke="#63b8ff" d="M501.08,-294.98C453.3,-285.39 382.64,-271.21 331.95,-261.03"/>
<polygon fill="#63b8ff" stroke="#63b8ff" points="332.59,-257.59 322.1,-259.06 331.21,-264.46 332.59,-257.59"/>
</a>
</g>
</g>
<!-- Node6 -->
<g id="Node000006" class="node">
<title>Node6</title>
<g id="a_Node000006"><a xlink:title=" ">
<polygon fill="#e0e0e0" stroke="#999999" points="474,-259 359,-259 359,-236 474,-236 474,-259"/>
<text text-anchor="middle" x="416.5" y="-243.8" font-family="Arial" font-size="14.00">freertos/queue.h</text>
</a>
</g>
</g>
<!-- Node2&#45;&gt;Node6 -->
<g id="edge5_Node000002_Node000006" class="edge">
<title>Node2&#45;&gt;Node6</title>
<g id="a_edge5_Node000002_Node000006"><a xlink:title=" ">
<path fill="none" stroke="#63b8ff" d="M528.05,-294.91C506.42,-285.91 475.17,-272.91 451.24,-262.95"/>
<polygon fill="#63b8ff" stroke="#63b8ff" points="452.39,-259.64 441.81,-259.03 449.7,-266.1 452.39,-259.64"/>
</a>
</g>
</g>
<!-- Node7 -->
<g id="Node000007" class="node">
<title>Node7</title>
<g id="a_Node000007"><a xlink:title=" ">
<polygon fill="#e0e0e0" stroke="#999999" points="614.5,-259 492.5,-259 492.5,-236 614.5,-236 614.5,-259"/>
<text text-anchor="middle" x="553.5" y="-243.8" font-family="Arial" font-size="14.00">freertos/semphr.h</text>
</a>
</g>
</g>
<!-- Node2&#45;&gt;Node7 -->
<g id="edge6_Node000002_Node000007" class="edge">
<title>Node2&#45;&gt;Node7</title>
<g id="a_edge6_Node000002_Node000007"><a xlink:title=" ">
<path fill="none" stroke="#63b8ff" d="M553.5,-294.78C553.5,-287.61 553.5,-277.95 553.5,-269.31"/>
<polygon fill="#63b8ff" stroke="#63b8ff" points="557,-269.17 553.5,-259.17 550,-269.17 557,-269.17"/>
</a>
</g>
</g>
<!-- Node8 -->
<g id="Node000008" class="node">
<title>Node8</title>
<g id="a_Node000008"><a xlink:title=" ">
<polygon fill="#e0e0e0" stroke="#999999" points="734.5,-259 632.5,-259 632.5,-236 734.5,-236 734.5,-259"/>
<text text-anchor="middle" x="683.5" y="-243.8" font-family="Arial" font-size="14.00">freertos/task.h</text>
</a>
</g>
</g>
<!-- Node2&#45;&gt;Node8 -->
<g id="edge7_Node000002_Node000008" class="edge">
<title>Node2&#45;&gt;Node8</title>
<g id="a_edge7_Node000002_Node000008"><a xlink:title=" ">
<path fill="none" stroke="#63b8ff" d="M577.65,-294.91C598.08,-285.95 627.57,-273.02 650.23,-263.09"/>
<polygon fill="#63b8ff" stroke="#63b8ff" points="651.73,-266.25 659.48,-259.03 648.92,-259.84 651.73,-266.25"/>
</a>
</g>
</g>
<!-- Node9 -->
<g id="Node000009" class="node">
<title>Node9</title>
<g id="a_Node000009"><a xlink:href="HardwareTypes_8h.html" target="_top" xlink:title="Platform&#45;agnostic hardware type definitions for the HardFOC system.">
<polygon fill="white" stroke="#666666" points="823.5,-82 701.5,-82 701.5,-59 823.5,-59 823.5,-82"/>
<text text-anchor="middle" x="762.5" y="-66.8" font-family="Arial" font-size="14.00">HardwareTypes.h</text>
</a>
</g>
</g>
<!-- Node2&#45;&gt;Node9 -->
<g id="edge8_Node000002_Node000009" class="edge">
<title>Node2&#45;&gt;Node9</title>
<g id="a_edge8_Node000002_Node000009"><a xlink:title=" ">
<path fill="none" stroke="#63b8ff" d="M614.19,-298.28C663.17,-291.13 726.62,-278.41 743.5,-259 784.74,-211.59 774.8,-129.8 767.26,-91.88"/>
<polygon fill="#63b8ff" stroke="#63b8ff" points="770.66,-91.06 765.15,-82.02 763.81,-92.53 770.66,-91.06"/>
</a>
</g>
</g>
<!-- Node12 -->
<g id="Node000012" class="node">
<title>Node12</title>
<g id="a_Node000012"><a xlink:href="EspGpio_8h.html" target="_top" xlink:title="Advanced MCU&#45;specific implementation of the unified BaseGpio class with ESP32/ESP&#45;IDF v5....">
<polygon fill="white" stroke="#666666" points="1047,-259 896,-259 896,-236 1047,-236 1047,-259"/>
<text text-anchor="middle" x="971.5" y="-243.8" font-family="Arial" font-size="14.00">mcu/esp32/EspGpio.h</text>
</a>
</g>
</g>
<!-- Node2&#45;&gt;Node12 -->
<g id="edge11_Node000002_Node000012" class="edge">
<title>Node2&#45;&gt;Node12</title>
<g id="a_edge11_Node000002_Node000012"><a xlink:title=" ">
<path fill="none" stroke="#63b8ff" d="M614.28,-297.21C685.72,-287.47 804.76,-271.24 885.61,-260.21"/>
<polygon fill="#63b8ff" stroke="#63b8ff" points="886.33,-263.65 895.77,-258.83 885.39,-256.71 886.33,-263.65"/>
</a>
</g>
</g>
<!-- Node10 -->
<g id="Node000010" class="node">
<title>Node10</title>
<g id="a_Node000010"><a xlink:title=" ">
<polygon fill="#e0e0e0" stroke="#999999" points="981.5,-23 925.5,-23 925.5,0 981.5,0 981.5,-23"/>
<text text-anchor="middle" x="953.5" y="-7.8" font-family="Arial" font-size="14.00">cstdint</text>
</a>
</g>
</g>
<!-- Node9&#45;&gt;Node10 -->
<g id="edge9_Node000009_Node000010" class="edge">
<title>Node9&#45;&gt;Node10</title>
<g id="a_edge9_Node000009_Node000010"><a xlink:title=" ">
<path fill="none" stroke="#63b8ff" d="M797.98,-58.91C831.46,-48.92 881.5,-33.99 915.72,-23.78"/>
<polygon fill="#63b8ff" stroke="#63b8ff" points="916.77,-27.11 925.35,-20.9 914.77,-20.41 916.77,-27.11"/>
</a>
</g>
</g>
<!-- Node11 -->
<g id="Node000011" class="node">
<title>Node11</title>
<g id="a_Node000011"><a xlink:title=" ">
<polygon fill="#e0e0e0" stroke="#999999" points="786.5,-23 738.5,-23 738.5,0 786.5,0 786.5,-23"/>
<text text-anchor="middle" x="762.5" y="-7.8" font-family="Arial" font-size="14.00">limits</text>
</a>
</g>
</g>
<!-- Node9&#45;&gt;Node11 -->
<g id="edge10_Node000009_Node000011" class="edge">
<title>Node9&#45;&gt;Node11</title>
<g id="a_edge10_Node000009_Node000011"><a xlink:title=" ">
<path fill="none" stroke="#63b8ff" d="M762.5,-58.78C762.5,-51.61 762.5,-41.95 762.5,-33.31"/>
<polygon fill="#63b8ff" stroke="#63b8ff" points="766,-33.17 762.5,-23.17 759,-33.17 766,-33.17"/>
</a>
</g>
</g>
<!-- Node13 -->
<g id="Node000013" class="node">
<title>Node13</title>
<g id="a_Node000013"><a xlink:title=" ">
<polygon fill="#e0e0e0" stroke="#999999" points="1081,-200 990,-200 990,-177 1081,-177 1081,-200"/>
<text text-anchor="middle" x="1035.5" y="-184.8" font-family="Arial" font-size="14.00">driver/gpio.h</text>
</a>
</g>
</g>
<!-- Node12&#45;&gt;Node13 -->
<g id="edge12_Node000012_Node000013" class="edge">
<title>Node12&#45;&gt;Node13</title>
<g id="a_edge12_Node000012_Node000013"><a xlink:title=" ">
<path fill="none" stroke="#63b8ff" d="M983.54,-235.78C992.66,-227.66 1005.37,-216.33 1015.95,-206.92"/>
<polygon fill="#63b8ff" stroke="#63b8ff" points="1018.38,-209.44 1023.52,-200.17 1013.72,-204.21 1018.38,-209.44"/>
</a>
</g>
</g>
<!-- Node14 -->
<g id="Node000014" class="node">
<title>Node14</title>
<g id="a_Node000014"><a xlink:title=" ">
<polygon fill="#e0e0e0" stroke="#999999" points="1175.5,-200 1099.5,-200 1099.5,-177 1175.5,-177 1175.5,-200"/>
<text text-anchor="middle" x="1137.5" y="-184.8" font-family="Arial" font-size="14.00">esp_attr.h</text>
</a>
</g>
</g>
<!-- Node12&#45;&gt;Node14 -->
<g id="edge13_Node000012_Node000014" class="edge">
<title>Node12&#45;&gt;Node14</title>
<g id="a_edge13_Node000012_Node000014"><a xlink:title=" ">
<path fill="none" stroke="#63b8ff" d="M1002.33,-235.91C1029.12,-226.71 1068.1,-213.33 1097.33,-203.29"/>
<polygon fill="#63b8ff" stroke="#63b8ff" points="1098.51,-206.59 1106.83,-200.03 1096.24,-199.97 1098.51,-206.59"/>
</a>
</g>
</g>
<!-- Node15 -->
<g id="Node000015" class="node">
<title>Node15</title>
<g id="a_Node000015"><a xlink:href="BaseGpio_8h.html" target="_top" xlink:title="Unified GPIO base class for all digital GPIO implementations.">
<polygon fill="white" stroke="#666666" points="878.5,-141 790.5,-141 790.5,-118 878.5,-118 878.5,-141"/>
<text text-anchor="middle" x="834.5" y="-125.8" font-family="Arial" font-size="14.00">BaseGpio.h</text>
</a>
</g>
</g>
<!-- Node12&#45;&gt;Node15 -->
<g id="edge14_Node000012_Node000015" class="edge">
<title>Node12&#45;&gt;Node15</title>
<g id="a_edge14_Node000012_Node000015"><a xlink:title=" ">
<path fill="none" stroke="#63b8ff" d="M895.76,-238.65C871.59,-232.15 847.29,-220.55 832.5,-200 822.4,-185.97 824.23,-165.88 827.8,-150.91"/>
<polygon fill="#63b8ff" stroke="#63b8ff" points="831.23,-151.64 830.56,-141.07 824.49,-149.75 831.23,-151.64"/>
</a>
</g>
</g>
<!-- Node17 -->
<g id="Node000017" class="node">
<title>Node17</title>
<g id="a_Node000017"><a xlink:href="EspTypes__GPIO_8h.html" target="_top" xlink:title="ESP32 GPIO type definitions for hardware abstraction.">
<polygon fill="white" stroke="#666666" points="971.5,-200 841.5,-200 841.5,-177 971.5,-177 971.5,-200"/>
<text text-anchor="middle" x="906.5" y="-184.8" font-family="Arial" font-size="14.00">EspTypes_GPIO.h</text>
</a>
</g>
</g>
<!-- Node12&#45;&gt;Node17 -->
<g id="edge18_Node000012_Node000017" class="edge">
<title>Node12&#45;&gt;Node17</title>
<g id="a_edge18_Node000012_Node000017"><a xlink:title=" ">
<path fill="none" stroke="#63b8ff" d="M959.27,-235.78C950.01,-227.66 937.1,-216.33 926.36,-206.92"/>
<polygon fill="#63b8ff" stroke="#63b8ff" points="928.5,-204.13 918.67,-200.17 923.88,-209.4 928.5,-204.13"/>
</a>
</g>
</g>
<!-- Node21 -->
<g id="Node000021" class="node">
<title>Node21</title>
<g id="a_Node000021"><a xlink:title=" ">
<polygon fill="#e0e0e0" stroke="#999999" points="1249.5,-200 1193.5,-200 1193.5,-177 1249.5,-177 1249.5,-200"/>
<text text-anchor="middle" x="1221.5" y="-184.8" font-family="Arial" font-size="14.00">stdio.h</text>
</a>
</g>
</g>
<!-- Node12&#45;&gt;Node21 -->
<g id="edge27_Node000012_Node000021" class="edge">
<title>Node12&#45;&gt;Node21</title>
<g id="a_edge27_Node000012_Node000021"><a xlink:title=" ">
<path fill="none" stroke="#63b8ff" d="M1024.23,-235.93C1065.18,-227.51 1123.61,-215.03 1183.29,-200.2"/>
<polygon fill="#63b8ff" stroke="#63b8ff" points="1184.42,-203.53 1193.27,-197.71 1182.72,-196.74 1184.42,-203.53"/>
</a>
</g>
</g>
<!-- Node15&#45;&gt;Node9 -->
<g id="edge15_Node000015_Node000009" class="edge">
<title>Node15&#45;&gt;Node9</title>
<g id="a_edge15_Node000015_Node000009"><a xlink:title=" ">
<path fill="none" stroke="#63b8ff" d="M820.96,-117.78C810.6,-109.58 796.11,-98.11 784.15,-88.64"/>
<polygon fill="#63b8ff" stroke="#63b8ff" points="785.99,-85.64 775.98,-82.17 781.65,-91.12 785.99,-85.64"/>
</a>
</g>
</g>
<!-- Node15&#45;&gt;Node10 -->
<g id="edge16_Node000015_Node000010" class="edge">
<title>Node15&#45;&gt;Node10</title>
<g id="a_edge16_Node000015_Node000010"><a xlink:title=" ">
<path fill="none" stroke="#63b8ff" d="M790.24,-122.87C738.02,-114.45 661.92,-95.51 692.5,-59 720.43,-25.66 849.35,-16.2 914.94,-13.54"/>
<polygon fill="#63b8ff" stroke="#63b8ff" points="915.42,-17.02 925.28,-13.15 915.16,-10.03 915.42,-17.02"/>
</a>
</g>
</g>
<!-- Node16 -->
<g id="Node000016" class="node">
<title>Node16</title>
<g id="a_Node000016"><a xlink:title=" ">
<polygon fill="#e0e0e0" stroke="#999999" points="925.5,-82 841.5,-82 841.5,-59 925.5,-59 925.5,-82"/>
<text text-anchor="middle" x="883.5" y="-66.8" font-family="Arial" font-size="14.00">string_view</text>
</a>
</g>
</g>
<!-- Node15&#45;&gt;Node16 -->
<g id="edge17_Node000015_Node000016" class="edge">
<title>Node15&#45;&gt;Node16</title>
<g id="a_edge17_Node000015_Node000016"><a xlink:title=" ">
<path fill="none" stroke="#63b8ff" d="M843.72,-117.78C850.42,-109.98 859.68,-99.21 867.57,-90.03"/>
<polygon fill="#63b8ff" stroke="#63b8ff" points="870.46,-92.04 874.32,-82.17 865.15,-87.47 870.46,-92.04"/>
</a>
</g>
</g>
<!-- Node17&#45;&gt;Node9 -->
<g id="edge25_Node000017_Node000009" class="edge">
<title>Node17&#45;&gt;Node9</title>
<g id="a_edge25_Node000017_Node000009"><a xlink:title=" ">
<path fill="none" stroke="#63b8ff" d="M906.48,-176.9C905.88,-161.92 902.61,-134.52 887.5,-118 873.2,-102.36 853.15,-91.96 833.28,-85.05"/>
<polygon fill="#63b8ff" stroke="#63b8ff" points="834.16,-81.66 823.57,-81.93 832.02,-88.32 834.16,-81.66"/>
</a>
</g>
</g>
<!-- Node17&#45;&gt;Node15 -->
<g id="edge19_Node000017_Node000015" class="edge">
<title>Node17&#45;&gt;Node15</title>
<g id="a_edge19_Node000017_Node000015"><a xlink:title=" ">
<path fill="none" stroke="#63b8ff" d="M892.96,-176.78C882.6,-168.58 868.11,-157.11 856.15,-147.64"/>
<polygon fill="#63b8ff" stroke="#63b8ff" points="857.99,-144.64 847.98,-141.17 853.65,-150.12 857.99,-144.64"/>
</a>
</g>
</g>
<!-- Node18 -->
<g id="Node000018" class="node">
<title>Node18</title>
<g id="a_Node000018"><a xlink:href="EspTypes__Base_8h.html" target="_top" xlink:title="ESP32 base type definitions for hardware abstraction.">
<polygon fill="white" stroke="#666666" points="1214,-141 1089,-141 1089,-118 1214,-118 1214,-141"/>
<text text-anchor="middle" x="1151.5" y="-125.8" font-family="Arial" font-size="14.00">EspTypes_Base.h</text>
</a>
</g>
</g>
<!-- Node17&#45;&gt;Node18 -->
<g id="edge20_Node000017_Node000018" class="edge">
<title>Node17&#45;&gt;Node18</title>
<g id="a_edge20_Node000017_Node000018"><a xlink:title=" ">
<path fill="none" stroke="#63b8ff" d="M951.72,-176.98C992.51,-167.49 1052.63,-153.5 1096.25,-143.35"/>
<polygon fill="#63b8ff" stroke="#63b8ff" points="1097.18,-146.73 1106.13,-141.06 1095.59,-139.91 1097.18,-146.73"/>
</a>
</g>
</g>
<!-- Node19 -->
<g id="Node000019" class="node">
<title>Node19</title>
<g id="a_Node000019"><a xlink:href="McuSelect_8h.html" target="_top" xlink:title="Centralized MCU platform selection and configuration header.">
<polygon fill="white" stroke="#666666" points="1321.5,-82 1179.5,-82 1179.5,-59 1321.5,-59 1321.5,-82"/>
<text text-anchor="middle" x="1250.5" y="-66.8" font-family="Arial" font-size="14.00">../../utils/McuSelect.h</text>
</a>
</g>
</g>
<!-- Node17&#45;&gt;Node19 -->
<g id="edge26_Node000017_Node000019" class="edge">
<title>Node17&#45;&gt;Node19</title>
<g id="a_edge26_Node000017_Node000019"><a xlink:title=" ">
<path fill="none" stroke="#63b8ff" d="M971.66,-178.11C1063.81,-164.81 1221.27,-141.97 1222.5,-141 1237.53,-129.17 1244.53,-107.99 1247.77,-92.12"/>
<polygon fill="#63b8ff" stroke="#63b8ff" points="1251.24,-92.59 1249.46,-82.15 1244.34,-91.42 1251.24,-92.59"/>
</a>
</g>
</g>
<!-- Node18&#45;&gt;Node9 -->
<g id="edge22_Node000018_Node000009" class="edge">
<title>Node18&#45;&gt;Node9</title>
<g id="a_edge22_Node000018_Node000009"><a xlink:title=" ">
<path fill="none" stroke="#63b8ff" d="M1088.67,-119.34C1085.57,-118.89 1082.5,-118.44 1079.5,-118 972.94,-102.46 943.92,-98.46 833.78,-82.19"/>
<polygon fill="#63b8ff" stroke="#63b8ff" points="833.99,-78.68 823.58,-80.68 832.96,-85.6 833.99,-78.68"/>
</a>
</g>
</g>
<!-- Node18&#45;&gt;Node10 -->
<g id="edge24_Node000018_Node000010" class="edge">
<title>Node18&#45;&gt;Node10</title>
<g id="a_edge24_Node000018_Node000010"><a xlink:title=" ">
<path fill="none" stroke="#63b8ff" d="M1151.71,-117.94C1151.41,-102.75 1148.52,-74.82 1132.5,-59 1094.98,-21.96 1031.95,-13.3 991.57,-11.86"/>
<polygon fill="#63b8ff" stroke="#63b8ff" points="991.65,-8.36 981.57,-11.63 991.49,-15.36 991.65,-8.36"/>
</a>
</g>
</g>
<!-- Node18&#45;&gt;Node19 -->
<g id="edge21_Node000018_Node000019" class="edge">
<title>Node18&#45;&gt;Node19</title>
<g id="a_edge21_Node000018_Node000019"><a xlink:title=" ">
<path fill="none" stroke="#63b8ff" d="M1170.12,-117.78C1185.06,-109.18 1206.23,-96.99 1223.1,-87.28"/>
<polygon fill="#63b8ff" stroke="#63b8ff" points="1225.04,-90.2 1231.96,-82.17 1221.55,-84.13 1225.04,-90.2"/>
</a>
</g>
</g>
<!-- Node20 -->
<g id="Node000020" class="node">
<title>Node20</title>
<g id="a_Node000020"><a xlink:title=" ">
<polygon fill="#e0e0e0" stroke="#999999" points="1435,-82 1378,-82 1378,-59 1435,-59 1435,-82"/>
<text text-anchor="middle" x="1406.5" y="-66.8" font-family="Arial" font-size="14.00">atomic</text>
</a>
</g>
</g>
<!-- Node18&#45;&gt;Node20 -->
<g id="edge23_Node000018_Node000020" class="edge">
<title>Node18&#45;&gt;Node20</title>
<g id="a_edge23_Node000018_Node000020"><a xlink:title=" ">
<path fill="none" stroke="#63b8ff" d="M1198.57,-117.98C1247.3,-107.09 1322.52,-90.27 1367.88,-80.13"/>
<polygon fill="#63b8ff" stroke="#63b8ff" points="1368.92,-83.49 1377.91,-77.89 1367.39,-76.66 1368.92,-83.49"/>
</a>
</g>
</g>
<!-- Node22&#45;&gt;Node9 -->
<g id="edge29_Node000022_Node000009" class="edge">
<title>Node22&#45;&gt;Node9</title>
<g id="a_edge29_Node000022_Node000009"><a xlink:title=" ">
<path fill="none" stroke="#63b8ff" d="M967.17,-117.98C925.29,-108.47 863.54,-94.44 818.82,-84.29"/>
<polygon fill="#63b8ff" stroke="#63b8ff" points="819.51,-80.86 808.98,-82.06 817.96,-87.68 819.51,-80.86"/>
</a>
</g>
</g>
<!-- Node22&#45;&gt;Node10 -->
<g id="edge30_Node000022_Node000010" class="edge">
<title>Node22&#45;&gt;Node10</title>
<g id="a_edge30_Node000022_Node000010"><a xlink:title=" ">
<path fill="none" stroke="#63b8ff" d="M1001.43,-117.78C992.25,-109.01 979.96,-95.83 972.5,-82 964.26,-66.74 959.38,-47.62 956.63,-33.3"/>
<polygon fill="#63b8ff" stroke="#63b8ff" points="960.07,-32.69 954.92,-23.43 953.17,-33.88 960.07,-32.69"/>
</a>
</g>
</g>
<!-- Node22&#45;&gt;Node16 -->
<g id="edge33_Node000022_Node000016" class="edge">
<title>Node22&#45;&gt;Node16</title>
<g id="a_edge33_Node000022_Node000016"><a xlink:title=" ">
<path fill="none" stroke="#63b8ff" d="M989.35,-117.91C968.92,-108.95 939.43,-96.02 916.77,-86.09"/>
<polygon fill="#63b8ff" stroke="#63b8ff" points="918.08,-82.84 907.52,-82.03 915.27,-89.25 918.08,-82.84"/>
</a>
</g>
</g>
<!-- Node23 -->
<g id="Node000023" class="node">
<title>Node23</title>
<g id="a_Node000023"><a xlink:title=" ">
<polygon fill="#e0e0e0" stroke="#999999" points="1055.5,-82 981.5,-82 981.5,-59 1055.5,-59 1055.5,-82"/>
<text text-anchor="middle" x="1018.5" y="-66.8" font-family="Arial" font-size="14.00">functional</text>
</a>
</g>
</g>
<!-- Node22&#45;&gt;Node23 -->
<g id="edge31_Node000022_Node000023" class="edge">
<title>Node22&#45;&gt;Node23</title>
<g id="a_edge31_Node000022_Node000023"><a xlink:title=" ">
<path fill="none" stroke="#63b8ff" d="M1014.44,-117.78C1015.07,-110.61 1015.92,-100.95 1016.67,-92.31"/>
<polygon fill="#63b8ff" stroke="#63b8ff" points="1020.18,-92.44 1017.56,-82.17 1013.2,-91.83 1020.18,-92.44"/>
</a>
</g>
</g>
<!-- Node24 -->
<g id="Node000024" class="node">
<title>Node24</title>
<g id="a_Node000024"><a xlink:title=" ">
<polygon fill="#e0e0e0" stroke="#999999" points="1123.5,-82 1073.5,-82 1073.5,-59 1123.5,-59 1123.5,-82"/>
<text text-anchor="middle" x="1098.5" y="-66.8" font-family="Arial" font-size="14.00">string</text>
</a>
</g>
</g>
<!-- Node22&#45;&gt;Node24 -->
<g id="edge32_Node000022_Node000024" class="edge">
<title>Node22&#45;&gt;Node24</title>
<g id="a_edge32_Node000022_Node000024"><a xlink:title=" ">
<path fill="none" stroke="#63b8ff" d="M1029.49,-117.78C1042.07,-109.34 1059.82,-97.44 1074.17,-87.82"/>
<polygon fill="#63b8ff" stroke="#63b8ff" points="1076.23,-90.65 1082.58,-82.17 1072.33,-84.84 1076.23,-90.65"/>
</a>
</g>
</g>
<!-- Node25&#45;&gt;Node18 -->
<g id="edge44_Node000025_Node000018" class="edge">
<title>Node25&#45;&gt;Node18</title>
<g id="a_edge44_Node000025_Node000018"><a xlink:title=" ">
<path fill="none" stroke="#63b8ff" d="M1656.88,-180.34C1545.89,-169.39 1335.26,-148.62 1224.21,-137.67"/>
<polygon fill="#63b8ff" stroke="#63b8ff" points="1224.4,-134.17 1214.11,-136.67 1223.72,-141.14 1224.4,-134.17"/>
</a>
</g>
</g>
<!-- Node25&#45;&gt;Node20 -->
<g id="edge48_Node000025_Node000020" class="edge">
<title>Node25&#45;&gt;Node20</title>
<g id="a_edge48_Node000025_Node000020"><a xlink:title=" ">
<path fill="none" stroke="#63b8ff" d="M1656.81,-180.76C1589.03,-173.44 1493.72,-160.16 1461.5,-141 1441.68,-129.21 1426.21,-107.4 1416.8,-91.35"/>
<polygon fill="#63b8ff" stroke="#63b8ff" points="1419.65,-89.27 1411.73,-82.23 1413.53,-92.68 1419.65,-89.27"/>
</a>
</g>
</g>
<!-- Node25&#45;&gt;Node22 -->
<g id="edge43_Node000025_Node000022" class="edge">
<title>Node25&#45;&gt;Node22</title>
<g id="a_edge43_Node000025_Node000022"><a xlink:title=" ">
<path fill="none" stroke="#63b8ff" d="M1656.69,-184.35C1538.17,-178.76 1295.99,-165.45 1081.26,-141.12"/>
<polygon fill="#63b8ff" stroke="#63b8ff" points="1081.39,-137.61 1071.05,-139.96 1080.59,-144.57 1081.39,-137.61"/>
</a>
</g>
</g>
<!-- Node26 -->
<g id="Node000026" class="node">
<title>Node26</title>
<g id="a_Node000026"><a xlink:title=" ">
<polygon fill="#e0e0e0" stroke="#999999" points="1560.5,-141 1470.5,-141 1470.5,-118 1560.5,-118 1560.5,-141"/>
<text text-anchor="middle" x="1515.5" y="-125.8" font-family="Arial" font-size="14.00">esp_event.h</text>
</a>
</g>
</g>
<!-- Node25&#45;&gt;Node26 -->
<g id="edge35_Node000025_Node000026" class="edge">
<title>Node25&#45;&gt;Node26</title>
<g id="a_edge35_Node000025_Node000026"><a xlink:title=" ">
<path fill="none" stroke="#63b8ff" d="M1690,-176.98C1654.75,-167.59 1602.97,-153.8 1564.97,-143.68"/>
<polygon fill="#63b8ff" stroke="#63b8ff" points="1565.7,-140.25 1555.13,-141.06 1563.89,-147.01 1565.7,-140.25"/>
</a>
</g>
</g>
<!-- Node27 -->
<g id="Node000027" class="node">
<title>Node27</title>
<g id="a_Node000027"><a xlink:title=" ">
<polygon fill="#e0e0e0" stroke="#999999" points="1670,-141 1579,-141 1579,-118 1670,-118 1670,-141"/>
<text text-anchor="middle" x="1624.5" y="-125.8" font-family="Arial" font-size="14.00">esp_mesh.h</text>
</a>
</g>
</g>
<!-- Node25&#45;&gt;Node27 -->
<g id="edge36_Node000025_Node000027" class="edge">
<title>Node25&#45;&gt;Node27</title>
<g id="a_edge36_Node000025_Node000027"><a xlink:title=" ">
<path fill="none" stroke="#63b8ff" d="M1709.75,-176.78C1693.76,-168.1 1671.03,-155.76 1653.06,-146.01"/>
<polygon fill="#63b8ff" stroke="#63b8ff" points="1654.62,-142.87 1644.16,-141.17 1651.28,-149.02 1654.62,-142.87"/>
</a>
</g>
</g>
<!-- Node28 -->
<g id="Node000028" class="node">
<title>Node28</title>
<g id="a_Node000028"><a xlink:title=" ">
<polygon fill="#e0e0e0" stroke="#999999" points="1771,-141 1688,-141 1688,-118 1771,-118 1771,-141"/>
<text text-anchor="middle" x="1729.5" y="-125.8" font-family="Arial" font-size="14.00">esp_netif.h</text>
</a>
</g>
</g>
<!-- Node25&#45;&gt;Node28 -->
<g id="edge37_Node000025_Node000028" class="edge">
<title>Node25&#45;&gt;Node28</title>
<g id="a_edge37_Node000025_Node000028"><a xlink:title=" ">
<path fill="none" stroke="#63b8ff" d="M1729.5,-176.78C1729.5,-169.61 1729.5,-159.95 1729.5,-151.31"/>
<polygon fill="#63b8ff" stroke="#63b8ff" points="1733,-151.17 1729.5,-141.17 1726,-151.17 1733,-151.17"/>
</a>
</g>
</g>
<!-- Node29 -->
<g id="Node000029" class="node">
<title>Node29</title>
<g id="a_Node000029"><a xlink:title=" ">
<polygon fill="#e0e0e0" stroke="#999999" points="1917.5,-141 1789.5,-141 1789.5,-118 1917.5,-118 1917.5,-141"/>
<text text-anchor="middle" x="1853.5" y="-125.8" font-family="Arial" font-size="14.00">esp_smartconfig.h</text>
</a>
</g>
</g>
<!-- Node25&#45;&gt;Node29 -->
<g id="edge38_Node000025_Node000029" class="edge">
<title>Node25&#45;&gt;Node29</title>
<g id="a_edge38_Node000025_Node000029"><a xlink:title=" ">
<path fill="none" stroke="#63b8ff" d="M1752.53,-176.91C1771.93,-167.99 1799.9,-155.14 1821.48,-145.22"/>
<polygon fill="#63b8ff" stroke="#63b8ff" points="1822.97,-148.39 1830.59,-141.03 1820.04,-142.03 1822.97,-148.39"/>
</a>
</g>
</g>
<!-- Node30 -->
<g id="Node000030" class="node">
<title>Node30</title>
<g id="a_Node000030"><a xlink:title=" ">
<polygon fill="#e0e0e0" stroke="#999999" points="2013,-141 1936,-141 1936,-118 2013,-118 2013,-141"/>
<text text-anchor="middle" x="1974.5" y="-125.8" font-family="Arial" font-size="14.00">esp_wifi.h</text>
</a>
</g>
</g>
<!-- Node25&#45;&gt;Node30 -->
<g id="edge39_Node000025_Node000030" class="edge">
<title>Node25&#45;&gt;Node30</title>
<g id="a_edge39_Node000025_Node000030"><a xlink:title=" ">
<path fill="none" stroke="#63b8ff" d="M1774.72,-176.98C1817.69,-166.98 1882.11,-152 1926.1,-141.76"/>
<polygon fill="#63b8ff" stroke="#63b8ff" points="1927.04,-145.14 1935.99,-139.46 1925.45,-138.32 1927.04,-145.14"/>
</a>
</g>
</g>
<!-- Node31 -->
<g id="Node000031" class="node">
<title>Node31</title>
<g id="a_Node000031"><a xlink:title=" ">
<polygon fill="#e0e0e0" stroke="#999999" points="2102,-141 2031,-141 2031,-118 2102,-118 2102,-141"/>
<text text-anchor="middle" x="2066.5" y="-125.8" font-family="Arial" font-size="14.00">lwip/err.h</text>
</a>
</g>
</g>
<!-- Node25&#45;&gt;Node31 -->
<g id="edge40_Node000025_Node000031" class="edge">
<title>Node25&#45;&gt;Node31</title>
<g id="a_edge40_Node000025_Node000031"><a xlink:title=" ">
<path fill="none" stroke="#63b8ff" d="M1802.05,-177.41C1858.86,-169.18 1940.08,-156.67 2020.39,-141.11"/>
<polygon fill="#63b8ff" stroke="#63b8ff" points="2021.55,-144.45 2030.69,-139.1 2020.2,-137.58 2021.55,-144.45"/>
</a>
</g>
</g>
<!-- Node32 -->
<g id="Node000032" class="node">
<title>Node32</title>
<g id="a_Node000032"><a xlink:title=" ">
<polygon fill="#e0e0e0" stroke="#999999" points="2195,-141 2120,-141 2120,-118 2195,-118 2195,-141"/>
<text text-anchor="middle" x="2157.5" y="-125.8" font-family="Arial" font-size="14.00">lwip/sys.h</text>
</a>
</g>
</g>
<!-- Node25&#45;&gt;Node32 -->
<g id="edge41_Node000025_Node000032" class="edge">
<title>Node25&#45;&gt;Node32</title>
<g id="a_edge41_Node000025_Node000032"><a xlink:title=" ">
<path fill="none" stroke="#63b8ff" d="M1802.35,-180.89C1877.2,-173.59 1997.26,-160.46 2109.75,-141.18"/>
<polygon fill="#63b8ff" stroke="#63b8ff" points="2110.65,-144.57 2119.91,-139.41 2109.46,-137.67 2110.65,-144.57"/>
</a>
</g>
</g>
<!-- Node33 -->
<g id="Node000033" class="node">
<title>Node33</title>
<g id="a_Node000033"><a xlink:title=" ">
<polygon fill="#e0e0e0" stroke="#999999" points="2298,-141 2213,-141 2213,-118 2298,-118 2298,-141"/>
<text text-anchor="middle" x="2255.5" y="-125.8" font-family="Arial" font-size="14.00">nvs_flash.h</text>
</a>
</g>
</g>
<!-- Node25&#45;&gt;Node33 -->
<g id="edge42_Node000025_Node000033" class="edge">
<title>Node25&#45;&gt;Node33</title>
<g id="a_edge42_Node000025_Node000033"><a xlink:title=" ">
<path fill="none" stroke="#63b8ff" d="M1802.22,-182.78C1893.57,-176.3 2055.3,-163.08 2202.84,-141.13"/>
<polygon fill="#63b8ff" stroke="#63b8ff" points="2203.62,-144.55 2212.98,-139.6 2202.57,-137.63 2203.62,-144.55"/>
</a>
</g>
</g>
<!-- Node34 -->
<g id="Node000034" class="node">
<title>Node34</title>
<g id="a_Node000034"><a xlink:href="PlatformMutex_8h.html" target="_top" xlink:title="Cross&#45;platform mutex and synchronization primitives with pluggable backend.">
<polygon fill="white" stroke="#666666" points="1414.5,-141 1270.5,-141 1270.5,-118 1414.5,-118 1414.5,-141"/>
<text text-anchor="middle" x="1342.5" y="-125.8" font-family="Arial" font-size="14.00">utils/PlatformMutex.h</text>
</a>
</g>
</g>
<!-- Node25&#45;&gt;Node34 -->
<g id="edge45_Node000025_Node000034" class="edge">
<title>Node25&#45;&gt;Node34</title>
<g id="a_edge45_Node000025_Node000034"><a xlink:title=" ">
<path fill="none" stroke="#63b8ff" d="M1658.07,-176.98C1591.77,-167.21 1493.15,-152.69 1423.85,-142.48"/>
<polygon fill="#63b8ff" stroke="#63b8ff" points="1424.25,-139 1413.84,-141.01 1423.23,-145.93 1424.25,-139"/>
</a>
</g>
</g>
<!-- Node35 -->
<g id="Node000035" class="node">
<title>Node35</title>
<g id="a_Node000035"><a xlink:title=" ">
<polygon fill="#e0e0e0" stroke="#999999" points="2383,-141 2316,-141 2316,-118 2383,-118 2383,-141"/>
<text text-anchor="middle" x="2349.5" y="-125.8" font-family="Arial" font-size="14.00">memory</text>
</a>
</g>
</g>
<!-- Node25&#45;&gt;Node35 -->
<g id="edge49_Node000025_Node000035" class="edge">
<title>Node25&#45;&gt;Node35</title>
<g id="a_edge49_Node000025_Node000035"><a xlink:title=" ">
<path fill="none" stroke="#63b8ff" d="M1802.05,-185.49C1910.09,-181.66 2119.66,-170.97 2305.71,-141.09"/>
<polygon fill="#63b8ff" stroke="#63b8ff" points="2306.37,-144.53 2315.67,-139.46 2305.24,-137.62 2306.37,-144.53"/>
</a>
</g>
</g>
<!-- Node36 -->
<g id="Node000036" class="node">
<title>Node36</title>
<g id="a_Node000036"><a xlink:title=" ">
<polygon fill="#e0e0e0" stroke="#999999" points="2455.5,-141 2401.5,-141 2401.5,-118 2455.5,-118 2455.5,-141"/>
<text text-anchor="middle" x="2428.5" y="-125.8" font-family="Arial" font-size="14.00">queue</text>
</a>
</g>
</g>
<!-- Node25&#45;&gt;Node36 -->
<g id="edge50_Node000025_Node000036" class="edge">
<title>Node25&#45;&gt;Node36</title>
<g id="a_edge50_Node000025_Node000036"><a xlink:title=" ">
<path fill="none" stroke="#63b8ff" d="M1802.23,-187.46C1923.06,-186.28 2172.67,-179.14 2391.08,-140.92"/>
<polygon fill="#63b8ff" stroke="#63b8ff" points="2391.89,-144.33 2401.13,-139.14 2390.67,-137.44 2391.89,-144.33"/>
</a>
</g>
</g>
<!-- Node34&#45;&gt;Node10 -->
<g id="edge47_Node000034_Node000010" class="edge">
<title>Node34&#45;&gt;Node10</title>
<g id="a_edge47_Node000034_Node000010"><a xlink:title=" ">
<path fill="none" stroke="#63b8ff" d="M1344.17,-117.78C1345.91,-102.39 1346.46,-74.2 1330.5,-59 1282.55,-13.31 1077.73,-10.69 991.75,-11.68"/>
<polygon fill="#63b8ff" stroke="#63b8ff" points="991.58,-8.19 981.63,-11.82 991.68,-15.18 991.58,-8.19"/>
</a>
</g>
</g>
<!-- Node34&#45;&gt;Node20 -->
<g id="edge46_Node000034_Node000020" class="edge">
<title>Node34&#45;&gt;Node20</title>
<g id="a_edge46_Node000034_Node000020"><a xlink:title=" ">
<path fill="none" stroke="#63b8ff" d="M1354.54,-117.78C1363.66,-109.66 1376.37,-98.33 1386.95,-88.92"/>
<polygon fill="#63b8ff" stroke="#63b8ff" points="1389.38,-91.44 1394.52,-82.17 1384.72,-86.21 1389.38,-91.44"/>
</a>
</g>
</g>
</g>
</svg>

<g id="navigator" transform="translate(0 0)" fill="#404254">
  <rect fill="#f2f5e9" fill-opacity="0.5" stroke="#606060" stroke-width=".5" x="0" y="0" width="60" height="60"/>
  <use id="zoomplus" xlink:href="#zoomPlus" x="17" y="9" onmousedown="handleZoom(evt,'in')"/>
  <use id="zoomminus" xlink:href="#zoomMin" x="42" y="9" onmousedown="handleZoom(evt,'out')"/>
  <use id="reset" xlink:href="#resetDef" x="30" y="36" onmousedown="handleReset()"/>
   <use id="arrowup" xlink:href="#arrowUp" x="0" y="0" onmousedown="handlePan(0,-1)"/>
  <use id="arrowright" xlink:href="#arrowRight" x="0" y="0" onmousedown="handlePan(1,0)"/>
  <use id="arrowdown" xlink:href="#arrowDown" x="0" y="0" onmousedown="handlePan(0,1)"/>
  <use id="arrowleft" xlink:href="#arrowLeft" x="0" y="0" onmousedown="handlePan(-1,0)"/>
</g>
<svg viewBox="0 0 15 15" width="100%" height="30px" preserveAspectRatio="xMaxYMin meet">
 <g id="arrow_out" transform="scale(0.3 0.3)">
  <a xlink:href="WifiComprehensiveTest_8cpp__incl_org.svg" target="_base">
   <rect id="button" ry="5" rx="5" y="6" x="6" height="38" width="38"
        fill="#f2f5e9" fill-opacity="0.5" stroke="#606060" stroke-width="1.0"/>
   <path id="arrow"
     d="M 11.500037,31.436501 C 11.940474,20.09759 22.043105,11.32322 32.158766,21.979434 L 37.068811,17.246167 C 37.068811,17.246167 37.088388,32 37.088388,32 L 22.160133,31.978069 C 22.160133,31.978069 26.997745,27.140456 26.997745,27.140456 C 18.528582,18.264221 13.291696,25.230495 11.500037,31.436501 z"
     style="fill:#404040;"/>
  </a>
 </g>
</svg>

<style type='text/css'>
<![CDATA[
[data-mouse-over-selected='false'] { opacity: 0.7; }
[data-mouse-over-selected='true']  { opacity: 1.0; }
]]>
</style>
<script type="application/ecmascript"><![CDATA[
document.addEventListener('DOMContentLoaded', (event) => {
  highlightEdges();
  highlightAdjacentNodes();
});
]]></script>
</svg>
