<?xml version="1.0" encoding="UTF-8" standalone="no"?>
<!DOCTYPE svg PUBLIC "-//W3C//DTD SVG 1.1//EN"
 "http://www.w3.org/Graphics/SVG/1.1/DTD/svg11.dtd">
<!-- Generated by graphviz version 2.43.0 (0)
 -->
<!-- Title: examples/esp32/main/AsciiArtComprehensiveTest.cpp Pages: 1 -->
<svg width="1238pt" height="400pt"
 viewBox="0.00 0.00 1238.00 400.00" xmlns="http://www.w3.org/2000/svg" xmlns:xlink="http://www.w3.org/1999/xlink">
<g id="graph0" class="graph" transform="scale(1 1) rotate(0) translate(4 396)">
<title>examples/esp32/main/AsciiArtComprehensiveTest.cpp</title>
<!-- Node1 -->
<g id="Node000001" class="node">
<title>Node1</title>
<g id="a_Node000001"><a xlink:title="ASCII Art Generator comprehensive example and test suite for ESP32&#45;C6 DevKit&#45;M&#45;1 (noexcept)">
<polygon fill="#999999" stroke="#666666" points="837.5,-392 625.5,-392 625.5,-354 837.5,-354 837.5,-392"/>
<text text-anchor="start" x="633.5" y="-376.8" font-family="Arial" font-size="14.00">examples/esp32/main</text>
<text text-anchor="middle" x="731.5" y="-361.8" font-family="Arial" font-size="14.00">/AsciiArtComprehensiveTest.cpp</text>
</a>
</g>
</g>
<!-- Node2 -->
<g id="Node000002" class="node">
<title>Node2</title>
<g id="a_Node000002"><a xlink:title=" ">
<polygon fill="#e0e0e0" stroke="#999999" points="515,-318 442,-318 442,-295 515,-295 515,-318"/>
<text text-anchor="middle" x="478.5" y="-302.8" font-family="Arial" font-size="14.00">algorithm</text>
</a>
</g>
</g>
<!-- Node1&#45;&gt;Node2 -->
<g id="edge1_Node000001_Node000002" class="edge">
<title>Node1&#45;&gt;Node2</title>
<g id="a_edge1_Node000001_Node000002"><a xlink:title=" ">
<path fill="none" stroke="#63b8ff" d="M660.69,-353.95C617.34,-342.9 563.1,-329.07 525.12,-319.39"/>
<polygon fill="#63b8ff" stroke="#63b8ff" points="525.9,-315.97 515.35,-316.89 524.17,-322.76 525.9,-315.97"/>
</a>
</g>
</g>
<!-- Node3 -->
<g id="Node000003" class="node">
<title>Node3</title>
<g id="a_Node000003"><a xlink:title=" ">
<polygon fill="#e0e0e0" stroke="#999999" points="589.5,-318 533.5,-318 533.5,-295 589.5,-295 589.5,-318"/>
<text text-anchor="middle" x="561.5" y="-302.8" font-family="Arial" font-size="14.00">cstring</text>
</a>
</g>
</g>
<!-- Node1&#45;&gt;Node3 -->
<g id="edge2_Node000001_Node000003" class="edge">
<title>Node1&#45;&gt;Node3</title>
<g id="a_edge2_Node000001_Node000003"><a xlink:title=" ">
<path fill="none" stroke="#63b8ff" d="M683.69,-353.86C656.82,-343.66 623.76,-331.12 598.81,-321.66"/>
<polygon fill="#63b8ff" stroke="#63b8ff" points="599.93,-318.34 589.34,-318.06 597.44,-324.88 599.93,-318.34"/>
</a>
</g>
</g>
<!-- Node4 -->
<g id="Node000004" class="node">
<title>Node4</title>
<g id="a_Node000004"><a xlink:title=" ">
<polygon fill="#e0e0e0" stroke="#999999" points="1010.5,-259 960.5,-259 960.5,-236 1010.5,-236 1010.5,-259"/>
<text text-anchor="middle" x="985.5" y="-243.8" font-family="Arial" font-size="14.00">string</text>
</a>
</g>
</g>
<!-- Node1&#45;&gt;Node4 -->
<g id="edge3_Node000001_Node000004" class="edge">
<title>Node1&#45;&gt;Node4</title>
<g id="a_edge3_Node000001_Node000004"><a xlink:title=" ">
<path fill="none" stroke="#63b8ff" d="M768.71,-353.91C818.98,-329.46 907.7,-286.33 954.53,-263.56"/>
<polygon fill="#63b8ff" stroke="#63b8ff" points="956.13,-266.67 963.59,-259.15 953.07,-260.38 956.13,-266.67"/>
</a>
</g>
</g>
<!-- Node5 -->
<g id="Node000005" class="node">
<title>Node5</title>
<g id="a_Node000005"><a xlink:title=" ">
<polygon fill="#e0e0e0" stroke="#999999" points="1082,-259 1029,-259 1029,-236 1082,-236 1082,-259"/>
<text text-anchor="middle" x="1055.5" y="-243.8" font-family="Arial" font-size="14.00">vector</text>
</a>
</g>
</g>
<!-- Node1&#45;&gt;Node5 -->
<g id="edge4_Node000001_Node000005" class="edge">
<title>Node1&#45;&gt;Node5</title>
<g id="a_edge4_Node000001_Node000005"><a xlink:title=" ">
<path fill="none" stroke="#63b8ff" d="M781.97,-353.96C810.64,-343.61 847.15,-330.28 879.5,-318 928.35,-299.45 984.43,-277.12 1019.91,-262.87"/>
<polygon fill="#63b8ff" stroke="#63b8ff" points="1021.37,-266.06 1029.34,-259.08 1018.76,-259.56 1021.37,-266.06"/>
</a>
</g>
</g>
<!-- Node6 -->
<g id="Node000006" class="node">
<title>Node6</title>
<g id="a_Node000006"><a xlink:href="TestFramework_8h.html" target="_top" xlink:title="Shared testing framework for ESP32&#45;C6 comprehensive test suites.">
<polygon fill="white" stroke="#666666" points="729,-318 608,-318 608,-295 729,-295 729,-318"/>
<text text-anchor="middle" x="668.5" y="-302.8" font-family="Arial" font-size="14.00">TestFramework.h</text>
</a>
</g>
</g>
<!-- Node1&#45;&gt;Node6 -->
<g id="edge5_Node000001_Node000006" class="edge">
<title>Node1&#45;&gt;Node6</title>
<g id="a_edge5_Node000001_Node000006"><a xlink:title=" ">
<path fill="none" stroke="#63b8ff" d="M713.62,-353.69C704.95,-344.82 694.58,-334.2 685.97,-325.39"/>
<polygon fill="#63b8ff" stroke="#63b8ff" points="688.43,-322.9 678.94,-318.19 683.43,-327.79 688.43,-322.9"/>
</a>
</g>
</g>
<!-- Node27 -->
<g id="Node000027" class="node">
<title>Node27</title>
<g id="a_Node000027"><a xlink:href="AsciiArtGenerator_8h.html" target="_top" xlink:title="Simple ASCII art generator.">
<polygon fill="white" stroke="#666666" points="1136.5,-318 974.5,-318 974.5,-295 1136.5,-295 1136.5,-318"/>
<text text-anchor="middle" x="1055.5" y="-302.8" font-family="Arial" font-size="14.00">utils/AsciiArtGenerator.h</text>
</a>
</g>
</g>
<!-- Node1&#45;&gt;Node27 -->
<g id="edge33_Node000001_Node000027" class="edge">
<title>Node1&#45;&gt;Node27</title>
<g id="a_edge33_Node000001_Node000027"><a xlink:title=" ">
<path fill="none" stroke="#63b8ff" d="M822.18,-353.95C876.36,-343.16 943.84,-329.73 992.27,-320.09"/>
<polygon fill="#63b8ff" stroke="#63b8ff" points="993.18,-323.47 1002.31,-318.09 991.81,-316.61 993.18,-323.47"/>
</a>
</g>
</g>
<!-- Node7 -->
<g id="Node000007" class="node">
<title>Node7</title>
<g id="a_Node000007"><a xlink:title=" ">
<polygon fill="#e0e0e0" stroke="#999999" points="837,-259 762,-259 762,-236 837,-236 837,-259"/>
<text text-anchor="middle" x="799.5" y="-243.8" font-family="Arial" font-size="14.00">esp_log.h</text>
</a>
</g>
</g>
<!-- Node6&#45;&gt;Node7 -->
<g id="edge6_Node000006_Node000007" class="edge">
<title>Node6&#45;&gt;Node7</title>
<g id="a_edge6_Node000006_Node000007"><a xlink:title=" ">
<path fill="none" stroke="#63b8ff" d="M692.83,-294.91C713.42,-285.95 743.14,-273.02 765.98,-263.09"/>
<polygon fill="#63b8ff" stroke="#63b8ff" points="767.52,-266.23 775.3,-259.03 764.73,-259.81 767.52,-266.23"/>
</a>
</g>
</g>
<!-- Node8 -->
<g id="Node000008" class="node">
<title>Node8</title>
<g id="a_Node000008"><a xlink:title=" ">
<polygon fill="#e0e0e0" stroke="#999999" points="942,-259 855,-259 855,-236 942,-236 942,-259"/>
<text text-anchor="middle" x="898.5" y="-243.8" font-family="Arial" font-size="14.00">esp_timer.h</text>
</a>
</g>
</g>
<!-- Node6&#45;&gt;Node8 -->
<g id="edge7_Node000006_Node000008" class="edge">
<title>Node6&#45;&gt;Node8</title>
<g id="a_edge7_Node000006_Node000008"><a xlink:title=" ">
<path fill="none" stroke="#63b8ff" d="M710.95,-294.98C749.09,-285.53 805.2,-271.62 846.11,-261.48"/>
<polygon fill="#63b8ff" stroke="#63b8ff" points="847.04,-264.86 855.9,-259.06 845.36,-258.06 847.04,-264.86"/>
</a>
</g>
</g>
<!-- Node9 -->
<g id="Node000009" class="node">
<title>Node9</title>
<g id="a_Node000009"><a xlink:title=" ">
<polygon fill="#e0e0e0" stroke="#999999" points="143,-259 0,-259 0,-236 143,-236 143,-259"/>
<text text-anchor="middle" x="71.5" y="-243.8" font-family="Arial" font-size="14.00">freertos/FreeRTOS.h</text>
</a>
</g>
</g>
<!-- Node6&#45;&gt;Node9 -->
<g id="edge8_Node000006_Node000009" class="edge">
<title>Node6&#45;&gt;Node9</title>
<g id="a_edge8_Node000006_Node000009"><a xlink:title=" ">
<path fill="none" stroke="#63b8ff" d="M607.83,-296.14C604.68,-295.73 601.55,-295.35 598.5,-295 403.79,-272.58 351.43,-279.73 153.18,-259.13"/>
<polygon fill="#63b8ff" stroke="#63b8ff" points="153.32,-255.63 143.01,-258.07 152.59,-262.59 153.32,-255.63"/>
</a>
</g>
</g>
<!-- Node10 -->
<g id="Node000010" class="node">
<title>Node10</title>
<g id="a_Node000010"><a xlink:title=" ">
<polygon fill="#e0e0e0" stroke="#999999" points="276,-259 161,-259 161,-236 276,-236 276,-259"/>
<text text-anchor="middle" x="218.5" y="-243.8" font-family="Arial" font-size="14.00">freertos/queue.h</text>
</a>
</g>
</g>
<!-- Node6&#45;&gt;Node10 -->
<g id="edge9_Node000006_Node000010" class="edge">
<title>Node6&#45;&gt;Node10</title>
<g id="a_edge9_Node000006_Node000010"><a xlink:title=" ">
<path fill="none" stroke="#63b8ff" d="M607.81,-296.27C604.66,-295.83 601.55,-295.4 598.5,-295 462.94,-277.04 425.97,-277.8 286.45,-259.08"/>
<polygon fill="#63b8ff" stroke="#63b8ff" points="286.6,-255.57 276.22,-257.7 285.66,-262.51 286.6,-255.57"/>
</a>
</g>
</g>
<!-- Node11 -->
<g id="Node000011" class="node">
<title>Node11</title>
<g id="a_Node000011"><a xlink:title=" ">
<polygon fill="#e0e0e0" stroke="#999999" points="416.5,-259 294.5,-259 294.5,-236 416.5,-236 416.5,-259"/>
<text text-anchor="middle" x="355.5" y="-243.8" font-family="Arial" font-size="14.00">freertos/semphr.h</text>
</a>
</g>
</g>
<!-- Node6&#45;&gt;Node11 -->
<g id="edge10_Node000006_Node000011" class="edge">
<title>Node6&#45;&gt;Node11</title>
<g id="a_edge10_Node000006_Node000011"><a xlink:title=" ">
<path fill="none" stroke="#63b8ff" d="M610.73,-294.98C557.76,-285.33 479.3,-271.05 423.37,-260.86"/>
<polygon fill="#63b8ff" stroke="#63b8ff" points="423.67,-257.36 413.2,-259.01 422.41,-264.24 423.67,-257.36"/>
</a>
</g>
</g>
<!-- Node12 -->
<g id="Node000012" class="node">
<title>Node12</title>
<g id="a_Node000012"><a xlink:title=" ">
<polygon fill="#e0e0e0" stroke="#999999" points="536.5,-259 434.5,-259 434.5,-236 536.5,-236 536.5,-259"/>
<text text-anchor="middle" x="485.5" y="-243.8" font-family="Arial" font-size="14.00">freertos/task.h</text>
</a>
</g>
</g>
<!-- Node6&#45;&gt;Node12 -->
<g id="edge11_Node000006_Node000012" class="edge">
<title>Node6&#45;&gt;Node12</title>
<g id="a_edge11_Node000006_Node000012"><a xlink:title=" ">
<path fill="none" stroke="#63b8ff" d="M634.51,-294.91C604.72,-285.63 561.26,-272.1 528.95,-262.03"/>
<polygon fill="#63b8ff" stroke="#63b8ff" points="529.9,-258.66 519.31,-259.03 527.82,-265.35 529.9,-258.66"/>
</a>
</g>
</g>
<!-- Node13 -->
<g id="Node000013" class="node">
<title>Node13</title>
<g id="a_Node000013"><a xlink:href="HardwareTypes_8h.html" target="_top" xlink:title="Platform&#45;agnostic hardware type definitions for the HardFOC system.">
<polygon fill="white" stroke="#666666" points="684.5,-82 562.5,-82 562.5,-59 684.5,-59 684.5,-82"/>
<text text-anchor="middle" x="623.5" y="-66.8" font-family="Arial" font-size="14.00">HardwareTypes.h</text>
</a>
</g>
</g>
<!-- Node6&#45;&gt;Node13 -->
<g id="edge12_Node000006_Node000013" class="edge">
<title>Node6&#45;&gt;Node13</title>
<g id="a_edge12_Node000006_Node000013"><a xlink:title=" ">
<path fill="none" stroke="#63b8ff" d="M631.18,-294.95C613.44,-287.85 593.88,-276.51 583.5,-259 551.08,-204.3 589.32,-126.82 610.82,-91.03"/>
<polygon fill="#63b8ff" stroke="#63b8ff" points="614.06,-92.43 616.36,-82.09 608.12,-88.74 614.06,-92.43"/>
</a>
</g>
</g>
<!-- Node16 -->
<g id="Node000016" class="node">
<title>Node16</title>
<g id="a_Node000016"><a xlink:href="EspGpio_8h.html" target="_top" xlink:title="Advanced MCU&#45;specific implementation of the unified BaseGpio class with ESP32C6/ESP&#45;IDF v5....">
<polygon fill="white" stroke="#666666" points="744,-259 593,-259 593,-236 744,-236 744,-259"/>
<text text-anchor="middle" x="668.5" y="-243.8" font-family="Arial" font-size="14.00">mcu/esp32/EspGpio.h</text>
</a>
</g>
</g>
<!-- Node6&#45;&gt;Node16 -->
<g id="edge15_Node000006_Node000016" class="edge">
<title>Node6&#45;&gt;Node16</title>
<g id="a_edge15_Node000006_Node000016"><a xlink:title=" ">
<path fill="none" stroke="#63b8ff" d="M668.5,-294.78C668.5,-287.61 668.5,-277.95 668.5,-269.31"/>
<polygon fill="#63b8ff" stroke="#63b8ff" points="672,-269.17 668.5,-259.17 665,-269.17 672,-269.17"/>
</a>
</g>
</g>
<!-- Node14 -->
<g id="Node000014" class="node">
<title>Node14</title>
<g id="a_Node000014"><a xlink:title=" ">
<polygon fill="#e0e0e0" stroke="#999999" points="686.5,-23 630.5,-23 630.5,0 686.5,0 686.5,-23"/>
<text text-anchor="middle" x="658.5" y="-7.8" font-family="Arial" font-size="14.00">cstdint</text>
</a>
</g>
</g>
<!-- Node13&#45;&gt;Node14 -->
<g id="edge13_Node000013_Node000014" class="edge">
<title>Node13&#45;&gt;Node14</title>
<g id="a_edge13_Node000013_Node000014"><a xlink:title=" ">
<path fill="none" stroke="#63b8ff" d="M630.08,-58.78C634.73,-51.22 641.08,-40.87 646.6,-31.88"/>
<polygon fill="#63b8ff" stroke="#63b8ff" points="649.7,-33.53 651.95,-23.17 643.73,-29.86 649.7,-33.53"/>
</a>
</g>
</g>
<!-- Node15 -->
<g id="Node000015" class="node">
<title>Node15</title>
<g id="a_Node000015"><a xlink:title=" ">
<polygon fill="#e0e0e0" stroke="#999999" points="612.5,-23 564.5,-23 564.5,0 612.5,0 612.5,-23"/>
<text text-anchor="middle" x="588.5" y="-7.8" font-family="Arial" font-size="14.00">limits</text>
</a>
</g>
</g>
<!-- Node13&#45;&gt;Node15 -->
<g id="edge14_Node000013_Node000015" class="edge">
<title>Node13&#45;&gt;Node15</title>
<g id="a_edge14_Node000013_Node000015"><a xlink:title=" ">
<path fill="none" stroke="#63b8ff" d="M616.92,-58.78C612.27,-51.22 605.92,-40.87 600.4,-31.88"/>
<polygon fill="#63b8ff" stroke="#63b8ff" points="603.27,-29.86 595.05,-23.17 597.3,-33.53 603.27,-29.86"/>
</a>
</g>
</g>
<!-- Node17 -->
<g id="Node000017" class="node">
<title>Node17</title>
<g id="a_Node000017"><a xlink:title=" ">
<polygon fill="#e0e0e0" stroke="#999999" points="1038,-200 947,-200 947,-177 1038,-177 1038,-200"/>
<text text-anchor="middle" x="992.5" y="-184.8" font-family="Arial" font-size="14.00">driver/gpio.h</text>
</a>
</g>
</g>
<!-- Node16&#45;&gt;Node17 -->
<g id="edge16_Node000016_Node000017" class="edge">
<title>Node16&#45;&gt;Node17</title>
<g id="a_edge16_Node000016_Node000017"><a xlink:title=" ">
<path fill="none" stroke="#63b8ff" d="M731.33,-235.96C783.54,-227.13 860.05,-214.01 936.59,-200.14"/>
<polygon fill="#63b8ff" stroke="#63b8ff" points="937.68,-203.5 946.89,-198.27 936.43,-196.61 937.68,-203.5"/>
</a>
</g>
</g>
<!-- Node18 -->
<g id="Node000018" class="node">
<title>Node18</title>
<g id="a_Node000018"><a xlink:title=" ">
<polygon fill="#e0e0e0" stroke="#999999" points="706.5,-200 630.5,-200 630.5,-177 706.5,-177 706.5,-200"/>
<text text-anchor="middle" x="668.5" y="-184.8" font-family="Arial" font-size="14.00">esp_attr.h</text>
</a>
</g>
</g>
<!-- Node16&#45;&gt;Node18 -->
<g id="edge17_Node000016_Node000018" class="edge">
<title>Node16&#45;&gt;Node18</title>
<g id="a_edge17_Node000016_Node000018"><a xlink:title=" ">
<path fill="none" stroke="#63b8ff" d="M668.5,-235.78C668.5,-228.61 668.5,-218.95 668.5,-210.31"/>
<polygon fill="#63b8ff" stroke="#63b8ff" points="672,-210.17 668.5,-200.17 665,-210.17 672,-210.17"/>
</a>
</g>
</g>
<!-- Node19 -->
<g id="Node000019" class="node">
<title>Node19</title>
<g id="a_Node000019"><a xlink:href="BaseGpio_8h.html" target="_top" xlink:title="Unified GPIO base class for all digital GPIO implementations.">
<polygon fill="white" stroke="#666666" points="536.5,-141 448.5,-141 448.5,-118 536.5,-118 536.5,-141"/>
<text text-anchor="middle" x="492.5" y="-125.8" font-family="Arial" font-size="14.00">BaseGpio.h</text>
</a>
</g>
</g>
<!-- Node16&#45;&gt;Node19 -->
<g id="edge18_Node000016_Node000019" class="edge">
<title>Node16&#45;&gt;Node19</title>
<g id="a_edge18_Node000016_Node000019"><a xlink:title=" ">
<path fill="none" stroke="#63b8ff" d="M652.26,-235.79C621.27,-215.37 553.55,-170.74 517.02,-146.66"/>
<polygon fill="#63b8ff" stroke="#63b8ff" points="518.72,-143.59 508.45,-141.01 514.87,-149.44 518.72,-143.59"/>
</a>
</g>
</g>
<!-- Node22 -->
<g id="Node000022" class="node">
<title>Node22</title>
<g id="a_Node000022"><a xlink:href="EspTypes__GPIO_8h.html" target="_top" xlink:title="ESP32 GPIO type definitions for hardware abstraction.">
<polygon fill="white" stroke="#666666" points="854.5,-200 724.5,-200 724.5,-177 854.5,-177 854.5,-200"/>
<text text-anchor="middle" x="789.5" y="-184.8" font-family="Arial" font-size="14.00">EspTypes_GPIO.h</text>
</a>
</g>
</g>
<!-- Node16&#45;&gt;Node22 -->
<g id="edge23_Node000016_Node000022" class="edge">
<title>Node16&#45;&gt;Node22</title>
<g id="a_edge23_Node000016_Node000022"><a xlink:title=" ">
<path fill="none" stroke="#63b8ff" d="M690.98,-235.91C709.82,-227.03 736.95,-214.26 757.97,-204.35"/>
<polygon fill="#63b8ff" stroke="#63b8ff" points="759.59,-207.46 767.14,-200.03 756.61,-201.13 759.59,-207.46"/>
</a>
</g>
</g>
<!-- Node26 -->
<g id="Node000026" class="node">
<title>Node26</title>
<g id="a_Node000026"><a xlink:title=" ">
<polygon fill="#e0e0e0" stroke="#999999" points="928.5,-200 872.5,-200 872.5,-177 928.5,-177 928.5,-200"/>
<text text-anchor="middle" x="900.5" y="-184.8" font-family="Arial" font-size="14.00">stdio.h</text>
</a>
</g>
</g>
<!-- Node16&#45;&gt;Node26 -->
<g id="edge32_Node000016_Node000026" class="edge">
<title>Node16&#45;&gt;Node26</title>
<g id="a_edge32_Node000016_Node000026"><a xlink:title=" ">
<path fill="none" stroke="#63b8ff" d="M715.13,-235.97C752.56,-227.38 806.67,-214.67 862.54,-200.18"/>
<polygon fill="#63b8ff" stroke="#63b8ff" points="863.46,-203.56 872.25,-197.65 861.69,-196.79 863.46,-203.56"/>
</a>
</g>
</g>
<!-- Node19&#45;&gt;Node13 -->
<g id="edge19_Node000019_Node000013" class="edge">
<title>Node19&#45;&gt;Node13</title>
<g id="a_edge19_Node000019_Node000013"><a xlink:title=" ">
<path fill="none" stroke="#63b8ff" d="M516.83,-117.91C537.42,-108.95 567.14,-96.02 589.98,-86.09"/>
<polygon fill="#63b8ff" stroke="#63b8ff" points="591.52,-89.23 599.3,-82.03 588.73,-82.81 591.52,-89.23"/>
</a>
</g>
</g>
<!-- Node19&#45;&gt;Node14 -->
<g id="edge20_Node000019_Node000014" class="edge">
<title>Node19&#45;&gt;Node14</title>
<g id="a_edge20_Node000019_Node000014"><a xlink:title=" ">
<path fill="none" stroke="#63b8ff" d="M499.62,-117.79C509.98,-102.91 530.47,-75.92 553.5,-59 573.89,-44.02 599.87,-32.46 620.88,-24.62"/>
<polygon fill="#63b8ff" stroke="#63b8ff" points="622.23,-27.86 630.45,-21.17 619.85,-21.27 622.23,-27.86"/>
</a>
</g>
</g>
<!-- Node20 -->
<g id="Node000020" class="node">
<title>Node20</title>
<g id="a_Node000020"><a xlink:title=" ">
<polygon fill="#e0e0e0" stroke="#999999" points="404.5,-82 330.5,-82 330.5,-59 404.5,-59 404.5,-82"/>
<text text-anchor="middle" x="367.5" y="-66.8" font-family="Arial" font-size="14.00">functional</text>
</a>
</g>
</g>
<!-- Node19&#45;&gt;Node20 -->
<g id="edge21_Node000019_Node000020" class="edge">
<title>Node19&#45;&gt;Node20</title>
<g id="a_edge21_Node000019_Node000020"><a xlink:title=" ">
<path fill="none" stroke="#63b8ff" d="M469.28,-117.91C449.72,-108.99 421.54,-96.14 399.78,-86.22"/>
<polygon fill="#63b8ff" stroke="#63b8ff" points="401.15,-83 390.59,-82.03 398.24,-89.36 401.15,-83"/>
</a>
</g>
</g>
<!-- Node21 -->
<g id="Node000021" class="node">
<title>Node21</title>
<g id="a_Node000021"><a xlink:title=" ">
<polygon fill="#e0e0e0" stroke="#999999" points="506.5,-82 422.5,-82 422.5,-59 506.5,-59 506.5,-82"/>
<text text-anchor="middle" x="464.5" y="-66.8" font-family="Arial" font-size="14.00">string_view</text>
</a>
</g>
</g>
<!-- Node19&#45;&gt;Node21 -->
<g id="edge22_Node000019_Node000021" class="edge">
<title>Node19&#45;&gt;Node21</title>
<g id="a_edge22_Node000019_Node000021"><a xlink:title=" ">
<path fill="none" stroke="#63b8ff" d="M487.23,-117.78C483.56,-110.29 478.54,-100.09 474.16,-91.16"/>
<polygon fill="#63b8ff" stroke="#63b8ff" points="477.29,-89.61 469.74,-82.17 471.01,-92.69 477.29,-89.61"/>
</a>
</g>
</g>
<!-- Node22&#45;&gt;Node13 -->
<g id="edge30_Node000022_Node000013" class="edge">
<title>Node22&#45;&gt;Node13</title>
<g id="a_edge30_Node000022_Node000013"><a xlink:title=" ">
<path fill="none" stroke="#63b8ff" d="M764.51,-176.99C745.62,-168.52 719.44,-155.63 698.5,-141 676.89,-125.9 655.11,-104.93 640.64,-89.99"/>
<polygon fill="#63b8ff" stroke="#63b8ff" points="642.82,-87.21 633.39,-82.38 637.75,-92.03 642.82,-87.21"/>
</a>
</g>
</g>
<!-- Node22&#45;&gt;Node19 -->
<g id="edge24_Node000022_Node000019" class="edge">
<title>Node22&#45;&gt;Node19</title>
<g id="a_edge24_Node000022_Node000019"><a xlink:title=" ">
<path fill="none" stroke="#63b8ff" d="M734.68,-176.98C681.14,-166.7 600.15,-151.16 546.79,-140.92"/>
<polygon fill="#63b8ff" stroke="#63b8ff" points="547.32,-137.46 536.84,-139.01 546,-144.33 547.32,-137.46"/>
</a>
</g>
</g>
<!-- Node23 -->
<g id="Node000023" class="node">
<title>Node23</title>
<g id="a_Node000023"><a xlink:href="EspTypes__Base_8h.html" target="_top" xlink:title="ESP32 base type definitions for hardware abstraction.">
<polygon fill="white" stroke="#666666" points="832,-141 707,-141 707,-118 832,-118 832,-141"/>
<text text-anchor="middle" x="769.5" y="-125.8" font-family="Arial" font-size="14.00">EspTypes_Base.h</text>
</a>
</g>
</g>
<!-- Node22&#45;&gt;Node23 -->
<g id="edge25_Node000022_Node000023" class="edge">
<title>Node22&#45;&gt;Node23</title>
<g id="a_edge25_Node000022_Node000023"><a xlink:title=" ">
<path fill="none" stroke="#63b8ff" d="M785.74,-176.78C783.17,-169.45 779.68,-159.52 776.6,-150.74"/>
<polygon fill="#63b8ff" stroke="#63b8ff" points="779.86,-149.45 773.24,-141.17 773.25,-151.77 779.86,-149.45"/>
</a>
</g>
</g>
<!-- Node24 -->
<g id="Node000024" class="node">
<title>Node24</title>
<g id="a_Node000024"><a xlink:href="McuSelect_8h.html" target="_top" xlink:title="Centralized MCU platform selection and configuration header.">
<polygon fill="white" stroke="#666666" points="958.5,-82 816.5,-82 816.5,-59 958.5,-59 958.5,-82"/>
<text text-anchor="middle" x="887.5" y="-66.8" font-family="Arial" font-size="14.00">../../utils/McuSelect.h</text>
</a>
</g>
</g>
<!-- Node22&#45;&gt;Node24 -->
<g id="edge31_Node000022_Node000024" class="edge">
<title>Node22&#45;&gt;Node24</title>
<g id="a_edge31_Node000022_Node000024"><a xlink:title=" ">
<path fill="none" stroke="#63b8ff" d="M803.2,-176.89C814.23,-167.98 829.78,-154.56 841.5,-141 855.01,-125.38 867.75,-105.57 876.39,-91.1"/>
<polygon fill="#63b8ff" stroke="#63b8ff" points="879.41,-92.86 881.43,-82.46 873.37,-89.33 879.41,-92.86"/>
</a>
</g>
</g>
<!-- Node23&#45;&gt;Node13 -->
<g id="edge27_Node000023_Node000013" class="edge">
<title>Node23&#45;&gt;Node13</title>
<g id="a_edge27_Node000023_Node000013"><a xlink:title=" ">
<path fill="none" stroke="#63b8ff" d="M742.38,-117.91C719.13,-108.83 685.43,-95.68 659.84,-85.69"/>
<polygon fill="#63b8ff" stroke="#63b8ff" points="661.06,-82.41 650.47,-82.03 658.52,-88.93 661.06,-82.41"/>
</a>
</g>
</g>
<!-- Node23&#45;&gt;Node14 -->
<g id="edge29_Node000023_Node000014" class="edge">
<title>Node23&#45;&gt;Node14</title>
<g id="a_edge29_Node000023_Node000014"><a xlink:title=" ">
<path fill="none" stroke="#63b8ff" d="M759.26,-117.79C740.18,-97.85 699.01,-54.84 675.63,-30.41"/>
<polygon fill="#63b8ff" stroke="#63b8ff" points="678.16,-27.98 668.72,-23.18 673.1,-32.82 678.16,-27.98"/>
</a>
</g>
</g>
<!-- Node23&#45;&gt;Node24 -->
<g id="edge26_Node000023_Node000024" class="edge">
<title>Node23&#45;&gt;Node24</title>
<g id="a_edge26_Node000023_Node000024"><a xlink:title=" ">
<path fill="none" stroke="#63b8ff" d="M791.42,-117.91C809.72,-109.07 836.01,-96.37 856.47,-86.49"/>
<polygon fill="#63b8ff" stroke="#63b8ff" points="858.22,-89.53 865.7,-82.03 855.17,-83.23 858.22,-89.53"/>
</a>
</g>
</g>
<!-- Node25 -->
<g id="Node000025" class="node">
<title>Node25</title>
<g id="a_Node000025"><a xlink:title=" ">
<polygon fill="#e0e0e0" stroke="#999999" points="798,-82 741,-82 741,-59 798,-59 798,-82"/>
<text text-anchor="middle" x="769.5" y="-66.8" font-family="Arial" font-size="14.00">atomic</text>
</a>
</g>
</g>
<!-- Node23&#45;&gt;Node25 -->
<g id="edge28_Node000023_Node000025" class="edge">
<title>Node23&#45;&gt;Node25</title>
<g id="a_edge28_Node000023_Node000025"><a xlink:title=" ">
<path fill="none" stroke="#63b8ff" d="M769.5,-117.78C769.5,-110.61 769.5,-100.95 769.5,-92.31"/>
<polygon fill="#63b8ff" stroke="#63b8ff" points="773,-92.17 769.5,-82.17 766,-92.17 773,-92.17"/>
</a>
</g>
</g>
<!-- Node27&#45;&gt;Node4 -->
<g id="edge36_Node000027_Node000004" class="edge">
<title>Node27&#45;&gt;Node4</title>
<g id="a_edge36_Node000027_Node000004"><a xlink:title=" ">
<path fill="none" stroke="#63b8ff" d="M1042.33,-294.78C1032.26,-286.58 1018.18,-275.11 1006.55,-265.64"/>
<polygon fill="#63b8ff" stroke="#63b8ff" points="1008.57,-262.77 998.61,-259.17 1004.15,-268.2 1008.57,-262.77"/>
</a>
</g>
</g>
<!-- Node27&#45;&gt;Node5 -->
<g id="edge37_Node000027_Node000005" class="edge">
<title>Node27&#45;&gt;Node5</title>
<g id="a_edge37_Node000027_Node000005"><a xlink:title=" ">
<path fill="none" stroke="#63b8ff" d="M1055.5,-294.78C1055.5,-287.61 1055.5,-277.95 1055.5,-269.31"/>
<polygon fill="#63b8ff" stroke="#63b8ff" points="1059,-269.17 1055.5,-259.17 1052,-269.17 1059,-269.17"/>
</a>
</g>
</g>
<!-- Node28 -->
<g id="Node000028" class="node">
<title>Node28</title>
<g id="a_Node000028"><a xlink:title=" ">
<polygon fill="#e0e0e0" stroke="#999999" points="1144.5,-259 1100.5,-259 1100.5,-236 1144.5,-236 1144.5,-259"/>
<text text-anchor="middle" x="1122.5" y="-243.8" font-family="Arial" font-size="14.00">map</text>
</a>
</g>
</g>
<!-- Node27&#45;&gt;Node28 -->
<g id="edge34_Node000027_Node000028" class="edge">
<title>Node27&#45;&gt;Node28</title>
<g id="a_edge34_Node000027_Node000028"><a xlink:title=" ">
<path fill="none" stroke="#63b8ff" d="M1068.1,-294.78C1077.65,-286.66 1090.96,-275.33 1102.03,-265.92"/>
<polygon fill="#63b8ff" stroke="#63b8ff" points="1104.61,-268.32 1109.95,-259.17 1100.07,-262.99 1104.61,-268.32"/>
</a>
</g>
</g>
<!-- Node29 -->
<g id="Node000029" class="node">
<title>Node29</title>
<g id="a_Node000029"><a xlink:title=" ">
<polygon fill="#e0e0e0" stroke="#999999" points="1230,-259 1163,-259 1163,-236 1230,-236 1230,-259"/>
<text text-anchor="middle" x="1196.5" y="-243.8" font-family="Arial" font-size="14.00">memory</text>
</a>
</g>
</g>
<!-- Node27&#45;&gt;Node29 -->
<g id="edge35_Node000027_Node000029" class="edge">
<title>Node27&#45;&gt;Node29</title>
<g id="a_edge35_Node000027_Node000029"><a xlink:title=" ">
<path fill="none" stroke="#63b8ff" d="M1081.69,-294.91C1104.05,-285.87 1136.4,-272.79 1161.07,-262.82"/>
<polygon fill="#63b8ff" stroke="#63b8ff" points="1162.49,-266.02 1170.45,-259.03 1159.87,-259.53 1162.49,-266.02"/>
</a>
</g>
</g>
</g>
</svg>
