<?xml version="1.0" encoding="UTF-8" standalone="no"?>
<!DOCTYPE svg PUBLIC "-//W3C//DTD SVG 1.1//EN"
 "http://www.w3.org/Graphics/SVG/1.1/DTD/svg11.dtd">
<!-- Generated by graphviz version 2.43.0 (0)
 -->
<!-- Title: inc/utils/AsciiArtGenerator.h Pages: 1 -->
<svg width="649pt" height="105pt"
 viewBox="0.00 0.00 649.00 105.00" xmlns="http://www.w3.org/2000/svg" xmlns:xlink="http://www.w3.org/1999/xlink">
<g id="graph0" class="graph" transform="scale(1 1) rotate(0) translate(4 101)">
<title>inc/utils/AsciiArtGenerator.h</title>
<!-- Node1 -->
<g id="Node000001" class="node">
<title>Node1</title>
<g id="a_Node000001"><a xlink:title="Simple ASCII art generator.">
<polygon fill="#999999" stroke="#666666" points="418.5,-97 235.5,-97 235.5,-74 418.5,-74 418.5,-97"/>
<text text-anchor="middle" x="327" y="-81.8" font-family="Arial" font-size="14.00">inc/utils/AsciiArtGenerator.h</text>
</a>
</g>
</g>
<!-- Node2 -->
<g id="Node000002" class="node">
<title>Node2</title>
<g id="a_Node000002"><a xlink:href="AsciiArtComprehensiveTest_8cpp.html" target="_top" xlink:title="ASCII Art Generator comprehensive example and test suite for ESP32&#45;C6 DevKit&#45;M&#45;1 (noexcept)">
<polygon fill="white" stroke="#666666" points="212,-38 0,-38 0,0 212,0 212,-38"/>
<text text-anchor="start" x="8" y="-22.8" font-family="Arial" font-size="14.00">examples/esp32/main</text>
<text text-anchor="middle" x="106" y="-7.8" font-family="Arial" font-size="14.00">/AsciiArtComprehensiveTest.cpp</text>
</a>
</g>
</g>
<!-- Node1&#45;&gt;Node2 -->
<g id="edge1_Node000001_Node000002" class="edge">
<title>Node1&#45;&gt;Node2</title>
<g id="a_edge1_Node000001_Node000002"><a xlink:title=" ">
<path fill="none" stroke="#63b8ff" d="M281.22,-71.14C248.42,-61.57 203.88,-48.57 167.91,-38.07"/>
<polygon fill="#63b8ff" stroke="#63b8ff" points="280.42,-74.55 291,-73.99 282.38,-67.83 280.42,-74.55"/>
</a>
</g>
</g>
<!-- Node3 -->
<g id="Node000003" class="node">
<title>Node3</title>
<g id="a_Node000003"><a xlink:href="GpioComprehensiveTest_8cpp.html" target="_top" xlink:title="Comprehensive GPIO testing suite for ESP32&#45;C6 DevKit&#45;M&#45;1 (noexcept)">
<polygon fill="white" stroke="#666666" points="424.5,-38 229.5,-38 229.5,0 424.5,0 424.5,-38"/>
<text text-anchor="start" x="237.5" y="-22.8" font-family="Arial" font-size="14.00">examples/esp32/main</text>
<text text-anchor="middle" x="327" y="-7.8" font-family="Arial" font-size="14.00">/GpioComprehensiveTest.cpp</text>
</a>
</g>
</g>
<!-- Node1&#45;&gt;Node3 -->
<g id="edge2_Node000001_Node000003" class="edge">
<title>Node1&#45;&gt;Node3</title>
<g id="a_edge2_Node000001_Node000003"><a xlink:title=" ">
<path fill="none" stroke="#63b8ff" d="M327,-63.63C327,-55.45 327,-46.15 327,-38.24"/>
<polygon fill="#63b8ff" stroke="#63b8ff" points="323.5,-63.85 327,-73.85 330.5,-63.85 323.5,-63.85"/>
</a>
</g>
</g>
<!-- Node4 -->
<g id="Node000004" class="node">
<title>Node4</title>
<g id="a_Node000004"><a xlink:href="AsciiArtGenerator_8cpp.html" target="_top" xlink:title="Implementation of the simple ASCII art generator.">
<polygon fill="white" stroke="#666666" points="641,-30.5 443,-30.5 443,-7.5 641,-7.5 641,-30.5"/>
<text text-anchor="middle" x="542" y="-15.3" font-family="Arial" font-size="14.00">src/utils/AsciiArtGenerator.cpp</text>
</a>
</g>
</g>
<!-- Node1&#45;&gt;Node4 -->
<g id="edge3_Node000001_Node000004" class="edge">
<title>Node1&#45;&gt;Node4</title>
<g id="a_edge3_Node000001_Node000004"><a xlink:title=" ">
<path fill="none" stroke="#63b8ff" d="M371.83,-71.05C412.01,-59 470.14,-41.56 506.99,-30.5"/>
<polygon fill="#63b8ff" stroke="#63b8ff" points="370.59,-67.77 362.02,-73.99 372.61,-74.47 370.59,-67.77"/>
</a>
</g>
</g>
</g>
</svg>
