<?xml version="1.0" encoding="UTF-8" standalone="no"?>
<!DOCTYPE svg PUBLIC "-//W3C//DTD SVG 1.1//EN"
 "http://www.w3.org/Graphics/SVG/1.1/DTD/svg11.dtd">
<!-- Generated by graphviz version 2.43.0 (0)
 -->
<!-- Title: inc/base/BaseGpio.h Pages: 1 -->
<svg width="4698pt" height="416pt"
 viewBox="0.00 0.00 4698.00 416.00" xmlns="http://www.w3.org/2000/svg" xmlns:xlink="http://www.w3.org/1999/xlink">
<g id="graph0" class="graph" transform="scale(1 1) rotate(0) translate(4 412)">
<title>inc/base/BaseGpio.h</title>
<!-- Node1 -->
<g id="Node000001" class="node">
<title>Node1</title>
<g id="a_Node000001"><a xlink:title="Unified GPIO base class for all digital GPIO implementations.">
<polygon fill="#999999" stroke="#666666" points="786.5,-408 644.5,-408 644.5,-385 786.5,-385 786.5,-408"/>
<text text-anchor="middle" x="715.5" y="-392.8" font-family="Arial" font-size="14.00">inc/base/BaseGpio.h</text>
</a>
</g>
</g>
<!-- Node2 -->
<g id="Node000002" class="node">
<title>Node2</title>
<g id="a_Node000002"><a xlink:href="GpioComprehensiveTest_8cpp.html" target="_top" xlink:title="Comprehensive GPIO testing suite for ESP32&#45;C6 DevKit&#45;M&#45;1 (noexcept)">
<polygon fill="white" stroke="#666666" points="195,-45.5 0,-45.5 0,-7.5 195,-7.5 195,-45.5"/>
<text text-anchor="start" x="8" y="-30.3" font-family="Arial" font-size="14.00">examples/esp32/main</text>
<text text-anchor="middle" x="97.5" y="-15.3" font-family="Arial" font-size="14.00">/GpioComprehensiveTest.cpp</text>
</a>
</g>
</g>
<!-- Node1&#45;&gt;Node2 -->
<g id="edge1_Node000001_Node000002" class="edge">
<title>Node1&#45;&gt;Node2</title>
<g id="a_edge1_Node000001_Node000002"><a xlink:title=" ">
<path fill="none" stroke="#63b8ff" d="M634.28,-394.14C466.57,-389.14 97.5,-365.76 97.5,-257 97.5,-257 97.5,-257 97.5,-181 97.5,-132.23 97.5,-74.75 97.5,-45.93"/>
<polygon fill="#63b8ff" stroke="#63b8ff" points="634.21,-397.64 644.31,-394.43 634.41,-390.65 634.21,-397.64"/>
</a>
</g>
</g>
<!-- Node3 -->
<g id="Node000003" class="node">
<title>Node3</title>
<g id="a_Node000003"><a xlink:href="EspGpio_8h.html" target="_top" xlink:title="Advanced MCU&#45;specific implementation of the unified BaseGpio class with ESP32/ESP&#45;IDF v5....">
<polygon fill="white" stroke="#666666" points="1024.5,-193.5 852.5,-193.5 852.5,-170.5 1024.5,-170.5 1024.5,-193.5"/>
<text text-anchor="middle" x="938.5" y="-178.3" font-family="Arial" font-size="14.00">inc/mcu/esp32/EspGpio.h</text>
</a>
</g>
</g>
<!-- Node1&#45;&gt;Node3 -->
<g id="edge2_Node000001_Node000003" class="edge">
<title>Node1&#45;&gt;Node3</title>
<g id="a_edge2_Node000001_Node000003"><a xlink:title=" ">
<path fill="none" stroke="#63b8ff" d="M745.4,-379.95C759.99,-371.69 777.4,-360.82 791.5,-349 852.28,-298.06 910.43,-221.61 930.82,-193.69"/>
<polygon fill="#63b8ff" stroke="#63b8ff" points="743.34,-377.09 736.28,-384.98 746.73,-383.22 743.34,-377.09"/>
</a>
</g>
</g>
<!-- Node22 -->
<g id="Node000022" class="node">
<title>Node22</title>
<g id="a_Node000022"><a xlink:href="EspTypes__GPIO_8h.html" target="_top" xlink:title="ESP32 GPIO type definitions for hardware abstraction.">
<polygon fill="white" stroke="#666666" points="782.5,-349 648.5,-349 648.5,-311 782.5,-311 782.5,-349"/>
<text text-anchor="start" x="656.5" y="-333.8" font-family="Arial" font-size="14.00">inc/mcu/esp32/utils</text>
<text text-anchor="middle" x="715.5" y="-318.8" font-family="Arial" font-size="14.00">/EspTypes_GPIO.h</text>
</a>
</g>
</g>
<!-- Node1&#45;&gt;Node22 -->
<g id="edge28_Node000001_Node000022" class="edge">
<title>Node1&#45;&gt;Node22</title>
<g id="a_edge28_Node000001_Node000022"><a xlink:title=" ">
<path fill="none" stroke="#63b8ff" d="M715.5,-374.63C715.5,-366.45 715.5,-357.15 715.5,-349.24"/>
<polygon fill="#63b8ff" stroke="#63b8ff" points="712,-374.85 715.5,-384.85 719,-374.85 712,-374.85"/>
</a>
</g>
</g>
<!-- Node37 -->
<g id="Node000037" class="node">
<title>Node37</title>
<g id="a_Node000037"><a xlink:href="StmGpio_8h.html" target="_top" xlink:title="STM32 GPIO wrapper — full HAL integration with EXTI interrupt support.">
<polygon fill="white" stroke="#666666" points="1102.5,-341.5 928.5,-341.5 928.5,-318.5 1102.5,-318.5 1102.5,-341.5"/>
<text text-anchor="middle" x="1015.5" y="-326.3" font-family="Arial" font-size="14.00">inc/mcu/stm32/StmGpio.h</text>
</a>
</g>
</g>
<!-- Node1&#45;&gt;Node37 -->
<g id="edge52_Node000001_Node000037" class="edge">
<title>Node1&#45;&gt;Node37</title>
<g id="a_edge52_Node000001_Node000037"><a xlink:title=" ">
<path fill="none" stroke="#63b8ff" d="M774.17,-382.89C830.32,-370.81 914.03,-352.82 966.65,-341.5"/>
<polygon fill="#63b8ff" stroke="#63b8ff" points="773.41,-379.47 764.37,-384.99 774.88,-386.31 773.41,-379.47"/>
</a>
</g>
</g>
<!-- Node39 -->
<g id="Node000039" class="node">
<title>Node39</title>
<g id="a_Node000039"><a xlink:href="DigitalOutputGuard_8h.html" target="_top" xlink:title="Header file for the DigitalOutputGuard class.">
<polygon fill="white" stroke="#666666" points="498.5,-341.5 304.5,-341.5 304.5,-318.5 498.5,-318.5 498.5,-341.5"/>
<text text-anchor="middle" x="401.5" y="-326.3" font-family="Arial" font-size="14.00">inc/utils/DigitalOutputGuard.h</text>
</a>
</g>
</g>
<!-- Node1&#45;&gt;Node39 -->
<g id="edge54_Node000001_Node000039" class="edge">
<title>Node1&#45;&gt;Node39</title>
<g id="a_edge54_Node000001_Node000039"><a xlink:title=" ">
<path fill="none" stroke="#63b8ff" d="M654.46,-382.96C595.69,-370.89 507.81,-352.84 452.63,-341.5"/>
<polygon fill="#63b8ff" stroke="#63b8ff" points="653.85,-386.41 664.35,-384.99 655.26,-379.55 653.85,-386.41"/>
</a>
</g>
</g>
<!-- Node3&#45;&gt;Node2 -->
<g id="edge4_Node000003_Node000002" class="edge">
<title>Node3&#45;&gt;Node2</title>
<g id="a_edge4_Node000003_Node000002"><a xlink:title=" ">
<path fill="none" stroke="#63b8ff" d="M861.93,-168.82C785.49,-156.23 676.93,-137.06 659.5,-127 640.13,-115.82 646.44,-99.14 626.5,-89 542.4,-46.25 296.63,-68.08 203.5,-53 191.26,-51.02 178.35,-48.38 165.9,-45.56"/>
<polygon fill="#63b8ff" stroke="#63b8ff" points="861.58,-172.31 872.02,-170.47 862.72,-165.4 861.58,-172.31"/>
</a>
</g>
</g>
<!-- Node4 -->
<g id="Node000004" class="node">
<title>Node4</title>
<g id="a_Node000004"><a xlink:href="DigitalOutputGuardComprehensiveTest_8cpp.html" target="_top" xlink:title="DigitalOutputGuard comprehensive test suite for ESP32&#45;C6 DevKit&#45;M&#45;1.">
<polygon fill="white" stroke="#666666" points="446,-53 213,-53 213,0 446,0 446,-53"/>
<text text-anchor="start" x="221" y="-37.8" font-family="Arial" font-size="14.00">examples/esp32/main</text>
<text text-anchor="start" x="221" y="-22.8" font-family="Arial" font-size="14.00">/DigitalOutputGuardComprehensive</text>
<text text-anchor="middle" x="329.5" y="-7.8" font-family="Arial" font-size="14.00">Test.cpp</text>
</a>
</g>
</g>
<!-- Node3&#45;&gt;Node4 -->
<g id="edge3_Node000003_Node000004" class="edge">
<title>Node3&#45;&gt;Node4</title>
<g id="a_edge3_Node000003_Node000004"><a xlink:title=" ">
<path fill="none" stroke="#63b8ff" d="M880.41,-168.14C840.26,-158.55 785.93,-144.17 739.5,-127 702.58,-113.35 697,-100.96 659.5,-89 571.37,-60.9 545.38,-70.25 454.5,-53 451.78,-52.48 449.03,-51.96 446.25,-51.42"/>
<polygon fill="#63b8ff" stroke="#63b8ff" points="879.77,-171.58 890.3,-170.47 881.38,-164.77 879.77,-171.58"/>
</a>
</g>
</g>
<!-- Node5 -->
<g id="Node000005" class="node">
<title>Node5</title>
<g id="a_Node000005"><a xlink:href="I2cComprehensiveTest_8cpp.html" target="_top" xlink:title="Comprehensive I2C testing suite for ESP32&#45;C6 DevKit&#45;M&#45;1 (noexcept)">
<polygon fill="white" stroke="#666666" points="3282.5,-45.5 3098.5,-45.5 3098.5,-7.5 3282.5,-7.5 3282.5,-45.5"/>
<text text-anchor="start" x="3106.5" y="-30.3" font-family="Arial" font-size="14.00">examples/esp32/main</text>
<text text-anchor="middle" x="3190.5" y="-15.3" font-family="Arial" font-size="14.00">/I2cComprehensiveTest.cpp</text>
</a>
</g>
</g>
<!-- Node3&#45;&gt;Node5 -->
<g id="edge5_Node000003_Node000005" class="edge">
<title>Node3&#45;&gt;Node5</title>
<g id="a_edge5_Node000003_Node000005"><a xlink:title=" ">
<path fill="none" stroke="#63b8ff" d="M1035.12,-179.24C1262.32,-174.68 1848.15,-160.4 2336.5,-127 2378.44,-124.13 3048.09,-60.22 3089.5,-53 3101.08,-50.98 3113.29,-48.34 3125.07,-45.53"/>
<polygon fill="#63b8ff" stroke="#63b8ff" points="1034.83,-175.75 1024.9,-179.45 1034.97,-182.75 1034.83,-175.75"/>
</a>
</g>
</g>
<!-- Node6 -->
<g id="Node000006" class="node">
<title>Node6</title>
<g id="a_Node000006"><a xlink:href="PioComprehensiveTest_8cpp.html" target="_top" xlink:title="Comprehensive PIO testing suite for ESP32&#45;C6 DevKit&#45;M&#45;1 with RMT peripheral (noexcept)">
<polygon fill="white" stroke="#666666" points="2871,-45.5 2686,-45.5 2686,-7.5 2871,-7.5 2871,-45.5"/>
<text text-anchor="start" x="2694" y="-30.3" font-family="Arial" font-size="14.00">examples/esp32/main</text>
<text text-anchor="middle" x="2778.5" y="-15.3" font-family="Arial" font-size="14.00">/PioComprehensiveTest.cpp</text>
</a>
</g>
</g>
<!-- Node3&#45;&gt;Node6 -->
<g id="edge6_Node000003_Node000006" class="edge">
<title>Node3&#45;&gt;Node6</title>
<g id="a_edge6_Node000003_Node000006"><a xlink:title=" ">
<path fill="none" stroke="#63b8ff" d="M1035.15,-175.85C1197.21,-167.04 1533.95,-147.98 1818.5,-127 2009.58,-112.91 2488.56,-84.78 2677.5,-53 2689.27,-51.02 2701.69,-48.37 2713.63,-45.52"/>
<polygon fill="#63b8ff" stroke="#63b8ff" points="1034.53,-172.38 1024.74,-176.42 1034.91,-179.37 1034.53,-172.38"/>
</a>
</g>
</g>
<!-- Node7 -->
<g id="Node000007" class="node">
<title>Node7</title>
<g id="a_Node000007"><a xlink:href="PwmComprehensiveTest_8cpp.html" target="_top" xlink:title="Comprehensive PWM testing suite for ESP32 family (noexcept)">
<polygon fill="white" stroke="#666666" points="661,-45.5 464,-45.5 464,-7.5 661,-7.5 661,-45.5"/>
<text text-anchor="start" x="472" y="-30.3" font-family="Arial" font-size="14.00">examples/esp32/main</text>
<text text-anchor="middle" x="562.5" y="-15.3" font-family="Arial" font-size="14.00">/PwmComprehensiveTest.cpp</text>
</a>
</g>
</g>
<!-- Node3&#45;&gt;Node7 -->
<g id="edge7_Node000003_Node000007" class="edge">
<title>Node3&#45;&gt;Node7</title>
<g id="a_edge7_Node000003_Node000007"><a xlink:title=" ">
<path fill="none" stroke="#63b8ff" d="M947.18,-160.99C954.61,-140.37 961.66,-108.56 944.5,-89 904,-42.83 730.91,-64.07 670.5,-53 658.75,-50.85 646.36,-48.24 634.32,-45.53"/>
<polygon fill="#63b8ff" stroke="#63b8ff" points="943.89,-159.78 943.49,-170.37 950.4,-162.34 943.89,-159.78"/>
</a>
</g>
</g>
<!-- Node8 -->
<g id="Node000008" class="node">
<title>Node8</title>
<g id="a_Node000008"><a xlink:href="TestFramework_8h.html" target="_top" xlink:title="Shared testing framework for ESP32&#45;C6 comprehensive test suites.">
<polygon fill="white" stroke="#666666" points="1809,-127 1660,-127 1660,-89 1809,-89 1809,-127"/>
<text text-anchor="start" x="1668" y="-111.8" font-family="Arial" font-size="14.00">examples/esp32/main</text>
<text text-anchor="middle" x="1734.5" y="-96.8" font-family="Arial" font-size="14.00">/TestFramework.h</text>
</a>
</g>
</g>
<!-- Node3&#45;&gt;Node8 -->
<g id="edge8_Node000003_Node000008" class="edge">
<title>Node3&#45;&gt;Node8</title>
<g id="a_edge8_Node000003_Node000008"><a xlink:title=" ">
<path fill="none" stroke="#63b8ff" d="M1035.18,-172.26C1195.98,-157.71 1514.99,-128.85 1659.84,-115.75"/>
<polygon fill="#63b8ff" stroke="#63b8ff" points="1034.47,-168.81 1024.82,-173.19 1035.1,-175.78 1034.47,-168.81"/>
</a>
</g>
</g>
<!-- Node18 -->
<g id="Node000018" class="node">
<title>Node18</title>
<g id="a_Node000018"><a xlink:href="UartComprehensiveTest_8cpp.html" target="_top" xlink:title="Comprehensive UART testing suite for ESP32&#45;C6 DevKit&#45;M&#45;1 (noexcept)">
<polygon fill="white" stroke="#666666" points="3080,-45.5 2889,-45.5 2889,-7.5 3080,-7.5 3080,-45.5"/>
<text text-anchor="start" x="2897" y="-30.3" font-family="Arial" font-size="14.00">examples/esp32/main</text>
<text text-anchor="middle" x="2984.5" y="-15.3" font-family="Arial" font-size="14.00">/UartComprehensiveTest.cpp</text>
</a>
</g>
</g>
<!-- Node3&#45;&gt;Node18 -->
<g id="edge26_Node000003_Node000018" class="edge">
<title>Node3&#45;&gt;Node18</title>
<g id="a_edge26_Node000003_Node000018"><a xlink:title=" ">
<path fill="none" stroke="#63b8ff" d="M1034.76,-177.98C1232.28,-171.44 1697.6,-154.34 2087.5,-127 2264.05,-114.62 2705.97,-82.38 2880.5,-53 2892.42,-50.99 2904.99,-48.36 2917.11,-45.55"/>
<polygon fill="#63b8ff" stroke="#63b8ff" points="1034.58,-174.48 1024.7,-178.31 1034.81,-181.48 1034.58,-174.48"/>
</a>
</g>
</g>
<!-- Node21 -->
<g id="Node000021" class="node">
<title>Node21</title>
<g id="a_Node000021"><a xlink:href="EspGpio_8cpp.html" target="_top" xlink:title="Production&#45;quality ESP32 GPIO implementation with ESP&#45;IDF v5.5+ advanced features.">
<polygon fill="white" stroke="#666666" points="936,-119.5 749,-119.5 749,-96.5 936,-96.5 936,-119.5"/>
<text text-anchor="middle" x="842.5" y="-104.3" font-family="Arial" font-size="14.00">src/mcu/esp32/EspGpio.cpp</text>
</a>
</g>
</g>
<!-- Node3&#45;&gt;Node21 -->
<g id="edge27_Node000003_Node000021" class="edge">
<title>Node3&#45;&gt;Node21</title>
<g id="a_edge27_Node000003_Node000021"><a xlink:title=" ">
<path fill="none" stroke="#63b8ff" d="M915.97,-164.1C897.65,-150.36 872.35,-131.38 856.72,-119.67"/>
<polygon fill="#63b8ff" stroke="#63b8ff" points="914.23,-167.18 924.33,-170.38 918.43,-161.58 914.23,-167.18"/>
</a>
</g>
</g>
<!-- Node8&#45;&gt;Node2 -->
<g id="edge14_Node000008_Node000002" class="edge">
<title>Node8&#45;&gt;Node2</title>
<g id="a_edge14_Node000008_Node000002"><a xlink:title=" ">
<path fill="none" stroke="#63b8ff" d="M1649.41,-105C1348.73,-97.79 346.57,-72.53 203.5,-53 190.47,-51.22 176.7,-48.53 163.55,-45.55"/>
<polygon fill="#63b8ff" stroke="#63b8ff" points="1649.73,-108.51 1659.81,-105.25 1649.89,-101.51 1649.73,-108.51"/>
</a>
</g>
</g>
<!-- Node8&#45;&gt;Node4 -->
<g id="edge13_Node000008_Node000004" class="edge">
<title>Node8&#45;&gt;Node4</title>
<g id="a_edge13_Node000008_Node000004"><a xlink:title=" ">
<path fill="none" stroke="#63b8ff" d="M1649.51,-105.18C1402.38,-99.61 686.84,-81.42 454.5,-53 451.75,-52.66 448.97,-52.3 446.18,-51.91"/>
<polygon fill="#63b8ff" stroke="#63b8ff" points="1649.79,-108.69 1659.87,-105.41 1649.95,-101.69 1649.79,-108.69"/>
</a>
</g>
</g>
<!-- Node8&#45;&gt;Node5 -->
<g id="edge15_Node000008_Node000005" class="edge">
<title>Node8&#45;&gt;Node5</title>
<g id="a_edge15_Node000008_Node000005"><a xlink:title=" ">
<path fill="none" stroke="#63b8ff" d="M1819.23,-105.92C2075.94,-102.3 2842.61,-88.69 3089.5,-53 3101.94,-51.2 3115.07,-48.5 3127.6,-45.52"/>
<polygon fill="#63b8ff" stroke="#63b8ff" points="1819.17,-102.42 1809.22,-106.06 1819.27,-109.42 1819.17,-102.42"/>
</a>
</g>
</g>
<!-- Node8&#45;&gt;Node6 -->
<g id="edge18_Node000008_Node000006" class="edge">
<title>Node8&#45;&gt;Node6</title>
<g id="a_edge18_Node000008_Node000006"><a xlink:title=" ">
<path fill="none" stroke="#63b8ff" d="M1819.4,-104.21C2018.97,-97.31 2513.4,-78.18 2677.5,-53 2689.66,-51.13 2702.48,-48.46 2714.76,-45.54"/>
<polygon fill="#63b8ff" stroke="#63b8ff" points="1819.13,-100.71 1809.26,-104.56 1819.37,-107.71 1819.13,-100.71"/>
</a>
</g>
</g>
<!-- Node8&#45;&gt;Node7 -->
<g id="edge19_Node000008_Node000007" class="edge">
<title>Node8&#45;&gt;Node7</title>
<g id="a_edge19_Node000008_Node000007"><a xlink:title=" ">
<path fill="none" stroke="#63b8ff" d="M1649.64,-107.89C1468.7,-108.65 1032.01,-104.42 670.5,-53 657.43,-51.14 643.63,-48.45 630.41,-45.51"/>
<polygon fill="#63b8ff" stroke="#63b8ff" points="1649.9,-111.39 1659.88,-107.84 1649.87,-104.39 1649.9,-111.39"/>
</a>
</g>
</g>
<!-- Node9 -->
<g id="Node000009" class="node">
<title>Node9</title>
<g id="a_Node000009"><a xlink:href="AdcComprehensiveTest_8cpp.html" target="_top" xlink:title="Comprehensive ADC testing suite for ESP32&#45;C6 DevKit&#45;M&#45;1 (noexcept)">
<polygon fill="white" stroke="#666666" points="2668,-45.5 2479,-45.5 2479,-7.5 2668,-7.5 2668,-45.5"/>
<text text-anchor="start" x="2487" y="-30.3" font-family="Arial" font-size="14.00">examples/esp32/main</text>
<text text-anchor="middle" x="2573.5" y="-15.3" font-family="Arial" font-size="14.00">/AdcComprehensiveTest.cpp</text>
</a>
</g>
</g>
<!-- Node8&#45;&gt;Node9 -->
<g id="edge9_Node000008_Node000009" class="edge">
<title>Node8&#45;&gt;Node9</title>
<g id="a_edge9_Node000008_Node000009"><a xlink:title=" ">
<path fill="none" stroke="#63b8ff" d="M1819.2,-105.44C1956.68,-101.87 2236.59,-90.26 2470.5,-53 2482.6,-51.07 2495.36,-48.43 2507.63,-45.56"/>
<polygon fill="#63b8ff" stroke="#63b8ff" points="1819.06,-101.94 1809.15,-105.69 1819.24,-108.94 1819.06,-101.94"/>
</a>
</g>
</g>
<!-- Node10 -->
<g id="Node000010" class="node">
<title>Node10</title>
<g id="a_Node000010"><a xlink:href="AsciiArtComprehensiveTest_8cpp.html" target="_top" xlink:title="ASCII Art Generator comprehensive example and test suite for ESP32&#45;C6 DevKit&#45;M&#45;1 (noexcept)">
<polygon fill="white" stroke="#666666" points="891.5,-45.5 679.5,-45.5 679.5,-7.5 891.5,-7.5 891.5,-45.5"/>
<text text-anchor="start" x="687.5" y="-30.3" font-family="Arial" font-size="14.00">examples/esp32/main</text>
<text text-anchor="middle" x="785.5" y="-15.3" font-family="Arial" font-size="14.00">/AsciiArtComprehensiveTest.cpp</text>
</a>
</g>
</g>
<!-- Node8&#45;&gt;Node10 -->
<g id="edge10_Node000008_Node000010" class="edge">
<title>Node8&#45;&gt;Node10</title>
<g id="a_edge10_Node000008_Node000010"><a xlink:title=" ">
<path fill="none" stroke="#63b8ff" d="M1649.77,-105.8C1498.56,-102.71 1172.56,-91.74 900.5,-53 886.94,-51.07 872.59,-48.4 858.81,-45.52"/>
<polygon fill="#63b8ff" stroke="#63b8ff" points="1649.84,-109.3 1659.91,-106 1649.98,-102.31 1649.84,-109.3"/>
</a>
</g>
</g>
<!-- Node11 -->
<g id="Node000011" class="node">
<title>Node11</title>
<g id="a_Node000011"><a xlink:href="BluetoothComprehensiveTest_8cpp.html" target="_top" xlink:title="Comprehensive Bluetooth/NimBLE testing suite for ESP32&#45;C6 DevKit&#45;M&#45;1 (noexcept)">
<polygon fill="white" stroke="#666666" points="1132,-45.5 909,-45.5 909,-7.5 1132,-7.5 1132,-45.5"/>
<text text-anchor="start" x="917" y="-30.3" font-family="Arial" font-size="14.00">examples/esp32/main</text>
<text text-anchor="middle" x="1020.5" y="-15.3" font-family="Arial" font-size="14.00">/BluetoothComprehensiveTest.cpp</text>
</a>
</g>
</g>
<!-- Node8&#45;&gt;Node11 -->
<g id="edge11_Node000008_Node000011" class="edge">
<title>Node8&#45;&gt;Node11</title>
<g id="a_edge11_Node000008_Node000011"><a xlink:title=" ">
<path fill="none" stroke="#63b8ff" d="M1649.56,-102.39C1534.09,-95.42 1321.36,-80.05 1141.5,-53 1127.81,-50.94 1113.33,-48.3 1099.34,-45.5"/>
<polygon fill="#63b8ff" stroke="#63b8ff" points="1649.55,-105.9 1659.74,-103 1649.97,-98.91 1649.55,-105.9"/>
</a>
</g>
</g>
<!-- Node12 -->
<g id="Node000012" class="node">
<title>Node12</title>
<g id="a_Node000012"><a xlink:href="CanComprehensiveTest_8cpp.html" target="_top" xlink:title="Comprehensive CAN testing suite for ESP32&#45;C6 with ESP&#45;IDF v5.5 TWAI API and SN65 transceiver.">
<polygon fill="white" stroke="#666666" points="1341,-45.5 1150,-45.5 1150,-7.5 1341,-7.5 1341,-45.5"/>
<text text-anchor="start" x="1158" y="-30.3" font-family="Arial" font-size="14.00">examples/esp32/main</text>
<text text-anchor="middle" x="1245.5" y="-15.3" font-family="Arial" font-size="14.00">/CanComprehensiveTest.cpp</text>
</a>
</g>
</g>
<!-- Node8&#45;&gt;Node12 -->
<g id="edge12_Node000008_Node000012" class="edge">
<title>Node8&#45;&gt;Node12</title>
<g id="a_edge12_Node000008_Node000012"><a xlink:title=" ">
<path fill="none" stroke="#63b8ff" d="M1649.54,-97.49C1571.47,-88.17 1452.7,-72.55 1350.5,-53 1339.17,-50.83 1327.22,-48.24 1315.61,-45.54"/>
<polygon fill="#63b8ff" stroke="#63b8ff" points="1649.47,-101.01 1659.81,-98.71 1650.29,-94.05 1649.47,-101.01"/>
</a>
</g>
</g>
<!-- Node13 -->
<g id="Node000013" class="node">
<title>Node13</title>
<g id="a_Node000013"><a xlink:href="LoggerComprehensiveTest_8cpp.html" target="_top" xlink:title="Comprehensive Logger testing suite for ESP32&#45;C6 DevKit&#45;M&#45;1 (noexcept)">
<polygon fill="white" stroke="#666666" points="1567.5,-45.5 1359.5,-45.5 1359.5,-7.5 1567.5,-7.5 1567.5,-45.5"/>
<text text-anchor="start" x="1367.5" y="-30.3" font-family="Arial" font-size="14.00">examples/esp32/main</text>
<text text-anchor="middle" x="1463.5" y="-15.3" font-family="Arial" font-size="14.00">/LoggerComprehensiveTest.cpp</text>
</a>
</g>
</g>
<!-- Node8&#45;&gt;Node13 -->
<g id="edge16_Node000008_Node000013" class="edge">
<title>Node8&#45;&gt;Node13</title>
<g id="a_edge16_Node000008_Node000013"><a xlink:title=" ">
<path fill="none" stroke="#63b8ff" d="M1663.2,-86.08C1620.31,-73.5 1566.27,-57.65 1525.22,-45.61"/>
<polygon fill="#63b8ff" stroke="#63b8ff" points="1662.43,-89.5 1673.01,-88.96 1664.4,-82.79 1662.43,-89.5"/>
</a>
</g>
</g>
<!-- Node14 -->
<g id="Node000014" class="node">
<title>Node14</title>
<g id="a_Node000014"><a xlink:href="NvsComprehensiveTest_8cpp.html" target="_top" xlink:title="Comprehensive NVS (Non&#45;Volatile Storage) testing suite for ESP32&#45;C6 DevKit&#45;M&#45;1 (noexcept)">
<polygon fill="white" stroke="#666666" points="1775,-45.5 1586,-45.5 1586,-7.5 1775,-7.5 1775,-45.5"/>
<text text-anchor="start" x="1594" y="-30.3" font-family="Arial" font-size="14.00">examples/esp32/main</text>
<text text-anchor="middle" x="1680.5" y="-15.3" font-family="Arial" font-size="14.00">/NvsComprehensiveTest.cpp</text>
</a>
</g>
</g>
<!-- Node8&#45;&gt;Node14 -->
<g id="edge17_Node000008_Node000014" class="edge">
<title>Node8&#45;&gt;Node14</title>
<g id="a_edge17_Node000008_Node000014"><a xlink:title=" ">
<path fill="none" stroke="#63b8ff" d="M1716.58,-80.61C1708.81,-69.18 1699.91,-56.08 1692.89,-45.74"/>
<polygon fill="#63b8ff" stroke="#63b8ff" points="1713.73,-82.65 1722.25,-88.96 1719.52,-78.72 1713.73,-82.65"/>
</a>
</g>
</g>
<!-- Node15 -->
<g id="Node000015" class="node">
<title>Node15</title>
<g id="a_Node000015"><a xlink:href="SpiComprehensiveTest_8cpp.html" target="_top" xlink:title="Comprehensive SPI testing suite for ESP32&#45;C6 DevKit&#45;M&#45;1 (noexcept)">
<polygon fill="white" stroke="#666666" points="3705,-45.5 3520,-45.5 3520,-7.5 3705,-7.5 3705,-45.5"/>
<text text-anchor="start" x="3528" y="-30.3" font-family="Arial" font-size="14.00">examples/esp32/main</text>
<text text-anchor="middle" x="3612.5" y="-15.3" font-family="Arial" font-size="14.00">/SpiComprehensiveTest.cpp</text>
</a>
</g>
</g>
<!-- Node8&#45;&gt;Node15 -->
<g id="edge20_Node000008_Node000015" class="edge">
<title>Node8&#45;&gt;Node15</title>
<g id="a_edge20_Node000008_Node000015"><a xlink:title=" ">
<path fill="none" stroke="#63b8ff" d="M1819.57,-105.5C2150.67,-99.51 3343.29,-76.51 3511.5,-53 3524.04,-51.25 3537.27,-48.55 3549.88,-45.55"/>
<polygon fill="#63b8ff" stroke="#63b8ff" points="1819.03,-102.01 1809.09,-105.69 1819.15,-109.01 1819.03,-102.01"/>
</a>
</g>
</g>
<!-- Node16 -->
<g id="Node000016" class="node">
<title>Node16</title>
<g id="a_Node000016"><a xlink:href="TemperatureComprehensiveTest_8cpp.html" target="_top" xlink:title="Comprehensive Temperature sensor testing suite for ESP32&#45;C6 DevKit&#45;M&#45;1 (noexcept)">
<polygon fill="white" stroke="#666666" points="2035.5,-45.5 1793.5,-45.5 1793.5,-7.5 2035.5,-7.5 2035.5,-45.5"/>
<text text-anchor="start" x="1801.5" y="-30.3" font-family="Arial" font-size="14.00">examples/esp32/main</text>
<text text-anchor="middle" x="1914.5" y="-15.3" font-family="Arial" font-size="14.00">/TemperatureComprehensiveTest.cpp</text>
</a>
</g>
</g>
<!-- Node8&#45;&gt;Node16 -->
<g id="edge21_Node000008_Node000016" class="edge">
<title>Node8&#45;&gt;Node16</title>
<g id="a_edge21_Node000008_Node000016"><a xlink:title=" ">
<path fill="none" stroke="#63b8ff" d="M1784.58,-84.88C1812.6,-72.5 1847.1,-57.27 1873.51,-45.61"/>
<polygon fill="#63b8ff" stroke="#63b8ff" points="1783.08,-81.72 1775.34,-88.96 1785.91,-88.12 1783.08,-81.72"/>
</a>
</g>
</g>
<!-- Node17 -->
<g id="Node000017" class="node">
<title>Node17</title>
<g id="a_Node000017"><a xlink:href="TimerComprehensiveTest_8cpp.html" target="_top" xlink:title="ESP32&#45;C6 Periodic Timer Comprehensive Test Suite v2.0.">
<polygon fill="white" stroke="#666666" points="3502,-45.5 3301,-45.5 3301,-7.5 3502,-7.5 3502,-45.5"/>
<text text-anchor="start" x="3309" y="-30.3" font-family="Arial" font-size="14.00">examples/esp32/main</text>
<text text-anchor="middle" x="3401.5" y="-15.3" font-family="Arial" font-size="14.00">/TimerComprehensiveTest.cpp</text>
</a>
</g>
</g>
<!-- Node8&#45;&gt;Node17 -->
<g id="edge22_Node000008_Node000017" class="edge">
<title>Node8&#45;&gt;Node17</title>
<g id="a_edge22_Node000008_Node000017"><a xlink:title=" ">
<path fill="none" stroke="#63b8ff" d="M1819.46,-106.21C2101.22,-103.27 3003.28,-91.04 3291.5,-53 3305.01,-51.22 3319.29,-48.52 3332.93,-45.54"/>
<polygon fill="#63b8ff" stroke="#63b8ff" points="1819.27,-102.72 1809.3,-106.32 1819.34,-109.72 1819.27,-102.72"/>
</a>
</g>
</g>
<!-- Node8&#45;&gt;Node18 -->
<g id="edge23_Node000008_Node000018" class="edge">
<title>Node8&#45;&gt;Node18</title>
<g id="a_edge23_Node000008_Node000018"><a xlink:title=" ">
<path fill="none" stroke="#63b8ff" d="M1819.28,-105.13C2048.25,-99.75 2675.68,-82.65 2880.5,-53 2893.1,-51.18 2906.41,-48.5 2919.14,-45.56"/>
<polygon fill="#63b8ff" stroke="#63b8ff" points="1818.92,-101.64 1809,-105.37 1819.08,-108.64 1818.92,-101.64"/>
</a>
</g>
</g>
<!-- Node19 -->
<g id="Node000019" class="node">
<title>Node19</title>
<g id="a_Node000019"><a xlink:href="UsbSerialJtagComprehensiveTest_8cpp.html" target="_top" xlink:title="Comprehensive test suite for the EspUsbSerialJtag wrapper (noexcept).">
<polygon fill="white" stroke="#666666" points="2253.5,-53 2053.5,-53 2053.5,0 2253.5,0 2253.5,-53"/>
<text text-anchor="start" x="2061.5" y="-37.8" font-family="Arial" font-size="14.00">examples/esp32/main</text>
<text text-anchor="start" x="2061.5" y="-22.8" font-family="Arial" font-size="14.00">/UsbSerialJtagComprehensive</text>
<text text-anchor="middle" x="2153.5" y="-7.8" font-family="Arial" font-size="14.00">Test.cpp</text>
</a>
</g>
</g>
<!-- Node8&#45;&gt;Node19 -->
<g id="edge24_Node000008_Node000019" class="edge">
<title>Node8&#45;&gt;Node19</title>
<g id="a_edge24_Node000008_Node000019"><a xlink:title=" ">
<path fill="none" stroke="#63b8ff" d="M1819.46,-93.55C1881.89,-83.34 1968.69,-68.46 2044.5,-53 2047.45,-52.4 2050.45,-51.78 2053.47,-51.14"/>
<polygon fill="#63b8ff" stroke="#63b8ff" points="1818.57,-90.15 1809.26,-95.21 1819.7,-97.06 1818.57,-90.15"/>
</a>
</g>
</g>
<!-- Node20 -->
<g id="Node000020" class="node">
<title>Node20</title>
<g id="a_Node000020"><a xlink:href="WifiComprehensiveTest_8cpp.html" target="_top" xlink:title="Comprehensive WiFi testing suite for ESP32&#45;C6 DevKit&#45;M&#45;1 with ESP&#45;IDF v5.5f.">
<polygon fill="white" stroke="#666666" points="2461,-45.5 2272,-45.5 2272,-7.5 2461,-7.5 2461,-45.5"/>
<text text-anchor="start" x="2280" y="-30.3" font-family="Arial" font-size="14.00">examples/esp32/main</text>
<text text-anchor="middle" x="2366.5" y="-15.3" font-family="Arial" font-size="14.00">/WifiComprehensiveTest.cpp</text>
</a>
</g>
</g>
<!-- Node8&#45;&gt;Node20 -->
<g id="edge25_Node000008_Node000020" class="edge">
<title>Node8&#45;&gt;Node20</title>
<g id="a_edge25_Node000008_Node000020"><a xlink:title=" ">
<path fill="none" stroke="#63b8ff" d="M1819.47,-101.95C1924.21,-94.89 2107.41,-79.81 2262.5,-53 2274.32,-50.96 2286.78,-48.33 2298.81,-45.53"/>
<polygon fill="#63b8ff" stroke="#63b8ff" points="1819.01,-98.47 1809.27,-102.63 1819.48,-105.45 1819.01,-98.47"/>
</a>
</g>
</g>
<!-- Node22&#45;&gt;Node2 -->
<g id="edge29_Node000022_Node000002" class="edge">
<title>Node22&#45;&gt;Node2</title>
<g id="a_edge29_Node000022_Node000002"><a xlink:title=" ">
<path fill="none" stroke="#63b8ff" d="M669.07,-306.35C551.05,-248.77 241.34,-97.68 134.42,-45.51"/>
<polygon fill="#63b8ff" stroke="#63b8ff" points="667.71,-309.58 678.23,-310.82 670.78,-303.29 667.71,-309.58"/>
</a>
</g>
</g>
<!-- Node22&#45;&gt;Node3 -->
<g id="edge30_Node000022_Node000003" class="edge">
<title>Node22&#45;&gt;Node3</title>
<g id="a_edge30_Node000022_Node000003"><a xlink:title=" ">
<path fill="none" stroke="#63b8ff" d="M695.42,-302.3C683.13,-282.46 672.4,-255.7 687.5,-237 698.95,-222.83 798.16,-204.73 868.36,-193.5"/>
<polygon fill="#63b8ff" stroke="#63b8ff" points="692.66,-304.46 701.09,-310.88 698.5,-300.6 692.66,-304.46"/>
</a>
</g>
</g>
<!-- Node23 -->
<g id="Node000023" class="node">
<title>Node23</title>
<g id="a_Node000023"><a xlink:href="EspTypes_8h.html" target="_top" xlink:title="Consolidated MCU&#45;specific type definitions for hardware abstraction (hf_* types).">
<polygon fill="white" stroke="#666666" points="3084.5,-201 2952.5,-201 2952.5,-163 3084.5,-163 3084.5,-201"/>
<text text-anchor="start" x="2960.5" y="-185.8" font-family="Arial" font-size="14.00">inc/mcu/esp32/utils</text>
<text text-anchor="middle" x="3018.5" y="-170.8" font-family="Arial" font-size="14.00">/EspTypes.h</text>
</a>
</g>
</g>
<!-- Node22&#45;&gt;Node23 -->
<g id="edge31_Node000022_Node000023" class="edge">
<title>Node22&#45;&gt;Node23</title>
<g id="a_edge31_Node000022_Node000023"><a xlink:title=" ">
<path fill="none" stroke="#63b8ff" d="M767.02,-306.92C789.12,-297.31 815.17,-285.8 838.5,-275 873.49,-258.8 879.04,-246.15 916.5,-237 1117.92,-187.81 2617.31,-183.4 2952.27,-183.03"/>
<polygon fill="#63b8ff" stroke="#63b8ff" points="765.59,-303.73 757.81,-310.92 768.38,-310.15 765.59,-303.73"/>
</a>
</g>
</g>
<!-- Node34 -->
<g id="Node000034" class="node">
<title>Node34</title>
<g id="a_Node000034"><a xlink:href="EspTypes__PWM_8h.html" target="_top" xlink:title="ESP32 PWM type definitions for LEDC peripheral hardware abstraction.">
<polygon fill="white" stroke="#666666" points="830,-275 697,-275 697,-237 830,-237 830,-275"/>
<text text-anchor="start" x="705" y="-259.8" font-family="Arial" font-size="14.00">inc/mcu/esp32/utils</text>
<text text-anchor="middle" x="763.5" y="-244.8" font-family="Arial" font-size="14.00">/EspTypes_PWM.h</text>
</a>
</g>
</g>
<!-- Node22&#45;&gt;Node34 -->
<g id="edge47_Node000022_Node000034" class="edge">
<title>Node22&#45;&gt;Node34</title>
<g id="a_edge47_Node000022_Node000034"><a xlink:title=" ">
<path fill="none" stroke="#63b8ff" d="M733.33,-302.26C739.29,-293.32 745.79,-283.57 751.22,-275.41"/>
<polygon fill="#63b8ff" stroke="#63b8ff" points="730.25,-300.57 727.61,-310.83 736.07,-304.45 730.25,-300.57"/>
</a>
</g>
</g>
<!-- Node24 -->
<g id="Node000024" class="node">
<title>Node24</title>
<g id="a_Node000024"><a xlink:href="EspI2c_8h.html" target="_top" xlink:title="Advanced ESP32&#45;integrated I2C controller for ESP&#45;IDF v5.5+ with proper bus&#45;device architecture.">
<polygon fill="white" stroke="#666666" points="3282,-119.5 3121,-119.5 3121,-96.5 3282,-96.5 3282,-119.5"/>
<text text-anchor="middle" x="3201.5" y="-104.3" font-family="Arial" font-size="14.00">inc/mcu/esp32/EspI2c.h</text>
</a>
</g>
</g>
<!-- Node23&#45;&gt;Node24 -->
<g id="edge32_Node000023_Node000024" class="edge">
<title>Node23&#45;&gt;Node24</title>
<g id="a_edge32_Node000023_Node000024"><a xlink:title=" ">
<path fill="none" stroke="#63b8ff" d="M3074.3,-159.05C3107.6,-145.94 3148.38,-129.9 3174.65,-119.57"/>
<polygon fill="#63b8ff" stroke="#63b8ff" points="3072.7,-155.91 3064.68,-162.83 3075.27,-162.43 3072.7,-155.91"/>
</a>
</g>
</g>
<!-- Node26 -->
<g id="Node000026" class="node">
<title>Node26</title>
<g id="a_Node000026"><a xlink:href="EspPeriodicTimer_8h.html" target="_top" xlink:title="MCU&#45;integrated periodic timer implementation.">
<polygon fill="white" stroke="#666666" points="3491.5,-127 3311.5,-127 3311.5,-89 3491.5,-89 3491.5,-127"/>
<text text-anchor="start" x="3319.5" y="-111.8" font-family="Arial" font-size="14.00">inc/mcu/esp32/EspPeriodic</text>
<text text-anchor="middle" x="3401.5" y="-96.8" font-family="Arial" font-size="14.00">Timer.h</text>
</a>
</g>
</g>
<!-- Node23&#45;&gt;Node26 -->
<g id="edge35_Node000023_Node000026" class="edge">
<title>Node23&#45;&gt;Node26</title>
<g id="a_edge35_Node000023_Node000026"><a xlink:title=" ">
<path fill="none" stroke="#63b8ff" d="M3094.94,-166.63C3157.29,-154.91 3245.5,-138.33 3311.31,-125.96"/>
<polygon fill="#63b8ff" stroke="#63b8ff" points="3093.96,-163.25 3084.78,-168.54 3095.25,-170.13 3093.96,-163.25"/>
</a>
</g>
</g>
<!-- Node28 -->
<g id="Node000028" class="node">
<title>Node28</title>
<g id="a_Node000028"><a xlink:href="EspPio_8h.html" target="_top" xlink:title="ESP32 RMT&#45;based Programmable IO Channel implementation with ESP&#45;IDF v5.5+ features.">
<polygon fill="white" stroke="#666666" points="2916.5,-119.5 2754.5,-119.5 2754.5,-96.5 2916.5,-96.5 2916.5,-119.5"/>
<text text-anchor="middle" x="2835.5" y="-104.3" font-family="Arial" font-size="14.00">inc/mcu/esp32/EspPio.h</text>
</a>
</g>
</g>
<!-- Node23&#45;&gt;Node28 -->
<g id="edge38_Node000023_Node000028" class="edge">
<title>Node23&#45;&gt;Node28</title>
<g id="a_edge38_Node000023_Node000028"><a xlink:title=" ">
<path fill="none" stroke="#63b8ff" d="M2962.7,-159.05C2929.4,-145.94 2888.62,-129.9 2862.35,-119.57"/>
<polygon fill="#63b8ff" stroke="#63b8ff" points="2961.73,-162.43 2972.32,-162.83 2964.3,-155.91 2961.73,-162.43"/>
</a>
</g>
</g>
<!-- Node30 -->
<g id="Node000030" class="node">
<title>Node30</title>
<g id="a_Node000030"><a xlink:href="EspSpi_8h.html" target="_top" xlink:title="Advanced MCU&#45;integrated SPI controller implementation with ESP32/ESP&#45;IDF v5.5+ features.">
<polygon fill="white" stroke="#666666" points="3693.5,-119.5 3531.5,-119.5 3531.5,-96.5 3693.5,-96.5 3693.5,-119.5"/>
<text text-anchor="middle" x="3612.5" y="-104.3" font-family="Arial" font-size="14.00">inc/mcu/esp32/EspSpi.h</text>
</a>
</g>
</g>
<!-- Node23&#45;&gt;Node30 -->
<g id="edge41_Node000023_Node000030" class="edge">
<title>Node23&#45;&gt;Node30</title>
<g id="a_edge41_Node000023_Node000030"><a xlink:title=" ">
<path fill="none" stroke="#63b8ff" d="M3094.61,-173.61C3189.72,-164.11 3357.41,-146.5 3500.5,-127 3516.7,-124.79 3534.16,-122.12 3550.37,-119.53"/>
<polygon fill="#63b8ff" stroke="#63b8ff" points="3094.11,-170.14 3084.5,-174.61 3094.8,-177.11 3094.11,-170.14"/>
</a>
</g>
</g>
<!-- Node32 -->
<g id="Node000032" class="node">
<title>Node32</title>
<g id="a_Node000032"><a xlink:href="EspUart_8h.html" target="_top" xlink:title="ESP32 UART implementation for the HardFOC system.">
<polygon fill="white" stroke="#666666" points="3102.5,-119.5 2934.5,-119.5 2934.5,-96.5 3102.5,-96.5 3102.5,-119.5"/>
<text text-anchor="middle" x="3018.5" y="-104.3" font-family="Arial" font-size="14.00">inc/mcu/esp32/EspUart.h</text>
</a>
</g>
</g>
<!-- Node23&#45;&gt;Node32 -->
<g id="edge44_Node000023_Node000032" class="edge">
<title>Node23&#45;&gt;Node32</title>
<g id="a_edge44_Node000023_Node000032"><a xlink:title=" ">
<path fill="none" stroke="#63b8ff" d="M3018.5,-152.62C3018.5,-140.99 3018.5,-128.26 3018.5,-119.57"/>
<polygon fill="#63b8ff" stroke="#63b8ff" points="3015,-152.83 3018.5,-162.83 3022,-152.83 3015,-152.83"/>
</a>
</g>
</g>
<!-- Node24&#45;&gt;Node5 -->
<g id="edge33_Node000024_Node000005" class="edge">
<title>Node24&#45;&gt;Node5</title>
<g id="a_edge33_Node000024_Node000005"><a xlink:title=" ">
<path fill="none" stroke="#63b8ff" d="M3198.63,-86.25C3196.89,-73.65 3194.68,-57.73 3193.01,-45.64"/>
<polygon fill="#63b8ff" stroke="#63b8ff" points="3195.18,-86.85 3200.02,-96.28 3202.11,-85.89 3195.18,-86.85"/>
</a>
</g>
</g>
<!-- Node25 -->
<g id="Node000025" class="node">
<title>Node25</title>
<g id="a_Node000025"><a xlink:href="EspI2c_8cpp.html" target="_top" xlink:title="Implementation of ESP32&#45;integrated I2C controller with proper bus&#45;device architecture.">
<polygon fill="white" stroke="#666666" points="4295.5,-38 4119.5,-38 4119.5,-15 4295.5,-15 4295.5,-38"/>
<text text-anchor="middle" x="4207.5" y="-22.8" font-family="Arial" font-size="14.00">src/mcu/esp32/EspI2c.cpp</text>
</a>
</g>
</g>
<!-- Node24&#45;&gt;Node25 -->
<g id="edge34_Node000024_Node000025" class="edge">
<title>Node24&#45;&gt;Node25</title>
<g id="a_edge34_Node000024_Node000025"><a xlink:title=" ">
<path fill="none" stroke="#63b8ff" d="M3263.17,-94.68C3276.11,-92.47 3289.72,-90.42 3302.5,-89 3659.78,-49.38 3755.11,-107 4110.5,-53 4132.02,-49.73 4155.65,-43.57 4174.2,-38.13"/>
<polygon fill="#63b8ff" stroke="#63b8ff" points="3262.19,-91.3 3252.95,-96.48 3263.41,-98.19 3262.19,-91.3"/>
</a>
</g>
</g>
<!-- Node26&#45;&gt;Node17 -->
<g id="edge36_Node000026_Node000017" class="edge">
<title>Node26&#45;&gt;Node17</title>
<g id="a_edge36_Node000026_Node000017"><a xlink:title=" ">
<path fill="none" stroke="#63b8ff" d="M3401.5,-78.92C3401.5,-67.9 3401.5,-55.57 3401.5,-45.74"/>
<polygon fill="#63b8ff" stroke="#63b8ff" points="3398,-78.96 3401.5,-88.96 3405,-78.96 3398,-78.96"/>
</a>
</g>
</g>
<!-- Node27 -->
<g id="Node000027" class="node">
<title>Node27</title>
<g id="a_Node000027"><a xlink:href="EspPeriodicTimer_8cpp.html" target="_top" xlink:title="Implementation of MCU&#45;integrated periodic timer.">
<polygon fill="white" stroke="#666666" points="4495,-45.5 4314,-45.5 4314,-7.5 4495,-7.5 4495,-45.5"/>
<text text-anchor="start" x="4322" y="-30.3" font-family="Arial" font-size="14.00">src/mcu/esp32/EspPeriodic</text>
<text text-anchor="middle" x="4404.5" y="-15.3" font-family="Arial" font-size="14.00">Timer.cpp</text>
</a>
</g>
</g>
<!-- Node26&#45;&gt;Node27 -->
<g id="edge37_Node000026_Node000027" class="edge">
<title>Node26&#45;&gt;Node27</title>
<g id="a_edge37_Node000026_Node000027"><a xlink:title=" ">
<path fill="none" stroke="#63b8ff" d="M3501.82,-91.28C3508.81,-90.43 3515.75,-89.66 3522.5,-89 3868.79,-55.36 3960.37,-104.25 4304.5,-53 4316.73,-51.18 4329.63,-48.49 4341.95,-45.53"/>
<polygon fill="#63b8ff" stroke="#63b8ff" points="3501.05,-87.85 3491.57,-92.57 3501.93,-94.79 3501.05,-87.85"/>
</a>
</g>
</g>
<!-- Node28&#45;&gt;Node6 -->
<g id="edge39_Node000028_Node000006" class="edge">
<title>Node28&#45;&gt;Node6</title>
<g id="a_edge39_Node000028_Node000006"><a xlink:title=" ">
<path fill="none" stroke="#63b8ff" d="M2821.97,-88.13C2812.75,-75.27 2800.61,-58.34 2791.51,-45.64"/>
<polygon fill="#63b8ff" stroke="#63b8ff" points="2819.14,-90.19 2827.81,-96.28 2824.83,-86.11 2819.14,-90.19"/>
</a>
</g>
</g>
<!-- Node29 -->
<g id="Node000029" class="node">
<title>Node29</title>
<g id="a_Node000029"><a xlink:href="EspPio_8cpp.html" target="_top" xlink:title="ESP32 RMT&#45;based Programmable IO Channel implementation.">
<polygon fill="white" stroke="#666666" points="3900,-38 3723,-38 3723,-15 3900,-15 3900,-38"/>
<text text-anchor="middle" x="3811.5" y="-22.8" font-family="Arial" font-size="14.00">src/mcu/esp32/EspPio.cpp</text>
</a>
</g>
</g>
<!-- Node28&#45;&gt;Node29 -->
<g id="edge40_Node000028_Node000029" class="edge">
<title>Node28&#45;&gt;Node29</title>
<g id="a_edge40_Node000028_Node000029"><a xlink:title=" ">
<path fill="none" stroke="#63b8ff" d="M2890.9,-94.55C2902.29,-92.38 2914.25,-90.37 2925.5,-89 3273.94,-46.46 3367.48,-105.92 3714.5,-53 3736.02,-49.72 3759.65,-43.56 3778.2,-38.12"/>
<polygon fill="#63b8ff" stroke="#63b8ff" points="2890.2,-91.12 2881.07,-96.49 2891.56,-97.99 2890.2,-91.12"/>
</a>
</g>
</g>
<!-- Node30&#45;&gt;Node15 -->
<g id="edge42_Node000030_Node000015" class="edge">
<title>Node30&#45;&gt;Node15</title>
<g id="a_edge42_Node000030_Node000015"><a xlink:title=" ">
<path fill="none" stroke="#63b8ff" d="M3612.5,-86.25C3612.5,-73.65 3612.5,-57.73 3612.5,-45.64"/>
<polygon fill="#63b8ff" stroke="#63b8ff" points="3609,-86.28 3612.5,-96.28 3616,-86.28 3609,-86.28"/>
</a>
</g>
</g>
<!-- Node31 -->
<g id="Node000031" class="node">
<title>Node31</title>
<g id="a_Node000031"><a xlink:href="EspSpi_8cpp.html" target="_top" xlink:title="Implementation of MCU&#45;integrated SPI controller for ESP32 with ESP&#45;IDF v5.5+ features.">
<polygon fill="white" stroke="#666666" points="4690,-38 4513,-38 4513,-15 4690,-15 4690,-38"/>
<text text-anchor="middle" x="4601.5" y="-22.8" font-family="Arial" font-size="14.00">src/mcu/esp32/EspSpi.cpp</text>
</a>
</g>
</g>
<!-- Node30&#45;&gt;Node31 -->
<g id="edge43_Node000030_Node000031" class="edge">
<title>Node30&#45;&gt;Node31</title>
<g id="a_edge43_Node000030_Node000031"><a xlink:title=" ">
<path fill="none" stroke="#63b8ff" d="M3704.07,-107.37C3866.39,-106.71 4214.81,-99.38 4504.5,-53 4525.82,-49.59 4549.24,-43.5 4567.73,-38.12"/>
<polygon fill="#63b8ff" stroke="#63b8ff" points="3703.63,-103.87 3693.65,-107.4 3703.66,-110.87 3703.63,-103.87"/>
</a>
</g>
</g>
<!-- Node32&#45;&gt;Node18 -->
<g id="edge45_Node000032_Node000018" class="edge">
<title>Node32&#45;&gt;Node18</title>
<g id="a_edge45_Node000032_Node000018"><a xlink:title=" ">
<path fill="none" stroke="#63b8ff" d="M3009.95,-87.01C3004.51,-74.3 2997.53,-57.98 2992.26,-45.64"/>
<polygon fill="#63b8ff" stroke="#63b8ff" points="3006.76,-88.46 3013.91,-96.28 3013.2,-85.71 3006.76,-88.46"/>
</a>
</g>
</g>
<!-- Node33 -->
<g id="Node000033" class="node">
<title>Node33</title>
<g id="a_Node000033"><a xlink:href="EspUart_8cpp.html" target="_top" xlink:title="Implementation of ESP32 UART controller for the HardFOC system.">
<polygon fill="white" stroke="#666666" points="4101,-38 3918,-38 3918,-15 4101,-15 4101,-38"/>
<text text-anchor="middle" x="4009.5" y="-22.8" font-family="Arial" font-size="14.00">src/mcu/esp32/EspUart.cpp</text>
</a>
</g>
</g>
<!-- Node32&#45;&gt;Node33 -->
<g id="edge46_Node000032_Node000033" class="edge">
<title>Node32&#45;&gt;Node33</title>
<g id="a_edge46_Node000032_Node000033"><a xlink:title=" ">
<path fill="none" stroke="#63b8ff" d="M3076.77,-94.49C3088.55,-92.34 3100.89,-90.37 3112.5,-89 3464.65,-47.55 3558.76,-105.08 3909.5,-53 3931.65,-49.71 3956.01,-43.55 3975.15,-38.11"/>
<polygon fill="#63b8ff" stroke="#63b8ff" points="3075.77,-91.12 3066.6,-96.41 3077.07,-98 3075.77,-91.12"/>
</a>
</g>
</g>
<!-- Node34&#45;&gt;Node23 -->
<g id="edge51_Node000034_Node000023" class="edge">
<title>Node34&#45;&gt;Node23</title>
<g id="a_edge51_Node000034_Node000023"><a xlink:title=" ">
<path fill="none" stroke="#63b8ff" d="M840.04,-237.58C841.54,-237.38 843.03,-237.18 844.5,-237 1267.5,-185.24 2635.04,-182.78 2952.33,-182.92"/>
<polygon fill="#63b8ff" stroke="#63b8ff" points="839.41,-234.14 830.07,-239.13 840.49,-241.06 839.41,-234.14"/>
</a>
</g>
</g>
<!-- Node35 -->
<g id="Node000035" class="node">
<title>Node35</title>
<g id="a_Node000035"><a xlink:href="EspPwm_8h.html" target="_top" xlink:title="ESP32 LEDC (PWM) controller implementation for the HardFOC system.">
<polygon fill="white" stroke="#666666" points="808,-193.5 635,-193.5 635,-170.5 808,-170.5 808,-193.5"/>
<text text-anchor="middle" x="721.5" y="-178.3" font-family="Arial" font-size="14.00">inc/mcu/esp32/EspPwm.h</text>
</a>
</g>
</g>
<!-- Node34&#45;&gt;Node35 -->
<g id="edge48_Node000034_Node000035" class="edge">
<title>Node34&#45;&gt;Node35</title>
<g id="a_edge48_Node000034_Node000035"><a xlink:title=" ">
<path fill="none" stroke="#63b8ff" d="M747.77,-228.03C740.77,-216.04 732.94,-202.61 727.66,-193.57"/>
<polygon fill="#63b8ff" stroke="#63b8ff" points="744.84,-229.96 752.9,-236.83 750.89,-226.43 744.84,-229.96"/>
</a>
</g>
</g>
<!-- Node35&#45;&gt;Node7 -->
<g id="edge49_Node000035_Node000007" class="edge">
<title>Node35&#45;&gt;Node7</title>
<g id="a_edge49_Node000035_Node000007"><a xlink:title=" ">
<path fill="none" stroke="#63b8ff" d="M703.21,-163.25C684.09,-144.7 653.22,-114.78 626.5,-89 611.31,-74.34 594.05,-57.76 581.28,-45.51"/>
<polygon fill="#63b8ff" stroke="#63b8ff" points="700.78,-165.77 710.4,-170.22 705.66,-160.75 700.78,-165.77"/>
</a>
</g>
</g>
<!-- Node36 -->
<g id="Node000036" class="node">
<title>Node36</title>
<g id="a_Node000036"><a xlink:href="EspPwm_8cpp.html" target="_top" xlink:title="Implementation of ESP32 family LEDC (PWM) controller for the HardFOC system.">
<polygon fill="white" stroke="#666666" points="617.5,-119.5 429.5,-119.5 429.5,-96.5 617.5,-96.5 617.5,-119.5"/>
<text text-anchor="middle" x="523.5" y="-104.3" font-family="Arial" font-size="14.00">src/mcu/esp32/EspPwm.cpp</text>
</a>
</g>
</g>
<!-- Node35&#45;&gt;Node36 -->
<g id="edge50_Node000035_Node000036" class="edge">
<title>Node35&#45;&gt;Node36</title>
<g id="a_edge50_Node000035_Node000036"><a xlink:title=" ">
<path fill="none" stroke="#63b8ff" d="M682.53,-166.83C644.3,-152.93 586.89,-132.05 552.51,-119.55"/>
<polygon fill="#63b8ff" stroke="#63b8ff" points="681.69,-170.25 692.28,-170.38 684.08,-163.67 681.69,-170.25"/>
</a>
</g>
</g>
<!-- Node38 -->
<g id="Node000038" class="node">
<title>Node38</title>
<g id="a_Node000038"><a xlink:href="StmGpio_8cpp.html" target="_top" xlink:title="STM32 GPIO wrapper implementation — full STM32 HAL integration.">
<polygon fill="white" stroke="#666666" points="1114,-267.5 925,-267.5 925,-244.5 1114,-244.5 1114,-267.5"/>
<text text-anchor="middle" x="1019.5" y="-252.3" font-family="Arial" font-size="14.00">src/mcu/stm32/StmGpio.cpp</text>
</a>
</g>
</g>
<!-- Node37&#45;&gt;Node38 -->
<g id="edge53_Node000037_Node000038" class="edge">
<title>Node37&#45;&gt;Node38</title>
<g id="a_edge53_Node000037_Node000038"><a xlink:title=" ">
<path fill="none" stroke="#63b8ff" d="M1016.65,-308.23C1017.39,-294.97 1018.32,-278.32 1018.91,-267.67"/>
<polygon fill="#63b8ff" stroke="#63b8ff" points="1013.15,-308.2 1016.09,-318.38 1020.14,-308.59 1013.15,-308.2"/>
</a>
</g>
</g>
<!-- Node39&#45;&gt;Node4 -->
<g id="edge55_Node000039_Node000004" class="edge">
<title>Node39&#45;&gt;Node4</title>
<g id="a_edge55_Node000039_Node000004"><a xlink:title=" ">
<path fill="none" stroke="#63b8ff" d="M403.18,-308.47C405.87,-265.85 408.1,-165.36 377.5,-89 372.31,-76.05 363.53,-63.57 354.88,-53.27"/>
<polygon fill="#63b8ff" stroke="#63b8ff" points="399.68,-308.23 402.47,-318.46 406.67,-308.73 399.68,-308.23"/>
</a>
</g>
</g>
<!-- Node40 -->
<g id="Node000040" class="node">
<title>Node40</title>
<g id="a_Node000040"><a xlink:href="DigitalOutputGuard_8cpp.html" target="_top" xlink:title="Implementation of the DigitalOutputGuard class for unified DigitalGpio.">
<polygon fill="white" stroke="#666666" points="335,-267.5 126,-267.5 126,-244.5 335,-244.5 335,-267.5"/>
<text text-anchor="middle" x="230.5" y="-252.3" font-family="Arial" font-size="14.00">src/utils/DigitalOutputGuard.cpp</text>
</a>
</g>
</g>
<!-- Node39&#45;&gt;Node40 -->
<g id="edge56_Node000039_Node000040" class="edge">
<title>Node39&#45;&gt;Node40</title>
<g id="a_edge56_Node000039_Node000040"><a xlink:title=" ">
<path fill="none" stroke="#63b8ff" d="M366.99,-314.47C333.98,-300.57 284.99,-279.94 255.56,-267.55"/>
<polygon fill="#63b8ff" stroke="#63b8ff" points="365.69,-317.72 376.27,-318.38 368.41,-311.27 365.69,-317.72"/>
</a>
</g>
</g>
</g>
</svg>
