<?xml version="1.0" encoding="UTF-8" standalone="no"?>
<!DOCTYPE svg PUBLIC "-//W3C//DTD SVG 1.1//EN"
 "http://www.w3.org/Graphics/SVG/1.1/DTD/svg11.dtd">
<!-- Generated by graphviz version 2.43.0 (0)
 -->
<!-- Title: inc/base/BaseUsbSerialJtag.h Pages: 1 -->
<svg width="205pt" height="179pt"
 viewBox="0.00 0.00 205.00 179.00" xmlns="http://www.w3.org/2000/svg" xmlns:xlink="http://www.w3.org/1999/xlink">
<g id="graph0" class="graph" transform="scale(1 1) rotate(0) translate(4 175)">
<title>inc/base/BaseUsbSerialJtag.h</title>
<!-- Node1 -->
<g id="Node000001" class="node">
<title>Node1</title>
<g id="a_Node000001"><a xlink:title="Abstract base class for USB Serial/JTAG controller &quot;console&#45;style&quot; serial transports in the HardFOC s...">
<polygon fill="#999999" stroke="#666666" points="197,-171 0,-171 0,-148 197,-148 197,-171"/>
<text text-anchor="middle" x="98.5" y="-155.8" font-family="Arial" font-size="14.00">inc/base/BaseUsbSerialJtag.h</text>
</a>
</g>
</g>
<!-- Node2 -->
<g id="Node000002" class="node">
<title>Node2</title>
<g id="a_Node000002"><a xlink:href="EspUsbSerialJtag_8h.html" target="_top" xlink:title="ESP32&#45;S3 / &#45;C3 / &#45;C6 USB Serial/JTAG console wrapper.">
<polygon fill="white" stroke="#666666" points="193.5,-112 3.5,-112 3.5,-74 193.5,-74 193.5,-112"/>
<text text-anchor="start" x="11.5" y="-96.8" font-family="Arial" font-size="14.00">inc/mcu/esp32/EspUsbSerial</text>
<text text-anchor="middle" x="98.5" y="-81.8" font-family="Arial" font-size="14.00">Jtag.h</text>
</a>
</g>
</g>
<!-- Node1&#45;&gt;Node2 -->
<g id="edge1_Node000001_Node000002" class="edge">
<title>Node1&#45;&gt;Node2</title>
<g id="a_edge1_Node000001_Node000002"><a xlink:title=" ">
<path fill="none" stroke="#63b8ff" d="M98.5,-137.63C98.5,-129.45 98.5,-120.15 98.5,-112.24"/>
<polygon fill="#63b8ff" stroke="#63b8ff" points="95,-137.85 98.5,-147.85 102,-137.85 95,-137.85"/>
</a>
</g>
</g>
<!-- Node3 -->
<g id="Node000003" class="node">
<title>Node3</title>
<g id="a_Node000003"><a xlink:href="EspUsbSerialJtag_8cpp.html" target="_top" xlink:title="ESP32&#45;family USB Serial/JTAG console wrapper implementation.">
<polygon fill="white" stroke="#666666" points="194,-38 3,-38 3,0 194,0 194,-38"/>
<text text-anchor="start" x="11" y="-22.8" font-family="Arial" font-size="14.00">src/mcu/esp32/EspUsbSerial</text>
<text text-anchor="middle" x="98.5" y="-7.8" font-family="Arial" font-size="14.00">Jtag.cpp</text>
</a>
</g>
</g>
<!-- Node2&#45;&gt;Node3 -->
<g id="edge2_Node000002_Node000003" class="edge">
<title>Node2&#45;&gt;Node3</title>
<g id="a_edge2_Node000002_Node000003"><a xlink:title=" ">
<path fill="none" stroke="#63b8ff" d="M98.5,-63.57C98.5,-55.11 98.5,-46.06 98.5,-38.41"/>
<polygon fill="#63b8ff" stroke="#63b8ff" points="95,-63.83 98.5,-73.83 102,-63.83 95,-63.83"/>
</a>
</g>
</g>
</g>
</svg>
