<?xml version="1.0" encoding="UTF-8" standalone="no"?>
<!DOCTYPE svg PUBLIC "-//W3C//DTD SVG 1.1//EN"
 "http://www.w3.org/Graphics/SVG/1.1/DTD/svg11.dtd">
<!-- Generated by graphviz version 2.43.0 (0)
 -->
<!-- Title: inc/base/BaseUart.h Pages: 1 -->
<svg width="2337pt" height="327pt"
 viewBox="0.00 0.00 2337.00 327.00" xmlns="http://www.w3.org/2000/svg" xmlns:xlink="http://www.w3.org/1999/xlink">
<g id="graph0" class="graph" transform="scale(1 1) rotate(0) translate(4 323)">
<title>inc/base/BaseUart.h</title>
<!-- Node1 -->
<g id="Node000001" class="node">
<title>Node1</title>
<g id="a_Node000001"><a xlink:title="Abstract base class for UART driver implementations in the HardFOC system.">
<polygon fill="#999999" stroke="#666666" points="1974.5,-319 1836.5,-319 1836.5,-296 1974.5,-296 1974.5,-319"/>
<text text-anchor="middle" x="1905.5" y="-303.8" font-family="Arial" font-size="14.00">inc/base/BaseUart.h</text>
</a>
</g>
</g>
<!-- Node2 -->
<g id="Node000002" class="node">
<title>Node2</title>
<g id="a_Node000002"><a xlink:href="UartComprehensiveTest_8cpp.html" target="_top" xlink:title="Comprehensive UART testing suite for ESP32&#45;C6 DevKit&#45;M&#45;1 (noexcept)">
<polygon fill="white" stroke="#666666" points="2003,-38 1812,-38 1812,0 2003,0 2003,-38"/>
<text text-anchor="start" x="1820" y="-22.8" font-family="Arial" font-size="14.00">examples/esp32/main</text>
<text text-anchor="middle" x="1907.5" y="-7.8" font-family="Arial" font-size="14.00">/UartComprehensiveTest.cpp</text>
</a>
</g>
</g>
<!-- Node1&#45;&gt;Node2 -->
<g id="edge1_Node000001_Node000002" class="edge">
<title>Node1&#45;&gt;Node2</title>
<g id="a_edge1_Node000001_Node000002"><a xlink:title=" ">
<path fill="none" stroke="#63b8ff" d="M1905.64,-285.96C1906.02,-232.41 1907.02,-89.14 1907.37,-38.25"/>
<polygon fill="#63b8ff" stroke="#63b8ff" points="1902.14,-285.94 1905.57,-295.96 1909.14,-285.99 1902.14,-285.94"/>
</a>
</g>
</g>
<!-- Node3 -->
<g id="Node000003" class="node">
<title>Node3</title>
<g id="a_Node000003"><a xlink:href="BaseUsbSerialJtag_8h.html" target="_top" xlink:title="Abstract base class for USB Serial/JTAG controller &quot;console&#45;style&quot; serial transports in the HardFOC s...">
<polygon fill="white" stroke="#666666" points="2131,-252.5 1934,-252.5 1934,-229.5 2131,-229.5 2131,-252.5"/>
<text text-anchor="middle" x="2032.5" y="-237.3" font-family="Arial" font-size="14.00">inc/base/BaseUsbSerialJtag.h</text>
</a>
</g>
</g>
<!-- Node1&#45;&gt;Node3 -->
<g id="edge2_Node000001_Node000003" class="edge">
<title>Node1&#45;&gt;Node3</title>
<g id="a_edge2_Node000001_Node000003"><a xlink:title=" ">
<path fill="none" stroke="#63b8ff" d="M1935.36,-291.33C1958.89,-279.39 1991.07,-263.04 2011.82,-252.5"/>
<polygon fill="#63b8ff" stroke="#63b8ff" points="1933.52,-288.34 1926.19,-295.99 1936.69,-294.59 1933.52,-288.34"/>
</a>
</g>
</g>
<!-- Node6 -->
<g id="Node000006" class="node">
<title>Node6</title>
<g id="a_Node000006"><a xlink:href="EspUart_8h.html" target="_top" xlink:title="ESP32 UART implementation for the HardFOC system.">
<polygon fill="white" stroke="#666666" points="1790.5,-104.5 1622.5,-104.5 1622.5,-81.5 1790.5,-81.5 1790.5,-104.5"/>
<text text-anchor="middle" x="1706.5" y="-89.3" font-family="Arial" font-size="14.00">inc/mcu/esp32/EspUart.h</text>
</a>
</g>
</g>
<!-- Node1&#45;&gt;Node6 -->
<g id="edge5_Node000001_Node000006" class="edge">
<title>Node1&#45;&gt;Node6</title>
<g id="a_edge5_Node000001_Node000006"><a xlink:title=" ">
<path fill="none" stroke="#63b8ff" d="M1826.34,-303.21C1793.5,-297.71 1757.71,-285.62 1734.5,-260 1693.68,-214.95 1700.71,-133.52 1704.78,-104.57"/>
<polygon fill="#63b8ff" stroke="#63b8ff" points="1826.02,-306.7 1836.43,-304.71 1827.05,-299.77 1826.02,-306.7"/>
</a>
</g>
</g>
<!-- Node8 -->
<g id="Node000008" class="node">
<title>Node8</title>
<g id="a_Node000008"><a xlink:href="EspTypes__UART_8h.html" target="_top" xlink:title="ESP32 UART type definitions for hardware abstraction.">
<polygon fill="white" stroke="#666666" points="1877.5,-260 1743.5,-260 1743.5,-222 1877.5,-222 1877.5,-260"/>
<text text-anchor="start" x="1751.5" y="-244.8" font-family="Arial" font-size="14.00">inc/mcu/esp32/utils</text>
<text text-anchor="middle" x="1810.5" y="-229.8" font-family="Arial" font-size="14.00">/EspTypes_UART.h</text>
</a>
</g>
</g>
<!-- Node1&#45;&gt;Node8 -->
<g id="edge8_Node000001_Node000008" class="edge">
<title>Node1&#45;&gt;Node8</title>
<g id="a_edge8_Node000001_Node000008"><a xlink:title=" ">
<path fill="none" stroke="#63b8ff" d="M1881.53,-290.22C1868.08,-281.09 1851.26,-269.68 1837.37,-260.24"/>
<polygon fill="#63b8ff" stroke="#63b8ff" points="1879.57,-293.13 1889.81,-295.85 1883.51,-287.34 1879.57,-293.13"/>
</a>
</g>
</g>
<!-- Node22 -->
<g id="Node000022" class="node">
<title>Node22</title>
<g id="a_Node000022"><a xlink:href="StmUart_8h.html" target="_top" xlink:title="STM32 UART wrapper — wraps UART_HandleTypeDef for BaseUart interface.">
<polygon fill="white" stroke="#666666" points="2320.5,-252.5 2150.5,-252.5 2150.5,-229.5 2320.5,-229.5 2320.5,-252.5"/>
<text text-anchor="middle" x="2235.5" y="-237.3" font-family="Arial" font-size="14.00">inc/mcu/stm32/StmUart.h</text>
</a>
</g>
</g>
<!-- Node1&#45;&gt;Node22 -->
<g id="edge24_Node000001_Node000022" class="edge">
<title>Node1&#45;&gt;Node22</title>
<g id="a_edge24_Node000001_Node000022"><a xlink:title=" ">
<path fill="none" stroke="#63b8ff" d="M1969.27,-294.04C2031.04,-281.96 2123.65,-263.86 2181.77,-252.5"/>
<polygon fill="#63b8ff" stroke="#63b8ff" points="1968.4,-290.64 1959.25,-295.99 1969.74,-297.51 1968.4,-290.64"/>
</a>
</g>
</g>
<!-- Node4 -->
<g id="Node000004" class="node">
<title>Node4</title>
<g id="a_Node000004"><a xlink:href="EspUsbSerialJtag_8h.html" target="_top" xlink:title="ESP32&#45;S3 / &#45;C3 / &#45;C6 USB Serial/JTAG console wrapper.">
<polygon fill="white" stroke="#666666" points="2125.5,-186 1935.5,-186 1935.5,-148 2125.5,-148 2125.5,-186"/>
<text text-anchor="start" x="1943.5" y="-170.8" font-family="Arial" font-size="14.00">inc/mcu/esp32/EspUsbSerial</text>
<text text-anchor="middle" x="2030.5" y="-155.8" font-family="Arial" font-size="14.00">Jtag.h</text>
</a>
</g>
</g>
<!-- Node3&#45;&gt;Node4 -->
<g id="edge3_Node000003_Node000004" class="edge">
<title>Node3&#45;&gt;Node4</title>
<g id="a_edge3_Node000003_Node000004"><a xlink:title=" ">
<path fill="none" stroke="#63b8ff" d="M2031.92,-219.1C2031.63,-208.69 2031.28,-196.23 2031.01,-186.21"/>
<polygon fill="#63b8ff" stroke="#63b8ff" points="2028.43,-219.48 2032.2,-229.38 2035.43,-219.28 2028.43,-219.48"/>
</a>
</g>
</g>
<!-- Node5 -->
<g id="Node000005" class="node">
<title>Node5</title>
<g id="a_Node000005"><a xlink:href="EspUsbSerialJtag_8cpp.html" target="_top" xlink:title="ESP32&#45;family USB Serial/JTAG console wrapper implementation.">
<polygon fill="white" stroke="#666666" points="2126,-112 1935,-112 1935,-74 2126,-74 2126,-112"/>
<text text-anchor="start" x="1943" y="-96.8" font-family="Arial" font-size="14.00">src/mcu/esp32/EspUsbSerial</text>
<text text-anchor="middle" x="2030.5" y="-81.8" font-family="Arial" font-size="14.00">Jtag.cpp</text>
</a>
</g>
</g>
<!-- Node4&#45;&gt;Node5 -->
<g id="edge4_Node000004_Node000005" class="edge">
<title>Node4&#45;&gt;Node5</title>
<g id="a_edge4_Node000004_Node000005"><a xlink:title=" ">
<path fill="none" stroke="#63b8ff" d="M2030.5,-137.57C2030.5,-129.11 2030.5,-120.06 2030.5,-112.41"/>
<polygon fill="#63b8ff" stroke="#63b8ff" points="2027,-137.83 2030.5,-147.83 2034,-137.83 2027,-137.83"/>
</a>
</g>
</g>
<!-- Node6&#45;&gt;Node2 -->
<g id="edge6_Node000006_Node000002" class="edge">
<title>Node6&#45;&gt;Node2</title>
<g id="a_edge6_Node000006_Node000002"><a xlink:title=" ">
<path fill="none" stroke="#63b8ff" d="M1745.58,-78C1777.39,-66.61 1822.51,-50.44 1857.05,-38.07"/>
<polygon fill="#63b8ff" stroke="#63b8ff" points="1744.39,-74.71 1736.16,-81.38 1746.75,-81.3 1744.39,-74.71"/>
</a>
</g>
</g>
<!-- Node7 -->
<g id="Node000007" class="node">
<title>Node7</title>
<g id="a_Node000007"><a xlink:href="EspUart_8cpp.html" target="_top" xlink:title="Implementation of ESP32 UART controller for the HardFOC system.">
<polygon fill="white" stroke="#666666" points="1794,-30.5 1611,-30.5 1611,-7.5 1794,-7.5 1794,-30.5"/>
<text text-anchor="middle" x="1702.5" y="-15.3" font-family="Arial" font-size="14.00">src/mcu/esp32/EspUart.cpp</text>
</a>
</g>
</g>
<!-- Node6&#45;&gt;Node7 -->
<g id="edge7_Node000006_Node000007" class="edge">
<title>Node6&#45;&gt;Node7</title>
<g id="a_edge7_Node000006_Node000007"><a xlink:title=" ">
<path fill="none" stroke="#63b8ff" d="M1705.35,-71.23C1704.61,-57.97 1703.68,-41.32 1703.09,-30.67"/>
<polygon fill="#63b8ff" stroke="#63b8ff" points="1701.86,-71.59 1705.91,-81.38 1708.85,-71.2 1701.86,-71.59"/>
</a>
</g>
</g>
<!-- Node8&#45;&gt;Node2 -->
<g id="edge9_Node000008_Node000002" class="edge">
<title>Node8&#45;&gt;Node2</title>
<g id="a_edge9_Node000008_Node000002"><a xlink:title=" ">
<path fill="none" stroke="#63b8ff" d="M1822.52,-212.74C1842.59,-167.21 1882.41,-76.91 1899.45,-38.25"/>
<polygon fill="#63b8ff" stroke="#63b8ff" points="1819.27,-211.43 1818.44,-222 1825.67,-214.26 1819.27,-211.43"/>
</a>
</g>
</g>
<!-- Node9 -->
<g id="Node000009" class="node">
<title>Node9</title>
<g id="a_Node000009"><a xlink:href="EspTypes_8h.html" target="_top" xlink:title="Consolidated MCU&#45;specific type definitions for hardware abstraction (hf_* types).">
<polygon fill="white" stroke="#666666" points="1256.5,-186 1124.5,-186 1124.5,-148 1256.5,-148 1256.5,-186"/>
<text text-anchor="start" x="1132.5" y="-170.8" font-family="Arial" font-size="14.00">inc/mcu/esp32/utils</text>
<text text-anchor="middle" x="1190.5" y="-155.8" font-family="Arial" font-size="14.00">/EspTypes.h</text>
</a>
</g>
</g>
<!-- Node8&#45;&gt;Node9 -->
<g id="edge10_Node000008_Node000009" class="edge">
<title>Node8&#45;&gt;Node9</title>
<g id="a_edge10_Node000008_Node000009"><a xlink:title=" ">
<path fill="none" stroke="#63b8ff" d="M1733.17,-231.02C1610.19,-216.74 1372.16,-189.1 1256.62,-175.68"/>
<polygon fill="#63b8ff" stroke="#63b8ff" points="1732.93,-234.52 1743.26,-232.19 1733.74,-227.56 1732.93,-234.52"/>
</a>
</g>
</g>
<!-- Node9&#45;&gt;Node6 -->
<g id="edge23_Node000009_Node000006" class="edge">
<title>Node9&#45;&gt;Node6</title>
<g id="a_edge23_Node000009_Node000006"><a xlink:title=" ">
<path fill="none" stroke="#63b8ff" d="M1266.76,-155.36C1364.68,-141.7 1533.55,-118.13 1631.07,-104.53"/>
<polygon fill="#63b8ff" stroke="#63b8ff" points="1266.06,-151.92 1256.64,-156.77 1267.03,-158.86 1266.06,-151.92"/>
</a>
</g>
</g>
<!-- Node10 -->
<g id="Node000010" class="node">
<title>Node10</title>
<g id="a_Node000010"><a xlink:href="EspI2c_8h.html" target="_top" xlink:title="Advanced ESP32&#45;integrated I2C controller for ESP&#45;IDF v5.5+ with proper bus&#45;device architecture.">
<polygon fill="white" stroke="#666666" points="1167,-104.5 1006,-104.5 1006,-81.5 1167,-81.5 1167,-104.5"/>
<text text-anchor="middle" x="1086.5" y="-89.3" font-family="Arial" font-size="14.00">inc/mcu/esp32/EspI2c.h</text>
</a>
</g>
</g>
<!-- Node9&#45;&gt;Node10 -->
<g id="edge11_Node000009_Node000010" class="edge">
<title>Node9&#45;&gt;Node10</title>
<g id="a_edge11_Node000009_Node000010"><a xlink:title=" ">
<path fill="none" stroke="#63b8ff" d="M1155.58,-141.83C1137.3,-129.17 1115.85,-114.32 1101.76,-104.57"/>
<polygon fill="#63b8ff" stroke="#63b8ff" points="1154.04,-145.02 1164.26,-147.83 1158.03,-139.26 1154.04,-145.02"/>
</a>
</g>
</g>
<!-- Node13 -->
<g id="Node000013" class="node">
<title>Node13</title>
<g id="a_Node000013"><a xlink:href="EspPeriodicTimer_8h.html" target="_top" xlink:title="MCU&#45;integrated periodic timer implementation.">
<polygon fill="white" stroke="#666666" points="1383.5,-112 1203.5,-112 1203.5,-74 1383.5,-74 1383.5,-112"/>
<text text-anchor="start" x="1211.5" y="-96.8" font-family="Arial" font-size="14.00">inc/mcu/esp32/EspPeriodic</text>
<text text-anchor="middle" x="1293.5" y="-81.8" font-family="Arial" font-size="14.00">Timer.h</text>
</a>
</g>
</g>
<!-- Node9&#45;&gt;Node13 -->
<g id="edge14_Node000009_Node000013" class="edge">
<title>Node9&#45;&gt;Node13</title>
<g id="a_edge14_Node000009_Node000013"><a xlink:title=" ">
<path fill="none" stroke="#63b8ff" d="M1224.87,-141.97C1238.79,-132.25 1254.59,-121.2 1267.52,-112.16"/>
<polygon fill="#63b8ff" stroke="#63b8ff" points="1222.68,-139.23 1216.49,-147.83 1226.69,-144.97 1222.68,-139.23"/>
</a>
</g>
</g>
<!-- Node16 -->
<g id="Node000016" class="node">
<title>Node16</title>
<g id="a_Node000016"><a xlink:href="EspPio_8h.html" target="_top" xlink:title="ESP32 RMT&#45;based Programmable IO Channel implementation with ESP&#45;IDF v5.5+ features.">
<polygon fill="white" stroke="#666666" points="372.5,-104.5 210.5,-104.5 210.5,-81.5 372.5,-81.5 372.5,-104.5"/>
<text text-anchor="middle" x="291.5" y="-89.3" font-family="Arial" font-size="14.00">inc/mcu/esp32/EspPio.h</text>
</a>
</g>
</g>
<!-- Node9&#45;&gt;Node16 -->
<g id="edge17_Node000009_Node000016" class="edge">
<title>Node9&#45;&gt;Node16</title>
<g id="a_edge17_Node000009_Node000016"><a xlink:title=" ">
<path fill="none" stroke="#63b8ff" d="M1114.4,-159.9C946.42,-146.45 545.19,-114.32 372.65,-100.5"/>
<polygon fill="#63b8ff" stroke="#63b8ff" points="1114.15,-163.4 1124.39,-160.71 1114.71,-156.42 1114.15,-163.4"/>
</a>
</g>
</g>
<!-- Node19 -->
<g id="Node000019" class="node">
<title>Node19</title>
<g id="a_Node000019"><a xlink:href="EspSpi_8h.html" target="_top" xlink:title="Advanced MCU&#45;integrated SPI controller implementation with ESP32/ESP&#45;IDF v5.5+ features.">
<polygon fill="white" stroke="#666666" points="770.5,-104.5 608.5,-104.5 608.5,-81.5 770.5,-81.5 770.5,-104.5"/>
<text text-anchor="middle" x="689.5" y="-89.3" font-family="Arial" font-size="14.00">inc/mcu/esp32/EspSpi.h</text>
</a>
</g>
</g>
<!-- Node9&#45;&gt;Node19 -->
<g id="edge20_Node000009_Node000019" class="edge">
<title>Node9&#45;&gt;Node19</title>
<g id="a_edge20_Node000009_Node000019"><a xlink:title=" ">
<path fill="none" stroke="#63b8ff" d="M1114.33,-155.05C1018.9,-141.34 856.52,-118 762.57,-104.5"/>
<polygon fill="#63b8ff" stroke="#63b8ff" points="1114.09,-158.56 1124.49,-156.51 1115.09,-151.63 1114.09,-158.56"/>
</a>
</g>
</g>
<!-- Node11 -->
<g id="Node000011" class="node">
<title>Node11</title>
<g id="a_Node000011"><a xlink:href="I2cComprehensiveTest_8cpp.html" target="_top" xlink:title="Comprehensive I2C testing suite for ESP32&#45;C6 DevKit&#45;M&#45;1 (noexcept)">
<polygon fill="white" stroke="#666666" points="980.5,-38 796.5,-38 796.5,0 980.5,0 980.5,-38"/>
<text text-anchor="start" x="804.5" y="-22.8" font-family="Arial" font-size="14.00">examples/esp32/main</text>
<text text-anchor="middle" x="888.5" y="-7.8" font-family="Arial" font-size="14.00">/I2cComprehensiveTest.cpp</text>
</a>
</g>
</g>
<!-- Node10&#45;&gt;Node11 -->
<g id="edge12_Node000010_Node000011" class="edge">
<title>Node10&#45;&gt;Node11</title>
<g id="a_edge12_Node000010_Node000011"><a xlink:title=" ">
<path fill="none" stroke="#63b8ff" d="M1047.6,-77.85C1016.29,-66.47 972.07,-50.39 938.2,-38.07"/>
<polygon fill="#63b8ff" stroke="#63b8ff" points="1046.69,-81.25 1057.28,-81.38 1049.08,-74.67 1046.69,-81.25"/>
</a>
</g>
</g>
<!-- Node12 -->
<g id="Node000012" class="node">
<title>Node12</title>
<g id="a_Node000012"><a xlink:href="EspI2c_8cpp.html" target="_top" xlink:title="Implementation of ESP32&#45;integrated I2C controller with proper bus&#45;device architecture.">
<polygon fill="white" stroke="#666666" points="1174.5,-30.5 998.5,-30.5 998.5,-7.5 1174.5,-7.5 1174.5,-30.5"/>
<text text-anchor="middle" x="1086.5" y="-15.3" font-family="Arial" font-size="14.00">src/mcu/esp32/EspI2c.cpp</text>
</a>
</g>
</g>
<!-- Node10&#45;&gt;Node12 -->
<g id="edge13_Node000010_Node000012" class="edge">
<title>Node10&#45;&gt;Node12</title>
<g id="a_edge13_Node000010_Node000012"><a xlink:title=" ">
<path fill="none" stroke="#63b8ff" d="M1086.5,-71.23C1086.5,-57.97 1086.5,-41.32 1086.5,-30.67"/>
<polygon fill="#63b8ff" stroke="#63b8ff" points="1083,-71.38 1086.5,-81.38 1090,-71.38 1083,-71.38"/>
</a>
</g>
</g>
<!-- Node14 -->
<g id="Node000014" class="node">
<title>Node14</title>
<g id="a_Node000014"><a xlink:href="TimerComprehensiveTest_8cpp.html" target="_top" xlink:title="ESP32&#45;C6 Periodic Timer Comprehensive Test Suite v2.0.">
<polygon fill="white" stroke="#666666" points="1394,-38 1193,-38 1193,0 1394,0 1394,-38"/>
<text text-anchor="start" x="1201" y="-22.8" font-family="Arial" font-size="14.00">examples/esp32/main</text>
<text text-anchor="middle" x="1293.5" y="-7.8" font-family="Arial" font-size="14.00">/TimerComprehensiveTest.cpp</text>
</a>
</g>
</g>
<!-- Node13&#45;&gt;Node14 -->
<g id="edge15_Node000013_Node000014" class="edge">
<title>Node13&#45;&gt;Node14</title>
<g id="a_edge15_Node000013_Node000014"><a xlink:title=" ">
<path fill="none" stroke="#63b8ff" d="M1293.5,-63.57C1293.5,-55.11 1293.5,-46.06 1293.5,-38.41"/>
<polygon fill="#63b8ff" stroke="#63b8ff" points="1290,-63.83 1293.5,-73.83 1297,-63.83 1290,-63.83"/>
</a>
</g>
</g>
<!-- Node15 -->
<g id="Node000015" class="node">
<title>Node15</title>
<g id="a_Node000015"><a xlink:href="EspPeriodicTimer_8cpp.html" target="_top" xlink:title="Implementation of MCU&#45;integrated periodic timer.">
<polygon fill="white" stroke="#666666" points="1593,-38 1412,-38 1412,0 1593,0 1593,-38"/>
<text text-anchor="start" x="1420" y="-22.8" font-family="Arial" font-size="14.00">src/mcu/esp32/EspPeriodic</text>
<text text-anchor="middle" x="1502.5" y="-7.8" font-family="Arial" font-size="14.00">Timer.cpp</text>
</a>
</g>
</g>
<!-- Node13&#45;&gt;Node15 -->
<g id="edge16_Node000013_Node000015" class="edge">
<title>Node13&#45;&gt;Node15</title>
<g id="a_edge16_Node000013_Node000015"><a xlink:title=" ">
<path fill="none" stroke="#63b8ff" d="M1355.52,-70.64C1385.59,-60.28 1421.31,-47.97 1450.01,-38.08"/>
<polygon fill="#63b8ff" stroke="#63b8ff" points="1354.28,-67.36 1345.97,-73.92 1356.56,-73.98 1354.28,-67.36"/>
</a>
</g>
</g>
<!-- Node17 -->
<g id="Node000017" class="node">
<title>Node17</title>
<g id="a_Node000017"><a xlink:href="PioComprehensiveTest_8cpp.html" target="_top" xlink:title="Comprehensive PIO testing suite for ESP32&#45;C6 DevKit&#45;M&#45;1 with RMT peripheral (noexcept)">
<polygon fill="white" stroke="#666666" points="185,-38 0,-38 0,0 185,0 185,-38"/>
<text text-anchor="start" x="8" y="-22.8" font-family="Arial" font-size="14.00">examples/esp32/main</text>
<text text-anchor="middle" x="92.5" y="-7.8" font-family="Arial" font-size="14.00">/PioComprehensiveTest.cpp</text>
</a>
</g>
</g>
<!-- Node16&#45;&gt;Node17 -->
<g id="edge18_Node000016_Node000017" class="edge">
<title>Node16&#45;&gt;Node17</title>
<g id="a_edge18_Node000016_Node000017"><a xlink:title=" ">
<path fill="none" stroke="#63b8ff" d="M252.4,-77.85C220.93,-66.47 176.49,-50.39 142.45,-38.07"/>
<polygon fill="#63b8ff" stroke="#63b8ff" points="251.54,-81.27 262.14,-81.38 253.92,-74.68 251.54,-81.27"/>
</a>
</g>
</g>
<!-- Node18 -->
<g id="Node000018" class="node">
<title>Node18</title>
<g id="a_Node000018"><a xlink:href="EspPio_8cpp.html" target="_top" xlink:title="ESP32 RMT&#45;based Programmable IO Channel implementation.">
<polygon fill="white" stroke="#666666" points="380,-30.5 203,-30.5 203,-7.5 380,-7.5 380,-30.5"/>
<text text-anchor="middle" x="291.5" y="-15.3" font-family="Arial" font-size="14.00">src/mcu/esp32/EspPio.cpp</text>
</a>
</g>
</g>
<!-- Node16&#45;&gt;Node18 -->
<g id="edge19_Node000016_Node000018" class="edge">
<title>Node16&#45;&gt;Node18</title>
<g id="a_edge19_Node000016_Node000018"><a xlink:title=" ">
<path fill="none" stroke="#63b8ff" d="M291.5,-71.23C291.5,-57.97 291.5,-41.32 291.5,-30.67"/>
<polygon fill="#63b8ff" stroke="#63b8ff" points="288,-71.38 291.5,-81.38 295,-71.38 288,-71.38"/>
</a>
</g>
</g>
<!-- Node20 -->
<g id="Node000020" class="node">
<title>Node20</title>
<g id="a_Node000020"><a xlink:href="SpiComprehensiveTest_8cpp.html" target="_top" xlink:title="Comprehensive SPI testing suite for ESP32&#45;C6 DevKit&#45;M&#45;1 (noexcept)">
<polygon fill="white" stroke="#666666" points="583,-38 398,-38 398,0 583,0 583,-38"/>
<text text-anchor="start" x="406" y="-22.8" font-family="Arial" font-size="14.00">examples/esp32/main</text>
<text text-anchor="middle" x="490.5" y="-7.8" font-family="Arial" font-size="14.00">/SpiComprehensiveTest.cpp</text>
</a>
</g>
</g>
<!-- Node19&#45;&gt;Node20 -->
<g id="edge21_Node000019_Node000020" class="edge">
<title>Node19&#45;&gt;Node20</title>
<g id="a_edge21_Node000019_Node000020"><a xlink:title=" ">
<path fill="none" stroke="#63b8ff" d="M650.4,-77.85C618.93,-66.47 574.49,-50.39 540.45,-38.07"/>
<polygon fill="#63b8ff" stroke="#63b8ff" points="649.54,-81.27 660.14,-81.38 651.92,-74.68 649.54,-81.27"/>
</a>
</g>
</g>
<!-- Node21 -->
<g id="Node000021" class="node">
<title>Node21</title>
<g id="a_Node000021"><a xlink:href="EspSpi_8cpp.html" target="_top" xlink:title="Implementation of MCU&#45;integrated SPI controller for ESP32 with ESP&#45;IDF v5.5+ features.">
<polygon fill="white" stroke="#666666" points="778,-30.5 601,-30.5 601,-7.5 778,-7.5 778,-30.5"/>
<text text-anchor="middle" x="689.5" y="-15.3" font-family="Arial" font-size="14.00">src/mcu/esp32/EspSpi.cpp</text>
</a>
</g>
</g>
<!-- Node19&#45;&gt;Node21 -->
<g id="edge22_Node000019_Node000021" class="edge">
<title>Node19&#45;&gt;Node21</title>
<g id="a_edge22_Node000019_Node000021"><a xlink:title=" ">
<path fill="none" stroke="#63b8ff" d="M689.5,-71.23C689.5,-57.97 689.5,-41.32 689.5,-30.67"/>
<polygon fill="#63b8ff" stroke="#63b8ff" points="686,-71.38 689.5,-81.38 693,-71.38 686,-71.38"/>
</a>
</g>
</g>
<!-- Node23 -->
<g id="Node000023" class="node">
<title>Node23</title>
<g id="a_Node000023"><a xlink:href="StmUart_8cpp.html" target="_top" xlink:title="STM32 UART implementation — blocking TX/RX with optional ring buffer.">
<polygon fill="white" stroke="#666666" points="2329,-178.5 2144,-178.5 2144,-155.5 2329,-155.5 2329,-178.5"/>
<text text-anchor="middle" x="2236.5" y="-163.3" font-family="Arial" font-size="14.00">src/mcu/stm32/StmUart.cpp</text>
</a>
</g>
</g>
<!-- Node22&#45;&gt;Node23 -->
<g id="edge25_Node000022_Node000023" class="edge">
<title>Node22&#45;&gt;Node23</title>
<g id="a_edge25_Node000022_Node000023"><a xlink:title=" ">
<path fill="none" stroke="#63b8ff" d="M2235.79,-219.23C2235.97,-205.97 2236.2,-189.32 2236.35,-178.67"/>
<polygon fill="#63b8ff" stroke="#63b8ff" points="2232.29,-219.33 2235.65,-229.38 2239.29,-219.43 2232.29,-219.33"/>
</a>
</g>
</g>
</g>
</svg>
