<?xml version="1.0" encoding="UTF-8" standalone="no"?>
<!DOCTYPE svg PUBLIC "-//W3C//DTD SVG 1.1//EN"
 "http://www.w3.org/Graphics/SVG/1.1/DTD/svg11.dtd">
<!-- Generated by graphviz version 2.43.0 (0)
 -->
<!-- Title: examples/esp32/main/BluetoothComprehensiveTest.cpp Pages: 1 -->
<!--zoomable 400 -->

<svg id="main" version="1.1" xmlns="http://www.w3.org/2000/svg" xmlns:xlink="http://www.w3.org/1999/xlink" xml:space="preserve" onload="init(evt)">
<style type="text/css"><![CDATA[
.node, .edge {opacity: 0.7;}
.node.selected, .edge.selected {opacity: 1;}
.edge:hover path { stroke: red; }
.edge:hover polygon { stroke: red; fill: red; }
]]></style>

<defs>
  <circle id="rim" cx="0" cy="0" r="7"/>
  <circle id="rim2" cx="0" cy="0" r="3.5"/>
  <g id="zoomPlus">
    <use xlink:href="#rim" fill="#404040"><set attributeName="fill" to="#808080" begin="zoomplus.mouseover" end="zoomplus.mouseout"/></use>
    <path d="M-4,0h8M0,-4v8" fill="none" stroke="white" stroke-width="1.5" pointer-events="none"/>
  </g>
  <g id="zoomMin">
    <use xlink:href="#rim" fill="#404040"><set attributeName="fill" to="#808080" begin="zoomminus.mouseover" end="zoomminus.mouseout"/></use>
    <path d="M-4,0h8" fill="none" stroke="white" stroke-width="1.5" pointer-events="none"/>
  </g>
  <g id="arrowUp" transform="translate(30 24)">
    <use xlink:href="#rim"/>
    <path pointer-events="none" fill="none" stroke="white" stroke-width="1.5" d="M0,-3.0v7 M-2.5,-0.5L0,-3.0L2.5,-0.5"/>
  </g>
  <g id="arrowRight" transform="rotate(90) translate(36 -43)">
    <use xlink:href="#rim"/>
    <path pointer-events="none" fill="none" stroke="white" stroke-width="1.5" d="M0,-3.0v7 M-2.5,-0.5L0,-3.0L2.5,-0.5"/>
  </g>
  <g id="arrowDown" transform="rotate(180) translate(-30 -48)">
    <use xlink:href="#rim"/>
    <path pointer-events="none" fill="none" stroke="white" stroke-width="1.5" d="M0,-3.0v7 M-2.5,-0.5L0,-3.0L2.5,-0.5"/>
  </g>
  <g id="arrowLeft" transform="rotate(270) translate(-36 17)">
    <use xlink:href="#rim"/>
    <path pointer-events="none" fill="none" stroke="white" stroke-width="1.5" d="M0,-3.0v7 M-2.5,-0.5L0,-3.0L2.5,-0.5"/>
  </g>
  <g id="resetDef">
    <use xlink:href="#rim2" fill="#404040"><set attributeName="fill" to="#808080" begin="reset.mouseover" end="reset.mouseout"/></use>
  </g>
</defs>
<script type="application/ecmascript">
var viewWidth = 1372;
var viewHeight = 400;
var sectionId = 'dynsection-0';
</script>
<script type="application/ecmascript" xlink:href="svg.min.js"/>
<svg id="graph" class="graph">
<g id="viewport">
<title>examples/esp32/main/BluetoothComprehensiveTest.cpp</title>
<!-- Node1 -->
<g id="Node000001" class="node">
<title>Node1</title>
<g id="a_Node000001"><a xlink:title="Comprehensive Bluetooth/NimBLE testing suite for ESP32&#45;C6 DevKit&#45;M&#45;1 (noexcept)">
<polygon fill="#999999" stroke="#666666" points="223,-392 0,-392 0,-354 223,-354 223,-392"/>
<text text-anchor="start" x="8" y="-376.8" font-family="Arial" font-size="14.00">examples/esp32/main</text>
<text text-anchor="middle" x="111.5" y="-361.8" font-family="Arial" font-size="14.00">/BluetoothComprehensiveTest.cpp</text>
</a>
</g>
</g>
<!-- Node2 -->
<g id="Node000002" class="node">
<title>Node2</title>
<g id="a_Node000002"><a xlink:href="BaseBluetooth_8h.html" target="_top" xlink:title="Unified Bluetooth base class for all Bluetooth implementations.">
<polygon fill="white" stroke="#666666" points="369,-141 220,-141 220,-118 369,-118 369,-141"/>
<text text-anchor="middle" x="294.5" y="-125.8" font-family="Arial" font-size="14.00">base/BaseBluetooth.h</text>
</a>
</g>
</g>
<!-- Node1&#45;&gt;Node2 -->
<g id="edge1_Node000001_Node000002" class="edge">
<title>Node1&#45;&gt;Node2</title>
<g id="a_edge1_Node000001_Node000002"><a xlink:title=" ">
<path fill="none" stroke="#63b8ff" d="M108.29,-353.62C104.43,-325.34 101.38,-270.79 127.5,-236 160.72,-191.75 218.39,-161.38 256.5,-144.96"/>
<polygon fill="#63b8ff" stroke="#63b8ff" points="257.87,-148.18 265.74,-141.09 255.17,-141.72 257.87,-148.18"/>
</a>
</g>
</g>
<!-- Node10 -->
<g id="Node000010" class="node">
<title>Node10</title>
<g id="a_Node000010"><a xlink:title=" ">
<polygon fill="#e0e0e0" stroke="#999999" points="177,-82 124,-82 124,-59 177,-59 177,-82"/>
<text text-anchor="middle" x="150.5" y="-66.8" font-family="Arial" font-size="14.00">vector</text>
</a>
</g>
</g>
<!-- Node1&#45;&gt;Node10 -->
<g id="edge47_Node000001_Node000010" class="edge">
<title>Node1&#45;&gt;Node10</title>
<g id="a_edge47_Node000001_Node000010"><a xlink:title=" ">
<path fill="none" stroke="#63b8ff" d="M97.12,-353.95C80.23,-330.9 54.5,-289.12 54.5,-248.5 54.5,-248.5 54.5,-248.5 54.5,-187.5 54.5,-143.67 95.67,-107.5 124.09,-87.75"/>
<polygon fill="#63b8ff" stroke="#63b8ff" points="126.08,-90.63 132.44,-82.16 122.19,-84.81 126.08,-90.63"/>
</a>
</g>
</g>
<!-- Node11 -->
<g id="Node000011" class="node">
<title>Node11</title>
<g id="a_Node000011"><a xlink:href="EspBluetooth_8h.html" target="_top" xlink:title="ESP32 Bluetooth implementation using NimBLE for BLE&#45;only support (ESP32)">
<polygon fill="white" stroke="#666666" points="557,-200 378,-200 378,-177 557,-177 557,-200"/>
<text text-anchor="middle" x="467.5" y="-184.8" font-family="Arial" font-size="14.00">mcu/esp32/EspBluetooth.h</text>
</a>
</g>
</g>
<!-- Node1&#45;&gt;Node11 -->
<g id="edge11_Node000001_Node000011" class="edge">
<title>Node1&#45;&gt;Node11</title>
<g id="a_edge11_Node000001_Node000011"><a xlink:title=" ">
<path fill="none" stroke="#63b8ff" d="M110.94,-353.8C111.11,-324.24 116.11,-266.08 150.5,-236 182.17,-208.3 287.11,-197.1 367.66,-192.57"/>
<polygon fill="#63b8ff" stroke="#63b8ff" points="368.06,-196.06 377.86,-192.03 367.68,-189.07 368.06,-196.06"/>
</a>
</g>
</g>
<!-- Node17 -->
<g id="Node000017" class="node">
<title>Node17</title>
<g id="a_Node000017"><a xlink:href="TestFramework_8h.html" target="_top" xlink:title="Shared testing framework for ESP32&#45;C6 comprehensive test suites.">
<polygon fill="white" stroke="#666666" points="680,-318 559,-318 559,-295 680,-295 680,-318"/>
<text text-anchor="middle" x="619.5" y="-302.8" font-family="Arial" font-size="14.00">TestFramework.h</text>
</a>
</g>
</g>
<!-- Node1&#45;&gt;Node17 -->
<g id="edge22_Node000001_Node000017" class="edge">
<title>Node1&#45;&gt;Node17</title>
<g id="a_edge22_Node000001_Node000017"><a xlink:title=" ">
<path fill="none" stroke="#63b8ff" d="M223.3,-357.81C322.53,-345.21 464.49,-327.18 548.8,-316.48"/>
<polygon fill="#63b8ff" stroke="#63b8ff" points="549.31,-319.94 558.79,-315.21 548.43,-313 549.31,-319.94"/>
</a>
</g>
</g>
<!-- Node3 -->
<g id="Node000003" class="node">
<title>Node3</title>
<g id="a_Node000003"><a xlink:href="HardwareTypes_8h.html" target="_top" xlink:title="Platform&#45;agnostic hardware type definitions for the HardFOC system.">
<polygon fill="white" stroke="#666666" points="913.5,-82 791.5,-82 791.5,-59 913.5,-59 913.5,-82"/>
<text text-anchor="middle" x="852.5" y="-66.8" font-family="Arial" font-size="14.00">HardwareTypes.h</text>
</a>
</g>
</g>
<!-- Node2&#45;&gt;Node3 -->
<g id="edge2_Node000002_Node000003" class="edge">
<title>Node2&#45;&gt;Node3</title>
<g id="a_edge2_Node000002_Node000003"><a xlink:title=" ">
<path fill="none" stroke="#63b8ff" d="M369.03,-121.59C461.76,-112.89 624.91,-97.23 764.5,-82 769.95,-81.41 775.59,-80.77 781.25,-80.12"/>
<polygon fill="#63b8ff" stroke="#63b8ff" points="781.92,-83.57 791.45,-78.95 781.11,-76.62 781.92,-83.57"/>
</a>
</g>
</g>
<!-- Node4 -->
<g id="Node000004" class="node">
<title>Node4</title>
<g id="a_Node000004"><a xlink:title=" ">
<polygon fill="#e0e0e0" stroke="#999999" points="845.5,-23 789.5,-23 789.5,0 845.5,0 845.5,-23"/>
<text text-anchor="middle" x="817.5" y="-7.8" font-family="Arial" font-size="14.00">cstdint</text>
</a>
</g>
</g>
<!-- Node2&#45;&gt;Node4 -->
<g id="edge6_Node000002_Node000004" class="edge">
<title>Node2&#45;&gt;Node4</title>
<g id="a_edge6_Node000002_Node000004"><a xlink:title=" ">
<path fill="none" stroke="#63b8ff" d="M301.88,-117.78C313.53,-101.83 337.83,-72.33 366.5,-59 439.6,-25.01 684.43,-15.64 779.4,-13.26"/>
<polygon fill="#63b8ff" stroke="#63b8ff" points="779.52,-16.76 789.43,-13.02 779.35,-9.76 779.52,-16.76"/>
</a>
</g>
</g>
<!-- Node6 -->
<g id="Node000006" class="node">
<title>Node6</title>
<g id="a_Node000006"><a xlink:title=" ">
<polygon fill="#e0e0e0" stroke="#999999" points="251.5,-82 195.5,-82 195.5,-59 251.5,-59 251.5,-82"/>
<text text-anchor="middle" x="223.5" y="-66.8" font-family="Arial" font-size="14.00">cctype</text>
</a>
</g>
</g>
<!-- Node2&#45;&gt;Node6 -->
<g id="edge5_Node000002_Node000006" class="edge">
<title>Node2&#45;&gt;Node6</title>
<g id="a_edge5_Node000002_Node000006"><a xlink:title=" ">
<path fill="none" stroke="#63b8ff" d="M281.15,-117.78C270.93,-109.58 256.64,-98.11 244.85,-88.64"/>
<polygon fill="#63b8ff" stroke="#63b8ff" points="246.78,-85.7 236.79,-82.17 242.4,-91.16 246.78,-85.7"/>
</a>
</g>
</g>
<!-- Node7 -->
<g id="Node000007" class="node">
<title>Node7</title>
<g id="a_Node000007"><a xlink:title=" ">
<polygon fill="#e0e0e0" stroke="#999999" points="449.5,-82 375.5,-82 375.5,-59 449.5,-59 449.5,-82"/>
<text text-anchor="middle" x="412.5" y="-66.8" font-family="Arial" font-size="14.00">functional</text>
</a>
</g>
</g>
<!-- Node2&#45;&gt;Node7 -->
<g id="edge7_Node000002_Node000007" class="edge">
<title>Node2&#45;&gt;Node7</title>
<g id="a_edge7_Node000002_Node000007"><a xlink:title=" ">
<path fill="none" stroke="#63b8ff" d="M316.42,-117.91C334.72,-109.07 361.01,-96.37 381.47,-86.49"/>
<polygon fill="#63b8ff" stroke="#63b8ff" points="383.22,-89.53 390.7,-82.03 380.17,-83.23 383.22,-89.53"/>
</a>
</g>
</g>
<!-- Node8 -->
<g id="Node000008" class="node">
<title>Node8</title>
<g id="a_Node000008"><a xlink:title=" ">
<polygon fill="#e0e0e0" stroke="#999999" points="319.5,-82 269.5,-82 269.5,-59 319.5,-59 319.5,-82"/>
<text text-anchor="middle" x="294.5" y="-66.8" font-family="Arial" font-size="14.00">string</text>
</a>
</g>
</g>
<!-- Node2&#45;&gt;Node8 -->
<g id="edge8_Node000002_Node000008" class="edge">
<title>Node2&#45;&gt;Node8</title>
<g id="a_edge8_Node000002_Node000008"><a xlink:title=" ">
<path fill="none" stroke="#63b8ff" d="M294.5,-117.78C294.5,-110.61 294.5,-100.95 294.5,-92.31"/>
<polygon fill="#63b8ff" stroke="#63b8ff" points="298,-92.17 294.5,-82.17 291,-92.17 298,-92.17"/>
</a>
</g>
</g>
<!-- Node9 -->
<g id="Node000009" class="node">
<title>Node9</title>
<g id="a_Node000009"><a xlink:title=" ">
<polygon fill="#e0e0e0" stroke="#999999" points="755.5,-82 671.5,-82 671.5,-59 755.5,-59 755.5,-82"/>
<text text-anchor="middle" x="713.5" y="-66.8" font-family="Arial" font-size="14.00">string_view</text>
</a>
</g>
</g>
<!-- Node2&#45;&gt;Node9 -->
<g id="edge9_Node000002_Node000009" class="edge">
<title>Node2&#45;&gt;Node9</title>
<g id="a_edge9_Node000002_Node000009"><a xlink:title=" ">
<path fill="none" stroke="#63b8ff" d="M369.41,-118.31C453.6,-106.86 588.09,-88.56 661.51,-78.57"/>
<polygon fill="#63b8ff" stroke="#63b8ff" points="662.02,-82.04 671.45,-77.22 661.07,-75.1 662.02,-82.04"/>
</a>
</g>
</g>
<!-- Node2&#45;&gt;Node10 -->
<g id="edge10_Node000002_Node000010" class="edge">
<title>Node2&#45;&gt;Node10</title>
<g id="a_edge10_Node000002_Node000010"><a xlink:title=" ">
<path fill="none" stroke="#63b8ff" d="M267.75,-117.91C244.92,-108.87 211.87,-95.79 186.68,-85.82"/>
<polygon fill="#63b8ff" stroke="#63b8ff" points="187.69,-82.46 177.1,-82.03 185.11,-88.97 187.69,-82.46"/>
</a>
</g>
</g>
<!-- Node3&#45;&gt;Node4 -->
<g id="edge3_Node000003_Node000004" class="edge">
<title>Node3&#45;&gt;Node4</title>
<g id="a_edge3_Node000003_Node000004"><a xlink:title=" ">
<path fill="none" stroke="#63b8ff" d="M845.92,-58.78C841.27,-51.22 834.92,-40.87 829.4,-31.88"/>
<polygon fill="#63b8ff" stroke="#63b8ff" points="832.27,-29.86 824.05,-23.17 826.3,-33.53 832.27,-29.86"/>
</a>
</g>
</g>
<!-- Node5 -->
<g id="Node000005" class="node">
<title>Node5</title>
<g id="a_Node000005"><a xlink:title=" ">
<polygon fill="#e0e0e0" stroke="#999999" points="911.5,-23 863.5,-23 863.5,0 911.5,0 911.5,-23"/>
<text text-anchor="middle" x="887.5" y="-7.8" font-family="Arial" font-size="14.00">limits</text>
</a>
</g>
</g>
<!-- Node3&#45;&gt;Node5 -->
<g id="edge4_Node000003_Node000005" class="edge">
<title>Node3&#45;&gt;Node5</title>
<g id="a_edge4_Node000003_Node000005"><a xlink:title=" ">
<path fill="none" stroke="#63b8ff" d="M859.08,-58.78C863.73,-51.22 870.08,-40.87 875.6,-31.88"/>
<polygon fill="#63b8ff" stroke="#63b8ff" points="878.7,-33.53 880.95,-23.17 872.73,-29.86 878.7,-33.53"/>
</a>
</g>
</g>
<!-- Node11&#45;&gt;Node2 -->
<g id="edge12_Node000011_Node000002" class="edge">
<title>Node11&#45;&gt;Node2</title>
<g id="a_edge12_Node000011_Node000002"><a xlink:title=" ">
<path fill="none" stroke="#63b8ff" d="M435.37,-176.91C407.33,-167.67 366.47,-154.21 335.97,-144.16"/>
<polygon fill="#63b8ff" stroke="#63b8ff" points="337.06,-140.84 326.46,-141.03 334.86,-147.48 337.06,-140.84"/>
</a>
</g>
</g>
<!-- Node11&#45;&gt;Node3 -->
<g id="edge13_Node000011_Node000003" class="edge">
<title>Node11&#45;&gt;Node3</title>
<g id="a_edge13_Node000011_Node000003"><a xlink:title=" ">
<path fill="none" stroke="#63b8ff" d="M557.04,-178.35C605.11,-171.55 664.75,-160.05 715.5,-141 734.34,-133.93 736.73,-127.43 754.5,-118 775.85,-106.67 800.41,-95.02 819.61,-86.21"/>
<polygon fill="#63b8ff" stroke="#63b8ff" points="821.19,-89.33 828.84,-82 818.29,-82.96 821.19,-89.33"/>
</a>
</g>
</g>
<!-- Node11&#45;&gt;Node7 -->
<g id="edge19_Node000011_Node000007" class="edge">
<title>Node11&#45;&gt;Node7</title>
<g id="a_edge19_Node000011_Node000007"><a xlink:title=" ">
<path fill="none" stroke="#63b8ff" d="M450.02,-176.84C438.29,-168.63 423.71,-156.14 416.5,-141 409.36,-126.02 408.73,-107.12 409.68,-92.81"/>
<polygon fill="#63b8ff" stroke="#63b8ff" points="413.2,-92.77 410.68,-82.48 406.23,-92.09 413.2,-92.77"/>
</a>
</g>
</g>
<!-- Node11&#45;&gt;Node10 -->
<g id="edge21_Node000011_Node000010" class="edge">
<title>Node11&#45;&gt;Node10</title>
<g id="a_edge21_Node000011_Node000010"><a xlink:title=" ">
<path fill="none" stroke="#63b8ff" d="M377.84,-185.66C326.32,-181.2 262.01,-169.59 211.5,-141 190.36,-129.03 172.9,-106.94 162.16,-90.86"/>
<polygon fill="#63b8ff" stroke="#63b8ff" points="164.96,-88.75 156.63,-82.21 159.07,-92.53 164.96,-88.75"/>
</a>
</g>
</g>
<!-- Node12 -->
<g id="Node000012" class="node">
<title>Node12</title>
<g id="a_Node000012"><a xlink:title=" ">
<polygon fill="#e0e0e0" stroke="#999999" points="838,-141 763,-141 763,-118 838,-118 838,-141"/>
<text text-anchor="middle" x="800.5" y="-125.8" font-family="Arial" font-size="14.00">esp_log.h</text>
</a>
</g>
</g>
<!-- Node11&#45;&gt;Node12 -->
<g id="edge14_Node000011_Node000012" class="edge">
<title>Node11&#45;&gt;Node12</title>
<g id="a_edge14_Node000011_Node000012"><a xlink:title=" ">
<path fill="none" stroke="#63b8ff" d="M535.18,-176.99C592.17,-167.97 675.79,-154.35 748.5,-141 749.94,-140.73 751.41,-140.46 752.89,-140.18"/>
<polygon fill="#63b8ff" stroke="#63b8ff" points="753.6,-143.61 762.76,-138.28 752.28,-136.74 753.6,-143.61"/>
</a>
</g>
</g>
<!-- Node13 -->
<g id="Node000013" class="node">
<title>Node13</title>
<g id="a_Node000013"><a xlink:title=" ">
<polygon fill="#e0e0e0" stroke="#999999" points="510,-141 425,-141 425,-118 510,-118 510,-141"/>
<text text-anchor="middle" x="467.5" y="-125.8" font-family="Arial" font-size="14.00">nvs_flash.h</text>
</a>
</g>
</g>
<!-- Node11&#45;&gt;Node13 -->
<g id="edge15_Node000011_Node000013" class="edge">
<title>Node11&#45;&gt;Node13</title>
<g id="a_edge15_Node000011_Node000013"><a xlink:title=" ">
<path fill="none" stroke="#63b8ff" d="M467.5,-176.78C467.5,-169.61 467.5,-159.95 467.5,-151.31"/>
<polygon fill="#63b8ff" stroke="#63b8ff" points="471,-151.17 467.5,-141.17 464,-151.17 471,-151.17"/>
</a>
</g>
</g>
<!-- Node14 -->
<g id="Node000014" class="node">
<title>Node14</title>
<g id="a_Node000014"><a xlink:href="PlatformMutex_8h.html" target="_top" xlink:title="Cross&#45;platform mutex and synchronization primitives with pluggable backend.">
<polygon fill="white" stroke="#666666" points="644.5,-141 528.5,-141 528.5,-118 644.5,-118 644.5,-141"/>
<text text-anchor="middle" x="586.5" y="-125.8" font-family="Arial" font-size="14.00">PlatformMutex.h</text>
</a>
</g>
</g>
<!-- Node11&#45;&gt;Node14 -->
<g id="edge16_Node000011_Node000014" class="edge">
<title>Node11&#45;&gt;Node14</title>
<g id="a_edge16_Node000011_Node000014"><a xlink:title=" ">
<path fill="none" stroke="#63b8ff" d="M489.6,-176.91C508.14,-168.03 534.82,-155.26 555.49,-145.35"/>
<polygon fill="#63b8ff" stroke="#63b8ff" points="557.01,-148.51 564.51,-141.03 553.98,-142.19 557.01,-148.51"/>
</a>
</g>
</g>
<!-- Node16 -->
<g id="Node000016" class="node">
<title>Node16</title>
<g id="a_Node000016"><a xlink:title=" ">
<polygon fill="#e0e0e0" stroke="#999999" points="706.5,-141 662.5,-141 662.5,-118 706.5,-118 706.5,-141"/>
<text text-anchor="middle" x="684.5" y="-125.8" font-family="Arial" font-size="14.00">map</text>
</a>
</g>
</g>
<!-- Node11&#45;&gt;Node16 -->
<g id="edge20_Node000011_Node000016" class="edge">
<title>Node11&#45;&gt;Node16</title>
<g id="a_edge20_Node000011_Node000016"><a xlink:title=" ">
<path fill="none" stroke="#63b8ff" d="M514.03,-176.98C549.61,-168.69 600.06,-156.39 652.42,-141.17"/>
<polygon fill="#63b8ff" stroke="#63b8ff" points="653.61,-144.46 662.22,-138.29 651.64,-137.75 653.61,-144.46"/>
</a>
</g>
</g>
<!-- Node14&#45;&gt;Node4 -->
<g id="edge18_Node000014_Node000004" class="edge">
<title>Node14&#45;&gt;Node4</title>
<g id="a_edge18_Node000014_Node000004"><a xlink:title=" ">
<path fill="none" stroke="#63b8ff" d="M595.22,-117.96C608.31,-102.79 634.51,-74.88 662.5,-59 699.43,-38.04 746.78,-25.62 779.38,-18.97"/>
<polygon fill="#63b8ff" stroke="#63b8ff" points="780.27,-22.36 789.41,-17 778.92,-15.49 780.27,-22.36"/>
</a>
</g>
</g>
<!-- Node15 -->
<g id="Node000015" class="node">
<title>Node15</title>
<g id="a_Node000015"><a xlink:title=" ">
<polygon fill="#e0e0e0" stroke="#999999" points="1047,-82 990,-82 990,-59 1047,-59 1047,-82"/>
<text text-anchor="middle" x="1018.5" y="-66.8" font-family="Arial" font-size="14.00">atomic</text>
</a>
</g>
</g>
<!-- Node14&#45;&gt;Node15 -->
<g id="edge17_Node000014_Node000015" class="edge">
<title>Node14&#45;&gt;Node15</title>
<g id="a_edge17_Node000014_Node000015"><a xlink:title=" ">
<path fill="none" stroke="#63b8ff" d="M644.59,-119.29C647.6,-118.85 650.59,-118.41 653.5,-118 772.07,-101.16 912.72,-84.05 979.53,-76.09"/>
<polygon fill="#63b8ff" stroke="#63b8ff" points="980.08,-79.55 989.6,-74.9 979.26,-72.6 980.08,-79.55"/>
</a>
</g>
</g>
<!-- Node17&#45;&gt;Node3 -->
<g id="edge29_Node000017_Node000003" class="edge">
<title>Node17&#45;&gt;Node3</title>
<g id="a_edge29_Node000017_Node000003"><a xlink:title=" ">
<path fill="none" stroke="#63b8ff" d="M680.12,-299.54C734.41,-292.91 808.49,-280.24 828.5,-259 871.72,-213.13 863.6,-130.57 856.85,-92.17"/>
<polygon fill="#63b8ff" stroke="#63b8ff" points="860.25,-91.34 854.94,-82.17 853.38,-92.65 860.25,-91.34"/>
</a>
</g>
</g>
<!-- Node17&#45;&gt;Node12 -->
<g id="edge23_Node000017_Node000012" class="edge">
<title>Node17&#45;&gt;Node12</title>
<g id="a_edge23_Node000017_Node000012"><a xlink:title=" ">
<path fill="none" stroke="#63b8ff" d="M680.21,-298.77C729.57,-291.89 793.57,-279.3 809.5,-259 833.99,-227.8 820.23,-178.16 809.46,-150.6"/>
<polygon fill="#63b8ff" stroke="#63b8ff" points="812.63,-149.1 805.57,-141.21 806.16,-151.78 812.63,-149.1"/>
</a>
</g>
</g>
<!-- Node18 -->
<g id="Node000018" class="node">
<title>Node18</title>
<g id="a_Node000018"><a xlink:title=" ">
<polygon fill="#e0e0e0" stroke="#999999" points="246,-259 159,-259 159,-236 246,-236 246,-259"/>
<text text-anchor="middle" x="202.5" y="-243.8" font-family="Arial" font-size="14.00">esp_timer.h</text>
</a>
</g>
</g>
<!-- Node17&#45;&gt;Node18 -->
<g id="edge24_Node000017_Node000018" class="edge">
<title>Node17&#45;&gt;Node18</title>
<g id="a_edge24_Node000017_Node000018"><a xlink:title=" ">
<path fill="none" stroke="#63b8ff" d="M558.77,-299.03C488.48,-291.25 369.02,-277.15 256.31,-259.04"/>
<polygon fill="#63b8ff" stroke="#63b8ff" points="256.56,-255.53 246.13,-257.39 255.44,-262.44 256.56,-255.53"/>
</a>
</g>
</g>
<!-- Node19 -->
<g id="Node000019" class="node">
<title>Node19</title>
<g id="a_Node000019"><a xlink:title=" ">
<polygon fill="#e0e0e0" stroke="#999999" points="407,-259 264,-259 264,-236 407,-236 407,-259"/>
<text text-anchor="middle" x="335.5" y="-243.8" font-family="Arial" font-size="14.00">freertos/FreeRTOS.h</text>
</a>
</g>
</g>
<!-- Node17&#45;&gt;Node19 -->
<g id="edge25_Node000017_Node000019" class="edge">
<title>Node17&#45;&gt;Node19</title>
<g id="a_edge25_Node000017_Node000019"><a xlink:title=" ">
<path fill="none" stroke="#63b8ff" d="M567.08,-294.98C519.3,-285.39 448.64,-271.21 397.95,-261.03"/>
<polygon fill="#63b8ff" stroke="#63b8ff" points="398.59,-257.59 388.1,-259.06 397.21,-264.46 398.59,-257.59"/>
</a>
</g>
</g>
<!-- Node20 -->
<g id="Node000020" class="node">
<title>Node20</title>
<g id="a_Node000020"><a xlink:title=" ">
<polygon fill="#e0e0e0" stroke="#999999" points="540,-259 425,-259 425,-236 540,-236 540,-259"/>
<text text-anchor="middle" x="482.5" y="-243.8" font-family="Arial" font-size="14.00">freertos/queue.h</text>
</a>
</g>
</g>
<!-- Node17&#45;&gt;Node20 -->
<g id="edge26_Node000017_Node000020" class="edge">
<title>Node17&#45;&gt;Node20</title>
<g id="a_edge26_Node000017_Node000020"><a xlink:title=" ">
<path fill="none" stroke="#63b8ff" d="M594.05,-294.91C572.42,-285.91 541.17,-272.91 517.24,-262.95"/>
<polygon fill="#63b8ff" stroke="#63b8ff" points="518.39,-259.64 507.81,-259.03 515.7,-266.1 518.39,-259.64"/>
</a>
</g>
</g>
<!-- Node21 -->
<g id="Node000021" class="node">
<title>Node21</title>
<g id="a_Node000021"><a xlink:title=" ">
<polygon fill="#e0e0e0" stroke="#999999" points="680.5,-259 558.5,-259 558.5,-236 680.5,-236 680.5,-259"/>
<text text-anchor="middle" x="619.5" y="-243.8" font-family="Arial" font-size="14.00">freertos/semphr.h</text>
</a>
</g>
</g>
<!-- Node17&#45;&gt;Node21 -->
<g id="edge27_Node000017_Node000021" class="edge">
<title>Node17&#45;&gt;Node21</title>
<g id="a_edge27_Node000017_Node000021"><a xlink:title=" ">
<path fill="none" stroke="#63b8ff" d="M619.5,-294.78C619.5,-287.61 619.5,-277.95 619.5,-269.31"/>
<polygon fill="#63b8ff" stroke="#63b8ff" points="623,-269.17 619.5,-259.17 616,-269.17 623,-269.17"/>
</a>
</g>
</g>
<!-- Node22 -->
<g id="Node000022" class="node">
<title>Node22</title>
<g id="a_Node000022"><a xlink:title=" ">
<polygon fill="#e0e0e0" stroke="#999999" points="800.5,-259 698.5,-259 698.5,-236 800.5,-236 800.5,-259"/>
<text text-anchor="middle" x="749.5" y="-243.8" font-family="Arial" font-size="14.00">freertos/task.h</text>
</a>
</g>
</g>
<!-- Node17&#45;&gt;Node22 -->
<g id="edge28_Node000017_Node000022" class="edge">
<title>Node17&#45;&gt;Node22</title>
<g id="a_edge28_Node000017_Node000022"><a xlink:title=" ">
<path fill="none" stroke="#63b8ff" d="M643.65,-294.91C664.08,-285.95 693.57,-273.02 716.23,-263.09"/>
<polygon fill="#63b8ff" stroke="#63b8ff" points="717.73,-266.25 725.48,-259.03 714.92,-259.84 717.73,-266.25"/>
</a>
</g>
</g>
<!-- Node23 -->
<g id="Node000023" class="node">
<title>Node23</title>
<g id="a_Node000023"><a xlink:href="EspGpio_8h.html" target="_top" xlink:title="Advanced MCU&#45;specific implementation of the unified BaseGpio class with ESP32/ESP&#45;IDF v5....">
<polygon fill="white" stroke="#666666" points="1152,-259 1001,-259 1001,-236 1152,-236 1152,-259"/>
<text text-anchor="middle" x="1076.5" y="-243.8" font-family="Arial" font-size="14.00">mcu/esp32/EspGpio.h</text>
</a>
</g>
</g>
<!-- Node17&#45;&gt;Node23 -->
<g id="edge30_Node000017_Node000023" class="edge">
<title>Node17&#45;&gt;Node23</title>
<g id="a_edge30_Node000017_Node000023"><a xlink:title=" ">
<path fill="none" stroke="#63b8ff" d="M680.19,-297.93C759.87,-287.99 900.24,-270.48 990.75,-259.19"/>
<polygon fill="#63b8ff" stroke="#63b8ff" points="991.23,-262.66 1000.72,-257.95 990.36,-255.72 991.23,-262.66"/>
</a>
</g>
</g>
<!-- Node24 -->
<g id="Node000024" class="node">
<title>Node24</title>
<g id="a_Node000024"><a xlink:title=" ">
<polygon fill="#e0e0e0" stroke="#999999" points="1269,-200 1178,-200 1178,-177 1269,-177 1269,-200"/>
<text text-anchor="middle" x="1223.5" y="-184.8" font-family="Arial" font-size="14.00">driver/gpio.h</text>
</a>
</g>
</g>
<!-- Node23&#45;&gt;Node24 -->
<g id="edge31_Node000023_Node000024" class="edge">
<title>Node23&#45;&gt;Node24</title>
<g id="a_edge31_Node000023_Node000024"><a xlink:title=" ">
<path fill="none" stroke="#63b8ff" d="M1103.81,-235.91C1127.22,-226.83 1161.15,-213.68 1186.91,-203.69"/>
<polygon fill="#63b8ff" stroke="#63b8ff" points="1188.28,-206.91 1196.34,-200.03 1185.75,-200.38 1188.28,-206.91"/>
</a>
</g>
</g>
<!-- Node25 -->
<g id="Node000025" class="node">
<title>Node25</title>
<g id="a_Node000025"><a xlink:title=" ">
<polygon fill="#e0e0e0" stroke="#999999" points="1363.5,-200 1287.5,-200 1287.5,-177 1363.5,-177 1363.5,-200"/>
<text text-anchor="middle" x="1325.5" y="-184.8" font-family="Arial" font-size="14.00">esp_attr.h</text>
</a>
</g>
</g>
<!-- Node23&#45;&gt;Node25 -->
<g id="edge32_Node000023_Node000025" class="edge">
<title>Node23&#45;&gt;Node25</title>
<g id="a_edge32_Node000023_Node000025"><a xlink:title=" ">
<path fill="none" stroke="#63b8ff" d="M1122.46,-235.98C1166.49,-225.9 1232.66,-210.75 1277.39,-200.51"/>
<polygon fill="#63b8ff" stroke="#63b8ff" points="1278.18,-203.92 1287.15,-198.28 1276.62,-197.1 1278.18,-203.92"/>
</a>
</g>
</g>
<!-- Node26 -->
<g id="Node000026" class="node">
<title>Node26</title>
<g id="a_Node000026"><a xlink:href="BaseGpio_8h.html" target="_top" xlink:title="Unified GPIO base class for all digital GPIO implementations.">
<polygon fill="white" stroke="#666666" points="982.5,-141 894.5,-141 894.5,-118 982.5,-118 982.5,-141"/>
<text text-anchor="middle" x="938.5" y="-125.8" font-family="Arial" font-size="14.00">BaseGpio.h</text>
</a>
</g>
</g>
<!-- Node23&#45;&gt;Node26 -->
<g id="edge33_Node000023_Node000026" class="edge">
<title>Node23&#45;&gt;Node26</title>
<g id="a_edge33_Node000023_Node000026"><a xlink:title=" ">
<path fill="none" stroke="#63b8ff" d="M1004.74,-235.94C982.89,-229.18 960.88,-218.12 946.5,-200 935.79,-186.51 934.49,-166.63 935.46,-151.59"/>
<polygon fill="#63b8ff" stroke="#63b8ff" points="938.99,-151.51 936.53,-141.21 932.03,-150.8 938.99,-151.51"/>
</a>
</g>
</g>
<!-- Node27 -->
<g id="Node000027" class="node">
<title>Node27</title>
<g id="a_Node000027"><a xlink:href="EspTypes__GPIO_8h.html" target="_top" xlink:title="ESP32 GPIO type definitions for hardware abstraction.">
<polygon fill="white" stroke="#666666" points="1085.5,-200 955.5,-200 955.5,-177 1085.5,-177 1085.5,-200"/>
<text text-anchor="middle" x="1020.5" y="-184.8" font-family="Arial" font-size="14.00">EspTypes_GPIO.h</text>
</a>
</g>
</g>
<!-- Node23&#45;&gt;Node27 -->
<g id="edge37_Node000023_Node000027" class="edge">
<title>Node23&#45;&gt;Node27</title>
<g id="a_edge37_Node000023_Node000027"><a xlink:title=" ">
<path fill="none" stroke="#63b8ff" d="M1065.97,-235.78C1058.15,-227.82 1047.3,-216.77 1038.16,-207.47"/>
<polygon fill="#63b8ff" stroke="#63b8ff" points="1040.49,-204.85 1030.99,-200.17 1035.5,-209.76 1040.49,-204.85"/>
</a>
</g>
</g>
<!-- Node30 -->
<g id="Node000030" class="node">
<title>Node30</title>
<g id="a_Node000030"><a xlink:title=" ">
<polygon fill="#e0e0e0" stroke="#999999" points="1159.5,-200 1103.5,-200 1103.5,-177 1159.5,-177 1159.5,-200"/>
<text text-anchor="middle" x="1131.5" y="-184.8" font-family="Arial" font-size="14.00">stdio.h</text>
</a>
</g>
</g>
<!-- Node23&#45;&gt;Node30 -->
<g id="edge46_Node000023_Node000030" class="edge">
<title>Node23&#45;&gt;Node30</title>
<g id="a_edge46_Node000023_Node000030"><a xlink:title=" ">
<path fill="none" stroke="#63b8ff" d="M1086.85,-235.78C1094.53,-227.82 1105.18,-216.77 1114.16,-207.47"/>
<polygon fill="#63b8ff" stroke="#63b8ff" points="1116.78,-209.8 1121.2,-200.17 1111.74,-204.94 1116.78,-209.8"/>
</a>
</g>
</g>
<!-- Node26&#45;&gt;Node3 -->
<g id="edge34_Node000026_Node000003" class="edge">
<title>Node26&#45;&gt;Node3</title>
<g id="a_edge34_Node000026_Node000003"><a xlink:title=" ">
<path fill="none" stroke="#63b8ff" d="M922.32,-117.78C909.59,-109.34 891.63,-97.44 877.12,-87.82"/>
<polygon fill="#63b8ff" stroke="#63b8ff" points="878.87,-84.78 868.6,-82.17 875.01,-90.62 878.87,-84.78"/>
</a>
</g>
</g>
<!-- Node26&#45;&gt;Node4 -->
<g id="edge35_Node000026_Node000004" class="edge">
<title>Node26&#45;&gt;Node4</title>
<g id="a_edge35_Node000026_Node000004"><a xlink:title=" ">
<path fill="none" stroke="#63b8ff" d="M938.86,-117.81C938.79,-102.96 936.53,-76 922.5,-59 913.41,-47.99 881.63,-34.75 855.4,-25.22"/>
<polygon fill="#63b8ff" stroke="#63b8ff" points="856.27,-21.81 845.67,-21.76 853.92,-28.4 856.27,-21.81"/>
</a>
</g>
</g>
<!-- Node26&#45;&gt;Node9 -->
<g id="edge36_Node000026_Node000009" class="edge">
<title>Node26&#45;&gt;Node9</title>
<g id="a_edge36_Node000026_Node000009"><a xlink:title=" ">
<path fill="none" stroke="#63b8ff" d="M896.97,-117.98C859.75,-108.55 805,-94.68 765,-84.55"/>
<polygon fill="#63b8ff" stroke="#63b8ff" points="765.72,-81.12 755.17,-82.06 764,-87.9 765.72,-81.12"/>
</a>
</g>
</g>
<!-- Node27&#45;&gt;Node3 -->
<g id="edge44_Node000027_Node000003" class="edge">
<title>Node27&#45;&gt;Node3</title>
<g id="a_edge44_Node000027_Node000003"><a xlink:title=" ">
<path fill="none" stroke="#63b8ff" d="M1018.91,-177C1016.07,-161.88 1008.73,-134.03 991.5,-118 972.83,-100.64 947.48,-89.74 923.54,-82.91"/>
<polygon fill="#63b8ff" stroke="#63b8ff" points="924.31,-79.49 913.75,-80.31 922.52,-86.26 924.31,-79.49"/>
</a>
</g>
</g>
<!-- Node27&#45;&gt;Node26 -->
<g id="edge38_Node000027_Node000026" class="edge">
<title>Node27&#45;&gt;Node26</title>
<g id="a_edge38_Node000027_Node000026"><a xlink:title=" ">
<path fill="none" stroke="#63b8ff" d="M1005.08,-176.78C993.05,-168.42 976.14,-156.66 962.37,-147.09"/>
<polygon fill="#63b8ff" stroke="#63b8ff" points="964.06,-144.01 953.85,-141.17 960.07,-149.75 964.06,-144.01"/>
</a>
</g>
</g>
<!-- Node28 -->
<g id="Node000028" class="node">
<title>Node28</title>
<g id="a_Node000028"><a xlink:href="EspTypes__Base_8h.html" target="_top" xlink:title="ESP32 base type definitions for hardware abstraction.">
<polygon fill="white" stroke="#666666" points="1164,-141 1039,-141 1039,-118 1164,-118 1164,-141"/>
<text text-anchor="middle" x="1101.5" y="-125.8" font-family="Arial" font-size="14.00">EspTypes_Base.h</text>
</a>
</g>
</g>
<!-- Node27&#45;&gt;Node28 -->
<g id="edge39_Node000027_Node000028" class="edge">
<title>Node27&#45;&gt;Node28</title>
<g id="a_edge39_Node000027_Node000028"><a xlink:title=" ">
<path fill="none" stroke="#63b8ff" d="M1035.74,-176.78C1047.61,-168.42 1064.32,-156.66 1077.92,-147.09"/>
<polygon fill="#63b8ff" stroke="#63b8ff" points="1080.17,-149.79 1086.33,-141.17 1076.14,-144.07 1080.17,-149.79"/>
</a>
</g>
</g>
<!-- Node29 -->
<g id="Node000029" class="node">
<title>Node29</title>
<g id="a_Node000029"><a xlink:href="McuSelect_8h.html" target="_top" xlink:title="Centralized MCU platform selection and configuration header.">
<polygon fill="white" stroke="#666666" points="1260.5,-82 1118.5,-82 1118.5,-59 1260.5,-59 1260.5,-82"/>
<text text-anchor="middle" x="1189.5" y="-66.8" font-family="Arial" font-size="14.00">../../utils/McuSelect.h</text>
</a>
</g>
</g>
<!-- Node27&#45;&gt;Node29 -->
<g id="edge45_Node000027_Node000029" class="edge">
<title>Node27&#45;&gt;Node29</title>
<g id="a_edge45_Node000027_Node000029"><a xlink:title=" ">
<path fill="none" stroke="#63b8ff" d="M1074.9,-176.98C1113.15,-168.5 1159.86,-155.61 1173.5,-141 1185.67,-127.96 1189.21,-107.59 1189.98,-92.27"/>
<polygon fill="#63b8ff" stroke="#63b8ff" points="1193.48,-92.24 1190.13,-82.18 1186.48,-92.13 1193.48,-92.24"/>
</a>
</g>
</g>
<!-- Node28&#45;&gt;Node3 -->
<g id="edge41_Node000028_Node000003" class="edge">
<title>Node28&#45;&gt;Node3</title>
<g id="a_edge41_Node000028_Node000003"><a xlink:title=" ">
<path fill="none" stroke="#63b8ff" d="M1055.54,-117.98C1014,-108.47 952.73,-94.44 908.37,-84.29"/>
<polygon fill="#63b8ff" stroke="#63b8ff" points="909.14,-80.88 898.61,-82.06 907.58,-87.7 909.14,-80.88"/>
</a>
</g>
</g>
<!-- Node28&#45;&gt;Node4 -->
<g id="edge43_Node000028_Node000004" class="edge">
<title>Node28&#45;&gt;Node4</title>
<g id="a_edge43_Node000028_Node000004"><a xlink:title=" ">
<path fill="none" stroke="#63b8ff" d="M1097.76,-117.81C1091.69,-102.18 1078.17,-73.39 1056.5,-59 983.13,-10.27 945.95,-41.19 855.51,-22.95"/>
<polygon fill="#63b8ff" stroke="#63b8ff" points="856.22,-19.52 845.71,-20.82 854.74,-26.36 856.22,-19.52"/>
</a>
</g>
</g>
<!-- Node28&#45;&gt;Node15 -->
<g id="edge42_Node000028_Node000015" class="edge">
<title>Node28&#45;&gt;Node15</title>
<g id="a_edge42_Node000028_Node000015"><a xlink:title=" ">
<path fill="none" stroke="#63b8ff" d="M1085.89,-117.78C1073.72,-109.42 1056.6,-97.66 1042.66,-88.09"/>
<polygon fill="#63b8ff" stroke="#63b8ff" points="1044.27,-84.95 1034.04,-82.17 1040.3,-90.72 1044.27,-84.95"/>
</a>
</g>
</g>
<!-- Node28&#45;&gt;Node29 -->
<g id="edge40_Node000028_Node000029" class="edge">
<title>Node28&#45;&gt;Node29</title>
<g id="a_edge40_Node000028_Node000029"><a xlink:title=" ">
<path fill="none" stroke="#63b8ff" d="M1118.05,-117.78C1131.08,-109.34 1149.46,-97.44 1164.31,-87.82"/>
<polygon fill="#63b8ff" stroke="#63b8ff" points="1166.53,-90.55 1173.02,-82.17 1162.73,-84.67 1166.53,-90.55"/>
</a>
</g>
</g>
</g>
</svg>

<g id="navigator" transform="translate(0 0)" fill="#404254">
  <rect fill="#f2f5e9" fill-opacity="0.5" stroke="#606060" stroke-width=".5" x="0" y="0" width="60" height="60"/>
  <use id="zoomplus" xlink:href="#zoomPlus" x="17" y="9" onmousedown="handleZoom(evt,'in')"/>
  <use id="zoomminus" xlink:href="#zoomMin" x="42" y="9" onmousedown="handleZoom(evt,'out')"/>
  <use id="reset" xlink:href="#resetDef" x="30" y="36" onmousedown="handleReset()"/>
   <use id="arrowup" xlink:href="#arrowUp" x="0" y="0" onmousedown="handlePan(0,-1)"/>
  <use id="arrowright" xlink:href="#arrowRight" x="0" y="0" onmousedown="handlePan(1,0)"/>
  <use id="arrowdown" xlink:href="#arrowDown" x="0" y="0" onmousedown="handlePan(0,1)"/>
  <use id="arrowleft" xlink:href="#arrowLeft" x="0" y="0" onmousedown="handlePan(-1,0)"/>
</g>
<svg viewBox="0 0 15 15" width="100%" height="30px" preserveAspectRatio="xMaxYMin meet">
 <g id="arrow_out" transform="scale(0.3 0.3)">
  <a xlink:href="BluetoothComprehensiveTest_8cpp__incl_org.svg" target="_base">
   <rect id="button" ry="5" rx="5" y="6" x="6" height="38" width="38"
        fill="#f2f5e9" fill-opacity="0.5" stroke="#606060" stroke-width="1.0"/>
   <path id="arrow"
     d="M 11.500037,31.436501 C 11.940474,20.09759 22.043105,11.32322 32.158766,21.979434 L 37.068811,17.246167 C 37.068811,17.246167 37.088388,32 37.088388,32 L 22.160133,31.978069 C 22.160133,31.978069 26.997745,27.140456 26.997745,27.140456 C 18.528582,18.264221 13.291696,25.230495 11.500037,31.436501 z"
     style="fill:#404040;"/>
  </a>
 </g>
</svg>

<style type='text/css'>
<![CDATA[
[data-mouse-over-selected='false'] { opacity: 0.7; }
[data-mouse-over-selected='true']  { opacity: 1.0; }
]]>
</style>
<script type="application/ecmascript"><![CDATA[
document.addEventListener('DOMContentLoaded', (event) => {
  highlightEdges();
  highlightAdjacentNodes();
});
]]></script>
</svg>
