<?xml version="1.0" encoding="UTF-8" standalone="no"?>
<!DOCTYPE svg PUBLIC "-//W3C//DTD SVG 1.1//EN"
 "http://www.w3.org/Graphics/SVG/1.1/DTD/svg11.dtd">
<!-- Generated by graphviz version 2.43.0 (0)
 -->
<!-- Title: examples/esp32/main/CanComprehensiveTest.cpp Pages: 1 -->
<!--zoomable 400 -->

<svg id="main" version="1.1" xmlns="http://www.w3.org/2000/svg" xmlns:xlink="http://www.w3.org/1999/xlink" xml:space="preserve" onload="init(evt)">
<style type="text/css"><![CDATA[
.node, .edge {opacity: 0.7;}
.node.selected, .edge.selected {opacity: 1;}
.edge:hover path { stroke: red; }
.edge:hover polygon { stroke: red; fill: red; }
]]></style>

<defs>
  <circle id="rim" cx="0" cy="0" r="7"/>
  <circle id="rim2" cx="0" cy="0" r="3.5"/>
  <g id="zoomPlus">
    <use xlink:href="#rim" fill="#404040"><set attributeName="fill" to="#808080" begin="zoomplus.mouseover" end="zoomplus.mouseout"/></use>
    <path d="M-4,0h8M0,-4v8" fill="none" stroke="white" stroke-width="1.5" pointer-events="none"/>
  </g>
  <g id="zoomMin">
    <use xlink:href="#rim" fill="#404040"><set attributeName="fill" to="#808080" begin="zoomminus.mouseover" end="zoomminus.mouseout"/></use>
    <path d="M-4,0h8" fill="none" stroke="white" stroke-width="1.5" pointer-events="none"/>
  </g>
  <g id="arrowUp" transform="translate(30 24)">
    <use xlink:href="#rim"/>
    <path pointer-events="none" fill="none" stroke="white" stroke-width="1.5" d="M0,-3.0v7 M-2.5,-0.5L0,-3.0L2.5,-0.5"/>
  </g>
  <g id="arrowRight" transform="rotate(90) translate(36 -43)">
    <use xlink:href="#rim"/>
    <path pointer-events="none" fill="none" stroke="white" stroke-width="1.5" d="M0,-3.0v7 M-2.5,-0.5L0,-3.0L2.5,-0.5"/>
  </g>
  <g id="arrowDown" transform="rotate(180) translate(-30 -48)">
    <use xlink:href="#rim"/>
    <path pointer-events="none" fill="none" stroke="white" stroke-width="1.5" d="M0,-3.0v7 M-2.5,-0.5L0,-3.0L2.5,-0.5"/>
  </g>
  <g id="arrowLeft" transform="rotate(270) translate(-36 17)">
    <use xlink:href="#rim"/>
    <path pointer-events="none" fill="none" stroke="white" stroke-width="1.5" d="M0,-3.0v7 M-2.5,-0.5L0,-3.0L2.5,-0.5"/>
  </g>
  <g id="resetDef">
    <use xlink:href="#rim2" fill="#404040"><set attributeName="fill" to="#808080" begin="reset.mouseover" end="reset.mouseout"/></use>
  </g>
</defs>
<script type="application/ecmascript">
var viewWidth = 1879;
var viewHeight = 400;
var sectionId = 'dynsection-0';
</script>
<script type="application/ecmascript" xlink:href="svg.min.js"/>
<svg id="graph" class="graph">
<g id="viewport">
<title>examples/esp32/main/CanComprehensiveTest.cpp</title>
<!-- Node1 -->
<g id="Node000001" class="node">
<title>Node1</title>
<g id="a_Node000001"><a xlink:title="Comprehensive CAN testing suite for ESP32&#45;C6 with ESP&#45;IDF v5.5 TWAI API and SN65 transceiver.">
<polygon fill="#999999" stroke="#666666" points="668,-392 477,-392 477,-354 668,-354 668,-392"/>
<text text-anchor="start" x="485" y="-376.8" font-family="Arial" font-size="14.00">examples/esp32/main</text>
<text text-anchor="middle" x="572.5" y="-361.8" font-family="Arial" font-size="14.00">/CanComprehensiveTest.cpp</text>
</a>
</g>
</g>
<!-- Node2 -->
<g id="Node000002" class="node">
<title>Node2</title>
<g id="a_Node000002"><a xlink:title=" ">
<polygon fill="#e0e0e0" stroke="#999999" points="75,-259 0,-259 0,-236 75,-236 75,-259"/>
<text text-anchor="middle" x="37.5" y="-243.8" font-family="Arial" font-size="14.00">esp_log.h</text>
</a>
</g>
</g>
<!-- Node1&#45;&gt;Node2 -->
<g id="edge1_Node000001_Node000002" class="edge">
<title>Node1&#45;&gt;Node2</title>
<g id="a_edge1_Node000001_Node000002"><a xlink:title=" ">
<path fill="none" stroke="#63b8ff" d="M476.81,-363.57C403.78,-355.71 301.15,-341.57 213.5,-318 161.16,-303.92 103.18,-279.12 68.57,-263.27"/>
<polygon fill="#63b8ff" stroke="#63b8ff" points="70,-260.07 59.45,-259.05 67.06,-266.43 70,-260.07"/>
</a>
</g>
</g>
<!-- Node3 -->
<g id="Node000003" class="node">
<title>Node3</title>
<g id="a_Node000003"><a xlink:title=" ">
<polygon fill="#e0e0e0" stroke="#999999" points="180,-259 93,-259 93,-236 180,-236 180,-259"/>
<text text-anchor="middle" x="136.5" y="-243.8" font-family="Arial" font-size="14.00">esp_timer.h</text>
</a>
</g>
</g>
<!-- Node1&#45;&gt;Node3 -->
<g id="edge2_Node000001_Node000003" class="edge">
<title>Node1&#45;&gt;Node3</title>
<g id="a_edge2_Node000001_Node000003"><a xlink:title=" ">
<path fill="none" stroke="#63b8ff" d="M476.79,-362.37C416.46,-354.49 337.57,-340.8 270.5,-318 230.55,-304.42 187.84,-280.43 161.65,-264.49"/>
<polygon fill="#63b8ff" stroke="#63b8ff" points="163.46,-261.5 153.11,-259.22 159.78,-267.45 163.46,-261.5"/>
</a>
</g>
</g>
<!-- Node4 -->
<g id="Node000004" class="node">
<title>Node4</title>
<g id="a_Node000004"><a xlink:title=" ">
<polygon fill="#e0e0e0" stroke="#999999" points="341,-259 198,-259 198,-236 341,-236 341,-259"/>
<text text-anchor="middle" x="269.5" y="-243.8" font-family="Arial" font-size="14.00">freertos/FreeRTOS.h</text>
</a>
</g>
</g>
<!-- Node1&#45;&gt;Node4 -->
<g id="edge3_Node000001_Node000004" class="edge">
<title>Node1&#45;&gt;Node4</title>
<g id="a_edge3_Node000001_Node000004"><a xlink:title=" ">
<path fill="none" stroke="#63b8ff" d="M476.92,-364.8C405.1,-357.44 314.62,-343.38 287.5,-318 274.32,-305.66 270.29,-285.04 269.28,-269.45"/>
<polygon fill="#63b8ff" stroke="#63b8ff" points="272.77,-269.08 268.99,-259.19 265.77,-269.28 272.77,-269.08"/>
</a>
</g>
</g>
<!-- Node5 -->
<g id="Node000005" class="node">
<title>Node5</title>
<g id="a_Node000005"><a xlink:title=" ">
<polygon fill="#e0e0e0" stroke="#999999" points="456,-318 297,-318 297,-295 456,-295 456,-318"/>
<text text-anchor="middle" x="376.5" y="-302.8" font-family="Arial" font-size="14.00">freertos/event_groups.h</text>
</a>
</g>
</g>
<!-- Node1&#45;&gt;Node5 -->
<g id="edge4_Node000001_Node000005" class="edge">
<title>Node1&#45;&gt;Node5</title>
<g id="a_edge4_Node000001_Node000005"><a xlink:title=" ">
<path fill="none" stroke="#63b8ff" d="M517.64,-353.95C486.24,-343.61 447.45,-330.85 418.49,-321.32"/>
<polygon fill="#63b8ff" stroke="#63b8ff" points="419.27,-317.89 408.68,-318.09 417.08,-324.54 419.27,-317.89"/>
</a>
</g>
</g>
<!-- Node6 -->
<g id="Node000006" class="node">
<title>Node6</title>
<g id="a_Node000006"><a xlink:title=" ">
<polygon fill="#e0e0e0" stroke="#999999" points="461.5,-259 359.5,-259 359.5,-236 461.5,-236 461.5,-259"/>
<text text-anchor="middle" x="410.5" y="-243.8" font-family="Arial" font-size="14.00">freertos/task.h</text>
</a>
</g>
</g>
<!-- Node1&#45;&gt;Node6 -->
<g id="edge5_Node000001_Node000006" class="edge">
<title>Node1&#45;&gt;Node6</title>
<g id="a_edge5_Node000001_Node000006"><a xlink:title=" ">
<path fill="none" stroke="#63b8ff" d="M548.6,-353.78C517.35,-329.96 463.06,-288.57 432.69,-265.41"/>
<polygon fill="#63b8ff" stroke="#63b8ff" points="434.51,-262.41 424.44,-259.13 430.27,-267.97 434.51,-262.41"/>
</a>
</g>
</g>
<!-- Node7 -->
<g id="Node000007" class="node">
<title>Node7</title>
<g id="a_Node000007"><a xlink:href="TestFramework_8h.html" target="_top" xlink:title="Shared testing framework for ESP32&#45;C6 comprehensive test suites.">
<polygon fill="white" stroke="#666666" points="633,-318 512,-318 512,-295 633,-295 633,-318"/>
<text text-anchor="middle" x="572.5" y="-302.8" font-family="Arial" font-size="14.00">TestFramework.h</text>
</a>
</g>
</g>
<!-- Node1&#45;&gt;Node7 -->
<g id="edge6_Node000001_Node000007" class="edge">
<title>Node1&#45;&gt;Node7</title>
<g id="a_edge6_Node000001_Node000007"><a xlink:title=" ">
<path fill="none" stroke="#63b8ff" d="M572.5,-353.69C572.5,-345.8 572.5,-336.54 572.5,-328.39"/>
<polygon fill="#63b8ff" stroke="#63b8ff" points="576,-328.19 572.5,-318.19 569,-328.19 576,-328.19"/>
</a>
</g>
</g>
<!-- Node21 -->
<g id="Node000021" class="node">
<title>Node21</title>
<g id="a_Node000021"><a xlink:title=" ">
<polygon fill="#e0e0e0" stroke="#999999" points="1646,-82 1589,-82 1589,-59 1646,-59 1646,-82"/>
<text text-anchor="middle" x="1617.5" y="-66.8" font-family="Arial" font-size="14.00">atomic</text>
</a>
</g>
</g>
<!-- Node1&#45;&gt;Node21 -->
<g id="edge53_Node000001_Node000021" class="edge">
<title>Node1&#45;&gt;Node21</title>
<g id="a_edge53_Node000001_Node000021"><a xlink:title=" ">
<path fill="none" stroke="#63b8ff" d="M668.25,-372.28C955.38,-371.88 1789.5,-361.02 1789.5,-248.5 1789.5,-248.5 1789.5,-248.5 1789.5,-187.5 1789.5,-155.48 1792.82,-140.96 1770.5,-118 1740.6,-87.24 1691.05,-76.67 1656.47,-73.13"/>
<polygon fill="#63b8ff" stroke="#63b8ff" points="1656.52,-69.62 1646.26,-72.24 1655.92,-76.59 1656.52,-69.62"/>
</a>
</g>
</g>
<!-- Node23 -->
<g id="Node000023" class="node">
<title>Node23</title>
<g id="a_Node000023"><a xlink:href="BaseCan_8h.html" target="_top" xlink:title="Abstract base class for CAN bus implementations in the HardFOC system.">
<polygon fill="white" stroke="#666666" points="1316.5,-141 1200.5,-141 1200.5,-118 1316.5,-118 1316.5,-141"/>
<text text-anchor="middle" x="1258.5" y="-125.8" font-family="Arial" font-size="14.00">base/BaseCan.h</text>
</a>
</g>
</g>
<!-- Node1&#45;&gt;Node23 -->
<g id="edge33_Node000001_Node000023" class="edge">
<title>Node1&#45;&gt;Node23</title>
<g id="a_edge33_Node000001_Node000023"><a xlink:title=" ">
<path fill="none" stroke="#63b8ff" d="M668.28,-358.91C832.06,-334.69 1156.17,-278.11 1237.5,-200 1250.67,-187.35 1255.66,-166.77 1257.51,-151.28"/>
<polygon fill="#63b8ff" stroke="#63b8ff" points="1261.01,-151.34 1258.37,-141.08 1254.04,-150.75 1261.01,-151.34"/>
</a>
</g>
</g>
<!-- Node24 -->
<g id="Node000024" class="node">
<title>Node24</title>
<g id="a_Node000024"><a xlink:href="EspCan_8h.html" target="_top" xlink:title="ESP32 CAN (TWAI) implementation for the HardFOC system &#45; ESP&#45;IDF v5.5 Compatible.">
<polygon fill="white" stroke="#666666" points="1560.5,-259 1414.5,-259 1414.5,-236 1560.5,-236 1560.5,-259"/>
<text text-anchor="middle" x="1487.5" y="-243.8" font-family="Arial" font-size="14.00">mcu/esp32/EspCan.h</text>
</a>
</g>
</g>
<!-- Node1&#45;&gt;Node24 -->
<g id="edge38_Node000001_Node000024" class="edge">
<title>Node1&#45;&gt;Node24</title>
<g id="a_edge38_Node000001_Node000024"><a xlink:title=" ">
<path fill="none" stroke="#63b8ff" d="M668.14,-371.66C803.66,-369.6 1058.77,-359.84 1271.5,-318 1336.63,-305.19 1409.59,-279.14 1451.87,-262.82"/>
<polygon fill="#63b8ff" stroke="#63b8ff" points="1453.38,-265.99 1461.42,-259.1 1450.84,-259.47 1453.38,-265.99"/>
</a>
</g>
</g>
<!-- Node29 -->
<g id="Node000029" class="node">
<title>Node29</title>
<g id="a_Node000029"><a xlink:title=" ">
<polygon fill="#e0e0e0" stroke="#999999" points="1751,-200 1684,-200 1684,-177 1751,-177 1751,-200"/>
<text text-anchor="middle" x="1717.5" y="-184.8" font-family="Arial" font-size="14.00">memory</text>
</a>
</g>
</g>
<!-- Node1&#45;&gt;Node29 -->
<g id="edge54_Node000001_Node000029" class="edge">
<title>Node1&#45;&gt;Node29</title>
<g id="a_edge54_Node000001_Node000029"><a xlink:title=" ">
<path fill="none" stroke="#63b8ff" d="M668.26,-370.33C812.33,-366.65 1093.05,-354.96 1328.5,-318 1437.44,-300.9 1465.52,-295.73 1569.5,-259 1612.49,-243.81 1659.79,-220.33 1689.08,-204.93"/>
<polygon fill="#63b8ff" stroke="#63b8ff" points="1690.73,-208.02 1697.92,-200.24 1687.45,-201.83 1690.73,-208.02"/>
</a>
</g>
</g>
<!-- Node30 -->
<g id="Node000030" class="node">
<title>Node30</title>
<g id="a_Node000030"><a xlink:title=" ">
<polygon fill="#e0e0e0" stroke="#999999" points="1871,-318 1818,-318 1818,-295 1871,-295 1871,-318"/>
<text text-anchor="middle" x="1844.5" y="-302.8" font-family="Arial" font-size="14.00">vector</text>
</a>
</g>
</g>
<!-- Node1&#45;&gt;Node30 -->
<g id="edge55_Node000001_Node000030" class="edge">
<title>Node1&#45;&gt;Node30</title>
<g id="a_edge55_Node000001_Node000030"><a xlink:title=" ">
<path fill="none" stroke="#63b8ff" d="M668.27,-370.36C918.04,-365.67 1585.02,-350.41 1803.5,-318 1804.95,-317.78 1806.43,-317.54 1807.92,-317.27"/>
<polygon fill="#63b8ff" stroke="#63b8ff" points="1808.69,-320.68 1817.76,-315.19 1807.25,-313.83 1808.69,-320.68"/>
</a>
</g>
</g>
<!-- Node7&#45;&gt;Node2 -->
<g id="edge7_Node000007_Node000002" class="edge">
<title>Node7&#45;&gt;Node2</title>
<g id="a_edge7_Node000007_Node000002"><a xlink:title=" ">
<path fill="none" stroke="#63b8ff" d="M511.96,-299.58C496.48,-298.08 479.88,-296.47 464.5,-295 298.41,-279.08 253.15,-285.72 85.01,-259.09"/>
<polygon fill="#63b8ff" stroke="#63b8ff" points="85.5,-255.62 75.08,-257.5 84.4,-262.53 85.5,-255.62"/>
</a>
</g>
</g>
<!-- Node7&#45;&gt;Node3 -->
<g id="edge8_Node000007_Node000003" class="edge">
<title>Node7&#45;&gt;Node3</title>
<g id="a_edge8_Node000007_Node000003"><a xlink:title=" ">
<path fill="none" stroke="#63b8ff" d="M511.77,-299.64C437.97,-292.18 309.47,-278.13 190.18,-259.18"/>
<polygon fill="#63b8ff" stroke="#63b8ff" points="190.58,-255.7 180.15,-257.57 189.47,-262.61 190.58,-255.7"/>
</a>
</g>
</g>
<!-- Node7&#45;&gt;Node4 -->
<g id="edge9_Node000007_Node000004" class="edge">
<title>Node7&#45;&gt;Node4</title>
<g id="a_edge9_Node000007_Node000004"><a xlink:title=" ">
<path fill="none" stroke="#63b8ff" d="M516.57,-294.98C465.3,-285.33 389.35,-271.05 335.2,-260.86"/>
<polygon fill="#63b8ff" stroke="#63b8ff" points="335.83,-257.42 325.36,-259.01 334.54,-264.3 335.83,-257.42"/>
</a>
</g>
</g>
<!-- Node7&#45;&gt;Node6 -->
<g id="edge12_Node000007_Node000006" class="edge">
<title>Node7&#45;&gt;Node6</title>
<g id="a_edge12_Node000007_Node000006"><a xlink:title=" ">
<path fill="none" stroke="#63b8ff" d="M542.41,-294.91C516.38,-285.75 478.56,-272.45 450.08,-262.43"/>
<polygon fill="#63b8ff" stroke="#63b8ff" points="451.02,-259.05 440.43,-259.03 448.7,-265.65 451.02,-259.05"/>
</a>
</g>
</g>
<!-- Node8 -->
<g id="Node000008" class="node">
<title>Node8</title>
<g id="a_Node000008"><a xlink:title=" ">
<polygon fill="#e0e0e0" stroke="#999999" points="595,-259 480,-259 480,-236 595,-236 595,-259"/>
<text text-anchor="middle" x="537.5" y="-243.8" font-family="Arial" font-size="14.00">freertos/queue.h</text>
</a>
</g>
</g>
<!-- Node7&#45;&gt;Node8 -->
<g id="edge10_Node000007_Node000008" class="edge">
<title>Node7&#45;&gt;Node8</title>
<g id="a_edge10_Node000007_Node000008"><a xlink:title=" ">
<path fill="none" stroke="#63b8ff" d="M565.92,-294.78C561.27,-287.22 554.92,-276.87 549.4,-267.88"/>
<polygon fill="#63b8ff" stroke="#63b8ff" points="552.27,-265.86 544.05,-259.17 546.3,-269.53 552.27,-265.86"/>
</a>
</g>
</g>
<!-- Node9 -->
<g id="Node000009" class="node">
<title>Node9</title>
<g id="a_Node000009"><a xlink:title=" ">
<polygon fill="#e0e0e0" stroke="#999999" points="735.5,-259 613.5,-259 613.5,-236 735.5,-236 735.5,-259"/>
<text text-anchor="middle" x="674.5" y="-243.8" font-family="Arial" font-size="14.00">freertos/semphr.h</text>
</a>
</g>
</g>
<!-- Node7&#45;&gt;Node9 -->
<g id="edge11_Node000007_Node000009" class="edge">
<title>Node7&#45;&gt;Node9</title>
<g id="a_edge11_Node000007_Node000009"><a xlink:title=" ">
<path fill="none" stroke="#63b8ff" d="M591.69,-294.78C607.07,-286.18 628.89,-273.99 646.27,-264.28"/>
<polygon fill="#63b8ff" stroke="#63b8ff" points="648.38,-267.11 655.4,-259.17 644.96,-261 648.38,-267.11"/>
</a>
</g>
</g>
<!-- Node10 -->
<g id="Node000010" class="node">
<title>Node10</title>
<g id="a_Node000010"><a xlink:href="HardwareTypes_8h.html" target="_top" xlink:title="Platform&#45;agnostic hardware type definitions for the HardFOC system.">
<polygon fill="white" stroke="#666666" points="943.5,-82 821.5,-82 821.5,-59 943.5,-59 943.5,-82"/>
<text text-anchor="middle" x="882.5" y="-66.8" font-family="Arial" font-size="14.00">HardwareTypes.h</text>
</a>
</g>
</g>
<!-- Node7&#45;&gt;Node10 -->
<g id="edge13_Node000007_Node000010" class="edge">
<title>Node7&#45;&gt;Node10</title>
<g id="a_edge13_Node000007_Node000010"><a xlink:title=" ">
<path fill="none" stroke="#63b8ff" d="M633.33,-296.98C677.13,-289.45 730.82,-276.87 744.5,-259 788.1,-202.05 564.98,-236.19 605.5,-177 651.23,-110.19 745.38,-85.65 811.16,-76.66"/>
<polygon fill="#63b8ff" stroke="#63b8ff" points="811.98,-80.08 821.46,-75.35 811.1,-73.14 811.98,-80.08"/>
</a>
</g>
</g>
<!-- Node13 -->
<g id="Node000013" class="node">
<title>Node13</title>
<g id="a_Node000013"><a xlink:href="EspGpio_8h.html" target="_top" xlink:title="Advanced MCU&#45;specific implementation of the unified BaseGpio class with ESP32/ESP&#45;IDF v5....">
<polygon fill="white" stroke="#666666" points="943,-259 792,-259 792,-236 943,-236 943,-259"/>
<text text-anchor="middle" x="867.5" y="-243.8" font-family="Arial" font-size="14.00">mcu/esp32/EspGpio.h</text>
</a>
</g>
</g>
<!-- Node7&#45;&gt;Node13 -->
<g id="edge16_Node000007_Node000013" class="edge">
<title>Node7&#45;&gt;Node13</title>
<g id="a_edge16_Node000007_Node000013"><a xlink:title=" ">
<path fill="none" stroke="#63b8ff" d="M626.95,-294.98C676.69,-285.37 750.28,-271.15 802.95,-260.97"/>
<polygon fill="#63b8ff" stroke="#63b8ff" points="803.71,-264.39 812.87,-259.06 802.38,-257.52 803.71,-264.39"/>
</a>
</g>
</g>
<!-- Node11 -->
<g id="Node000011" class="node">
<title>Node11</title>
<g id="a_Node000011"><a xlink:title=" ">
<polygon fill="#e0e0e0" stroke="#999999" points="1101.5,-23 1045.5,-23 1045.5,0 1101.5,0 1101.5,-23"/>
<text text-anchor="middle" x="1073.5" y="-7.8" font-family="Arial" font-size="14.00">cstdint</text>
</a>
</g>
</g>
<!-- Node10&#45;&gt;Node11 -->
<g id="edge14_Node000010_Node000011" class="edge">
<title>Node10&#45;&gt;Node11</title>
<g id="a_edge14_Node000010_Node000011"><a xlink:title=" ">
<path fill="none" stroke="#63b8ff" d="M917.98,-58.91C951.46,-48.92 1001.5,-33.99 1035.72,-23.78"/>
<polygon fill="#63b8ff" stroke="#63b8ff" points="1036.77,-27.11 1045.35,-20.9 1034.77,-20.41 1036.77,-27.11"/>
</a>
</g>
</g>
<!-- Node12 -->
<g id="Node000012" class="node">
<title>Node12</title>
<g id="a_Node000012"><a xlink:title=" ">
<polygon fill="#e0e0e0" stroke="#999999" points="906.5,-23 858.5,-23 858.5,0 906.5,0 906.5,-23"/>
<text text-anchor="middle" x="882.5" y="-7.8" font-family="Arial" font-size="14.00">limits</text>
</a>
</g>
</g>
<!-- Node10&#45;&gt;Node12 -->
<g id="edge15_Node000010_Node000012" class="edge">
<title>Node10&#45;&gt;Node12</title>
<g id="a_edge15_Node000010_Node000012"><a xlink:title=" ">
<path fill="none" stroke="#63b8ff" d="M882.5,-58.78C882.5,-51.61 882.5,-41.95 882.5,-33.31"/>
<polygon fill="#63b8ff" stroke="#63b8ff" points="886,-33.17 882.5,-23.17 879,-33.17 886,-33.17"/>
</a>
</g>
</g>
<!-- Node14 -->
<g id="Node000014" class="node">
<title>Node14</title>
<g id="a_Node000014"><a xlink:title=" ">
<polygon fill="#e0e0e0" stroke="#999999" points="1060,-200 969,-200 969,-177 1060,-177 1060,-200"/>
<text text-anchor="middle" x="1014.5" y="-184.8" font-family="Arial" font-size="14.00">driver/gpio.h</text>
</a>
</g>
</g>
<!-- Node13&#45;&gt;Node14 -->
<g id="edge17_Node000013_Node000014" class="edge">
<title>Node13&#45;&gt;Node14</title>
<g id="a_edge17_Node000013_Node000014"><a xlink:title=" ">
<path fill="none" stroke="#63b8ff" d="M894.81,-235.91C918.22,-226.83 952.15,-213.68 977.91,-203.69"/>
<polygon fill="#63b8ff" stroke="#63b8ff" points="979.28,-206.91 987.34,-200.03 976.75,-200.38 979.28,-206.91"/>
</a>
</g>
</g>
<!-- Node15 -->
<g id="Node000015" class="node">
<title>Node15</title>
<g id="a_Node000015"><a xlink:title=" ">
<polygon fill="#e0e0e0" stroke="#999999" points="690.5,-200 614.5,-200 614.5,-177 690.5,-177 690.5,-200"/>
<text text-anchor="middle" x="652.5" y="-184.8" font-family="Arial" font-size="14.00">esp_attr.h</text>
</a>
</g>
</g>
<!-- Node13&#45;&gt;Node15 -->
<g id="edge18_Node000013_Node000015" class="edge">
<title>Node13&#45;&gt;Node15</title>
<g id="a_edge18_Node000013_Node000015"><a xlink:title=" ">
<path fill="none" stroke="#63b8ff" d="M827.82,-235.98C791.84,-226.44 738.74,-212.36 700.41,-202.2"/>
<polygon fill="#63b8ff" stroke="#63b8ff" points="701.07,-198.76 690.51,-199.58 699.28,-205.52 701.07,-198.76"/>
</a>
</g>
</g>
<!-- Node16 -->
<g id="Node000016" class="node">
<title>Node16</title>
<g id="a_Node000016"><a xlink:href="BaseGpio_8h.html" target="_top" xlink:title="Unified GPIO base class for all digital GPIO implementations.">
<polygon fill="white" stroke="#666666" points="854.5,-141 766.5,-141 766.5,-118 854.5,-118 854.5,-141"/>
<text text-anchor="middle" x="810.5" y="-125.8" font-family="Arial" font-size="14.00">BaseGpio.h</text>
</a>
</g>
</g>
<!-- Node13&#45;&gt;Node16 -->
<g id="edge19_Node000013_Node000016" class="edge">
<title>Node13&#45;&gt;Node16</title>
<g id="a_edge19_Node000013_Node000016"><a xlink:title=" ">
<path fill="none" stroke="#63b8ff" d="M791.78,-236.01C770.78,-229.23 750.27,-218.13 737.5,-200 722.51,-178.72 749.58,-158.71 774.9,-145.67"/>
<polygon fill="#63b8ff" stroke="#63b8ff" points="776.61,-148.73 784.06,-141.2 773.54,-142.44 776.61,-148.73"/>
</a>
</g>
</g>
<!-- Node18 -->
<g id="Node000018" class="node">
<title>Node18</title>
<g id="a_Node000018"><a xlink:href="EspTypes__GPIO_8h.html" target="_top" xlink:title="ESP32 GPIO type definitions for hardware abstraction.">
<polygon fill="white" stroke="#666666" points="876.5,-200 746.5,-200 746.5,-177 876.5,-177 876.5,-200"/>
<text text-anchor="middle" x="811.5" y="-184.8" font-family="Arial" font-size="14.00">EspTypes_GPIO.h</text>
</a>
</g>
</g>
<!-- Node13&#45;&gt;Node18 -->
<g id="edge23_Node000013_Node000018" class="edge">
<title>Node13&#45;&gt;Node18</title>
<g id="a_edge23_Node000013_Node000018"><a xlink:title=" ">
<path fill="none" stroke="#63b8ff" d="M856.97,-235.78C849.15,-227.82 838.3,-216.77 829.16,-207.47"/>
<polygon fill="#63b8ff" stroke="#63b8ff" points="831.49,-204.85 821.99,-200.17 826.5,-209.76 831.49,-204.85"/>
</a>
</g>
</g>
<!-- Node22 -->
<g id="Node000022" class="node">
<title>Node22</title>
<g id="a_Node000022"><a xlink:title=" ">
<polygon fill="#e0e0e0" stroke="#999999" points="950.5,-200 894.5,-200 894.5,-177 950.5,-177 950.5,-200"/>
<text text-anchor="middle" x="922.5" y="-184.8" font-family="Arial" font-size="14.00">stdio.h</text>
</a>
</g>
</g>
<!-- Node13&#45;&gt;Node22 -->
<g id="edge32_Node000013_Node000022" class="edge">
<title>Node13&#45;&gt;Node22</title>
<g id="a_edge32_Node000013_Node000022"><a xlink:title=" ">
<path fill="none" stroke="#63b8ff" d="M877.85,-235.78C885.53,-227.82 896.18,-216.77 905.16,-207.47"/>
<polygon fill="#63b8ff" stroke="#63b8ff" points="907.78,-209.8 912.2,-200.17 902.74,-204.94 907.78,-209.8"/>
</a>
</g>
</g>
<!-- Node16&#45;&gt;Node10 -->
<g id="edge20_Node000016_Node000010" class="edge">
<title>Node16&#45;&gt;Node10</title>
<g id="a_edge20_Node000016_Node000010"><a xlink:title=" ">
<path fill="none" stroke="#63b8ff" d="M824.04,-117.78C834.4,-109.58 848.89,-98.11 860.85,-88.64"/>
<polygon fill="#63b8ff" stroke="#63b8ff" points="863.35,-91.12 869.02,-82.17 859.01,-85.64 863.35,-91.12"/>
</a>
</g>
</g>
<!-- Node16&#45;&gt;Node11 -->
<g id="edge21_Node000016_Node000011" class="edge">
<title>Node16&#45;&gt;Node11</title>
<g id="a_edge21_Node000016_Node000011"><a xlink:title=" ">
<path fill="none" stroke="#63b8ff" d="M807.1,-117.86C803.03,-102.82 798.39,-75.36 812.5,-59 840.9,-26.07 969.6,-16.42 1035.04,-13.62"/>
<polygon fill="#63b8ff" stroke="#63b8ff" points="1035.5,-17.11 1045.35,-13.21 1035.22,-10.11 1035.5,-17.11"/>
</a>
</g>
</g>
<!-- Node17 -->
<g id="Node000017" class="node">
<title>Node17</title>
<g id="a_Node000017"><a xlink:title=" ">
<polygon fill="#e0e0e0" stroke="#999999" points="1045.5,-82 961.5,-82 961.5,-59 1045.5,-59 1045.5,-82"/>
<text text-anchor="middle" x="1003.5" y="-66.8" font-family="Arial" font-size="14.00">string_view</text>
</a>
</g>
</g>
<!-- Node16&#45;&gt;Node17 -->
<g id="edge22_Node000016_Node000017" class="edge">
<title>Node16&#45;&gt;Node17</title>
<g id="a_edge22_Node000016_Node000017"><a xlink:title=" ">
<path fill="none" stroke="#63b8ff" d="M846.35,-117.91C877.9,-108.59 924,-94.98 958.12,-84.9"/>
<polygon fill="#63b8ff" stroke="#63b8ff" points="959.24,-88.22 967.84,-82.03 957.26,-81.51 959.24,-88.22"/>
</a>
</g>
</g>
<!-- Node18&#45;&gt;Node10 -->
<g id="edge30_Node000018_Node000010" class="edge">
<title>Node18&#45;&gt;Node10</title>
<g id="a_edge30_Node000018_Node000010"><a xlink:title=" ">
<path fill="none" stroke="#63b8ff" d="M827.87,-176.75C839.44,-168.33 854.45,-155.62 863.5,-141 872.73,-126.08 877.55,-106.65 880.02,-92.13"/>
<polygon fill="#63b8ff" stroke="#63b8ff" points="883.5,-92.54 881.49,-82.13 876.57,-91.52 883.5,-92.54"/>
</a>
</g>
</g>
<!-- Node18&#45;&gt;Node16 -->
<g id="edge24_Node000018_Node000016" class="edge">
<title>Node18&#45;&gt;Node16</title>
<g id="a_edge24_Node000018_Node000016"><a xlink:title=" ">
<path fill="none" stroke="#63b8ff" d="M811.31,-176.78C811.19,-169.61 811.02,-159.95 810.87,-151.31"/>
<polygon fill="#63b8ff" stroke="#63b8ff" points="814.36,-151.11 810.69,-141.17 807.36,-151.23 814.36,-151.11"/>
</a>
</g>
</g>
<!-- Node19 -->
<g id="Node000019" class="node">
<title>Node19</title>
<g id="a_Node000019"><a xlink:href="EspTypes__Base_8h.html" target="_top" xlink:title="ESP32 base type definitions for hardware abstraction.">
<polygon fill="white" stroke="#666666" points="1106,-141 981,-141 981,-118 1106,-118 1106,-141"/>
<text text-anchor="middle" x="1043.5" y="-125.8" font-family="Arial" font-size="14.00">EspTypes_Base.h</text>
</a>
</g>
</g>
<!-- Node18&#45;&gt;Node19 -->
<g id="edge25_Node000018_Node000019" class="edge">
<title>Node18&#45;&gt;Node19</title>
<g id="a_edge25_Node000018_Node000019"><a xlink:title=" ">
<path fill="none" stroke="#63b8ff" d="M854.32,-176.98C892.79,-167.53 949.39,-153.62 990.66,-143.48"/>
<polygon fill="#63b8ff" stroke="#63b8ff" points="991.66,-146.84 1000.53,-141.06 989.99,-140.04 991.66,-146.84"/>
</a>
</g>
</g>
<!-- Node20 -->
<g id="Node000020" class="node">
<title>Node20</title>
<g id="a_Node000020"><a xlink:href="McuSelect_8h.html" target="_top" xlink:title="Centralized MCU platform selection and configuration header.">
<polygon fill="white" stroke="#666666" points="1243.5,-82 1101.5,-82 1101.5,-59 1243.5,-59 1243.5,-82"/>
<text text-anchor="middle" x="1172.5" y="-66.8" font-family="Arial" font-size="14.00">../../utils/McuSelect.h</text>
</a>
</g>
</g>
<!-- Node18&#45;&gt;Node20 -->
<g id="edge31_Node000018_Node000020" class="edge">
<title>Node18&#45;&gt;Node20</title>
<g id="a_edge31_Node000018_Node000020"><a xlink:title=" ">
<path fill="none" stroke="#63b8ff" d="M876.57,-178.1C964.06,-165.37 1109.33,-143.92 1114.5,-141 1135.32,-129.25 1151.88,-106.92 1161.89,-90.73"/>
<polygon fill="#63b8ff" stroke="#63b8ff" points="1164.95,-92.43 1167.01,-82.04 1158.92,-88.88 1164.95,-92.43"/>
</a>
</g>
</g>
<!-- Node19&#45;&gt;Node10 -->
<g id="edge27_Node000019_Node000010" class="edge">
<title>Node19&#45;&gt;Node10</title>
<g id="a_edge27_Node000019_Node000010"><a xlink:title=" ">
<path fill="none" stroke="#63b8ff" d="M1013.59,-117.91C987.73,-108.75 950.14,-95.45 921.83,-85.43"/>
<polygon fill="#63b8ff" stroke="#63b8ff" points="922.84,-82.07 912.25,-82.03 920.5,-88.67 922.84,-82.07"/>
</a>
</g>
</g>
<!-- Node19&#45;&gt;Node11 -->
<g id="edge29_Node000019_Node000011" class="edge">
<title>Node19&#45;&gt;Node11</title>
<g id="a_edge29_Node000019_Node000011"><a xlink:title=" ">
<path fill="none" stroke="#63b8ff" d="M1046.27,-117.79C1051.25,-98.55 1061.79,-57.79 1068.2,-33.01"/>
<polygon fill="#63b8ff" stroke="#63b8ff" points="1071.62,-33.74 1070.74,-23.18 1064.85,-31.98 1071.62,-33.74"/>
</a>
</g>
</g>
<!-- Node19&#45;&gt;Node20 -->
<g id="edge26_Node000019_Node000020" class="edge">
<title>Node19&#45;&gt;Node20</title>
<g id="a_edge26_Node000019_Node000020"><a xlink:title=" ">
<path fill="none" stroke="#63b8ff" d="M1067.46,-117.91C1087.74,-108.95 1117,-96.02 1139.49,-86.09"/>
<polygon fill="#63b8ff" stroke="#63b8ff" points="1140.93,-89.27 1148.67,-82.03 1138.11,-82.87 1140.93,-89.27"/>
</a>
</g>
</g>
<!-- Node19&#45;&gt;Node21 -->
<g id="edge28_Node000019_Node000021" class="edge">
<title>Node19&#45;&gt;Node21</title>
<g id="a_edge28_Node000019_Node000021"><a xlink:title=" ">
<path fill="none" stroke="#63b8ff" d="M1106.02,-122.29C1225.17,-110.46 1481.55,-85 1578.92,-75.33"/>
<polygon fill="#63b8ff" stroke="#63b8ff" points="1579.31,-78.81 1588.91,-74.34 1578.61,-71.84 1579.31,-78.81"/>
</a>
</g>
</g>
<!-- Node23&#45;&gt;Node10 -->
<g id="edge34_Node000023_Node000010" class="edge">
<title>Node23&#45;&gt;Node10</title>
<g id="a_edge34_Node000023_Node000010"><a xlink:title=" ">
<path fill="none" stroke="#63b8ff" d="M1200.16,-119.66C1133.81,-109.6 1025.44,-93.17 954.04,-82.35"/>
<polygon fill="#63b8ff" stroke="#63b8ff" points="954.2,-78.83 943.79,-80.79 953.15,-85.75 954.2,-78.83"/>
</a>
</g>
</g>
<!-- Node23&#45;&gt;Node11 -->
<g id="edge36_Node000023_Node000011" class="edge">
<title>Node23&#45;&gt;Node11</title>
<g id="a_edge36_Node000023_Node000011"><a xlink:title=" ">
<path fill="none" stroke="#63b8ff" d="M1260.99,-117.91C1263.85,-102.94 1266.49,-75.56 1252.5,-59 1234.54,-37.74 1158.8,-23.94 1111.78,-17.26"/>
<polygon fill="#63b8ff" stroke="#63b8ff" points="1112.03,-13.76 1101.64,-15.86 1111.07,-20.69 1112.03,-13.76"/>
</a>
</g>
</g>
<!-- Node23&#45;&gt;Node17 -->
<g id="edge37_Node000023_Node000017" class="edge">
<title>Node23&#45;&gt;Node17</title>
<g id="a_edge37_Node000023_Node000017"><a xlink:title=" ">
<path fill="none" stroke="#63b8ff" d="M1211.43,-117.98C1167.28,-108.11 1101.38,-93.38 1055.65,-83.16"/>
<polygon fill="#63b8ff" stroke="#63b8ff" points="1056.16,-79.69 1045.64,-80.92 1054.64,-86.52 1056.16,-79.69"/>
</a>
</g>
</g>
<!-- Node23&#45;&gt;Node21 -->
<g id="edge35_Node000023_Node000021" class="edge">
<title>Node23&#45;&gt;Node21</title>
<g id="a_edge35_Node000023_Node000021"><a xlink:title=" ">
<path fill="none" stroke="#63b8ff" d="M1316.58,-119.28C1390.46,-107.55 1515.99,-87.62 1579,-77.61"/>
<polygon fill="#63b8ff" stroke="#63b8ff" points="1579.6,-81.06 1588.93,-76.04 1578.5,-74.15 1579.6,-81.06"/>
</a>
</g>
</g>
<!-- Node24&#45;&gt;Node20 -->
<g id="edge39_Node000024_Node000020" class="edge">
<title>Node24&#45;&gt;Node20</title>
<g id="a_edge39_Node000024_Node000020"><a xlink:title=" ">
<path fill="none" stroke="#63b8ff" d="M1513.78,-235.79C1541.34,-222.99 1578.35,-200.36 1560.5,-177 1523.47,-128.56 1356.32,-97.11 1253.87,-82.01"/>
<polygon fill="#63b8ff" stroke="#63b8ff" points="1254.25,-78.53 1243.85,-80.56 1253.25,-85.46 1254.25,-78.53"/>
</a>
</g>
</g>
<!-- Node24&#45;&gt;Node21 -->
<g id="edge51_Node000024_Node000021" class="edge">
<title>Node24&#45;&gt;Node21</title>
<g id="a_edge51_Node000024_Node000021"><a xlink:title=" ">
<path fill="none" stroke="#63b8ff" d="M1536.28,-235.92C1556.88,-229.03 1579.32,-217.86 1593.5,-200 1618.3,-168.76 1620.36,-119.83 1619.21,-92.24"/>
<polygon fill="#63b8ff" stroke="#63b8ff" points="1622.7,-91.93 1618.61,-82.15 1615.71,-92.35 1622.7,-91.93"/>
</a>
</g>
</g>
<!-- Node24&#45;&gt;Node23 -->
<g id="edge42_Node000024_Node000023" class="edge">
<title>Node24&#45;&gt;Node23</title>
<g id="a_edge42_Node000024_Node000023"><a xlink:title=" ">
<path fill="none" stroke="#63b8ff" d="M1414.28,-237.32C1381.76,-230.7 1344.2,-219.36 1314.5,-200 1295.15,-187.39 1279.35,-165.9 1269.52,-150.15"/>
<polygon fill="#63b8ff" stroke="#63b8ff" points="1272.32,-148.01 1264.2,-141.21 1266.31,-151.6 1272.32,-148.01"/>
</a>
</g>
</g>
<!-- Node25 -->
<g id="Node000025" class="node">
<title>Node25</title>
<g id="a_Node000025"><a xlink:title=" ">
<polygon fill="#e0e0e0" stroke="#999999" points="1405,-200 1324,-200 1324,-177 1405,-177 1405,-200"/>
<text text-anchor="middle" x="1364.5" y="-184.8" font-family="Arial" font-size="14.00">esp_twai.h</text>
</a>
</g>
</g>
<!-- Node24&#45;&gt;Node25 -->
<g id="edge40_Node000024_Node000025" class="edge">
<title>Node24&#45;&gt;Node25</title>
<g id="a_edge40_Node000024_Node000025"><a xlink:title=" ">
<path fill="none" stroke="#63b8ff" d="M1464.65,-235.91C1445.49,-227.03 1417.92,-214.26 1396.55,-204.35"/>
<polygon fill="#63b8ff" stroke="#63b8ff" points="1397.77,-201.06 1387.22,-200.03 1394.83,-207.41 1397.77,-201.06"/>
</a>
</g>
</g>
<!-- Node26 -->
<g id="Node000026" class="node">
<title>Node26</title>
<g id="a_Node000026"><a xlink:title=" ">
<polygon fill="#e0e0e0" stroke="#999999" points="1551.5,-200 1423.5,-200 1423.5,-177 1551.5,-177 1551.5,-200"/>
<text text-anchor="middle" x="1487.5" y="-184.8" font-family="Arial" font-size="14.00">esp_twai_onchip.h</text>
</a>
</g>
</g>
<!-- Node24&#45;&gt;Node26 -->
<g id="edge41_Node000024_Node000026" class="edge">
<title>Node24&#45;&gt;Node26</title>
<g id="a_edge41_Node000024_Node000026"><a xlink:title=" ">
<path fill="none" stroke="#63b8ff" d="M1487.5,-235.78C1487.5,-228.61 1487.5,-218.95 1487.5,-210.31"/>
<polygon fill="#63b8ff" stroke="#63b8ff" points="1491,-210.17 1487.5,-200.17 1484,-210.17 1491,-210.17"/>
</a>
</g>
</g>
<!-- Node27 -->
<g id="Node000027" class="node">
<title>Node27</title>
<g id="a_Node000027"><a xlink:href="PlatformMutex_8h.html" target="_top" xlink:title="Cross&#45;platform mutex and synchronization primitives with pluggable backend.">
<polygon fill="white" stroke="#666666" points="1761.5,-141 1645.5,-141 1645.5,-118 1761.5,-118 1761.5,-141"/>
<text text-anchor="middle" x="1703.5" y="-125.8" font-family="Arial" font-size="14.00">PlatformMutex.h</text>
</a>
</g>
</g>
<!-- Node24&#45;&gt;Node27 -->
<g id="edge43_Node000024_Node000027" class="edge">
<title>Node24&#45;&gt;Node27</title>
<g id="a_edge43_Node000024_Node000027"><a xlink:title=" ">
<path fill="none" stroke="#63b8ff" d="M1538.88,-235.96C1567.5,-228.64 1603,-217.09 1631.5,-200 1654.01,-186.51 1675.02,-164.75 1688.46,-149.17"/>
<polygon fill="#63b8ff" stroke="#63b8ff" points="1691.37,-151.15 1695.12,-141.24 1686.01,-146.65 1691.37,-151.15"/>
</a>
</g>
</g>
<!-- Node28 -->
<g id="Node000028" class="node">
<title>Node28</title>
<g id="a_Node000028"><a xlink:href="EspTypes__CAN_8h.html" target="_top" xlink:title="ESP32 CAN type definitions for hardware abstraction.">
<polygon fill="white" stroke="#666666" points="1229,-200 1078,-200 1078,-177 1229,-177 1229,-200"/>
<text text-anchor="middle" x="1153.5" y="-184.8" font-family="Arial" font-size="14.00">utils/EspTypes_CAN.h</text>
</a>
</g>
</g>
<!-- Node24&#45;&gt;Node28 -->
<g id="edge46_Node000024_Node000028" class="edge">
<title>Node24&#45;&gt;Node28</title>
<g id="a_edge46_Node000024_Node000028"><a xlink:title=" ">
<path fill="none" stroke="#63b8ff" d="M1425.85,-235.98C1369.1,-226.29 1284.91,-211.93 1225.18,-201.73"/>
<polygon fill="#63b8ff" stroke="#63b8ff" points="1225.52,-198.24 1215.07,-200.01 1224.34,-205.14 1225.52,-198.24"/>
</a>
</g>
</g>
<!-- Node24&#45;&gt;Node29 -->
<g id="edge52_Node000024_Node000029" class="edge">
<title>Node24&#45;&gt;Node29</title>
<g id="a_edge52_Node000024_Node000029"><a xlink:title=" ">
<path fill="none" stroke="#63b8ff" d="M1529.95,-235.98C1570.96,-225.82 1632.78,-210.5 1674.1,-200.25"/>
<polygon fill="#63b8ff" stroke="#63b8ff" points="1675.02,-203.63 1683.88,-197.83 1673.34,-196.84 1675.02,-203.63"/>
</a>
</g>
</g>
<!-- Node27&#45;&gt;Node11 -->
<g id="edge45_Node000027_Node000011" class="edge">
<title>Node27&#45;&gt;Node11</title>
<g id="a_edge45_Node000027_Node000011"><a xlink:title=" ">
<path fill="none" stroke="#63b8ff" d="M1699.43,-117.77C1692.76,-101.82 1677.84,-72.31 1654.5,-59 1607.52,-32.21 1233.88,-17.74 1111.88,-13.69"/>
<polygon fill="#63b8ff" stroke="#63b8ff" points="1111.98,-10.19 1101.87,-13.36 1111.75,-17.19 1111.98,-10.19"/>
</a>
</g>
</g>
<!-- Node27&#45;&gt;Node21 -->
<g id="edge44_Node000027_Node000021" class="edge">
<title>Node27&#45;&gt;Node21</title>
<g id="a_edge44_Node000027_Node000021"><a xlink:title=" ">
<path fill="none" stroke="#63b8ff" d="M1687.32,-117.78C1674.59,-109.34 1656.63,-97.44 1642.12,-87.82"/>
<polygon fill="#63b8ff" stroke="#63b8ff" points="1643.87,-84.78 1633.6,-82.17 1640.01,-90.62 1643.87,-84.78"/>
</a>
</g>
</g>
<!-- Node28&#45;&gt;Node10 -->
<g id="edge49_Node000028_Node000010" class="edge">
<title>Node28&#45;&gt;Node10</title>
<g id="a_edge49_Node000028_Node000010"><a xlink:title=" ">
<path fill="none" stroke="#63b8ff" d="M1085.03,-176.95C1049.87,-169.83 1007.07,-158.47 971.5,-141 944.28,-127.63 917.46,-105.04 900.5,-89.26"/>
<polygon fill="#63b8ff" stroke="#63b8ff" points="902.66,-86.48 893,-82.13 897.83,-91.55 902.66,-86.48"/>
</a>
</g>
</g>
<!-- Node28&#45;&gt;Node19 -->
<g id="edge48_Node000028_Node000019" class="edge">
<title>Node28&#45;&gt;Node19</title>
<g id="a_edge48_Node000028_Node000019"><a xlink:title=" ">
<path fill="none" stroke="#63b8ff" d="M1133.07,-176.91C1116.17,-168.15 1091.94,-155.6 1072.94,-145.76"/>
<polygon fill="#63b8ff" stroke="#63b8ff" points="1074.31,-142.52 1063.82,-141.03 1071.09,-148.74 1074.31,-142.52"/>
</a>
</g>
</g>
<!-- Node28&#45;&gt;Node20 -->
<g id="edge50_Node000028_Node000020" class="edge">
<title>Node28&#45;&gt;Node20</title>
<g id="a_edge50_Node000028_Node000020"><a xlink:title=" ">
<path fill="none" stroke="#63b8ff" d="M1155.25,-176.79C1158.39,-157.63 1165.02,-117.15 1169.09,-92.34"/>
<polygon fill="#63b8ff" stroke="#63b8ff" points="1172.59,-92.61 1170.75,-82.18 1165.68,-91.48 1172.59,-92.61"/>
</a>
</g>
</g>
<!-- Node28&#45;&gt;Node23 -->
<g id="edge47_Node000028_Node000023" class="edge">
<title>Node28&#45;&gt;Node23</title>
<g id="a_edge47_Node000028_Node000023"><a xlink:title=" ">
<path fill="none" stroke="#63b8ff" d="M1173.25,-176.78C1189.24,-168.1 1211.97,-155.76 1229.94,-146.01"/>
<polygon fill="#63b8ff" stroke="#63b8ff" points="1231.72,-149.02 1238.84,-141.17 1228.38,-142.87 1231.72,-149.02"/>
</a>
</g>
</g>
</g>
</svg>

<g id="navigator" transform="translate(0 0)" fill="#404254">
  <rect fill="#f2f5e9" fill-opacity="0.5" stroke="#606060" stroke-width=".5" x="0" y="0" width="60" height="60"/>
  <use id="zoomplus" xlink:href="#zoomPlus" x="17" y="9" onmousedown="handleZoom(evt,'in')"/>
  <use id="zoomminus" xlink:href="#zoomMin" x="42" y="9" onmousedown="handleZoom(evt,'out')"/>
  <use id="reset" xlink:href="#resetDef" x="30" y="36" onmousedown="handleReset()"/>
   <use id="arrowup" xlink:href="#arrowUp" x="0" y="0" onmousedown="handlePan(0,-1)"/>
  <use id="arrowright" xlink:href="#arrowRight" x="0" y="0" onmousedown="handlePan(1,0)"/>
  <use id="arrowdown" xlink:href="#arrowDown" x="0" y="0" onmousedown="handlePan(0,1)"/>
  <use id="arrowleft" xlink:href="#arrowLeft" x="0" y="0" onmousedown="handlePan(-1,0)"/>
</g>
<svg viewBox="0 0 15 15" width="100%" height="30px" preserveAspectRatio="xMaxYMin meet">
 <g id="arrow_out" transform="scale(0.3 0.3)">
  <a xlink:href="CanComprehensiveTest_8cpp__incl_org.svg" target="_base">
   <rect id="button" ry="5" rx="5" y="6" x="6" height="38" width="38"
        fill="#f2f5e9" fill-opacity="0.5" stroke="#606060" stroke-width="1.0"/>
   <path id="arrow"
     d="M 11.500037,31.436501 C 11.940474,20.09759 22.043105,11.32322 32.158766,21.979434 L 37.068811,17.246167 C 37.068811,17.246167 37.088388,32 37.088388,32 L 22.160133,31.978069 C 22.160133,31.978069 26.997745,27.140456 26.997745,27.140456 C 18.528582,18.264221 13.291696,25.230495 11.500037,31.436501 z"
     style="fill:#404040;"/>
  </a>
 </g>
</svg>

<style type='text/css'>
<![CDATA[
[data-mouse-over-selected='false'] { opacity: 0.7; }
[data-mouse-over-selected='true']  { opacity: 1.0; }
]]>
</style>
<script type="application/ecmascript"><![CDATA[
document.addEventListener('DOMContentLoaded', (event) => {
  highlightEdges();
  highlightAdjacentNodes();
});
]]></script>
</svg>
