<?xml version="1.0" encoding="UTF-8" standalone="no"?>
<!DOCTYPE svg PUBLIC "-//W3C//DTD SVG 1.1//EN"
 "http://www.w3.org/Graphics/SVG/1.1/DTD/svg11.dtd">
<!-- Generated by graphviz version 2.43.0 (0)
 -->
<!-- Title: EspSpiDevice Pages: 1 -->
<svg width="703pt" height="232pt"
 viewBox="0.00 0.00 703.00 232.00" xmlns="http://www.w3.org/2000/svg" xmlns:xlink="http://www.w3.org/1999/xlink">
<g id="graph0" class="graph" transform="scale(1 1) rotate(0) translate(4 228)">
<title>EspSpiDevice</title>
<!-- Node1 -->
<g id="Node000001" class="node">
<title>Node1</title>
<g id="a_Node000001"><a xlink:title="Represents a single SPI device on a bus (CS/config/handle).">
<polygon fill="#999999" stroke="#666666" points="695,-87 594,-87 594,-64 695,-64 695,-87"/>
<text text-anchor="middle" x="644.5" y="-71.8" font-family="Arial" font-size="14.00">EspSpiDevice</text>
</a>
</g>
</g>
<!-- Node2 -->
<g id="Node000002" class="node">
<title>Node2</title>
<g id="a_Node000002"><a xlink:href="classBaseSpi.html" target="_top" xlink:title="Abstract base class for SPI device implementations.">
<polygon fill="white" stroke="#666666" points="435.5,-183 368.5,-183 368.5,-160 435.5,-160 435.5,-183"/>
<text text-anchor="middle" x="402" y="-167.8" font-family="Arial" font-size="14.00">BaseSpi</text>
</a>
</g>
</g>
<!-- Node2&#45;&gt;Node1 -->
<g id="edge1_Node000001_Node000002" class="edge">
<title>Node2&#45;&gt;Node1</title>
<g id="a_edge1_Node000001_Node000002"><a xlink:title=" ">
<path fill="none" stroke="#63b8ff" d="M445.79,-158.71C481.24,-147.63 532.65,-130.44 576,-111.5 592.55,-104.27 610.57,-94.56 623.82,-87.05"/>
<polygon fill="#63b8ff" stroke="#63b8ff" points="444.3,-155.51 435.78,-161.81 446.37,-162.2 444.3,-155.51"/>
</a>
</g>
</g>
<!-- Node3 -->
<g id="Node000003" class="node">
<title>Node3</title>
<g id="a_Node000003"><a xlink:href="structhf__spi__statistics__t.html" target="_top" xlink:title="SPI operation statistics.">
<polygon fill="white" stroke="#666666" points="166.5,-224 43.5,-224 43.5,-201 166.5,-201 166.5,-224"/>
<text text-anchor="middle" x="105" y="-208.8" font-family="Arial" font-size="14.00">hf_spi_statistics_t</text>
</a>
</g>
</g>
<!-- Node3&#45;&gt;Node2 -->
<g id="edge2_Node000002_Node000003" class="edge">
<title>Node3&#45;&gt;Node2</title>
<g id="a_edge2_Node000002_Node000003"><a xlink:title=" ">
<path fill="none" stroke="#9a32cd" stroke-dasharray="5,2" d="M176.97,-206.31C215.54,-202.55 264.01,-197.18 307,-190.5 327.4,-187.33 350.09,-182.77 368.07,-178.92"/>
<polygon fill="#9a32cd" stroke="#9a32cd" points="176.5,-202.84 166.88,-207.28 177.17,-209.81 176.5,-202.84"/>
</a>
</g>
<text text-anchor="middle" x="267.5" y="-204.3" font-family="Arial" font-size="14.00" fill="grey"> statistics_</text>
</g>
<!-- Node4 -->
<g id="Node000004" class="node">
<title>Node4</title>
<g id="a_Node000004"><a xlink:href="structhf__spi__diagnostics__t.html" target="_top" xlink:title="SPI diagnostic information.">
<polygon fill="white" stroke="#666666" points="174.5,-183 35.5,-183 35.5,-160 174.5,-160 174.5,-183"/>
<text text-anchor="middle" x="105" y="-167.8" font-family="Arial" font-size="14.00">hf_spi_diagnostics_t</text>
</a>
</g>
</g>
<!-- Node4&#45;&gt;Node2 -->
<g id="edge3_Node000002_Node000004" class="edge">
<title>Node4&#45;&gt;Node2</title>
<g id="a_edge3_Node000002_Node000004"><a xlink:title=" ">
<path fill="none" stroke="#9a32cd" stroke-dasharray="5,2" d="M185.01,-171.5C245.06,-171.5 324.59,-171.5 368.46,-171.5"/>
<polygon fill="#9a32cd" stroke="#9a32cd" points="184.79,-168 174.79,-171.5 184.79,-175 184.79,-168"/>
</a>
</g>
<text text-anchor="middle" x="267.5" y="-175.3" font-family="Arial" font-size="14.00" fill="grey"> diagnostics_</text>
</g>
<!-- Node5 -->
<g id="Node000005" class="node">
<title>Node5</title>
<g id="a_Node000005"><a xlink:href="classEspSpiBus.html" target="_top" xlink:title="Manages a single SPI bus (host). Handles bus init/deinit and device creation.">
<polygon fill="white" stroke="#666666" points="443.5,-116 360.5,-116 360.5,-93 443.5,-93 443.5,-116"/>
<text text-anchor="middle" x="402" y="-100.8" font-family="Arial" font-size="14.00">EspSpiBus</text>
</a>
</g>
</g>
<!-- Node5&#45;&gt;Node1 -->
<g id="edge4_Node000001_Node000005" class="edge">
<title>Node5&#45;&gt;Node1</title>
<g id="a_edge4_Node000001_Node000005"><a xlink:title=" ">
<path fill="none" stroke="#9a32cd" stroke-dasharray="5,2" d="M453.62,-98.4C494.81,-93.43 552.64,-86.46 593.63,-81.51"/>
<polygon fill="#9a32cd" stroke="#9a32cd" points="453.03,-94.94 443.53,-99.61 453.87,-101.89 453.03,-94.94"/>
</a>
</g>
<text text-anchor="middle" x="536.5" y="-96.3" font-family="Arial" font-size="14.00" fill="grey"> parent_bus_</text>
</g>
<!-- Node6 -->
<g id="Node000006" class="node">
<title>Node6</title>
<g id="a_Node000006"><a xlink:href="structhf__spi__bus__config__t.html" target="_top" xlink:title="Platform&#45;agnostic SPI bus configuration for STM32.">
<polygon fill="white" stroke="#666666" points="173.5,-142 36.5,-142 36.5,-119 173.5,-119 173.5,-142"/>
<text text-anchor="middle" x="105" y="-126.8" font-family="Arial" font-size="14.00">hf_spi_bus_config_t</text>
</a>
</g>
</g>
<!-- Node6&#45;&gt;Node5 -->
<g id="edge5_Node000005_Node000006" class="edge">
<title>Node6&#45;&gt;Node5</title>
<g id="a_edge5_Node000005_Node000006"><a xlink:title=" ">
<path fill="none" stroke="#9a32cd" stroke-dasharray="5,2" d="M183.69,-123.65C240.41,-118.65 315.03,-112.08 360.43,-108.08"/>
<polygon fill="#9a32cd" stroke="#9a32cd" points="183.33,-120.17 173.68,-124.54 183.95,-127.14 183.33,-120.17"/>
</a>
</g>
<text text-anchor="middle" x="267.5" y="-122.3" font-family="Arial" font-size="14.00" fill="grey"> config_</text>
</g>
<!-- Node7 -->
<g id="Node000007" class="node">
<title>Node7</title>
<g id="a_Node000007"><a xlink:href="classPlatformMutexImpl.html" target="_top" xlink:title=" ">
<polygon fill="white" stroke="#666666" points="210,-89.5 0,-89.5 0,-51.5 210,-51.5 210,-89.5"/>
<text text-anchor="start" x="8" y="-74.3" font-family="Arial" font-size="14.00">PlatformMutexImpl&lt;</text>
<text text-anchor="middle" x="105" y="-59.3" font-family="Arial" font-size="14.00"> PlatformMutexActiveBackend &gt;</text>
</a>
</g>
</g>
<!-- Node7&#45;&gt;Node1 -->
<g id="edge8_Node000001_Node000007" class="edge">
<title>Node7&#45;&gt;Node1</title>
<g id="a_edge8_Node000001_Node000007"><a xlink:title=" ">
<path fill="none" stroke="#9a32cd" stroke-dasharray="5,2" d="M220.37,-68.96C294.18,-68.27 392.27,-67.92 479,-69.5 517.57,-70.2 561.21,-71.83 593.84,-73.22"/>
<polygon fill="#9a32cd" stroke="#9a32cd" points="220.08,-65.46 210.12,-69.06 220.15,-72.46 220.08,-65.46"/>
</a>
</g>
<text text-anchor="middle" x="402" y="-73.3" font-family="Arial" font-size="14.00" fill="grey"> mutex_</text>
</g>
<!-- Node7&#45;&gt;Node5 -->
<g id="edge6_Node000005_Node000007" class="edge">
<title>Node7&#45;&gt;Node5</title>
<g id="a_edge6_Node000005_Node000007"><a xlink:title=" ">
<path fill="none" stroke="#9a32cd" stroke-dasharray="5,2" d="M220.03,-83.5C248.44,-86.75 278.83,-90.24 307,-93.5 324.46,-95.52 343.75,-97.77 360.29,-99.71"/>
<polygon fill="#9a32cd" stroke="#9a32cd" points="220.4,-80.02 210.07,-82.36 219.61,-86.97 220.4,-80.02"/>
</a>
</g>
<text text-anchor="middle" x="267.5" y="-97.3" font-family="Arial" font-size="14.00" fill="grey"> mutex_</text>
</g>
<!-- Node8 -->
<g id="Node000008" class="node">
<title>Node8</title>
<g id="a_Node000008"><a xlink:href="structhf__spi__device__config__t.html" target="_top" xlink:title="SPI device configuration for STM32.">
<polygon fill="white" stroke="#666666" points="479,-23 325,-23 325,0 479,0 479,-23"/>
<text text-anchor="middle" x="402" y="-7.8" font-family="Arial" font-size="14.00">hf_spi_device_config_t</text>
</a>
</g>
</g>
<!-- Node8&#45;&gt;Node1 -->
<g id="edge7_Node000001_Node000008" class="edge">
<title>Node8&#45;&gt;Node1</title>
<g id="a_edge7_Node000001_Node000008"><a xlink:title=" ">
<path fill="none" stroke="#9a32cd" stroke-dasharray="5,2" d="M489.54,-12.89C517.76,-15.47 548.81,-20.62 576,-30.5 596.65,-38.01 617.2,-53.08 630.1,-63.7"/>
<polygon fill="#9a32cd" stroke="#9a32cd" points="489.54,-9.38 479.29,-12.06 488.97,-16.36 489.54,-9.38"/>
</a>
</g>
<text text-anchor="middle" x="536.5" y="-34.3" font-family="Arial" font-size="14.00" fill="grey"> config_</text>
</g>
</g>
</svg>
