<?xml version="1.0" encoding="UTF-8" standalone="no"?>
<!DOCTYPE svg PUBLIC "-//W3C//DTD SVG 1.1//EN"
 "http://www.w3.org/Graphics/SVG/1.1/DTD/svg11.dtd">
<!-- Generated by graphviz version 2.43.0 (0)
 -->
<!-- Title: EspNvs Pages: 1 -->
<svg width="449pt" height="179pt"
 viewBox="0.00 0.00 448.50 179.00" xmlns="http://www.w3.org/2000/svg" xmlns:xlink="http://www.w3.org/1999/xlink">
<g id="graph0" class="graph" transform="scale(1 1) rotate(0) translate(4 175)">
<title>EspNvs</title>
<!-- Node1 -->
<g id="Node000001" class="node">
<title>Node1</title>
<g id="a_Node000001"><a xlink:title="Production&#45;ready MCU&#45;integrated non&#45;volatile storage implementation.">
<polygon fill="#999999" stroke="#666666" points="269,-23 206,-23 206,0 269,0 269,-23"/>
<text text-anchor="middle" x="237.5" y="-7.8" font-family="Arial" font-size="14.00">EspNvs</text>
</a>
</g>
</g>
<!-- Node2 -->
<g id="Node000002" class="node">
<title>Node2</title>
<g id="a_Node000002"><a xlink:href="classBaseNvs.html" target="_top" xlink:title="Abstract base class for non&#45;volatile storage operations.">
<polygon fill="white" stroke="#666666" points="203,-97 132,-97 132,-74 203,-74 203,-97"/>
<text text-anchor="middle" x="167.5" y="-81.8" font-family="Arial" font-size="14.00">BaseNvs</text>
</a>
</g>
</g>
<!-- Node2&#45;&gt;Node1 -->
<g id="edge1_Node000001_Node000002" class="edge">
<title>Node2&#45;&gt;Node1</title>
<g id="a_edge1_Node000001_Node000002"><a xlink:title=" ">
<path fill="none" stroke="#63b8ff" d="M185.03,-66.47C198.29,-52.83 216.05,-34.56 227.13,-23.17"/>
<polygon fill="#63b8ff" stroke="#63b8ff" points="182.29,-64.27 177.83,-73.88 187.31,-69.15 182.29,-64.27"/>
</a>
</g>
</g>
<!-- Node3 -->
<g id="Node000003" class="node">
<title>Node3</title>
<g id="a_Node000003"><a xlink:href="structhf__nvs__statistics__t.html" target="_top" xlink:title="NVS operation statistics.">
<polygon fill="white" stroke="#666666" points="127,-171 0,-171 0,-148 127,-148 127,-171"/>
<text text-anchor="middle" x="63.5" y="-155.8" font-family="Arial" font-size="14.00">hf_nvs_statistics_t</text>
</a>
</g>
</g>
<!-- Node3&#45;&gt;Node1 -->
<g id="edge4_Node000001_Node000003" class="edge">
<title>Node3&#45;&gt;Node1</title>
<g id="a_edge4_Node000001_Node000003"><a xlink:title=" ">
<path fill="none" stroke="#9a32cd" stroke-dasharray="5,2" d="M55.73,-138.51C49.96,-120.03 45.16,-92.68 58.5,-74 92.1,-26.93 164.11,-15.51 205.83,-12.97"/>
<polygon fill="#9a32cd" stroke="#9a32cd" points="52.44,-139.69 59.02,-147.99 59.05,-137.4 52.44,-139.69"/>
</a>
</g>
<text text-anchor="middle" x="90.5" y="-81.8" font-family="Arial" font-size="14.00" fill="grey"> statistics_</text>
</g>
<!-- Node3&#45;&gt;Node2 -->
<g id="edge2_Node000002_Node000003" class="edge">
<title>Node3&#45;&gt;Node2</title>
<g id="a_edge2_Node000002_Node000003"><a xlink:title=" ">
<path fill="none" stroke="#9a32cd" stroke-dasharray="5,2" d="M74.68,-139.37C80.35,-130.99 87.87,-121.59 96.5,-115 106.95,-107.02 119.94,-100.95 131.94,-96.51"/>
<polygon fill="#9a32cd" stroke="#9a32cd" points="71.69,-137.56 69.29,-147.88 77.6,-141.31 71.69,-137.56"/>
</a>
</g>
<text text-anchor="middle" x="128.5" y="-118.8" font-family="Arial" font-size="14.00" fill="grey"> statistics_</text>
</g>
<!-- Node4 -->
<g id="Node000004" class="node">
<title>Node4</title>
<g id="a_Node000004"><a xlink:href="structhf__nvs__diagnostics__t.html" target="_top" xlink:title="NVS diagnostic information.">
<polygon fill="white" stroke="#666666" points="310,-171 167,-171 167,-148 310,-148 310,-171"/>
<text text-anchor="middle" x="238.5" y="-155.8" font-family="Arial" font-size="14.00">hf_nvs_diagnostics_t</text>
</a>
</g>
</g>
<!-- Node4&#45;&gt;Node1 -->
<g id="edge5_Node000001_Node000004" class="edge">
<title>Node4&#45;&gt;Node1</title>
<g id="a_edge5_Node000001_Node000004"><a xlink:title=" ">
<path fill="none" stroke="#9a32cd" stroke-dasharray="5,2" d="M245.77,-138.07C246.48,-135.39 247.09,-132.65 247.5,-130 253.52,-90.95 244.78,-44 240.11,-23.25"/>
<polygon fill="#9a32cd" stroke="#9a32cd" points="242.35,-137.27 242.71,-147.86 249.03,-139.36 242.35,-137.27"/>
</a>
</g>
<text text-anchor="middle" x="289" y="-81.8" font-family="Arial" font-size="14.00" fill="grey"> diagnostics_</text>
</g>
<!-- Node4&#45;&gt;Node2 -->
<g id="edge3_Node000002_Node000004" class="edge">
<title>Node4&#45;&gt;Node2</title>
<g id="a_edge3_Node000002_Node000004"><a xlink:title=" ">
<path fill="none" stroke="#9a32cd" stroke-dasharray="5,2" d="M182.23,-143.02C176.88,-139.53 172.12,-135.25 168.5,-130 161.9,-120.42 162.88,-106.63 164.71,-97.15"/>
<polygon fill="#9a32cd" stroke="#9a32cd" points="180.58,-146.11 191.02,-147.89 183.97,-139.99 180.58,-146.11"/>
</a>
</g>
<text text-anchor="middle" x="208" y="-118.8" font-family="Arial" font-size="14.00" fill="grey"> diagnostics_</text>
</g>
<!-- Node5 -->
<g id="Node000005" class="node">
<title>Node5</title>
<g id="a_Node000005"><a xlink:href="classRtosMutex.html" target="_top" xlink:title=" ">
<polygon fill="white" stroke="#666666" points="440.5,-97 358.5,-97 358.5,-74 440.5,-74 440.5,-97"/>
<text text-anchor="middle" x="399.5" y="-81.8" font-family="Arial" font-size="14.00">RtosMutex</text>
</a>
</g>
</g>
<!-- Node5&#45;&gt;Node1 -->
<g id="edge6_Node000001_Node000005" class="edge">
<title>Node5&#45;&gt;Node1</title>
<g id="a_edge6_Node000001_Node000005"><a xlink:title=" ">
<path fill="none" stroke="#9a32cd" stroke-dasharray="5,2" d="M366.41,-69.79C335.14,-55.89 289,-35.39 261.24,-23.05"/>
<polygon fill="#9a32cd" stroke="#9a32cd" points="365.04,-73.01 375.6,-73.88 367.88,-66.62 365.04,-73.01"/>
</a>
</g>
<text text-anchor="middle" x="357" y="-44.8" font-family="Arial" font-size="14.00" fill="grey"> mutex_</text>
</g>
</g>
</svg>
