<?xml version="1.0" encoding="UTF-8" standalone="no"?>
<!DOCTYPE svg PUBLIC "-//W3C//DTD SVG 1.1//EN"
 "http://www.w3.org/Graphics/SVG/1.1/DTD/svg11.dtd">
<!-- Generated by graphviz version 2.43.0 (0)
 -->
<!-- Title: EspBluetooth Pages: 1 -->
<svg width="459pt" height="133pt"
 viewBox="0.00 0.00 459.00 132.50" xmlns="http://www.w3.org/2000/svg" xmlns:xlink="http://www.w3.org/1999/xlink">
<g id="graph0" class="graph" transform="scale(1 1) rotate(0) translate(4 128.5)">
<title>EspBluetooth</title>
<!-- Node1 -->
<g id="Node000001" class="node">
<title>Node1</title>
<g id="a_Node000001"><a xlink:title="ESP32 Bluetooth implementation class.">
<polygon fill="#999999" stroke="#666666" points="451,-83.5 354,-83.5 354,-60.5 451,-60.5 451,-83.5"/>
<text text-anchor="middle" x="402.5" y="-68.3" font-family="Arial" font-size="14.00">EspBluetooth</text>
</a>
</g>
</g>
<!-- Node2 -->
<g id="Node000002" class="node">
<title>Node2</title>
<g id="a_Node000002"><a xlink:href="classBaseBluetooth.html" target="_top" xlink:title="Abstract base class for Bluetooth functionality.">
<polygon fill="white" stroke="#666666" points="157,-124.5 53,-124.5 53,-101.5 157,-101.5 157,-124.5"/>
<text text-anchor="middle" x="105" y="-109.3" font-family="Arial" font-size="14.00">BaseBluetooth</text>
</a>
</g>
</g>
<!-- Node2&#45;&gt;Node1 -->
<g id="edge1_Node000001_Node000002" class="edge">
<title>Node2&#45;&gt;Node1</title>
<g id="a_edge1_Node000001_Node000002"><a xlink:title=" ">
<path fill="none" stroke="#63b8ff" d="M167.32,-110.26C213.91,-107.42 279.41,-101.82 336,-91 345.89,-89.11 356.43,-86.38 366.1,-83.58"/>
<polygon fill="#63b8ff" stroke="#63b8ff" points="166.87,-106.78 157.09,-110.85 167.28,-113.77 166.87,-106.78"/>
</a>
</g>
</g>
<!-- Node3 -->
<g id="Node000003" class="node">
<title>Node3</title>
<g id="a_Node000003"><a xlink:href="structhf__bluetooth__ble__config__t.html" target="_top" xlink:title="Bluetooth Low Energy configuration structure.">
<polygon fill="white" stroke="#666666" points="190.5,-83.5 19.5,-83.5 19.5,-60.5 190.5,-60.5 190.5,-83.5"/>
<text text-anchor="middle" x="105" y="-68.3" font-family="Arial" font-size="14.00">hf_bluetooth_ble_config_t</text>
</a>
</g>
</g>
<!-- Node3&#45;&gt;Node1 -->
<g id="edge2_Node000001_Node000003" class="edge">
<title>Node3&#45;&gt;Node1</title>
<g id="a_edge2_Node000001_Node000003"><a xlink:title=" ">
<path fill="none" stroke="#9a32cd" stroke-dasharray="5,2" d="M200.74,-72C251.73,-72 312.43,-72 353.64,-72"/>
<polygon fill="#9a32cd" stroke="#9a32cd" points="200.68,-68.5 190.68,-72 200.68,-75.5 200.68,-68.5"/>
</a>
</g>
<text text-anchor="middle" x="282" y="-75.8" font-family="Arial" font-size="14.00" fill="grey"> m_ble_config</text>
</g>
<!-- Node4 -->
<g id="Node000004" class="node">
<title>Node4</title>
<g id="a_Node000004"><a xlink:href="classPlatformMutexImpl.html" target="_top" xlink:title=" ">
<polygon fill="white" stroke="#666666" points="210,-38 0,-38 0,0 210,0 210,-38"/>
<text text-anchor="start" x="8" y="-22.8" font-family="Arial" font-size="14.00">PlatformMutexImpl&lt;</text>
<text text-anchor="middle" x="105" y="-7.8" font-family="Arial" font-size="14.00"> PlatformMutexActiveBackend &gt;</text>
</a>
</g>
</g>
<!-- Node4&#45;&gt;Node1 -->
<g id="edge3_Node000001_Node000004" class="edge">
<title>Node4&#45;&gt;Node1</title>
<g id="a_edge3_Node000001_Node000004"><a xlink:title=" ">
<path fill="none" stroke="#9a32cd" stroke-dasharray="5,2" d="M220.48,-19.54C257.87,-22.07 299.23,-27.4 336,-38 353.24,-42.97 371.21,-52.67 383.96,-60.44"/>
<polygon fill="#9a32cd" stroke="#9a32cd" points="220.24,-16.02 210.04,-18.9 219.81,-23.01 220.24,-16.02"/>
</a>
</g>
<text text-anchor="middle" x="282" y="-56.8" font-family="Arial" font-size="14.00" fill="grey"> m_device_mutex</text>
<text text-anchor="middle" x="282" y="-41.8" font-family="Arial" font-size="14.00" fill="grey">m_state_mutex</text>
</g>
</g>
</svg>
