<?xml version="1.0" encoding="UTF-8" standalone="no"?>
<!DOCTYPE svg PUBLIC "-//W3C//DTD SVG 1.1//EN"
 "http://www.w3.org/Graphics/SVG/1.1/DTD/svg11.dtd">
<!-- Generated by graphviz version 2.43.0 (0)
 -->
<!-- Title: StmAdc Pages: 1 -->
<svg width="360pt" height="179pt"
 viewBox="0.00 0.00 359.50 179.00" xmlns="http://www.w3.org/2000/svg" xmlns:xlink="http://www.w3.org/1999/xlink">
<g id="graph0" class="graph" transform="scale(1 1) rotate(0) translate(4 175)">
<title>StmAdc</title>
<!-- Node1 -->
<g id="Node000001" class="node">
<title>Node1</title>
<g id="a_Node000001"><a xlink:title="STM32 ADC wrapper — wraps STM32 HAL ADC with full channel management.">
<polygon fill="#999999" stroke="#666666" points="239.5,-23 174.5,-23 174.5,0 239.5,0 239.5,-23"/>
<text text-anchor="middle" x="207" y="-7.8" font-family="Arial" font-size="14.00">StmAdc</text>
</a>
</g>
</g>
<!-- Node2 -->
<g id="Node000002" class="node">
<title>Node2</title>
<g id="a_Node000002"><a xlink:href="classBaseAdc.html" target="_top" xlink:title="Base class for ADCs.">
<polygon fill="white" stroke="#666666" points="176.5,-97 105.5,-97 105.5,-74 176.5,-74 176.5,-97"/>
<text text-anchor="middle" x="141" y="-81.8" font-family="Arial" font-size="14.00">BaseAdc</text>
</a>
</g>
</g>
<!-- Node2&#45;&gt;Node1 -->
<g id="edge1_Node000001_Node000002" class="edge">
<title>Node2&#45;&gt;Node1</title>
<g id="a_edge1_Node000001_Node000002"><a xlink:title=" ">
<path fill="none" stroke="#63b8ff" d="M157.53,-66.47C170.03,-52.83 186.77,-34.56 197.22,-23.17"/>
<polygon fill="#63b8ff" stroke="#63b8ff" points="154.92,-64.14 150.74,-73.88 160.08,-68.87 154.92,-64.14"/>
</a>
</g>
</g>
<!-- Node3 -->
<g id="Node000003" class="node">
<title>Node3</title>
<g id="a_Node000003"><a xlink:href="structhf__adc__statistics__t.html" target="_top" xlink:title="ADC operation statistics.">
<polygon fill="white" stroke="#666666" points="128,-171 0,-171 0,-148 128,-148 128,-171"/>
<text text-anchor="middle" x="64" y="-155.8" font-family="Arial" font-size="14.00">hf_adc_statistics_t</text>
</a>
</g>
</g>
<!-- Node3&#45;&gt;Node2 -->
<g id="edge2_Node000002_Node000003" class="edge">
<title>Node3&#45;&gt;Node2</title>
<g id="a_edge2_Node000002_Node000003"><a xlink:title=" ">
<path fill="none" stroke="#9a32cd" stroke-dasharray="5,2" d="M82.88,-140.85C97.5,-127.17 117.29,-108.67 129.59,-97.17"/>
<polygon fill="#9a32cd" stroke="#9a32cd" points="80.28,-138.49 75.36,-147.88 85.06,-143.6 80.28,-138.49"/>
</a>
</g>
<text text-anchor="middle" x="142" y="-118.8" font-family="Arial" font-size="14.00" fill="grey"> statistics_</text>
</g>
<!-- Node4 -->
<g id="Node000004" class="node">
<title>Node4</title>
<g id="a_Node000004"><a xlink:href="structhf__adc__diagnostics__t.html" target="_top" xlink:title="ADC diagnostic information.">
<polygon fill="white" stroke="#666666" points="289.5,-171 146.5,-171 146.5,-148 289.5,-148 289.5,-171"/>
<text text-anchor="middle" x="218" y="-155.8" font-family="Arial" font-size="14.00">hf_adc_diagnostics_t</text>
</a>
</g>
</g>
<!-- Node4&#45;&gt;Node2 -->
<g id="edge3_Node000002_Node000004" class="edge">
<title>Node4&#45;&gt;Node2</title>
<g id="a_edge3_Node000002_Node000004"><a xlink:title=" ">
<path fill="none" stroke="#9a32cd" stroke-dasharray="5,2" d="M202.18,-139.92C195.08,-131.95 186.42,-122.72 178,-115 171.07,-108.65 162.82,-102.2 155.87,-97.05"/>
<polygon fill="#9a32cd" stroke="#9a32cd" points="199.72,-142.42 208.94,-147.65 204.99,-137.82 199.72,-142.42"/>
</a>
</g>
<text text-anchor="middle" x="232.5" y="-118.8" font-family="Arial" font-size="14.00" fill="grey"> diagnostics_</text>
</g>
<!-- Node5 -->
<g id="Node000005" class="node">
<title>Node5</title>
<g id="a_Node000005"><a xlink:href="structhf__stm32__adc__config__t.html" target="_top" xlink:title="ADC configuration for STM32.">
<polygon fill="white" stroke="#666666" points="351.5,-97 194.5,-97 194.5,-74 351.5,-74 351.5,-97"/>
<text text-anchor="middle" x="273" y="-81.8" font-family="Arial" font-size="14.00">hf_stm32_adc_config_t</text>
</a>
</g>
</g>
<!-- Node5&#45;&gt;Node1 -->
<g id="edge4_Node000001_Node000005" class="edge">
<title>Node5&#45;&gt;Node1</title>
<g id="a_edge4_Node000001_Node000005"><a xlink:title=" ">
<path fill="none" stroke="#9a32cd" stroke-dasharray="5,2" d="M256.47,-66.47C243.97,-52.83 227.23,-34.56 216.78,-23.17"/>
<polygon fill="#9a32cd" stroke="#9a32cd" points="253.92,-68.87 263.26,-73.88 259.08,-64.14 253.92,-68.87"/>
</a>
</g>
<text text-anchor="middle" x="269" y="-44.8" font-family="Arial" font-size="14.00" fill="grey"> config_</text>
</g>
</g>
</svg>
