<?xml version="1.0" encoding="UTF-8" standalone="no"?>
<!DOCTYPE svg PUBLIC "-//W3C//DTD SVG 1.1//EN"
 "http://www.w3.org/Graphics/SVG/1.1/DTD/svg11.dtd">
<!-- Generated by graphviz version 2.43.0 (0)
 -->
<!-- Title: StmLogger Pages: 1 -->
<svg width="435pt" height="105pt"
 viewBox="0.00 0.00 435.00 105.00" xmlns="http://www.w3.org/2000/svg" xmlns:xlink="http://www.w3.org/1999/xlink">

<svg id="main" version="1.1" xmlns="http://www.w3.org/2000/svg" xmlns:xlink="http://www.w3.org/1999/xlink" xml:space="preserve" onload="init(evt)">
<style type="text/css"><![CDATA[
.node, .edge {opacity: 0.7;}
.node.selected, .edge.selected {opacity: 1;}
.edge:hover path { stroke: red; }
.edge:hover polygon { stroke: red; fill: red; }
]]></style>
<script type="application/ecmascript" xlink:href="svg.min.js"/>
<svg id="graph" class="graph">
<g id="graph0" class="graph" transform="scale(1 1) rotate(0) translate(4 101)">
<title>StmLogger</title>
<!-- Node1 -->
<g id="Node000001" class="node">
<title>Node1</title>
<g id="a_Node000001"><a xlink:title="STM32 Logger — production&#45;quality logging over UART/SWO/printf.">
<polygon fill="#999999" stroke="#666666" points="220,-23 137,-23 137,0 220,0 220,-23"/>
<text text-anchor="middle" x="178.5" y="-7.8" font-family="Arial" font-size="14.00">StmLogger</text>
</a>
</g>
</g>
<!-- Node2 -->
<g id="Node000002" class="node">
<title>Node2</title>
<g id="a_Node000002"><a xlink:href="classBaseLogger.html" target="_top" xlink:title="Base logger abstract class.">
<polygon fill="white" stroke="#666666" points="89,-97 0,-97 0,-74 89,-74 89,-97"/>
<text text-anchor="middle" x="44.5" y="-81.8" font-family="Arial" font-size="14.00">BaseLogger</text>
</a>
</g>
</g>
<!-- Node2&#45;&gt;Node1 -->
<g id="edge1_Node000001_Node000002" class="edge">
<title>Node2&#45;&gt;Node1</title>
<g id="a_edge1_Node000001_Node000002"><a xlink:title=" ">
<path fill="none" stroke="#63b8ff" d="M73.2,-69.08C98.94,-55.25 136.05,-35.31 158.65,-23.17"/>
<polygon fill="#63b8ff" stroke="#63b8ff" points="71.42,-66.06 64.27,-73.88 74.74,-72.23 71.42,-66.06"/>
</a>
</g>
</g>
<!-- Node3 -->
<g id="Node000003" class="node">
<title>Node3</title>
<g id="a_Node000003"><a xlink:href="structhf__logger__statistics__t.html" target="_top" xlink:title="Logger statistics structure.">
<polygon fill="white" stroke="#666666" points="250,-97 107,-97 107,-74 250,-74 250,-97"/>
<text text-anchor="middle" x="178.5" y="-81.8" font-family="Arial" font-size="14.00">hf_logger_statistics_t</text>
</a>
</g>
</g>
<!-- Node3&#45;&gt;Node1 -->
<g id="edge2_Node000001_Node000003" class="edge">
<title>Node3&#45;&gt;Node1</title>
<g id="a_edge2_Node000001_Node000003"><a xlink:title=" ">
<path fill="none" stroke="#9a32cd" stroke-dasharray="5,2" d="M178.5,-63.73C178.5,-50.47 178.5,-33.82 178.5,-23.17"/>
<polygon fill="#9a32cd" stroke="#9a32cd" points="175,-63.88 178.5,-73.88 182,-63.88 175,-63.88"/>
</a>
</g>
<text text-anchor="middle" x="210.5" y="-44.8" font-family="Arial" font-size="14.00" fill="grey"> statistics_</text>
</g>
<!-- Node4 -->
<g id="Node000004" class="node">
<title>Node4</title>
<g id="a_Node000004"><a xlink:href="structhf__logger__diagnostics__t.html" target="_top" xlink:title="Logger diagnostics structure.">
<polygon fill="white" stroke="#666666" points="427,-97 268,-97 268,-74 427,-74 427,-97"/>
<text text-anchor="middle" x="347.5" y="-81.8" font-family="Arial" font-size="14.00">hf_logger_diagnostics_t</text>
</a>
</g>
</g>
<!-- Node4&#45;&gt;Node1 -->
<g id="edge3_Node000001_Node000004" class="edge">
<title>Node4&#45;&gt;Node1</title>
<g id="a_edge3_Node000001_Node000004"><a xlink:title=" ">
<path fill="none" stroke="#9a32cd" stroke-dasharray="5,2" d="M313.62,-69.81C294.03,-61.34 268.9,-50.52 246.5,-41 232.48,-35.04 216.8,-28.47 204.03,-23.13"/>
<polygon fill="#9a32cd" stroke="#9a32cd" points="312.47,-73.13 323.04,-73.88 315.25,-66.7 312.47,-73.13"/>
</a>
</g>
<text text-anchor="middle" x="319" y="-44.8" font-family="Arial" font-size="14.00" fill="grey"> diagnostics_</text>
</g>
</g>
</svg>
</svg>

<style type='text/css'>
<![CDATA[
[data-mouse-over-selected='false'] { opacity: 0.7; }
[data-mouse-over-selected='true']  { opacity: 1.0; }
]]>
</style>
<script type="application/ecmascript"><![CDATA[
document.addEventListener('DOMContentLoaded', (event) => {
  highlightEdges();
  highlightAdjacentNodes();
});
]]></script>
</svg>
