<?xml version="1.0" encoding="UTF-8" standalone="no"?>
<!DOCTYPE svg PUBLIC "-//W3C//DTD SVG 1.1//EN"
 "http://www.w3.org/Graphics/SVG/1.1/DTD/svg11.dtd">
<!-- Generated by graphviz version 2.43.0 (0)
 -->
<!-- Title: StmAdc Pages: 1 -->
<svg width="298pt" height="165pt"
 viewBox="0.00 0.00 297.50 165.00" xmlns="http://www.w3.org/2000/svg" xmlns:xlink="http://www.w3.org/1999/xlink">

<svg id="main" version="1.1" xmlns="http://www.w3.org/2000/svg" xmlns:xlink="http://www.w3.org/1999/xlink" xml:space="preserve" onload="init(evt)">
<style type="text/css"><![CDATA[
.node, .edge {opacity: 0.7;}
.node.selected, .edge.selected {opacity: 1;}
.edge:hover path { stroke: red; }
.edge:hover polygon { stroke: red; fill: red; }
]]></style>
<script type="application/ecmascript" xlink:href="svg.min.js"/>
<svg id="graph" class="graph">
<g id="graph0" class="graph" transform="scale(1 1) rotate(0) translate(4 161)">
<title>StmAdc</title>
<!-- Node1 -->
<g id="Node000001" class="node">
<title>Node1</title>
<g id="a_Node000001"><a xlink:title="STM32 ADC — stub implementation.">
<polygon fill="#999999" stroke="#666666" points="173.5,-23 108.5,-23 108.5,0 173.5,0 173.5,-23"/>
<text text-anchor="middle" x="141" y="-7.8" font-family="Arial" font-size="14.00">StmAdc</text>
</a>
</g>
</g>
<!-- Node2 -->
<g id="Node000002" class="node">
<title>Node2</title>
<g id="a_Node000002"><a xlink:href="classBaseAdc.html" target="_top" xlink:title="Base class for ADCs.">
<polygon fill="white" stroke="#666666" points="176.5,-83 105.5,-83 105.5,-60 176.5,-60 176.5,-83"/>
<text text-anchor="middle" x="141" y="-67.8" font-family="Arial" font-size="14.00">BaseAdc</text>
</a>
</g>
</g>
<!-- Node2&#45;&gt;Node1 -->
<g id="edge1_Node000001_Node000002" class="edge">
<title>Node2&#45;&gt;Node1</title>
<g id="a_edge1_Node000001_Node000002"><a xlink:title=" ">
<path fill="none" stroke="#63b8ff" d="M141,-49.69C141,-40.67 141,-30.49 141,-23.07"/>
<polygon fill="#63b8ff" stroke="#63b8ff" points="137.5,-49.86 141,-59.86 144.5,-49.86 137.5,-49.86"/>
</a>
</g>
</g>
<!-- Node3 -->
<g id="Node000003" class="node">
<title>Node3</title>
<g id="a_Node000003"><a xlink:href="structhf__adc__statistics__t.html" target="_top" xlink:title="ADC operation statistics.">
<polygon fill="white" stroke="#666666" points="128,-157 0,-157 0,-134 128,-134 128,-157"/>
<text text-anchor="middle" x="64" y="-141.8" font-family="Arial" font-size="14.00">hf_adc_statistics_t</text>
</a>
</g>
</g>
<!-- Node3&#45;&gt;Node2 -->
<g id="edge2_Node000002_Node000003" class="edge">
<title>Node3&#45;&gt;Node2</title>
<g id="a_edge2_Node000002_Node000003"><a xlink:title=" ">
<path fill="none" stroke="#9a32cd" stroke-dasharray="5,2" d="M82.88,-126.85C97.5,-113.17 117.29,-94.67 129.59,-83.17"/>
<polygon fill="#9a32cd" stroke="#9a32cd" points="80.28,-124.49 75.36,-133.88 85.06,-129.6 80.28,-124.49"/>
</a>
</g>
<text text-anchor="middle" x="142" y="-104.8" font-family="Arial" font-size="14.00" fill="grey"> statistics_</text>
</g>
<!-- Node4 -->
<g id="Node000004" class="node">
<title>Node4</title>
<g id="a_Node000004"><a xlink:href="structhf__adc__diagnostics__t.html" target="_top" xlink:title="ADC diagnostic information.">
<polygon fill="white" stroke="#666666" points="289.5,-157 146.5,-157 146.5,-134 289.5,-134 289.5,-157"/>
<text text-anchor="middle" x="218" y="-141.8" font-family="Arial" font-size="14.00">hf_adc_diagnostics_t</text>
</a>
</g>
</g>
<!-- Node4&#45;&gt;Node2 -->
<g id="edge3_Node000002_Node000004" class="edge">
<title>Node4&#45;&gt;Node2</title>
<g id="a_edge3_Node000002_Node000004"><a xlink:title=" ">
<path fill="none" stroke="#9a32cd" stroke-dasharray="5,2" d="M202.18,-125.92C195.08,-117.95 186.42,-108.72 178,-101 171.07,-94.65 162.82,-88.2 155.87,-83.05"/>
<polygon fill="#9a32cd" stroke="#9a32cd" points="199.72,-128.42 208.94,-133.65 204.99,-123.82 199.72,-128.42"/>
</a>
</g>
<text text-anchor="middle" x="231.5" y="-104.8" font-family="Arial" font-size="14.00" fill="grey"> diagnostics_</text>
</g>
</g>
</svg>
</svg>

<style type='text/css'>
<![CDATA[
[data-mouse-over-selected='false'] { opacity: 0.7; }
[data-mouse-over-selected='true']  { opacity: 1.0; }
]]>
</style>
<script type="application/ecmascript"><![CDATA[
document.addEventListener('DOMContentLoaded', (event) => {
  highlightEdges();
  highlightAdjacentNodes();
});
]]></script>
</svg>
