<?xml version="1.0" encoding="UTF-8" standalone="no"?>
<!DOCTYPE svg PUBLIC "-//W3C//DTD SVG 1.1//EN"
 "http://www.w3.org/Graphics/SVG/1.1/DTD/svg11.dtd">
<!-- Generated by graphviz version 2.43.0 (0)
 -->
<!-- Title: EspGpio Pages: 1 -->
<svg width="304pt" height="179pt"
 viewBox="0.00 0.00 304.00 179.00" xmlns="http://www.w3.org/2000/svg" xmlns:xlink="http://www.w3.org/1999/xlink">

<svg id="main" version="1.1" xmlns="http://www.w3.org/2000/svg" xmlns:xlink="http://www.w3.org/1999/xlink" xml:space="preserve" onload="init(evt)">
<style type="text/css"><![CDATA[
.node, .edge {opacity: 0.7;}
.node.selected, .edge.selected {opacity: 1;}
.edge:hover path { stroke: red; }
.edge:hover polygon { stroke: red; fill: red; }
]]></style>
<script type="application/ecmascript" xlink:href="svg.min.js"/>
<svg id="graph" class="graph">
<g id="graph0" class="graph" transform="scale(1 1) rotate(0) translate(4 175)">
<title>EspGpio</title>
<!-- Node1 -->
<g id="Node000001" class="node">
<title>Node1</title>
<g id="a_Node000001"><a xlink:title="Advanced MCU&#45;specific implementation of unified BaseGpio with ESP32C6/ESP&#45;IDF v5.5+ features.">
<polygon fill="#999999" stroke="#666666" points="178,-23 109,-23 109,0 178,0 178,-23"/>
<text text-anchor="middle" x="143.5" y="-7.8" font-family="Arial" font-size="14.00">EspGpio</text>
</a>
</g>
</g>
<!-- Node2 -->
<g id="Node000002" class="node">
<title>Node2</title>
<g id="a_Node000002"><a xlink:href="classBaseGpio.html" target="_top" xlink:title="Unified GPIO base class for all digital GPIO implementations.">
<polygon fill="white" stroke="#666666" points="182,-97 105,-97 105,-74 182,-74 182,-97"/>
<text text-anchor="middle" x="143.5" y="-81.8" font-family="Arial" font-size="14.00">BaseGpio</text>
</a>
</g>
</g>
<!-- Node2&#45;&gt;Node1 -->
<g id="edge1_Node000001_Node000002" class="edge">
<title>Node2&#45;&gt;Node1</title>
<g id="a_edge1_Node000001_Node000002"><a xlink:title=" ">
<path fill="none" stroke="#63b8ff" d="M141.87,-63.75C141.72,-61.14 141.59,-58.51 141.5,-56 141.27,-49.34 141.27,-47.66 141.5,-41 141.71,-35.05 142.16,-28.42 142.58,-23.05"/>
<polygon fill="#63b8ff" stroke="#63b8ff" points="138.4,-64.22 142.58,-73.95 145.38,-63.73 138.4,-64.22"/>
</a>
</g>
</g>
<!-- Node2&#45;&gt;Node1 -->
<g id="edge4_Node000001_Node000002" class="edge">
<title>Node2&#45;&gt;Node1</title>
<g id="a_edge4_Node000001_Node000002"><a xlink:title=" ">
<path fill="none" stroke="#9a32cd" stroke-dasharray="5,2" d="M143.5,-63.73C143.5,-50.47 143.5,-33.82 143.5,-23.17"/>
<polygon fill="#9a32cd" stroke="#9a32cd" points="140,-63.88 143.5,-73.88 147,-63.88 140,-63.88"/>
</a>
</g>
<text text-anchor="middle" x="202.5" y="-44.8" font-family="Arial" font-size="14.00" fill="grey"> interrupt_callback_</text>
</g>
<!-- Node3 -->
<g id="Node000003" class="node">
<title>Node3</title>
<g id="a_Node000003"><a xlink:href="structhf__gpio__statistics__t.html" target="_top" xlink:title="GPIO operation statistics.">
<polygon fill="white" stroke="#666666" points="131,-171 0,-171 0,-148 131,-148 131,-171"/>
<text text-anchor="middle" x="65.5" y="-155.8" font-family="Arial" font-size="14.00">hf_gpio_statistics_t</text>
</a>
</g>
</g>
<!-- Node3&#45;&gt;Node2 -->
<g id="edge2_Node000002_Node000003" class="edge">
<title>Node3&#45;&gt;Node2</title>
<g id="a_edge2_Node000002_Node000003"><a xlink:title=" ">
<path fill="none" stroke="#9a32cd" stroke-dasharray="5,2" d="M84.62,-140.85C99.44,-127.17 119.48,-108.67 131.94,-97.17"/>
<polygon fill="#9a32cd" stroke="#9a32cd" points="81.98,-138.52 77.01,-147.88 86.73,-143.67 81.98,-138.52"/>
</a>
</g>
<text text-anchor="middle" x="143.5" y="-118.8" font-family="Arial" font-size="14.00" fill="grey"> statistics_</text>
</g>
<!-- Node4 -->
<g id="Node000004" class="node">
<title>Node4</title>
<g id="a_Node000004"><a xlink:href="structhf__gpio__diagnostics__t.html" target="_top" xlink:title="GPIO diagnostic information.">
<polygon fill="white" stroke="#666666" points="296,-171 149,-171 149,-148 296,-148 296,-171"/>
<text text-anchor="middle" x="222.5" y="-155.8" font-family="Arial" font-size="14.00">hf_gpio_diagnostics_t</text>
</a>
</g>
</g>
<!-- Node4&#45;&gt;Node2 -->
<g id="edge3_Node000002_Node000004" class="edge">
<title>Node4&#45;&gt;Node2</title>
<g id="a_edge3_Node000002_Node000004"><a xlink:title=" ">
<path fill="none" stroke="#9a32cd" stroke-dasharray="5,2" d="M205.5,-140.33C197.78,-132.34 188.4,-122.97 179.5,-115 172.61,-108.83 164.57,-102.4 157.84,-97.21"/>
<polygon fill="#9a32cd" stroke="#9a32cd" points="203.16,-142.94 212.59,-147.77 208.22,-138.12 203.16,-142.94"/>
</a>
</g>
<text text-anchor="middle" x="233" y="-118.8" font-family="Arial" font-size="14.00" fill="grey"> diagnostics_</text>
</g>
</g>
</svg>
</svg>

<style type='text/css'>
<![CDATA[
[data-mouse-over-selected='false'] { opacity: 0.7; }
[data-mouse-over-selected='true']  { opacity: 1.0; }
]]>
</style>
<script type="application/ecmascript"><![CDATA[
document.addEventListener('DOMContentLoaded', (event) => {
  highlightEdges();
  highlightAdjacentNodes();
});
]]></script>
</svg>
