<?xml version="1.0" encoding="UTF-8" standalone="no"?>
<!DOCTYPE svg PUBLIC "-//W3C//DTD SVG 1.1//EN"
 "http://www.w3.org/Graphics/SVG/1.1/DTD/svg11.dtd">
<!-- Generated by graphviz version 2.43.0 (0)
 -->
<!-- Title: StmNvs Pages: 1 -->
<svg width="519pt" height="179pt"
 viewBox="0.00 0.00 519.00 179.00" xmlns="http://www.w3.org/2000/svg" xmlns:xlink="http://www.w3.org/1999/xlink">
<g id="graph0" class="graph" transform="scale(1 1) rotate(0) translate(4 175)">
<title>StmNvs</title>
<!-- Node1 -->
<g id="Node000001" class="node">
<title>Node1</title>
<g id="a_Node000001"><a xlink:title="STM32 NVS — flash&#45;backed key&#45;value store with wear leveling.">
<polygon fill="#999999" stroke="#666666" points="304,-23 239,-23 239,0 304,0 304,-23"/>
<text text-anchor="middle" x="271.5" y="-7.8" font-family="Arial" font-size="14.00">StmNvs</text>
</a>
</g>
</g>
<!-- Node2 -->
<g id="Node000002" class="node">
<title>Node2</title>
<g id="a_Node000002"><a xlink:href="classBaseNvs.html" target="_top" xlink:title="Abstract base class for non&#45;volatile storage operations.">
<polygon fill="white" stroke="#666666" points="175,-97 104,-97 104,-74 175,-74 175,-97"/>
<text text-anchor="middle" x="139.5" y="-81.8" font-family="Arial" font-size="14.00">BaseNvs</text>
</a>
</g>
</g>
<!-- Node2&#45;&gt;Node1 -->
<g id="edge1_Node000001_Node000002" class="edge">
<title>Node2&#45;&gt;Node1</title>
<g id="a_edge1_Node000001_Node000002"><a xlink:title=" ">
<path fill="none" stroke="#63b8ff" d="M167.77,-69.08C193.13,-55.25 229.68,-35.31 251.94,-23.17"/>
<polygon fill="#63b8ff" stroke="#63b8ff" points="166.08,-66.01 158.98,-73.88 169.43,-72.16 166.08,-66.01"/>
</a>
</g>
</g>
<!-- Node3 -->
<g id="Node000003" class="node">
<title>Node3</title>
<g id="a_Node000003"><a xlink:href="structhf__nvs__statistics__t.html" target="_top" xlink:title="NVS operation statistics.">
<polygon fill="white" stroke="#666666" points="127,-171 0,-171 0,-148 127,-148 127,-171"/>
<text text-anchor="middle" x="63.5" y="-155.8" font-family="Arial" font-size="14.00">hf_nvs_statistics_t</text>
</a>
</g>
</g>
<!-- Node3&#45;&gt;Node2 -->
<g id="edge2_Node000002_Node000003" class="edge">
<title>Node3&#45;&gt;Node2</title>
<g id="a_edge2_Node000002_Node000003"><a xlink:title=" ">
<path fill="none" stroke="#9a32cd" stroke-dasharray="5,2" d="M82.13,-140.85C96.57,-127.17 116.1,-108.67 128.24,-97.17"/>
<polygon fill="#9a32cd" stroke="#9a32cd" points="79.57,-138.46 74.71,-147.88 84.38,-143.54 79.57,-138.46"/>
</a>
</g>
<text text-anchor="middle" x="140.5" y="-118.8" font-family="Arial" font-size="14.00" fill="grey"> statistics_</text>
</g>
<!-- Node4 -->
<g id="Node000004" class="node">
<title>Node4</title>
<g id="a_Node000004"><a xlink:href="structhf__nvs__diagnostics__t.html" target="_top" xlink:title="NVS diagnostic information.">
<polygon fill="white" stroke="#666666" points="288,-171 145,-171 145,-148 288,-148 288,-171"/>
<text text-anchor="middle" x="216.5" y="-155.8" font-family="Arial" font-size="14.00">hf_nvs_diagnostics_t</text>
</a>
</g>
</g>
<!-- Node4&#45;&gt;Node2 -->
<g id="edge3_Node000002_Node000004" class="edge">
<title>Node4&#45;&gt;Node2</title>
<g id="a_edge3_Node000002_Node000004"><a xlink:title=" ">
<path fill="none" stroke="#9a32cd" stroke-dasharray="5,2" d="M200.68,-139.92C193.58,-131.95 184.92,-122.72 176.5,-115 169.57,-108.65 161.32,-102.2 154.37,-97.05"/>
<polygon fill="#9a32cd" stroke="#9a32cd" points="198.22,-142.42 207.44,-147.65 203.49,-137.82 198.22,-142.42"/>
</a>
</g>
<text text-anchor="middle" x="231" y="-118.8" font-family="Arial" font-size="14.00" fill="grey"> diagnostics_</text>
</g>
<!-- Node5 -->
<g id="Node000005" class="node">
<title>Node5</title>
<g id="a_Node000005"><a xlink:href="structhf__stm32__nvs__config__t.html" target="_top" xlink:title="Flash&#45;based NVS configuration for STM32.">
<polygon fill="white" stroke="#666666" points="349.5,-97 193.5,-97 193.5,-74 349.5,-74 349.5,-97"/>
<text text-anchor="middle" x="271.5" y="-81.8" font-family="Arial" font-size="14.00">hf_stm32_nvs_config_t</text>
</a>
</g>
</g>
<!-- Node5&#45;&gt;Node1 -->
<g id="edge4_Node000001_Node000005" class="edge">
<title>Node5&#45;&gt;Node1</title>
<g id="a_edge4_Node000001_Node000005"><a xlink:title=" ">
<path fill="none" stroke="#9a32cd" stroke-dasharray="5,2" d="M271.5,-63.73C271.5,-50.47 271.5,-33.82 271.5,-23.17"/>
<polygon fill="#9a32cd" stroke="#9a32cd" points="268,-63.88 271.5,-73.88 275,-63.88 268,-63.88"/>
</a>
</g>
<text text-anchor="middle" x="313.5" y="-44.8" font-family="Arial" font-size="14.00" fill="grey"> flash_config_</text>
</g>
<!-- Node6 -->
<g id="Node000006" class="node">
<title>Node6</title>
<g id="a_Node000006"><a xlink:href="structStmNvs_1_1CacheEntry.html" target="_top" xlink:title="RAM cache entry.">
<polygon fill="white" stroke="#666666" points="511,-97 368,-97 368,-74 511,-74 511,-97"/>
<text text-anchor="middle" x="439.5" y="-81.8" font-family="Arial" font-size="14.00">StmNvs::CacheEntry</text>
</a>
</g>
</g>
<!-- Node6&#45;&gt;Node1 -->
<g id="edge5_Node000001_Node000006" class="edge">
<title>Node6&#45;&gt;Node1</title>
<g id="a_edge5_Node000001_Node000006"><a xlink:title=" ">
<path fill="none" stroke="#9a32cd" stroke-dasharray="5,2" d="M413.28,-68.64C397.95,-59.78 378.03,-48.96 359.5,-41 341.65,-33.33 321.01,-26.55 304.21,-21.52"/>
<polygon fill="#9a32cd" stroke="#9a32cd" points="411.78,-71.82 422.17,-73.86 415.32,-65.78 411.78,-71.82"/>
</a>
</g>
<text text-anchor="middle" x="412.5" y="-44.8" font-family="Arial" font-size="14.00" fill="grey"> cache_</text>
</g>
</g>
</svg>
