<?xml version="1.0" encoding="UTF-8" standalone="no"?>
<!DOCTYPE svg PUBLIC "-//W3C//DTD SVG 1.1//EN"
 "http://www.w3.org/Graphics/SVG/1.1/DTD/svg11.dtd">
<!-- Generated by graphviz version 2.43.0 (0)
 -->
<!-- Title: BasePwm Pages: 1 -->
<svg width="312pt" height="105pt"
 viewBox="0.00 0.00 312.00 105.00" xmlns="http://www.w3.org/2000/svg" xmlns:xlink="http://www.w3.org/1999/xlink">
<g id="graph0" class="graph" transform="scale(1 1) rotate(0) translate(4 101)">
<title>BasePwm</title>
<!-- Node1 -->
<g id="Node000001" class="node">
<title>Node1</title>
<g id="a_Node000001"><a xlink:title="Abstract base class for PWM implementations.">
<polygon fill="#999999" stroke="#666666" points="186.5,-23 108.5,-23 108.5,0 186.5,0 186.5,-23"/>
<text text-anchor="middle" x="147.5" y="-7.8" font-family="Arial" font-size="14.00">BasePwm</text>
</a>
</g>
</g>
<!-- Node2 -->
<g id="Node000002" class="node">
<title>Node2</title>
<g id="a_Node000002"><a xlink:href="structhf__pwm__statistics__t.html" target="_top" xlink:title="PWM statistics information.">
<polygon fill="white" stroke="#666666" points="135,-97 0,-97 0,-74 135,-74 135,-97"/>
<text text-anchor="middle" x="67.5" y="-81.8" font-family="Arial" font-size="14.00">hf_pwm_statistics_t</text>
</a>
</g>
</g>
<!-- Node2&#45;&gt;Node1 -->
<g id="edge1_Node000001_Node000002" class="edge">
<title>Node2&#45;&gt;Node1</title>
<g id="a_edge1_Node000001_Node000002"><a xlink:title=" ">
<path fill="none" stroke="#9a32cd" stroke-dasharray="5,2" d="M87.11,-66.85C102.31,-53.17 122.87,-34.67 135.65,-23.17"/>
<polygon fill="#9a32cd" stroke="#9a32cd" points="84.4,-64.58 79.3,-73.88 89.08,-69.79 84.4,-64.58"/>
</a>
</g>
<text text-anchor="middle" x="147.5" y="-44.8" font-family="Arial" font-size="14.00" fill="grey"> statistics_</text>
</g>
<!-- Node3 -->
<g id="Node000003" class="node">
<title>Node3</title>
<g id="a_Node000003"><a xlink:href="structhf__pwm__diagnostics__t.html" target="_top" xlink:title="PWM diagnostics information.">
<polygon fill="white" stroke="#666666" points="304,-97 153,-97 153,-74 304,-74 304,-97"/>
<text text-anchor="middle" x="228.5" y="-81.8" font-family="Arial" font-size="14.00">hf_pwm_diagnostics_t</text>
</a>
</g>
</g>
<!-- Node3&#45;&gt;Node1 -->
<g id="edge2_Node000001_Node000003" class="edge">
<title>Node3&#45;&gt;Node1</title>
<g id="a_edge2_Node000001_Node000003"><a xlink:title=" ">
<path fill="none" stroke="#9a32cd" stroke-dasharray="5,2" d="M210.6,-66.41C202.5,-58.43 192.7,-49.05 183.5,-41 176.42,-34.8 168.22,-28.27 161.44,-23.02"/>
<polygon fill="#9a32cd" stroke="#9a32cd" points="208.5,-69.25 218.05,-73.82 213.43,-64.29 208.5,-69.25"/>
</a>
</g>
<text text-anchor="middle" x="238" y="-44.8" font-family="Arial" font-size="14.00" fill="grey"> diagnostics_</text>
</g>
</g>
</svg>
