<?xml version="1.0" encoding="UTF-8" standalone="no"?>
<!DOCTYPE svg PUBLIC "-//W3C//DTD SVG 1.1//EN"
 "http://www.w3.org/Graphics/SVG/1.1/DTD/svg11.dtd">
<!-- Generated by graphviz version 2.43.0 (0)
 -->
<!-- Title: StmTemperature Pages: 1 -->
<svg width="310pt" height="120pt"
 viewBox="0.00 0.00 309.50 120.00" xmlns="http://www.w3.org/2000/svg" xmlns:xlink="http://www.w3.org/1999/xlink">
<g id="graph0" class="graph" transform="scale(1 1) rotate(0) translate(4 116)">
<title>StmTemperature</title>
<!-- Node1 -->
<g id="Node000001" class="node">
<title>Node1</title>
<g id="a_Node000001"><a xlink:title="STM32 Temperature sensor implementation.">
<polygon fill="#999999" stroke="#666666" points="201,-23 83,-23 83,0 201,0 201,-23"/>
<text text-anchor="middle" x="142" y="-7.8" font-family="Arial" font-size="14.00">StmTemperature</text>
</a>
</g>
</g>
<!-- Node2 -->
<g id="Node000002" class="node">
<title>Node2</title>
<g id="a_Node000002"><a xlink:href="classBaseTemperature.html" target="_top" xlink:title="Abstract base class for all temperature sensor implementations.">
<polygon fill="white" stroke="#666666" points="124,-104.5 0,-104.5 0,-81.5 124,-81.5 124,-104.5"/>
<text text-anchor="middle" x="62" y="-89.3" font-family="Arial" font-size="14.00">BaseTemperature</text>
</a>
</g>
</g>
<!-- Node2&#45;&gt;Node1 -->
<g id="edge1_Node000001_Node000002" class="edge">
<title>Node2&#45;&gt;Node1</title>
<g id="a_edge1_Node000001_Node000002"><a xlink:title=" ">
<path fill="none" stroke="#63b8ff" d="M79.95,-74.17C95.76,-58.45 118.27,-36.08 131.38,-23.05"/>
<polygon fill="#63b8ff" stroke="#63b8ff" points="77.42,-71.75 72.79,-81.28 82.35,-76.71 77.42,-71.75"/>
</a>
</g>
</g>
<!-- Node3 -->
<g id="Node000003" class="node">
<title>Node3</title>
<g id="a_Node000003"><a xlink:href="structhf__stm32__temp__sensor__config__t.html" target="_top" xlink:title="STM32 Temperature sensor configuration.">
<polygon fill="white" stroke="#666666" points="301.5,-112 142.5,-112 142.5,-74 301.5,-74 301.5,-112"/>
<text text-anchor="start" x="150.5" y="-96.8" font-family="Arial" font-size="14.00">hf_stm32_temp_sensor</text>
<text text-anchor="middle" x="222" y="-81.8" font-family="Arial" font-size="14.00">_config_t</text>
</a>
</g>
</g>
<!-- Node3&#45;&gt;Node1 -->
<g id="edge2_Node000001_Node000003" class="edge">
<title>Node3&#45;&gt;Node1</title>
<g id="a_edge2_Node000001_Node000003"><a xlink:title=" ">
<path fill="none" stroke="#9a32cd" stroke-dasharray="5,2" d="M196.49,-66.65C181.8,-52.05 164.1,-34.46 152.94,-23.37"/>
<polygon fill="#9a32cd" stroke="#9a32cd" points="194.29,-69.39 203.85,-73.96 199.22,-64.43 194.29,-69.39"/>
</a>
</g>
<text text-anchor="middle" x="209" y="-44.8" font-family="Arial" font-size="14.00" fill="grey"> config_</text>
</g>
</g>
</svg>
