<?xml version="1.0" encoding="UTF-8" standalone="no"?>
<!DOCTYPE svg PUBLIC "-//W3C//DTD SVG 1.1//EN"
 "http://www.w3.org/Graphics/SVG/1.1/DTD/svg11.dtd">
<!-- Generated by graphviz version 2.43.0 (0)
 -->
<!-- Title: StmGpio Pages: 1 -->
<svg width="304pt" height="165pt"
 viewBox="0.00 0.00 304.00 165.00" xmlns="http://www.w3.org/2000/svg" xmlns:xlink="http://www.w3.org/1999/xlink">

<svg id="main" version="1.1" xmlns="http://www.w3.org/2000/svg" xmlns:xlink="http://www.w3.org/1999/xlink" xml:space="preserve" onload="init(evt)">
<style type="text/css"><![CDATA[
.node, .edge {opacity: 0.7;}
.node.selected, .edge.selected {opacity: 1;}
.edge:hover path { stroke: red; }
.edge:hover polygon { stroke: red; fill: red; }
]]></style>
<script type="application/ecmascript" xlink:href="svg.min.js"/>
<svg id="graph" class="graph">
<g id="graph0" class="graph" transform="scale(1 1) rotate(0) translate(4 161)">
<title>StmGpio</title>
<!-- Node1 -->
<g id="Node000001" class="node">
<title>Node1</title>
<g id="a_Node000001"><a xlink:title="STM32 GPIO — stub implementation.">
<polygon fill="#999999" stroke="#666666" points="179,-23 108,-23 108,0 179,0 179,-23"/>
<text text-anchor="middle" x="143.5" y="-7.8" font-family="Arial" font-size="14.00">StmGpio</text>
</a>
</g>
</g>
<!-- Node2 -->
<g id="Node000002" class="node">
<title>Node2</title>
<g id="a_Node000002"><a xlink:href="classBaseGpio.html" target="_top" xlink:title="Unified GPIO base class for all digital GPIO implementations.">
<polygon fill="white" stroke="#666666" points="182,-83 105,-83 105,-60 182,-60 182,-83"/>
<text text-anchor="middle" x="143.5" y="-67.8" font-family="Arial" font-size="14.00">BaseGpio</text>
</a>
</g>
</g>
<!-- Node2&#45;&gt;Node1 -->
<g id="edge1_Node000001_Node000002" class="edge">
<title>Node2&#45;&gt;Node1</title>
<g id="a_edge1_Node000001_Node000002"><a xlink:title=" ">
<path fill="none" stroke="#63b8ff" d="M143.5,-49.69C143.5,-40.67 143.5,-30.49 143.5,-23.07"/>
<polygon fill="#63b8ff" stroke="#63b8ff" points="140,-49.86 143.5,-59.86 147,-49.86 140,-49.86"/>
</a>
</g>
</g>
<!-- Node3 -->
<g id="Node000003" class="node">
<title>Node3</title>
<g id="a_Node000003"><a xlink:href="structhf__gpio__statistics__t.html" target="_top" xlink:title="GPIO operation statistics.">
<polygon fill="white" stroke="#666666" points="131,-157 0,-157 0,-134 131,-134 131,-157"/>
<text text-anchor="middle" x="65.5" y="-141.8" font-family="Arial" font-size="14.00">hf_gpio_statistics_t</text>
</a>
</g>
</g>
<!-- Node3&#45;&gt;Node2 -->
<g id="edge2_Node000002_Node000003" class="edge">
<title>Node3&#45;&gt;Node2</title>
<g id="a_edge2_Node000002_Node000003"><a xlink:title=" ">
<path fill="none" stroke="#9a32cd" stroke-dasharray="5,2" d="M84.62,-126.85C99.44,-113.17 119.48,-94.67 131.94,-83.17"/>
<polygon fill="#9a32cd" stroke="#9a32cd" points="81.98,-124.52 77.01,-133.88 86.73,-129.67 81.98,-124.52"/>
</a>
</g>
<text text-anchor="middle" x="143.5" y="-104.8" font-family="Arial" font-size="14.00" fill="grey"> statistics_</text>
</g>
<!-- Node4 -->
<g id="Node000004" class="node">
<title>Node4</title>
<g id="a_Node000004"><a xlink:href="structhf__gpio__diagnostics__t.html" target="_top" xlink:title="GPIO diagnostic information.">
<polygon fill="white" stroke="#666666" points="296,-157 149,-157 149,-134 296,-134 296,-157"/>
<text text-anchor="middle" x="222.5" y="-141.8" font-family="Arial" font-size="14.00">hf_gpio_diagnostics_t</text>
</a>
</g>
</g>
<!-- Node4&#45;&gt;Node2 -->
<g id="edge3_Node000002_Node000004" class="edge">
<title>Node4&#45;&gt;Node2</title>
<g id="a_edge3_Node000002_Node000004"><a xlink:title=" ">
<path fill="none" stroke="#9a32cd" stroke-dasharray="5,2" d="M205.5,-126.33C197.78,-118.34 188.4,-108.97 179.5,-101 172.61,-94.83 164.57,-88.4 157.84,-83.21"/>
<polygon fill="#9a32cd" stroke="#9a32cd" points="203.16,-128.94 212.59,-133.77 208.22,-124.12 203.16,-128.94"/>
</a>
</g>
<text text-anchor="middle" x="233" y="-104.8" font-family="Arial" font-size="14.00" fill="grey"> diagnostics_</text>
</g>
</g>
</svg>
</svg>

<style type='text/css'>
<![CDATA[
[data-mouse-over-selected='false'] { opacity: 0.7; }
[data-mouse-over-selected='true']  { opacity: 1.0; }
]]>
</style>
<script type="application/ecmascript"><![CDATA[
document.addEventListener('DOMContentLoaded', (event) => {
  highlightEdges();
  highlightAdjacentNodes();
});
]]></script>
</svg>
