<?xml version="1.0" encoding="UTF-8" standalone="no"?>
<!DOCTYPE svg PUBLIC "-//W3C//DTD SVG 1.1//EN"
 "http://www.w3.org/Graphics/SVG/1.1/DTD/svg11.dtd">
<!-- Generated by graphviz version 2.43.0 (0)
 -->
<!-- Title: EspUsbSerialJtag Pages: 1 -->
<svg width="286pt" height="194pt"
 viewBox="0.00 0.00 286.00 194.00" xmlns="http://www.w3.org/2000/svg" xmlns:xlink="http://www.w3.org/1999/xlink">
<g id="graph0" class="graph" transform="scale(1 1) rotate(0) translate(4 190)">
<title>EspUsbSerialJtag</title>
<!-- Node1 -->
<g id="Node000001" class="node">
<title>Node1</title>
<g id="a_Node000001"><a xlink:title=" ">
<polygon fill="#999999" stroke="#666666" points="238.5,-23 114.5,-23 114.5,0 238.5,0 238.5,-23"/>
<text text-anchor="middle" x="176.5" y="-7.8" font-family="Arial" font-size="14.00">EspUsbSerialJtag</text>
</a>
</g>
</g>
<!-- Node2 -->
<g id="Node000002" class="node">
<title>Node2</title>
<g id="a_Node000002"><a xlink:href="classBaseUsbSerialJtag.html" target="_top" xlink:title="Abstract base class for built&#45;in USB Serial/JTAG controller wrappers.">
<polygon fill="white" stroke="#666666" points="131,-97 0,-97 0,-74 131,-74 131,-97"/>
<text text-anchor="middle" x="65.5" y="-81.8" font-family="Arial" font-size="14.00">BaseUsbSerialJtag</text>
</a>
</g>
</g>
<!-- Node2&#45;&gt;Node1 -->
<g id="edge1_Node000001_Node000002" class="edge">
<title>Node2&#45;&gt;Node1</title>
<g id="a_edge1_Node000001_Node000002"><a xlink:title=" ">
<path fill="none" stroke="#63b8ff" d="M90.4,-68.35C111.67,-54.55 141.66,-35.1 160.05,-23.17"/>
<polygon fill="#63b8ff" stroke="#63b8ff" points="88.36,-65.5 81.88,-73.88 92.17,-71.37 88.36,-65.5"/>
</a>
</g>
</g>
<!-- Node3 -->
<g id="Node000003" class="node">
<title>Node3</title>
<g id="a_Node000003"><a xlink:href="structhf__usb__serial__jtag__config__t.html" target="_top" xlink:title="Configuration for a USB Serial/JTAG controller instance.">
<polygon fill="white" stroke="#666666" points="128.5,-186 2.5,-186 2.5,-148 128.5,-148 128.5,-186"/>
<text text-anchor="start" x="10.5" y="-170.8" font-family="Arial" font-size="14.00">hf_usb_serial_jtag</text>
<text text-anchor="middle" x="65.5" y="-155.8" font-family="Arial" font-size="14.00">_config_t</text>
</a>
</g>
</g>
<!-- Node3&#45;&gt;Node2 -->
<g id="edge2_Node000002_Node000003" class="edge">
<title>Node3&#45;&gt;Node2</title>
<g id="a_edge2_Node000002_Node000003"><a xlink:title=" ">
<path fill="none" stroke="#9a32cd" stroke-dasharray="5,2" d="M65.5,-137.8C65.5,-123.82 65.5,-107.75 65.5,-97.37"/>
<polygon fill="#9a32cd" stroke="#9a32cd" points="62,-137.96 65.5,-147.96 69,-137.96 62,-137.96"/>
</a>
</g>
<text text-anchor="middle" x="89.5" y="-118.8" font-family="Arial" font-size="14.00" fill="grey"> config_</text>
</g>
<!-- Node4 -->
<g id="Node000004" class="node">
<title>Node4</title>
<g id="a_Node000004"><a xlink:href="structhf__uart__statistics__t.html" target="_top" xlink:title="UART operation statistics.">
<polygon fill="white" stroke="#666666" points="278,-97 149,-97 149,-74 278,-74 278,-97"/>
<text text-anchor="middle" x="213.5" y="-81.8" font-family="Arial" font-size="14.00">hf_uart_statistics_t</text>
</a>
</g>
</g>
<!-- Node4&#45;&gt;Node1 -->
<g id="edge3_Node000001_Node000004" class="edge">
<title>Node4&#45;&gt;Node1</title>
<g id="a_edge3_Node000001_Node000004"><a xlink:title=" ">
<path fill="none" stroke="#9a32cd" stroke-dasharray="5,2" d="M203.44,-64.92C196.53,-51.47 187.62,-34.14 181.98,-23.17"/>
<polygon fill="#9a32cd" stroke="#9a32cd" points="200.36,-66.58 208.04,-73.88 206.58,-63.38 200.36,-66.58"/>
</a>
</g>
<text text-anchor="middle" x="229.5" y="-44.8" font-family="Arial" font-size="14.00" fill="grey"> statistics_</text>
</g>
</g>
</svg>
