<?xml version="1.0" encoding="UTF-8" standalone="no"?>
<!DOCTYPE svg PUBLIC "-//W3C//DTD SVG 1.1//EN"
 "http://www.w3.org/Graphics/SVG/1.1/DTD/svg11.dtd">
<!-- Generated by graphviz version 2.43.0 (0)
 -->
<!-- Title: inc/mcu/esp32/EspBluetooth.h Pages: 1 -->
<svg width="1222pt" height="208pt"
 viewBox="0.00 0.00 1221.50 208.00" xmlns="http://www.w3.org/2000/svg" xmlns:xlink="http://www.w3.org/1999/xlink">
<g id="graph0" class="graph" transform="scale(1 1) rotate(0) translate(4 204)">
<title>inc/mcu/esp32/EspBluetooth.h</title>
<!-- Node1 -->
<g id="Node000001" class="node">
<title>Node1</title>
<g id="a_Node000001"><a xlink:title="ESP32 Bluetooth implementation using NimBLE for BLE&#45;only support (ESP32C6)">
<polygon fill="#999999" stroke="#666666" points="654,-200 454,-200 454,-177 654,-177 654,-200"/>
<text text-anchor="middle" x="554" y="-184.8" font-family="Arial" font-size="14.00">inc/mcu/esp32/EspBluetooth.h</text>
</a>
</g>
</g>
<!-- Node2 -->
<g id="Node000002" class="node">
<title>Node2</title>
<g id="a_Node000002"><a xlink:href="BaseBluetooth_8h.html" target="_top" xlink:title="Unified Bluetooth base class for all Bluetooth implementations.">
<polygon fill="white" stroke="#666666" points="415,-141 299,-141 299,-118 415,-118 415,-141"/>
<text text-anchor="middle" x="357" y="-125.8" font-family="Arial" font-size="14.00">BaseBluetooth.h</text>
</a>
</g>
</g>
<!-- Node1&#45;&gt;Node2 -->
<g id="edge1_Node000001_Node000002" class="edge">
<title>Node1&#45;&gt;Node2</title>
<g id="a_edge1_Node000001_Node000002"><a xlink:title=" ">
<path fill="none" stroke="#63b8ff" d="M517.41,-176.91C485.2,-167.59 438.15,-153.98 403.33,-143.9"/>
<polygon fill="#63b8ff" stroke="#63b8ff" points="403.98,-140.45 393.4,-141.03 402.03,-147.17 403.98,-140.45"/>
</a>
</g>
</g>
<!-- Node3 -->
<g id="Node000003" class="node">
<title>Node3</title>
<g id="a_Node000003"><a xlink:href="HardwareTypes_8h.html" target="_top" xlink:title="Platform&#45;agnostic hardware type definitions for the HardFOC system.">
<polygon fill="white" stroke="#666666" points="122,-82 0,-82 0,-59 122,-59 122,-82"/>
<text text-anchor="middle" x="61" y="-66.8" font-family="Arial" font-size="14.00">HardwareTypes.h</text>
</a>
</g>
</g>
<!-- Node1&#45;&gt;Node3 -->
<g id="edge11_Node000001_Node000003" class="edge">
<title>Node1&#45;&gt;Node3</title>
<g id="a_edge11_Node000001_Node000003"><a xlink:title=" ">
<path fill="none" stroke="#63b8ff" d="M480.4,-176.97C427.17,-168.76 353.71,-156.22 290,-141 222.94,-124.98 146.59,-100.52 101.18,-85.3"/>
<polygon fill="#63b8ff" stroke="#63b8ff" points="102.02,-81.89 91.42,-82.01 99.78,-88.52 102.02,-81.89"/>
</a>
</g>
</g>
<!-- Node7 -->
<g id="Node000007" class="node">
<title>Node7</title>
<g id="a_Node000007"><a xlink:title=" ">
<polygon fill="#e0e0e0" stroke="#999999" points="496,-82 422,-82 422,-59 496,-59 496,-82"/>
<text text-anchor="middle" x="459" y="-66.8" font-family="Arial" font-size="14.00">functional</text>
</a>
</g>
</g>
<!-- Node1&#45;&gt;Node7 -->
<g id="edge21_Node000001_Node000007" class="edge">
<title>Node1&#45;&gt;Node7</title>
<g id="a_edge21_Node000001_Node000007"><a xlink:title=" ">
<path fill="none" stroke="#63b8ff" d="M545.23,-176.79C529.04,-157.03 494.28,-114.58 474.19,-90.04"/>
<polygon fill="#63b8ff" stroke="#63b8ff" points="476.79,-87.7 467.75,-82.18 471.37,-92.13 476.79,-87.7"/>
</a>
</g>
</g>
<!-- Node10 -->
<g id="Node000010" class="node">
<title>Node10</title>
<g id="a_Node000010"><a xlink:title=" ">
<polygon fill="#e0e0e0" stroke="#999999" points="567.5,-82 514.5,-82 514.5,-59 567.5,-59 567.5,-82"/>
<text text-anchor="middle" x="541" y="-66.8" font-family="Arial" font-size="14.00">vector</text>
</a>
</g>
</g>
<!-- Node1&#45;&gt;Node10 -->
<g id="edge23_Node000001_Node000010" class="edge">
<title>Node1&#45;&gt;Node10</title>
<g id="a_edge23_Node000001_Node000010"><a xlink:title=" ">
<path fill="none" stroke="#63b8ff" d="M550.16,-176.96C546.99,-167.65 542.73,-153.62 541,-141 538.8,-124.94 538.91,-106.59 539.51,-92.78"/>
<polygon fill="#63b8ff" stroke="#63b8ff" points="543.02,-92.58 540.09,-82.4 536.04,-92.19 543.02,-92.58"/>
</a>
</g>
</g>
<!-- Node11 -->
<g id="Node000011" class="node">
<title>Node11</title>
<g id="a_Node000011"><a xlink:title=" ">
<polygon fill="#e0e0e0" stroke="#999999" points="624.5,-141 549.5,-141 549.5,-118 624.5,-118 624.5,-141"/>
<text text-anchor="middle" x="587" y="-125.8" font-family="Arial" font-size="14.00">esp_log.h</text>
</a>
</g>
</g>
<!-- Node1&#45;&gt;Node11 -->
<g id="edge12_Node000001_Node000011" class="edge">
<title>Node1&#45;&gt;Node11</title>
<g id="a_edge12_Node000001_Node000011"><a xlink:title=" ">
<path fill="none" stroke="#63b8ff" d="M560.21,-176.78C564.59,-169.22 570.57,-158.87 575.78,-149.88"/>
<polygon fill="#63b8ff" stroke="#63b8ff" points="578.84,-151.58 580.82,-141.17 572.78,-148.07 578.84,-151.58"/>
</a>
</g>
</g>
<!-- Node12 -->
<g id="Node000012" class="node">
<title>Node12</title>
<g id="a_Node000012"><a xlink:title=" ">
<polygon fill="#e0e0e0" stroke="#999999" points="727.5,-141 642.5,-141 642.5,-118 727.5,-118 727.5,-141"/>
<text text-anchor="middle" x="685" y="-125.8" font-family="Arial" font-size="14.00">nvs_flash.h</text>
</a>
</g>
</g>
<!-- Node1&#45;&gt;Node12 -->
<g id="edge13_Node000001_Node000012" class="edge">
<title>Node1&#45;&gt;Node12</title>
<g id="a_edge13_Node000001_Node000012"><a xlink:title=" ">
<path fill="none" stroke="#63b8ff" d="M578.33,-176.91C598.92,-167.95 628.64,-155.02 651.48,-145.09"/>
<polygon fill="#63b8ff" stroke="#63b8ff" points="653.02,-148.23 660.8,-141.03 650.23,-141.81 653.02,-148.23"/>
</a>
</g>
</g>
<!-- Node13 -->
<g id="Node000013" class="node">
<title>Node13</title>
<g id="a_Node000013"><a xlink:href="RtosMutex_8h.html" target="_top" xlink:title="Cross&#45;platform RTOS mutex and synchronization primitives.">
<polygon fill="white" stroke="#666666" points="847.5,-141 754.5,-141 754.5,-118 847.5,-118 847.5,-141"/>
<text text-anchor="middle" x="801" y="-125.8" font-family="Arial" font-size="14.00">RtosMutex.h</text>
</a>
</g>
</g>
<!-- Node1&#45;&gt;Node13 -->
<g id="edge14_Node000001_Node000013" class="edge">
<title>Node1&#45;&gt;Node13</title>
<g id="a_edge14_Node000001_Node000013"><a xlink:title=" ">
<path fill="none" stroke="#63b8ff" d="M599.59,-176.98C640.72,-167.49 701.32,-153.5 745.3,-143.35"/>
<polygon fill="#63b8ff" stroke="#63b8ff" points="746.3,-146.72 755.26,-141.06 744.73,-139.89 746.3,-146.72"/>
</a>
</g>
</g>
<!-- Node19 -->
<g id="Node000019" class="node">
<title>Node19</title>
<g id="a_Node000019"><a xlink:title=" ">
<polygon fill="#e0e0e0" stroke="#999999" points="910,-141 866,-141 866,-118 910,-118 910,-141"/>
<text text-anchor="middle" x="888" y="-125.8" font-family="Arial" font-size="14.00">map</text>
</a>
</g>
</g>
<!-- Node1&#45;&gt;Node19 -->
<g id="edge22_Node000001_Node000019" class="edge">
<title>Node1&#45;&gt;Node19</title>
<g id="a_edge22_Node000001_Node000019"><a xlink:title=" ">
<path fill="none" stroke="#63b8ff" d="M651.05,-176.98C708.35,-169.74 782.33,-158.6 855.88,-140.96"/>
<polygon fill="#63b8ff" stroke="#63b8ff" points="856.9,-144.31 865.79,-138.54 855.24,-137.51 856.9,-144.31"/>
</a>
</g>
</g>
<!-- Node2&#45;&gt;Node3 -->
<g id="edge2_Node000002_Node000003" class="edge">
<title>Node2&#45;&gt;Node3</title>
<g id="a_edge2_Node000002_Node000003"><a xlink:title=" ">
<path fill="none" stroke="#63b8ff" d="M302.36,-117.98C252.38,-108.35 178.39,-94.1 125.51,-83.92"/>
<polygon fill="#63b8ff" stroke="#63b8ff" points="126.05,-80.46 115.57,-82.01 124.73,-87.34 126.05,-80.46"/>
</a>
</g>
</g>
<!-- Node4 -->
<g id="Node000004" class="node">
<title>Node4</title>
<g id="a_Node000004"><a xlink:title=" ">
<polygon fill="#e0e0e0" stroke="#999999" points="422,-23 366,-23 366,0 422,0 422,-23"/>
<text text-anchor="middle" x="394" y="-7.8" font-family="Arial" font-size="14.00">cstdint</text>
</a>
</g>
</g>
<!-- Node2&#45;&gt;Node4 -->
<g id="edge6_Node000002_Node000004" class="edge">
<title>Node2&#45;&gt;Node4</title>
<g id="a_edge6_Node000002_Node000004"><a xlink:title=" ">
<path fill="none" stroke="#63b8ff" d="M361.46,-117.9C365.31,-108.55 370.88,-94.5 375,-82 380.31,-65.87 385.33,-47.31 388.87,-33.43"/>
<polygon fill="#63b8ff" stroke="#63b8ff" points="392.34,-33.99 391.38,-23.44 385.55,-32.29 392.34,-33.99"/>
</a>
</g>
</g>
<!-- Node6 -->
<g id="Node000006" class="node">
<title>Node6</title>
<g id="a_Node000006"><a xlink:title=" ">
<polygon fill="#e0e0e0" stroke="#999999" points="298,-82 242,-82 242,-59 298,-59 298,-82"/>
<text text-anchor="middle" x="270" y="-66.8" font-family="Arial" font-size="14.00">cctype</text>
</a>
</g>
</g>
<!-- Node2&#45;&gt;Node6 -->
<g id="edge5_Node000002_Node000006" class="edge">
<title>Node2&#45;&gt;Node6</title>
<g id="a_edge5_Node000002_Node000006"><a xlink:title=" ">
<path fill="none" stroke="#63b8ff" d="M340.64,-117.78C327.76,-109.34 309.59,-97.44 294.91,-87.82"/>
<polygon fill="#63b8ff" stroke="#63b8ff" points="296.57,-84.73 286.29,-82.17 292.74,-90.58 296.57,-84.73"/>
</a>
</g>
</g>
<!-- Node2&#45;&gt;Node7 -->
<g id="edge7_Node000002_Node000007" class="edge">
<title>Node2&#45;&gt;Node7</title>
<g id="a_edge7_Node000002_Node000007"><a xlink:title=" ">
<path fill="none" stroke="#63b8ff" d="M376.19,-117.78C391.57,-109.18 413.39,-96.99 430.77,-87.28"/>
<polygon fill="#63b8ff" stroke="#63b8ff" points="432.88,-90.11 439.9,-82.17 429.46,-84 432.88,-90.11"/>
</a>
</g>
</g>
<!-- Node8 -->
<g id="Node000008" class="node">
<title>Node8</title>
<g id="a_Node000008"><a xlink:title=" ">
<polygon fill="#e0e0e0" stroke="#999999" points="366,-82 316,-82 316,-59 366,-59 366,-82"/>
<text text-anchor="middle" x="341" y="-66.8" font-family="Arial" font-size="14.00">string</text>
</a>
</g>
</g>
<!-- Node2&#45;&gt;Node8 -->
<g id="edge8_Node000002_Node000008" class="edge">
<title>Node2&#45;&gt;Node8</title>
<g id="a_edge8_Node000002_Node000008"><a xlink:title=" ">
<path fill="none" stroke="#63b8ff" d="M353.99,-117.78C351.96,-110.53 349.21,-100.74 346.76,-92.02"/>
<polygon fill="#63b8ff" stroke="#63b8ff" points="350.07,-90.86 344,-82.17 343.33,-92.75 350.07,-90.86"/>
</a>
</g>
</g>
<!-- Node9 -->
<g id="Node000009" class="node">
<title>Node9</title>
<g id="a_Node000009"><a xlink:title=" ">
<polygon fill="#e0e0e0" stroke="#999999" points="224,-82 140,-82 140,-59 224,-59 224,-82"/>
<text text-anchor="middle" x="182" y="-66.8" font-family="Arial" font-size="14.00">string_view</text>
</a>
</g>
</g>
<!-- Node2&#45;&gt;Node9 -->
<g id="edge9_Node000002_Node000009" class="edge">
<title>Node2&#45;&gt;Node9</title>
<g id="a_edge9_Node000002_Node000009"><a xlink:title=" ">
<path fill="none" stroke="#63b8ff" d="M324.49,-117.91C296.13,-108.67 254.8,-95.21 223.95,-85.16"/>
<polygon fill="#63b8ff" stroke="#63b8ff" points="224.92,-81.8 214.33,-82.03 222.76,-88.46 224.92,-81.8"/>
</a>
</g>
</g>
<!-- Node2&#45;&gt;Node10 -->
<g id="edge10_Node000002_Node000010" class="edge">
<title>Node2&#45;&gt;Node10</title>
<g id="a_edge10_Node000002_Node000010"><a xlink:title=" ">
<path fill="none" stroke="#63b8ff" d="M391.18,-117.91C423.48,-107.9 471.79,-92.94 504.75,-82.73"/>
<polygon fill="#63b8ff" stroke="#63b8ff" points="505.94,-86.02 514.46,-79.72 503.87,-79.34 505.94,-86.02"/>
</a>
</g>
</g>
<!-- Node3&#45;&gt;Node4 -->
<g id="edge3_Node000003_Node000004" class="edge">
<title>Node3&#45;&gt;Node4</title>
<g id="a_edge3_Node000003_Node000004"><a xlink:title=" ">
<path fill="none" stroke="#63b8ff" d="M122.08,-59.05C190.31,-47.37 298.66,-28.82 355.81,-19.04"/>
<polygon fill="#63b8ff" stroke="#63b8ff" points="356.6,-22.45 365.87,-17.32 355.42,-15.55 356.6,-22.45"/>
</a>
</g>
</g>
<!-- Node5 -->
<g id="Node000005" class="node">
<title>Node5</title>
<g id="a_Node000005"><a xlink:title=" ">
<polygon fill="#e0e0e0" stroke="#999999" points="85,-23 37,-23 37,0 85,0 85,-23"/>
<text text-anchor="middle" x="61" y="-7.8" font-family="Arial" font-size="14.00">limits</text>
</a>
</g>
</g>
<!-- Node3&#45;&gt;Node5 -->
<g id="edge4_Node000003_Node000005" class="edge">
<title>Node3&#45;&gt;Node5</title>
<g id="a_edge4_Node000003_Node000005"><a xlink:title=" ">
<path fill="none" stroke="#63b8ff" d="M61,-58.78C61,-51.61 61,-41.95 61,-33.31"/>
<polygon fill="#63b8ff" stroke="#63b8ff" points="64.5,-33.17 61,-23.17 57.5,-33.17 64.5,-33.17"/>
</a>
</g>
</g>
<!-- Node13&#45;&gt;Node4 -->
<g id="edge20_Node000013_Node000004" class="edge">
<title>Node13&#45;&gt;Node4</title>
<g id="a_edge20_Node000013_Node000004"><a xlink:title=" ">
<path fill="none" stroke="#63b8ff" d="M754.29,-120.84C715.91,-113.61 660.63,-101 615,-82 596.78,-74.41 595.21,-66.63 577,-59 528.91,-38.86 469.94,-25.8 432.17,-18.79"/>
<polygon fill="#63b8ff" stroke="#63b8ff" points="432.57,-15.31 422.11,-16.98 431.32,-22.2 432.57,-15.31"/>
</a>
</g>
</g>
<!-- Node14 -->
<g id="Node000014" class="node">
<title>Node14</title>
<g id="a_Node000014"><a xlink:href="McuSelect_8h.html" target="_top" xlink:title="Centralized MCU platform selection and configuration header.">
<polygon fill="white" stroke="#666666" points="716,-82 624,-82 624,-59 716,-59 716,-82"/>
<text text-anchor="middle" x="670" y="-66.8" font-family="Arial" font-size="14.00">McuSelect.h</text>
</a>
</g>
</g>
<!-- Node13&#45;&gt;Node14 -->
<g id="edge15_Node000013_Node000014" class="edge">
<title>Node13&#45;&gt;Node14</title>
<g id="a_edge15_Node000013_Node000014"><a xlink:title=" ">
<path fill="none" stroke="#63b8ff" d="M776.67,-117.91C756.08,-108.95 726.36,-96.02 703.52,-86.09"/>
<polygon fill="#63b8ff" stroke="#63b8ff" points="704.77,-82.81 694.2,-82.03 701.98,-89.23 704.77,-82.81"/>
</a>
</g>
</g>
<!-- Node15 -->
<g id="Node000015" class="node">
<title>Node15</title>
<g id="a_Node000015"><a xlink:title=" ">
<polygon fill="#e0e0e0" stroke="#999999" points="877.5,-82 734.5,-82 734.5,-59 877.5,-59 877.5,-82"/>
<text text-anchor="middle" x="806" y="-66.8" font-family="Arial" font-size="14.00">freertos/FreeRTOS.h</text>
</a>
</g>
</g>
<!-- Node13&#45;&gt;Node15 -->
<g id="edge16_Node000013_Node000015" class="edge">
<title>Node13&#45;&gt;Node15</title>
<g id="a_edge16_Node000013_Node000015"><a xlink:title=" ">
<path fill="none" stroke="#63b8ff" d="M801.94,-117.78C802.57,-110.61 803.42,-100.95 804.17,-92.31"/>
<polygon fill="#63b8ff" stroke="#63b8ff" points="807.68,-92.44 805.06,-82.17 800.7,-91.83 807.68,-92.44"/>
</a>
</g>
</g>
<!-- Node16 -->
<g id="Node000016" class="node">
<title>Node16</title>
<g id="a_Node000016"><a xlink:title=" ">
<polygon fill="#e0e0e0" stroke="#999999" points="1018,-82 896,-82 896,-59 1018,-59 1018,-82"/>
<text text-anchor="middle" x="957" y="-66.8" font-family="Arial" font-size="14.00">freertos/semphr.h</text>
</a>
</g>
</g>
<!-- Node13&#45;&gt;Node16 -->
<g id="edge17_Node000013_Node000016" class="edge">
<title>Node13&#45;&gt;Node16</title>
<g id="a_edge17_Node000013_Node000016"><a xlink:title=" ">
<path fill="none" stroke="#63b8ff" d="M829.98,-117.91C854.93,-108.79 891.15,-95.56 918.53,-85.56"/>
<polygon fill="#63b8ff" stroke="#63b8ff" points="919.99,-88.75 928.18,-82.03 917.58,-82.18 919.99,-88.75"/>
</a>
</g>
</g>
<!-- Node17 -->
<g id="Node000017" class="node">
<title>Node17</title>
<g id="a_Node000017"><a xlink:title=" ">
<polygon fill="#e0e0e0" stroke="#999999" points="1138,-82 1036,-82 1036,-59 1138,-59 1138,-82"/>
<text text-anchor="middle" x="1087" y="-66.8" font-family="Arial" font-size="14.00">freertos/task.h</text>
</a>
</g>
</g>
<!-- Node13&#45;&gt;Node17 -->
<g id="edge18_Node000013_Node000017" class="edge">
<title>Node13&#45;&gt;Node17</title>
<g id="a_edge18_Node000013_Node000017"><a xlink:title=" ">
<path fill="none" stroke="#63b8ff" d="M847.59,-119.22C896.06,-109.55 972.21,-94.38 1025.58,-83.74"/>
<polygon fill="#63b8ff" stroke="#63b8ff" points="1026.48,-87.13 1035.6,-81.74 1025.11,-80.27 1026.48,-87.13"/>
</a>
</g>
</g>
<!-- Node18 -->
<g id="Node000018" class="node">
<title>Node18</title>
<g id="a_Node000018"><a xlink:title=" ">
<polygon fill="#e0e0e0" stroke="#999999" points="1213.5,-82 1156.5,-82 1156.5,-59 1213.5,-59 1213.5,-82"/>
<text text-anchor="middle" x="1185" y="-66.8" font-family="Arial" font-size="14.00">atomic</text>
</a>
</g>
</g>
<!-- Node13&#45;&gt;Node18 -->
<g id="edge19_Node000013_Node000018" class="edge">
<title>Node13&#45;&gt;Node18</title>
<g id="a_edge19_Node000013_Node000018"><a xlink:title=" ">
<path fill="none" stroke="#63b8ff" d="M847.71,-119.52C850.85,-118.98 853.97,-118.47 857,-118 982.2,-98.51 1017.89,-106.92 1146.63,-81.81"/>
<polygon fill="#63b8ff" stroke="#63b8ff" points="1147.34,-85.24 1156.47,-79.86 1145.98,-78.37 1147.34,-85.24"/>
</a>
</g>
</g>
</g>
</svg>
