<?xml version="1.0" encoding="UTF-8" standalone="no"?>
<!DOCTYPE svg PUBLIC "-//W3C//DTD SVG 1.1//EN"
 "http://www.w3.org/Graphics/SVG/1.1/DTD/svg11.dtd">
<!-- Generated by graphviz version 2.43.0 (0)
 -->
<!-- Title: src/mcu/esp32/EspBluetooth.cpp Pages: 1 -->
<!--zoomable 267 -->

<svg id="main" version="1.1" xmlns="http://www.w3.org/2000/svg" xmlns:xlink="http://www.w3.org/1999/xlink" xml:space="preserve" onload="init(evt)">
<style type="text/css"><![CDATA[
.node, .edge {opacity: 0.7;}
.node.selected, .edge.selected {opacity: 1;}
.edge:hover path { stroke: red; }
.edge:hover polygon { stroke: red; fill: red; }
]]></style>

<defs>
  <circle id="rim" cx="0" cy="0" r="7"/>
  <circle id="rim2" cx="0" cy="0" r="3.5"/>
  <g id="zoomPlus">
    <use xlink:href="#rim" fill="#404040"><set attributeName="fill" to="#808080" begin="zoomplus.mouseover" end="zoomplus.mouseout"/></use>
    <path d="M-4,0h8M0,-4v8" fill="none" stroke="white" stroke-width="1.5" pointer-events="none"/>
  </g>
  <g id="zoomMin">
    <use xlink:href="#rim" fill="#404040"><set attributeName="fill" to="#808080" begin="zoomminus.mouseover" end="zoomminus.mouseout"/></use>
    <path d="M-4,0h8" fill="none" stroke="white" stroke-width="1.5" pointer-events="none"/>
  </g>
  <g id="arrowUp" transform="translate(30 24)">
    <use xlink:href="#rim"/>
    <path pointer-events="none" fill="none" stroke="white" stroke-width="1.5" d="M0,-3.0v7 M-2.5,-0.5L0,-3.0L2.5,-0.5"/>
  </g>
  <g id="arrowRight" transform="rotate(90) translate(36 -43)">
    <use xlink:href="#rim"/>
    <path pointer-events="none" fill="none" stroke="white" stroke-width="1.5" d="M0,-3.0v7 M-2.5,-0.5L0,-3.0L2.5,-0.5"/>
  </g>
  <g id="arrowDown" transform="rotate(180) translate(-30 -48)">
    <use xlink:href="#rim"/>
    <path pointer-events="none" fill="none" stroke="white" stroke-width="1.5" d="M0,-3.0v7 M-2.5,-0.5L0,-3.0L2.5,-0.5"/>
  </g>
  <g id="arrowLeft" transform="rotate(270) translate(-36 17)">
    <use xlink:href="#rim"/>
    <path pointer-events="none" fill="none" stroke="white" stroke-width="1.5" d="M0,-3.0v7 M-2.5,-0.5L0,-3.0L2.5,-0.5"/>
  </g>
  <g id="resetDef">
    <use xlink:href="#rim2" fill="#404040"><set attributeName="fill" to="#808080" begin="reset.mouseover" end="reset.mouseout"/></use>
  </g>
</defs>
<script type="application/ecmascript">
var viewWidth = 1926;
var viewHeight = 267;
var sectionId = 'dynsection-0';
</script>
<script type="application/ecmascript" xlink:href="svg.min.js"/>
<svg id="graph" class="graph">
<g id="viewport">
<title>src/mcu/esp32/EspBluetooth.cpp</title>
<!-- Node1 -->
<g id="Node000001" class="node">
<title>Node1</title>
<g id="a_Node000001"><a xlink:title="ESP32 Bluetooth implementation using NimBLE for BLE&#45;only support (ESP32C6)">
<polygon fill="#999999" stroke="#666666" points="1126.5,-259 911.5,-259 911.5,-236 1126.5,-236 1126.5,-259"/>
<text text-anchor="middle" x="1019" y="-243.8" font-family="Arial" font-size="14.00">src/mcu/esp32/EspBluetooth.cpp</text>
</a>
</g>
</g>
<!-- Node2 -->
<g id="Node000002" class="node">
<title>Node2</title>
<g id="a_Node000002"><a xlink:href="EspBluetooth_8h.html" target="_top" xlink:title="ESP32 Bluetooth implementation using NimBLE for BLE&#45;only support (ESP32C6)">
<polygon fill="white" stroke="#666666" points="881,-200 773,-200 773,-177 881,-177 881,-200"/>
<text text-anchor="middle" x="827" y="-184.8" font-family="Arial" font-size="14.00">EspBluetooth.h</text>
</a>
</g>
</g>
<!-- Node1&#45;&gt;Node2 -->
<g id="edge1_Node000001_Node000002" class="edge">
<title>Node1&#45;&gt;Node2</title>
<g id="a_edge1_Node000001_Node000002"><a xlink:title=" ">
<path fill="none" stroke="#63b8ff" d="M983.34,-235.91C951.95,-226.59 906.09,-212.98 872.15,-202.9"/>
<polygon fill="#63b8ff" stroke="#63b8ff" points="873.06,-199.52 862.47,-200.03 871.06,-206.23 873.06,-199.52"/>
</a>
</g>
</g>
<!-- Node28 -->
<g id="Node000028" class="node">
<title>Node28</title>
<g id="a_Node000028"><a xlink:title=" ">
<polygon fill="#e0e0e0" stroke="#999999" points="972.5,-200 899.5,-200 899.5,-177 972.5,-177 972.5,-200"/>
<text text-anchor="middle" x="936" y="-184.8" font-family="Arial" font-size="14.00">algorithm</text>
</a>
</g>
</g>
<!-- Node1&#45;&gt;Node28 -->
<g id="edge32_Node000001_Node000028" class="edge">
<title>Node1&#45;&gt;Node28</title>
<g id="a_edge32_Node000001_Node000028"><a xlink:title=" ">
<path fill="none" stroke="#63b8ff" d="M1003.39,-235.78C991.22,-227.42 974.1,-215.66 960.16,-206.09"/>
<polygon fill="#63b8ff" stroke="#63b8ff" points="961.77,-202.95 951.54,-200.17 957.8,-208.72 961.77,-202.95"/>
</a>
</g>
</g>
<!-- Node29 -->
<g id="Node000029" class="node">
<title>Node29</title>
<g id="a_Node000029"><a xlink:title=" ">
<polygon fill="#e0e0e0" stroke="#999999" points="1047,-200 991,-200 991,-177 1047,-177 1047,-200"/>
<text text-anchor="middle" x="1019" y="-184.8" font-family="Arial" font-size="14.00">cstring</text>
</a>
</g>
</g>
<!-- Node1&#45;&gt;Node29 -->
<g id="edge33_Node000001_Node000029" class="edge">
<title>Node1&#45;&gt;Node29</title>
<g id="a_edge33_Node000001_Node000029"><a xlink:title=" ">
<path fill="none" stroke="#63b8ff" d="M1019,-235.78C1019,-228.61 1019,-218.95 1019,-210.31"/>
<polygon fill="#63b8ff" stroke="#63b8ff" points="1022.5,-210.17 1019,-200.17 1015.5,-210.17 1022.5,-210.17"/>
</a>
</g>
</g>
<!-- Node30 -->
<g id="Node000030" class="node">
<title>Node30</title>
<g id="a_Node000030"><a xlink:title=" ">
<polygon fill="#e0e0e0" stroke="#999999" points="1130.5,-200 1065.5,-200 1065.5,-177 1130.5,-177 1130.5,-200"/>
<text text-anchor="middle" x="1098" y="-184.8" font-family="Arial" font-size="14.00">iomanip</text>
</a>
</g>
</g>
<!-- Node1&#45;&gt;Node30 -->
<g id="edge34_Node000001_Node000030" class="edge">
<title>Node1&#45;&gt;Node30</title>
<g id="a_edge34_Node000001_Node000030"><a xlink:title=" ">
<path fill="none" stroke="#63b8ff" d="M1033.86,-235.78C1045.45,-227.42 1061.74,-215.66 1075.01,-206.09"/>
<polygon fill="#63b8ff" stroke="#63b8ff" points="1077.15,-208.86 1083.21,-200.17 1073.05,-203.19 1077.15,-208.86"/>
</a>
</g>
</g>
<!-- Node31 -->
<g id="Node000031" class="node">
<title>Node31</title>
<g id="a_Node000031"><a xlink:title=" ">
<polygon fill="#e0e0e0" stroke="#999999" points="1213.5,-200 1148.5,-200 1148.5,-177 1213.5,-177 1213.5,-200"/>
<text text-anchor="middle" x="1181" y="-184.8" font-family="Arial" font-size="14.00">sstream</text>
</a>
</g>
</g>
<!-- Node1&#45;&gt;Node31 -->
<g id="edge35_Node000001_Node000031" class="edge">
<title>Node1&#45;&gt;Node31</title>
<g id="a_edge35_Node000001_Node000031"><a xlink:title=" ">
<path fill="none" stroke="#63b8ff" d="M1049.09,-235.91C1075.12,-226.75 1112.94,-213.45 1141.42,-203.43"/>
<polygon fill="#63b8ff" stroke="#63b8ff" points="1142.8,-206.65 1151.07,-200.03 1140.48,-200.05 1142.8,-206.65"/>
</a>
</g>
</g>
<!-- Node3 -->
<g id="Node000003" class="node">
<title>Node3</title>
<g id="a_Node000003"><a xlink:href="BaseBluetooth_8h.html" target="_top" xlink:title="Unified Bluetooth base class for all Bluetooth implementations.">
<polygon fill="white" stroke="#666666" points="399,-141 283,-141 283,-118 399,-118 399,-141"/>
<text text-anchor="middle" x="341" y="-125.8" font-family="Arial" font-size="14.00">BaseBluetooth.h</text>
</a>
</g>
</g>
<!-- Node2&#45;&gt;Node3 -->
<g id="edge2_Node000002_Node000003" class="edge">
<title>Node2&#45;&gt;Node3</title>
<g id="a_edge2_Node000002_Node000003"><a xlink:title=" ">
<path fill="none" stroke="#63b8ff" d="M772.68,-181.98C693.49,-173.79 541.76,-157.62 413,-141 411.73,-140.84 410.45,-140.67 409.16,-140.5"/>
<polygon fill="#63b8ff" stroke="#63b8ff" points="409.51,-137.02 399.14,-139.15 408.58,-143.95 409.51,-137.02"/>
</a>
</g>
</g>
<!-- Node4 -->
<g id="Node000004" class="node">
<title>Node4</title>
<g id="a_Node000004"><a xlink:href="HardwareTypes_8h.html" target="_top" xlink:title="Platform&#45;agnostic hardware type definitions for the HardFOC system.">
<polygon fill="white" stroke="#666666" points="122,-82 0,-82 0,-59 122,-59 122,-82"/>
<text text-anchor="middle" x="61" y="-66.8" font-family="Arial" font-size="14.00">HardwareTypes.h</text>
</a>
</g>
</g>
<!-- Node2&#45;&gt;Node4 -->
<g id="edge12_Node000002_Node000004" class="edge">
<title>Node2&#45;&gt;Node4</title>
<g id="a_edge12_Node000002_Node000004"><a xlink:title=" ">
<path fill="none" stroke="#63b8ff" d="M772.64,-187.08C672.85,-185.4 454.13,-177.45 274,-141 209.76,-128 137.81,-102.01 96.13,-85.75"/>
<polygon fill="#63b8ff" stroke="#63b8ff" points="97.3,-82.45 86.71,-82.04 94.73,-88.97 97.3,-82.45"/>
</a>
</g>
</g>
<!-- Node8 -->
<g id="Node000008" class="node">
<title>Node8</title>
<g id="a_Node000008"><a xlink:title=" ">
<polygon fill="#e0e0e0" stroke="#999999" points="496,-82 422,-82 422,-59 496,-59 496,-82"/>
<text text-anchor="middle" x="459" y="-66.8" font-family="Arial" font-size="14.00">functional</text>
</a>
</g>
</g>
<!-- Node2&#45;&gt;Node8 -->
<g id="edge29_Node000002_Node000008" class="edge">
<title>Node2&#45;&gt;Node8</title>
<g id="a_edge29_Node000002_Node000008"><a xlink:title=" ">
<path fill="none" stroke="#63b8ff" d="M772.66,-187.63C684.91,-186.68 517.53,-179.67 475,-141 461.66,-128.87 458.32,-108.04 457.92,-92.35"/>
<polygon fill="#63b8ff" stroke="#63b8ff" points="461.42,-92.06 458.05,-82.02 454.42,-91.97 461.42,-92.06"/>
</a>
</g>
</g>
<!-- Node11 -->
<g id="Node000011" class="node">
<title>Node11</title>
<g id="a_Node000011"><a xlink:title=" ">
<polygon fill="#e0e0e0" stroke="#999999" points="567.5,-82 514.5,-82 514.5,-59 567.5,-59 567.5,-82"/>
<text text-anchor="middle" x="541" y="-66.8" font-family="Arial" font-size="14.00">vector</text>
</a>
</g>
</g>
<!-- Node2&#45;&gt;Node11 -->
<g id="edge31_Node000002_Node000011" class="edge">
<title>Node2&#45;&gt;Node11</title>
<g id="a_edge31_Node000002_Node000011"><a xlink:title=" ">
<path fill="none" stroke="#63b8ff" d="M772.84,-188.39C686.03,-188.52 521.7,-183.03 485,-141 469.41,-123.15 492.43,-101.82 513.5,-87.55"/>
<polygon fill="#63b8ff" stroke="#63b8ff" points="515.48,-90.43 521.99,-82.07 511.68,-84.55 515.48,-90.43"/>
</a>
</g>
</g>
<!-- Node12 -->
<g id="Node000012" class="node">
<title>Node12</title>
<g id="a_Node000012"><a xlink:title=" ">
<polygon fill="#e0e0e0" stroke="#999999" points="568.5,-141 493.5,-141 493.5,-118 568.5,-118 568.5,-141"/>
<text text-anchor="middle" x="531" y="-125.8" font-family="Arial" font-size="14.00">esp_log.h</text>
</a>
</g>
</g>
<!-- Node2&#45;&gt;Node12 -->
<g id="edge13_Node000002_Node000012" class="edge">
<title>Node2&#45;&gt;Node12</title>
<g id="a_edge13_Node000002_Node000012"><a xlink:title=" ">
<path fill="none" stroke="#63b8ff" d="M772.98,-177.98C724.64,-169.33 651.6,-155.94 578.53,-141.06"/>
<polygon fill="#63b8ff" stroke="#63b8ff" points="579.18,-137.62 568.69,-139.04 577.78,-144.48 579.18,-137.62"/>
</a>
</g>
</g>
<!-- Node13 -->
<g id="Node000013" class="node">
<title>Node13</title>
<g id="a_Node000013"><a xlink:title=" ">
<polygon fill="#e0e0e0" stroke="#999999" points="671.5,-141 586.5,-141 586.5,-118 671.5,-118 671.5,-141"/>
<text text-anchor="middle" x="629" y="-125.8" font-family="Arial" font-size="14.00">nvs_flash.h</text>
</a>
</g>
</g>
<!-- Node2&#45;&gt;Node13 -->
<g id="edge14_Node000002_Node000013" class="edge">
<title>Node2&#45;&gt;Node13</title>
<g id="a_edge14_Node000002_Node000013"><a xlink:title=" ">
<path fill="none" stroke="#63b8ff" d="M790.22,-176.91C757.85,-167.59 710.56,-153.98 675.56,-143.9"/>
<polygon fill="#63b8ff" stroke="#63b8ff" points="676.16,-140.43 665.58,-141.03 674.22,-147.16 676.16,-140.43"/>
</a>
</g>
</g>
<!-- Node14 -->
<g id="Node000014" class="node">
<title>Node14</title>
<g id="a_Node000014"><a xlink:title=" ">
<polygon fill="#e0e0e0" stroke="#999999" points="758,-141 690,-141 690,-118 758,-118 758,-141"/>
<text text-anchor="middle" x="724" y="-125.8" font-family="Arial" font-size="14.00">esp_bt.h</text>
</a>
</g>
</g>
<!-- Node2&#45;&gt;Node14 -->
<g id="edge15_Node000002_Node000014" class="edge">
<title>Node2&#45;&gt;Node14</title>
<g id="a_edge15_Node000002_Node000014"><a xlink:title=" ">
<path fill="none" stroke="#63b8ff" d="M807.63,-176.78C792.09,-168.18 770.06,-155.99 752.51,-146.28"/>
<polygon fill="#63b8ff" stroke="#63b8ff" points="753.73,-142.95 743.29,-141.17 750.34,-149.08 753.73,-142.95"/>
</a>
</g>
</g>
<!-- Node15 -->
<g id="Node000015" class="node">
<title>Node15</title>
<g id="a_Node000015"><a xlink:title=" ">
<polygon fill="#e0e0e0" stroke="#999999" points="877.5,-141 776.5,-141 776.5,-118 877.5,-118 877.5,-141"/>
<text text-anchor="middle" x="827" y="-125.8" font-family="Arial" font-size="14.00">esp_bt_defs.h</text>
</a>
</g>
</g>
<!-- Node2&#45;&gt;Node15 -->
<g id="edge16_Node000002_Node000015" class="edge">
<title>Node2&#45;&gt;Node15</title>
<g id="a_edge16_Node000002_Node000015"><a xlink:title=" ">
<path fill="none" stroke="#63b8ff" d="M827,-176.78C827,-169.61 827,-159.95 827,-151.31"/>
<polygon fill="#63b8ff" stroke="#63b8ff" points="830.5,-151.17 827,-141.17 823.5,-151.17 830.5,-151.17"/>
</a>
</g>
</g>
<!-- Node16 -->
<g id="Node000016" class="node">
<title>Node16</title>
<g id="a_Node000016"><a xlink:title=" ">
<polygon fill="#e0e0e0" stroke="#999999" points="1002,-141 896,-141 896,-118 1002,-118 1002,-141"/>
<text text-anchor="middle" x="949" y="-125.8" font-family="Arial" font-size="14.00">esp_bt_main.h</text>
</a>
</g>
</g>
<!-- Node2&#45;&gt;Node16 -->
<g id="edge17_Node000002_Node000016" class="edge">
<title>Node2&#45;&gt;Node16</title>
<g id="a_edge17_Node000002_Node000016"><a xlink:title=" ">
<path fill="none" stroke="#63b8ff" d="M849.66,-176.91C868.66,-168.03 896.01,-155.26 917.21,-145.35"/>
<polygon fill="#63b8ff" stroke="#63b8ff" points="918.88,-148.43 926.46,-141.03 915.92,-142.09 918.88,-148.43"/>
</a>
</g>
</g>
<!-- Node17 -->
<g id="Node000017" class="node">
<title>Node17</title>
<g id="a_Node000017"><a xlink:title=" ">
<polygon fill="#e0e0e0" stroke="#999999" points="1151.5,-141 1020.5,-141 1020.5,-118 1151.5,-118 1151.5,-141"/>
<text text-anchor="middle" x="1086" y="-125.8" font-family="Arial" font-size="14.00">esp_gap_ble_api.h</text>
</a>
</g>
</g>
<!-- Node2&#45;&gt;Node17 -->
<g id="edge18_Node000002_Node000017" class="edge">
<title>Node2&#45;&gt;Node17</title>
<g id="a_edge18_Node000002_Node000017"><a xlink:title=" ">
<path fill="none" stroke="#63b8ff" d="M874.81,-176.98C918.11,-167.45 982.01,-153.39 1028.17,-143.23"/>
<polygon fill="#63b8ff" stroke="#63b8ff" points="1029.02,-146.62 1038.03,-141.06 1027.52,-139.79 1029.02,-146.62"/>
</a>
</g>
</g>
<!-- Node18 -->
<g id="Node000018" class="node">
<title>Node18</title>
<g id="a_Node000018"><a xlink:title=" ">
<polygon fill="#e0e0e0" stroke="#999999" points="1336,-141 1170,-141 1170,-118 1336,-118 1336,-141"/>
<text text-anchor="middle" x="1253" y="-125.8" font-family="Arial" font-size="14.00">esp_gatt_common_api.h</text>
</a>
</g>
</g>
<!-- Node2&#45;&gt;Node18 -->
<g id="edge19_Node000002_Node000018" class="edge">
<title>Node2&#45;&gt;Node18</title>
<g id="a_edge19_Node000002_Node000018"><a xlink:title=" ">
<path fill="none" stroke="#63b8ff" d="M881.1,-178.49C884.45,-177.97 887.77,-177.47 891,-177 982.17,-163.67 1086.56,-150.48 1159.74,-141.57"/>
<polygon fill="#63b8ff" stroke="#63b8ff" points="1160.35,-145.02 1169.86,-140.34 1159.51,-138.08 1160.35,-145.02"/>
</a>
</g>
</g>
<!-- Node19 -->
<g id="Node000019" class="node">
<title>Node19</title>
<g id="a_Node000019"><a xlink:title=" ">
<polygon fill="#e0e0e0" stroke="#999999" points="1466,-141 1354,-141 1354,-118 1466,-118 1466,-141"/>
<text text-anchor="middle" x="1410" y="-125.8" font-family="Arial" font-size="14.00">esp_gattc_api.h</text>
</a>
</g>
</g>
<!-- Node2&#45;&gt;Node19 -->
<g id="edge20_Node000002_Node000019" class="edge">
<title>Node2&#45;&gt;Node19</title>
<g id="a_edge20_Node000002_Node000019"><a xlink:title=" ">
<path fill="none" stroke="#63b8ff" d="M881.08,-178.3C884.43,-177.83 887.76,-177.39 891,-177 1088.7,-152.99 1142.32,-164.76 1343.66,-141.08"/>
<polygon fill="#63b8ff" stroke="#63b8ff" points="1344.15,-144.54 1353.67,-139.89 1343.33,-137.59 1344.15,-144.54"/>
</a>
</g>
</g>
<!-- Node20 -->
<g id="Node000020" class="node">
<title>Node20</title>
<g id="a_Node000020"><a xlink:title=" ">
<polygon fill="#e0e0e0" stroke="#999999" points="1596,-141 1484,-141 1484,-118 1596,-118 1596,-141"/>
<text text-anchor="middle" x="1540" y="-125.8" font-family="Arial" font-size="14.00">esp_gatts_api.h</text>
</a>
</g>
</g>
<!-- Node2&#45;&gt;Node20 -->
<g id="edge21_Node000002_Node000020" class="edge">
<title>Node2&#45;&gt;Node20</title>
<g id="a_edge21_Node000002_Node000020"><a xlink:title=" ">
<path fill="none" stroke="#63b8ff" d="M881.07,-178.24C884.42,-177.78 887.76,-177.37 891,-177 1146.14,-148.28 1214.81,-169.22 1473.6,-141.06"/>
<polygon fill="#63b8ff" stroke="#63b8ff" points="1474.12,-144.52 1483.68,-139.95 1473.35,-137.56 1474.12,-144.52"/>
</a>
</g>
</g>
<!-- Node21 -->
<g id="Node000021" class="node">
<title>Node21</title>
<g id="a_Node000021"><a xlink:href="RtosMutex_8h.html" target="_top" xlink:title="Cross&#45;platform RTOS mutex and synchronization primitives.">
<polygon fill="white" stroke="#666666" points="1707.5,-141 1614.5,-141 1614.5,-118 1707.5,-118 1707.5,-141"/>
<text text-anchor="middle" x="1661" y="-125.8" font-family="Arial" font-size="14.00">RtosMutex.h</text>
</a>
</g>
</g>
<!-- Node2&#45;&gt;Node21 -->
<g id="edge22_Node000002_Node000021" class="edge">
<title>Node2&#45;&gt;Node21</title>
<g id="a_edge22_Node000002_Node000021"><a xlink:title=" ">
<path fill="none" stroke="#63b8ff" d="M881.06,-178.19C884.42,-177.75 887.75,-177.35 891,-177 1203.54,-143.59 1287.67,-177.62 1603.94,-140.96"/>
<polygon fill="#63b8ff" stroke="#63b8ff" points="1604.8,-144.38 1614.32,-139.74 1603.98,-137.43 1604.8,-144.38"/>
</a>
</g>
</g>
<!-- Node27 -->
<g id="Node000027" class="node">
<title>Node27</title>
<g id="a_Node000027"><a xlink:title=" ">
<polygon fill="#e0e0e0" stroke="#999999" points="1770,-141 1726,-141 1726,-118 1770,-118 1770,-141"/>
<text text-anchor="middle" x="1748" y="-125.8" font-family="Arial" font-size="14.00">map</text>
</a>
</g>
</g>
<!-- Node2&#45;&gt;Node27 -->
<g id="edge30_Node000002_Node000027" class="edge">
<title>Node2&#45;&gt;Node27</title>
<g id="a_edge30_Node000002_Node000027"><a xlink:title=" ">
<path fill="none" stroke="#63b8ff" d="M881.06,-178.17C884.42,-177.73 887.75,-177.34 891,-177 1253.21,-139.53 1354,-207.37 1715.89,-140.7"/>
<polygon fill="#63b8ff" stroke="#63b8ff" points="1716.66,-144.11 1725.85,-138.84 1715.38,-137.23 1716.66,-144.11"/>
</a>
</g>
</g>
<!-- Node3&#45;&gt;Node4 -->
<g id="edge3_Node000003_Node000004" class="edge">
<title>Node3&#45;&gt;Node4</title>
<g id="a_edge3_Node000003_Node000004"><a xlink:title=" ">
<path fill="none" stroke="#63b8ff" d="M289.32,-117.98C242.31,-108.41 172.84,-94.27 122.89,-84.1"/>
<polygon fill="#63b8ff" stroke="#63b8ff" points="123.35,-80.62 112.85,-82.06 121.96,-87.48 123.35,-80.62"/>
</a>
</g>
</g>
<!-- Node5 -->
<g id="Node000005" class="node">
<title>Node5</title>
<g id="a_Node000005"><a xlink:title=" ">
<polygon fill="#e0e0e0" stroke="#999999" points="422,-23 366,-23 366,0 422,0 422,-23"/>
<text text-anchor="middle" x="394" y="-7.8" font-family="Arial" font-size="14.00">cstdint</text>
</a>
</g>
</g>
<!-- Node3&#45;&gt;Node5 -->
<g id="edge7_Node000003_Node000005" class="edge">
<title>Node3&#45;&gt;Node5</title>
<g id="a_edge7_Node000003_Node000005"><a xlink:title=" ">
<path fill="none" stroke="#63b8ff" d="M350.62,-117.77C358.21,-108.79 368.57,-95.33 375,-82 382.46,-66.53 387.38,-47.66 390.34,-33.49"/>
<polygon fill="#63b8ff" stroke="#63b8ff" points="393.85,-33.77 392.31,-23.29 386.98,-32.45 393.85,-33.77"/>
</a>
</g>
</g>
<!-- Node7 -->
<g id="Node000007" class="node">
<title>Node7</title>
<g id="a_Node000007"><a xlink:title=" ">
<polygon fill="#e0e0e0" stroke="#999999" points="298,-82 242,-82 242,-59 298,-59 298,-82"/>
<text text-anchor="middle" x="270" y="-66.8" font-family="Arial" font-size="14.00">cctype</text>
</a>
</g>
</g>
<!-- Node3&#45;&gt;Node7 -->
<g id="edge6_Node000003_Node000007" class="edge">
<title>Node3&#45;&gt;Node7</title>
<g id="a_edge6_Node000003_Node000007"><a xlink:title=" ">
<path fill="none" stroke="#63b8ff" d="M327.65,-117.78C317.43,-109.58 303.14,-98.11 291.35,-88.64"/>
<polygon fill="#63b8ff" stroke="#63b8ff" points="293.28,-85.7 283.29,-82.17 288.9,-91.16 293.28,-85.7"/>
</a>
</g>
</g>
<!-- Node3&#45;&gt;Node8 -->
<g id="edge8_Node000003_Node000008" class="edge">
<title>Node3&#45;&gt;Node8</title>
<g id="a_edge8_Node000003_Node000008"><a xlink:title=" ">
<path fill="none" stroke="#63b8ff" d="M362.92,-117.91C381.22,-109.07 407.51,-96.37 427.97,-86.49"/>
<polygon fill="#63b8ff" stroke="#63b8ff" points="429.72,-89.53 437.2,-82.03 426.67,-83.23 429.72,-89.53"/>
</a>
</g>
</g>
<!-- Node9 -->
<g id="Node000009" class="node">
<title>Node9</title>
<g id="a_Node000009"><a xlink:title=" ">
<polygon fill="#e0e0e0" stroke="#999999" points="366,-82 316,-82 316,-59 366,-59 366,-82"/>
<text text-anchor="middle" x="341" y="-66.8" font-family="Arial" font-size="14.00">string</text>
</a>
</g>
</g>
<!-- Node3&#45;&gt;Node9 -->
<g id="edge9_Node000003_Node000009" class="edge">
<title>Node3&#45;&gt;Node9</title>
<g id="a_edge9_Node000003_Node000009"><a xlink:title=" ">
<path fill="none" stroke="#63b8ff" d="M341,-117.78C341,-110.61 341,-100.95 341,-92.31"/>
<polygon fill="#63b8ff" stroke="#63b8ff" points="344.5,-92.17 341,-82.17 337.5,-92.17 344.5,-92.17"/>
</a>
</g>
</g>
<!-- Node10 -->
<g id="Node000010" class="node">
<title>Node10</title>
<g id="a_Node000010"><a xlink:title=" ">
<polygon fill="#e0e0e0" stroke="#999999" points="224,-82 140,-82 140,-59 224,-59 224,-82"/>
<text text-anchor="middle" x="182" y="-66.8" font-family="Arial" font-size="14.00">string_view</text>
</a>
</g>
</g>
<!-- Node3&#45;&gt;Node10 -->
<g id="edge10_Node000003_Node000010" class="edge">
<title>Node3&#45;&gt;Node10</title>
<g id="a_edge10_Node000003_Node000010"><a xlink:title=" ">
<path fill="none" stroke="#63b8ff" d="M311.47,-117.91C285.92,-108.75 248.8,-95.45 220.85,-85.43"/>
<polygon fill="#63b8ff" stroke="#63b8ff" points="221.97,-82.11 211.38,-82.03 219.61,-88.7 221.97,-82.11"/>
</a>
</g>
</g>
<!-- Node3&#45;&gt;Node11 -->
<g id="edge11_Node000003_Node000011" class="edge">
<title>Node3&#45;&gt;Node11</title>
<g id="a_edge11_Node000003_Node000011"><a xlink:title=" ">
<path fill="none" stroke="#63b8ff" d="M378.48,-117.96C409.65,-109.17 455.45,-96.22 504.44,-82.15"/>
<polygon fill="#63b8ff" stroke="#63b8ff" points="505.63,-85.45 514.27,-79.32 503.69,-78.72 505.63,-85.45"/>
</a>
</g>
</g>
<!-- Node4&#45;&gt;Node5 -->
<g id="edge4_Node000004_Node000005" class="edge">
<title>Node4&#45;&gt;Node5</title>
<g id="a_edge4_Node000004_Node000005"><a xlink:title=" ">
<path fill="none" stroke="#63b8ff" d="M122.08,-59.05C190.31,-47.37 298.66,-28.82 355.81,-19.04"/>
<polygon fill="#63b8ff" stroke="#63b8ff" points="356.6,-22.45 365.87,-17.32 355.42,-15.55 356.6,-22.45"/>
</a>
</g>
</g>
<!-- Node6 -->
<g id="Node000006" class="node">
<title>Node6</title>
<g id="a_Node000006"><a xlink:title=" ">
<polygon fill="#e0e0e0" stroke="#999999" points="85,-23 37,-23 37,0 85,0 85,-23"/>
<text text-anchor="middle" x="61" y="-7.8" font-family="Arial" font-size="14.00">limits</text>
</a>
</g>
</g>
<!-- Node4&#45;&gt;Node6 -->
<g id="edge5_Node000004_Node000006" class="edge">
<title>Node4&#45;&gt;Node6</title>
<g id="a_edge5_Node000004_Node000006"><a xlink:title=" ">
<path fill="none" stroke="#63b8ff" d="M61,-58.78C61,-51.61 61,-41.95 61,-33.31"/>
<polygon fill="#63b8ff" stroke="#63b8ff" points="64.5,-33.17 61,-23.17 57.5,-33.17 64.5,-33.17"/>
</a>
</g>
</g>
<!-- Node21&#45;&gt;Node5 -->
<g id="edge28_Node000021_Node000005" class="edge">
<title>Node21&#45;&gt;Node5</title>
<g id="a_edge28_Node000021_Node000005"><a xlink:title=" ">
<path fill="none" stroke="#63b8ff" d="M1614.31,-119.39C1611.16,-118.89 1608.04,-118.42 1605,-118 1145.58,-55.07 582.67,-22.45 432.38,-14.46"/>
<polygon fill="#63b8ff" stroke="#63b8ff" points="432.45,-10.96 422.28,-13.93 432.08,-17.95 432.45,-10.96"/>
</a>
</g>
</g>
<!-- Node22 -->
<g id="Node000022" class="node">
<title>Node22</title>
<g id="a_Node000022"><a xlink:href="McuSelect_8h.html" target="_top" xlink:title="Centralized MCU platform selection and configuration header.">
<polygon fill="white" stroke="#666666" points="1420,-82 1328,-82 1328,-59 1420,-59 1420,-82"/>
<text text-anchor="middle" x="1374" y="-66.8" font-family="Arial" font-size="14.00">McuSelect.h</text>
</a>
</g>
</g>
<!-- Node21&#45;&gt;Node22 -->
<g id="edge23_Node000021_Node000022" class="edge">
<title>Node21&#45;&gt;Node22</title>
<g id="a_edge23_Node000021_Node000022"><a xlink:title=" ">
<path fill="none" stroke="#63b8ff" d="M1614.25,-119.22C1563.96,-109.23 1484,-93.35 1430.3,-82.68"/>
<polygon fill="#63b8ff" stroke="#63b8ff" points="1430.74,-79.2 1420.25,-80.69 1429.38,-86.07 1430.74,-79.2"/>
</a>
</g>
</g>
<!-- Node23 -->
<g id="Node000023" class="node">
<title>Node23</title>
<g id="a_Node000023"><a xlink:title=" ">
<polygon fill="#e0e0e0" stroke="#999999" points="1581.5,-82 1438.5,-82 1438.5,-59 1581.5,-59 1581.5,-82"/>
<text text-anchor="middle" x="1510" y="-66.8" font-family="Arial" font-size="14.00">freertos/FreeRTOS.h</text>
</a>
</g>
</g>
<!-- Node21&#45;&gt;Node23 -->
<g id="edge24_Node000021_Node000023" class="edge">
<title>Node21&#45;&gt;Node23</title>
<g id="a_edge24_Node000021_Node000023"><a xlink:title=" ">
<path fill="none" stroke="#63b8ff" d="M1632.95,-117.91C1608.9,-108.83 1574.05,-95.68 1547.59,-85.69"/>
<polygon fill="#63b8ff" stroke="#63b8ff" points="1548.49,-82.29 1537.9,-82.03 1546.02,-88.84 1548.49,-82.29"/>
</a>
</g>
</g>
<!-- Node24 -->
<g id="Node000024" class="node">
<title>Node24</title>
<g id="a_Node000024"><a xlink:title=" ">
<polygon fill="#e0e0e0" stroke="#999999" points="1722,-82 1600,-82 1600,-59 1722,-59 1722,-82"/>
<text text-anchor="middle" x="1661" y="-66.8" font-family="Arial" font-size="14.00">freertos/semphr.h</text>
</a>
</g>
</g>
<!-- Node21&#45;&gt;Node24 -->
<g id="edge25_Node000021_Node000024" class="edge">
<title>Node21&#45;&gt;Node24</title>
<g id="a_edge25_Node000021_Node000024"><a xlink:title=" ">
<path fill="none" stroke="#63b8ff" d="M1661,-117.78C1661,-110.61 1661,-100.95 1661,-92.31"/>
<polygon fill="#63b8ff" stroke="#63b8ff" points="1664.5,-92.17 1661,-82.17 1657.5,-92.17 1664.5,-92.17"/>
</a>
</g>
</g>
<!-- Node25 -->
<g id="Node000025" class="node">
<title>Node25</title>
<g id="a_Node000025"><a xlink:title=" ">
<polygon fill="#e0e0e0" stroke="#999999" points="1842,-82 1740,-82 1740,-59 1842,-59 1842,-82"/>
<text text-anchor="middle" x="1791" y="-66.8" font-family="Arial" font-size="14.00">freertos/task.h</text>
</a>
</g>
</g>
<!-- Node21&#45;&gt;Node25 -->
<g id="edge26_Node000021_Node000025" class="edge">
<title>Node21&#45;&gt;Node25</title>
<g id="a_edge26_Node000021_Node000025"><a xlink:title=" ">
<path fill="none" stroke="#63b8ff" d="M1685.15,-117.91C1705.58,-108.95 1735.07,-96.02 1757.73,-86.09"/>
<polygon fill="#63b8ff" stroke="#63b8ff" points="1759.23,-89.25 1766.98,-82.03 1756.42,-82.84 1759.23,-89.25"/>
</a>
</g>
</g>
<!-- Node26 -->
<g id="Node000026" class="node">
<title>Node26</title>
<g id="a_Node000026"><a xlink:title=" ">
<polygon fill="#e0e0e0" stroke="#999999" points="1917.5,-82 1860.5,-82 1860.5,-59 1917.5,-59 1917.5,-82"/>
<text text-anchor="middle" x="1889" y="-66.8" font-family="Arial" font-size="14.00">atomic</text>
</a>
</g>
</g>
<!-- Node21&#45;&gt;Node26 -->
<g id="edge27_Node000021_Node000026" class="edge">
<title>Node21&#45;&gt;Node26</title>
<g id="a_edge27_Node000021_Node000026"><a xlink:title=" ">
<path fill="none" stroke="#63b8ff" d="M1705.63,-117.97C1742.01,-109.3 1794.96,-96.48 1850.38,-82.11"/>
<polygon fill="#63b8ff" stroke="#63b8ff" points="1851.59,-85.41 1860.39,-79.5 1849.83,-78.63 1851.59,-85.41"/>
</a>
</g>
</g>
</g>
</svg>

<g id="navigator" transform="translate(0 0)" fill="#404254">
  <rect fill="#f2f5e9" fill-opacity="0.5" stroke="#606060" stroke-width=".5" x="0" y="0" width="60" height="60"/>
  <use id="zoomplus" xlink:href="#zoomPlus" x="17" y="9" onmousedown="handleZoom(evt,'in')"/>
  <use id="zoomminus" xlink:href="#zoomMin" x="42" y="9" onmousedown="handleZoom(evt,'out')"/>
  <use id="reset" xlink:href="#resetDef" x="30" y="36" onmousedown="handleReset()"/>
   <use id="arrowup" xlink:href="#arrowUp" x="0" y="0" onmousedown="handlePan(0,-1)"/>
  <use id="arrowright" xlink:href="#arrowRight" x="0" y="0" onmousedown="handlePan(1,0)"/>
  <use id="arrowdown" xlink:href="#arrowDown" x="0" y="0" onmousedown="handlePan(0,1)"/>
  <use id="arrowleft" xlink:href="#arrowLeft" x="0" y="0" onmousedown="handlePan(-1,0)"/>
</g>
<svg viewBox="0 0 15 15" width="100%" height="30px" preserveAspectRatio="xMaxYMin meet">
 <g id="arrow_out" transform="scale(0.3 0.3)">
  <a xlink:href="EspBluetooth_8cpp__incl_org.svg" target="_base">
   <rect id="button" ry="5" rx="5" y="6" x="6" height="38" width="38"
        fill="#f2f5e9" fill-opacity="0.5" stroke="#606060" stroke-width="1.0"/>
   <path id="arrow"
     d="M 11.500037,31.436501 C 11.940474,20.09759 22.043105,11.32322 32.158766,21.979434 L 37.068811,17.246167 C 37.068811,17.246167 37.088388,32 37.088388,32 L 22.160133,31.978069 C 22.160133,31.978069 26.997745,27.140456 26.997745,27.140456 C 18.528582,18.264221 13.291696,25.230495 11.500037,31.436501 z"
     style="fill:#404040;"/>
  </a>
 </g>
</svg>

<style type='text/css'>
<![CDATA[
[data-mouse-over-selected='false'] { opacity: 0.7; }
[data-mouse-over-selected='true']  { opacity: 1.0; }
]]>
</style>
<script type="application/ecmascript"><![CDATA[
document.addEventListener('DOMContentLoaded', (event) => {
  highlightEdges();
  highlightAdjacentNodes();
});
]]></script>
</svg>
