<?xml version="1.0" encoding="UTF-8" standalone="no"?>
<!DOCTYPE svg PUBLIC "-//W3C//DTD SVG 1.1//EN"
 "http://www.w3.org/Graphics/SVG/1.1/DTD/svg11.dtd">
<!-- Generated by graphviz version 2.43.0 (0)
 -->
<!-- Title: src/mcu/esp32/EspNvs.cpp Pages: 1 -->
<!--zoomable 326 -->

<svg id="main" version="1.1" xmlns="http://www.w3.org/2000/svg" xmlns:xlink="http://www.w3.org/1999/xlink" xml:space="preserve" onload="init(evt)">
<style type="text/css"><![CDATA[
.node, .edge {opacity: 0.7;}
.node.selected, .edge.selected {opacity: 1;}
.edge:hover path { stroke: red; }
.edge:hover polygon { stroke: red; fill: red; }
]]></style>

<defs>
  <circle id="rim" cx="0" cy="0" r="7"/>
  <circle id="rim2" cx="0" cy="0" r="3.5"/>
  <g id="zoomPlus">
    <use xlink:href="#rim" fill="#404040"><set attributeName="fill" to="#808080" begin="zoomplus.mouseover" end="zoomplus.mouseout"/></use>
    <path d="M-4,0h8M0,-4v8" fill="none" stroke="white" stroke-width="1.5" pointer-events="none"/>
  </g>
  <g id="zoomMin">
    <use xlink:href="#rim" fill="#404040"><set attributeName="fill" to="#808080" begin="zoomminus.mouseover" end="zoomminus.mouseout"/></use>
    <path d="M-4,0h8" fill="none" stroke="white" stroke-width="1.5" pointer-events="none"/>
  </g>
  <g id="arrowUp" transform="translate(30 24)">
    <use xlink:href="#rim"/>
    <path pointer-events="none" fill="none" stroke="white" stroke-width="1.5" d="M0,-3.0v7 M-2.5,-0.5L0,-3.0L2.5,-0.5"/>
  </g>
  <g id="arrowRight" transform="rotate(90) translate(36 -43)">
    <use xlink:href="#rim"/>
    <path pointer-events="none" fill="none" stroke="white" stroke-width="1.5" d="M0,-3.0v7 M-2.5,-0.5L0,-3.0L2.5,-0.5"/>
  </g>
  <g id="arrowDown" transform="rotate(180) translate(-30 -48)">
    <use xlink:href="#rim"/>
    <path pointer-events="none" fill="none" stroke="white" stroke-width="1.5" d="M0,-3.0v7 M-2.5,-0.5L0,-3.0L2.5,-0.5"/>
  </g>
  <g id="arrowLeft" transform="rotate(270) translate(-36 17)">
    <use xlink:href="#rim"/>
    <path pointer-events="none" fill="none" stroke="white" stroke-width="1.5" d="M0,-3.0v7 M-2.5,-0.5L0,-3.0L2.5,-0.5"/>
  </g>
  <g id="resetDef">
    <use xlink:href="#rim2" fill="#404040"><set attributeName="fill" to="#808080" begin="reset.mouseover" end="reset.mouseout"/></use>
  </g>
</defs>
<script type="application/ecmascript">
var viewWidth = 592;
var viewHeight = 326;
var sectionId = 'dynsection-0';
</script>
<script type="application/ecmascript" xlink:href="svg.min.js"/>
<svg id="graph" class="graph">
<g id="viewport">
<title>src/mcu/esp32/EspNvs.cpp</title>
<!-- Node1 -->
<g id="Node000001" class="node">
<title>Node1</title>
<g id="a_Node000001"><a xlink:title="World&#45;class ESP32&#45;C6 NVS implementation with ESP&#45;IDF v5.5+ advanced features.">
<polygon fill="#999999" stroke="#666666" points="466.43,-318 285.43,-318 285.43,-295 466.43,-295 466.43,-318"/>
<text text-anchor="middle" x="375.93" y="-302.8" font-family="Arial" font-size="14.00">src/mcu/esp32/EspNvs.cpp</text>
</a>
</g>
</g>
<!-- Node2 -->
<g id="Node000002" class="node">
<title>Node2</title>
<g id="a_Node000002"><a xlink:href="EspNvs_8h.html" target="_top" xlink:title="World&#45;class ESP32&#45;C6 NVS storage implementation with ESP&#45;IDF v5.5+ features.">
<polygon fill="white" stroke="#666666" points="342.93,-259 268.93,-259 268.93,-236 342.93,-236 342.93,-259"/>
<text text-anchor="middle" x="305.93" y="-243.8" font-family="Arial" font-size="14.00">EspNvs.h</text>
</a>
</g>
</g>
<!-- Node1&#45;&gt;Node2 -->
<g id="edge1_Node000001_Node000002" class="edge">
<title>Node1&#45;&gt;Node2</title>
<g id="a_edge1_Node000001_Node000002"><a xlink:title=" ">
<path fill="none" stroke="#63b8ff" d="M362.76,-294.78C352.69,-286.58 338.6,-275.11 326.98,-265.64"/>
<polygon fill="#63b8ff" stroke="#63b8ff" points="329,-262.77 319.04,-259.17 324.58,-268.2 329,-262.77"/>
</a>
</g>
</g>
<!-- Node13 -->
<g id="Node000013" class="node">
<title>Node13</title>
<g id="a_Node000013"><a xlink:title=" ">
<polygon fill="#e0e0e0" stroke="#999999" points="523.93,-141 467.93,-141 467.93,-118 523.93,-118 523.93,-141"/>
<text text-anchor="middle" x="495.93" y="-125.8" font-family="Arial" font-size="14.00">cstring</text>
</a>
</g>
</g>
<!-- Node1&#45;&gt;Node13 -->
<g id="edge22_Node000001_Node000013" class="edge">
<title>Node1&#45;&gt;Node13</title>
<g id="a_edge22_Node000001_Node000013"><a xlink:title=" ">
<path fill="none" stroke="#63b8ff" d="M383.25,-294.82C403.05,-265.95 457.81,-186.08 482.98,-149.39"/>
<polygon fill="#63b8ff" stroke="#63b8ff" points="485.93,-151.27 488.7,-141.04 480.16,-147.31 485.93,-151.27"/>
</a>
</g>
</g>
<!-- Node3 -->
<g id="Node000003" class="node">
<title>Node3</title>
<g id="a_Node000003"><a xlink:href="BaseNvs_8h.html" target="_top" xlink:title="Abstract base class for Non&#45;Volatile Storage implementations in the HardFOC system.">
<polygon fill="white" stroke="#666666" points="449.93,-141 367.93,-141 367.93,-118 449.93,-118 449.93,-141"/>
<text text-anchor="middle" x="408.93" y="-125.8" font-family="Arial" font-size="14.00">BaseNvs.h</text>
</a>
</g>
</g>
<!-- Node2&#45;&gt;Node3 -->
<g id="edge2_Node000002_Node000003" class="edge">
<title>Node2&#45;&gt;Node3</title>
<g id="a_edge2_Node000002_Node000003"><a xlink:title=" ">
<path fill="none" stroke="#63b8ff" d="M338.04,-235.83C355.74,-228.4 376.74,-216.78 389.93,-200 400.89,-186.05 405.54,-166.22 407.5,-151.31"/>
<polygon fill="#63b8ff" stroke="#63b8ff" points="411.02,-151.35 408.54,-141.05 404.05,-150.64 411.02,-151.35"/>
</a>
</g>
</g>
<!-- Node5 -->
<g id="Node000005" class="node">
<title>Node5</title>
<g id="a_Node000005"><a xlink:title=" ">
<polygon fill="#e0e0e0" stroke="#999999" points="161.93,-23 105.93,-23 105.93,0 161.93,0 161.93,-23"/>
<text text-anchor="middle" x="133.93" y="-7.8" font-family="Arial" font-size="14.00">cstdint</text>
</a>
</g>
</g>
<!-- Node2&#45;&gt;Node5 -->
<g id="edge21_Node000002_Node000005" class="edge">
<title>Node2&#45;&gt;Node5</title>
<g id="a_edge21_Node000002_Node000005"><a xlink:title=" ">
<path fill="none" stroke="#63b8ff" d="M268.73,-246.32C202.43,-243.73 65.16,-227.6 4.93,-141 -12.55,-115.88 22.88,-68.03 31.93,-59 49.52,-41.43 74.96,-29.82 96.03,-22.59"/>
<polygon fill="#63b8ff" stroke="#63b8ff" points="97.22,-25.88 105.67,-19.48 95.07,-19.22 97.22,-25.88"/>
</a>
</g>
</g>
<!-- Node8 -->
<g id="Node000008" class="node">
<title>Node8</title>
<g id="a_Node000008"><a xlink:href="PlatformMutex_8h.html" target="_top" xlink:title="Cross&#45;platform mutex and synchronization primitives with pluggable backend.">
<polygon fill="white" stroke="#666666" points="129.93,-141 13.93,-141 13.93,-118 129.93,-118 129.93,-141"/>
<text text-anchor="middle" x="71.93" y="-125.8" font-family="Arial" font-size="14.00">PlatformMutex.h</text>
</a>
</g>
</g>
<!-- Node2&#45;&gt;Node8 -->
<g id="edge8_Node000002_Node000008" class="edge">
<title>Node2&#45;&gt;Node8</title>
<g id="a_edge8_Node000002_Node000008"><a xlink:title=" ">
<path fill="none" stroke="#63b8ff" d="M284.33,-235.79C242.44,-215.03 150.03,-169.22 102.1,-145.46"/>
<polygon fill="#63b8ff" stroke="#63b8ff" points="103.65,-142.32 93.13,-141.01 100.54,-148.59 103.65,-142.32"/>
</a>
</g>
</g>
<!-- Node10 -->
<g id="Node000010" class="node">
<title>Node10</title>
<g id="a_Node000010"><a xlink:href="EspTypes__NVS_8h.html" target="_top" xlink:title="ESP32 NVS type definitions for hardware abstraction.">
<polygon fill="white" stroke="#666666" points="380.93,-200 230.93,-200 230.93,-177 380.93,-177 380.93,-200"/>
<text text-anchor="middle" x="305.93" y="-184.8" font-family="Arial" font-size="14.00">utils/EspTypes_NVS.h</text>
</a>
</g>
</g>
<!-- Node2&#45;&gt;Node10 -->
<g id="edge11_Node000002_Node000010" class="edge">
<title>Node2&#45;&gt;Node10</title>
<g id="a_edge11_Node000002_Node000010"><a xlink:title=" ">
<path fill="none" stroke="#63b8ff" d="M305.93,-235.78C305.93,-228.61 305.93,-218.95 305.93,-210.31"/>
<polygon fill="#63b8ff" stroke="#63b8ff" points="309.43,-210.17 305.93,-200.17 302.43,-210.17 309.43,-210.17"/>
</a>
</g>
</g>
<!-- Node4 -->
<g id="Node000004" class="node">
<title>Node4</title>
<g id="a_Node000004"><a xlink:href="HardwareTypes_8h.html" target="_top" xlink:title="Platform&#45;agnostic hardware type definitions for the HardFOC system.">
<polygon fill="white" stroke="#666666" points="443.93,-82 321.93,-82 321.93,-59 443.93,-59 443.93,-82"/>
<text text-anchor="middle" x="382.93" y="-66.8" font-family="Arial" font-size="14.00">HardwareTypes.h</text>
</a>
</g>
</g>
<!-- Node3&#45;&gt;Node4 -->
<g id="edge3_Node000003_Node000004" class="edge">
<title>Node3&#45;&gt;Node4</title>
<g id="a_edge3_Node000003_Node000004"><a xlink:title=" ">
<path fill="none" stroke="#63b8ff" d="M404.04,-117.78C400.66,-110.37 396.07,-100.3 392.03,-91.45"/>
<polygon fill="#63b8ff" stroke="#63b8ff" points="395.13,-89.82 387.8,-82.17 388.76,-92.72 395.13,-89.82"/>
</a>
</g>
</g>
<!-- Node3&#45;&gt;Node5 -->
<g id="edge6_Node000003_Node000005" class="edge">
<title>Node3&#45;&gt;Node5</title>
<g id="a_edge6_Node000003_Node000005"><a xlink:title=" ">
<path fill="none" stroke="#63b8ff" d="M423.95,-117.95C442.41,-103.73 469.37,-78.01 452.93,-59 434.77,-38.01 253.26,-21.63 172.42,-15.32"/>
<polygon fill="#63b8ff" stroke="#63b8ff" points="172.4,-11.81 162.16,-14.53 171.86,-18.79 172.4,-11.81"/>
</a>
</g>
</g>
<!-- Node7 -->
<g id="Node000007" class="node">
<title>Node7</title>
<g id="a_Node000007"><a xlink:title=" ">
<polygon fill="#e0e0e0" stroke="#999999" points="583.93,-82 499.93,-82 499.93,-59 583.93,-59 583.93,-82"/>
<text text-anchor="middle" x="541.93" y="-66.8" font-family="Arial" font-size="14.00">string_view</text>
</a>
</g>
</g>
<!-- Node3&#45;&gt;Node7 -->
<g id="edge7_Node000003_Node000007" class="edge">
<title>Node3&#45;&gt;Node7</title>
<g id="a_edge7_Node000003_Node000007"><a xlink:title=" ">
<path fill="none" stroke="#63b8ff" d="M433.63,-117.91C454.54,-108.95 484.7,-96.02 507.89,-86.09"/>
<polygon fill="#63b8ff" stroke="#63b8ff" points="509.54,-89.19 517.36,-82.03 506.79,-82.75 509.54,-89.19"/>
</a>
</g>
</g>
<!-- Node4&#45;&gt;Node5 -->
<g id="edge4_Node000004_Node000005" class="edge">
<title>Node4&#45;&gt;Node5</title>
<g id="a_edge4_Node000004_Node000005"><a xlink:title=" ">
<path fill="none" stroke="#63b8ff" d="M336.97,-58.98C289.51,-48.12 216.33,-31.36 172,-21.22"/>
<polygon fill="#63b8ff" stroke="#63b8ff" points="172.72,-17.79 162.19,-18.97 171.16,-24.61 172.72,-17.79"/>
</a>
</g>
</g>
<!-- Node6 -->
<g id="Node000006" class="node">
<title>Node6</title>
<g id="a_Node000006"><a xlink:title=" ">
<polygon fill="#e0e0e0" stroke="#999999" points="406.93,-23 358.93,-23 358.93,0 406.93,0 406.93,-23"/>
<text text-anchor="middle" x="382.93" y="-7.8" font-family="Arial" font-size="14.00">limits</text>
</a>
</g>
</g>
<!-- Node4&#45;&gt;Node6 -->
<g id="edge5_Node000004_Node000006" class="edge">
<title>Node4&#45;&gt;Node6</title>
<g id="a_edge5_Node000004_Node000006"><a xlink:title=" ">
<path fill="none" stroke="#63b8ff" d="M382.93,-58.78C382.93,-51.61 382.93,-41.95 382.93,-33.31"/>
<polygon fill="#63b8ff" stroke="#63b8ff" points="386.43,-33.17 382.93,-23.17 379.43,-33.17 386.43,-33.17"/>
</a>
</g>
</g>
<!-- Node8&#45;&gt;Node5 -->
<g id="edge10_Node000008_Node000005" class="edge">
<title>Node8&#45;&gt;Node5</title>
<g id="a_edge10_Node000008_Node000005"><a xlink:title=" ">
<path fill="none" stroke="#63b8ff" d="M60.15,-117.75C46.29,-103.74 26.63,-78.72 38.93,-59 51.37,-39.05 75.14,-27.42 95.78,-20.79"/>
<polygon fill="#63b8ff" stroke="#63b8ff" points="96.99,-24.08 105.6,-17.91 95.02,-17.36 96.99,-24.08"/>
</a>
</g>
</g>
<!-- Node9 -->
<g id="Node000009" class="node">
<title>Node9</title>
<g id="a_Node000009"><a xlink:title=" ">
<polygon fill="#e0e0e0" stroke="#999999" points="105.43,-82 48.43,-82 48.43,-59 105.43,-59 105.43,-82"/>
<text text-anchor="middle" x="76.93" y="-66.8" font-family="Arial" font-size="14.00">atomic</text>
</a>
</g>
</g>
<!-- Node8&#45;&gt;Node9 -->
<g id="edge9_Node000008_Node000009" class="edge">
<title>Node8&#45;&gt;Node9</title>
<g id="a_edge9_Node000008_Node000009"><a xlink:title=" ">
<path fill="none" stroke="#63b8ff" d="M72.87,-117.78C73.5,-110.61 74.34,-100.95 75.1,-92.31"/>
<polygon fill="#63b8ff" stroke="#63b8ff" points="78.6,-92.44 75.99,-82.17 71.63,-91.83 78.6,-92.44"/>
</a>
</g>
</g>
<!-- Node10&#45;&gt;Node3 -->
<g id="edge12_Node000010_Node000003" class="edge">
<title>Node10&#45;&gt;Node3</title>
<g id="a_edge12_Node000010_Node000003"><a xlink:title=" ">
<path fill="none" stroke="#63b8ff" d="M325.3,-176.78C340.84,-168.18 362.87,-155.99 380.42,-146.28"/>
<polygon fill="#63b8ff" stroke="#63b8ff" points="382.59,-149.08 389.64,-141.17 379.2,-142.95 382.59,-149.08"/>
</a>
</g>
</g>
<!-- Node10&#45;&gt;Node4 -->
<g id="edge18_Node000010_Node000004" class="edge">
<title>Node10&#45;&gt;Node4</title>
<g id="a_edge18_Node000010_Node000004"><a xlink:title=" ">
<path fill="none" stroke="#63b8ff" d="M313.03,-176.79C326.04,-157.2 353.84,-115.32 370.19,-90.69"/>
<polygon fill="#63b8ff" stroke="#63b8ff" points="373.22,-92.45 375.84,-82.18 367.39,-88.58 373.22,-92.45"/>
</a>
</g>
</g>
<!-- Node11 -->
<g id="Node000011" class="node">
<title>Node11</title>
<g id="a_Node000011"><a xlink:href="EspTypes__Base_8h.html" target="_top" xlink:title="ESP32 base type definitions for hardware abstraction.">
<polygon fill="white" stroke="#666666" points="273.43,-141 148.43,-141 148.43,-118 273.43,-118 273.43,-141"/>
<text text-anchor="middle" x="210.93" y="-125.8" font-family="Arial" font-size="14.00">EspTypes_Base.h</text>
</a>
</g>
</g>
<!-- Node10&#45;&gt;Node11 -->
<g id="edge13_Node000010_Node000011" class="edge">
<title>Node10&#45;&gt;Node11</title>
<g id="a_edge13_Node000010_Node000011"><a xlink:title=" ">
<path fill="none" stroke="#63b8ff" d="M288.06,-176.78C273.86,-168.26 253.78,-156.21 237.67,-146.55"/>
<polygon fill="#63b8ff" stroke="#63b8ff" points="239.09,-143.32 228.72,-141.17 235.49,-149.32 239.09,-143.32"/>
</a>
</g>
</g>
<!-- Node12 -->
<g id="Node000012" class="node">
<title>Node12</title>
<g id="a_Node000012"><a xlink:href="McuSelect_8h.html" target="_top" xlink:title="Centralized MCU platform selection and configuration header.">
<polygon fill="white" stroke="#666666" points="303.93,-82 161.93,-82 161.93,-59 303.93,-59 303.93,-82"/>
<text text-anchor="middle" x="232.93" y="-66.8" font-family="Arial" font-size="14.00">../../utils/McuSelect.h</text>
</a>
</g>
</g>
<!-- Node10&#45;&gt;Node12 -->
<g id="edge19_Node000010_Node000012" class="edge">
<title>Node10&#45;&gt;Node12</title>
<g id="a_edge19_Node000010_Node000012"><a xlink:title=" ">
<path fill="none" stroke="#63b8ff" d="M304.13,-176.9C301.35,-162.62 295.01,-136.82 282.93,-118 275.8,-106.89 265.41,-96.64 255.94,-88.62"/>
<polygon fill="#63b8ff" stroke="#63b8ff" points="257.95,-85.73 247.97,-82.16 253.54,-91.18 257.95,-85.73"/>
</a>
</g>
</g>
<!-- Node10&#45;&gt;Node13 -->
<g id="edge20_Node000010_Node000013" class="edge">
<title>Node10&#45;&gt;Node13</title>
<g id="a_edge20_Node000010_Node000013"><a xlink:title=" ">
<path fill="none" stroke="#63b8ff" d="M341.22,-176.91C374.43,-166.95 424.01,-152.08 458.04,-141.87"/>
<polygon fill="#63b8ff" stroke="#63b8ff" points="459.06,-145.21 467.63,-138.99 457.05,-138.51 459.06,-145.21"/>
</a>
</g>
</g>
<!-- Node11&#45;&gt;Node4 -->
<g id="edge15_Node000011_Node000004" class="edge">
<title>Node11&#45;&gt;Node4</title>
<g id="a_edge15_Node000011_Node000004"><a xlink:title=" ">
<path fill="none" stroke="#63b8ff" d="M242.88,-117.91C270.63,-108.71 311.02,-95.33 341.3,-85.29"/>
<polygon fill="#63b8ff" stroke="#63b8ff" points="342.76,-88.5 351.15,-82.03 340.56,-81.85 342.76,-88.5"/>
</a>
</g>
</g>
<!-- Node11&#45;&gt;Node5 -->
<g id="edge17_Node000011_Node000005" class="edge">
<title>Node11&#45;&gt;Node5</title>
<g id="a_edge17_Node000011_Node000005"><a xlink:title=" ">
<path fill="none" stroke="#63b8ff" d="M192.38,-117.99C179.5,-109.77 162.91,-97.21 152.93,-82 143.3,-67.33 138.52,-47.88 136.16,-33.28"/>
<polygon fill="#63b8ff" stroke="#63b8ff" points="139.61,-32.66 134.79,-23.23 132.68,-33.61 139.61,-32.66"/>
</a>
</g>
</g>
<!-- Node11&#45;&gt;Node9 -->
<g id="edge16_Node000011_Node000009" class="edge">
<title>Node11&#45;&gt;Node9</title>
<g id="a_edge16_Node000011_Node000009"><a xlink:title=" ">
<path fill="none" stroke="#63b8ff" d="M186.04,-117.91C164.88,-108.91 134.31,-95.91 110.91,-85.95"/>
<polygon fill="#63b8ff" stroke="#63b8ff" points="112.26,-82.72 101.68,-82.03 109.52,-89.17 112.26,-82.72"/>
</a>
</g>
</g>
<!-- Node11&#45;&gt;Node12 -->
<g id="edge14_Node000011_Node000012" class="edge">
<title>Node11&#45;&gt;Node12</title>
<g id="a_edge14_Node000011_Node000012"><a xlink:title=" ">
<path fill="none" stroke="#63b8ff" d="M215.07,-117.78C217.89,-110.45 221.73,-100.52 225.12,-91.74"/>
<polygon fill="#63b8ff" stroke="#63b8ff" points="228.47,-92.76 228.81,-82.17 221.94,-90.24 228.47,-92.76"/>
</a>
</g>
</g>
</g>
</svg>

<g id="navigator" transform="translate(0 0)" fill="#404254">
  <rect fill="#f2f5e9" fill-opacity="0.5" stroke="#606060" stroke-width=".5" x="0" y="0" width="60" height="60"/>
  <use id="zoomplus" xlink:href="#zoomPlus" x="17" y="9" onmousedown="handleZoom(evt,'in')"/>
  <use id="zoomminus" xlink:href="#zoomMin" x="42" y="9" onmousedown="handleZoom(evt,'out')"/>
  <use id="reset" xlink:href="#resetDef" x="30" y="36" onmousedown="handleReset()"/>
   <use id="arrowup" xlink:href="#arrowUp" x="0" y="0" onmousedown="handlePan(0,-1)"/>
  <use id="arrowright" xlink:href="#arrowRight" x="0" y="0" onmousedown="handlePan(1,0)"/>
  <use id="arrowdown" xlink:href="#arrowDown" x="0" y="0" onmousedown="handlePan(0,1)"/>
  <use id="arrowleft" xlink:href="#arrowLeft" x="0" y="0" onmousedown="handlePan(-1,0)"/>
</g>
<svg viewBox="0 0 15 15" width="100%" height="30px" preserveAspectRatio="xMaxYMin meet">
 <g id="arrow_out" transform="scale(0.3 0.3)">
  <a xlink:href="EspNvs_8cpp__incl_org.svg" target="_base">
   <rect id="button" ry="5" rx="5" y="6" x="6" height="38" width="38"
        fill="#f2f5e9" fill-opacity="0.5" stroke="#606060" stroke-width="1.0"/>
   <path id="arrow"
     d="M 11.500037,31.436501 C 11.940474,20.09759 22.043105,11.32322 32.158766,21.979434 L 37.068811,17.246167 C 37.068811,17.246167 37.088388,32 37.088388,32 L 22.160133,31.978069 C 22.160133,31.978069 26.997745,27.140456 26.997745,27.140456 C 18.528582,18.264221 13.291696,25.230495 11.500037,31.436501 z"
     style="fill:#404040;"/>
  </a>
 </g>
</svg>

<style type='text/css'>
<![CDATA[
[data-mouse-over-selected='false'] { opacity: 0.7; }
[data-mouse-over-selected='true']  { opacity: 1.0; }
]]>
</style>
<script type="application/ecmascript"><![CDATA[
document.addEventListener('DOMContentLoaded', (event) => {
  highlightEdges();
  highlightAdjacentNodes();
});
]]></script>
</svg>
