<?xml version="1.0" encoding="UTF-8" standalone="no"?>
<!DOCTYPE svg PUBLIC "-//W3C//DTD SVG 1.1//EN"
 "http://www.w3.org/Graphics/SVG/1.1/DTD/svg11.dtd">
<!-- Generated by graphviz version 2.43.0 (0)
 -->
<!-- Title: inc/mcu/esp32/EspTemperature.h Pages: 1 -->
<svg width="1266pt" height="223pt"
 viewBox="0.00 0.00 1266.00 223.00" xmlns="http://www.w3.org/2000/svg" xmlns:xlink="http://www.w3.org/1999/xlink">
<g id="graph0" class="graph" transform="scale(1 1) rotate(0) translate(4 219)">
<title>inc/mcu/esp32/EspTemperature.h</title>
<!-- Node1 -->
<g id="Node000001" class="node">
<title>Node1</title>
<g id="a_Node000001"><a xlink:title="ESP32&#45;C6 internal temperature sensor implementation for the HardFOC system.">
<polygon fill="#999999" stroke="#666666" points="805.5,-215 586.5,-215 586.5,-192 805.5,-192 805.5,-215"/>
<text text-anchor="middle" x="696" y="-199.8" font-family="Arial" font-size="14.00">inc/mcu/esp32/EspTemperature.h</text>
</a>
</g>
</g>
<!-- Node2 -->
<g id="Node000002" class="node">
<title>Node2</title>
<g id="a_Node000002"><a xlink:href="BaseTemperature_8h.html" target="_top" xlink:title="Abstract base class for temperature sensor implementations in the HardFOC system.">
<polygon fill="white" stroke="#666666" points="249,-148.5 81,-148.5 81,-125.5 249,-125.5 249,-148.5"/>
<text text-anchor="middle" x="165" y="-133.3" font-family="Arial" font-size="14.00">base/BaseTemperature.h</text>
</a>
</g>
</g>
<!-- Node1&#45;&gt;Node2 -->
<g id="edge1_Node000001_Node000002" class="edge">
<title>Node1&#45;&gt;Node2</title>
<g id="a_edge1_Node000001_Node000002"><a xlink:title=" ">
<path fill="none" stroke="#63b8ff" d="M586.32,-193.47C497.53,-185.54 369.36,-172.66 258,-156 247.29,-154.4 235.94,-152.43 224.98,-150.39"/>
<polygon fill="#63b8ff" stroke="#63b8ff" points="225.54,-146.93 215.06,-148.5 224.23,-153.81 225.54,-146.93"/>
</a>
</g>
</g>
<!-- Node7 -->
<g id="Node000007" class="node">
<title>Node7</title>
<g id="a_Node000007"><a xlink:href="PlatformMutex_8h.html" target="_top" xlink:title="Cross&#45;platform mutex and synchronization primitives with pluggable backend.">
<polygon fill="white" stroke="#666666" points="411,-148.5 267,-148.5 267,-125.5 411,-125.5 411,-148.5"/>
<text text-anchor="middle" x="339" y="-133.3" font-family="Arial" font-size="14.00">utils/PlatformMutex.h</text>
</a>
</g>
</g>
<!-- Node1&#45;&gt;Node7 -->
<g id="edge7_Node000001_Node000007" class="edge">
<title>Node1&#45;&gt;Node7</title>
<g id="a_edge7_Node000001_Node000007"><a xlink:title=" ">
<path fill="none" stroke="#63b8ff" d="M630.72,-191.98C575.75,-182.96 495.11,-169.35 425,-156 416.29,-154.34 407.1,-152.51 398.1,-150.67"/>
<polygon fill="#63b8ff" stroke="#63b8ff" points="398.56,-147.19 388.06,-148.59 397.14,-154.04 398.56,-147.19"/>
</a>
</g>
</g>
<!-- Node8 -->
<g id="Node000008" class="node">
<title>Node8</title>
<g id="a_Node000008"><a xlink:title=" ">
<polygon fill="#e0e0e0" stroke="#999999" points="446.5,-82 389.5,-82 389.5,-59 446.5,-59 446.5,-82"/>
<text text-anchor="middle" x="418" y="-66.8" font-family="Arial" font-size="14.00">atomic</text>
</a>
</g>
</g>
<!-- Node1&#45;&gt;Node8 -->
<g id="edge16_Node000001_Node000008" class="edge">
<title>Node1&#45;&gt;Node8</title>
<g id="a_edge16_Node000001_Node000008"><a xlink:title=" ">
<path fill="none" stroke="#63b8ff" d="M595.17,-191.96C540.41,-184.48 479.56,-172.76 458,-156 437.67,-140.2 427.18,-111.54 422.14,-92.02"/>
<polygon fill="#63b8ff" stroke="#63b8ff" points="425.54,-91.2 419.87,-82.25 418.72,-92.79 425.54,-91.2"/>
</a>
</g>
</g>
<!-- Node9 -->
<g id="Node000009" class="node">
<title>Node9</title>
<g id="a_Node000009"><a xlink:title=" ">
<polygon fill="#e0e0e0" stroke="#999999" points="595,-156 467,-156 467,-118 595,-118 595,-156"/>
<text text-anchor="start" x="475" y="-140.8" font-family="Arial" font-size="14.00">driver/temperature</text>
<text text-anchor="middle" x="531" y="-125.8" font-family="Arial" font-size="14.00">_sensor.h</text>
</a>
</g>
</g>
<!-- Node1&#45;&gt;Node9 -->
<g id="edge10_Node000001_Node000009" class="edge">
<title>Node1&#45;&gt;Node9</title>
<g id="a_edge10_Node000001_Node000009"><a xlink:title=" ">
<path fill="none" stroke="#63b8ff" d="M669.12,-191.99C646.9,-183.31 614.61,-170.68 586.83,-159.83"/>
<polygon fill="#63b8ff" stroke="#63b8ff" points="587.81,-156.45 577.22,-156.07 585.26,-162.97 587.81,-156.45"/>
</a>
</g>
</g>
<!-- Node10 -->
<g id="Node000010" class="node">
<title>Node10</title>
<g id="a_Node000010"><a xlink:title=" ">
<polygon fill="#e0e0e0" stroke="#999999" points="686.5,-148.5 613.5,-148.5 613.5,-125.5 686.5,-125.5 686.5,-148.5"/>
<text text-anchor="middle" x="650" y="-133.3" font-family="Arial" font-size="14.00">esp_err.h</text>
</a>
</g>
</g>
<!-- Node1&#45;&gt;Node10 -->
<g id="edge11_Node000001_Node000010" class="edge">
<title>Node1&#45;&gt;Node10</title>
<g id="a_edge11_Node000001_Node000010"><a xlink:title=" ">
<path fill="none" stroke="#63b8ff" d="M688.4,-191.85C681.72,-182.48 671.82,-168.6 663.75,-157.28"/>
<polygon fill="#63b8ff" stroke="#63b8ff" points="666.42,-154.99 657.76,-148.88 660.72,-159.06 666.42,-154.99"/>
</a>
</g>
</g>
<!-- Node11 -->
<g id="Node000011" class="node">
<title>Node11</title>
<g id="a_Node000011"><a xlink:title=" ">
<polygon fill="#e0e0e0" stroke="#999999" points="779.5,-148.5 704.5,-148.5 704.5,-125.5 779.5,-125.5 779.5,-148.5"/>
<text text-anchor="middle" x="742" y="-133.3" font-family="Arial" font-size="14.00">esp_log.h</text>
</a>
</g>
</g>
<!-- Node1&#45;&gt;Node11 -->
<g id="edge12_Node000001_Node000011" class="edge">
<title>Node1&#45;&gt;Node11</title>
<g id="a_edge12_Node000001_Node000011"><a xlink:title=" ">
<path fill="none" stroke="#63b8ff" d="M703.6,-191.85C710.28,-182.48 720.18,-168.6 728.25,-157.28"/>
<polygon fill="#63b8ff" stroke="#63b8ff" points="731.28,-159.06 734.24,-148.88 725.58,-154.99 731.28,-159.06"/>
</a>
</g>
</g>
<!-- Node12 -->
<g id="Node000012" class="node">
<title>Node12</title>
<g id="a_Node000012"><a xlink:title=" ">
<polygon fill="#e0e0e0" stroke="#999999" points="884.5,-148.5 797.5,-148.5 797.5,-125.5 884.5,-125.5 884.5,-148.5"/>
<text text-anchor="middle" x="841" y="-133.3" font-family="Arial" font-size="14.00">esp_timer.h</text>
</a>
</g>
</g>
<!-- Node1&#45;&gt;Node12 -->
<g id="edge13_Node000001_Node000012" class="edge">
<title>Node1&#45;&gt;Node12</title>
<g id="a_edge13_Node000001_Node000012"><a xlink:title=" ">
<path fill="none" stroke="#63b8ff" d="M719.62,-191.99C743.63,-181.31 781.04,-164.67 807.98,-152.69"/>
<polygon fill="#63b8ff" stroke="#63b8ff" points="809.68,-155.76 817.39,-148.5 806.83,-149.37 809.68,-155.76"/>
</a>
</g>
</g>
<!-- Node13 -->
<g id="Node000013" class="node">
<title>Node13</title>
<g id="a_Node000013"><a xlink:title=" ">
<polygon fill="#e0e0e0" stroke="#999999" points="1045.5,-148.5 902.5,-148.5 902.5,-125.5 1045.5,-125.5 1045.5,-148.5"/>
<text text-anchor="middle" x="974" y="-133.3" font-family="Arial" font-size="14.00">freertos/FreeRTOS.h</text>
</a>
</g>
</g>
<!-- Node1&#45;&gt;Node13 -->
<g id="edge14_Node000001_Node000013" class="edge">
<title>Node1&#45;&gt;Node13</title>
<g id="a_edge14_Node000001_Node000013"><a xlink:title=" ">
<path fill="none" stroke="#63b8ff" d="M741.28,-191.99C789.75,-180.75 866.67,-162.9 918.68,-150.84"/>
<polygon fill="#63b8ff" stroke="#63b8ff" points="919.78,-154.17 928.74,-148.5 918.2,-147.35 919.78,-154.17"/>
</a>
</g>
</g>
<!-- Node14 -->
<g id="Node000014" class="node">
<title>Node14</title>
<g id="a_Node000014"><a xlink:title=" ">
<polygon fill="#e0e0e0" stroke="#999999" points="1166,-148.5 1064,-148.5 1064,-125.5 1166,-125.5 1166,-148.5"/>
<text text-anchor="middle" x="1115" y="-133.3" font-family="Arial" font-size="14.00">freertos/task.h</text>
</a>
</g>
</g>
<!-- Node1&#45;&gt;Node14 -->
<g id="edge15_Node000001_Node000014" class="edge">
<title>Node1&#45;&gt;Node14</title>
<g id="a_edge15_Node000001_Node000014"><a xlink:title=" ">
<path fill="none" stroke="#63b8ff" d="M805.58,-192.98C877.08,-185.62 972.18,-173.66 1055,-156 1061.14,-154.69 1067.57,-153.05 1073.83,-151.31"/>
<polygon fill="#63b8ff" stroke="#63b8ff" points="1074.86,-154.65 1083.49,-148.5 1072.91,-147.93 1074.86,-154.65"/>
</a>
</g>
</g>
<!-- Node15 -->
<g id="Node000015" class="node">
<title>Node15</title>
<g id="a_Node000015"><a xlink:title=" ">
<polygon fill="#e0e0e0" stroke="#999999" points="1258,-148.5 1184,-148.5 1184,-125.5 1258,-125.5 1258,-148.5"/>
<text text-anchor="middle" x="1221" y="-133.3" font-family="Arial" font-size="14.00">functional</text>
</a>
</g>
</g>
<!-- Node1&#45;&gt;Node15 -->
<g id="edge17_Node000001_Node000015" class="edge">
<title>Node1&#45;&gt;Node15</title>
<g id="a_edge17_Node000001_Node000015"><a xlink:title=" ">
<path fill="none" stroke="#63b8ff" d="M805.85,-200.42C903.86,-196.55 1050.68,-185.75 1175,-156 1179.22,-154.99 1183.57,-153.67 1187.84,-152.22"/>
<polygon fill="#63b8ff" stroke="#63b8ff" points="1189.37,-155.38 1197.53,-148.62 1186.93,-148.82 1189.37,-155.38"/>
</a>
</g>
</g>
<!-- Node3 -->
<g id="Node000003" class="node">
<title>Node3</title>
<g id="a_Node000003"><a xlink:href="HardwareTypes_8h.html" target="_top" xlink:title="Platform&#45;agnostic hardware type definitions for the HardFOC system.">
<polygon fill="white" stroke="#666666" points="122,-82 0,-82 0,-59 122,-59 122,-82"/>
<text text-anchor="middle" x="61" y="-66.8" font-family="Arial" font-size="14.00">HardwareTypes.h</text>
</a>
</g>
</g>
<!-- Node2&#45;&gt;Node3 -->
<g id="edge2_Node000002_Node000003" class="edge">
<title>Node2&#45;&gt;Node3</title>
<g id="a_edge2_Node000002_Node000003"><a xlink:title=" ">
<path fill="none" stroke="#63b8ff" d="M147.83,-125.35C131.19,-115.03 105.76,-99.26 86.71,-87.44"/>
<polygon fill="#63b8ff" stroke="#63b8ff" points="88.54,-84.46 78.2,-82.17 84.85,-90.41 88.54,-84.46"/>
</a>
</g>
</g>
<!-- Node4 -->
<g id="Node000004" class="node">
<title>Node4</title>
<g id="a_Node000004"><a xlink:title=" ">
<polygon fill="#e0e0e0" stroke="#999999" points="280,-23 224,-23 224,0 280,0 280,-23"/>
<text text-anchor="middle" x="252" y="-7.8" font-family="Arial" font-size="14.00">cstdint</text>
</a>
</g>
</g>
<!-- Node2&#45;&gt;Node4 -->
<g id="edge5_Node000002_Node000004" class="edge">
<title>Node2&#45;&gt;Node4</title>
<g id="a_edge5_Node000002_Node000004"><a xlink:title=" ">
<path fill="none" stroke="#63b8ff" d="M184.22,-125.41C199.62,-115.97 220.63,-100.75 233,-82 242.66,-67.36 247.44,-47.9 249.79,-33.3"/>
<polygon fill="#63b8ff" stroke="#63b8ff" points="253.27,-33.61 251.15,-23.24 246.34,-32.68 253.27,-33.61"/>
</a>
</g>
</g>
<!-- Node6 -->
<g id="Node000006" class="node">
<title>Node6</title>
<g id="a_Node000006"><a xlink:title=" ">
<polygon fill="#e0e0e0" stroke="#999999" points="224,-82 140,-82 140,-59 224,-59 224,-82"/>
<text text-anchor="middle" x="182" y="-66.8" font-family="Arial" font-size="14.00">string_view</text>
</a>
</g>
</g>
<!-- Node2&#45;&gt;Node6 -->
<g id="edge6_Node000002_Node000006" class="edge">
<title>Node2&#45;&gt;Node6</title>
<g id="a_edge6_Node000002_Node000006"><a xlink:title=" ">
<path fill="none" stroke="#63b8ff" d="M167.81,-125.35C170.18,-116.35 173.65,-103.19 176.56,-92.13"/>
<polygon fill="#63b8ff" stroke="#63b8ff" points="179.97,-92.94 179.13,-82.38 173.2,-91.16 179.97,-92.94"/>
</a>
</g>
</g>
<!-- Node3&#45;&gt;Node4 -->
<g id="edge3_Node000003_Node000004" class="edge">
<title>Node3&#45;&gt;Node4</title>
<g id="a_edge3_Node000003_Node000004"><a xlink:title=" ">
<path fill="none" stroke="#63b8ff" d="M96.48,-58.91C129.96,-48.92 180,-33.99 214.22,-23.78"/>
<polygon fill="#63b8ff" stroke="#63b8ff" points="215.27,-27.11 223.85,-20.9 213.27,-20.41 215.27,-27.11"/>
</a>
</g>
</g>
<!-- Node5 -->
<g id="Node000005" class="node">
<title>Node5</title>
<g id="a_Node000005"><a xlink:title=" ">
<polygon fill="#e0e0e0" stroke="#999999" points="85,-23 37,-23 37,0 85,0 85,-23"/>
<text text-anchor="middle" x="61" y="-7.8" font-family="Arial" font-size="14.00">limits</text>
</a>
</g>
</g>
<!-- Node3&#45;&gt;Node5 -->
<g id="edge4_Node000003_Node000005" class="edge">
<title>Node3&#45;&gt;Node5</title>
<g id="a_edge4_Node000003_Node000005"><a xlink:title=" ">
<path fill="none" stroke="#63b8ff" d="M61,-58.78C61,-51.61 61,-41.95 61,-33.31"/>
<polygon fill="#63b8ff" stroke="#63b8ff" points="64.5,-33.17 61,-23.17 57.5,-33.17 64.5,-33.17"/>
</a>
</g>
</g>
<!-- Node7&#45;&gt;Node4 -->
<g id="edge9_Node000007_Node000004" class="edge">
<title>Node7&#45;&gt;Node4</title>
<g id="a_edge9_Node000007_Node000004"><a xlink:title=" ">
<path fill="none" stroke="#63b8ff" d="M331.58,-125.47C316.88,-104.6 283.86,-57.73 265.3,-31.39"/>
<polygon fill="#63b8ff" stroke="#63b8ff" points="268.02,-29.16 259.4,-23 262.3,-33.19 268.02,-29.16"/>
</a>
</g>
</g>
<!-- Node7&#45;&gt;Node8 -->
<g id="edge8_Node000007_Node000008" class="edge">
<title>Node7&#45;&gt;Node8</title>
<g id="a_edge8_Node000007_Node000008"><a xlink:title=" ">
<path fill="none" stroke="#63b8ff" d="M352.05,-125.35C364.28,-115.36 382.79,-100.25 397.08,-88.58"/>
<polygon fill="#63b8ff" stroke="#63b8ff" points="399.4,-91.2 404.94,-82.17 394.98,-85.78 399.4,-91.2"/>
</a>
</g>
</g>
</g>
</svg>
