<?xml version="1.0" encoding="UTF-8" standalone="no"?>
<!DOCTYPE svg PUBLIC "-//W3C//DTD SVG 1.1//EN"
 "http://www.w3.org/Graphics/SVG/1.1/DTD/svg11.dtd">
<!-- Generated by graphviz version 2.43.0 (0)
 -->
<!-- Title: inc/mcu/esp32/utils/EspTypes_GPIO.h Pages: 1 -->
<!--zoomable 357 -->

<svg id="main" version="1.1" xmlns="http://www.w3.org/2000/svg" xmlns:xlink="http://www.w3.org/1999/xlink" xml:space="preserve" onload="init(evt)">
<style type="text/css"><![CDATA[
.node, .edge {opacity: 0.7;}
.node.selected, .edge.selected {opacity: 1;}
.edge:hover path { stroke: red; }
.edge:hover polygon { stroke: red; fill: red; }
]]></style>

<defs>
  <circle id="rim" cx="0" cy="0" r="7"/>
  <circle id="rim2" cx="0" cy="0" r="3.5"/>
  <g id="zoomPlus">
    <use xlink:href="#rim" fill="#404040"><set attributeName="fill" to="#808080" begin="zoomplus.mouseover" end="zoomplus.mouseout"/></use>
    <path d="M-4,0h8M0,-4v8" fill="none" stroke="white" stroke-width="1.5" pointer-events="none"/>
  </g>
  <g id="zoomMin">
    <use xlink:href="#rim" fill="#404040"><set attributeName="fill" to="#808080" begin="zoomminus.mouseover" end="zoomminus.mouseout"/></use>
    <path d="M-4,0h8" fill="none" stroke="white" stroke-width="1.5" pointer-events="none"/>
  </g>
  <g id="arrowUp" transform="translate(30 24)">
    <use xlink:href="#rim"/>
    <path pointer-events="none" fill="none" stroke="white" stroke-width="1.5" d="M0,-3.0v7 M-2.5,-0.5L0,-3.0L2.5,-0.5"/>
  </g>
  <g id="arrowRight" transform="rotate(90) translate(36 -43)">
    <use xlink:href="#rim"/>
    <path pointer-events="none" fill="none" stroke="white" stroke-width="1.5" d="M0,-3.0v7 M-2.5,-0.5L0,-3.0L2.5,-0.5"/>
  </g>
  <g id="arrowDown" transform="rotate(180) translate(-30 -48)">
    <use xlink:href="#rim"/>
    <path pointer-events="none" fill="none" stroke="white" stroke-width="1.5" d="M0,-3.0v7 M-2.5,-0.5L0,-3.0L2.5,-0.5"/>
  </g>
  <g id="arrowLeft" transform="rotate(270) translate(-36 17)">
    <use xlink:href="#rim"/>
    <path pointer-events="none" fill="none" stroke="white" stroke-width="1.5" d="M0,-3.0v7 M-2.5,-0.5L0,-3.0L2.5,-0.5"/>
  </g>
  <g id="resetDef">
    <use xlink:href="#rim2" fill="#404040"><set attributeName="fill" to="#808080" begin="reset.mouseover" end="reset.mouseout"/></use>
  </g>
</defs>
<script type="application/ecmascript">
var viewWidth = 4698;
var viewHeight = 357;
var sectionId = 'dynsection-1';
</script>
<script type="application/ecmascript" xlink:href="svg.min.js"/>
<svg id="graph" class="graph">
<g id="viewport">
<title>inc/mcu/esp32/utils/EspTypes_GPIO.h</title>
<!-- Node1 -->
<g id="Node000001" class="node">
<title>Node1</title>
<g id="a_Node000001"><a xlink:title="ESP32 GPIO type definitions for hardware abstraction.">
<polygon fill="#999999" stroke="#666666" points="2150.5,-349 2016.5,-349 2016.5,-311 2150.5,-311 2150.5,-349"/>
<text text-anchor="start" x="2024.5" y="-333.8" font-family="Arial" font-size="14.00">inc/mcu/esp32/utils</text>
<text text-anchor="middle" x="2083.5" y="-318.8" font-family="Arial" font-size="14.00">/EspTypes_GPIO.h</text>
</a>
</g>
</g>
<!-- Node2 -->
<g id="Node000002" class="node">
<title>Node2</title>
<g id="a_Node000002"><a xlink:href="GpioComprehensiveTest_8cpp.html" target="_top" xlink:title="Comprehensive GPIO testing suite for ESP32&#45;C6 DevKit&#45;M&#45;1 (noexcept)">
<polygon fill="white" stroke="#666666" points="195,-45.5 0,-45.5 0,-7.5 195,-7.5 195,-45.5"/>
<text text-anchor="start" x="8" y="-30.3" font-family="Arial" font-size="14.00">examples/esp32/main</text>
<text text-anchor="middle" x="97.5" y="-15.3" font-family="Arial" font-size="14.00">/GpioComprehensiveTest.cpp</text>
</a>
</g>
</g>
<!-- Node1&#45;&gt;Node2 -->
<g id="edge1_Node000001_Node000002" class="edge">
<title>Node1&#45;&gt;Node2</title>
<g id="a_edge1_Node000001_Node000002"><a xlink:title=" ">
<path fill="none" stroke="#63b8ff" d="M2006.41,-322.91C1773.95,-303.79 1060.01,-239.4 477.5,-127 362.49,-104.81 230.76,-67.61 156.51,-45.53"/>
<polygon fill="#63b8ff" stroke="#63b8ff" points="2006.21,-326.41 2016.46,-323.74 2006.78,-319.43 2006.21,-326.41"/>
</a>
</g>
</g>
<!-- Node3 -->
<g id="Node000003" class="node">
<title>Node3</title>
<g id="a_Node000003"><a xlink:href="EspGpio_8h.html" target="_top" xlink:title="Advanced MCU&#45;specific implementation of the unified BaseGpio class with ESP32/ESP&#45;IDF v5....">
<polygon fill="white" stroke="#666666" points="1999.5,-193.5 1827.5,-193.5 1827.5,-170.5 1999.5,-170.5 1999.5,-193.5"/>
<text text-anchor="middle" x="1913.5" y="-178.3" font-family="Arial" font-size="14.00">inc/mcu/esp32/EspGpio.h</text>
</a>
</g>
</g>
<!-- Node1&#45;&gt;Node3 -->
<g id="edge2_Node000001_Node000003" class="edge">
<title>Node1&#45;&gt;Node3</title>
<g id="a_edge2_Node000001_Node000003"><a xlink:title=" ">
<path fill="none" stroke="#63b8ff" d="M2054.7,-304.26C2017,-271.89 1952.58,-216.56 1925.77,-193.54"/>
<polygon fill="#63b8ff" stroke="#63b8ff" points="2052.45,-306.94 2062.31,-310.8 2057.01,-301.63 2052.45,-306.94"/>
</a>
</g>
</g>
<!-- Node22 -->
<g id="Node000022" class="node">
<title>Node22</title>
<g id="a_Node000022"><a xlink:href="EspTypes_8h.html" target="_top" xlink:title="Consolidated MCU&#45;specific type definitions for hardware abstraction (hf_* types).">
<polygon fill="white" stroke="#666666" points="3181.5,-201 3049.5,-201 3049.5,-163 3181.5,-163 3181.5,-201"/>
<text text-anchor="start" x="3057.5" y="-185.8" font-family="Arial" font-size="14.00">inc/mcu/esp32/utils</text>
<text text-anchor="middle" x="3115.5" y="-170.8" font-family="Arial" font-size="14.00">/EspTypes.h</text>
</a>
</g>
</g>
<!-- Node1&#45;&gt;Node22 -->
<g id="edge28_Node000001_Node000022" class="edge">
<title>Node1&#45;&gt;Node22</title>
<g id="a_edge28_Node000001_Node000022"><a xlink:title=" ">
<path fill="none" stroke="#63b8ff" d="M2161,-318.04C2356.48,-290.38 2867.01,-218.16 3049.47,-192.34"/>
<polygon fill="#63b8ff" stroke="#63b8ff" points="2160.23,-314.61 2150.81,-319.48 2161.21,-321.54 2160.23,-314.61"/>
</a>
</g>
</g>
<!-- Node33 -->
<g id="Node000033" class="node">
<title>Node33</title>
<g id="a_Node000033"><a xlink:href="EspTypes__PWM_8h.html" target="_top" xlink:title="ESP32 PWM type definitions for LEDC peripheral hardware abstraction.">
<polygon fill="white" stroke="#666666" points="2225,-275 2092,-275 2092,-237 2225,-237 2225,-275"/>
<text text-anchor="start" x="2100" y="-259.8" font-family="Arial" font-size="14.00">inc/mcu/esp32/utils</text>
<text text-anchor="middle" x="2158.5" y="-244.8" font-family="Arial" font-size="14.00">/EspTypes_PWM.h</text>
</a>
</g>
</g>
<!-- Node1&#45;&gt;Node33 -->
<g id="edge44_Node000001_Node000033" class="edge">
<title>Node1&#45;&gt;Node33</title>
<g id="a_edge44_Node000001_Node000033"><a xlink:title=" ">
<path fill="none" stroke="#63b8ff" d="M2109.68,-303.87C2119.53,-294.41 2130.52,-283.86 2139.58,-275.16"/>
<polygon fill="#63b8ff" stroke="#63b8ff" points="2107.22,-301.38 2102.43,-310.83 2112.06,-306.43 2107.22,-301.38"/>
</a>
</g>
</g>
<!-- Node3&#45;&gt;Node2 -->
<g id="edge4_Node000003_Node000002" class="edge">
<title>Node3&#45;&gt;Node2</title>
<g id="a_edge4_Node000003_Node000002"><a xlink:title=" ">
<path fill="none" stroke="#63b8ff" d="M1817.17,-180.2C1555.71,-176.64 811.55,-157.35 203.5,-53 191.56,-50.95 178.97,-48.33 166.79,-45.56"/>
<polygon fill="#63b8ff" stroke="#63b8ff" points="1817.35,-183.7 1827.39,-180.33 1817.44,-176.7 1817.35,-183.7"/>
</a>
</g>
</g>
<!-- Node4 -->
<g id="Node000004" class="node">
<title>Node4</title>
<g id="a_Node000004"><a xlink:href="DigitalOutputGuardComprehensiveTest_8cpp.html" target="_top" xlink:title="DigitalOutputGuard comprehensive test suite for ESP32&#45;C6 DevKit&#45;M&#45;1.">
<polygon fill="white" stroke="#666666" points="446,-53 213,-53 213,0 446,0 446,-53"/>
<text text-anchor="start" x="221" y="-37.8" font-family="Arial" font-size="14.00">examples/esp32/main</text>
<text text-anchor="start" x="221" y="-22.8" font-family="Arial" font-size="14.00">/DigitalOutputGuardComprehensive</text>
<text text-anchor="middle" x="329.5" y="-7.8" font-family="Arial" font-size="14.00">Test.cpp</text>
</a>
</g>
</g>
<!-- Node3&#45;&gt;Node4 -->
<g id="edge3_Node000003_Node000004" class="edge">
<title>Node3&#45;&gt;Node4</title>
<g id="a_edge3_Node000003_Node000004"><a xlink:title=" ">
<path fill="none" stroke="#63b8ff" d="M1817.2,-173.07C1694.76,-162.9 1476.85,-144.47 1290.5,-127 1122.83,-111.28 1081.23,-104.03 913.5,-89 709.69,-70.74 657.13,-81.5 454.5,-53 451.76,-52.61 448.99,-52.21 446.19,-51.78"/>
<polygon fill="#63b8ff" stroke="#63b8ff" points="1817.04,-176.57 1827.3,-173.91 1817.62,-169.6 1817.04,-176.57"/>
</a>
</g>
</g>
<!-- Node5 -->
<g id="Node000005" class="node">
<title>Node5</title>
<g id="a_Node000005"><a xlink:href="I2cComprehensiveTest_8cpp.html" target="_top" xlink:title="Comprehensive I2C testing suite for ESP32&#45;C6 DevKit&#45;M&#45;1 (noexcept)">
<polygon fill="white" stroke="#666666" points="3282.5,-45.5 3098.5,-45.5 3098.5,-7.5 3282.5,-7.5 3282.5,-45.5"/>
<text text-anchor="start" x="3106.5" y="-30.3" font-family="Arial" font-size="14.00">examples/esp32/main</text>
<text text-anchor="middle" x="3190.5" y="-15.3" font-family="Arial" font-size="14.00">/I2cComprehensiveTest.cpp</text>
</a>
</g>
</g>
<!-- Node3&#45;&gt;Node5 -->
<g id="edge5_Node000003_Node000005" class="edge">
<title>Node3&#45;&gt;Node5</title>
<g id="a_edge5_Node000003_Node000005"><a xlink:title=" ">
<path fill="none" stroke="#63b8ff" d="M1968.36,-167.7C1999.12,-158.85 2037.43,-145.43 2068.5,-127 2090.15,-114.16 2087.18,-98.48 2110.5,-89 2211.34,-48.01 2981.74,-68.41 3089.5,-53 3101.94,-51.22 3115.07,-48.53 3127.6,-45.55"/>
<polygon fill="#63b8ff" stroke="#63b8ff" points="1967.34,-164.35 1958.65,-170.41 1969.23,-171.09 1967.34,-164.35"/>
</a>
</g>
</g>
<!-- Node6 -->
<g id="Node000006" class="node">
<title>Node6</title>
<g id="a_Node000006"><a xlink:href="PioComprehensiveTest_8cpp.html" target="_top" xlink:title="Comprehensive PIO testing suite for ESP32&#45;C6 DevKit&#45;M&#45;1 with RMT peripheral (noexcept)">
<polygon fill="white" stroke="#666666" points="2871,-45.5 2686,-45.5 2686,-7.5 2871,-7.5 2871,-45.5"/>
<text text-anchor="start" x="2694" y="-30.3" font-family="Arial" font-size="14.00">examples/esp32/main</text>
<text text-anchor="middle" x="2778.5" y="-15.3" font-family="Arial" font-size="14.00">/PioComprehensiveTest.cpp</text>
</a>
</g>
</g>
<!-- Node3&#45;&gt;Node6 -->
<g id="edge6_Node000003_Node000006" class="edge">
<title>Node3&#45;&gt;Node6</title>
<g id="a_edge6_Node000003_Node000006"><a xlink:title=" ">
<path fill="none" stroke="#63b8ff" d="M1940.17,-165.04C1956.78,-154.76 1978.37,-140.79 1996.5,-127 2016.8,-111.56 2015.91,-98.7 2039.5,-89 2170.84,-35 2537.13,-74.48 2677.5,-53 2689.66,-51.14 2702.48,-48.47 2714.76,-45.55"/>
<polygon fill="#63b8ff" stroke="#63b8ff" points="1938.2,-162.14 1931.5,-170.35 1941.86,-168.11 1938.2,-162.14"/>
</a>
</g>
</g>
<!-- Node7 -->
<g id="Node000007" class="node">
<title>Node7</title>
<g id="a_Node000007"><a xlink:href="PwmComprehensiveTest_8cpp.html" target="_top" xlink:title="Comprehensive PWM testing suite for ESP32 family (noexcept)">
<polygon fill="white" stroke="#666666" points="661,-45.5 464,-45.5 464,-7.5 661,-7.5 661,-45.5"/>
<text text-anchor="start" x="472" y="-30.3" font-family="Arial" font-size="14.00">examples/esp32/main</text>
<text text-anchor="middle" x="562.5" y="-15.3" font-family="Arial" font-size="14.00">/PwmComprehensiveTest.cpp</text>
</a>
</g>
</g>
<!-- Node3&#45;&gt;Node7 -->
<g id="edge7_Node000003_Node000007" class="edge">
<title>Node3&#45;&gt;Node7</title>
<g id="a_edge7_Node000003_Node000007"><a xlink:title=" ">
<path fill="none" stroke="#63b8ff" d="M1844.4,-168.75C1729.73,-148.88 1492.68,-109.76 1290.5,-89 1015.92,-60.81 943.63,-92.86 670.5,-53 657.63,-51.12 644.04,-48.46 631,-45.56"/>
<polygon fill="#63b8ff" stroke="#63b8ff" points="1844,-172.23 1854.45,-170.49 1845.2,-165.33 1844,-172.23"/>
</a>
</g>
</g>
<!-- Node8 -->
<g id="Node000008" class="node">
<title>Node8</title>
<g id="a_Node000008"><a xlink:href="TestFramework_8h.html" target="_top" xlink:title="Shared testing framework for ESP32&#45;C6 comprehensive test suites.">
<polygon fill="white" stroke="#666666" points="1988,-127 1839,-127 1839,-89 1988,-89 1988,-127"/>
<text text-anchor="start" x="1847" y="-111.8" font-family="Arial" font-size="14.00">examples/esp32/main</text>
<text text-anchor="middle" x="1913.5" y="-96.8" font-family="Arial" font-size="14.00">/TestFramework.h</text>
</a>
</g>
</g>
<!-- Node3&#45;&gt;Node8 -->
<g id="edge8_Node000003_Node000008" class="edge">
<title>Node3&#45;&gt;Node8</title>
<g id="a_edge8_Node000003_Node000008"><a xlink:title=" ">
<path fill="none" stroke="#63b8ff" d="M1913.5,-160.1C1913.5,-149.69 1913.5,-137.23 1913.5,-127.21"/>
<polygon fill="#63b8ff" stroke="#63b8ff" points="1910,-160.38 1913.5,-170.38 1917,-160.38 1910,-160.38"/>
</a>
</g>
</g>
<!-- Node18 -->
<g id="Node000018" class="node">
<title>Node18</title>
<g id="a_Node000018"><a xlink:href="UartComprehensiveTest_8cpp.html" target="_top" xlink:title="Comprehensive UART testing suite for ESP32&#45;C6 DevKit&#45;M&#45;1 (noexcept)">
<polygon fill="white" stroke="#666666" points="3080,-45.5 2889,-45.5 2889,-7.5 3080,-7.5 3080,-45.5"/>
<text text-anchor="start" x="2897" y="-30.3" font-family="Arial" font-size="14.00">examples/esp32/main</text>
<text text-anchor="middle" x="2984.5" y="-15.3" font-family="Arial" font-size="14.00">/UartComprehensiveTest.cpp</text>
</a>
</g>
</g>
<!-- Node3&#45;&gt;Node18 -->
<g id="edge26_Node000003_Node000018" class="edge">
<title>Node3&#45;&gt;Node18</title>
<g id="a_edge26_Node000003_Node000018"><a xlink:title=" ">
<path fill="none" stroke="#63b8ff" d="M1951.61,-166.54C1975.38,-156.81 2006.16,-142.88 2031.5,-127 2053.97,-112.92 2052.75,-98.53 2077.5,-89 2244.19,-24.8 2703.69,-78.39 2880.5,-53 2893.2,-51.18 2906.6,-48.48 2919.42,-45.52"/>
<polygon fill="#63b8ff" stroke="#63b8ff" points="1950.19,-163.34 1942.22,-170.32 1952.8,-169.83 1950.19,-163.34"/>
</a>
</g>
</g>
<!-- Node21 -->
<g id="Node000021" class="node">
<title>Node21</title>
<g id="a_Node000021"><a xlink:href="EspGpio_8cpp.html" target="_top" xlink:title="Production&#45;quality ESP32 GPIO implementation with ESP&#45;IDF v5.5+ advanced features.">
<polygon fill="white" stroke="#666666" points="1784,-119.5 1597,-119.5 1597,-96.5 1784,-96.5 1784,-119.5"/>
<text text-anchor="middle" x="1690.5" y="-104.3" font-family="Arial" font-size="14.00">src/mcu/esp32/EspGpio.cpp</text>
</a>
</g>
</g>
<!-- Node3&#45;&gt;Node21 -->
<g id="edge27_Node000003_Node000021" class="edge">
<title>Node3&#45;&gt;Node21</title>
<g id="a_edge27_Node000003_Node000021"><a xlink:title=" ">
<path fill="none" stroke="#63b8ff" d="M1870.97,-167.27C1827.93,-153.37 1762.3,-132.18 1723.18,-119.55"/>
<polygon fill="#63b8ff" stroke="#63b8ff" points="1870,-170.63 1880.6,-170.38 1872.15,-163.97 1870,-170.63"/>
</a>
</g>
</g>
<!-- Node8&#45;&gt;Node2 -->
<g id="edge14_Node000008_Node000002" class="edge">
<title>Node8&#45;&gt;Node2</title>
<g id="a_edge14_Node000008_Node000002"><a xlink:title=" ">
<path fill="none" stroke="#63b8ff" d="M1828.69,-93.01C1816.57,-91.41 1804.24,-90 1792.5,-89 1440.58,-58.96 553.75,-98.56 203.5,-53 190.27,-51.28 176.28,-48.57 162.97,-45.55"/>
<polygon fill="#63b8ff" stroke="#63b8ff" points="1828.42,-96.51 1838.8,-94.4 1829.36,-89.57 1828.42,-96.51"/>
</a>
</g>
</g>
<!-- Node8&#45;&gt;Node4 -->
<g id="edge13_Node000008_Node000004" class="edge">
<title>Node8&#45;&gt;Node4</title>
<g id="a_edge13_Node000008_Node000004"><a xlink:title=" ">
<path fill="none" stroke="#63b8ff" d="M1828.68,-93.06C1816.57,-91.45 1804.24,-90.03 1792.5,-89 1199.88,-37.14 1045.52,-120.71 454.5,-53 451.75,-52.68 448.97,-52.34 446.17,-51.97"/>
<polygon fill="#63b8ff" stroke="#63b8ff" points="1828.41,-96.55 1838.79,-94.45 1829.36,-89.62 1828.41,-96.55"/>
</a>
</g>
</g>
<!-- Node8&#45;&gt;Node5 -->
<g id="edge15_Node000008_Node000005" class="edge">
<title>Node8&#45;&gt;Node5</title>
<g id="a_edge15_Node000008_Node000005"><a xlink:title=" ">
<path fill="none" stroke="#63b8ff" d="M1998.1,-96.51C2023.58,-93.67 2051.65,-90.88 2077.5,-89 2526.38,-56.43 2643.93,-116.44 3089.5,-53 3101.94,-51.23 3115.07,-48.54 3127.6,-45.56"/>
<polygon fill="#63b8ff" stroke="#63b8ff" points="1997.64,-93.04 1988.1,-97.64 1998.43,-99.99 1997.64,-93.04"/>
</a>
</g>
</g>
<!-- Node8&#45;&gt;Node6 -->
<g id="edge18_Node000008_Node000006" class="edge">
<title>Node8&#45;&gt;Node6</title>
<g id="a_edge18_Node000008_Node000006"><a xlink:title=" ">
<path fill="none" stroke="#63b8ff" d="M1998.23,-89.43C1999.33,-89.28 2000.42,-89.14 2001.5,-89 2299.93,-50.75 2380.02,-98.04 2677.5,-53 2689.75,-51.15 2702.67,-48.46 2715.04,-45.52"/>
<polygon fill="#63b8ff" stroke="#63b8ff" points="1997.64,-85.98 1988.27,-90.92 1998.67,-92.91 1997.64,-85.98"/>
</a>
</g>
</g>
<!-- Node8&#45;&gt;Node7 -->
<g id="edge19_Node000008_Node000007" class="edge">
<title>Node8&#45;&gt;Node7</title>
<g id="a_edge19_Node000008_Node000007"><a xlink:title=" ">
<path fill="none" stroke="#63b8ff" d="M1828.77,-89.4C1827.67,-89.26 1826.58,-89.13 1825.5,-89 1315.4,-29.32 1179.65,-120.35 670.5,-53 657.13,-51.23 643,-48.52 629.52,-45.52"/>
<polygon fill="#63b8ff" stroke="#63b8ff" points="1828.36,-92.88 1838.75,-90.81 1829.33,-85.94 1828.36,-92.88"/>
</a>
</g>
</g>
<!-- Node9 -->
<g id="Node000009" class="node">
<title>Node9</title>
<g id="a_Node000009"><a xlink:href="AdcComprehensiveTest_8cpp.html" target="_top" xlink:title="Comprehensive ADC testing suite for ESP32&#45;C6 DevKit&#45;M&#45;1 (noexcept)">
<polygon fill="white" stroke="#666666" points="1554,-45.5 1365,-45.5 1365,-7.5 1554,-7.5 1554,-45.5"/>
<text text-anchor="start" x="1373" y="-30.3" font-family="Arial" font-size="14.00">examples/esp32/main</text>
<text text-anchor="middle" x="1459.5" y="-15.3" font-family="Arial" font-size="14.00">/AdcComprehensiveTest.cpp</text>
</a>
</g>
</g>
<!-- Node8&#45;&gt;Node9 -->
<g id="edge9_Node000008_Node000009" class="edge">
<title>Node8&#45;&gt;Node9</title>
<g id="a_edge9_Node000008_Node000009"><a xlink:title=" ">
<path fill="none" stroke="#63b8ff" d="M1828.75,-89.56C1827.66,-89.37 1826.58,-89.18 1825.5,-89 1709.64,-69.21 1678.96,-75.02 1563.5,-53 1552.18,-50.84 1540.24,-48.23 1528.65,-45.52"/>
<polygon fill="#63b8ff" stroke="#63b8ff" points="1828.21,-93.02 1838.67,-91.35 1829.45,-86.13 1828.21,-93.02"/>
</a>
</g>
</g>
<!-- Node10 -->
<g id="Node000010" class="node">
<title>Node10</title>
<g id="a_Node000010"><a xlink:href="AsciiArtComprehensiveTest_8cpp.html" target="_top" xlink:title="ASCII Art Generator comprehensive example and test suite for ESP32&#45;C6 DevKit&#45;M&#45;1 (noexcept)">
<polygon fill="white" stroke="#666666" points="1784.5,-45.5 1572.5,-45.5 1572.5,-7.5 1784.5,-7.5 1784.5,-45.5"/>
<text text-anchor="start" x="1580.5" y="-30.3" font-family="Arial" font-size="14.00">examples/esp32/main</text>
<text text-anchor="middle" x="1678.5" y="-15.3" font-family="Arial" font-size="14.00">/AsciiArtComprehensiveTest.cpp</text>
</a>
</g>
</g>
<!-- Node8&#45;&gt;Node10 -->
<g id="edge10_Node000008_Node000010" class="edge">
<title>Node8&#45;&gt;Node10</title>
<g id="a_edge10_Node000008_Node000010"><a xlink:title=" ">
<path fill="none" stroke="#63b8ff" d="M1850.49,-85.68C1813.5,-73.17 1767.24,-57.52 1732.02,-45.61"/>
<polygon fill="#63b8ff" stroke="#63b8ff" points="1849.58,-89.07 1860.17,-88.96 1851.82,-82.44 1849.58,-89.07"/>
</a>
</g>
</g>
<!-- Node11 -->
<g id="Node000011" class="node">
<title>Node11</title>
<g id="a_Node000011"><a xlink:href="BluetoothComprehensiveTest_8cpp.html" target="_top" xlink:title="Comprehensive Bluetooth/NimBLE testing suite for ESP32&#45;C6 DevKit&#45;M&#45;1 (noexcept)">
<polygon fill="white" stroke="#666666" points="2025,-45.5 1802,-45.5 1802,-7.5 2025,-7.5 2025,-45.5"/>
<text text-anchor="start" x="1810" y="-30.3" font-family="Arial" font-size="14.00">examples/esp32/main</text>
<text text-anchor="middle" x="1913.5" y="-15.3" font-family="Arial" font-size="14.00">/BluetoothComprehensiveTest.cpp</text>
</a>
</g>
</g>
<!-- Node8&#45;&gt;Node11 -->
<g id="edge11_Node000008_Node000011" class="edge">
<title>Node8&#45;&gt;Node11</title>
<g id="a_edge11_Node000008_Node000011"><a xlink:title=" ">
<path fill="none" stroke="#63b8ff" d="M1913.5,-78.92C1913.5,-67.9 1913.5,-55.57 1913.5,-45.74"/>
<polygon fill="#63b8ff" stroke="#63b8ff" points="1910,-78.96 1913.5,-88.96 1917,-78.96 1910,-78.96"/>
</a>
</g>
</g>
<!-- Node12 -->
<g id="Node000012" class="node">
<title>Node12</title>
<g id="a_Node000012"><a xlink:href="CanComprehensiveTest_8cpp.html" target="_top" xlink:title="Comprehensive CAN testing suite for ESP32&#45;C6 with ESP&#45;IDF v5.5 TWAI API and SN65 transceiver.">
<polygon fill="white" stroke="#666666" points="2234,-45.5 2043,-45.5 2043,-7.5 2234,-7.5 2234,-45.5"/>
<text text-anchor="start" x="2051" y="-30.3" font-family="Arial" font-size="14.00">examples/esp32/main</text>
<text text-anchor="middle" x="2138.5" y="-15.3" font-family="Arial" font-size="14.00">/CanComprehensiveTest.cpp</text>
</a>
</g>
</g>
<!-- Node8&#45;&gt;Node12 -->
<g id="edge12_Node000008_Node000012" class="edge">
<title>Node8&#45;&gt;Node12</title>
<g id="a_edge12_Node000008_Node000012"><a xlink:title=" ">
<path fill="none" stroke="#63b8ff" d="M1974.28,-85.52C2009.63,-73.04 2053.68,-57.47 2087.26,-45.61"/>
<polygon fill="#63b8ff" stroke="#63b8ff" points="1972.82,-82.33 1964.56,-88.96 1975.15,-88.93 1972.82,-82.33"/>
</a>
</g>
</g>
<!-- Node13 -->
<g id="Node000013" class="node">
<title>Node13</title>
<g id="a_Node000013"><a xlink:href="LoggerComprehensiveTest_8cpp.html" target="_top" xlink:title="Comprehensive Logger testing suite for ESP32&#45;C6 DevKit&#45;M&#45;1 (noexcept)">
<polygon fill="white" stroke="#666666" points="2460.5,-45.5 2252.5,-45.5 2252.5,-7.5 2460.5,-7.5 2460.5,-45.5"/>
<text text-anchor="start" x="2260.5" y="-30.3" font-family="Arial" font-size="14.00">examples/esp32/main</text>
<text text-anchor="middle" x="2356.5" y="-15.3" font-family="Arial" font-size="14.00">/LoggerComprehensiveTest.cpp</text>
</a>
</g>
</g>
<!-- Node8&#45;&gt;Node13 -->
<g id="edge16_Node000008_Node000013" class="edge">
<title>Node8&#45;&gt;Node13</title>
<g id="a_edge16_Node000008_Node000013"><a xlink:title=" ">
<path fill="none" stroke="#63b8ff" d="M1998.26,-89.58C1999.34,-89.38 2000.43,-89.19 2001.5,-89 2108.58,-70.1 2136.61,-72.98 2243.5,-53 2255.36,-50.78 2267.87,-48.2 2280.07,-45.55"/>
<polygon fill="#63b8ff" stroke="#63b8ff" points="1997.54,-86.15 1988.34,-91.41 1998.81,-93.04 1997.54,-86.15"/>
</a>
</g>
</g>
<!-- Node14 -->
<g id="Node000014" class="node">
<title>Node14</title>
<g id="a_Node000014"><a xlink:href="NvsComprehensiveTest_8cpp.html" target="_top" xlink:title="Comprehensive NVS (Non&#45;Volatile Storage) testing suite for ESP32&#45;C6 DevKit&#45;M&#45;1 (noexcept)">
<polygon fill="white" stroke="#666666" points="2668,-45.5 2479,-45.5 2479,-7.5 2668,-7.5 2668,-45.5"/>
<text text-anchor="start" x="2487" y="-30.3" font-family="Arial" font-size="14.00">examples/esp32/main</text>
<text text-anchor="middle" x="2573.5" y="-15.3" font-family="Arial" font-size="14.00">/NvsComprehensiveTest.cpp</text>
</a>
</g>
</g>
<!-- Node8&#45;&gt;Node14 -->
<g id="edge17_Node000008_Node000014" class="edge">
<title>Node8&#45;&gt;Node14</title>
<g id="a_edge17_Node000008_Node000014"><a xlink:title=" ">
<path fill="none" stroke="#63b8ff" d="M1998.24,-89.47C1999.33,-89.31 2000.42,-89.15 2001.5,-89 2208.09,-60.04 2263.5,-85.95 2469.5,-53 2481.71,-51.05 2494.59,-48.39 2506.97,-45.52"/>
<polygon fill="#63b8ff" stroke="#63b8ff" points="1997.61,-86.02 1988.28,-91.04 1998.71,-92.94 1997.61,-86.02"/>
</a>
</g>
</g>
<!-- Node15 -->
<g id="Node000015" class="node">
<title>Node15</title>
<g id="a_Node000015"><a xlink:href="SpiComprehensiveTest_8cpp.html" target="_top" xlink:title="Comprehensive SPI testing suite for ESP32&#45;C6 DevKit&#45;M&#45;1 (noexcept)">
<polygon fill="white" stroke="#666666" points="3900,-45.5 3715,-45.5 3715,-7.5 3900,-7.5 3900,-45.5"/>
<text text-anchor="start" x="3723" y="-30.3" font-family="Arial" font-size="14.00">examples/esp32/main</text>
<text text-anchor="middle" x="3807.5" y="-15.3" font-family="Arial" font-size="14.00">/SpiComprehensiveTest.cpp</text>
</a>
</g>
</g>
<!-- Node8&#45;&gt;Node15 -->
<g id="edge20_Node000008_Node000015" class="edge">
<title>Node8&#45;&gt;Node15</title>
<g id="a_edge20_Node000008_Node000015"><a xlink:title=" ">
<path fill="none" stroke="#63b8ff" d="M1998.35,-97.96C2033.08,-94.6 2073.67,-91.1 2110.5,-89 2464.68,-68.85 3354.97,-100.72 3706.5,-53 3719.13,-51.28 3732.47,-48.58 3745.16,-45.56"/>
<polygon fill="#63b8ff" stroke="#63b8ff" points="1997.86,-94.5 1988.25,-98.95 1998.54,-101.46 1997.86,-94.5"/>
</a>
</g>
</g>
<!-- Node16 -->
<g id="Node000016" class="node">
<title>Node16</title>
<g id="a_Node000016"><a xlink:href="TemperatureComprehensiveTest_8cpp.html" target="_top" xlink:title="Comprehensive Temperature sensor testing suite for ESP32&#45;C6 DevKit&#45;M&#45;1 (noexcept)">
<polygon fill="white" stroke="#666666" points="921.5,-45.5 679.5,-45.5 679.5,-7.5 921.5,-7.5 921.5,-45.5"/>
<text text-anchor="start" x="687.5" y="-30.3" font-family="Arial" font-size="14.00">examples/esp32/main</text>
<text text-anchor="middle" x="800.5" y="-15.3" font-family="Arial" font-size="14.00">/TemperatureComprehensiveTest.cpp</text>
</a>
</g>
</g>
<!-- Node8&#45;&gt;Node16 -->
<g id="edge21_Node000008_Node000016" class="edge">
<title>Node8&#45;&gt;Node16</title>
<g id="a_edge21_Node000008_Node000016"><a xlink:title=" ">
<path fill="none" stroke="#63b8ff" d="M1828.77,-89.41C1827.67,-89.27 1826.58,-89.13 1825.5,-89 1430.31,-40.95 1325.88,-99.45 930.5,-53 914.85,-51.16 898.27,-48.48 882.38,-45.54"/>
<polygon fill="#63b8ff" stroke="#63b8ff" points="1828.34,-92.89 1838.74,-90.85 1829.34,-85.96 1828.34,-92.89"/>
</a>
</g>
</g>
<!-- Node17 -->
<g id="Node000017" class="node">
<title>Node17</title>
<g id="a_Node000017"><a xlink:href="TimerComprehensiveTest_8cpp.html" target="_top" xlink:title="ESP32&#45;C6 Periodic Timer Comprehensive Test Suite v2.0.">
<polygon fill="white" stroke="#666666" points="3697,-45.5 3496,-45.5 3496,-7.5 3697,-7.5 3697,-45.5"/>
<text text-anchor="start" x="3504" y="-30.3" font-family="Arial" font-size="14.00">examples/esp32/main</text>
<text text-anchor="middle" x="3596.5" y="-15.3" font-family="Arial" font-size="14.00">/TimerComprehensiveTest.cpp</text>
</a>
</g>
</g>
<!-- Node8&#45;&gt;Node17 -->
<g id="edge22_Node000008_Node000017" class="edge">
<title>Node8&#45;&gt;Node17</title>
<g id="a_edge22_Node000008_Node000017"><a xlink:title=" ">
<path fill="none" stroke="#63b8ff" d="M1998.35,-98.03C2033.08,-94.68 2073.68,-91.16 2110.5,-89 2416.08,-71.06 3183.9,-92.07 3487.5,-53 3501.09,-51.25 3515.46,-48.53 3529.15,-45.51"/>
<polygon fill="#63b8ff" stroke="#63b8ff" points="1997.86,-94.56 1988.25,-99.02 1998.54,-101.53 1997.86,-94.56"/>
</a>
</g>
</g>
<!-- Node8&#45;&gt;Node18 -->
<g id="edge23_Node000008_Node000018" class="edge">
<title>Node8&#45;&gt;Node18</title>
<g id="a_edge23_Node000008_Node000018"><a xlink:title=" ">
<path fill="none" stroke="#63b8ff" d="M1998.25,-93.72C2012.01,-91.9 2026.13,-90.24 2039.5,-89 2412.03,-54.5 2510.13,-105.8 2880.5,-53 2893.2,-51.19 2906.61,-48.5 2919.42,-45.54"/>
<polygon fill="#63b8ff" stroke="#63b8ff" points="1997.75,-90.26 1988.31,-95.07 1998.69,-97.19 1997.75,-90.26"/>
</a>
</g>
</g>
<!-- Node19 -->
<g id="Node000019" class="node">
<title>Node19</title>
<g id="a_Node000019"><a xlink:href="UsbSerialJtagComprehensiveTest_8cpp.html" target="_top" xlink:title="Comprehensive test suite for the EspUsbSerialJtag wrapper (noexcept).">
<polygon fill="white" stroke="#666666" points="1139.5,-53 939.5,-53 939.5,0 1139.5,0 1139.5,-53"/>
<text text-anchor="start" x="947.5" y="-37.8" font-family="Arial" font-size="14.00">examples/esp32/main</text>
<text text-anchor="start" x="947.5" y="-22.8" font-family="Arial" font-size="14.00">/UsbSerialJtagComprehensive</text>
<text text-anchor="middle" x="1039.5" y="-7.8" font-family="Arial" font-size="14.00">Test.cpp</text>
</a>
</g>
</g>
<!-- Node8&#45;&gt;Node19 -->
<g id="edge24_Node000008_Node000019" class="edge">
<title>Node8&#45;&gt;Node19</title>
<g id="a_edge24_Node000008_Node000019"><a xlink:title=" ">
<path fill="none" stroke="#63b8ff" d="M1828.77,-89.43C1827.67,-89.28 1826.58,-89.14 1825.5,-89 1526.63,-50.7 1446.8,-95.48 1148.5,-53 1145.61,-52.59 1142.69,-52.14 1139.75,-51.65"/>
<polygon fill="#63b8ff" stroke="#63b8ff" points="1828.33,-92.91 1838.73,-90.92 1829.36,-85.98 1828.33,-92.91"/>
</a>
</g>
</g>
<!-- Node20 -->
<g id="Node000020" class="node">
<title>Node20</title>
<g id="a_Node000020"><a xlink:href="WifiComprehensiveTest_8cpp.html" target="_top" xlink:title="Comprehensive WiFi testing suite for ESP32&#45;C6 DevKit&#45;M&#45;1 with ESP&#45;IDF v5.5f.">
<polygon fill="white" stroke="#666666" points="1347,-45.5 1158,-45.5 1158,-7.5 1347,-7.5 1347,-45.5"/>
<text text-anchor="start" x="1166" y="-30.3" font-family="Arial" font-size="14.00">examples/esp32/main</text>
<text text-anchor="middle" x="1252.5" y="-15.3" font-family="Arial" font-size="14.00">/WifiComprehensiveTest.cpp</text>
</a>
</g>
</g>
<!-- Node8&#45;&gt;Node20 -->
<g id="edge25_Node000008_Node000020" class="edge">
<title>Node8&#45;&gt;Node20</title>
<g id="a_edge25_Node000008_Node000020"><a xlink:title=" ">
<path fill="none" stroke="#63b8ff" d="M1828.76,-89.47C1827.67,-89.31 1826.58,-89.15 1825.5,-89 1618.02,-59.95 1562.34,-86.29 1355.5,-53 1343.41,-51.05 1330.64,-48.4 1318.38,-45.53"/>
<polygon fill="#63b8ff" stroke="#63b8ff" points="1828.29,-92.94 1838.72,-91.04 1829.39,-86.02 1828.29,-92.94"/>
</a>
</g>
</g>
<!-- Node23 -->
<g id="Node000023" class="node">
<title>Node23</title>
<g id="a_Node000023"><a xlink:href="EspI2c_8h.html" target="_top" xlink:title="Advanced ESP32&#45;integrated I2C controller for ESP&#45;IDF v5.5+ with proper bus&#45;device architecture.">
<polygon fill="white" stroke="#666666" points="3379,-119.5 3218,-119.5 3218,-96.5 3379,-96.5 3379,-119.5"/>
<text text-anchor="middle" x="3298.5" y="-104.3" font-family="Arial" font-size="14.00">inc/mcu/esp32/EspI2c.h</text>
</a>
</g>
</g>
<!-- Node22&#45;&gt;Node23 -->
<g id="edge29_Node000022_Node000023" class="edge">
<title>Node22&#45;&gt;Node23</title>
<g id="a_edge29_Node000022_Node000023"><a xlink:title=" ">
<path fill="none" stroke="#63b8ff" d="M3171.3,-159.05C3204.6,-145.94 3245.38,-129.9 3271.65,-119.57"/>
<polygon fill="#63b8ff" stroke="#63b8ff" points="3169.7,-155.91 3161.68,-162.83 3172.27,-162.43 3169.7,-155.91"/>
</a>
</g>
</g>
<!-- Node25 -->
<g id="Node000025" class="node">
<title>Node25</title>
<g id="a_Node000025"><a xlink:href="EspPeriodicTimer_8h.html" target="_top" xlink:title="MCU&#45;integrated periodic timer implementation.">
<polygon fill="white" stroke="#666666" points="3686.5,-127 3506.5,-127 3506.5,-89 3686.5,-89 3686.5,-127"/>
<text text-anchor="start" x="3514.5" y="-111.8" font-family="Arial" font-size="14.00">inc/mcu/esp32/EspPeriodic</text>
<text text-anchor="middle" x="3596.5" y="-96.8" font-family="Arial" font-size="14.00">Timer.h</text>
</a>
</g>
</g>
<!-- Node22&#45;&gt;Node25 -->
<g id="edge32_Node000022_Node000025" class="edge">
<title>Node22&#45;&gt;Node25</title>
<g id="a_edge32_Node000022_Node000025"><a xlink:title=" ">
<path fill="none" stroke="#63b8ff" d="M3191.77,-169.58C3277.15,-156.8 3415.39,-136.11 3506.13,-122.53"/>
<polygon fill="#63b8ff" stroke="#63b8ff" points="3191,-166.16 3181.62,-171.1 3192.03,-173.08 3191,-166.16"/>
</a>
</g>
</g>
<!-- Node27 -->
<g id="Node000027" class="node">
<title>Node27</title>
<g id="a_Node000027"><a xlink:href="EspPio_8h.html" target="_top" xlink:title="ESP32 RMT&#45;based Programmable IO Channel implementation with ESP&#45;IDF v5.5+ features.">
<polygon fill="white" stroke="#666666" points="3013.5,-119.5 2851.5,-119.5 2851.5,-96.5 3013.5,-96.5 3013.5,-119.5"/>
<text text-anchor="middle" x="2932.5" y="-104.3" font-family="Arial" font-size="14.00">inc/mcu/esp32/EspPio.h</text>
</a>
</g>
</g>
<!-- Node22&#45;&gt;Node27 -->
<g id="edge35_Node000022_Node000027" class="edge">
<title>Node22&#45;&gt;Node27</title>
<g id="a_edge35_Node000022_Node000027"><a xlink:title=" ">
<path fill="none" stroke="#63b8ff" d="M3059.7,-159.05C3026.4,-145.94 2985.62,-129.9 2959.35,-119.57"/>
<polygon fill="#63b8ff" stroke="#63b8ff" points="3058.73,-162.43 3069.32,-162.83 3061.3,-155.91 3058.73,-162.43"/>
</a>
</g>
</g>
<!-- Node29 -->
<g id="Node000029" class="node">
<title>Node29</title>
<g id="a_Node000029"><a xlink:href="EspSpi_8h.html" target="_top" xlink:title="Advanced MCU&#45;integrated SPI controller implementation with ESP32/ESP&#45;IDF v5.5+ features.">
<polygon fill="white" stroke="#666666" points="3888.5,-119.5 3726.5,-119.5 3726.5,-96.5 3888.5,-96.5 3888.5,-119.5"/>
<text text-anchor="middle" x="3807.5" y="-104.3" font-family="Arial" font-size="14.00">inc/mcu/esp32/EspSpi.h</text>
</a>
</g>
</g>
<!-- Node22&#45;&gt;Node29 -->
<g id="edge38_Node000022_Node000029" class="edge">
<title>Node22&#45;&gt;Node29</title>
<g id="a_edge38_Node000022_Node000029"><a xlink:title=" ">
<path fill="none" stroke="#63b8ff" d="M3191.87,-175.52C3302.96,-167.17 3515.51,-149.82 3695.5,-127 3712.11,-124.89 3730.03,-122.2 3746.57,-119.55"/>
<polygon fill="#63b8ff" stroke="#63b8ff" points="3191.47,-172.04 3181.76,-176.27 3192,-179.02 3191.47,-172.04"/>
</a>
</g>
</g>
<!-- Node31 -->
<g id="Node000031" class="node">
<title>Node31</title>
<g id="a_Node000031"><a xlink:href="EspUart_8h.html" target="_top" xlink:title="ESP32 UART implementation for the HardFOC system.">
<polygon fill="white" stroke="#666666" points="3199.5,-119.5 3031.5,-119.5 3031.5,-96.5 3199.5,-96.5 3199.5,-119.5"/>
<text text-anchor="middle" x="3115.5" y="-104.3" font-family="Arial" font-size="14.00">inc/mcu/esp32/EspUart.h</text>
</a>
</g>
</g>
<!-- Node22&#45;&gt;Node31 -->
<g id="edge41_Node000022_Node000031" class="edge">
<title>Node22&#45;&gt;Node31</title>
<g id="a_edge41_Node000022_Node000031"><a xlink:title=" ">
<path fill="none" stroke="#63b8ff" d="M3115.5,-152.62C3115.5,-140.99 3115.5,-128.26 3115.5,-119.57"/>
<polygon fill="#63b8ff" stroke="#63b8ff" points="3112,-152.83 3115.5,-162.83 3119,-152.83 3112,-152.83"/>
</a>
</g>
</g>
<!-- Node23&#45;&gt;Node5 -->
<g id="edge30_Node000023_Node000005" class="edge">
<title>Node23&#45;&gt;Node5</title>
<g id="a_edge30_Node000023_Node000005"><a xlink:title=" ">
<path fill="none" stroke="#63b8ff" d="M3275.83,-90.31C3258.07,-77.24 3233.4,-59.08 3215.15,-45.64"/>
<polygon fill="#63b8ff" stroke="#63b8ff" points="3273.81,-93.17 3283.93,-96.28 3277.96,-87.53 3273.81,-93.17"/>
</a>
</g>
</g>
<!-- Node24 -->
<g id="Node000024" class="node">
<title>Node24</title>
<g id="a_Node000024"><a xlink:href="EspI2c_8cpp.html" target="_top" xlink:title="Implementation of ESP32&#45;integrated I2C controller with proper bus&#45;device architecture.">
<polygon fill="white" stroke="#666666" points="4295.5,-38 4119.5,-38 4119.5,-15 4295.5,-15 4295.5,-38"/>
<text text-anchor="middle" x="4207.5" y="-22.8" font-family="Arial" font-size="14.00">src/mcu/esp32/EspI2c.cpp</text>
</a>
</g>
</g>
<!-- Node23&#45;&gt;Node24 -->
<g id="edge31_Node000023_Node000024" class="edge">
<title>Node23&#45;&gt;Node24</title>
<g id="a_edge31_Node000023_Node000024"><a xlink:title=" ">
<path fill="none" stroke="#63b8ff" d="M3389.64,-98.15C3423.49,-95.02 3462.23,-91.63 3497.5,-89 3769.66,-68.7 3840.98,-95.9 4110.5,-53 4131.99,-49.58 4155.63,-43.42 4174.18,-38.01"/>
<polygon fill="#63b8ff" stroke="#63b8ff" points="3388.93,-94.7 3379.3,-99.11 3389.58,-101.67 3388.93,-94.7"/>
</a>
</g>
</g>
<!-- Node25&#45;&gt;Node17 -->
<g id="edge33_Node000025_Node000017" class="edge">
<title>Node25&#45;&gt;Node17</title>
<g id="a_edge33_Node000025_Node000017"><a xlink:title=" ">
<path fill="none" stroke="#63b8ff" d="M3596.5,-78.92C3596.5,-67.9 3596.5,-55.57 3596.5,-45.74"/>
<polygon fill="#63b8ff" stroke="#63b8ff" points="3593,-78.96 3596.5,-88.96 3600,-78.96 3593,-78.96"/>
</a>
</g>
</g>
<!-- Node26 -->
<g id="Node000026" class="node">
<title>Node26</title>
<g id="a_Node000026"><a xlink:href="EspPeriodicTimer_8cpp.html" target="_top" xlink:title="Implementation of MCU&#45;integrated periodic timer.">
<polygon fill="white" stroke="#666666" points="4495,-45.5 4314,-45.5 4314,-7.5 4495,-7.5 4495,-45.5"/>
<text text-anchor="start" x="4322" y="-30.3" font-family="Arial" font-size="14.00">src/mcu/esp32/EspPeriodic</text>
<text text-anchor="middle" x="4404.5" y="-15.3" font-family="Arial" font-size="14.00">Timer.cpp</text>
</a>
</g>
</g>
<!-- Node25&#45;&gt;Node26 -->
<g id="edge34_Node000025_Node000026" class="edge">
<title>Node25&#45;&gt;Node26</title>
<g id="a_edge34_Node000025_Node000026"><a xlink:title=" ">
<path fill="none" stroke="#63b8ff" d="M3696.83,-91.39C3703.82,-90.52 3710.76,-89.71 3717.5,-89 3977.45,-61.74 4046.27,-93.47 4304.5,-53 4316.54,-51.11 4329.23,-48.43 4341.39,-45.51"/>
<polygon fill="#63b8ff" stroke="#63b8ff" points="3696.05,-87.97 3686.58,-92.72 3696.95,-94.91 3696.05,-87.97"/>
</a>
</g>
</g>
<!-- Node27&#45;&gt;Node6 -->
<g id="edge36_Node000027_Node000006" class="edge">
<title>Node27&#45;&gt;Node6</title>
<g id="a_edge36_Node000027_Node000006"><a xlink:title=" ">
<path fill="none" stroke="#63b8ff" d="M2902.87,-91.7C2877.35,-78.53 2840.47,-59.49 2813.5,-45.57"/>
<polygon fill="#63b8ff" stroke="#63b8ff" points="2901.56,-94.97 2912.05,-96.44 2904.77,-88.75 2901.56,-94.97"/>
</a>
</g>
</g>
<!-- Node28 -->
<g id="Node000028" class="node">
<title>Node28</title>
<g id="a_Node000028"><a xlink:href="EspPio_8cpp.html" target="_top" xlink:title="ESP32 RMT&#45;based Programmable IO Channel implementation.">
<polygon fill="white" stroke="#666666" points="3478,-38 3301,-38 3301,-15 3478,-15 3478,-38"/>
<text text-anchor="middle" x="3389.5" y="-22.8" font-family="Arial" font-size="14.00">src/mcu/esp32/EspPio.cpp</text>
</a>
</g>
</g>
<!-- Node27&#45;&gt;Node28 -->
<g id="edge37_Node000027_Node000028" class="edge">
<title>Node27&#45;&gt;Node28</title>
<g id="a_edge37_Node000027_Node000028"><a xlink:title=" ">
<path fill="none" stroke="#63b8ff" d="M2992.31,-94.48C3002.37,-92.53 3012.72,-90.63 3022.5,-89 3141.48,-69.16 3173.14,-76.23 3291.5,-53 3312.2,-48.94 3335.03,-43.08 3353.44,-38"/>
<polygon fill="#63b8ff" stroke="#63b8ff" points="2991.52,-91.07 2982.38,-96.43 2992.87,-97.94 2991.52,-91.07"/>
</a>
</g>
</g>
<!-- Node29&#45;&gt;Node15 -->
<g id="edge39_Node000029_Node000015" class="edge">
<title>Node29&#45;&gt;Node15</title>
<g id="a_edge39_Node000029_Node000015"><a xlink:title=" ">
<path fill="none" stroke="#63b8ff" d="M3807.5,-86.25C3807.5,-73.65 3807.5,-57.73 3807.5,-45.64"/>
<polygon fill="#63b8ff" stroke="#63b8ff" points="3804,-86.28 3807.5,-96.28 3811,-86.28 3804,-86.28"/>
</a>
</g>
</g>
<!-- Node30 -->
<g id="Node000030" class="node">
<title>Node30</title>
<g id="a_Node000030"><a xlink:href="EspSpi_8cpp.html" target="_top" xlink:title="Implementation of MCU&#45;integrated SPI controller for ESP32 with ESP&#45;IDF v5.5+ features.">
<polygon fill="white" stroke="#666666" points="4690,-38 4513,-38 4513,-15 4690,-15 4690,-38"/>
<text text-anchor="middle" x="4601.5" y="-22.8" font-family="Arial" font-size="14.00">src/mcu/esp32/EspSpi.cpp</text>
</a>
</g>
</g>
<!-- Node29&#45;&gt;Node30 -->
<g id="edge40_Node000029_Node000030" class="edge">
<title>Node29&#45;&gt;Node30</title>
<g id="a_edge40_Node000029_Node000030"><a xlink:title=" ">
<path fill="none" stroke="#63b8ff" d="M3898.77,-105.15C4032.54,-101.26 4289.3,-89.32 4504.5,-53 4525.62,-49.44 4548.84,-43.41 4567.26,-38.11"/>
<polygon fill="#63b8ff" stroke="#63b8ff" points="3898.47,-101.66 3888.57,-105.44 3898.66,-108.65 3898.47,-101.66"/>
</a>
</g>
</g>
<!-- Node31&#45;&gt;Node18 -->
<g id="edge42_Node000031_Node000018" class="edge">
<title>Node31&#45;&gt;Node18</title>
<g id="a_edge42_Node000031_Node000018"><a xlink:title=" ">
<path fill="none" stroke="#63b8ff" d="M3089.43,-91.18C3067.76,-78.03 3036.92,-59.31 3014.28,-45.57"/>
<polygon fill="#63b8ff" stroke="#63b8ff" points="3087.74,-94.25 3098.1,-96.44 3091.37,-88.26 3087.74,-94.25"/>
</a>
</g>
</g>
<!-- Node32 -->
<g id="Node000032" class="node">
<title>Node32</title>
<g id="a_Node000032"><a xlink:href="EspUart_8cpp.html" target="_top" xlink:title="Implementation of ESP32 UART controller for the HardFOC system.">
<polygon fill="white" stroke="#666666" points="4101,-38 3918,-38 3918,-15 4101,-15 4101,-38"/>
<text text-anchor="middle" x="4009.5" y="-22.8" font-family="Arial" font-size="14.00">src/mcu/esp32/EspUart.cpp</text>
</a>
</g>
</g>
<!-- Node31&#45;&gt;Node32 -->
<g id="edge43_Node000031_Node000032" class="edge">
<title>Node31&#45;&gt;Node32</title>
<g id="a_edge43_Node000031_Node000032"><a xlink:title=" ">
<path fill="none" stroke="#63b8ff" d="M3173.78,-94.55C3185.56,-92.4 3197.89,-90.4 3209.5,-89 3518.77,-51.62 3601.5,-99.72 3909.5,-53 3931.64,-49.64 3956,-43.48 3975.14,-38.06"/>
<polygon fill="#63b8ff" stroke="#63b8ff" points="3172.78,-91.17 3163.6,-96.47 3174.08,-98.05 3172.78,-91.17"/>
</a>
</g>
</g>
<!-- Node33&#45;&gt;Node22 -->
<g id="edge48_Node000033_Node000022" class="edge">
<title>Node33&#45;&gt;Node22</title>
<g id="a_edge48_Node000033_Node000022"><a xlink:title=" ">
<path fill="none" stroke="#63b8ff" d="M2235.11,-249.24C2418,-235.48 2877.67,-200.89 3049.41,-187.97"/>
<polygon fill="#63b8ff" stroke="#63b8ff" points="2234.74,-245.75 2225.03,-249.99 2235.27,-252.73 2234.74,-245.75"/>
</a>
</g>
</g>
<!-- Node34 -->
<g id="Node000034" class="node">
<title>Node34</title>
<g id="a_Node000034"><a xlink:href="EspPwm_8h.html" target="_top" xlink:title="ESP32 LEDC (PWM) controller implementation for the HardFOC system.">
<polygon fill="white" stroke="#666666" points="2245,-193.5 2072,-193.5 2072,-170.5 2245,-170.5 2245,-193.5"/>
<text text-anchor="middle" x="2158.5" y="-178.3" font-family="Arial" font-size="14.00">inc/mcu/esp32/EspPwm.h</text>
</a>
</g>
</g>
<!-- Node33&#45;&gt;Node34 -->
<g id="edge45_Node000033_Node000034" class="edge">
<title>Node33&#45;&gt;Node34</title>
<g id="a_edge45_Node000033_Node000034"><a xlink:title=" ">
<path fill="none" stroke="#63b8ff" d="M2158.5,-226.62C2158.5,-214.99 2158.5,-202.26 2158.5,-193.57"/>
<polygon fill="#63b8ff" stroke="#63b8ff" points="2155,-226.83 2158.5,-236.83 2162,-226.83 2155,-226.83"/>
</a>
</g>
</g>
<!-- Node34&#45;&gt;Node7 -->
<g id="edge46_Node000034_Node000007" class="edge">
<title>Node34&#45;&gt;Node7</title>
<g id="a_edge46_Node000034_Node000007"><a xlink:title=" ">
<path fill="none" stroke="#63b8ff" d="M2067.89,-169.09C1977.91,-156.79 1850.4,-137.9 1829.5,-127 1808.6,-116.1 1814.07,-98.51 1792.5,-89 1678.38,-38.66 794.15,-69.41 670.5,-53 657.13,-51.23 643,-48.51 629.52,-45.51"/>
<polygon fill="#63b8ff" stroke="#63b8ff" points="2067.47,-172.57 2077.85,-170.45 2068.41,-165.63 2067.47,-172.57"/>
</a>
</g>
</g>
<!-- Node35 -->
<g id="Node000035" class="node">
<title>Node35</title>
<g id="a_Node000035"><a xlink:href="EspPwm_8cpp.html" target="_top" xlink:title="Implementation of ESP32 family LEDC (PWM) controller for the HardFOC system.">
<polygon fill="white" stroke="#666666" points="2307.5,-119.5 2119.5,-119.5 2119.5,-96.5 2307.5,-96.5 2307.5,-119.5"/>
<text text-anchor="middle" x="2213.5" y="-104.3" font-family="Arial" font-size="14.00">src/mcu/esp32/EspPwm.cpp</text>
</a>
</g>
</g>
<!-- Node34&#45;&gt;Node35 -->
<g id="edge47_Node000034_Node000035" class="edge">
<title>Node34&#45;&gt;Node35</title>
<g id="a_edge47_Node000034_Node000035"><a xlink:title=" ">
<path fill="none" stroke="#63b8ff" d="M2172.86,-162.2C2183.21,-148.65 2196.81,-130.85 2205.35,-119.67"/>
<polygon fill="#63b8ff" stroke="#63b8ff" points="2169.9,-160.3 2166.62,-170.38 2175.47,-164.55 2169.9,-160.3"/>
</a>
</g>
</g>
</g>
</svg>

<g id="navigator" transform="translate(0 0)" fill="#404254">
  <rect fill="#f2f5e9" fill-opacity="0.5" stroke="#606060" stroke-width=".5" x="0" y="0" width="60" height="60"/>
  <use id="zoomplus" xlink:href="#zoomPlus" x="17" y="9" onmousedown="handleZoom(evt,'in')"/>
  <use id="zoomminus" xlink:href="#zoomMin" x="42" y="9" onmousedown="handleZoom(evt,'out')"/>
  <use id="reset" xlink:href="#resetDef" x="30" y="36" onmousedown="handleReset()"/>
   <use id="arrowup" xlink:href="#arrowUp" x="0" y="0" onmousedown="handlePan(0,-1)"/>
  <use id="arrowright" xlink:href="#arrowRight" x="0" y="0" onmousedown="handlePan(1,0)"/>
  <use id="arrowdown" xlink:href="#arrowDown" x="0" y="0" onmousedown="handlePan(0,1)"/>
  <use id="arrowleft" xlink:href="#arrowLeft" x="0" y="0" onmousedown="handlePan(-1,0)"/>
</g>
<svg viewBox="0 0 15 15" width="100%" height="30px" preserveAspectRatio="xMaxYMin meet">
 <g id="arrow_out" transform="scale(0.3 0.3)">
  <a xlink:href="EspTypes__GPIO_8h__dep__incl_org.svg" target="_base">
   <rect id="button" ry="5" rx="5" y="6" x="6" height="38" width="38"
        fill="#f2f5e9" fill-opacity="0.5" stroke="#606060" stroke-width="1.0"/>
   <path id="arrow"
     d="M 11.500037,31.436501 C 11.940474,20.09759 22.043105,11.32322 32.158766,21.979434 L 37.068811,17.246167 C 37.068811,17.246167 37.088388,32 37.088388,32 L 22.160133,31.978069 C 22.160133,31.978069 26.997745,27.140456 26.997745,27.140456 C 18.528582,18.264221 13.291696,25.230495 11.500037,31.436501 z"
     style="fill:#404040;"/>
  </a>
 </g>
</svg>

<style type='text/css'>
<![CDATA[
[data-mouse-over-selected='false'] { opacity: 0.7; }
[data-mouse-over-selected='true']  { opacity: 1.0; }
]]>
</style>
<script type="application/ecmascript"><![CDATA[
document.addEventListener('DOMContentLoaded', (event) => {
  highlightEdges();
  highlightAdjacentNodes();
});
]]></script>
</svg>
