<?xml version="1.0" encoding="UTF-8" standalone="no"?>
<!DOCTYPE svg PUBLIC "-//W3C//DTD SVG 1.1//EN"
 "http://www.w3.org/Graphics/SVG/1.1/DTD/svg11.dtd">
<!-- Generated by graphviz version 2.43.0 (0)
 -->
<!-- Title: src/mcu/esp32/EspTemperature.cpp Pages: 1 -->
<!--zoomable 282 -->

<svg id="main" version="1.1" xmlns="http://www.w3.org/2000/svg" xmlns:xlink="http://www.w3.org/1999/xlink" xml:space="preserve" onload="init(evt)">
<style type="text/css"><![CDATA[
.node, .edge {opacity: 0.7;}
.node.selected, .edge.selected {opacity: 1;}
.edge:hover path { stroke: red; }
.edge:hover polygon { stroke: red; fill: red; }
]]></style>

<defs>
  <circle id="rim" cx="0" cy="0" r="7"/>
  <circle id="rim2" cx="0" cy="0" r="3.5"/>
  <g id="zoomPlus">
    <use xlink:href="#rim" fill="#404040"><set attributeName="fill" to="#808080" begin="zoomplus.mouseover" end="zoomplus.mouseout"/></use>
    <path d="M-4,0h8M0,-4v8" fill="none" stroke="white" stroke-width="1.5" pointer-events="none"/>
  </g>
  <g id="zoomMin">
    <use xlink:href="#rim" fill="#404040"><set attributeName="fill" to="#808080" begin="zoomminus.mouseover" end="zoomminus.mouseout"/></use>
    <path d="M-4,0h8" fill="none" stroke="white" stroke-width="1.5" pointer-events="none"/>
  </g>
  <g id="arrowUp" transform="translate(30 24)">
    <use xlink:href="#rim"/>
    <path pointer-events="none" fill="none" stroke="white" stroke-width="1.5" d="M0,-3.0v7 M-2.5,-0.5L0,-3.0L2.5,-0.5"/>
  </g>
  <g id="arrowRight" transform="rotate(90) translate(36 -43)">
    <use xlink:href="#rim"/>
    <path pointer-events="none" fill="none" stroke="white" stroke-width="1.5" d="M0,-3.0v7 M-2.5,-0.5L0,-3.0L2.5,-0.5"/>
  </g>
  <g id="arrowDown" transform="rotate(180) translate(-30 -48)">
    <use xlink:href="#rim"/>
    <path pointer-events="none" fill="none" stroke="white" stroke-width="1.5" d="M0,-3.0v7 M-2.5,-0.5L0,-3.0L2.5,-0.5"/>
  </g>
  <g id="arrowLeft" transform="rotate(270) translate(-36 17)">
    <use xlink:href="#rim"/>
    <path pointer-events="none" fill="none" stroke="white" stroke-width="1.5" d="M0,-3.0v7 M-2.5,-0.5L0,-3.0L2.5,-0.5"/>
  </g>
  <g id="resetDef">
    <use xlink:href="#rim2" fill="#404040"><set attributeName="fill" to="#808080" begin="reset.mouseover" end="reset.mouseout"/></use>
  </g>
</defs>
<script type="application/ecmascript">
var viewWidth = 1284;
var viewHeight = 282;
var sectionId = 'dynsection-0';
</script>
<script type="application/ecmascript" xlink:href="svg.min.js"/>
<svg id="graph" class="graph">
<g id="viewport">
<title>src/mcu/esp32/EspTemperature.cpp</title>
<!-- Node1 -->
<g id="Node000001" class="node">
<title>Node1</title>
<g id="a_Node000001"><a xlink:title="ESP32&#45;C6 internal temperature sensor implementation for the HardFOC system.">
<polygon fill="#999999" stroke="#666666" points="991,-274 757,-274 757,-251 991,-251 991,-274"/>
<text text-anchor="middle" x="874" y="-258.8" font-family="Arial" font-size="14.00">src/mcu/esp32/EspTemperature.cpp</text>
</a>
</g>
</g>
<!-- Node2 -->
<g id="Node000002" class="node">
<title>Node2</title>
<g id="a_Node000002"><a xlink:href="EspTemperature_8h.html" target="_top" xlink:title="ESP32&#45;C6 internal temperature sensor implementation for the HardFOC system.">
<polygon fill="white" stroke="#666666" points="778,-215 650,-215 650,-192 778,-192 778,-215"/>
<text text-anchor="middle" x="714" y="-199.8" font-family="Arial" font-size="14.00">EspTemperature.h</text>
</a>
</g>
</g>
<!-- Node1&#45;&gt;Node2 -->
<g id="edge1_Node000001_Node000002" class="edge">
<title>Node1&#45;&gt;Node2</title>
<g id="a_edge1_Node000001_Node000002"><a xlink:title=" ">
<path fill="none" stroke="#63b8ff" d="M844.28,-250.91C818.57,-241.75 781.22,-228.45 753.09,-218.43"/>
<polygon fill="#63b8ff" stroke="#63b8ff" points="754.16,-215.09 743.56,-215.03 751.81,-221.68 754.16,-215.09"/>
</a>
</g>
</g>
<!-- Node18 -->
<g id="Node000018" class="node">
<title>Node18</title>
<g id="a_Node000018"><a xlink:title=" ">
<polygon fill="#e0e0e0" stroke="#999999" points="869.5,-215 796.5,-215 796.5,-192 869.5,-192 869.5,-215"/>
<text text-anchor="middle" x="833" y="-199.8" font-family="Arial" font-size="14.00">algorithm</text>
</a>
</g>
</g>
<!-- Node1&#45;&gt;Node18 -->
<g id="edge20_Node000001_Node000018" class="edge">
<title>Node1&#45;&gt;Node18</title>
<g id="a_edge20_Node000001_Node000018"><a xlink:title=" ">
<path fill="none" stroke="#63b8ff" d="M866.29,-250.78C860.73,-243.06 853.09,-232.43 846.53,-223.31"/>
<polygon fill="#63b8ff" stroke="#63b8ff" points="849.36,-221.25 840.68,-215.17 843.68,-225.34 849.36,-221.25"/>
</a>
</g>
</g>
<!-- Node19 -->
<g id="Node000019" class="node">
<title>Node19</title>
<g id="a_Node000019"><a xlink:title=" ">
<polygon fill="#e0e0e0" stroke="#999999" points="942,-215 888,-215 888,-192 942,-192 942,-215"/>
<text text-anchor="middle" x="915" y="-199.8" font-family="Arial" font-size="14.00">cmath</text>
</a>
</g>
</g>
<!-- Node1&#45;&gt;Node19 -->
<g id="edge21_Node000001_Node000019" class="edge">
<title>Node1&#45;&gt;Node19</title>
<g id="a_edge21_Node000001_Node000019"><a xlink:title=" ">
<path fill="none" stroke="#63b8ff" d="M881.71,-250.78C887.27,-243.06 894.91,-232.43 901.47,-223.31"/>
<polygon fill="#63b8ff" stroke="#63b8ff" points="904.32,-225.34 907.32,-215.17 898.64,-221.25 904.32,-225.34"/>
</a>
</g>
</g>
<!-- Node20 -->
<g id="Node000020" class="node">
<title>Node20</title>
<g id="a_Node000020"><a xlink:title=" ">
<polygon fill="#e0e0e0" stroke="#999999" points="1016,-215 960,-215 960,-192 1016,-192 1016,-215"/>
<text text-anchor="middle" x="988" y="-199.8" font-family="Arial" font-size="14.00">cstring</text>
</a>
</g>
</g>
<!-- Node1&#45;&gt;Node20 -->
<g id="edge22_Node000001_Node000020" class="edge">
<title>Node1&#45;&gt;Node20</title>
<g id="a_edge22_Node000001_Node000020"><a xlink:title=" ">
<path fill="none" stroke="#63b8ff" d="M895.18,-250.91C912.77,-242.11 938.03,-229.49 957.76,-219.62"/>
<polygon fill="#63b8ff" stroke="#63b8ff" points="959.56,-222.63 966.94,-215.03 956.43,-216.37 959.56,-222.63"/>
</a>
</g>
</g>
<!-- Node3 -->
<g id="Node000003" class="node">
<title>Node3</title>
<g id="a_Node000003"><a xlink:href="BaseTemperature_8h.html" target="_top" xlink:title="Abstract base class for temperature sensor implementations in the HardFOC system.">
<polygon fill="white" stroke="#666666" points="267,-148.5 99,-148.5 99,-125.5 267,-125.5 267,-148.5"/>
<text text-anchor="middle" x="183" y="-133.3" font-family="Arial" font-size="14.00">base/BaseTemperature.h</text>
</a>
</g>
</g>
<!-- Node2&#45;&gt;Node3 -->
<g id="edge2_Node000002_Node000003" class="edge">
<title>Node2&#45;&gt;Node3</title>
<g id="a_edge2_Node000002_Node000003"><a xlink:title=" ">
<path fill="none" stroke="#63b8ff" d="M649.95,-197.43C564.43,-190.26 408.35,-175.8 276,-156 265.29,-154.4 253.94,-152.43 242.98,-150.39"/>
<polygon fill="#63b8ff" stroke="#63b8ff" points="243.54,-146.93 233.06,-148.5 242.23,-153.81 243.54,-146.93"/>
</a>
</g>
</g>
<!-- Node8 -->
<g id="Node000008" class="node">
<title>Node8</title>
<g id="a_Node000008"><a xlink:href="PlatformMutex_8h.html" target="_top" xlink:title="Cross&#45;platform RTOS mutex and synchronization primitives.">
<polygon fill="white" stroke="#666666" points="429,-148.5 285,-148.5 285,-125.5 429,-125.5 429,-148.5"/>
<text text-anchor="middle" x="357" y="-133.3" font-family="Arial" font-size="14.00">utils/PlatformMutex.h</text>
</a>
</g>
</g>
<!-- Node2&#45;&gt;Node8 -->
<g id="edge8_Node000002_Node000008" class="edge">
<title>Node2&#45;&gt;Node8</title>
<g id="a_edge8_Node000002_Node000008"><a xlink:title=" ">
<path fill="none" stroke="#63b8ff" d="M649.82,-192.16C594.83,-183.15 513.58,-169.44 443,-156 434.29,-154.34 425.1,-152.51 416.1,-150.67"/>
<polygon fill="#63b8ff" stroke="#63b8ff" points="416.56,-147.19 406.06,-148.59 415.14,-154.04 416.56,-147.19"/>
</a>
</g>
</g>
<!-- Node10 -->
<g id="Node000010" class="node">
<title>Node10</title>
<g id="a_Node000010"><a xlink:title=" ">
<polygon fill="#e0e0e0" stroke="#999999" points="485.5,-82 428.5,-82 428.5,-59 485.5,-59 485.5,-82"/>
<text text-anchor="middle" x="457" y="-66.8" font-family="Arial" font-size="14.00">atomic</text>
</a>
</g>
</g>
<!-- Node2&#45;&gt;Node10 -->
<g id="edge18_Node000002_Node000010" class="edge">
<title>Node2&#45;&gt;Node10</title>
<g id="a_edge18_Node000002_Node000010"><a xlink:title=" ">
<path fill="none" stroke="#63b8ff" d="M649.75,-197.77C587.9,-191.89 500.26,-179.59 476,-156 459.06,-139.53 455.76,-111.44 455.73,-92.2"/>
<polygon fill="#63b8ff" stroke="#63b8ff" points="459.24,-92.14 456.02,-82.05 452.24,-91.94 459.24,-92.14"/>
</a>
</g>
</g>
<!-- Node11 -->
<g id="Node000011" class="node">
<title>Node11</title>
<g id="a_Node000011"><a xlink:title=" ">
<polygon fill="#e0e0e0" stroke="#999999" points="613,-156 485,-156 485,-118 613,-118 613,-156"/>
<text text-anchor="start" x="493" y="-140.8" font-family="Arial" font-size="14.00">driver/temperature</text>
<text text-anchor="middle" x="549" y="-125.8" font-family="Arial" font-size="14.00">_sensor.h</text>
</a>
</g>
</g>
<!-- Node2&#45;&gt;Node11 -->
<g id="edge12_Node000002_Node000011" class="edge">
<title>Node2&#45;&gt;Node11</title>
<g id="a_edge12_Node000002_Node000011"><a xlink:title=" ">
<path fill="none" stroke="#63b8ff" d="M687.12,-191.99C664.9,-183.31 632.61,-170.68 604.83,-159.83"/>
<polygon fill="#63b8ff" stroke="#63b8ff" points="605.81,-156.45 595.22,-156.07 603.26,-162.97 605.81,-156.45"/>
</a>
</g>
</g>
<!-- Node12 -->
<g id="Node000012" class="node">
<title>Node12</title>
<g id="a_Node000012"><a xlink:title=" ">
<polygon fill="#e0e0e0" stroke="#999999" points="704.5,-148.5 631.5,-148.5 631.5,-125.5 704.5,-125.5 704.5,-148.5"/>
<text text-anchor="middle" x="668" y="-133.3" font-family="Arial" font-size="14.00">esp_err.h</text>
</a>
</g>
</g>
<!-- Node2&#45;&gt;Node12 -->
<g id="edge13_Node000002_Node000012" class="edge">
<title>Node2&#45;&gt;Node12</title>
<g id="a_edge13_Node000002_Node000012"><a xlink:title=" ">
<path fill="none" stroke="#63b8ff" d="M706.4,-191.85C699.72,-182.48 689.82,-168.6 681.75,-157.28"/>
<polygon fill="#63b8ff" stroke="#63b8ff" points="684.42,-154.99 675.76,-148.88 678.72,-159.06 684.42,-154.99"/>
</a>
</g>
</g>
<!-- Node13 -->
<g id="Node000013" class="node">
<title>Node13</title>
<g id="a_Node000013"><a xlink:title=" ">
<polygon fill="#e0e0e0" stroke="#999999" points="797.5,-148.5 722.5,-148.5 722.5,-125.5 797.5,-125.5 797.5,-148.5"/>
<text text-anchor="middle" x="760" y="-133.3" font-family="Arial" font-size="14.00">esp_log.h</text>
</a>
</g>
</g>
<!-- Node2&#45;&gt;Node13 -->
<g id="edge14_Node000002_Node000013" class="edge">
<title>Node2&#45;&gt;Node13</title>
<g id="a_edge14_Node000002_Node000013"><a xlink:title=" ">
<path fill="none" stroke="#63b8ff" d="M721.6,-191.85C728.28,-182.48 738.18,-168.6 746.25,-157.28"/>
<polygon fill="#63b8ff" stroke="#63b8ff" points="749.28,-159.06 752.24,-148.88 743.58,-154.99 749.28,-159.06"/>
</a>
</g>
</g>
<!-- Node14 -->
<g id="Node000014" class="node">
<title>Node14</title>
<g id="a_Node000014"><a xlink:title=" ">
<polygon fill="#e0e0e0" stroke="#999999" points="902.5,-148.5 815.5,-148.5 815.5,-125.5 902.5,-125.5 902.5,-148.5"/>
<text text-anchor="middle" x="859" y="-133.3" font-family="Arial" font-size="14.00">esp_timer.h</text>
</a>
</g>
</g>
<!-- Node2&#45;&gt;Node14 -->
<g id="edge15_Node000002_Node000014" class="edge">
<title>Node2&#45;&gt;Node14</title>
<g id="a_edge15_Node000002_Node000014"><a xlink:title=" ">
<path fill="none" stroke="#63b8ff" d="M737.62,-191.99C761.63,-181.31 799.04,-164.67 825.98,-152.69"/>
<polygon fill="#63b8ff" stroke="#63b8ff" points="827.68,-155.76 835.39,-148.5 824.83,-149.37 827.68,-155.76"/>
</a>
</g>
</g>
<!-- Node15 -->
<g id="Node000015" class="node">
<title>Node15</title>
<g id="a_Node000015"><a xlink:title=" ">
<polygon fill="#e0e0e0" stroke="#999999" points="1063.5,-148.5 920.5,-148.5 920.5,-125.5 1063.5,-125.5 1063.5,-148.5"/>
<text text-anchor="middle" x="992" y="-133.3" font-family="Arial" font-size="14.00">freertos/FreeRTOS.h</text>
</a>
</g>
</g>
<!-- Node2&#45;&gt;Node15 -->
<g id="edge16_Node000002_Node000015" class="edge">
<title>Node2&#45;&gt;Node15</title>
<g id="a_edge16_Node000002_Node000015"><a xlink:title=" ">
<path fill="none" stroke="#63b8ff" d="M759.28,-191.99C807.75,-180.75 884.67,-162.9 936.68,-150.84"/>
<polygon fill="#63b8ff" stroke="#63b8ff" points="937.78,-154.17 946.74,-148.5 936.2,-147.35 937.78,-154.17"/>
</a>
</g>
</g>
<!-- Node16 -->
<g id="Node000016" class="node">
<title>Node16</title>
<g id="a_Node000016"><a xlink:title=" ">
<polygon fill="#e0e0e0" stroke="#999999" points="1184,-148.5 1082,-148.5 1082,-125.5 1184,-125.5 1184,-148.5"/>
<text text-anchor="middle" x="1133" y="-133.3" font-family="Arial" font-size="14.00">freertos/task.h</text>
</a>
</g>
</g>
<!-- Node2&#45;&gt;Node16 -->
<g id="edge17_Node000002_Node000016" class="edge">
<title>Node2&#45;&gt;Node16</title>
<g id="a_edge17_Node000002_Node000016"><a xlink:title=" ">
<path fill="none" stroke="#63b8ff" d="M778.17,-193.33C781.49,-192.88 784.78,-192.43 788,-192 914.54,-175.03 948.09,-182.43 1073,-156 1079.14,-154.7 1085.57,-153.07 1091.84,-151.33"/>
<polygon fill="#63b8ff" stroke="#63b8ff" points="1092.87,-154.67 1101.49,-148.52 1090.91,-147.95 1092.87,-154.67"/>
</a>
</g>
</g>
<!-- Node17 -->
<g id="Node000017" class="node">
<title>Node17</title>
<g id="a_Node000017"><a xlink:title=" ">
<polygon fill="#e0e0e0" stroke="#999999" points="1276,-148.5 1202,-148.5 1202,-125.5 1276,-125.5 1276,-148.5"/>
<text text-anchor="middle" x="1239" y="-133.3" font-family="Arial" font-size="14.00">functional</text>
</a>
</g>
</g>
<!-- Node2&#45;&gt;Node17 -->
<g id="edge19_Node000002_Node000017" class="edge">
<title>Node2&#45;&gt;Node17</title>
<g id="a_edge19_Node000002_Node000017"><a xlink:title=" ">
<path fill="none" stroke="#63b8ff" d="M778.15,-193.19C781.48,-192.77 784.78,-192.37 788,-192 967.52,-171.3 1017.08,-197.34 1193,-156 1197.23,-155.01 1201.58,-153.7 1205.85,-152.25"/>
<polygon fill="#63b8ff" stroke="#63b8ff" points="1207.37,-155.42 1215.54,-148.66 1204.94,-148.85 1207.37,-155.42"/>
</a>
</g>
</g>
<!-- Node4 -->
<g id="Node000004" class="node">
<title>Node4</title>
<g id="a_Node000004"><a xlink:href="HardwareTypes_8h.html" target="_top" xlink:title="Platform&#45;agnostic hardware type definitions for the HardFOC system.">
<polygon fill="white" stroke="#666666" points="122,-82 0,-82 0,-59 122,-59 122,-82"/>
<text text-anchor="middle" x="61" y="-66.8" font-family="Arial" font-size="14.00">HardwareTypes.h</text>
</a>
</g>
</g>
<!-- Node3&#45;&gt;Node4 -->
<g id="edge3_Node000003_Node000004" class="edge">
<title>Node3&#45;&gt;Node4</title>
<g id="a_edge3_Node000003_Node000004"><a xlink:title=" ">
<path fill="none" stroke="#63b8ff" d="M163.13,-125.49C143.28,-115 112.55,-98.75 89.98,-86.82"/>
<polygon fill="#63b8ff" stroke="#63b8ff" points="91.34,-83.58 80.86,-82 88.07,-89.77 91.34,-83.58"/>
</a>
</g>
</g>
<!-- Node5 -->
<g id="Node000005" class="node">
<title>Node5</title>
<g id="a_Node000005"><a xlink:title=" ">
<polygon fill="#e0e0e0" stroke="#999999" points="280,-23 224,-23 224,0 280,0 280,-23"/>
<text text-anchor="middle" x="252" y="-7.8" font-family="Arial" font-size="14.00">cstdint</text>
</a>
</g>
</g>
<!-- Node3&#45;&gt;Node5 -->
<g id="edge6_Node000003_Node000005" class="edge">
<title>Node3&#45;&gt;Node5</title>
<g id="a_edge6_Node000003_Node000005"><a xlink:title=" ">
<path fill="none" stroke="#63b8ff" d="M195.94,-125.31C207.29,-115.25 223.45,-99.2 233,-82 241.42,-66.84 246.29,-47.71 248.99,-33.36"/>
<polygon fill="#63b8ff" stroke="#63b8ff" points="252.45,-33.91 250.65,-23.47 245.54,-32.75 252.45,-33.91"/>
</a>
</g>
</g>
<!-- Node7 -->
<g id="Node000007" class="node">
<title>Node7</title>
<g id="a_Node000007"><a xlink:title=" ">
<polygon fill="#e0e0e0" stroke="#999999" points="224,-82 140,-82 140,-59 224,-59 224,-82"/>
<text text-anchor="middle" x="182" y="-66.8" font-family="Arial" font-size="14.00">string_view</text>
</a>
</g>
</g>
<!-- Node3&#45;&gt;Node7 -->
<g id="edge7_Node000003_Node000007" class="edge">
<title>Node3&#45;&gt;Node7</title>
<g id="a_edge7_Node000003_Node000007"><a xlink:title=" ">
<path fill="none" stroke="#63b8ff" d="M182.83,-125.35C182.7,-116.44 182.5,-103.46 182.33,-92.48"/>
<polygon fill="#63b8ff" stroke="#63b8ff" points="185.82,-92.33 182.17,-82.38 178.82,-92.44 185.82,-92.33"/>
</a>
</g>
</g>
<!-- Node4&#45;&gt;Node5 -->
<g id="edge4_Node000004_Node000005" class="edge">
<title>Node4&#45;&gt;Node5</title>
<g id="a_edge4_Node000004_Node000005"><a xlink:title=" ">
<path fill="none" stroke="#63b8ff" d="M96.48,-58.91C129.96,-48.92 180,-33.99 214.22,-23.78"/>
<polygon fill="#63b8ff" stroke="#63b8ff" points="215.27,-27.11 223.85,-20.9 213.27,-20.41 215.27,-27.11"/>
</a>
</g>
</g>
<!-- Node6 -->
<g id="Node000006" class="node">
<title>Node6</title>
<g id="a_Node000006"><a xlink:title=" ">
<polygon fill="#e0e0e0" stroke="#999999" points="85,-23 37,-23 37,0 85,0 85,-23"/>
<text text-anchor="middle" x="61" y="-7.8" font-family="Arial" font-size="14.00">limits</text>
</a>
</g>
</g>
<!-- Node4&#45;&gt;Node6 -->
<g id="edge5_Node000004_Node000006" class="edge">
<title>Node4&#45;&gt;Node6</title>
<g id="a_edge5_Node000004_Node000006"><a xlink:title=" ">
<path fill="none" stroke="#63b8ff" d="M61,-58.78C61,-51.61 61,-41.95 61,-33.31"/>
<polygon fill="#63b8ff" stroke="#63b8ff" points="64.5,-33.17 61,-23.17 57.5,-33.17 64.5,-33.17"/>
</a>
</g>
</g>
<!-- Node8&#45;&gt;Node5 -->
<g id="edge11_Node000008_Node000005" class="edge">
<title>Node8&#45;&gt;Node5</title>
<g id="a_edge11_Node000008_Node000005"><a xlink:title=" ">
<path fill="none" stroke="#63b8ff" d="M347.31,-125.35C337.52,-114.54 322.03,-97.26 309,-82 294.57,-65.1 278.55,-45.49 267.18,-31.42"/>
<polygon fill="#63b8ff" stroke="#63b8ff" points="269.75,-29.04 260.75,-23.45 264.3,-33.43 269.75,-29.04"/>
</a>
</g>
</g>
<!-- Node9 -->
<g id="Node000009" class="node">
<title>Node9</title>
<g id="a_Node000009"><a xlink:href="McuSelect_8h.html" target="_top" xlink:title="Centralized MCU platform selection and configuration header.">
<polygon fill="white" stroke="#666666" points="410,-82 318,-82 318,-59 410,-59 410,-82"/>
<text text-anchor="middle" x="364" y="-66.8" font-family="Arial" font-size="14.00">McuSelect.h</text>
</a>
</g>
</g>
<!-- Node8&#45;&gt;Node9 -->
<g id="edge9_Node000008_Node000009" class="edge">
<title>Node8&#45;&gt;Node9</title>
<g id="a_edge9_Node000008_Node000009"><a xlink:title=" ">
<path fill="none" stroke="#63b8ff" d="M358.16,-125.35C359.12,-116.44 360.53,-103.46 361.72,-92.48"/>
<polygon fill="#63b8ff" stroke="#63b8ff" points="365.22,-92.7 362.82,-82.38 358.26,-91.95 365.22,-92.7"/>
</a>
</g>
</g>
<!-- Node8&#45;&gt;Node10 -->
<g id="edge10_Node000008_Node000010" class="edge">
<title>Node8&#45;&gt;Node10</title>
<g id="a_edge10_Node000008_Node000010"><a xlink:title=" ">
<path fill="none" stroke="#63b8ff" d="M373.51,-125.35C389.44,-115.08 413.74,-99.4 432.03,-87.6"/>
<polygon fill="#63b8ff" stroke="#63b8ff" points="433.96,-90.53 440.46,-82.17 430.16,-84.65 433.96,-90.53"/>
</a>
</g>
</g>
</g>
</svg>

<g id="navigator" transform="translate(0 0)" fill="#404254">
  <rect fill="#f2f5e9" fill-opacity="0.5" stroke="#606060" stroke-width=".5" x="0" y="0" width="60" height="60"/>
  <use id="zoomplus" xlink:href="#zoomPlus" x="17" y="9" onmousedown="handleZoom(evt,'in')"/>
  <use id="zoomminus" xlink:href="#zoomMin" x="42" y="9" onmousedown="handleZoom(evt,'out')"/>
  <use id="reset" xlink:href="#resetDef" x="30" y="36" onmousedown="handleReset()"/>
   <use id="arrowup" xlink:href="#arrowUp" x="0" y="0" onmousedown="handlePan(0,-1)"/>
  <use id="arrowright" xlink:href="#arrowRight" x="0" y="0" onmousedown="handlePan(1,0)"/>
  <use id="arrowdown" xlink:href="#arrowDown" x="0" y="0" onmousedown="handlePan(0,1)"/>
  <use id="arrowleft" xlink:href="#arrowLeft" x="0" y="0" onmousedown="handlePan(-1,0)"/>
</g>
<svg viewBox="0 0 15 15" width="100%" height="30px" preserveAspectRatio="xMaxYMin meet">
 <g id="arrow_out" transform="scale(0.3 0.3)">
  <a xlink:href="EspTemperature_8cpp__incl_org.svg" target="_base">
   <rect id="button" ry="5" rx="5" y="6" x="6" height="38" width="38"
        fill="#f2f5e9" fill-opacity="0.5" stroke="#606060" stroke-width="1.0"/>
   <path id="arrow"
     d="M 11.500037,31.436501 C 11.940474,20.09759 22.043105,11.32322 32.158766,21.979434 L 37.068811,17.246167 C 37.068811,17.246167 37.088388,32 37.088388,32 L 22.160133,31.978069 C 22.160133,31.978069 26.997745,27.140456 26.997745,27.140456 C 18.528582,18.264221 13.291696,25.230495 11.500037,31.436501 z"
     style="fill:#404040;"/>
  </a>
 </g>
</svg>

<style type='text/css'>
<![CDATA[
[data-mouse-over-selected='false'] { opacity: 0.7; }
[data-mouse-over-selected='true']  { opacity: 1.0; }
]]>
</style>
<script type="application/ecmascript"><![CDATA[
document.addEventListener('DOMContentLoaded', (event) => {
  highlightEdges();
  highlightAdjacentNodes();
});
]]></script>
</svg>
