<?xml version="1.0" encoding="UTF-8" standalone="no"?>
<!DOCTYPE svg PUBLIC "-//W3C//DTD SVG 1.1//EN"
 "http://www.w3.org/Graphics/SVG/1.1/DTD/svg11.dtd">
<!-- Generated by graphviz version 2.43.0 (0)
 -->
<!-- Title: inc/mcu/esp32/utils/EspTypes_PWM.h Pages: 1 -->
<svg width="2109pt" height="268pt"
 viewBox="0.00 0.00 2109.00 268.00" xmlns="http://www.w3.org/2000/svg" xmlns:xlink="http://www.w3.org/1999/xlink">
<g id="graph0" class="graph" transform="scale(1 1) rotate(0) translate(4 264)">
<title>inc/mcu/esp32/utils/EspTypes_PWM.h</title>
<!-- Node1 -->
<g id="Node000001" class="node">
<title>Node1</title>
<g id="a_Node000001"><a xlink:title="ESP32 PWM type definitions for LEDC peripheral hardware abstraction.">
<polygon fill="#999999" stroke="#666666" points="567,-260 434,-260 434,-222 567,-222 567,-260"/>
<text text-anchor="start" x="442" y="-244.8" font-family="Arial" font-size="14.00">inc/mcu/esp32/utils</text>
<text text-anchor="middle" x="500.5" y="-229.8" font-family="Arial" font-size="14.00">/EspTypes_PWM.h</text>
</a>
</g>
</g>
<!-- Node2 -->
<g id="Node000002" class="node">
<title>Node2</title>
<g id="a_Node000002"><a xlink:href="EspPwm_8h.html" target="_top" xlink:title="ESP32C6 LEDC (PWM) controller implementation for the HardFOC system.">
<polygon fill="white" stroke="#666666" points="396,-178.5 223,-178.5 223,-155.5 396,-155.5 396,-178.5"/>
<text text-anchor="middle" x="309.5" y="-163.3" font-family="Arial" font-size="14.00">inc/mcu/esp32/EspPwm.h</text>
</a>
</g>
</g>
<!-- Node1&#45;&gt;Node2 -->
<g id="edge1_Node000001_Node000002" class="edge">
<title>Node1&#45;&gt;Node2</title>
<g id="a_edge1_Node000001_Node000002"><a xlink:title=" ">
<path fill="none" stroke="#63b8ff" d="M442.71,-218.21C407.87,-205.08 365.06,-188.94 337.53,-178.57"/>
<polygon fill="#63b8ff" stroke="#63b8ff" points="441.71,-221.58 452.3,-221.83 444.18,-215.03 441.71,-221.58"/>
</a>
</g>
</g>
<!-- Node5 -->
<g id="Node000005" class="node">
<title>Node5</title>
<g id="a_Node000005"><a xlink:href="EspTypes_8h.html" target="_top" xlink:title="Consolidated MCU&#45;specific type definitions for hardware abstraction (hf_* types).">
<polygon fill="white" stroke="#666666" points="970.5,-186 838.5,-186 838.5,-148 970.5,-148 970.5,-186"/>
<text text-anchor="start" x="846.5" y="-170.8" font-family="Arial" font-size="14.00">inc/mcu/esp32/utils</text>
<text text-anchor="middle" x="904.5" y="-155.8" font-family="Arial" font-size="14.00">/EspTypes.h</text>
</a>
</g>
</g>
<!-- Node1&#45;&gt;Node5 -->
<g id="edge4_Node000001_Node000005" class="edge">
<title>Node1&#45;&gt;Node5</title>
<g id="a_edge4_Node000001_Node000005"><a xlink:title=" ">
<path fill="none" stroke="#63b8ff" d="M577.14,-226.34C652.62,-212.89 766.73,-192.55 838.36,-179.79"/>
<polygon fill="#63b8ff" stroke="#63b8ff" points="576.44,-222.91 567.21,-228.11 577.67,-229.8 576.44,-222.91"/>
</a>
</g>
</g>
<!-- Node3 -->
<g id="Node000003" class="node">
<title>Node3</title>
<g id="a_Node000003"><a xlink:href="PwmComprehensiveTest_8cpp.html" target="_top" xlink:title="Comprehensive PWM testing suite for ESP32 family (noexcept)">
<polygon fill="white" stroke="#666666" points="197,-112 0,-112 0,-74 197,-74 197,-112"/>
<text text-anchor="start" x="8" y="-96.8" font-family="Arial" font-size="14.00">examples/esp32/main</text>
<text text-anchor="middle" x="98.5" y="-81.8" font-family="Arial" font-size="14.00">/PwmComprehensiveTest.cpp</text>
</a>
</g>
</g>
<!-- Node2&#45;&gt;Node3 -->
<g id="edge2_Node000002_Node000003" class="edge">
<title>Node2&#45;&gt;Node3</title>
<g id="a_edge2_Node000002_Node000003"><a xlink:title=" ">
<path fill="none" stroke="#63b8ff" d="M268.48,-152C235.09,-140.61 187.71,-124.44 151.46,-112.07"/>
<polygon fill="#63b8ff" stroke="#63b8ff" points="267.77,-155.46 278.37,-155.38 270.03,-148.83 267.77,-155.46"/>
</a>
</g>
</g>
<!-- Node4 -->
<g id="Node000004" class="node">
<title>Node4</title>
<g id="a_Node000004"><a xlink:href="EspPwm_8cpp.html" target="_top" xlink:title="Implementation of ESP32 family LEDC (PWM) controller for the HardFOC system.">
<polygon fill="white" stroke="#666666" points="403.5,-104.5 215.5,-104.5 215.5,-81.5 403.5,-81.5 403.5,-104.5"/>
<text text-anchor="middle" x="309.5" y="-89.3" font-family="Arial" font-size="14.00">src/mcu/esp32/EspPwm.cpp</text>
</a>
</g>
</g>
<!-- Node2&#45;&gt;Node4 -->
<g id="edge3_Node000002_Node000004" class="edge">
<title>Node2&#45;&gt;Node4</title>
<g id="a_edge3_Node000002_Node000004"><a xlink:title=" ">
<path fill="none" stroke="#63b8ff" d="M309.5,-145.23C309.5,-131.97 309.5,-115.32 309.5,-104.67"/>
<polygon fill="#63b8ff" stroke="#63b8ff" points="306,-145.38 309.5,-155.38 313,-145.38 306,-145.38"/>
</a>
</g>
</g>
<!-- Node6 -->
<g id="Node000006" class="node">
<title>Node6</title>
<g id="a_Node000006"><a xlink:href="EspI2c_8h.html" target="_top" xlink:title="Advanced ESP32&#45;integrated I2C controller for ESP&#45;IDF v5.5+ with proper bus&#45;device architecture.">
<polygon fill="white" stroke="#666666" points="583,-104.5 422,-104.5 422,-81.5 583,-81.5 583,-104.5"/>
<text text-anchor="middle" x="502.5" y="-89.3" font-family="Arial" font-size="14.00">inc/mcu/esp32/EspI2c.h</text>
</a>
</g>
</g>
<!-- Node5&#45;&gt;Node6 -->
<g id="edge5_Node000005_Node000006" class="edge">
<title>Node5&#45;&gt;Node6</title>
<g id="a_edge5_Node000005_Node000006"><a xlink:title=" ">
<path fill="none" stroke="#63b8ff" d="M827.91,-152.28C750.21,-138.37 631.65,-117.13 561.13,-104.5"/>
<polygon fill="#63b8ff" stroke="#63b8ff" points="827.66,-155.79 838.12,-154.11 828.89,-148.9 827.66,-155.79"/>
</a>
</g>
</g>
<!-- Node9 -->
<g id="Node000009" class="node">
<title>Node9</title>
<g id="a_Node000009"><a xlink:href="EspPeriodicTimer_8h.html" target="_top" xlink:title="MCU&#45;integrated periodic timer implementation.">
<polygon fill="white" stroke="#666666" points="894.5,-112 714.5,-112 714.5,-74 894.5,-74 894.5,-112"/>
<text text-anchor="start" x="722.5" y="-96.8" font-family="Arial" font-size="14.00">inc/mcu/esp32/EspPeriodic</text>
<text text-anchor="middle" x="804.5" y="-81.8" font-family="Arial" font-size="14.00">Timer.h</text>
</a>
</g>
</g>
<!-- Node5&#45;&gt;Node9 -->
<g id="edge8_Node000005_Node000009" class="edge">
<title>Node5&#45;&gt;Node9</title>
<g id="a_edge8_Node000005_Node000009"><a xlink:title=" ">
<path fill="none" stroke="#63b8ff" d="M871.13,-141.97C857.62,-132.25 842.28,-121.2 829.73,-112.16"/>
<polygon fill="#63b8ff" stroke="#63b8ff" points="869.11,-144.83 879.27,-147.83 873.2,-139.15 869.11,-144.83"/>
</a>
</g>
</g>
<!-- Node12 -->
<g id="Node000012" class="node">
<title>Node12</title>
<g id="a_Node000012"><a xlink:href="EspPio_8h.html" target="_top" xlink:title="ESP32C6 RMT&#45;based Programmable IO Channel implementation with ESP&#45;IDF v5.5+ features.">
<polygon fill="white" stroke="#666666" points="1086.5,-104.5 924.5,-104.5 924.5,-81.5 1086.5,-81.5 1086.5,-104.5"/>
<text text-anchor="middle" x="1005.5" y="-89.3" font-family="Arial" font-size="14.00">inc/mcu/esp32/EspPio.h</text>
</a>
</g>
</g>
<!-- Node5&#45;&gt;Node12 -->
<g id="edge11_Node000005_Node000012" class="edge">
<title>Node5&#45;&gt;Node12</title>
<g id="a_edge11_Node000005_Node000012"><a xlink:title=" ">
<path fill="none" stroke="#63b8ff" d="M938.41,-141.83C956.16,-129.17 976.99,-114.32 990.68,-104.57"/>
<polygon fill="#63b8ff" stroke="#63b8ff" points="936.1,-139.18 929.99,-147.83 940.16,-144.88 936.1,-139.18"/>
</a>
</g>
</g>
<!-- Node15 -->
<g id="Node000015" class="node">
<title>Node15</title>
<g id="a_Node000015"><a xlink:href="EspSpi_8h.html" target="_top" xlink:title="Advanced MCU&#45;integrated SPI controller implementation with ESP32C6/ESP&#45;IDF v5.5+ features.">
<polygon fill="white" stroke="#666666" points="1484.5,-104.5 1322.5,-104.5 1322.5,-81.5 1484.5,-81.5 1484.5,-104.5"/>
<text text-anchor="middle" x="1403.5" y="-89.3" font-family="Arial" font-size="14.00">inc/mcu/esp32/EspSpi.h</text>
</a>
</g>
</g>
<!-- Node5&#45;&gt;Node15 -->
<g id="edge14_Node000005_Node000015" class="edge">
<title>Node5&#45;&gt;Node15</title>
<g id="a_edge14_Node000005_Node000015"><a xlink:title=" ">
<path fill="none" stroke="#63b8ff" d="M980.62,-155.02C1075.59,-141.31 1236.85,-118.05 1330.39,-104.55"/>
<polygon fill="#63b8ff" stroke="#63b8ff" points="979.9,-151.58 970.51,-156.48 980.9,-158.51 979.9,-151.58"/>
</a>
</g>
</g>
<!-- Node18 -->
<g id="Node000018" class="node">
<title>Node18</title>
<g id="a_Node000018"><a xlink:href="EspUart_8h.html" target="_top" xlink:title="ESP32 UART implementation for the HardFOC system.">
<polygon fill="white" stroke="#666666" points="1888.5,-104.5 1720.5,-104.5 1720.5,-81.5 1888.5,-81.5 1888.5,-104.5"/>
<text text-anchor="middle" x="1804.5" y="-89.3" font-family="Arial" font-size="14.00">inc/mcu/esp32/EspUart.h</text>
</a>
</g>
</g>
<!-- Node5&#45;&gt;Node18 -->
<g id="edge17_Node000005_Node000018" class="edge">
<title>Node5&#45;&gt;Node18</title>
<g id="a_edge17_Node000005_Node000018"><a xlink:title=" ">
<path fill="none" stroke="#63b8ff" d="M980.88,-159.89C1148.19,-146.5 1545.97,-114.68 1720.25,-100.74"/>
<polygon fill="#63b8ff" stroke="#63b8ff" points="980.37,-156.42 970.68,-160.71 980.93,-163.4 980.37,-156.42"/>
</a>
</g>
</g>
<!-- Node7 -->
<g id="Node000007" class="node">
<title>Node7</title>
<g id="a_Node000007"><a xlink:href="I2cComprehensiveTest_8cpp.html" target="_top" xlink:title="Comprehensive I2C testing suite for ESP32&#45;C6 DevKit&#45;M&#45;1 (noexcept)">
<polygon fill="white" stroke="#666666" points="282.5,-38 98.5,-38 98.5,0 282.5,0 282.5,-38"/>
<text text-anchor="start" x="106.5" y="-22.8" font-family="Arial" font-size="14.00">examples/esp32/main</text>
<text text-anchor="middle" x="190.5" y="-7.8" font-family="Arial" font-size="14.00">/I2cComprehensiveTest.cpp</text>
</a>
</g>
</g>
<!-- Node6&#45;&gt;Node7 -->
<g id="edge6_Node000006_Node000007" class="edge">
<title>Node6&#45;&gt;Node7</title>
<g id="a_edge6_Node000006_Node000007"><a xlink:title=" ">
<path fill="none" stroke="#63b8ff" d="M446.9,-79.17C397.3,-67.72 324.16,-50.84 268.68,-38.04"/>
<polygon fill="#63b8ff" stroke="#63b8ff" points="446.27,-82.62 456.8,-81.45 447.84,-75.79 446.27,-82.62"/>
</a>
</g>
</g>
<!-- Node8 -->
<g id="Node000008" class="node">
<title>Node8</title>
<g id="a_Node000008"><a xlink:href="EspI2c_8cpp.html" target="_top" xlink:title="Implementation of ESP32&#45;integrated I2C controller with proper bus&#45;device architecture.">
<polygon fill="white" stroke="#666666" points="476.5,-30.5 300.5,-30.5 300.5,-7.5 476.5,-7.5 476.5,-30.5"/>
<text text-anchor="middle" x="388.5" y="-15.3" font-family="Arial" font-size="14.00">src/mcu/esp32/EspI2c.cpp</text>
</a>
</g>
</g>
<!-- Node6&#45;&gt;Node8 -->
<g id="edge7_Node000006_Node000008" class="edge">
<title>Node6&#45;&gt;Node8</title>
<g id="a_edge7_Node000006_Node000008"><a xlink:title=" ">
<path fill="none" stroke="#63b8ff" d="M477.22,-76.03C455.36,-62.23 424.36,-42.65 405.39,-30.67"/>
<polygon fill="#63b8ff" stroke="#63b8ff" points="475.36,-79 485.68,-81.38 479.09,-73.08 475.36,-79"/>
</a>
</g>
</g>
<!-- Node10 -->
<g id="Node000010" class="node">
<title>Node10</title>
<g id="a_Node000010"><a xlink:href="TimerComprehensiveTest_8cpp.html" target="_top" xlink:title="ESP32&#45;C6 Periodic Timer Comprehensive Test Suite v2.0.">
<polygon fill="white" stroke="#666666" points="696,-38 495,-38 495,0 696,0 696,-38"/>
<text text-anchor="start" x="503" y="-22.8" font-family="Arial" font-size="14.00">examples/esp32/main</text>
<text text-anchor="middle" x="595.5" y="-7.8" font-family="Arial" font-size="14.00">/TimerComprehensiveTest.cpp</text>
</a>
</g>
</g>
<!-- Node9&#45;&gt;Node10 -->
<g id="edge9_Node000009_Node000010" class="edge">
<title>Node9&#45;&gt;Node10</title>
<g id="a_edge9_Node000009_Node000010"><a xlink:title=" ">
<path fill="none" stroke="#63b8ff" d="M742.48,-70.64C712.41,-60.28 676.69,-47.97 647.99,-38.08"/>
<polygon fill="#63b8ff" stroke="#63b8ff" points="741.44,-73.98 752.03,-73.92 743.72,-67.36 741.44,-73.98"/>
</a>
</g>
</g>
<!-- Node11 -->
<g id="Node000011" class="node">
<title>Node11</title>
<g id="a_Node000011"><a xlink:href="EspPeriodicTimer_8cpp.html" target="_top" xlink:title="Implementation of MCU&#45;integrated periodic timer.">
<polygon fill="white" stroke="#666666" points="895,-38 714,-38 714,0 895,0 895,-38"/>
<text text-anchor="start" x="722" y="-22.8" font-family="Arial" font-size="14.00">src/mcu/esp32/EspPeriodic</text>
<text text-anchor="middle" x="804.5" y="-7.8" font-family="Arial" font-size="14.00">Timer.cpp</text>
</a>
</g>
</g>
<!-- Node9&#45;&gt;Node11 -->
<g id="edge10_Node000009_Node000011" class="edge">
<title>Node9&#45;&gt;Node11</title>
<g id="a_edge10_Node000009_Node000011"><a xlink:title=" ">
<path fill="none" stroke="#63b8ff" d="M804.5,-63.57C804.5,-55.11 804.5,-46.06 804.5,-38.41"/>
<polygon fill="#63b8ff" stroke="#63b8ff" points="801,-63.83 804.5,-73.83 808,-63.83 801,-63.83"/>
</a>
</g>
</g>
<!-- Node13 -->
<g id="Node000013" class="node">
<title>Node13</title>
<g id="a_Node000013"><a xlink:href="PioComprehensiveTest_8cpp.html" target="_top" xlink:title="Comprehensive PIO testing suite for ESP32&#45;C6 DevKit&#45;M&#45;1 with RMT peripheral (noexcept)">
<polygon fill="white" stroke="#666666" points="1098,-38 913,-38 913,0 1098,0 1098,-38"/>
<text text-anchor="start" x="921" y="-22.8" font-family="Arial" font-size="14.00">examples/esp32/main</text>
<text text-anchor="middle" x="1005.5" y="-7.8" font-family="Arial" font-size="14.00">/PioComprehensiveTest.cpp</text>
</a>
</g>
</g>
<!-- Node12&#45;&gt;Node13 -->
<g id="edge12_Node000012_Node000013" class="edge">
<title>Node12&#45;&gt;Node13</title>
<g id="a_edge12_Node000012_Node000013"><a xlink:title=" ">
<path fill="none" stroke="#63b8ff" d="M1005.5,-71.1C1005.5,-60.69 1005.5,-48.23 1005.5,-38.21"/>
<polygon fill="#63b8ff" stroke="#63b8ff" points="1002,-71.38 1005.5,-81.38 1009,-71.38 1002,-71.38"/>
</a>
</g>
</g>
<!-- Node14 -->
<g id="Node000014" class="node">
<title>Node14</title>
<g id="a_Node000014"><a xlink:href="EspPio_8cpp.html" target="_top" xlink:title="ESP32C6 RMT&#45;based Programmable IO Channel implementation.">
<polygon fill="white" stroke="#666666" points="1293,-30.5 1116,-30.5 1116,-7.5 1293,-7.5 1293,-30.5"/>
<text text-anchor="middle" x="1204.5" y="-15.3" font-family="Arial" font-size="14.00">src/mcu/esp32/EspPio.cpp</text>
</a>
</g>
</g>
<!-- Node12&#45;&gt;Node14 -->
<g id="edge13_Node000012_Node000014" class="edge">
<title>Node12&#45;&gt;Node14</title>
<g id="a_edge13_Node000012_Node000014"><a xlink:title=" ">
<path fill="none" stroke="#63b8ff" d="M1044.67,-77.83C1083.09,-63.93 1140.79,-43.05 1175.34,-30.55"/>
<polygon fill="#63b8ff" stroke="#63b8ff" points="1043.08,-74.68 1034.86,-81.38 1045.46,-81.27 1043.08,-74.68"/>
</a>
</g>
</g>
<!-- Node16 -->
<g id="Node000016" class="node">
<title>Node16</title>
<g id="a_Node000016"><a xlink:href="SpiComprehensiveTest_8cpp.html" target="_top" xlink:title="Comprehensive SPI testing suite for ESP32&#45;C6 DevKit&#45;M&#45;1 (noexcept)">
<polygon fill="white" stroke="#666666" points="1496,-38 1311,-38 1311,0 1496,0 1496,-38"/>
<text text-anchor="start" x="1319" y="-22.8" font-family="Arial" font-size="14.00">examples/esp32/main</text>
<text text-anchor="middle" x="1403.5" y="-7.8" font-family="Arial" font-size="14.00">/SpiComprehensiveTest.cpp</text>
</a>
</g>
</g>
<!-- Node15&#45;&gt;Node16 -->
<g id="edge15_Node000015_Node000016" class="edge">
<title>Node15&#45;&gt;Node16</title>
<g id="a_edge15_Node000015_Node000016"><a xlink:title=" ">
<path fill="none" stroke="#63b8ff" d="M1403.5,-71.1C1403.5,-60.69 1403.5,-48.23 1403.5,-38.21"/>
<polygon fill="#63b8ff" stroke="#63b8ff" points="1400,-71.38 1403.5,-81.38 1407,-71.38 1400,-71.38"/>
</a>
</g>
</g>
<!-- Node17 -->
<g id="Node000017" class="node">
<title>Node17</title>
<g id="a_Node000017"><a xlink:href="EspSpi_8cpp.html" target="_top" xlink:title="Implementation of MCU&#45;integrated SPI controller for ESP32C6 with ESP&#45;IDF v5.5+ features.">
<polygon fill="white" stroke="#666666" points="1691,-30.5 1514,-30.5 1514,-7.5 1691,-7.5 1691,-30.5"/>
<text text-anchor="middle" x="1602.5" y="-15.3" font-family="Arial" font-size="14.00">src/mcu/esp32/EspSpi.cpp</text>
</a>
</g>
</g>
<!-- Node15&#45;&gt;Node17 -->
<g id="edge16_Node000015_Node000017" class="edge">
<title>Node15&#45;&gt;Node17</title>
<g id="a_edge16_Node000015_Node000017"><a xlink:title=" ">
<path fill="none" stroke="#63b8ff" d="M1442.67,-77.83C1481.09,-63.93 1538.79,-43.05 1573.34,-30.55"/>
<polygon fill="#63b8ff" stroke="#63b8ff" points="1441.08,-74.68 1432.86,-81.38 1443.46,-81.27 1441.08,-74.68"/>
</a>
</g>
</g>
<!-- Node19 -->
<g id="Node000019" class="node">
<title>Node19</title>
<g id="a_Node000019"><a xlink:href="UartComprehensiveTest_8cpp.html" target="_top" xlink:title="Comprehensive UART testing suite for ESP32&#45;C6 DevKit&#45;M&#45;1 (noexcept)">
<polygon fill="white" stroke="#666666" points="1900,-38 1709,-38 1709,0 1900,0 1900,-38"/>
<text text-anchor="start" x="1717" y="-22.8" font-family="Arial" font-size="14.00">examples/esp32/main</text>
<text text-anchor="middle" x="1804.5" y="-7.8" font-family="Arial" font-size="14.00">/UartComprehensiveTest.cpp</text>
</a>
</g>
</g>
<!-- Node18&#45;&gt;Node19 -->
<g id="edge18_Node000018_Node000019" class="edge">
<title>Node18&#45;&gt;Node19</title>
<g id="a_edge18_Node000018_Node000019"><a xlink:title=" ">
<path fill="none" stroke="#63b8ff" d="M1804.5,-71.1C1804.5,-60.69 1804.5,-48.23 1804.5,-38.21"/>
<polygon fill="#63b8ff" stroke="#63b8ff" points="1801,-71.38 1804.5,-81.38 1808,-71.38 1801,-71.38"/>
</a>
</g>
</g>
<!-- Node20 -->
<g id="Node000020" class="node">
<title>Node20</title>
<g id="a_Node000020"><a xlink:href="EspUart_8cpp.html" target="_top" xlink:title="Implementation of ESP32 UART controller for the HardFOC system.">
<polygon fill="white" stroke="#666666" points="2101,-30.5 1918,-30.5 1918,-7.5 2101,-7.5 2101,-30.5"/>
<text text-anchor="middle" x="2009.5" y="-15.3" font-family="Arial" font-size="14.00">src/mcu/esp32/EspUart.cpp</text>
</a>
</g>
</g>
<!-- Node18&#45;&gt;Node20 -->
<g id="edge19_Node000018_Node000020" class="edge">
<title>Node18&#45;&gt;Node20</title>
<g id="a_edge19_Node000018_Node000020"><a xlink:title=" ">
<path fill="none" stroke="#63b8ff" d="M1844.35,-78C1883.93,-64.1 1943.72,-43.1 1979.46,-30.55"/>
<polygon fill="#63b8ff" stroke="#63b8ff" points="1843.02,-74.76 1834.75,-81.38 1845.34,-81.36 1843.02,-74.76"/>
</a>
</g>
</g>
</g>
</svg>
