<?xml version="1.0" encoding="UTF-8" standalone="no"?>
<!DOCTYPE svg PUBLIC "-//W3C//DTD SVG 1.1//EN"
 "http://www.w3.org/Graphics/SVG/1.1/DTD/svg11.dtd">
<!-- Generated by graphviz version 2.43.0 (0)
 -->
<!-- Title: inc/mcu/esp32/EspTemperature.h Pages: 1 -->
<svg width="1284pt" height="223pt"
 viewBox="0.00 0.00 1284.00 223.00" xmlns="http://www.w3.org/2000/svg" xmlns:xlink="http://www.w3.org/1999/xlink">
<g id="graph0" class="graph" transform="scale(1 1) rotate(0) translate(4 219)">
<title>inc/mcu/esp32/EspTemperature.h</title>
<!-- Node1 -->
<g id="Node000001" class="node">
<title>Node1</title>
<g id="a_Node000001"><a xlink:title="ESP32&#45;C6 internal temperature sensor implementation for the HardFOC system.">
<polygon fill="#999999" stroke="#666666" points="823.5,-215 604.5,-215 604.5,-192 823.5,-192 823.5,-215"/>
<text text-anchor="middle" x="714" y="-199.8" font-family="Arial" font-size="14.00">inc/mcu/esp32/EspTemperature.h</text>
</a>
</g>
</g>
<!-- Node2 -->
<g id="Node000002" class="node">
<title>Node2</title>
<g id="a_Node000002"><a xlink:href="BaseTemperature_8h.html" target="_top" xlink:title="Abstract base class for temperature sensor implementations in the HardFOC system.">
<polygon fill="white" stroke="#666666" points="267,-148.5 99,-148.5 99,-125.5 267,-125.5 267,-148.5"/>
<text text-anchor="middle" x="183" y="-133.3" font-family="Arial" font-size="14.00">base/BaseTemperature.h</text>
</a>
</g>
</g>
<!-- Node1&#45;&gt;Node2 -->
<g id="edge1_Node000001_Node000002" class="edge">
<title>Node1&#45;&gt;Node2</title>
<g id="a_edge1_Node000001_Node000002"><a xlink:title=" ">
<path fill="none" stroke="#63b8ff" d="M604.32,-193.47C515.53,-185.54 387.36,-172.66 276,-156 265.29,-154.4 253.94,-152.43 242.98,-150.39"/>
<polygon fill="#63b8ff" stroke="#63b8ff" points="243.54,-146.93 233.06,-148.5 242.23,-153.81 243.54,-146.93"/>
</a>
</g>
</g>
<!-- Node7 -->
<g id="Node000007" class="node">
<title>Node7</title>
<g id="a_Node000007"><a xlink:href="PlatformMutex_8h.html" target="_top" xlink:title="Cross&#45;platform RTOS mutex and synchronization primitives.">
<polygon fill="white" stroke="#666666" points="429,-148.5 285,-148.5 285,-125.5 429,-125.5 429,-148.5"/>
<text text-anchor="middle" x="357" y="-133.3" font-family="Arial" font-size="14.00">utils/PlatformMutex.h</text>
</a>
</g>
</g>
<!-- Node1&#45;&gt;Node7 -->
<g id="edge7_Node000001_Node000007" class="edge">
<title>Node1&#45;&gt;Node7</title>
<g id="a_edge7_Node000001_Node000007"><a xlink:title=" ">
<path fill="none" stroke="#63b8ff" d="M648.72,-191.98C593.75,-182.96 513.11,-169.35 443,-156 434.29,-154.34 425.1,-152.51 416.1,-150.67"/>
<polygon fill="#63b8ff" stroke="#63b8ff" points="416.56,-147.19 406.06,-148.59 415.14,-154.04 416.56,-147.19"/>
</a>
</g>
</g>
<!-- Node9 -->
<g id="Node000009" class="node">
<title>Node9</title>
<g id="a_Node000009"><a xlink:title=" ">
<polygon fill="#e0e0e0" stroke="#999999" points="485.5,-82 428.5,-82 428.5,-59 485.5,-59 485.5,-82"/>
<text text-anchor="middle" x="457" y="-66.8" font-family="Arial" font-size="14.00">atomic</text>
</a>
</g>
</g>
<!-- Node1&#45;&gt;Node9 -->
<g id="edge17_Node000001_Node000009" class="edge">
<title>Node1&#45;&gt;Node9</title>
<g id="a_edge17_Node000001_Node000009"><a xlink:title=" ">
<path fill="none" stroke="#63b8ff" d="M604.35,-192.67C551.14,-185.67 494.72,-174.19 476,-156 459.06,-139.53 455.76,-111.44 455.73,-92.2"/>
<polygon fill="#63b8ff" stroke="#63b8ff" points="459.24,-92.14 456.02,-82.05 452.24,-91.94 459.24,-92.14"/>
</a>
</g>
</g>
<!-- Node10 -->
<g id="Node000010" class="node">
<title>Node10</title>
<g id="a_Node000010"><a xlink:title=" ">
<polygon fill="#e0e0e0" stroke="#999999" points="613,-156 485,-156 485,-118 613,-118 613,-156"/>
<text text-anchor="start" x="493" y="-140.8" font-family="Arial" font-size="14.00">driver/temperature</text>
<text text-anchor="middle" x="549" y="-125.8" font-family="Arial" font-size="14.00">_sensor.h</text>
</a>
</g>
</g>
<!-- Node1&#45;&gt;Node10 -->
<g id="edge11_Node000001_Node000010" class="edge">
<title>Node1&#45;&gt;Node10</title>
<g id="a_edge11_Node000001_Node000010"><a xlink:title=" ">
<path fill="none" stroke="#63b8ff" d="M687.12,-191.99C664.9,-183.31 632.61,-170.68 604.83,-159.83"/>
<polygon fill="#63b8ff" stroke="#63b8ff" points="605.81,-156.45 595.22,-156.07 603.26,-162.97 605.81,-156.45"/>
</a>
</g>
</g>
<!-- Node11 -->
<g id="Node000011" class="node">
<title>Node11</title>
<g id="a_Node000011"><a xlink:title=" ">
<polygon fill="#e0e0e0" stroke="#999999" points="704.5,-148.5 631.5,-148.5 631.5,-125.5 704.5,-125.5 704.5,-148.5"/>
<text text-anchor="middle" x="668" y="-133.3" font-family="Arial" font-size="14.00">esp_err.h</text>
</a>
</g>
</g>
<!-- Node1&#45;&gt;Node11 -->
<g id="edge12_Node000001_Node000011" class="edge">
<title>Node1&#45;&gt;Node11</title>
<g id="a_edge12_Node000001_Node000011"><a xlink:title=" ">
<path fill="none" stroke="#63b8ff" d="M706.4,-191.85C699.72,-182.48 689.82,-168.6 681.75,-157.28"/>
<polygon fill="#63b8ff" stroke="#63b8ff" points="684.42,-154.99 675.76,-148.88 678.72,-159.06 684.42,-154.99"/>
</a>
</g>
</g>
<!-- Node12 -->
<g id="Node000012" class="node">
<title>Node12</title>
<g id="a_Node000012"><a xlink:title=" ">
<polygon fill="#e0e0e0" stroke="#999999" points="797.5,-148.5 722.5,-148.5 722.5,-125.5 797.5,-125.5 797.5,-148.5"/>
<text text-anchor="middle" x="760" y="-133.3" font-family="Arial" font-size="14.00">esp_log.h</text>
</a>
</g>
</g>
<!-- Node1&#45;&gt;Node12 -->
<g id="edge13_Node000001_Node000012" class="edge">
<title>Node1&#45;&gt;Node12</title>
<g id="a_edge13_Node000001_Node000012"><a xlink:title=" ">
<path fill="none" stroke="#63b8ff" d="M721.6,-191.85C728.28,-182.48 738.18,-168.6 746.25,-157.28"/>
<polygon fill="#63b8ff" stroke="#63b8ff" points="749.28,-159.06 752.24,-148.88 743.58,-154.99 749.28,-159.06"/>
</a>
</g>
</g>
<!-- Node13 -->
<g id="Node000013" class="node">
<title>Node13</title>
<g id="a_Node000013"><a xlink:title=" ">
<polygon fill="#e0e0e0" stroke="#999999" points="902.5,-148.5 815.5,-148.5 815.5,-125.5 902.5,-125.5 902.5,-148.5"/>
<text text-anchor="middle" x="859" y="-133.3" font-family="Arial" font-size="14.00">esp_timer.h</text>
</a>
</g>
</g>
<!-- Node1&#45;&gt;Node13 -->
<g id="edge14_Node000001_Node000013" class="edge">
<title>Node1&#45;&gt;Node13</title>
<g id="a_edge14_Node000001_Node000013"><a xlink:title=" ">
<path fill="none" stroke="#63b8ff" d="M737.62,-191.99C761.63,-181.31 799.04,-164.67 825.98,-152.69"/>
<polygon fill="#63b8ff" stroke="#63b8ff" points="827.68,-155.76 835.39,-148.5 824.83,-149.37 827.68,-155.76"/>
</a>
</g>
</g>
<!-- Node14 -->
<g id="Node000014" class="node">
<title>Node14</title>
<g id="a_Node000014"><a xlink:title=" ">
<polygon fill="#e0e0e0" stroke="#999999" points="1063.5,-148.5 920.5,-148.5 920.5,-125.5 1063.5,-125.5 1063.5,-148.5"/>
<text text-anchor="middle" x="992" y="-133.3" font-family="Arial" font-size="14.00">freertos/FreeRTOS.h</text>
</a>
</g>
</g>
<!-- Node1&#45;&gt;Node14 -->
<g id="edge15_Node000001_Node000014" class="edge">
<title>Node1&#45;&gt;Node14</title>
<g id="a_edge15_Node000001_Node000014"><a xlink:title=" ">
<path fill="none" stroke="#63b8ff" d="M759.28,-191.99C807.75,-180.75 884.67,-162.9 936.68,-150.84"/>
<polygon fill="#63b8ff" stroke="#63b8ff" points="937.78,-154.17 946.74,-148.5 936.2,-147.35 937.78,-154.17"/>
</a>
</g>
</g>
<!-- Node15 -->
<g id="Node000015" class="node">
<title>Node15</title>
<g id="a_Node000015"><a xlink:title=" ">
<polygon fill="#e0e0e0" stroke="#999999" points="1184,-148.5 1082,-148.5 1082,-125.5 1184,-125.5 1184,-148.5"/>
<text text-anchor="middle" x="1133" y="-133.3" font-family="Arial" font-size="14.00">freertos/task.h</text>
</a>
</g>
</g>
<!-- Node1&#45;&gt;Node15 -->
<g id="edge16_Node000001_Node000015" class="edge">
<title>Node1&#45;&gt;Node15</title>
<g id="a_edge16_Node000001_Node000015"><a xlink:title=" ">
<path fill="none" stroke="#63b8ff" d="M823.58,-192.98C895.08,-185.62 990.18,-173.66 1073,-156 1079.14,-154.69 1085.57,-153.05 1091.83,-151.31"/>
<polygon fill="#63b8ff" stroke="#63b8ff" points="1092.86,-154.65 1101.49,-148.5 1090.91,-147.93 1092.86,-154.65"/>
</a>
</g>
</g>
<!-- Node16 -->
<g id="Node000016" class="node">
<title>Node16</title>
<g id="a_Node000016"><a xlink:title=" ">
<polygon fill="#e0e0e0" stroke="#999999" points="1276,-148.5 1202,-148.5 1202,-125.5 1276,-125.5 1276,-148.5"/>
<text text-anchor="middle" x="1239" y="-133.3" font-family="Arial" font-size="14.00">functional</text>
</a>
</g>
</g>
<!-- Node1&#45;&gt;Node16 -->
<g id="edge18_Node000001_Node000016" class="edge">
<title>Node1&#45;&gt;Node16</title>
<g id="a_edge18_Node000001_Node000016"><a xlink:title=" ">
<path fill="none" stroke="#63b8ff" d="M823.85,-200.42C921.86,-196.55 1068.68,-185.75 1193,-156 1197.22,-154.99 1201.57,-153.67 1205.84,-152.22"/>
<polygon fill="#63b8ff" stroke="#63b8ff" points="1207.37,-155.38 1215.53,-148.62 1204.93,-148.82 1207.37,-155.38"/>
</a>
</g>
</g>
<!-- Node3 -->
<g id="Node000003" class="node">
<title>Node3</title>
<g id="a_Node000003"><a xlink:href="HardwareTypes_8h.html" target="_top" xlink:title="Platform&#45;agnostic hardware type definitions for the HardFOC system.">
<polygon fill="white" stroke="#666666" points="122,-82 0,-82 0,-59 122,-59 122,-82"/>
<text text-anchor="middle" x="61" y="-66.8" font-family="Arial" font-size="14.00">HardwareTypes.h</text>
</a>
</g>
</g>
<!-- Node2&#45;&gt;Node3 -->
<g id="edge2_Node000002_Node000003" class="edge">
<title>Node2&#45;&gt;Node3</title>
<g id="a_edge2_Node000002_Node000003"><a xlink:title=" ">
<path fill="none" stroke="#63b8ff" d="M163.13,-125.49C143.28,-115 112.55,-98.75 89.98,-86.82"/>
<polygon fill="#63b8ff" stroke="#63b8ff" points="91.34,-83.58 80.86,-82 88.07,-89.77 91.34,-83.58"/>
</a>
</g>
</g>
<!-- Node4 -->
<g id="Node000004" class="node">
<title>Node4</title>
<g id="a_Node000004"><a xlink:title=" ">
<polygon fill="#e0e0e0" stroke="#999999" points="280,-23 224,-23 224,0 280,0 280,-23"/>
<text text-anchor="middle" x="252" y="-7.8" font-family="Arial" font-size="14.00">cstdint</text>
</a>
</g>
</g>
<!-- Node2&#45;&gt;Node4 -->
<g id="edge5_Node000002_Node000004" class="edge">
<title>Node2&#45;&gt;Node4</title>
<g id="a_edge5_Node000002_Node000004"><a xlink:title=" ">
<path fill="none" stroke="#63b8ff" d="M195.94,-125.31C207.29,-115.25 223.45,-99.2 233,-82 241.42,-66.84 246.29,-47.71 248.99,-33.36"/>
<polygon fill="#63b8ff" stroke="#63b8ff" points="252.45,-33.91 250.65,-23.47 245.54,-32.75 252.45,-33.91"/>
</a>
</g>
</g>
<!-- Node6 -->
<g id="Node000006" class="node">
<title>Node6</title>
<g id="a_Node000006"><a xlink:title=" ">
<polygon fill="#e0e0e0" stroke="#999999" points="224,-82 140,-82 140,-59 224,-59 224,-82"/>
<text text-anchor="middle" x="182" y="-66.8" font-family="Arial" font-size="14.00">string_view</text>
</a>
</g>
</g>
<!-- Node2&#45;&gt;Node6 -->
<g id="edge6_Node000002_Node000006" class="edge">
<title>Node2&#45;&gt;Node6</title>
<g id="a_edge6_Node000002_Node000006"><a xlink:title=" ">
<path fill="none" stroke="#63b8ff" d="M182.83,-125.35C182.7,-116.44 182.5,-103.46 182.33,-92.48"/>
<polygon fill="#63b8ff" stroke="#63b8ff" points="185.82,-92.33 182.17,-82.38 178.82,-92.44 185.82,-92.33"/>
</a>
</g>
</g>
<!-- Node3&#45;&gt;Node4 -->
<g id="edge3_Node000003_Node000004" class="edge">
<title>Node3&#45;&gt;Node4</title>
<g id="a_edge3_Node000003_Node000004"><a xlink:title=" ">
<path fill="none" stroke="#63b8ff" d="M96.48,-58.91C129.96,-48.92 180,-33.99 214.22,-23.78"/>
<polygon fill="#63b8ff" stroke="#63b8ff" points="215.27,-27.11 223.85,-20.9 213.27,-20.41 215.27,-27.11"/>
</a>
</g>
</g>
<!-- Node5 -->
<g id="Node000005" class="node">
<title>Node5</title>
<g id="a_Node000005"><a xlink:title=" ">
<polygon fill="#e0e0e0" stroke="#999999" points="85,-23 37,-23 37,0 85,0 85,-23"/>
<text text-anchor="middle" x="61" y="-7.8" font-family="Arial" font-size="14.00">limits</text>
</a>
</g>
</g>
<!-- Node3&#45;&gt;Node5 -->
<g id="edge4_Node000003_Node000005" class="edge">
<title>Node3&#45;&gt;Node5</title>
<g id="a_edge4_Node000003_Node000005"><a xlink:title=" ">
<path fill="none" stroke="#63b8ff" d="M61,-58.78C61,-51.61 61,-41.95 61,-33.31"/>
<polygon fill="#63b8ff" stroke="#63b8ff" points="64.5,-33.17 61,-23.17 57.5,-33.17 64.5,-33.17"/>
</a>
</g>
</g>
<!-- Node7&#45;&gt;Node4 -->
<g id="edge10_Node000007_Node000004" class="edge">
<title>Node7&#45;&gt;Node4</title>
<g id="a_edge10_Node000007_Node000004"><a xlink:title=" ">
<path fill="none" stroke="#63b8ff" d="M347.31,-125.35C337.52,-114.54 322.03,-97.26 309,-82 294.57,-65.1 278.55,-45.49 267.18,-31.42"/>
<polygon fill="#63b8ff" stroke="#63b8ff" points="269.75,-29.04 260.75,-23.45 264.3,-33.43 269.75,-29.04"/>
</a>
</g>
</g>
<!-- Node8 -->
<g id="Node000008" class="node">
<title>Node8</title>
<g id="a_Node000008"><a xlink:href="McuSelect_8h.html" target="_top" xlink:title="Centralized MCU platform selection and configuration header.">
<polygon fill="white" stroke="#666666" points="410,-82 318,-82 318,-59 410,-59 410,-82"/>
<text text-anchor="middle" x="364" y="-66.8" font-family="Arial" font-size="14.00">McuSelect.h</text>
</a>
</g>
</g>
<!-- Node7&#45;&gt;Node8 -->
<g id="edge8_Node000007_Node000008" class="edge">
<title>Node7&#45;&gt;Node8</title>
<g id="a_edge8_Node000007_Node000008"><a xlink:title=" ">
<path fill="none" stroke="#63b8ff" d="M358.16,-125.35C359.12,-116.44 360.53,-103.46 361.72,-92.48"/>
<polygon fill="#63b8ff" stroke="#63b8ff" points="365.22,-92.7 362.82,-82.38 358.26,-91.95 365.22,-92.7"/>
</a>
</g>
</g>
<!-- Node7&#45;&gt;Node9 -->
<g id="edge9_Node000007_Node000009" class="edge">
<title>Node7&#45;&gt;Node9</title>
<g id="a_edge9_Node000007_Node000009"><a xlink:title=" ">
<path fill="none" stroke="#63b8ff" d="M373.51,-125.35C389.44,-115.08 413.74,-99.4 432.03,-87.6"/>
<polygon fill="#63b8ff" stroke="#63b8ff" points="433.96,-90.53 440.46,-82.17 430.16,-84.65 433.96,-90.53"/>
</a>
</g>
</g>
</g>
</svg>
