<?xml version="1.0" encoding="UTF-8" standalone="no"?>
<!DOCTYPE svg PUBLIC "-//W3C//DTD SVG 1.1//EN"
 "http://www.w3.org/Graphics/SVG/1.1/DTD/svg11.dtd">
<!-- Generated by graphviz version 2.43.0 (0)
 -->
<!-- Title: inc/mcu/esp32/utils/EspTypes_PWM.h Pages: 1 -->
<svg width="630pt" height="282pt"
 viewBox="0.00 0.00 629.50 282.00" xmlns="http://www.w3.org/2000/svg" xmlns:xlink="http://www.w3.org/1999/xlink">
<g id="graph0" class="graph" transform="scale(1 1) rotate(0) translate(4 278)">
<title>inc/mcu/esp32/utils/EspTypes_PWM.h</title>
<!-- Node1 -->
<g id="Node000001" class="node">
<title>Node1</title>
<g id="a_Node000001"><a xlink:title="ESP32 PWM type definitions for LEDC peripheral hardware abstraction.">
<polygon fill="#999999" stroke="#666666" points="361,-274 228,-274 228,-236 361,-236 361,-274"/>
<text text-anchor="start" x="236" y="-258.8" font-family="Arial" font-size="14.00">inc/mcu/esp32/utils</text>
<text text-anchor="middle" x="294.5" y="-243.8" font-family="Arial" font-size="14.00">/EspTypes_PWM.h</text>
</a>
</g>
</g>
<!-- Node2 -->
<g id="Node000002" class="node">
<title>Node2</title>
<g id="a_Node000002"><a xlink:href="BasePwm_8h.html" target="_top" xlink:title="Abstract base class for PWM implementations in the HardFOC system.">
<polygon fill="white" stroke="#666666" points="621.5,-141 465.5,-141 465.5,-118 621.5,-118 621.5,-141"/>
<text text-anchor="middle" x="543.5" y="-125.8" font-family="Arial" font-size="14.00">../../../base/BasePwm.h</text>
</a>
</g>
</g>
<!-- Node1&#45;&gt;Node2 -->
<g id="edge1_Node000001_Node000002" class="edge">
<title>Node1&#45;&gt;Node2</title>
<g id="a_edge1_Node000001_Node000002"><a xlink:title=" ">
<path fill="none" stroke="#63b8ff" d="M361.36,-236.12C389.99,-227.18 423.26,-215.03 451.5,-200 478.68,-185.53 506.42,-163.36 524.22,-147.96"/>
<polygon fill="#63b8ff" stroke="#63b8ff" points="526.93,-150.24 532.12,-141.01 522.3,-144.99 526.93,-150.24"/>
</a>
</g>
</g>
<!-- Node3 -->
<g id="Node000003" class="node">
<title>Node3</title>
<g id="a_Node000003"><a xlink:href="HardwareTypes_8h.html" target="_top" xlink:title="Platform&#45;agnostic hardware type definitions for the HardFOC system.">
<polygon fill="white" stroke="#666666" points="444.5,-82 322.5,-82 322.5,-59 444.5,-59 444.5,-82"/>
<text text-anchor="middle" x="383.5" y="-66.8" font-family="Arial" font-size="14.00">HardwareTypes.h</text>
</a>
</g>
</g>
<!-- Node1&#45;&gt;Node3 -->
<g id="edge7_Node000001_Node000003" class="edge">
<title>Node1&#45;&gt;Node3</title>
<g id="a_edge7_Node000001_Node000003"><a xlink:title=" ">
<path fill="none" stroke="#63b8ff" d="M328.14,-235.99C359.13,-217.12 402.66,-184.2 418.5,-141 425.05,-123.14 413.81,-103.91 402.37,-90.21"/>
<polygon fill="#63b8ff" stroke="#63b8ff" points="404.67,-87.54 395.37,-82.46 399.47,-92.23 404.67,-87.54"/>
</a>
</g>
</g>
<!-- Node7 -->
<g id="Node000007" class="node">
<title>Node7</title>
<g id="a_Node000007"><a xlink:href="McuSelect_8h.html" target="_top" xlink:title="Centralized MCU platform selection and configuration header.">
<polygon fill="white" stroke="#666666" points="153,-82 0,-82 0,-59 153,-59 153,-82"/>
<text text-anchor="middle" x="76.5" y="-66.8" font-family="Arial" font-size="14.00">../../../utils/McuSelect.h</text>
</a>
</g>
</g>
<!-- Node1&#45;&gt;Node7 -->
<g id="edge8_Node000001_Node000007" class="edge">
<title>Node1&#45;&gt;Node7</title>
<g id="a_edge8_Node000001_Node000007"><a xlink:title=" ">
<path fill="none" stroke="#63b8ff" d="M244.75,-235.85C201.7,-217.83 140.55,-186.32 102.5,-141 90.64,-126.87 83.91,-106.79 80.28,-91.85"/>
<polygon fill="#63b8ff" stroke="#63b8ff" points="83.7,-91.07 78.16,-82.03 76.85,-92.55 83.7,-91.07"/>
</a>
</g>
</g>
<!-- Node8 -->
<g id="Node000008" class="node">
<title>Node8</title>
<g id="a_Node000008"><a xlink:href="EspTypes__Base_8h.html" target="_top" xlink:title="ESP32 base type definitions for hardware abstraction.">
<polygon fill="white" stroke="#666666" points="265,-141 140,-141 140,-118 265,-118 265,-141"/>
<text text-anchor="middle" x="202.5" y="-125.8" font-family="Arial" font-size="14.00">EspTypes_Base.h</text>
</a>
</g>
</g>
<!-- Node1&#45;&gt;Node8 -->
<g id="edge9_Node000001_Node000008" class="edge">
<title>Node1&#45;&gt;Node8</title>
<g id="a_edge9_Node000001_Node000008"><a xlink:title=" ">
<path fill="none" stroke="#63b8ff" d="M260.1,-235.95C245.93,-226.91 230.51,-214.73 220.5,-200 210.67,-185.54 206.21,-166.07 204.19,-151.41"/>
<polygon fill="#63b8ff" stroke="#63b8ff" points="207.65,-150.86 203.06,-141.3 200.69,-151.63 207.65,-150.86"/>
</a>
</g>
</g>
<!-- Node10 -->
<g id="Node000010" class="node">
<title>Node10</title>
<g id="a_Node000010"><a xlink:href="EspTypes__GPIO_8h.html" target="_top" xlink:title="ESP32 GPIO type definitions for hardware abstraction.">
<polygon fill="white" stroke="#666666" points="359.5,-200 229.5,-200 229.5,-177 359.5,-177 359.5,-200"/>
<text text-anchor="middle" x="294.5" y="-184.8" font-family="Arial" font-size="14.00">EspTypes_GPIO.h</text>
</a>
</g>
</g>
<!-- Node1&#45;&gt;Node10 -->
<g id="edge14_Node000001_Node000010" class="edge">
<title>Node1&#45;&gt;Node10</title>
<g id="a_edge14_Node000001_Node000010"><a xlink:title=" ">
<path fill="none" stroke="#63b8ff" d="M294.5,-235.69C294.5,-227.8 294.5,-218.54 294.5,-210.39"/>
<polygon fill="#63b8ff" stroke="#63b8ff" points="298,-210.19 294.5,-200.19 291,-210.19 298,-210.19"/>
</a>
</g>
</g>
<!-- Node2&#45;&gt;Node3 -->
<g id="edge2_Node000002_Node000003" class="edge">
<title>Node2&#45;&gt;Node3</title>
<g id="a_edge2_Node000002_Node000003"><a xlink:title=" ">
<path fill="none" stroke="#63b8ff" d="M513.78,-117.91C488.07,-108.75 450.72,-95.45 422.59,-85.43"/>
<polygon fill="#63b8ff" stroke="#63b8ff" points="423.66,-82.09 413.06,-82.03 421.31,-88.68 423.66,-82.09"/>
</a>
</g>
</g>
<!-- Node4 -->
<g id="Node000004" class="node">
<title>Node4</title>
<g id="a_Node000004"><a xlink:title=" ">
<polygon fill="#e0e0e0" stroke="#999999" points="332.5,-23 276.5,-23 276.5,0 332.5,0 332.5,-23"/>
<text text-anchor="middle" x="304.5" y="-7.8" font-family="Arial" font-size="14.00">cstdint</text>
</a>
</g>
</g>
<!-- Node2&#45;&gt;Node4 -->
<g id="edge5_Node000002_Node000004" class="edge">
<title>Node2&#45;&gt;Node4</title>
<g id="a_edge5_Node000002_Node000004"><a xlink:title=" ">
<path fill="none" stroke="#63b8ff" d="M550.07,-117.72C558.24,-102.77 569.52,-75.69 555.5,-59 525.76,-23.58 395.84,-32.15 350.5,-23 347.88,-22.47 345.18,-21.91 342.47,-21.32"/>
<polygon fill="#63b8ff" stroke="#63b8ff" points="343.19,-17.9 332.67,-19.17 341.68,-24.74 343.19,-17.9"/>
</a>
</g>
</g>
<!-- Node6 -->
<g id="Node000006" class="node">
<title>Node6</title>
<g id="a_Node000006"><a xlink:title=" ">
<polygon fill="#e0e0e0" stroke="#999999" points="546.5,-82 462.5,-82 462.5,-59 546.5,-59 546.5,-82"/>
<text text-anchor="middle" x="504.5" y="-66.8" font-family="Arial" font-size="14.00">string_view</text>
</a>
</g>
</g>
<!-- Node2&#45;&gt;Node6 -->
<g id="edge6_Node000002_Node000006" class="edge">
<title>Node2&#45;&gt;Node6</title>
<g id="a_edge6_Node000002_Node000006"><a xlink:title=" ">
<path fill="none" stroke="#63b8ff" d="M536.16,-117.78C530.93,-110.14 523.76,-99.65 517.57,-90.6"/>
<polygon fill="#63b8ff" stroke="#63b8ff" points="520.34,-88.45 511.8,-82.17 514.56,-92.4 520.34,-88.45"/>
</a>
</g>
</g>
<!-- Node3&#45;&gt;Node4 -->
<g id="edge3_Node000003_Node000004" class="edge">
<title>Node3&#45;&gt;Node4</title>
<g id="a_edge3_Node000003_Node000004"><a xlink:title=" ">
<path fill="none" stroke="#63b8ff" d="M368.64,-58.78C357.05,-50.42 340.76,-38.66 327.49,-29.09"/>
<polygon fill="#63b8ff" stroke="#63b8ff" points="329.45,-26.19 319.29,-23.17 325.35,-31.86 329.45,-26.19"/>
</a>
</g>
</g>
<!-- Node5 -->
<g id="Node000005" class="node">
<title>Node5</title>
<g id="a_Node000005"><a xlink:title=" ">
<polygon fill="#e0e0e0" stroke="#999999" points="407.5,-23 359.5,-23 359.5,0 407.5,0 407.5,-23"/>
<text text-anchor="middle" x="383.5" y="-7.8" font-family="Arial" font-size="14.00">limits</text>
</a>
</g>
</g>
<!-- Node3&#45;&gt;Node5 -->
<g id="edge4_Node000003_Node000005" class="edge">
<title>Node3&#45;&gt;Node5</title>
<g id="a_edge4_Node000003_Node000005"><a xlink:title=" ">
<path fill="none" stroke="#63b8ff" d="M383.5,-58.78C383.5,-51.61 383.5,-41.95 383.5,-33.31"/>
<polygon fill="#63b8ff" stroke="#63b8ff" points="387,-33.17 383.5,-23.17 380,-33.17 387,-33.17"/>
</a>
</g>
</g>
<!-- Node8&#45;&gt;Node3 -->
<g id="edge11_Node000008_Node000003" class="edge">
<title>Node8&#45;&gt;Node3</title>
<g id="a_edge11_Node000008_Node000003"><a xlink:title=" ">
<path fill="none" stroke="#63b8ff" d="M236.12,-117.91C265.46,-108.67 308.2,-95.21 340.11,-85.16"/>
<polygon fill="#63b8ff" stroke="#63b8ff" points="341.57,-88.37 350.06,-82.03 339.47,-81.7 341.57,-88.37"/>
</a>
</g>
</g>
<!-- Node8&#45;&gt;Node4 -->
<g id="edge13_Node000008_Node000004" class="edge">
<title>Node8&#45;&gt;Node4</title>
<g id="a_edge13_Node000008_Node000004"><a xlink:title=" ">
<path fill="none" stroke="#63b8ff" d="M211.91,-117.79C229.37,-97.94 266.95,-55.21 288.48,-30.72"/>
<polygon fill="#63b8ff" stroke="#63b8ff" points="291.13,-33 295.11,-23.18 285.88,-28.38 291.13,-33"/>
</a>
</g>
</g>
<!-- Node8&#45;&gt;Node7 -->
<g id="edge10_Node000008_Node000007" class="edge">
<title>Node8&#45;&gt;Node7</title>
<g id="a_edge10_Node000008_Node000007"><a xlink:title=" ">
<path fill="none" stroke="#63b8ff" d="M179.1,-117.91C159.38,-108.99 130.97,-96.14 109.04,-86.22"/>
<polygon fill="#63b8ff" stroke="#63b8ff" points="110.33,-82.96 99.78,-82.03 107.45,-89.34 110.33,-82.96"/>
</a>
</g>
</g>
<!-- Node9 -->
<g id="Node000009" class="node">
<title>Node9</title>
<g id="a_Node000009"><a xlink:title=" ">
<polygon fill="#e0e0e0" stroke="#999999" points="228,-82 171,-82 171,-59 228,-59 228,-82"/>
<text text-anchor="middle" x="199.5" y="-66.8" font-family="Arial" font-size="14.00">atomic</text>
</a>
</g>
</g>
<!-- Node8&#45;&gt;Node9 -->
<g id="edge12_Node000008_Node000009" class="edge">
<title>Node8&#45;&gt;Node9</title>
<g id="a_edge12_Node000008_Node000009"><a xlink:title=" ">
<path fill="none" stroke="#63b8ff" d="M201.94,-117.78C201.56,-110.61 201.05,-100.95 200.6,-92.31"/>
<polygon fill="#63b8ff" stroke="#63b8ff" points="204.08,-91.98 200.06,-82.17 197.09,-92.34 204.08,-91.98"/>
</a>
</g>
</g>
<!-- Node10&#45;&gt;Node3 -->
<g id="edge20_Node000010_Node000003" class="edge">
<title>Node10&#45;&gt;Node3</title>
<g id="a_edge20_Node000010_Node000003"><a xlink:title=" ">
<path fill="none" stroke="#63b8ff" d="M294.93,-176.6C296,-161.99 299.71,-135.83 312.5,-118 321.92,-104.87 336.3,-94.45 349.66,-86.84"/>
<polygon fill="#63b8ff" stroke="#63b8ff" points="351.51,-89.82 358.68,-82.01 348.21,-83.64 351.51,-89.82"/>
</a>
</g>
</g>
<!-- Node10&#45;&gt;Node7 -->
<g id="edge21_Node000010_Node000007" class="edge">
<title>Node10&#45;&gt;Node7</title>
<g id="a_edge21_Node000010_Node000007"><a xlink:title=" ">
<path fill="none" stroke="#63b8ff" d="M229.35,-178.8C197.5,-172.22 159.82,-160.77 130.5,-141 111.62,-128.27 96.41,-106.8 87.01,-91.08"/>
<polygon fill="#63b8ff" stroke="#63b8ff" points="89.92,-89.12 81.92,-82.17 83.84,-92.59 89.92,-89.12"/>
</a>
</g>
</g>
<!-- Node10&#45;&gt;Node8 -->
<g id="edge19_Node000010_Node000008" class="edge">
<title>Node10&#45;&gt;Node8</title>
<g id="a_edge19_Node000010_Node000008"><a xlink:title=" ">
<path fill="none" stroke="#63b8ff" d="M277.2,-176.78C263.45,-168.26 244,-156.21 228.4,-146.55"/>
<polygon fill="#63b8ff" stroke="#63b8ff" points="230.07,-143.46 219.73,-141.17 226.38,-149.42 230.07,-143.46"/>
</a>
</g>
</g>
<!-- Node11 -->
<g id="Node000011" class="node">
<title>Node11</title>
<g id="a_Node000011"><a xlink:href="BaseGpio_8h.html" target="_top" xlink:title="Unified GPIO base class for all digital GPIO implementations.">
<polygon fill="white" stroke="#666666" points="409.5,-141 321.5,-141 321.5,-118 409.5,-118 409.5,-141"/>
<text text-anchor="middle" x="365.5" y="-125.8" font-family="Arial" font-size="14.00">BaseGpio.h</text>
</a>
</g>
</g>
<!-- Node10&#45;&gt;Node11 -->
<g id="edge15_Node000010_Node000011" class="edge">
<title>Node10&#45;&gt;Node11</title>
<g id="a_edge15_Node000010_Node000011"><a xlink:title=" ">
<path fill="none" stroke="#63b8ff" d="M307.85,-176.78C318.07,-168.58 332.36,-157.11 344.15,-147.64"/>
<polygon fill="#63b8ff" stroke="#63b8ff" points="346.6,-150.16 352.21,-141.17 342.22,-144.7 346.6,-150.16"/>
</a>
</g>
</g>
<!-- Node11&#45;&gt;Node3 -->
<g id="edge16_Node000011_Node000003" class="edge">
<title>Node11&#45;&gt;Node3</title>
<g id="a_edge16_Node000011_Node000003"><a xlink:title=" ">
<path fill="none" stroke="#63b8ff" d="M368.89,-117.78C371.2,-110.45 374.34,-100.52 377.11,-91.74"/>
<polygon fill="#63b8ff" stroke="#63b8ff" points="380.46,-92.76 380.13,-82.17 373.78,-90.66 380.46,-92.76"/>
</a>
</g>
</g>
<!-- Node11&#45;&gt;Node4 -->
<g id="edge17_Node000011_Node000004" class="edge">
<title>Node11&#45;&gt;Node4</title>
<g id="a_edge17_Node000011_Node000004"><a xlink:title=" ">
<path fill="none" stroke="#63b8ff" d="M348.27,-117.93C336.43,-109.68 321.46,-97.11 313.5,-82 305.62,-67.05 303.64,-47.87 303.48,-33.45"/>
<polygon fill="#63b8ff" stroke="#63b8ff" points="306.99,-33.13 303.66,-23.07 299.99,-33.01 306.99,-33.13"/>
</a>
</g>
</g>
<!-- Node11&#45;&gt;Node6 -->
<g id="edge18_Node000011_Node000006" class="edge">
<title>Node11&#45;&gt;Node6</title>
<g id="a_edge18_Node000011_Node000006"><a xlink:title=" ">
<path fill="none" stroke="#63b8ff" d="M391.32,-117.91C413.26,-108.91 444.98,-95.91 469.25,-85.95"/>
<polygon fill="#63b8ff" stroke="#63b8ff" points="470.89,-89.06 478.82,-82.03 468.24,-82.59 470.89,-89.06"/>
</a>
</g>
</g>
</g>
</svg>
