<?xml version="1.0" encoding="UTF-8" standalone="no"?>
<!DOCTYPE svg PUBLIC "-//W3C//DTD SVG 1.1//EN"
 "http://www.w3.org/Graphics/SVG/1.1/DTD/svg11.dtd">
<!-- Generated by graphviz version 2.43.0 (0)
 -->
<!-- Title: inc/mcu/esp32/EspTime.h Pages: 1 -->
<svg width="183pt" height="90pt"
 viewBox="0.00 0.00 183.00 90.00" xmlns="http://www.w3.org/2000/svg" xmlns:xlink="http://www.w3.org/1999/xlink">
<g id="graph0" class="graph" transform="scale(1 1) rotate(0) translate(4 86)">
<title>inc/mcu/esp32/EspTime.h</title>
<!-- Node1 -->
<g id="Node000001" class="node">
<title>Node1</title>
<g id="a_Node000001"><a xlink:title="ESP32&#45;family implementation of the high&#45;resolution monotonic time source consumed via HfTime....">
<polygon fill="#999999" stroke="#666666" points="173,-82 0,-82 0,-59 173,-59 173,-82"/>
<text text-anchor="middle" x="86.5" y="-66.8" font-family="Arial" font-size="14.00">inc/mcu/esp32/EspTime.h</text>
</a>
</g>
</g>
<!-- Node2 -->
<g id="Node000002" class="node">
<title>Node2</title>
<g id="a_Node000002"><a xlink:title=" ">
<polygon fill="#e0e0e0" stroke="#999999" points="69.5,-23 13.5,-23 13.5,0 69.5,0 69.5,-23"/>
<text text-anchor="middle" x="41.5" y="-7.8" font-family="Arial" font-size="14.00">cstdint</text>
</a>
</g>
</g>
<!-- Node1&#45;&gt;Node2 -->
<g id="edge1_Node000001_Node000002" class="edge">
<title>Node1&#45;&gt;Node2</title>
<g id="a_edge1_Node000001_Node000002"><a xlink:title=" ">
<path fill="none" stroke="#63b8ff" d="M78.04,-58.78C71.88,-50.98 63.38,-40.21 56.13,-31.03"/>
<polygon fill="#63b8ff" stroke="#63b8ff" points="58.87,-28.85 49.93,-23.17 53.38,-33.19 58.87,-28.85"/>
</a>
</g>
</g>
<!-- Node3 -->
<g id="Node000003" class="node">
<title>Node3</title>
<g id="a_Node000003"><a xlink:title=" ">
<polygon fill="#e0e0e0" stroke="#999999" points="175,-23 88,-23 88,0 175,0 175,-23"/>
<text text-anchor="middle" x="131.5" y="-7.8" font-family="Arial" font-size="14.00">esp_timer.h</text>
</a>
</g>
</g>
<!-- Node1&#45;&gt;Node3 -->
<g id="edge2_Node000001_Node000003" class="edge">
<title>Node1&#45;&gt;Node3</title>
<g id="a_edge2_Node000001_Node000003"><a xlink:title=" ">
<path fill="none" stroke="#63b8ff" d="M94.96,-58.78C101.12,-50.98 109.62,-40.21 116.87,-31.03"/>
<polygon fill="#63b8ff" stroke="#63b8ff" points="119.62,-33.19 123.07,-23.17 114.13,-28.85 119.62,-33.19"/>
</a>
</g>
</g>
</g>
</svg>
