<?xml version="1.0" encoding="UTF-8" standalone="no"?>
<!DOCTYPE svg PUBLIC "-//W3C//DTD SVG 1.1//EN"
 "http://www.w3.org/Graphics/SVG/1.1/DTD/svg11.dtd">
<!-- Generated by graphviz version 2.43.0 (0)
 -->
<!-- Title: src/mcu/esp32/EspUsbSerialJtag.cpp Pages: 1 -->
<svg width="1394pt" height="341pt"
 viewBox="0.00 0.00 1394.00 341.00" xmlns="http://www.w3.org/2000/svg" xmlns:xlink="http://www.w3.org/1999/xlink">
<g id="graph0" class="graph" transform="scale(1 1) rotate(0) translate(4 337)">
<title>src/mcu/esp32/EspUsbSerialJtag.cpp</title>
<!-- Node1 -->
<g id="Node000001" class="node">
<title>Node1</title>
<g id="a_Node000001"><a xlink:title="ESP32&#45;family USB Serial/JTAG console wrapper implementation.">
<polygon fill="#999999" stroke="#666666" points="1011.5,-333 820.5,-333 820.5,-295 1011.5,-295 1011.5,-333"/>
<text text-anchor="start" x="828.5" y="-317.8" font-family="Arial" font-size="14.00">src/mcu/esp32/EspUsbSerial</text>
<text text-anchor="middle" x="916" y="-302.8" font-family="Arial" font-size="14.00">Jtag.cpp</text>
</a>
</g>
</g>
<!-- Node2 -->
<g id="Node000002" class="node">
<title>Node2</title>
<g id="a_Node000002"><a xlink:href="EspUsbSerialJtag_8h.html" target="_top" xlink:title="ESP32&#45;S3 / &#45;C3 / &#45;C6 USB Serial/JTAG console wrapper.">
<polygon fill="white" stroke="#666666" points="549.5,-259 414.5,-259 414.5,-236 549.5,-236 549.5,-259"/>
<text text-anchor="middle" x="482" y="-243.8" font-family="Arial" font-size="14.00">EspUsbSerialJtag.h</text>
</a>
</g>
</g>
<!-- Node1&#45;&gt;Node2 -->
<g id="edge1_Node000001_Node000002" class="edge">
<title>Node1&#45;&gt;Node2</title>
<g id="a_edge1_Node000001_Node000002"><a xlink:title=" ">
<path fill="none" stroke="#63b8ff" d="M820.49,-298.81C742.19,-287.17 632.75,-270.9 559.73,-260.05"/>
<polygon fill="#63b8ff" stroke="#63b8ff" points="560.08,-256.57 549.68,-258.56 559.05,-263.49 560.08,-256.57"/>
</a>
</g>
</g>
<!-- Node12 -->
<g id="Node000012" class="node">
<title>Node12</title>
<g id="a_Node000012"><a xlink:title=" ">
<polygon fill="#e0e0e0" stroke="#999999" points="640.5,-259 567.5,-259 567.5,-236 640.5,-236 640.5,-259"/>
<text text-anchor="middle" x="604" y="-243.8" font-family="Arial" font-size="14.00">algorithm</text>
</a>
</g>
</g>
<!-- Node1&#45;&gt;Node12 -->
<g id="edge15_Node000001_Node000012" class="edge">
<title>Node1&#45;&gt;Node12</title>
<g id="a_edge15_Node000001_Node000012"><a xlink:title=" ">
<path fill="none" stroke="#63b8ff" d="M824.48,-294.99C775.63,-285.24 714.26,-272.78 650.48,-259.07"/>
<polygon fill="#63b8ff" stroke="#63b8ff" points="651.15,-255.63 640.64,-256.95 649.68,-262.48 651.15,-255.63"/>
</a>
</g>
</g>
<!-- Node13 -->
<g id="Node000013" class="node">
<title>Node13</title>
<g id="a_Node000013"><a xlink:title=" ">
<polygon fill="#e0e0e0" stroke="#999999" points="815,-259 659,-259 659,-236 815,-236 815,-259"/>
<text text-anchor="middle" x="737" y="-243.8" font-family="Arial" font-size="14.00">driver/usb_serial_jtag.h</text>
</a>
</g>
</g>
<!-- Node1&#45;&gt;Node13 -->
<g id="edge16_Node000001_Node000013" class="edge">
<title>Node1&#45;&gt;Node13</title>
<g id="a_edge16_Node000001_Node000013"><a xlink:title=" ">
<path fill="none" stroke="#63b8ff" d="M865.66,-294.86C837.24,-284.62 802.25,-272.01 775.94,-262.53"/>
<polygon fill="#63b8ff" stroke="#63b8ff" points="776.9,-259.16 766.31,-259.06 774.53,-265.74 776.9,-259.16"/>
</a>
</g>
</g>
<!-- Node14 -->
<g id="Node000014" class="node">
<title>Node14</title>
<g id="a_Node000014"><a xlink:title=" ">
<polygon fill="#e0e0e0" stroke="#999999" points="906.5,-259 833.5,-259 833.5,-236 906.5,-236 906.5,-259"/>
<text text-anchor="middle" x="870" y="-243.8" font-family="Arial" font-size="14.00">esp_err.h</text>
</a>
</g>
</g>
<!-- Node1&#45;&gt;Node14 -->
<g id="edge17_Node000001_Node000014" class="edge">
<title>Node1&#45;&gt;Node14</title>
<g id="a_edge17_Node000001_Node000014"><a xlink:title=" ">
<path fill="none" stroke="#63b8ff" d="M902.94,-294.69C896.87,-286.18 889.65,-276.06 883.52,-267.46"/>
<polygon fill="#63b8ff" stroke="#63b8ff" points="886.28,-265.3 877.62,-259.19 880.58,-269.37 886.28,-265.3"/>
</a>
</g>
</g>
<!-- Node15 -->
<g id="Node000015" class="node">
<title>Node15</title>
<g id="a_Node000015"><a xlink:title=" ">
<polygon fill="#e0e0e0" stroke="#999999" points="999.5,-259 924.5,-259 924.5,-236 999.5,-236 999.5,-259"/>
<text text-anchor="middle" x="962" y="-243.8" font-family="Arial" font-size="14.00">esp_log.h</text>
</a>
</g>
</g>
<!-- Node1&#45;&gt;Node15 -->
<g id="edge18_Node000001_Node000015" class="edge">
<title>Node1&#45;&gt;Node15</title>
<g id="a_edge18_Node000001_Node000015"><a xlink:title=" ">
<path fill="none" stroke="#63b8ff" d="M929.06,-294.69C935.13,-286.18 942.35,-276.06 948.48,-267.46"/>
<polygon fill="#63b8ff" stroke="#63b8ff" points="951.42,-269.37 954.38,-259.19 945.72,-265.3 951.42,-269.37"/>
</a>
</g>
</g>
<!-- Node16 -->
<g id="Node000016" class="node">
<title>Node16</title>
<g id="a_Node000016"><a xlink:title=" ">
<polygon fill="#e0e0e0" stroke="#999999" points="1104.5,-259 1017.5,-259 1017.5,-236 1104.5,-236 1104.5,-259"/>
<text text-anchor="middle" x="1061" y="-243.8" font-family="Arial" font-size="14.00">esp_timer.h</text>
</a>
</g>
</g>
<!-- Node1&#45;&gt;Node16 -->
<g id="edge19_Node000001_Node000016" class="edge">
<title>Node1&#45;&gt;Node16</title>
<g id="a_edge19_Node000001_Node000016"><a xlink:title=" ">
<path fill="none" stroke="#63b8ff" d="M956.78,-294.86C979.29,-284.84 1006.9,-272.57 1028.04,-263.16"/>
<polygon fill="#63b8ff" stroke="#63b8ff" points="1029.54,-266.32 1037.26,-259.06 1026.7,-259.93 1029.54,-266.32"/>
</a>
</g>
</g>
<!-- Node17 -->
<g id="Node000017" class="node">
<title>Node17</title>
<g id="a_Node000017"><a xlink:title=" ">
<polygon fill="#e0e0e0" stroke="#999999" points="1265.5,-259 1122.5,-259 1122.5,-236 1265.5,-236 1265.5,-259"/>
<text text-anchor="middle" x="1194" y="-243.8" font-family="Arial" font-size="14.00">freertos/FreeRTOS.h</text>
</a>
</g>
</g>
<!-- Node1&#45;&gt;Node17 -->
<g id="edge20_Node000001_Node000017" class="edge">
<title>Node1&#45;&gt;Node17</title>
<g id="a_edge20_Node000001_Node000017"><a xlink:title=" ">
<path fill="none" stroke="#63b8ff" d="M993.81,-294.95C1039.81,-284.27 1096.98,-271.01 1138.44,-261.39"/>
<polygon fill="#63b8ff" stroke="#63b8ff" points="1139.41,-264.76 1148.36,-259.09 1137.83,-257.94 1139.41,-264.76"/>
</a>
</g>
</g>
<!-- Node18 -->
<g id="Node000018" class="node">
<title>Node18</title>
<g id="a_Node000018"><a xlink:title=" ">
<polygon fill="#e0e0e0" stroke="#999999" points="1386,-259 1284,-259 1284,-236 1386,-236 1386,-259"/>
<text text-anchor="middle" x="1335" y="-243.8" font-family="Arial" font-size="14.00">freertos/task.h</text>
</a>
</g>
</g>
<!-- Node1&#45;&gt;Node18 -->
<g id="edge21_Node000001_Node000018" class="edge">
<title>Node1&#45;&gt;Node18</title>
<g id="a_edge21_Node000001_Node000018"><a xlink:title=" ">
<path fill="none" stroke="#63b8ff" d="M1011.71,-299.24C1081.62,-289.04 1178.96,-274.53 1273.88,-259.15"/>
<polygon fill="#63b8ff" stroke="#63b8ff" points="1274.64,-262.58 1283.95,-257.52 1273.52,-255.67 1274.64,-262.58"/>
</a>
</g>
</g>
<!-- Node3 -->
<g id="Node000003" class="node">
<title>Node3</title>
<g id="a_Node000003"><a xlink:href="BaseUsbSerialJtag_8h.html" target="_top" xlink:title="Abstract base class for USB Serial/JTAG controller &quot;console&#45;style&quot; serial transports in the HardFOC s...">
<polygon fill="white" stroke="#666666" points="435.5,-200 292.5,-200 292.5,-177 435.5,-177 435.5,-200"/>
<text text-anchor="middle" x="364" y="-184.8" font-family="Arial" font-size="14.00">BaseUsbSerialJtag.h</text>
</a>
</g>
</g>
<!-- Node2&#45;&gt;Node3 -->
<g id="edge2_Node000002_Node000003" class="edge">
<title>Node2&#45;&gt;Node3</title>
<g id="a_edge2_Node000002_Node000003"><a xlink:title=" ">
<path fill="none" stroke="#63b8ff" d="M460.08,-235.91C441.78,-227.07 415.49,-214.37 395.03,-204.49"/>
<polygon fill="#63b8ff" stroke="#63b8ff" points="396.33,-201.23 385.8,-200.03 393.28,-207.53 396.33,-201.23"/>
</a>
</g>
</g>
<!-- Node6 -->
<g id="Node000006" class="node">
<title>Node6</title>
<g id="a_Node000006"><a xlink:title=" ">
<polygon fill="#e0e0e0" stroke="#999999" points="285,-23 229,-23 229,0 285,0 285,-23"/>
<text text-anchor="middle" x="257" y="-7.8" font-family="Arial" font-size="14.00">cstdint</text>
</a>
</g>
</g>
<!-- Node2&#45;&gt;Node6 -->
<g id="edge14_Node000002_Node000006" class="edge">
<title>Node2&#45;&gt;Node6</title>
<g id="a_edge14_Node000002_Node000006"><a xlink:title=" ">
<path fill="none" stroke="#63b8ff" d="M483.31,-235.77C485.6,-212.25 487.97,-155.29 463,-118 424.15,-59.99 343.14,-32.13 295.1,-20.21"/>
<polygon fill="#63b8ff" stroke="#63b8ff" points="295.62,-16.74 285.09,-17.84 294.01,-23.55 295.62,-16.74"/>
</a>
</g>
</g>
<!-- Node11 -->
<g id="Node000011" class="node">
<title>Node11</title>
<g id="a_Node000011"><a xlink:href="McuSelect_8h.html" target="_top" xlink:title="Centralized MCU platform selection and configuration header.">
<polygon fill="white" stroke="#666666" points="602,-200 510,-200 510,-177 602,-177 602,-200"/>
<text text-anchor="middle" x="556" y="-184.8" font-family="Arial" font-size="14.00">McuSelect.h</text>
</a>
</g>
</g>
<!-- Node2&#45;&gt;Node11 -->
<g id="edge13_Node000002_Node000011" class="edge">
<title>Node2&#45;&gt;Node11</title>
<g id="a_edge13_Node000002_Node000011"><a xlink:title=" ">
<path fill="none" stroke="#63b8ff" d="M495.92,-235.78C506.67,-227.5 521.75,-215.89 534.11,-206.36"/>
<polygon fill="#63b8ff" stroke="#63b8ff" points="536.36,-209.05 542.14,-200.17 532.09,-203.5 536.36,-209.05"/>
</a>
</g>
</g>
<!-- Node4 -->
<g id="Node000004" class="node">
<title>Node4</title>
<g id="a_Node000004"><a xlink:href="BaseUart_8h.html" target="_top" xlink:title="Abstract base class for UART driver implementations in the HardFOC system.">
<polygon fill="white" stroke="#666666" points="262,-141 178,-141 178,-118 262,-118 262,-141"/>
<text text-anchor="middle" x="220" y="-125.8" font-family="Arial" font-size="14.00">BaseUart.h</text>
</a>
</g>
</g>
<!-- Node3&#45;&gt;Node4 -->
<g id="edge3_Node000003_Node000004" class="edge">
<title>Node3&#45;&gt;Node4</title>
<g id="a_edge3_Node000003_Node000004"><a xlink:title=" ">
<path fill="none" stroke="#63b8ff" d="M337.25,-176.91C314.42,-167.87 281.37,-154.79 256.18,-144.82"/>
<polygon fill="#63b8ff" stroke="#63b8ff" points="257.19,-141.46 246.6,-141.03 254.61,-147.97 257.19,-141.46"/>
</a>
</g>
</g>
<!-- Node3&#45;&gt;Node6 -->
<g id="edge11_Node000003_Node000006" class="edge">
<title>Node3&#45;&gt;Node6</title>
<g id="a_edge11_Node000003_Node000006"><a xlink:title=" ">
<path fill="none" stroke="#63b8ff" d="M365.45,-176.67C368.02,-152.96 370.92,-95.64 345,-59 333.04,-42.1 313,-30.83 295.06,-23.63"/>
<polygon fill="#63b8ff" stroke="#63b8ff" points="295.97,-20.23 285.38,-20.03 293.54,-26.8 295.97,-20.23"/>
</a>
</g>
</g>
<!-- Node8 -->
<g id="Node000008" class="node">
<title>Node8</title>
<g id="a_Node000008"><a xlink:title=" ">
<polygon fill="#e0e0e0" stroke="#999999" points="336,-82 280,-82 280,-59 336,-59 336,-82"/>
<text text-anchor="middle" x="308" y="-66.8" font-family="Arial" font-size="14.00">cstring</text>
</a>
</g>
</g>
<!-- Node3&#45;&gt;Node8 -->
<g id="edge12_Node000003_Node000008" class="edge">
<title>Node3&#45;&gt;Node8</title>
<g id="a_edge12_Node000003_Node000008"><a xlink:title=" ">
<path fill="none" stroke="#63b8ff" d="M358.83,-176.79C349.46,-157.37 329.51,-116.06 317.58,-91.35"/>
<polygon fill="#63b8ff" stroke="#63b8ff" points="320.65,-89.66 313.16,-82.18 314.35,-92.71 320.65,-89.66"/>
</a>
</g>
</g>
<!-- Node10 -->
<g id="Node000010" class="node">
<title>Node10</title>
<g id="a_Node000010"><a xlink:title=" ">
<polygon fill="#e0e0e0" stroke="#999999" points="453.5,-141 392.5,-141 392.5,-118 453.5,-118 453.5,-141"/>
<text text-anchor="middle" x="423" y="-125.8" font-family="Arial" font-size="14.00">cstdarg</text>
</a>
</g>
</g>
<!-- Node3&#45;&gt;Node10 -->
<g id="edge10_Node000003_Node000010" class="edge">
<title>Node3&#45;&gt;Node10</title>
<g id="a_edge10_Node000003_Node000010"><a xlink:title=" ">
<path fill="none" stroke="#63b8ff" d="M375.1,-176.78C383.42,-168.74 395,-157.55 404.69,-148.19"/>
<polygon fill="#63b8ff" stroke="#63b8ff" points="407.19,-150.64 411.95,-141.17 402.33,-145.6 407.19,-150.64"/>
</a>
</g>
</g>
<!-- Node5 -->
<g id="Node000005" class="node">
<title>Node5</title>
<g id="a_Node000005"><a xlink:href="HardwareTypes_8h.html" target="_top" xlink:title="Platform&#45;agnostic hardware type definitions for the HardFOC system.">
<polygon fill="white" stroke="#666666" points="122,-82 0,-82 0,-59 122,-59 122,-82"/>
<text text-anchor="middle" x="61" y="-66.8" font-family="Arial" font-size="14.00">HardwareTypes.h</text>
</a>
</g>
</g>
<!-- Node4&#45;&gt;Node5 -->
<g id="edge4_Node000004_Node000005" class="edge">
<title>Node4&#45;&gt;Node5</title>
<g id="a_edge4_Node000004_Node000005"><a xlink:title=" ">
<path fill="none" stroke="#63b8ff" d="M190.47,-117.91C164.92,-108.75 127.8,-95.45 99.85,-85.43"/>
<polygon fill="#63b8ff" stroke="#63b8ff" points="100.97,-82.11 90.38,-82.03 98.61,-88.7 100.97,-82.11"/>
</a>
</g>
</g>
<!-- Node4&#45;&gt;Node6 -->
<g id="edge7_Node000004_Node000006" class="edge">
<title>Node4&#45;&gt;Node6</title>
<g id="a_edge7_Node000004_Node000006"><a xlink:title=" ">
<path fill="none" stroke="#63b8ff" d="M202.5,-117.85C182.98,-104.57 155.79,-80.92 169,-59 179.89,-40.93 200.4,-29.53 218.88,-22.53"/>
<polygon fill="#63b8ff" stroke="#63b8ff" points="220.28,-25.75 228.58,-19.18 217.99,-19.14 220.28,-25.75"/>
</a>
</g>
</g>
<!-- Node4&#45;&gt;Node8 -->
<g id="edge8_Node000004_Node000008" class="edge">
<title>Node4&#45;&gt;Node8</title>
<g id="a_edge8_Node000004_Node000008"><a xlink:title=" ">
<path fill="none" stroke="#63b8ff" d="M236.55,-117.78C249.58,-109.34 267.96,-97.44 282.81,-87.82"/>
<polygon fill="#63b8ff" stroke="#63b8ff" points="285.03,-90.55 291.52,-82.17 281.23,-84.67 285.03,-90.55"/>
</a>
</g>
</g>
<!-- Node9 -->
<g id="Node000009" class="node">
<title>Node9</title>
<g id="a_Node000009"><a xlink:title=" ">
<polygon fill="#e0e0e0" stroke="#999999" points="262,-82 178,-82 178,-59 262,-59 262,-82"/>
<text text-anchor="middle" x="220" y="-66.8" font-family="Arial" font-size="14.00">string_view</text>
</a>
</g>
</g>
<!-- Node4&#45;&gt;Node9 -->
<g id="edge9_Node000004_Node000009" class="edge">
<title>Node4&#45;&gt;Node9</title>
<g id="a_edge9_Node000004_Node000009"><a xlink:title=" ">
<path fill="none" stroke="#63b8ff" d="M220,-117.78C220,-110.61 220,-100.95 220,-92.31"/>
<polygon fill="#63b8ff" stroke="#63b8ff" points="223.5,-92.17 220,-82.17 216.5,-92.17 223.5,-92.17"/>
</a>
</g>
</g>
<!-- Node5&#45;&gt;Node6 -->
<g id="edge5_Node000005_Node000006" class="edge">
<title>Node5&#45;&gt;Node6</title>
<g id="a_edge5_Node000005_Node000006"><a xlink:title=" ">
<path fill="none" stroke="#63b8ff" d="M97.41,-58.91C131.97,-48.86 183.72,-33.81 218.84,-23.6"/>
<polygon fill="#63b8ff" stroke="#63b8ff" points="220.1,-26.88 228.73,-20.72 218.15,-20.15 220.1,-26.88"/>
</a>
</g>
</g>
<!-- Node7 -->
<g id="Node000007" class="node">
<title>Node7</title>
<g id="a_Node000007"><a xlink:title=" ">
<polygon fill="#e0e0e0" stroke="#999999" points="85,-23 37,-23 37,0 85,0 85,-23"/>
<text text-anchor="middle" x="61" y="-7.8" font-family="Arial" font-size="14.00">limits</text>
</a>
</g>
</g>
<!-- Node5&#45;&gt;Node7 -->
<g id="edge6_Node000005_Node000007" class="edge">
<title>Node5&#45;&gt;Node7</title>
<g id="a_edge6_Node000005_Node000007"><a xlink:title=" ">
<path fill="none" stroke="#63b8ff" d="M61,-58.78C61,-51.61 61,-41.95 61,-33.31"/>
<polygon fill="#63b8ff" stroke="#63b8ff" points="64.5,-33.17 61,-23.17 57.5,-33.17 64.5,-33.17"/>
</a>
</g>
</g>
</g>
</svg>
