<?xml version="1.0" encoding="UTF-8" standalone="no"?>
<!DOCTYPE svg PUBLIC "-//W3C//DTD SVG 1.1//EN"
 "http://www.w3.org/Graphics/SVG/1.1/DTD/svg11.dtd">
<!-- Generated by graphviz version 2.43.0 (0)
 -->
<!-- Title: src/mcu/esp32/EspWifi.cpp Pages: 1 -->
<svg width="1858pt" height="282pt"
 viewBox="0.00 0.00 1858.00 282.00" xmlns="http://www.w3.org/2000/svg" xmlns:xlink="http://www.w3.org/1999/xlink">
<g id="graph0" class="graph" transform="scale(1 1) rotate(0) translate(4 278)">
<title>src/mcu/esp32/EspWifi.cpp</title>
<!-- Node1 -->
<g id="Node000001" class="node">
<title>Node1</title>
<g id="a_Node000001"><a xlink:title="Advanced ESP32 implementation of the unified BaseWifi class with ESP&#45;IDF v5.5+ features.">
<polygon fill="#999999" stroke="#666666" points="1339.5,-274 1158.5,-274 1158.5,-251 1339.5,-251 1339.5,-274"/>
<text text-anchor="middle" x="1249" y="-258.8" font-family="Arial" font-size="14.00">src/mcu/esp32/EspWifi.cpp</text>
</a>
</g>
</g>
<!-- Node2 -->
<g id="Node000002" class="node">
<title>Node2</title>
<g id="a_Node000002"><a xlink:href="EspWifi_8h.html" target="_top" xlink:title="Advanced ESP32 implementation of the unified BaseWifi class with ESP&#45;IDF v5.5+ features.">
<polygon fill="white" stroke="#666666" points="808.5,-215 663.5,-215 663.5,-192 808.5,-192 808.5,-215"/>
<text text-anchor="middle" x="736" y="-199.8" font-family="Arial" font-size="14.00">mcu/esp32/EspWifi.h</text>
</a>
</g>
</g>
<!-- Node1&#45;&gt;Node2 -->
<g id="edge1_Node000001_Node000002" class="edge">
<title>Node1&#45;&gt;Node2</title>
<g id="a_edge1_Node000001_Node000002"><a xlink:title=" ">
<path fill="none" stroke="#63b8ff" d="M1158.13,-252.23C1073.17,-243.43 942.46,-229.59 818.89,-215.09"/>
<polygon fill="#63b8ff" stroke="#63b8ff" points="819.21,-211.6 808.87,-213.91 818.39,-218.55 819.21,-211.6"/>
</a>
</g>
</g>
<!-- Node24 -->
<g id="Node000024" class="node">
<title>Node24</title>
<g id="a_Node000024"><a xlink:title=" ">
<polygon fill="#e0e0e0" stroke="#999999" points="901.5,-215 826.5,-215 826.5,-192 901.5,-192 901.5,-215"/>
<text text-anchor="middle" x="864" y="-199.8" font-family="Arial" font-size="14.00">esp_log.h</text>
</a>
</g>
</g>
<!-- Node1&#45;&gt;Node24 -->
<g id="edge30_Node000001_Node000024" class="edge">
<title>Node1&#45;&gt;Node24</title>
<g id="a_edge30_Node000001_Node000024"><a xlink:title=" ">
<path fill="none" stroke="#63b8ff" d="M1158.3,-251.1C1092.52,-243.07 1001.24,-230.93 911.71,-215.01"/>
<polygon fill="#63b8ff" stroke="#63b8ff" points="912.12,-211.52 901.65,-213.2 910.88,-218.41 912.12,-211.52"/>
</a>
</g>
</g>
<!-- Node25 -->
<g id="Node000025" class="node">
<title>Node25</title>
<g id="a_Node000025"><a xlink:title=" ">
<polygon fill="#e0e0e0" stroke="#999999" points="1002.5,-215 919.5,-215 919.5,-192 1002.5,-192 1002.5,-215"/>
<text text-anchor="middle" x="961" y="-199.8" font-family="Arial" font-size="14.00">esp_mac.h</text>
</a>
</g>
</g>
<!-- Node1&#45;&gt;Node25 -->
<g id="edge31_Node000001_Node000025" class="edge">
<title>Node1&#45;&gt;Node25</title>
<g id="a_edge31_Node000001_Node000025"><a xlink:title=" ">
<path fill="none" stroke="#63b8ff" d="M1194.37,-250.93C1148.57,-242.04 1081.17,-228.87 1012.83,-215.15"/>
<polygon fill="#63b8ff" stroke="#63b8ff" points="1013.24,-211.67 1002.74,-213.13 1011.86,-218.53 1013.24,-211.67"/>
</a>
</g>
</g>
<!-- Node26 -->
<g id="Node000026" class="node">
<title>Node26</title>
<g id="a_Node000026"><a xlink:title=" ">
<polygon fill="#e0e0e0" stroke="#999999" points="1121.5,-215 1020.5,-215 1020.5,-192 1121.5,-192 1121.5,-215"/>
<text text-anchor="middle" x="1071" y="-199.8" font-family="Arial" font-size="14.00">esp_system.h</text>
</a>
</g>
</g>
<!-- Node1&#45;&gt;Node26 -->
<g id="edge32_Node000001_Node000026" class="edge">
<title>Node1&#45;&gt;Node26</title>
<g id="a_edge32_Node000001_Node000026"><a xlink:title=" ">
<path fill="none" stroke="#63b8ff" d="M1215.94,-250.91C1187.09,-241.67 1145.05,-228.21 1113.67,-218.16"/>
<polygon fill="#63b8ff" stroke="#63b8ff" points="1114.48,-214.75 1103.89,-215.03 1112.34,-221.41 1114.48,-214.75"/>
</a>
</g>
</g>
<!-- Node27 -->
<g id="Node000027" class="node">
<title>Node27</title>
<g id="a_Node000027"><a xlink:title=" ">
<polygon fill="#e0e0e0" stroke="#999999" points="1226.5,-215 1139.5,-215 1139.5,-192 1226.5,-192 1226.5,-215"/>
<text text-anchor="middle" x="1183" y="-199.8" font-family="Arial" font-size="14.00">esp_timer.h</text>
</a>
</g>
</g>
<!-- Node1&#45;&gt;Node27 -->
<g id="edge33_Node000001_Node000027" class="edge">
<title>Node1&#45;&gt;Node27</title>
<g id="a_edge33_Node000001_Node000027"><a xlink:title=" ">
<path fill="none" stroke="#63b8ff" d="M1236.59,-250.78C1227.18,-242.66 1214.07,-231.33 1203.17,-221.92"/>
<polygon fill="#63b8ff" stroke="#63b8ff" points="1205.21,-219.06 1195.36,-215.17 1200.64,-224.36 1205.21,-219.06"/>
</a>
</g>
</g>
<!-- Node28 -->
<g id="Node000028" class="node">
<title>Node28</title>
<g id="a_Node000028"><a xlink:title=" ">
<polygon fill="#e0e0e0" stroke="#999999" points="1387.5,-215 1244.5,-215 1244.5,-192 1387.5,-192 1387.5,-215"/>
<text text-anchor="middle" x="1316" y="-199.8" font-family="Arial" font-size="14.00">freertos/FreeRTOS.h</text>
</a>
</g>
</g>
<!-- Node1&#45;&gt;Node28 -->
<g id="edge34_Node000001_Node000028" class="edge">
<title>Node1&#45;&gt;Node28</title>
<g id="a_edge34_Node000001_Node000028"><a xlink:title=" ">
<path fill="none" stroke="#63b8ff" d="M1261.6,-250.78C1271.15,-242.66 1284.46,-231.33 1295.53,-221.92"/>
<polygon fill="#63b8ff" stroke="#63b8ff" points="1298.11,-224.32 1303.45,-215.17 1293.57,-218.99 1298.11,-224.32"/>
</a>
</g>
</g>
<!-- Node29 -->
<g id="Node000029" class="node">
<title>Node29</title>
<g id="a_Node000029"><a xlink:title=" ">
<polygon fill="#e0e0e0" stroke="#999999" points="1564.5,-215 1405.5,-215 1405.5,-192 1564.5,-192 1564.5,-215"/>
<text text-anchor="middle" x="1485" y="-199.8" font-family="Arial" font-size="14.00">freertos/event_groups.h</text>
</a>
</g>
</g>
<!-- Node1&#45;&gt;Node29 -->
<g id="edge35_Node000001_Node000029" class="edge">
<title>Node1&#45;&gt;Node29</title>
<g id="a_edge35_Node000001_Node000029"><a xlink:title=" ">
<path fill="none" stroke="#63b8ff" d="M1292.56,-250.98C1331.77,-241.51 1389.51,-227.56 1431.51,-217.42"/>
<polygon fill="#63b8ff" stroke="#63b8ff" points="1432.39,-220.81 1441.29,-215.06 1430.75,-214 1432.39,-220.81"/>
</a>
</g>
</g>
<!-- Node30 -->
<g id="Node000030" class="node">
<title>Node30</title>
<g id="a_Node000030"><a xlink:title=" ">
<polygon fill="#e0e0e0" stroke="#999999" points="1684,-215 1582,-215 1582,-192 1684,-192 1684,-215"/>
<text text-anchor="middle" x="1633" y="-199.8" font-family="Arial" font-size="14.00">freertos/task.h</text>
</a>
</g>
</g>
<!-- Node1&#45;&gt;Node30 -->
<g id="edge36_Node000001_Node000030" class="edge">
<title>Node1&#45;&gt;Node30</title>
<g id="a_edge36_Node000001_Node000030"><a xlink:title=" ">
<path fill="none" stroke="#63b8ff" d="M1327.92,-250.97C1391.43,-242.33 1483.22,-229.43 1571.89,-215.31"/>
<polygon fill="#63b8ff" stroke="#63b8ff" points="1572.53,-218.75 1581.85,-213.71 1571.42,-211.84 1572.53,-218.75"/>
</a>
</g>
</g>
<!-- Node31 -->
<g id="Node000031" class="node">
<title>Node31</title>
<g id="a_Node000031"><a xlink:title=" ">
<polygon fill="#e0e0e0" stroke="#999999" points="1775.5,-215 1702.5,-215 1702.5,-192 1775.5,-192 1775.5,-215"/>
<text text-anchor="middle" x="1739" y="-199.8" font-family="Arial" font-size="14.00">algorithm</text>
</a>
</g>
</g>
<!-- Node1&#45;&gt;Node31 -->
<g id="edge37_Node000001_Node000031" class="edge">
<title>Node1&#45;&gt;Node31</title>
<g id="a_edge37_Node000001_Node000031"><a xlink:title=" ">
<path fill="none" stroke="#63b8ff" d="M1339.57,-255.22C1427.31,-248.4 1564.26,-235.83 1692.42,-214.92"/>
<polygon fill="#63b8ff" stroke="#63b8ff" points="1693.12,-218.35 1702.42,-213.27 1691.98,-211.44 1693.12,-218.35"/>
</a>
</g>
</g>
<!-- Node32 -->
<g id="Node000032" class="node">
<title>Node32</title>
<g id="a_Node000032"><a xlink:title=" ">
<polygon fill="#e0e0e0" stroke="#999999" points="1850,-215 1794,-215 1794,-192 1850,-192 1850,-215"/>
<text text-anchor="middle" x="1822" y="-199.8" font-family="Arial" font-size="14.00">cstring</text>
</a>
</g>
</g>
<!-- Node1&#45;&gt;Node32 -->
<g id="edge38_Node000001_Node000032" class="edge">
<title>Node1&#45;&gt;Node32</title>
<g id="a_edge38_Node000001_Node000032"><a xlink:title=" ">
<path fill="none" stroke="#63b8ff" d="M1339.8,-258.87C1444.77,-254.66 1622.72,-243.87 1783.76,-214.93"/>
<polygon fill="#63b8ff" stroke="#63b8ff" points="1784.64,-218.32 1793.85,-213.08 1783.38,-211.44 1784.64,-218.32"/>
</a>
</g>
</g>
<!-- Node3 -->
<g id="Node000003" class="node">
<title>Node3</title>
<g id="a_Node000003"><a xlink:title=" ">
<polygon fill="#e0e0e0" stroke="#999999" points="90,-148.5 0,-148.5 0,-125.5 90,-125.5 90,-148.5"/>
<text text-anchor="middle" x="45" y="-133.3" font-family="Arial" font-size="14.00">esp_event.h</text>
</a>
</g>
</g>
<!-- Node2&#45;&gt;Node3 -->
<g id="edge2_Node000002_Node000003" class="edge">
<title>Node2&#45;&gt;Node3</title>
<g id="a_edge2_Node000002_Node000003"><a xlink:title=" ">
<path fill="none" stroke="#63b8ff" d="M663.09,-203.04C543.9,-202.61 300.43,-196.27 99,-156 93.43,-154.89 87.63,-153.36 82,-151.67"/>
<polygon fill="#63b8ff" stroke="#63b8ff" points="82.71,-148.22 72.11,-148.5 80.57,-154.89 82.71,-148.22"/>
</a>
</g>
</g>
<!-- Node4 -->
<g id="Node000004" class="node">
<title>Node4</title>
<g id="a_Node000004"><a xlink:title=" ">
<polygon fill="#e0e0e0" stroke="#999999" points="199.5,-148.5 108.5,-148.5 108.5,-125.5 199.5,-125.5 199.5,-148.5"/>
<text text-anchor="middle" x="154" y="-133.3" font-family="Arial" font-size="14.00">esp_mesh.h</text>
</a>
</g>
</g>
<!-- Node2&#45;&gt;Node4 -->
<g id="edge3_Node000002_Node000004" class="edge">
<title>Node2&#45;&gt;Node4</title>
<g id="a_edge3_Node000002_Node000004"><a xlink:title=" ">
<path fill="none" stroke="#63b8ff" d="M663.48,-201.46C561,-198.78 368.38,-189.31 208,-156 202.5,-154.86 196.77,-153.33 191.2,-151.65"/>
<polygon fill="#63b8ff" stroke="#63b8ff" points="192,-148.24 181.41,-148.51 189.86,-154.9 192,-148.24"/>
</a>
</g>
</g>
<!-- Node5 -->
<g id="Node000005" class="node">
<title>Node5</title>
<g id="a_Node000005"><a xlink:title=" ">
<polygon fill="#e0e0e0" stroke="#999999" points="300.5,-148.5 217.5,-148.5 217.5,-125.5 300.5,-125.5 300.5,-148.5"/>
<text text-anchor="middle" x="259" y="-133.3" font-family="Arial" font-size="14.00">esp_netif.h</text>
</a>
</g>
</g>
<!-- Node2&#45;&gt;Node5 -->
<g id="edge4_Node000002_Node000005" class="edge">
<title>Node2&#45;&gt;Node5</title>
<g id="a_edge4_Node000002_Node000005"><a xlink:title=" ">
<path fill="none" stroke="#63b8ff" d="M663.18,-199.66C577.68,-195.15 432.05,-183.81 310,-156 304.98,-154.86 299.77,-153.38 294.68,-151.76"/>
<polygon fill="#63b8ff" stroke="#63b8ff" points="295.72,-148.41 285.13,-148.52 293.48,-155.04 295.72,-148.41"/>
</a>
</g>
</g>
<!-- Node6 -->
<g id="Node000006" class="node">
<title>Node6</title>
<g id="a_Node000006"><a xlink:title=" ">
<polygon fill="#e0e0e0" stroke="#999999" points="447,-148.5 319,-148.5 319,-125.5 447,-125.5 447,-148.5"/>
<text text-anchor="middle" x="383" y="-133.3" font-family="Arial" font-size="14.00">esp_smartconfig.h</text>
</a>
</g>
</g>
<!-- Node2&#45;&gt;Node6 -->
<g id="edge5_Node000002_Node000006" class="edge">
<title>Node2&#45;&gt;Node6</title>
<g id="a_edge5_Node000002_Node000006"><a xlink:title=" ">
<path fill="none" stroke="#63b8ff" d="M663.49,-192.03C606.79,-183.46 526.1,-170.44 456,-156 448.62,-154.48 440.86,-152.73 433.26,-150.93"/>
<polygon fill="#63b8ff" stroke="#63b8ff" points="433.96,-147.5 423.42,-148.56 432.32,-154.3 433.96,-147.5"/>
</a>
</g>
</g>
<!-- Node7 -->
<g id="Node000007" class="node">
<title>Node7</title>
<g id="a_Node000007"><a xlink:title=" ">
<polygon fill="#e0e0e0" stroke="#999999" points="542.5,-148.5 465.5,-148.5 465.5,-125.5 542.5,-125.5 542.5,-148.5"/>
<text text-anchor="middle" x="504" y="-133.3" font-family="Arial" font-size="14.00">esp_wifi.h</text>
</a>
</g>
</g>
<!-- Node2&#45;&gt;Node7 -->
<g id="edge6_Node000002_Node000007" class="edge">
<title>Node2&#45;&gt;Node7</title>
<g id="a_edge6_Node000002_Node000007"><a xlink:title=" ">
<path fill="none" stroke="#63b8ff" d="M687.26,-191.92C649.69,-183.37 596.63,-170.42 551,-156 547.26,-154.82 543.39,-153.5 539.55,-152.13"/>
<polygon fill="#63b8ff" stroke="#63b8ff" points="540.75,-148.84 530.15,-148.65 538.32,-155.4 540.75,-148.84"/>
</a>
</g>
</g>
<!-- Node8 -->
<g id="Node000008" class="node">
<title>Node8</title>
<g id="a_Node000008"><a xlink:title=" ">
<polygon fill="#e0e0e0" stroke="#999999" points="631.5,-148.5 560.5,-148.5 560.5,-125.5 631.5,-125.5 631.5,-148.5"/>
<text text-anchor="middle" x="596" y="-133.3" font-family="Arial" font-size="14.00">lwip/err.h</text>
</a>
</g>
</g>
<!-- Node2&#45;&gt;Node8 -->
<g id="edge7_Node000002_Node000008" class="edge">
<title>Node2&#45;&gt;Node8</title>
<g id="a_edge7_Node000002_Node000008"><a xlink:title=" ">
<path fill="none" stroke="#63b8ff" d="M713.19,-191.99C690.01,-181.31 653.89,-164.67 627.88,-152.69"/>
<polygon fill="#63b8ff" stroke="#63b8ff" points="629.34,-149.51 618.8,-148.5 626.41,-155.87 629.34,-149.51"/>
</a>
</g>
</g>
<!-- Node9 -->
<g id="Node000009" class="node">
<title>Node9</title>
<g id="a_Node000009"><a xlink:title=" ">
<polygon fill="#e0e0e0" stroke="#999999" points="724.5,-148.5 649.5,-148.5 649.5,-125.5 724.5,-125.5 724.5,-148.5"/>
<text text-anchor="middle" x="687" y="-133.3" font-family="Arial" font-size="14.00">lwip/sys.h</text>
</a>
</g>
</g>
<!-- Node2&#45;&gt;Node9 -->
<g id="edge8_Node000002_Node000009" class="edge">
<title>Node2&#45;&gt;Node9</title>
<g id="a_edge8_Node000002_Node000009"><a xlink:title=" ">
<path fill="none" stroke="#63b8ff" d="M727.91,-191.85C720.72,-182.38 710.03,-168.32 701.39,-156.94"/>
<polygon fill="#63b8ff" stroke="#63b8ff" points="704.1,-154.73 695.27,-148.88 698.53,-158.96 704.1,-154.73"/>
</a>
</g>
</g>
<!-- Node10 -->
<g id="Node000010" class="node">
<title>Node10</title>
<g id="a_Node000010"><a xlink:title=" ">
<polygon fill="#e0e0e0" stroke="#999999" points="827.5,-148.5 742.5,-148.5 742.5,-125.5 827.5,-125.5 827.5,-148.5"/>
<text text-anchor="middle" x="785" y="-133.3" font-family="Arial" font-size="14.00">nvs_flash.h</text>
</a>
</g>
</g>
<!-- Node2&#45;&gt;Node10 -->
<g id="edge9_Node000002_Node000010" class="edge">
<title>Node2&#45;&gt;Node10</title>
<g id="a_edge9_Node000002_Node000010"><a xlink:title=" ">
<path fill="none" stroke="#63b8ff" d="M744.09,-191.85C751.28,-182.38 761.97,-168.32 770.61,-156.94"/>
<polygon fill="#63b8ff" stroke="#63b8ff" points="773.47,-158.96 776.73,-148.88 767.9,-154.73 773.47,-158.96"/>
</a>
</g>
</g>
<!-- Node11 -->
<g id="Node000011" class="node">
<title>Node11</title>
<g id="a_Node000011"><a xlink:href="BaseWifi_8h.html" target="_top" xlink:title="Unified WiFi base class for all WiFi implementations.">
<polygon fill="white" stroke="#666666" points="1320,-148.5 1238,-148.5 1238,-125.5 1320,-125.5 1320,-148.5"/>
<text text-anchor="middle" x="1279" y="-133.3" font-family="Arial" font-size="14.00">BaseWifi.h</text>
</a>
</g>
</g>
<!-- Node2&#45;&gt;Node11 -->
<g id="edge10_Node000002_Node000011" class="edge">
<title>Node2&#45;&gt;Node11</title>
<g id="a_edge10_Node000002_Node000011"><a xlink:title=" ">
<path fill="none" stroke="#63b8ff" d="M808.86,-193.02C811.95,-192.66 815,-192.32 818,-192 1000.31,-172.35 1049.91,-195.38 1229,-156 1234,-154.9 1239.17,-153.43 1244.22,-151.81"/>
<polygon fill="#63b8ff" stroke="#63b8ff" points="1245.37,-155.12 1253.68,-148.55 1243.09,-148.5 1245.37,-155.12"/>
</a>
</g>
</g>
<!-- Node18 -->
<g id="Node000018" class="node">
<title>Node18</title>
<g id="a_Node000018"><a xlink:href="EspTypes__Base_8h.html" target="_top" xlink:title="ESP32 base type definitions for hardware abstraction.">
<polygon fill="white" stroke="#666666" points="1220,-156 1046,-156 1046,-118 1220,-118 1220,-156"/>
<text text-anchor="start" x="1054" y="-140.8" font-family="Arial" font-size="14.00">mcu/esp32/utils/EspTypes</text>
<text text-anchor="middle" x="1133" y="-125.8" font-family="Arial" font-size="14.00">_Base.h</text>
</a>
</g>
</g>
<!-- Node2&#45;&gt;Node18 -->
<g id="edge18_Node000002_Node000018" class="edge">
<title>Node2&#45;&gt;Node18</title>
<g id="a_edge18_Node000002_Node000018"><a xlink:title=" ">
<path fill="none" stroke="#63b8ff" d="M805.74,-191.96C865.76,-182.79 954.66,-168.97 1032,-156 1033.28,-155.78 1034.58,-155.57 1035.88,-155.35"/>
<polygon fill="#63b8ff" stroke="#63b8ff" points="1036.7,-158.76 1045.97,-153.63 1035.53,-151.86 1036.7,-158.76"/>
</a>
</g>
</g>
<!-- Node20 -->
<g id="Node000020" class="node">
<title>Node20</title>
<g id="a_Node000020"><a xlink:title=" ">
<polygon fill="#e0e0e0" stroke="#999999" points="1064.5,-82 1007.5,-82 1007.5,-59 1064.5,-59 1064.5,-82"/>
<text text-anchor="middle" x="1036" y="-66.8" font-family="Arial" font-size="14.00">atomic</text>
</a>
</g>
</g>
<!-- Node2&#45;&gt;Node20 -->
<g id="edge27_Node000002_Node000020" class="edge">
<title>Node2&#45;&gt;Node20</title>
<g id="a_edge27_Node000002_Node000020"><a xlink:title=" ">
<path fill="none" stroke="#63b8ff" d="M808.7,-193.22C881.27,-183.39 984.13,-167.7 999,-156 1018.87,-140.37 1028.31,-111.87 1032.62,-92.33"/>
<polygon fill="#63b8ff" stroke="#63b8ff" points="1036.1,-92.76 1034.56,-82.28 1029.23,-91.43 1036.1,-92.76"/>
</a>
</g>
</g>
<!-- Node21 -->
<g id="Node000021" class="node">
<title>Node21</title>
<g id="a_Node000021"><a xlink:href="PlatformMutex_8h.html" target="_top" xlink:title="Cross&#45;platform RTOS mutex and synchronization primitives.">
<polygon fill="white" stroke="#666666" points="990,-148.5 846,-148.5 846,-125.5 990,-125.5 990,-148.5"/>
<text text-anchor="middle" x="918" y="-133.3" font-family="Arial" font-size="14.00">utils/PlatformMutex.h</text>
</a>
</g>
</g>
<!-- Node2&#45;&gt;Node21 -->
<g id="edge23_Node000002_Node000021" class="edge">
<title>Node2&#45;&gt;Node21</title>
<g id="a_edge23_Node000002_Node000021"><a xlink:title=" ">
<path fill="none" stroke="#63b8ff" d="M765.65,-191.99C796.45,-181.08 844.81,-163.94 878.76,-151.91"/>
<polygon fill="#63b8ff" stroke="#63b8ff" points="880.11,-155.14 888.37,-148.5 877.77,-148.54 880.11,-155.14"/>
</a>
</g>
</g>
<!-- Node22 -->
<g id="Node000022" class="node">
<title>Node22</title>
<g id="a_Node000022"><a xlink:title=" ">
<polygon fill="#e0e0e0" stroke="#999999" points="1405.5,-148.5 1338.5,-148.5 1338.5,-125.5 1405.5,-125.5 1405.5,-148.5"/>
<text text-anchor="middle" x="1372" y="-133.3" font-family="Arial" font-size="14.00">memory</text>
</a>
</g>
</g>
<!-- Node2&#45;&gt;Node22 -->
<g id="edge28_Node000002_Node000022" class="edge">
<title>Node2&#45;&gt;Node22</title>
<g id="a_edge28_Node000002_Node000022"><a xlink:title=" ">
<path fill="none" stroke="#63b8ff" d="M808.85,-192.95C811.94,-192.62 815,-192.3 818,-192 1044.56,-169.53 1107.5,-208.66 1329,-156 1332.96,-155.06 1337.03,-153.79 1341,-152.36"/>
<polygon fill="#63b8ff" stroke="#63b8ff" points="1342.57,-155.51 1350.59,-148.58 1340,-149 1342.57,-155.51"/>
</a>
</g>
</g>
<!-- Node23 -->
<g id="Node000023" class="node">
<title>Node23</title>
<g id="a_Node000023"><a xlink:title=" ">
<polygon fill="#e0e0e0" stroke="#999999" points="1478,-148.5 1424,-148.5 1424,-125.5 1478,-125.5 1478,-148.5"/>
<text text-anchor="middle" x="1451" y="-133.3" font-family="Arial" font-size="14.00">queue</text>
</a>
</g>
</g>
<!-- Node2&#45;&gt;Node23 -->
<g id="edge29_Node000002_Node000023" class="edge">
<title>Node2&#45;&gt;Node23</title>
<g id="a_edge29_Node000002_Node000023"><a xlink:title=" ">
<path fill="none" stroke="#63b8ff" d="M808.85,-192.91C811.94,-192.59 815,-192.28 818,-192 1082.65,-167.11 1158.25,-224.83 1415,-156 1418.01,-155.19 1421.06,-154.12 1424.05,-152.9"/>
<polygon fill="#63b8ff" stroke="#63b8ff" points="1425.64,-156.02 1433.25,-148.65 1422.71,-149.67 1425.64,-156.02"/>
</a>
</g>
</g>
<!-- Node12 -->
<g id="Node000012" class="node">
<title>Node12</title>
<g id="a_Node000012"><a xlink:href="HardwareTypes_8h.html" target="_top" xlink:title="Platform&#45;agnostic hardware type definitions for the HardFOC system.">
<polygon fill="white" stroke="#666666" points="1243,-82 1121,-82 1121,-59 1243,-59 1243,-82"/>
<text text-anchor="middle" x="1182" y="-66.8" font-family="Arial" font-size="14.00">HardwareTypes.h</text>
</a>
</g>
</g>
<!-- Node11&#45;&gt;Node12 -->
<g id="edge11_Node000011_Node000012" class="edge">
<title>Node11&#45;&gt;Node12</title>
<g id="a_edge11_Node000011_Node000012"><a xlink:title=" ">
<path fill="none" stroke="#63b8ff" d="M1262.98,-125.35C1247.68,-115.17 1224.39,-99.68 1206.7,-87.93"/>
<polygon fill="#63b8ff" stroke="#63b8ff" points="1208.31,-84.79 1198.04,-82.17 1204.43,-90.62 1208.31,-84.79"/>
</a>
</g>
</g>
<!-- Node13 -->
<g id="Node000013" class="node">
<title>Node13</title>
<g id="a_Node000013"><a xlink:title=" ">
<polygon fill="#e0e0e0" stroke="#999999" points="1131,-23 1075,-23 1075,0 1131,0 1131,-23"/>
<text text-anchor="middle" x="1103" y="-7.8" font-family="Arial" font-size="14.00">cstdint</text>
</a>
</g>
</g>
<!-- Node11&#45;&gt;Node13 -->
<g id="edge14_Node000011_Node000013" class="edge">
<title>Node11&#45;&gt;Node13</title>
<g id="a_edge14_Node000011_Node000013"><a xlink:title=" ">
<path fill="none" stroke="#63b8ff" d="M1278.24,-125.45C1276.49,-108.96 1270.75,-77.11 1252,-59 1243.83,-51.11 1182.44,-33.61 1141.05,-22.47"/>
<polygon fill="#63b8ff" stroke="#63b8ff" points="1141.83,-19.05 1131.26,-19.85 1140.02,-25.82 1141.83,-19.05"/>
</a>
</g>
</g>
<!-- Node15 -->
<g id="Node000015" class="node">
<title>Node15</title>
<g id="a_Node000015"><a xlink:title=" ">
<polygon fill="#e0e0e0" stroke="#999999" points="1373,-82 1299,-82 1299,-59 1373,-59 1373,-82"/>
<text text-anchor="middle" x="1336" y="-66.8" font-family="Arial" font-size="14.00">functional</text>
</a>
</g>
</g>
<!-- Node11&#45;&gt;Node15 -->
<g id="edge15_Node000011_Node000015" class="edge">
<title>Node11&#45;&gt;Node15</title>
<g id="a_edge15_Node000011_Node000015"><a xlink:title=" ">
<path fill="none" stroke="#63b8ff" d="M1288.41,-125.35C1296.86,-115.79 1309.45,-101.55 1319.56,-90.11"/>
<polygon fill="#63b8ff" stroke="#63b8ff" points="1322.38,-92.19 1326.38,-82.38 1317.14,-87.56 1322.38,-92.19"/>
</a>
</g>
</g>
<!-- Node16 -->
<g id="Node000016" class="node">
<title>Node16</title>
<g id="a_Node000016"><a xlink:title=" ">
<polygon fill="#e0e0e0" stroke="#999999" points="1441,-82 1391,-82 1391,-59 1441,-59 1441,-82"/>
<text text-anchor="middle" x="1416" y="-66.8" font-family="Arial" font-size="14.00">string</text>
</a>
</g>
</g>
<!-- Node11&#45;&gt;Node16 -->
<g id="edge16_Node000011_Node000016" class="edge">
<title>Node11&#45;&gt;Node16</title>
<g id="a_edge16_Node000011_Node000016"><a xlink:title=" ">
<path fill="none" stroke="#63b8ff" d="M1301.32,-125.49C1323.91,-114.86 1359.04,-98.32 1384.47,-86.34"/>
<polygon fill="#63b8ff" stroke="#63b8ff" points="1386.14,-89.43 1393.69,-82 1383.15,-83.1 1386.14,-89.43"/>
</a>
</g>
</g>
<!-- Node17 -->
<g id="Node000017" class="node">
<title>Node17</title>
<g id="a_Node000017"><a xlink:title=" ">
<polygon fill="#e0e0e0" stroke="#999999" points="1543,-82 1459,-82 1459,-59 1543,-59 1543,-82"/>
<text text-anchor="middle" x="1501" y="-66.8" font-family="Arial" font-size="14.00">string_view</text>
</a>
</g>
</g>
<!-- Node11&#45;&gt;Node17 -->
<g id="edge17_Node000011_Node000017" class="edge">
<title>Node11&#45;&gt;Node17</title>
<g id="a_edge17_Node000011_Node000017"><a xlink:title=" ">
<path fill="none" stroke="#63b8ff" d="M1307.74,-125.44C1314.97,-122.9 1322.74,-120.27 1330,-118 1369.7,-105.62 1415.14,-93.35 1449.2,-84.52"/>
<polygon fill="#63b8ff" stroke="#63b8ff" points="1450.13,-87.9 1458.94,-82.01 1448.38,-81.12 1450.13,-87.9"/>
</a>
</g>
</g>
<!-- Node12&#45;&gt;Node13 -->
<g id="edge12_Node000012_Node000013" class="edge">
<title>Node12&#45;&gt;Node13</title>
<g id="a_edge12_Node000012_Node000013"><a xlink:title=" ">
<path fill="none" stroke="#63b8ff" d="M1167.14,-58.78C1155.55,-50.42 1139.26,-38.66 1125.99,-29.09"/>
<polygon fill="#63b8ff" stroke="#63b8ff" points="1127.95,-26.19 1117.79,-23.17 1123.85,-31.86 1127.95,-26.19"/>
</a>
</g>
</g>
<!-- Node14 -->
<g id="Node000014" class="node">
<title>Node14</title>
<g id="a_Node000014"><a xlink:title=" ">
<polygon fill="#e0e0e0" stroke="#999999" points="1206,-23 1158,-23 1158,0 1206,0 1206,-23"/>
<text text-anchor="middle" x="1182" y="-7.8" font-family="Arial" font-size="14.00">limits</text>
</a>
</g>
</g>
<!-- Node12&#45;&gt;Node14 -->
<g id="edge13_Node000012_Node000014" class="edge">
<title>Node12&#45;&gt;Node14</title>
<g id="a_edge13_Node000012_Node000014"><a xlink:title=" ">
<path fill="none" stroke="#63b8ff" d="M1182,-58.78C1182,-51.61 1182,-41.95 1182,-33.31"/>
<polygon fill="#63b8ff" stroke="#63b8ff" points="1185.5,-33.17 1182,-23.17 1178.5,-33.17 1185.5,-33.17"/>
</a>
</g>
</g>
<!-- Node18&#45;&gt;Node12 -->
<g id="edge20_Node000018_Node000012" class="edge">
<title>Node18&#45;&gt;Node12</title>
<g id="a_edge20_Node000018_Node000012"><a xlink:title=" ">
<path fill="none" stroke="#63b8ff" d="M1146.91,-117.69C1153.45,-109.09 1161.23,-98.84 1167.8,-90.19"/>
<polygon fill="#63b8ff" stroke="#63b8ff" points="1170.62,-92.27 1173.88,-82.19 1165.04,-88.04 1170.62,-92.27"/>
</a>
</g>
</g>
<!-- Node18&#45;&gt;Node13 -->
<g id="edge22_Node000018_Node000013" class="edge">
<title>Node18&#45;&gt;Node13</title>
<g id="a_edge22_Node000018_Node000013"><a xlink:title=" ">
<path fill="none" stroke="#63b8ff" d="M1124.68,-117.87C1120.27,-107.55 1115.13,-94.28 1112,-82 1107.87,-65.81 1105.58,-47 1104.35,-33.03"/>
<polygon fill="#63b8ff" stroke="#63b8ff" points="1107.83,-32.71 1103.57,-23.01 1100.85,-33.25 1107.83,-32.71"/>
</a>
</g>
</g>
<!-- Node19 -->
<g id="Node000019" class="node">
<title>Node19</title>
<g id="a_Node000019"><a xlink:href="McuSelect_8h.html" target="_top" xlink:title="Centralized MCU platform selection and configuration header.">
<polygon fill="white" stroke="#666666" points="989,-82 847,-82 847,-59 989,-59 989,-82"/>
<text text-anchor="middle" x="918" y="-66.8" font-family="Arial" font-size="14.00">../../utils/McuSelect.h</text>
</a>
</g>
</g>
<!-- Node18&#45;&gt;Node19 -->
<g id="edge19_Node000018_Node000019" class="edge">
<title>Node18&#45;&gt;Node19</title>
<g id="a_edge19_Node000018_Node000019"><a xlink:title=" ">
<path fill="none" stroke="#63b8ff" d="M1072.82,-117.95C1038.07,-107.52 995.08,-94.62 963.23,-85.07"/>
<polygon fill="#63b8ff" stroke="#63b8ff" points="963.88,-81.61 953.3,-82.09 961.87,-88.32 963.88,-81.61"/>
</a>
</g>
</g>
<!-- Node18&#45;&gt;Node20 -->
<g id="edge21_Node000018_Node000020" class="edge">
<title>Node18&#45;&gt;Node20</title>
<g id="a_edge21_Node000018_Node000020"><a xlink:title=" ">
<path fill="none" stroke="#63b8ff" d="M1105.72,-117.86C1091.47,-108.39 1074.18,-96.89 1060.38,-87.71"/>
<polygon fill="#63b8ff" stroke="#63b8ff" points="1062.15,-84.68 1051.88,-82.06 1058.27,-90.51 1062.15,-84.68"/>
</a>
</g>
</g>
<!-- Node21&#45;&gt;Node13 -->
<g id="edge26_Node000021_Node000013" class="edge">
<title>Node21&#45;&gt;Node13</title>
<g id="a_edge26_Node000021_Node000013"><a xlink:title=" ">
<path fill="none" stroke="#63b8ff" d="M892.26,-125.39C861.4,-111.18 816.37,-84.76 838,-59 866.51,-25.05 998.47,-15.88 1064.77,-13.41"/>
<polygon fill="#63b8ff" stroke="#63b8ff" points="1064.94,-16.9 1074.82,-13.07 1064.7,-9.91 1064.94,-16.9"/>
</a>
</g>
</g>
<!-- Node21&#45;&gt;Node19 -->
<g id="edge24_Node000021_Node000019" class="edge">
<title>Node21&#45;&gt;Node19</title>
<g id="a_edge24_Node000021_Node000019"><a xlink:title=" ">
<path fill="none" stroke="#63b8ff" d="M918,-125.35C918,-116.44 918,-103.46 918,-92.48"/>
<polygon fill="#63b8ff" stroke="#63b8ff" points="921.5,-92.38 918,-82.38 914.5,-92.38 921.5,-92.38"/>
</a>
</g>
</g>
<!-- Node21&#45;&gt;Node20 -->
<g id="edge25_Node000021_Node000020" class="edge">
<title>Node21&#45;&gt;Node20</title>
<g id="a_edge25_Node000021_Node000020"><a xlink:title=" ">
<path fill="none" stroke="#63b8ff" d="M937.22,-125.49C956.42,-115 986.14,-98.75 1007.97,-86.82"/>
<polygon fill="#63b8ff" stroke="#63b8ff" points="1009.69,-89.87 1016.79,-82 1006.33,-83.73 1009.69,-89.87"/>
</a>
</g>
</g>
</g>
</svg>
