<?xml version="1.0" encoding="UTF-8" standalone="no"?>
<!DOCTYPE svg PUBLIC "-//W3C//DTD SVG 1.1//EN"
 "http://www.w3.org/Graphics/SVG/1.1/DTD/svg11.dtd">
<!-- Generated by graphviz version 2.43.0 (0)
 -->
<!-- Title: examples/esp32/main/GpioComprehensiveTest.cpp Pages: 1 -->
<svg width="1463pt" height="400pt"
 viewBox="0.00 0.00 1462.53 400.00" xmlns="http://www.w3.org/2000/svg" xmlns:xlink="http://www.w3.org/1999/xlink">
<g id="graph0" class="graph" transform="scale(1 1) rotate(0) translate(4 396)">
<title>examples/esp32/main/GpioComprehensiveTest.cpp</title>
<!-- Node1 -->
<g id="Node000001" class="node">
<title>Node1</title>
<g id="a_Node000001"><a xlink:title="Comprehensive GPIO testing suite for ESP32&#45;C6 DevKit&#45;M&#45;1 (noexcept)">
<polygon fill="#999999" stroke="#666666" points="507,-392 312,-392 312,-354 507,-354 507,-392"/>
<text text-anchor="start" x="320" y="-376.8" font-family="Arial" font-size="14.00">examples/esp32/main</text>
<text text-anchor="middle" x="409.5" y="-361.8" font-family="Arial" font-size="14.00">/GpioComprehensiveTest.cpp</text>
</a>
</g>
</g>
<!-- Node2 -->
<g id="Node000002" class="node">
<title>Node2</title>
<g id="a_Node000002"><a xlink:href="AsciiArtGenerator_8h.html" target="_top" xlink:title="Simple ASCII art generator.">
<polygon fill="white" stroke="#666666" points="362.5,-318 200.5,-318 200.5,-295 362.5,-295 362.5,-318"/>
<text text-anchor="middle" x="281.5" y="-302.8" font-family="Arial" font-size="14.00">utils/AsciiArtGenerator.h</text>
</a>
</g>
</g>
<!-- Node1&#45;&gt;Node2 -->
<g id="edge1_Node000001_Node000002" class="edge">
<title>Node1&#45;&gt;Node2</title>
<g id="a_edge1_Node000001_Node000002"><a xlink:title=" ">
<path fill="none" stroke="#63b8ff" d="M373.5,-353.86C353.98,-344.03 330.13,-332.01 311.61,-322.67"/>
<polygon fill="#63b8ff" stroke="#63b8ff" points="312.96,-319.44 302.46,-318.06 309.81,-325.69 312.96,-319.44"/>
</a>
</g>
</g>
<!-- Node4 -->
<g id="Node000004" class="node">
<title>Node4</title>
<g id="a_Node000004"><a xlink:title=" ">
<polygon fill="#e0e0e0" stroke="#999999" points="198,-259 131,-259 131,-236 198,-236 198,-259"/>
<text text-anchor="middle" x="164.5" y="-243.8" font-family="Arial" font-size="14.00">memory</text>
</a>
</g>
</g>
<!-- Node1&#45;&gt;Node4 -->
<g id="edge32_Node000001_Node000004" class="edge">
<title>Node1&#45;&gt;Node4</title>
<g id="a_edge32_Node000001_Node000004"><a xlink:title=" ">
<path fill="none" stroke="#63b8ff" d="M311.84,-367.43C270.52,-360.91 224.43,-346.97 191.5,-318 177.42,-305.62 170.63,-285 167.39,-269.43"/>
<polygon fill="#63b8ff" stroke="#63b8ff" points="170.77,-268.42 165.6,-259.17 163.87,-269.62 170.77,-268.42"/>
</a>
</g>
</g>
<!-- Node6 -->
<g id="Node000006" class="node">
<title>Node6</title>
<g id="a_Node000006"><a xlink:title=" ">
<polygon fill="#e0e0e0" stroke="#999999" points="400,-259 347,-259 347,-236 400,-236 400,-259"/>
<text text-anchor="middle" x="373.5" y="-243.8" font-family="Arial" font-size="14.00">vector</text>
</a>
</g>
</g>
<!-- Node1&#45;&gt;Node6 -->
<g id="edge33_Node000001_Node000006" class="edge">
<title>Node1&#45;&gt;Node6</title>
<g id="a_edge33_Node000001_Node000006"><a xlink:title=" ">
<path fill="none" stroke="#63b8ff" d="M404.19,-353.78C397.57,-331.08 386.31,-292.44 379.42,-268.81"/>
<polygon fill="#63b8ff" stroke="#63b8ff" points="382.76,-267.75 376.6,-259.13 376.04,-269.71 382.76,-267.75"/>
</a>
</g>
</g>
<!-- Node7 -->
<g id="Node000007" class="node">
<title>Node7</title>
<g id="a_Node000007"><a xlink:href="memory__utils_8h.html" target="_top" xlink:title="Memory management utilities for exception&#45;free design.">
<polygon fill="white" stroke="#666666" points="144,-318 7,-318 7,-295 144,-295 144,-318"/>
<text text-anchor="middle" x="75.5" y="-302.8" font-family="Arial" font-size="14.00">utils/memory_utils.h</text>
</a>
</g>
</g>
<!-- Node1&#45;&gt;Node7 -->
<g id="edge6_Node000001_Node000007" class="edge">
<title>Node1&#45;&gt;Node7</title>
<g id="a_edge6_Node000001_Node000007"><a xlink:title=" ">
<path fill="none" stroke="#63b8ff" d="M316.02,-353.95C260.05,-343.14 190.31,-329.67 140.37,-320.03"/>
<polygon fill="#63b8ff" stroke="#63b8ff" points="140.82,-316.55 130.34,-318.09 139.49,-323.42 140.82,-316.55"/>
</a>
</g>
</g>
<!-- Node10 -->
<g id="Node000010" class="node">
<title>Node10</title>
<g id="a_Node000010"><a xlink:href="BaseGpio_8h.html" target="_top" xlink:title="Unified GPIO base class for all digital GPIO implementations.">
<polygon fill="white" stroke="#666666" points="1245,-141 1124,-141 1124,-118 1245,-118 1245,-141"/>
<text text-anchor="middle" x="1184.5" y="-125.8" font-family="Arial" font-size="14.00">base/BaseGpio.h</text>
</a>
</g>
</g>
<!-- Node1&#45;&gt;Node10 -->
<g id="edge10_Node000001_Node000010" class="edge">
<title>Node1&#45;&gt;Node10</title>
<g id="a_edge10_Node000001_Node000010"><a xlink:title=" ">
<path fill="none" stroke="#63b8ff" d="M507.34,-371.98C729.09,-370.21 1262.03,-355.72 1408.5,-259 1441.71,-237.07 1470.05,-207.52 1444.5,-177 1420.81,-148.7 1324.1,-137.6 1255.57,-133.26"/>
<polygon fill="#63b8ff" stroke="#63b8ff" points="1255.44,-129.75 1245.25,-132.65 1255.03,-136.74 1255.44,-129.75"/>
</a>
</g>
</g>
<!-- Node16 -->
<g id="Node000016" class="node">
<title>Node16</title>
<g id="a_Node000016"><a xlink:href="EspGpio_8h.html" target="_top" xlink:title="Advanced MCU&#45;specific implementation of the unified BaseGpio class with ESP32C6/ESP&#45;IDF v5....">
<polygon fill="white" stroke="#666666" points="1399,-259 1248,-259 1248,-236 1399,-236 1399,-259"/>
<text text-anchor="middle" x="1323.5" y="-243.8" font-family="Arial" font-size="14.00">mcu/esp32/EspGpio.h</text>
</a>
</g>
</g>
<!-- Node1&#45;&gt;Node16 -->
<g id="edge17_Node000001_Node000016" class="edge">
<title>Node1&#45;&gt;Node16</title>
<g id="a_edge17_Node000001_Node000016"><a xlink:title=" ">
<path fill="none" stroke="#63b8ff" d="M507.2,-363.4C609.27,-353.98 773.95,-337.59 915.5,-318 1037,-301.19 1177.87,-275.89 1258.26,-260.91"/>
<polygon fill="#63b8ff" stroke="#63b8ff" points="1259.05,-264.32 1268.24,-259.04 1257.76,-257.44 1259.05,-264.32"/>
</a>
</g>
</g>
<!-- Node19 -->
<g id="Node000019" class="node">
<title>Node19</title>
<g id="a_Node000019"><a xlink:href="EspTypes__GPIO_8h.html" target="_top" xlink:title="ESP32 GPIO type definitions for hardware abstraction.">
<polygon fill="white" stroke="#666666" points="1051.5,-200 921.5,-200 921.5,-177 1051.5,-177 1051.5,-200"/>
<text text-anchor="middle" x="986.5" y="-184.8" font-family="Arial" font-size="14.00">EspTypes_GPIO.h</text>
</a>
</g>
</g>
<!-- Node1&#45;&gt;Node19 -->
<g id="edge31_Node000001_Node000019" class="edge">
<title>Node1&#45;&gt;Node19</title>
<g id="a_edge31_Node000001_Node000019"><a xlink:title=" ">
<path fill="none" stroke="#63b8ff" d="M408.6,-353.58C408.24,-323.71 412.4,-265.1 447.5,-236 482.4,-207.07 771.16,-195.33 911.07,-191.3"/>
<polygon fill="#63b8ff" stroke="#63b8ff" points="911.39,-194.8 921.29,-191.02 911.2,-187.8 911.39,-194.8"/>
</a>
</g>
</g>
<!-- Node24 -->
<g id="Node000024" class="node">
<title>Node24</title>
<g id="a_Node000024"><a xlink:href="TestFramework_8h.html" target="_top" xlink:title="Shared testing framework for ESP32&#45;C6 comprehensive test suites.">
<polygon fill="white" stroke="#666666" points="907,-318 786,-318 786,-295 907,-295 907,-318"/>
<text text-anchor="middle" x="846.5" y="-302.8" font-family="Arial" font-size="14.00">TestFramework.h</text>
</a>
</g>
</g>
<!-- Node1&#45;&gt;Node24 -->
<g id="edge34_Node000001_Node000024" class="edge">
<title>Node1&#45;&gt;Node24</title>
<g id="a_edge34_Node000001_Node000024"><a xlink:title=" ">
<path fill="none" stroke="#63b8ff" d="M507.03,-357.61C588.59,-345.57 703,-328.68 775.94,-317.91"/>
<polygon fill="#63b8ff" stroke="#63b8ff" points="776.56,-321.36 785.95,-316.44 775.54,-314.44 776.56,-321.36"/>
</a>
</g>
</g>
<!-- Node3 -->
<g id="Node000003" class="node">
<title>Node3</title>
<g id="a_Node000003"><a xlink:title=" ">
<polygon fill="#e0e0e0" stroke="#999999" points="260.5,-259 216.5,-259 216.5,-236 260.5,-236 260.5,-259"/>
<text text-anchor="middle" x="238.5" y="-243.8" font-family="Arial" font-size="14.00">map</text>
</a>
</g>
</g>
<!-- Node2&#45;&gt;Node3 -->
<g id="edge2_Node000002_Node000003" class="edge">
<title>Node2&#45;&gt;Node3</title>
<g id="a_edge2_Node000002_Node000003"><a xlink:title=" ">
<path fill="none" stroke="#63b8ff" d="M273.41,-294.78C267.59,-287.06 259.57,-276.43 252.69,-267.31"/>
<polygon fill="#63b8ff" stroke="#63b8ff" points="255.37,-265.05 246.55,-259.17 249.78,-269.26 255.37,-265.05"/>
</a>
</g>
</g>
<!-- Node2&#45;&gt;Node4 -->
<g id="edge3_Node000002_Node000004" class="edge">
<title>Node2&#45;&gt;Node4</title>
<g id="a_edge3_Node000002_Node000004"><a xlink:title=" ">
<path fill="none" stroke="#63b8ff" d="M259.77,-294.91C241.63,-286.07 215.55,-273.37 195.26,-263.49"/>
<polygon fill="#63b8ff" stroke="#63b8ff" points="196.64,-260.26 186.12,-259.03 193.57,-266.56 196.64,-260.26"/>
</a>
</g>
</g>
<!-- Node5 -->
<g id="Node000005" class="node">
<title>Node5</title>
<g id="a_Node000005"><a xlink:title=" ">
<polygon fill="#e0e0e0" stroke="#999999" points="328.5,-259 278.5,-259 278.5,-236 328.5,-236 328.5,-259"/>
<text text-anchor="middle" x="303.5" y="-243.8" font-family="Arial" font-size="14.00">string</text>
</a>
</g>
</g>
<!-- Node2&#45;&gt;Node5 -->
<g id="edge4_Node000002_Node000005" class="edge">
<title>Node2&#45;&gt;Node5</title>
<g id="a_edge4_Node000002_Node000005"><a xlink:title=" ">
<path fill="none" stroke="#63b8ff" d="M285.64,-294.78C288.47,-287.45 292.3,-277.52 295.69,-268.74"/>
<polygon fill="#63b8ff" stroke="#63b8ff" points="299.04,-269.76 299.38,-259.17 292.51,-267.24 299.04,-269.76"/>
</a>
</g>
</g>
<!-- Node2&#45;&gt;Node6 -->
<g id="edge5_Node000002_Node000006" class="edge">
<title>Node2&#45;&gt;Node6</title>
<g id="a_edge5_Node000002_Node000006"><a xlink:title=" ">
<path fill="none" stroke="#63b8ff" d="M298.8,-294.78C312.55,-286.26 332,-274.21 347.6,-264.55"/>
<polygon fill="#63b8ff" stroke="#63b8ff" points="349.62,-267.42 356.27,-259.17 345.93,-261.46 349.62,-267.42"/>
</a>
</g>
</g>
<!-- Node7&#45;&gt;Node4 -->
<g id="edge7_Node000007_Node000004" class="edge">
<title>Node7&#45;&gt;Node4</title>
<g id="a_edge7_Node000007_Node000004"><a xlink:title=" ">
<path fill="none" stroke="#63b8ff" d="M92.24,-294.78C105.42,-286.34 124,-274.44 139.02,-264.82"/>
<polygon fill="#63b8ff" stroke="#63b8ff" points="141.3,-267.51 147.83,-259.17 137.53,-261.62 141.3,-267.51"/>
</a>
</g>
</g>
<!-- Node8 -->
<g id="Node000008" class="node">
<title>Node8</title>
<g id="a_Node000008"><a xlink:title=" ">
<polygon fill="#e0e0e0" stroke="#999999" points="41,-259 0,-259 0,-236 41,-236 41,-259"/>
<text text-anchor="middle" x="20.5" y="-243.8" font-family="Arial" font-size="14.00">new</text>
</a>
</g>
</g>
<!-- Node7&#45;&gt;Node8 -->
<g id="edge8_Node000007_Node000008" class="edge">
<title>Node7&#45;&gt;Node8</title>
<g id="a_edge8_Node000007_Node000008"><a xlink:title=" ">
<path fill="none" stroke="#63b8ff" d="M65.15,-294.78C57.47,-286.82 46.82,-275.77 37.84,-266.47"/>
<polygon fill="#63b8ff" stroke="#63b8ff" points="40.26,-263.94 30.8,-259.17 35.22,-268.8 40.26,-263.94"/>
</a>
</g>
</g>
<!-- Node9 -->
<g id="Node000009" class="node">
<title>Node9</title>
<g id="a_Node000009"><a xlink:title=" ">
<polygon fill="#e0e0e0" stroke="#999999" points="106,-259 59,-259 59,-236 106,-236 106,-259"/>
<text text-anchor="middle" x="82.5" y="-243.8" font-family="Arial" font-size="14.00">utility</text>
</a>
</g>
</g>
<!-- Node7&#45;&gt;Node9 -->
<g id="edge9_Node000007_Node000009" class="edge">
<title>Node7&#45;&gt;Node9</title>
<g id="a_edge9_Node000007_Node000009"><a xlink:title=" ">
<path fill="none" stroke="#63b8ff" d="M76.82,-294.78C77.7,-287.61 78.88,-277.95 79.94,-269.31"/>
<polygon fill="#63b8ff" stroke="#63b8ff" points="83.44,-269.53 81.19,-259.17 76.5,-268.67 83.44,-269.53"/>
</a>
</g>
</g>
<!-- Node11 -->
<g id="Node000011" class="node">
<title>Node11</title>
<g id="a_Node000011"><a xlink:href="HardwareTypes_8h.html" target="_top" xlink:title="Platform&#45;agnostic hardware type definitions for the HardFOC system.">
<polygon fill="white" stroke="#666666" points="1124.5,-82 1002.5,-82 1002.5,-59 1124.5,-59 1124.5,-82"/>
<text text-anchor="middle" x="1063.5" y="-66.8" font-family="Arial" font-size="14.00">HardwareTypes.h</text>
</a>
</g>
</g>
<!-- Node10&#45;&gt;Node11 -->
<g id="edge11_Node000010_Node000011" class="edge">
<title>Node10&#45;&gt;Node11</title>
<g id="a_edge11_Node000010_Node000011"><a xlink:title=" ">
<path fill="none" stroke="#63b8ff" d="M1162.02,-117.91C1143.18,-109.03 1116.05,-96.26 1095.03,-86.35"/>
<polygon fill="#63b8ff" stroke="#63b8ff" points="1096.39,-83.13 1085.86,-82.03 1093.41,-89.46 1096.39,-83.13"/>
</a>
</g>
</g>
<!-- Node12 -->
<g id="Node000012" class="node">
<title>Node12</title>
<g id="a_Node000012"><a xlink:title=" ">
<polygon fill="#e0e0e0" stroke="#999999" points="1126.5,-23 1070.5,-23 1070.5,0 1126.5,0 1126.5,-23"/>
<text text-anchor="middle" x="1098.5" y="-7.8" font-family="Arial" font-size="14.00">cstdint</text>
</a>
</g>
</g>
<!-- Node10&#45;&gt;Node12 -->
<g id="edge14_Node000010_Node000012" class="edge">
<title>Node10&#45;&gt;Node12</title>
<g id="a_edge14_Node000010_Node000012"><a xlink:title=" ">
<path fill="none" stroke="#63b8ff" d="M1245.39,-120.23C1295.69,-110.86 1354.75,-92.34 1327.5,-59 1303.83,-30.03 1195.41,-18.67 1136.64,-14.58"/>
<polygon fill="#63b8ff" stroke="#63b8ff" points="1136.83,-11.08 1126.62,-13.92 1136.37,-18.07 1136.83,-11.08"/>
</a>
</g>
</g>
<!-- Node14 -->
<g id="Node000014" class="node">
<title>Node14</title>
<g id="a_Node000014"><a xlink:title=" ">
<polygon fill="#e0e0e0" stroke="#999999" points="1318.5,-82 1244.5,-82 1244.5,-59 1318.5,-59 1318.5,-82"/>
<text text-anchor="middle" x="1281.5" y="-66.8" font-family="Arial" font-size="14.00">functional</text>
</a>
</g>
</g>
<!-- Node10&#45;&gt;Node14 -->
<g id="edge15_Node000010_Node000014" class="edge">
<title>Node10&#45;&gt;Node14</title>
<g id="a_edge15_Node000010_Node000014"><a xlink:title=" ">
<path fill="none" stroke="#63b8ff" d="M1202.74,-117.78C1217.38,-109.18 1238.13,-96.99 1254.65,-87.28"/>
<polygon fill="#63b8ff" stroke="#63b8ff" points="1256.49,-90.26 1263.34,-82.17 1252.94,-84.22 1256.49,-90.26"/>
</a>
</g>
</g>
<!-- Node15 -->
<g id="Node000015" class="node">
<title>Node15</title>
<g id="a_Node000015"><a xlink:title=" ">
<polygon fill="#e0e0e0" stroke="#999999" points="1226.5,-82 1142.5,-82 1142.5,-59 1226.5,-59 1226.5,-82"/>
<text text-anchor="middle" x="1184.5" y="-66.8" font-family="Arial" font-size="14.00">string_view</text>
</a>
</g>
</g>
<!-- Node10&#45;&gt;Node15 -->
<g id="edge16_Node000010_Node000015" class="edge">
<title>Node10&#45;&gt;Node15</title>
<g id="a_edge16_Node000010_Node000015"><a xlink:title=" ">
<path fill="none" stroke="#63b8ff" d="M1184.5,-117.78C1184.5,-110.61 1184.5,-100.95 1184.5,-92.31"/>
<polygon fill="#63b8ff" stroke="#63b8ff" points="1188,-92.17 1184.5,-82.17 1181,-92.17 1188,-92.17"/>
</a>
</g>
</g>
<!-- Node11&#45;&gt;Node12 -->
<g id="edge12_Node000011_Node000012" class="edge">
<title>Node11&#45;&gt;Node12</title>
<g id="a_edge12_Node000011_Node000012"><a xlink:title=" ">
<path fill="none" stroke="#63b8ff" d="M1070.08,-58.78C1074.73,-51.22 1081.08,-40.87 1086.6,-31.88"/>
<polygon fill="#63b8ff" stroke="#63b8ff" points="1089.7,-33.53 1091.95,-23.17 1083.73,-29.86 1089.7,-33.53"/>
</a>
</g>
</g>
<!-- Node13 -->
<g id="Node000013" class="node">
<title>Node13</title>
<g id="a_Node000013"><a xlink:title=" ">
<polygon fill="#e0e0e0" stroke="#999999" points="1052.5,-23 1004.5,-23 1004.5,0 1052.5,0 1052.5,-23"/>
<text text-anchor="middle" x="1028.5" y="-7.8" font-family="Arial" font-size="14.00">limits</text>
</a>
</g>
</g>
<!-- Node11&#45;&gt;Node13 -->
<g id="edge13_Node000011_Node000013" class="edge">
<title>Node11&#45;&gt;Node13</title>
<g id="a_edge13_Node000011_Node000013"><a xlink:title=" ">
<path fill="none" stroke="#63b8ff" d="M1056.92,-58.78C1052.27,-51.22 1045.92,-40.87 1040.4,-31.88"/>
<polygon fill="#63b8ff" stroke="#63b8ff" points="1043.27,-29.86 1035.05,-23.17 1037.3,-33.53 1043.27,-29.86"/>
</a>
</g>
</g>
<!-- Node16&#45;&gt;Node10 -->
<g id="edge20_Node000016_Node000010" class="edge">
<title>Node16&#45;&gt;Node10</title>
<g id="a_edge20_Node000016_Node000010"><a xlink:title=" ">
<path fill="none" stroke="#63b8ff" d="M1262.05,-235.93C1223.58,-227.93 1179.15,-215.63 1167.5,-200 1156.78,-185.62 1163.56,-165.36 1171.51,-150.42"/>
<polygon fill="#63b8ff" stroke="#63b8ff" points="1174.71,-151.88 1176.73,-141.48 1168.66,-148.35 1174.71,-151.88"/>
</a>
</g>
</g>
<!-- Node17 -->
<g id="Node000017" class="node">
<title>Node17</title>
<g id="a_Node000017"><a xlink:title=" ">
<polygon fill="#e0e0e0" stroke="#999999" points="1267,-200 1176,-200 1176,-177 1267,-177 1267,-200"/>
<text text-anchor="middle" x="1221.5" y="-184.8" font-family="Arial" font-size="14.00">driver/gpio.h</text>
</a>
</g>
</g>
<!-- Node16&#45;&gt;Node17 -->
<g id="edge18_Node000016_Node000017" class="edge">
<title>Node16&#45;&gt;Node17</title>
<g id="a_edge18_Node000016_Node000017"><a xlink:title=" ">
<path fill="none" stroke="#63b8ff" d="M1304.31,-235.78C1288.93,-227.18 1267.11,-214.99 1249.73,-205.28"/>
<polygon fill="#63b8ff" stroke="#63b8ff" points="1251.04,-202 1240.6,-200.17 1247.62,-208.11 1251.04,-202"/>
</a>
</g>
</g>
<!-- Node18 -->
<g id="Node000018" class="node">
<title>Node18</title>
<g id="a_Node000018"><a xlink:title=" ">
<polygon fill="#e0e0e0" stroke="#999999" points="1361.5,-200 1285.5,-200 1285.5,-177 1361.5,-177 1361.5,-200"/>
<text text-anchor="middle" x="1323.5" y="-184.8" font-family="Arial" font-size="14.00">esp_attr.h</text>
</a>
</g>
</g>
<!-- Node16&#45;&gt;Node18 -->
<g id="edge19_Node000016_Node000018" class="edge">
<title>Node16&#45;&gt;Node18</title>
<g id="a_edge19_Node000016_Node000018"><a xlink:title=" ">
<path fill="none" stroke="#63b8ff" d="M1323.5,-235.78C1323.5,-228.61 1323.5,-218.95 1323.5,-210.31"/>
<polygon fill="#63b8ff" stroke="#63b8ff" points="1327,-210.17 1323.5,-200.17 1320,-210.17 1327,-210.17"/>
</a>
</g>
</g>
<!-- Node16&#45;&gt;Node19 -->
<g id="edge21_Node000016_Node000019" class="edge">
<title>Node16&#45;&gt;Node19</title>
<g id="a_edge21_Node000016_Node000019"><a xlink:title=" ">
<path fill="none" stroke="#63b8ff" d="M1261.3,-235.98C1204.04,-226.29 1119.09,-211.93 1058.83,-201.73"/>
<polygon fill="#63b8ff" stroke="#63b8ff" points="1059.07,-198.22 1048.63,-200.01 1057.9,-205.13 1059.07,-198.22"/>
</a>
</g>
</g>
<!-- Node23 -->
<g id="Node000023" class="node">
<title>Node23</title>
<g id="a_Node000023"><a xlink:title=" ">
<polygon fill="#e0e0e0" stroke="#999999" points="1435.5,-200 1379.5,-200 1379.5,-177 1435.5,-177 1435.5,-200"/>
<text text-anchor="middle" x="1407.5" y="-184.8" font-family="Arial" font-size="14.00">stdio.h</text>
</a>
</g>
</g>
<!-- Node16&#45;&gt;Node23 -->
<g id="edge30_Node000016_Node000023" class="edge">
<title>Node16&#45;&gt;Node23</title>
<g id="a_edge30_Node000016_Node000023"><a xlink:title=" ">
<path fill="none" stroke="#63b8ff" d="M1339.3,-235.78C1351.74,-227.34 1369.28,-215.44 1383.45,-205.82"/>
<polygon fill="#63b8ff" stroke="#63b8ff" points="1385.46,-208.68 1391.77,-200.17 1381.53,-202.89 1385.46,-208.68"/>
</a>
</g>
</g>
<!-- Node19&#45;&gt;Node10 -->
<g id="edge22_Node000019_Node000010" class="edge">
<title>Node19&#45;&gt;Node10</title>
<g id="a_edge22_Node000019_Node000010"><a xlink:title=" ">
<path fill="none" stroke="#63b8ff" d="M1023.28,-176.91C1055.65,-167.59 1102.94,-153.98 1137.94,-143.9"/>
<polygon fill="#63b8ff" stroke="#63b8ff" points="1139.28,-147.16 1147.92,-141.03 1137.34,-140.43 1139.28,-147.16"/>
</a>
</g>
</g>
<!-- Node19&#45;&gt;Node11 -->
<g id="edge28_Node000019_Node000011" class="edge">
<title>Node19&#45;&gt;Node11</title>
<g id="a_edge28_Node000019_Node000011"><a xlink:title=" ">
<path fill="none" stroke="#63b8ff" d="M993.61,-176.79C1006.61,-157.2 1034.41,-115.32 1050.76,-90.69"/>
<polygon fill="#63b8ff" stroke="#63b8ff" points="1053.8,-92.45 1056.41,-82.18 1047.96,-88.58 1053.8,-92.45"/>
</a>
</g>
</g>
<!-- Node20 -->
<g id="Node000020" class="node">
<title>Node20</title>
<g id="a_Node000020"><a xlink:href="EspTypes__Base_8h.html" target="_top" xlink:title="ESP32 base type definitions for hardware abstraction.">
<polygon fill="white" stroke="#666666" points="958,-141 833,-141 833,-118 958,-118 958,-141"/>
<text text-anchor="middle" x="895.5" y="-125.8" font-family="Arial" font-size="14.00">EspTypes_Base.h</text>
</a>
</g>
</g>
<!-- Node19&#45;&gt;Node20 -->
<g id="edge23_Node000019_Node000020" class="edge">
<title>Node19&#45;&gt;Node20</title>
<g id="a_edge23_Node000019_Node000020"><a xlink:title=" ">
<path fill="none" stroke="#63b8ff" d="M969.38,-176.78C955.78,-168.26 936.55,-156.21 921.12,-146.55"/>
<polygon fill="#63b8ff" stroke="#63b8ff" points="922.87,-143.52 912.54,-141.17 919.16,-149.45 922.87,-143.52"/>
</a>
</g>
</g>
<!-- Node21 -->
<g id="Node000021" class="node">
<title>Node21</title>
<g id="a_Node000021"><a xlink:href="McuSelect_8h.html" target="_top" xlink:title="Centralized MCU platform selection and configuration header.">
<polygon fill="white" stroke="#666666" points="984.5,-82 842.5,-82 842.5,-59 984.5,-59 984.5,-82"/>
<text text-anchor="middle" x="913.5" y="-66.8" font-family="Arial" font-size="14.00">../../utils/McuSelect.h</text>
</a>
</g>
</g>
<!-- Node19&#45;&gt;Node21 -->
<g id="edge29_Node000019_Node000021" class="edge">
<title>Node19&#45;&gt;Node21</title>
<g id="a_edge29_Node000019_Node000021"><a xlink:title=" ">
<path fill="none" stroke="#63b8ff" d="M985.33,-176.85C983.35,-162.51 978.34,-136.66 966.5,-118 959.22,-106.53 948.3,-96.27 938.26,-88.33"/>
<polygon fill="#63b8ff" stroke="#63b8ff" points="940.23,-85.43 930.13,-82.22 936.02,-91.02 940.23,-85.43"/>
</a>
</g>
</g>
<!-- Node20&#45;&gt;Node11 -->
<g id="edge25_Node000020_Node000011" class="edge">
<title>Node20&#45;&gt;Node11</title>
<g id="a_edge25_Node000020_Node000011"><a xlink:title=" ">
<path fill="none" stroke="#63b8ff" d="M926.71,-117.91C953.82,-108.71 993.27,-95.33 1022.84,-85.29"/>
<polygon fill="#63b8ff" stroke="#63b8ff" points="1024.12,-88.56 1032.46,-82.03 1021.87,-81.93 1024.12,-88.56"/>
</a>
</g>
</g>
<!-- Node20&#45;&gt;Node12 -->
<g id="edge27_Node000020_Node000012" class="edge">
<title>Node20&#45;&gt;Node12</title>
<g id="a_edge27_Node000020_Node000012"><a xlink:title=" ">
<path fill="none" stroke="#63b8ff" d="M874.02,-117.79C849.63,-104.25 815.43,-80.14 833.5,-59 865.07,-22.06 996.46,-32.69 1060.3,-22.74"/>
<polygon fill="#63b8ff" stroke="#63b8ff" points="1061.12,-26.15 1070.31,-20.88 1059.83,-19.27 1061.12,-26.15"/>
</a>
</g>
</g>
<!-- Node20&#45;&gt;Node21 -->
<g id="edge24_Node000020_Node000021" class="edge">
<title>Node20&#45;&gt;Node21</title>
<g id="a_edge24_Node000020_Node000021"><a xlink:title=" ">
<path fill="none" stroke="#63b8ff" d="M898.89,-117.78C901.2,-110.45 904.34,-100.52 907.11,-91.74"/>
<polygon fill="#63b8ff" stroke="#63b8ff" points="910.46,-92.76 910.13,-82.17 903.78,-90.66 910.46,-92.76"/>
</a>
</g>
</g>
<!-- Node22 -->
<g id="Node000022" class="node">
<title>Node22</title>
<g id="a_Node000022"><a xlink:title=" ">
<polygon fill="#e0e0e0" stroke="#999999" points="786,-82 729,-82 729,-59 786,-59 786,-82"/>
<text text-anchor="middle" x="757.5" y="-66.8" font-family="Arial" font-size="14.00">atomic</text>
</a>
</g>
</g>
<!-- Node20&#45;&gt;Node22 -->
<g id="edge26_Node000020_Node000022" class="edge">
<title>Node20&#45;&gt;Node22</title>
<g id="a_edge26_Node000020_Node000022"><a xlink:title=" ">
<path fill="none" stroke="#63b8ff" d="M869.87,-117.91C848.08,-108.91 816.6,-95.91 792.49,-85.95"/>
<polygon fill="#63b8ff" stroke="#63b8ff" points="793.57,-82.61 783,-82.03 790.9,-89.08 793.57,-82.61"/>
</a>
</g>
</g>
<!-- Node24&#45;&gt;Node11 -->
<g id="edge41_Node000024_Node000011" class="edge">
<title>Node24&#45;&gt;Node11</title>
<g id="a_edge41_Node000024_Node000011"><a xlink:title=" ">
<path fill="none" stroke="#63b8ff" d="M903.18,-294.98C964.86,-283.27 1055.44,-265.18 1060.5,-259 1099.94,-210.87 1082.16,-130.09 1070.62,-92.24"/>
<polygon fill="#63b8ff" stroke="#63b8ff" points="1073.83,-90.81 1067.44,-82.36 1067.17,-92.95 1073.83,-90.81"/>
</a>
</g>
</g>
<!-- Node24&#45;&gt;Node16 -->
<g id="edge42_Node000024_Node000016" class="edge">
<title>Node24&#45;&gt;Node16</title>
<g id="a_edge42_Node000024_Node000016"><a xlink:title=" ">
<path fill="none" stroke="#63b8ff" d="M907.28,-298.38C982.32,-289.57 1114.13,-274.04 1237.92,-259.07"/>
<polygon fill="#63b8ff" stroke="#63b8ff" points="1238.45,-262.53 1247.96,-257.85 1237.61,-255.58 1238.45,-262.53"/>
</a>
</g>
</g>
<!-- Node25 -->
<g id="Node000025" class="node">
<title>Node25</title>
<g id="a_Node000025"><a xlink:title=" ">
<polygon fill="#e0e0e0" stroke="#999999" points="652,-259 577,-259 577,-236 652,-236 652,-259"/>
<text text-anchor="middle" x="614.5" y="-243.8" font-family="Arial" font-size="14.00">esp_log.h</text>
</a>
</g>
</g>
<!-- Node24&#45;&gt;Node25 -->
<g id="edge35_Node000024_Node000025" class="edge">
<title>Node24&#45;&gt;Node25</title>
<g id="a_edge35_Node000024_Node000025"><a xlink:title=" ">
<path fill="none" stroke="#63b8ff" d="M803.68,-294.98C763.52,-285.11 703.59,-270.39 661.98,-260.17"/>
<polygon fill="#63b8ff" stroke="#63b8ff" points="662.63,-256.72 652.09,-257.73 660.96,-263.52 662.63,-256.72"/>
</a>
</g>
</g>
<!-- Node26 -->
<g id="Node000026" class="node">
<title>Node26</title>
<g id="a_Node000026"><a xlink:title=" ">
<polygon fill="#e0e0e0" stroke="#999999" points="757,-259 670,-259 670,-236 757,-236 757,-259"/>
<text text-anchor="middle" x="713.5" y="-243.8" font-family="Arial" font-size="14.00">esp_timer.h</text>
</a>
</g>
</g>
<!-- Node24&#45;&gt;Node26 -->
<g id="edge36_Node000024_Node000026" class="edge">
<title>Node24&#45;&gt;Node26</title>
<g id="a_edge36_Node000024_Node000026"><a xlink:title=" ">
<path fill="none" stroke="#63b8ff" d="M821.8,-294.91C800.89,-285.95 770.72,-273.02 747.54,-263.09"/>
<polygon fill="#63b8ff" stroke="#63b8ff" points="748.64,-259.75 738.07,-259.03 745.89,-266.19 748.64,-259.75"/>
</a>
</g>
</g>
<!-- Node27 -->
<g id="Node000027" class="node">
<title>Node27</title>
<g id="a_Node000027"><a xlink:title=" ">
<polygon fill="#e0e0e0" stroke="#999999" points="918,-259 775,-259 775,-236 918,-236 918,-259"/>
<text text-anchor="middle" x="846.5" y="-243.8" font-family="Arial" font-size="14.00">freertos/FreeRTOS.h</text>
</a>
</g>
</g>
<!-- Node24&#45;&gt;Node27 -->
<g id="edge37_Node000024_Node000027" class="edge">
<title>Node24&#45;&gt;Node27</title>
<g id="a_edge37_Node000024_Node000027"><a xlink:title=" ">
<path fill="none" stroke="#63b8ff" d="M846.5,-294.78C846.5,-287.61 846.5,-277.95 846.5,-269.31"/>
<polygon fill="#63b8ff" stroke="#63b8ff" points="850,-269.17 846.5,-259.17 843,-269.17 850,-269.17"/>
</a>
</g>
</g>
<!-- Node28 -->
<g id="Node000028" class="node">
<title>Node28</title>
<g id="a_Node000028"><a xlink:title=" ">
<polygon fill="#e0e0e0" stroke="#999999" points="1051,-259 936,-259 936,-236 1051,-236 1051,-259"/>
<text text-anchor="middle" x="993.5" y="-243.8" font-family="Arial" font-size="14.00">freertos/queue.h</text>
</a>
</g>
</g>
<!-- Node24&#45;&gt;Node28 -->
<g id="edge38_Node000024_Node000028" class="edge">
<title>Node24&#45;&gt;Node28</title>
<g id="a_edge38_Node000024_Node000028"><a xlink:title=" ">
<path fill="none" stroke="#63b8ff" d="M873.81,-294.91C897.22,-285.83 931.15,-272.68 956.91,-262.69"/>
<polygon fill="#63b8ff" stroke="#63b8ff" points="958.28,-265.91 966.34,-259.03 955.75,-259.38 958.28,-265.91"/>
</a>
</g>
</g>
<!-- Node29 -->
<g id="Node000029" class="node">
<title>Node29</title>
<g id="a_Node000029"><a xlink:title=" ">
<polygon fill="#e0e0e0" stroke="#999999" points="1229.5,-259 1107.5,-259 1107.5,-236 1229.5,-236 1229.5,-259"/>
<text text-anchor="middle" x="1168.5" y="-243.8" font-family="Arial" font-size="14.00">freertos/semphr.h</text>
</a>
</g>
</g>
<!-- Node24&#45;&gt;Node29 -->
<g id="edge39_Node000024_Node000029" class="edge">
<title>Node24&#45;&gt;Node29</title>
<g id="a_edge39_Node000024_Node000029"><a xlink:title=" ">
<path fill="none" stroke="#63b8ff" d="M905.94,-294.98C960.53,-285.31 1041.47,-270.99 1099.03,-260.8"/>
<polygon fill="#63b8ff" stroke="#63b8ff" points="1099.9,-264.2 1109.14,-259.01 1098.68,-257.3 1099.9,-264.2"/>
</a>
</g>
</g>
<!-- Node30 -->
<g id="Node000030" class="node">
<title>Node30</title>
<g id="a_Node000030"><a xlink:title=" ">
<polygon fill="#e0e0e0" stroke="#999999" points="558.5,-259 456.5,-259 456.5,-236 558.5,-236 558.5,-259"/>
<text text-anchor="middle" x="507.5" y="-243.8" font-family="Arial" font-size="14.00">freertos/task.h</text>
</a>
</g>
</g>
<!-- Node24&#45;&gt;Node30 -->
<g id="edge40_Node000024_Node000030" class="edge">
<title>Node24&#45;&gt;Node30</title>
<g id="a_edge40_Node000024_Node000030"><a xlink:title=" ">
<path fill="none" stroke="#63b8ff" d="M785.79,-295.53C731.47,-286.57 649.37,-272.95 568.42,-259.15"/>
<polygon fill="#63b8ff" stroke="#63b8ff" points="569,-255.7 558.56,-257.46 567.83,-262.6 569,-255.7"/>
</a>
</g>
</g>
</g>
</svg>
