<?xml version="1.0" encoding="UTF-8" standalone="no"?>
<!DOCTYPE svg PUBLIC "-//W3C//DTD SVG 1.1//EN"
 "http://www.w3.org/Graphics/SVG/1.1/DTD/svg11.dtd">
<!-- Generated by graphviz version 2.43.0 (0)
 -->
<!-- Title: examples/esp32/main/LoggerComprehensiveTest.cpp Pages: 1 -->
<!--zoomable 400 -->

<svg id="main" version="1.1" xmlns="http://www.w3.org/2000/svg" xmlns:xlink="http://www.w3.org/1999/xlink" xml:space="preserve" onload="init(evt)">
<style type="text/css"><![CDATA[
.node, .edge {opacity: 0.7;}
.node.selected, .edge.selected {opacity: 1;}
.edge:hover path { stroke: red; }
.edge:hover polygon { stroke: red; fill: red; }
]]></style>

<defs>
  <circle id="rim" cx="0" cy="0" r="7"/>
  <circle id="rim2" cx="0" cy="0" r="3.5"/>
  <g id="zoomPlus">
    <use xlink:href="#rim" fill="#404040"><set attributeName="fill" to="#808080" begin="zoomplus.mouseover" end="zoomplus.mouseout"/></use>
    <path d="M-4,0h8M0,-4v8" fill="none" stroke="white" stroke-width="1.5" pointer-events="none"/>
  </g>
  <g id="zoomMin">
    <use xlink:href="#rim" fill="#404040"><set attributeName="fill" to="#808080" begin="zoomminus.mouseover" end="zoomminus.mouseout"/></use>
    <path d="M-4,0h8" fill="none" stroke="white" stroke-width="1.5" pointer-events="none"/>
  </g>
  <g id="arrowUp" transform="translate(30 24)">
    <use xlink:href="#rim"/>
    <path pointer-events="none" fill="none" stroke="white" stroke-width="1.5" d="M0,-3.0v7 M-2.5,-0.5L0,-3.0L2.5,-0.5"/>
  </g>
  <g id="arrowRight" transform="rotate(90) translate(36 -43)">
    <use xlink:href="#rim"/>
    <path pointer-events="none" fill="none" stroke="white" stroke-width="1.5" d="M0,-3.0v7 M-2.5,-0.5L0,-3.0L2.5,-0.5"/>
  </g>
  <g id="arrowDown" transform="rotate(180) translate(-30 -48)">
    <use xlink:href="#rim"/>
    <path pointer-events="none" fill="none" stroke="white" stroke-width="1.5" d="M0,-3.0v7 M-2.5,-0.5L0,-3.0L2.5,-0.5"/>
  </g>
  <g id="arrowLeft" transform="rotate(270) translate(-36 17)">
    <use xlink:href="#rim"/>
    <path pointer-events="none" fill="none" stroke="white" stroke-width="1.5" d="M0,-3.0v7 M-2.5,-0.5L0,-3.0L2.5,-0.5"/>
  </g>
  <g id="resetDef">
    <use xlink:href="#rim2" fill="#404040"><set attributeName="fill" to="#808080" begin="reset.mouseover" end="reset.mouseout"/></use>
  </g>
</defs>
<script type="application/ecmascript">
var viewWidth = 1671;
var viewHeight = 400;
var sectionId = 'dynsection-0';
</script>
<script type="application/ecmascript" xlink:href="svg.min.js"/>
<svg id="graph" class="graph">
<g id="viewport">
<title>examples/esp32/main/LoggerComprehensiveTest.cpp</title>
<!-- Node1 -->
<g id="Node000001" class="node">
<title>Node1</title>
<g id="a_Node000001"><a xlink:title="Comprehensive Logger testing suite for ESP32&#45;C6 DevKit&#45;M&#45;1 (noexcept)">
<polygon fill="#999999" stroke="#666666" points="805,-392 597,-392 597,-354 805,-354 805,-392"/>
<text text-anchor="start" x="605" y="-376.8" font-family="Arial" font-size="14.00">examples/esp32/main</text>
<text text-anchor="middle" x="701" y="-361.8" font-family="Arial" font-size="14.00">/LoggerComprehensiveTest.cpp</text>
</a>
</g>
</g>
<!-- Node2 -->
<g id="Node000002" class="node">
<title>Node2</title>
<g id="a_Node000002"><a xlink:href="TestFramework_8h.html" target="_top" xlink:title="Shared testing framework for ESP32&#45;C6 comprehensive test suites.">
<polygon fill="white" stroke="#666666" points="761.5,-318 640.5,-318 640.5,-295 761.5,-295 761.5,-318"/>
<text text-anchor="middle" x="701" y="-302.8" font-family="Arial" font-size="14.00">TestFramework.h</text>
</a>
</g>
</g>
<!-- Node1&#45;&gt;Node2 -->
<g id="edge1_Node000001_Node000002" class="edge">
<title>Node1&#45;&gt;Node2</title>
<g id="a_edge1_Node000001_Node000002"><a xlink:title=" ">
<path fill="none" stroke="#63b8ff" d="M701,-353.69C701,-345.8 701,-336.54 701,-328.39"/>
<polygon fill="#63b8ff" stroke="#63b8ff" points="704.5,-328.19 701,-318.19 697.5,-328.19 704.5,-328.19"/>
</a>
</g>
</g>
<!-- Node22 -->
<g id="Node000022" class="node">
<title>Node22</title>
<g id="a_Node000022"><a xlink:href="BaseLogger_8h.html" target="_top" xlink:title="Unified logging base class for all logging implementations.">
<polygon fill="white" stroke="#666666" points="292.5,-259 159.5,-259 159.5,-236 292.5,-236 292.5,-259"/>
<text text-anchor="middle" x="226" y="-243.8" font-family="Arial" font-size="14.00">base/BaseLogger.h</text>
</a>
</g>
</g>
<!-- Node1&#45;&gt;Node22 -->
<g id="edge28_Node000001_Node000022" class="edge">
<title>Node1&#45;&gt;Node22</title>
<g id="a_edge28_Node000001_Node000022"><a xlink:title=" ">
<path fill="none" stroke="#63b8ff" d="M631.68,-353.98C534.83,-328.8 361.36,-283.69 276.1,-261.52"/>
<polygon fill="#63b8ff" stroke="#63b8ff" points="276.95,-258.13 266.39,-259 275.19,-264.91 276.95,-258.13"/>
</a>
</g>
</g>
<!-- Node25 -->
<g id="Node000025" class="node">
<title>Node25</title>
<g id="a_Node000025"><a xlink:title=" ">
<polygon fill="#e0e0e0" stroke="#999999" points="50,-200 0,-200 0,-177 50,-177 50,-200"/>
<text text-anchor="middle" x="25" y="-184.8" font-family="Arial" font-size="14.00">string</text>
</a>
</g>
</g>
<!-- Node1&#45;&gt;Node25 -->
<g id="edge57_Node000001_Node000025" class="edge">
<title>Node1&#45;&gt;Node25</title>
<g id="a_edge57_Node000001_Node000025"><a xlink:title=" ">
<path fill="none" stroke="#63b8ff" d="M596.81,-361.08C483.8,-346.86 299.52,-316.7 150,-259 113.23,-244.81 74,-221.5 49.5,-205.83"/>
<polygon fill="#63b8ff" stroke="#63b8ff" points="51.16,-202.74 40.87,-200.24 47.36,-208.61 51.16,-202.74"/>
</a>
</g>
</g>
<!-- Node26 -->
<g id="Node000026" class="node">
<title>Node26</title>
<g id="a_Node000026"><a xlink:href="EspLogger_8h.html" target="_top" xlink:title="ESP32&#45;specific logger implementation for the HardFOC system.">
<polygon fill="white" stroke="#666666" points="1190.5,-318 1027.5,-318 1027.5,-295 1190.5,-295 1190.5,-318"/>
<text text-anchor="middle" x="1109" y="-302.8" font-family="Arial" font-size="14.00">mcu/esp32/EspLogger.h</text>
</a>
</g>
</g>
<!-- Node1&#45;&gt;Node26 -->
<g id="edge35_Node000001_Node000026" class="edge">
<title>Node1&#45;&gt;Node26</title>
<g id="a_edge35_Node000001_Node000026"><a xlink:title=" ">
<path fill="none" stroke="#63b8ff" d="M805.01,-355.56C875.94,-344.34 968.3,-329.74 1032.51,-319.59"/>
<polygon fill="#63b8ff" stroke="#63b8ff" points="1033.24,-323.02 1042.57,-318 1032.14,-316.11 1033.24,-323.02"/>
</a>
</g>
</g>
<!-- Node32 -->
<g id="Node000032" class="node">
<title>Node32</title>
<g id="a_Node000032"><a xlink:href="memory__utils_8h.html" target="_top" xlink:title="Memory management utilities for exception&#45;free design.">
<polygon fill="white" stroke="#666666" points="1609.5,-318 1472.5,-318 1472.5,-295 1609.5,-295 1609.5,-318"/>
<text text-anchor="middle" x="1541" y="-302.8" font-family="Arial" font-size="14.00">utils/memory_utils.h</text>
</a>
</g>
</g>
<!-- Node1&#45;&gt;Node32 -->
<g id="edge53_Node000001_Node000032" class="edge">
<title>Node1&#45;&gt;Node32</title>
<g id="a_edge53_Node000001_Node000032"><a xlink:title=" ">
<path fill="none" stroke="#63b8ff" d="M805.27,-363.99C975.67,-350.91 1310.08,-325.23 1462.25,-313.55"/>
<polygon fill="#63b8ff" stroke="#63b8ff" points="1462.74,-317.02 1472.44,-312.76 1462.21,-310.04 1462.74,-317.02"/>
</a>
</g>
</g>
<!-- Node3 -->
<g id="Node000003" class="node">
<title>Node3</title>
<g id="a_Node000003"><a xlink:title=" ">
<polygon fill="#e0e0e0" stroke="#999999" points="885.5,-259 810.5,-259 810.5,-236 885.5,-236 885.5,-259"/>
<text text-anchor="middle" x="848" y="-243.8" font-family="Arial" font-size="14.00">esp_log.h</text>
</a>
</g>
</g>
<!-- Node2&#45;&gt;Node3 -->
<g id="edge2_Node000002_Node000003" class="edge">
<title>Node2&#45;&gt;Node3</title>
<g id="a_edge2_Node000002_Node000003"><a xlink:title=" ">
<path fill="none" stroke="#63b8ff" d="M728.31,-294.91C751.72,-285.83 785.65,-272.68 811.41,-262.69"/>
<polygon fill="#63b8ff" stroke="#63b8ff" points="812.78,-265.91 820.84,-259.03 810.25,-259.38 812.78,-265.91"/>
</a>
</g>
</g>
<!-- Node4 -->
<g id="Node000004" class="node">
<title>Node4</title>
<g id="a_Node000004"><a xlink:title=" ">
<polygon fill="#e0e0e0" stroke="#999999" points="990.5,-259 903.5,-259 903.5,-236 990.5,-236 990.5,-259"/>
<text text-anchor="middle" x="947" y="-243.8" font-family="Arial" font-size="14.00">esp_timer.h</text>
</a>
</g>
</g>
<!-- Node2&#45;&gt;Node4 -->
<g id="edge3_Node000002_Node000004" class="edge">
<title>Node2&#45;&gt;Node4</title>
<g id="a_edge3_Node000002_Node000004"><a xlink:title=" ">
<path fill="none" stroke="#63b8ff" d="M746.41,-294.98C787.88,-285.37 849.24,-271.15 893.17,-260.97"/>
<polygon fill="#63b8ff" stroke="#63b8ff" points="894.15,-264.34 903.1,-258.67 892.57,-257.52 894.15,-264.34"/>
</a>
</g>
</g>
<!-- Node5 -->
<g id="Node000005" class="node">
<title>Node5</title>
<g id="a_Node000005"><a xlink:title=" ">
<polygon fill="#e0e0e0" stroke="#999999" points="1139.5,-200 996.5,-200 996.5,-177 1139.5,-177 1139.5,-200"/>
<text text-anchor="middle" x="1068" y="-184.8" font-family="Arial" font-size="14.00">freertos/FreeRTOS.h</text>
</a>
</g>
</g>
<!-- Node2&#45;&gt;Node5 -->
<g id="edge4_Node000002_Node000005" class="edge">
<title>Node2&#45;&gt;Node5</title>
<g id="a_edge4_Node000002_Node000005"><a xlink:title=" ">
<path fill="none" stroke="#63b8ff" d="M707.77,-294.96C718.48,-279.25 740.93,-250.05 768,-236 777.7,-230.96 900.86,-212.92 986.33,-200.85"/>
<polygon fill="#63b8ff" stroke="#63b8ff" points="986.88,-204.3 996.29,-199.44 985.9,-197.37 986.88,-204.3"/>
</a>
</g>
</g>
<!-- Node6 -->
<g id="Node000006" class="node">
<title>Node6</title>
<g id="a_Node000006"><a xlink:title=" ">
<polygon fill="#e0e0e0" stroke="#999999" points="715.5,-259 600.5,-259 600.5,-236 715.5,-236 715.5,-259"/>
<text text-anchor="middle" x="658" y="-243.8" font-family="Arial" font-size="14.00">freertos/queue.h</text>
</a>
</g>
</g>
<!-- Node2&#45;&gt;Node6 -->
<g id="edge5_Node000002_Node000006" class="edge">
<title>Node2&#45;&gt;Node6</title>
<g id="a_edge5_Node000002_Node000006"><a xlink:title=" ">
<path fill="none" stroke="#63b8ff" d="M692.91,-294.78C687.09,-287.06 679.07,-276.43 672.19,-267.31"/>
<polygon fill="#63b8ff" stroke="#63b8ff" points="674.87,-265.05 666.05,-259.17 669.28,-269.26 674.87,-265.05"/>
</a>
</g>
</g>
<!-- Node7 -->
<g id="Node000007" class="node">
<title>Node7</title>
<g id="a_Node000007"><a xlink:title=" ">
<polygon fill="#e0e0e0" stroke="#999999" points="978,-200 856,-200 856,-177 978,-177 978,-200"/>
<text text-anchor="middle" x="917" y="-184.8" font-family="Arial" font-size="14.00">freertos/semphr.h</text>
</a>
</g>
</g>
<!-- Node2&#45;&gt;Node7 -->
<g id="edge6_Node000002_Node000007" class="edge">
<title>Node2&#45;&gt;Node7</title>
<g id="a_edge6_Node000002_Node000007"><a xlink:title=" ">
<path fill="none" stroke="#63b8ff" d="M655.82,-294.91C615.89,-283.49 567.37,-263.2 591,-236 626.77,-194.82 774.55,-206.87 845.87,-199.77"/>
<polygon fill="#63b8ff" stroke="#63b8ff" points="846.3,-203.24 855.81,-198.57 845.47,-196.29 846.3,-203.24"/>
</a>
</g>
</g>
<!-- Node8 -->
<g id="Node000008" class="node">
<title>Node8</title>
<g id="a_Node000008"><a xlink:title=" ">
<polygon fill="#e0e0e0" stroke="#999999" points="1275,-200 1173,-200 1173,-177 1275,-177 1275,-200"/>
<text text-anchor="middle" x="1224" y="-184.8" font-family="Arial" font-size="14.00">freertos/task.h</text>
</a>
</g>
</g>
<!-- Node2&#45;&gt;Node8 -->
<g id="edge7_Node000002_Node000008" class="edge">
<title>Node2&#45;&gt;Node8</title>
<g id="a_edge7_Node000002_Node000008"><a xlink:title=" ">
<path fill="none" stroke="#63b8ff" d="M716.17,-294.98C729.76,-285.56 750.22,-271.37 768,-259 782.68,-248.79 784.24,-242.23 801,-236 946.33,-181.96 994.07,-218.61 1148,-200 1152.79,-199.42 1157.74,-198.8 1162.72,-198.15"/>
<polygon fill="#63b8ff" stroke="#63b8ff" points="1163.48,-201.58 1172.93,-196.8 1162.56,-194.64 1163.48,-201.58"/>
</a>
</g>
</g>
<!-- Node9 -->
<g id="Node000009" class="node">
<title>Node9</title>
<g id="a_Node000009"><a xlink:href="HardwareTypes_8h.html" target="_top" xlink:title="Platform&#45;agnostic hardware type definitions for the HardFOC system.">
<polygon fill="white" stroke="#666666" points="538,-82 416,-82 416,-59 538,-59 538,-82"/>
<text text-anchor="middle" x="477" y="-66.8" font-family="Arial" font-size="14.00">HardwareTypes.h</text>
</a>
</g>
</g>
<!-- Node2&#45;&gt;Node9 -->
<g id="edge8_Node000002_Node000009" class="edge">
<title>Node2&#45;&gt;Node9</title>
<g id="a_edge8_Node000002_Node000009"><a xlink:title=" ">
<path fill="none" stroke="#63b8ff" d="M640.17,-305.65C557.32,-304.42 415.57,-296.67 383,-259 363.27,-236.18 298.55,-260.79 390,-118 399.25,-103.55 414.59,-93.29 429.84,-86.15"/>
<polygon fill="#63b8ff" stroke="#63b8ff" points="431.45,-89.26 439.26,-82.1 428.69,-82.83 431.45,-89.26"/>
</a>
</g>
</g>
<!-- Node12 -->
<g id="Node000012" class="node">
<title>Node12</title>
<g id="a_Node000012"><a xlink:href="EspGpio_8h.html" target="_top" xlink:title="Advanced MCU&#45;specific implementation of the unified BaseGpio class with ESP32C6/ESP&#45;IDF v5....">
<polygon fill="white" stroke="#666666" points="543.5,-259 392.5,-259 392.5,-236 543.5,-236 543.5,-259"/>
<text text-anchor="middle" x="468" y="-243.8" font-family="Arial" font-size="14.00">mcu/esp32/EspGpio.h</text>
</a>
</g>
</g>
<!-- Node2&#45;&gt;Node12 -->
<g id="edge11_Node000002_Node000012" class="edge">
<title>Node2&#45;&gt;Node12</title>
<g id="a_edge11_Node000002_Node000012"><a xlink:title=" ">
<path fill="none" stroke="#63b8ff" d="M657.99,-294.98C619.36,-285.53 562.51,-271.62 521.07,-261.48"/>
<polygon fill="#63b8ff" stroke="#63b8ff" points="521.7,-258.03 511.15,-259.06 520.03,-264.83 521.7,-258.03"/>
</a>
</g>
</g>
<!-- Node10 -->
<g id="Node000010" class="node">
<title>Node10</title>
<g id="a_Node000010"><a xlink:title=" ">
<polygon fill="#e0e0e0" stroke="#999999" points="594,-23 538,-23 538,0 594,0 594,-23"/>
<text text-anchor="middle" x="566" y="-7.8" font-family="Arial" font-size="14.00">cstdint</text>
</a>
</g>
</g>
<!-- Node9&#45;&gt;Node10 -->
<g id="edge9_Node000009_Node000010" class="edge">
<title>Node9&#45;&gt;Node10</title>
<g id="a_edge9_Node000009_Node000010"><a xlink:title=" ">
<path fill="none" stroke="#63b8ff" d="M493.74,-58.78C506.92,-50.34 525.5,-38.44 540.52,-28.82"/>
<polygon fill="#63b8ff" stroke="#63b8ff" points="542.8,-31.51 549.33,-23.17 539.03,-25.62 542.8,-31.51"/>
</a>
</g>
</g>
<!-- Node11 -->
<g id="Node000011" class="node">
<title>Node11</title>
<g id="a_Node000011"><a xlink:title=" ">
<polygon fill="#e0e0e0" stroke="#999999" points="501,-23 453,-23 453,0 501,0 501,-23"/>
<text text-anchor="middle" x="477" y="-7.8" font-family="Arial" font-size="14.00">limits</text>
</a>
</g>
</g>
<!-- Node9&#45;&gt;Node11 -->
<g id="edge10_Node000009_Node000011" class="edge">
<title>Node9&#45;&gt;Node11</title>
<g id="a_edge10_Node000009_Node000011"><a xlink:title=" ">
<path fill="none" stroke="#63b8ff" d="M477,-58.78C477,-51.61 477,-41.95 477,-33.31"/>
<polygon fill="#63b8ff" stroke="#63b8ff" points="480.5,-33.17 477,-23.17 473.5,-33.17 480.5,-33.17"/>
</a>
</g>
</g>
<!-- Node13 -->
<g id="Node000013" class="node">
<title>Node13</title>
<g id="a_Node000013"><a xlink:title=" ">
<polygon fill="#e0e0e0" stroke="#999999" points="837.5,-200 746.5,-200 746.5,-177 837.5,-177 837.5,-200"/>
<text text-anchor="middle" x="792" y="-184.8" font-family="Arial" font-size="14.00">driver/gpio.h</text>
</a>
</g>
</g>
<!-- Node12&#45;&gt;Node13 -->
<g id="edge12_Node000012_Node000013" class="edge">
<title>Node12&#45;&gt;Node13</title>
<g id="a_edge12_Node000012_Node000013"><a xlink:title=" ">
<path fill="none" stroke="#63b8ff" d="M530.83,-235.96C583.04,-227.13 659.55,-214.01 736.09,-200.14"/>
<polygon fill="#63b8ff" stroke="#63b8ff" points="737.18,-203.5 746.39,-198.27 735.93,-196.61 737.18,-203.5"/>
</a>
</g>
</g>
<!-- Node14 -->
<g id="Node000014" class="node">
<title>Node14</title>
<g id="a_Node000014"><a xlink:title=" ">
<polygon fill="#e0e0e0" stroke="#999999" points="506,-200 430,-200 430,-177 506,-177 506,-200"/>
<text text-anchor="middle" x="468" y="-184.8" font-family="Arial" font-size="14.00">esp_attr.h</text>
</a>
</g>
</g>
<!-- Node12&#45;&gt;Node14 -->
<g id="edge13_Node000012_Node000014" class="edge">
<title>Node12&#45;&gt;Node14</title>
<g id="a_edge13_Node000012_Node000014"><a xlink:title=" ">
<path fill="none" stroke="#63b8ff" d="M468,-235.78C468,-228.61 468,-218.95 468,-210.31"/>
<polygon fill="#63b8ff" stroke="#63b8ff" points="471.5,-210.17 468,-200.17 464.5,-210.17 471.5,-210.17"/>
</a>
</g>
</g>
<!-- Node15 -->
<g id="Node000015" class="node">
<title>Node15</title>
<g id="a_Node000015"><a xlink:href="BaseGpio_8h.html" target="_top" xlink:title="Unified GPIO base class for all digital GPIO implementations.">
<polygon fill="white" stroke="#666666" points="487,-141 399,-141 399,-118 487,-118 487,-141"/>
<text text-anchor="middle" x="443" y="-125.8" font-family="Arial" font-size="14.00">BaseGpio.h</text>
</a>
</g>
</g>
<!-- Node12&#45;&gt;Node15 -->
<g id="edge14_Node000012_Node000015" class="edge">
<title>Node12&#45;&gt;Node15</title>
<g id="a_edge14_Node000012_Node000015"><a xlink:title=" ">
<path fill="none" stroke="#63b8ff" d="M452.07,-236C441.05,-227.7 427.28,-215.04 421,-200 414.11,-183.49 421.54,-164.02 429.57,-149.89"/>
<polygon fill="#63b8ff" stroke="#63b8ff" points="432.75,-151.41 435.06,-141.07 426.81,-147.71 432.75,-151.41"/>
</a>
</g>
</g>
<!-- Node17 -->
<g id="Node000017" class="node">
<title>Node17</title>
<g id="a_Node000017"><a xlink:href="EspTypes__GPIO_8h.html" target="_top" xlink:title="ESP32 GPIO type definitions for hardware abstraction.">
<polygon fill="white" stroke="#666666" points="654,-200 524,-200 524,-177 654,-177 654,-200"/>
<text text-anchor="middle" x="589" y="-184.8" font-family="Arial" font-size="14.00">EspTypes_GPIO.h</text>
</a>
</g>
</g>
<!-- Node12&#45;&gt;Node17 -->
<g id="edge18_Node000012_Node000017" class="edge">
<title>Node12&#45;&gt;Node17</title>
<g id="a_edge18_Node000012_Node000017"><a xlink:title=" ">
<path fill="none" stroke="#63b8ff" d="M490.48,-235.91C509.32,-227.03 536.45,-214.26 557.47,-204.35"/>
<polygon fill="#63b8ff" stroke="#63b8ff" points="559.09,-207.46 566.64,-200.03 556.11,-201.13 559.09,-207.46"/>
</a>
</g>
</g>
<!-- Node21 -->
<g id="Node000021" class="node">
<title>Node21</title>
<g id="a_Node000021"><a xlink:title=" ">
<polygon fill="#e0e0e0" stroke="#999999" points="728,-200 672,-200 672,-177 728,-177 728,-200"/>
<text text-anchor="middle" x="700" y="-184.8" font-family="Arial" font-size="14.00">stdio.h</text>
</a>
</g>
</g>
<!-- Node12&#45;&gt;Node21 -->
<g id="edge27_Node000012_Node000021" class="edge">
<title>Node12&#45;&gt;Node21</title>
<g id="a_edge27_Node000012_Node000021"><a xlink:title=" ">
<path fill="none" stroke="#63b8ff" d="M514.63,-235.97C552.06,-227.38 606.17,-214.67 662.04,-200.18"/>
<polygon fill="#63b8ff" stroke="#63b8ff" points="662.96,-203.56 671.75,-197.65 661.19,-196.79 662.96,-203.56"/>
</a>
</g>
</g>
<!-- Node15&#45;&gt;Node9 -->
<g id="edge15_Node000015_Node000009" class="edge">
<title>Node15&#45;&gt;Node9</title>
<g id="a_edge15_Node000015_Node000009"><a xlink:title=" ">
<path fill="none" stroke="#63b8ff" d="M449.4,-117.78C453.91,-110.22 460.08,-99.87 465.44,-90.88"/>
<polygon fill="#63b8ff" stroke="#63b8ff" points="468.52,-92.55 470.63,-82.17 462.5,-88.97 468.52,-92.55"/>
</a>
</g>
</g>
<!-- Node15&#45;&gt;Node10 -->
<g id="edge16_Node000015_Node000010" class="edge">
<title>Node15&#45;&gt;Node10</title>
<g id="a_edge16_Node000015_Node000010"><a xlink:title=" ">
<path fill="none" stroke="#63b8ff" d="M487.05,-118.24C507.94,-111.27 531.62,-99.95 547,-82 558.55,-68.53 563.13,-48.65 564.92,-33.6"/>
<polygon fill="#63b8ff" stroke="#63b8ff" points="568.45,-33.48 565.82,-23.22 561.47,-32.88 568.45,-33.48"/>
</a>
</g>
</g>
<!-- Node16 -->
<g id="Node000016" class="node">
<title>Node16</title>
<g id="a_Node000016"><a xlink:title=" ">
<polygon fill="#e0e0e0" stroke="#999999" points="398,-82 314,-82 314,-59 398,-59 398,-82"/>
<text text-anchor="middle" x="356" y="-66.8" font-family="Arial" font-size="14.00">string_view</text>
</a>
</g>
</g>
<!-- Node15&#45;&gt;Node16 -->
<g id="edge17_Node000015_Node000016" class="edge">
<title>Node15&#45;&gt;Node16</title>
<g id="a_edge17_Node000015_Node000016"><a xlink:title=" ">
<path fill="none" stroke="#63b8ff" d="M426.64,-117.78C413.76,-109.34 395.59,-97.44 380.91,-87.82"/>
<polygon fill="#63b8ff" stroke="#63b8ff" points="382.57,-84.73 372.29,-82.17 378.74,-90.58 382.57,-84.73"/>
</a>
</g>
</g>
<!-- Node17&#45;&gt;Node9 -->
<g id="edge25_Node000017_Node000009" class="edge">
<title>Node17&#45;&gt;Node9</title>
<g id="a_edge25_Node000017_Node000009"><a xlink:title=" ">
<path fill="none" stroke="#63b8ff" d="M574.83,-176.69C563.34,-167.66 546.99,-154.18 534,-141 518.22,-124.98 502.14,-104.98 491.11,-90.55"/>
<polygon fill="#63b8ff" stroke="#63b8ff" points="493.75,-88.24 484.93,-82.37 488.16,-92.46 493.75,-88.24"/>
</a>
</g>
</g>
<!-- Node17&#45;&gt;Node15 -->
<g id="edge19_Node000017_Node000015" class="edge">
<title>Node17&#45;&gt;Node15</title>
<g id="a_edge19_Node000017_Node000015"><a xlink:title=" ">
<path fill="none" stroke="#63b8ff" d="M561.88,-176.91C538.63,-167.83 504.93,-154.68 479.34,-144.69"/>
<polygon fill="#63b8ff" stroke="#63b8ff" points="480.56,-141.41 469.97,-141.03 478.02,-147.93 480.56,-141.41"/>
</a>
</g>
</g>
<!-- Node18 -->
<g id="Node000018" class="node">
<title>Node18</title>
<g id="a_Node000018"><a xlink:href="EspTypes__Base_8h.html" target="_top" xlink:title="ESP32 base type definitions for hardware abstraction.">
<polygon fill="white" stroke="#666666" points="668.5,-141 543.5,-141 543.5,-118 668.5,-118 668.5,-141"/>
<text text-anchor="middle" x="606" y="-125.8" font-family="Arial" font-size="14.00">EspTypes_Base.h</text>
</a>
</g>
</g>
<!-- Node17&#45;&gt;Node18 -->
<g id="edge20_Node000017_Node000018" class="edge">
<title>Node17&#45;&gt;Node18</title>
<g id="a_edge20_Node000017_Node000018"><a xlink:title=" ">
<path fill="none" stroke="#63b8ff" d="M592.2,-176.78C594.36,-169.53 597.28,-159.74 599.88,-151.02"/>
<polygon fill="#63b8ff" stroke="#63b8ff" points="603.31,-151.76 602.82,-141.17 596.6,-149.76 603.31,-151.76"/>
</a>
</g>
</g>
<!-- Node19 -->
<g id="Node000019" class="node">
<title>Node19</title>
<g id="a_Node000019"><a xlink:href="McuSelect_8h.html" target="_top" xlink:title="Centralized MCU platform selection and configuration header.">
<polygon fill="white" stroke="#666666" points="774,-82 632,-82 632,-59 774,-59 774,-82"/>
<text text-anchor="middle" x="703" y="-66.8" font-family="Arial" font-size="14.00">../../utils/McuSelect.h</text>
</a>
</g>
</g>
<!-- Node17&#45;&gt;Node19 -->
<g id="edge26_Node000017_Node000019" class="edge">
<title>Node17&#45;&gt;Node19</title>
<g id="a_edge26_Node000017_Node000019"><a xlink:title=" ">
<path fill="none" stroke="#63b8ff" d="M621.62,-176.88C640.05,-169.42 662.28,-157.74 677,-141 689.19,-127.14 695.87,-107.04 699.4,-92.01"/>
<polygon fill="#63b8ff" stroke="#63b8ff" points="702.85,-92.63 701.45,-82.13 695.99,-91.21 702.85,-92.63"/>
</a>
</g>
</g>
<!-- Node18&#45;&gt;Node9 -->
<g id="edge22_Node000018_Node000009" class="edge">
<title>Node18&#45;&gt;Node9</title>
<g id="a_edge22_Node000018_Node000009"><a xlink:title=" ">
<path fill="none" stroke="#63b8ff" d="M582.04,-117.91C561.76,-108.95 532.5,-96.02 510.01,-86.09"/>
<polygon fill="#63b8ff" stroke="#63b8ff" points="511.39,-82.87 500.83,-82.03 508.57,-89.27 511.39,-82.87"/>
</a>
</g>
</g>
<!-- Node18&#45;&gt;Node10 -->
<g id="edge24_Node000018_Node000010" class="edge">
<title>Node18&#45;&gt;Node10</title>
<g id="a_edge24_Node000018_Node000010"><a xlink:title=" ">
<path fill="none" stroke="#63b8ff" d="M602.31,-117.79C595.64,-98.46 581.49,-57.42 572.96,-32.68"/>
<polygon fill="#63b8ff" stroke="#63b8ff" points="576.25,-31.49 569.68,-23.18 569.63,-33.77 576.25,-31.49"/>
</a>
</g>
</g>
<!-- Node18&#45;&gt;Node19 -->
<g id="edge21_Node000018_Node000019" class="edge">
<title>Node18&#45;&gt;Node19</title>
<g id="a_edge21_Node000018_Node000019"><a xlink:title=" ">
<path fill="none" stroke="#63b8ff" d="M624.24,-117.78C638.88,-109.18 659.63,-96.99 676.15,-87.28"/>
<polygon fill="#63b8ff" stroke="#63b8ff" points="677.99,-90.26 684.84,-82.17 674.44,-84.22 677.99,-90.26"/>
</a>
</g>
</g>
<!-- Node20 -->
<g id="Node000020" class="node">
<title>Node20</title>
<g id="a_Node000020"><a xlink:title=" ">
<polygon fill="#e0e0e0" stroke="#999999" points="1369.5,-82 1312.5,-82 1312.5,-59 1369.5,-59 1369.5,-82"/>
<text text-anchor="middle" x="1341" y="-66.8" font-family="Arial" font-size="14.00">atomic</text>
</a>
</g>
</g>
<!-- Node18&#45;&gt;Node20 -->
<g id="edge23_Node000018_Node000020" class="edge">
<title>Node18&#45;&gt;Node20</title>
<g id="a_edge23_Node000018_Node000020"><a xlink:title=" ">
<path fill="none" stroke="#63b8ff" d="M668.67,-123.64C816.27,-112.19 1182.35,-83.8 1302.28,-74.5"/>
<polygon fill="#63b8ff" stroke="#63b8ff" points="1302.76,-77.98 1312.45,-73.71 1302.21,-71 1302.76,-77.98"/>
</a>
</g>
</g>
<!-- Node22&#45;&gt;Node9 -->
<g id="edge29_Node000022_Node000009" class="edge">
<title>Node22&#45;&gt;Node9</title>
<g id="a_edge29_Node000022_Node000009"><a xlink:title=" ">
<path fill="none" stroke="#63b8ff" d="M191.08,-235.97C157.91,-224.12 115.76,-203.07 135,-177 167.32,-133.21 315.56,-99.95 405.93,-83.31"/>
<polygon fill="#63b8ff" stroke="#63b8ff" points="406.63,-86.74 415.84,-81.51 405.38,-79.85 406.63,-86.74"/>
</a>
</g>
</g>
<!-- Node22&#45;&gt;Node10 -->
<g id="edge31_Node000022_Node000010" class="edge">
<title>Node22&#45;&gt;Node10</title>
<g id="a_edge31_Node000022_Node000010"><a xlink:title=" ">
<path fill="none" stroke="#63b8ff" d="M260.78,-235.86C277.92,-228.67 297.01,-217.26 307,-200 338.4,-145.76 264.7,-107 305,-59 334.74,-23.58 464.49,-31.26 510,-23 515.8,-21.95 521.93,-20.82 527.93,-19.7"/>
<polygon fill="#63b8ff" stroke="#63b8ff" points="528.62,-23.13 537.81,-17.85 527.34,-16.25 528.62,-23.13"/>
</a>
</g>
</g>
<!-- Node22&#45;&gt;Node16 -->
<g id="edge34_Node000022_Node000016" class="edge">
<title>Node22&#45;&gt;Node16</title>
<g id="a_edge34_Node000022_Node000016"><a xlink:title=" ">
<path fill="none" stroke="#63b8ff" d="M167.17,-235.94C126.03,-225.74 81.79,-207.28 102,-177 146.86,-109.8 243.39,-85.34 303.68,-76.48"/>
<polygon fill="#63b8ff" stroke="#63b8ff" points="304.33,-79.93 313.76,-75.1 303.38,-72.99 304.33,-79.93"/>
</a>
</g>
</g>
<!-- Node23 -->
<g id="Node000023" class="node">
<title>Node23</title>
<g id="a_Node000023"><a xlink:title=" ">
<polygon fill="#e0e0e0" stroke="#999999" points="205.5,-200 144.5,-200 144.5,-177 205.5,-177 205.5,-200"/>
<text text-anchor="middle" x="175" y="-184.8" font-family="Arial" font-size="14.00">cstdarg</text>
</a>
</g>
</g>
<!-- Node22&#45;&gt;Node23 -->
<g id="edge30_Node000022_Node000023" class="edge">
<title>Node22&#45;&gt;Node23</title>
<g id="a_edge30_Node000022_Node000023"><a xlink:title=" ">
<path fill="none" stroke="#63b8ff" d="M216.41,-235.78C209.36,-227.9 199.6,-216.99 191.33,-207.75"/>
<polygon fill="#63b8ff" stroke="#63b8ff" points="193.83,-205.29 184.55,-200.17 188.61,-209.96 193.83,-205.29"/>
</a>
</g>
</g>
<!-- Node24 -->
<g id="Node000024" class="node">
<title>Node24</title>
<g id="a_Node000024"><a xlink:title=" ">
<polygon fill="#e0e0e0" stroke="#999999" points="298,-200 224,-200 224,-177 298,-177 298,-200"/>
<text text-anchor="middle" x="261" y="-184.8" font-family="Arial" font-size="14.00">functional</text>
</a>
</g>
</g>
<!-- Node22&#45;&gt;Node24 -->
<g id="edge32_Node000022_Node000024" class="edge">
<title>Node22&#45;&gt;Node24</title>
<g id="a_edge32_Node000022_Node000024"><a xlink:title=" ">
<path fill="none" stroke="#63b8ff" d="M232.58,-235.78C237.23,-228.22 243.58,-217.87 249.1,-208.88"/>
<polygon fill="#63b8ff" stroke="#63b8ff" points="252.2,-210.53 254.45,-200.17 246.23,-206.86 252.2,-210.53"/>
</a>
</g>
</g>
<!-- Node22&#45;&gt;Node25 -->
<g id="edge33_Node000022_Node000025" class="edge">
<title>Node22&#45;&gt;Node25</title>
<g id="a_edge33_Node000022_Node000025"><a xlink:title=" ">
<path fill="none" stroke="#63b8ff" d="M188.66,-235.91C151.88,-225.48 96.11,-209.66 60.11,-199.46"/>
<polygon fill="#63b8ff" stroke="#63b8ff" points="60.64,-195.97 50.07,-196.61 58.73,-202.7 60.64,-195.97"/>
</a>
</g>
</g>
<!-- Node26&#45;&gt;Node3 -->
<g id="edge49_Node000026_Node000003" class="edge">
<title>Node26&#45;&gt;Node3</title>
<g id="a_edge49_Node000026_Node000003"><a xlink:title=" ">
<path fill="none" stroke="#63b8ff" d="M1059.44,-294.95C1018.05,-286.1 957.23,-273.01 895.55,-259.33"/>
<polygon fill="#63b8ff" stroke="#63b8ff" points="896.17,-255.88 885.65,-257.13 894.65,-262.72 896.17,-255.88"/>
</a>
</g>
</g>
<!-- Node26&#45;&gt;Node4 -->
<g id="edge50_Node000026_Node000004" class="edge">
<title>Node26&#45;&gt;Node4</title>
<g id="a_edge50_Node000026_Node000004"><a xlink:title=" ">
<path fill="none" stroke="#63b8ff" d="M1078.91,-294.91C1052.88,-285.75 1015.06,-272.45 986.58,-262.43"/>
<polygon fill="#63b8ff" stroke="#63b8ff" points="987.52,-259.05 976.93,-259.03 985.2,-265.65 987.52,-259.05"/>
</a>
</g>
</g>
<!-- Node26&#45;&gt;Node5 -->
<g id="edge51_Node000026_Node000005" class="edge">
<title>Node26&#45;&gt;Node5</title>
<g id="a_edge51_Node000026_Node000005"><a xlink:title=" ">
<path fill="none" stroke="#63b8ff" d="M1080.59,-294.87C1065,-287.4 1047.04,-275.72 1038,-259 1029,-242.34 1039.63,-222.42 1050.65,-208.18"/>
<polygon fill="#63b8ff" stroke="#63b8ff" points="1053.66,-210.05 1057.39,-200.13 1048.29,-205.55 1053.66,-210.05"/>
</a>
</g>
</g>
<!-- Node26&#45;&gt;Node8 -->
<g id="edge52_Node000026_Node000008" class="edge">
<title>Node26&#45;&gt;Node8</title>
<g id="a_edge52_Node000026_Node000008"><a xlink:title=" ">
<path fill="none" stroke="#63b8ff" d="M1190.63,-295.02C1211.71,-288.19 1232.08,-277.07 1245,-259 1255.68,-244.06 1247.4,-223.6 1238.27,-208.75"/>
<polygon fill="#63b8ff" stroke="#63b8ff" points="1241.12,-206.7 1232.65,-200.33 1235.29,-210.59 1241.12,-206.7"/>
</a>
</g>
</g>
<!-- Node26&#45;&gt;Node20 -->
<g id="edge44_Node000026_Node000020" class="edge">
<title>Node26&#45;&gt;Node20</title>
<g id="a_edge44_Node000026_Node000020"><a xlink:title=" ">
<path fill="none" stroke="#63b8ff" d="M1190.83,-305.03C1273.65,-302.62 1393.57,-293.11 1423,-259 1468.31,-206.48 1396.82,-125.02 1360.33,-89.3"/>
<polygon fill="#63b8ff" stroke="#63b8ff" points="1362.36,-86.4 1352.71,-82.01 1357.52,-91.46 1362.36,-86.4"/>
</a>
</g>
</g>
<!-- Node26&#45;&gt;Node22 -->
<g id="edge36_Node000026_Node000022" class="edge">
<title>Node26&#45;&gt;Node22</title>
<g id="a_edge36_Node000026_Node000022"><a xlink:title=" ">
<path fill="none" stroke="#63b8ff" d="M1027.34,-300.34C892.96,-291.84 616.79,-274.3 383,-259 356.89,-257.29 328.34,-255.39 302.83,-253.68"/>
<polygon fill="#63b8ff" stroke="#63b8ff" points="303.06,-250.19 292.84,-253.01 302.59,-257.17 303.06,-250.19"/>
</a>
</g>
</g>
<!-- Node27 -->
<g id="Node000027" class="node">
<title>Node27</title>
<g id="a_Node000027"><a xlink:href="RtosMutex_8h.html" target="_top" xlink:title="Cross&#45;platform RTOS mutex and synchronization primitives.">
<polygon fill="white" stroke="#666666" points="1414.5,-259 1293.5,-259 1293.5,-236 1414.5,-236 1414.5,-259"/>
<text text-anchor="middle" x="1354" y="-243.8" font-family="Arial" font-size="14.00">utils/RtosMutex.h</text>
</a>
</g>
</g>
<!-- Node26&#45;&gt;Node27 -->
<g id="edge37_Node000026_Node000027" class="edge">
<title>Node26&#45;&gt;Node27</title>
<g id="a_edge37_Node000026_Node000027"><a xlink:title=" ">
<path fill="none" stroke="#63b8ff" d="M1154.22,-294.98C1195.01,-285.49 1255.13,-271.5 1298.75,-261.35"/>
<polygon fill="#63b8ff" stroke="#63b8ff" points="1299.68,-264.73 1308.63,-259.06 1298.09,-257.91 1299.68,-264.73"/>
</a>
</g>
</g>
<!-- Node28 -->
<g id="Node000028" class="node">
<title>Node28</title>
<g id="a_Node000028"><a xlink:title=" ">
<polygon fill="#e0e0e0" stroke="#999999" points="1103,-259 1047,-259 1047,-236 1103,-236 1103,-259"/>
<text text-anchor="middle" x="1075" y="-243.8" font-family="Arial" font-size="14.00">cstring</text>
</a>
</g>
</g>
<!-- Node26&#45;&gt;Node28 -->
<g id="edge45_Node000026_Node000028" class="edge">
<title>Node26&#45;&gt;Node28</title>
<g id="a_edge45_Node000026_Node000028"><a xlink:title=" ">
<path fill="none" stroke="#63b8ff" d="M1102.6,-294.78C1098.09,-287.22 1091.92,-276.87 1086.56,-267.88"/>
<polygon fill="#63b8ff" stroke="#63b8ff" points="1089.5,-265.97 1081.37,-259.17 1083.48,-269.55 1089.5,-265.97"/>
</a>
</g>
</g>
<!-- Node29 -->
<g id="Node000029" class="node">
<title>Node29</title>
<g id="a_Node000029"><a xlink:title=" ">
<polygon fill="#e0e0e0" stroke="#999999" points="1165,-259 1121,-259 1121,-236 1165,-236 1165,-259"/>
<text text-anchor="middle" x="1143" y="-243.8" font-family="Arial" font-size="14.00">map</text>
</a>
</g>
</g>
<!-- Node26&#45;&gt;Node29 -->
<g id="edge46_Node000026_Node000029" class="edge">
<title>Node26&#45;&gt;Node29</title>
<g id="a_edge46_Node000026_Node000029"><a xlink:title=" ">
<path fill="none" stroke="#63b8ff" d="M1115.4,-294.78C1119.91,-287.22 1126.08,-276.87 1131.44,-267.88"/>
<polygon fill="#63b8ff" stroke="#63b8ff" points="1134.52,-269.55 1136.63,-259.17 1128.5,-265.97 1134.52,-269.55"/>
</a>
</g>
</g>
<!-- Node30 -->
<g id="Node000030" class="node">
<title>Node30</title>
<g id="a_Node000030"><a xlink:title=" ">
<polygon fill="#e0e0e0" stroke="#999999" points="1538.5,-259 1471.5,-259 1471.5,-236 1538.5,-236 1538.5,-259"/>
<text text-anchor="middle" x="1505" y="-243.8" font-family="Arial" font-size="14.00">memory</text>
</a>
</g>
</g>
<!-- Node26&#45;&gt;Node30 -->
<g id="edge47_Node000026_Node000030" class="edge">
<title>Node26&#45;&gt;Node30</title>
<g id="a_edge47_Node000026_Node000030"><a xlink:title=" ">
<path fill="none" stroke="#63b8ff" d="M1190.51,-296.54C1261.22,-288.3 1366.2,-274.97 1457,-259 1458.44,-258.75 1459.91,-258.48 1461.39,-258.2"/>
<polygon fill="#63b8ff" stroke="#63b8ff" points="1462.11,-261.63 1471.24,-256.25 1460.75,-254.76 1462.11,-261.63"/>
</a>
</g>
</g>
<!-- Node31 -->
<g id="Node000031" class="node">
<title>Node31</title>
<g id="a_Node000031"><a xlink:title=" ">
<polygon fill="#e0e0e0" stroke="#999999" points="1236.5,-259 1183.5,-259 1183.5,-236 1236.5,-236 1236.5,-259"/>
<text text-anchor="middle" x="1210" y="-243.8" font-family="Arial" font-size="14.00">vector</text>
</a>
</g>
</g>
<!-- Node26&#45;&gt;Node31 -->
<g id="edge48_Node000026_Node000031" class="edge">
<title>Node26&#45;&gt;Node31</title>
<g id="a_edge48_Node000026_Node000031"><a xlink:title=" ">
<path fill="none" stroke="#63b8ff" d="M1128,-294.78C1143.23,-286.18 1164.84,-273.99 1182.05,-264.28"/>
<polygon fill="#63b8ff" stroke="#63b8ff" points="1184.1,-267.14 1191.09,-259.17 1180.66,-261.04 1184.1,-267.14"/>
</a>
</g>
</g>
<!-- Node27&#45;&gt;Node5 -->
<g id="edge39_Node000027_Node000005" class="edge">
<title>Node27&#45;&gt;Node5</title>
<g id="a_edge39_Node000027_Node000005"><a xlink:title=" ">
<path fill="none" stroke="#63b8ff" d="M1301.21,-235.98C1253.09,-226.39 1181.94,-212.21 1130.89,-202.03"/>
<polygon fill="#63b8ff" stroke="#63b8ff" points="1131.46,-198.58 1120.97,-200.06 1130.09,-205.44 1131.46,-198.58"/>
</a>
</g>
</g>
<!-- Node27&#45;&gt;Node7 -->
<g id="edge40_Node000027_Node000007" class="edge">
<title>Node27&#45;&gt;Node7</title>
<g id="a_edge40_Node000027_Node000007"><a xlink:title=" ">
<path fill="none" stroke="#63b8ff" d="M1293.23,-239.23C1222.45,-230.67 1101.75,-215.77 988,-200.12"/>
<polygon fill="#63b8ff" stroke="#63b8ff" points="988.46,-196.65 978.07,-198.74 987.5,-203.58 988.46,-196.65"/>
</a>
</g>
</g>
<!-- Node27&#45;&gt;Node8 -->
<g id="edge41_Node000027_Node000008" class="edge">
<title>Node27&#45;&gt;Node8</title>
<g id="a_edge41_Node000027_Node000008"><a xlink:title=" ">
<path fill="none" stroke="#63b8ff" d="M1329.85,-235.91C1309.42,-226.95 1279.93,-214.02 1257.27,-204.09"/>
<polygon fill="#63b8ff" stroke="#63b8ff" points="1258.58,-200.84 1248.02,-200.03 1255.77,-207.25 1258.58,-200.84"/>
</a>
</g>
</g>
<!-- Node27&#45;&gt;Node10 -->
<g id="edge43_Node000027_Node000010" class="edge">
<title>Node27&#45;&gt;Node10</title>
<g id="a_edge43_Node000027_Node000010"><a xlink:title=" ">
<path fill="none" stroke="#63b8ff" d="M1360.37,-235.82C1378.41,-204.07 1425.54,-109.34 1378,-59 1351.14,-30.56 762.04,-16.51 604.47,-13.25"/>
<polygon fill="#63b8ff" stroke="#63b8ff" points="604.37,-9.75 594.3,-13.04 604.23,-16.75 604.37,-9.75"/>
</a>
</g>
</g>
<!-- Node27&#45;&gt;Node19 -->
<g id="edge38_Node000027_Node000019" class="edge">
<title>Node27&#45;&gt;Node19</title>
<g id="a_edge38_Node000027_Node000019"><a xlink:title=" ">
<path fill="none" stroke="#63b8ff" d="M1346.57,-235.79C1335.1,-220.14 1311.48,-191.33 1284,-177 1121.21,-92.1 901.83,-74.35 784.72,-71.36"/>
<polygon fill="#63b8ff" stroke="#63b8ff" points="784.48,-67.85 774.4,-71.12 784.32,-74.85 784.48,-67.85"/>
</a>
</g>
</g>
<!-- Node27&#45;&gt;Node20 -->
<g id="edge42_Node000027_Node000020" class="edge">
<title>Node27&#45;&gt;Node20</title>
<g id="a_edge42_Node000027_Node000020"><a xlink:title=" ">
<path fill="none" stroke="#63b8ff" d="M1353.21,-235.82C1351.1,-207.44 1345.33,-129.78 1342.54,-92.29"/>
<polygon fill="#63b8ff" stroke="#63b8ff" points="1346.01,-91.76 1341.78,-82.04 1339.03,-92.28 1346.01,-91.76"/>
</a>
</g>
</g>
<!-- Node32&#45;&gt;Node30 -->
<g id="edge54_Node000032_Node000030" class="edge">
<title>Node32&#45;&gt;Node30</title>
<g id="a_edge54_Node000032_Node000030"><a xlink:title=" ">
<path fill="none" stroke="#63b8ff" d="M1534.23,-294.78C1529.45,-287.22 1522.92,-276.87 1517.24,-267.88"/>
<polygon fill="#63b8ff" stroke="#63b8ff" points="1520.04,-265.76 1511.74,-259.17 1514.12,-269.5 1520.04,-265.76"/>
</a>
</g>
</g>
<!-- Node33 -->
<g id="Node000033" class="node">
<title>Node33</title>
<g id="a_Node000033"><a xlink:title=" ">
<polygon fill="#e0e0e0" stroke="#999999" points="1597.5,-259 1556.5,-259 1556.5,-236 1597.5,-236 1597.5,-259"/>
<text text-anchor="middle" x="1577" y="-243.8" font-family="Arial" font-size="14.00">new</text>
</a>
</g>
</g>
<!-- Node32&#45;&gt;Node33 -->
<g id="edge55_Node000032_Node000033" class="edge">
<title>Node32&#45;&gt;Node33</title>
<g id="a_edge55_Node000032_Node000033"><a xlink:title=" ">
<path fill="none" stroke="#63b8ff" d="M1547.77,-294.78C1552.55,-287.22 1559.08,-276.87 1564.76,-267.88"/>
<polygon fill="#63b8ff" stroke="#63b8ff" points="1567.88,-269.5 1570.26,-259.17 1561.96,-265.76 1567.88,-269.5"/>
</a>
</g>
</g>
<!-- Node34 -->
<g id="Node000034" class="node">
<title>Node34</title>
<g id="a_Node000034"><a xlink:title=" ">
<polygon fill="#e0e0e0" stroke="#999999" points="1662.5,-259 1615.5,-259 1615.5,-236 1662.5,-236 1662.5,-259"/>
<text text-anchor="middle" x="1639" y="-243.8" font-family="Arial" font-size="14.00">utility</text>
</a>
</g>
</g>
<!-- Node32&#45;&gt;Node34 -->
<g id="edge56_Node000032_Node000034" class="edge">
<title>Node32&#45;&gt;Node34</title>
<g id="a_edge56_Node000032_Node000034"><a xlink:title=" ">
<path fill="none" stroke="#63b8ff" d="M1559.43,-294.78C1574.22,-286.18 1595.18,-273.99 1611.88,-264.28"/>
<polygon fill="#63b8ff" stroke="#63b8ff" points="1613.77,-267.23 1620.65,-259.17 1610.25,-261.18 1613.77,-267.23"/>
</a>
</g>
</g>
</g>
</svg>

<g id="navigator" transform="translate(0 0)" fill="#404254">
  <rect fill="#f2f5e9" fill-opacity="0.5" stroke="#606060" stroke-width=".5" x="0" y="0" width="60" height="60"/>
  <use id="zoomplus" xlink:href="#zoomPlus" x="17" y="9" onmousedown="handleZoom(evt,'in')"/>
  <use id="zoomminus" xlink:href="#zoomMin" x="42" y="9" onmousedown="handleZoom(evt,'out')"/>
  <use id="reset" xlink:href="#resetDef" x="30" y="36" onmousedown="handleReset()"/>
   <use id="arrowup" xlink:href="#arrowUp" x="0" y="0" onmousedown="handlePan(0,-1)"/>
  <use id="arrowright" xlink:href="#arrowRight" x="0" y="0" onmousedown="handlePan(1,0)"/>
  <use id="arrowdown" xlink:href="#arrowDown" x="0" y="0" onmousedown="handlePan(0,1)"/>
  <use id="arrowleft" xlink:href="#arrowLeft" x="0" y="0" onmousedown="handlePan(-1,0)"/>
</g>
<svg viewBox="0 0 15 15" width="100%" height="30px" preserveAspectRatio="xMaxYMin meet">
 <g id="arrow_out" transform="scale(0.3 0.3)">
  <a xlink:href="LoggerComprehensiveTest_8cpp__incl_org.svg" target="_base">
   <rect id="button" ry="5" rx="5" y="6" x="6" height="38" width="38"
        fill="#f2f5e9" fill-opacity="0.5" stroke="#606060" stroke-width="1.0"/>
   <path id="arrow"
     d="M 11.500037,31.436501 C 11.940474,20.09759 22.043105,11.32322 32.158766,21.979434 L 37.068811,17.246167 C 37.068811,17.246167 37.088388,32 37.088388,32 L 22.160133,31.978069 C 22.160133,31.978069 26.997745,27.140456 26.997745,27.140456 C 18.528582,18.264221 13.291696,25.230495 11.500037,31.436501 z"
     style="fill:#404040;"/>
  </a>
 </g>
</svg>

<style type='text/css'>
<![CDATA[
[data-mouse-over-selected='false'] { opacity: 0.7; }
[data-mouse-over-selected='true']  { opacity: 1.0; }
]]>
</style>
<script type="application/ecmascript"><![CDATA[
document.addEventListener('DOMContentLoaded', (event) => {
  highlightEdges();
  highlightAdjacentNodes();
});
]]></script>
</svg>
