<?xml version="1.0" encoding="UTF-8" standalone="no"?>
<!DOCTYPE svg PUBLIC "-//W3C//DTD SVG 1.1//EN"
 "http://www.w3.org/Graphics/SVG/1.1/DTD/svg11.dtd">
<!-- Generated by graphviz version 2.43.0 (0)
 -->
<!-- Title: examples/esp32/main/LoggerComprehensiveTest.cpp Pages: 1 -->
<!--zoomable 400 -->

<svg id="main" version="1.1" xmlns="http://www.w3.org/2000/svg" xmlns:xlink="http://www.w3.org/1999/xlink" xml:space="preserve" onload="init(evt)">
<style type="text/css"><![CDATA[
.node, .edge {opacity: 0.7;}
.node.selected, .edge.selected {opacity: 1;}
.edge:hover path { stroke: red; }
.edge:hover polygon { stroke: red; fill: red; }
]]></style>

<defs>
  <circle id="rim" cx="0" cy="0" r="7"/>
  <circle id="rim2" cx="0" cy="0" r="3.5"/>
  <g id="zoomPlus">
    <use xlink:href="#rim" fill="#404040"><set attributeName="fill" to="#808080" begin="zoomplus.mouseover" end="zoomplus.mouseout"/></use>
    <path d="M-4,0h8M0,-4v8" fill="none" stroke="white" stroke-width="1.5" pointer-events="none"/>
  </g>
  <g id="zoomMin">
    <use xlink:href="#rim" fill="#404040"><set attributeName="fill" to="#808080" begin="zoomminus.mouseover" end="zoomminus.mouseout"/></use>
    <path d="M-4,0h8" fill="none" stroke="white" stroke-width="1.5" pointer-events="none"/>
  </g>
  <g id="arrowUp" transform="translate(30 24)">
    <use xlink:href="#rim"/>
    <path pointer-events="none" fill="none" stroke="white" stroke-width="1.5" d="M0,-3.0v7 M-2.5,-0.5L0,-3.0L2.5,-0.5"/>
  </g>
  <g id="arrowRight" transform="rotate(90) translate(36 -43)">
    <use xlink:href="#rim"/>
    <path pointer-events="none" fill="none" stroke="white" stroke-width="1.5" d="M0,-3.0v7 M-2.5,-0.5L0,-3.0L2.5,-0.5"/>
  </g>
  <g id="arrowDown" transform="rotate(180) translate(-30 -48)">
    <use xlink:href="#rim"/>
    <path pointer-events="none" fill="none" stroke="white" stroke-width="1.5" d="M0,-3.0v7 M-2.5,-0.5L0,-3.0L2.5,-0.5"/>
  </g>
  <g id="arrowLeft" transform="rotate(270) translate(-36 17)">
    <use xlink:href="#rim"/>
    <path pointer-events="none" fill="none" stroke="white" stroke-width="1.5" d="M0,-3.0v7 M-2.5,-0.5L0,-3.0L2.5,-0.5"/>
  </g>
  <g id="resetDef">
    <use xlink:href="#rim2" fill="#404040"><set attributeName="fill" to="#808080" begin="reset.mouseover" end="reset.mouseout"/></use>
  </g>
</defs>
<script type="application/ecmascript">
var viewWidth = 1443;
var viewHeight = 400;
var sectionId = 'dynsection-0';
</script>
<script type="application/ecmascript" xlink:href="svg.min.js"/>
<svg id="graph" class="graph">
<g id="viewport">
<title>examples/esp32/main/LoggerComprehensiveTest.cpp</title>
<!-- Node1 -->
<g id="Node000001" class="node">
<title>Node1</title>
<g id="a_Node000001"><a xlink:title="Comprehensive Logger testing suite for ESP32&#45;C6 DevKit&#45;M&#45;1 (noexcept)">
<polygon fill="#999999" stroke="#666666" points="1193,-392 985,-392 985,-354 1193,-354 1193,-392"/>
<text text-anchor="start" x="993" y="-376.8" font-family="Arial" font-size="14.00">examples/esp32/main</text>
<text text-anchor="middle" x="1089" y="-361.8" font-family="Arial" font-size="14.00">/LoggerComprehensiveTest.cpp</text>
</a>
</g>
</g>
<!-- Node2 -->
<g id="Node000002" class="node">
<title>Node2</title>
<g id="a_Node000002"><a xlink:href="TestFramework_8h.html" target="_top" xlink:title="Shared testing framework for ESP32&#45;C6 comprehensive test suites.">
<polygon fill="white" stroke="#666666" points="574.5,-318 453.5,-318 453.5,-295 574.5,-295 574.5,-318"/>
<text text-anchor="middle" x="514" y="-302.8" font-family="Arial" font-size="14.00">TestFramework.h</text>
</a>
</g>
</g>
<!-- Node1&#45;&gt;Node2 -->
<g id="edge1_Node000001_Node000002" class="edge">
<title>Node1&#45;&gt;Node2</title>
<g id="a_edge1_Node000001_Node000002"><a xlink:title=" ">
<path fill="none" stroke="#63b8ff" d="M984.87,-360.32C868.95,-347.32 684.76,-326.65 584.56,-315.42"/>
<polygon fill="#63b8ff" stroke="#63b8ff" points="584.87,-311.93 574.54,-314.29 584.09,-318.88 584.87,-311.93"/>
</a>
</g>
</g>
<!-- Node22 -->
<g id="Node000022" class="node">
<title>Node22</title>
<g id="a_Node000022"><a xlink:href="BaseLogger_8h.html" target="_top" xlink:title="Unified logging base class for all logging implementations.">
<polygon fill="white" stroke="#666666" points="778.5,-141 645.5,-141 645.5,-118 778.5,-118 778.5,-141"/>
<text text-anchor="middle" x="712" y="-125.8" font-family="Arial" font-size="14.00">base/BaseLogger.h</text>
</a>
</g>
</g>
<!-- Node1&#45;&gt;Node22 -->
<g id="edge28_Node000001_Node000022" class="edge">
<title>Node1&#45;&gt;Node22</title>
<g id="a_edge28_Node000001_Node000022"><a xlink:title=" ">
<path fill="none" stroke="#63b8ff" d="M1075.66,-353.9C1053.95,-325.51 1008.4,-270.22 959,-236 895.26,-191.85 810.11,-160.54 758.26,-144.02"/>
<polygon fill="#63b8ff" stroke="#63b8ff" points="759.25,-140.67 748.66,-141.01 757.16,-147.34 759.25,-140.67"/>
</a>
</g>
</g>
<!-- Node25 -->
<g id="Node000025" class="node">
<title>Node25</title>
<g id="a_Node000025"><a xlink:title=" ">
<polygon fill="#e0e0e0" stroke="#999999" points="1146,-82 1096,-82 1096,-59 1146,-59 1146,-82"/>
<text text-anchor="middle" x="1121" y="-66.8" font-family="Arial" font-size="14.00">string</text>
</a>
</g>
</g>
<!-- Node1&#45;&gt;Node25 -->
<g id="edge49_Node000001_Node000025" class="edge">
<title>Node1&#45;&gt;Node25</title>
<g id="a_edge49_Node000001_Node000025"><a xlink:title=" ">
<path fill="none" stroke="#63b8ff" d="M1128.18,-353.97C1165.16,-333.95 1215,-297.82 1215,-248.5 1215,-248.5 1215,-248.5 1215,-187.5 1215,-155.48 1215.16,-143.66 1196,-118 1185.62,-104.1 1169.76,-93.4 1155.29,-85.79"/>
<polygon fill="#63b8ff" stroke="#63b8ff" points="1156.57,-82.52 1146.05,-81.23 1153.47,-88.8 1156.57,-82.52"/>
</a>
</g>
</g>
<!-- Node26 -->
<g id="Node000026" class="node">
<title>Node26</title>
<g id="a_Node000026"><a xlink:href="EspLogger_8h.html" target="_top" xlink:title="ESP32&#45;specific logger implementation for the HardFOC system.">
<polygon fill="white" stroke="#666666" points="1170.5,-200 1007.5,-200 1007.5,-177 1170.5,-177 1170.5,-200"/>
<text text-anchor="middle" x="1089" y="-184.8" font-family="Arial" font-size="14.00">mcu/esp32/EspLogger.h</text>
</a>
</g>
</g>
<!-- Node1&#45;&gt;Node26 -->
<g id="edge35_Node000001_Node000026" class="edge">
<title>Node1&#45;&gt;Node26</title>
<g id="a_edge35_Node000001_Node000026"><a xlink:title=" ">
<path fill="none" stroke="#63b8ff" d="M1089,-353.83C1089,-319.83 1089,-246.74 1089,-210.61"/>
<polygon fill="#63b8ff" stroke="#63b8ff" points="1092.5,-210.27 1089,-200.27 1085.5,-210.27 1092.5,-210.27"/>
</a>
</g>
</g>
<!-- Node32 -->
<g id="Node000032" class="node">
<title>Node32</title>
<g id="a_Node000032"><a xlink:href="memory__utils_8h.html" target="_top" xlink:title="Memory management utilities for exception&#45;free design.">
<polygon fill="white" stroke="#666666" points="1400.5,-200 1263.5,-200 1263.5,-177 1400.5,-177 1400.5,-200"/>
<text text-anchor="middle" x="1332" y="-184.8" font-family="Arial" font-size="14.00">utils/memory_utils.h</text>
</a>
</g>
</g>
<!-- Node1&#45;&gt;Node32 -->
<g id="edge45_Node000001_Node000032" class="edge">
<title>Node1&#45;&gt;Node32</title>
<g id="a_edge45_Node000001_Node000032"><a xlink:title=" ">
<path fill="none" stroke="#63b8ff" d="M1156.75,-353.92C1180.97,-345.45 1207.55,-333.69 1229,-318 1270.49,-287.65 1304.51,-236.54 1321.08,-208.81"/>
<polygon fill="#63b8ff" stroke="#63b8ff" points="1324.18,-210.45 1326.2,-200.05 1318.14,-206.92 1324.18,-210.45"/>
</a>
</g>
</g>
<!-- Node3 -->
<g id="Node000003" class="node">
<title>Node3</title>
<g id="a_Node000003"><a xlink:title=" ">
<polygon fill="#e0e0e0" stroke="#999999" points="551.5,-259 476.5,-259 476.5,-236 551.5,-236 551.5,-259"/>
<text text-anchor="middle" x="514" y="-243.8" font-family="Arial" font-size="14.00">esp_log.h</text>
</a>
</g>
</g>
<!-- Node2&#45;&gt;Node3 -->
<g id="edge2_Node000002_Node000003" class="edge">
<title>Node2&#45;&gt;Node3</title>
<g id="a_edge2_Node000002_Node000003"><a xlink:title=" ">
<path fill="none" stroke="#63b8ff" d="M514,-294.78C514,-287.61 514,-277.95 514,-269.31"/>
<polygon fill="#63b8ff" stroke="#63b8ff" points="517.5,-269.17 514,-259.17 510.5,-269.17 517.5,-269.17"/>
</a>
</g>
</g>
<!-- Node4 -->
<g id="Node000004" class="node">
<title>Node4</title>
<g id="a_Node000004"><a xlink:title=" ">
<polygon fill="#e0e0e0" stroke="#999999" points="656.5,-259 569.5,-259 569.5,-236 656.5,-236 656.5,-259"/>
<text text-anchor="middle" x="613" y="-243.8" font-family="Arial" font-size="14.00">esp_timer.h</text>
</a>
</g>
</g>
<!-- Node2&#45;&gt;Node4 -->
<g id="edge3_Node000002_Node000004" class="edge">
<title>Node2&#45;&gt;Node4</title>
<g id="a_edge3_Node000002_Node000004"><a xlink:title=" ">
<path fill="none" stroke="#63b8ff" d="M532.62,-294.78C547.56,-286.18 568.73,-273.99 585.6,-264.28"/>
<polygon fill="#63b8ff" stroke="#63b8ff" points="587.54,-267.2 594.46,-259.17 584.05,-261.13 587.54,-267.2"/>
</a>
</g>
</g>
<!-- Node5 -->
<g id="Node000005" class="node">
<title>Node5</title>
<g id="a_Node000005"><a xlink:title=" ">
<polygon fill="#e0e0e0" stroke="#999999" points="817.5,-259 674.5,-259 674.5,-236 817.5,-236 817.5,-259"/>
<text text-anchor="middle" x="746" y="-243.8" font-family="Arial" font-size="14.00">freertos/FreeRTOS.h</text>
</a>
</g>
</g>
<!-- Node2&#45;&gt;Node5 -->
<g id="edge4_Node000002_Node000005" class="edge">
<title>Node2&#45;&gt;Node5</title>
<g id="a_edge4_Node000002_Node000005"><a xlink:title=" ">
<path fill="none" stroke="#63b8ff" d="M556.82,-294.98C595.29,-285.53 651.89,-271.62 693.16,-261.48"/>
<polygon fill="#63b8ff" stroke="#63b8ff" points="694.16,-264.84 703.03,-259.06 692.49,-258.04 694.16,-264.84"/>
</a>
</g>
</g>
<!-- Node6 -->
<g id="Node000006" class="node">
<title>Node6</title>
<g id="a_Node000006"><a xlink:title=" ">
<polygon fill="#e0e0e0" stroke="#999999" points="950.5,-259 835.5,-259 835.5,-236 950.5,-236 950.5,-259"/>
<text text-anchor="middle" x="893" y="-243.8" font-family="Arial" font-size="14.00">freertos/queue.h</text>
</a>
</g>
</g>
<!-- Node2&#45;&gt;Node6 -->
<g id="edge5_Node000002_Node000006" class="edge">
<title>Node2&#45;&gt;Node6</title>
<g id="a_edge5_Node000002_Node000006"><a xlink:title=" ">
<path fill="none" stroke="#63b8ff" d="M574.71,-296.59C635.45,-287.64 731.84,-273.36 825.35,-259.09"/>
<polygon fill="#63b8ff" stroke="#63b8ff" points="825.9,-262.55 835.26,-257.58 824.85,-255.63 825.9,-262.55"/>
</a>
</g>
</g>
<!-- Node7 -->
<g id="Node000007" class="node">
<title>Node7</title>
<g id="a_Node000007"><a xlink:title=" ">
<polygon fill="#e0e0e0" stroke="#999999" points="122,-259 0,-259 0,-236 122,-236 122,-259"/>
<text text-anchor="middle" x="61" y="-243.8" font-family="Arial" font-size="14.00">freertos/semphr.h</text>
</a>
</g>
</g>
<!-- Node2&#45;&gt;Node7 -->
<g id="edge6_Node000002_Node000007" class="edge">
<title>Node2&#45;&gt;Node7</title>
<g id="a_edge6_Node000002_Node000007"><a xlink:title=" ">
<path fill="none" stroke="#63b8ff" d="M453.24,-298.66C379.71,-290.26 251.89,-275.27 132.15,-259.13"/>
<polygon fill="#63b8ff" stroke="#63b8ff" points="132.45,-255.64 122.07,-257.76 131.51,-262.57 132.45,-255.64"/>
</a>
</g>
</g>
<!-- Node8 -->
<g id="Node000008" class="node">
<title>Node8</title>
<g id="a_Node000008"><a xlink:title=" ">
<polygon fill="#e0e0e0" stroke="#999999" points="242,-259 140,-259 140,-236 242,-236 242,-259"/>
<text text-anchor="middle" x="191" y="-243.8" font-family="Arial" font-size="14.00">freertos/task.h</text>
</a>
</g>
</g>
<!-- Node2&#45;&gt;Node8 -->
<g id="edge7_Node000002_Node000008" class="edge">
<title>Node2&#45;&gt;Node8</title>
<g id="a_edge7_Node000002_Node000008"><a xlink:title=" ">
<path fill="none" stroke="#63b8ff" d="M454.38,-294.98C396.86,-284.83 310.2,-269.53 252.16,-259.29"/>
<polygon fill="#63b8ff" stroke="#63b8ff" points="252.49,-255.8 242.03,-257.51 251.27,-262.69 252.49,-255.8"/>
</a>
</g>
</g>
<!-- Node9 -->
<g id="Node000009" class="node">
<title>Node9</title>
<g id="a_Node000009"><a xlink:href="HardwareTypes_8h.html" target="_top" xlink:title="Platform&#45;agnostic hardware type definitions for the HardFOC system.">
<polygon fill="white" stroke="#666666" points="481,-82 359,-82 359,-59 481,-59 481,-82"/>
<text text-anchor="middle" x="420" y="-66.8" font-family="Arial" font-size="14.00">HardwareTypes.h</text>
</a>
</g>
</g>
<!-- Node2&#45;&gt;Node9 -->
<g id="edge8_Node000002_Node000009" class="edge">
<title>Node2&#45;&gt;Node9</title>
<g id="a_edge8_Node000002_Node000009"><a xlink:title=" ">
<path fill="none" stroke="#63b8ff" d="M453.47,-300.1C397.16,-293.77 318.9,-281.21 298,-259 272.87,-232.3 273.9,-210.41 289,-177 308.32,-134.25 354.97,-103.61 387.05,-86.72"/>
<polygon fill="#63b8ff" stroke="#63b8ff" points="388.76,-89.77 396.09,-82.12 385.59,-83.53 388.76,-89.77"/>
</a>
</g>
</g>
<!-- Node12 -->
<g id="Node000012" class="node">
<title>Node12</title>
<g id="a_Node000012"><a xlink:href="EspGpio_8h.html" target="_top" xlink:title="Advanced MCU&#45;specific implementation of the unified BaseGpio class with ESP32/ESP&#45;IDF v5....">
<polygon fill="white" stroke="#666666" points="458.5,-259 307.5,-259 307.5,-236 458.5,-236 458.5,-259"/>
<text text-anchor="middle" x="383" y="-243.8" font-family="Arial" font-size="14.00">mcu/esp32/EspGpio.h</text>
</a>
</g>
</g>
<!-- Node2&#45;&gt;Node12 -->
<g id="edge11_Node000002_Node000012" class="edge">
<title>Node2&#45;&gt;Node12</title>
<g id="a_edge11_Node000002_Node000012"><a xlink:title=" ">
<path fill="none" stroke="#63b8ff" d="M489.67,-294.91C469.08,-285.95 439.36,-273.02 416.52,-263.09"/>
<polygon fill="#63b8ff" stroke="#63b8ff" points="417.77,-259.81 407.2,-259.03 414.98,-266.23 417.77,-259.81"/>
</a>
</g>
</g>
<!-- Node10 -->
<g id="Node000010" class="node">
<title>Node10</title>
<g id="a_Node000010"><a xlink:title=" ">
<polygon fill="#e0e0e0" stroke="#999999" points="575,-23 519,-23 519,0 575,0 575,-23"/>
<text text-anchor="middle" x="547" y="-7.8" font-family="Arial" font-size="14.00">cstdint</text>
</a>
</g>
</g>
<!-- Node9&#45;&gt;Node10 -->
<g id="edge9_Node000009_Node000010" class="edge">
<title>Node9&#45;&gt;Node10</title>
<g id="a_edge9_Node000009_Node000010"><a xlink:title=" ">
<path fill="none" stroke="#63b8ff" d="M443.59,-58.91C463.46,-49.99 492.1,-37.14 514.2,-27.22"/>
<polygon fill="#63b8ff" stroke="#63b8ff" points="515.85,-30.32 523.54,-23.03 512.98,-23.93 515.85,-30.32"/>
</a>
</g>
</g>
<!-- Node11 -->
<g id="Node000011" class="node">
<title>Node11</title>
<g id="a_Node000011"><a xlink:title=" ">
<polygon fill="#e0e0e0" stroke="#999999" points="444,-23 396,-23 396,0 444,0 444,-23"/>
<text text-anchor="middle" x="420" y="-7.8" font-family="Arial" font-size="14.00">limits</text>
</a>
</g>
</g>
<!-- Node9&#45;&gt;Node11 -->
<g id="edge10_Node000009_Node000011" class="edge">
<title>Node9&#45;&gt;Node11</title>
<g id="a_edge10_Node000009_Node000011"><a xlink:title=" ">
<path fill="none" stroke="#63b8ff" d="M420,-58.78C420,-51.61 420,-41.95 420,-33.31"/>
<polygon fill="#63b8ff" stroke="#63b8ff" points="423.5,-33.17 420,-23.17 416.5,-33.17 423.5,-33.17"/>
</a>
</g>
</g>
<!-- Node13 -->
<g id="Node000013" class="node">
<title>Node13</title>
<g id="a_Node000013"><a xlink:title=" ">
<polygon fill="#e0e0e0" stroke="#999999" points="575.5,-200 484.5,-200 484.5,-177 575.5,-177 575.5,-200"/>
<text text-anchor="middle" x="530" y="-184.8" font-family="Arial" font-size="14.00">driver/gpio.h</text>
</a>
</g>
</g>
<!-- Node12&#45;&gt;Node13 -->
<g id="edge12_Node000012_Node000013" class="edge">
<title>Node12&#45;&gt;Node13</title>
<g id="a_edge12_Node000012_Node000013"><a xlink:title=" ">
<path fill="none" stroke="#63b8ff" d="M410.31,-235.91C433.72,-226.83 467.65,-213.68 493.41,-203.69"/>
<polygon fill="#63b8ff" stroke="#63b8ff" points="494.78,-206.91 502.84,-200.03 492.25,-200.38 494.78,-206.91"/>
</a>
</g>
</g>
<!-- Node14 -->
<g id="Node000014" class="node">
<title>Node14</title>
<g id="a_Node000014"><a xlink:title=" ">
<polygon fill="#e0e0e0" stroke="#999999" points="670,-200 594,-200 594,-177 670,-177 670,-200"/>
<text text-anchor="middle" x="632" y="-184.8" font-family="Arial" font-size="14.00">esp_attr.h</text>
</a>
</g>
</g>
<!-- Node12&#45;&gt;Node14 -->
<g id="edge13_Node000012_Node000014" class="edge">
<title>Node12&#45;&gt;Node14</title>
<g id="a_edge13_Node000012_Node000014"><a xlink:title=" ">
<path fill="none" stroke="#63b8ff" d="M428.96,-235.98C472.99,-225.9 539.16,-210.75 583.89,-200.51"/>
<polygon fill="#63b8ff" stroke="#63b8ff" points="584.68,-203.92 593.65,-198.28 583.12,-197.1 584.68,-203.92"/>
</a>
</g>
</g>
<!-- Node15 -->
<g id="Node000015" class="node">
<title>Node15</title>
<g id="a_Node000015"><a xlink:href="BaseGpio_8h.html" target="_top" xlink:title="Unified GPIO base class for all digital GPIO implementations.">
<polygon fill="white" stroke="#666666" points="606,-141 518,-141 518,-118 606,-118 606,-141"/>
<text text-anchor="middle" x="562" y="-125.8" font-family="Arial" font-size="14.00">BaseGpio.h</text>
</a>
</g>
</g>
<!-- Node12&#45;&gt;Node15 -->
<g id="edge14_Node000012_Node000015" class="edge">
<title>Node12&#45;&gt;Node15</title>
<g id="a_edge14_Node000012_Node000015"><a xlink:title=" ">
<path fill="none" stroke="#63b8ff" d="M395.64,-235.94C412.96,-221.71 445.32,-195.98 475,-177 492.85,-165.59 513.77,-154.34 530.62,-145.77"/>
<polygon fill="#63b8ff" stroke="#63b8ff" points="532.65,-148.67 540.01,-141.05 529.51,-142.41 532.65,-148.67"/>
</a>
</g>
</g>
<!-- Node17 -->
<g id="Node000017" class="node">
<title>Node17</title>
<g id="a_Node000017"><a xlink:href="EspTypes__GPIO_8h.html" target="_top" xlink:title="ESP32 GPIO type definitions for hardware abstraction.">
<polygon fill="white" stroke="#666666" points="428,-200 298,-200 298,-177 428,-177 428,-200"/>
<text text-anchor="middle" x="363" y="-184.8" font-family="Arial" font-size="14.00">EspTypes_GPIO.h</text>
</a>
</g>
</g>
<!-- Node12&#45;&gt;Node17 -->
<g id="edge18_Node000012_Node000017" class="edge">
<title>Node12&#45;&gt;Node17</title>
<g id="a_edge18_Node000012_Node000017"><a xlink:title=" ">
<path fill="none" stroke="#63b8ff" d="M379.24,-235.78C376.67,-228.45 373.18,-218.52 370.1,-209.74"/>
<polygon fill="#63b8ff" stroke="#63b8ff" points="373.36,-208.45 366.74,-200.17 366.75,-210.77 373.36,-208.45"/>
</a>
</g>
</g>
<!-- Node21 -->
<g id="Node000021" class="node">
<title>Node21</title>
<g id="a_Node000021"><a xlink:title=" ">
<polygon fill="#e0e0e0" stroke="#999999" points="744,-200 688,-200 688,-177 744,-177 744,-200"/>
<text text-anchor="middle" x="716" y="-184.8" font-family="Arial" font-size="14.00">stdio.h</text>
</a>
</g>
</g>
<!-- Node12&#45;&gt;Node21 -->
<g id="edge27_Node000012_Node000021" class="edge">
<title>Node12&#45;&gt;Node21</title>
<g id="a_edge27_Node000012_Node000021"><a xlink:title=" ">
<path fill="none" stroke="#63b8ff" d="M456.77,-235.95C525.65,-225.93 624.53,-211.04 677.79,-200.03"/>
<polygon fill="#63b8ff" stroke="#63b8ff" points="678.76,-203.4 687.81,-197.88 677.3,-196.55 678.76,-203.4"/>
</a>
</g>
</g>
<!-- Node15&#45;&gt;Node9 -->
<g id="edge15_Node000015_Node000009" class="edge">
<title>Node15&#45;&gt;Node9</title>
<g id="a_edge15_Node000015_Node000009"><a xlink:title=" ">
<path fill="none" stroke="#63b8ff" d="M535.62,-117.91C513.11,-108.87 480.52,-95.79 455.68,-85.82"/>
<polygon fill="#63b8ff" stroke="#63b8ff" points="456.82,-82.51 446.24,-82.03 454.21,-89 456.82,-82.51"/>
</a>
</g>
</g>
<!-- Node15&#45;&gt;Node10 -->
<g id="edge16_Node000015_Node000010" class="edge">
<title>Node15&#45;&gt;Node10</title>
<g id="a_edge16_Node000015_Node000010"><a xlink:title=" ">
<path fill="none" stroke="#63b8ff" d="M560.62,-117.79C558.14,-98.63 552.9,-58.15 549.7,-33.34"/>
<polygon fill="#63b8ff" stroke="#63b8ff" points="553.13,-32.65 548.38,-23.18 546.19,-33.55 553.13,-32.65"/>
</a>
</g>
</g>
<!-- Node16 -->
<g id="Node000016" class="node">
<title>Node16</title>
<g id="a_Node000016"><a xlink:title=" ">
<polygon fill="#e0e0e0" stroke="#999999" points="659,-82 575,-82 575,-59 659,-59 659,-82"/>
<text text-anchor="middle" x="617" y="-66.8" font-family="Arial" font-size="14.00">string_view</text>
</a>
</g>
</g>
<!-- Node15&#45;&gt;Node16 -->
<g id="edge17_Node000015_Node000016" class="edge">
<title>Node15&#45;&gt;Node16</title>
<g id="a_edge17_Node000015_Node000016"><a xlink:title=" ">
<path fill="none" stroke="#63b8ff" d="M572.35,-117.78C580.03,-109.82 590.68,-98.77 599.66,-89.47"/>
<polygon fill="#63b8ff" stroke="#63b8ff" points="602.28,-91.8 606.7,-82.17 597.24,-86.94 602.28,-91.8"/>
</a>
</g>
</g>
<!-- Node17&#45;&gt;Node9 -->
<g id="edge25_Node000017_Node000009" class="edge">
<title>Node17&#45;&gt;Node9</title>
<g id="a_edge25_Node000017_Node000009"><a xlink:title=" ">
<path fill="none" stroke="#63b8ff" d="M360.76,-176.99C358.29,-162.81 355.78,-137.14 365,-118 370.85,-105.85 381.53,-95.69 391.93,-88"/>
<polygon fill="#63b8ff" stroke="#63b8ff" points="394.22,-90.67 400.49,-82.12 390.26,-84.89 394.22,-90.67"/>
</a>
</g>
</g>
<!-- Node17&#45;&gt;Node15 -->
<g id="edge19_Node000017_Node000015" class="edge">
<title>Node17&#45;&gt;Node15</title>
<g id="a_edge19_Node000017_Node000015"><a xlink:title=" ">
<path fill="none" stroke="#63b8ff" d="M399.96,-176.91C432.5,-167.59 480.03,-153.98 515.2,-143.9"/>
<polygon fill="#63b8ff" stroke="#63b8ff" points="516.58,-147.15 525.23,-141.03 514.66,-140.42 516.58,-147.15"/>
</a>
</g>
</g>
<!-- Node18 -->
<g id="Node000018" class="node">
<title>Node18</title>
<g id="a_Node000018"><a xlink:href="EspTypes__Base_8h.html" target="_top" xlink:title="ESP32 base type definitions for hardware abstraction.">
<polygon fill="white" stroke="#666666" points="499.5,-141 374.5,-141 374.5,-118 499.5,-118 499.5,-141"/>
<text text-anchor="middle" x="437" y="-125.8" font-family="Arial" font-size="14.00">EspTypes_Base.h</text>
</a>
</g>
</g>
<!-- Node17&#45;&gt;Node18 -->
<g id="edge20_Node000017_Node000018" class="edge">
<title>Node17&#45;&gt;Node18</title>
<g id="a_edge20_Node000017_Node000018"><a xlink:title=" ">
<path fill="none" stroke="#63b8ff" d="M376.92,-176.78C387.67,-168.5 402.75,-156.89 415.11,-147.36"/>
<polygon fill="#63b8ff" stroke="#63b8ff" points="417.36,-150.05 423.14,-141.17 413.09,-144.5 417.36,-150.05"/>
</a>
</g>
</g>
<!-- Node19 -->
<g id="Node000019" class="node">
<title>Node19</title>
<g id="a_Node000019"><a xlink:href="McuSelect_8h.html" target="_top" xlink:title="Centralized MCU platform selection and configuration header.">
<polygon fill="white" stroke="#666666" points="341,-82 199,-82 199,-59 341,-59 341,-82"/>
<text text-anchor="middle" x="270" y="-66.8" font-family="Arial" font-size="14.00">../../utils/McuSelect.h</text>
</a>
</g>
</g>
<!-- Node17&#45;&gt;Node19 -->
<g id="edge26_Node000017_Node000019" class="edge">
<title>Node17&#45;&gt;Node19</title>
<g id="a_edge26_Node000017_Node000019"><a xlink:title=" ">
<path fill="none" stroke="#63b8ff" d="M354.42,-176.79C338.57,-157.03 304.54,-114.58 284.87,-90.04"/>
<polygon fill="#63b8ff" stroke="#63b8ff" points="287.55,-87.79 278.56,-82.18 282.09,-92.17 287.55,-87.79"/>
</a>
</g>
</g>
<!-- Node18&#45;&gt;Node9 -->
<g id="edge22_Node000018_Node000009" class="edge">
<title>Node18&#45;&gt;Node9</title>
<g id="a_edge22_Node000018_Node000009"><a xlink:title=" ">
<path fill="none" stroke="#63b8ff" d="M433.8,-117.78C431.64,-110.53 428.72,-100.74 426.12,-92.02"/>
<polygon fill="#63b8ff" stroke="#63b8ff" points="429.4,-90.76 423.18,-82.17 422.69,-92.76 429.4,-90.76"/>
</a>
</g>
</g>
<!-- Node18&#45;&gt;Node10 -->
<g id="edge24_Node000018_Node000010" class="edge">
<title>Node18&#45;&gt;Node10</title>
<g id="a_edge24_Node000018_Node000010"><a xlink:title=" ">
<path fill="none" stroke="#63b8ff" d="M450.17,-117.97C461.23,-108.89 477.23,-95.2 490,-82 505.63,-65.84 521.73,-45.85 532.81,-31.47"/>
<polygon fill="#63b8ff" stroke="#63b8ff" points="535.74,-33.39 539.01,-23.32 530.17,-29.15 535.74,-33.39"/>
</a>
</g>
</g>
<!-- Node18&#45;&gt;Node19 -->
<g id="edge21_Node000018_Node000019" class="edge">
<title>Node18&#45;&gt;Node19</title>
<g id="a_edge21_Node000018_Node000019"><a xlink:title=" ">
<path fill="none" stroke="#63b8ff" d="M405.98,-117.91C379.03,-108.71 339.82,-95.33 310.42,-85.29"/>
<polygon fill="#63b8ff" stroke="#63b8ff" points="311.45,-81.95 300.85,-82.03 309.19,-88.57 311.45,-81.95"/>
</a>
</g>
</g>
<!-- Node20 -->
<g id="Node000020" class="node">
<title>Node20</title>
<g id="a_Node000020"><a xlink:title=" ">
<polygon fill="#e0e0e0" stroke="#999999" points="944.5,-82 887.5,-82 887.5,-59 944.5,-59 944.5,-82"/>
<text text-anchor="middle" x="916" y="-66.8" font-family="Arial" font-size="14.00">atomic</text>
</a>
</g>
</g>
<!-- Node18&#45;&gt;Node20 -->
<g id="edge23_Node000018_Node000020" class="edge">
<title>Node18&#45;&gt;Node20</title>
<g id="a_edge23_Node000018_Node000020"><a xlink:title=" ">
<path fill="none" stroke="#63b8ff" d="M499.81,-119.2C502.92,-118.79 505.99,-118.38 509,-118 655.35,-99.35 692.56,-99.97 839,-82 851.33,-80.49 864.74,-78.71 876.87,-77.04"/>
<polygon fill="#63b8ff" stroke="#63b8ff" points="877.71,-80.46 887.14,-75.62 876.75,-73.53 877.71,-80.46"/>
</a>
</g>
</g>
<!-- Node22&#45;&gt;Node9 -->
<g id="edge29_Node000022_Node000009" class="edge">
<title>Node22&#45;&gt;Node9</title>
<g id="a_edge29_Node000022_Node000009"><a xlink:title=" ">
<path fill="none" stroke="#63b8ff" d="M658.1,-117.98C608.97,-108.39 536.33,-94.21 484.21,-84.03"/>
<polygon fill="#63b8ff" stroke="#63b8ff" points="484.56,-80.54 474.08,-82.06 483.22,-87.41 484.56,-80.54"/>
</a>
</g>
</g>
<!-- Node22&#45;&gt;Node10 -->
<g id="edge31_Node000022_Node000010" class="edge">
<title>Node22&#45;&gt;Node10</title>
<g id="a_edge31_Node000022_Node000010"><a xlink:title=" ">
<path fill="none" stroke="#63b8ff" d="M769.69,-117.9C814.05,-107.24 863.88,-88.16 839,-59 806.83,-21.3 657.07,-14.02 585.41,-12.71"/>
<polygon fill="#63b8ff" stroke="#63b8ff" points="585.07,-9.21 575.02,-12.56 584.96,-16.21 585.07,-9.21"/>
</a>
</g>
</g>
<!-- Node22&#45;&gt;Node16 -->
<g id="edge34_Node000022_Node000016" class="edge">
<title>Node22&#45;&gt;Node16</title>
<g id="a_edge34_Node000022_Node000016"><a xlink:title=" ">
<path fill="none" stroke="#63b8ff" d="M694.13,-117.78C679.93,-109.26 659.85,-97.21 643.74,-87.55"/>
<polygon fill="#63b8ff" stroke="#63b8ff" points="645.16,-84.32 634.79,-82.17 641.56,-90.32 645.16,-84.32"/>
</a>
</g>
</g>
<!-- Node23 -->
<g id="Node000023" class="node">
<title>Node23</title>
<g id="a_Node000023"><a xlink:title=" ">
<polygon fill="#e0e0e0" stroke="#999999" points="830.5,-82 769.5,-82 769.5,-59 830.5,-59 830.5,-82"/>
<text text-anchor="middle" x="800" y="-66.8" font-family="Arial" font-size="14.00">cstdarg</text>
</a>
</g>
</g>
<!-- Node22&#45;&gt;Node23 -->
<g id="edge30_Node000022_Node000023" class="edge">
<title>Node22&#45;&gt;Node23</title>
<g id="a_edge30_Node000022_Node000023"><a xlink:title=" ">
<path fill="none" stroke="#63b8ff" d="M728.55,-117.78C741.58,-109.34 759.96,-97.44 774.81,-87.82"/>
<polygon fill="#63b8ff" stroke="#63b8ff" points="777.03,-90.55 783.52,-82.17 773.23,-84.67 777.03,-90.55"/>
</a>
</g>
</g>
<!-- Node24 -->
<g id="Node000024" class="node">
<title>Node24</title>
<g id="a_Node000024"><a xlink:title=" ">
<polygon fill="#e0e0e0" stroke="#999999" points="751,-82 677,-82 677,-59 751,-59 751,-82"/>
<text text-anchor="middle" x="714" y="-66.8" font-family="Arial" font-size="14.00">functional</text>
</a>
</g>
</g>
<!-- Node22&#45;&gt;Node24 -->
<g id="edge32_Node000022_Node000024" class="edge">
<title>Node22&#45;&gt;Node24</title>
<g id="a_edge32_Node000022_Node000024"><a xlink:title=" ">
<path fill="none" stroke="#63b8ff" d="M712.38,-117.78C712.63,-110.61 712.97,-100.95 713.27,-92.31"/>
<polygon fill="#63b8ff" stroke="#63b8ff" points="716.77,-92.29 713.63,-82.17 709.78,-92.04 716.77,-92.29"/>
</a>
</g>
</g>
<!-- Node22&#45;&gt;Node25 -->
<g id="edge33_Node000022_Node000025" class="edge">
<title>Node22&#45;&gt;Node25</title>
<g id="a_edge33_Node000022_Node000025"><a xlink:title=" ">
<path fill="none" stroke="#63b8ff" d="M778.62,-119.22C866.29,-107 1017.22,-85.96 1085.56,-76.44"/>
<polygon fill="#63b8ff" stroke="#63b8ff" points="1086.37,-79.86 1095.79,-75.01 1085.4,-72.93 1086.37,-79.86"/>
</a>
</g>
</g>
<!-- Node26&#45;&gt;Node20 -->
<g id="edge40_Node000026_Node000020" class="edge">
<title>Node26&#45;&gt;Node20</title>
<g id="a_edge40_Node000026_Node000020"><a xlink:title=" ">
<path fill="none" stroke="#63b8ff" d="M1007.37,-178.36C934.58,-169.37 837.73,-154.99 826,-141 805.91,-117.05 845.12,-96.13 877.95,-83.66"/>
<polygon fill="#63b8ff" stroke="#63b8ff" points="879.21,-86.93 887.42,-80.22 876.83,-80.35 879.21,-86.93"/>
</a>
</g>
</g>
<!-- Node26&#45;&gt;Node22 -->
<g id="edge36_Node000026_Node000022" class="edge">
<title>Node26&#45;&gt;Node22</title>
<g id="a_edge36_Node000026_Node000022"><a xlink:title=" ">
<path fill="none" stroke="#63b8ff" d="M1019.41,-176.98C954.05,-167.1 856.44,-152.34 788.82,-142.11"/>
<polygon fill="#63b8ff" stroke="#63b8ff" points="789.06,-138.61 778.65,-140.58 788.01,-145.53 789.06,-138.61"/>
</a>
</g>
</g>
<!-- Node27 -->
<g id="Node000027" class="node">
<title>Node27</title>
<g id="a_Node000027"><a xlink:href="PlatformMutex_8h.html" target="_top" xlink:title="Cross&#45;platform mutex and synchronization primitives with pluggable backend.">
<polygon fill="white" stroke="#666666" points="1051,-141 907,-141 907,-118 1051,-118 1051,-141"/>
<text text-anchor="middle" x="979" y="-125.8" font-family="Arial" font-size="14.00">utils/PlatformMutex.h</text>
</a>
</g>
</g>
<!-- Node26&#45;&gt;Node27 -->
<g id="edge37_Node000026_Node000027" class="edge">
<title>Node26&#45;&gt;Node27</title>
<g id="a_edge37_Node000026_Node000027"><a xlink:title=" ">
<path fill="none" stroke="#63b8ff" d="M1068.57,-176.91C1051.67,-168.15 1027.44,-155.6 1008.44,-145.76"/>
<polygon fill="#63b8ff" stroke="#63b8ff" points="1009.81,-142.52 999.32,-141.03 1006.59,-148.74 1009.81,-142.52"/>
</a>
</g>
</g>
<!-- Node28 -->
<g id="Node000028" class="node">
<title>Node28</title>
<g id="a_Node000028"><a xlink:title=" ">
<polygon fill="#e0e0e0" stroke="#999999" points="1125,-141 1069,-141 1069,-118 1125,-118 1125,-141"/>
<text text-anchor="middle" x="1097" y="-125.8" font-family="Arial" font-size="14.00">cstring</text>
</a>
</g>
</g>
<!-- Node26&#45;&gt;Node28 -->
<g id="edge41_Node000026_Node000028" class="edge">
<title>Node26&#45;&gt;Node28</title>
<g id="a_edge41_Node000026_Node000028"><a xlink:title=" ">
<path fill="none" stroke="#63b8ff" d="M1090.5,-176.78C1091.51,-169.61 1092.87,-159.95 1094.08,-151.31"/>
<polygon fill="#63b8ff" stroke="#63b8ff" points="1097.58,-151.56 1095.5,-141.17 1090.65,-150.59 1097.58,-151.56"/>
</a>
</g>
</g>
<!-- Node29 -->
<g id="Node000029" class="node">
<title>Node29</title>
<g id="a_Node000029"><a xlink:title=" ">
<polygon fill="#e0e0e0" stroke="#999999" points="1187,-141 1143,-141 1143,-118 1187,-118 1187,-141"/>
<text text-anchor="middle" x="1165" y="-125.8" font-family="Arial" font-size="14.00">map</text>
</a>
</g>
</g>
<!-- Node26&#45;&gt;Node29 -->
<g id="edge42_Node000026_Node000029" class="edge">
<title>Node26&#45;&gt;Node29</title>
<g id="a_edge42_Node000026_Node000029"><a xlink:title=" ">
<path fill="none" stroke="#63b8ff" d="M1103.3,-176.78C1114.33,-168.5 1129.82,-156.89 1142.51,-147.36"/>
<polygon fill="#63b8ff" stroke="#63b8ff" points="1144.87,-149.97 1150.77,-141.17 1140.67,-144.37 1144.87,-149.97"/>
</a>
</g>
</g>
<!-- Node30 -->
<g id="Node000030" class="node">
<title>Node30</title>
<g id="a_Node000030"><a xlink:title=" ">
<polygon fill="#e0e0e0" stroke="#999999" points="1310.5,-141 1243.5,-141 1243.5,-118 1310.5,-118 1310.5,-141"/>
<text text-anchor="middle" x="1277" y="-125.8" font-family="Arial" font-size="14.00">memory</text>
</a>
</g>
</g>
<!-- Node26&#45;&gt;Node30 -->
<g id="edge43_Node000026_Node000030" class="edge">
<title>Node26&#45;&gt;Node30</title>
<g id="a_edge43_Node000026_Node000030"><a xlink:title=" ">
<path fill="none" stroke="#63b8ff" d="M1123.92,-176.91C1154.81,-167.55 1200.02,-153.84 1233.3,-143.75"/>
<polygon fill="#63b8ff" stroke="#63b8ff" points="1234.66,-146.99 1243.22,-140.74 1232.63,-140.3 1234.66,-146.99"/>
</a>
</g>
</g>
<!-- Node31 -->
<g id="Node000031" class="node">
<title>Node31</title>
<g id="a_Node000031"><a xlink:title=" ">
<polygon fill="#e0e0e0" stroke="#999999" points="888.5,-141 835.5,-141 835.5,-118 888.5,-118 888.5,-141"/>
<text text-anchor="middle" x="862" y="-125.8" font-family="Arial" font-size="14.00">vector</text>
</a>
</g>
</g>
<!-- Node26&#45;&gt;Node31 -->
<g id="edge44_Node000026_Node000031" class="edge">
<title>Node26&#45;&gt;Node31</title>
<g id="a_edge44_Node000026_Node000031"><a xlink:title=" ">
<path fill="none" stroke="#63b8ff" d="M1043.32,-176.99C1006.73,-168.43 953.86,-155.76 898.66,-141.1"/>
<polygon fill="#63b8ff" stroke="#63b8ff" points="899.26,-137.63 888.7,-138.43 897.46,-144.4 899.26,-137.63"/>
</a>
</g>
</g>
<!-- Node27&#45;&gt;Node10 -->
<g id="edge39_Node000027_Node000010" class="edge">
<title>Node27&#45;&gt;Node10</title>
<g id="a_edge39_Node000027_Node000010"><a xlink:title=" ">
<path fill="none" stroke="#63b8ff" d="M978.34,-117.8C976.76,-102.16 971.37,-73.36 953,-59 896.34,-14.71 674.82,-11.41 585.07,-11.95"/>
<polygon fill="#63b8ff" stroke="#63b8ff" points="585.02,-8.45 575.05,-12.03 585.08,-15.45 585.02,-8.45"/>
</a>
</g>
</g>
<!-- Node27&#45;&gt;Node20 -->
<g id="edge38_Node000027_Node000020" class="edge">
<title>Node27&#45;&gt;Node20</title>
<g id="a_edge38_Node000027_Node000020"><a xlink:title=" ">
<path fill="none" stroke="#63b8ff" d="M967.15,-117.78C958.17,-109.66 945.66,-98.33 935.25,-88.92"/>
<polygon fill="#63b8ff" stroke="#63b8ff" points="937.56,-86.29 927.8,-82.17 932.86,-91.48 937.56,-86.29"/>
</a>
</g>
</g>
<!-- Node32&#45;&gt;Node30 -->
<g id="edge46_Node000032_Node000030" class="edge">
<title>Node32&#45;&gt;Node30</title>
<g id="a_edge46_Node000032_Node000030"><a xlink:title=" ">
<path fill="none" stroke="#63b8ff" d="M1321.65,-176.78C1313.97,-168.82 1303.32,-157.77 1294.34,-148.47"/>
<polygon fill="#63b8ff" stroke="#63b8ff" points="1296.76,-145.94 1287.3,-141.17 1291.72,-150.8 1296.76,-145.94"/>
</a>
</g>
</g>
<!-- Node33 -->
<g id="Node000033" class="node">
<title>Node33</title>
<g id="a_Node000033"><a xlink:title=" ">
<polygon fill="#e0e0e0" stroke="#999999" points="1434.5,-141 1393.5,-141 1393.5,-118 1434.5,-118 1434.5,-141"/>
<text text-anchor="middle" x="1414" y="-125.8" font-family="Arial" font-size="14.00">new</text>
</a>
</g>
</g>
<!-- Node32&#45;&gt;Node33 -->
<g id="edge47_Node000032_Node000033" class="edge">
<title>Node32&#45;&gt;Node33</title>
<g id="a_edge47_Node000032_Node000033"><a xlink:title=" ">
<path fill="none" stroke="#63b8ff" d="M1347.42,-176.78C1359.45,-168.42 1376.36,-156.66 1390.13,-147.09"/>
<polygon fill="#63b8ff" stroke="#63b8ff" points="1392.43,-149.75 1398.65,-141.17 1388.44,-144.01 1392.43,-149.75"/>
</a>
</g>
</g>
<!-- Node34 -->
<g id="Node000034" class="node">
<title>Node34</title>
<g id="a_Node000034"><a xlink:title=" ">
<polygon fill="#e0e0e0" stroke="#999999" points="1375.5,-141 1328.5,-141 1328.5,-118 1375.5,-118 1375.5,-141"/>
<text text-anchor="middle" x="1352" y="-125.8" font-family="Arial" font-size="14.00">utility</text>
</a>
</g>
</g>
<!-- Node32&#45;&gt;Node34 -->
<g id="edge48_Node000032_Node000034" class="edge">
<title>Node32&#45;&gt;Node34</title>
<g id="a_edge48_Node000032_Node000034"><a xlink:title=" ">
<path fill="none" stroke="#63b8ff" d="M1335.76,-176.78C1338.33,-169.45 1341.82,-159.52 1344.9,-150.74"/>
<polygon fill="#63b8ff" stroke="#63b8ff" points="1348.25,-151.77 1348.26,-141.17 1341.64,-149.45 1348.25,-151.77"/>
</a>
</g>
</g>
</g>
</svg>

<g id="navigator" transform="translate(0 0)" fill="#404254">
  <rect fill="#f2f5e9" fill-opacity="0.5" stroke="#606060" stroke-width=".5" x="0" y="0" width="60" height="60"/>
  <use id="zoomplus" xlink:href="#zoomPlus" x="17" y="9" onmousedown="handleZoom(evt,'in')"/>
  <use id="zoomminus" xlink:href="#zoomMin" x="42" y="9" onmousedown="handleZoom(evt,'out')"/>
  <use id="reset" xlink:href="#resetDef" x="30" y="36" onmousedown="handleReset()"/>
   <use id="arrowup" xlink:href="#arrowUp" x="0" y="0" onmousedown="handlePan(0,-1)"/>
  <use id="arrowright" xlink:href="#arrowRight" x="0" y="0" onmousedown="handlePan(1,0)"/>
  <use id="arrowdown" xlink:href="#arrowDown" x="0" y="0" onmousedown="handlePan(0,1)"/>
  <use id="arrowleft" xlink:href="#arrowLeft" x="0" y="0" onmousedown="handlePan(-1,0)"/>
</g>
<svg viewBox="0 0 15 15" width="100%" height="30px" preserveAspectRatio="xMaxYMin meet">
 <g id="arrow_out" transform="scale(0.3 0.3)">
  <a xlink:href="LoggerComprehensiveTest_8cpp__incl_org.svg" target="_base">
   <rect id="button" ry="5" rx="5" y="6" x="6" height="38" width="38"
        fill="#f2f5e9" fill-opacity="0.5" stroke="#606060" stroke-width="1.0"/>
   <path id="arrow"
     d="M 11.500037,31.436501 C 11.940474,20.09759 22.043105,11.32322 32.158766,21.979434 L 37.068811,17.246167 C 37.068811,17.246167 37.088388,32 37.088388,32 L 22.160133,31.978069 C 22.160133,31.978069 26.997745,27.140456 26.997745,27.140456 C 18.528582,18.264221 13.291696,25.230495 11.500037,31.436501 z"
     style="fill:#404040;"/>
  </a>
 </g>
</svg>

<style type='text/css'>
<![CDATA[
[data-mouse-over-selected='false'] { opacity: 0.7; }
[data-mouse-over-selected='true']  { opacity: 1.0; }
]]>
</style>
<script type="application/ecmascript"><![CDATA[
document.addEventListener('DOMContentLoaded', (event) => {
  highlightEdges();
  highlightAdjacentNodes();
});
]]></script>
</svg>
