<?xml version="1.0" encoding="UTF-8" standalone="no"?>
<!DOCTYPE svg PUBLIC "-//W3C//DTD SVG 1.1//EN"
 "http://www.w3.org/Graphics/SVG/1.1/DTD/svg11.dtd">
<!-- Generated by graphviz version 2.43.0 (0)
 -->
<!-- Title: examples/esp32/main/NvsComprehensiveTest.cpp Pages: 1 -->
<svg width="1192pt" height="400pt"
 viewBox="0.00 0.00 1192.31 400.00" xmlns="http://www.w3.org/2000/svg" xmlns:xlink="http://www.w3.org/1999/xlink">
<g id="graph0" class="graph" transform="scale(1 1) rotate(0) translate(4 396)">
<title>examples/esp32/main/NvsComprehensiveTest.cpp</title>
<!-- Node1 -->
<g id="Node000001" class="node">
<title>Node1</title>
<g id="a_Node000001"><a xlink:title="Comprehensive NVS (Non&#45;Volatile Storage) testing suite for ESP32&#45;C6 DevKit&#45;M&#45;1 (noexcept)">
<polygon fill="#999999" stroke="#666666" points="1016.5,-392 827.5,-392 827.5,-354 1016.5,-354 1016.5,-392"/>
<text text-anchor="start" x="835.5" y="-376.8" font-family="Arial" font-size="14.00">examples/esp32/main</text>
<text text-anchor="middle" x="922" y="-361.8" font-family="Arial" font-size="14.00">/NvsComprehensiveTest.cpp</text>
</a>
</g>
</g>
<!-- Node2 -->
<g id="Node000002" class="node">
<title>Node2</title>
<g id="a_Node000002"><a xlink:href="TestFramework_8h.html" target="_top" xlink:title="Shared testing framework for ESP32&#45;C6 comprehensive test suites.">
<polygon fill="white" stroke="#666666" points="801.5,-318 680.5,-318 680.5,-295 801.5,-295 801.5,-318"/>
<text text-anchor="middle" x="741" y="-302.8" font-family="Arial" font-size="14.00">TestFramework.h</text>
</a>
</g>
</g>
<!-- Node1&#45;&gt;Node2 -->
<g id="edge1_Node000001_Node000002" class="edge">
<title>Node1&#45;&gt;Node2</title>
<g id="a_edge1_Node000001_Node000002"><a xlink:title=" ">
<path fill="none" stroke="#63b8ff" d="M871.1,-353.86C842.36,-343.62 806.98,-331.01 780.37,-321.53"/>
<polygon fill="#63b8ff" stroke="#63b8ff" points="781.23,-318.12 770.64,-318.06 778.88,-324.71 781.23,-318.12"/>
</a>
</g>
</g>
<!-- Node22 -->
<g id="Node000022" class="node">
<title>Node22</title>
<g id="a_Node000022"><a xlink:href="BaseNvs_8h.html" target="_top" xlink:title="Abstract base class for Non&#45;Volatile Storage implementations in the HardFOC system.">
<polygon fill="white" stroke="#666666" points="386.5,-141 271.5,-141 271.5,-118 386.5,-118 386.5,-141"/>
<text text-anchor="middle" x="329" y="-125.8" font-family="Arial" font-size="14.00">base/BaseNvs.h</text>
</a>
</g>
</g>
<!-- Node1&#45;&gt;Node22 -->
<g id="edge28_Node000001_Node000022" class="edge">
<title>Node1&#45;&gt;Node22</title>
<g id="a_edge28_Node000001_Node000022"><a xlink:title=" ">
<path fill="none" stroke="#63b8ff" d="M827.2,-358.2C712.43,-339.78 528.01,-304.19 476,-259 445.68,-232.66 466.84,-204.96 438,-177 422.59,-162.05 401.62,-151.56 382.2,-144.38"/>
<polygon fill="#63b8ff" stroke="#63b8ff" points="383.11,-141 372.52,-141.02 380.82,-147.61 383.11,-141"/>
</a>
</g>
</g>
<!-- Node23 -->
<g id="Node000023" class="node">
<title>Node23</title>
<g id="a_Node000023"><a xlink:href="EspNvs_8h.html" target="_top" xlink:title="World&#45;class ESP32&#45;C6 NVS storage implementation with ESP&#45;IDF v5.5+ features.">
<polygon fill="white" stroke="#666666" points="1114.5,-259 969.5,-259 969.5,-236 1114.5,-236 1114.5,-259"/>
<text text-anchor="middle" x="1042" y="-243.8" font-family="Arial" font-size="14.00">mcu/esp32/EspNvs.h</text>
</a>
</g>
</g>
<!-- Node1&#45;&gt;Node23 -->
<g id="edge32_Node000001_Node000023" class="edge">
<title>Node1&#45;&gt;Node23</title>
<g id="a_edge32_Node000001_Node000023"><a xlink:title=" ">
<path fill="none" stroke="#63b8ff" d="M927.44,-354C933.28,-337.12 943.93,-312.02 960,-295 972.56,-281.7 989.79,-271.14 1005.21,-263.48"/>
<polygon fill="#63b8ff" stroke="#63b8ff" points="1006.98,-266.51 1014.53,-259.08 1003.99,-260.19 1006.98,-266.51"/>
</a>
</g>
</g>
<!-- Node26 -->
<g id="Node000026" class="node">
<title>Node26</title>
<g id="a_Node000026"><a xlink:title=" ">
<polygon fill="#e0e0e0" stroke="#999999" points="681,-141 625,-141 625,-118 681,-118 681,-141"/>
<text text-anchor="middle" x="653" y="-125.8" font-family="Arial" font-size="14.00">cstring</text>
</a>
</g>
</g>
<!-- Node1&#45;&gt;Node26 -->
<g id="edge49_Node000001_Node000026" class="edge">
<title>Node1&#45;&gt;Node26</title>
<g id="a_edge49_Node000001_Node000026"><a xlink:title=" ">
<path fill="none" stroke="#63b8ff" d="M909.2,-353.94C889.27,-326.55 848.76,-273.73 807,-236 766.51,-199.42 712.66,-165.32 680.54,-146.26"/>
<polygon fill="#63b8ff" stroke="#63b8ff" points="682.1,-143.11 671.7,-141.07 678.55,-149.15 682.1,-143.11"/>
</a>
</g>
</g>
<!-- Node27 -->
<g id="Node000027" class="node">
<title>Node27</title>
<g id="a_Node000027"><a xlink:title=" ">
<polygon fill="#e0e0e0" stroke="#999999" points="1021,-318 969,-318 969,-295 1021,-295 1021,-318"/>
<text text-anchor="middle" x="995" y="-302.8" font-family="Arial" font-size="14.00">cstdio</text>
</a>
</g>
</g>
<!-- Node1&#45;&gt;Node27 -->
<g id="edge48_Node000001_Node000027" class="edge">
<title>Node1&#45;&gt;Node27</title>
<g id="a_edge48_Node000001_Node000027"><a xlink:title=" ">
<path fill="none" stroke="#63b8ff" d="M942.72,-353.69C952.97,-344.64 965.27,-333.77 975.36,-324.85"/>
<polygon fill="#63b8ff" stroke="#63b8ff" points="977.72,-327.44 982.9,-318.19 973.09,-322.19 977.72,-327.44"/>
</a>
</g>
</g>
<!-- Node28 -->
<g id="Node000028" class="node">
<title>Node28</title>
<g id="a_Node000028"><a xlink:title=" ">
<polygon fill="#e0e0e0" stroke="#999999" points="1102.5,-318 1039.5,-318 1039.5,-295 1102.5,-295 1102.5,-318"/>
<text text-anchor="middle" x="1071" y="-302.8" font-family="Arial" font-size="14.00">random</text>
</a>
</g>
</g>
<!-- Node1&#45;&gt;Node28 -->
<g id="edge50_Node000001_Node000028" class="edge">
<title>Node1&#45;&gt;Node28</title>
<g id="a_edge50_Node000001_Node000028"><a xlink:title=" ">
<path fill="none" stroke="#63b8ff" d="M963.9,-353.86C987.14,-343.8 1015.66,-331.45 1037.42,-322.03"/>
<polygon fill="#63b8ff" stroke="#63b8ff" points="1038.82,-325.25 1046.6,-318.06 1036.04,-318.82 1038.82,-325.25"/>
</a>
</g>
</g>
<!-- Node3 -->
<g id="Node000003" class="node">
<title>Node3</title>
<g id="a_Node000003"><a xlink:title=" ">
<polygon fill="#e0e0e0" stroke="#999999" points="560.5,-259 485.5,-259 485.5,-236 560.5,-236 560.5,-259"/>
<text text-anchor="middle" x="523" y="-243.8" font-family="Arial" font-size="14.00">esp_log.h</text>
</a>
</g>
</g>
<!-- Node2&#45;&gt;Node3 -->
<g id="edge2_Node000002_Node000003" class="edge">
<title>Node2&#45;&gt;Node3</title>
<g id="a_edge2_Node000002_Node000003"><a xlink:title=" ">
<path fill="none" stroke="#63b8ff" d="M700.76,-294.98C664.06,-285.38 609.77,-271.19 570.86,-261.01"/>
<polygon fill="#63b8ff" stroke="#63b8ff" points="571.38,-257.53 560.82,-258.39 569.6,-264.3 571.38,-257.53"/>
</a>
</g>
</g>
<!-- Node4 -->
<g id="Node000004" class="node">
<title>Node4</title>
<g id="a_Node000004"><a xlink:title=" ">
<polygon fill="#e0e0e0" stroke="#999999" points="665.5,-259 578.5,-259 578.5,-236 665.5,-236 665.5,-259"/>
<text text-anchor="middle" x="622" y="-243.8" font-family="Arial" font-size="14.00">esp_timer.h</text>
</a>
</g>
</g>
<!-- Node2&#45;&gt;Node4 -->
<g id="edge3_Node000002_Node000004" class="edge">
<title>Node2&#45;&gt;Node4</title>
<g id="a_edge3_Node000002_Node000004"><a xlink:title=" ">
<path fill="none" stroke="#63b8ff" d="M718.9,-294.91C700.36,-286.03 673.68,-273.26 653.01,-263.35"/>
<polygon fill="#63b8ff" stroke="#63b8ff" points="654.52,-260.19 643.99,-259.03 651.49,-266.51 654.52,-260.19"/>
</a>
</g>
</g>
<!-- Node5 -->
<g id="Node000005" class="node">
<title>Node5</title>
<g id="a_Node000005"><a xlink:title=" ">
<polygon fill="#e0e0e0" stroke="#999999" points="962.5,-141 819.5,-141 819.5,-118 962.5,-118 962.5,-141"/>
<text text-anchor="middle" x="891" y="-125.8" font-family="Arial" font-size="14.00">freertos/FreeRTOS.h</text>
</a>
</g>
</g>
<!-- Node2&#45;&gt;Node5 -->
<g id="edge4_Node000002_Node000005" class="edge">
<title>Node2&#45;&gt;Node5</title>
<g id="a_edge4_Node000002_Node000005"><a xlink:title=" ">
<path fill="none" stroke="#63b8ff" d="M768.69,-294.88C786.24,-287.06 808.47,-275 824,-259 854.94,-227.12 875.07,-178.09 884.59,-150.73"/>
<polygon fill="#63b8ff" stroke="#63b8ff" points="887.96,-151.67 887.81,-141.07 881.32,-149.45 887.96,-151.67"/>
</a>
</g>
</g>
<!-- Node6 -->
<g id="Node000006" class="node">
<title>Node6</title>
<g id="a_Node000006"><a xlink:title=" ">
<polygon fill="#e0e0e0" stroke="#999999" points="798.5,-259 683.5,-259 683.5,-236 798.5,-236 798.5,-259"/>
<text text-anchor="middle" x="741" y="-243.8" font-family="Arial" font-size="14.00">freertos/queue.h</text>
</a>
</g>
</g>
<!-- Node2&#45;&gt;Node6 -->
<g id="edge5_Node000002_Node000006" class="edge">
<title>Node2&#45;&gt;Node6</title>
<g id="a_edge5_Node000002_Node000006"><a xlink:title=" ">
<path fill="none" stroke="#63b8ff" d="M741,-294.78C741,-287.61 741,-277.95 741,-269.31"/>
<polygon fill="#63b8ff" stroke="#63b8ff" points="744.5,-269.17 741,-259.17 737.5,-269.17 744.5,-269.17"/>
</a>
</g>
</g>
<!-- Node7 -->
<g id="Node000007" class="node">
<title>Node7</title>
<g id="a_Node000007"><a xlink:title=" ">
<polygon fill="#e0e0e0" stroke="#999999" points="1103,-141 981,-141 981,-118 1103,-118 1103,-141"/>
<text text-anchor="middle" x="1042" y="-125.8" font-family="Arial" font-size="14.00">freertos/semphr.h</text>
</a>
</g>
</g>
<!-- Node2&#45;&gt;Node7 -->
<g id="edge6_Node000002_Node000007" class="edge">
<title>Node2&#45;&gt;Node7</title>
<g id="a_edge6_Node000002_Node000007"><a xlink:title=" ">
<path fill="none" stroke="#63b8ff" d="M768.62,-294.89C790.37,-286.17 821.22,-273.02 847,-259 912.34,-223.47 984.17,-172.87 1019.64,-147.05"/>
<polygon fill="#63b8ff" stroke="#63b8ff" points="1021.84,-149.77 1027.85,-141.04 1017.71,-144.12 1021.84,-149.77"/>
</a>
</g>
</g>
<!-- Node8 -->
<g id="Node000008" class="node">
<title>Node8</title>
<g id="a_Node000008"><a xlink:title=" ">
<polygon fill="#e0e0e0" stroke="#999999" points="801,-141 699,-141 699,-118 801,-118 801,-141"/>
<text text-anchor="middle" x="750" y="-125.8" font-family="Arial" font-size="14.00">freertos/task.h</text>
</a>
</g>
</g>
<!-- Node2&#45;&gt;Node8 -->
<g id="edge7_Node000002_Node000008" class="edge">
<title>Node2&#45;&gt;Node8</title>
<g id="a_edge7_Node000002_Node000008"><a xlink:title=" ">
<path fill="none" stroke="#63b8ff" d="M766.46,-294.9C781.2,-287.27 798.48,-275.42 807,-259 826.98,-220.49 791.73,-173.5 768.32,-148.38"/>
<polygon fill="#63b8ff" stroke="#63b8ff" points="770.68,-145.79 761.21,-141.03 765.65,-150.65 770.68,-145.79"/>
</a>
</g>
</g>
<!-- Node9 -->
<g id="Node000009" class="node">
<title>Node9</title>
<g id="a_Node000009"><a xlink:href="HardwareTypes_8h.html" target="_top" xlink:title="Platform&#45;agnostic hardware type definitions for the HardFOC system.">
<polygon fill="white" stroke="#666666" points="390,-82 268,-82 268,-59 390,-59 390,-82"/>
<text text-anchor="middle" x="329" y="-66.8" font-family="Arial" font-size="14.00">HardwareTypes.h</text>
</a>
</g>
</g>
<!-- Node2&#45;&gt;Node9 -->
<g id="edge8_Node000002_Node000009" class="edge">
<title>Node2&#45;&gt;Node9</title>
<g id="a_edge8_Node000002_Node000009"><a xlink:title=" ">
<path fill="none" stroke="#63b8ff" d="M680.39,-304.73C543.16,-302.41 212.48,-293.31 107,-259 59.74,-243.63 36.16,-243.44 12,-200 7.03,-191.07 6.02,-185.29 12,-177 20.24,-165.57 198.59,-110.71 284.08,-84.94"/>
<polygon fill="#63b8ff" stroke="#63b8ff" points="285.21,-88.25 293.78,-82.02 283.2,-81.55 285.21,-88.25"/>
</a>
</g>
</g>
<!-- Node12 -->
<g id="Node000012" class="node">
<title>Node12</title>
<g id="a_Node000012"><a xlink:href="EspGpio_8h.html" target="_top" xlink:title="Advanced MCU&#45;specific implementation of the unified BaseGpio class with ESP32C6/ESP&#45;IDF v5....">
<polygon fill="white" stroke="#666666" points="267.5,-259 116.5,-259 116.5,-236 267.5,-236 267.5,-259"/>
<text text-anchor="middle" x="192" y="-243.8" font-family="Arial" font-size="14.00">mcu/esp32/EspGpio.h</text>
</a>
</g>
</g>
<!-- Node2&#45;&gt;Node12 -->
<g id="edge11_Node000002_Node000012" class="edge">
<title>Node2&#45;&gt;Node12</title>
<g id="a_edge11_Node000002_Node000012"><a xlink:title=" ">
<path fill="none" stroke="#63b8ff" d="M680.41,-299.21C582.66,-289.06 389.8,-269.04 277.9,-257.42"/>
<polygon fill="#63b8ff" stroke="#63b8ff" points="277.97,-253.91 267.66,-256.36 277.25,-260.87 277.97,-253.91"/>
</a>
</g>
</g>
<!-- Node10 -->
<g id="Node000010" class="node">
<title>Node10</title>
<g id="a_Node000010"><a xlink:title=" ">
<polygon fill="#e0e0e0" stroke="#999999" points="489,-23 433,-23 433,0 489,0 489,-23"/>
<text text-anchor="middle" x="461" y="-7.8" font-family="Arial" font-size="14.00">cstdint</text>
</a>
</g>
</g>
<!-- Node9&#45;&gt;Node10 -->
<g id="edge9_Node000009_Node000010" class="edge">
<title>Node9&#45;&gt;Node10</title>
<g id="a_edge9_Node000009_Node000010"><a xlink:title=" ">
<path fill="none" stroke="#63b8ff" d="M353.52,-58.91C374.26,-49.95 404.21,-37.02 427.22,-27.09"/>
<polygon fill="#63b8ff" stroke="#63b8ff" points="428.82,-30.21 436.61,-23.03 426.04,-23.78 428.82,-30.21"/>
</a>
</g>
</g>
<!-- Node11 -->
<g id="Node000011" class="node">
<title>Node11</title>
<g id="a_Node000011"><a xlink:title=" ">
<polygon fill="#e0e0e0" stroke="#999999" points="353,-23 305,-23 305,0 353,0 353,-23"/>
<text text-anchor="middle" x="329" y="-7.8" font-family="Arial" font-size="14.00">limits</text>
</a>
</g>
</g>
<!-- Node9&#45;&gt;Node11 -->
<g id="edge10_Node000009_Node000011" class="edge">
<title>Node9&#45;&gt;Node11</title>
<g id="a_edge10_Node000009_Node000011"><a xlink:title=" ">
<path fill="none" stroke="#63b8ff" d="M329,-58.78C329,-51.61 329,-41.95 329,-33.31"/>
<polygon fill="#63b8ff" stroke="#63b8ff" points="332.5,-33.17 329,-23.17 325.5,-33.17 332.5,-33.17"/>
</a>
</g>
</g>
<!-- Node13 -->
<g id="Node000013" class="node">
<title>Node13</title>
<g id="a_Node000013"><a xlink:title=" ">
<polygon fill="#e0e0e0" stroke="#999999" points="186.5,-200 95.5,-200 95.5,-177 186.5,-177 186.5,-200"/>
<text text-anchor="middle" x="141" y="-184.8" font-family="Arial" font-size="14.00">driver/gpio.h</text>
</a>
</g>
</g>
<!-- Node12&#45;&gt;Node13 -->
<g id="edge12_Node000012_Node000013" class="edge">
<title>Node12&#45;&gt;Node13</title>
<g id="a_edge12_Node000012_Node000013"><a xlink:title=" ">
<path fill="none" stroke="#63b8ff" d="M182.41,-235.78C175.36,-227.9 165.6,-216.99 157.33,-207.75"/>
<polygon fill="#63b8ff" stroke="#63b8ff" points="159.83,-205.29 150.55,-200.17 154.61,-209.96 159.83,-205.29"/>
</a>
</g>
</g>
<!-- Node14 -->
<g id="Node000014" class="node">
<title>Node14</title>
<g id="a_Node000014"><a xlink:title=" ">
<polygon fill="#e0e0e0" stroke="#999999" points="281,-200 205,-200 205,-177 281,-177 281,-200"/>
<text text-anchor="middle" x="243" y="-184.8" font-family="Arial" font-size="14.00">esp_attr.h</text>
</a>
</g>
</g>
<!-- Node12&#45;&gt;Node14 -->
<g id="edge13_Node000012_Node000014" class="edge">
<title>Node12&#45;&gt;Node14</title>
<g id="a_edge13_Node000012_Node000014"><a xlink:title=" ">
<path fill="none" stroke="#63b8ff" d="M201.59,-235.78C208.64,-227.9 218.4,-216.99 226.67,-207.75"/>
<polygon fill="#63b8ff" stroke="#63b8ff" points="229.39,-209.96 233.45,-200.17 224.17,-205.29 229.39,-209.96"/>
</a>
</g>
</g>
<!-- Node15 -->
<g id="Node000015" class="node">
<title>Node15</title>
<g id="a_Node000015"><a xlink:href="BaseGpio_8h.html" target="_top" xlink:title="Unified GPIO base class for all digital GPIO implementations.">
<polygon fill="white" stroke="#666666" points="88,-141 0,-141 0,-118 88,-118 88,-141"/>
<text text-anchor="middle" x="44" y="-125.8" font-family="Arial" font-size="14.00">BaseGpio.h</text>
</a>
</g>
</g>
<!-- Node12&#45;&gt;Node15 -->
<g id="edge14_Node000012_Node000015" class="edge">
<title>Node12&#45;&gt;Node15</title>
<g id="a_edge14_Node000012_Node000015"><a xlink:title=" ">
<path fill="none" stroke="#63b8ff" d="M116.37,-236.36C73.21,-228.86 25.14,-216.97 12,-200 -0.08,-184.4 12.62,-163.52 25.42,-148.72"/>
<polygon fill="#63b8ff" stroke="#63b8ff" points="28.16,-150.92 32.38,-141.2 23.02,-146.16 28.16,-150.92"/>
</a>
</g>
</g>
<!-- Node17 -->
<g id="Node000017" class="node">
<title>Node17</title>
<g id="a_Node000017"><a xlink:href="EspTypes__GPIO_8h.html" target="_top" xlink:title="ESP32 GPIO type definitions for hardware abstraction.">
<polygon fill="white" stroke="#666666" points="429,-200 299,-200 299,-177 429,-177 429,-200"/>
<text text-anchor="middle" x="364" y="-184.8" font-family="Arial" font-size="14.00">EspTypes_GPIO.h</text>
</a>
</g>
</g>
<!-- Node12&#45;&gt;Node17 -->
<g id="edge18_Node000012_Node000017" class="edge">
<title>Node12&#45;&gt;Node17</title>
<g id="a_edge18_Node000012_Node000017"><a xlink:title=" ">
<path fill="none" stroke="#63b8ff" d="M223.95,-235.91C251.71,-226.71 292.09,-213.33 322.37,-203.29"/>
<polygon fill="#63b8ff" stroke="#63b8ff" points="323.83,-206.5 332.22,-200.03 321.63,-199.85 323.83,-206.5"/>
</a>
</g>
</g>
<!-- Node21 -->
<g id="Node000021" class="node">
<title>Node21</title>
<g id="a_Node000021"><a xlink:title=" ">
<polygon fill="#e0e0e0" stroke="#999999" points="77,-200 21,-200 21,-177 77,-177 77,-200"/>
<text text-anchor="middle" x="49" y="-184.8" font-family="Arial" font-size="14.00">stdio.h</text>
</a>
</g>
</g>
<!-- Node12&#45;&gt;Node21 -->
<g id="edge27_Node000012_Node000021" class="edge">
<title>Node12&#45;&gt;Node21</title>
<g id="a_edge27_Node000012_Node000021"><a xlink:title=" ">
<path fill="none" stroke="#63b8ff" d="M165.44,-235.91C142.76,-226.87 109.95,-213.79 84.93,-203.82"/>
<polygon fill="#63b8ff" stroke="#63b8ff" points="86.01,-200.48 75.42,-200.03 83.41,-206.98 86.01,-200.48"/>
</a>
</g>
</g>
<!-- Node15&#45;&gt;Node9 -->
<g id="edge15_Node000015_Node000009" class="edge">
<title>Node15&#45;&gt;Node9</title>
<g id="a_edge15_Node000015_Node000009"><a xlink:title=" ">
<path fill="none" stroke="#63b8ff" d="M88.22,-119.66C135.96,-110.11 212.38,-94.82 266.31,-84.04"/>
<polygon fill="#63b8ff" stroke="#63b8ff" points="267.32,-87.41 276.44,-82.01 265.95,-80.54 267.32,-87.41"/>
</a>
</g>
</g>
<!-- Node15&#45;&gt;Node10 -->
<g id="edge16_Node000015_Node000010" class="edge">
<title>Node15&#45;&gt;Node10</title>
<g id="a_edge16_Node000015_Node000010"><a xlink:title=" ">
<path fill="none" stroke="#63b8ff" d="M55.54,-117.99C73.44,-102.33 109.67,-73.19 146,-59 171.36,-49.1 344.2,-26.9 422.54,-17.2"/>
<polygon fill="#63b8ff" stroke="#63b8ff" points="423.45,-20.61 432.94,-15.91 422.59,-13.66 423.45,-20.61"/>
</a>
</g>
</g>
<!-- Node16 -->
<g id="Node000016" class="node">
<title>Node16</title>
<g id="a_Node000016"><a xlink:title=" ">
<polygon fill="#e0e0e0" stroke="#999999" points="239,-82 155,-82 155,-59 239,-59 239,-82"/>
<text text-anchor="middle" x="197" y="-66.8" font-family="Arial" font-size="14.00">string_view</text>
</a>
</g>
</g>
<!-- Node15&#45;&gt;Node16 -->
<g id="edge17_Node000015_Node000016" class="edge">
<title>Node15&#45;&gt;Node16</title>
<g id="a_edge17_Node000015_Node000016"><a xlink:title=" ">
<path fill="none" stroke="#63b8ff" d="M72.42,-117.91C96.89,-108.79 132.41,-95.56 159.27,-85.56"/>
<polygon fill="#63b8ff" stroke="#63b8ff" points="160.58,-88.8 168.73,-82.03 158.14,-82.24 160.58,-88.8"/>
</a>
</g>
</g>
<!-- Node17&#45;&gt;Node9 -->
<g id="edge25_Node000017_Node000009" class="edge">
<title>Node17&#45;&gt;Node9</title>
<g id="a_edge25_Node000017_Node000009"><a xlink:title=" ">
<path fill="none" stroke="#63b8ff" d="M315.04,-176.93C280.78,-168.43 239.36,-155.53 229,-141 211.23,-116.09 245.51,-97.13 278.67,-85.36"/>
<polygon fill="#63b8ff" stroke="#63b8ff" points="280.04,-88.59 288.4,-82.08 277.81,-81.96 280.04,-88.59"/>
</a>
</g>
</g>
<!-- Node17&#45;&gt;Node15 -->
<g id="edge19_Node000017_Node000015" class="edge">
<title>Node17&#45;&gt;Node15</title>
<g id="a_edge19_Node000017_Node000015"><a xlink:title=" ">
<path fill="none" stroke="#63b8ff" d="M304.93,-176.98C245.82,-166.45 155.63,-150.38 98.27,-140.17"/>
<polygon fill="#63b8ff" stroke="#63b8ff" points="98.77,-136.7 88.31,-138.39 97.54,-143.59 98.77,-136.7"/>
</a>
</g>
</g>
<!-- Node18 -->
<g id="Node000018" class="node">
<title>Node18</title>
<g id="a_Node000018"><a xlink:href="EspTypes__Base_8h.html" target="_top" xlink:title="ESP32 base type definitions for hardware abstraction.">
<polygon fill="white" stroke="#666666" points="568.5,-141 443.5,-141 443.5,-118 568.5,-118 568.5,-141"/>
<text text-anchor="middle" x="506" y="-125.8" font-family="Arial" font-size="14.00">EspTypes_Base.h</text>
</a>
</g>
</g>
<!-- Node17&#45;&gt;Node18 -->
<g id="edge20_Node000017_Node000018" class="edge">
<title>Node17&#45;&gt;Node18</title>
<g id="a_edge20_Node000017_Node000018"><a xlink:title=" ">
<path fill="none" stroke="#63b8ff" d="M390.38,-176.91C412.89,-167.87 445.48,-154.79 470.32,-144.82"/>
<polygon fill="#63b8ff" stroke="#63b8ff" points="471.79,-148 479.76,-141.03 469.18,-141.51 471.79,-148"/>
</a>
</g>
</g>
<!-- Node19 -->
<g id="Node000019" class="node">
<title>Node19</title>
<g id="a_Node000019"><a xlink:href="McuSelect_8h.html" target="_top" xlink:title="Centralized MCU platform selection and configuration header.">
<polygon fill="white" stroke="#666666" points="658,-82 516,-82 516,-59 658,-59 658,-82"/>
<text text-anchor="middle" x="587" y="-66.8" font-family="Arial" font-size="14.00">../../utils/McuSelect.h</text>
</a>
</g>
</g>
<!-- Node17&#45;&gt;Node19 -->
<g id="edge26_Node000017_Node000019" class="edge">
<title>Node17&#45;&gt;Node19</title>
<g id="a_edge26_Node000017_Node000019"><a xlink:title=" ">
<path fill="none" stroke="#63b8ff" d="M323.99,-176.99C286.44,-165.22 239.19,-144.31 262,-118 277.79,-99.79 414.62,-85.34 505.63,-77.64"/>
<polygon fill="#63b8ff" stroke="#63b8ff" points="505.99,-81.12 515.66,-76.8 505.41,-74.14 505.99,-81.12"/>
</a>
</g>
</g>
<!-- Node18&#45;&gt;Node9 -->
<g id="edge22_Node000018_Node000009" class="edge">
<title>Node18&#45;&gt;Node9</title>
<g id="a_edge22_Node000018_Node000009"><a xlink:title=" ">
<path fill="none" stroke="#63b8ff" d="M473.12,-117.91C444.44,-108.67 402.64,-95.21 371.43,-85.16"/>
<polygon fill="#63b8ff" stroke="#63b8ff" points="372.29,-81.76 361.7,-82.03 370.15,-88.43 372.29,-81.76"/>
</a>
</g>
</g>
<!-- Node18&#45;&gt;Node10 -->
<g id="edge24_Node000018_Node000010" class="edge">
<title>Node18&#45;&gt;Node10</title>
<g id="a_edge24_Node000018_Node000010"><a xlink:title=" ">
<path fill="none" stroke="#63b8ff" d="M501.85,-117.79C494.35,-98.46 478.43,-57.42 468.83,-32.68"/>
<polygon fill="#63b8ff" stroke="#63b8ff" points="472.02,-31.24 465.14,-23.18 465.5,-33.77 472.02,-31.24"/>
</a>
</g>
</g>
<!-- Node18&#45;&gt;Node19 -->
<g id="edge21_Node000018_Node000019" class="edge">
<title>Node18&#45;&gt;Node19</title>
<g id="a_edge21_Node000018_Node000019"><a xlink:title=" ">
<path fill="none" stroke="#63b8ff" d="M521.24,-117.78C533.11,-109.42 549.82,-97.66 563.42,-88.09"/>
<polygon fill="#63b8ff" stroke="#63b8ff" points="565.67,-90.79 571.83,-82.17 561.64,-85.07 565.67,-90.79"/>
</a>
</g>
</g>
<!-- Node20 -->
<g id="Node000020" class="node">
<title>Node20</title>
<g id="a_Node000020"><a xlink:title=" ">
<polygon fill="#e0e0e0" stroke="#999999" points="956.5,-82 899.5,-82 899.5,-59 956.5,-59 956.5,-82"/>
<text text-anchor="middle" x="928" y="-66.8" font-family="Arial" font-size="14.00">atomic</text>
</a>
</g>
</g>
<!-- Node18&#45;&gt;Node20 -->
<g id="edge23_Node000018_Node000020" class="edge">
<title>Node18&#45;&gt;Node20</title>
<g id="a_edge23_Node000018_Node000020"><a xlink:title=" ">
<path fill="none" stroke="#63b8ff" d="M568.72,-120.03C657.13,-108.09 815.77,-86.66 889,-76.77"/>
<polygon fill="#63b8ff" stroke="#63b8ff" points="889.73,-80.2 899.17,-75.39 888.79,-73.26 889.73,-80.2"/>
</a>
</g>
</g>
<!-- Node22&#45;&gt;Node9 -->
<g id="edge29_Node000022_Node000009" class="edge">
<title>Node22&#45;&gt;Node9</title>
<g id="a_edge29_Node000022_Node000009"><a xlink:title=" ">
<path fill="none" stroke="#63b8ff" d="M329,-117.78C329,-110.61 329,-100.95 329,-92.31"/>
<polygon fill="#63b8ff" stroke="#63b8ff" points="332.5,-92.17 329,-82.17 325.5,-92.17 332.5,-92.17"/>
</a>
</g>
</g>
<!-- Node22&#45;&gt;Node10 -->
<g id="edge30_Node000022_Node000010" class="edge">
<title>Node22&#45;&gt;Node10</title>
<g id="a_edge30_Node000022_Node000010"><a xlink:title=" ">
<path fill="none" stroke="#63b8ff" d="M347.75,-117.85C362.4,-109.12 382.91,-95.96 399,-82 416.97,-66.41 434.77,-45.79 446.65,-31.06"/>
<polygon fill="#63b8ff" stroke="#63b8ff" points="449.45,-33.17 452.92,-23.16 443.96,-28.82 449.45,-33.17"/>
</a>
</g>
</g>
<!-- Node22&#45;&gt;Node16 -->
<g id="edge31_Node000022_Node000016" class="edge">
<title>Node22&#45;&gt;Node16</title>
<g id="a_edge31_Node000022_Node000016"><a xlink:title=" ">
<path fill="none" stroke="#63b8ff" d="M304.48,-117.91C283.74,-108.95 253.79,-96.02 230.78,-86.09"/>
<polygon fill="#63b8ff" stroke="#63b8ff" points="231.96,-82.78 221.39,-82.03 229.18,-89.21 231.96,-82.78"/>
</a>
</g>
</g>
<!-- Node23&#45;&gt;Node10 -->
<g id="edge47_Node000023_Node000010" class="edge">
<title>Node23&#45;&gt;Node10</title>
<g id="a_edge47_Node000023_Node000010"><a xlink:title=" ">
<path fill="none" stroke="#63b8ff" d="M1070.39,-235.84C1118.92,-215.93 1209.58,-170.33 1177,-118 1145.59,-67.55 1114.32,-74.7 1057,-59 951.2,-30.01 613.71,-17.19 499.33,-13.6"/>
<polygon fill="#63b8ff" stroke="#63b8ff" points="499.39,-10.1 489.29,-13.29 499.17,-17.1 499.39,-10.1"/>
</a>
</g>
</g>
<!-- Node23&#45;&gt;Node22 -->
<g id="edge33_Node000023_Node000022" class="edge">
<title>Node23&#45;&gt;Node22</title>
<g id="a_edge33_Node000023_Node000022"><a xlink:title=" ">
<path fill="none" stroke="#63b8ff" d="M969.06,-243.69C844.76,-238.3 597.23,-224.79 514,-200 493.23,-193.81 490.93,-185.52 471,-177 440.51,-163.97 405.07,-152.36 377.23,-144"/>
<polygon fill="#63b8ff" stroke="#63b8ff" points="377.92,-140.56 367.33,-141.07 375.93,-147.27 377.92,-140.56"/>
</a>
</g>
</g>
<!-- Node24 -->
<g id="Node000024" class="node">
<title>Node24</title>
<g id="a_Node000024"><a xlink:href="RtosMutex_8h.html" target="_top" xlink:title="Cross&#45;platform RTOS mutex and synchronization primitives.">
<polygon fill="white" stroke="#666666" points="1088.5,-200 995.5,-200 995.5,-177 1088.5,-177 1088.5,-200"/>
<text text-anchor="middle" x="1042" y="-184.8" font-family="Arial" font-size="14.00">RtosMutex.h</text>
</a>
</g>
</g>
<!-- Node23&#45;&gt;Node24 -->
<g id="edge34_Node000023_Node000024" class="edge">
<title>Node23&#45;&gt;Node24</title>
<g id="a_edge34_Node000023_Node000024"><a xlink:title=" ">
<path fill="none" stroke="#63b8ff" d="M1042,-235.78C1042,-228.61 1042,-218.95 1042,-210.31"/>
<polygon fill="#63b8ff" stroke="#63b8ff" points="1045.5,-210.17 1042,-200.17 1038.5,-210.17 1045.5,-210.17"/>
</a>
</g>
</g>
<!-- Node25 -->
<g id="Node000025" class="node">
<title>Node25</title>
<g id="a_Node000025"><a xlink:href="EspTypes__NVS_8h.html" target="_top" xlink:title="ESP32 NVS type definitions for hardware abstraction.">
<polygon fill="white" stroke="#666666" points="673,-200 523,-200 523,-177 673,-177 673,-200"/>
<text text-anchor="middle" x="598" y="-184.8" font-family="Arial" font-size="14.00">utils/EspTypes_NVS.h</text>
</a>
</g>
</g>
<!-- Node23&#45;&gt;Node25 -->
<g id="edge41_Node000023_Node000025" class="edge">
<title>Node23&#45;&gt;Node25</title>
<g id="a_edge41_Node000023_Node000025"><a xlink:title=" ">
<path fill="none" stroke="#63b8ff" d="M969.18,-237.15C890.77,-227.09 766.15,-211.09 683.24,-200.44"/>
<polygon fill="#63b8ff" stroke="#63b8ff" points="683.45,-196.94 673.09,-199.14 682.56,-203.88 683.45,-196.94"/>
</a>
</g>
</g>
<!-- Node24&#45;&gt;Node5 -->
<g id="edge36_Node000024_Node000005" class="edge">
<title>Node24&#45;&gt;Node5</title>
<g id="a_edge36_Node000024_Node000005"><a xlink:title=" ">
<path fill="none" stroke="#63b8ff" d="M1013.95,-176.91C989.9,-167.83 955.05,-154.68 928.59,-144.69"/>
<polygon fill="#63b8ff" stroke="#63b8ff" points="929.49,-141.29 918.9,-141.03 927.02,-147.84 929.49,-141.29"/>
</a>
</g>
</g>
<!-- Node24&#45;&gt;Node7 -->
<g id="edge37_Node000024_Node000007" class="edge">
<title>Node24&#45;&gt;Node7</title>
<g id="a_edge37_Node000024_Node000007"><a xlink:title=" ">
<path fill="none" stroke="#63b8ff" d="M1042,-176.78C1042,-169.61 1042,-159.95 1042,-151.31"/>
<polygon fill="#63b8ff" stroke="#63b8ff" points="1045.5,-151.17 1042,-141.17 1038.5,-151.17 1045.5,-151.17"/>
</a>
</g>
</g>
<!-- Node24&#45;&gt;Node8 -->
<g id="edge38_Node000024_Node000008" class="edge">
<title>Node24&#45;&gt;Node8</title>
<g id="a_edge38_Node000024_Node000008"><a xlink:title=" ">
<path fill="none" stroke="#63b8ff" d="M995.41,-178.41C945.54,-168.67 866.2,-153.18 811.29,-142.47"/>
<polygon fill="#63b8ff" stroke="#63b8ff" points="811.83,-139 801.34,-140.52 810.48,-145.87 811.83,-139"/>
</a>
</g>
</g>
<!-- Node24&#45;&gt;Node10 -->
<g id="edge40_Node000024_Node000010" class="edge">
<title>Node24&#45;&gt;Node10</title>
<g id="a_edge40_Node000024_Node000010"><a xlink:title=" ">
<path fill="none" stroke="#63b8ff" d="M1088.88,-178.57C1131.3,-168.32 1183.89,-148.83 1161,-118 1107.04,-45.29 1054.87,-76.35 966,-59 794.05,-25.43 584.29,-15.95 499.4,-13.4"/>
<polygon fill="#63b8ff" stroke="#63b8ff" points="499.3,-9.89 489.2,-13.11 499.1,-16.89 499.3,-9.89"/>
</a>
</g>
</g>
<!-- Node24&#45;&gt;Node19 -->
<g id="edge35_Node000024_Node000019" class="edge">
<title>Node24&#45;&gt;Node19</title>
<g id="a_edge35_Node000024_Node000019"><a xlink:title=" ">
<path fill="none" stroke="#63b8ff" d="M1066.09,-176.98C1093.45,-163.63 1131.89,-139.73 1112,-118 1097.24,-101.87 811.78,-83.9 668.13,-75.83"/>
<polygon fill="#63b8ff" stroke="#63b8ff" points="668.22,-72.33 658.04,-75.27 667.83,-79.32 668.22,-72.33"/>
</a>
</g>
</g>
<!-- Node24&#45;&gt;Node20 -->
<g id="edge39_Node000024_Node000020" class="edge">
<title>Node24&#45;&gt;Node20</title>
<g id="a_edge39_Node000024_Node000020"><a xlink:title=" ">
<path fill="none" stroke="#63b8ff" d="M1083.39,-176.94C1120.75,-165.41 1166.77,-144.93 1145,-118 1123.04,-90.84 1023.33,-78.82 967.02,-74.13"/>
<polygon fill="#63b8ff" stroke="#63b8ff" points="966.96,-70.61 956.71,-73.31 966.4,-77.59 966.96,-70.61"/>
</a>
</g>
</g>
<!-- Node25&#45;&gt;Node9 -->
<g id="edge44_Node000025_Node000009" class="edge">
<title>Node25&#45;&gt;Node9</title>
<g id="a_edge44_Node000025_Node000009"><a xlink:title=" ">
<path fill="none" stroke="#63b8ff" d="M545.57,-176.99C512.64,-169.34 469.77,-157.43 434,-141 417.38,-133.37 377.65,-106.04 352.11,-88.01"/>
<polygon fill="#63b8ff" stroke="#63b8ff" points="353.91,-84.99 343.72,-82.07 349.86,-90.7 353.91,-84.99"/>
</a>
</g>
</g>
<!-- Node25&#45;&gt;Node18 -->
<g id="edge43_Node000025_Node000018" class="edge">
<title>Node25&#45;&gt;Node18</title>
<g id="a_edge43_Node000025_Node000018"><a xlink:title=" ">
<path fill="none" stroke="#63b8ff" d="M580.7,-176.78C566.95,-168.26 547.5,-156.21 531.9,-146.55"/>
<polygon fill="#63b8ff" stroke="#63b8ff" points="533.57,-143.46 523.23,-141.17 529.88,-149.42 533.57,-143.46"/>
</a>
</g>
</g>
<!-- Node25&#45;&gt;Node19 -->
<g id="edge45_Node000025_Node000019" class="edge">
<title>Node25&#45;&gt;Node19</title>
<g id="a_edge45_Node000025_Node000019"><a xlink:title=" ">
<path fill="none" stroke="#63b8ff" d="M596.98,-176.79C595.17,-157.63 591.33,-117.15 588.98,-92.34"/>
<polygon fill="#63b8ff" stroke="#63b8ff" points="592.44,-91.8 588.01,-82.18 585.47,-92.46 592.44,-91.8"/>
</a>
</g>
</g>
<!-- Node25&#45;&gt;Node22 -->
<g id="edge42_Node000025_Node000022" class="edge">
<title>Node25&#45;&gt;Node22</title>
<g id="a_edge42_Node000025_Node000022"><a xlink:title=" ">
<path fill="none" stroke="#63b8ff" d="M548.35,-176.98C503.28,-167.43 436.73,-153.33 388.76,-143.16"/>
<polygon fill="#63b8ff" stroke="#63b8ff" points="389.33,-139.71 378.82,-141.06 387.88,-146.55 389.33,-139.71"/>
</a>
</g>
</g>
<!-- Node25&#45;&gt;Node26 -->
<g id="edge46_Node000025_Node000026" class="edge">
<title>Node25&#45;&gt;Node26</title>
<g id="a_edge46_Node000025_Node000026"><a xlink:title=" ">
<path fill="none" stroke="#63b8ff" d="M608.35,-176.78C616.03,-168.82 626.68,-157.77 635.66,-148.47"/>
<polygon fill="#63b8ff" stroke="#63b8ff" points="638.28,-150.8 642.7,-141.17 633.24,-145.94 638.28,-150.8"/>
</a>
</g>
</g>
</g>
</svg>
