<?xml version="1.0" encoding="UTF-8" standalone="no"?>
<!DOCTYPE svg PUBLIC "-//W3C//DTD SVG 1.1//EN"
 "http://www.w3.org/Graphics/SVG/1.1/DTD/svg11.dtd">
<!-- Generated by graphviz version 2.43.0 (0)
 -->
<!-- Title: examples/esp32/main/NvsComprehensiveTest.cpp Pages: 1 -->
<svg width="1585pt" height="400pt"
 viewBox="0.00 0.00 1585.00 400.00" xmlns="http://www.w3.org/2000/svg" xmlns:xlink="http://www.w3.org/1999/xlink">
<g id="graph0" class="graph" transform="scale(1 1) rotate(0) translate(4 396)">
<title>examples/esp32/main/NvsComprehensiveTest.cpp</title>
<!-- Node1 -->
<g id="Node000001" class="node">
<title>Node1</title>
<g id="a_Node000001"><a xlink:title="Comprehensive NVS (Non&#45;Volatile Storage) testing suite for ESP32&#45;C6 DevKit&#45;M&#45;1 (noexcept)">
<polygon fill="#999999" stroke="#666666" points="1484,-392 1295,-392 1295,-354 1484,-354 1484,-392"/>
<text text-anchor="start" x="1303" y="-376.8" font-family="Arial" font-size="14.00">examples/esp32/main</text>
<text text-anchor="middle" x="1389.5" y="-361.8" font-family="Arial" font-size="14.00">/NvsComprehensiveTest.cpp</text>
</a>
</g>
</g>
<!-- Node2 -->
<g id="Node000002" class="node">
<title>Node2</title>
<g id="a_Node000002"><a xlink:href="TestFramework_8h.html" target="_top" xlink:title="Shared testing framework for ESP32&#45;C6 comprehensive test suites.">
<polygon fill="white" stroke="#666666" points="651,-318 530,-318 530,-295 651,-295 651,-318"/>
<text text-anchor="middle" x="590.5" y="-302.8" font-family="Arial" font-size="14.00">TestFramework.h</text>
</a>
</g>
</g>
<!-- Node1&#45;&gt;Node2 -->
<g id="edge1_Node000001_Node000002" class="edge">
<title>Node1&#45;&gt;Node2</title>
<g id="a_edge1_Node000001_Node000002"><a xlink:title=" ">
<path fill="none" stroke="#63b8ff" d="M1294.71,-364.35C1132.43,-351.25 804.99,-324.82 661.08,-313.2"/>
<polygon fill="#63b8ff" stroke="#63b8ff" points="661.29,-309.7 651.04,-312.39 660.72,-316.68 661.29,-309.7"/>
</a>
</g>
</g>
<!-- Node22 -->
<g id="Node000022" class="node">
<title>Node22</title>
<g id="a_Node000022"><a xlink:href="BaseNvs_8h.html" target="_top" xlink:title="Abstract base class for Non&#45;Volatile Storage implementations in the HardFOC system.">
<polygon fill="white" stroke="#666666" points="1102,-141 987,-141 987,-118 1102,-118 1102,-141"/>
<text text-anchor="middle" x="1044.5" y="-125.8" font-family="Arial" font-size="14.00">base/BaseNvs.h</text>
</a>
</g>
</g>
<!-- Node1&#45;&gt;Node22 -->
<g id="edge28_Node000001_Node000022" class="edge">
<title>Node1&#45;&gt;Node22</title>
<g id="a_edge28_Node000001_Node000022"><a xlink:title=" ">
<path fill="none" stroke="#63b8ff" d="M1361.47,-353.98C1329.19,-332.75 1275.13,-295.7 1232.5,-259 1193.91,-225.78 1194.46,-205.84 1152.5,-177 1132.6,-163.32 1108.04,-152.36 1087.37,-144.52"/>
<polygon fill="#63b8ff" stroke="#63b8ff" points="1088.47,-141.2 1077.87,-141.03 1086.05,-147.77 1088.47,-141.2"/>
</a>
</g>
</g>
<!-- Node23 -->
<g id="Node000023" class="node">
<title>Node23</title>
<g id="a_Node000023"><a xlink:href="EspNvs_8h.html" target="_top" xlink:title="World&#45;class ESP32 NVS storage implementation with ESP&#45;IDF v5.5+ features.">
<polygon fill="white" stroke="#666666" points="1387,-259 1242,-259 1242,-236 1387,-236 1387,-259"/>
<text text-anchor="middle" x="1314.5" y="-243.8" font-family="Arial" font-size="14.00">mcu/esp32/EspNvs.h</text>
</a>
</g>
</g>
<!-- Node1&#45;&gt;Node23 -->
<g id="edge32_Node000001_Node000023" class="edge">
<title>Node1&#45;&gt;Node23</title>
<g id="a_edge32_Node000001_Node000023"><a xlink:title=" ">
<path fill="none" stroke="#63b8ff" d="M1378.43,-353.78C1364.47,-330.78 1340.55,-291.39 1326.26,-267.86"/>
<polygon fill="#63b8ff" stroke="#63b8ff" points="1329.14,-265.86 1320.95,-259.13 1323.15,-269.49 1329.14,-265.86"/>
</a>
</g>
</g>
<!-- Node26 -->
<g id="Node000026" class="node">
<title>Node26</title>
<g id="a_Node000026"><a xlink:title=" ">
<polygon fill="#e0e0e0" stroke="#999999" points="1396.5,-141 1340.5,-141 1340.5,-118 1396.5,-118 1396.5,-141"/>
<text text-anchor="middle" x="1368.5" y="-125.8" font-family="Arial" font-size="14.00">cstring</text>
</a>
</g>
</g>
<!-- Node1&#45;&gt;Node26 -->
<g id="edge45_Node000001_Node000026" class="edge">
<title>Node1&#45;&gt;Node26</title>
<g id="a_edge45_Node000001_Node000026"><a xlink:title=" ">
<path fill="none" stroke="#63b8ff" d="M1393.74,-353.83C1401.14,-318.84 1414,-239.99 1396.5,-177 1393.79,-167.24 1388.41,-157.47 1383.09,-149.43"/>
<polygon fill="#63b8ff" stroke="#63b8ff" points="1385.88,-147.31 1377.25,-141.17 1380.17,-151.36 1385.88,-147.31"/>
</a>
</g>
</g>
<!-- Node27 -->
<g id="Node000027" class="node">
<title>Node27</title>
<g id="a_Node000027"><a xlink:title=" ">
<polygon fill="#e0e0e0" stroke="#999999" points="1495.5,-318 1443.5,-318 1443.5,-295 1495.5,-295 1495.5,-318"/>
<text text-anchor="middle" x="1469.5" y="-302.8" font-family="Arial" font-size="14.00">cstdio</text>
</a>
</g>
</g>
<!-- Node1&#45;&gt;Node27 -->
<g id="edge44_Node000001_Node000027" class="edge">
<title>Node1&#45;&gt;Node27</title>
<g id="a_edge44_Node000001_Node000027"><a xlink:title=" ">
<path fill="none" stroke="#63b8ff" d="M1412.21,-353.69C1423.55,-344.55 1437.18,-333.56 1448.3,-324.59"/>
<polygon fill="#63b8ff" stroke="#63b8ff" points="1450.65,-327.19 1456.24,-318.19 1446.26,-321.74 1450.65,-327.19"/>
</a>
</g>
</g>
<!-- Node28 -->
<g id="Node000028" class="node">
<title>Node28</title>
<g id="a_Node000028"><a xlink:title=" ">
<polygon fill="#e0e0e0" stroke="#999999" points="1577,-318 1514,-318 1514,-295 1577,-295 1577,-318"/>
<text text-anchor="middle" x="1545.5" y="-302.8" font-family="Arial" font-size="14.00">random</text>
</a>
</g>
</g>
<!-- Node1&#45;&gt;Node28 -->
<g id="edge46_Node000001_Node000028" class="edge">
<title>Node1&#45;&gt;Node28</title>
<g id="a_edge46_Node000001_Node000028"><a xlink:title=" ">
<path fill="none" stroke="#63b8ff" d="M1433.37,-353.86C1457.81,-343.75 1487.83,-331.34 1510.65,-321.91"/>
<polygon fill="#63b8ff" stroke="#63b8ff" points="1512.05,-325.12 1519.96,-318.06 1509.38,-318.65 1512.05,-325.12"/>
</a>
</g>
</g>
<!-- Node3 -->
<g id="Node000003" class="node">
<title>Node3</title>
<g id="a_Node000003"><a xlink:title=" ">
<polygon fill="#e0e0e0" stroke="#999999" points="773,-259 698,-259 698,-236 773,-236 773,-259"/>
<text text-anchor="middle" x="735.5" y="-243.8" font-family="Arial" font-size="14.00">esp_log.h</text>
</a>
</g>
</g>
<!-- Node2&#45;&gt;Node3 -->
<g id="edge2_Node000002_Node000003" class="edge">
<title>Node2&#45;&gt;Node3</title>
<g id="a_edge2_Node000002_Node000003"><a xlink:title=" ">
<path fill="none" stroke="#63b8ff" d="M617.43,-294.91C640.43,-285.87 673.7,-272.79 699.07,-262.82"/>
<polygon fill="#63b8ff" stroke="#63b8ff" points="700.68,-265.95 708.71,-259.03 698.12,-259.43 700.68,-265.95"/>
</a>
</g>
</g>
<!-- Node4 -->
<g id="Node000004" class="node">
<title>Node4</title>
<g id="a_Node000004"><a xlink:title=" ">
<polygon fill="#e0e0e0" stroke="#999999" points="87,-259 0,-259 0,-236 87,-236 87,-259"/>
<text text-anchor="middle" x="43.5" y="-243.8" font-family="Arial" font-size="14.00">esp_timer.h</text>
</a>
</g>
</g>
<!-- Node2&#45;&gt;Node4 -->
<g id="edge3_Node000002_Node000004" class="edge">
<title>Node2&#45;&gt;Node4</title>
<g id="a_edge3_Node000002_Node000004"><a xlink:title=" ">
<path fill="none" stroke="#63b8ff" d="M529.67,-301.86C437.96,-295.92 258.67,-282.52 97.25,-259.14"/>
<polygon fill="#63b8ff" stroke="#63b8ff" points="97.54,-255.64 87.13,-257.66 96.52,-262.57 97.54,-255.64"/>
</a>
</g>
</g>
<!-- Node5 -->
<g id="Node000005" class="node">
<title>Node5</title>
<g id="a_Node000005"><a xlink:title=" ">
<polygon fill="#e0e0e0" stroke="#999999" points="248,-259 105,-259 105,-236 248,-236 248,-259"/>
<text text-anchor="middle" x="176.5" y="-243.8" font-family="Arial" font-size="14.00">freertos/FreeRTOS.h</text>
</a>
</g>
</g>
<!-- Node2&#45;&gt;Node5 -->
<g id="edge4_Node000002_Node000005" class="edge">
<title>Node2&#45;&gt;Node5</title>
<g id="a_edge4_Node000002_Node000005"><a xlink:title=" ">
<path fill="none" stroke="#63b8ff" d="M529.86,-297.15C458.03,-287.26 338.06,-270.74 258.12,-259.74"/>
<polygon fill="#63b8ff" stroke="#63b8ff" points="258.47,-256.25 248.09,-258.36 257.52,-263.19 258.47,-256.25"/>
</a>
</g>
</g>
<!-- Node6 -->
<g id="Node000006" class="node">
<title>Node6</title>
<g id="a_Node000006"><a xlink:title=" ">
<polygon fill="#e0e0e0" stroke="#999999" points="381,-259 266,-259 266,-236 381,-236 381,-259"/>
<text text-anchor="middle" x="323.5" y="-243.8" font-family="Arial" font-size="14.00">freertos/queue.h</text>
</a>
</g>
</g>
<!-- Node2&#45;&gt;Node6 -->
<g id="edge5_Node000002_Node000006" class="edge">
<title>Node2&#45;&gt;Node6</title>
<g id="a_edge5_Node000002_Node000006"><a xlink:title=" ">
<path fill="none" stroke="#63b8ff" d="M541.22,-294.98C496.48,-285.43 430.42,-271.33 382.81,-261.16"/>
<polygon fill="#63b8ff" stroke="#63b8ff" points="383.46,-257.72 372.95,-259.06 382,-264.57 383.46,-257.72"/>
</a>
</g>
</g>
<!-- Node7 -->
<g id="Node000007" class="node">
<title>Node7</title>
<g id="a_Node000007"><a xlink:title=" ">
<polygon fill="#e0e0e0" stroke="#999999" points="521.5,-259 399.5,-259 399.5,-236 521.5,-236 521.5,-259"/>
<text text-anchor="middle" x="460.5" y="-243.8" font-family="Arial" font-size="14.00">freertos/semphr.h</text>
</a>
</g>
</g>
<!-- Node2&#45;&gt;Node7 -->
<g id="edge6_Node000002_Node000007" class="edge">
<title>Node2&#45;&gt;Node7</title>
<g id="a_edge6_Node000002_Node000007"><a xlink:title=" ">
<path fill="none" stroke="#63b8ff" d="M566.35,-294.91C545.92,-285.95 516.43,-273.02 493.77,-263.09"/>
<polygon fill="#63b8ff" stroke="#63b8ff" points="495.08,-259.84 484.52,-259.03 492.27,-266.25 495.08,-259.84"/>
</a>
</g>
</g>
<!-- Node8 -->
<g id="Node000008" class="node">
<title>Node8</title>
<g id="a_Node000008"><a xlink:title=" ">
<polygon fill="#e0e0e0" stroke="#999999" points="641.5,-259 539.5,-259 539.5,-236 641.5,-236 641.5,-259"/>
<text text-anchor="middle" x="590.5" y="-243.8" font-family="Arial" font-size="14.00">freertos/task.h</text>
</a>
</g>
</g>
<!-- Node2&#45;&gt;Node8 -->
<g id="edge7_Node000002_Node000008" class="edge">
<title>Node2&#45;&gt;Node8</title>
<g id="a_edge7_Node000002_Node000008"><a xlink:title=" ">
<path fill="none" stroke="#63b8ff" d="M590.5,-294.78C590.5,-287.61 590.5,-277.95 590.5,-269.31"/>
<polygon fill="#63b8ff" stroke="#63b8ff" points="594,-269.17 590.5,-259.17 587,-269.17 594,-269.17"/>
</a>
</g>
</g>
<!-- Node9 -->
<g id="Node000009" class="node">
<title>Node9</title>
<g id="a_Node000009"><a xlink:href="HardwareTypes_8h.html" target="_top" xlink:title="Platform&#45;agnostic hardware type definitions for the HardFOC system.">
<polygon fill="white" stroke="#666666" points="1084.5,-82 962.5,-82 962.5,-59 1084.5,-59 1084.5,-82"/>
<text text-anchor="middle" x="1023.5" y="-66.8" font-family="Arial" font-size="14.00">HardwareTypes.h</text>
</a>
</g>
</g>
<!-- Node2&#45;&gt;Node9 -->
<g id="edge8_Node000002_Node000009" class="edge">
<title>Node2&#45;&gt;Node9</title>
<g id="a_edge8_Node000002_Node000009"><a xlink:title=" ">
<path fill="none" stroke="#63b8ff" d="M605.59,-294.87C618.07,-285.84 636.02,-272.26 650.5,-259 687.15,-225.45 685,-204.33 726.5,-177 748.45,-162.55 904.73,-110.37 981.36,-85.23"/>
<polygon fill="#63b8ff" stroke="#63b8ff" points="982.76,-88.45 991.17,-82.01 980.58,-81.8 982.76,-88.45"/>
</a>
</g>
</g>
<!-- Node12 -->
<g id="Node000012" class="node">
<title>Node12</title>
<g id="a_Node000012"><a xlink:href="EspGpio_8h.html" target="_top" xlink:title="Advanced MCU&#45;specific implementation of the unified BaseGpio class with ESP32/ESP&#45;IDF v5....">
<polygon fill="white" stroke="#666666" points="942,-259 791,-259 791,-236 942,-236 942,-259"/>
<text text-anchor="middle" x="866.5" y="-243.8" font-family="Arial" font-size="14.00">mcu/esp32/EspGpio.h</text>
</a>
</g>
</g>
<!-- Node2&#45;&gt;Node12 -->
<g id="edge11_Node000002_Node000012" class="edge">
<title>Node2&#45;&gt;Node12</title>
<g id="a_edge11_Node000002_Node000012"><a xlink:title=" ">
<path fill="none" stroke="#63b8ff" d="M641.44,-294.98C687.78,-285.41 756.26,-271.27 805.5,-261.1"/>
<polygon fill="#63b8ff" stroke="#63b8ff" points="806.3,-264.51 815.39,-259.06 804.88,-257.65 806.3,-264.51"/>
</a>
</g>
</g>
<!-- Node10 -->
<g id="Node000010" class="node">
<title>Node10</title>
<g id="a_Node000010"><a xlink:title=" ">
<polygon fill="#e0e0e0" stroke="#999999" points="1159.5,-23 1103.5,-23 1103.5,0 1159.5,0 1159.5,-23"/>
<text text-anchor="middle" x="1131.5" y="-7.8" font-family="Arial" font-size="14.00">cstdint</text>
</a>
</g>
</g>
<!-- Node9&#45;&gt;Node10 -->
<g id="edge9_Node000009_Node000010" class="edge">
<title>Node9&#45;&gt;Node10</title>
<g id="a_edge9_Node000009_Node000010"><a xlink:title=" ">
<path fill="none" stroke="#63b8ff" d="M1043.56,-58.91C1060.16,-50.15 1083.94,-37.6 1102.59,-27.76"/>
<polygon fill="#63b8ff" stroke="#63b8ff" points="1104.34,-30.79 1111.55,-23.03 1101.07,-24.6 1104.34,-30.79"/>
</a>
</g>
</g>
<!-- Node11 -->
<g id="Node000011" class="node">
<title>Node11</title>
<g id="a_Node000011"><a xlink:title=" ">
<polygon fill="#e0e0e0" stroke="#999999" points="1047.5,-23 999.5,-23 999.5,0 1047.5,0 1047.5,-23"/>
<text text-anchor="middle" x="1023.5" y="-7.8" font-family="Arial" font-size="14.00">limits</text>
</a>
</g>
</g>
<!-- Node9&#45;&gt;Node11 -->
<g id="edge10_Node000009_Node000011" class="edge">
<title>Node9&#45;&gt;Node11</title>
<g id="a_edge10_Node000009_Node000011"><a xlink:title=" ">
<path fill="none" stroke="#63b8ff" d="M1023.5,-58.78C1023.5,-51.61 1023.5,-41.95 1023.5,-33.31"/>
<polygon fill="#63b8ff" stroke="#63b8ff" points="1027,-33.17 1023.5,-23.17 1020,-33.17 1027,-33.17"/>
</a>
</g>
</g>
<!-- Node13 -->
<g id="Node000013" class="node">
<title>Node13</title>
<g id="a_Node000013"><a xlink:title=" ">
<polygon fill="#e0e0e0" stroke="#999999" points="901,-200 810,-200 810,-177 901,-177 901,-200"/>
<text text-anchor="middle" x="855.5" y="-184.8" font-family="Arial" font-size="14.00">driver/gpio.h</text>
</a>
</g>
</g>
<!-- Node12&#45;&gt;Node13 -->
<g id="edge12_Node000012_Node000013" class="edge">
<title>Node12&#45;&gt;Node13</title>
<g id="a_edge12_Node000012_Node000013"><a xlink:title=" ">
<path fill="none" stroke="#63b8ff" d="M864.43,-235.78C863.03,-228.53 861.14,-218.74 859.46,-210.02"/>
<polygon fill="#63b8ff" stroke="#63b8ff" points="862.89,-209.33 857.56,-200.17 856.02,-210.66 862.89,-209.33"/>
</a>
</g>
</g>
<!-- Node14 -->
<g id="Node000014" class="node">
<title>Node14</title>
<g id="a_Node000014"><a xlink:title=" ">
<polygon fill="#e0e0e0" stroke="#999999" points="995.5,-200 919.5,-200 919.5,-177 995.5,-177 995.5,-200"/>
<text text-anchor="middle" x="957.5" y="-184.8" font-family="Arial" font-size="14.00">esp_attr.h</text>
</a>
</g>
</g>
<!-- Node12&#45;&gt;Node14 -->
<g id="edge13_Node000012_Node000014" class="edge">
<title>Node12&#45;&gt;Node14</title>
<g id="a_edge13_Node000012_Node000014"><a xlink:title=" ">
<path fill="none" stroke="#63b8ff" d="M883.62,-235.78C897.22,-227.26 916.45,-215.21 931.88,-205.55"/>
<polygon fill="#63b8ff" stroke="#63b8ff" points="933.84,-208.45 940.46,-200.17 930.13,-202.52 933.84,-208.45"/>
</a>
</g>
</g>
<!-- Node15 -->
<g id="Node000015" class="node">
<title>Node15</title>
<g id="a_Node000015"><a xlink:href="BaseGpio_8h.html" target="_top" xlink:title="Unified GPIO base class for all digital GPIO implementations.">
<polygon fill="white" stroke="#666666" points="803.5,-141 715.5,-141 715.5,-118 803.5,-118 803.5,-141"/>
<text text-anchor="middle" x="759.5" y="-125.8" font-family="Arial" font-size="14.00">BaseGpio.h</text>
</a>
</g>
</g>
<!-- Node12&#45;&gt;Node15 -->
<g id="edge14_Node000012_Node000015" class="edge">
<title>Node12&#45;&gt;Node15</title>
<g id="a_edge14_Node000012_Node000015"><a xlink:title=" ">
<path fill="none" stroke="#63b8ff" d="M815.01,-236C779.64,-227.62 737.22,-214.85 726.5,-200 714.89,-183.92 727.86,-163.11 740.79,-148.46"/>
<polygon fill="#63b8ff" stroke="#63b8ff" points="743.49,-150.7 747.82,-141.03 738.4,-145.9 743.49,-150.7"/>
</a>
</g>
</g>
<!-- Node17 -->
<g id="Node000017" class="node">
<title>Node17</title>
<g id="a_Node000017"><a xlink:href="EspTypes__GPIO_8h.html" target="_top" xlink:title="ESP32 GPIO type definitions for hardware abstraction.">
<polygon fill="white" stroke="#666666" points="1143.5,-200 1013.5,-200 1013.5,-177 1143.5,-177 1143.5,-200"/>
<text text-anchor="middle" x="1078.5" y="-184.8" font-family="Arial" font-size="14.00">EspTypes_GPIO.h</text>
</a>
</g>
</g>
<!-- Node12&#45;&gt;Node17 -->
<g id="edge18_Node000012_Node000017" class="edge">
<title>Node12&#45;&gt;Node17</title>
<g id="a_edge18_Node000012_Node000017"><a xlink:title=" ">
<path fill="none" stroke="#63b8ff" d="M905.88,-235.91C940.83,-226.51 992.04,-212.75 1029.61,-202.65"/>
<polygon fill="#63b8ff" stroke="#63b8ff" points="1030.58,-206.01 1039.33,-200.03 1028.77,-199.25 1030.58,-206.01"/>
</a>
</g>
</g>
<!-- Node21 -->
<g id="Node000021" class="node">
<title>Node21</title>
<g id="a_Node000021"><a xlink:title=" ">
<polygon fill="#e0e0e0" stroke="#999999" points="791.5,-200 735.5,-200 735.5,-177 791.5,-177 791.5,-200"/>
<text text-anchor="middle" x="763.5" y="-184.8" font-family="Arial" font-size="14.00">stdio.h</text>
</a>
</g>
</g>
<!-- Node12&#45;&gt;Node21 -->
<g id="edge27_Node000012_Node000021" class="edge">
<title>Node12&#45;&gt;Node21</title>
<g id="a_edge27_Node000012_Node000021"><a xlink:title=" ">
<path fill="none" stroke="#63b8ff" d="M847.13,-235.78C831.59,-227.18 809.56,-214.99 792.01,-205.28"/>
<polygon fill="#63b8ff" stroke="#63b8ff" points="793.23,-201.95 782.79,-200.17 789.84,-208.08 793.23,-201.95"/>
</a>
</g>
</g>
<!-- Node15&#45;&gt;Node9 -->
<g id="edge15_Node000015_Node000009" class="edge">
<title>Node15&#45;&gt;Node9</title>
<g id="a_edge15_Node000015_Node000009"><a xlink:title=" ">
<path fill="none" stroke="#63b8ff" d="M803.69,-118.96C847.91,-109.41 916.19,-94.67 964.91,-84.15"/>
<polygon fill="#63b8ff" stroke="#63b8ff" points="965.65,-87.57 974.68,-82.04 964.17,-80.73 965.65,-87.57"/>
</a>
</g>
</g>
<!-- Node15&#45;&gt;Node10 -->
<g id="edge16_Node000015_Node000010" class="edge">
<title>Node15&#45;&gt;Node10</title>
<g id="a_edge16_Node000015_Node000010"><a xlink:title=" ">
<path fill="none" stroke="#63b8ff" d="M769.29,-117.76C784.27,-102.06 814.52,-73.2 846.5,-59 857.71,-54.02 1018.48,-29.46 1093.48,-18.18"/>
<polygon fill="#63b8ff" stroke="#63b8ff" points="1094.1,-21.63 1103.47,-16.68 1093.06,-14.7 1094.1,-21.63"/>
</a>
</g>
</g>
<!-- Node16 -->
<g id="Node000016" class="node">
<title>Node16</title>
<g id="a_Node000016"><a xlink:title=" ">
<polygon fill="#e0e0e0" stroke="#999999" points="939.5,-82 855.5,-82 855.5,-59 939.5,-59 939.5,-82"/>
<text text-anchor="middle" x="897.5" y="-66.8" font-family="Arial" font-size="14.00">string_view</text>
</a>
</g>
</g>
<!-- Node15&#45;&gt;Node16 -->
<g id="edge17_Node000015_Node000016" class="edge">
<title>Node15&#45;&gt;Node16</title>
<g id="a_edge17_Node000015_Node000016"><a xlink:title=" ">
<path fill="none" stroke="#63b8ff" d="M785.13,-117.91C806.92,-108.91 838.4,-95.91 862.51,-85.95"/>
<polygon fill="#63b8ff" stroke="#63b8ff" points="864.1,-89.08 872,-82.03 861.43,-82.61 864.1,-89.08"/>
</a>
</g>
</g>
<!-- Node17&#45;&gt;Node9 -->
<g id="edge25_Node000017_Node000009" class="edge">
<title>Node17&#45;&gt;Node9</title>
<g id="a_edge25_Node000017_Node000009"><a xlink:title=" ">
<path fill="none" stroke="#63b8ff" d="M1030.25,-176.97C996.18,-168.44 954.81,-155.5 944.5,-141 928.77,-118.9 957.87,-99.05 985.08,-86.28"/>
<polygon fill="#63b8ff" stroke="#63b8ff" points="986.84,-89.33 994.55,-82.07 984,-82.94 986.84,-89.33"/>
</a>
</g>
</g>
<!-- Node17&#45;&gt;Node15 -->
<g id="edge19_Node000017_Node000015" class="edge">
<title>Node17&#45;&gt;Node15</title>
<g id="a_edge19_Node000017_Node000015"><a xlink:title=" ">
<path fill="none" stroke="#63b8ff" d="M1019.62,-176.98C960.69,-166.45 870.78,-150.38 813.6,-140.17"/>
<polygon fill="#63b8ff" stroke="#63b8ff" points="814.13,-136.71 803.67,-138.39 812.9,-143.6 814.13,-136.71"/>
</a>
</g>
</g>
<!-- Node18 -->
<g id="Node000018" class="node">
<title>Node18</title>
<g id="a_Node000018"><a xlink:href="EspTypes__Base_8h.html" target="_top" xlink:title="ESP32 base type definitions for hardware abstraction.">
<polygon fill="white" stroke="#666666" points="1284,-141 1159,-141 1159,-118 1284,-118 1284,-141"/>
<text text-anchor="middle" x="1221.5" y="-125.8" font-family="Arial" font-size="14.00">EspTypes_Base.h</text>
</a>
</g>
</g>
<!-- Node17&#45;&gt;Node18 -->
<g id="edge20_Node000017_Node000018" class="edge">
<title>Node17&#45;&gt;Node18</title>
<g id="a_edge20_Node000017_Node000018"><a xlink:title=" ">
<path fill="none" stroke="#63b8ff" d="M1105.06,-176.91C1127.74,-167.87 1160.55,-154.79 1185.57,-144.82"/>
<polygon fill="#63b8ff" stroke="#63b8ff" points="1187.09,-147.98 1195.08,-141.03 1184.49,-141.48 1187.09,-147.98"/>
</a>
</g>
</g>
<!-- Node19 -->
<g id="Node000019" class="node">
<title>Node19</title>
<g id="a_Node000019"><a xlink:href="McuSelect_8h.html" target="_top" xlink:title="Centralized MCU platform selection and configuration header.">
<polygon fill="white" stroke="#666666" points="1320.5,-82 1178.5,-82 1178.5,-59 1320.5,-59 1320.5,-82"/>
<text text-anchor="middle" x="1249.5" y="-66.8" font-family="Arial" font-size="14.00">../../utils/McuSelect.h</text>
</a>
</g>
</g>
<!-- Node17&#45;&gt;Node19 -->
<g id="edge26_Node000017_Node000019" class="edge">
<title>Node17&#45;&gt;Node19</title>
<g id="a_edge26_Node000017_Node000019"><a xlink:title=" ">
<path fill="none" stroke="#63b8ff" d="M1038.65,-176.93C1001.62,-165.19 955.27,-144.36 977.5,-118 989.84,-103.37 1092.79,-88.88 1168.4,-80.06"/>
<polygon fill="#63b8ff" stroke="#63b8ff" points="1168.88,-83.53 1178.41,-78.91 1168.07,-76.58 1168.88,-83.53"/>
</a>
</g>
</g>
<!-- Node18&#45;&gt;Node9 -->
<g id="edge22_Node000018_Node000009" class="edge">
<title>Node18&#45;&gt;Node9</title>
<g id="a_edge22_Node000018_Node000009"><a xlink:title=" ">
<path fill="none" stroke="#63b8ff" d="M1184.72,-117.91C1152.35,-108.59 1105.06,-94.98 1070.06,-84.9"/>
<polygon fill="#63b8ff" stroke="#63b8ff" points="1070.66,-81.43 1060.08,-82.03 1068.72,-88.16 1070.66,-81.43"/>
</a>
</g>
</g>
<!-- Node18&#45;&gt;Node10 -->
<g id="edge24_Node000018_Node000010" class="edge">
<title>Node18&#45;&gt;Node10</title>
<g id="a_edge24_Node000018_Node000010"><a xlink:title=" ">
<path fill="none" stroke="#63b8ff" d="M1207.04,-117.79C1195.86,-109.03 1180.49,-95.85 1169.5,-82 1157.39,-66.74 1147.05,-47.1 1140.23,-32.59"/>
<polygon fill="#63b8ff" stroke="#63b8ff" points="1143.23,-30.72 1135.91,-23.06 1136.85,-33.62 1143.23,-30.72"/>
</a>
</g>
</g>
<!-- Node18&#45;&gt;Node19 -->
<g id="edge21_Node000018_Node000019" class="edge">
<title>Node18&#45;&gt;Node19</title>
<g id="a_edge21_Node000018_Node000019"><a xlink:title=" ">
<path fill="none" stroke="#63b8ff" d="M1226.77,-117.78C1230.44,-110.29 1235.46,-100.09 1239.84,-91.16"/>
<polygon fill="#63b8ff" stroke="#63b8ff" points="1242.99,-92.69 1244.26,-82.17 1236.71,-89.61 1242.99,-92.69"/>
</a>
</g>
</g>
<!-- Node20 -->
<g id="Node000020" class="node">
<title>Node20</title>
<g id="a_Node000020"><a xlink:title=" ">
<polygon fill="#e0e0e0" stroke="#999999" points="1408,-82 1351,-82 1351,-59 1408,-59 1408,-82"/>
<text text-anchor="middle" x="1379.5" y="-66.8" font-family="Arial" font-size="14.00">atomic</text>
</a>
</g>
</g>
<!-- Node18&#45;&gt;Node20 -->
<g id="edge23_Node000018_Node000020" class="edge">
<title>Node18&#45;&gt;Node20</title>
<g id="a_edge23_Node000018_Node000020"><a xlink:title=" ">
<path fill="none" stroke="#63b8ff" d="M1250.85,-117.91C1276.39,-108.7 1313.59,-95.28 1341.42,-85.24"/>
<polygon fill="#63b8ff" stroke="#63b8ff" points="1342.62,-88.52 1350.84,-81.84 1340.25,-81.94 1342.62,-88.52"/>
</a>
</g>
</g>
<!-- Node22&#45;&gt;Node9 -->
<g id="edge29_Node000022_Node000009" class="edge">
<title>Node22&#45;&gt;Node9</title>
<g id="a_edge29_Node000022_Node000009"><a xlink:title=" ">
<path fill="none" stroke="#63b8ff" d="M1040.55,-117.78C1037.85,-110.45 1034.19,-100.52 1030.96,-91.74"/>
<polygon fill="#63b8ff" stroke="#63b8ff" points="1034.17,-90.35 1027.43,-82.17 1027.61,-92.77 1034.17,-90.35"/>
</a>
</g>
</g>
<!-- Node22&#45;&gt;Node10 -->
<g id="edge30_Node000022_Node000010" class="edge">
<title>Node22&#45;&gt;Node10</title>
<g id="a_edge30_Node000022_Node000010"><a xlink:title=" ">
<path fill="none" stroke="#63b8ff" d="M1057.65,-118C1068.19,-109.15 1082.91,-95.75 1093.5,-82 1105.38,-66.57 1115.74,-46.94 1122.64,-32.48"/>
<polygon fill="#63b8ff" stroke="#63b8ff" points="1126,-33.55 1127.01,-23 1119.64,-30.61 1126,-33.55"/>
</a>
</g>
</g>
<!-- Node22&#45;&gt;Node16 -->
<g id="edge31_Node000022_Node000016" class="edge">
<title>Node22&#45;&gt;Node16</title>
<g id="a_edge31_Node000022_Node000016"><a xlink:title=" ">
<path fill="none" stroke="#63b8ff" d="M1017.19,-117.91C993.78,-108.83 959.85,-95.68 934.09,-85.69"/>
<polygon fill="#63b8ff" stroke="#63b8ff" points="935.25,-82.38 924.66,-82.03 932.72,-88.91 935.25,-82.38"/>
</a>
</g>
</g>
<!-- Node23&#45;&gt;Node10 -->
<g id="edge43_Node000023_Node000010" class="edge">
<title>Node23&#45;&gt;Node10</title>
<g id="a_edge43_Node000023_Node000010"><a xlink:title=" ">
<path fill="none" stroke="#63b8ff" d="M1383.13,-235.95C1462.38,-220.43 1577.32,-185.63 1539.5,-118 1515.06,-74.29 1490.55,-76.15 1443.5,-59 1349.09,-24.59 1229.74,-15.62 1169.7,-13.3"/>
<polygon fill="#63b8ff" stroke="#63b8ff" points="1169.66,-9.79 1159.54,-12.95 1169.41,-16.79 1169.66,-9.79"/>
</a>
</g>
</g>
<!-- Node23&#45;&gt;Node22 -->
<g id="edge33_Node000023_Node000022" class="edge">
<title>Node23&#45;&gt;Node22</title>
<g id="a_edge33_Node000023_Node000022"><a xlink:title=" ">
<path fill="none" stroke="#63b8ff" d="M1294.87,-235.87C1259.46,-216.7 1188.3,-178.21 1185.5,-177 1155.24,-163.98 1120.05,-152.37 1092.4,-144.01"/>
<polygon fill="#63b8ff" stroke="#63b8ff" points="1093.16,-140.58 1082.57,-141.08 1091.15,-147.29 1093.16,-140.58"/>
</a>
</g>
</g>
<!-- Node24 -->
<g id="Node000024" class="node">
<title>Node24</title>
<g id="a_Node000024"><a xlink:href="PlatformMutex_8h.html" target="_top" xlink:title="Cross&#45;platform mutex and synchronization primitives with pluggable backend.">
<polygon fill="white" stroke="#666666" points="1530.5,-141 1414.5,-141 1414.5,-118 1530.5,-118 1530.5,-141"/>
<text text-anchor="middle" x="1472.5" y="-125.8" font-family="Arial" font-size="14.00">PlatformMutex.h</text>
</a>
</g>
</g>
<!-- Node23&#45;&gt;Node24 -->
<g id="edge34_Node000023_Node000024" class="edge">
<title>Node23&#45;&gt;Node24</title>
<g id="a_edge34_Node000023_Node000024"><a xlink:title=" ">
<path fill="none" stroke="#63b8ff" d="M1336.2,-235.9C1353.22,-227.19 1377.17,-214.04 1396.5,-200 1417.98,-184.39 1440.11,-163.51 1454.91,-148.72"/>
<polygon fill="#63b8ff" stroke="#63b8ff" points="1457.8,-150.78 1462.33,-141.2 1452.82,-145.86 1457.8,-150.78"/>
</a>
</g>
</g>
<!-- Node25 -->
<g id="Node000025" class="node">
<title>Node25</title>
<g id="a_Node000025"><a xlink:href="EspTypes__NVS_8h.html" target="_top" xlink:title="ESP32 NVS type definitions for hardware abstraction.">
<polygon fill="white" stroke="#666666" points="1387.5,-200 1237.5,-200 1237.5,-177 1387.5,-177 1387.5,-200"/>
<text text-anchor="middle" x="1312.5" y="-184.8" font-family="Arial" font-size="14.00">utils/EspTypes_NVS.h</text>
</a>
</g>
</g>
<!-- Node23&#45;&gt;Node25 -->
<g id="edge37_Node000023_Node000025" class="edge">
<title>Node23&#45;&gt;Node25</title>
<g id="a_edge37_Node000023_Node000025"><a xlink:title=" ">
<path fill="none" stroke="#63b8ff" d="M1314.12,-235.78C1313.87,-228.61 1313.53,-218.95 1313.23,-210.31"/>
<polygon fill="#63b8ff" stroke="#63b8ff" points="1316.72,-210.04 1312.87,-200.17 1309.73,-210.29 1316.72,-210.04"/>
</a>
</g>
</g>
<!-- Node24&#45;&gt;Node10 -->
<g id="edge36_Node000024_Node000010" class="edge">
<title>Node24&#45;&gt;Node10</title>
<g id="a_edge36_Node000024_Node000010"><a xlink:title=" ">
<path fill="none" stroke="#63b8ff" d="M1467.42,-117.99C1459.26,-102.33 1441.64,-73.19 1417.5,-59 1376.23,-34.75 1238.25,-20.86 1170.17,-15.32"/>
<polygon fill="#63b8ff" stroke="#63b8ff" points="1170.11,-11.81 1159.87,-14.51 1169.56,-18.79 1170.11,-11.81"/>
</a>
</g>
</g>
<!-- Node24&#45;&gt;Node20 -->
<g id="edge35_Node000024_Node000020" class="edge">
<title>Node24&#45;&gt;Node20</title>
<g id="a_edge35_Node000024_Node000020"><a xlink:title=" ">
<path fill="none" stroke="#63b8ff" d="M1455.01,-117.78C1441.11,-109.26 1421.45,-97.21 1405.68,-87.55"/>
<polygon fill="#63b8ff" stroke="#63b8ff" points="1407.27,-84.41 1396.91,-82.17 1403.61,-90.38 1407.27,-84.41"/>
</a>
</g>
</g>
<!-- Node25&#45;&gt;Node9 -->
<g id="edge40_Node000025_Node000009" class="edge">
<title>Node25&#45;&gt;Node9</title>
<g id="a_edge40_Node000025_Node000009"><a xlink:title=" ">
<path fill="none" stroke="#63b8ff" d="M1263.24,-176.92C1230.3,-169.01 1186.41,-156.84 1149.5,-141 1131.01,-133.06 1128.04,-127.86 1110.5,-118 1091.48,-107.31 1069.84,-95.75 1052.9,-86.82"/>
<polygon fill="#63b8ff" stroke="#63b8ff" points="1054.5,-83.71 1044.02,-82.16 1051.25,-89.91 1054.5,-83.71"/>
</a>
</g>
</g>
<!-- Node25&#45;&gt;Node18 -->
<g id="edge39_Node000025_Node000018" class="edge">
<title>Node25&#45;&gt;Node18</title>
<g id="a_edge39_Node000025_Node000018"><a xlink:title=" ">
<path fill="none" stroke="#63b8ff" d="M1295.38,-176.78C1281.78,-168.26 1262.55,-156.21 1247.12,-146.55"/>
<polygon fill="#63b8ff" stroke="#63b8ff" points="1248.87,-143.52 1238.54,-141.17 1245.16,-149.45 1248.87,-143.52"/>
</a>
</g>
</g>
<!-- Node25&#45;&gt;Node19 -->
<g id="edge41_Node000025_Node000019" class="edge">
<title>Node25&#45;&gt;Node19</title>
<g id="a_edge41_Node000025_Node000019"><a xlink:title=" ">
<path fill="none" stroke="#63b8ff" d="M1310.96,-176.53C1308.61,-162.3 1303.23,-137.03 1292.5,-118 1286.53,-107.4 1277.68,-97.28 1269.57,-89.2"/>
<polygon fill="#63b8ff" stroke="#63b8ff" points="1271.79,-86.48 1262.13,-82.13 1266.97,-91.56 1271.79,-86.48"/>
</a>
</g>
</g>
<!-- Node25&#45;&gt;Node22 -->
<g id="edge38_Node000025_Node000022" class="edge">
<title>Node25&#45;&gt;Node22</title>
<g id="a_edge38_Node000025_Node000022"><a xlink:title=" ">
<path fill="none" stroke="#63b8ff" d="M1263.03,-176.98C1218.13,-167.43 1151.83,-153.33 1104.04,-143.16"/>
<polygon fill="#63b8ff" stroke="#63b8ff" points="1104.64,-139.71 1094.13,-141.06 1103.19,-146.56 1104.64,-139.71"/>
</a>
</g>
</g>
<!-- Node25&#45;&gt;Node26 -->
<g id="edge42_Node000025_Node000026" class="edge">
<title>Node25&#45;&gt;Node26</title>
<g id="a_edge42_Node000025_Node000026"><a xlink:title=" ">
<path fill="none" stroke="#63b8ff" d="M1323.03,-176.78C1330.85,-168.82 1341.7,-157.77 1350.84,-148.47"/>
<polygon fill="#63b8ff" stroke="#63b8ff" points="1353.5,-150.76 1358.01,-141.17 1348.51,-145.85 1353.5,-150.76"/>
</a>
</g>
</g>
</g>
</svg>
