<?xml version="1.0" encoding="UTF-8" standalone="no"?>
<!DOCTYPE svg PUBLIC "-//W3C//DTD SVG 1.1//EN"
 "http://www.w3.org/Graphics/SVG/1.1/DTD/svg11.dtd">
<!-- Generated by graphviz version 2.43.0 (0)
 -->
<!-- Title: inc/utils/RtosMutex.h Pages: 1 -->
<svg width="672pt" height="90pt"
 viewBox="0.00 0.00 672.00 90.00" xmlns="http://www.w3.org/2000/svg" xmlns:xlink="http://www.w3.org/1999/xlink">
<g id="graph0" class="graph" transform="scale(1 1) rotate(0) translate(4 86)">
<title>inc/utils/RtosMutex.h</title>
<!-- Node1 -->
<g id="Node000001" class="node">
<title>Node1</title>
<g id="a_Node000001"><a xlink:title="Cross&#45;platform RTOS mutex and synchronization primitives.">
<polygon fill="#999999" stroke="#666666" points="469,-82 327,-82 327,-59 469,-59 469,-82"/>
<text text-anchor="middle" x="398" y="-66.8" font-family="Arial" font-size="14.00">inc/utils/RtosMutex.h</text>
</a>
</g>
</g>
<!-- Node2 -->
<g id="Node000002" class="node">
<title>Node2</title>
<g id="a_Node000002"><a xlink:href="McuSelect_8h.html" target="_top" xlink:title="Centralized MCU platform selection and configuration header.">
<polygon fill="white" stroke="#666666" points="92,-23 0,-23 0,0 92,0 92,-23"/>
<text text-anchor="middle" x="46" y="-7.8" font-family="Arial" font-size="14.00">McuSelect.h</text>
</a>
</g>
</g>
<!-- Node1&#45;&gt;Node2 -->
<g id="edge1_Node000001_Node000002" class="edge">
<title>Node1&#45;&gt;Node2</title>
<g id="a_edge1_Node000001_Node000002"><a xlink:title=" ">
<path fill="none" stroke="#63b8ff" d="M326.78,-59.03C268.9,-50.37 184.88,-37.43 102.26,-23.18"/>
<polygon fill="#63b8ff" stroke="#63b8ff" points="102.64,-19.69 92.19,-21.43 101.45,-26.59 102.64,-19.69"/>
</a>
</g>
</g>
<!-- Node3 -->
<g id="Node000003" class="node">
<title>Node3</title>
<g id="a_Node000003"><a xlink:title=" ">
<polygon fill="#e0e0e0" stroke="#999999" points="253.5,-23 110.5,-23 110.5,0 253.5,0 253.5,-23"/>
<text text-anchor="middle" x="182" y="-7.8" font-family="Arial" font-size="14.00">freertos/FreeRTOS.h</text>
</a>
</g>
</g>
<!-- Node1&#45;&gt;Node3 -->
<g id="edge2_Node000001_Node000003" class="edge">
<title>Node1&#45;&gt;Node3</title>
<g id="a_edge2_Node000001_Node000003"><a xlink:title=" ">
<path fill="none" stroke="#63b8ff" d="M358.13,-58.98C322.55,-49.59 270.28,-35.8 231.93,-25.68"/>
<polygon fill="#63b8ff" stroke="#63b8ff" points="232.56,-22.22 222,-23.06 230.78,-28.99 232.56,-22.22"/>
</a>
</g>
</g>
<!-- Node4 -->
<g id="Node000004" class="node">
<title>Node4</title>
<g id="a_Node000004"><a xlink:title=" ">
<polygon fill="#e0e0e0" stroke="#999999" points="394,-23 272,-23 272,0 394,0 394,-23"/>
<text text-anchor="middle" x="333" y="-7.8" font-family="Arial" font-size="14.00">freertos/semphr.h</text>
</a>
</g>
</g>
<!-- Node1&#45;&gt;Node4 -->
<g id="edge3_Node000001_Node000004" class="edge">
<title>Node1&#45;&gt;Node4</title>
<g id="a_edge3_Node000001_Node000004"><a xlink:title=" ">
<path fill="none" stroke="#63b8ff" d="M385.77,-58.78C376.51,-50.66 363.6,-39.33 352.86,-29.92"/>
<polygon fill="#63b8ff" stroke="#63b8ff" points="355,-27.13 345.17,-23.17 350.38,-32.4 355,-27.13"/>
</a>
</g>
</g>
<!-- Node5 -->
<g id="Node000005" class="node">
<title>Node5</title>
<g id="a_Node000005"><a xlink:title=" ">
<polygon fill="#e0e0e0" stroke="#999999" points="514,-23 412,-23 412,0 514,0 514,-23"/>
<text text-anchor="middle" x="463" y="-7.8" font-family="Arial" font-size="14.00">freertos/task.h</text>
</a>
</g>
</g>
<!-- Node1&#45;&gt;Node5 -->
<g id="edge4_Node000001_Node000005" class="edge">
<title>Node1&#45;&gt;Node5</title>
<g id="a_edge4_Node000001_Node000005"><a xlink:title=" ">
<path fill="none" stroke="#63b8ff" d="M410.23,-58.78C419.49,-50.66 432.4,-39.33 443.14,-29.92"/>
<polygon fill="#63b8ff" stroke="#63b8ff" points="445.62,-32.4 450.83,-23.17 441,-27.13 445.62,-32.4"/>
</a>
</g>
</g>
<!-- Node6 -->
<g id="Node000006" class="node">
<title>Node6</title>
<g id="a_Node000006"><a xlink:title=" ">
<polygon fill="#e0e0e0" stroke="#999999" points="589.5,-23 532.5,-23 532.5,0 589.5,0 589.5,-23"/>
<text text-anchor="middle" x="561" y="-7.8" font-family="Arial" font-size="14.00">atomic</text>
</a>
</g>
</g>
<!-- Node1&#45;&gt;Node6 -->
<g id="edge5_Node000001_Node000006" class="edge">
<title>Node1&#45;&gt;Node6</title>
<g id="a_edge5_Node000001_Node000006"><a xlink:title=" ">
<path fill="none" stroke="#63b8ff" d="M428.28,-58.91C454.88,-49.61 493.72,-36.03 522.52,-25.96"/>
<polygon fill="#63b8ff" stroke="#63b8ff" points="523.97,-29.16 532.25,-22.55 521.66,-22.55 523.97,-29.16"/>
</a>
</g>
</g>
<!-- Node7 -->
<g id="Node000007" class="node">
<title>Node7</title>
<g id="a_Node000007"><a xlink:title=" ">
<polygon fill="#e0e0e0" stroke="#999999" points="664,-23 608,-23 608,0 664,0 664,-23"/>
<text text-anchor="middle" x="636" y="-7.8" font-family="Arial" font-size="14.00">cstdint</text>
</a>
</g>
</g>
<!-- Node1&#45;&gt;Node7 -->
<g id="edge6_Node000001_Node000007" class="edge">
<title>Node1&#45;&gt;Node7</title>
<g id="a_edge6_Node000001_Node000007"><a xlink:title=" ">
<path fill="none" stroke="#63b8ff" d="M446.49,-58.98C485.07,-50.46 540.66,-37.82 597.82,-23.22"/>
<polygon fill="#63b8ff" stroke="#63b8ff" points="598.94,-26.55 607.76,-20.67 597.2,-19.77 598.94,-26.55"/>
</a>
</g>
</g>
</g>
</svg>
