<?xml version="1.0" encoding="UTF-8" standalone="no"?>
<!DOCTYPE svg PUBLIC "-//W3C//DTD SVG 1.1//EN"
 "http://www.w3.org/Graphics/SVG/1.1/DTD/svg11.dtd">
<!-- Generated by graphviz version 2.43.0 (0)
 -->
<!-- Title: src/mcu/stm32/StmAdc.cpp Pages: 1 -->
<svg width="363pt" height="267pt"
 viewBox="0.00 0.00 362.94 267.00" xmlns="http://www.w3.org/2000/svg" xmlns:xlink="http://www.w3.org/1999/xlink">
<g id="graph0" class="graph" transform="scale(1 1) rotate(0) translate(4 263)">
<title>src/mcu/stm32/StmAdc.cpp</title>
<!-- Node1 -->
<g id="Node000001" class="node">
<title>Node1</title>
<g id="a_Node000001"><a xlink:title="STM32 ADC wrapper implementation — full STM32 HAL integration.">
<polygon fill="#999999" stroke="#666666" points="253.44,-259 70.44,-259 70.44,-236 253.44,-236 253.44,-259"/>
<text text-anchor="middle" x="161.94" y="-243.8" font-family="Arial" font-size="14.00">src/mcu/stm32/StmAdc.cpp</text>
</a>
</g>
</g>
<!-- Node2 -->
<g id="Node000002" class="node">
<title>Node2</title>
<g id="a_Node000002"><a xlink:href="StmAdc_8h.html" target="_top" xlink:title="STM32 ADC wrapper — wraps STM32 HAL ADC via CubeMX&#45;generated handle.">
<polygon fill="white" stroke="#666666" points="199.94,-200 123.94,-200 123.94,-177 199.94,-177 199.94,-200"/>
<text text-anchor="middle" x="161.94" y="-184.8" font-family="Arial" font-size="14.00">StmAdc.h</text>
</a>
</g>
</g>
<!-- Node1&#45;&gt;Node2 -->
<g id="edge1_Node000001_Node000002" class="edge">
<title>Node1&#45;&gt;Node2</title>
<g id="a_edge1_Node000001_Node000002"><a xlink:title=" ">
<path fill="none" stroke="#63b8ff" d="M161.94,-235.78C161.94,-228.61 161.94,-218.95 161.94,-210.31"/>
<polygon fill="#63b8ff" stroke="#63b8ff" points="165.44,-210.17 161.94,-200.17 158.44,-210.17 165.44,-210.17"/>
</a>
</g>
</g>
<!-- Node3 -->
<g id="Node000003" class="node">
<title>Node3</title>
<g id="a_Node000003"><a xlink:href="BaseAdc_8h.html" target="_top" xlink:title="Abstract base class for ADC implementations in the HardFOC system.">
<polygon fill="white" stroke="#666666" points="150.94,-141 68.94,-141 68.94,-118 150.94,-118 150.94,-141"/>
<text text-anchor="middle" x="109.94" y="-125.8" font-family="Arial" font-size="14.00">BaseAdc.h</text>
</a>
</g>
</g>
<!-- Node2&#45;&gt;Node3 -->
<g id="edge2_Node000002_Node000003" class="edge">
<title>Node2&#45;&gt;Node3</title>
<g id="a_edge2_Node000002_Node000003"><a xlink:title=" ">
<path fill="none" stroke="#63b8ff" d="M152.16,-176.78C144.97,-168.9 135.02,-157.99 126.59,-148.75"/>
<polygon fill="#63b8ff" stroke="#63b8ff" points="129,-146.2 119.67,-141.17 123.83,-150.92 129,-146.2"/>
</a>
</g>
</g>
<!-- Node8 -->
<g id="Node000008" class="node">
<title>Node8</title>
<g id="a_Node000008"><a xlink:href="StmTypes_8h.html" target="_top" xlink:title="STM32 platform&#45;specific type definitions for hardware abstraction.">
<polygon fill="white" stroke="#666666" points="266.44,-141 177.44,-141 177.44,-118 266.44,-118 266.44,-141"/>
<text text-anchor="middle" x="221.94" y="-125.8" font-family="Arial" font-size="14.00">StmTypes.h</text>
</a>
</g>
</g>
<!-- Node2&#45;&gt;Node8 -->
<g id="edge8_Node000002_Node000008" class="edge">
<title>Node2&#45;&gt;Node8</title>
<g id="a_edge8_Node000002_Node000008"><a xlink:title=" ">
<path fill="none" stroke="#63b8ff" d="M173.22,-176.78C181.69,-168.74 193.46,-157.55 203.31,-148.19"/>
<polygon fill="#63b8ff" stroke="#63b8ff" points="205.86,-150.6 210.7,-141.17 201.04,-145.52 205.86,-150.6"/>
</a>
</g>
</g>
<!-- Node4 -->
<g id="Node000004" class="node">
<title>Node4</title>
<g id="a_Node000004"><a xlink:href="HardwareTypes_8h.html" target="_top" xlink:title="Platform&#45;agnostic hardware type definitions for the HardFOC system.">
<polygon fill="white" stroke="#666666" points="238.94,-82 116.94,-82 116.94,-59 238.94,-59 238.94,-82"/>
<text text-anchor="middle" x="177.94" y="-66.8" font-family="Arial" font-size="14.00">HardwareTypes.h</text>
</a>
</g>
</g>
<!-- Node3&#45;&gt;Node4 -->
<g id="edge3_Node000003_Node000004" class="edge">
<title>Node3&#45;&gt;Node4</title>
<g id="a_edge3_Node000003_Node000004"><a xlink:title=" ">
<path fill="none" stroke="#63b8ff" d="M122.73,-117.78C132.51,-109.58 146.19,-98.11 157.49,-88.64"/>
<polygon fill="#63b8ff" stroke="#63b8ff" points="159.79,-91.28 165.2,-82.17 155.29,-85.91 159.79,-91.28"/>
</a>
</g>
</g>
<!-- Node5 -->
<g id="Node000005" class="node">
<title>Node5</title>
<g id="a_Node000005"><a xlink:title=" ">
<polygon fill="#e0e0e0" stroke="#999999" points="240.94,-23 184.94,-23 184.94,0 240.94,0 240.94,-23"/>
<text text-anchor="middle" x="212.94" y="-7.8" font-family="Arial" font-size="14.00">cstdint</text>
</a>
</g>
</g>
<!-- Node3&#45;&gt;Node5 -->
<g id="edge6_Node000003_Node000005" class="edge">
<title>Node3&#45;&gt;Node5</title>
<g id="a_edge6_Node000003_Node000005"><a xlink:title=" ">
<path fill="none" stroke="#63b8ff" d="M68.86,-118.22C31.03,-106.78 -16.14,-86.25 5.94,-59 52.57,-1.46 97.16,-38.23 174.59,-22.98"/>
<polygon fill="#63b8ff" stroke="#63b8ff" points="175.71,-26.32 184.71,-20.72 174.19,-19.48 175.71,-26.32"/>
</a>
</g>
</g>
<!-- Node7 -->
<g id="Node000007" class="node">
<title>Node7</title>
<g id="a_Node000007"><a xlink:title=" ">
<polygon fill="#e0e0e0" stroke="#999999" points="98.94,-82 14.94,-82 14.94,-59 98.94,-59 98.94,-82"/>
<text text-anchor="middle" x="56.94" y="-66.8" font-family="Arial" font-size="14.00">string_view</text>
</a>
</g>
</g>
<!-- Node3&#45;&gt;Node7 -->
<g id="edge7_Node000003_Node000007" class="edge">
<title>Node3&#45;&gt;Node7</title>
<g id="a_edge7_Node000003_Node000007"><a xlink:title=" ">
<path fill="none" stroke="#63b8ff" d="M99.97,-117.78C92.64,-109.9 82.5,-98.99 73.91,-89.75"/>
<polygon fill="#63b8ff" stroke="#63b8ff" points="76.23,-87.11 66.86,-82.17 71.11,-91.88 76.23,-87.11"/>
</a>
</g>
</g>
<!-- Node4&#45;&gt;Node5 -->
<g id="edge4_Node000004_Node000005" class="edge">
<title>Node4&#45;&gt;Node5</title>
<g id="a_edge4_Node000004_Node000005"><a xlink:title=" ">
<path fill="none" stroke="#63b8ff" d="M184.52,-58.78C189.16,-51.22 195.52,-40.87 201.04,-31.88"/>
<polygon fill="#63b8ff" stroke="#63b8ff" points="204.13,-33.53 206.38,-23.17 198.17,-29.86 204.13,-33.53"/>
</a>
</g>
</g>
<!-- Node6 -->
<g id="Node000006" class="node">
<title>Node6</title>
<g id="a_Node000006"><a xlink:title=" ">
<polygon fill="#e0e0e0" stroke="#999999" points="166.94,-23 118.94,-23 118.94,0 166.94,0 166.94,-23"/>
<text text-anchor="middle" x="142.94" y="-7.8" font-family="Arial" font-size="14.00">limits</text>
</a>
</g>
</g>
<!-- Node4&#45;&gt;Node6 -->
<g id="edge5_Node000004_Node000006" class="edge">
<title>Node4&#45;&gt;Node6</title>
<g id="a_edge5_Node000004_Node000006"><a xlink:title=" ">
<path fill="none" stroke="#63b8ff" d="M171.35,-58.78C166.71,-51.22 160.36,-40.87 154.84,-31.88"/>
<polygon fill="#63b8ff" stroke="#63b8ff" points="157.71,-29.86 149.49,-23.17 151.74,-33.53 157.71,-29.86"/>
</a>
</g>
</g>
<!-- Node8&#45;&gt;Node4 -->
<g id="edge9_Node000008_Node000004" class="edge">
<title>Node8&#45;&gt;Node4</title>
<g id="a_edge9_Node000008_Node000004"><a xlink:title=" ">
<path fill="none" stroke="#63b8ff" d="M213.66,-117.78C207.7,-110.06 199.5,-99.43 192.46,-90.31"/>
<polygon fill="#63b8ff" stroke="#63b8ff" points="195.06,-87.95 186.18,-82.17 189.52,-92.23 195.06,-87.95"/>
</a>
</g>
</g>
<!-- Node8&#45;&gt;Node5 -->
<g id="edge10_Node000008_Node000005" class="edge">
<title>Node8&#45;&gt;Node5</title>
<g id="a_edge10_Node000008_Node000005"><a xlink:title=" ">
<path fill="none" stroke="#63b8ff" d="M230.77,-117.75C240.81,-104.16 254.96,-80.02 247.94,-59 244.47,-48.62 237.66,-38.69 230.97,-30.7"/>
<polygon fill="#63b8ff" stroke="#63b8ff" points="233.46,-28.24 224.18,-23.13 228.25,-32.91 233.46,-28.24"/>
</a>
</g>
</g>
<!-- Node9 -->
<g id="Node000009" class="node">
<title>Node9</title>
<g id="a_Node000009"><a xlink:title=" ">
<polygon fill="#e0e0e0" stroke="#999999" points="354.94,-82 294.94,-82 294.94,-59 354.94,-59 354.94,-82"/>
<text text-anchor="middle" x="324.94" y="-66.8" font-family="Arial" font-size="14.00">cstddef</text>
</a>
</g>
</g>
<!-- Node8&#45;&gt;Node9 -->
<g id="edge11_Node000008_Node000009" class="edge">
<title>Node8&#45;&gt;Node9</title>
<g id="a_edge11_Node000008_Node000009"><a xlink:title=" ">
<path fill="none" stroke="#63b8ff" d="M241.31,-117.78C256.85,-109.18 278.88,-96.99 296.43,-87.28"/>
<polygon fill="#63b8ff" stroke="#63b8ff" points="298.6,-90.08 305.65,-82.17 295.21,-83.95 298.6,-90.08"/>
</a>
</g>
</g>
</g>
</svg>
