<?xml version="1.0" encoding="UTF-8" standalone="no"?>
<!DOCTYPE svg PUBLIC "-//W3C//DTD SVG 1.1//EN"
 "http://www.w3.org/Graphics/SVG/1.1/DTD/svg11.dtd">
<!-- Generated by graphviz version 2.43.0 (0)
 -->
<!-- Title: src/mcu/stm32/StmPeriodicTimer.cpp Pages: 1 -->
<svg width="363pt" height="282pt"
 viewBox="0.00 0.00 362.53 282.00" xmlns="http://www.w3.org/2000/svg" xmlns:xlink="http://www.w3.org/1999/xlink">

<svg id="main" version="1.1" xmlns="http://www.w3.org/2000/svg" xmlns:xlink="http://www.w3.org/1999/xlink" xml:space="preserve" onload="init(evt)">
<style type="text/css"><![CDATA[
.node, .edge {opacity: 0.7;}
.node.selected, .edge.selected {opacity: 1;}
.edge:hover path { stroke: red; }
.edge:hover polygon { stroke: red; fill: red; }
]]></style>
<script type="application/ecmascript" xlink:href="svg.min.js"/>
<svg id="graph" class="graph">
<g id="graph0" class="graph" transform="scale(1 1) rotate(0) translate(4 278)">
<title>src/mcu/stm32/StmPeriodicTimer.cpp</title>
<!-- Node1 -->
<g id="Node000001" class="node">
<title>Node1</title>
<g id="a_Node000001"><a xlink:title="STM32 Periodic Timer implementation — HAL TIM base with ISR dispatch.">
<polygon fill="#999999" stroke="#666666" points="310.03,-274 127.03,-274 127.03,-236 310.03,-236 310.03,-274"/>
<text text-anchor="start" x="135.03" y="-258.8" font-family="Arial" font-size="14.00">src/mcu/stm32/StmPeriodic</text>
<text text-anchor="middle" x="218.53" y="-243.8" font-family="Arial" font-size="14.00">Timer.cpp</text>
</a>
</g>
</g>
<!-- Node2 -->
<g id="Node000002" class="node">
<title>Node2</title>
<g id="a_Node000002"><a xlink:href="StmPeriodicTimer_8h.html" target="_top" xlink:title="STM32 Periodic Timer — wraps TIM_HandleTypeDef for periodic callbacks.">
<polygon fill="white" stroke="#666666" points="229.53,-200 93.53,-200 93.53,-177 229.53,-177 229.53,-200"/>
<text text-anchor="middle" x="161.53" y="-184.8" font-family="Arial" font-size="14.00">StmPeriodicTimer.h</text>
</a>
</g>
</g>
<!-- Node1&#45;&gt;Node2 -->
<g id="edge1_Node000001_Node000002" class="edge">
<title>Node1&#45;&gt;Node2</title>
<g id="a_edge1_Node000001_Node000002"><a xlink:title=" ">
<path fill="none" stroke="#63b8ff" d="M202.35,-235.69C194.67,-227 185.5,-216.63 177.81,-207.92"/>
<polygon fill="#63b8ff" stroke="#63b8ff" points="180.22,-205.37 170.98,-200.19 174.98,-210 180.22,-205.37"/>
</a>
</g>
</g>
<!-- Node10 -->
<g id="Node000010" class="node">
<title>Node10</title>
<g id="a_Node000010"><a xlink:title=" ">
<polygon fill="#e0e0e0" stroke="#999999" points="303.53,-200 247.53,-200 247.53,-177 303.53,-177 303.53,-200"/>
<text text-anchor="middle" x="275.53" y="-184.8" font-family="Arial" font-size="14.00">cstring</text>
</a>
</g>
</g>
<!-- Node1&#45;&gt;Node10 -->
<g id="edge12_Node000001_Node000010" class="edge">
<title>Node1&#45;&gt;Node10</title>
<g id="a_edge12_Node000001_Node000010"><a xlink:title=" ">
<path fill="none" stroke="#63b8ff" d="M234.71,-235.69C242.39,-227 251.55,-216.63 259.25,-207.92"/>
<polygon fill="#63b8ff" stroke="#63b8ff" points="262.08,-210 266.08,-200.19 256.84,-205.37 262.08,-210"/>
</a>
</g>
</g>
<!-- Node3 -->
<g id="Node000003" class="node">
<title>Node3</title>
<g id="a_Node000003"><a xlink:href="BasePeriodicTimer_8h.html" target="_top" xlink:title="Abstract base class for periodic timer implementations in the HardFOC system.">
<polygon fill="white" stroke="#666666" points="165.53,-141 23.53,-141 23.53,-118 165.53,-118 165.53,-141"/>
<text text-anchor="middle" x="94.53" y="-125.8" font-family="Arial" font-size="14.00">BasePeriodicTimer.h</text>
</a>
</g>
</g>
<!-- Node2&#45;&gt;Node3 -->
<g id="edge2_Node000002_Node000003" class="edge">
<title>Node2&#45;&gt;Node3</title>
<g id="a_edge2_Node000002_Node000003"><a xlink:title=" ">
<path fill="none" stroke="#63b8ff" d="M148.93,-176.78C139.38,-168.66 126.07,-157.33 115,-147.92"/>
<polygon fill="#63b8ff" stroke="#63b8ff" points="116.96,-144.99 107.07,-141.17 112.42,-150.32 116.96,-144.99"/>
</a>
</g>
</g>
<!-- Node8 -->
<g id="Node000008" class="node">
<title>Node8</title>
<g id="a_Node000008"><a xlink:href="StmTypes_8h.html" target="_top" xlink:title="STM32 platform&#45;specific type definitions for hardware abstraction.">
<polygon fill="white" stroke="#666666" points="292.03,-141 203.03,-141 203.03,-118 292.03,-118 292.03,-141"/>
<text text-anchor="middle" x="247.53" y="-125.8" font-family="Arial" font-size="14.00">StmTypes.h</text>
</a>
</g>
</g>
<!-- Node2&#45;&gt;Node8 -->
<g id="edge8_Node000002_Node000008" class="edge">
<title>Node2&#45;&gt;Node8</title>
<g id="a_edge8_Node000002_Node000008"><a xlink:title=" ">
<path fill="none" stroke="#63b8ff" d="M177.7,-176.78C190.44,-168.34 208.4,-156.44 222.91,-146.82"/>
<polygon fill="#63b8ff" stroke="#63b8ff" points="225.02,-149.62 231.43,-141.17 221.16,-143.78 225.02,-149.62"/>
</a>
</g>
</g>
<!-- Node4 -->
<g id="Node000004" class="node">
<title>Node4</title>
<g id="a_Node000004"><a xlink:href="HardwareTypes_8h.html" target="_top" xlink:title="Platform&#45;agnostic hardware type definitions for the HardFOC system.">
<polygon fill="white" stroke="#666666" points="238.53,-82 116.53,-82 116.53,-59 238.53,-59 238.53,-82"/>
<text text-anchor="middle" x="177.53" y="-66.8" font-family="Arial" font-size="14.00">HardwareTypes.h</text>
</a>
</g>
</g>
<!-- Node3&#45;&gt;Node4 -->
<g id="edge3_Node000003_Node000004" class="edge">
<title>Node3&#45;&gt;Node4</title>
<g id="a_edge3_Node000003_Node000004"><a xlink:title=" ">
<path fill="none" stroke="#63b8ff" d="M110.14,-117.78C122.31,-109.42 139.43,-97.66 153.37,-88.09"/>
<polygon fill="#63b8ff" stroke="#63b8ff" points="155.73,-90.72 161.99,-82.17 151.76,-84.95 155.73,-90.72"/>
</a>
</g>
</g>
<!-- Node5 -->
<g id="Node000005" class="node">
<title>Node5</title>
<g id="a_Node000005"><a xlink:title=" ">
<polygon fill="#e0e0e0" stroke="#999999" points="240.53,-23 184.53,-23 184.53,0 240.53,0 240.53,-23"/>
<text text-anchor="middle" x="212.53" y="-7.8" font-family="Arial" font-size="14.00">cstdint</text>
</a>
</g>
</g>
<!-- Node3&#45;&gt;Node5 -->
<g id="edge6_Node000003_Node000005" class="edge">
<title>Node3&#45;&gt;Node5</title>
<g id="a_edge6_Node000003_Node000005"><a xlink:title=" ">
<path fill="none" stroke="#63b8ff" d="M61.07,-117.92C28.02,-105.74 -14.84,-84.13 5.53,-59 52.16,-1.46 96.75,-38.23 174.18,-22.98"/>
<polygon fill="#63b8ff" stroke="#63b8ff" points="175.3,-26.32 184.3,-20.72 173.78,-19.48 175.3,-26.32"/>
</a>
</g>
</g>
<!-- Node7 -->
<g id="Node000007" class="node">
<title>Node7</title>
<g id="a_Node000007"><a xlink:title=" ">
<polygon fill="#e0e0e0" stroke="#999999" points="98.53,-82 14.53,-82 14.53,-59 98.53,-59 98.53,-82"/>
<text text-anchor="middle" x="56.53" y="-66.8" font-family="Arial" font-size="14.00">string_view</text>
</a>
</g>
</g>
<!-- Node3&#45;&gt;Node7 -->
<g id="edge7_Node000003_Node000007" class="edge">
<title>Node3&#45;&gt;Node7</title>
<g id="a_edge7_Node000003_Node000007"><a xlink:title=" ">
<path fill="none" stroke="#63b8ff" d="M87.38,-117.78C82.29,-110.14 75.3,-99.65 69.26,-90.6"/>
<polygon fill="#63b8ff" stroke="#63b8ff" points="72.1,-88.55 63.64,-82.17 66.28,-92.44 72.1,-88.55"/>
</a>
</g>
</g>
<!-- Node4&#45;&gt;Node5 -->
<g id="edge4_Node000004_Node000005" class="edge">
<title>Node4&#45;&gt;Node5</title>
<g id="a_edge4_Node000004_Node000005"><a xlink:title=" ">
<path fill="none" stroke="#63b8ff" d="M184.11,-58.78C188.76,-51.22 195.11,-40.87 200.63,-31.88"/>
<polygon fill="#63b8ff" stroke="#63b8ff" points="203.73,-33.53 205.98,-23.17 197.76,-29.86 203.73,-33.53"/>
</a>
</g>
</g>
<!-- Node6 -->
<g id="Node000006" class="node">
<title>Node6</title>
<g id="a_Node000006"><a xlink:title=" ">
<polygon fill="#e0e0e0" stroke="#999999" points="166.53,-23 118.53,-23 118.53,0 166.53,0 166.53,-23"/>
<text text-anchor="middle" x="142.53" y="-7.8" font-family="Arial" font-size="14.00">limits</text>
</a>
</g>
</g>
<!-- Node4&#45;&gt;Node6 -->
<g id="edge5_Node000004_Node000006" class="edge">
<title>Node4&#45;&gt;Node6</title>
<g id="a_edge5_Node000004_Node000006"><a xlink:title=" ">
<path fill="none" stroke="#63b8ff" d="M170.95,-58.78C166.3,-51.22 159.95,-40.87 154.43,-31.88"/>
<polygon fill="#63b8ff" stroke="#63b8ff" points="157.3,-29.86 149.08,-23.17 151.33,-33.53 157.3,-29.86"/>
</a>
</g>
</g>
<!-- Node8&#45;&gt;Node4 -->
<g id="edge9_Node000008_Node000004" class="edge">
<title>Node8&#45;&gt;Node4</title>
<g id="a_edge9_Node000008_Node000004"><a xlink:title=" ">
<path fill="none" stroke="#63b8ff" d="M234.36,-117.78C224.29,-109.58 210.21,-98.11 198.58,-88.64"/>
<polygon fill="#63b8ff" stroke="#63b8ff" points="200.6,-85.77 190.64,-82.17 196.18,-91.2 200.6,-85.77"/>
</a>
</g>
</g>
<!-- Node8&#45;&gt;Node5 -->
<g id="edge10_Node000008_Node000005" class="edge">
<title>Node8&#45;&gt;Node5</title>
<g id="a_edge10_Node000008_Node000005"><a xlink:title=" ">
<path fill="none" stroke="#63b8ff" d="M249.58,-117.8C251.79,-103.86 254.19,-78.91 247.53,-59 244.06,-48.62 237.25,-38.69 230.56,-30.7"/>
<polygon fill="#63b8ff" stroke="#63b8ff" points="233.05,-28.24 223.77,-23.13 227.84,-32.91 233.05,-28.24"/>
</a>
</g>
</g>
<!-- Node9 -->
<g id="Node000009" class="node">
<title>Node9</title>
<g id="a_Node000009"><a xlink:title=" ">
<polygon fill="#e0e0e0" stroke="#999999" points="354.53,-82 294.53,-82 294.53,-59 354.53,-59 354.53,-82"/>
<text text-anchor="middle" x="324.53" y="-66.8" font-family="Arial" font-size="14.00">cstddef</text>
</a>
</g>
</g>
<!-- Node8&#45;&gt;Node9 -->
<g id="edge11_Node000008_Node000009" class="edge">
<title>Node8&#45;&gt;Node9</title>
<g id="a_edge11_Node000008_Node000009"><a xlink:title=" ">
<path fill="none" stroke="#63b8ff" d="M262.01,-117.78C273.2,-109.5 288.89,-97.89 301.75,-88.36"/>
<polygon fill="#63b8ff" stroke="#63b8ff" points="304.16,-90.94 310.11,-82.17 299.99,-85.31 304.16,-90.94"/>
</a>
</g>
</g>
</g>
</svg>
</svg>

<style type='text/css'>
<![CDATA[
[data-mouse-over-selected='false'] { opacity: 0.7; }
[data-mouse-over-selected='true']  { opacity: 1.0; }
]]>
</style>
<script type="application/ecmascript"><![CDATA[
document.addEventListener('DOMContentLoaded', (event) => {
  highlightEdges();
  highlightAdjacentNodes();
});
]]></script>
</svg>
