<?xml version="1.0" encoding="UTF-8" standalone="no"?>
<!DOCTYPE svg PUBLIC "-//W3C//DTD SVG 1.1//EN"
 "http://www.w3.org/Graphics/SVG/1.1/DTD/svg11.dtd">
<!-- Generated by graphviz version 2.43.0 (0)
 -->
<!-- Title: inc/mcu/stm32/StmTypes.h Pages: 1 -->
<svg width="2283pt" height="179pt"
 viewBox="0.00 0.00 2283.00 179.00" xmlns="http://www.w3.org/2000/svg" xmlns:xlink="http://www.w3.org/1999/xlink">
<g id="graph0" class="graph" transform="scale(1 1) rotate(0) translate(4 175)">
<title>inc/mcu/stm32/StmTypes.h</title>
<!-- Node1 -->
<g id="Node000001" class="node">
<title>Node1</title>
<g id="a_Node000001"><a xlink:title="STM32 platform&#45;specific type definitions for hardware abstraction.">
<polygon fill="#999999" stroke="#666666" points="1209,-171 1028,-171 1028,-148 1209,-148 1209,-171"/>
<text text-anchor="middle" x="1118.5" y="-155.8" font-family="Arial" font-size="14.00">inc/mcu/stm32/StmTypes.h</text>
</a>
</g>
</g>
<!-- Node2 -->
<g id="Node000002" class="node">
<title>Node2</title>
<g id="a_Node000002"><a xlink:href="StmAdc_8h.html" target="_top" xlink:title="STM32 ADC wrapper — wraps STM32 HAL ADC via CubeMX&#45;generated handle.">
<polygon fill="white" stroke="#666666" points="190.5,-104.5 22.5,-104.5 22.5,-81.5 190.5,-81.5 190.5,-104.5"/>
<text text-anchor="middle" x="106.5" y="-89.3" font-family="Arial" font-size="14.00">inc/mcu/stm32/StmAdc.h</text>
</a>
</g>
</g>
<!-- Node1&#45;&gt;Node2 -->
<g id="edge1_Node000001_Node000002" class="edge">
<title>Node1&#45;&gt;Node2</title>
<g id="a_edge1_Node000001_Node000002"><a xlink:title=" ">
<path fill="none" stroke="#63b8ff" d="M1017.8,-157.54C849.34,-155.01 499.95,-145.75 206.5,-112 190.55,-110.17 173.31,-107.36 157.7,-104.51"/>
<polygon fill="#63b8ff" stroke="#63b8ff" points="1017.85,-161.04 1027.9,-157.69 1017.95,-154.04 1017.85,-161.04"/>
</a>
</g>
</g>
<!-- Node4 -->
<g id="Node000004" class="node">
<title>Node4</title>
<g id="a_Node000004"><a xlink:href="StmCan_8h.html" target="_top" xlink:title="STM32 CAN wrapper — wraps bxCAN (CAN_HandleTypeDef) or FDCAN (FDCAN_HandleTypeDef) for BaseCan interf...">
<polygon fill="white" stroke="#666666" points="385.5,-104.5 215.5,-104.5 215.5,-81.5 385.5,-81.5 385.5,-104.5"/>
<text text-anchor="middle" x="300.5" y="-89.3" font-family="Arial" font-size="14.00">inc/mcu/stm32/StmCan.h</text>
</a>
</g>
</g>
<!-- Node1&#45;&gt;Node4 -->
<g id="edge3_Node000001_Node000004" class="edge">
<title>Node1&#45;&gt;Node4</title>
<g id="a_edge3_Node000001_Node000004"><a xlink:title=" ">
<path fill="none" stroke="#63b8ff" d="M1017.75,-155.01C880.04,-149.52 625.44,-136.85 409.5,-112 392.64,-110.06 374.41,-107.31 357.77,-104.54"/>
<polygon fill="#63b8ff" stroke="#63b8ff" points="1017.74,-158.51 1027.87,-155.41 1018.01,-151.51 1017.74,-158.51"/>
</a>
</g>
</g>
<!-- Node6 -->
<g id="Node000006" class="node">
<title>Node6</title>
<g id="a_Node000006"><a xlink:href="StmGpio_8h.html" target="_top" xlink:title="STM32 GPIO wrapper — full HAL integration with EXTI interrupt support.">
<polygon fill="white" stroke="#666666" points="592.5,-104.5 418.5,-104.5 418.5,-81.5 592.5,-81.5 592.5,-104.5"/>
<text text-anchor="middle" x="505.5" y="-89.3" font-family="Arial" font-size="14.00">inc/mcu/stm32/StmGpio.h</text>
</a>
</g>
</g>
<!-- Node1&#45;&gt;Node6 -->
<g id="edge5_Node000001_Node000006" class="edge">
<title>Node1&#45;&gt;Node6</title>
<g id="a_edge5_Node000001_Node000006"><a xlink:title=" ">
<path fill="none" stroke="#63b8ff" d="M1017.36,-151.17C915.82,-143.34 755.01,-129.62 616.5,-112 599.94,-109.89 582.06,-107.19 565.59,-104.51"/>
<polygon fill="#63b8ff" stroke="#63b8ff" points="1017.37,-154.69 1027.61,-151.96 1017.91,-147.71 1017.37,-154.69"/>
</a>
</g>
</g>
<!-- Node8 -->
<g id="Node000008" class="node">
<title>Node8</title>
<g id="a_Node000008"><a xlink:href="StmI2c_8h.html" target="_top" xlink:title="STM32 I2C Bus+Device wrapper — wraps STM32 HAL I2C via CubeMX handle.">
<polygon fill="white" stroke="#666666" points="789,-104.5 626,-104.5 626,-81.5 789,-81.5 789,-104.5"/>
<text text-anchor="middle" x="707.5" y="-89.3" font-family="Arial" font-size="14.00">inc/mcu/stm32/StmI2c.h</text>
</a>
</g>
</g>
<!-- Node1&#45;&gt;Node8 -->
<g id="edge7_Node000001_Node000008" class="edge">
<title>Node1&#45;&gt;Node8</title>
<g id="a_edge7_Node000001_Node000008"><a xlink:title=" ">
<path fill="none" stroke="#63b8ff" d="M1037.24,-146.49C975.76,-137.32 889.27,-124.21 813.5,-112 798.85,-109.64 783.08,-107.01 768.29,-104.5"/>
<polygon fill="#63b8ff" stroke="#63b8ff" points="1036.86,-149.98 1047.27,-147.99 1037.89,-143.05 1036.86,-149.98"/>
</a>
</g>
</g>
<!-- Node10 -->
<g id="Node000010" class="node">
<title>Node10</title>
<g id="a_Node000010"><a xlink:href="StmLogger_8h.html" target="_top" xlink:title="STM32 Logger — UART/SWO/ITM&#45;based logging with full BaseLogger interface.">
<polygon fill="white" stroke="#666666" points="1008.5,-104.5 822.5,-104.5 822.5,-81.5 1008.5,-81.5 1008.5,-104.5"/>
<text text-anchor="middle" x="915.5" y="-89.3" font-family="Arial" font-size="14.00">inc/mcu/stm32/StmLogger.h</text>
</a>
</g>
</g>
<!-- Node1&#45;&gt;Node10 -->
<g id="edge9_Node000001_Node000010" class="edge">
<title>Node1&#45;&gt;Node10</title>
<g id="a_edge9_Node000001_Node000010"><a xlink:title=" ">
<path fill="none" stroke="#63b8ff" d="M1075.69,-144.9C1037.77,-132.85 983.2,-115.51 948.55,-104.5"/>
<polygon fill="#63b8ff" stroke="#63b8ff" points="1074.84,-148.3 1085.43,-147.99 1076.96,-141.63 1074.84,-148.3"/>
</a>
</g>
</g>
<!-- Node12 -->
<g id="Node000012" class="node">
<title>Node12</title>
<g id="a_Node000012"><a xlink:href="StmNvs_8h.html" target="_top" xlink:title="STM32 NVS (Non&#45;Volatile Storage) — flash&#45;based key&#45;value store.">
<polygon fill="white" stroke="#666666" points="1202.5,-104.5 1034.5,-104.5 1034.5,-81.5 1202.5,-81.5 1202.5,-104.5"/>
<text text-anchor="middle" x="1118.5" y="-89.3" font-family="Arial" font-size="14.00">inc/mcu/stm32/StmNvs.h</text>
</a>
</g>
</g>
<!-- Node1&#45;&gt;Node12 -->
<g id="edge11_Node000001_Node000012" class="edge">
<title>Node1&#45;&gt;Node12</title>
<g id="a_edge11_Node000001_Node000012"><a xlink:title=" ">
<path fill="none" stroke="#63b8ff" d="M1118.5,-137.81C1118.5,-126.86 1118.5,-113.86 1118.5,-104.88"/>
<polygon fill="#63b8ff" stroke="#63b8ff" points="1115,-137.85 1118.5,-147.85 1122,-137.85 1115,-137.85"/>
</a>
</g>
</g>
<!-- Node14 -->
<g id="Node000014" class="node">
<title>Node14</title>
<g id="a_Node000014"><a xlink:href="StmPeriodicTimer_8h.html" target="_top" xlink:title="STM32 Periodic Timer — wraps TIM_HandleTypeDef for periodic callbacks.">
<polygon fill="white" stroke="#666666" points="1406.5,-112 1224.5,-112 1224.5,-74 1406.5,-74 1406.5,-112"/>
<text text-anchor="start" x="1232.5" y="-96.8" font-family="Arial" font-size="14.00">inc/mcu/stm32/StmPeriodic</text>
<text text-anchor="middle" x="1315.5" y="-81.8" font-family="Arial" font-size="14.00">Timer.h</text>
</a>
</g>
</g>
<!-- Node1&#45;&gt;Node14 -->
<g id="edge13_Node000001_Node000014" class="edge">
<title>Node1&#45;&gt;Node14</title>
<g id="a_edge13_Node000001_Node000014"><a xlink:title=" ">
<path fill="none" stroke="#63b8ff" d="M1160.45,-144.77C1189.57,-135.23 1228.67,-122.43 1260.31,-112.07"/>
<polygon fill="#63b8ff" stroke="#63b8ff" points="1159,-141.56 1150.59,-147.99 1161.18,-148.21 1159,-141.56"/>
</a>
</g>
</g>
<!-- Node16 -->
<g id="Node000016" class="node">
<title>Node16</title>
<g id="a_Node000016"><a xlink:href="StmPwm_8h.html" target="_top" xlink:title="STM32 PWM wrapper — wraps TIM_HandleTypeDef for BasePwm interface.">
<polygon fill="white" stroke="#666666" points="1606.5,-104.5 1430.5,-104.5 1430.5,-81.5 1606.5,-81.5 1606.5,-104.5"/>
<text text-anchor="middle" x="1518.5" y="-89.3" font-family="Arial" font-size="14.00">inc/mcu/stm32/StmPwm.h</text>
</a>
</g>
</g>
<!-- Node1&#45;&gt;Node16 -->
<g id="edge15_Node000001_Node000016" class="edge">
<title>Node1&#45;&gt;Node16</title>
<g id="a_edge15_Node000001_Node000016"><a xlink:title=" ">
<path fill="none" stroke="#63b8ff" d="M1198.01,-146.44C1257.85,-137.27 1341.88,-124.19 1415.5,-112 1429.74,-109.64 1445.07,-107.01 1459.43,-104.51"/>
<polygon fill="#63b8ff" stroke="#63b8ff" points="1197.22,-143.02 1187.87,-147.99 1198.28,-149.94 1197.22,-143.02"/>
</a>
</g>
</g>
<!-- Node18 -->
<g id="Node000018" class="node">
<title>Node18</title>
<g id="a_Node000018"><a xlink:href="StmSpi_8h.html" target="_top" xlink:title="STM32 SPI Bus+Device wrapper — wraps STM32 HAL SPI via CubeMX handle.">
<polygon fill="white" stroke="#666666" points="1798.5,-104.5 1634.5,-104.5 1634.5,-81.5 1798.5,-81.5 1798.5,-104.5"/>
<text text-anchor="middle" x="1716.5" y="-89.3" font-family="Arial" font-size="14.00">inc/mcu/stm32/StmSpi.h</text>
</a>
</g>
</g>
<!-- Node1&#45;&gt;Node18 -->
<g id="edge17_Node000001_Node000018" class="edge">
<title>Node1&#45;&gt;Node18</title>
<g id="a_edge17_Node000001_Node000018"><a xlink:title=" ">
<path fill="none" stroke="#63b8ff" d="M1219.61,-151.51C1320.23,-143.98 1478.93,-130.53 1615.5,-112 1630.68,-109.94 1647.06,-107.23 1662.12,-104.55"/>
<polygon fill="#63b8ff" stroke="#63b8ff" points="1219.16,-148.04 1209.45,-152.27 1219.68,-155.02 1219.16,-148.04"/>
</a>
</g>
</g>
<!-- Node20 -->
<g id="Node000020" class="node">
<title>Node20</title>
<g id="a_Node000020"><a xlink:href="StmTemperature_8h.html" target="_top" xlink:title="STM32 Temperature sensor — reads the internal temp sensor via ADC or an external sensor via a user&#45;su...">
<polygon fill="white" stroke="#666666" points="2051,-104.5 1830,-104.5 1830,-81.5 2051,-81.5 2051,-104.5"/>
<text text-anchor="middle" x="1940.5" y="-89.3" font-family="Arial" font-size="14.00">inc/mcu/stm32/StmTemperature.h</text>
</a>
</g>
</g>
<!-- Node1&#45;&gt;Node20 -->
<g id="edge19_Node000001_Node000020" class="edge">
<title>Node1&#45;&gt;Node20</title>
<g id="a_edge19_Node000001_Node000020"><a xlink:title=" ">
<path fill="none" stroke="#63b8ff" d="M1219.5,-153.81C1353.94,-147.08 1598.97,-133.12 1807.5,-112 1827.67,-109.96 1849.49,-107.22 1869.51,-104.51"/>
<polygon fill="#63b8ff" stroke="#63b8ff" points="1219.04,-150.33 1209.23,-154.32 1219.39,-157.32 1219.04,-150.33"/>
</a>
</g>
</g>
<!-- Node22 -->
<g id="Node000022" class="node">
<title>Node22</title>
<g id="a_Node000022"><a xlink:href="StmUart_8h.html" target="_top" xlink:title="STM32 UART wrapper — wraps UART_HandleTypeDef for BaseUart interface.">
<polygon fill="white" stroke="#666666" points="2253.5,-104.5 2083.5,-104.5 2083.5,-81.5 2253.5,-81.5 2253.5,-104.5"/>
<text text-anchor="middle" x="2168.5" y="-89.3" font-family="Arial" font-size="14.00">inc/mcu/stm32/StmUart.h</text>
</a>
</g>
</g>
<!-- Node1&#45;&gt;Node22 -->
<g id="edge21_Node000001_Node000022" class="edge">
<title>Node1&#45;&gt;Node22</title>
<g id="a_edge21_Node000001_Node000022"><a xlink:title=" ">
<path fill="none" stroke="#63b8ff" d="M1219.36,-157.29C1391.93,-154.38 1754.72,-144.59 2059.5,-112 2076.76,-110.15 2095.44,-107.36 2112.38,-104.53"/>
<polygon fill="#63b8ff" stroke="#63b8ff" points="1219.22,-153.79 1209.28,-157.46 1219.33,-160.79 1219.22,-153.79"/>
</a>
</g>
</g>
<!-- Node3 -->
<g id="Node000003" class="node">
<title>Node3</title>
<g id="a_Node000003"><a xlink:href="StmAdc_8cpp.html" target="_top" xlink:title="STM32 ADC wrapper implementation — full STM32 HAL integration.">
<polygon fill="white" stroke="#666666" points="183,-30.5 0,-30.5 0,-7.5 183,-7.5 183,-30.5"/>
<text text-anchor="middle" x="91.5" y="-15.3" font-family="Arial" font-size="14.00">src/mcu/stm32/StmAdc.cpp</text>
</a>
</g>
</g>
<!-- Node2&#45;&gt;Node3 -->
<g id="edge2_Node000002_Node000003" class="edge">
<title>Node2&#45;&gt;Node3</title>
<g id="a_edge2_Node000002_Node000003"><a xlink:title=" ">
<path fill="none" stroke="#63b8ff" d="M102.17,-71.23C99.41,-57.97 95.94,-41.32 93.72,-30.67"/>
<polygon fill="#63b8ff" stroke="#63b8ff" points="98.82,-72.3 104.29,-81.38 105.67,-70.87 98.82,-72.3"/>
</a>
</g>
</g>
<!-- Node5 -->
<g id="Node000005" class="node">
<title>Node5</title>
<g id="a_Node000005"><a xlink:href="StmCan_8cpp.html" target="_top" xlink:title="STM32 CAN implementation — bxCAN + FDCAN dual&#45;variant support.">
<polygon fill="white" stroke="#666666" points="386,-30.5 201,-30.5 201,-7.5 386,-7.5 386,-30.5"/>
<text text-anchor="middle" x="293.5" y="-15.3" font-family="Arial" font-size="14.00">src/mcu/stm32/StmCan.cpp</text>
</a>
</g>
</g>
<!-- Node4&#45;&gt;Node5 -->
<g id="edge4_Node000004_Node000005" class="edge">
<title>Node4&#45;&gt;Node5</title>
<g id="a_edge4_Node000004_Node000005"><a xlink:title=" ">
<path fill="none" stroke="#63b8ff" d="M298.48,-71.23C297.19,-57.97 295.57,-41.32 294.54,-30.67"/>
<polygon fill="#63b8ff" stroke="#63b8ff" points="295.02,-71.76 299.47,-81.38 301.98,-71.08 295.02,-71.76"/>
</a>
</g>
</g>
<!-- Node7 -->
<g id="Node000007" class="node">
<title>Node7</title>
<g id="a_Node000007"><a xlink:href="StmGpio_8cpp.html" target="_top" xlink:title="STM32 GPIO wrapper implementation — full STM32 HAL integration.">
<polygon fill="white" stroke="#666666" points="593,-30.5 404,-30.5 404,-7.5 593,-7.5 593,-30.5"/>
<text text-anchor="middle" x="498.5" y="-15.3" font-family="Arial" font-size="14.00">src/mcu/stm32/StmGpio.cpp</text>
</a>
</g>
</g>
<!-- Node6&#45;&gt;Node7 -->
<g id="edge6_Node000006_Node000007" class="edge">
<title>Node6&#45;&gt;Node7</title>
<g id="a_edge6_Node000006_Node000007"><a xlink:title=" ">
<path fill="none" stroke="#63b8ff" d="M503.48,-71.23C502.19,-57.97 500.57,-41.32 499.54,-30.67"/>
<polygon fill="#63b8ff" stroke="#63b8ff" points="500.02,-71.76 504.47,-81.38 506.98,-71.08 500.02,-71.76"/>
</a>
</g>
</g>
<!-- Node9 -->
<g id="Node000009" class="node">
<title>Node9</title>
<g id="a_Node000009"><a xlink:href="StmI2c_8cpp.html" target="_top" xlink:title="STM32 I2C wrapper implementation — full STM32 HAL integration.">
<polygon fill="white" stroke="#666666" points="789.5,-30.5 611.5,-30.5 611.5,-7.5 789.5,-7.5 789.5,-30.5"/>
<text text-anchor="middle" x="700.5" y="-15.3" font-family="Arial" font-size="14.00">src/mcu/stm32/StmI2c.cpp</text>
</a>
</g>
</g>
<!-- Node8&#45;&gt;Node9 -->
<g id="edge8_Node000008_Node000009" class="edge">
<title>Node8&#45;&gt;Node9</title>
<g id="a_edge8_Node000008_Node000009"><a xlink:title=" ">
<path fill="none" stroke="#63b8ff" d="M705.48,-71.23C704.19,-57.97 702.57,-41.32 701.54,-30.67"/>
<polygon fill="#63b8ff" stroke="#63b8ff" points="702.02,-71.76 706.47,-81.38 708.98,-71.08 702.02,-71.76"/>
</a>
</g>
</g>
<!-- Node11 -->
<g id="Node000011" class="node">
<title>Node11</title>
<g id="a_Node000011"><a xlink:href="StmLogger_8cpp.html" target="_top" xlink:title="STM32 Logger implementation — UART/SWO/printf output.">
<polygon fill="white" stroke="#666666" points="1009,-30.5 808,-30.5 808,-7.5 1009,-7.5 1009,-30.5"/>
<text text-anchor="middle" x="908.5" y="-15.3" font-family="Arial" font-size="14.00">src/mcu/stm32/StmLogger.cpp</text>
</a>
</g>
</g>
<!-- Node10&#45;&gt;Node11 -->
<g id="edge10_Node000010_Node000011" class="edge">
<title>Node10&#45;&gt;Node11</title>
<g id="a_edge10_Node000010_Node000011"><a xlink:title=" ">
<path fill="none" stroke="#63b8ff" d="M913.48,-71.23C912.19,-57.97 910.57,-41.32 909.54,-30.67"/>
<polygon fill="#63b8ff" stroke="#63b8ff" points="910.02,-71.76 914.47,-81.38 916.98,-71.08 910.02,-71.76"/>
</a>
</g>
</g>
<!-- Node13 -->
<g id="Node000013" class="node">
<title>Node13</title>
<g id="a_Node000013"><a xlink:href="StmNvs_8cpp.html" target="_top" xlink:title="STM32 NVS implementation — flash&#45;backed key&#45;value store.">
<polygon fill="white" stroke="#666666" points="1210,-30.5 1027,-30.5 1027,-7.5 1210,-7.5 1210,-30.5"/>
<text text-anchor="middle" x="1118.5" y="-15.3" font-family="Arial" font-size="14.00">src/mcu/stm32/StmNvs.cpp</text>
</a>
</g>
</g>
<!-- Node12&#45;&gt;Node13 -->
<g id="edge12_Node000012_Node000013" class="edge">
<title>Node12&#45;&gt;Node13</title>
<g id="a_edge12_Node000012_Node000013"><a xlink:title=" ">
<path fill="none" stroke="#63b8ff" d="M1118.5,-71.23C1118.5,-57.97 1118.5,-41.32 1118.5,-30.67"/>
<polygon fill="#63b8ff" stroke="#63b8ff" points="1115,-71.38 1118.5,-81.38 1122,-71.38 1115,-71.38"/>
</a>
</g>
</g>
<!-- Node15 -->
<g id="Node000015" class="node">
<title>Node15</title>
<g id="a_Node000015"><a xlink:href="StmPeriodicTimer_8cpp.html" target="_top" xlink:title="STM32 Periodic Timer implementation — HAL TIM base with ISR dispatch.">
<polygon fill="white" stroke="#666666" points="1411,-38 1228,-38 1228,0 1411,0 1411,-38"/>
<text text-anchor="start" x="1236" y="-22.8" font-family="Arial" font-size="14.00">src/mcu/stm32/StmPeriodic</text>
<text text-anchor="middle" x="1319.5" y="-7.8" font-family="Arial" font-size="14.00">Timer.cpp</text>
</a>
</g>
</g>
<!-- Node14&#45;&gt;Node15 -->
<g id="edge14_Node000014_Node000015" class="edge">
<title>Node14&#45;&gt;Node15</title>
<g id="a_edge14_Node000014_Node000015"><a xlink:title=" ">
<path fill="none" stroke="#63b8ff" d="M1317.08,-63.57C1317.55,-55.11 1318.05,-46.06 1318.48,-38.41"/>
<polygon fill="#63b8ff" stroke="#63b8ff" points="1313.57,-63.65 1316.51,-73.83 1320.56,-64.04 1313.57,-63.65"/>
</a>
</g>
</g>
<!-- Node17 -->
<g id="Node000017" class="node">
<title>Node17</title>
<g id="a_Node000017"><a xlink:href="StmPwm_8cpp.html" target="_top" xlink:title="STM32 PWM implementation — TIM OC with frequency/duty/deadtime control.">
<polygon fill="white" stroke="#666666" points="1620,-30.5 1429,-30.5 1429,-7.5 1620,-7.5 1620,-30.5"/>
<text text-anchor="middle" x="1524.5" y="-15.3" font-family="Arial" font-size="14.00">src/mcu/stm32/StmPwm.cpp</text>
</a>
</g>
</g>
<!-- Node16&#45;&gt;Node17 -->
<g id="edge16_Node000016_Node000017" class="edge">
<title>Node16&#45;&gt;Node17</title>
<g id="a_edge16_Node000016_Node000017"><a xlink:title=" ">
<path fill="none" stroke="#63b8ff" d="M1520.23,-71.23C1521.34,-57.97 1522.72,-41.32 1523.61,-30.67"/>
<polygon fill="#63b8ff" stroke="#63b8ff" points="1516.73,-71.12 1519.39,-81.38 1523.7,-71.7 1516.73,-71.12"/>
</a>
</g>
</g>
<!-- Node19 -->
<g id="Node000019" class="node">
<title>Node19</title>
<g id="a_Node000019"><a xlink:href="StmSpi_8cpp.html" target="_top" xlink:title="STM32 SPI wrapper implementation — full STM32 HAL integration.">
<polygon fill="white" stroke="#666666" points="1817,-30.5 1638,-30.5 1638,-7.5 1817,-7.5 1817,-30.5"/>
<text text-anchor="middle" x="1727.5" y="-15.3" font-family="Arial" font-size="14.00">src/mcu/stm32/StmSpi.cpp</text>
</a>
</g>
</g>
<!-- Node18&#45;&gt;Node19 -->
<g id="edge18_Node000018_Node000019" class="edge">
<title>Node18&#45;&gt;Node19</title>
<g id="a_edge18_Node000018_Node000019"><a xlink:title=" ">
<path fill="none" stroke="#63b8ff" d="M1719.67,-71.23C1721.7,-57.97 1724.24,-41.32 1725.87,-30.67"/>
<polygon fill="#63b8ff" stroke="#63b8ff" points="1716.17,-70.96 1718.12,-81.38 1723.09,-72.02 1716.17,-70.96"/>
</a>
</g>
</g>
<!-- Node21 -->
<g id="Node000021" class="node">
<title>Node21</title>
<g id="a_Node000021"><a xlink:href="StmTemperature_8cpp.html" target="_top" xlink:title="STM32 Temperature sensor implementation — ADC&#45;based with internal/external modes.">
<polygon fill="white" stroke="#666666" points="2071.5,-30.5 1835.5,-30.5 1835.5,-7.5 2071.5,-7.5 2071.5,-30.5"/>
<text text-anchor="middle" x="1953.5" y="-15.3" font-family="Arial" font-size="14.00">src/mcu/stm32/StmTemperature.cpp</text>
</a>
</g>
</g>
<!-- Node20&#45;&gt;Node21 -->
<g id="edge20_Node000020_Node000021" class="edge">
<title>Node20&#45;&gt;Node21</title>
<g id="a_edge20_Node000020_Node000021"><a xlink:title=" ">
<path fill="none" stroke="#63b8ff" d="M1944.25,-71.23C1946.64,-57.97 1949.65,-41.32 1951.57,-30.67"/>
<polygon fill="#63b8ff" stroke="#63b8ff" points="1940.75,-70.91 1942.42,-81.38 1947.64,-72.16 1940.75,-70.91"/>
</a>
</g>
</g>
<!-- Node23 -->
<g id="Node000023" class="node">
<title>Node23</title>
<g id="a_Node000023"><a xlink:href="StmUart_8cpp.html" target="_top" xlink:title="STM32 UART implementation — blocking TX/RX with optional ring buffer.">
<polygon fill="white" stroke="#666666" points="2275,-30.5 2090,-30.5 2090,-7.5 2275,-7.5 2275,-30.5"/>
<text text-anchor="middle" x="2182.5" y="-15.3" font-family="Arial" font-size="14.00">src/mcu/stm32/StmUart.cpp</text>
</a>
</g>
</g>
<!-- Node22&#45;&gt;Node23 -->
<g id="edge22_Node000022_Node000023" class="edge">
<title>Node22&#45;&gt;Node23</title>
<g id="a_edge22_Node000022_Node000023"><a xlink:title=" ">
<path fill="none" stroke="#63b8ff" d="M2172.54,-71.23C2175.12,-57.97 2178.35,-41.32 2180.43,-30.67"/>
<polygon fill="#63b8ff" stroke="#63b8ff" points="2169.04,-70.89 2170.57,-81.38 2175.91,-72.23 2169.04,-70.89"/>
</a>
</g>
</g>
</g>
</svg>
