<?xml version="1.0" encoding="UTF-8" standalone="no"?>
<!DOCTYPE svg PUBLIC "-//W3C//DTD SVG 1.1//EN"
 "http://www.w3.org/Graphics/SVG/1.1/DTD/svg11.dtd">
<!-- Generated by graphviz version 2.43.0 (0)
 -->
<!-- Title: examples/esp32/main/TestFramework.h Pages: 1 -->
<svg width="1244pt" height="341pt"
 viewBox="0.00 0.00 1244.00 341.00" xmlns="http://www.w3.org/2000/svg" xmlns:xlink="http://www.w3.org/1999/xlink">
<g id="graph0" class="graph" transform="scale(1 1) rotate(0) translate(4 337)">
<title>examples/esp32/main/TestFramework.h</title>
<!-- Node1 -->
<g id="Node000001" class="node">
<title>Node1</title>
<g id="a_Node000001"><a xlink:title="Shared testing framework for ESP32&#45;C6 comprehensive test suites.">
<polygon fill="#999999" stroke="#666666" points="559,-333 410,-333 410,-295 559,-295 559,-333"/>
<text text-anchor="start" x="418" y="-317.8" font-family="Arial" font-size="14.00">examples/esp32/main</text>
<text text-anchor="middle" x="484.5" y="-302.8" font-family="Arial" font-size="14.00">/TestFramework.h</text>
</a>
</g>
</g>
<!-- Node2 -->
<g id="Node000002" class="node">
<title>Node2</title>
<g id="a_Node000002"><a xlink:title=" ">
<polygon fill="#e0e0e0" stroke="#999999" points="75,-259 0,-259 0,-236 75,-236 75,-259"/>
<text text-anchor="middle" x="37.5" y="-243.8" font-family="Arial" font-size="14.00">esp_log.h</text>
</a>
</g>
</g>
<!-- Node1&#45;&gt;Node2 -->
<g id="edge1_Node000001_Node000002" class="edge">
<title>Node1&#45;&gt;Node2</title>
<g id="a_edge1_Node000001_Node000002"><a xlink:title=" ">
<path fill="none" stroke="#63b8ff" d="M409.91,-305C331.35,-296.12 203.89,-280.39 85.1,-259.18"/>
<polygon fill="#63b8ff" stroke="#63b8ff" points="85.56,-255.7 75.1,-257.37 84.32,-262.59 85.56,-255.7"/>
</a>
</g>
</g>
<!-- Node3 -->
<g id="Node000003" class="node">
<title>Node3</title>
<g id="a_Node000003"><a xlink:title=" ">
<polygon fill="#e0e0e0" stroke="#999999" points="180,-259 93,-259 93,-236 180,-236 180,-259"/>
<text text-anchor="middle" x="136.5" y="-243.8" font-family="Arial" font-size="14.00">esp_timer.h</text>
</a>
</g>
</g>
<!-- Node1&#45;&gt;Node3 -->
<g id="edge2_Node000001_Node000003" class="edge">
<title>Node1&#45;&gt;Node3</title>
<g id="a_edge2_Node000001_Node000003"><a xlink:title=" ">
<path fill="none" stroke="#63b8ff" d="M409.92,-299.79C352.48,-289.53 270.81,-274.74 190.48,-259.36"/>
<polygon fill="#63b8ff" stroke="#63b8ff" points="190.66,-255.83 180.18,-257.38 189.34,-262.7 190.66,-255.83"/>
</a>
</g>
</g>
<!-- Node4 -->
<g id="Node000004" class="node">
<title>Node4</title>
<g id="a_Node000004"><a xlink:title=" ">
<polygon fill="#e0e0e0" stroke="#999999" points="341,-259 198,-259 198,-236 341,-236 341,-259"/>
<text text-anchor="middle" x="269.5" y="-243.8" font-family="Arial" font-size="14.00">freertos/FreeRTOS.h</text>
</a>
</g>
</g>
<!-- Node1&#45;&gt;Node4 -->
<g id="edge3_Node000001_Node000004" class="edge">
<title>Node1&#45;&gt;Node4</title>
<g id="a_edge3_Node000001_Node000004"><a xlink:title=" ">
<path fill="none" stroke="#63b8ff" d="M424.32,-294.95C389.57,-284.52 346.58,-271.62 314.73,-262.07"/>
<polygon fill="#63b8ff" stroke="#63b8ff" points="315.38,-258.61 304.8,-259.09 313.37,-265.32 315.38,-258.61"/>
</a>
</g>
</g>
<!-- Node5 -->
<g id="Node000005" class="node">
<title>Node5</title>
<g id="a_Node000005"><a xlink:title=" ">
<polygon fill="#e0e0e0" stroke="#999999" points="474,-259 359,-259 359,-236 474,-236 474,-259"/>
<text text-anchor="middle" x="416.5" y="-243.8" font-family="Arial" font-size="14.00">freertos/queue.h</text>
</a>
</g>
</g>
<!-- Node1&#45;&gt;Node5 -->
<g id="edge4_Node000001_Node000005" class="edge">
<title>Node1&#45;&gt;Node5</title>
<g id="a_edge4_Node000001_Node000005"><a xlink:title=" ">
<path fill="none" stroke="#63b8ff" d="M465.2,-294.69C455.75,-285.73 444.42,-274.99 435.08,-266.12"/>
<polygon fill="#63b8ff" stroke="#63b8ff" points="437.44,-263.53 427.77,-259.19 432.62,-268.61 437.44,-263.53"/>
</a>
</g>
</g>
<!-- Node6 -->
<g id="Node000006" class="node">
<title>Node6</title>
<g id="a_Node000006"><a xlink:title=" ">
<polygon fill="#e0e0e0" stroke="#999999" points="614.5,-259 492.5,-259 492.5,-236 614.5,-236 614.5,-259"/>
<text text-anchor="middle" x="553.5" y="-243.8" font-family="Arial" font-size="14.00">freertos/semphr.h</text>
</a>
</g>
</g>
<!-- Node1&#45;&gt;Node6 -->
<g id="edge5_Node000001_Node000006" class="edge">
<title>Node1&#45;&gt;Node6</title>
<g id="a_edge5_Node000001_Node000006"><a xlink:title=" ">
<path fill="none" stroke="#63b8ff" d="M504.09,-294.69C513.68,-285.73 525.16,-274.99 534.65,-266.12"/>
<polygon fill="#63b8ff" stroke="#63b8ff" points="537.15,-268.58 542.06,-259.19 532.37,-263.46 537.15,-268.58"/>
</a>
</g>
</g>
<!-- Node7 -->
<g id="Node000007" class="node">
<title>Node7</title>
<g id="a_Node000007"><a xlink:title=" ">
<polygon fill="#e0e0e0" stroke="#999999" points="734.5,-259 632.5,-259 632.5,-236 734.5,-236 734.5,-259"/>
<text text-anchor="middle" x="683.5" y="-243.8" font-family="Arial" font-size="14.00">freertos/task.h</text>
</a>
</g>
</g>
<!-- Node1&#45;&gt;Node7 -->
<g id="edge6_Node000001_Node000007" class="edge">
<title>Node1&#45;&gt;Node7</title>
<g id="a_edge6_Node000001_Node000007"><a xlink:title=" ">
<path fill="none" stroke="#63b8ff" d="M540.2,-294.95C572.22,-284.57 611.81,-271.74 641.26,-262.19"/>
<polygon fill="#63b8ff" stroke="#63b8ff" points="642.39,-265.5 650.83,-259.09 640.24,-258.84 642.39,-265.5"/>
</a>
</g>
</g>
<!-- Node8 -->
<g id="Node000008" class="node">
<title>Node8</title>
<g id="a_Node000008"><a xlink:href="HardwareTypes_8h.html" target="_top" xlink:title="Platform&#45;agnostic hardware type definitions for the HardFOC system.">
<polygon fill="white" stroke="#666666" points="882.5,-82 760.5,-82 760.5,-59 882.5,-59 882.5,-82"/>
<text text-anchor="middle" x="821.5" y="-66.8" font-family="Arial" font-size="14.00">HardwareTypes.h</text>
</a>
</g>
</g>
<!-- Node1&#45;&gt;Node8 -->
<g id="edge7_Node000001_Node000008" class="edge">
<title>Node1&#45;&gt;Node8</title>
<g id="a_edge7_Node000001_Node000008"><a xlink:title=" ">
<path fill="none" stroke="#63b8ff" d="M559.23,-305.21C625.47,-296.94 715.85,-281.87 743.5,-259 795.79,-215.75 813.54,-131.56 819.13,-92.43"/>
<polygon fill="#63b8ff" stroke="#63b8ff" points="822.61,-92.82 820.43,-82.45 815.67,-91.91 822.61,-92.82"/>
</a>
</g>
</g>
<!-- Node11 -->
<g id="Node000011" class="node">
<title>Node11</title>
<g id="a_Node000011"><a xlink:href="EspGpio_8h.html" target="_top" xlink:title="Advanced MCU&#45;specific implementation of the unified BaseGpio class with ESP32C6/ESP&#45;IDF v5....">
<polygon fill="white" stroke="#666666" points="1002,-259 851,-259 851,-236 1002,-236 1002,-259"/>
<text text-anchor="middle" x="926.5" y="-243.8" font-family="Arial" font-size="14.00">mcu/esp32/EspGpio.h</text>
</a>
</g>
</g>
<!-- Node1&#45;&gt;Node11 -->
<g id="edge10_Node000001_Node000011" class="edge">
<title>Node1&#45;&gt;Node11</title>
<g id="a_edge10_Node000001_Node000011"><a xlink:title=" ">
<path fill="none" stroke="#63b8ff" d="M559.48,-302.06C638.49,-290.53 762.56,-272.42 844.22,-260.51"/>
<polygon fill="#63b8ff" stroke="#63b8ff" points="845.07,-263.92 854.46,-259.01 844.06,-256.99 845.07,-263.92"/>
</a>
</g>
</g>
<!-- Node9 -->
<g id="Node000009" class="node">
<title>Node9</title>
<g id="a_Node000009"><a xlink:title=" ">
<polygon fill="#e0e0e0" stroke="#999999" points="884.5,-23 828.5,-23 828.5,0 884.5,0 884.5,-23"/>
<text text-anchor="middle" x="856.5" y="-7.8" font-family="Arial" font-size="14.00">cstdint</text>
</a>
</g>
</g>
<!-- Node8&#45;&gt;Node9 -->
<g id="edge8_Node000008_Node000009" class="edge">
<title>Node8&#45;&gt;Node9</title>
<g id="a_edge8_Node000008_Node000009"><a xlink:title=" ">
<path fill="none" stroke="#63b8ff" d="M828.08,-58.78C832.73,-51.22 839.08,-40.87 844.6,-31.88"/>
<polygon fill="#63b8ff" stroke="#63b8ff" points="847.7,-33.53 849.95,-23.17 841.73,-29.86 847.7,-33.53"/>
</a>
</g>
</g>
<!-- Node10 -->
<g id="Node000010" class="node">
<title>Node10</title>
<g id="a_Node000010"><a xlink:title=" ">
<polygon fill="#e0e0e0" stroke="#999999" points="810.5,-23 762.5,-23 762.5,0 810.5,0 810.5,-23"/>
<text text-anchor="middle" x="786.5" y="-7.8" font-family="Arial" font-size="14.00">limits</text>
</a>
</g>
</g>
<!-- Node8&#45;&gt;Node10 -->
<g id="edge9_Node000008_Node000010" class="edge">
<title>Node8&#45;&gt;Node10</title>
<g id="a_edge9_Node000008_Node000010"><a xlink:title=" ">
<path fill="none" stroke="#63b8ff" d="M814.92,-58.78C810.27,-51.22 803.92,-40.87 798.4,-31.88"/>
<polygon fill="#63b8ff" stroke="#63b8ff" points="801.27,-29.86 793.05,-23.17 795.3,-33.53 801.27,-29.86"/>
</a>
</g>
</g>
<!-- Node12 -->
<g id="Node000012" class="node">
<title>Node12</title>
<g id="a_Node000012"><a xlink:title=" ">
<polygon fill="#e0e0e0" stroke="#999999" points="1236,-200 1145,-200 1145,-177 1236,-177 1236,-200"/>
<text text-anchor="middle" x="1190.5" y="-184.8" font-family="Arial" font-size="14.00">driver/gpio.h</text>
</a>
</g>
</g>
<!-- Node11&#45;&gt;Node12 -->
<g id="edge11_Node000011_Node000012" class="edge">
<title>Node11&#45;&gt;Node12</title>
<g id="a_edge11_Node000011_Node000012"><a xlink:title=" ">
<path fill="none" stroke="#63b8ff" d="M975.23,-235.98C1020.34,-226.24 1087.38,-211.76 1134.64,-201.56"/>
<polygon fill="#63b8ff" stroke="#63b8ff" points="1135.67,-204.92 1144.7,-199.39 1134.19,-198.08 1135.67,-204.92"/>
</a>
</g>
</g>
<!-- Node13 -->
<g id="Node000013" class="node">
<title>Node13</title>
<g id="a_Node000013"><a xlink:title=" ">
<polygon fill="#e0e0e0" stroke="#999999" points="904.5,-200 828.5,-200 828.5,-177 904.5,-177 904.5,-200"/>
<text text-anchor="middle" x="866.5" y="-184.8" font-family="Arial" font-size="14.00">esp_attr.h</text>
</a>
</g>
</g>
<!-- Node11&#45;&gt;Node13 -->
<g id="edge12_Node000011_Node000013" class="edge">
<title>Node11&#45;&gt;Node13</title>
<g id="a_edge12_Node000011_Node000013"><a xlink:title=" ">
<path fill="none" stroke="#63b8ff" d="M915.21,-235.78C906.75,-227.74 894.98,-216.55 885.12,-207.19"/>
<polygon fill="#63b8ff" stroke="#63b8ff" points="887.4,-204.52 877.73,-200.17 882.57,-209.6 887.4,-204.52"/>
</a>
</g>
</g>
<!-- Node14 -->
<g id="Node000014" class="node">
<title>Node14</title>
<g id="a_Node000014"><a xlink:href="BaseGpio_8h.html" target="_top" xlink:title="Unified GPIO base class for all digital GPIO implementations.">
<polygon fill="white" stroke="#666666" points="734.5,-141 646.5,-141 646.5,-118 734.5,-118 734.5,-141"/>
<text text-anchor="middle" x="690.5" y="-125.8" font-family="Arial" font-size="14.00">BaseGpio.h</text>
</a>
</g>
</g>
<!-- Node11&#45;&gt;Node14 -->
<g id="edge13_Node000011_Node000014" class="edge">
<title>Node11&#45;&gt;Node14</title>
<g id="a_edge13_Node000011_Node000014"><a xlink:title=" ">
<path fill="none" stroke="#63b8ff" d="M900.28,-235.83C878.44,-226.77 846.65,-213.18 819.5,-200 783.83,-182.68 743.78,-160.69 717.9,-146.13"/>
<polygon fill="#63b8ff" stroke="#63b8ff" points="719.47,-143 709.04,-141.13 716.03,-149.1 719.47,-143"/>
</a>
</g>
</g>
<!-- Node17 -->
<g id="Node000017" class="node">
<title>Node17</title>
<g id="a_Node000017"><a xlink:href="EspTypes__GPIO_8h.html" target="_top" xlink:title="ESP32 GPIO type definitions for hardware abstraction.">
<polygon fill="white" stroke="#666666" points="1052.5,-200 922.5,-200 922.5,-177 1052.5,-177 1052.5,-200"/>
<text text-anchor="middle" x="987.5" y="-184.8" font-family="Arial" font-size="14.00">EspTypes_GPIO.h</text>
</a>
</g>
</g>
<!-- Node11&#45;&gt;Node17 -->
<g id="edge18_Node000011_Node000017" class="edge">
<title>Node11&#45;&gt;Node17</title>
<g id="a_edge18_Node000011_Node000017"><a xlink:title=" ">
<path fill="none" stroke="#63b8ff" d="M937.97,-235.78C946.58,-227.74 958.55,-216.55 968.57,-207.19"/>
<polygon fill="#63b8ff" stroke="#63b8ff" points="971.16,-209.56 976.08,-200.17 966.38,-204.44 971.16,-209.56"/>
</a>
</g>
</g>
<!-- Node21 -->
<g id="Node000021" class="node">
<title>Node21</title>
<g id="a_Node000021"><a xlink:title=" ">
<polygon fill="#e0e0e0" stroke="#999999" points="1126.5,-200 1070.5,-200 1070.5,-177 1126.5,-177 1126.5,-200"/>
<text text-anchor="middle" x="1098.5" y="-184.8" font-family="Arial" font-size="14.00">stdio.h</text>
</a>
</g>
</g>
<!-- Node11&#45;&gt;Node21 -->
<g id="edge27_Node000011_Node000021" class="edge">
<title>Node11&#45;&gt;Node21</title>
<g id="a_edge27_Node000011_Node000021"><a xlink:title=" ">
<path fill="none" stroke="#63b8ff" d="M958.45,-235.91C987.34,-226.34 1029.92,-212.23 1060.54,-202.08"/>
<polygon fill="#63b8ff" stroke="#63b8ff" points="1062.03,-205.27 1070.42,-198.8 1059.83,-198.63 1062.03,-205.27"/>
</a>
</g>
</g>
<!-- Node14&#45;&gt;Node8 -->
<g id="edge14_Node000014_Node000008" class="edge">
<title>Node14&#45;&gt;Node8</title>
<g id="a_edge14_Node000014_Node000008"><a xlink:title=" ">
<path fill="none" stroke="#63b8ff" d="M714.83,-117.91C735.42,-108.95 765.14,-96.02 787.98,-86.09"/>
<polygon fill="#63b8ff" stroke="#63b8ff" points="789.52,-89.23 797.3,-82.03 786.73,-82.81 789.52,-89.23"/>
</a>
</g>
</g>
<!-- Node14&#45;&gt;Node9 -->
<g id="edge15_Node000014_Node000009" class="edge">
<title>Node14&#45;&gt;Node9</title>
<g id="a_edge15_Node000014_Node000009"><a xlink:title=" ">
<path fill="none" stroke="#63b8ff" d="M697.62,-117.79C707.98,-102.91 728.47,-75.92 751.5,-59 771.89,-44.02 797.87,-32.46 818.88,-24.62"/>
<polygon fill="#63b8ff" stroke="#63b8ff" points="820.23,-27.86 828.45,-21.17 817.85,-21.27 820.23,-27.86"/>
</a>
</g>
</g>
<!-- Node15 -->
<g id="Node000015" class="node">
<title>Node15</title>
<g id="a_Node000015"><a xlink:title=" ">
<polygon fill="#e0e0e0" stroke="#999999" points="602.5,-82 528.5,-82 528.5,-59 602.5,-59 602.5,-82"/>
<text text-anchor="middle" x="565.5" y="-66.8" font-family="Arial" font-size="14.00">functional</text>
</a>
</g>
</g>
<!-- Node14&#45;&gt;Node15 -->
<g id="edge16_Node000014_Node000015" class="edge">
<title>Node14&#45;&gt;Node15</title>
<g id="a_edge16_Node000014_Node000015"><a xlink:title=" ">
<path fill="none" stroke="#63b8ff" d="M667.28,-117.91C647.72,-108.99 619.54,-96.14 597.78,-86.22"/>
<polygon fill="#63b8ff" stroke="#63b8ff" points="599.15,-83 588.59,-82.03 596.24,-89.36 599.15,-83"/>
</a>
</g>
</g>
<!-- Node16 -->
<g id="Node000016" class="node">
<title>Node16</title>
<g id="a_Node000016"><a xlink:title=" ">
<polygon fill="#e0e0e0" stroke="#999999" points="704.5,-82 620.5,-82 620.5,-59 704.5,-59 704.5,-82"/>
<text text-anchor="middle" x="662.5" y="-66.8" font-family="Arial" font-size="14.00">string_view</text>
</a>
</g>
</g>
<!-- Node14&#45;&gt;Node16 -->
<g id="edge17_Node000014_Node000016" class="edge">
<title>Node14&#45;&gt;Node16</title>
<g id="a_edge17_Node000014_Node000016"><a xlink:title=" ">
<path fill="none" stroke="#63b8ff" d="M685.23,-117.78C681.56,-110.29 676.54,-100.09 672.16,-91.16"/>
<polygon fill="#63b8ff" stroke="#63b8ff" points="675.29,-89.61 667.74,-82.17 669.01,-92.69 675.29,-89.61"/>
</a>
</g>
</g>
<!-- Node17&#45;&gt;Node8 -->
<g id="edge25_Node000017_Node000008" class="edge">
<title>Node17&#45;&gt;Node8</title>
<g id="a_edge25_Node000017_Node000008"><a xlink:title=" ">
<path fill="none" stroke="#63b8ff" d="M962.51,-176.99C943.62,-168.52 917.44,-155.63 896.5,-141 874.89,-125.9 853.11,-104.93 838.64,-89.99"/>
<polygon fill="#63b8ff" stroke="#63b8ff" points="840.82,-87.21 831.39,-82.38 835.75,-92.03 840.82,-87.21"/>
</a>
</g>
</g>
<!-- Node17&#45;&gt;Node14 -->
<g id="edge19_Node000017_Node000014" class="edge">
<title>Node17&#45;&gt;Node14</title>
<g id="a_edge19_Node000017_Node000014"><a xlink:title=" ">
<path fill="none" stroke="#63b8ff" d="M932.68,-176.98C879.14,-166.7 798.15,-151.16 744.79,-140.92"/>
<polygon fill="#63b8ff" stroke="#63b8ff" points="745.32,-137.46 734.84,-139.01 744,-144.33 745.32,-137.46"/>
</a>
</g>
</g>
<!-- Node18 -->
<g id="Node000018" class="node">
<title>Node18</title>
<g id="a_Node000018"><a xlink:href="EspTypes__Base_8h.html" target="_top" xlink:title="ESP32 base type definitions for hardware abstraction.">
<polygon fill="white" stroke="#666666" points="1030,-141 905,-141 905,-118 1030,-118 1030,-141"/>
<text text-anchor="middle" x="967.5" y="-125.8" font-family="Arial" font-size="14.00">EspTypes_Base.h</text>
</a>
</g>
</g>
<!-- Node17&#45;&gt;Node18 -->
<g id="edge20_Node000017_Node000018" class="edge">
<title>Node17&#45;&gt;Node18</title>
<g id="a_edge20_Node000017_Node000018"><a xlink:title=" ">
<path fill="none" stroke="#63b8ff" d="M983.74,-176.78C981.17,-169.45 977.68,-159.52 974.6,-150.74"/>
<polygon fill="#63b8ff" stroke="#63b8ff" points="977.86,-149.45 971.24,-141.17 971.25,-151.77 977.86,-149.45"/>
</a>
</g>
</g>
<!-- Node19 -->
<g id="Node000019" class="node">
<title>Node19</title>
<g id="a_Node000019"><a xlink:href="McuSelect_8h.html" target="_top" xlink:title="Centralized MCU platform selection and configuration header.">
<polygon fill="white" stroke="#666666" points="1156.5,-82 1014.5,-82 1014.5,-59 1156.5,-59 1156.5,-82"/>
<text text-anchor="middle" x="1085.5" y="-66.8" font-family="Arial" font-size="14.00">../../utils/McuSelect.h</text>
</a>
</g>
</g>
<!-- Node17&#45;&gt;Node19 -->
<g id="edge26_Node000017_Node000019" class="edge">
<title>Node17&#45;&gt;Node19</title>
<g id="a_edge26_Node000017_Node000019"><a xlink:title=" ">
<path fill="none" stroke="#63b8ff" d="M1001.2,-176.89C1012.23,-167.98 1027.78,-154.56 1039.5,-141 1053.01,-125.38 1065.75,-105.57 1074.39,-91.1"/>
<polygon fill="#63b8ff" stroke="#63b8ff" points="1077.41,-92.86 1079.43,-82.46 1071.37,-89.33 1077.41,-92.86"/>
</a>
</g>
</g>
<!-- Node18&#45;&gt;Node8 -->
<g id="edge22_Node000018_Node000008" class="edge">
<title>Node18&#45;&gt;Node8</title>
<g id="a_edge22_Node000018_Node000008"><a xlink:title=" ">
<path fill="none" stroke="#63b8ff" d="M940.38,-117.91C917.13,-108.83 883.43,-95.68 857.84,-85.69"/>
<polygon fill="#63b8ff" stroke="#63b8ff" points="859.06,-82.41 848.47,-82.03 856.52,-88.93 859.06,-82.41"/>
</a>
</g>
</g>
<!-- Node18&#45;&gt;Node9 -->
<g id="edge24_Node000018_Node000009" class="edge">
<title>Node18&#45;&gt;Node9</title>
<g id="a_edge24_Node000018_Node000009"><a xlink:title=" ">
<path fill="none" stroke="#63b8ff" d="M957.26,-117.79C938.18,-97.85 897.01,-54.84 873.63,-30.41"/>
<polygon fill="#63b8ff" stroke="#63b8ff" points="876.16,-27.98 866.72,-23.18 871.1,-32.82 876.16,-27.98"/>
</a>
</g>
</g>
<!-- Node18&#45;&gt;Node19 -->
<g id="edge21_Node000018_Node000019" class="edge">
<title>Node18&#45;&gt;Node19</title>
<g id="a_edge21_Node000018_Node000019"><a xlink:title=" ">
<path fill="none" stroke="#63b8ff" d="M989.42,-117.91C1007.72,-109.07 1034.01,-96.37 1054.47,-86.49"/>
<polygon fill="#63b8ff" stroke="#63b8ff" points="1056.22,-89.53 1063.7,-82.03 1053.17,-83.23 1056.22,-89.53"/>
</a>
</g>
</g>
<!-- Node20 -->
<g id="Node000020" class="node">
<title>Node20</title>
<g id="a_Node000020"><a xlink:title=" ">
<polygon fill="#e0e0e0" stroke="#999999" points="996,-82 939,-82 939,-59 996,-59 996,-82"/>
<text text-anchor="middle" x="967.5" y="-66.8" font-family="Arial" font-size="14.00">atomic</text>
</a>
</g>
</g>
<!-- Node18&#45;&gt;Node20 -->
<g id="edge23_Node000018_Node000020" class="edge">
<title>Node18&#45;&gt;Node20</title>
<g id="a_edge23_Node000018_Node000020"><a xlink:title=" ">
<path fill="none" stroke="#63b8ff" d="M967.5,-117.78C967.5,-110.61 967.5,-100.95 967.5,-92.31"/>
<polygon fill="#63b8ff" stroke="#63b8ff" points="971,-92.17 967.5,-82.17 964,-92.17 971,-92.17"/>
</a>
</g>
</g>
</g>
</svg>
