<?xml version="1.0" encoding="UTF-8" standalone="no"?>
<!DOCTYPE svg PUBLIC "-//W3C//DTD SVG 1.1//EN"
 "http://www.w3.org/Graphics/SVG/1.1/DTD/svg11.dtd">
<!-- Generated by graphviz version 2.43.0 (0)
 -->
<!-- Title: inc/base/BaseWifi.h Pages: 1 -->
<svg width="396pt" height="164pt"
 viewBox="0.00 0.00 396.00 164.00" xmlns="http://www.w3.org/2000/svg" xmlns:xlink="http://www.w3.org/1999/xlink">

<svg id="main" version="1.1" xmlns="http://www.w3.org/2000/svg" xmlns:xlink="http://www.w3.org/1999/xlink" xml:space="preserve" onload="init(evt)">
<style type="text/css"><![CDATA[
.node, .edge {opacity: 0.7;}
.node.selected, .edge.selected {opacity: 1;}
.edge:hover path { stroke: red; }
.edge:hover polygon { stroke: red; fill: red; }
]]></style>
<script type="application/ecmascript" xlink:href="svg.min.js"/>
<svg id="graph" class="graph">
<g id="graph0" class="graph" transform="scale(1 1) rotate(0) translate(4 160)">
<title>inc/base/BaseWifi.h</title>
<!-- Node1 -->
<g id="Node000001" class="node">
<title>Node1</title>
<g id="a_Node000001"><a xlink:title="Unified WiFi base class for all WiFi implementations.">
<polygon fill="#999999" stroke="#666666" points="217.5,-156 81.5,-156 81.5,-133 217.5,-133 217.5,-156"/>
<text text-anchor="middle" x="149.5" y="-140.8" font-family="Arial" font-size="14.00">inc/base/BaseWifi.h</text>
</a>
</g>
</g>
<!-- Node2 -->
<g id="Node000002" class="node">
<title>Node2</title>
<g id="a_Node000002"><a xlink:href="WifiComprehensiveTest_8cpp.html" target="_top" xlink:title="Comprehensive WiFi testing suite for ESP32&#45;C6 DevKit&#45;M&#45;1 with ESP&#45;IDF v5.5f.">
<polygon fill="white" stroke="#666666" points="189,-38 0,-38 0,0 189,0 189,-38"/>
<text text-anchor="start" x="8" y="-22.8" font-family="Arial" font-size="14.00">examples/esp32/main</text>
<text text-anchor="middle" x="94.5" y="-7.8" font-family="Arial" font-size="14.00">/WifiComprehensiveTest.cpp</text>
</a>
</g>
</g>
<!-- Node1&#45;&gt;Node2 -->
<g id="edge1_Node000001_Node000002" class="edge">
<title>Node1&#45;&gt;Node2</title>
<g id="a_edge1_Node000001_Node000002"><a xlink:title=" ">
<path fill="none" stroke="#63b8ff" d="M132.47,-125.21C125.7,-117.09 118.38,-107.1 113.5,-97 104.33,-78.03 99.33,-54.23 96.8,-38.15"/>
<polygon fill="#63b8ff" stroke="#63b8ff" points="129.98,-127.68 139.2,-132.92 135.26,-123.08 129.98,-127.68"/>
</a>
</g>
</g>
<!-- Node3 -->
<g id="Node000003" class="node">
<title>Node3</title>
<g id="a_Node000003"><a xlink:href="EspWifi_8h.html" target="_top" xlink:title="Advanced ESP32 implementation of the unified BaseWifi class with ESP&#45;IDF v5.5+ features.">
<polygon fill="white" stroke="#666666" points="288.5,-97 122.5,-97 122.5,-74 288.5,-74 288.5,-97"/>
<text text-anchor="middle" x="205.5" y="-81.8" font-family="Arial" font-size="14.00">inc/mcu/esp32/EspWifi.h</text>
</a>
</g>
</g>
<!-- Node1&#45;&gt;Node3 -->
<g id="edge2_Node000001_Node000003" class="edge">
<title>Node1&#45;&gt;Node3</title>
<g id="a_edge2_Node000001_Node000003"><a xlink:title=" ">
<path fill="none" stroke="#63b8ff" d="M167.21,-125.47C176.36,-116.16 187.2,-105.12 195.01,-97.17"/>
<polygon fill="#63b8ff" stroke="#63b8ff" points="164.54,-123.19 160.03,-132.78 169.54,-128.1 164.54,-123.19"/>
</a>
</g>
</g>
<!-- Node3&#45;&gt;Node2 -->
<g id="edge3_Node000003_Node000002" class="edge">
<title>Node3&#45;&gt;Node2</title>
<g id="a_edge3_Node000003_Node000002"><a xlink:title=" ">
<path fill="none" stroke="#63b8ff" d="M178.38,-68.74C162.52,-59.53 142.44,-47.86 125.9,-38.24"/>
<polygon fill="#63b8ff" stroke="#63b8ff" points="176.77,-71.85 187.17,-73.85 180.28,-65.8 176.77,-71.85"/>
</a>
</g>
</g>
<!-- Node4 -->
<g id="Node000004" class="node">
<title>Node4</title>
<g id="a_Node000004"><a xlink:href="EspWifi_8cpp.html" target="_top" xlink:title="Advanced ESP32 implementation of the unified BaseWifi class with ESP&#45;IDF v5.5+ features.">
<polygon fill="white" stroke="#666666" points="388,-30.5 207,-30.5 207,-7.5 388,-7.5 388,-30.5"/>
<text text-anchor="middle" x="297.5" y="-15.3" font-family="Arial" font-size="14.00">src/mcu/esp32/EspWifi.cpp</text>
</a>
</g>
</g>
<!-- Node3&#45;&gt;Node4 -->
<g id="edge4_Node000003_Node000004" class="edge">
<title>Node3&#45;&gt;Node4</title>
<g id="a_edge4_Node000003_Node000004"><a xlink:title=" ">
<path fill="none" stroke="#63b8ff" d="M228.9,-68.09C245.67,-56.34 267.76,-40.85 282.29,-30.67"/>
<polygon fill="#63b8ff" stroke="#63b8ff" points="226.87,-65.24 220.69,-73.85 230.89,-70.97 226.87,-65.24"/>
</a>
</g>
</g>
</g>
</svg>
</svg>

<style type='text/css'>
<![CDATA[
[data-mouse-over-selected='false'] { opacity: 0.7; }
[data-mouse-over-selected='true']  { opacity: 1.0; }
]]>
</style>
<script type="application/ecmascript"><![CDATA[
document.addEventListener('DOMContentLoaded', (event) => {
  highlightEdges();
  highlightAdjacentNodes();
});
]]></script>
</svg>
