<?xml version="1.0" encoding="UTF-8" standalone="no"?>
<!DOCTYPE svg PUBLIC "-//W3C//DTD SVG 1.1//EN"
 "http://www.w3.org/Graphics/SVG/1.1/DTD/svg11.dtd">
<!-- Generated by graphviz version 2.43.0 (0)
 -->
<!-- Title: inc/base/BasePeriodicTimer.h Pages: 1 -->
<svg width="609pt" height="179pt"
 viewBox="0.00 0.00 609.00 179.00" xmlns="http://www.w3.org/2000/svg" xmlns:xlink="http://www.w3.org/1999/xlink">
<g id="graph0" class="graph" transform="scale(1 1) rotate(0) translate(4 175)">
<title>inc/base/BasePeriodicTimer.h</title>
<!-- Node1 -->
<g id="Node000001" class="node">
<title>Node1</title>
<g id="a_Node000001"><a xlink:title="Abstract base class for periodic timer implementations in the HardFOC system.">
<polygon fill="#999999" stroke="#666666" points="350.5,-171 154.5,-171 154.5,-148 350.5,-148 350.5,-171"/>
<text text-anchor="middle" x="252.5" y="-155.8" font-family="Arial" font-size="14.00">inc/base/BasePeriodicTimer.h</text>
</a>
</g>
</g>
<!-- Node2 -->
<g id="Node000002" class="node">
<title>Node2</title>
<g id="a_Node000002"><a xlink:href="TimerComprehensiveTest_8cpp.html" target="_top" xlink:title="ESP32&#45;C6 Periodic Timer Comprehensive Test Suite v2.0.">
<polygon fill="white" stroke="#666666" points="201,-38 0,-38 0,0 201,0 201,-38"/>
<text text-anchor="start" x="8" y="-22.8" font-family="Arial" font-size="14.00">examples/esp32/main</text>
<text text-anchor="middle" x="100.5" y="-7.8" font-family="Arial" font-size="14.00">/TimerComprehensiveTest.cpp</text>
</a>
</g>
</g>
<!-- Node1&#45;&gt;Node2 -->
<g id="edge1_Node000001_Node000002" class="edge">
<title>Node1&#45;&gt;Node2</title>
<g id="a_edge1_Node000001_Node000002"><a xlink:title=" ">
<path fill="none" stroke="#63b8ff" d="M207.98,-144.32C189.58,-136.85 168.97,-126.23 153.5,-112 130.84,-91.16 115.19,-58.36 107.05,-38.07"/>
<polygon fill="#63b8ff" stroke="#63b8ff" points="206.77,-147.61 217.36,-147.94 209.29,-141.07 206.77,-147.61"/>
</a>
</g>
</g>
<!-- Node3 -->
<g id="Node000003" class="node">
<title>Node3</title>
<g id="a_Node000003"><a xlink:href="EspPeriodicTimer_8h.html" target="_top" xlink:title="MCU&#45;integrated periodic timer implementation.">
<polygon fill="white" stroke="#666666" points="342.5,-112 162.5,-112 162.5,-74 342.5,-74 342.5,-112"/>
<text text-anchor="start" x="170.5" y="-96.8" font-family="Arial" font-size="14.00">inc/mcu/esp32/EspPeriodic</text>
<text text-anchor="middle" x="252.5" y="-81.8" font-family="Arial" font-size="14.00">Timer.h</text>
</a>
</g>
</g>
<!-- Node1&#45;&gt;Node3 -->
<g id="edge2_Node000001_Node000003" class="edge">
<title>Node1&#45;&gt;Node3</title>
<g id="a_edge2_Node000001_Node000003"><a xlink:title=" ">
<path fill="none" stroke="#63b8ff" d="M252.5,-137.63C252.5,-129.45 252.5,-120.15 252.5,-112.24"/>
<polygon fill="#63b8ff" stroke="#63b8ff" points="249,-137.85 252.5,-147.85 256,-137.85 249,-137.85"/>
</a>
</g>
</g>
<!-- Node5 -->
<g id="Node000005" class="node">
<title>Node5</title>
<g id="a_Node000005"><a xlink:href="StmPeriodicTimer_8h.html" target="_top" xlink:title="STM32 Periodic Timer stub — placeholder for hardware timer integration.">
<polygon fill="white" stroke="#666666" points="588.5,-112 406.5,-112 406.5,-74 588.5,-74 588.5,-112"/>
<text text-anchor="start" x="414.5" y="-96.8" font-family="Arial" font-size="14.00">inc/mcu/stm32/StmPeriodic</text>
<text text-anchor="middle" x="497.5" y="-81.8" font-family="Arial" font-size="14.00">Timer.h</text>
</a>
</g>
</g>
<!-- Node1&#45;&gt;Node5 -->
<g id="edge5_Node000001_Node000005" class="edge">
<title>Node1&#45;&gt;Node5</title>
<g id="a_edge5_Node000001_Node000005"><a xlink:title=" ">
<path fill="none" stroke="#63b8ff" d="M302.31,-145.39C338.76,-135.79 388.65,-122.66 428.87,-112.07"/>
<polygon fill="#63b8ff" stroke="#63b8ff" points="301.19,-142.06 292.41,-147.99 302.97,-148.83 301.19,-142.06"/>
</a>
</g>
</g>
<!-- Node3&#45;&gt;Node2 -->
<g id="edge3_Node000003_Node000002" class="edge">
<title>Node3&#45;&gt;Node2</title>
<g id="a_edge3_Node000003_Node000002"><a xlink:title=" ">
<path fill="none" stroke="#63b8ff" d="M204.92,-69.46C183.55,-59.34 158.69,-47.56 138.58,-38.04"/>
<polygon fill="#63b8ff" stroke="#63b8ff" points="203.61,-72.71 214.14,-73.83 206.6,-66.39 203.61,-72.71"/>
</a>
</g>
</g>
<!-- Node4 -->
<g id="Node000004" class="node">
<title>Node4</title>
<g id="a_Node000004"><a xlink:href="EspPeriodicTimer_8cpp.html" target="_top" xlink:title="Implementation of MCU&#45;integrated periodic timer.">
<polygon fill="white" stroke="#666666" points="400,-38 219,-38 219,0 400,0 400,-38"/>
<text text-anchor="start" x="227" y="-22.8" font-family="Arial" font-size="14.00">src/mcu/esp32/EspPeriodic</text>
<text text-anchor="middle" x="309.5" y="-7.8" font-family="Arial" font-size="14.00">Timer.cpp</text>
</a>
</g>
</g>
<!-- Node3&#45;&gt;Node4 -->
<g id="edge4_Node000003_Node000004" class="edge">
<title>Node3&#45;&gt;Node4</title>
<g id="a_edge4_Node000003_Node000004"><a xlink:title=" ">
<path fill="none" stroke="#63b8ff" d="M273.23,-65.81C280.42,-56.73 288.33,-46.74 294.92,-38.41"/>
<polygon fill="#63b8ff" stroke="#63b8ff" points="270.35,-63.82 266.88,-73.83 275.83,-68.16 270.35,-63.82"/>
</a>
</g>
</g>
<!-- Node6 -->
<g id="Node000006" class="node">
<title>Node6</title>
<g id="a_Node000006"><a xlink:href="StmPeriodicTimer_8cpp.html" target="_top" xlink:title="STM32 Periodic Timer stub implementation.">
<polygon fill="white" stroke="#666666" points="601,-38 418,-38 418,0 601,0 601,-38"/>
<text text-anchor="start" x="426" y="-22.8" font-family="Arial" font-size="14.00">src/mcu/stm32/StmPeriodic</text>
<text text-anchor="middle" x="509.5" y="-7.8" font-family="Arial" font-size="14.00">Timer.cpp</text>
</a>
</g>
</g>
<!-- Node5&#45;&gt;Node6 -->
<g id="edge6_Node000005_Node000006" class="edge">
<title>Node5&#45;&gt;Node6</title>
<g id="a_edge6_Node000005_Node000006"><a xlink:title=" ">
<path fill="none" stroke="#63b8ff" d="M502.19,-63.85C503.62,-55.31 505.14,-46.14 506.43,-38.41"/>
<polygon fill="#63b8ff" stroke="#63b8ff" points="498.72,-63.39 500.53,-73.83 505.62,-64.54 498.72,-63.39"/>
</a>
</g>
</g>
</g>
</svg>
