<?xml version="1.0" encoding="UTF-8" standalone="no"?>
<!DOCTYPE svg PUBLIC "-//W3C//DTD SVG 1.1//EN"
 "http://www.w3.org/Graphics/SVG/1.1/DTD/svg11.dtd">
<!-- Generated by graphviz version 2.43.0 (0)
 -->
<!-- Title: inc/base/BaseLogger.h Pages: 1 -->
<svg width="653pt" height="164pt"
 viewBox="0.00 0.00 652.50 164.00" xmlns="http://www.w3.org/2000/svg" xmlns:xlink="http://www.w3.org/1999/xlink">
<g id="graph0" class="graph" transform="scale(1 1) rotate(0) translate(4 160)">
<title>inc/base/BaseLogger.h</title>
<!-- Node1 -->
<g id="Node000001" class="node">
<title>Node1</title>
<g id="a_Node000001"><a xlink:title="Unified logging base class for all logging implementations.">
<polygon fill="#999999" stroke="#666666" points="377,-156 223,-156 223,-133 377,-133 377,-156"/>
<text text-anchor="middle" x="300" y="-140.8" font-family="Arial" font-size="14.00">inc/base/BaseLogger.h</text>
</a>
</g>
</g>
<!-- Node2 -->
<g id="Node000002" class="node">
<title>Node2</title>
<g id="a_Node000002"><a xlink:href="LoggerComprehensiveTest_8cpp.html" target="_top" xlink:title="Comprehensive Logger testing suite for ESP32&#45;C6 DevKit&#45;M&#45;1 (noexcept)">
<polygon fill="white" stroke="#666666" points="208,-38 0,-38 0,0 208,0 208,-38"/>
<text text-anchor="start" x="8" y="-22.8" font-family="Arial" font-size="14.00">examples/esp32/main</text>
<text text-anchor="middle" x="104" y="-7.8" font-family="Arial" font-size="14.00">/LoggerComprehensiveTest.cpp</text>
</a>
</g>
</g>
<!-- Node1&#45;&gt;Node2 -->
<g id="edge1_Node000001_Node000002" class="edge">
<title>Node1&#45;&gt;Node2</title>
<g id="a_edge1_Node000001_Node000002"><a xlink:title=" ">
<path fill="none" stroke="#63b8ff" d="M262.55,-128.91C243.01,-120.64 219.05,-109.47 199,-97 170.87,-79.51 141.75,-54.74 123.29,-38.06"/>
<polygon fill="#63b8ff" stroke="#63b8ff" points="261.46,-132.24 272.04,-132.84 264.14,-125.78 261.46,-132.24"/>
</a>
</g>
</g>
<!-- Node3 -->
<g id="Node000003" class="node">
<title>Node3</title>
<g id="a_Node000003"><a xlink:href="EspLogger_8h.html" target="_top" xlink:title="ESP32&#45;specific logger implementation for the HardFOC system.">
<polygon fill="white" stroke="#666666" points="392,-97 208,-97 208,-74 392,-74 392,-97"/>
<text text-anchor="middle" x="300" y="-81.8" font-family="Arial" font-size="14.00">inc/mcu/esp32/EspLogger.h</text>
</a>
</g>
</g>
<!-- Node1&#45;&gt;Node3 -->
<g id="edge2_Node000001_Node000003" class="edge">
<title>Node1&#45;&gt;Node3</title>
<g id="a_edge2_Node000001_Node000003"><a xlink:title=" ">
<path fill="none" stroke="#63b8ff" d="M300,-122.63C300,-113.99 300,-104.33 300,-97.17"/>
<polygon fill="#63b8ff" stroke="#63b8ff" points="296.5,-122.78 300,-132.78 303.5,-122.78 296.5,-122.78"/>
</a>
</g>
</g>
<!-- Node5 -->
<g id="Node000005" class="node">
<title>Node5</title>
<g id="a_Node000005"><a xlink:href="StmLogger_8h.html" target="_top" xlink:title="STM32 Logger — UART/SWO/ITM&#45;based logging with full BaseLogger interface.">
<polygon fill="white" stroke="#666666" points="616,-97 430,-97 430,-74 616,-74 616,-97"/>
<text text-anchor="middle" x="523" y="-81.8" font-family="Arial" font-size="14.00">inc/mcu/stm32/StmLogger.h</text>
</a>
</g>
</g>
<!-- Node1&#45;&gt;Node5 -->
<g id="edge5_Node000001_Node000005" class="edge">
<title>Node1&#45;&gt;Node5</title>
<g id="a_edge5_Node000001_Node000005"><a xlink:title=" ">
<path fill="none" stroke="#63b8ff" d="M350.9,-130.49C390.5,-120.37 444.76,-106.5 481.7,-97.06"/>
<polygon fill="#63b8ff" stroke="#63b8ff" points="349.98,-127.11 341.16,-132.98 351.72,-133.89 349.98,-127.11"/>
</a>
</g>
</g>
<!-- Node3&#45;&gt;Node2 -->
<g id="edge3_Node000003_Node000002" class="edge">
<title>Node3&#45;&gt;Node2</title>
<g id="a_edge3_Node000003_Node000002"><a xlink:title=" ">
<path fill="none" stroke="#63b8ff" d="M258.27,-70.77C229.29,-61.23 190.39,-48.43 158.91,-38.07"/>
<polygon fill="#63b8ff" stroke="#63b8ff" points="257.48,-74.19 268.07,-73.99 259.67,-67.54 257.48,-74.19"/>
</a>
</g>
</g>
<!-- Node4 -->
<g id="Node000004" class="node">
<title>Node4</title>
<g id="a_Node000004"><a xlink:href="EspLogger_8cpp.html" target="_top" xlink:title="Implementation of ESP32 logger for the HardFOC system.">
<polygon fill="white" stroke="#666666" points="425.5,-30.5 226.5,-30.5 226.5,-7.5 425.5,-7.5 425.5,-30.5"/>
<text text-anchor="middle" x="326" y="-15.3" font-family="Arial" font-size="14.00">src/mcu/esp32/EspLogger.cpp</text>
</a>
</g>
</g>
<!-- Node3&#45;&gt;Node4 -->
<g id="edge4_Node000003_Node000004" class="edge">
<title>Node3&#45;&gt;Node4</title>
<g id="a_edge4_Node000003_Node000004"><a xlink:title=" ">
<path fill="none" stroke="#63b8ff" d="M308.07,-64.49C312.54,-53.4 317.92,-40.05 321.61,-30.88"/>
<polygon fill="#63b8ff" stroke="#63b8ff" points="304.79,-63.27 304.29,-73.85 311.28,-65.88 304.79,-63.27"/>
</a>
</g>
</g>
<!-- Node6 -->
<g id="Node000006" class="node">
<title>Node6</title>
<g id="a_Node000006"><a xlink:href="StmLogger_8cpp.html" target="_top" xlink:title="STM32 Logger implementation — UART/SWO/printf output.">
<polygon fill="white" stroke="#666666" points="644.5,-30.5 443.5,-30.5 443.5,-7.5 644.5,-7.5 644.5,-30.5"/>
<text text-anchor="middle" x="544" y="-15.3" font-family="Arial" font-size="14.00">src/mcu/stm32/StmLogger.cpp</text>
</a>
</g>
</g>
<!-- Node5&#45;&gt;Node6 -->
<g id="edge6_Node000005_Node000006" class="edge">
<title>Node5&#45;&gt;Node6</title>
<g id="a_edge6_Node000005_Node000006"><a xlink:title=" ">
<path fill="none" stroke="#63b8ff" d="M529.63,-64.15C533.21,-53.13 537.5,-39.95 540.46,-30.88"/>
<polygon fill="#63b8ff" stroke="#63b8ff" points="526.24,-63.26 526.47,-73.85 532.89,-65.42 526.24,-63.26"/>
</a>
</g>
</g>
</g>
</svg>
