<?xml version="1.0" encoding="UTF-8" standalone="no"?>
<!DOCTYPE svg PUBLIC "-//W3C//DTD SVG 1.1//EN"
 "http://www.w3.org/Graphics/SVG/1.1/DTD/svg11.dtd">
<!-- Generated by graphviz version 2.43.0 (0)
 -->
<!-- Title: examples/esp32/main/BluetoothComprehensiveTest.cpp Pages: 1 -->
<!--zoomable 400 -->

<svg id="main" version="1.1" xmlns="http://www.w3.org/2000/svg" xmlns:xlink="http://www.w3.org/1999/xlink" xml:space="preserve" onload="init(evt)">
<style type="text/css"><![CDATA[
.node, .edge {opacity: 0.7;}
.node.selected, .edge.selected {opacity: 1;}
.edge:hover path { stroke: red; }
.edge:hover polygon { stroke: red; fill: red; }
]]></style>

<defs>
  <circle id="rim" cx="0" cy="0" r="7"/>
  <circle id="rim2" cx="0" cy="0" r="3.5"/>
  <g id="zoomPlus">
    <use xlink:href="#rim" fill="#404040"><set attributeName="fill" to="#808080" begin="zoomplus.mouseover" end="zoomplus.mouseout"/></use>
    <path d="M-4,0h8M0,-4v8" fill="none" stroke="white" stroke-width="1.5" pointer-events="none"/>
  </g>
  <g id="zoomMin">
    <use xlink:href="#rim" fill="#404040"><set attributeName="fill" to="#808080" begin="zoomminus.mouseover" end="zoomminus.mouseout"/></use>
    <path d="M-4,0h8" fill="none" stroke="white" stroke-width="1.5" pointer-events="none"/>
  </g>
  <g id="arrowUp" transform="translate(30 24)">
    <use xlink:href="#rim"/>
    <path pointer-events="none" fill="none" stroke="white" stroke-width="1.5" d="M0,-3.0v7 M-2.5,-0.5L0,-3.0L2.5,-0.5"/>
  </g>
  <g id="arrowRight" transform="rotate(90) translate(36 -43)">
    <use xlink:href="#rim"/>
    <path pointer-events="none" fill="none" stroke="white" stroke-width="1.5" d="M0,-3.0v7 M-2.5,-0.5L0,-3.0L2.5,-0.5"/>
  </g>
  <g id="arrowDown" transform="rotate(180) translate(-30 -48)">
    <use xlink:href="#rim"/>
    <path pointer-events="none" fill="none" stroke="white" stroke-width="1.5" d="M0,-3.0v7 M-2.5,-0.5L0,-3.0L2.5,-0.5"/>
  </g>
  <g id="arrowLeft" transform="rotate(270) translate(-36 17)">
    <use xlink:href="#rim"/>
    <path pointer-events="none" fill="none" stroke="white" stroke-width="1.5" d="M0,-3.0v7 M-2.5,-0.5L0,-3.0L2.5,-0.5"/>
  </g>
  <g id="resetDef">
    <use xlink:href="#rim2" fill="#404040"><set attributeName="fill" to="#808080" begin="reset.mouseover" end="reset.mouseout"/></use>
  </g>
</defs>
<script type="application/ecmascript">
var viewWidth = 1490;
var viewHeight = 400;
var sectionId = 'dynsection-0';
</script>
<script type="application/ecmascript" xlink:href="svg.min.js"/>
<svg id="graph" class="graph">
<g id="viewport">
<title>examples/esp32/main/BluetoothComprehensiveTest.cpp</title>
<!-- Node1 -->
<g id="Node000001" class="node">
<title>Node1</title>
<g id="a_Node000001"><a xlink:title="Comprehensive Bluetooth/NimBLE testing suite for ESP32&#45;C6 DevKit&#45;M&#45;1 (noexcept)">
<polygon fill="#999999" stroke="#666666" points="399,-392 176,-392 176,-354 399,-354 399,-392"/>
<text text-anchor="start" x="184" y="-376.8" font-family="Arial" font-size="14.00">examples/esp32/main</text>
<text text-anchor="middle" x="287.5" y="-361.8" font-family="Arial" font-size="14.00">/BluetoothComprehensiveTest.cpp</text>
</a>
</g>
</g>
<!-- Node2 -->
<g id="Node000002" class="node">
<title>Node2</title>
<g id="a_Node000002"><a xlink:href="BaseBluetooth_8h.html" target="_top" xlink:title="Unified Bluetooth base class for all Bluetooth implementations.">
<polygon fill="white" stroke="#666666" points="203,-259 54,-259 54,-236 203,-236 203,-259"/>
<text text-anchor="middle" x="128.5" y="-243.8" font-family="Arial" font-size="14.00">base/BaseBluetooth.h</text>
</a>
</g>
</g>
<!-- Node1&#45;&gt;Node2 -->
<g id="edge1_Node000001_Node000002" class="edge">
<title>Node1&#45;&gt;Node2</title>
<g id="a_edge1_Node000001_Node000002"><a xlink:title=" ">
<path fill="none" stroke="#63b8ff" d="M264.04,-353.78C233.38,-329.96 180.08,-288.57 150.28,-265.41"/>
<polygon fill="#63b8ff" stroke="#63b8ff" points="152.23,-262.5 142.18,-259.13 147.93,-268.02 152.23,-262.5"/>
</a>
</g>
</g>
<!-- Node10 -->
<g id="Node000010" class="node">
<title>Node10</title>
<g id="a_Node000010"><a xlink:title=" ">
<polygon fill="#e0e0e0" stroke="#999999" points="53,-200 0,-200 0,-177 53,-177 53,-200"/>
<text text-anchor="middle" x="26.5" y="-184.8" font-family="Arial" font-size="14.00">vector</text>
</a>
</g>
</g>
<!-- Node1&#45;&gt;Node10 -->
<g id="edge51_Node000001_Node000010" class="edge">
<title>Node1&#45;&gt;Node10</title>
<g id="a_edge51_Node000001_Node000010"><a xlink:title=" ">
<path fill="none" stroke="#63b8ff" d="M180.39,-353.92C124.9,-338.57 61.74,-310.41 27.5,-259 18.12,-244.91 18.72,-225.4 21.17,-210.64"/>
<polygon fill="#63b8ff" stroke="#63b8ff" points="24.69,-210.94 23.28,-200.44 17.83,-209.52 24.69,-210.94"/>
</a>
</g>
</g>
<!-- Node11 -->
<g id="Node000011" class="node">
<title>Node11</title>
<g id="a_Node000011"><a xlink:href="EspBluetooth_8h.html" target="_top" xlink:title="ESP32 Bluetooth implementation using NimBLE for BLE&#45;only support (ESP32C6)">
<polygon fill="white" stroke="#666666" points="436,-318 257,-318 257,-295 436,-295 436,-318"/>
<text text-anchor="middle" x="346.5" y="-302.8" font-family="Arial" font-size="14.00">mcu/esp32/EspBluetooth.h</text>
</a>
</g>
</g>
<!-- Node1&#45;&gt;Node11 -->
<g id="edge11_Node000001_Node000011" class="edge">
<title>Node1&#45;&gt;Node11</title>
<g id="a_edge11_Node000001_Node000011"><a xlink:title=" ">
<path fill="none" stroke="#63b8ff" d="M304.25,-353.69C312.28,-344.91 321.88,-334.42 329.89,-325.65"/>
<polygon fill="#63b8ff" stroke="#63b8ff" points="332.55,-327.93 336.72,-318.19 327.39,-323.21 332.55,-327.93"/>
</a>
</g>
</g>
<!-- Node21 -->
<g id="Node000021" class="node">
<title>Node21</title>
<g id="a_Node000021"><a xlink:href="TestFramework_8h.html" target="_top" xlink:title="Shared testing framework for ESP32&#45;C6 comprehensive test suites.">
<polygon fill="white" stroke="#666666" points="814,-318 693,-318 693,-295 814,-295 814,-318"/>
<text text-anchor="middle" x="753.5" y="-302.8" font-family="Arial" font-size="14.00">TestFramework.h</text>
</a>
</g>
</g>
<!-- Node1&#45;&gt;Node21 -->
<g id="edge26_Node000001_Node000021" class="edge">
<title>Node1&#45;&gt;Node21</title>
<g id="a_edge26_Node000001_Node000021"><a xlink:title=" ">
<path fill="none" stroke="#63b8ff" d="M399.12,-356.55C487.07,-344.38 607.03,-327.77 682.37,-317.35"/>
<polygon fill="#63b8ff" stroke="#63b8ff" points="683.27,-320.75 692.69,-315.92 682.31,-313.82 683.27,-320.75"/>
</a>
</g>
</g>
<!-- Node3 -->
<g id="Node000003" class="node">
<title>Node3</title>
<g id="a_Node000003"><a xlink:href="HardwareTypes_8h.html" target="_top" xlink:title="Platform&#45;agnostic hardware type definitions for the HardFOC system.">
<polygon fill="white" stroke="#666666" points="758.5,-82 636.5,-82 636.5,-59 758.5,-59 758.5,-82"/>
<text text-anchor="middle" x="697.5" y="-66.8" font-family="Arial" font-size="14.00">HardwareTypes.h</text>
</a>
</g>
</g>
<!-- Node2&#45;&gt;Node3 -->
<g id="edge2_Node000002_Node000003" class="edge">
<title>Node2&#45;&gt;Node3</title>
<g id="a_edge2_Node000002_Node000003"><a xlink:title=" ">
<path fill="none" stroke="#63b8ff" d="M171.46,-235.96C201.97,-227.81 243.55,-215.34 278.5,-200 311.69,-185.43 385.4,-130.3 419.5,-118 487.24,-93.56 568.97,-81.85 626.21,-76.32"/>
<polygon fill="#63b8ff" stroke="#63b8ff" points="626.62,-79.79 636.25,-75.38 625.97,-72.82 626.62,-79.79"/>
</a>
</g>
</g>
<!-- Node4 -->
<g id="Node000004" class="node">
<title>Node4</title>
<g id="a_Node000004"><a xlink:title=" ">
<polygon fill="#e0e0e0" stroke="#999999" points="636.5,-23 580.5,-23 580.5,0 636.5,0 636.5,-23"/>
<text text-anchor="middle" x="608.5" y="-7.8" font-family="Arial" font-size="14.00">cstdint</text>
</a>
</g>
</g>
<!-- Node2&#45;&gt;Node4 -->
<g id="edge6_Node000002_Node000004" class="edge">
<title>Node2&#45;&gt;Node4</title>
<g id="a_edge6_Node000002_Node000004"><a xlink:title=" ">
<path fill="none" stroke="#63b8ff" d="M118.41,-235.85C106.09,-221.51 88.43,-195.66 101.5,-177 157.2,-97.52 462.02,-37.84 570.31,-18.88"/>
<polygon fill="#63b8ff" stroke="#63b8ff" points="571.2,-22.28 580.46,-17.12 570.01,-15.38 571.2,-22.28"/>
</a>
</g>
</g>
<!-- Node6 -->
<g id="Node000006" class="node">
<title>Node6</title>
<g id="a_Node000006"><a xlink:title=" ">
<polygon fill="#e0e0e0" stroke="#999999" points="166.5,-200 110.5,-200 110.5,-177 166.5,-177 166.5,-200"/>
<text text-anchor="middle" x="138.5" y="-184.8" font-family="Arial" font-size="14.00">cctype</text>
</a>
</g>
</g>
<!-- Node2&#45;&gt;Node6 -->
<g id="edge5_Node000002_Node000006" class="edge">
<title>Node2&#45;&gt;Node6</title>
<g id="a_edge5_Node000002_Node000006"><a xlink:title=" ">
<path fill="none" stroke="#63b8ff" d="M130.38,-235.78C131.64,-228.61 133.33,-218.95 134.85,-210.31"/>
<polygon fill="#63b8ff" stroke="#63b8ff" points="138.35,-210.63 136.63,-200.17 131.45,-209.42 138.35,-210.63"/>
</a>
</g>
</g>
<!-- Node7 -->
<g id="Node000007" class="node">
<title>Node7</title>
<g id="a_Node000007"><a xlink:title=" ">
<polygon fill="#e0e0e0" stroke="#999999" points="405.5,-200 331.5,-200 331.5,-177 405.5,-177 405.5,-200"/>
<text text-anchor="middle" x="368.5" y="-184.8" font-family="Arial" font-size="14.00">functional</text>
</a>
</g>
</g>
<!-- Node2&#45;&gt;Node7 -->
<g id="edge7_Node000002_Node000007" class="edge">
<title>Node2&#45;&gt;Node7</title>
<g id="a_edge7_Node000002_Node000007"><a xlink:title=" ">
<path fill="none" stroke="#63b8ff" d="M172.8,-235.98C214.93,-225.97 278.1,-210.97 321.2,-200.73"/>
<polygon fill="#63b8ff" stroke="#63b8ff" points="322.24,-204.09 331.16,-198.37 320.62,-197.27 322.24,-204.09"/>
</a>
</g>
</g>
<!-- Node8 -->
<g id="Node000008" class="node">
<title>Node8</title>
<g id="a_Node000008"><a xlink:title=" ">
<polygon fill="#e0e0e0" stroke="#999999" points="234.5,-200 184.5,-200 184.5,-177 234.5,-177 234.5,-200"/>
<text text-anchor="middle" x="209.5" y="-184.8" font-family="Arial" font-size="14.00">string</text>
</a>
</g>
</g>
<!-- Node2&#45;&gt;Node8 -->
<g id="edge8_Node000002_Node000008" class="edge">
<title>Node2&#45;&gt;Node8</title>
<g id="a_edge8_Node000002_Node000008"><a xlink:title=" ">
<path fill="none" stroke="#63b8ff" d="M143.74,-235.78C155.61,-227.42 172.32,-215.66 185.92,-206.09"/>
<polygon fill="#63b8ff" stroke="#63b8ff" points="188.17,-208.79 194.33,-200.17 184.14,-203.07 188.17,-208.79"/>
</a>
</g>
</g>
<!-- Node9 -->
<g id="Node000009" class="node">
<title>Node9</title>
<g id="a_Node000009"><a xlink:title=" ">
<polygon fill="#e0e0e0" stroke="#999999" points="534.5,-82 450.5,-82 450.5,-59 534.5,-59 534.5,-82"/>
<text text-anchor="middle" x="492.5" y="-66.8" font-family="Arial" font-size="14.00">string_view</text>
</a>
</g>
</g>
<!-- Node2&#45;&gt;Node9 -->
<g id="edge9_Node000002_Node000009" class="edge">
<title>Node2&#45;&gt;Node9</title>
<g id="a_edge9_Node000002_Node000009"><a xlink:title=" ">
<path fill="none" stroke="#63b8ff" d="M158.35,-235.86C181.89,-227.12 215.33,-213.96 243.5,-200 307.42,-168.31 317.78,-150.08 381.5,-118 405.29,-106.02 432.91,-94.44 454.65,-85.84"/>
<polygon fill="#63b8ff" stroke="#63b8ff" points="456.15,-89.01 464.19,-82.1 453.6,-82.49 456.15,-89.01"/>
</a>
</g>
</g>
<!-- Node2&#45;&gt;Node10 -->
<g id="edge10_Node000002_Node000010" class="edge">
<title>Node2&#45;&gt;Node10</title>
<g id="a_edge10_Node000002_Node000010"><a xlink:title=" ">
<path fill="none" stroke="#63b8ff" d="M109.31,-235.78C93.93,-227.18 72.11,-214.99 54.73,-205.28"/>
<polygon fill="#63b8ff" stroke="#63b8ff" points="56.04,-202 45.6,-200.17 52.62,-208.11 56.04,-202"/>
</a>
</g>
</g>
<!-- Node3&#45;&gt;Node4 -->
<g id="edge3_Node000003_Node000004" class="edge">
<title>Node3&#45;&gt;Node4</title>
<g id="a_edge3_Node000003_Node000004"><a xlink:title=" ">
<path fill="none" stroke="#63b8ff" d="M680.76,-58.78C667.58,-50.34 649,-38.44 633.98,-28.82"/>
<polygon fill="#63b8ff" stroke="#63b8ff" points="635.47,-25.62 625.17,-23.17 631.7,-31.51 635.47,-25.62"/>
</a>
</g>
</g>
<!-- Node5 -->
<g id="Node000005" class="node">
<title>Node5</title>
<g id="a_Node000005"><a xlink:title=" ">
<polygon fill="#e0e0e0" stroke="#999999" points="721.5,-23 673.5,-23 673.5,0 721.5,0 721.5,-23"/>
<text text-anchor="middle" x="697.5" y="-7.8" font-family="Arial" font-size="14.00">limits</text>
</a>
</g>
</g>
<!-- Node3&#45;&gt;Node5 -->
<g id="edge4_Node000003_Node000005" class="edge">
<title>Node3&#45;&gt;Node5</title>
<g id="a_edge4_Node000003_Node000005"><a xlink:title=" ">
<path fill="none" stroke="#63b8ff" d="M697.5,-58.78C697.5,-51.61 697.5,-41.95 697.5,-33.31"/>
<polygon fill="#63b8ff" stroke="#63b8ff" points="701,-33.17 697.5,-23.17 694,-33.17 701,-33.17"/>
</a>
</g>
</g>
<!-- Node11&#45;&gt;Node2 -->
<g id="edge12_Node000011_Node000002" class="edge">
<title>Node11&#45;&gt;Node2</title>
<g id="a_edge12_Node000011_Node000002"><a xlink:title=" ">
<path fill="none" stroke="#63b8ff" d="M306.26,-294.98C270.35,-285.59 217.6,-271.8 178.89,-261.68"/>
<polygon fill="#63b8ff" stroke="#63b8ff" points="179.43,-258.2 168.87,-259.06 177.66,-264.97 179.43,-258.2"/>
</a>
</g>
</g>
<!-- Node11&#45;&gt;Node3 -->
<g id="edge13_Node000011_Node000003" class="edge">
<title>Node11&#45;&gt;Node3</title>
<g id="a_edge13_Node000011_Node000003"><a xlink:title=" ">
<path fill="none" stroke="#63b8ff" d="M358.86,-294.85C385.71,-271.96 451.72,-216.93 511.5,-177 564.35,-141.7 629.7,-106.43 667.19,-86.94"/>
<polygon fill="#63b8ff" stroke="#63b8ff" points="669.27,-89.8 676.55,-82.1 666.06,-83.59 669.27,-89.8"/>
</a>
</g>
</g>
<!-- Node11&#45;&gt;Node7 -->
<g id="edge23_Node000011_Node000007" class="edge">
<title>Node11&#45;&gt;Node7</title>
<g id="a_edge23_Node000011_Node000007"><a xlink:title=" ">
<path fill="none" stroke="#63b8ff" d="M356.17,-294.99C363.63,-286.14 373.34,-272.74 377.5,-259 382.39,-242.85 379.34,-223.81 375.52,-209.74"/>
<polygon fill="#63b8ff" stroke="#63b8ff" points="378.84,-208.63 372.57,-200.09 372.15,-210.67 378.84,-208.63"/>
</a>
</g>
</g>
<!-- Node11&#45;&gt;Node10 -->
<g id="edge25_Node000011_Node000010" class="edge">
<title>Node11&#45;&gt;Node10</title>
<g id="a_edge25_Node000011_Node000010"><a xlink:title=" ">
<path fill="none" stroke="#63b8ff" d="M256.81,-302.37C179.27,-297.8 75,-286.57 44.5,-259 31.03,-246.83 27.06,-226.01 26.14,-210.32"/>
<polygon fill="#63b8ff" stroke="#63b8ff" points="29.64,-209.93 25.92,-200 22.64,-210.08 29.64,-209.93"/>
</a>
</g>
</g>
<!-- Node12 -->
<g id="Node000012" class="node">
<title>Node12</title>
<g id="a_Node000012"><a xlink:title=" ">
<polygon fill="#e0e0e0" stroke="#999999" points="649,-259 574,-259 574,-236 649,-236 649,-259"/>
<text text-anchor="middle" x="611.5" y="-243.8" font-family="Arial" font-size="14.00">esp_log.h</text>
</a>
</g>
</g>
<!-- Node11&#45;&gt;Node12 -->
<g id="edge14_Node000011_Node000012" class="edge">
<title>Node11&#45;&gt;Node12</title>
<g id="a_edge14_Node000011_Node000012"><a xlink:title=" ">
<path fill="none" stroke="#63b8ff" d="M396.75,-294.93C438.8,-286.04 500.63,-272.91 564.02,-259.09"/>
<polygon fill="#63b8ff" stroke="#63b8ff" points="564.77,-262.51 573.8,-256.96 563.28,-255.67 564.77,-262.51"/>
</a>
</g>
</g>
<!-- Node13 -->
<g id="Node000013" class="node">
<title>Node13</title>
<g id="a_Node000013"><a xlink:title=" ">
<polygon fill="#e0e0e0" stroke="#999999" points="306,-259 221,-259 221,-236 306,-236 306,-259"/>
<text text-anchor="middle" x="263.5" y="-243.8" font-family="Arial" font-size="14.00">nvs_flash.h</text>
</a>
</g>
</g>
<!-- Node11&#45;&gt;Node13 -->
<g id="edge15_Node000011_Node000013" class="edge">
<title>Node11&#45;&gt;Node13</title>
<g id="a_edge15_Node000011_Node000013"><a xlink:title=" ">
<path fill="none" stroke="#63b8ff" d="M330.89,-294.78C318.72,-286.42 301.6,-274.66 287.66,-265.09"/>
<polygon fill="#63b8ff" stroke="#63b8ff" points="289.27,-261.95 279.04,-259.17 285.3,-267.72 289.27,-261.95"/>
</a>
</g>
</g>
<!-- Node14 -->
<g id="Node000014" class="node">
<title>Node14</title>
<g id="a_Node000014"><a xlink:href="RtosMutex_8h.html" target="_top" xlink:title="Cross&#45;platform RTOS mutex and synchronization primitives.">
<polygon fill="white" stroke="#666666" points="556,-259 463,-259 463,-236 556,-236 556,-259"/>
<text text-anchor="middle" x="509.5" y="-243.8" font-family="Arial" font-size="14.00">RtosMutex.h</text>
</a>
</g>
</g>
<!-- Node11&#45;&gt;Node14 -->
<g id="edge16_Node000011_Node000014" class="edge">
<title>Node11&#45;&gt;Node14</title>
<g id="a_edge16_Node000011_Node000014"><a xlink:title=" ">
<path fill="none" stroke="#63b8ff" d="M376.78,-294.91C402.97,-285.75 441.02,-272.45 469.68,-262.43"/>
<polygon fill="#63b8ff" stroke="#63b8ff" points="471.1,-265.64 479.39,-259.03 468.79,-259.03 471.1,-265.64"/>
</a>
</g>
</g>
<!-- Node20 -->
<g id="Node000020" class="node">
<title>Node20</title>
<g id="a_Node000020"><a xlink:title=" ">
<polygon fill="#e0e0e0" stroke="#999999" points="368.5,-259 324.5,-259 324.5,-236 368.5,-236 368.5,-259"/>
<text text-anchor="middle" x="346.5" y="-243.8" font-family="Arial" font-size="14.00">map</text>
</a>
</g>
</g>
<!-- Node11&#45;&gt;Node20 -->
<g id="edge24_Node000011_Node000020" class="edge">
<title>Node11&#45;&gt;Node20</title>
<g id="a_edge24_Node000011_Node000020"><a xlink:title=" ">
<path fill="none" stroke="#63b8ff" d="M346.5,-294.78C346.5,-287.61 346.5,-277.95 346.5,-269.31"/>
<polygon fill="#63b8ff" stroke="#63b8ff" points="350,-269.17 346.5,-259.17 343,-269.17 350,-269.17"/>
</a>
</g>
</g>
<!-- Node14&#45;&gt;Node4 -->
<g id="edge22_Node000014_Node000004" class="edge">
<title>Node14&#45;&gt;Node4</title>
<g id="a_edge22_Node000014_Node000004"><a xlink:title=" ">
<path fill="none" stroke="#63b8ff" d="M499.04,-235.69C470.75,-205.13 397.72,-116.63 441.5,-59 457.01,-38.59 525.82,-24.75 570.13,-17.78"/>
<polygon fill="#63b8ff" stroke="#63b8ff" points="570.92,-21.2 580.28,-16.23 569.86,-14.28 570.92,-21.2"/>
</a>
</g>
</g>
<!-- Node15 -->
<g id="Node000015" class="node">
<title>Node15</title>
<g id="a_Node000015"><a xlink:href="McuSelect_8h.html" target="_top" xlink:title="Centralized MCU platform selection and configuration header.">
<polygon fill="white" stroke="#666666" points="1146.5,-82 1054.5,-82 1054.5,-59 1146.5,-59 1146.5,-82"/>
<text text-anchor="middle" x="1100.5" y="-66.8" font-family="Arial" font-size="14.00">McuSelect.h</text>
</a>
</g>
</g>
<!-- Node14&#45;&gt;Node15 -->
<g id="edge17_Node000014_Node000015" class="edge">
<title>Node14&#45;&gt;Node15</title>
<g id="a_edge17_Node000014_Node000015"><a xlink:title=" ">
<path fill="none" stroke="#63b8ff" d="M556.18,-237.29C559.33,-236.81 562.46,-236.37 565.5,-236 632.78,-227.74 1128,-249.33 1174.5,-200 1206.76,-165.78 1155.3,-114.97 1123.17,-88.66"/>
<polygon fill="#63b8ff" stroke="#63b8ff" points="1125.1,-85.72 1115.1,-82.23 1120.74,-91.2 1125.1,-85.72"/>
</a>
</g>
</g>
<!-- Node16 -->
<g id="Node000016" class="node">
<title>Node16</title>
<g id="a_Node000016"><a xlink:title=" ">
<polygon fill="#e0e0e0" stroke="#999999" points="681,-200 538,-200 538,-177 681,-177 681,-200"/>
<text text-anchor="middle" x="609.5" y="-184.8" font-family="Arial" font-size="14.00">freertos/FreeRTOS.h</text>
</a>
</g>
</g>
<!-- Node14&#45;&gt;Node16 -->
<g id="edge18_Node000014_Node000016" class="edge">
<title>Node14&#45;&gt;Node16</title>
<g id="a_edge18_Node000014_Node000016"><a xlink:title=" ">
<path fill="none" stroke="#63b8ff" d="M528.31,-235.78C543.39,-227.18 564.79,-214.99 581.82,-205.28"/>
<polygon fill="#63b8ff" stroke="#63b8ff" points="583.82,-208.17 590.78,-200.17 580.35,-202.08 583.82,-208.17"/>
</a>
</g>
</g>
<!-- Node17 -->
<g id="Node000017" class="node">
<title>Node17</title>
<g id="a_Node000017"><a xlink:title=" ">
<polygon fill="#e0e0e0" stroke="#999999" points="821.5,-200 699.5,-200 699.5,-177 821.5,-177 821.5,-200"/>
<text text-anchor="middle" x="760.5" y="-184.8" font-family="Arial" font-size="14.00">freertos/semphr.h</text>
</a>
</g>
</g>
<!-- Node14&#45;&gt;Node17 -->
<g id="edge19_Node000014_Node000017" class="edge">
<title>Node14&#45;&gt;Node17</title>
<g id="a_edge19_Node000014_Node000017"><a xlink:title=" ">
<path fill="none" stroke="#63b8ff" d="M555.83,-235.98C597.71,-226.47 659.46,-212.44 704.18,-202.29"/>
<polygon fill="#63b8ff" stroke="#63b8ff" points="705.04,-205.68 714.02,-200.06 703.49,-198.86 705.04,-205.68"/>
</a>
</g>
</g>
<!-- Node18 -->
<g id="Node000018" class="node">
<title>Node18</title>
<g id="a_Node000018"><a xlink:title=" ">
<polygon fill="#e0e0e0" stroke="#999999" points="941.5,-200 839.5,-200 839.5,-177 941.5,-177 941.5,-200"/>
<text text-anchor="middle" x="890.5" y="-184.8" font-family="Arial" font-size="14.00">freertos/task.h</text>
</a>
</g>
</g>
<!-- Node14&#45;&gt;Node18 -->
<g id="edge20_Node000014_Node000018" class="edge">
<title>Node14&#45;&gt;Node18</title>
<g id="a_edge20_Node000014_Node000018"><a xlink:title=" ">
<path fill="none" stroke="#63b8ff" d="M556.22,-237.56C559.36,-237.01 562.47,-236.49 565.5,-236 679.63,-217.56 711.33,-218.2 829.3,-200.14"/>
<polygon fill="#63b8ff" stroke="#63b8ff" points="830.11,-203.55 839.46,-198.57 829.04,-196.64 830.11,-203.55"/>
</a>
</g>
</g>
<!-- Node19 -->
<g id="Node000019" class="node">
<title>Node19</title>
<g id="a_Node000019"><a xlink:title=" ">
<polygon fill="#e0e0e0" stroke="#999999" points="844,-82 787,-82 787,-59 844,-59 844,-82"/>
<text text-anchor="middle" x="815.5" y="-66.8" font-family="Arial" font-size="14.00">atomic</text>
</a>
</g>
</g>
<!-- Node14&#45;&gt;Node19 -->
<g id="edge21_Node000014_Node000019" class="edge">
<title>Node14&#45;&gt;Node19</title>
<g id="a_edge21_Node000014_Node000019"><a xlink:title=" ">
<path fill="none" stroke="#63b8ff" d="M509.3,-235.76C509.64,-220.34 512.71,-192.13 529.5,-177 597.24,-115.95 648.75,-179.33 731.5,-141 758.21,-128.63 783.48,-105.63 799.19,-89.49"/>
<polygon fill="#63b8ff" stroke="#63b8ff" points="801.76,-91.86 806.1,-82.19 796.68,-87.05 801.76,-91.86"/>
</a>
</g>
</g>
<!-- Node21&#45;&gt;Node3 -->
<g id="edge33_Node000021_Node000003" class="edge">
<title>Node21&#45;&gt;Node3</title>
<g id="a_edge33_Node000021_Node000003"><a xlink:title=" ">
<path fill="none" stroke="#63b8ff" d="M814.09,-303.26C882.3,-299.32 986.83,-288.51 1011.5,-259 1018.06,-251.16 1015.49,-245.41 1011.5,-236 968.65,-134.93 882.54,-188.35 783.5,-141 756.56,-128.12 730.61,-105.23 714.39,-89.26"/>
<polygon fill="#63b8ff" stroke="#63b8ff" points="716.77,-86.69 707.25,-82.04 711.8,-91.61 716.77,-86.69"/>
</a>
</g>
</g>
<!-- Node21&#45;&gt;Node12 -->
<g id="edge27_Node000021_Node000012" class="edge">
<title>Node21&#45;&gt;Node12</title>
<g id="a_edge27_Node000021_Node000012"><a xlink:title=" ">
<path fill="none" stroke="#63b8ff" d="M727.12,-294.91C704.61,-285.87 672.02,-272.79 647.18,-262.82"/>
<polygon fill="#63b8ff" stroke="#63b8ff" points="648.32,-259.51 637.74,-259.03 645.71,-266 648.32,-259.51"/>
</a>
</g>
</g>
<!-- Node21&#45;&gt;Node16 -->
<g id="edge29_Node000021_Node000016" class="edge">
<title>Node21&#45;&gt;Node16</title>
<g id="a_edge29_Node000021_Node000016"><a xlink:title=" ">
<path fill="none" stroke="#63b8ff" d="M740.21,-294.79C715.14,-274.6 660.66,-230.72 630.56,-206.46"/>
<polygon fill="#63b8ff" stroke="#63b8ff" points="632.74,-203.73 622.76,-200.18 628.35,-209.18 632.74,-203.73"/>
</a>
</g>
</g>
<!-- Node21&#45;&gt;Node17 -->
<g id="edge31_Node000021_Node000017" class="edge">
<title>Node21&#45;&gt;Node17</title>
<g id="a_edge31_Node000021_Node000017"><a xlink:title=" ">
<path fill="none" stroke="#63b8ff" d="M748.53,-294.65C742.9,-280.96 735.04,-256.7 739.5,-236 741.49,-226.77 745.46,-217.16 749.43,-209.09"/>
<polygon fill="#63b8ff" stroke="#63b8ff" points="752.58,-210.62 754.12,-200.13 746.38,-207.37 752.58,-210.62"/>
</a>
</g>
</g>
<!-- Node21&#45;&gt;Node18 -->
<g id="edge32_Node000021_Node000018" class="edge">
<title>Node21&#45;&gt;Node18</title>
<g id="a_edge32_Node000021_Node000018"><a xlink:title=" ">
<path fill="none" stroke="#63b8ff" d="M753.74,-294.94C754.64,-280 758.41,-252.65 773.5,-236 788.26,-219.71 809.48,-209.05 829.81,-202.1"/>
<polygon fill="#63b8ff" stroke="#63b8ff" points="830.9,-205.42 839.37,-199.07 828.78,-198.75 830.9,-205.42"/>
</a>
</g>
</g>
<!-- Node22 -->
<g id="Node000022" class="node">
<title>Node22</title>
<g id="a_Node000022"><a xlink:title=" ">
<polygon fill="#e0e0e0" stroke="#999999" points="869,-259 782,-259 782,-236 869,-236 869,-259"/>
<text text-anchor="middle" x="825.5" y="-243.8" font-family="Arial" font-size="14.00">esp_timer.h</text>
</a>
</g>
</g>
<!-- Node21&#45;&gt;Node22 -->
<g id="edge28_Node000021_Node000022" class="edge">
<title>Node21&#45;&gt;Node22</title>
<g id="a_edge28_Node000021_Node000022"><a xlink:title=" ">
<path fill="none" stroke="#63b8ff" d="M767.04,-294.78C777.4,-286.58 791.89,-275.11 803.85,-265.64"/>
<polygon fill="#63b8ff" stroke="#63b8ff" points="806.35,-268.12 812.02,-259.17 802.01,-262.64 806.35,-268.12"/>
</a>
</g>
</g>
<!-- Node23 -->
<g id="Node000023" class="node">
<title>Node23</title>
<g id="a_Node000023"><a xlink:title=" ">
<polygon fill="#e0e0e0" stroke="#999999" points="1002,-259 887,-259 887,-236 1002,-236 1002,-259"/>
<text text-anchor="middle" x="944.5" y="-243.8" font-family="Arial" font-size="14.00">freertos/queue.h</text>
</a>
</g>
</g>
<!-- Node21&#45;&gt;Node23 -->
<g id="edge30_Node000021_Node000023" class="edge">
<title>Node21&#45;&gt;Node23</title>
<g id="a_edge30_Node000021_Node000023"><a xlink:title=" ">
<path fill="none" stroke="#63b8ff" d="M788.98,-294.91C820.2,-285.59 865.82,-271.98 899.59,-261.9"/>
<polygon fill="#63b8ff" stroke="#63b8ff" points="900.63,-265.24 909.21,-259.03 898.63,-258.54 900.63,-265.24"/>
</a>
</g>
</g>
<!-- Node24 -->
<g id="Node000024" class="node">
<title>Node24</title>
<g id="a_Node000024"><a xlink:href="EspGpio_8h.html" target="_top" xlink:title="Advanced MCU&#45;specific implementation of the unified BaseGpio class with ESP32C6/ESP&#45;IDF v5....">
<polygon fill="white" stroke="#666666" points="1276,-259 1125,-259 1125,-236 1276,-236 1276,-259"/>
<text text-anchor="middle" x="1200.5" y="-243.8" font-family="Arial" font-size="14.00">mcu/esp32/EspGpio.h</text>
</a>
</g>
</g>
<!-- Node21&#45;&gt;Node24 -->
<g id="edge34_Node000021_Node000024" class="edge">
<title>Node21&#45;&gt;Node24</title>
<g id="a_edge34_Node000021_Node000024"><a xlink:title=" ">
<path fill="none" stroke="#63b8ff" d="M814.25,-297.75C891.94,-287.85 1026.93,-270.63 1114.98,-259.41"/>
<polygon fill="#63b8ff" stroke="#63b8ff" points="1115.47,-262.87 1124.95,-258.13 1114.58,-255.93 1115.47,-262.87"/>
</a>
</g>
</g>
<!-- Node25 -->
<g id="Node000025" class="node">
<title>Node25</title>
<g id="a_Node000025"><a xlink:title=" ">
<polygon fill="#e0e0e0" stroke="#999999" points="1313,-200 1222,-200 1222,-177 1313,-177 1313,-200"/>
<text text-anchor="middle" x="1267.5" y="-184.8" font-family="Arial" font-size="14.00">driver/gpio.h</text>
</a>
</g>
</g>
<!-- Node24&#45;&gt;Node25 -->
<g id="edge35_Node000024_Node000025" class="edge">
<title>Node24&#45;&gt;Node25</title>
<g id="a_edge35_Node000024_Node000025"><a xlink:title=" ">
<path fill="none" stroke="#63b8ff" d="M1213.1,-235.78C1222.65,-227.66 1235.96,-216.33 1247.03,-206.92"/>
<polygon fill="#63b8ff" stroke="#63b8ff" points="1249.61,-209.32 1254.95,-200.17 1245.07,-203.99 1249.61,-209.32"/>
</a>
</g>
</g>
<!-- Node26 -->
<g id="Node000026" class="node">
<title>Node26</title>
<g id="a_Node000026"><a xlink:title=" ">
<polygon fill="#e0e0e0" stroke="#999999" points="1407.5,-200 1331.5,-200 1331.5,-177 1407.5,-177 1407.5,-200"/>
<text text-anchor="middle" x="1369.5" y="-184.8" font-family="Arial" font-size="14.00">esp_attr.h</text>
</a>
</g>
</g>
<!-- Node24&#45;&gt;Node26 -->
<g id="edge36_Node000024_Node000026" class="edge">
<title>Node24&#45;&gt;Node26</title>
<g id="a_edge36_Node000024_Node000026"><a xlink:title=" ">
<path fill="none" stroke="#63b8ff" d="M1231.89,-235.91C1259.16,-226.71 1298.85,-213.33 1328.6,-203.29"/>
<polygon fill="#63b8ff" stroke="#63b8ff" points="1329.92,-206.54 1338.28,-200.03 1327.68,-199.91 1329.92,-206.54"/>
</a>
</g>
</g>
<!-- Node27 -->
<g id="Node000027" class="node">
<title>Node27</title>
<g id="a_Node000027"><a xlink:href="BaseGpio_8h.html" target="_top" xlink:title="Unified GPIO base class for all digital GPIO implementations.">
<polygon fill="white" stroke="#666666" points="722.5,-141 634.5,-141 634.5,-118 722.5,-118 722.5,-141"/>
<text text-anchor="middle" x="678.5" y="-125.8" font-family="Arial" font-size="14.00">BaseGpio.h</text>
</a>
</g>
</g>
<!-- Node24&#45;&gt;Node27 -->
<g id="edge37_Node000024_Node000027" class="edge">
<title>Node24&#45;&gt;Node27</title>
<g id="a_edge37_Node000024_Node000027"><a xlink:title=" ">
<path fill="none" stroke="#63b8ff" d="M1159.61,-235.98C1124.29,-226.79 1071.91,-212.93 1026.5,-200 992.56,-190.33 984.85,-185.1 950.5,-177 875.66,-159.35 787.74,-145.55 732.56,-137.72"/>
<polygon fill="#63b8ff" stroke="#63b8ff" points="733.04,-134.25 722.65,-136.32 732.07,-141.18 733.04,-134.25"/>
</a>
</g>
</g>
<!-- Node28 -->
<g id="Node000028" class="node">
<title>Node28</title>
<g id="a_Node000028"><a xlink:href="EspTypes__GPIO_8h.html" target="_top" xlink:title="ESP32 GPIO type definitions for hardware abstraction.">
<polygon fill="white" stroke="#666666" points="1165.5,-200 1035.5,-200 1035.5,-177 1165.5,-177 1165.5,-200"/>
<text text-anchor="middle" x="1100.5" y="-184.8" font-family="Arial" font-size="14.00">EspTypes_GPIO.h</text>
</a>
</g>
</g>
<!-- Node24&#45;&gt;Node28 -->
<g id="edge41_Node000024_Node000028" class="edge">
<title>Node24&#45;&gt;Node28</title>
<g id="a_edge41_Node000024_Node000028"><a xlink:title=" ">
<path fill="none" stroke="#63b8ff" d="M1181.69,-235.78C1166.61,-227.18 1145.21,-214.99 1128.18,-205.28"/>
<polygon fill="#63b8ff" stroke="#63b8ff" points="1129.65,-202.08 1119.22,-200.17 1126.18,-208.17 1129.65,-202.08"/>
</a>
</g>
</g>
<!-- Node30 -->
<g id="Node000030" class="node">
<title>Node30</title>
<g id="a_Node000030"><a xlink:title=" ">
<polygon fill="#e0e0e0" stroke="#999999" points="1481.5,-200 1425.5,-200 1425.5,-177 1481.5,-177 1481.5,-200"/>
<text text-anchor="middle" x="1453.5" y="-184.8" font-family="Arial" font-size="14.00">stdio.h</text>
</a>
</g>
</g>
<!-- Node24&#45;&gt;Node30 -->
<g id="edge50_Node000024_Node000030" class="edge">
<title>Node24&#45;&gt;Node30</title>
<g id="a_edge50_Node000024_Node000030"><a xlink:title=" ">
<path fill="none" stroke="#63b8ff" d="M1253.98,-235.99C1295.6,-227.58 1355.01,-215.08 1415.55,-200.13"/>
<polygon fill="#63b8ff" stroke="#63b8ff" points="1416.41,-203.53 1425.27,-197.71 1414.72,-196.73 1416.41,-203.53"/>
</a>
</g>
</g>
<!-- Node27&#45;&gt;Node3 -->
<g id="edge38_Node000027_Node000003" class="edge">
<title>Node27&#45;&gt;Node3</title>
<g id="a_edge38_Node000027_Node000003"><a xlink:title=" ">
<path fill="none" stroke="#63b8ff" d="M682.07,-117.78C684.52,-110.45 687.83,-100.52 690.75,-91.74"/>
<polygon fill="#63b8ff" stroke="#63b8ff" points="694.1,-92.77 693.94,-82.17 687.46,-90.55 694.1,-92.77"/>
</a>
</g>
</g>
<!-- Node27&#45;&gt;Node4 -->
<g id="edge39_Node000027_Node000004" class="edge">
<title>Node27&#45;&gt;Node4</title>
<g id="a_edge39_Node000027_Node000004"><a xlink:title=" ">
<path fill="none" stroke="#63b8ff" d="M662.45,-117.68C651.1,-109.23 636.38,-96.51 627.5,-82 618.34,-67.04 613.52,-47.61 611.02,-33.1"/>
<polygon fill="#63b8ff" stroke="#63b8ff" points="614.47,-32.49 609.54,-23.12 607.55,-33.52 614.47,-32.49"/>
</a>
</g>
</g>
<!-- Node27&#45;&gt;Node9 -->
<g id="edge40_Node000027_Node000009" class="edge">
<title>Node27&#45;&gt;Node9</title>
<g id="a_edge40_Node000027_Node000009"><a xlink:title=" ">
<path fill="none" stroke="#63b8ff" d="M643.95,-117.91C613.67,-108.63 569.5,-95.1 536.66,-85.03"/>
<polygon fill="#63b8ff" stroke="#63b8ff" points="537.45,-81.61 526.86,-82.03 535.4,-88.31 537.45,-81.61"/>
</a>
</g>
</g>
<!-- Node28&#45;&gt;Node3 -->
<g id="edge48_Node000028_Node000003" class="edge">
<title>Node28&#45;&gt;Node3</title>
<g id="a_edge48_Node000028_Node000003"><a xlink:title=" ">
<path fill="none" stroke="#63b8ff" d="M1035.43,-177.53C972.2,-167.48 880.83,-151.95 846.5,-141 802.33,-126.91 754.23,-102.72 724.97,-86.92"/>
<polygon fill="#63b8ff" stroke="#63b8ff" points="726.61,-83.83 716.16,-82.11 723.26,-89.98 726.61,-83.83"/>
</a>
</g>
</g>
<!-- Node28&#45;&gt;Node15 -->
<g id="edge49_Node000028_Node000015" class="edge">
<title>Node28&#45;&gt;Node15</title>
<g id="a_edge49_Node000028_Node000015"><a xlink:title=" ">
<path fill="none" stroke="#63b8ff" d="M1100.5,-176.79C1100.5,-157.63 1100.5,-117.15 1100.5,-92.34"/>
<polygon fill="#63b8ff" stroke="#63b8ff" points="1104,-92.18 1100.5,-82.18 1097,-92.18 1104,-92.18"/>
</a>
</g>
</g>
<!-- Node28&#45;&gt;Node27 -->
<g id="edge42_Node000028_Node000027" class="edge">
<title>Node28&#45;&gt;Node27</title>
<g id="a_edge42_Node000028_Node000027"><a xlink:title=" ">
<path fill="none" stroke="#63b8ff" d="M1035.49,-178.72C952.4,-167.5 810.08,-148.27 732.61,-137.81"/>
<polygon fill="#63b8ff" stroke="#63b8ff" points="732.96,-134.32 722.58,-136.45 732.02,-141.26 732.96,-134.32"/>
</a>
</g>
</g>
<!-- Node29 -->
<g id="Node000029" class="node">
<title>Node29</title>
<g id="a_Node000029"><a xlink:href="EspTypes__Base_8h.html" target="_top" xlink:title="ESP32 base type definitions for hardware abstraction.">
<polygon fill="white" stroke="#666666" points="980,-141 855,-141 855,-118 980,-118 980,-141"/>
<text text-anchor="middle" x="917.5" y="-125.8" font-family="Arial" font-size="14.00">EspTypes_Base.h</text>
</a>
</g>
</g>
<!-- Node28&#45;&gt;Node29 -->
<g id="edge43_Node000028_Node000029" class="edge">
<title>Node28&#45;&gt;Node29</title>
<g id="a_edge43_Node000028_Node000029"><a xlink:title=" ">
<path fill="none" stroke="#63b8ff" d="M1066.51,-176.91C1036.72,-167.63 993.26,-154.1 960.95,-144.03"/>
<polygon fill="#63b8ff" stroke="#63b8ff" points="961.9,-140.66 951.31,-141.03 959.82,-147.35 961.9,-140.66"/>
</a>
</g>
</g>
<!-- Node29&#45;&gt;Node3 -->
<g id="edge45_Node000029_Node000003" class="edge">
<title>Node29&#45;&gt;Node3</title>
<g id="a_edge45_Node000029_Node000003"><a xlink:title=" ">
<path fill="none" stroke="#63b8ff" d="M876.89,-117.98C840.65,-108.59 787.42,-94.8 748.35,-84.68"/>
<polygon fill="#63b8ff" stroke="#63b8ff" points="748.8,-81.18 738.24,-82.06 747.05,-87.95 748.8,-81.18"/>
</a>
</g>
</g>
<!-- Node29&#45;&gt;Node4 -->
<g id="edge47_Node000029_Node000004" class="edge">
<title>Node29&#45;&gt;Node4</title>
<g id="a_edge47_Node000029_Node000004"><a xlink:title=" ">
<path fill="none" stroke="#63b8ff" d="M910.92,-117.81C900.7,-102.19 879.45,-73.42 853.5,-59 852.37,-58.37 715.6,-32.62 646.93,-19.72"/>
<polygon fill="#63b8ff" stroke="#63b8ff" points="647.4,-16.24 636.92,-17.84 646.1,-23.12 647.4,-16.24"/>
</a>
</g>
</g>
<!-- Node29&#45;&gt;Node15 -->
<g id="edge44_Node000029_Node000015" class="edge">
<title>Node29&#45;&gt;Node15</title>
<g id="a_edge44_Node000029_Node000015"><a xlink:title=" ">
<path fill="none" stroke="#63b8ff" d="M951.49,-117.91C981.28,-108.63 1024.74,-95.1 1057.05,-85.03"/>
<polygon fill="#63b8ff" stroke="#63b8ff" points="1058.18,-88.35 1066.69,-82.03 1056.1,-81.66 1058.18,-88.35"/>
</a>
</g>
</g>
<!-- Node29&#45;&gt;Node19 -->
<g id="edge46_Node000029_Node000019" class="edge">
<title>Node29&#45;&gt;Node19</title>
<g id="a_edge46_Node000029_Node000019"><a xlink:title=" ">
<path fill="none" stroke="#63b8ff" d="M898.31,-117.78C882.93,-109.18 861.11,-96.99 843.73,-87.28"/>
<polygon fill="#63b8ff" stroke="#63b8ff" points="845.04,-84 834.6,-82.17 841.62,-90.11 845.04,-84"/>
</a>
</g>
</g>
</g>
</svg>

<g id="navigator" transform="translate(0 0)" fill="#404254">
  <rect fill="#f2f5e9" fill-opacity="0.5" stroke="#606060" stroke-width=".5" x="0" y="0" width="60" height="60"/>
  <use id="zoomplus" xlink:href="#zoomPlus" x="17" y="9" onmousedown="handleZoom(evt,'in')"/>
  <use id="zoomminus" xlink:href="#zoomMin" x="42" y="9" onmousedown="handleZoom(evt,'out')"/>
  <use id="reset" xlink:href="#resetDef" x="30" y="36" onmousedown="handleReset()"/>
   <use id="arrowup" xlink:href="#arrowUp" x="0" y="0" onmousedown="handlePan(0,-1)"/>
  <use id="arrowright" xlink:href="#arrowRight" x="0" y="0" onmousedown="handlePan(1,0)"/>
  <use id="arrowdown" xlink:href="#arrowDown" x="0" y="0" onmousedown="handlePan(0,1)"/>
  <use id="arrowleft" xlink:href="#arrowLeft" x="0" y="0" onmousedown="handlePan(-1,0)"/>
</g>
<svg viewBox="0 0 15 15" width="100%" height="30px" preserveAspectRatio="xMaxYMin meet">
 <g id="arrow_out" transform="scale(0.3 0.3)">
  <a xlink:href="BluetoothComprehensiveTest_8cpp__incl_org.svg" target="_base">
   <rect id="button" ry="5" rx="5" y="6" x="6" height="38" width="38"
        fill="#f2f5e9" fill-opacity="0.5" stroke="#606060" stroke-width="1.0"/>
   <path id="arrow"
     d="M 11.500037,31.436501 C 11.940474,20.09759 22.043105,11.32322 32.158766,21.979434 L 37.068811,17.246167 C 37.068811,17.246167 37.088388,32 37.088388,32 L 22.160133,31.978069 C 22.160133,31.978069 26.997745,27.140456 26.997745,27.140456 C 18.528582,18.264221 13.291696,25.230495 11.500037,31.436501 z"
     style="fill:#404040;"/>
  </a>
 </g>
</svg>

<style type='text/css'>
<![CDATA[
[data-mouse-over-selected='false'] { opacity: 0.7; }
[data-mouse-over-selected='true']  { opacity: 1.0; }
]]>
</style>
<script type="application/ecmascript"><![CDATA[
document.addEventListener('DOMContentLoaded', (event) => {
  highlightEdges();
  highlightAdjacentNodes();
});
]]></script>
</svg>
