<?xml version="1.0" encoding="UTF-8" standalone="no"?>
<!DOCTYPE svg PUBLIC "-//W3C//DTD SVG 1.1//EN"
 "http://www.w3.org/Graphics/SVG/1.1/DTD/svg11.dtd">
<!-- Generated by graphviz version 2.43.0 (0)
 -->
<!-- Title: examples/esp32/main/CanComprehensiveTest.cpp Pages: 1 -->
<!--zoomable 400 -->

<svg id="main" version="1.1" xmlns="http://www.w3.org/2000/svg" xmlns:xlink="http://www.w3.org/1999/xlink" xml:space="preserve" onload="init(evt)">
<style type="text/css"><![CDATA[
.node, .edge {opacity: 0.7;}
.node.selected, .edge.selected {opacity: 1;}
.edge:hover path { stroke: red; }
.edge:hover polygon { stroke: red; fill: red; }
]]></style>

<defs>
  <circle id="rim" cx="0" cy="0" r="7"/>
  <circle id="rim2" cx="0" cy="0" r="3.5"/>
  <g id="zoomPlus">
    <use xlink:href="#rim" fill="#404040"><set attributeName="fill" to="#808080" begin="zoomplus.mouseover" end="zoomplus.mouseout"/></use>
    <path d="M-4,0h8M0,-4v8" fill="none" stroke="white" stroke-width="1.5" pointer-events="none"/>
  </g>
  <g id="zoomMin">
    <use xlink:href="#rim" fill="#404040"><set attributeName="fill" to="#808080" begin="zoomminus.mouseover" end="zoomminus.mouseout"/></use>
    <path d="M-4,0h8" fill="none" stroke="white" stroke-width="1.5" pointer-events="none"/>
  </g>
  <g id="arrowUp" transform="translate(30 24)">
    <use xlink:href="#rim"/>
    <path pointer-events="none" fill="none" stroke="white" stroke-width="1.5" d="M0,-3.0v7 M-2.5,-0.5L0,-3.0L2.5,-0.5"/>
  </g>
  <g id="arrowRight" transform="rotate(90) translate(36 -43)">
    <use xlink:href="#rim"/>
    <path pointer-events="none" fill="none" stroke="white" stroke-width="1.5" d="M0,-3.0v7 M-2.5,-0.5L0,-3.0L2.5,-0.5"/>
  </g>
  <g id="arrowDown" transform="rotate(180) translate(-30 -48)">
    <use xlink:href="#rim"/>
    <path pointer-events="none" fill="none" stroke="white" stroke-width="1.5" d="M0,-3.0v7 M-2.5,-0.5L0,-3.0L2.5,-0.5"/>
  </g>
  <g id="arrowLeft" transform="rotate(270) translate(-36 17)">
    <use xlink:href="#rim"/>
    <path pointer-events="none" fill="none" stroke="white" stroke-width="1.5" d="M0,-3.0v7 M-2.5,-0.5L0,-3.0L2.5,-0.5"/>
  </g>
  <g id="resetDef">
    <use xlink:href="#rim2" fill="#404040"><set attributeName="fill" to="#808080" begin="reset.mouseover" end="reset.mouseout"/></use>
  </g>
</defs>
<script type="application/ecmascript">
var viewWidth = 2074;
var viewHeight = 400;
var sectionId = 'dynsection-0';
</script>
<script type="application/ecmascript" xlink:href="svg.min.js"/>
<svg id="graph" class="graph">
<g id="viewport">
<title>examples/esp32/main/CanComprehensiveTest.cpp</title>
<!-- Node1 -->
<g id="Node000001" class="node">
<title>Node1</title>
<g id="a_Node000001"><a xlink:title="Comprehensive CAN testing suite for ESP32&#45;C6 with ESP&#45;IDF v5.5 TWAI API and SN65 transceiver.">
<polygon fill="#999999" stroke="#666666" points="1212,-392 1021,-392 1021,-354 1212,-354 1212,-392"/>
<text text-anchor="start" x="1029" y="-376.8" font-family="Arial" font-size="14.00">examples/esp32/main</text>
<text text-anchor="middle" x="1116.5" y="-361.8" font-family="Arial" font-size="14.00">/CanComprehensiveTest.cpp</text>
</a>
</g>
</g>
<!-- Node2 -->
<g id="Node000002" class="node">
<title>Node2</title>
<g id="a_Node000002"><a xlink:title=" ">
<polygon fill="#e0e0e0" stroke="#999999" points="75,-259 0,-259 0,-236 75,-236 75,-259"/>
<text text-anchor="middle" x="37.5" y="-243.8" font-family="Arial" font-size="14.00">esp_log.h</text>
</a>
</g>
</g>
<!-- Node1&#45;&gt;Node2 -->
<g id="edge1_Node000001_Node000002" class="edge">
<title>Node1&#45;&gt;Node2</title>
<g id="a_edge1_Node000001_Node000002"><a xlink:title=" ">
<path fill="none" stroke="#63b8ff" d="M1020.86,-372.76C863.67,-372.47 541.38,-365.41 273.5,-318 201.99,-305.34 121.37,-278.84 75.28,-262.47"/>
<polygon fill="#63b8ff" stroke="#63b8ff" points="76.3,-259.12 65.71,-259.04 73.94,-265.71 76.3,-259.12"/>
</a>
</g>
</g>
<!-- Node3 -->
<g id="Node000003" class="node">
<title>Node3</title>
<g id="a_Node000003"><a xlink:title=" ">
<polygon fill="#e0e0e0" stroke="#999999" points="180,-259 93,-259 93,-236 180,-236 180,-259"/>
<text text-anchor="middle" x="136.5" y="-243.8" font-family="Arial" font-size="14.00">esp_timer.h</text>
</a>
</g>
</g>
<!-- Node1&#45;&gt;Node3 -->
<g id="edge2_Node000001_Node000003" class="edge">
<title>Node1&#45;&gt;Node3</title>
<g id="a_edge2_Node000001_Node000003"><a xlink:title=" ">
<path fill="none" stroke="#63b8ff" d="M1020.77,-371.81C877.52,-370.02 599.41,-360.71 367.5,-318 297.81,-305.17 219.33,-278.94 174.12,-262.62"/>
<polygon fill="#63b8ff" stroke="#63b8ff" points="175.05,-259.24 164.46,-259.1 172.65,-265.81 175.05,-259.24"/>
</a>
</g>
</g>
<!-- Node4 -->
<g id="Node000004" class="node">
<title>Node4</title>
<g id="a_Node000004"><a xlink:title=" ">
<polygon fill="#e0e0e0" stroke="#999999" points="341,-259 198,-259 198,-236 341,-236 341,-259"/>
<text text-anchor="middle" x="269.5" y="-243.8" font-family="Arial" font-size="14.00">freertos/FreeRTOS.h</text>
</a>
</g>
</g>
<!-- Node1&#45;&gt;Node4 -->
<g id="edge3_Node000001_Node000004" class="edge">
<title>Node1&#45;&gt;Node4</title>
<g id="a_edge3_Node000001_Node000004"><a xlink:title=" ">
<path fill="none" stroke="#63b8ff" d="M1020.79,-368.08C860.69,-360.9 545.51,-343.95 437.5,-318 386.52,-305.75 330.97,-280.14 298.24,-263.66"/>
<polygon fill="#63b8ff" stroke="#63b8ff" points="299.74,-260.5 289.24,-259.07 296.56,-266.73 299.74,-260.5"/>
</a>
</g>
</g>
<!-- Node5 -->
<g id="Node000005" class="node">
<title>Node5</title>
<g id="a_Node000005"><a xlink:title=" ">
<polygon fill="#e0e0e0" stroke="#999999" points="1995,-318 1836,-318 1836,-295 1995,-295 1995,-318"/>
<text text-anchor="middle" x="1915.5" y="-302.8" font-family="Arial" font-size="14.00">freertos/event_groups.h</text>
</a>
</g>
</g>
<!-- Node1&#45;&gt;Node5 -->
<g id="edge4_Node000001_Node000005" class="edge">
<title>Node1&#45;&gt;Node5</title>
<g id="a_edge4_Node000001_Node000005"><a xlink:title=" ">
<path fill="none" stroke="#63b8ff" d="M1212.23,-365.78C1348.07,-356.7 1604.51,-338.64 1822.5,-318 1823.59,-317.9 1824.69,-317.79 1825.8,-317.68"/>
<polygon fill="#63b8ff" stroke="#63b8ff" points="1826.27,-321.16 1835.87,-316.68 1825.57,-314.19 1826.27,-321.16"/>
</a>
</g>
</g>
<!-- Node6 -->
<g id="Node000006" class="node">
<title>Node6</title>
<g id="a_Node000006"><a xlink:title=" ">
<polygon fill="#e0e0e0" stroke="#999999" points="461.5,-259 359.5,-259 359.5,-236 461.5,-236 461.5,-259"/>
<text text-anchor="middle" x="410.5" y="-243.8" font-family="Arial" font-size="14.00">freertos/task.h</text>
</a>
</g>
</g>
<!-- Node1&#45;&gt;Node6 -->
<g id="edge5_Node000001_Node000006" class="edge">
<title>Node1&#45;&gt;Node6</title>
<g id="a_edge5_Node000001_Node000006"><a xlink:title=" ">
<path fill="none" stroke="#63b8ff" d="M1020.81,-368.15C852.16,-360.76 515.24,-343.06 467.5,-318 446.48,-306.96 430.31,-284.5 420.65,-268.09"/>
<polygon fill="#63b8ff" stroke="#63b8ff" points="423.66,-266.29 415.73,-259.26 417.54,-269.69 423.66,-266.29"/>
</a>
</g>
</g>
<!-- Node7 -->
<g id="Node000007" class="node">
<title>Node7</title>
<g id="a_Node000007"><a xlink:href="TestFramework_8h.html" target="_top" xlink:title="Shared testing framework for ESP32&#45;C6 comprehensive test suites.">
<polygon fill="white" stroke="#666666" points="598,-318 477,-318 477,-295 598,-295 598,-318"/>
<text text-anchor="middle" x="537.5" y="-302.8" font-family="Arial" font-size="14.00">TestFramework.h</text>
</a>
</g>
</g>
<!-- Node1&#45;&gt;Node7 -->
<g id="edge6_Node000001_Node000007" class="edge">
<title>Node1&#45;&gt;Node7</title>
<g id="a_edge6_Node000001_Node000007"><a xlink:title=" ">
<path fill="none" stroke="#63b8ff" d="M1020.89,-361.35C904.79,-348.42 711.69,-326.9 608.18,-315.37"/>
<polygon fill="#63b8ff" stroke="#63b8ff" points="608.47,-311.88 598.14,-314.26 607.69,-318.84 608.47,-311.88"/>
</a>
</g>
</g>
<!-- Node21 -->
<g id="Node000021" class="node">
<title>Node21</title>
<g id="a_Node000021"><a xlink:title=" ">
<polygon fill="#e0e0e0" stroke="#999999" points="1641,-82 1584,-82 1584,-59 1641,-59 1641,-82"/>
<text text-anchor="middle" x="1612.5" y="-66.8" font-family="Arial" font-size="14.00">atomic</text>
</a>
</g>
</g>
<!-- Node1&#45;&gt;Node21 -->
<g id="edge54_Node000001_Node000021" class="edge">
<title>Node1&#45;&gt;Node21</title>
<g id="a_edge54_Node000001_Node000021"><a xlink:title=" ">
<path fill="none" stroke="#63b8ff" d="M1212.36,-364.71C1402.34,-348.98 1808.5,-308.34 1808.5,-248.5 1808.5,-248.5 1808.5,-248.5 1808.5,-187.5 1808.5,-115.1 1708.23,-86.92 1651.13,-76.75"/>
<polygon fill="#63b8ff" stroke="#63b8ff" points="1651.44,-73.25 1641,-75.05 1650.28,-80.16 1651.44,-73.25"/>
</a>
</g>
</g>
<!-- Node23 -->
<g id="Node000023" class="node">
<title>Node23</title>
<g id="a_Node000023"><a xlink:href="BaseCan_8h.html" target="_top" xlink:title="Abstract base class for CAN bus implementations in the HardFOC system.">
<polygon fill="white" stroke="#666666" points="1216.5,-141 1100.5,-141 1100.5,-118 1216.5,-118 1216.5,-141"/>
<text text-anchor="middle" x="1158.5" y="-125.8" font-family="Arial" font-size="14.00">base/BaseCan.h</text>
</a>
</g>
</g>
<!-- Node1&#45;&gt;Node23 -->
<g id="edge33_Node000001_Node000023" class="edge">
<title>Node1&#45;&gt;Node23</title>
<g id="a_edge33_Node000001_Node000023"><a xlink:title=" ">
<path fill="none" stroke="#63b8ff" d="M1119.66,-353.85C1127.31,-309.87 1146.79,-197.8 1154.89,-151.26"/>
<polygon fill="#63b8ff" stroke="#63b8ff" points="1158.38,-151.61 1156.65,-141.16 1151.48,-150.41 1158.38,-151.61"/>
</a>
</g>
</g>
<!-- Node24 -->
<g id="Node000024" class="node">
<title>Node24</title>
<g id="a_Node000024"><a xlink:href="EspCan_8h.html" target="_top" xlink:title="ESP32 CAN (TWAI) implementation for the HardFOC system &#45; ESP&#45;IDF v5.5 Compatible.">
<polygon fill="white" stroke="#666666" points="1577.5,-259 1431.5,-259 1431.5,-236 1577.5,-236 1577.5,-259"/>
<text text-anchor="middle" x="1504.5" y="-243.8" font-family="Arial" font-size="14.00">mcu/esp32/EspCan.h</text>
</a>
</g>
</g>
<!-- Node1&#45;&gt;Node24 -->
<g id="edge38_Node000001_Node000024" class="edge">
<title>Node1&#45;&gt;Node24</title>
<g id="a_edge38_Node000001_Node000024"><a xlink:title=" ">
<path fill="none" stroke="#63b8ff" d="M1173.33,-353.91C1251.68,-328.97 1391.12,-284.59 1461.43,-262.21"/>
<polygon fill="#63b8ff" stroke="#63b8ff" points="1462.82,-265.44 1471.29,-259.07 1460.7,-258.77 1462.82,-265.44"/>
</a>
</g>
</g>
<!-- Node29 -->
<g id="Node000029" class="node">
<title>Node29</title>
<g id="a_Node000029"><a xlink:title=" ">
<polygon fill="#e0e0e0" stroke="#999999" points="1780,-200 1713,-200 1713,-177 1780,-177 1780,-200"/>
<text text-anchor="middle" x="1746.5" y="-184.8" font-family="Arial" font-size="14.00">memory</text>
</a>
</g>
</g>
<!-- Node1&#45;&gt;Node29 -->
<g id="edge55_Node000001_Node000029" class="edge">
<title>Node1&#45;&gt;Node29</title>
<g id="a_edge55_Node000001_Node000029"><a xlink:title=" ">
<path fill="none" stroke="#63b8ff" d="M1212.39,-354.04C1308.35,-334.88 1459.56,-301.47 1586.5,-259 1632.96,-243.46 1684.59,-219.81 1716.31,-204.5"/>
<polygon fill="#63b8ff" stroke="#63b8ff" points="1718.02,-207.56 1725.48,-200.04 1714.96,-201.26 1718.02,-207.56"/>
</a>
</g>
</g>
<!-- Node30 -->
<g id="Node000030" class="node">
<title>Node30</title>
<g id="a_Node000030"><a xlink:title=" ">
<polygon fill="#e0e0e0" stroke="#999999" points="2066,-318 2013,-318 2013,-295 2066,-295 2066,-318"/>
<text text-anchor="middle" x="2039.5" y="-302.8" font-family="Arial" font-size="14.00">vector</text>
</a>
</g>
</g>
<!-- Node1&#45;&gt;Node30 -->
<g id="edge56_Node000001_Node000030" class="edge">
<title>Node1&#45;&gt;Node30</title>
<g id="a_edge56_Node000001_Node000030"><a xlink:title=" ">
<path fill="none" stroke="#63b8ff" d="M1212.02,-368.98C1405,-362.42 1836.45,-345.39 2002.8,-317.91"/>
<polygon fill="#63b8ff" stroke="#63b8ff" points="2003.64,-321.32 2012.9,-316.17 2002.45,-314.42 2003.64,-321.32"/>
</a>
</g>
</g>
<!-- Node7&#45;&gt;Node2 -->
<g id="edge7_Node000007_Node000002" class="edge">
<title>Node7&#45;&gt;Node2</title>
<g id="a_edge7_Node000007_Node000002"><a xlink:title=" ">
<path fill="none" stroke="#63b8ff" d="M476.97,-301.67C391.61,-295.74 230.87,-282.65 85.1,-259.11"/>
<polygon fill="#63b8ff" stroke="#63b8ff" points="85.52,-255.63 75.08,-257.47 84.39,-262.54 85.52,-255.63"/>
</a>
</g>
</g>
<!-- Node7&#45;&gt;Node3 -->
<g id="edge8_Node000007_Node000003" class="edge">
<title>Node7&#45;&gt;Node3</title>
<g id="a_edge8_Node000007_Node000003"><a xlink:title=" ">
<path fill="none" stroke="#63b8ff" d="M476.79,-298.66C409.13,-290.75 296.27,-276.73 190.08,-259.19"/>
<polygon fill="#63b8ff" stroke="#63b8ff" points="190.59,-255.73 180.15,-257.53 189.44,-262.63 190.59,-255.73"/>
</a>
</g>
</g>
<!-- Node7&#45;&gt;Node4 -->
<g id="edge9_Node000007_Node000004" class="edge">
<title>Node7&#45;&gt;Node4</title>
<g id="a_edge9_Node000007_Node000004"><a xlink:title=" ">
<path fill="none" stroke="#63b8ff" d="M488.03,-294.98C443.13,-285.43 376.83,-271.33 329.04,-261.16"/>
<polygon fill="#63b8ff" stroke="#63b8ff" points="329.64,-257.71 319.13,-259.06 328.19,-264.56 329.64,-257.71"/>
</a>
</g>
</g>
<!-- Node7&#45;&gt;Node6 -->
<g id="edge12_Node000007_Node000006" class="edge">
<title>Node7&#45;&gt;Node6</title>
<g id="a_edge12_Node000007_Node000006"><a xlink:title=" ">
<path fill="none" stroke="#63b8ff" d="M513.91,-294.91C494.04,-285.99 465.4,-273.14 443.3,-263.22"/>
<polygon fill="#63b8ff" stroke="#63b8ff" points="444.52,-259.93 433.96,-259.03 441.65,-266.32 444.52,-259.93"/>
</a>
</g>
</g>
<!-- Node8 -->
<g id="Node000008" class="node">
<title>Node8</title>
<g id="a_Node000008"><a xlink:title=" ">
<polygon fill="#e0e0e0" stroke="#999999" points="595,-259 480,-259 480,-236 595,-236 595,-259"/>
<text text-anchor="middle" x="537.5" y="-243.8" font-family="Arial" font-size="14.00">freertos/queue.h</text>
</a>
</g>
</g>
<!-- Node7&#45;&gt;Node8 -->
<g id="edge10_Node000007_Node000008" class="edge">
<title>Node7&#45;&gt;Node8</title>
<g id="a_edge10_Node000007_Node000008"><a xlink:title=" ">
<path fill="none" stroke="#63b8ff" d="M537.5,-294.78C537.5,-287.61 537.5,-277.95 537.5,-269.31"/>
<polygon fill="#63b8ff" stroke="#63b8ff" points="541,-269.17 537.5,-259.17 534,-269.17 541,-269.17"/>
</a>
</g>
</g>
<!-- Node9 -->
<g id="Node000009" class="node">
<title>Node9</title>
<g id="a_Node000009"><a xlink:title=" ">
<polygon fill="#e0e0e0" stroke="#999999" points="735.5,-259 613.5,-259 613.5,-236 735.5,-236 735.5,-259"/>
<text text-anchor="middle" x="674.5" y="-243.8" font-family="Arial" font-size="14.00">freertos/semphr.h</text>
</a>
</g>
</g>
<!-- Node7&#45;&gt;Node9 -->
<g id="edge11_Node000007_Node000009" class="edge">
<title>Node7&#45;&gt;Node9</title>
<g id="a_edge11_Node000007_Node000009"><a xlink:title=" ">
<path fill="none" stroke="#63b8ff" d="M562.95,-294.91C584.58,-285.91 615.83,-272.91 639.76,-262.95"/>
<polygon fill="#63b8ff" stroke="#63b8ff" points="641.3,-266.1 649.19,-259.03 638.61,-259.64 641.3,-266.1"/>
</a>
</g>
</g>
<!-- Node10 -->
<g id="Node000010" class="node">
<title>Node10</title>
<g id="a_Node000010"><a xlink:href="HardwareTypes_8h.html" target="_top" xlink:title="Platform&#45;agnostic hardware type definitions for the HardFOC system.">
<polygon fill="white" stroke="#666666" points="1217.5,-82 1095.5,-82 1095.5,-59 1217.5,-59 1217.5,-82"/>
<text text-anchor="middle" x="1156.5" y="-66.8" font-family="Arial" font-size="14.00">HardwareTypes.h</text>
</a>
</g>
</g>
<!-- Node7&#45;&gt;Node10 -->
<g id="edge13_Node000007_Node000010" class="edge">
<title>Node7&#45;&gt;Node10</title>
<g id="a_edge13_Node000007_Node000010"><a xlink:title=" ">
<path fill="none" stroke="#63b8ff" d="M598.06,-300.17C652.44,-293.99 726.4,-281.61 744.5,-259 750.89,-251.02 750.51,-244.27 744.5,-236 714,-194.05 664,-241.95 633.5,-200 627.49,-191.73 627.07,-184.95 633.5,-177 647.74,-159.39 945.56,-107.1 1085.29,-83.4"/>
<polygon fill="#63b8ff" stroke="#63b8ff" points="1086.2,-86.8 1095.47,-81.68 1085.03,-79.9 1086.2,-86.8"/>
</a>
</g>
</g>
<!-- Node13 -->
<g id="Node000013" class="node">
<title>Node13</title>
<g id="a_Node000013"><a xlink:href="EspGpio_8h.html" target="_top" xlink:title="Advanced MCU&#45;specific implementation of the unified BaseGpio class with ESP32C6/ESP&#45;IDF v5....">
<polygon fill="white" stroke="#666666" points="943,-259 792,-259 792,-236 943,-236 943,-259"/>
<text text-anchor="middle" x="867.5" y="-243.8" font-family="Arial" font-size="14.00">mcu/esp32/EspGpio.h</text>
</a>
</g>
</g>
<!-- Node7&#45;&gt;Node13 -->
<g id="edge16_Node000007_Node000013" class="edge">
<title>Node7&#45;&gt;Node13</title>
<g id="a_edge16_Node000007_Node000013"><a xlink:title=" ">
<path fill="none" stroke="#63b8ff" d="M598.03,-295.05C654.05,-285.37 737.37,-270.98 796.51,-260.76"/>
<polygon fill="#63b8ff" stroke="#63b8ff" points="797.26,-264.18 806.52,-259.03 796.07,-257.29 797.26,-264.18"/>
</a>
</g>
</g>
<!-- Node11 -->
<g id="Node000011" class="node">
<title>Node11</title>
<g id="a_Node000011"><a xlink:title=" ">
<polygon fill="#e0e0e0" stroke="#999999" points="1273.5,-23 1217.5,-23 1217.5,0 1273.5,0 1273.5,-23"/>
<text text-anchor="middle" x="1245.5" y="-7.8" font-family="Arial" font-size="14.00">cstdint</text>
</a>
</g>
</g>
<!-- Node10&#45;&gt;Node11 -->
<g id="edge14_Node000010_Node000011" class="edge">
<title>Node10&#45;&gt;Node11</title>
<g id="a_edge14_Node000010_Node000011"><a xlink:title=" ">
<path fill="none" stroke="#63b8ff" d="M1173.24,-58.78C1186.42,-50.34 1205,-38.44 1220.02,-28.82"/>
<polygon fill="#63b8ff" stroke="#63b8ff" points="1222.3,-31.51 1228.83,-23.17 1218.53,-25.62 1222.3,-31.51"/>
</a>
</g>
</g>
<!-- Node12 -->
<g id="Node000012" class="node">
<title>Node12</title>
<g id="a_Node000012"><a xlink:title=" ">
<polygon fill="#e0e0e0" stroke="#999999" points="1180.5,-23 1132.5,-23 1132.5,0 1180.5,0 1180.5,-23"/>
<text text-anchor="middle" x="1156.5" y="-7.8" font-family="Arial" font-size="14.00">limits</text>
</a>
</g>
</g>
<!-- Node10&#45;&gt;Node12 -->
<g id="edge15_Node000010_Node000012" class="edge">
<title>Node10&#45;&gt;Node12</title>
<g id="a_edge15_Node000010_Node000012"><a xlink:title=" ">
<path fill="none" stroke="#63b8ff" d="M1156.5,-58.78C1156.5,-51.61 1156.5,-41.95 1156.5,-33.31"/>
<polygon fill="#63b8ff" stroke="#63b8ff" points="1160,-33.17 1156.5,-23.17 1153,-33.17 1160,-33.17"/>
</a>
</g>
</g>
<!-- Node14 -->
<g id="Node000014" class="node">
<title>Node14</title>
<g id="a_Node000014"><a xlink:title=" ">
<polygon fill="#e0e0e0" stroke="#999999" points="1088,-200 997,-200 997,-177 1088,-177 1088,-200"/>
<text text-anchor="middle" x="1042.5" y="-184.8" font-family="Arial" font-size="14.00">driver/gpio.h</text>
</a>
</g>
</g>
<!-- Node13&#45;&gt;Node14 -->
<g id="edge17_Node000013_Node000014" class="edge">
<title>Node13&#45;&gt;Node14</title>
<g id="a_edge17_Node000013_Node000014"><a xlink:title=" ">
<path fill="none" stroke="#63b8ff" d="M900.01,-235.91C928.37,-226.67 969.7,-213.21 1000.55,-203.16"/>
<polygon fill="#63b8ff" stroke="#63b8ff" points="1001.74,-206.46 1010.17,-200.03 999.58,-199.8 1001.74,-206.46"/>
</a>
</g>
</g>
<!-- Node15 -->
<g id="Node000015" class="node">
<title>Node15</title>
<g id="a_Node000015"><a xlink:title=" ">
<polygon fill="#e0e0e0" stroke="#999999" points="718.5,-200 642.5,-200 642.5,-177 718.5,-177 718.5,-200"/>
<text text-anchor="middle" x="680.5" y="-184.8" font-family="Arial" font-size="14.00">esp_attr.h</text>
</a>
</g>
</g>
<!-- Node13&#45;&gt;Node15 -->
<g id="edge18_Node000013_Node000015" class="edge">
<title>Node13&#45;&gt;Node15</title>
<g id="a_edge18_Node000013_Node000015"><a xlink:title=" ">
<path fill="none" stroke="#63b8ff" d="M832.76,-235.91C802.33,-226.63 757.91,-213.1 724.9,-203.03"/>
<polygon fill="#63b8ff" stroke="#63b8ff" points="725.64,-199.6 715.05,-200.03 723.59,-206.29 725.64,-199.6"/>
</a>
</g>
</g>
<!-- Node16 -->
<g id="Node000016" class="node">
<title>Node16</title>
<g id="a_Node000016"><a xlink:href="BaseGpio_8h.html" target="_top" xlink:title="Unified GPIO base class for all digital GPIO implementations.">
<polygon fill="white" stroke="#666666" points="1006.5,-141 918.5,-141 918.5,-118 1006.5,-118 1006.5,-141"/>
<text text-anchor="middle" x="962.5" y="-125.8" font-family="Arial" font-size="14.00">BaseGpio.h</text>
</a>
</g>
</g>
<!-- Node13&#45;&gt;Node16 -->
<g id="edge19_Node000013_Node000016" class="edge">
<title>Node13&#45;&gt;Node16</title>
<g id="a_edge19_Node000013_Node000016"><a xlink:title=" ">
<path fill="none" stroke="#63b8ff" d="M857.19,-235.9C844.6,-221.62 826.48,-195.84 839.5,-177 855.08,-154.45 883.1,-142.82 908.47,-136.84"/>
<polygon fill="#63b8ff" stroke="#63b8ff" points="909.33,-140.23 918.39,-134.74 907.89,-133.38 909.33,-140.23"/>
</a>
</g>
</g>
<!-- Node18 -->
<g id="Node000018" class="node">
<title>Node18</title>
<g id="a_Node000018"><a xlink:href="EspTypes__GPIO_8h.html" target="_top" xlink:title="ESP32 GPIO type definitions for hardware abstraction.">
<polygon fill="white" stroke="#666666" points="978.5,-200 848.5,-200 848.5,-177 978.5,-177 978.5,-200"/>
<text text-anchor="middle" x="913.5" y="-184.8" font-family="Arial" font-size="14.00">EspTypes_GPIO.h</text>
</a>
</g>
</g>
<!-- Node13&#45;&gt;Node18 -->
<g id="edge23_Node000013_Node000018" class="edge">
<title>Node13&#45;&gt;Node18</title>
<g id="a_edge23_Node000013_Node000018"><a xlink:title=" ">
<path fill="none" stroke="#63b8ff" d="M876.15,-235.78C882.45,-227.98 891.13,-217.21 898.54,-208.03"/>
<polygon fill="#63b8ff" stroke="#63b8ff" points="901.33,-210.15 904.89,-200.17 895.88,-205.76 901.33,-210.15"/>
</a>
</g>
</g>
<!-- Node22 -->
<g id="Node000022" class="node">
<title>Node22</title>
<g id="a_Node000022"><a xlink:title=" ">
<polygon fill="#e0e0e0" stroke="#999999" points="792.5,-200 736.5,-200 736.5,-177 792.5,-177 792.5,-200"/>
<text text-anchor="middle" x="764.5" y="-184.8" font-family="Arial" font-size="14.00">stdio.h</text>
</a>
</g>
</g>
<!-- Node13&#45;&gt;Node22 -->
<g id="edge32_Node000013_Node000022" class="edge">
<title>Node13&#45;&gt;Node22</title>
<g id="a_edge32_Node000013_Node000022"><a xlink:title=" ">
<path fill="none" stroke="#63b8ff" d="M848.13,-235.78C832.59,-227.18 810.56,-214.99 793.01,-205.28"/>
<polygon fill="#63b8ff" stroke="#63b8ff" points="794.23,-201.95 783.79,-200.17 790.84,-208.08 794.23,-201.95"/>
</a>
</g>
</g>
<!-- Node16&#45;&gt;Node10 -->
<g id="edge20_Node000016_Node000010" class="edge">
<title>Node16&#45;&gt;Node10</title>
<g id="a_edge20_Node000016_Node000010"><a xlink:title=" ">
<path fill="none" stroke="#63b8ff" d="M998.54,-117.91C1030.25,-108.59 1076.59,-94.98 1110.88,-84.9"/>
<polygon fill="#63b8ff" stroke="#63b8ff" points="1112.05,-88.21 1120.66,-82.03 1110.08,-81.49 1112.05,-88.21"/>
</a>
</g>
</g>
<!-- Node16&#45;&gt;Node11 -->
<g id="edge21_Node000016_Node000011" class="edge">
<title>Node16&#45;&gt;Node11</title>
<g id="a_edge21_Node000016_Node000011"><a xlink:title=" ">
<path fill="none" stroke="#63b8ff" d="M962.45,-118C963,-102.61 966.43,-74.13 983.5,-59 1053.06,2.65 1098.04,-39.56 1189.5,-23 1195.3,-21.95 1201.43,-20.82 1207.43,-19.7"/>
<polygon fill="#63b8ff" stroke="#63b8ff" points="1208.12,-23.13 1217.31,-17.86 1206.84,-16.25 1208.12,-23.13"/>
</a>
</g>
</g>
<!-- Node17 -->
<g id="Node000017" class="node">
<title>Node17</title>
<g id="a_Node000017"><a xlink:title=" ">
<polygon fill="#e0e0e0" stroke="#999999" points="1076.5,-82 992.5,-82 992.5,-59 1076.5,-59 1076.5,-82"/>
<text text-anchor="middle" x="1034.5" y="-66.8" font-family="Arial" font-size="14.00">string_view</text>
</a>
</g>
</g>
<!-- Node16&#45;&gt;Node17 -->
<g id="edge22_Node000016_Node000017" class="edge">
<title>Node16&#45;&gt;Node17</title>
<g id="a_edge22_Node000016_Node000017"><a xlink:title=" ">
<path fill="none" stroke="#63b8ff" d="M976.04,-117.78C986.4,-109.58 1000.89,-98.11 1012.85,-88.64"/>
<polygon fill="#63b8ff" stroke="#63b8ff" points="1015.35,-91.12 1021.02,-82.17 1011.01,-85.64 1015.35,-91.12"/>
</a>
</g>
</g>
<!-- Node18&#45;&gt;Node10 -->
<g id="edge30_Node000018_Node000010" class="edge">
<title>Node18&#45;&gt;Node10</title>
<g id="a_edge30_Node000018_Node000010"><a xlink:title=" ">
<path fill="none" stroke="#63b8ff" d="M938.02,-176.84C958.81,-167.69 989.33,-153.95 1015.5,-141 1034.93,-131.39 1039.15,-127.76 1058.5,-118 1080.22,-107.05 1104.97,-95.31 1124.17,-86.36"/>
<polygon fill="#63b8ff" stroke="#63b8ff" points="1125.78,-89.47 1133.38,-82.09 1122.83,-83.12 1125.78,-89.47"/>
</a>
</g>
</g>
<!-- Node18&#45;&gt;Node16 -->
<g id="edge24_Node000018_Node000016" class="edge">
<title>Node18&#45;&gt;Node16</title>
<g id="a_edge24_Node000018_Node000016"><a xlink:title=" ">
<path fill="none" stroke="#63b8ff" d="M922.72,-176.78C929.42,-168.98 938.68,-158.21 946.57,-149.03"/>
<polygon fill="#63b8ff" stroke="#63b8ff" points="949.46,-151.04 953.32,-141.17 944.15,-146.47 949.46,-151.04"/>
</a>
</g>
</g>
<!-- Node19 -->
<g id="Node000019" class="node">
<title>Node19</title>
<g id="a_Node000019"><a xlink:href="EspTypes__Base_8h.html" target="_top" xlink:title="ESP32 base type definitions for hardware abstraction.">
<polygon fill="white" stroke="#666666" points="1437,-141 1312,-141 1312,-118 1437,-118 1437,-141"/>
<text text-anchor="middle" x="1374.5" y="-125.8" font-family="Arial" font-size="14.00">EspTypes_Base.h</text>
</a>
</g>
</g>
<!-- Node18&#45;&gt;Node19 -->
<g id="edge25_Node000018_Node000019" class="edge">
<title>Node18&#45;&gt;Node19</title>
<g id="a_edge25_Node000018_Node000019"><a xlink:title=" ">
<path fill="none" stroke="#63b8ff" d="M978.86,-178.15C981.78,-177.76 984.67,-177.37 987.5,-177 1096.82,-162.68 1223.76,-147.75 1301.59,-138.79"/>
<polygon fill="#63b8ff" stroke="#63b8ff" points="1302.24,-142.24 1311.78,-137.62 1301.44,-135.28 1302.24,-142.24"/>
</a>
</g>
</g>
<!-- Node20 -->
<g id="Node000020" class="node">
<title>Node20</title>
<g id="a_Node000020"><a xlink:href="McuSelect_8h.html" target="_top" xlink:title="Centralized MCU platform selection and configuration header.">
<polygon fill="white" stroke="#666666" points="1527.5,-82 1385.5,-82 1385.5,-59 1527.5,-59 1527.5,-82"/>
<text text-anchor="middle" x="1456.5" y="-66.8" font-family="Arial" font-size="14.00">../../utils/McuSelect.h</text>
</a>
</g>
</g>
<!-- Node18&#45;&gt;Node20 -->
<g id="edge31_Node000018_Node000020" class="edge">
<title>Node18&#45;&gt;Node20</title>
<g id="a_edge31_Node000018_Node000020"><a xlink:title=" ">
<path fill="none" stroke="#63b8ff" d="M951.46,-176.91C979.62,-168.53 1018.65,-155.8 1051.5,-141 1070.2,-132.57 1072.06,-124.53 1091.5,-118 1185.48,-86.41 1299.66,-76.03 1375.01,-72.76"/>
<polygon fill="#63b8ff" stroke="#63b8ff" points="1375.52,-76.24 1385.37,-72.34 1375.24,-69.25 1375.52,-76.24"/>
</a>
</g>
</g>
<!-- Node19&#45;&gt;Node10 -->
<g id="edge27_Node000019_Node000010" class="edge">
<title>Node19&#45;&gt;Node10</title>
<g id="a_edge27_Node000019_Node000010"><a xlink:title=" ">
<path fill="none" stroke="#63b8ff" d="M1334.26,-117.98C1298.35,-108.59 1245.6,-94.8 1206.89,-84.68"/>
<polygon fill="#63b8ff" stroke="#63b8ff" points="1207.43,-81.2 1196.87,-82.06 1205.66,-87.97 1207.43,-81.2"/>
</a>
</g>
</g>
<!-- Node19&#45;&gt;Node11 -->
<g id="edge29_Node000019_Node000011" class="edge">
<title>Node19&#45;&gt;Node11</title>
<g id="a_edge29_Node000019_Node000011"><a xlink:title=" ">
<path fill="none" stroke="#63b8ff" d="M1362.6,-117.79C1340.32,-97.77 1292.17,-54.46 1265.06,-30.09"/>
<polygon fill="#63b8ff" stroke="#63b8ff" points="1267.15,-27.26 1257.38,-23.18 1262.47,-32.47 1267.15,-27.26"/>
</a>
</g>
</g>
<!-- Node19&#45;&gt;Node20 -->
<g id="edge26_Node000019_Node000020" class="edge">
<title>Node19&#45;&gt;Node20</title>
<g id="a_edge26_Node000019_Node000020"><a xlink:title=" ">
<path fill="none" stroke="#63b8ff" d="M1389.92,-117.78C1401.95,-109.42 1418.86,-97.66 1432.63,-88.09"/>
<polygon fill="#63b8ff" stroke="#63b8ff" points="1434.93,-90.75 1441.15,-82.17 1430.94,-85.01 1434.93,-90.75"/>
</a>
</g>
</g>
<!-- Node19&#45;&gt;Node21 -->
<g id="edge28_Node000019_Node000021" class="edge">
<title>Node19&#45;&gt;Node21</title>
<g id="a_edge28_Node000019_Node000021"><a xlink:title=" ">
<path fill="none" stroke="#63b8ff" d="M1418.43,-117.98C1462.98,-107.31 1531.24,-90.96 1573.81,-80.77"/>
<polygon fill="#63b8ff" stroke="#63b8ff" points="1574.87,-84.11 1583.78,-78.38 1573.24,-77.3 1574.87,-84.11"/>
</a>
</g>
</g>
<!-- Node23&#45;&gt;Node10 -->
<g id="edge34_Node000023_Node000010" class="edge">
<title>Node23&#45;&gt;Node10</title>
<g id="a_edge34_Node000023_Node000010"><a xlink:title=" ">
<path fill="none" stroke="#63b8ff" d="M1158.12,-117.78C1157.87,-110.61 1157.53,-100.95 1157.23,-92.31"/>
<polygon fill="#63b8ff" stroke="#63b8ff" points="1160.72,-92.04 1156.87,-82.17 1153.73,-92.29 1160.72,-92.04"/>
</a>
</g>
</g>
<!-- Node23&#45;&gt;Node11 -->
<g id="edge36_Node000023_Node000011" class="edge">
<title>Node23&#45;&gt;Node11</title>
<g id="a_edge36_Node000023_Node000011"><a xlink:title=" ">
<path fill="none" stroke="#63b8ff" d="M1181.88,-117.87C1196.73,-109.98 1215.22,-97.84 1226.5,-82 1236.68,-67.71 1241.41,-48.22 1243.6,-33.51"/>
<polygon fill="#63b8ff" stroke="#63b8ff" points="1247.1,-33.72 1244.84,-23.37 1240.15,-32.87 1247.1,-33.72"/>
</a>
</g>
</g>
<!-- Node23&#45;&gt;Node17 -->
<g id="edge37_Node000023_Node000017" class="edge">
<title>Node23&#45;&gt;Node17</title>
<g id="a_edge37_Node000023_Node000017"><a xlink:title=" ">
<path fill="none" stroke="#63b8ff" d="M1135.47,-117.91C1116.07,-108.99 1088.1,-96.14 1066.52,-86.22"/>
<polygon fill="#63b8ff" stroke="#63b8ff" points="1067.96,-83.03 1057.41,-82.03 1065.03,-89.39 1067.96,-83.03"/>
</a>
</g>
</g>
<!-- Node23&#45;&gt;Node21 -->
<g id="edge35_Node000023_Node000021" class="edge">
<title>Node23&#45;&gt;Node21</title>
<g id="a_edge35_Node000023_Node000021"><a xlink:title=" ">
<path fill="none" stroke="#63b8ff" d="M1216.81,-121.6C1291.09,-112.75 1423.4,-96.77 1536.5,-82 1548.55,-80.43 1561.67,-78.64 1573.56,-76.99"/>
<polygon fill="#63b8ff" stroke="#63b8ff" points="1574.22,-80.44 1583.64,-75.59 1573.26,-73.5 1574.22,-80.44"/>
</a>
</g>
</g>
<!-- Node24&#45;&gt;Node20 -->
<g id="edge39_Node000024_Node000020" class="edge">
<title>Node24&#45;&gt;Node20</title>
<g id="a_edge39_Node000024_Node000020"><a xlink:title=" ">
<path fill="none" stroke="#63b8ff" d="M1536.69,-235.92C1566.19,-224.3 1603.21,-203.69 1588.5,-177 1574.04,-150.76 1555.26,-159.26 1531.5,-141 1510.6,-124.93 1488.71,-104.12 1474.01,-89.47"/>
<polygon fill="#63b8ff" stroke="#63b8ff" points="1476.17,-86.68 1466.64,-82.04 1471.2,-91.61 1476.17,-86.68"/>
</a>
</g>
</g>
<!-- Node24&#45;&gt;Node21 -->
<g id="edge52_Node000024_Node000021" class="edge">
<title>Node24&#45;&gt;Node21</title>
<g id="a_edge52_Node000024_Node000021"><a xlink:title=" ">
<path fill="none" stroke="#63b8ff" d="M1568.28,-235.92C1592.94,-229.13 1619.89,-218.04 1639.5,-200 1667.64,-174.12 1681.28,-152.83 1665.5,-118 1660.02,-105.89 1649.65,-95.69 1639.52,-87.95"/>
<polygon fill="#63b8ff" stroke="#63b8ff" points="1641.38,-84.97 1631.19,-82.05 1637.33,-90.69 1641.38,-84.97"/>
</a>
</g>
</g>
<!-- Node24&#45;&gt;Node23 -->
<g id="edge42_Node000024_Node000023" class="edge">
<title>Node24&#45;&gt;Node23</title>
<g id="a_edge42_Node000024_Node000023"><a xlink:title=" ">
<path fill="none" stroke="#63b8ff" d="M1431.28,-245.7C1345.32,-243.18 1209.84,-233.78 1173.5,-200 1160.4,-187.83 1157.33,-167.18 1157.12,-151.55"/>
<polygon fill="#63b8ff" stroke="#63b8ff" points="1160.63,-151.32 1157.38,-141.24 1153.63,-151.15 1160.63,-151.32"/>
</a>
</g>
</g>
<!-- Node25 -->
<g id="Node000025" class="node">
<title>Node25</title>
<g id="a_Node000025"><a xlink:title=" ">
<polygon fill="#e0e0e0" stroke="#999999" points="1264,-200 1183,-200 1183,-177 1264,-177 1264,-200"/>
<text text-anchor="middle" x="1223.5" y="-184.8" font-family="Arial" font-size="14.00">esp_twai.h</text>
</a>
</g>
</g>
<!-- Node24&#45;&gt;Node25 -->
<g id="edge40_Node000024_Node000025" class="edge">
<title>Node24&#45;&gt;Node25</title>
<g id="a_edge40_Node000024_Node000025"><a xlink:title=" ">
<path fill="none" stroke="#63b8ff" d="M1451.26,-235.91C1406.62,-227.01 1340.92,-213.83 1274.03,-200.1"/>
<polygon fill="#63b8ff" stroke="#63b8ff" points="1274.65,-196.65 1264.15,-198.07 1273.24,-203.51 1274.65,-196.65"/>
</a>
</g>
</g>
<!-- Node26 -->
<g id="Node000026" class="node">
<title>Node26</title>
<g id="a_Node000026"><a xlink:title=" ">
<polygon fill="#e0e0e0" stroke="#999999" points="1410.5,-200 1282.5,-200 1282.5,-177 1410.5,-177 1410.5,-200"/>
<text text-anchor="middle" x="1346.5" y="-184.8" font-family="Arial" font-size="14.00">esp_twai_onchip.h</text>
</a>
</g>
</g>
<!-- Node24&#45;&gt;Node26 -->
<g id="edge41_Node000024_Node000026" class="edge">
<title>Node24&#45;&gt;Node26</title>
<g id="a_edge41_Node000024_Node000026"><a xlink:title=" ">
<path fill="none" stroke="#63b8ff" d="M1475.15,-235.91C1449.77,-226.75 1412.88,-213.45 1385.1,-203.43"/>
<polygon fill="#63b8ff" stroke="#63b8ff" points="1386.29,-200.13 1375.69,-200.03 1383.91,-206.72 1386.29,-200.13"/>
</a>
</g>
</g>
<!-- Node27 -->
<g id="Node000027" class="node">
<title>Node27</title>
<g id="a_Node000027"><a xlink:href="PlatformMutex_8h.html" target="_top" xlink:title="Cross&#45;platform RTOS mutex and synchronization primitives.">
<polygon fill="white" stroke="#666666" points="1656.5,-141 1540.5,-141 1540.5,-118 1656.5,-118 1656.5,-141"/>
<text text-anchor="middle" x="1598.5" y="-125.8" font-family="Arial" font-size="14.00">PlatformMutex.h</text>
</a>
</g>
</g>
<!-- Node24&#45;&gt;Node27 -->
<g id="edge43_Node000024_Node000027" class="edge">
<title>Node24&#45;&gt;Node27</title>
<g id="a_edge43_Node000024_Node000027"><a xlink:title=" ">
<path fill="none" stroke="#63b8ff" d="M1569.06,-235.92C1589.6,-229.17 1610.17,-218.11 1622.5,-200 1632.97,-184.62 1623.74,-164.23 1613.85,-149.51"/>
<polygon fill="#63b8ff" stroke="#63b8ff" points="1616.49,-147.2 1607.77,-141.18 1610.83,-151.32 1616.49,-147.2"/>
</a>
</g>
</g>
<!-- Node28 -->
<g id="Node000028" class="node">
<title>Node28</title>
<g id="a_Node000028"><a xlink:href="EspTypes__CAN_8h.html" target="_top" xlink:title="ESP32 CAN type definitions for hardware abstraction.">
<polygon fill="white" stroke="#666666" points="1580,-200 1429,-200 1429,-177 1580,-177 1580,-200"/>
<text text-anchor="middle" x="1504.5" y="-184.8" font-family="Arial" font-size="14.00">utils/EspTypes_CAN.h</text>
</a>
</g>
</g>
<!-- Node24&#45;&gt;Node28 -->
<g id="edge47_Node000024_Node000028" class="edge">
<title>Node24&#45;&gt;Node28</title>
<g id="a_edge47_Node000024_Node000028"><a xlink:title=" ">
<path fill="none" stroke="#63b8ff" d="M1504.5,-235.78C1504.5,-228.61 1504.5,-218.95 1504.5,-210.31"/>
<polygon fill="#63b8ff" stroke="#63b8ff" points="1508,-210.17 1504.5,-200.17 1501,-210.17 1508,-210.17"/>
</a>
</g>
</g>
<!-- Node24&#45;&gt;Node29 -->
<g id="edge53_Node000024_Node000029" class="edge">
<title>Node24&#45;&gt;Node29</title>
<g id="a_edge53_Node000024_Node000029"><a xlink:title=" ">
<path fill="none" stroke="#63b8ff" d="M1549.17,-235.98C1593.04,-225.65 1659.54,-209.98 1703.01,-199.74"/>
<polygon fill="#63b8ff" stroke="#63b8ff" points="1704.06,-203.09 1712.99,-197.39 1702.46,-196.28 1704.06,-203.09"/>
</a>
</g>
</g>
<!-- Node27&#45;&gt;Node11 -->
<g id="edge46_Node000027_Node000011" class="edge">
<title>Node27&#45;&gt;Node11</title>
<g id="a_edge46_Node000027_Node000011"><a xlink:title=" ">
<path fill="none" stroke="#63b8ff" d="M1592.43,-117.97C1582.76,-102.29 1562.32,-73.12 1536.5,-59 1493.59,-35.54 1352.47,-21.18 1283.76,-15.42"/>
<polygon fill="#63b8ff" stroke="#63b8ff" points="1284.03,-11.93 1273.78,-14.6 1283.46,-18.91 1284.03,-11.93"/>
</a>
</g>
</g>
<!-- Node27&#45;&gt;Node20 -->
<g id="edge44_Node000027_Node000020" class="edge">
<title>Node27&#45;&gt;Node20</title>
<g id="a_edge44_Node000027_Node000020"><a xlink:title=" ">
<path fill="none" stroke="#63b8ff" d="M1572.12,-117.91C1549.61,-108.87 1517.02,-95.79 1492.18,-85.82"/>
<polygon fill="#63b8ff" stroke="#63b8ff" points="1493.32,-82.51 1482.74,-82.03 1490.71,-89 1493.32,-82.51"/>
</a>
</g>
</g>
<!-- Node27&#45;&gt;Node21 -->
<g id="edge45_Node000027_Node000021" class="edge">
<title>Node27&#45;&gt;Node21</title>
<g id="a_edge45_Node000027_Node000021"><a xlink:title=" ">
<path fill="none" stroke="#63b8ff" d="M1601.13,-117.78C1602.91,-110.53 1605.32,-100.74 1607.46,-92.02"/>
<polygon fill="#63b8ff" stroke="#63b8ff" points="1610.89,-92.72 1609.88,-82.17 1604.09,-91.05 1610.89,-92.72"/>
</a>
</g>
</g>
<!-- Node28&#45;&gt;Node10 -->
<g id="edge50_Node000028_Node000010" class="edge">
<title>Node28&#45;&gt;Node10</title>
<g id="a_edge50_Node000028_Node000010"><a xlink:title=" ">
<path fill="none" stroke="#63b8ff" d="M1442.97,-176.96C1402.44,-169.13 1348.55,-157.04 1302.5,-141 1259.87,-126.15 1213.18,-102.53 1184.36,-87.02"/>
<polygon fill="#63b8ff" stroke="#63b8ff" points="1185.76,-83.79 1175.3,-82.09 1182.41,-89.94 1185.76,-83.79"/>
</a>
</g>
</g>
<!-- Node28&#45;&gt;Node19 -->
<g id="edge49_Node000028_Node000019" class="edge">
<title>Node28&#45;&gt;Node19</title>
<g id="a_edge49_Node000028_Node000019"><a xlink:title=" ">
<path fill="none" stroke="#63b8ff" d="M1480.35,-176.91C1459.92,-167.95 1430.43,-155.02 1407.77,-145.09"/>
<polygon fill="#63b8ff" stroke="#63b8ff" points="1409.08,-141.84 1398.52,-141.03 1406.27,-148.25 1409.08,-141.84"/>
</a>
</g>
</g>
<!-- Node28&#45;&gt;Node20 -->
<g id="edge51_Node000028_Node000020" class="edge">
<title>Node28&#45;&gt;Node20</title>
<g id="a_edge51_Node000028_Node000020"><a xlink:title=" ">
<path fill="none" stroke="#63b8ff" d="M1500.07,-176.79C1492.07,-157.46 1475.09,-116.42 1464.85,-91.68"/>
<polygon fill="#63b8ff" stroke="#63b8ff" points="1467.98,-90.08 1460.92,-82.18 1461.51,-92.76 1467.98,-90.08"/>
</a>
</g>
</g>
<!-- Node28&#45;&gt;Node23 -->
<g id="edge48_Node000028_Node000023" class="edge">
<title>Node28&#45;&gt;Node23</title>
<g id="a_edge48_Node000028_Node000023"><a xlink:title=" ">
<path fill="none" stroke="#63b8ff" d="M1440.64,-176.98C1379.87,-166.97 1288.75,-151.96 1226.62,-141.72"/>
<polygon fill="#63b8ff" stroke="#63b8ff" points="1226.96,-138.23 1216.53,-140.06 1225.82,-145.14 1226.96,-138.23"/>
</a>
</g>
</g>
</g>
</svg>

<g id="navigator" transform="translate(0 0)" fill="#404254">
  <rect fill="#f2f5e9" fill-opacity="0.5" stroke="#606060" stroke-width=".5" x="0" y="0" width="60" height="60"/>
  <use id="zoomplus" xlink:href="#zoomPlus" x="17" y="9" onmousedown="handleZoom(evt,'in')"/>
  <use id="zoomminus" xlink:href="#zoomMin" x="42" y="9" onmousedown="handleZoom(evt,'out')"/>
  <use id="reset" xlink:href="#resetDef" x="30" y="36" onmousedown="handleReset()"/>
   <use id="arrowup" xlink:href="#arrowUp" x="0" y="0" onmousedown="handlePan(0,-1)"/>
  <use id="arrowright" xlink:href="#arrowRight" x="0" y="0" onmousedown="handlePan(1,0)"/>
  <use id="arrowdown" xlink:href="#arrowDown" x="0" y="0" onmousedown="handlePan(0,1)"/>
  <use id="arrowleft" xlink:href="#arrowLeft" x="0" y="0" onmousedown="handlePan(-1,0)"/>
</g>
<svg viewBox="0 0 15 15" width="100%" height="30px" preserveAspectRatio="xMaxYMin meet">
 <g id="arrow_out" transform="scale(0.3 0.3)">
  <a xlink:href="CanComprehensiveTest_8cpp__incl_org.svg" target="_base">
   <rect id="button" ry="5" rx="5" y="6" x="6" height="38" width="38"
        fill="#f2f5e9" fill-opacity="0.5" stroke="#606060" stroke-width="1.0"/>
   <path id="arrow"
     d="M 11.500037,31.436501 C 11.940474,20.09759 22.043105,11.32322 32.158766,21.979434 L 37.068811,17.246167 C 37.068811,17.246167 37.088388,32 37.088388,32 L 22.160133,31.978069 C 22.160133,31.978069 26.997745,27.140456 26.997745,27.140456 C 18.528582,18.264221 13.291696,25.230495 11.500037,31.436501 z"
     style="fill:#404040;"/>
  </a>
 </g>
</svg>

<style type='text/css'>
<![CDATA[
[data-mouse-over-selected='false'] { opacity: 0.7; }
[data-mouse-over-selected='true']  { opacity: 1.0; }
]]>
</style>
<script type="application/ecmascript"><![CDATA[
document.addEventListener('DOMContentLoaded', (event) => {
  highlightEdges();
  highlightAdjacentNodes();
});
]]></script>
</svg>
