<?xml version="1.0" encoding="UTF-8" standalone="no"?>
<!DOCTYPE svg PUBLIC "-//W3C//DTD SVG 1.1//EN"
 "http://www.w3.org/Graphics/SVG/1.1/DTD/svg11.dtd">
<!-- Generated by graphviz version 2.43.0 (0)
 -->
<!-- Title: examples/esp32/main/CanComprehensiveTest.cpp Pages: 1 -->
<!--zoomable 400 -->

<svg id="main" version="1.1" xmlns="http://www.w3.org/2000/svg" xmlns:xlink="http://www.w3.org/1999/xlink" xml:space="preserve" onload="init(evt)">
<style type="text/css"><![CDATA[
.node, .edge {opacity: 0.7;}
.node.selected, .edge.selected {opacity: 1;}
.edge:hover path { stroke: red; }
.edge:hover polygon { stroke: red; fill: red; }
]]></style>

<defs>
  <circle id="rim" cx="0" cy="0" r="7"/>
  <circle id="rim2" cx="0" cy="0" r="3.5"/>
  <g id="zoomPlus">
    <use xlink:href="#rim" fill="#404040"><set attributeName="fill" to="#808080" begin="zoomplus.mouseover" end="zoomplus.mouseout"/></use>
    <path d="M-4,0h8M0,-4v8" fill="none" stroke="white" stroke-width="1.5" pointer-events="none"/>
  </g>
  <g id="zoomMin">
    <use xlink:href="#rim" fill="#404040"><set attributeName="fill" to="#808080" begin="zoomminus.mouseover" end="zoomminus.mouseout"/></use>
    <path d="M-4,0h8" fill="none" stroke="white" stroke-width="1.5" pointer-events="none"/>
  </g>
  <g id="arrowUp" transform="translate(30 24)">
    <use xlink:href="#rim"/>
    <path pointer-events="none" fill="none" stroke="white" stroke-width="1.5" d="M0,-3.0v7 M-2.5,-0.5L0,-3.0L2.5,-0.5"/>
  </g>
  <g id="arrowRight" transform="rotate(90) translate(36 -43)">
    <use xlink:href="#rim"/>
    <path pointer-events="none" fill="none" stroke="white" stroke-width="1.5" d="M0,-3.0v7 M-2.5,-0.5L0,-3.0L2.5,-0.5"/>
  </g>
  <g id="arrowDown" transform="rotate(180) translate(-30 -48)">
    <use xlink:href="#rim"/>
    <path pointer-events="none" fill="none" stroke="white" stroke-width="1.5" d="M0,-3.0v7 M-2.5,-0.5L0,-3.0L2.5,-0.5"/>
  </g>
  <g id="arrowLeft" transform="rotate(270) translate(-36 17)">
    <use xlink:href="#rim"/>
    <path pointer-events="none" fill="none" stroke="white" stroke-width="1.5" d="M0,-3.0v7 M-2.5,-0.5L0,-3.0L2.5,-0.5"/>
  </g>
  <g id="resetDef">
    <use xlink:href="#rim2" fill="#404040"><set attributeName="fill" to="#808080" begin="reset.mouseover" end="reset.mouseout"/></use>
  </g>
</defs>
<script type="application/ecmascript">
var viewWidth = 1807;
var viewHeight = 400;
var sectionId = 'dynsection-0';
</script>
<script type="application/ecmascript" xlink:href="svg.min.js"/>
<svg id="graph" class="graph">
<g id="viewport">
<title>examples/esp32/main/CanComprehensiveTest.cpp</title>
<!-- Node1 -->
<g id="Node000001" class="node">
<title>Node1</title>
<g id="a_Node000001"><a xlink:title="Comprehensive CAN testing suite for ESP32&#45;C6 with ESP&#45;IDF v5.5 TWAI API and SN65 transceiver.">
<polygon fill="#999999" stroke="#666666" points="1141,-392 950,-392 950,-354 1141,-354 1141,-392"/>
<text text-anchor="start" x="958" y="-376.8" font-family="Arial" font-size="14.00">examples/esp32/main</text>
<text text-anchor="middle" x="1045.5" y="-361.8" font-family="Arial" font-size="14.00">/CanComprehensiveTest.cpp</text>
</a>
</g>
</g>
<!-- Node2 -->
<g id="Node000002" class="node">
<title>Node2</title>
<g id="a_Node000002"><a xlink:title=" ">
<polygon fill="#e0e0e0" stroke="#999999" points="75,-259 0,-259 0,-236 75,-236 75,-259"/>
<text text-anchor="middle" x="37.5" y="-243.8" font-family="Arial" font-size="14.00">esp_log.h</text>
</a>
</g>
</g>
<!-- Node1&#45;&gt;Node2 -->
<g id="edge1_Node000001_Node000002" class="edge">
<title>Node1&#45;&gt;Node2</title>
<g id="a_edge1_Node000001_Node000002"><a xlink:title=" ">
<path fill="none" stroke="#63b8ff" d="M949.75,-369.52C761.87,-364.04 351.21,-348.86 213.5,-318 159.88,-305.98 101.19,-280 66.95,-263.43"/>
<polygon fill="#63b8ff" stroke="#63b8ff" points="68.48,-260.28 57.96,-259.02 65.4,-266.57 68.48,-260.28"/>
</a>
</g>
</g>
<!-- Node3 -->
<g id="Node000003" class="node">
<title>Node3</title>
<g id="a_Node000003"><a xlink:title=" ">
<polygon fill="#e0e0e0" stroke="#999999" points="180,-259 93,-259 93,-236 180,-236 180,-259"/>
<text text-anchor="middle" x="136.5" y="-243.8" font-family="Arial" font-size="14.00">esp_timer.h</text>
</a>
</g>
</g>
<!-- Node1&#45;&gt;Node3 -->
<g id="edge2_Node000001_Node000003" class="edge">
<title>Node1&#45;&gt;Node3</title>
<g id="a_edge2_Node000001_Node000003"><a xlink:title=" ">
<path fill="none" stroke="#63b8ff" d="M950,-370.14C772.06,-365.88 396.53,-352.94 271.5,-318 229.94,-306.38 186.33,-281.21 160.29,-264.56"/>
<polygon fill="#63b8ff" stroke="#63b8ff" points="162.13,-261.58 151.84,-259.06 158.31,-267.45 162.13,-261.58"/>
</a>
</g>
</g>
<!-- Node4 -->
<g id="Node000004" class="node">
<title>Node4</title>
<g id="a_Node000004"><a xlink:title=" ">
<polygon fill="#e0e0e0" stroke="#999999" points="1029,-141 886,-141 886,-118 1029,-118 1029,-141"/>
<text text-anchor="middle" x="957.5" y="-125.8" font-family="Arial" font-size="14.00">freertos/FreeRTOS.h</text>
</a>
</g>
</g>
<!-- Node1&#45;&gt;Node4 -->
<g id="edge3_Node000001_Node000004" class="edge">
<title>Node1&#45;&gt;Node4</title>
<g id="a_edge3_Node000001_Node000004"><a xlink:title=" ">
<path fill="none" stroke="#63b8ff" d="M1045.11,-353.87C1043.64,-317.95 1036.7,-236.08 1004.5,-177 998.44,-165.89 988.89,-155.72 979.97,-147.75"/>
<polygon fill="#63b8ff" stroke="#63b8ff" points="981.97,-144.86 972.07,-141.08 977.45,-150.21 981.97,-144.86"/>
</a>
</g>
</g>
<!-- Node5 -->
<g id="Node000005" class="node">
<title>Node5</title>
<g id="a_Node000005"><a xlink:title=" ">
<polygon fill="#e0e0e0" stroke="#999999" points="579,-318 420,-318 420,-295 579,-295 579,-318"/>
<text text-anchor="middle" x="499.5" y="-302.8" font-family="Arial" font-size="14.00">freertos/event_groups.h</text>
</a>
</g>
</g>
<!-- Node1&#45;&gt;Node5 -->
<g id="edge4_Node000001_Node000005" class="edge">
<title>Node1&#45;&gt;Node5</title>
<g id="a_edge4_Node000001_Node000005"><a xlink:title=" ">
<path fill="none" stroke="#63b8ff" d="M949.77,-360.69C848.05,-348.68 688.49,-329.83 589.16,-318.09"/>
<polygon fill="#63b8ff" stroke="#63b8ff" points="589.48,-314.61 579.14,-316.91 588.66,-321.56 589.48,-314.61"/>
</a>
</g>
</g>
<!-- Node6 -->
<g id="Node000006" class="node">
<title>Node6</title>
<g id="a_Node000006"><a xlink:title=" ">
<polygon fill="#e0e0e0" stroke="#999999" points="1149.5,-141 1047.5,-141 1047.5,-118 1149.5,-118 1149.5,-141"/>
<text text-anchor="middle" x="1098.5" y="-125.8" font-family="Arial" font-size="14.00">freertos/task.h</text>
</a>
</g>
</g>
<!-- Node1&#45;&gt;Node6 -->
<g id="edge5_Node000001_Node000006" class="edge">
<title>Node1&#45;&gt;Node6</title>
<g id="a_edge5_Node000001_Node000006"><a xlink:title=" ">
<path fill="none" stroke="#63b8ff" d="M1050.52,-353.56C1053.29,-343.15 1056.73,-329.88 1059.5,-318 1073.62,-257.52 1087.9,-185.48 1094.59,-150.94"/>
<polygon fill="#63b8ff" stroke="#63b8ff" points="1098.02,-151.59 1096.48,-141.11 1091.15,-150.27 1098.02,-151.59"/>
</a>
</g>
</g>
<!-- Node7 -->
<g id="Node000007" class="node">
<title>Node7</title>
<g id="a_Node000007"><a xlink:href="TestFramework_8h.html" target="_top" xlink:title="Shared testing framework for ESP32&#45;C6 comprehensive test suites.">
<polygon fill="white" stroke="#666666" points="402,-318 281,-318 281,-295 402,-295 402,-318"/>
<text text-anchor="middle" x="341.5" y="-302.8" font-family="Arial" font-size="14.00">TestFramework.h</text>
</a>
</g>
</g>
<!-- Node1&#45;&gt;Node7 -->
<g id="edge6_Node000001_Node000007" class="edge">
<title>Node1&#45;&gt;Node7</title>
<g id="a_edge6_Node000001_Node000007"><a xlink:title=" ">
<path fill="none" stroke="#63b8ff" d="M949.98,-365.78C827.78,-357.38 609.39,-340.93 412.15,-318.01"/>
<polygon fill="#63b8ff" stroke="#63b8ff" points="412.51,-314.53 402.17,-316.84 411.7,-321.48 412.51,-314.53"/>
</a>
</g>
</g>
<!-- Node21 -->
<g id="Node000021" class="node">
<title>Node21</title>
<g id="a_Node000021"><a xlink:title=" ">
<polygon fill="#e0e0e0" stroke="#999999" points="1441,-82 1384,-82 1384,-59 1441,-59 1441,-82"/>
<text text-anchor="middle" x="1412.5" y="-66.8" font-family="Arial" font-size="14.00">atomic</text>
</a>
</g>
</g>
<!-- Node1&#45;&gt;Node21 -->
<g id="edge57_Node000001_Node000021" class="edge">
<title>Node1&#45;&gt;Node21</title>
<g id="a_edge57_Node000001_Node000021"><a xlink:title=" ">
<path fill="none" stroke="#63b8ff" d="M1141.07,-364.22C1326.59,-347.82 1717.5,-306.4 1717.5,-248.5 1717.5,-248.5 1717.5,-248.5 1717.5,-187.5 1717.5,-131.13 1533.22,-92.31 1451.14,-77.81"/>
<polygon fill="#63b8ff" stroke="#63b8ff" points="1451.64,-74.35 1441.19,-76.08 1450.45,-81.24 1451.64,-74.35"/>
</a>
</g>
</g>
<!-- Node23 -->
<g id="Node000023" class="node">
<title>Node23</title>
<g id="a_Node000023"><a xlink:href="BaseCan_8h.html" target="_top" xlink:title="Abstract base class for CAN bus implementations in the HardFOC system.">
<polygon fill="white" stroke="#666666" points="609.5,-141 493.5,-141 493.5,-118 609.5,-118 609.5,-141"/>
<text text-anchor="middle" x="551.5" y="-125.8" font-family="Arial" font-size="14.00">base/BaseCan.h</text>
</a>
</g>
</g>
<!-- Node1&#45;&gt;Node23 -->
<g id="edge33_Node000001_Node000023" class="edge">
<title>Node1&#45;&gt;Node23</title>
<g id="a_edge33_Node000001_Node000023"><a xlink:title=" ">
<path fill="none" stroke="#63b8ff" d="M949.84,-355.72C771.45,-325.31 405.38,-262.58 399.5,-259 363.98,-237.41 328.7,-209.6 354.5,-177 370.47,-156.83 432.61,-144.52 482.88,-137.68"/>
<polygon fill="#63b8ff" stroke="#63b8ff" points="483.63,-141.11 493.09,-136.34 482.72,-134.17 483.63,-141.11"/>
</a>
</g>
</g>
<!-- Node24 -->
<g id="Node000024" class="node">
<title>Node24</title>
<g id="a_Node000024"><a xlink:href="EspCan_8h.html" target="_top" xlink:title="ESP32 CAN (TWAI) implementation for the HardFOC system &#45; ESP&#45;IDF v5.5 Compatible.">
<polygon fill="white" stroke="#666666" points="1382.5,-259 1236.5,-259 1236.5,-236 1382.5,-236 1382.5,-259"/>
<text text-anchor="middle" x="1309.5" y="-243.8" font-family="Arial" font-size="14.00">mcu/esp32/EspCan.h</text>
</a>
</g>
</g>
<!-- Node1&#45;&gt;Node24 -->
<g id="edge38_Node000001_Node000024" class="edge">
<title>Node1&#45;&gt;Node24</title>
<g id="a_edge38_Node000001_Node000024"><a xlink:title=" ">
<path fill="none" stroke="#63b8ff" d="M1090.58,-353.93C1115.26,-343.8 1146.28,-330.68 1173.5,-318 1211.13,-300.48 1253.59,-278.4 1280.91,-263.88"/>
<polygon fill="#63b8ff" stroke="#63b8ff" points="1282.73,-266.88 1289.9,-259.09 1279.43,-260.7 1282.73,-266.88"/>
</a>
</g>
</g>
<!-- Node29 -->
<g id="Node000029" class="node">
<title>Node29</title>
<g id="a_Node000029"><a xlink:title=" ">
<polygon fill="#e0e0e0" stroke="#999999" points="1689,-200 1622,-200 1622,-177 1689,-177 1689,-200"/>
<text text-anchor="middle" x="1655.5" y="-184.8" font-family="Arial" font-size="14.00">memory</text>
</a>
</g>
</g>
<!-- Node1&#45;&gt;Node29 -->
<g id="edge58_Node000001_Node000029" class="edge">
<title>Node1&#45;&gt;Node29</title>
<g id="a_edge58_Node000001_Node000029"><a xlink:title=" ">
<path fill="none" stroke="#63b8ff" d="M1105.94,-353.92C1228.83,-317.15 1505.24,-234.45 1612.14,-202.47"/>
<polygon fill="#63b8ff" stroke="#63b8ff" points="1613.37,-205.76 1621.95,-199.54 1611.37,-199.05 1613.37,-205.76"/>
</a>
</g>
</g>
<!-- Node30 -->
<g id="Node000030" class="node">
<title>Node30</title>
<g id="a_Node000030"><a xlink:title=" ">
<polygon fill="#e0e0e0" stroke="#999999" points="1799,-318 1746,-318 1746,-295 1799,-295 1799,-318"/>
<text text-anchor="middle" x="1772.5" y="-302.8" font-family="Arial" font-size="14.00">vector</text>
</a>
</g>
</g>
<!-- Node1&#45;&gt;Node30 -->
<g id="edge59_Node000001_Node000030" class="edge">
<title>Node1&#45;&gt;Node30</title>
<g id="a_edge59_Node000001_Node000030"><a xlink:title=" ">
<path fill="none" stroke="#63b8ff" d="M1141.01,-369.67C1274.12,-365.24 1522.61,-352.7 1731.5,-318 1732.95,-317.76 1734.42,-317.49 1735.91,-317.2"/>
<polygon fill="#63b8ff" stroke="#63b8ff" points="1736.71,-320.61 1745.73,-315.06 1735.22,-313.77 1736.71,-320.61"/>
</a>
</g>
</g>
<!-- Node7&#45;&gt;Node2 -->
<g id="edge7_Node000007_Node000002" class="edge">
<title>Node7&#45;&gt;Node2</title>
<g id="a_edge7_Node000007_Node000002"><a xlink:title=" ">
<path fill="none" stroke="#63b8ff" d="M280.88,-295.39C230.85,-286.86 157.76,-273.97 85.34,-259.32"/>
<polygon fill="#63b8ff" stroke="#63b8ff" points="85.62,-255.8 75.12,-257.24 84.23,-262.66 85.62,-255.8"/>
</a>
</g>
</g>
<!-- Node7&#45;&gt;Node3 -->
<g id="edge8_Node000007_Node000003" class="edge">
<title>Node7&#45;&gt;Node3</title>
<g id="a_edge8_Node000007_Node000003"><a xlink:title=" ">
<path fill="none" stroke="#63b8ff" d="M303.42,-294.91C269.76,-285.55 220.52,-271.86 184.24,-261.77"/>
<polygon fill="#63b8ff" stroke="#63b8ff" points="184.95,-258.34 174.37,-259.03 183.07,-265.08 184.95,-258.34"/>
</a>
</g>
</g>
<!-- Node7&#45;&gt;Node4 -->
<g id="edge9_Node000007_Node000004" class="edge">
<title>Node7&#45;&gt;Node4</title>
<g id="a_edge9_Node000007_Node000004"><a xlink:title=" ">
<path fill="none" stroke="#63b8ff" d="M402.14,-296.14C562.13,-271.36 983.72,-205.62 988.5,-200 1001.21,-185.05 988.74,-164.06 976.03,-149.07"/>
<polygon fill="#63b8ff" stroke="#63b8ff" points="978.41,-146.48 969.1,-141.43 973.23,-151.19 978.41,-146.48"/>
</a>
</g>
</g>
<!-- Node7&#45;&gt;Node6 -->
<g id="edge12_Node000007_Node000006" class="edge">
<title>Node7&#45;&gt;Node6</title>
<g id="a_edge12_Node000007_Node000006"><a xlink:title=" ">
<path fill="none" stroke="#63b8ff" d="M402.19,-296.27C405.34,-295.83 408.45,-295.4 411.5,-295 676.1,-259.9 760.98,-309.28 1004.5,-200 1033.56,-186.96 1062.33,-163.78 1080.23,-147.8"/>
<polygon fill="#63b8ff" stroke="#63b8ff" points="1082.62,-150.35 1087.65,-141.03 1077.91,-145.18 1082.62,-150.35"/>
</a>
</g>
</g>
<!-- Node8 -->
<g id="Node000008" class="node">
<title>Node8</title>
<g id="a_Node000008"><a xlink:title=" ">
<polygon fill="#e0e0e0" stroke="#999999" points="313,-259 198,-259 198,-236 313,-236 313,-259"/>
<text text-anchor="middle" x="255.5" y="-243.8" font-family="Arial" font-size="14.00">freertos/queue.h</text>
</a>
</g>
</g>
<!-- Node7&#45;&gt;Node8 -->
<g id="edge10_Node000007_Node000008" class="edge">
<title>Node7&#45;&gt;Node8</title>
<g id="a_edge10_Node000007_Node000008"><a xlink:title=" ">
<path fill="none" stroke="#63b8ff" d="M325.32,-294.78C312.59,-286.34 294.63,-274.44 280.12,-264.82"/>
<polygon fill="#63b8ff" stroke="#63b8ff" points="281.87,-261.78 271.6,-259.17 278.01,-267.62 281.87,-261.78"/>
</a>
</g>
</g>
<!-- Node9 -->
<g id="Node000009" class="node">
<title>Node9</title>
<g id="a_Node000009"><a xlink:title=" ">
<polygon fill="#e0e0e0" stroke="#999999" points="1289.5,-141 1167.5,-141 1167.5,-118 1289.5,-118 1289.5,-141"/>
<text text-anchor="middle" x="1228.5" y="-125.8" font-family="Arial" font-size="14.00">freertos/semphr.h</text>
</a>
</g>
</g>
<!-- Node7&#45;&gt;Node9 -->
<g id="edge11_Node000007_Node000009" class="edge">
<title>Node7&#45;&gt;Node9</title>
<g id="a_edge11_Node000007_Node000009"><a xlink:title=" ">
<path fill="none" stroke="#63b8ff" d="M402.17,-296.12C405.32,-295.72 408.45,-295.34 411.5,-295 621.44,-271.31 679.19,-304.51 885.5,-259 1004.91,-232.66 1138.46,-173.39 1197.53,-145.52"/>
<polygon fill="#63b8ff" stroke="#63b8ff" points="1199.16,-148.62 1206.69,-141.17 1196.16,-142.3 1199.16,-148.62"/>
</a>
</g>
</g>
<!-- Node10 -->
<g id="Node000010" class="node">
<title>Node10</title>
<g id="a_Node000010"><a xlink:href="HardwareTypes_8h.html" target="_top" xlink:title="Platform&#45;agnostic hardware type definitions for the HardFOC system.">
<polygon fill="white" stroke="#666666" points="610.5,-82 488.5,-82 488.5,-59 610.5,-59 610.5,-82"/>
<text text-anchor="middle" x="549.5" y="-66.8" font-family="Arial" font-size="14.00">HardwareTypes.h</text>
</a>
</g>
</g>
<!-- Node7&#45;&gt;Node10 -->
<g id="edge13_Node000007_Node000010" class="edge">
<title>Node7&#45;&gt;Node10</title>
<g id="a_edge13_Node000007_Node000010"><a xlink:title=" ">
<path fill="none" stroke="#63b8ff" d="M340.22,-294.91C338.13,-280.65 332.98,-254.88 321.5,-236 305.3,-209.35 265.13,-202.2 283.5,-177 314.3,-134.75 346.7,-159.78 395.5,-141 438.97,-124.26 487.78,-101.55 518.56,-86.71"/>
<polygon fill="#63b8ff" stroke="#63b8ff" points="520.42,-89.7 527.9,-82.19 517.37,-83.4 520.42,-89.7"/>
</a>
</g>
</g>
<!-- Node13 -->
<g id="Node000013" class="node">
<title>Node13</title>
<g id="a_Node000013"><a xlink:href="EspGpio_8h.html" target="_top" xlink:title="Advanced MCU&#45;specific implementation of the unified BaseGpio class with ESP32C6/ESP&#45;IDF v5....">
<polygon fill="white" stroke="#666666" points="559,-259 408,-259 408,-236 559,-236 559,-259"/>
<text text-anchor="middle" x="483.5" y="-243.8" font-family="Arial" font-size="14.00">mcu/esp32/EspGpio.h</text>
</a>
</g>
</g>
<!-- Node7&#45;&gt;Node13 -->
<g id="edge16_Node000007_Node000013" class="edge">
<title>Node7&#45;&gt;Node13</title>
<g id="a_edge16_Node000007_Node000013"><a xlink:title=" ">
<path fill="none" stroke="#63b8ff" d="M367.88,-294.91C390.39,-285.87 422.98,-272.79 447.82,-262.82"/>
<polygon fill="#63b8ff" stroke="#63b8ff" points="449.29,-266 457.26,-259.03 446.68,-259.51 449.29,-266"/>
</a>
</g>
</g>
<!-- Node11 -->
<g id="Node000011" class="node">
<title>Node11</title>
<g id="a_Node000011"><a xlink:title=" ">
<polygon fill="#e0e0e0" stroke="#999999" points="666.5,-23 610.5,-23 610.5,0 666.5,0 666.5,-23"/>
<text text-anchor="middle" x="638.5" y="-7.8" font-family="Arial" font-size="14.00">cstdint</text>
</a>
</g>
</g>
<!-- Node10&#45;&gt;Node11 -->
<g id="edge14_Node000010_Node000011" class="edge">
<title>Node10&#45;&gt;Node11</title>
<g id="a_edge14_Node000010_Node000011"><a xlink:title=" ">
<path fill="none" stroke="#63b8ff" d="M566.24,-58.78C579.42,-50.34 598,-38.44 613.02,-28.82"/>
<polygon fill="#63b8ff" stroke="#63b8ff" points="615.3,-31.51 621.83,-23.17 611.53,-25.62 615.3,-31.51"/>
</a>
</g>
</g>
<!-- Node12 -->
<g id="Node000012" class="node">
<title>Node12</title>
<g id="a_Node000012"><a xlink:title=" ">
<polygon fill="#e0e0e0" stroke="#999999" points="573.5,-23 525.5,-23 525.5,0 573.5,0 573.5,-23"/>
<text text-anchor="middle" x="549.5" y="-7.8" font-family="Arial" font-size="14.00">limits</text>
</a>
</g>
</g>
<!-- Node10&#45;&gt;Node12 -->
<g id="edge15_Node000010_Node000012" class="edge">
<title>Node10&#45;&gt;Node12</title>
<g id="a_edge15_Node000010_Node000012"><a xlink:title=" ">
<path fill="none" stroke="#63b8ff" d="M549.5,-58.78C549.5,-51.61 549.5,-41.95 549.5,-33.31"/>
<polygon fill="#63b8ff" stroke="#63b8ff" points="553,-33.17 549.5,-23.17 546,-33.17 553,-33.17"/>
</a>
</g>
</g>
<!-- Node14 -->
<g id="Node000014" class="node">
<title>Node14</title>
<g id="a_Node000014"><a xlink:title=" ">
<polygon fill="#e0e0e0" stroke="#999999" points="529,-200 438,-200 438,-177 529,-177 529,-200"/>
<text text-anchor="middle" x="483.5" y="-184.8" font-family="Arial" font-size="14.00">driver/gpio.h</text>
</a>
</g>
</g>
<!-- Node13&#45;&gt;Node14 -->
<g id="edge17_Node000013_Node000014" class="edge">
<title>Node13&#45;&gt;Node14</title>
<g id="a_edge17_Node000013_Node000014"><a xlink:title=" ">
<path fill="none" stroke="#63b8ff" d="M483.5,-235.78C483.5,-228.61 483.5,-218.95 483.5,-210.31"/>
<polygon fill="#63b8ff" stroke="#63b8ff" points="487,-210.17 483.5,-200.17 480,-210.17 487,-210.17"/>
</a>
</g>
</g>
<!-- Node15 -->
<g id="Node000015" class="node">
<title>Node15</title>
<g id="a_Node000015"><a xlink:title=" ">
<polygon fill="#e0e0e0" stroke="#999999" points="623.5,-200 547.5,-200 547.5,-177 623.5,-177 623.5,-200"/>
<text text-anchor="middle" x="585.5" y="-184.8" font-family="Arial" font-size="14.00">esp_attr.h</text>
</a>
</g>
</g>
<!-- Node13&#45;&gt;Node15 -->
<g id="edge18_Node000013_Node000015" class="edge">
<title>Node13&#45;&gt;Node15</title>
<g id="a_edge18_Node000013_Node000015"><a xlink:title=" ">
<path fill="none" stroke="#63b8ff" d="M502.69,-235.78C518.07,-227.18 539.89,-214.99 557.27,-205.28"/>
<polygon fill="#63b8ff" stroke="#63b8ff" points="559.38,-208.11 566.4,-200.17 555.96,-202 559.38,-208.11"/>
</a>
</g>
</g>
<!-- Node16 -->
<g id="Node000016" class="node">
<title>Node16</title>
<g id="a_Node000016"><a xlink:href="BaseGpio_8h.html" target="_top" xlink:title="Unified GPIO base class for all digital GPIO implementations.">
<polygon fill="white" stroke="#666666" points="386.5,-141 298.5,-141 298.5,-118 386.5,-118 386.5,-141"/>
<text text-anchor="middle" x="342.5" y="-125.8" font-family="Arial" font-size="14.00">BaseGpio.h</text>
</a>
</g>
</g>
<!-- Node13&#45;&gt;Node16 -->
<g id="edge19_Node000013_Node000016" class="edge">
<title>Node13&#45;&gt;Node16</title>
<g id="a_edge19_Node000013_Node000016"><a xlink:title=" ">
<path fill="none" stroke="#63b8ff" d="M414.88,-235.96C392.6,-229.21 369.72,-218.15 354.5,-200 343.34,-186.69 340.86,-166.8 340.87,-151.7"/>
<polygon fill="#63b8ff" stroke="#63b8ff" points="344.39,-151.4 341.26,-141.27 337.39,-151.14 344.39,-151.4"/>
</a>
</g>
</g>
<!-- Node18 -->
<g id="Node000018" class="node">
<title>Node18</title>
<g id="a_Node000018"><a xlink:href="EspTypes__GPIO_8h.html" target="_top" xlink:title="ESP32 GPIO type definitions for hardware abstraction.">
<polygon fill="white" stroke="#666666" points="771.5,-200 641.5,-200 641.5,-177 771.5,-177 771.5,-200"/>
<text text-anchor="middle" x="706.5" y="-184.8" font-family="Arial" font-size="14.00">EspTypes_GPIO.h</text>
</a>
</g>
</g>
<!-- Node13&#45;&gt;Node18 -->
<g id="edge23_Node000013_Node000018" class="edge">
<title>Node13&#45;&gt;Node18</title>
<g id="a_edge23_Node000013_Node000018"><a xlink:title=" ">
<path fill="none" stroke="#63b8ff" d="M524.66,-235.98C561.55,-226.55 615.81,-212.68 655.46,-202.55"/>
<polygon fill="#63b8ff" stroke="#63b8ff" points="656.38,-205.92 665.2,-200.06 654.65,-199.14 656.38,-205.92"/>
</a>
</g>
</g>
<!-- Node22 -->
<g id="Node000022" class="node">
<title>Node22</title>
<g id="a_Node000022"><a xlink:title=" ">
<polygon fill="#e0e0e0" stroke="#999999" points="419.5,-200 363.5,-200 363.5,-177 419.5,-177 419.5,-200"/>
<text text-anchor="middle" x="391.5" y="-184.8" font-family="Arial" font-size="14.00">stdio.h</text>
</a>
</g>
</g>
<!-- Node13&#45;&gt;Node22 -->
<g id="edge32_Node000013_Node000022" class="edge">
<title>Node13&#45;&gt;Node22</title>
<g id="a_edge32_Node000013_Node000022"><a xlink:title=" ">
<path fill="none" stroke="#63b8ff" d="M466.2,-235.78C452.45,-227.26 433,-215.21 417.4,-205.55"/>
<polygon fill="#63b8ff" stroke="#63b8ff" points="419.07,-202.46 408.73,-200.17 415.38,-208.42 419.07,-202.46"/>
</a>
</g>
</g>
<!-- Node16&#45;&gt;Node10 -->
<g id="edge20_Node000016_Node000010" class="edge">
<title>Node16&#45;&gt;Node10</title>
<g id="a_edge20_Node000016_Node000010"><a xlink:title=" ">
<path fill="none" stroke="#63b8ff" d="M380.95,-117.91C414.94,-108.55 464.66,-94.86 501.29,-84.77"/>
<polygon fill="#63b8ff" stroke="#63b8ff" points="502.54,-88.06 511.26,-82.03 500.69,-81.31 502.54,-88.06"/>
</a>
</g>
</g>
<!-- Node16&#45;&gt;Node11 -->
<g id="edge21_Node000016_Node000011" class="edge">
<title>Node16&#45;&gt;Node11</title>
<g id="a_edge21_Node000016_Node000011"><a xlink:title=" ">
<path fill="none" stroke="#63b8ff" d="M344.54,-117.86C348.11,-102.3 357.06,-73.61 376.5,-59 450.8,-3.17 491.04,-39.56 582.5,-23 588.3,-21.95 594.43,-20.82 600.43,-19.7"/>
<polygon fill="#63b8ff" stroke="#63b8ff" points="601.12,-23.13 610.31,-17.86 599.84,-16.25 601.12,-23.13"/>
</a>
</g>
</g>
<!-- Node17 -->
<g id="Node000017" class="node">
<title>Node17</title>
<g id="a_Node000017"><a xlink:title=" ">
<polygon fill="#e0e0e0" stroke="#999999" points="469.5,-82 385.5,-82 385.5,-59 469.5,-59 469.5,-82"/>
<text text-anchor="middle" x="427.5" y="-66.8" font-family="Arial" font-size="14.00">string_view</text>
</a>
</g>
</g>
<!-- Node16&#45;&gt;Node17 -->
<g id="edge22_Node000016_Node000017" class="edge">
<title>Node16&#45;&gt;Node17</title>
<g id="a_edge22_Node000016_Node000017"><a xlink:title=" ">
<path fill="none" stroke="#63b8ff" d="M358.49,-117.78C371.07,-109.34 388.82,-97.44 403.17,-87.82"/>
<polygon fill="#63b8ff" stroke="#63b8ff" points="405.23,-90.65 411.58,-82.17 401.33,-84.84 405.23,-90.65"/>
</a>
</g>
</g>
<!-- Node18&#45;&gt;Node10 -->
<g id="edge30_Node000018_Node000010" class="edge">
<title>Node18&#45;&gt;Node10</title>
<g id="a_edge30_Node000018_Node000010"><a xlink:title=" ">
<path fill="none" stroke="#63b8ff" d="M641.31,-178.08C579.46,-168.48 494.48,-153.28 484.5,-141 468.71,-121.56 494.43,-100.76 518.02,-87.04"/>
<polygon fill="#63b8ff" stroke="#63b8ff" points="519.81,-90.05 526.87,-82.15 516.43,-83.92 519.81,-90.05"/>
</a>
</g>
</g>
<!-- Node18&#45;&gt;Node16 -->
<g id="edge24_Node000018_Node000016" class="edge">
<title>Node18&#45;&gt;Node16</title>
<g id="a_edge24_Node000018_Node000016"><a xlink:title=" ">
<path fill="none" stroke="#63b8ff" d="M641.42,-177.31C571.64,-166.38 462.09,-149.23 396.78,-139"/>
<polygon fill="#63b8ff" stroke="#63b8ff" points="397.12,-135.51 386.69,-137.42 396.03,-142.43 397.12,-135.51"/>
</a>
</g>
</g>
<!-- Node19 -->
<g id="Node000019" class="node">
<title>Node19</title>
<g id="a_Node000019"><a xlink:href="EspTypes__Base_8h.html" target="_top" xlink:title="ESP32 base type definitions for hardware abstraction.">
<polygon fill="white" stroke="#666666" points="829,-141 704,-141 704,-118 829,-118 829,-141"/>
<text text-anchor="middle" x="766.5" y="-125.8" font-family="Arial" font-size="14.00">EspTypes_Base.h</text>
</a>
</g>
</g>
<!-- Node18&#45;&gt;Node19 -->
<g id="edge25_Node000018_Node000019" class="edge">
<title>Node18&#45;&gt;Node19</title>
<g id="a_edge25_Node000018_Node000019"><a xlink:title=" ">
<path fill="none" stroke="#63b8ff" d="M717.79,-176.78C726.25,-168.74 738.02,-157.55 747.88,-148.19"/>
<polygon fill="#63b8ff" stroke="#63b8ff" points="750.43,-150.6 755.27,-141.17 745.6,-145.52 750.43,-150.6"/>
</a>
</g>
</g>
<!-- Node20 -->
<g id="Node000020" class="node">
<title>Node20</title>
<g id="a_Node000020"><a xlink:href="McuSelect_8h.html" target="_top" xlink:title="Centralized MCU platform selection and configuration header.">
<polygon fill="white" stroke="#666666" points="928.5,-82 786.5,-82 786.5,-59 928.5,-59 928.5,-82"/>
<text text-anchor="middle" x="857.5" y="-66.8" font-family="Arial" font-size="14.00">../../utils/McuSelect.h</text>
</a>
</g>
</g>
<!-- Node18&#45;&gt;Node20 -->
<g id="edge31_Node000018_Node000020" class="edge">
<title>Node18&#45;&gt;Node20</title>
<g id="a_edge31_Node000018_Node000020"><a xlink:title=" ">
<path fill="none" stroke="#63b8ff" d="M700.41,-176.91C692.84,-162.18 682.42,-135.37 695.5,-118 706.53,-103.36 745.57,-91.91 782.57,-84.04"/>
<polygon fill="#63b8ff" stroke="#63b8ff" points="783.32,-87.45 792.41,-82.01 781.91,-80.6 783.32,-87.45"/>
</a>
</g>
</g>
<!-- Node19&#45;&gt;Node10 -->
<g id="edge27_Node000019_Node000010" class="edge">
<title>Node19&#45;&gt;Node10</title>
<g id="a_edge27_Node000019_Node000010"><a xlink:title=" ">
<path fill="none" stroke="#63b8ff" d="M726.45,-117.98C690.7,-108.59 638.19,-94.8 599.66,-84.68"/>
<polygon fill="#63b8ff" stroke="#63b8ff" points="600.25,-81.21 589.69,-82.06 598.47,-87.98 600.25,-81.21"/>
</a>
</g>
</g>
<!-- Node19&#45;&gt;Node11 -->
<g id="edge29_Node000019_Node000011" class="edge">
<title>Node19&#45;&gt;Node11</title>
<g id="a_edge29_Node000019_Node000011"><a xlink:title=" ">
<path fill="none" stroke="#63b8ff" d="M754.69,-117.79C732.59,-97.77 684.81,-54.46 657.91,-30.09"/>
<polygon fill="#63b8ff" stroke="#63b8ff" points="660.04,-27.3 650.28,-23.18 655.34,-32.49 660.04,-27.3"/>
</a>
</g>
</g>
<!-- Node19&#45;&gt;Node20 -->
<g id="edge26_Node000019_Node000020" class="edge">
<title>Node19&#45;&gt;Node20</title>
<g id="a_edge26_Node000019_Node000020"><a xlink:title=" ">
<path fill="none" stroke="#63b8ff" d="M783.62,-117.78C797.22,-109.26 816.45,-97.21 831.88,-87.55"/>
<polygon fill="#63b8ff" stroke="#63b8ff" points="833.84,-90.45 840.46,-82.17 830.13,-84.52 833.84,-90.45"/>
</a>
</g>
</g>
<!-- Node19&#45;&gt;Node21 -->
<g id="edge28_Node000019_Node000021" class="edge">
<title>Node19&#45;&gt;Node21</title>
<g id="a_edge28_Node000019_Node000021"><a xlink:title=" ">
<path fill="none" stroke="#63b8ff" d="M829.01,-122.5C844.83,-121.01 861.79,-119.43 877.5,-118 1063.31,-101.14 1285.54,-82.22 1373.71,-74.77"/>
<polygon fill="#63b8ff" stroke="#63b8ff" points="1374.12,-78.25 1383.79,-73.92 1373.53,-71.27 1374.12,-78.25"/>
</a>
</g>
</g>
<!-- Node23&#45;&gt;Node10 -->
<g id="edge34_Node000023_Node000010" class="edge">
<title>Node23&#45;&gt;Node10</title>
<g id="a_edge34_Node000023_Node000010"><a xlink:title=" ">
<path fill="none" stroke="#63b8ff" d="M551.12,-117.78C550.87,-110.61 550.53,-100.95 550.23,-92.31"/>
<polygon fill="#63b8ff" stroke="#63b8ff" points="553.72,-92.04 549.87,-82.17 546.73,-92.29 553.72,-92.04"/>
</a>
</g>
</g>
<!-- Node23&#45;&gt;Node11 -->
<g id="edge36_Node000023_Node000011" class="edge">
<title>Node23&#45;&gt;Node11</title>
<g id="a_edge36_Node000023_Node000011"><a xlink:title=" ">
<path fill="none" stroke="#63b8ff" d="M574.88,-117.87C589.73,-109.98 608.22,-97.84 619.5,-82 629.68,-67.71 634.41,-48.22 636.6,-33.51"/>
<polygon fill="#63b8ff" stroke="#63b8ff" points="640.1,-33.72 637.84,-23.37 633.15,-32.87 640.1,-33.72"/>
</a>
</g>
</g>
<!-- Node23&#45;&gt;Node17 -->
<g id="edge37_Node000023_Node000017" class="edge">
<title>Node23&#45;&gt;Node17</title>
<g id="a_edge37_Node000023_Node000017"><a xlink:title=" ">
<path fill="none" stroke="#63b8ff" d="M528.47,-117.91C509.07,-108.99 481.1,-96.14 459.52,-86.22"/>
<polygon fill="#63b8ff" stroke="#63b8ff" points="460.96,-83.03 450.41,-82.03 458.03,-89.39 460.96,-83.03"/>
</a>
</g>
</g>
<!-- Node23&#45;&gt;Node21 -->
<g id="edge35_Node000023_Node000021" class="edge">
<title>Node23&#45;&gt;Node21</title>
<g id="a_edge35_Node000023_Node000021"><a xlink:title=" ">
<path fill="none" stroke="#63b8ff" d="M609.65,-124.15C635.87,-122.22 667.24,-119.95 695.5,-118 954.44,-100.16 1266.11,-80.6 1373.74,-73.9"/>
<polygon fill="#63b8ff" stroke="#63b8ff" points="1374.04,-77.39 1383.81,-73.28 1373.61,-70.41 1374.04,-77.39"/>
</a>
</g>
</g>
<!-- Node24&#45;&gt;Node20 -->
<g id="edge39_Node000024_Node000020" class="edge">
<title>Node24&#45;&gt;Node20</title>
<g id="a_edge39_Node000024_Node000020"><a xlink:title=" ">
<path fill="none" stroke="#63b8ff" d="M1311.76,-235.66C1317.28,-207.87 1329.92,-135.06 1314.5,-118 1289.87,-90.73 1063.8,-78.62 939.13,-73.98"/>
<polygon fill="#63b8ff" stroke="#63b8ff" points="938.99,-70.47 928.86,-73.61 938.73,-77.47 938.99,-70.47"/>
</a>
</g>
</g>
<!-- Node24&#45;&gt;Node21 -->
<g id="edge55_Node000024_Node000021" class="edge">
<title>Node24&#45;&gt;Node21</title>
<g id="a_edge55_Node000024_Node000021"><a xlink:title=" ">
<path fill="none" stroke="#63b8ff" d="M1382.56,-243.9C1452.35,-239.69 1550.39,-228.7 1574.5,-200 1617.69,-148.57 1511.23,-103.68 1450.79,-83.24"/>
<polygon fill="#63b8ff" stroke="#63b8ff" points="1451.75,-79.87 1441.16,-80.06 1449.55,-86.52 1451.75,-79.87"/>
</a>
</g>
</g>
<!-- Node24&#45;&gt;Node23 -->
<g id="edge42_Node000024_Node000023" class="edge">
<title>Node24&#45;&gt;Node23</title>
<g id="a_edge42_Node000024_Node000023"><a xlink:title=" ">
<path fill="none" stroke="#63b8ff" d="M1236.11,-243.45C1118.9,-237.92 894.99,-224.49 819.5,-200 800.36,-193.79 799.29,-184.21 780.5,-177 728.46,-157.02 666.3,-145.09 619.89,-138.33"/>
<polygon fill="#63b8ff" stroke="#63b8ff" points="620.33,-134.85 609.93,-136.92 619.35,-141.78 620.33,-134.85"/>
</a>
</g>
</g>
<!-- Node25 -->
<g id="Node000025" class="node">
<title>Node25</title>
<g id="a_Node000025"><a xlink:title=" ">
<polygon fill="#e0e0e0" stroke="#999999" points="1419,-200 1338,-200 1338,-177 1419,-177 1419,-200"/>
<text text-anchor="middle" x="1378.5" y="-184.8" font-family="Arial" font-size="14.00">esp_twai.h</text>
</a>
</g>
</g>
<!-- Node24&#45;&gt;Node25 -->
<g id="edge40_Node000024_Node000025" class="edge">
<title>Node24&#45;&gt;Node25</title>
<g id="a_edge40_Node000024_Node000025"><a xlink:title=" ">
<path fill="none" stroke="#63b8ff" d="M1322.48,-235.78C1332.41,-227.58 1346.29,-216.11 1357.75,-206.64"/>
<polygon fill="#63b8ff" stroke="#63b8ff" points="1360.1,-209.24 1365.58,-200.17 1355.64,-203.84 1360.1,-209.24"/>
</a>
</g>
</g>
<!-- Node26 -->
<g id="Node000026" class="node">
<title>Node26</title>
<g id="a_Node000026"><a xlink:title=" ">
<polygon fill="#e0e0e0" stroke="#999999" points="1565.5,-200 1437.5,-200 1437.5,-177 1565.5,-177 1565.5,-200"/>
<text text-anchor="middle" x="1501.5" y="-184.8" font-family="Arial" font-size="14.00">esp_twai_onchip.h</text>
</a>
</g>
</g>
<!-- Node24&#45;&gt;Node26 -->
<g id="edge41_Node000024_Node000026" class="edge">
<title>Node24&#45;&gt;Node26</title>
<g id="a_edge41_Node000024_Node000026"><a xlink:title=" ">
<path fill="none" stroke="#63b8ff" d="M1345.16,-235.91C1376.55,-226.59 1422.41,-212.98 1456.35,-202.9"/>
<polygon fill="#63b8ff" stroke="#63b8ff" points="1457.44,-206.23 1466.03,-200.03 1455.44,-199.52 1457.44,-206.23"/>
</a>
</g>
</g>
<!-- Node27 -->
<g id="Node000027" class="node">
<title>Node27</title>
<g id="a_Node000027"><a xlink:href="RtosMutex_8h.html" target="_top" xlink:title="Cross&#45;platform RTOS mutex and synchronization primitives.">
<polygon fill="white" stroke="#666666" points="1281,-200 1188,-200 1188,-177 1281,-177 1281,-200"/>
<text text-anchor="middle" x="1234.5" y="-184.8" font-family="Arial" font-size="14.00">RtosMutex.h</text>
</a>
</g>
</g>
<!-- Node24&#45;&gt;Node27 -->
<g id="edge43_Node000024_Node000027" class="edge">
<title>Node24&#45;&gt;Node27</title>
<g id="a_edge43_Node000024_Node000027"><a xlink:title=" ">
<path fill="none" stroke="#63b8ff" d="M1295.39,-235.78C1284.5,-227.5 1269.22,-215.89 1256.69,-206.36"/>
<polygon fill="#63b8ff" stroke="#63b8ff" points="1258.62,-203.44 1248.54,-200.17 1254.39,-209.01 1258.62,-203.44"/>
</a>
</g>
</g>
<!-- Node28 -->
<g id="Node000028" class="node">
<title>Node28</title>
<g id="a_Node000028"><a xlink:href="EspTypes__CAN_8h.html" target="_top" xlink:title="ESP32 CAN type definitions for hardware abstraction.">
<polygon fill="white" stroke="#666666" points="979,-200 828,-200 828,-177 979,-177 979,-200"/>
<text text-anchor="middle" x="903.5" y="-184.8" font-family="Arial" font-size="14.00">utils/EspTypes_CAN.h</text>
</a>
</g>
</g>
<!-- Node24&#45;&gt;Node28 -->
<g id="edge50_Node000024_Node000028" class="edge">
<title>Node24&#45;&gt;Node28</title>
<g id="a_edge50_Node000024_Node000028"><a xlink:title=" ">
<path fill="none" stroke="#63b8ff" d="M1236.45,-236.24C1166.78,-226.46 1061.89,-211.74 988.51,-201.43"/>
<polygon fill="#63b8ff" stroke="#63b8ff" points="988.76,-197.94 978.37,-200.01 987.79,-204.87 988.76,-197.94"/>
</a>
</g>
</g>
<!-- Node24&#45;&gt;Node29 -->
<g id="edge56_Node000024_Node000029" class="edge">
<title>Node24&#45;&gt;Node29</title>
<g id="a_edge56_Node000024_Node000029"><a xlink:title=" ">
<path fill="none" stroke="#63b8ff" d="M1382.58,-236.36C1443.04,-227.66 1531.07,-214.31 1607.5,-200 1608.97,-199.73 1610.46,-199.44 1611.96,-199.14"/>
<polygon fill="#63b8ff" stroke="#63b8ff" points="1612.88,-202.53 1621.98,-197.1 1611.49,-195.67 1612.88,-202.53"/>
</a>
</g>
</g>
<!-- Node27&#45;&gt;Node4 -->
<g id="edge45_Node000027_Node000004" class="edge">
<title>Node27&#45;&gt;Node4</title>
<g id="a_edge45_Node000027_Node000004"><a xlink:title=" ">
<path fill="none" stroke="#63b8ff" d="M1187.82,-177.9C1141.28,-168.32 1069.55,-153.56 1018.52,-143.06"/>
<polygon fill="#63b8ff" stroke="#63b8ff" points="1019.1,-139.6 1008.6,-141.02 1017.69,-146.46 1019.1,-139.6"/>
</a>
</g>
</g>
<!-- Node27&#45;&gt;Node6 -->
<g id="edge47_Node000027_Node000006" class="edge">
<title>Node27&#45;&gt;Node6</title>
<g id="a_edge47_Node000027_Node000006"><a xlink:title=" ">
<path fill="none" stroke="#63b8ff" d="M1209.24,-176.91C1187.77,-167.91 1156.74,-154.91 1132.99,-144.95"/>
<polygon fill="#63b8ff" stroke="#63b8ff" points="1134.2,-141.67 1123.63,-141.03 1131.5,-148.12 1134.2,-141.67"/>
</a>
</g>
</g>
<!-- Node27&#45;&gt;Node9 -->
<g id="edge46_Node000027_Node000009" class="edge">
<title>Node27&#45;&gt;Node9</title>
<g id="a_edge46_Node000027_Node000009"><a xlink:title=" ">
<path fill="none" stroke="#63b8ff" d="M1233.37,-176.78C1232.62,-169.61 1231.6,-159.95 1230.69,-151.31"/>
<polygon fill="#63b8ff" stroke="#63b8ff" points="1234.15,-150.75 1229.62,-141.17 1227.19,-151.48 1234.15,-150.75"/>
</a>
</g>
</g>
<!-- Node27&#45;&gt;Node11 -->
<g id="edge49_Node000027_Node000011" class="edge">
<title>Node27&#45;&gt;Node11</title>
<g id="a_edge49_Node000027_Node000011"><a xlink:title=" ">
<path fill="none" stroke="#63b8ff" d="M1263.21,-176.95C1293.62,-164.21 1334.66,-141.55 1314.5,-118 1231.12,-20.56 807.46,-12.44 676.87,-12.28"/>
<polygon fill="#63b8ff" stroke="#63b8ff" points="676.57,-8.78 666.57,-12.29 676.57,-15.78 676.57,-8.78"/>
</a>
</g>
</g>
<!-- Node27&#45;&gt;Node20 -->
<g id="edge44_Node000027_Node000020" class="edge">
<title>Node27&#45;&gt;Node20</title>
<g id="a_edge44_Node000027_Node000020"><a xlink:title=" ">
<path fill="none" stroke="#63b8ff" d="M1256.31,-176.97C1281.58,-163.42 1317.48,-139.09 1298.5,-118 1274.95,-91.83 1059.9,-79.32 939.04,-74.31"/>
<polygon fill="#63b8ff" stroke="#63b8ff" points="938.85,-70.8 928.72,-73.89 938.57,-77.79 938.85,-70.8"/>
</a>
</g>
</g>
<!-- Node27&#45;&gt;Node21 -->
<g id="edge48_Node000027_Node000021" class="edge">
<title>Node27&#45;&gt;Node21</title>
<g id="a_edge48_Node000027_Node000021"><a xlink:title=" ">
<path fill="none" stroke="#63b8ff" d="M1281.16,-179.64C1309.11,-173.06 1344.04,-161.35 1369.5,-141 1385.87,-127.92 1397.66,-106.81 1404.71,-91.28"/>
<polygon fill="#63b8ff" stroke="#63b8ff" points="1407.95,-92.59 1408.66,-82.02 1401.51,-89.85 1407.95,-92.59"/>
</a>
</g>
</g>
<!-- Node28&#45;&gt;Node10 -->
<g id="edge53_Node000028_Node000010" class="edge">
<title>Node28&#45;&gt;Node10</title>
<g id="a_edge53_Node000028_Node000010"><a xlink:title=" ">
<path fill="none" stroke="#63b8ff" d="M839.21,-176.98C797.57,-169.24 742.55,-157.23 695.5,-141 652.82,-126.28 606.15,-102.63 577.34,-87.07"/>
<polygon fill="#63b8ff" stroke="#63b8ff" points="578.74,-83.85 568.29,-82.13 575.39,-90 578.74,-83.85"/>
</a>
</g>
</g>
<!-- Node28&#45;&gt;Node19 -->
<g id="edge52_Node000028_Node000019" class="edge">
<title>Node28&#45;&gt;Node19</title>
<g id="a_edge52_Node000028_Node000019"><a xlink:title=" ">
<path fill="none" stroke="#63b8ff" d="M878.05,-176.91C856.42,-167.91 825.17,-154.91 801.24,-144.95"/>
<polygon fill="#63b8ff" stroke="#63b8ff" points="802.39,-141.64 791.81,-141.03 799.7,-148.1 802.39,-141.64"/>
</a>
</g>
</g>
<!-- Node28&#45;&gt;Node20 -->
<g id="edge54_Node000028_Node000020" class="edge">
<title>Node28&#45;&gt;Node20</title>
<g id="a_edge54_Node000028_Node000020"><a xlink:title=" ">
<path fill="none" stroke="#63b8ff" d="M896.56,-176.77C890.85,-167.57 882.84,-153.81 877.5,-141 870.87,-125.09 865.6,-106.25 862.13,-92.21"/>
<polygon fill="#63b8ff" stroke="#63b8ff" points="865.46,-91.05 859.75,-82.12 858.64,-92.65 865.46,-91.05"/>
</a>
</g>
</g>
<!-- Node28&#45;&gt;Node23 -->
<g id="edge51_Node000028_Node000023" class="edge">
<title>Node28&#45;&gt;Node23</title>
<g id="a_edge51_Node000028_Node000023"><a xlink:title=" ">
<path fill="none" stroke="#63b8ff" d="M838.53,-176.98C776.3,-166.9 682.78,-151.76 619.55,-141.52"/>
<polygon fill="#63b8ff" stroke="#63b8ff" points="620.1,-138.06 609.67,-139.92 618.98,-144.97 620.1,-138.06"/>
</a>
</g>
</g>
</g>
</svg>

<g id="navigator" transform="translate(0 0)" fill="#404254">
  <rect fill="#f2f5e9" fill-opacity="0.5" stroke="#606060" stroke-width=".5" x="0" y="0" width="60" height="60"/>
  <use id="zoomplus" xlink:href="#zoomPlus" x="17" y="9" onmousedown="handleZoom(evt,'in')"/>
  <use id="zoomminus" xlink:href="#zoomMin" x="42" y="9" onmousedown="handleZoom(evt,'out')"/>
  <use id="reset" xlink:href="#resetDef" x="30" y="36" onmousedown="handleReset()"/>
   <use id="arrowup" xlink:href="#arrowUp" x="0" y="0" onmousedown="handlePan(0,-1)"/>
  <use id="arrowright" xlink:href="#arrowRight" x="0" y="0" onmousedown="handlePan(1,0)"/>
  <use id="arrowdown" xlink:href="#arrowDown" x="0" y="0" onmousedown="handlePan(0,1)"/>
  <use id="arrowleft" xlink:href="#arrowLeft" x="0" y="0" onmousedown="handlePan(-1,0)"/>
</g>
<svg viewBox="0 0 15 15" width="100%" height="30px" preserveAspectRatio="xMaxYMin meet">
 <g id="arrow_out" transform="scale(0.3 0.3)">
  <a xlink:href="CanComprehensiveTest_8cpp__incl_org.svg" target="_base">
   <rect id="button" ry="5" rx="5" y="6" x="6" height="38" width="38"
        fill="#f2f5e9" fill-opacity="0.5" stroke="#606060" stroke-width="1.0"/>
   <path id="arrow"
     d="M 11.500037,31.436501 C 11.940474,20.09759 22.043105,11.32322 32.158766,21.979434 L 37.068811,17.246167 C 37.068811,17.246167 37.088388,32 37.088388,32 L 22.160133,31.978069 C 22.160133,31.978069 26.997745,27.140456 26.997745,27.140456 C 18.528582,18.264221 13.291696,25.230495 11.500037,31.436501 z"
     style="fill:#404040;"/>
  </a>
 </g>
</svg>

<style type='text/css'>
<![CDATA[
[data-mouse-over-selected='false'] { opacity: 0.7; }
[data-mouse-over-selected='true']  { opacity: 1.0; }
]]>
</style>
<script type="application/ecmascript"><![CDATA[
document.addEventListener('DOMContentLoaded', (event) => {
  highlightEdges();
  highlightAdjacentNodes();
});
]]></script>
</svg>
