<?xml version="1.0" encoding="UTF-8" standalone="no"?>
<!DOCTYPE svg PUBLIC "-//W3C//DTD SVG 1.1//EN"
 "http://www.w3.org/Graphics/SVG/1.1/DTD/svg11.dtd">
<!-- Generated by graphviz version 2.43.0 (0)
 -->
<!-- Title: EspTemperature Pages: 1 -->
<svg width="494pt" height="389pt"
 viewBox="0.00 0.00 494.00 388.80" xmlns="http://www.w3.org/2000/svg" xmlns:xlink="http://www.w3.org/1999/xlink">
<g id="graph0" class="graph" transform="scale(1 1) rotate(0) translate(4 384.8)">
<title>EspTemperature</title>
<!-- Node1 -->
<g id="Node000001" class="node">
<title>Node1</title>
<g id="a_Node000001"><a xlink:title="ESP32&#45;C6 internal temperature sensor implementation.">
<polygon fill="#999999" stroke="#666666" points="486,-192.09 370,-192.09 370,-169.09 486,-169.09 486,-192.09"/>
<text text-anchor="middle" x="428" y="-176.89" font-family="Arial" font-size="14.00">EspTemperature</text>
</a>
</g>
</g>
<!-- Node2 -->
<g id="Node000002" class="node">
<title>Node2</title>
<g id="a_Node000002"><a xlink:href="classBaseTemperature.html" target="_top" xlink:title="Abstract base class for all temperature sensor implementations.">
<polygon fill="white" stroke="#666666" points="167,-356.09 43,-356.09 43,-333.09 167,-333.09 167,-356.09"/>
<text text-anchor="middle" x="105" y="-340.89" font-family="Arial" font-size="14.00">BaseTemperature</text>
</a>
</g>
</g>
<!-- Node2&#45;&gt;Node1 -->
<g id="edge1_Node000001_Node000002" class="edge">
<title>Node2&#45;&gt;Node1</title>
<g id="a_edge1_Node000001_Node000002"><a xlink:title=" ">
<path fill="none" stroke="#63b8ff" d="M144.53,-359.48C196.33,-376.81 289.16,-398.11 352,-356.59 409.91,-318.31 423.25,-225.23 426.2,-192.34"/>
<polygon fill="#63b8ff" stroke="#63b8ff" points="145.64,-356.16 135.05,-356.2 143.35,-362.78 145.64,-356.16"/>
</a>
</g>
</g>
<!-- Node2&#45;&gt;Node1 -->
<g id="edge8_Node000001_Node000002" class="edge">
<title>Node2&#45;&gt;Node1</title>
<g id="a_edge8_Node000001_Node000002"><a xlink:title=" ">
<path fill="none" stroke="#9a32cd" stroke-dasharray="5,2" d="M148.86,-329.95C172.07,-322.44 201.37,-313.63 228,-307.59 282.37,-295.24 304.7,-318.1 352,-288.59 389.57,-265.14 413.27,-215.21 422.54,-192.4"/>
<polygon fill="#9a32cd" stroke="#9a32cd" points="147.73,-326.64 139.31,-333.08 149.91,-333.29 147.73,-326.64"/>
</a>
</g>
<text text-anchor="start" x="228" y="-341.39" font-family="Arial" font-size="14.00" fill="grey"> monitoring_callback</text>
<text text-anchor="middle" x="290" y="-326.39" font-family="Arial" font-size="14.00" fill="grey">_</text>
<text text-anchor="middle" x="290" y="-311.39" font-family="Arial" font-size="14.00" fill="grey">threshold_callback_</text>
</g>
<!-- Node3 -->
<g id="Node000003" class="node">
<title>Node3</title>
<g id="a_Node000003"><a xlink:href="classPlatformMutexImpl.html" target="_top" xlink:title=" ">
<polygon fill="white" stroke="#666666" points="210,-289.59 0,-289.59 0,-251.59 210,-251.59 210,-289.59"/>
<text text-anchor="start" x="8" y="-274.39" font-family="Arial" font-size="14.00">PlatformMutexImpl&lt;</text>
<text text-anchor="middle" x="105" y="-259.39" font-family="Arial" font-size="14.00"> PlatformMutexActiveBackend &gt;</text>
</a>
</g>
</g>
<!-- Node3&#45;&gt;Node1 -->
<g id="edge2_Node000001_Node000003" class="edge">
<title>Node3&#45;&gt;Node1</title>
<g id="a_edge2_Node000001_Node000003"><a xlink:title=" ">
<path fill="none" stroke="#9a32cd" stroke-dasharray="5,2" d="M220.35,-256.72C272.48,-249.43 327.88,-240.07 352,-230.59 375.59,-221.31 399.36,-203.75 413.63,-192.11"/>
<polygon fill="#9a32cd" stroke="#9a32cd" points="219.75,-253.27 210.32,-258.1 220.7,-260.2 219.75,-253.27"/>
</a>
</g>
<text text-anchor="middle" x="290" y="-273.39" font-family="Arial" font-size="14.00" fill="grey"> mutex_</text>
<text text-anchor="middle" x="290" y="-258.39" font-family="Arial" font-size="14.00" fill="grey">s_shared_mutex_</text>
</g>
<!-- Node4 -->
<g id="Node000004" class="node">
<title>Node4</title>
<g id="a_Node000004"><a xlink:href="structesp__temp__state__t.html" target="_top" xlink:title="ESP32&#45;C6 specific temperature sensor state.">
<polygon fill="white" stroke="#666666" points="167.5,-233.09 42.5,-233.09 42.5,-210.09 167.5,-210.09 167.5,-233.09"/>
<text text-anchor="middle" x="105" y="-217.89" font-family="Arial" font-size="14.00">esp_temp_state_t</text>
</a>
</g>
</g>
<!-- Node4&#45;&gt;Node1 -->
<g id="edge3_Node000001_Node000004" class="edge">
<title>Node4&#45;&gt;Node1</title>
<g id="a_edge3_Node000001_Node000004"><a xlink:title=" ">
<path fill="none" stroke="#9a32cd" stroke-dasharray="5,2" d="M177.92,-216.96C227.13,-213.21 293.76,-206.99 352,-197.59 361.23,-196.1 371.01,-194.15 380.37,-192.11"/>
<polygon fill="#9a32cd" stroke="#9a32cd" points="177.4,-213.49 167.69,-217.73 177.92,-220.47 177.4,-213.49"/>
</a>
</g>
<text text-anchor="middle" x="290" y="-215.39" font-family="Arial" font-size="14.00" fill="grey"> esp_state_</text>
</g>
<!-- Node5 -->
<g id="Node000005" class="node">
<title>Node5</title>
<g id="a_Node000005"><a xlink:href="structesp__temp__config__t.html" target="_top" xlink:title="ESP32&#45;C6 specific temperature sensor configuration.">
<polygon fill="white" stroke="#666666" points="170.5,-192.09 39.5,-192.09 39.5,-169.09 170.5,-169.09 170.5,-192.09"/>
<text text-anchor="middle" x="105" y="-176.89" font-family="Arial" font-size="14.00">esp_temp_config_t</text>
</a>
</g>
</g>
<!-- Node5&#45;&gt;Node1 -->
<g id="edge4_Node000001_Node000005" class="edge">
<title>Node5&#45;&gt;Node1</title>
<g id="a_edge4_Node000001_Node000005"><a xlink:title=" ">
<path fill="none" stroke="#9a32cd" stroke-dasharray="5,2" d="M180.73,-180.59C238.42,-180.59 317.05,-180.59 369.79,-180.59"/>
<polygon fill="#9a32cd" stroke="#9a32cd" points="180.57,-177.09 170.57,-180.59 180.57,-184.09 180.57,-177.09"/>
</a>
</g>
<text text-anchor="middle" x="290" y="-184.39" font-family="Arial" font-size="14.00" fill="grey"> esp_config_</text>
</g>
<!-- Node6 -->
<g id="Node000006" class="node">
<title>Node6</title>
<g id="a_Node000006"><a xlink:href="structhf__temp__config__t.html" target="_top" xlink:title="Temperature sensor configuration structure.">
<polygon fill="white" stroke="#666666" points="165.5,-151.09 44.5,-151.09 44.5,-128.09 165.5,-128.09 165.5,-151.09"/>
<text text-anchor="middle" x="105" y="-135.89" font-family="Arial" font-size="14.00">hf_temp_config_t</text>
</a>
</g>
</g>
<!-- Node6&#45;&gt;Node1 -->
<g id="edge5_Node000001_Node000006" class="edge">
<title>Node6&#45;&gt;Node1</title>
<g id="a_edge5_Node000001_Node000006"><a xlink:title=" ">
<path fill="none" stroke="#9a32cd" stroke-dasharray="5,2" d="M176,-142.88C225.44,-145.93 293.1,-151.56 352,-161.59 363.26,-163.5 375.3,-166.24 386.38,-169.04"/>
<polygon fill="#9a32cd" stroke="#9a32cd" points="175.93,-139.37 165.74,-142.27 175.52,-146.36 175.93,-139.37"/>
</a>
</g>
<text text-anchor="middle" x="290" y="-165.39" font-family="Arial" font-size="14.00" fill="grey"> base_config_</text>
</g>
<!-- Node7 -->
<g id="Node000007" class="node">
<title>Node7</title>
<g id="a_Node000007"><a xlink:href="structhf__temp__statistics__t.html" target="_top" xlink:title="Temperature sensor statistics.">
<polygon fill="white" stroke="#666666" points="173.5,-110.09 36.5,-110.09 36.5,-87.09 173.5,-87.09 173.5,-110.09"/>
<text text-anchor="middle" x="105" y="-94.89" font-family="Arial" font-size="14.00">hf_temp_statistics_t</text>
</a>
</g>
</g>
<!-- Node7&#45;&gt;Node1 -->
<g id="edge6_Node000001_Node000007" class="edge">
<title>Node7&#45;&gt;Node1</title>
<g id="a_edge6_Node000001_Node000007"><a xlink:title=" ">
<path fill="none" stroke="#9a32cd" stroke-dasharray="5,2" d="M183.68,-98.01C233.3,-99.97 298.19,-106.95 352,-127.59 376.71,-137.07 400.91,-156.54 414.87,-169.06"/>
<polygon fill="#9a32cd" stroke="#9a32cd" points="183.76,-94.51 173.65,-97.67 183.53,-101.5 183.76,-94.51"/>
</a>
</g>
<text text-anchor="middle" x="290" y="-131.39" font-family="Arial" font-size="14.00" fill="grey"> statistics_</text>
</g>
<!-- Node8 -->
<g id="Node000008" class="node">
<title>Node8</title>
<g id="a_Node000008"><a xlink:href="structhf__temp__diagnostics__t.html" target="_top" xlink:title="Temperature sensor diagnostics.">
<polygon fill="white" stroke="#666666" points="181,-69.09 29,-69.09 29,-46.09 181,-46.09 181,-69.09"/>
<text text-anchor="middle" x="105" y="-53.89" font-family="Arial" font-size="14.00">hf_temp_diagnostics_t</text>
</a>
</g>
</g>
<!-- Node8&#45;&gt;Node1 -->
<g id="edge7_Node000001_Node000008" class="edge">
<title>Node8&#45;&gt;Node1</title>
<g id="a_edge7_Node000001_Node000008"><a xlink:title=" ">
<path fill="none" stroke="#9a32cd" stroke-dasharray="5,2" d="M191.22,-49.51C241.05,-48.64 303.47,-54.45 352,-81.59 388.13,-101.79 412.25,-147.38 422.06,-168.91"/>
<polygon fill="#9a32cd" stroke="#9a32cd" points="191.02,-46.01 181.12,-49.78 191.21,-53.01 191.02,-46.01"/>
</a>
</g>
<text text-anchor="middle" x="290" y="-85.39" font-family="Arial" font-size="14.00" fill="grey"> diagnostics_</text>
</g>
<!-- Node9 -->
<g id="Node000009" class="node">
<title>Node9</title>
<g id="a_Node000009"><a xlink:href="structesp__temp__range__info__t.html" target="_top" xlink:title="Temperature range information structure.">
<polygon fill="white" stroke="#666666" points="184.5,-28.09 25.5,-28.09 25.5,-5.09 184.5,-5.09 184.5,-28.09"/>
<text text-anchor="middle" x="105" y="-12.89" font-family="Arial" font-size="14.00">esp_temp_range_info_t</text>
</a>
</g>
</g>
<!-- Node9&#45;&gt;Node1 -->
<g id="edge9_Node000001_Node000009" class="edge">
<title>Node9&#45;&gt;Node1</title>
<g id="a_edge9_Node000001_Node000009"><a xlink:title=" ">
<path fill="none" stroke="#9a32cd" stroke-dasharray="5,2" d="M172.21,-3.73C225.2,2.83 299.14,3.25 352,-31.59 401.33,-64.1 419.67,-139.41 425.08,-168.67"/>
<polygon fill="#9a32cd" stroke="#9a32cd" points="171.69,-0.27 162.24,-5.07 172.62,-7.21 171.69,-0.27"/>
</a>
</g>
<text text-anchor="middle" x="290" y="-35.39" font-family="Arial" font-size="14.00" fill="grey"> RANGE_INFO</text>
</g>
</g>
</svg>
