<?xml version="1.0" encoding="UTF-8" standalone="no"?>
<!DOCTYPE svg PUBLIC "-//W3C//DTD SVG 1.1//EN"
 "http://www.w3.org/Graphics/SVG/1.1/DTD/svg11.dtd">
<!-- Generated by graphviz version 2.43.0 (0)
 -->
<!-- Title: EspWifi Pages: 1 -->
<svg width="395pt" height="213pt"
 viewBox="0.00 0.00 395.00 213.21" xmlns="http://www.w3.org/2000/svg" xmlns:xlink="http://www.w3.org/1999/xlink">

<svg id="main" version="1.1" xmlns="http://www.w3.org/2000/svg" xmlns:xlink="http://www.w3.org/1999/xlink" xml:space="preserve" onload="init(evt)">
<style type="text/css"><![CDATA[
.node, .edge {opacity: 0.7;}
.node.selected, .edge.selected {opacity: 1;}
.edge:hover path { stroke: red; }
.edge:hover polygon { stroke: red; fill: red; }
]]></style>
<script type="application/ecmascript" xlink:href="svg.min.js"/>
<svg id="graph" class="graph">
<g id="graph0" class="graph" transform="scale(1 1) rotate(0) translate(4 209.21)">
<title>EspWifi</title>
<!-- Node1 -->
<g id="Node000001" class="node">
<title>Node1</title>
<g id="a_Node000001"><a xlink:title="Advanced ESP32 implementation of unified BaseWifi with ESP&#45;IDF v5.5+ features.">
<polygon fill="#999999" stroke="#666666" points="387,-105 324,-105 324,-82 387,-82 387,-105"/>
<text text-anchor="middle" x="355.5" y="-89.8" font-family="Arial" font-size="14.00">EspWifi</text>
</a>
</g>
</g>
<!-- Node2 -->
<g id="Node000002" class="node">
<title>Node2</title>
<g id="a_Node000002"><a xlink:href="classBaseWifi.html" target="_top" xlink:title="Abstract base class for WiFi functionality.">
<polygon fill="white" stroke="#666666" points="116.5,-204 45.5,-204 45.5,-181 116.5,-181 116.5,-204"/>
<text text-anchor="middle" x="81" y="-188.8" font-family="Arial" font-size="14.00">BaseWifi</text>
</a>
</g>
</g>
<!-- Node2&#45;&gt;Node1 -->
<g id="edge1_Node000001_Node000002" class="edge">
<title>Node2&#45;&gt;Node1</title>
<g id="a_edge1_Node000001_Node000002"><a xlink:title=" ">
<path fill="none" stroke="#63b8ff" d="M126.99,-200.88C175.08,-207.35 251.72,-210.28 306,-176.5 332.36,-160.1 346.02,-123.72 351.52,-105.04"/>
<polygon fill="#63b8ff" stroke="#63b8ff" points="127.28,-197.38 116.88,-199.41 126.28,-204.31 127.28,-197.38"/>
</a>
</g>
</g>
<!-- Node3 -->
<g id="Node000003" class="node">
<title>Node3</title>
<g id="a_Node000003"><a xlink:href="classRtosMutex.html" target="_top" xlink:title=" ">
<polygon fill="white" stroke="#666666" points="122,-146 40,-146 40,-123 122,-123 122,-146"/>
<text text-anchor="middle" x="81" y="-130.8" font-family="Arial" font-size="14.00">RtosMutex</text>
</a>
</g>
</g>
<!-- Node3&#45;&gt;Node1 -->
<g id="edge2_Node000001_Node000003" class="edge">
<title>Node3&#45;&gt;Node1</title>
<g id="a_edge2_Node000001_Node000003"><a xlink:title=" ">
<path fill="none" stroke="#9a32cd" stroke-dasharray="5,2" d="M132.36,-132.42C178.12,-129.75 247.24,-123.76 306,-110.5 312.27,-109.09 318.84,-107.12 325.06,-105.03"/>
<polygon fill="#9a32cd" stroke="#9a32cd" points="131.9,-128.94 122.11,-132.99 132.28,-135.93 131.9,-128.94"/>
</a>
</g>
<text text-anchor="middle" x="243" y="-161.3" font-family="Arial" font-size="14.00" fill="grey"> m_event_mutex</text>
<text text-anchor="middle" x="243" y="-146.3" font-family="Arial" font-size="14.00" fill="grey">m_mutex</text>
<text text-anchor="middle" x="243" y="-131.3" font-family="Arial" font-size="14.00" fill="grey">m_scan_mutex</text>
</g>
<!-- Node4 -->
<g id="Node000004" class="node">
<title>Node4</title>
<g id="a_Node000004"><a xlink:href="structhf__wifi__station__config__t.html" target="_top" xlink:title="WiFi station configuration structure.">
<polygon fill="white" stroke="#666666" points="159.5,-105 2.5,-105 2.5,-82 159.5,-82 159.5,-105"/>
<text text-anchor="middle" x="81" y="-89.8" font-family="Arial" font-size="14.00">hf_wifi_station_config_t</text>
</a>
</g>
</g>
<!-- Node4&#45;&gt;Node1 -->
<g id="edge3_Node000001_Node000004" class="edge">
<title>Node4&#45;&gt;Node1</title>
<g id="a_edge3_Node000001_Node000004"><a xlink:title=" ">
<path fill="none" stroke="#9a32cd" stroke-dasharray="5,2" d="M169.8,-93.5C222.68,-93.5 286.76,-93.5 323.86,-93.5"/>
<polygon fill="#9a32cd" stroke="#9a32cd" points="169.72,-90 159.72,-93.5 169.72,-97 169.72,-90"/>
</a>
</g>
<text text-anchor="middle" x="243" y="-97.3" font-family="Arial" font-size="14.00" fill="grey"> m_sta_config</text>
</g>
<!-- Node5 -->
<g id="Node000005" class="node">
<title>Node5</title>
<g id="a_Node000005"><a xlink:href="structhf__wifi__ap__config__t.html" target="_top" xlink:title="WiFi Access Point configuration structure.">
<polygon fill="white" stroke="#666666" points="147,-64 15,-64 15,-41 147,-41 147,-64"/>
<text text-anchor="middle" x="81" y="-48.8" font-family="Arial" font-size="14.00">hf_wifi_ap_config_t</text>
</a>
</g>
</g>
<!-- Node5&#45;&gt;Node1 -->
<g id="edge4_Node000001_Node000005" class="edge">
<title>Node5&#45;&gt;Node1</title>
<g id="a_edge4_Node000001_Node000005"><a xlink:title=" ">
<path fill="none" stroke="#9a32cd" stroke-dasharray="5,2" d="M157.5,-54.74C201.34,-57.32 257.35,-62.82 306,-74.5 313.65,-76.34 321.7,-79.12 329,-81.99"/>
<polygon fill="#9a32cd" stroke="#9a32cd" points="157.66,-51.24 147.48,-54.19 157.27,-58.23 157.66,-51.24"/>
</a>
</g>
<text text-anchor="middle" x="243" y="-78.3" font-family="Arial" font-size="14.00" fill="grey"> m_ap_config</text>
</g>
<!-- Node6 -->
<g id="Node000006" class="node">
<title>Node6</title>
<g id="a_Node000006"><a xlink:href="structEspWifiAdvancedConfig.html" target="_top" xlink:title="ESP32&#45;specific WiFi configuration extensions.">
<polygon fill="white" stroke="#666666" points="162,-23 0,-23 0,0 162,0 162,-23"/>
<text text-anchor="middle" x="81" y="-7.8" font-family="Arial" font-size="14.00">EspWifiAdvancedConfig</text>
</a>
</g>
</g>
<!-- Node6&#45;&gt;Node1 -->
<g id="edge5_Node000001_Node000006" class="edge">
<title>Node6&#45;&gt;Node1</title>
<g id="a_edge5_Node000001_Node000006"><a xlink:title=" ">
<path fill="none" stroke="#9a32cd" stroke-dasharray="5,2" d="M172.21,-7.22C214.94,-8.78 265.39,-16.03 306,-37.5 325.1,-47.6 340.02,-68.56 348.02,-81.78"/>
<polygon fill="#9a32cd" stroke="#9a32cd" points="172.18,-3.72 162.09,-6.96 172,-10.72 172.18,-3.72"/>
</a>
</g>
<text text-anchor="middle" x="243" y="-41.3" font-family="Arial" font-size="14.00" fill="grey"> m_advanced_config</text>
</g>
</g>
</svg>
</svg>

<style type='text/css'>
<![CDATA[
[data-mouse-over-selected='false'] { opacity: 0.7; }
[data-mouse-over-selected='true']  { opacity: 1.0; }
]]>
</style>
<script type="application/ecmascript"><![CDATA[
document.addEventListener('DOMContentLoaded', (event) => {
  highlightEdges();
  highlightAdjacentNodes();
});
]]></script>
</svg>
