<?xml version="1.0" encoding="UTF-8" standalone="no"?>
<!DOCTYPE svg PUBLIC "-//W3C//DTD SVG 1.1//EN"
 "http://www.w3.org/Graphics/SVG/1.1/DTD/svg11.dtd">
<!-- Generated by graphviz version 2.43.0 (0)
 -->
<!-- Title: EspSpiDevice Pages: 1 -->
<svg width="734pt" height="179pt"
 viewBox="0.00 0.00 733.50 179.00" xmlns="http://www.w3.org/2000/svg" xmlns:xlink="http://www.w3.org/1999/xlink">
<g id="graph0" class="graph" transform="scale(1 1) rotate(0) translate(4 175)">
<title>EspSpiDevice</title>
<!-- Node1 -->
<g id="Node000001" class="node">
<title>Node1</title>
<g id="a_Node000001"><a xlink:title="Represents a single SPI device on a bus (CS/config/handle).">
<polygon fill="#999999" stroke="#666666" points="508,-23 407,-23 407,0 508,0 508,-23"/>
<text text-anchor="middle" x="457.5" y="-7.8" font-family="Arial" font-size="14.00">EspSpiDevice</text>
</a>
</g>
</g>
<!-- Node2 -->
<g id="Node000002" class="node">
<title>Node2</title>
<g id="a_Node000002"><a xlink:href="classBaseSpi.html" target="_top" xlink:title="Abstract base class for SPI device implementations.">
<polygon fill="white" stroke="#666666" points="244,-97 177,-97 177,-74 244,-74 244,-97"/>
<text text-anchor="middle" x="210.5" y="-81.8" font-family="Arial" font-size="14.00">BaseSpi</text>
</a>
</g>
</g>
<!-- Node2&#45;&gt;Node1 -->
<g id="edge1_Node000001_Node000002" class="edge">
<title>Node2&#45;&gt;Node1</title>
<g id="a_edge1_Node000001_Node000002"><a xlink:title=" ">
<path fill="none" stroke="#63b8ff" d="M253.76,-71.89C301.25,-58.05 376.66,-36.06 421.19,-23.08"/>
<polygon fill="#63b8ff" stroke="#63b8ff" points="252.69,-68.56 244.07,-74.71 254.65,-75.28 252.69,-68.56"/>
</a>
</g>
</g>
<!-- Node3 -->
<g id="Node000003" class="node">
<title>Node3</title>
<g id="a_Node000003"><a xlink:href="structhf__spi__statistics__t.html" target="_top" xlink:title="SPI operation statistics.">
<polygon fill="white" stroke="#666666" points="123,-171 0,-171 0,-148 123,-148 123,-171"/>
<text text-anchor="middle" x="61.5" y="-155.8" font-family="Arial" font-size="14.00">hf_spi_statistics_t</text>
</a>
</g>
</g>
<!-- Node3&#45;&gt;Node2 -->
<g id="edge2_Node000002_Node000003" class="edge">
<title>Node3&#45;&gt;Node2</title>
<g id="a_edge2_Node000002_Node000003"><a xlink:title=" ">
<path fill="none" stroke="#9a32cd" stroke-dasharray="5,2" d="M88.95,-142.91C104.48,-134.31 124.36,-123.65 142.5,-115 155.9,-108.61 171.12,-102.16 183.76,-97.02"/>
<polygon fill="#9a32cd" stroke="#9a32cd" points="86.92,-140.03 79.9,-147.96 90.34,-146.14 86.92,-140.03"/>
</a>
</g>
<text text-anchor="middle" x="174.5" y="-118.8" font-family="Arial" font-size="14.00" fill="grey"> statistics_</text>
</g>
<!-- Node4 -->
<g id="Node000004" class="node">
<title>Node4</title>
<g id="a_Node000004"><a xlink:href="structhf__spi__diagnostics__t.html" target="_top" xlink:title="SPI diagnostic information.">
<polygon fill="white" stroke="#666666" points="280,-171 141,-171 141,-148 280,-148 280,-171"/>
<text text-anchor="middle" x="210.5" y="-155.8" font-family="Arial" font-size="14.00">hf_spi_diagnostics_t</text>
</a>
</g>
</g>
<!-- Node4&#45;&gt;Node2 -->
<g id="edge3_Node000002_Node000004" class="edge">
<title>Node4&#45;&gt;Node2</title>
<g id="a_edge3_Node000002_Node000004"><a xlink:title=" ">
<path fill="none" stroke="#9a32cd" stroke-dasharray="5,2" d="M210.5,-137.73C210.5,-124.47 210.5,-107.82 210.5,-97.17"/>
<polygon fill="#9a32cd" stroke="#9a32cd" points="207,-137.88 210.5,-147.88 214,-137.88 207,-137.88"/>
</a>
</g>
<text text-anchor="middle" x="250" y="-118.8" font-family="Arial" font-size="14.00" fill="grey"> diagnostics_</text>
</g>
<!-- Node5 -->
<g id="Node000005" class="node">
<title>Node5</title>
<g id="a_Node000005"><a xlink:href="classEspSpiBus.html" target="_top" xlink:title="Manages a single SPI bus (host). Handles bus init/deinit and device creation.">
<polygon fill="white" stroke="#666666" points="452,-97 369,-97 369,-74 452,-74 452,-97"/>
<text text-anchor="middle" x="410.5" y="-81.8" font-family="Arial" font-size="14.00">EspSpiBus</text>
</a>
</g>
</g>
<!-- Node5&#45;&gt;Node1 -->
<g id="edge4_Node000001_Node000005" class="edge">
<title>Node5&#45;&gt;Node1</title>
<g id="a_edge4_Node000001_Node000005"><a xlink:title=" ">
<path fill="none" stroke="#9a32cd" stroke-dasharray="5,2" d="M407.01,-63.77C406.72,-56.17 407.63,-47.77 411.5,-41 415.88,-33.33 423.25,-27.46 430.82,-23.08"/>
<polygon fill="#9a32cd" stroke="#9a32cd" points="403.53,-64.14 408.04,-73.73 410.49,-63.42 403.53,-64.14"/>
</a>
</g>
<text text-anchor="middle" x="451" y="-44.8" font-family="Arial" font-size="14.00" fill="grey"> parent_bus_</text>
</g>
<!-- Node6 -->
<g id="Node000006" class="node">
<title>Node6</title>
<g id="a_Node000006"><a xlink:href="structhf__spi__bus__config__t.html" target="_top" xlink:title="Platform&#45;agnostic SPI bus configuration structure for ESP32.">
<polygon fill="white" stroke="#666666" points="435,-171 298,-171 298,-148 435,-148 435,-171"/>
<text text-anchor="middle" x="366.5" y="-155.8" font-family="Arial" font-size="14.00">hf_spi_bus_config_t</text>
</a>
</g>
</g>
<!-- Node6&#45;&gt;Node5 -->
<g id="edge5_Node000005_Node000006" class="edge">
<title>Node6&#45;&gt;Node5</title>
<g id="a_edge5_Node000005_Node000006"><a xlink:title=" ">
<path fill="none" stroke="#9a32cd" stroke-dasharray="5,2" d="M364.31,-137.53C364.44,-130.01 365.68,-121.72 369.5,-115 373.69,-107.61 380.68,-101.7 387.72,-97.22"/>
<polygon fill="#9a32cd" stroke="#9a32cd" points="360.83,-137.92 364.77,-147.75 367.82,-137.6 360.83,-137.92"/>
</a>
</g>
<text text-anchor="middle" x="393.5" y="-118.8" font-family="Arial" font-size="14.00" fill="grey"> config_</text>
</g>
<!-- Node7 -->
<g id="Node000007" class="node">
<title>Node7</title>
<g id="a_Node000007"><a xlink:href="classPlatformMutex.html" target="_top" xlink:title=" ">
<polygon fill="white" stroke="#666666" points="558,-171 453,-171 453,-148 558,-148 558,-171"/>
<text text-anchor="middle" x="505.5" y="-155.8" font-family="Arial" font-size="14.00">PlatformMutex</text>
</a>
</g>
</g>
<!-- Node7&#45;&gt;Node1 -->
<g id="edge8_Node000001_Node000007" class="edge">
<title>Node7&#45;&gt;Node1</title>
<g id="a_edge8_Node000001_Node000007"><a xlink:title=" ">
<path fill="none" stroke="#9a32cd" stroke-dasharray="5,2" d="M507.17,-137.67C508.21,-113.07 506.95,-71.64 490.5,-41 486.7,-33.93 480.39,-27.83 474.3,-23.11"/>
<polygon fill="#9a32cd" stroke="#9a32cd" points="503.68,-137.49 506.58,-147.68 510.67,-137.91 503.68,-137.49"/>
</a>
</g>
<text text-anchor="middle" x="530" y="-81.8" font-family="Arial" font-size="14.00" fill="grey"> mutex_</text>
</g>
<!-- Node7&#45;&gt;Node5 -->
<g id="edge6_Node000005_Node000007" class="edge">
<title>Node7&#45;&gt;Node5</title>
<g id="a_edge6_Node000005_Node000007"><a xlink:title=" ">
<path fill="none" stroke="#9a32cd" stroke-dasharray="5,2" d="M463.82,-143.83C455.96,-140.02 448.13,-135.42 441.5,-130 430.3,-120.84 421.24,-106.69 415.87,-97.04"/>
<polygon fill="#9a32cd" stroke="#9a32cd" points="462.45,-147.05 473,-147.95 465.31,-140.66 462.45,-147.05"/>
</a>
</g>
<text text-anchor="middle" x="466" y="-118.8" font-family="Arial" font-size="14.00" fill="grey"> mutex_</text>
</g>
<!-- Node8 -->
<g id="Node000008" class="node">
<title>Node8</title>
<g id="a_Node000008"><a xlink:href="structhf__spi__device__config__t.html" target="_top" xlink:title="Platform&#45;agnostic SPI device configuration structure for ESP32.">
<polygon fill="white" stroke="#666666" points="725.5,-97 571.5,-97 571.5,-74 725.5,-74 725.5,-97"/>
<text text-anchor="middle" x="648.5" y="-81.8" font-family="Arial" font-size="14.00">hf_spi_device_config_t</text>
</a>
</g>
</g>
<!-- Node8&#45;&gt;Node1 -->
<g id="edge7_Node000001_Node000008" class="edge">
<title>Node8&#45;&gt;Node1</title>
<g id="a_edge7_Node000001_Node000008"><a xlink:title=" ">
<path fill="none" stroke="#9a32cd" stroke-dasharray="5,2" d="M610.9,-70.33C574.03,-56.43 518.64,-35.55 485.49,-23.05"/>
<polygon fill="#9a32cd" stroke="#9a32cd" points="609.73,-73.62 620.32,-73.88 612.19,-67.07 609.73,-73.62"/>
</a>
</g>
<text text-anchor="middle" x="593.5" y="-44.8" font-family="Arial" font-size="14.00" fill="grey"> config_</text>
</g>
</g>
</svg>
