<?xml version="1.0" encoding="UTF-8" standalone="no"?>
<!DOCTYPE svg PUBLIC "-//W3C//DTD SVG 1.1//EN"
 "http://www.w3.org/Graphics/SVG/1.1/DTD/svg11.dtd">
<!-- Generated by graphviz version 2.43.0 (0)
 -->
<!-- Title: EspSpiDevice Pages: 1 -->
<svg width="731pt" height="179pt"
 viewBox="0.00 0.00 730.50 179.00" xmlns="http://www.w3.org/2000/svg" xmlns:xlink="http://www.w3.org/1999/xlink">
<g id="graph0" class="graph" transform="scale(1 1) rotate(0) translate(4 175)">
<title>EspSpiDevice</title>
<!-- Node1 -->
<g id="Node000001" class="node">
<title>Node1</title>
<g id="a_Node000001"><a xlink:title="Represents a single SPI device on a bus (CS/config/handle).">
<polygon fill="#999999" stroke="#666666" points="505,-23 404,-23 404,0 505,0 505,-23"/>
<text text-anchor="middle" x="454.5" y="-7.8" font-family="Arial" font-size="14.00">EspSpiDevice</text>
</a>
</g>
</g>
<!-- Node2 -->
<g id="Node000002" class="node">
<title>Node2</title>
<g id="a_Node000002"><a xlink:href="classBaseSpi.html" target="_top" xlink:title="Abstract base class for SPI device implementations.">
<polygon fill="white" stroke="#666666" points="244,-97 177,-97 177,-74 244,-74 244,-97"/>
<text text-anchor="middle" x="210.5" y="-81.8" font-family="Arial" font-size="14.00">BaseSpi</text>
</a>
</g>
</g>
<!-- Node2&#45;&gt;Node1 -->
<g id="edge1_Node000001_Node000002" class="edge">
<title>Node2&#45;&gt;Node1</title>
<g id="a_edge1_Node000001_Node000002"><a xlink:title=" ">
<path fill="none" stroke="#63b8ff" d="M253.77,-71.73C300.77,-57.86 374.99,-35.96 418.8,-23.03"/>
<polygon fill="#63b8ff" stroke="#63b8ff" points="252.77,-68.38 244.17,-74.56 254.75,-75.09 252.77,-68.38"/>
</a>
</g>
</g>
<!-- Node3 -->
<g id="Node000003" class="node">
<title>Node3</title>
<g id="a_Node000003"><a xlink:href="structhf__spi__statistics__t.html" target="_top" xlink:title="SPI operation statistics.">
<polygon fill="white" stroke="#666666" points="123,-171 0,-171 0,-148 123,-148 123,-171"/>
<text text-anchor="middle" x="61.5" y="-155.8" font-family="Arial" font-size="14.00">hf_spi_statistics_t</text>
</a>
</g>
</g>
<!-- Node3&#45;&gt;Node2 -->
<g id="edge2_Node000002_Node000003" class="edge">
<title>Node3&#45;&gt;Node2</title>
<g id="a_edge2_Node000002_Node000003"><a xlink:title=" ">
<path fill="none" stroke="#9a32cd" stroke-dasharray="5,2" d="M88.95,-142.91C104.48,-134.31 124.36,-123.65 142.5,-115 155.9,-108.61 171.12,-102.16 183.76,-97.02"/>
<polygon fill="#9a32cd" stroke="#9a32cd" points="86.92,-140.03 79.9,-147.96 90.34,-146.14 86.92,-140.03"/>
</a>
</g>
<text text-anchor="middle" x="174.5" y="-118.8" font-family="Arial" font-size="14.00" fill="grey"> statistics_</text>
</g>
<!-- Node4 -->
<g id="Node000004" class="node">
<title>Node4</title>
<g id="a_Node000004"><a xlink:href="structhf__spi__diagnostics__t.html" target="_top" xlink:title="SPI diagnostic information.">
<polygon fill="white" stroke="#666666" points="280,-171 141,-171 141,-148 280,-148 280,-171"/>
<text text-anchor="middle" x="210.5" y="-155.8" font-family="Arial" font-size="14.00">hf_spi_diagnostics_t</text>
</a>
</g>
</g>
<!-- Node4&#45;&gt;Node2 -->
<g id="edge3_Node000002_Node000004" class="edge">
<title>Node4&#45;&gt;Node2</title>
<g id="a_edge3_Node000002_Node000004"><a xlink:title=" ">
<path fill="none" stroke="#9a32cd" stroke-dasharray="5,2" d="M210.5,-137.73C210.5,-124.47 210.5,-107.82 210.5,-97.17"/>
<polygon fill="#9a32cd" stroke="#9a32cd" points="207,-137.88 210.5,-147.88 214,-137.88 207,-137.88"/>
</a>
</g>
<text text-anchor="middle" x="250" y="-118.8" font-family="Arial" font-size="14.00" fill="grey"> diagnostics_</text>
</g>
<!-- Node5 -->
<g id="Node000005" class="node">
<title>Node5</title>
<g id="a_Node000005"><a xlink:href="classEspSpiBus.html" target="_top" xlink:title="Manages a single SPI bus (host). Handles bus init/deinit and device creation.">
<polygon fill="white" stroke="#666666" points="449,-97 366,-97 366,-74 449,-74 449,-97"/>
<text text-anchor="middle" x="407.5" y="-81.8" font-family="Arial" font-size="14.00">EspSpiBus</text>
</a>
</g>
</g>
<!-- Node5&#45;&gt;Node1 -->
<g id="edge4_Node000001_Node000005" class="edge">
<title>Node5&#45;&gt;Node1</title>
<g id="a_edge4_Node000001_Node000005"><a xlink:title=" ">
<path fill="none" stroke="#9a32cd" stroke-dasharray="5,2" d="M404.01,-63.77C403.72,-56.17 404.63,-47.77 408.5,-41 412.88,-33.33 420.25,-27.46 427.82,-23.08"/>
<polygon fill="#9a32cd" stroke="#9a32cd" points="400.53,-64.14 405.04,-73.73 407.49,-63.42 400.53,-64.14"/>
</a>
</g>
<text text-anchor="middle" x="448" y="-44.8" font-family="Arial" font-size="14.00" fill="grey"> parent_bus_</text>
</g>
<!-- Node6 -->
<g id="Node000006" class="node">
<title>Node6</title>
<g id="a_Node000006"><a xlink:href="structhf__spi__bus__config__t.html" target="_top" xlink:title="Platform&#45;agnostic SPI bus configuration structure for ESP32.">
<polygon fill="white" stroke="#666666" points="435,-171 298,-171 298,-148 435,-148 435,-171"/>
<text text-anchor="middle" x="366.5" y="-155.8" font-family="Arial" font-size="14.00">hf_spi_bus_config_t</text>
</a>
</g>
</g>
<!-- Node6&#45;&gt;Node5 -->
<g id="edge5_Node000005_Node000006" class="edge">
<title>Node6&#45;&gt;Node5</title>
<g id="a_edge5_Node000005_Node000006"><a xlink:title=" ">
<path fill="none" stroke="#9a32cd" stroke-dasharray="5,2" d="M363.23,-137.63C363,-130.12 363.89,-121.82 367.5,-115 371.41,-107.62 378.19,-101.71 385.07,-97.23"/>
<polygon fill="#9a32cd" stroke="#9a32cd" points="359.77,-138.19 364.2,-147.82 366.74,-137.53 359.77,-138.19"/>
</a>
</g>
<text text-anchor="middle" x="391.5" y="-118.8" font-family="Arial" font-size="14.00" fill="grey"> config_</text>
</g>
<!-- Node7 -->
<g id="Node000007" class="node">
<title>Node7</title>
<g id="a_Node000007"><a xlink:href="classRtosMutex.html" target="_top" xlink:title=" ">
<polygon fill="white" stroke="#666666" points="539.5,-171 457.5,-171 457.5,-148 539.5,-148 539.5,-171"/>
<text text-anchor="middle" x="498.5" y="-155.8" font-family="Arial" font-size="14.00">RtosMutex</text>
</a>
</g>
</g>
<!-- Node7&#45;&gt;Node1 -->
<g id="edge8_Node000001_Node000007" class="edge">
<title>Node7&#45;&gt;Node1</title>
<g id="a_edge8_Node000001_Node000007"><a xlink:title=" ">
<path fill="none" stroke="#9a32cd" stroke-dasharray="5,2" d="M501.04,-137.72C503.08,-113.18 503.37,-71.8 487.5,-41 483.82,-33.87 477.53,-27.76 471.43,-23.04"/>
<polygon fill="#9a32cd" stroke="#9a32cd" points="497.56,-137.41 500.04,-147.71 504.52,-138.11 497.56,-137.41"/>
</a>
</g>
<text text-anchor="middle" x="525" y="-81.8" font-family="Arial" font-size="14.00" fill="grey"> mutex_</text>
</g>
<!-- Node7&#45;&gt;Node5 -->
<g id="edge6_Node000005_Node000007" class="edge">
<title>Node7&#45;&gt;Node5</title>
<g id="a_edge6_Node000005_Node000007"><a xlink:title=" ">
<path fill="none" stroke="#9a32cd" stroke-dasharray="5,2" d="M459.4,-143.49C452.04,-139.71 444.71,-135.21 438.5,-130 427.55,-120.83 418.56,-106.95 413.13,-97.35"/>
<polygon fill="#9a32cd" stroke="#9a32cd" points="458.13,-146.76 468.66,-147.9 461.14,-140.44 458.13,-146.76"/>
</a>
</g>
<text text-anchor="middle" x="463" y="-118.8" font-family="Arial" font-size="14.00" fill="grey"> mutex_</text>
</g>
<!-- Node8 -->
<g id="Node000008" class="node">
<title>Node8</title>
<g id="a_Node000008"><a xlink:href="structhf__spi__device__config__t.html" target="_top" xlink:title="Platform&#45;agnostic SPI device configuration structure for ESP32.">
<polygon fill="white" stroke="#666666" points="722.5,-97 568.5,-97 568.5,-74 722.5,-74 722.5,-97"/>
<text text-anchor="middle" x="645.5" y="-81.8" font-family="Arial" font-size="14.00">hf_spi_device_config_t</text>
</a>
</g>
</g>
<!-- Node8&#45;&gt;Node1 -->
<g id="edge7_Node000001_Node000008" class="edge">
<title>Node8&#45;&gt;Node1</title>
<g id="a_edge7_Node000001_Node000008"><a xlink:title=" ">
<path fill="none" stroke="#9a32cd" stroke-dasharray="5,2" d="M607.9,-70.33C571.03,-56.43 515.64,-35.55 482.49,-23.05"/>
<polygon fill="#9a32cd" stroke="#9a32cd" points="606.73,-73.62 617.32,-73.88 609.19,-67.07 606.73,-73.62"/>
</a>
</g>
<text text-anchor="middle" x="590.5" y="-44.8" font-family="Arial" font-size="14.00" fill="grey"> config_</text>
</g>
</g>
</svg>
