<?xml version="1.0" encoding="UTF-8" standalone="no"?>
<!DOCTYPE svg PUBLIC "-//W3C//DTD SVG 1.1//EN"
 "http://www.w3.org/Graphics/SVG/1.1/DTD/svg11.dtd">
<!-- Generated by graphviz version 2.43.0 (0)
 -->
<!-- Title: BasePwm Pages: 1 -->
<svg width="170pt" height="90pt"
 viewBox="0.00 0.00 169.50 90.00" xmlns="http://www.w3.org/2000/svg" xmlns:xlink="http://www.w3.org/1999/xlink">
<g id="graph0" class="graph" transform="scale(1 1) rotate(0) translate(4 86)">
<title>BasePwm</title>
<!-- Node1 -->
<g id="Node000001" class="node">
<title>Node1</title>
<g id="a_Node000001"><a xlink:title="Abstract base class for PWM implementations.">
<polygon fill="#999999" stroke="#666666" points="119.5,-82 41.5,-82 41.5,-59 119.5,-59 119.5,-82"/>
<text text-anchor="middle" x="80.5" y="-66.8" font-family="Arial" font-size="14.00">BasePwm</text>
</a>
</g>
</g>
<!-- Node2 -->
<g id="Node000002" class="node">
<title>Node2</title>
<g id="a_Node000002"><a xlink:href="classEspPwm.html" target="_top" xlink:title="ESP32 PWM implementation using LEDC peripheral with comprehensive ESP32 variant support.">
<polygon fill="white" stroke="#666666" points="71,-23 0,-23 0,0 71,0 71,-23"/>
<text text-anchor="middle" x="35.5" y="-7.8" font-family="Arial" font-size="14.00">EspPwm</text>
</a>
</g>
</g>
<!-- Node1&#45;&gt;Node2 -->
<g id="edge1_Node000001_Node000002" class="edge">
<title>Node1&#45;&gt;Node2</title>
<g id="a_edge1_Node000001_Node000002"><a xlink:title=" ">
<path fill="none" stroke="#63b8ff" d="M65.82,-50.91C58.57,-41.72 50.08,-30.96 43.93,-23.17"/>
<polygon fill="#63b8ff" stroke="#63b8ff" points="63.09,-53.1 72.04,-58.78 68.59,-48.76 63.09,-53.1"/>
</a>
</g>
</g>
<!-- Node3 -->
<g id="Node000003" class="node">
<title>Node3</title>
<g id="a_Node000003"><a xlink:href="classStmPwm.html" target="_top" xlink:title="STM32 PWM implementation.">
<polygon fill="white" stroke="#666666" points="161.5,-23 89.5,-23 89.5,0 161.5,0 161.5,-23"/>
<text text-anchor="middle" x="125.5" y="-7.8" font-family="Arial" font-size="14.00">StmPwm</text>
</a>
</g>
</g>
<!-- Node1&#45;&gt;Node3 -->
<g id="edge2_Node000001_Node000003" class="edge">
<title>Node1&#45;&gt;Node3</title>
<g id="a_edge2_Node000001_Node000003"><a xlink:title=" ">
<path fill="none" stroke="#63b8ff" d="M95.18,-50.91C102.43,-41.72 110.92,-30.96 117.07,-23.17"/>
<polygon fill="#63b8ff" stroke="#63b8ff" points="92.41,-48.76 88.96,-58.78 97.91,-53.1 92.41,-48.76"/>
</a>
</g>
</g>
</g>
</svg>
