<?xml version="1.0" encoding="UTF-8" standalone="no"?>
<!DOCTYPE svg PUBLIC "-//W3C//DTD SVG 1.1//EN"
 "http://www.w3.org/Graphics/SVG/1.1/DTD/svg11.dtd">
<!-- Generated by graphviz version 2.43.0 (0)
 -->
<!-- Title: EspPio Pages: 1 -->
<svg width="654pt" height="185pt"
 viewBox="0.00 0.00 654.00 185.00" xmlns="http://www.w3.org/2000/svg" xmlns:xlink="http://www.w3.org/1999/xlink">
<g id="graph0" class="graph" transform="scale(1 1) rotate(0) translate(4 181)">
<title>EspPio</title>
<!-- Node1 -->
<g id="Node000001" class="node">
<title>Node1</title>
<g id="a_Node000001"><a xlink:title="ESP32C6 RMT&#45;based Programmable IO Channel implementation with advanced ESP&#45;IDF v5....">
<polygon fill="#999999" stroke="#666666" points="646,-107.5 587,-107.5 587,-84.5 646,-84.5 646,-107.5"/>
<text text-anchor="middle" x="616.5" y="-92.3" font-family="Arial" font-size="14.00">EspPio</text>
</a>
</g>
</g>
<!-- Node2 -->
<g id="Node000002" class="node">
<title>Node2</title>
<g id="a_Node000002"><a xlink:href="classBasePio.html" target="_top" xlink:title="Abstract base class for Programmable IO Channel implementations.">
<polygon fill="white" stroke="#666666" points="393.5,-130.5 326.5,-130.5 326.5,-107.5 393.5,-107.5 393.5,-130.5"/>
<text text-anchor="middle" x="360" y="-115.3" font-family="Arial" font-size="14.00">BasePio</text>
</a>
</g>
</g>
<!-- Node2&#45;&gt;Node1 -->
<g id="edge1_Node000001_Node000002" class="edge">
<title>Node2&#45;&gt;Node1</title>
<g id="a_edge1_Node000001_Node000002"><a xlink:title=" ">
<path fill="none" stroke="#63b8ff" d="M403.99,-115.11C456.03,-110.41 542.21,-102.62 586.8,-98.59"/>
<polygon fill="#63b8ff" stroke="#63b8ff" points="403.39,-111.65 393.75,-116.04 404.02,-118.63 403.39,-111.65"/>
</a>
</g>
</g>
<!-- Node3 -->
<g id="Node000003" class="node">
<title>Node3</title>
<g id="a_Node000003"><a xlink:href="structhf__pio__statistics__t.html" target="_top" xlink:title="PIO operation statistics.">
<polygon fill="white" stroke="#666666" points="132,-165.5 8,-165.5 8,-142.5 132,-142.5 132,-165.5"/>
<text text-anchor="middle" x="70" y="-150.3" font-family="Arial" font-size="14.00">hf_pio_statistics_t</text>
</a>
</g>
</g>
<!-- Node3&#45;&gt;Node1 -->
<g id="edge5_Node000001_Node000003" class="edge">
<title>Node3&#45;&gt;Node1</title>
<g id="a_edge5_Node000001_Node000003"><a xlink:title=" ">
<path fill="none" stroke="#9a32cd" stroke-dasharray="5,2" d="M142.42,-160.21C147.69,-160.53 152.93,-160.8 158,-161 294.65,-166.49 329.87,-161.08 465,-140 511.77,-132.7 524.08,-131.93 569,-117 576.73,-114.43 584.91,-110.99 592.22,-107.65"/>
<polygon fill="#9a32cd" stroke="#9a32cd" points="142.48,-156.71 132.28,-159.55 142.03,-163.69 142.48,-156.71"/>
</a>
</g>
<text text-anchor="middle" x="360" y="-165.8" font-family="Arial" font-size="14.00" fill="grey"> global_statistics_</text>
</g>
<!-- Node3&#45;&gt;Node2 -->
<g id="edge2_Node000002_Node000003" class="edge">
<title>Node3&#45;&gt;Node2</title>
<g id="a_edge2_Node000002_Node000003"><a xlink:title=" ">
<path fill="none" stroke="#9a32cd" stroke-dasharray="5,2" d="M142.05,-145.37C200.83,-138.22 281.65,-128.4 326.2,-122.99"/>
<polygon fill="#9a32cd" stroke="#9a32cd" points="141.58,-141.9 132.08,-146.58 142.43,-148.85 141.58,-141.9"/>
</a>
</g>
<text text-anchor="middle" x="197.5" y="-145.8" font-family="Arial" font-size="14.00" fill="grey"> statistics_</text>
</g>
<!-- Node4 -->
<g id="Node000004" class="node">
<title>Node4</title>
<g id="a_Node000004"><a xlink:href="structhf__pio__diagnostics__t.html" target="_top" xlink:title="PIO diagnostic information.">
<polygon fill="white" stroke="#666666" points="140,-109.5 0,-109.5 0,-86.5 140,-86.5 140,-109.5"/>
<text text-anchor="middle" x="70" y="-94.3" font-family="Arial" font-size="14.00">hf_pio_diagnostics_t</text>
</a>
</g>
</g>
<!-- Node4&#45;&gt;Node1 -->
<g id="edge6_Node000001_Node000004" class="edge">
<title>Node4&#45;&gt;Node1</title>
<g id="a_edge6_Node000001_Node000004"><a xlink:title=" ">
<path fill="none" stroke="#9a32cd" stroke-dasharray="5,2" d="M150.69,-90.61C183.03,-87.96 220.77,-85.3 255,-84 348.27,-80.46 371.74,-80.29 465,-84 507.56,-85.69 556.73,-90.07 586.97,-93.04"/>
<polygon fill="#9a32cd" stroke="#9a32cd" points="150.07,-87.15 140.39,-91.47 150.65,-94.13 150.07,-87.15"/>
</a>
</g>
<text text-anchor="middle" x="360" y="-87.8" font-family="Arial" font-size="14.00" fill="grey"> global_diagnostics_</text>
</g>
<!-- Node4&#45;&gt;Node2 -->
<g id="edge3_Node000002_Node000004" class="edge">
<title>Node4&#45;&gt;Node2</title>
<g id="a_edge3_Node000002_Node000004"><a xlink:title=" ">
<path fill="none" stroke="#9a32cd" stroke-dasharray="5,2" d="M150.42,-102.3C177.86,-103.92 208.79,-105.88 237,-108 267.33,-110.28 301.84,-113.45 326.4,-115.8"/>
<polygon fill="#9a32cd" stroke="#9a32cd" points="150.27,-98.79 140.09,-101.7 149.86,-105.78 150.27,-98.79"/>
</a>
</g>
<text text-anchor="middle" x="197.5" y="-111.8" font-family="Arial" font-size="14.00" fill="grey"> diagnostics_</text>
</g>
<!-- Node5 -->
<g id="Node000005" class="node">
<title>Node5</title>
<g id="a_Node000005"><a xlink:href="classPlatformMutexImpl.html" target="_top" xlink:title=" ">
<polygon fill="white" stroke="#666666" points="465,-38 255,-38 255,0 465,0 465,-38"/>
<text text-anchor="start" x="263" y="-22.8" font-family="Arial" font-size="14.00">PlatformMutexImpl&lt;</text>
<text text-anchor="middle" x="360" y="-7.8" font-family="Arial" font-size="14.00"> PlatformMutexActiveBackend &gt;</text>
</a>
</g>
</g>
<!-- Node5&#45;&gt;Node1 -->
<g id="edge4_Node000001_Node000005" class="edge">
<title>Node5&#45;&gt;Node1</title>
<g id="a_edge4_Node000001_Node000005"><a xlink:title=" ">
<path fill="none" stroke="#9a32cd" stroke-dasharray="5,2" d="M475.45,-18.87C507.12,-22.6 540.57,-30.27 569,-45 586.45,-54.04 600.62,-72.43 608.56,-84.48"/>
<polygon fill="#9a32cd" stroke="#9a32cd" points="475.55,-15.36 465.24,-17.79 474.81,-22.32 475.55,-15.36"/>
</a>
</g>
<text text-anchor="middle" x="526" y="-48.8" font-family="Arial" font-size="14.00" fill="grey"> state_mutex_</text>
</g>
</g>
</svg>
