<?xml version="1.0" encoding="UTF-8" standalone="no"?>
<!DOCTYPE svg PUBLIC "-//W3C//DTD SVG 1.1//EN"
 "http://www.w3.org/Graphics/SVG/1.1/DTD/svg11.dtd">
<!-- Generated by graphviz version 2.43.0 (0)
 -->
<!-- Title: StmI2cDevice Pages: 1 -->
<svg width="557pt" height="179pt"
 viewBox="0.00 0.00 556.50 179.00" xmlns="http://www.w3.org/2000/svg" xmlns:xlink="http://www.w3.org/1999/xlink">
<g id="graph0" class="graph" transform="scale(1 1) rotate(0) translate(4 175)">
<title>StmI2cDevice</title>
<!-- Node1 -->
<g id="Node000001" class="node">
<title>Node1</title>
<g id="a_Node000001"><a xlink:title="STM32 I2C device — inherits BaseI2c, delegates I/O to parent bus HAL handle.">
<polygon fill="#999999" stroke="#666666" points="385,-23 284,-23 284,0 385,0 385,-23"/>
<text text-anchor="middle" x="334.5" y="-7.8" font-family="Arial" font-size="14.00">StmI2cDevice</text>
</a>
</g>
</g>
<!-- Node2 -->
<g id="Node000002" class="node">
<title>Node2</title>
<g id="a_Node000002"><a xlink:href="classBaseI2c.html" target="_top" xlink:title="Abstract base class for I2C device implementations.">
<polygon fill="white" stroke="#666666" points="243,-97 178,-97 178,-74 243,-74 243,-97"/>
<text text-anchor="middle" x="210.5" y="-81.8" font-family="Arial" font-size="14.00">BaseI2c</text>
</a>
</g>
</g>
<!-- Node2&#45;&gt;Node1 -->
<g id="edge1_Node000001_Node000002" class="edge">
<title>Node2&#45;&gt;Node1</title>
<g id="a_edge1_Node000001_Node000002"><a xlink:title=" ">
<path fill="none" stroke="#63b8ff" d="M237.68,-68.72C261.48,-54.9 295.4,-35.2 316.13,-23.17"/>
<polygon fill="#63b8ff" stroke="#63b8ff" points="235.69,-65.83 228.8,-73.88 239.2,-71.88 235.69,-65.83"/>
</a>
</g>
</g>
<!-- Node3 -->
<g id="Node000003" class="node">
<title>Node3</title>
<g id="a_Node000003"><a xlink:href="structhf__i2c__statistics__t.html" target="_top" xlink:title="I2C operation statistics.">
<polygon fill="white" stroke="#666666" points="123,-171 0,-171 0,-148 123,-148 123,-171"/>
<text text-anchor="middle" x="61.5" y="-155.8" font-family="Arial" font-size="14.00">hf_i2c_statistics_t</text>
</a>
</g>
</g>
<!-- Node3&#45;&gt;Node2 -->
<g id="edge2_Node000002_Node000003" class="edge">
<title>Node3&#45;&gt;Node2</title>
<g id="a_edge2_Node000002_Node000003"><a xlink:title=" ">
<path fill="none" stroke="#9a32cd" stroke-dasharray="5,2" d="M88.95,-142.91C104.48,-134.31 124.36,-123.65 142.5,-115 155.9,-108.61 171.12,-102.16 183.76,-97.02"/>
<polygon fill="#9a32cd" stroke="#9a32cd" points="86.92,-140.03 79.9,-147.96 90.34,-146.14 86.92,-140.03"/>
</a>
</g>
<text text-anchor="middle" x="174.5" y="-118.8" font-family="Arial" font-size="14.00" fill="grey"> statistics_</text>
</g>
<!-- Node4 -->
<g id="Node000004" class="node">
<title>Node4</title>
<g id="a_Node000004"><a xlink:href="structhf__i2c__diagnostics__t.html" target="_top" xlink:title="I2C diagnostic information.">
<polygon fill="white" stroke="#666666" points="280,-171 141,-171 141,-148 280,-148 280,-171"/>
<text text-anchor="middle" x="210.5" y="-155.8" font-family="Arial" font-size="14.00">hf_i2c_diagnostics_t</text>
</a>
</g>
</g>
<!-- Node4&#45;&gt;Node2 -->
<g id="edge3_Node000002_Node000004" class="edge">
<title>Node4&#45;&gt;Node2</title>
<g id="a_edge3_Node000002_Node000004"><a xlink:title=" ">
<path fill="none" stroke="#9a32cd" stroke-dasharray="5,2" d="M210.5,-137.73C210.5,-124.47 210.5,-107.82 210.5,-97.17"/>
<polygon fill="#9a32cd" stroke="#9a32cd" points="207,-137.88 210.5,-147.88 214,-137.88 207,-137.88"/>
</a>
</g>
<text text-anchor="middle" x="250" y="-118.8" font-family="Arial" font-size="14.00" fill="grey"> diagnostics_</text>
</g>
<!-- Node5 -->
<g id="Node000005" class="node">
<title>Node5</title>
<g id="a_Node000005"><a xlink:href="classStmI2cBus.html" target="_top" xlink:title="STM32 I2C bus — manages the HAL handle and device collection.">
<polygon fill="white" stroke="#666666" points="376,-97 293,-97 293,-74 376,-74 376,-97"/>
<text text-anchor="middle" x="334.5" y="-81.8" font-family="Arial" font-size="14.00">StmI2cBus</text>
</a>
</g>
</g>
<!-- Node5&#45;&gt;Node1 -->
<g id="edge4_Node000001_Node000005" class="edge">
<title>Node5&#45;&gt;Node1</title>
<g id="a_edge4_Node000001_Node000005"><a xlink:title=" ">
<path fill="none" stroke="#9a32cd" stroke-dasharray="5,2" d="M334.5,-63.73C334.5,-50.47 334.5,-33.82 334.5,-23.17"/>
<polygon fill="#9a32cd" stroke="#9a32cd" points="331,-63.88 334.5,-73.88 338,-63.88 331,-63.88"/>
</a>
</g>
<text text-anchor="middle" x="374" y="-44.8" font-family="Arial" font-size="14.00" fill="grey"> parent_bus_</text>
</g>
<!-- Node6 -->
<g id="Node000006" class="node">
<title>Node6</title>
<g id="a_Node000006"><a xlink:href="structhf__i2c__bus__config__t.html" target="_top" xlink:title="Platform&#45;agnostic I2C bus configuration for STM32. Users pass their CubeMX&#45;generated I2C_HandleTypeDe...">
<polygon fill="white" stroke="#666666" points="435,-171 298,-171 298,-148 435,-148 435,-171"/>
<text text-anchor="middle" x="366.5" y="-155.8" font-family="Arial" font-size="14.00">hf_i2c_bus_config_t</text>
</a>
</g>
</g>
<!-- Node6&#45;&gt;Node5 -->
<g id="edge5_Node000005_Node000006" class="edge">
<title>Node6&#45;&gt;Node5</title>
<g id="a_edge5_Node000005_Node000006"><a xlink:title=" ">
<path fill="none" stroke="#9a32cd" stroke-dasharray="5,2" d="M357.62,-138.53C351.67,-125.14 344.07,-108.03 339.24,-97.17"/>
<polygon fill="#9a32cd" stroke="#9a32cd" points="354.52,-140.16 361.78,-147.88 360.92,-137.32 354.52,-140.16"/>
</a>
</g>
<text text-anchor="middle" x="376.5" y="-118.8" font-family="Arial" font-size="14.00" fill="grey"> config_</text>
</g>
<!-- Node7 -->
<g id="Node000007" class="node">
<title>Node7</title>
<g id="a_Node000007"><a xlink:href="structhf__i2c__device__config__t.html" target="_top" xlink:title="I2C device configuration structure.">
<polygon fill="white" stroke="#666666" points="548.5,-97 394.5,-97 394.5,-74 548.5,-74 548.5,-97"/>
<text text-anchor="middle" x="471.5" y="-81.8" font-family="Arial" font-size="14.00">hf_i2c_device_config_t</text>
</a>
</g>
</g>
<!-- Node7&#45;&gt;Node1 -->
<g id="edge6_Node000001_Node000007" class="edge">
<title>Node7&#45;&gt;Node1</title>
<g id="a_edge6_Node000001_Node000007"><a xlink:title=" ">
<path fill="none" stroke="#9a32cd" stroke-dasharray="5,2" d="M453.14,-67.03C443.2,-58.29 430.34,-48.09 417.5,-41 404.03,-33.56 388.27,-27.56 374.12,-23.01"/>
<polygon fill="#9a32cd" stroke="#9a32cd" points="450.99,-69.8 460.74,-73.93 455.69,-64.62 450.99,-69.8"/>
</a>
</g>
<text text-anchor="middle" x="463.5" y="-44.8" font-family="Arial" font-size="14.00" fill="grey"> config_</text>
</g>
</g>
</svg>
