<?xml version="1.0" encoding="UTF-8" standalone="no"?>
<!DOCTYPE svg PUBLIC "-//W3C//DTD SVG 1.1//EN"
 "http://www.w3.org/Graphics/SVG/1.1/DTD/svg11.dtd">
<!-- Generated by graphviz version 2.43.0 (0)
 -->
<!-- Title: StmSpiDevice Pages: 1 -->
<svg width="558pt" height="179pt"
 viewBox="0.00 0.00 557.50 179.00" xmlns="http://www.w3.org/2000/svg" xmlns:xlink="http://www.w3.org/1999/xlink">
<g id="graph0" class="graph" transform="scale(1 1) rotate(0) translate(4 175)">
<title>StmSpiDevice</title>
<!-- Node1 -->
<g id="Node000001" class="node">
<title>Node1</title>
<g id="a_Node000001"><a xlink:title="STM32 SPI device — manages chip&#45;select and delegates transfers to parent bus.">
<polygon fill="#999999" stroke="#666666" points="386.5,-23 284.5,-23 284.5,0 386.5,0 386.5,-23"/>
<text text-anchor="middle" x="335.5" y="-7.8" font-family="Arial" font-size="14.00">StmSpiDevice</text>
</a>
</g>
</g>
<!-- Node2 -->
<g id="Node000002" class="node">
<title>Node2</title>
<g id="a_Node000002"><a xlink:href="classBaseSpi.html" target="_top" xlink:title="Abstract base class for SPI device implementations.">
<polygon fill="white" stroke="#666666" points="244,-97 177,-97 177,-74 244,-74 244,-97"/>
<text text-anchor="middle" x="210.5" y="-81.8" font-family="Arial" font-size="14.00">BaseSpi</text>
</a>
</g>
</g>
<!-- Node2&#45;&gt;Node1 -->
<g id="edge1_Node000001_Node000002" class="edge">
<title>Node2&#45;&gt;Node1</title>
<g id="a_edge1_Node000001_Node000002"><a xlink:title=" ">
<path fill="none" stroke="#63b8ff" d="M237.9,-68.72C261.89,-54.9 296.08,-35.2 316.98,-23.17"/>
<polygon fill="#63b8ff" stroke="#63b8ff" points="235.86,-65.85 228.94,-73.88 239.36,-71.92 235.86,-65.85"/>
</a>
</g>
</g>
<!-- Node3 -->
<g id="Node000003" class="node">
<title>Node3</title>
<g id="a_Node000003"><a xlink:href="structhf__spi__statistics__t.html" target="_top" xlink:title="SPI operation statistics.">
<polygon fill="white" stroke="#666666" points="123,-171 0,-171 0,-148 123,-148 123,-171"/>
<text text-anchor="middle" x="61.5" y="-155.8" font-family="Arial" font-size="14.00">hf_spi_statistics_t</text>
</a>
</g>
</g>
<!-- Node3&#45;&gt;Node2 -->
<g id="edge2_Node000002_Node000003" class="edge">
<title>Node3&#45;&gt;Node2</title>
<g id="a_edge2_Node000002_Node000003"><a xlink:title=" ">
<path fill="none" stroke="#9a32cd" stroke-dasharray="5,2" d="M88.95,-142.91C104.48,-134.31 124.36,-123.65 142.5,-115 155.9,-108.61 171.12,-102.16 183.76,-97.02"/>
<polygon fill="#9a32cd" stroke="#9a32cd" points="86.92,-140.03 79.9,-147.96 90.34,-146.14 86.92,-140.03"/>
</a>
</g>
<text text-anchor="middle" x="174.5" y="-118.8" font-family="Arial" font-size="14.00" fill="grey"> statistics_</text>
</g>
<!-- Node4 -->
<g id="Node000004" class="node">
<title>Node4</title>
<g id="a_Node000004"><a xlink:href="structhf__spi__diagnostics__t.html" target="_top" xlink:title="SPI diagnostic information.">
<polygon fill="white" stroke="#666666" points="280,-171 141,-171 141,-148 280,-148 280,-171"/>
<text text-anchor="middle" x="210.5" y="-155.8" font-family="Arial" font-size="14.00">hf_spi_diagnostics_t</text>
</a>
</g>
</g>
<!-- Node4&#45;&gt;Node2 -->
<g id="edge3_Node000002_Node000004" class="edge">
<title>Node4&#45;&gt;Node2</title>
<g id="a_edge3_Node000002_Node000004"><a xlink:title=" ">
<path fill="none" stroke="#9a32cd" stroke-dasharray="5,2" d="M210.5,-137.73C210.5,-124.47 210.5,-107.82 210.5,-97.17"/>
<polygon fill="#9a32cd" stroke="#9a32cd" points="207,-137.88 210.5,-147.88 214,-137.88 207,-137.88"/>
</a>
</g>
<text text-anchor="middle" x="250" y="-118.8" font-family="Arial" font-size="14.00" fill="grey"> diagnostics_</text>
</g>
<!-- Node5 -->
<g id="Node000005" class="node">
<title>Node5</title>
<g id="a_Node000005"><a xlink:href="classStmSpiBus.html" target="_top" xlink:title="STM32 SPI bus — manages the HAL handle and device collection.">
<polygon fill="white" stroke="#666666" points="377.5,-97 293.5,-97 293.5,-74 377.5,-74 377.5,-97"/>
<text text-anchor="middle" x="335.5" y="-81.8" font-family="Arial" font-size="14.00">StmSpiBus</text>
</a>
</g>
</g>
<!-- Node5&#45;&gt;Node1 -->
<g id="edge4_Node000001_Node000005" class="edge">
<title>Node5&#45;&gt;Node1</title>
<g id="a_edge4_Node000001_Node000005"><a xlink:title=" ">
<path fill="none" stroke="#9a32cd" stroke-dasharray="5,2" d="M335.5,-63.73C335.5,-50.47 335.5,-33.82 335.5,-23.17"/>
<polygon fill="#9a32cd" stroke="#9a32cd" points="332,-63.88 335.5,-73.88 339,-63.88 332,-63.88"/>
</a>
</g>
<text text-anchor="middle" x="375" y="-44.8" font-family="Arial" font-size="14.00" fill="grey"> parent_bus_</text>
</g>
<!-- Node6 -->
<g id="Node000006" class="node">
<title>Node6</title>
<g id="a_Node000006"><a xlink:href="structhf__spi__bus__config__t.html" target="_top" xlink:title="Platform&#45;agnostic SPI bus configuration for STM32.">
<polygon fill="white" stroke="#666666" points="435,-171 298,-171 298,-148 435,-148 435,-171"/>
<text text-anchor="middle" x="366.5" y="-155.8" font-family="Arial" font-size="14.00">hf_spi_bus_config_t</text>
</a>
</g>
</g>
<!-- Node6&#45;&gt;Node5 -->
<g id="edge5_Node000005_Node000006" class="edge">
<title>Node6&#45;&gt;Node5</title>
<g id="a_edge5_Node000005_Node000006"><a xlink:title=" ">
<path fill="none" stroke="#9a32cd" stroke-dasharray="5,2" d="M357.9,-138.53C352.14,-125.14 344.77,-108.03 340.09,-97.17"/>
<polygon fill="#9a32cd" stroke="#9a32cd" points="354.76,-140.08 361.93,-147.88 361.19,-137.31 354.76,-140.08"/>
</a>
</g>
<text text-anchor="middle" x="377.5" y="-118.8" font-family="Arial" font-size="14.00" fill="grey"> config_</text>
</g>
<!-- Node7 -->
<g id="Node000007" class="node">
<title>Node7</title>
<g id="a_Node000007"><a xlink:href="structhf__spi__device__config__t.html" target="_top" xlink:title="SPI device configuration for STM32.">
<polygon fill="white" stroke="#666666" points="549.5,-97 395.5,-97 395.5,-74 549.5,-74 549.5,-97"/>
<text text-anchor="middle" x="472.5" y="-81.8" font-family="Arial" font-size="14.00">hf_spi_device_config_t</text>
</a>
</g>
</g>
<!-- Node7&#45;&gt;Node1 -->
<g id="edge6_Node000001_Node000007" class="edge">
<title>Node7&#45;&gt;Node1</title>
<g id="a_edge6_Node000001_Node000007"><a xlink:title=" ">
<path fill="none" stroke="#9a32cd" stroke-dasharray="5,2" d="M454.14,-67.03C444.2,-58.29 431.34,-48.09 418.5,-41 405.03,-33.56 389.27,-27.56 375.12,-23.01"/>
<polygon fill="#9a32cd" stroke="#9a32cd" points="451.99,-69.8 461.74,-73.93 456.69,-64.62 451.99,-69.8"/>
</a>
</g>
<text text-anchor="middle" x="464.5" y="-44.8" font-family="Arial" font-size="14.00" fill="grey"> config_</text>
</g>
</g>
</svg>
