<?xml version="1.0" encoding="UTF-8" standalone="no"?>
<!DOCTYPE svg PUBLIC "-//W3C//DTD SVG 1.1//EN"
 "http://www.w3.org/Graphics/SVG/1.1/DTD/svg11.dtd">
<!-- Generated by graphviz version 2.43.0 (0)
 -->
<!-- Title: EspGpio Pages: 1 -->
<!--zoomable 194 -->

<svg id="main" version="1.1" xmlns="http://www.w3.org/2000/svg" xmlns:xlink="http://www.w3.org/1999/xlink" xml:space="preserve" onload="init(evt)">
<style type="text/css"><![CDATA[
.node, .edge {opacity: 0.7;}
.node.selected, .edge.selected {opacity: 1;}
.edge:hover path { stroke: red; }
.edge:hover polygon { stroke: red; fill: red; }
]]></style>

<defs>
  <circle id="rim" cx="0" cy="0" r="7"/>
  <circle id="rim2" cx="0" cy="0" r="3.5"/>
  <g id="zoomPlus">
    <use xlink:href="#rim" fill="#404040"><set attributeName="fill" to="#808080" begin="zoomplus.mouseover" end="zoomplus.mouseout"/></use>
    <path d="M-4,0h8M0,-4v8" fill="none" stroke="white" stroke-width="1.5" pointer-events="none"/>
  </g>
  <g id="zoomMin">
    <use xlink:href="#rim" fill="#404040"><set attributeName="fill" to="#808080" begin="zoomminus.mouseover" end="zoomminus.mouseout"/></use>
    <path d="M-4,0h8" fill="none" stroke="white" stroke-width="1.5" pointer-events="none"/>
  </g>
  <g id="arrowUp" transform="translate(30 24)">
    <use xlink:href="#rim"/>
    <path pointer-events="none" fill="none" stroke="white" stroke-width="1.5" d="M0,-3.0v7 M-2.5,-0.5L0,-3.0L2.5,-0.5"/>
  </g>
  <g id="arrowRight" transform="rotate(90) translate(36 -43)">
    <use xlink:href="#rim"/>
    <path pointer-events="none" fill="none" stroke="white" stroke-width="1.5" d="M0,-3.0v7 M-2.5,-0.5L0,-3.0L2.5,-0.5"/>
  </g>
  <g id="arrowDown" transform="rotate(180) translate(-30 -48)">
    <use xlink:href="#rim"/>
    <path pointer-events="none" fill="none" stroke="white" stroke-width="1.5" d="M0,-3.0v7 M-2.5,-0.5L0,-3.0L2.5,-0.5"/>
  </g>
  <g id="arrowLeft" transform="rotate(270) translate(-36 17)">
    <use xlink:href="#rim"/>
    <path pointer-events="none" fill="none" stroke="white" stroke-width="1.5" d="M0,-3.0v7 M-2.5,-0.5L0,-3.0L2.5,-0.5"/>
  </g>
  <g id="resetDef">
    <use xlink:href="#rim2" fill="#404040"><set attributeName="fill" to="#808080" begin="reset.mouseover" end="reset.mouseout"/></use>
  </g>
</defs>
<script type="application/ecmascript">
var viewWidth = 663;
var viewHeight = 194;
var sectionId = 'dynsection-1';
</script>
<script type="application/ecmascript" xlink:href="svg.min.js"/>
<svg id="graph" class="graph">
<g id="viewport">
<title>EspGpio</title>
<!-- Node1 -->
<g id="Node000001" class="node">
<title>Node1</title>
<g id="a_Node000001"><a xlink:title="Advanced MCU&#45;specific implementation of unified BaseGpio with ESP32C6/ESP&#45;IDF v5.5+ features.">
<polygon fill="#999999" stroke="#666666" points="655,-107 586,-107 586,-84 655,-84 655,-107"/>
<text text-anchor="middle" x="620.5" y="-91.8" font-family="Arial" font-size="14.00">EspGpio</text>
</a>
</g>
</g>
<!-- Node2 -->
<g id="Node000002" class="node">
<title>Node2</title>
<g id="a_Node000002"><a xlink:href="classBaseGpio.html" target="_top" xlink:title="Unified GPIO base class for all digital GPIO implementations.">
<polygon fill="white" stroke="#666666" points="385.5,-166 308.5,-166 308.5,-143 385.5,-143 385.5,-166"/>
<text text-anchor="middle" x="347" y="-150.8" font-family="Arial" font-size="14.00">BaseGpio</text>
</a>
</g>
</g>
<!-- Node2&#45;&gt;Node1 -->
<g id="edge1_Node000001_Node000002" class="edge">
<title>Node2&#45;&gt;Node1</title>
<g id="a_edge1_Node000001_Node000002"><a xlink:title=" ">
<path fill="none" stroke="#63b8ff" d="M395.72,-163.58C441.88,-170.07 512.77,-173.89 568,-149.5 587.91,-140.71 603.87,-120.2 612.48,-107.14"/>
<polygon fill="#63b8ff" stroke="#63b8ff" points="396.1,-160.1 385.69,-162.07 395.06,-167.02 396.1,-160.1"/>
</a>
</g>
</g>
<!-- Node2&#45;&gt;Node1 -->
<g id="edge4_Node000001_Node000002" class="edge">
<title>Node2&#45;&gt;Node1</title>
<g id="a_edge4_Node000001_Node000002"><a xlink:title=" ">
<path fill="none" stroke="#9a32cd" stroke-dasharray="5,2" d="M395.43,-142.6C412.56,-138.49 432.1,-134.04 450,-130.5 502.11,-120.19 516.28,-123.63 568,-111.5 573.83,-110.13 579.97,-108.45 585.89,-106.69"/>
<polygon fill="#9a32cd" stroke="#9a32cd" points="394.54,-139.21 385.64,-144.96 396.19,-146.02 394.54,-139.21"/>
</a>
</g>
<text text-anchor="middle" x="509" y="-134.3" font-family="Arial" font-size="14.00" fill="grey"> interrupt_callback_</text>
</g>
<!-- Node3 -->
<g id="Node000003" class="node">
<title>Node3</title>
<g id="a_Node000003"><a xlink:href="structhf__gpio__statistics__t.html" target="_top" xlink:title="GPIO operation statistics.">
<polygon fill="white" stroke="#666666" points="139,-186 8,-186 8,-163 139,-163 139,-186"/>
<text text-anchor="middle" x="73.5" y="-170.8" font-family="Arial" font-size="14.00">hf_gpio_statistics_t</text>
</a>
</g>
</g>
<!-- Node3&#45;&gt;Node2 -->
<g id="edge2_Node000002_Node000003" class="edge">
<title>Node3&#45;&gt;Node2</title>
<g id="a_edge2_Node000002_Node000003"><a xlink:title=" ">
<path fill="none" stroke="#9a32cd" stroke-dasharray="5,2" d="M149.29,-168.99C200.85,-165.19 267.21,-160.3 308.17,-157.29"/>
<polygon fill="#9a32cd" stroke="#9a32cd" points="148.9,-165.51 139.19,-169.73 149.42,-172.49 148.9,-165.51"/>
</a>
</g>
<text text-anchor="middle" x="204.5" y="-170.3" font-family="Arial" font-size="14.00" fill="grey"> statistics_</text>
</g>
<!-- Node4 -->
<g id="Node000004" class="node">
<title>Node4</title>
<g id="a_Node000004"><a xlink:href="structhf__gpio__diagnostics__t.html" target="_top" xlink:title="GPIO diagnostic information.">
<polygon fill="white" stroke="#666666" points="147,-145 0,-145 0,-122 147,-122 147,-145"/>
<text text-anchor="middle" x="73.5" y="-129.8" font-family="Arial" font-size="14.00">hf_gpio_diagnostics_t</text>
</a>
</g>
</g>
<!-- Node4&#45;&gt;Node2 -->
<g id="edge3_Node000002_Node000004" class="edge">
<title>Node4&#45;&gt;Node2</title>
<g id="a_edge3_Node000002_Node000004"><a xlink:title=" ">
<path fill="none" stroke="#9a32cd" stroke-dasharray="5,2" d="M157.18,-136.83C184.81,-138.22 215.76,-140.09 244,-142.5 265.32,-144.32 289.06,-147.07 308.28,-149.48"/>
<polygon fill="#9a32cd" stroke="#9a32cd" points="157.32,-133.33 147.16,-136.33 156.97,-140.32 157.32,-133.33"/>
</a>
</g>
<text text-anchor="middle" x="204.5" y="-146.3" font-family="Arial" font-size="14.00" fill="grey"> diagnostics_</text>
</g>
<!-- Node5 -->
<g id="Node000005" class="node">
<title>Node5</title>
<g id="a_Node000005"><a xlink:href="structhf__gpio__flex__filter__config__t.html" target="_top" xlink:title="Flexible glitch filter configuration.">
<polygon fill="white" stroke="#666666" points="408,-120.5 286,-120.5 286,-82.5 408,-82.5 408,-120.5"/>
<text text-anchor="start" x="294" y="-105.3" font-family="Arial" font-size="14.00">hf_gpio_flex_filter</text>
<text text-anchor="middle" x="347" y="-90.3" font-family="Arial" font-size="14.00">_config_t</text>
</a>
</g>
</g>
<!-- Node5&#45;&gt;Node1 -->
<g id="edge5_Node000001_Node000005" class="edge">
<title>Node5&#45;&gt;Node1</title>
<g id="a_edge5_Node000001_Node000005"><a xlink:title=" ">
<path fill="none" stroke="#9a32cd" stroke-dasharray="5,2" d="M418.23,-97.66C428.87,-97.19 439.73,-96.78 450,-96.5 497.07,-95.21 551.51,-95.14 585.73,-95.27"/>
<polygon fill="#9a32cd" stroke="#9a32cd" points="417.95,-94.17 408.12,-98.12 418.27,-101.16 417.95,-94.17"/>
</a>
</g>
<text text-anchor="middle" x="509" y="-100.3" font-family="Arial" font-size="14.00" fill="grey"> flex_filter_config_</text>
</g>
<!-- Node6 -->
<g id="Node000006" class="node">
<title>Node6</title>
<g id="a_Node000006"><a xlink:href="structhf__gpio__sleep__config__t.html" target="_top" xlink:title="GPIO sleep mode configuration.">
<polygon fill="white" stroke="#666666" points="424.5,-64 269.5,-64 269.5,-41 424.5,-41 424.5,-64"/>
<text text-anchor="middle" x="347" y="-48.8" font-family="Arial" font-size="14.00">hf_gpio_sleep_config_t</text>
</a>
</g>
</g>
<!-- Node6&#45;&gt;Node1 -->
<g id="edge6_Node000001_Node000006" class="edge">
<title>Node6&#45;&gt;Node1</title>
<g id="a_edge6_Node000001_Node000006"><a xlink:title=" ">
<path fill="none" stroke="#9a32cd" stroke-dasharray="5,2" d="M434.82,-57.05C475.64,-60.44 524.73,-66.32 568,-76.5 575.98,-78.38 584.41,-81.14 592.09,-83.97"/>
<polygon fill="#9a32cd" stroke="#9a32cd" points="434.88,-53.55 424.63,-56.24 434.32,-60.52 434.88,-53.55"/>
</a>
</g>
<text text-anchor="middle" x="509" y="-80.3" font-family="Arial" font-size="14.00" fill="grey"> sleep_config_</text>
</g>
<!-- Node7 -->
<g id="Node000007" class="node">
<title>Node7</title>
<g id="a_Node000007"><a xlink:href="structhf__gpio__wakeup__config__t.html" target="_top" xlink:title="GPIO wake&#45;up configuration for deep sleep.">
<polygon fill="white" stroke="#666666" points="432,-23 262,-23 262,0 432,0 432,-23"/>
<text text-anchor="middle" x="347" y="-7.8" font-family="Arial" font-size="14.00">hf_gpio_wakeup_config_t</text>
</a>
</g>
</g>
<!-- Node7&#45;&gt;Node1 -->
<g id="edge7_Node000001_Node000007" class="edge">
<title>Node7&#45;&gt;Node1</title>
<g id="a_edge7_Node000001_Node000007"><a xlink:title=" ">
<path fill="none" stroke="#9a32cd" stroke-dasharray="5,2" d="M442.33,-10C482.9,-12.8 529.7,-20.82 568,-40.5 587.31,-50.42 603.23,-70.6 612.04,-83.57"/>
<polygon fill="#9a32cd" stroke="#9a32cd" points="442.35,-6.5 432.16,-9.4 441.94,-13.49 442.35,-6.5"/>
</a>
</g>
<text text-anchor="middle" x="509" y="-44.3" font-family="Arial" font-size="14.00" fill="grey"> wakeup_config_</text>
</g>
</g>
</svg>

<g id="navigator" transform="translate(0 0)" fill="#404254">
  <rect fill="#f2f5e9" fill-opacity="0.5" stroke="#606060" stroke-width=".5" x="0" y="0" width="60" height="60"/>
  <use id="zoomplus" xlink:href="#zoomPlus" x="17" y="9" onmousedown="handleZoom(evt,'in')"/>
  <use id="zoomminus" xlink:href="#zoomMin" x="42" y="9" onmousedown="handleZoom(evt,'out')"/>
  <use id="reset" xlink:href="#resetDef" x="30" y="36" onmousedown="handleReset()"/>
   <use id="arrowup" xlink:href="#arrowUp" x="0" y="0" onmousedown="handlePan(0,-1)"/>
  <use id="arrowright" xlink:href="#arrowRight" x="0" y="0" onmousedown="handlePan(1,0)"/>
  <use id="arrowdown" xlink:href="#arrowDown" x="0" y="0" onmousedown="handlePan(0,1)"/>
  <use id="arrowleft" xlink:href="#arrowLeft" x="0" y="0" onmousedown="handlePan(-1,0)"/>
</g>
<svg viewBox="0 0 15 15" width="100%" height="30px" preserveAspectRatio="xMaxYMin meet">
 <g id="arrow_out" transform="scale(0.3 0.3)">
  <a xlink:href="classEspGpio__coll__graph_org.svg" target="_base">
   <rect id="button" ry="5" rx="5" y="6" x="6" height="38" width="38"
        fill="#f2f5e9" fill-opacity="0.5" stroke="#606060" stroke-width="1.0"/>
   <path id="arrow"
     d="M 11.500037,31.436501 C 11.940474,20.09759 22.043105,11.32322 32.158766,21.979434 L 37.068811,17.246167 C 37.068811,17.246167 37.088388,32 37.088388,32 L 22.160133,31.978069 C 22.160133,31.978069 26.997745,27.140456 26.997745,27.140456 C 18.528582,18.264221 13.291696,25.230495 11.500037,31.436501 z"
     style="fill:#404040;"/>
  </a>
 </g>
</svg>

<style type='text/css'>
<![CDATA[
[data-mouse-over-selected='false'] { opacity: 0.7; }
[data-mouse-over-selected='true']  { opacity: 1.0; }
]]>
</style>
<script type="application/ecmascript"><![CDATA[
document.addEventListener('DOMContentLoaded', (event) => {
  highlightEdges();
  highlightAdjacentNodes();
});
]]></script>
</svg>
