<?xml version="1.0" encoding="UTF-8" standalone="no"?>
<!DOCTYPE svg PUBLIC "-//W3C//DTD SVG 1.1//EN"
 "http://www.w3.org/Graphics/SVG/1.1/DTD/svg11.dtd">
<!-- Generated by graphviz version 2.43.0 (0)
 -->
<!-- Title: EspSpiBus Pages: 1 -->
<svg width="374pt" height="120pt"
 viewBox="0.00 0.00 373.50 120.00" xmlns="http://www.w3.org/2000/svg" xmlns:xlink="http://www.w3.org/1999/xlink">
<g id="graph0" class="graph" transform="scale(1 1) rotate(0) translate(4 116)">
<title>EspSpiBus</title>
<!-- Node1 -->
<g id="Node000001" class="node">
<title>Node1</title>
<g id="a_Node000001"><a xlink:title="Manages a single SPI bus (host). Handles bus init/deinit and device creation.">
<polygon fill="#999999" stroke="#666666" points="206,-23 123,-23 123,0 206,0 206,-23"/>
<text text-anchor="middle" x="164.5" y="-7.8" font-family="Arial" font-size="14.00">EspSpiBus</text>
</a>
</g>
</g>
<!-- Node2 -->
<g id="Node000002" class="node">
<title>Node2</title>
<g id="a_Node000002"><a xlink:href="structhf__spi__bus__config__t.html" target="_top" xlink:title="Platform&#45;agnostic SPI bus configuration for STM32.">
<polygon fill="white" stroke="#666666" points="137,-104.5 0,-104.5 0,-81.5 137,-81.5 137,-104.5"/>
<text text-anchor="middle" x="68.5" y="-89.3" font-family="Arial" font-size="14.00">hf_spi_bus_config_t</text>
</a>
</g>
</g>
<!-- Node2&#45;&gt;Node1 -->
<g id="edge1_Node000001_Node000002" class="edge">
<title>Node2&#45;&gt;Node1</title>
<g id="a_edge1_Node000001_Node000002"><a xlink:title=" ">
<path fill="none" stroke="#9a32cd" stroke-dasharray="5,2" d="M89.26,-74.81C108.27,-59.06 135.81,-36.26 151.76,-23.05"/>
<polygon fill="#9a32cd" stroke="#9a32cd" points="86.92,-72.2 81.45,-81.28 91.38,-77.6 86.92,-72.2"/>
</a>
</g>
<text text-anchor="middle" x="152.5" y="-44.8" font-family="Arial" font-size="14.00" fill="grey"> config_</text>
</g>
<!-- Node3 -->
<g id="Node000003" class="node">
<title>Node3</title>
<g id="a_Node000003"><a xlink:href="classPlatformMutexImpl.html" target="_top" xlink:title=" ">
<polygon fill="white" stroke="#666666" points="365.5,-112 155.5,-112 155.5,-74 365.5,-74 365.5,-112"/>
<text text-anchor="start" x="163.5" y="-96.8" font-family="Arial" font-size="14.00">PlatformMutexImpl&lt;</text>
<text text-anchor="middle" x="260.5" y="-81.8" font-family="Arial" font-size="14.00"> PlatformMutexActiveBackend &gt;</text>
</a>
</g>
</g>
<!-- Node3&#45;&gt;Node1 -->
<g id="edge2_Node000001_Node000003" class="edge">
<title>Node3&#45;&gt;Node1</title>
<g id="a_edge2_Node000001_Node000003"><a xlink:title=" ">
<path fill="none" stroke="#9a32cd" stroke-dasharray="5,2" d="M230.81,-67.41C212.88,-52.57 190.96,-34.41 177.36,-23.15"/>
<polygon fill="#9a32cd" stroke="#9a32cd" points="228.78,-70.28 238.72,-73.96 233.25,-64.89 228.78,-70.28"/>
</a>
</g>
<text text-anchor="middle" x="239" y="-44.8" font-family="Arial" font-size="14.00" fill="grey"> mutex_</text>
</g>
</g>
</svg>
