<?xml version="1.0" encoding="UTF-8" standalone="no"?>
<!DOCTYPE svg PUBLIC "-//W3C//DTD SVG 1.1//EN"
 "http://www.w3.org/Graphics/SVG/1.1/DTD/svg11.dtd">
<!-- Generated by graphviz version 2.43.0 (0)
 -->
<!-- Title: EspLogger Pages: 1 -->
<svg width="364pt" height="195pt"
 viewBox="0.00 0.00 364.00 195.00" xmlns="http://www.w3.org/2000/svg" xmlns:xlink="http://www.w3.org/1999/xlink">
<g id="graph0" class="graph" transform="scale(1 1) rotate(0) translate(4 191)">
<title>EspLogger</title>
<!-- Node1 -->
<g id="Node000001" class="node">
<title>Node1</title>
<g id="a_Node000001"><a xlink:title="ESP32 logger implementation using ESP&#45;IDF logging system (Log V1/V2).">
<polygon fill="#999999" stroke="#666666" points="356,-105 274,-105 274,-82 356,-82 356,-105"/>
<text text-anchor="middle" x="315" y="-89.8" font-family="Arial" font-size="14.00">EspLogger</text>
</a>
</g>
</g>
<!-- Node2 -->
<g id="Node000002" class="node">
<title>Node2</title>
<g id="a_Node000002"><a xlink:href="classBaseLogger.html" target="_top" xlink:title="Base logger abstract class.">
<polygon fill="white" stroke="#666666" points="124,-187 35,-187 35,-164 124,-164 124,-187"/>
<text text-anchor="middle" x="79.5" y="-171.8" font-family="Arial" font-size="14.00">BaseLogger</text>
</a>
</g>
</g>
<!-- Node2&#45;&gt;Node1 -->
<g id="edge1_Node000001_Node000002" class="edge">
<title>Node2&#45;&gt;Node1</title>
<g id="a_edge1_Node000001_Node000002"><a xlink:title=" ">
<path fill="none" stroke="#63b8ff" d="M134.57,-173.01C170.48,-169.62 217.85,-161.74 256,-143.5 275.43,-134.21 293.5,-116.66 304.14,-105.02"/>
<polygon fill="#63b8ff" stroke="#63b8ff" points="133.96,-169.55 124.29,-173.89 134.55,-176.53 133.96,-169.55"/>
</a>
</g>
</g>
<!-- Node3 -->
<g id="Node000003" class="node">
<title>Node3</title>
<g id="a_Node000003"><a xlink:href="classRtosMutex.html" target="_top" xlink:title=" ">
<polygon fill="white" stroke="#666666" points="120.5,-146 38.5,-146 38.5,-123 120.5,-123 120.5,-146"/>
<text text-anchor="middle" x="79.5" y="-130.8" font-family="Arial" font-size="14.00">RtosMutex</text>
</a>
</g>
</g>
<!-- Node3&#45;&gt;Node1 -->
<g id="edge2_Node000001_Node000003" class="edge">
<title>Node3&#45;&gt;Node1</title>
<g id="a_edge2_Node000001_Node000003"><a xlink:title=" ">
<path fill="none" stroke="#9a32cd" stroke-dasharray="5,2" d="M130.67,-130.79C166.01,-127.55 214.28,-121.86 256,-112.5 264.68,-110.55 273.91,-107.84 282.4,-105.07"/>
<polygon fill="#9a32cd" stroke="#9a32cd" points="130.26,-127.31 120.61,-131.68 130.87,-134.28 130.26,-127.31"/>
</a>
</g>
<text text-anchor="middle" x="216.5" y="-128.3" font-family="Arial" font-size="14.00" fill="grey"> mutex_</text>
</g>
<!-- Node4 -->
<g id="Node000004" class="node">
<title>Node4</title>
<g id="a_Node000004"><a xlink:href="structhf__logger__config__t.html" target="_top" xlink:title="Logger configuration structure.">
<polygon fill="white" stroke="#666666" points="143.5,-105 15.5,-105 15.5,-82 143.5,-82 143.5,-105"/>
<text text-anchor="middle" x="79.5" y="-89.8" font-family="Arial" font-size="14.00">hf_logger_config_t</text>
</a>
</g>
</g>
<!-- Node4&#45;&gt;Node1 -->
<g id="edge3_Node000001_Node000004" class="edge">
<title>Node4&#45;&gt;Node1</title>
<g id="a_edge3_Node000001_Node000004"><a xlink:title=" ">
<path fill="none" stroke="#9a32cd" stroke-dasharray="5,2" d="M153.86,-93.5C193.53,-93.5 240.99,-93.5 273.9,-93.5"/>
<polygon fill="#9a32cd" stroke="#9a32cd" points="153.69,-90 143.69,-93.5 153.69,-97 153.69,-90"/>
</a>
</g>
<text text-anchor="middle" x="216.5" y="-97.3" font-family="Arial" font-size="14.00" fill="grey"> config_</text>
</g>
<!-- Node5 -->
<g id="Node000005" class="node">
<title>Node5</title>
<g id="a_Node000005"><a xlink:href="structhf__logger__statistics__t.html" target="_top" xlink:title="Logger statistics structure.">
<polygon fill="white" stroke="#666666" points="151,-64 8,-64 8,-41 151,-41 151,-64"/>
<text text-anchor="middle" x="79.5" y="-48.8" font-family="Arial" font-size="14.00">hf_logger_statistics_t</text>
</a>
</g>
</g>
<!-- Node5&#45;&gt;Node1 -->
<g id="edge4_Node000001_Node000005" class="edge">
<title>Node5&#45;&gt;Node1</title>
<g id="a_edge4_Node000001_Node000005"><a xlink:title=" ">
<path fill="none" stroke="#9a32cd" stroke-dasharray="5,2" d="M161.07,-59.32C191.09,-62.72 225.31,-67.62 256,-74.5 264.68,-76.45 273.91,-79.16 282.4,-81.93"/>
<polygon fill="#9a32cd" stroke="#9a32cd" points="161.38,-55.84 151.06,-58.23 160.62,-62.79 161.38,-55.84"/>
</a>
</g>
<text text-anchor="middle" x="216.5" y="-78.3" font-family="Arial" font-size="14.00" fill="grey"> statistics_</text>
</g>
<!-- Node6 -->
<g id="Node000006" class="node">
<title>Node6</title>
<g id="a_Node000006"><a xlink:href="structhf__logger__diagnostics__t.html" target="_top" xlink:title="Logger diagnostics structure.">
<polygon fill="white" stroke="#666666" points="159,-23 0,-23 0,0 159,0 159,-23"/>
<text text-anchor="middle" x="79.5" y="-7.8" font-family="Arial" font-size="14.00">hf_logger_diagnostics_t</text>
</a>
</g>
</g>
<!-- Node6&#45;&gt;Node1 -->
<g id="edge5_Node000001_Node000006" class="edge">
<title>Node6&#45;&gt;Node1</title>
<g id="a_edge5_Node000001_Node000006"><a xlink:title=" ">
<path fill="none" stroke="#9a32cd" stroke-dasharray="5,2" d="M169.35,-17.65C198.04,-22.1 229.31,-29.67 256,-42.5 275.58,-51.91 293.6,-69.83 304.2,-81.73"/>
<polygon fill="#9a32cd" stroke="#9a32cd" points="169.72,-14.17 159.33,-16.2 168.72,-21.1 169.72,-14.17"/>
</a>
</g>
<text text-anchor="middle" x="216.5" y="-46.3" font-family="Arial" font-size="14.00" fill="grey"> diagnostics_</text>
</g>
</g>
</svg>
