<?xml version="1.0" encoding="UTF-8" standalone="no"?>
<!DOCTYPE svg PUBLIC "-//W3C//DTD SVG 1.1//EN"
 "http://www.w3.org/Graphics/SVG/1.1/DTD/svg11.dtd">
<!-- Generated by graphviz version 2.43.0 (0)
 -->
<!-- Title: StmI2cDevice Pages: 1 -->
<svg width="450pt" height="179pt"
 viewBox="0.00 0.00 449.50 179.00" xmlns="http://www.w3.org/2000/svg" xmlns:xlink="http://www.w3.org/1999/xlink">
<g id="graph0" class="graph" transform="scale(1 1) rotate(0) translate(4 175)">
<title>StmI2cDevice</title>
<!-- Node1 -->
<g id="Node000001" class="node">
<title>Node1</title>
<g id="a_Node000001"><a xlink:title="STM32 I2C device — stub implementation.">
<polygon fill="#999999" stroke="#666666" points="278,-23 177,-23 177,0 278,0 278,-23"/>
<text text-anchor="middle" x="227.5" y="-7.8" font-family="Arial" font-size="14.00">StmI2cDevice</text>
</a>
</g>
</g>
<!-- Node2 -->
<g id="Node000002" class="node">
<title>Node2</title>
<g id="a_Node000002"><a xlink:href="classBaseI2c.html" target="_top" xlink:title="Abstract base class for I2C device implementations.">
<polygon fill="white" stroke="#666666" points="168,-97 103,-97 103,-74 168,-74 168,-97"/>
<text text-anchor="middle" x="135.5" y="-81.8" font-family="Arial" font-size="14.00">BaseI2c</text>
</a>
</g>
</g>
<!-- Node2&#45;&gt;Node1 -->
<g id="edge1_Node000001_Node000002" class="edge">
<title>Node2&#45;&gt;Node1</title>
<g id="a_edge1_Node000001_Node000002"><a xlink:title=" ">
<path fill="none" stroke="#63b8ff" d="M157.09,-67.6C174.65,-53.86 198.9,-34.88 213.87,-23.17"/>
<polygon fill="#63b8ff" stroke="#63b8ff" points="154.79,-64.96 149.07,-73.88 159.11,-70.47 154.79,-64.96"/>
</a>
</g>
</g>
<!-- Node3 -->
<g id="Node000003" class="node">
<title>Node3</title>
<g id="a_Node000003"><a xlink:href="structhf__i2c__statistics__t.html" target="_top" xlink:title="I2C operation statistics.">
<polygon fill="white" stroke="#666666" points="123,-171 0,-171 0,-148 123,-148 123,-171"/>
<text text-anchor="middle" x="61.5" y="-155.8" font-family="Arial" font-size="14.00">hf_i2c_statistics_t</text>
</a>
</g>
</g>
<!-- Node3&#45;&gt;Node2 -->
<g id="edge2_Node000002_Node000003" class="edge">
<title>Node3&#45;&gt;Node2</title>
<g id="a_edge2_Node000002_Node000003"><a xlink:title=" ">
<path fill="none" stroke="#9a32cd" stroke-dasharray="5,2" d="M79.64,-140.85C93.7,-127.17 112.71,-108.67 124.54,-97.17"/>
<polygon fill="#9a32cd" stroke="#9a32cd" points="77.15,-138.39 72.42,-147.88 82.03,-143.41 77.15,-138.39"/>
</a>
</g>
<text text-anchor="middle" x="137.5" y="-118.8" font-family="Arial" font-size="14.00" fill="grey"> statistics_</text>
</g>
<!-- Node4 -->
<g id="Node000004" class="node">
<title>Node4</title>
<g id="a_Node000004"><a xlink:href="structhf__i2c__diagnostics__t.html" target="_top" xlink:title="I2C diagnostic information.">
<polygon fill="white" stroke="#666666" points="280,-171 141,-171 141,-148 280,-148 280,-171"/>
<text text-anchor="middle" x="210.5" y="-155.8" font-family="Arial" font-size="14.00">hf_i2c_diagnostics_t</text>
</a>
</g>
</g>
<!-- Node4&#45;&gt;Node2 -->
<g id="edge3_Node000002_Node000004" class="edge">
<title>Node4&#45;&gt;Node2</title>
<g id="a_edge3_Node000002_Node000004"><a xlink:title=" ">
<path fill="none" stroke="#9a32cd" stroke-dasharray="5,2" d="M196.16,-139.83C189.63,-131.82 181.56,-122.58 173.5,-115 166.65,-108.56 158.37,-102.2 151.28,-97.13"/>
<polygon fill="#9a32cd" stroke="#9a32cd" points="193.62,-142.26 202.58,-147.91 199.1,-137.9 193.62,-142.26"/>
</a>
</g>
<text text-anchor="middle" x="228" y="-118.8" font-family="Arial" font-size="14.00" fill="grey"> diagnostics_</text>
</g>
<!-- Node5 -->
<g id="Node000005" class="node">
<title>Node5</title>
<g id="a_Node000005"><a xlink:href="classStmI2cBus.html" target="_top" xlink:title="STM32 I2C bus — stub implementation.">
<polygon fill="white" stroke="#666666" points="269,-97 186,-97 186,-74 269,-74 269,-97"/>
<text text-anchor="middle" x="227.5" y="-81.8" font-family="Arial" font-size="14.00">StmI2cBus</text>
</a>
</g>
</g>
<!-- Node5&#45;&gt;Node1 -->
<g id="edge4_Node000001_Node000005" class="edge">
<title>Node5&#45;&gt;Node1</title>
<g id="a_edge4_Node000001_Node000005"><a xlink:title=" ">
<path fill="none" stroke="#9a32cd" stroke-dasharray="5,2" d="M227.5,-63.73C227.5,-50.47 227.5,-33.82 227.5,-23.17"/>
<polygon fill="#9a32cd" stroke="#9a32cd" points="224,-63.88 227.5,-73.88 231,-63.88 224,-63.88"/>
</a>
</g>
<text text-anchor="middle" x="267" y="-44.8" font-family="Arial" font-size="14.00" fill="grey"> parent_bus_</text>
</g>
<!-- Node6 -->
<g id="Node000006" class="node">
<title>Node6</title>
<g id="a_Node000006"><a xlink:href="structhf__i2c__device__config__t.html" target="_top" xlink:title="I2C device configuration structure.">
<polygon fill="white" stroke="#666666" points="441.5,-97 287.5,-97 287.5,-74 441.5,-74 441.5,-97"/>
<text text-anchor="middle" x="364.5" y="-81.8" font-family="Arial" font-size="14.00">hf_i2c_device_config_t</text>
</a>
</g>
</g>
<!-- Node6&#45;&gt;Node1 -->
<g id="edge5_Node000001_Node000006" class="edge">
<title>Node6&#45;&gt;Node1</title>
<g id="a_edge5_Node000001_Node000006"><a xlink:title=" ">
<path fill="none" stroke="#9a32cd" stroke-dasharray="5,2" d="M346.14,-67.03C336.2,-58.29 323.34,-48.09 310.5,-41 297.03,-33.56 281.27,-27.56 267.12,-23.01"/>
<polygon fill="#9a32cd" stroke="#9a32cd" points="343.99,-69.8 353.74,-73.93 348.69,-64.62 343.99,-69.8"/>
</a>
</g>
<text text-anchor="middle" x="356.5" y="-44.8" font-family="Arial" font-size="14.00" fill="grey"> config_</text>
</g>
</g>
</svg>
