<?xml version="1.0" encoding="UTF-8" standalone="no"?>
<!DOCTYPE svg PUBLIC "-//W3C//DTD SVG 1.1//EN"
 "http://www.w3.org/Graphics/SVG/1.1/DTD/svg11.dtd">
<!-- Generated by graphviz version 2.43.0 (0)
 -->
<!-- Title: StmUart Pages: 1 -->
<svg width="300pt" height="165pt"
 viewBox="0.00 0.00 300.00 165.00" xmlns="http://www.w3.org/2000/svg" xmlns:xlink="http://www.w3.org/1999/xlink">

<svg id="main" version="1.1" xmlns="http://www.w3.org/2000/svg" xmlns:xlink="http://www.w3.org/1999/xlink" xml:space="preserve" onload="init(evt)">
<style type="text/css"><![CDATA[
.node, .edge {opacity: 0.7;}
.node.selected, .edge.selected {opacity: 1;}
.edge:hover path { stroke: red; }
.edge:hover polygon { stroke: red; fill: red; }
]]></style>
<script type="application/ecmascript" xlink:href="svg.min.js"/>
<svg id="graph" class="graph">
<g id="graph0" class="graph" transform="scale(1 1) rotate(0) translate(4 161)">
<title>StmUart</title>
<!-- Node1 -->
<g id="Node000001" class="node">
<title>Node1</title>
<g id="a_Node000001"><a xlink:title="STM32 UART implementation.">
<polygon fill="#999999" stroke="#666666" points="175,-23 108,-23 108,0 175,0 175,-23"/>
<text text-anchor="middle" x="141.5" y="-7.8" font-family="Arial" font-size="14.00">StmUart</text>
</a>
</g>
</g>
<!-- Node2 -->
<g id="Node000002" class="node">
<title>Node2</title>
<g id="a_Node000002"><a xlink:href="classBaseUart.html" target="_top" xlink:title="Abstract base class for UART driver implementations.">
<polygon fill="white" stroke="#666666" points="178,-83 105,-83 105,-60 178,-60 178,-83"/>
<text text-anchor="middle" x="141.5" y="-67.8" font-family="Arial" font-size="14.00">BaseUart</text>
</a>
</g>
</g>
<!-- Node2&#45;&gt;Node1 -->
<g id="edge1_Node000001_Node000002" class="edge">
<title>Node2&#45;&gt;Node1</title>
<g id="a_edge1_Node000001_Node000002"><a xlink:title=" ">
<path fill="none" stroke="#63b8ff" d="M141.5,-49.69C141.5,-40.67 141.5,-30.49 141.5,-23.07"/>
<polygon fill="#63b8ff" stroke="#63b8ff" points="138,-49.86 141.5,-59.86 145,-49.86 138,-49.86"/>
</a>
</g>
</g>
<!-- Node3 -->
<g id="Node000003" class="node">
<title>Node3</title>
<g id="a_Node000003"><a xlink:href="structhf__uart__statistics__t.html" target="_top" xlink:title="UART operation statistics.">
<polygon fill="white" stroke="#666666" points="129,-157 0,-157 0,-134 129,-134 129,-157"/>
<text text-anchor="middle" x="64.5" y="-141.8" font-family="Arial" font-size="14.00">hf_uart_statistics_t</text>
</a>
</g>
</g>
<!-- Node3&#45;&gt;Node2 -->
<g id="edge2_Node000002_Node000003" class="edge">
<title>Node3&#45;&gt;Node2</title>
<g id="a_edge2_Node000002_Node000003"><a xlink:title=" ">
<path fill="none" stroke="#9a32cd" stroke-dasharray="5,2" d="M83.38,-126.85C98,-113.17 117.79,-94.67 130.09,-83.17"/>
<polygon fill="#9a32cd" stroke="#9a32cd" points="80.78,-124.49 75.86,-133.88 85.56,-129.6 80.78,-124.49"/>
</a>
</g>
<text text-anchor="middle" x="142.5" y="-104.8" font-family="Arial" font-size="14.00" fill="grey"> statistics_</text>
</g>
<!-- Node4 -->
<g id="Node000004" class="node">
<title>Node4</title>
<g id="a_Node000004"><a xlink:href="structhf__uart__diagnostics__t.html" target="_top" xlink:title="UART diagnostic information.">
<polygon fill="white" stroke="#666666" points="292,-157 147,-157 147,-134 292,-134 292,-157"/>
<text text-anchor="middle" x="219.5" y="-141.8" font-family="Arial" font-size="14.00">hf_uart_diagnostics_t</text>
</a>
</g>
</g>
<!-- Node4&#45;&gt;Node2 -->
<g id="edge3_Node000002_Node000004" class="edge">
<title>Node4&#45;&gt;Node2</title>
<g id="a_edge3_Node000002_Node000004"><a xlink:title=" ">
<path fill="none" stroke="#9a32cd" stroke-dasharray="5,2" d="M203.45,-126.2C196.12,-118.18 187.16,-108.83 178.5,-101 171.53,-94.69 163.28,-88.24 156.34,-83.08"/>
<polygon fill="#9a32cd" stroke="#9a32cd" points="200.88,-128.58 210.17,-133.68 206.09,-123.9 200.88,-128.58"/>
</a>
</g>
<text text-anchor="middle" x="233" y="-104.8" font-family="Arial" font-size="14.00" fill="grey"> diagnostics_</text>
</g>
</g>
</svg>
</svg>

<style type='text/css'>
<![CDATA[
[data-mouse-over-selected='false'] { opacity: 0.7; }
[data-mouse-over-selected='true']  { opacity: 1.0; }
]]>
</style>
<script type="application/ecmascript"><![CDATA[
document.addEventListener('DOMContentLoaded', (event) => {
  highlightEdges();
  highlightAdjacentNodes();
});
]]></script>
</svg>
