<?xml version="1.0" encoding="UTF-8" standalone="no"?>
<!DOCTYPE svg PUBLIC "-//W3C//DTD SVG 1.1//EN"
 "http://www.w3.org/Graphics/SVG/1.1/DTD/svg11.dtd">
<!-- Generated by graphviz version 2.43.0 (0)
 -->
<!-- Title: EspPwm Pages: 1 -->
<!--zoomable 273 -->

<svg id="main" version="1.1" xmlns="http://www.w3.org/2000/svg" xmlns:xlink="http://www.w3.org/1999/xlink" xml:space="preserve" onload="init(evt)">
<style type="text/css"><![CDATA[
.node, .edge {opacity: 0.7;}
.node.selected, .edge.selected {opacity: 1;}
.edge:hover path { stroke: red; }
.edge:hover polygon { stroke: red; fill: red; }
]]></style>

<defs>
  <circle id="rim" cx="0" cy="0" r="7"/>
  <circle id="rim2" cx="0" cy="0" r="3.5"/>
  <g id="zoomPlus">
    <use xlink:href="#rim" fill="#404040"><set attributeName="fill" to="#808080" begin="zoomplus.mouseover" end="zoomplus.mouseout"/></use>
    <path d="M-4,0h8M0,-4v8" fill="none" stroke="white" stroke-width="1.5" pointer-events="none"/>
  </g>
  <g id="zoomMin">
    <use xlink:href="#rim" fill="#404040"><set attributeName="fill" to="#808080" begin="zoomminus.mouseover" end="zoomminus.mouseout"/></use>
    <path d="M-4,0h8" fill="none" stroke="white" stroke-width="1.5" pointer-events="none"/>
  </g>
  <g id="arrowUp" transform="translate(30 24)">
    <use xlink:href="#rim"/>
    <path pointer-events="none" fill="none" stroke="white" stroke-width="1.5" d="M0,-3.0v7 M-2.5,-0.5L0,-3.0L2.5,-0.5"/>
  </g>
  <g id="arrowRight" transform="rotate(90) translate(36 -43)">
    <use xlink:href="#rim"/>
    <path pointer-events="none" fill="none" stroke="white" stroke-width="1.5" d="M0,-3.0v7 M-2.5,-0.5L0,-3.0L2.5,-0.5"/>
  </g>
  <g id="arrowDown" transform="rotate(180) translate(-30 -48)">
    <use xlink:href="#rim"/>
    <path pointer-events="none" fill="none" stroke="white" stroke-width="1.5" d="M0,-3.0v7 M-2.5,-0.5L0,-3.0L2.5,-0.5"/>
  </g>
  <g id="arrowLeft" transform="rotate(270) translate(-36 17)">
    <use xlink:href="#rim"/>
    <path pointer-events="none" fill="none" stroke="white" stroke-width="1.5" d="M0,-3.0v7 M-2.5,-0.5L0,-3.0L2.5,-0.5"/>
  </g>
  <g id="resetDef">
    <use xlink:href="#rim2" fill="#404040"><set attributeName="fill" to="#808080" begin="reset.mouseover" end="reset.mouseout"/></use>
  </g>
</defs>
<script type="application/ecmascript">
var viewWidth = 705;
var viewHeight = 273;
var sectionId = 'dynsection-1';
</script>
<script type="application/ecmascript" xlink:href="svg.min.js"/>
<svg id="graph" class="graph">
<g id="viewport">
<title>EspPwm</title>
<!-- Node1 -->
<g id="Node000001" class="node">
<title>Node1</title>
<g id="a_Node000001"><a xlink:title="ESP32 PWM implementation using LEDC peripheral with comprehensive ESP32 variant support.">
<polygon fill="#999999" stroke="#666666" points="697,-140 626,-140 626,-117 697,-117 697,-140"/>
<text text-anchor="middle" x="661.5" y="-124.8" font-family="Arial" font-size="14.00">EspPwm</text>
</a>
</g>
</g>
<!-- Node2 -->
<g id="Node000002" class="node">
<title>Node2</title>
<g id="a_Node000002"><a xlink:href="classBasePwm.html" target="_top" xlink:title="Abstract base class for PWM implementations.">
<polygon fill="white" stroke="#666666" points="410,-213 332,-213 332,-190 410,-190 410,-213"/>
<text text-anchor="middle" x="371" y="-197.8" font-family="Arial" font-size="14.00">BasePwm</text>
</a>
</g>
</g>
<!-- Node2&#45;&gt;Node1 -->
<g id="edge1_Node000001_Node000002" class="edge">
<title>Node2&#45;&gt;Node1</title>
<g id="a_edge1_Node000001_Node000002"><a xlink:title=" ">
<path fill="none" stroke="#63b8ff" d="M420.05,-202.63C469.18,-202.12 546.77,-196.58 608,-170.5 624.32,-163.55 639.77,-150.04 649.63,-140.22"/>
<polygon fill="#63b8ff" stroke="#63b8ff" points="420,-199.13 410.01,-202.67 420.03,-206.13 420,-199.13"/>
</a>
</g>
</g>
<!-- Node3 -->
<g id="Node000003" class="node">
<title>Node3</title>
<g id="a_Node000003"><a xlink:href="structhf__pwm__statistics__t.html" target="_top" xlink:title="PWM statistics information.">
<polygon fill="white" stroke="#666666" points="143,-248 8,-248 8,-225 143,-225 143,-248"/>
<text text-anchor="middle" x="75.5" y="-232.8" font-family="Arial" font-size="14.00">hf_pwm_statistics_t</text>
</a>
</g>
</g>
<!-- Node3&#45;&gt;Node1 -->
<g id="edge6_Node000001_Node000003" class="edge">
<title>Node3&#45;&gt;Node1</title>
<g id="a_edge6_Node000001_Node000003"><a xlink:title=" ">
<path fill="none" stroke="#9a32cd" stroke-dasharray="5,2" d="M153.35,-242.76C158.65,-243.06 163.9,-243.31 169,-243.5 204.09,-244.83 212.93,-245.11 248,-243.5 409.13,-236.1 470.81,-282.33 608,-197.5 630.66,-183.49 647.08,-155.87 655.06,-140.15"/>
<polygon fill="#9a32cd" stroke="#9a32cd" points="153.35,-239.25 143.16,-242.15 152.93,-246.24 153.35,-239.25"/>
</a>
</g>
<text text-anchor="middle" x="371" y="-253.3" font-family="Arial" font-size="14.00" fill="grey"> statistics_</text>
</g>
<!-- Node3&#45;&gt;Node2 -->
<g id="edge2_Node000002_Node000003" class="edge">
<title>Node3&#45;&gt;Node2</title>
<g id="a_edge2_Node000002_Node000003"><a xlink:title=" ">
<path fill="none" stroke="#9a32cd" stroke-dasharray="5,2" d="M153.24,-227.35C210.71,-220.5 286.89,-211.41 331.95,-206.04"/>
<polygon fill="#9a32cd" stroke="#9a32cd" points="152.61,-223.9 143.1,-228.56 153.44,-230.85 152.61,-223.9"/>
</a>
</g>
<text text-anchor="middle" x="208.5" y="-228.3" font-family="Arial" font-size="14.00" fill="grey"> statistics_</text>
</g>
<!-- Node4 -->
<g id="Node000004" class="node">
<title>Node4</title>
<g id="a_Node000004"><a xlink:href="structhf__pwm__diagnostics__t.html" target="_top" xlink:title="PWM diagnostics information.">
<polygon fill="white" stroke="#666666" points="151,-192 0,-192 0,-169 151,-169 151,-192"/>
<text text-anchor="middle" x="75.5" y="-176.8" font-family="Arial" font-size="14.00">hf_pwm_diagnostics_t</text>
</a>
</g>
</g>
<!-- Node4&#45;&gt;Node1 -->
<g id="edge7_Node000001_Node000004" class="edge">
<title>Node4&#45;&gt;Node1</title>
<g id="a_edge7_Node000001_Node000004"><a xlink:title=" ">
<path fill="none" stroke="#9a32cd" stroke-dasharray="5,2" d="M161.19,-174.23C193.93,-171.81 231.71,-169.02 266,-166.5 418,-155.33 457.49,-165.46 608,-141.5 613.84,-140.57 619.99,-139.31 625.94,-137.94"/>
<polygon fill="#9a32cd" stroke="#9a32cd" points="160.92,-170.74 151.2,-174.97 161.43,-177.72 160.92,-170.74"/>
</a>
</g>
<text text-anchor="middle" x="371" y="-170.3" font-family="Arial" font-size="14.00" fill="grey"> diagnostics_</text>
</g>
<!-- Node4&#45;&gt;Node2 -->
<g id="edge3_Node000002_Node000004" class="edge">
<title>Node4&#45;&gt;Node2</title>
<g id="a_edge3_Node000002_Node000004"><a xlink:title=" ">
<path fill="none" stroke="#9a32cd" stroke-dasharray="5,2" d="M161.28,-184.91C188.94,-186.49 219.79,-188.41 248,-190.5 276.1,-192.59 307.8,-195.46 331.84,-197.75"/>
<polygon fill="#9a32cd" stroke="#9a32cd" points="161.42,-181.41 151.24,-184.34 161.03,-188.4 161.42,-181.41"/>
</a>
</g>
<text text-anchor="middle" x="208.5" y="-194.3" font-family="Arial" font-size="14.00" fill="grey"> diagnostics_</text>
</g>
<!-- Node5 -->
<g id="Node000005" class="node">
<title>Node5</title>
<g id="a_Node000005"><a xlink:href="classPlatformMutexImpl.html" target="_top" xlink:title=" ">
<polygon fill="white" stroke="#666666" points="476,-120.5 266,-120.5 266,-82.5 476,-82.5 476,-120.5"/>
<text text-anchor="start" x="274" y="-105.3" font-family="Arial" font-size="14.00">PlatformMutexImpl&lt;</text>
<text text-anchor="middle" x="371" y="-90.3" font-family="Arial" font-size="14.00"> PlatformMutexActiveBackend &gt;</text>
</a>
</g>
</g>
<!-- Node5&#45;&gt;Node1 -->
<g id="edge4_Node000001_Node000005" class="edge">
<title>Node5&#45;&gt;Node1</title>
<g id="a_edge4_Node000001_Node000005"><a xlink:title=" ">
<path fill="none" stroke="#9a32cd" stroke-dasharray="5,2" d="M486.39,-112.21C536.27,-116.87 591.13,-122.01 625.68,-125.24"/>
<polygon fill="#9a32cd" stroke="#9a32cd" points="486.44,-108.69 476.16,-111.25 485.79,-115.66 486.44,-108.69"/>
</a>
</g>
<text text-anchor="middle" x="551" y="-126.3" font-family="Arial" font-size="14.00" fill="grey"> mutex_</text>
</g>
<!-- Node6 -->
<g id="Node000006" class="node">
<title>Node6</title>
<g id="a_Node000006"><a xlink:href="structhf__pwm__unit__config__t.html" target="_top" xlink:title="ESP32 PWM unit configuration.">
<polygon fill="white" stroke="#666666" points="445.5,-64 296.5,-64 296.5,-41 445.5,-41 445.5,-64"/>
<text text-anchor="middle" x="371" y="-48.8" font-family="Arial" font-size="14.00">hf_pwm_unit_config_t</text>
</a>
</g>
</g>
<!-- Node6&#45;&gt;Node1 -->
<g id="edge5_Node000001_Node000006" class="edge">
<title>Node6&#45;&gt;Node1</title>
<g id="a_edge5_Node000001_Node000006"><a xlink:title=" ">
<path fill="none" stroke="#9a32cd" stroke-dasharray="5,2" d="M455.63,-58.5C501.83,-63.9 559.52,-74.14 608,-93.5 622.24,-99.19 636.61,-109.12 646.7,-116.96"/>
<polygon fill="#9a32cd" stroke="#9a32cd" points="455.98,-55.02 445.65,-57.39 455.2,-61.98 455.98,-55.02"/>
</a>
</g>
<text text-anchor="middle" x="551" y="-97.3" font-family="Arial" font-size="14.00" fill="grey"> unit_config_</text>
</g>
<!-- Node7 -->
<g id="Node000007" class="node">
<title>Node7</title>
<g id="a_Node000007"><a xlink:href="structhf__pwm__eviction__request__t.html" target="_top" xlink:title="Eviction request information passed to user callback.">
<polygon fill="white" stroke="#666666" points="462,-23 280,-23 280,0 462,0 462,-23"/>
<text text-anchor="middle" x="371" y="-7.8" font-family="Arial" font-size="14.00">hf_pwm_eviction_request_t</text>
</a>
</g>
</g>
<!-- Node7&#45;&gt;Node1 -->
<g id="edge8_Node000001_Node000007" class="edge">
<title>Node7&#45;&gt;Node1</title>
<g id="a_edge8_Node000001_Node000007"><a xlink:title=" ">
<path fill="none" stroke="#9a32cd" stroke-dasharray="5,2" d="M472.08,-6.96C516.78,-9.38 568.23,-18.7 608,-44.5 634.83,-61.91 650.39,-98.36 656.89,-117"/>
<polygon fill="#9a32cd" stroke="#9a32cd" points="472.2,-3.47 462.06,-6.53 471.9,-10.46 472.2,-3.47"/>
</a>
</g>
<text text-anchor="middle" x="551" y="-48.3" font-family="Arial" font-size="14.00" fill="grey"> eviction_callback_</text>
</g>
</g>
</svg>

<g id="navigator" transform="translate(0 0)" fill="#404254">
  <rect fill="#f2f5e9" fill-opacity="0.5" stroke="#606060" stroke-width=".5" x="0" y="0" width="60" height="60"/>
  <use id="zoomplus" xlink:href="#zoomPlus" x="17" y="9" onmousedown="handleZoom(evt,'in')"/>
  <use id="zoomminus" xlink:href="#zoomMin" x="42" y="9" onmousedown="handleZoom(evt,'out')"/>
  <use id="reset" xlink:href="#resetDef" x="30" y="36" onmousedown="handleReset()"/>
   <use id="arrowup" xlink:href="#arrowUp" x="0" y="0" onmousedown="handlePan(0,-1)"/>
  <use id="arrowright" xlink:href="#arrowRight" x="0" y="0" onmousedown="handlePan(1,0)"/>
  <use id="arrowdown" xlink:href="#arrowDown" x="0" y="0" onmousedown="handlePan(0,1)"/>
  <use id="arrowleft" xlink:href="#arrowLeft" x="0" y="0" onmousedown="handlePan(-1,0)"/>
</g>
<svg viewBox="0 0 15 15" width="100%" height="30px" preserveAspectRatio="xMaxYMin meet">
 <g id="arrow_out" transform="scale(0.3 0.3)">
  <a xlink:href="classEspPwm__coll__graph_org.svg" target="_base">
   <rect id="button" ry="5" rx="5" y="6" x="6" height="38" width="38"
        fill="#f2f5e9" fill-opacity="0.5" stroke="#606060" stroke-width="1.0"/>
   <path id="arrow"
     d="M 11.500037,31.436501 C 11.940474,20.09759 22.043105,11.32322 32.158766,21.979434 L 37.068811,17.246167 C 37.068811,17.246167 37.088388,32 37.088388,32 L 22.160133,31.978069 C 22.160133,31.978069 26.997745,27.140456 26.997745,27.140456 C 18.528582,18.264221 13.291696,25.230495 11.500037,31.436501 z"
     style="fill:#404040;"/>
  </a>
 </g>
</svg>

<style type='text/css'>
<![CDATA[
[data-mouse-over-selected='false'] { opacity: 0.7; }
[data-mouse-over-selected='true']  { opacity: 1.0; }
]]>
</style>
<script type="application/ecmascript"><![CDATA[
document.addEventListener('DOMContentLoaded', (event) => {
  highlightEdges();
  highlightAdjacentNodes();
});
]]></script>
</svg>
