<?xml version="1.0" encoding="UTF-8" standalone="no"?>
<!DOCTYPE svg PUBLIC "-//W3C//DTD SVG 1.1//EN"
 "http://www.w3.org/Graphics/SVG/1.1/DTD/svg11.dtd">
<!-- Generated by graphviz version 2.43.0 (0)
 -->
<!-- Title: StmPeriodicTimer Pages: 1 -->
<svg width="354pt" height="268pt"
 viewBox="0.00 0.00 354.00 268.00" xmlns="http://www.w3.org/2000/svg" xmlns:xlink="http://www.w3.org/1999/xlink">

<svg id="main" version="1.1" xmlns="http://www.w3.org/2000/svg" xmlns:xlink="http://www.w3.org/1999/xlink" xml:space="preserve" onload="init(evt)">
<style type="text/css"><![CDATA[
.node, .edge {opacity: 0.7;}
.node.selected, .edge.selected {opacity: 1;}
.edge:hover path { stroke: red; }
.edge:hover polygon { stroke: red; fill: red; }
]]></style>
<script type="application/ecmascript" xlink:href="svg.min.js"/>
<svg id="graph" class="graph">
<g id="graph0" class="graph" transform="scale(1 1) rotate(0) translate(4 264)">
<title>StmPeriodicTimer</title>
<!-- Node1 -->
<g id="Node000001" class="node">
<title>Node1</title>
<g id="a_Node000001"><a xlink:title="STM32 Periodic Timer implementation.">
<polygon fill="#999999" stroke="#666666" points="282,-112 157,-112 157,-89 282,-89 282,-112"/>
<text text-anchor="middle" x="219.5" y="-96.8" font-family="Arial" font-size="14.00">StmPeriodicTimer</text>
</a>
</g>
</g>
<!-- Node6 -->
<g id="Node000006" class="node">
<title>Node6</title>
<g id="a_Node000006"><a xlink:href="structStmPeriodicTimer_1_1DispatchEntry.html" target="_top" xlink:title=" ">
<polygon fill="white" stroke="#666666" points="312,-38 127,-38 127,0 312,0 312,-38"/>
<text text-anchor="start" x="135" y="-22.8" font-family="Arial" font-size="14.00">StmPeriodicTimer::Dispatch</text>
<text text-anchor="middle" x="219.5" y="-7.8" font-family="Arial" font-size="14.00">Entry</text>
</a>
</g>
</g>
<!-- Node1&#45;&gt;Node6 -->
<g id="edge6_Node000006_Node000001" class="edge">
<title>Node1&#45;&gt;Node6</title>
<g id="a_edge6_Node000006_Node000001"><a xlink:title=" ">
<path fill="none" stroke="#9a32cd" stroke-dasharray="5,2" d="M187.08,-82.65C183.24,-79.31 179.85,-75.44 177.5,-71 171.16,-59.04 179.59,-47.27 190.52,-38.06"/>
<polygon fill="#9a32cd" stroke="#9a32cd" points="185.3,-85.69 195.43,-88.78 189.44,-80.04 185.3,-85.69"/>
</a>
</g>
<text text-anchor="middle" x="205" y="-59.8" font-family="Arial" font-size="14.00" fill="grey"> instance</text>
</g>
<!-- Node2 -->
<g id="Node000002" class="node">
<title>Node2</title>
<g id="a_Node000002"><a xlink:href="classBasePeriodicTimer.html" target="_top" xlink:title="Abstract base class for periodic timer operations.">
<polygon fill="white" stroke="#666666" points="215,-186 84,-186 84,-163 215,-163 215,-186"/>
<text text-anchor="middle" x="149.5" y="-170.8" font-family="Arial" font-size="14.00">BasePeriodicTimer</text>
</a>
</g>
</g>
<!-- Node2&#45;&gt;Node1 -->
<g id="edge1_Node000001_Node000002" class="edge">
<title>Node2&#45;&gt;Node1</title>
<g id="a_edge1_Node000001_Node000002"><a xlink:title=" ">
<path fill="none" stroke="#63b8ff" d="M167.03,-155.47C180.29,-141.83 198.05,-123.56 209.13,-112.17"/>
<polygon fill="#63b8ff" stroke="#63b8ff" points="164.29,-153.27 159.83,-162.88 169.31,-158.15 164.29,-153.27"/>
</a>
</g>
</g>
<!-- Node3 -->
<g id="Node000003" class="node">
<title>Node3</title>
<g id="a_Node000003"><a xlink:href="structhf__timer__statistics__t.html" target="_top" xlink:title="Timer operation statistics.">
<polygon fill="white" stroke="#666666" points="137,-260 0,-260 0,-237 137,-237 137,-260"/>
<text text-anchor="middle" x="68.5" y="-244.8" font-family="Arial" font-size="14.00">hf_timer_statistics_t</text>
</a>
</g>
</g>
<!-- Node3&#45;&gt;Node2 -->
<g id="edge2_Node000002_Node000003" class="edge">
<title>Node3&#45;&gt;Node2</title>
<g id="a_edge2_Node000002_Node000003"><a xlink:title=" ">
<path fill="none" stroke="#9a32cd" stroke-dasharray="5,2" d="M87.93,-230.23C103.36,-216.51 124.44,-197.78 137.5,-186.17"/>
<polygon fill="#9a32cd" stroke="#9a32cd" points="85.6,-227.62 80.45,-236.88 90.25,-232.85 85.6,-227.62"/>
</a>
</g>
<text text-anchor="middle" x="148.5" y="-207.8" font-family="Arial" font-size="14.00" fill="grey"> statistics_</text>
</g>
<!-- Node4 -->
<g id="Node000004" class="node">
<title>Node4</title>
<g id="a_Node000004"><a xlink:href="structhf__timer__diagnostics__t.html" target="_top" xlink:title="Timer diagnostic information.">
<polygon fill="white" stroke="#666666" points="307.5,-260 155.5,-260 155.5,-237 307.5,-237 307.5,-260"/>
<text text-anchor="middle" x="231.5" y="-244.8" font-family="Arial" font-size="14.00">hf_timer_diagnostics_t</text>
</a>
</g>
</g>
<!-- Node4&#45;&gt;Node2 -->
<g id="edge3_Node000002_Node000004" class="edge">
<title>Node4&#45;&gt;Node2</title>
<g id="a_edge3_Node000002_Node000004"><a xlink:title=" ">
<path fill="none" stroke="#9a32cd" stroke-dasharray="5,2" d="M213.18,-230.04C204.59,-221.99 194.14,-212.37 184.5,-204 177.52,-197.94 169.54,-191.41 162.96,-186.13"/>
<polygon fill="#9a32cd" stroke="#9a32cd" points="210.8,-232.61 220.48,-236.93 215.6,-227.52 210.8,-232.61"/>
</a>
</g>
<text text-anchor="middle" x="240" y="-207.8" font-family="Arial" font-size="14.00" fill="grey"> diagnostics_</text>
</g>
<!-- Node5 -->
<g id="Node000005" class="node">
<title>Node5</title>
<g id="a_Node000005"><a xlink:href="structhf__timer__stats__t.html" target="_top" xlink:title="Timer statistics structure.">
<polygon fill="white" stroke="#666666" points="346,-186 233,-186 233,-163 346,-163 346,-186"/>
<text text-anchor="middle" x="289.5" y="-170.8" font-family="Arial" font-size="14.00">hf_timer_stats_t</text>
</a>
</g>
</g>
<!-- Node5&#45;&gt;Node1 -->
<g id="edge4_Node000001_Node000005" class="edge">
<title>Node5&#45;&gt;Node1</title>
<g id="a_edge4_Node000001_Node000005"><a xlink:title=" ">
<path fill="none" stroke="#9a32cd" stroke-dasharray="5,2" d="M271.97,-155.47C258.71,-141.83 240.95,-123.56 229.87,-112.17"/>
<polygon fill="#9a32cd" stroke="#9a32cd" points="269.69,-158.15 279.17,-162.88 274.71,-153.27 269.69,-158.15"/>
</a>
</g>
<text text-anchor="middle" x="280.5" y="-133.8" font-family="Arial" font-size="14.00" fill="grey"> stats_</text>
</g>
<!-- Node6&#45;&gt;Node1 -->
<g id="edge5_Node000001_Node000006" class="edge">
<title>Node6&#45;&gt;Node1</title>
<g id="a_edge5_Node000001_Node000006"><a xlink:title=" ">
<path fill="none" stroke="#9a32cd" stroke-dasharray="5,2" d="M234.96,-47.67C237.45,-55.19 238.6,-63.37 236.5,-71 234.75,-77.33 231.19,-83.68 227.78,-88.77"/>
<polygon fill="#9a32cd" stroke="#9a32cd" points="238.13,-46.18 231.08,-38.27 231.66,-48.85 238.13,-46.18"/>
</a>
</g>
<text text-anchor="middle" x="276.5" y="-59.8" font-family="Arial" font-size="14.00" fill="grey"> s_dispatch_</text>
</g>
</g>
</svg>
</svg>

<style type='text/css'>
<![CDATA[
[data-mouse-over-selected='false'] { opacity: 0.7; }
[data-mouse-over-selected='true']  { opacity: 1.0; }
]]>
</style>
<script type="application/ecmascript"><![CDATA[
document.addEventListener('DOMContentLoaded', (event) => {
  highlightEdges();
  highlightAdjacentNodes();
});
]]></script>
</svg>
