<?xml version="1.0" encoding="UTF-8" standalone="no"?>
<!DOCTYPE svg PUBLIC "-//W3C//DTD SVG 1.1//EN"
 "http://www.w3.org/Graphics/SVG/1.1/DTD/svg11.dtd">
<!-- Generated by graphviz version 2.43.0 (0)
 -->
<!-- Title: EspNvs Pages: 1 -->
<svg width="624pt" height="187pt"
 viewBox="0.00 0.00 624.00 187.00" xmlns="http://www.w3.org/2000/svg" xmlns:xlink="http://www.w3.org/1999/xlink">
<g id="graph0" class="graph" transform="scale(1 1) rotate(0) translate(4 183)">
<title>EspNvs</title>
<!-- Node1 -->
<g id="Node000001" class="node">
<title>Node1</title>
<g id="a_Node000001"><a xlink:title="Production&#45;ready MCU&#45;integrated non&#45;volatile storage implementation.">
<polygon fill="#999999" stroke="#666666" points="616,-107.5 553,-107.5 553,-84.5 616,-84.5 616,-107.5"/>
<text text-anchor="middle" x="584.5" y="-92.3" font-family="Arial" font-size="14.00">EspNvs</text>
</a>
</g>
</g>
<!-- Node2 -->
<g id="Node000002" class="node">
<title>Node2</title>
<g id="a_Node000002"><a xlink:href="classBaseNvs.html" target="_top" xlink:title="Abstract base class for non&#45;volatile storage operations.">
<polygon fill="white" stroke="#666666" points="398.5,-130.5 327.5,-130.5 327.5,-107.5 398.5,-107.5 398.5,-130.5"/>
<text text-anchor="middle" x="363" y="-115.3" font-family="Arial" font-size="14.00">BaseNvs</text>
</a>
</g>
</g>
<!-- Node2&#45;&gt;Node1 -->
<g id="edge1_Node000001_Node000002" class="edge">
<title>Node2&#45;&gt;Node1</title>
<g id="a_edge1_Node000001_Node000002"><a xlink:title=" ">
<path fill="none" stroke="#63b8ff" d="M408.95,-114.29C451.86,-109.79 515.36,-103.14 552.78,-99.22"/>
<polygon fill="#63b8ff" stroke="#63b8ff" points="408.36,-110.83 398.78,-115.36 409.09,-117.79 408.36,-110.83"/>
</a>
</g>
</g>
<!-- Node3 -->
<g id="Node000003" class="node">
<title>Node3</title>
<g id="a_Node000003"><a xlink:href="structhf__nvs__statistics__t.html" target="_top" xlink:title="NVS operation statistics.">
<polygon fill="white" stroke="#666666" points="135,-165.5 8,-165.5 8,-142.5 135,-142.5 135,-165.5"/>
<text text-anchor="middle" x="71.5" y="-150.3" font-family="Arial" font-size="14.00">hf_nvs_statistics_t</text>
</a>
</g>
</g>
<!-- Node3&#45;&gt;Node1 -->
<g id="edge4_Node000001_Node000003" class="edge">
<title>Node3&#45;&gt;Node1</title>
<g id="a_edge4_Node000001_Node000003"><a xlink:title=" ">
<path fill="none" stroke="#9a32cd" stroke-dasharray="5,2" d="M145.44,-160.23C150.71,-160.54 155.93,-160.8 161,-161 297.66,-166.4 334.28,-168.68 468,-140 500.73,-132.98 536.46,-118.18 559.38,-107.68"/>
<polygon fill="#9a32cd" stroke="#9a32cd" points="145.52,-156.72 135.31,-159.58 145.07,-163.71 145.52,-156.72"/>
</a>
</g>
<text text-anchor="middle" x="363" y="-167.8" font-family="Arial" font-size="14.00" fill="grey"> statistics_</text>
</g>
<!-- Node3&#45;&gt;Node2 -->
<g id="edge2_Node000002_Node000003" class="edge">
<title>Node3&#45;&gt;Node2</title>
<g id="a_edge2_Node000002_Node000003"><a xlink:title=" ">
<path fill="none" stroke="#9a32cd" stroke-dasharray="5,2" d="M145.57,-145.17C203.79,-138.13 282.7,-128.59 327.38,-123.19"/>
<polygon fill="#9a32cd" stroke="#9a32cd" points="144.82,-141.73 135.32,-146.41 145.67,-148.68 144.82,-141.73"/>
</a>
</g>
<text text-anchor="middle" x="200.5" y="-145.8" font-family="Arial" font-size="14.00" fill="grey"> statistics_</text>
</g>
<!-- Node4 -->
<g id="Node000004" class="node">
<title>Node4</title>
<g id="a_Node000004"><a xlink:href="structhf__nvs__diagnostics__t.html" target="_top" xlink:title="NVS diagnostic information.">
<polygon fill="white" stroke="#666666" points="143,-109.5 0,-109.5 0,-86.5 143,-86.5 143,-109.5"/>
<text text-anchor="middle" x="71.5" y="-94.3" font-family="Arial" font-size="14.00">hf_nvs_diagnostics_t</text>
</a>
</g>
</g>
<!-- Node4&#45;&gt;Node1 -->
<g id="edge5_Node000001_Node000004" class="edge">
<title>Node4&#45;&gt;Node1</title>
<g id="a_edge5_Node000001_Node000004"><a xlink:title=" ">
<path fill="none" stroke="#9a32cd" stroke-dasharray="5,2" d="M153.67,-90.54C186.09,-87.91 223.78,-85.29 258,-84 351.27,-80.49 374.79,-79.17 468,-84 496.79,-85.49 529.46,-89.06 552.68,-91.92"/>
<polygon fill="#9a32cd" stroke="#9a32cd" points="153.02,-87.08 143.34,-91.4 153.59,-94.06 153.02,-87.08"/>
</a>
</g>
<text text-anchor="middle" x="363" y="-87.8" font-family="Arial" font-size="14.00" fill="grey"> diagnostics_</text>
</g>
<!-- Node4&#45;&gt;Node2 -->
<g id="edge3_Node000002_Node000004" class="edge">
<title>Node4&#45;&gt;Node2</title>
<g id="a_edge3_Node000002_Node000004"><a xlink:title=" ">
<path fill="none" stroke="#9a32cd" stroke-dasharray="5,2" d="M153.02,-102.31C180.62,-103.92 211.67,-105.88 240,-108 269.48,-110.21 302.91,-113.26 327.32,-115.59"/>
<polygon fill="#9a32cd" stroke="#9a32cd" points="153.21,-98.82 143.03,-101.74 152.81,-105.81 153.21,-98.82"/>
</a>
</g>
<text text-anchor="middle" x="200.5" y="-111.8" font-family="Arial" font-size="14.00" fill="grey"> diagnostics_</text>
</g>
<!-- Node5 -->
<g id="Node000005" class="node">
<title>Node5</title>
<g id="a_Node000005"><a xlink:href="classPlatformMutexImpl.html" target="_top" xlink:title=" ">
<polygon fill="white" stroke="#666666" points="468,-38 258,-38 258,0 468,0 468,-38"/>
<text text-anchor="start" x="266" y="-22.8" font-family="Arial" font-size="14.00">PlatformMutexImpl&lt;</text>
<text text-anchor="middle" x="363" y="-7.8" font-family="Arial" font-size="14.00"> PlatformMutexActiveBackend &gt;</text>
</a>
</g>
</g>
<!-- Node5&#45;&gt;Node1 -->
<g id="edge6_Node000001_Node000005" class="edge">
<title>Node5&#45;&gt;Node1</title>
<g id="a_edge6_Node000001_Node000005"><a xlink:title=" ">
<path fill="none" stroke="#9a32cd" stroke-dasharray="5,2" d="M478.22,-25.67C497.88,-29.77 517.58,-35.91 535,-45 552.55,-54.15 567.31,-72.14 575.78,-84.12"/>
<polygon fill="#9a32cd" stroke="#9a32cd" points="478.75,-22.2 468.27,-23.76 477.43,-29.08 478.75,-22.2"/>
</a>
</g>
<text text-anchor="middle" x="510.5" y="-48.8" font-family="Arial" font-size="14.00" fill="grey"> mutex_</text>
</g>
</g>
</svg>
