<?xml version="1.0" encoding="UTF-8" standalone="no"?>
<!DOCTYPE svg PUBLIC "-//W3C//DTD SVG 1.1//EN"
 "http://www.w3.org/Graphics/SVG/1.1/DTD/svg11.dtd">
<!-- Generated by graphviz version 2.43.0 (0)
 -->
<!-- Title: StmPeriodicTimer Pages: 1 -->
<svg width="316pt" height="165pt"
 viewBox="0.00 0.00 315.50 165.00" xmlns="http://www.w3.org/2000/svg" xmlns:xlink="http://www.w3.org/1999/xlink">

<svg id="main" version="1.1" xmlns="http://www.w3.org/2000/svg" xmlns:xlink="http://www.w3.org/1999/xlink" xml:space="preserve" onload="init(evt)">
<style type="text/css"><![CDATA[
.node, .edge {opacity: 0.7;}
.node.selected, .edge.selected {opacity: 1;}
.edge:hover path { stroke: red; }
.edge:hover polygon { stroke: red; fill: red; }
]]></style>
<script type="application/ecmascript" xlink:href="svg.min.js"/>
<svg id="graph" class="graph">
<g id="graph0" class="graph" transform="scale(1 1) rotate(0) translate(4 161)">
<title>StmPeriodicTimer</title>
<!-- Node1 -->
<g id="Node000001" class="node">
<title>Node1</title>
<g id="a_Node000001"><a xlink:title="STM32 Periodic Timer — stub implementation.">
<polygon fill="#999999" stroke="#666666" points="212,-23 87,-23 87,0 212,0 212,-23"/>
<text text-anchor="middle" x="149.5" y="-7.8" font-family="Arial" font-size="14.00">StmPeriodicTimer</text>
</a>
</g>
</g>
<!-- Node2 -->
<g id="Node000002" class="node">
<title>Node2</title>
<g id="a_Node000002"><a xlink:href="classBasePeriodicTimer.html" target="_top" xlink:title="Abstract base class for periodic timer operations.">
<polygon fill="white" stroke="#666666" points="215,-83 84,-83 84,-60 215,-60 215,-83"/>
<text text-anchor="middle" x="149.5" y="-67.8" font-family="Arial" font-size="14.00">BasePeriodicTimer</text>
</a>
</g>
</g>
<!-- Node2&#45;&gt;Node1 -->
<g id="edge1_Node000001_Node000002" class="edge">
<title>Node2&#45;&gt;Node1</title>
<g id="a_edge1_Node000001_Node000002"><a xlink:title=" ">
<path fill="none" stroke="#63b8ff" d="M149.5,-49.69C149.5,-40.67 149.5,-30.49 149.5,-23.07"/>
<polygon fill="#63b8ff" stroke="#63b8ff" points="146,-49.86 149.5,-59.86 153,-49.86 146,-49.86"/>
</a>
</g>
</g>
<!-- Node3 -->
<g id="Node000003" class="node">
<title>Node3</title>
<g id="a_Node000003"><a xlink:href="structhf__timer__statistics__t.html" target="_top" xlink:title="Timer operation statistics.">
<polygon fill="white" stroke="#666666" points="137,-157 0,-157 0,-134 137,-134 137,-157"/>
<text text-anchor="middle" x="68.5" y="-141.8" font-family="Arial" font-size="14.00">hf_timer_statistics_t</text>
</a>
</g>
</g>
<!-- Node3&#45;&gt;Node2 -->
<g id="edge2_Node000002_Node000003" class="edge">
<title>Node3&#45;&gt;Node2</title>
<g id="a_edge2_Node000002_Node000003"><a xlink:title=" ">
<path fill="none" stroke="#9a32cd" stroke-dasharray="5,2" d="M87.93,-127.23C103.36,-113.51 124.44,-94.78 137.5,-83.17"/>
<polygon fill="#9a32cd" stroke="#9a32cd" points="85.6,-124.62 80.45,-133.88 90.25,-129.85 85.6,-124.62"/>
</a>
</g>
<text text-anchor="middle" x="148.5" y="-104.8" font-family="Arial" font-size="14.00" fill="grey"> statistics_</text>
</g>
<!-- Node4 -->
<g id="Node000004" class="node">
<title>Node4</title>
<g id="a_Node000004"><a xlink:href="structhf__timer__diagnostics__t.html" target="_top" xlink:title="Timer diagnostic information.">
<polygon fill="white" stroke="#666666" points="307.5,-157 155.5,-157 155.5,-134 307.5,-134 307.5,-157"/>
<text text-anchor="middle" x="231.5" y="-141.8" font-family="Arial" font-size="14.00">hf_timer_diagnostics_t</text>
</a>
</g>
</g>
<!-- Node4&#45;&gt;Node2 -->
<g id="edge3_Node000002_Node000004" class="edge">
<title>Node4&#45;&gt;Node2</title>
<g id="a_edge3_Node000002_Node000004"><a xlink:title=" ">
<path fill="none" stroke="#9a32cd" stroke-dasharray="5,2" d="M213.18,-127.04C204.59,-118.99 194.14,-109.37 184.5,-101 177.52,-94.94 169.54,-88.41 162.96,-83.13"/>
<polygon fill="#9a32cd" stroke="#9a32cd" points="210.8,-129.61 220.48,-133.93 215.6,-124.52 210.8,-129.61"/>
</a>
</g>
<text text-anchor="middle" x="239" y="-104.8" font-family="Arial" font-size="14.00" fill="grey"> diagnostics_</text>
</g>
</g>
</svg>
</svg>

<style type='text/css'>
<![CDATA[
[data-mouse-over-selected='false'] { opacity: 0.7; }
[data-mouse-over-selected='true']  { opacity: 1.0; }
]]>
</style>
<script type="application/ecmascript"><![CDATA[
document.addEventListener('DOMContentLoaded', (event) => {
  highlightEdges();
  highlightAdjacentNodes();
});
]]></script>
</svg>
