<?xml version="1.0" encoding="UTF-8" standalone="no"?>
<!DOCTYPE svg PUBLIC "-//W3C//DTD SVG 1.1//EN"
 "http://www.w3.org/Graphics/SVG/1.1/DTD/svg11.dtd">
<!-- Generated by graphviz version 2.43.0 (0)
 -->
<!-- Title: StmNvs Pages: 1 -->
<svg width="296pt" height="165pt"
 viewBox="0.00 0.00 296.00 165.00" xmlns="http://www.w3.org/2000/svg" xmlns:xlink="http://www.w3.org/1999/xlink">

<svg id="main" version="1.1" xmlns="http://www.w3.org/2000/svg" xmlns:xlink="http://www.w3.org/1999/xlink" xml:space="preserve" onload="init(evt)">
<style type="text/css"><![CDATA[
.node, .edge {opacity: 0.7;}
.node.selected, .edge.selected {opacity: 1;}
.edge:hover path { stroke: red; }
.edge:hover polygon { stroke: red; fill: red; }
]]></style>
<script type="application/ecmascript" xlink:href="svg.min.js"/>
<svg id="graph" class="graph">
<g id="graph0" class="graph" transform="scale(1 1) rotate(0) translate(4 161)">
<title>StmNvs</title>
<!-- Node1 -->
<g id="Node000001" class="node">
<title>Node1</title>
<g id="a_Node000001"><a xlink:title="STM32 NVS — stub implementation.">
<polygon fill="#999999" stroke="#666666" points="172,-23 107,-23 107,0 172,0 172,-23"/>
<text text-anchor="middle" x="139.5" y="-7.8" font-family="Arial" font-size="14.00">StmNvs</text>
</a>
</g>
</g>
<!-- Node2 -->
<g id="Node000002" class="node">
<title>Node2</title>
<g id="a_Node000002"><a xlink:href="classBaseNvs.html" target="_top" xlink:title="Abstract base class for non&#45;volatile storage operations.">
<polygon fill="white" stroke="#666666" points="175,-83 104,-83 104,-60 175,-60 175,-83"/>
<text text-anchor="middle" x="139.5" y="-67.8" font-family="Arial" font-size="14.00">BaseNvs</text>
</a>
</g>
</g>
<!-- Node2&#45;&gt;Node1 -->
<g id="edge1_Node000001_Node000002" class="edge">
<title>Node2&#45;&gt;Node1</title>
<g id="a_edge1_Node000001_Node000002"><a xlink:title=" ">
<path fill="none" stroke="#63b8ff" d="M139.5,-49.69C139.5,-40.67 139.5,-30.49 139.5,-23.07"/>
<polygon fill="#63b8ff" stroke="#63b8ff" points="136,-49.86 139.5,-59.86 143,-49.86 136,-49.86"/>
</a>
</g>
</g>
<!-- Node3 -->
<g id="Node000003" class="node">
<title>Node3</title>
<g id="a_Node000003"><a xlink:href="structhf__nvs__statistics__t.html" target="_top" xlink:title="NVS operation statistics.">
<polygon fill="white" stroke="#666666" points="127,-157 0,-157 0,-134 127,-134 127,-157"/>
<text text-anchor="middle" x="63.5" y="-141.8" font-family="Arial" font-size="14.00">hf_nvs_statistics_t</text>
</a>
</g>
</g>
<!-- Node3&#45;&gt;Node2 -->
<g id="edge2_Node000002_Node000003" class="edge">
<title>Node3&#45;&gt;Node2</title>
<g id="a_edge2_Node000002_Node000003"><a xlink:title=" ">
<path fill="none" stroke="#9a32cd" stroke-dasharray="5,2" d="M82.13,-126.85C96.57,-113.17 116.1,-94.67 128.24,-83.17"/>
<polygon fill="#9a32cd" stroke="#9a32cd" points="79.57,-124.46 74.71,-133.88 84.38,-129.54 79.57,-124.46"/>
</a>
</g>
<text text-anchor="middle" x="140.5" y="-104.8" font-family="Arial" font-size="14.00" fill="grey"> statistics_</text>
</g>
<!-- Node4 -->
<g id="Node000004" class="node">
<title>Node4</title>
<g id="a_Node000004"><a xlink:href="structhf__nvs__diagnostics__t.html" target="_top" xlink:title="NVS diagnostic information.">
<polygon fill="white" stroke="#666666" points="288,-157 145,-157 145,-134 288,-134 288,-157"/>
<text text-anchor="middle" x="216.5" y="-141.8" font-family="Arial" font-size="14.00">hf_nvs_diagnostics_t</text>
</a>
</g>
</g>
<!-- Node4&#45;&gt;Node2 -->
<g id="edge3_Node000002_Node000004" class="edge">
<title>Node4&#45;&gt;Node2</title>
<g id="a_edge3_Node000002_Node000004"><a xlink:title=" ">
<path fill="none" stroke="#9a32cd" stroke-dasharray="5,2" d="M200.68,-125.92C193.58,-117.95 184.92,-108.72 176.5,-101 169.57,-94.65 161.32,-88.2 154.37,-83.05"/>
<polygon fill="#9a32cd" stroke="#9a32cd" points="198.22,-128.42 207.44,-133.65 203.49,-123.82 198.22,-128.42"/>
</a>
</g>
<text text-anchor="middle" x="230" y="-104.8" font-family="Arial" font-size="14.00" fill="grey"> diagnostics_</text>
</g>
</g>
</svg>
</svg>

<style type='text/css'>
<![CDATA[
[data-mouse-over-selected='false'] { opacity: 0.7; }
[data-mouse-over-selected='true']  { opacity: 1.0; }
]]>
</style>
<script type="application/ecmascript"><![CDATA[
document.addEventListener('DOMContentLoaded', (event) => {
  highlightEdges();
  highlightAdjacentNodes();
});
]]></script>
</svg>
