<?xml version="1.0" encoding="UTF-8" standalone="no"?>
<!DOCTYPE svg PUBLIC "-//W3C//DTD SVG 1.1//EN"
 "http://www.w3.org/Graphics/SVG/1.1/DTD/svg11.dtd">
<!-- Generated by graphviz version 2.43.0 (0)
 -->
<!-- Title: src/mcu/esp32/EspGpio.cpp Pages: 1 -->
<svg width="1819pt" height="326pt"
 viewBox="0.00 0.00 1819.00 326.00" xmlns="http://www.w3.org/2000/svg" xmlns:xlink="http://www.w3.org/1999/xlink">
<g id="graph0" class="graph" transform="scale(1 1) rotate(0) translate(4 322)">
<title>src/mcu/esp32/EspGpio.cpp</title>
<!-- Node1 -->
<g id="Node000001" class="node">
<title>Node1</title>
<g id="a_Node000001"><a xlink:title="Production&#45;quality ESP32C6 GPIO implementation with ESP&#45;IDF v5.5+ advanced features.">
<polygon fill="#999999" stroke="#666666" points="823,-318 636,-318 636,-295 823,-295 823,-318"/>
<text text-anchor="middle" x="729.5" y="-302.8" font-family="Arial" font-size="14.00">src/mcu/esp32/EspGpio.cpp</text>
</a>
</g>
</g>
<!-- Node2 -->
<g id="Node000002" class="node">
<title>Node2</title>
<g id="a_Node000002"><a xlink:href="EspGpio_8h.html" target="_top" xlink:title="Advanced MCU&#45;specific implementation of the unified BaseGpio class with ESP32C6/ESP&#45;IDF v5....">
<polygon fill="white" stroke="#666666" points="199.5,-259 119.5,-259 119.5,-236 199.5,-236 199.5,-259"/>
<text text-anchor="middle" x="159.5" y="-243.8" font-family="Arial" font-size="14.00">EspGpio.h</text>
</a>
</g>
</g>
<!-- Node1&#45;&gt;Node2 -->
<g id="edge1_Node000001_Node000002" class="edge">
<title>Node1&#45;&gt;Node2</title>
<g id="a_edge1_Node000001_Node000002"><a xlink:title=" ">
<path fill="none" stroke="#63b8ff" d="M635.92,-300.6C533.56,-294.45 364.56,-282.02 209.72,-259.03"/>
<polygon fill="#63b8ff" stroke="#63b8ff" points="209.95,-255.52 199.54,-257.5 208.91,-262.44 209.95,-255.52"/>
</a>
</g>
</g>
<!-- Node3 -->
<g id="Node000003" class="node">
<title>Node3</title>
<g id="a_Node000003"><a xlink:title=" ">
<polygon fill="#e0e0e0" stroke="#999999" points="113,-200 22,-200 22,-177 113,-177 113,-200"/>
<text text-anchor="middle" x="67.5" y="-184.8" font-family="Arial" font-size="14.00">driver/gpio.h</text>
</a>
</g>
</g>
<!-- Node1&#45;&gt;Node3 -->
<g id="edge23_Node000001_Node000003" class="edge">
<title>Node1&#45;&gt;Node3</title>
<g id="a_edge23_Node000001_Node000003"><a xlink:title=" ">
<path fill="none" stroke="#63b8ff" d="M635.69,-303.11C473.61,-298.3 154.22,-285.56 110.5,-259 92.4,-248 80.78,-226.19 74.25,-209.93"/>
<polygon fill="#63b8ff" stroke="#63b8ff" points="77.41,-208.38 70.67,-200.2 70.84,-210.8 77.41,-208.38"/>
</a>
</g>
</g>
<!-- Node13 -->
<g id="Node000013" class="node">
<title>Node13</title>
<g id="a_Node000013"><a xlink:title=" ">
<polygon fill="#e0e0e0" stroke="#999999" points="57,-82 0,-82 0,-59 57,-59 57,-82"/>
<text text-anchor="middle" x="28.5" y="-66.8" font-family="Arial" font-size="14.00">atomic</text>
</a>
</g>
</g>
<!-- Node1&#45;&gt;Node13 -->
<g id="edge21_Node000001_Node000013" class="edge">
<title>Node1&#45;&gt;Node13</title>
<g id="a_edge21_Node000001_Node000013"><a xlink:title=" ">
<path fill="none" stroke="#63b8ff" d="M635.92,-305.57C482.08,-304.56 183.06,-297.5 85.5,-259 46.7,-243.69 30.48,-237.64 12.5,-200 -4.43,-164.54 9.22,-117.6 19.58,-91.38"/>
<polygon fill="#63b8ff" stroke="#63b8ff" points="22.83,-92.69 23.45,-82.11 16.37,-89.99 22.83,-92.69"/>
</a>
</g>
</g>
<!-- Node15 -->
<g id="Node000015" class="node">
<title>Node15</title>
<g id="a_Node000015"><a xlink:title=" ">
<polygon fill="#e0e0e0" stroke="#999999" points="291,-259 218,-259 218,-236 291,-236 291,-259"/>
<text text-anchor="middle" x="254.5" y="-243.8" font-family="Arial" font-size="14.00">algorithm</text>
</a>
</g>
</g>
<!-- Node1&#45;&gt;Node15 -->
<g id="edge20_Node000001_Node000015" class="edge">
<title>Node1&#45;&gt;Node15</title>
<g id="a_edge20_Node000001_Node000015"><a xlink:title=" ">
<path fill="none" stroke="#63b8ff" d="M635.76,-298.5C550.94,-291.44 422.46,-278.95 301.28,-258.96"/>
<polygon fill="#63b8ff" stroke="#63b8ff" points="301.52,-255.45 291.08,-257.25 300.37,-262.35 301.52,-255.45"/>
</a>
</g>
</g>
<!-- Node16 -->
<g id="Node000016" class="node">
<title>Node16</title>
<g id="a_Node000016"><a xlink:title=" ">
<polygon fill="#e0e0e0" stroke="#999999" points="365.5,-259 309.5,-259 309.5,-236 365.5,-236 365.5,-259"/>
<text text-anchor="middle" x="337.5" y="-243.8" font-family="Arial" font-size="14.00">cstring</text>
</a>
</g>
</g>
<!-- Node1&#45;&gt;Node16 -->
<g id="edge22_Node000001_Node000016" class="edge">
<title>Node1&#45;&gt;Node16</title>
<g id="a_edge22_Node000001_Node000016"><a xlink:title=" ">
<path fill="none" stroke="#63b8ff" d="M635.75,-296.77C564.05,-289.24 462.98,-276.74 375.5,-259 375.4,-258.98 375.3,-258.96 375.2,-258.94"/>
<polygon fill="#63b8ff" stroke="#63b8ff" points="376.15,-255.57 365.62,-256.74 374.58,-262.39 376.15,-255.57"/>
</a>
</g>
</g>
<!-- Node17 -->
<g id="Node000017" class="node">
<title>Node17</title>
<g id="a_Node000017"><a xlink:title=" ">
<polygon fill="#e0e0e0" stroke="#999999" points="507,-259 384,-259 384,-236 507,-236 507,-259"/>
<text text-anchor="middle" x="445.5" y="-243.8" font-family="Arial" font-size="14.00">driver/gpio_filter.h</text>
</a>
</g>
</g>
<!-- Node1&#45;&gt;Node17 -->
<g id="edge24_Node000001_Node000017" class="edge">
<title>Node1&#45;&gt;Node17</title>
<g id="a_edge24_Node000001_Node000017"><a xlink:title=" ">
<path fill="none" stroke="#63b8ff" d="M677.08,-294.98C629.3,-285.39 558.64,-271.21 507.95,-261.03"/>
<polygon fill="#63b8ff" stroke="#63b8ff" points="508.59,-257.59 498.1,-259.06 507.21,-264.46 508.59,-257.59"/>
</a>
</g>
</g>
<!-- Node18 -->
<g id="Node000018" class="node">
<title>Node18</title>
<g id="a_Node000018"><a xlink:title=" ">
<polygon fill="#e0e0e0" stroke="#999999" points="623.5,-259 525.5,-259 525.5,-236 623.5,-236 623.5,-259"/>
<text text-anchor="middle" x="574.5" y="-243.8" font-family="Arial" font-size="14.00">driver/rtc_io.h</text>
</a>
</g>
</g>
<!-- Node1&#45;&gt;Node18 -->
<g id="edge25_Node000001_Node000018" class="edge">
<title>Node1&#45;&gt;Node18</title>
<g id="a_edge25_Node000001_Node000018"><a xlink:title=" ">
<path fill="none" stroke="#63b8ff" d="M700.71,-294.91C675.91,-285.79 639.93,-272.56 612.73,-262.56"/>
<polygon fill="#63b8ff" stroke="#63b8ff" points="613.73,-259.2 603.14,-259.03 611.31,-265.77 613.73,-259.2"/>
</a>
</g>
</g>
<!-- Node19 -->
<g id="Node000019" class="node">
<title>Node19</title>
<g id="a_Node000019"><a xlink:title=" ">
<polygon fill="#e0e0e0" stroke="#999999" points="717,-259 642,-259 642,-236 717,-236 717,-259"/>
<text text-anchor="middle" x="679.5" y="-243.8" font-family="Arial" font-size="14.00">esp_log.h</text>
</a>
</g>
</g>
<!-- Node1&#45;&gt;Node19 -->
<g id="edge26_Node000001_Node000019" class="edge">
<title>Node1&#45;&gt;Node19</title>
<g id="a_edge26_Node000001_Node000019"><a xlink:title=" ">
<path fill="none" stroke="#63b8ff" d="M720.1,-294.78C713.18,-286.9 703.62,-275.99 695.51,-266.75"/>
<polygon fill="#63b8ff" stroke="#63b8ff" points="698.09,-264.38 688.86,-259.17 692.83,-269 698.09,-264.38"/>
</a>
</g>
</g>
<!-- Node20 -->
<g id="Node000020" class="node">
<title>Node20</title>
<g id="a_Node000020"><a xlink:title=" ">
<polygon fill="#e0e0e0" stroke="#999999" points="824,-259 735,-259 735,-236 824,-236 824,-259"/>
<text text-anchor="middle" x="779.5" y="-243.8" font-family="Arial" font-size="14.00">esp_sleep.h</text>
</a>
</g>
</g>
<!-- Node1&#45;&gt;Node20 -->
<g id="edge27_Node000001_Node000020" class="edge">
<title>Node1&#45;&gt;Node20</title>
<g id="a_edge27_Node000001_Node000020"><a xlink:title=" ">
<path fill="none" stroke="#63b8ff" d="M738.9,-294.78C745.82,-286.9 755.38,-275.99 763.49,-266.75"/>
<polygon fill="#63b8ff" stroke="#63b8ff" points="766.17,-269 770.14,-259.17 760.91,-264.38 766.17,-269"/>
</a>
</g>
</g>
<!-- Node21 -->
<g id="Node000021" class="node">
<title>Node21</title>
<g id="a_Node000021"><a xlink:title=" ">
<polygon fill="#e0e0e0" stroke="#999999" points="929,-259 842,-259 842,-236 929,-236 929,-259"/>
<text text-anchor="middle" x="885.5" y="-243.8" font-family="Arial" font-size="14.00">esp_timer.h</text>
</a>
</g>
</g>
<!-- Node1&#45;&gt;Node21 -->
<g id="edge28_Node000001_Node000021" class="edge">
<title>Node1&#45;&gt;Node21</title>
<g id="a_edge28_Node000001_Node000021"><a xlink:title=" ">
<path fill="none" stroke="#63b8ff" d="M758.48,-294.91C783.43,-285.79 819.65,-272.56 847.03,-262.56"/>
<polygon fill="#63b8ff" stroke="#63b8ff" points="848.49,-265.75 856.68,-259.03 846.08,-259.18 848.49,-265.75"/>
</a>
</g>
</g>
<!-- Node22 -->
<g id="Node000022" class="node">
<title>Node22</title>
<g id="a_Node000022"><a xlink:title=" ">
<polygon fill="#e0e0e0" stroke="#999999" points="1090,-259 947,-259 947,-236 1090,-236 1090,-259"/>
<text text-anchor="middle" x="1018.5" y="-243.8" font-family="Arial" font-size="14.00">freertos/FreeRTOS.h</text>
</a>
</g>
</g>
<!-- Node1&#45;&gt;Node22 -->
<g id="edge29_Node000001_Node000022" class="edge">
<title>Node1&#45;&gt;Node22</title>
<g id="a_edge29_Node000001_Node000022"><a xlink:title=" ">
<path fill="none" stroke="#63b8ff" d="M782.84,-294.98C831.47,-285.39 903.36,-271.21 954.95,-261.03"/>
<polygon fill="#63b8ff" stroke="#63b8ff" points="955.84,-264.43 964.98,-259.06 954.49,-257.56 955.84,-264.43"/>
</a>
</g>
</g>
<!-- Node23 -->
<g id="Node000023" class="node">
<title>Node23</title>
<g id="a_Node000023"><a xlink:title=" ">
<polygon fill="#e0e0e0" stroke="#999999" points="1230.5,-259 1108.5,-259 1108.5,-236 1230.5,-236 1230.5,-259"/>
<text text-anchor="middle" x="1169.5" y="-243.8" font-family="Arial" font-size="14.00">freertos/semphr.h</text>
</a>
</g>
</g>
<!-- Node1&#45;&gt;Node23 -->
<g id="edge30_Node000001_Node000023" class="edge">
<title>Node1&#45;&gt;Node23</title>
<g id="a_edge30_Node000001_Node000023"><a xlink:title=" ">
<path fill="none" stroke="#63b8ff" d="M818.17,-294.96C890.75,-286.19 996.39,-273.11 1098.27,-259.15"/>
<polygon fill="#63b8ff" stroke="#63b8ff" points="1099,-262.58 1108.43,-257.75 1098.05,-255.64 1099,-262.58"/>
</a>
</g>
</g>
<!-- Node24 -->
<g id="Node000024" class="node">
<title>Node24</title>
<g id="a_Node000024"><a xlink:title=" ">
<polygon fill="#e0e0e0" stroke="#999999" points="1364,-259 1249,-259 1249,-236 1364,-236 1364,-259"/>
<text text-anchor="middle" x="1306.5" y="-243.8" font-family="Arial" font-size="14.00">hal/gpio_types.h</text>
</a>
</g>
</g>
<!-- Node1&#45;&gt;Node24 -->
<g id="edge31_Node000001_Node000024" class="edge">
<title>Node1&#45;&gt;Node24</title>
<g id="a_edge31_Node000001_Node000024"><a xlink:title=" ">
<path fill="none" stroke="#63b8ff" d="M823.22,-298.78C923.47,-291.17 1087.35,-277.55 1238.83,-259.01"/>
<polygon fill="#63b8ff" stroke="#63b8ff" points="1239.29,-262.48 1248.79,-257.79 1238.44,-255.54 1239.29,-262.48"/>
</a>
</g>
</g>
<!-- Node25 -->
<g id="Node000025" class="node">
<title>Node25</title>
<g id="a_Node000025"><a xlink:title=" ">
<polygon fill="#e0e0e0" stroke="#999999" points="1504.5,-259 1382.5,-259 1382.5,-236 1504.5,-236 1504.5,-259"/>
<text text-anchor="middle" x="1443.5" y="-243.8" font-family="Arial" font-size="14.00">hal/rtc_io_types.h</text>
</a>
</g>
</g>
<!-- Node1&#45;&gt;Node25 -->
<g id="edge32_Node000001_Node000025" class="edge">
<title>Node1&#45;&gt;Node25</title>
<g id="a_edge32_Node000001_Node000025"><a xlink:title=" ">
<path fill="none" stroke="#63b8ff" d="M823.02,-301C946.44,-294.57 1170.65,-281.12 1372.26,-259.06"/>
<polygon fill="#63b8ff" stroke="#63b8ff" points="1372.9,-262.51 1382.45,-257.94 1372.13,-255.56 1372.9,-262.51"/>
</a>
</g>
</g>
<!-- Node26 -->
<g id="Node000026" class="node">
<title>Node26</title>
<g id="a_Node000026"><a xlink:title=" ">
<polygon fill="#e0e0e0" stroke="#999999" points="1656,-259 1523,-259 1523,-236 1656,-236 1656,-259"/>
<text text-anchor="middle" x="1589.5" y="-243.8" font-family="Arial" font-size="14.00">soc/clk_tree_defs.h</text>
</a>
</g>
</g>
<!-- Node1&#45;&gt;Node26 -->
<g id="edge33_Node000001_Node000026" class="edge">
<title>Node1&#45;&gt;Node26</title>
<g id="a_edge33_Node000001_Node000026"><a xlink:title=" ">
<path fill="none" stroke="#63b8ff" d="M823.21,-302.31C968.51,-296.83 1257.11,-283.86 1512.59,-259.02"/>
<polygon fill="#63b8ff" stroke="#63b8ff" points="1513.2,-262.47 1522.81,-258.01 1512.51,-255.51 1513.2,-262.47"/>
</a>
</g>
</g>
<!-- Node27 -->
<g id="Node000027" class="node">
<title>Node27</title>
<g id="a_Node000027"><a xlink:title=" ">
<polygon fill="#e0e0e0" stroke="#999999" points="1811,-259 1674,-259 1674,-236 1811,-236 1811,-259"/>
<text text-anchor="middle" x="1742.5" y="-243.8" font-family="Arial" font-size="14.00">soc/gpio_sig_map.h</text>
</a>
</g>
</g>
<!-- Node1&#45;&gt;Node27 -->
<g id="edge34_Node000001_Node000027" class="edge">
<title>Node1&#45;&gt;Node27</title>
<g id="a_edge34_Node000001_Node000027"><a xlink:title=" ">
<path fill="none" stroke="#63b8ff" d="M823.02,-303.51C989.87,-299.38 1350.05,-287.81 1663.49,-259.12"/>
<polygon fill="#63b8ff" stroke="#63b8ff" points="1664.05,-262.59 1673.69,-258.18 1663.41,-255.62 1664.05,-262.59"/>
</a>
</g>
</g>
<!-- Node2&#45;&gt;Node3 -->
<g id="edge2_Node000002_Node000003" class="edge">
<title>Node2&#45;&gt;Node3</title>
<g id="a_edge2_Node000002_Node000003"><a xlink:title=" ">
<path fill="none" stroke="#63b8ff" d="M142.2,-235.78C128.45,-227.26 109,-215.21 93.4,-205.55"/>
<polygon fill="#63b8ff" stroke="#63b8ff" points="95.07,-202.46 84.73,-200.17 91.38,-208.42 95.07,-202.46"/>
</a>
</g>
</g>
<!-- Node4 -->
<g id="Node000004" class="node">
<title>Node4</title>
<g id="a_Node000004"><a xlink:title=" ">
<polygon fill="#e0e0e0" stroke="#999999" points="281.5,-200 205.5,-200 205.5,-177 281.5,-177 281.5,-200"/>
<text text-anchor="middle" x="243.5" y="-184.8" font-family="Arial" font-size="14.00">esp_attr.h</text>
</a>
</g>
</g>
<!-- Node2&#45;&gt;Node4 -->
<g id="edge3_Node000002_Node000004" class="edge">
<title>Node2&#45;&gt;Node4</title>
<g id="a_edge3_Node000002_Node000004"><a xlink:title=" ">
<path fill="none" stroke="#63b8ff" d="M175.3,-235.78C187.74,-227.34 205.28,-215.44 219.45,-205.82"/>
<polygon fill="#63b8ff" stroke="#63b8ff" points="221.46,-208.68 227.77,-200.17 217.53,-202.89 221.46,-208.68"/>
</a>
</g>
</g>
<!-- Node5 -->
<g id="Node000005" class="node">
<title>Node5</title>
<g id="a_Node000005"><a xlink:href="BaseGpio_8h.html" target="_top" xlink:title="Unified GPIO base class for all digital GPIO implementations.">
<polygon fill="white" stroke="#666666" points="499.5,-141 411.5,-141 411.5,-118 499.5,-118 499.5,-141"/>
<text text-anchor="middle" x="455.5" y="-125.8" font-family="Arial" font-size="14.00">BaseGpio.h</text>
</a>
</g>
</g>
<!-- Node2&#45;&gt;Node5 -->
<g id="edge4_Node000002_Node000005" class="edge">
<title>Node2&#45;&gt;Node5</title>
<g id="a_edge4_Node000002_Node000005"><a xlink:title=" ">
<path fill="none" stroke="#63b8ff" d="M199.57,-237.72C202.59,-237.12 205.59,-236.54 208.5,-236 259.37,-226.58 400.4,-235 438.5,-200 451.75,-187.83 455.45,-167.18 456.16,-151.55"/>
<polygon fill="#63b8ff" stroke="#63b8ff" points="459.66,-151.27 456.25,-141.24 452.66,-151.21 459.66,-151.27"/>
</a>
</g>
</g>
<!-- Node10 -->
<g id="Node000010" class="node">
<title>Node10</title>
<g id="a_Node000010"><a xlink:href="EspTypes__GPIO_8h.html" target="_top" xlink:title="ESP32 GPIO type definitions for hardware abstraction.">
<polygon fill="white" stroke="#666666" points="429.5,-200 299.5,-200 299.5,-177 429.5,-177 429.5,-200"/>
<text text-anchor="middle" x="364.5" y="-184.8" font-family="Arial" font-size="14.00">EspTypes_GPIO.h</text>
</a>
</g>
</g>
<!-- Node2&#45;&gt;Node10 -->
<g id="edge10_Node000002_Node000010" class="edge">
<title>Node2&#45;&gt;Node10</title>
<g id="a_edge10_Node000002_Node000010"><a xlink:title=" ">
<path fill="none" stroke="#63b8ff" d="M197.58,-235.91C231.24,-226.55 280.48,-212.86 316.76,-202.77"/>
<polygon fill="#63b8ff" stroke="#63b8ff" points="317.93,-206.08 326.63,-200.03 316.05,-199.34 317.93,-206.08"/>
</a>
</g>
</g>
<!-- Node14 -->
<g id="Node000014" class="node">
<title>Node14</title>
<g id="a_Node000014"><a xlink:title=" ">
<polygon fill="#e0e0e0" stroke="#999999" points="187.5,-200 131.5,-200 131.5,-177 187.5,-177 187.5,-200"/>
<text text-anchor="middle" x="159.5" y="-184.8" font-family="Arial" font-size="14.00">stdio.h</text>
</a>
</g>
</g>
<!-- Node2&#45;&gt;Node14 -->
<g id="edge19_Node000002_Node000014" class="edge">
<title>Node2&#45;&gt;Node14</title>
<g id="a_edge19_Node000002_Node000014"><a xlink:title=" ">
<path fill="none" stroke="#63b8ff" d="M159.5,-235.78C159.5,-228.61 159.5,-218.95 159.5,-210.31"/>
<polygon fill="#63b8ff" stroke="#63b8ff" points="163,-210.17 159.5,-200.17 156,-210.17 163,-210.17"/>
</a>
</g>
</g>
<!-- Node6 -->
<g id="Node000006" class="node">
<title>Node6</title>
<g id="a_Node000006"><a xlink:href="HardwareTypes_8h.html" target="_top" xlink:title="Platform&#45;agnostic hardware type definitions for the HardFOC system.">
<polygon fill="white" stroke="#666666" points="427.5,-82 305.5,-82 305.5,-59 427.5,-59 427.5,-82"/>
<text text-anchor="middle" x="366.5" y="-66.8" font-family="Arial" font-size="14.00">HardwareTypes.h</text>
</a>
</g>
</g>
<!-- Node5&#45;&gt;Node6 -->
<g id="edge5_Node000005_Node000006" class="edge">
<title>Node5&#45;&gt;Node6</title>
<g id="a_edge5_Node000005_Node000006"><a xlink:title=" ">
<path fill="none" stroke="#63b8ff" d="M438.76,-117.78C425.58,-109.34 407,-97.44 391.98,-87.82"/>
<polygon fill="#63b8ff" stroke="#63b8ff" points="393.47,-84.62 383.17,-82.17 389.7,-90.51 393.47,-84.62"/>
</a>
</g>
</g>
<!-- Node7 -->
<g id="Node000007" class="node">
<title>Node7</title>
<g id="a_Node000007"><a xlink:title=" ">
<polygon fill="#e0e0e0" stroke="#999999" points="429.5,-23 373.5,-23 373.5,0 429.5,0 429.5,-23"/>
<text text-anchor="middle" x="401.5" y="-7.8" font-family="Arial" font-size="14.00">cstdint</text>
</a>
</g>
</g>
<!-- Node5&#45;&gt;Node7 -->
<g id="edge8_Node000005_Node000007" class="edge">
<title>Node5&#45;&gt;Node7</title>
<g id="a_edge8_Node000005_Node000007"><a xlink:title=" ">
<path fill="none" stroke="#63b8ff" d="M453.85,-117.69C451.42,-103.63 446.09,-78.54 436.5,-59 431.61,-49.04 424.48,-39.06 417.92,-30.92"/>
<polygon fill="#63b8ff" stroke="#63b8ff" points="420.53,-28.58 411.42,-23.18 415.17,-33.09 420.53,-28.58"/>
</a>
</g>
</g>
<!-- Node9 -->
<g id="Node000009" class="node">
<title>Node9</title>
<g id="a_Node000009"><a xlink:title=" ">
<polygon fill="#e0e0e0" stroke="#999999" points="567.5,-82 483.5,-82 483.5,-59 567.5,-59 567.5,-82"/>
<text text-anchor="middle" x="525.5" y="-66.8" font-family="Arial" font-size="14.00">string_view</text>
</a>
</g>
</g>
<!-- Node5&#45;&gt;Node9 -->
<g id="edge9_Node000005_Node000009" class="edge">
<title>Node5&#45;&gt;Node9</title>
<g id="a_edge9_Node000005_Node000009"><a xlink:title=" ">
<path fill="none" stroke="#63b8ff" d="M468.67,-117.78C478.74,-109.58 492.82,-98.11 504.45,-88.64"/>
<polygon fill="#63b8ff" stroke="#63b8ff" points="506.85,-91.2 512.39,-82.17 502.43,-85.77 506.85,-91.2"/>
</a>
</g>
</g>
<!-- Node6&#45;&gt;Node7 -->
<g id="edge6_Node000006_Node000007" class="edge">
<title>Node6&#45;&gt;Node7</title>
<g id="a_edge6_Node000006_Node000007"><a xlink:title=" ">
<path fill="none" stroke="#63b8ff" d="M373.08,-58.78C377.73,-51.22 384.08,-40.87 389.6,-31.88"/>
<polygon fill="#63b8ff" stroke="#63b8ff" points="392.7,-33.53 394.95,-23.17 386.73,-29.86 392.7,-33.53"/>
</a>
</g>
</g>
<!-- Node8 -->
<g id="Node000008" class="node">
<title>Node8</title>
<g id="a_Node000008"><a xlink:title=" ">
<polygon fill="#e0e0e0" stroke="#999999" points="355.5,-23 307.5,-23 307.5,0 355.5,0 355.5,-23"/>
<text text-anchor="middle" x="331.5" y="-7.8" font-family="Arial" font-size="14.00">limits</text>
</a>
</g>
</g>
<!-- Node6&#45;&gt;Node8 -->
<g id="edge7_Node000006_Node000008" class="edge">
<title>Node6&#45;&gt;Node8</title>
<g id="a_edge7_Node000006_Node000008"><a xlink:title=" ">
<path fill="none" stroke="#63b8ff" d="M359.92,-58.78C355.27,-51.22 348.92,-40.87 343.4,-31.88"/>
<polygon fill="#63b8ff" stroke="#63b8ff" points="346.27,-29.86 338.05,-23.17 340.3,-33.53 346.27,-29.86"/>
</a>
</g>
</g>
<!-- Node10&#45;&gt;Node5 -->
<g id="edge11_Node000010_Node000005" class="edge">
<title>Node10&#45;&gt;Node5</title>
<g id="a_edge11_Node000010_Node000005"><a xlink:title=" ">
<path fill="none" stroke="#63b8ff" d="M381.62,-176.78C395.22,-168.26 414.45,-156.21 429.88,-146.55"/>
<polygon fill="#63b8ff" stroke="#63b8ff" points="431.84,-149.45 438.46,-141.17 428.13,-143.52 431.84,-149.45"/>
</a>
</g>
</g>
<!-- Node10&#45;&gt;Node6 -->
<g id="edge17_Node000010_Node000006" class="edge">
<title>Node10&#45;&gt;Node6</title>
<g id="a_edge17_Node000010_Node000006"><a xlink:title=" ">
<path fill="none" stroke="#63b8ff" d="M364.68,-176.79C365.01,-157.63 365.71,-117.15 366.14,-92.34"/>
<polygon fill="#63b8ff" stroke="#63b8ff" points="369.64,-92.24 366.32,-82.18 362.64,-92.12 369.64,-92.24"/>
</a>
</g>
</g>
<!-- Node11 -->
<g id="Node000011" class="node">
<title>Node11</title>
<g id="a_Node000011"><a xlink:href="EspTypes__Base_8h.html" target="_top" xlink:title="ESP32 base type definitions for hardware abstraction.">
<polygon fill="white" stroke="#666666" points="338,-141 213,-141 213,-118 338,-118 338,-141"/>
<text text-anchor="middle" x="275.5" y="-125.8" font-family="Arial" font-size="14.00">EspTypes_Base.h</text>
</a>
</g>
</g>
<!-- Node10&#45;&gt;Node11 -->
<g id="edge12_Node000010_Node000011" class="edge">
<title>Node10&#45;&gt;Node11</title>
<g id="a_edge12_Node000010_Node000011"><a xlink:title=" ">
<path fill="none" stroke="#63b8ff" d="M347.76,-176.78C334.58,-168.34 316,-156.44 300.98,-146.82"/>
<polygon fill="#63b8ff" stroke="#63b8ff" points="302.47,-143.62 292.17,-141.17 298.7,-149.51 302.47,-143.62"/>
</a>
</g>
</g>
<!-- Node12 -->
<g id="Node000012" class="node">
<title>Node12</title>
<g id="a_Node000012"><a xlink:href="McuSelect_8h.html" target="_top" xlink:title="Centralized MCU platform selection and configuration header.">
<polygon fill="white" stroke="#666666" points="249.5,-82 107.5,-82 107.5,-59 249.5,-59 249.5,-82"/>
<text text-anchor="middle" x="178.5" y="-66.8" font-family="Arial" font-size="14.00">../../utils/McuSelect.h</text>
</a>
</g>
</g>
<!-- Node10&#45;&gt;Node12 -->
<g id="edge18_Node000010_Node000012" class="edge">
<title>Node10&#45;&gt;Node12</title>
<g id="a_edge18_Node000010_Node000012"><a xlink:title=" ">
<path fill="none" stroke="#63b8ff" d="M309.43,-176.99C269.5,-168.38 219.93,-155.31 204.5,-141 190.82,-128.31 184.3,-107.73 181.21,-92.25"/>
<polygon fill="#63b8ff" stroke="#63b8ff" points="184.61,-91.36 179.52,-82.07 177.71,-92.51 184.61,-91.36"/>
</a>
</g>
</g>
<!-- Node11&#45;&gt;Node6 -->
<g id="edge14_Node000011_Node000006" class="edge">
<title>Node11&#45;&gt;Node6</title>
<g id="a_edge14_Node000011_Node000006"><a xlink:title=" ">
<path fill="none" stroke="#63b8ff" d="M292.62,-117.78C306.22,-109.26 325.45,-97.21 340.88,-87.55"/>
<polygon fill="#63b8ff" stroke="#63b8ff" points="342.84,-90.45 349.46,-82.17 339.13,-84.52 342.84,-90.45"/>
</a>
</g>
</g>
<!-- Node11&#45;&gt;Node7 -->
<g id="edge16_Node000011_Node000007" class="edge">
<title>Node11&#45;&gt;Node7</title>
<g id="a_edge16_Node000011_Node000007"><a xlink:title=" ">
<path fill="none" stroke="#63b8ff" d="M276.02,-117.76C277.29,-102.85 281.64,-75.81 296.5,-59 305.95,-48.3 337.69,-35.02 363.82,-25.4"/>
<polygon fill="#63b8ff" stroke="#63b8ff" points="365.28,-28.59 373.5,-21.9 362.9,-22 365.28,-28.59"/>
</a>
</g>
</g>
<!-- Node11&#45;&gt;Node12 -->
<g id="edge13_Node000011_Node000012" class="edge">
<title>Node11&#45;&gt;Node12</title>
<g id="a_edge13_Node000011_Node000012"><a xlink:title=" ">
<path fill="none" stroke="#63b8ff" d="M257.26,-117.78C242.62,-109.18 221.87,-96.99 205.35,-87.28"/>
<polygon fill="#63b8ff" stroke="#63b8ff" points="207.06,-84.22 196.66,-82.17 203.51,-90.26 207.06,-84.22"/>
</a>
</g>
</g>
<!-- Node11&#45;&gt;Node13 -->
<g id="edge15_Node000011_Node000013" class="edge">
<title>Node11&#45;&gt;Node13</title>
<g id="a_edge15_Node000011_Node000013"><a xlink:title=" ">
<path fill="none" stroke="#63b8ff" d="M229.91,-117.98C183.09,-107.18 111.04,-90.55 67,-80.38"/>
<polygon fill="#63b8ff" stroke="#63b8ff" points="67.77,-76.97 57.24,-78.13 66.2,-83.79 67.77,-76.97"/>
</a>
</g>
</g>
</g>
</svg>
