<?xml version="1.0" encoding="UTF-8" standalone="no"?>
<!DOCTYPE svg PUBLIC "-//W3C//DTD SVG 1.1//EN"
 "http://www.w3.org/Graphics/SVG/1.1/DTD/svg11.dtd">
<!-- Generated by graphviz version 2.43.0 (0)
 -->
<!-- Title: src/mcu/esp32/EspGpio.cpp Pages: 1 -->
<!--zoomable 326 -->

<svg id="main" version="1.1" xmlns="http://www.w3.org/2000/svg" xmlns:xlink="http://www.w3.org/1999/xlink" xml:space="preserve" onload="init(evt)">
<style type="text/css"><![CDATA[
.node, .edge {opacity: 0.7;}
.node.selected, .edge.selected {opacity: 1;}
.edge:hover path { stroke: red; }
.edge:hover polygon { stroke: red; fill: red; }
]]></style>

<defs>
  <circle id="rim" cx="0" cy="0" r="7"/>
  <circle id="rim2" cx="0" cy="0" r="3.5"/>
  <g id="zoomPlus">
    <use xlink:href="#rim" fill="#404040"><set attributeName="fill" to="#808080" begin="zoomplus.mouseover" end="zoomplus.mouseout"/></use>
    <path d="M-4,0h8M0,-4v8" fill="none" stroke="white" stroke-width="1.5" pointer-events="none"/>
  </g>
  <g id="zoomMin">
    <use xlink:href="#rim" fill="#404040"><set attributeName="fill" to="#808080" begin="zoomminus.mouseover" end="zoomminus.mouseout"/></use>
    <path d="M-4,0h8" fill="none" stroke="white" stroke-width="1.5" pointer-events="none"/>
  </g>
  <g id="arrowUp" transform="translate(30 24)">
    <use xlink:href="#rim"/>
    <path pointer-events="none" fill="none" stroke="white" stroke-width="1.5" d="M0,-3.0v7 M-2.5,-0.5L0,-3.0L2.5,-0.5"/>
  </g>
  <g id="arrowRight" transform="rotate(90) translate(36 -43)">
    <use xlink:href="#rim"/>
    <path pointer-events="none" fill="none" stroke="white" stroke-width="1.5" d="M0,-3.0v7 M-2.5,-0.5L0,-3.0L2.5,-0.5"/>
  </g>
  <g id="arrowDown" transform="rotate(180) translate(-30 -48)">
    <use xlink:href="#rim"/>
    <path pointer-events="none" fill="none" stroke="white" stroke-width="1.5" d="M0,-3.0v7 M-2.5,-0.5L0,-3.0L2.5,-0.5"/>
  </g>
  <g id="arrowLeft" transform="rotate(270) translate(-36 17)">
    <use xlink:href="#rim"/>
    <path pointer-events="none" fill="none" stroke="white" stroke-width="1.5" d="M0,-3.0v7 M-2.5,-0.5L0,-3.0L2.5,-0.5"/>
  </g>
  <g id="resetDef">
    <use xlink:href="#rim2" fill="#404040"><set attributeName="fill" to="#808080" begin="reset.mouseover" end="reset.mouseout"/></use>
  </g>
</defs>
<script type="application/ecmascript">
var viewWidth = 1820;
var viewHeight = 326;
var sectionId = 'dynsection-0';
</script>
<script type="application/ecmascript" xlink:href="svg.min.js"/>
<svg id="graph" class="graph">
<g id="viewport">
<title>src/mcu/esp32/EspGpio.cpp</title>
<!-- Node1 -->
<g id="Node000001" class="node">
<title>Node1</title>
<g id="a_Node000001"><a xlink:title="Production&#45;quality ESP32C6 GPIO implementation with ESP&#45;IDF v5.5+ advanced features.">
<polygon fill="#999999" stroke="#666666" points="824,-318 637,-318 637,-295 824,-295 824,-318"/>
<text text-anchor="middle" x="730.5" y="-302.8" font-family="Arial" font-size="14.00">src/mcu/esp32/EspGpio.cpp</text>
</a>
</g>
</g>
<!-- Node2 -->
<g id="Node000002" class="node">
<title>Node2</title>
<g id="a_Node000002"><a xlink:href="EspGpio_8h.html" target="_top" xlink:title="Advanced MCU&#45;specific implementation of the unified BaseGpio class with ESP32C6/ESP&#45;IDF v5....">
<polygon fill="white" stroke="#666666" points="200.5,-259 120.5,-259 120.5,-236 200.5,-236 200.5,-259"/>
<text text-anchor="middle" x="160.5" y="-243.8" font-family="Arial" font-size="14.00">EspGpio.h</text>
</a>
</g>
</g>
<!-- Node1&#45;&gt;Node2 -->
<g id="edge1_Node000001_Node000002" class="edge">
<title>Node1&#45;&gt;Node2</title>
<g id="a_edge1_Node000001_Node000002"><a xlink:title=" ">
<path fill="none" stroke="#63b8ff" d="M636.92,-300.6C534.56,-294.45 365.56,-282.02 210.72,-259.03"/>
<polygon fill="#63b8ff" stroke="#63b8ff" points="210.95,-255.52 200.54,-257.5 209.91,-262.44 210.95,-255.52"/>
</a>
</g>
</g>
<!-- Node3 -->
<g id="Node000003" class="node">
<title>Node3</title>
<g id="a_Node000003"><a xlink:title=" ">
<polygon fill="#e0e0e0" stroke="#999999" points="114,-200 23,-200 23,-177 114,-177 114,-200"/>
<text text-anchor="middle" x="68.5" y="-184.8" font-family="Arial" font-size="14.00">driver/gpio.h</text>
</a>
</g>
</g>
<!-- Node1&#45;&gt;Node3 -->
<g id="edge24_Node000001_Node000003" class="edge">
<title>Node1&#45;&gt;Node3</title>
<g id="a_edge24_Node000001_Node000003"><a xlink:title=" ">
<path fill="none" stroke="#63b8ff" d="M636.69,-303.11C474.61,-298.3 155.22,-285.56 111.5,-259 93.4,-248 81.78,-226.19 75.25,-209.93"/>
<polygon fill="#63b8ff" stroke="#63b8ff" points="78.41,-208.38 71.67,-200.2 71.84,-210.8 78.41,-208.38"/>
</a>
</g>
</g>
<!-- Node14 -->
<g id="Node000014" class="node">
<title>Node14</title>
<g id="a_Node000014"><a xlink:title=" ">
<polygon fill="#e0e0e0" stroke="#999999" points="57,-82 0,-82 0,-59 57,-59 57,-82"/>
<text text-anchor="middle" x="28.5" y="-66.8" font-family="Arial" font-size="14.00">atomic</text>
</a>
</g>
</g>
<!-- Node1&#45;&gt;Node14 -->
<g id="edge22_Node000001_Node000014" class="edge">
<title>Node1&#45;&gt;Node14</title>
<g id="a_edge22_Node000001_Node000014"><a xlink:title=" ">
<path fill="none" stroke="#63b8ff" d="M636.92,-305.57C483.08,-304.56 184.06,-297.5 86.5,-259 47.7,-243.69 31.48,-237.64 13.5,-200 -3.42,-164.57 9.76,-117.62 19.82,-91.39"/>
<polygon fill="#63b8ff" stroke="#63b8ff" points="23.07,-92.7 23.59,-82.12 16.58,-90.07 23.07,-92.7"/>
</a>
</g>
</g>
<!-- Node16 -->
<g id="Node000016" class="node">
<title>Node16</title>
<g id="a_Node000016"><a xlink:title=" ">
<polygon fill="#e0e0e0" stroke="#999999" points="292,-259 219,-259 219,-236 292,-236 292,-259"/>
<text text-anchor="middle" x="255.5" y="-243.8" font-family="Arial" font-size="14.00">algorithm</text>
</a>
</g>
</g>
<!-- Node1&#45;&gt;Node16 -->
<g id="edge21_Node000001_Node000016" class="edge">
<title>Node1&#45;&gt;Node16</title>
<g id="a_edge21_Node000001_Node000016"><a xlink:title=" ">
<path fill="none" stroke="#63b8ff" d="M636.76,-298.5C551.94,-291.44 423.46,-278.95 302.28,-258.96"/>
<polygon fill="#63b8ff" stroke="#63b8ff" points="302.52,-255.45 292.08,-257.25 301.37,-262.35 302.52,-255.45"/>
</a>
</g>
</g>
<!-- Node17 -->
<g id="Node000017" class="node">
<title>Node17</title>
<g id="a_Node000017"><a xlink:title=" ">
<polygon fill="#e0e0e0" stroke="#999999" points="366.5,-259 310.5,-259 310.5,-236 366.5,-236 366.5,-259"/>
<text text-anchor="middle" x="338.5" y="-243.8" font-family="Arial" font-size="14.00">cstring</text>
</a>
</g>
</g>
<!-- Node1&#45;&gt;Node17 -->
<g id="edge23_Node000001_Node000017" class="edge">
<title>Node1&#45;&gt;Node17</title>
<g id="a_edge23_Node000001_Node000017"><a xlink:title=" ">
<path fill="none" stroke="#63b8ff" d="M636.75,-296.77C565.05,-289.24 463.98,-276.74 376.5,-259 376.4,-258.98 376.3,-258.96 376.2,-258.94"/>
<polygon fill="#63b8ff" stroke="#63b8ff" points="377.15,-255.57 366.62,-256.74 375.58,-262.39 377.15,-255.57"/>
</a>
</g>
</g>
<!-- Node18 -->
<g id="Node000018" class="node">
<title>Node18</title>
<g id="a_Node000018"><a xlink:title=" ">
<polygon fill="#e0e0e0" stroke="#999999" points="508,-259 385,-259 385,-236 508,-236 508,-259"/>
<text text-anchor="middle" x="446.5" y="-243.8" font-family="Arial" font-size="14.00">driver/gpio_filter.h</text>
</a>
</g>
</g>
<!-- Node1&#45;&gt;Node18 -->
<g id="edge25_Node000001_Node000018" class="edge">
<title>Node1&#45;&gt;Node18</title>
<g id="a_edge25_Node000001_Node000018"><a xlink:title=" ">
<path fill="none" stroke="#63b8ff" d="M678.08,-294.98C630.3,-285.39 559.64,-271.21 508.95,-261.03"/>
<polygon fill="#63b8ff" stroke="#63b8ff" points="509.59,-257.59 499.1,-259.06 508.21,-264.46 509.59,-257.59"/>
</a>
</g>
</g>
<!-- Node19 -->
<g id="Node000019" class="node">
<title>Node19</title>
<g id="a_Node000019"><a xlink:title=" ">
<polygon fill="#e0e0e0" stroke="#999999" points="624.5,-259 526.5,-259 526.5,-236 624.5,-236 624.5,-259"/>
<text text-anchor="middle" x="575.5" y="-243.8" font-family="Arial" font-size="14.00">driver/rtc_io.h</text>
</a>
</g>
</g>
<!-- Node1&#45;&gt;Node19 -->
<g id="edge26_Node000001_Node000019" class="edge">
<title>Node1&#45;&gt;Node19</title>
<g id="a_edge26_Node000001_Node000019"><a xlink:title=" ">
<path fill="none" stroke="#63b8ff" d="M701.71,-294.91C676.91,-285.79 640.93,-272.56 613.73,-262.56"/>
<polygon fill="#63b8ff" stroke="#63b8ff" points="614.73,-259.2 604.14,-259.03 612.31,-265.77 614.73,-259.2"/>
</a>
</g>
</g>
<!-- Node20 -->
<g id="Node000020" class="node">
<title>Node20</title>
<g id="a_Node000020"><a xlink:title=" ">
<polygon fill="#e0e0e0" stroke="#999999" points="718,-259 643,-259 643,-236 718,-236 718,-259"/>
<text text-anchor="middle" x="680.5" y="-243.8" font-family="Arial" font-size="14.00">esp_log.h</text>
</a>
</g>
</g>
<!-- Node1&#45;&gt;Node20 -->
<g id="edge27_Node000001_Node000020" class="edge">
<title>Node1&#45;&gt;Node20</title>
<g id="a_edge27_Node000001_Node000020"><a xlink:title=" ">
<path fill="none" stroke="#63b8ff" d="M721.1,-294.78C714.18,-286.9 704.62,-275.99 696.51,-266.75"/>
<polygon fill="#63b8ff" stroke="#63b8ff" points="699.09,-264.38 689.86,-259.17 693.83,-269 699.09,-264.38"/>
</a>
</g>
</g>
<!-- Node21 -->
<g id="Node000021" class="node">
<title>Node21</title>
<g id="a_Node000021"><a xlink:title=" ">
<polygon fill="#e0e0e0" stroke="#999999" points="825,-259 736,-259 736,-236 825,-236 825,-259"/>
<text text-anchor="middle" x="780.5" y="-243.8" font-family="Arial" font-size="14.00">esp_sleep.h</text>
</a>
</g>
</g>
<!-- Node1&#45;&gt;Node21 -->
<g id="edge28_Node000001_Node000021" class="edge">
<title>Node1&#45;&gt;Node21</title>
<g id="a_edge28_Node000001_Node000021"><a xlink:title=" ">
<path fill="none" stroke="#63b8ff" d="M739.9,-294.78C746.82,-286.9 756.38,-275.99 764.49,-266.75"/>
<polygon fill="#63b8ff" stroke="#63b8ff" points="767.17,-269 771.14,-259.17 761.91,-264.38 767.17,-269"/>
</a>
</g>
</g>
<!-- Node22 -->
<g id="Node000022" class="node">
<title>Node22</title>
<g id="a_Node000022"><a xlink:title=" ">
<polygon fill="#e0e0e0" stroke="#999999" points="930,-259 843,-259 843,-236 930,-236 930,-259"/>
<text text-anchor="middle" x="886.5" y="-243.8" font-family="Arial" font-size="14.00">esp_timer.h</text>
</a>
</g>
</g>
<!-- Node1&#45;&gt;Node22 -->
<g id="edge29_Node000001_Node000022" class="edge">
<title>Node1&#45;&gt;Node22</title>
<g id="a_edge29_Node000001_Node000022"><a xlink:title=" ">
<path fill="none" stroke="#63b8ff" d="M759.48,-294.91C784.43,-285.79 820.65,-272.56 848.03,-262.56"/>
<polygon fill="#63b8ff" stroke="#63b8ff" points="849.49,-265.75 857.68,-259.03 847.08,-259.18 849.49,-265.75"/>
</a>
</g>
</g>
<!-- Node23 -->
<g id="Node000023" class="node">
<title>Node23</title>
<g id="a_Node000023"><a xlink:title=" ">
<polygon fill="#e0e0e0" stroke="#999999" points="1091,-259 948,-259 948,-236 1091,-236 1091,-259"/>
<text text-anchor="middle" x="1019.5" y="-243.8" font-family="Arial" font-size="14.00">freertos/FreeRTOS.h</text>
</a>
</g>
</g>
<!-- Node1&#45;&gt;Node23 -->
<g id="edge30_Node000001_Node000023" class="edge">
<title>Node1&#45;&gt;Node23</title>
<g id="a_edge30_Node000001_Node000023"><a xlink:title=" ">
<path fill="none" stroke="#63b8ff" d="M783.84,-294.98C832.47,-285.39 904.36,-271.21 955.95,-261.03"/>
<polygon fill="#63b8ff" stroke="#63b8ff" points="956.84,-264.43 965.98,-259.06 955.49,-257.56 956.84,-264.43"/>
</a>
</g>
</g>
<!-- Node24 -->
<g id="Node000024" class="node">
<title>Node24</title>
<g id="a_Node000024"><a xlink:title=" ">
<polygon fill="#e0e0e0" stroke="#999999" points="1231.5,-259 1109.5,-259 1109.5,-236 1231.5,-236 1231.5,-259"/>
<text text-anchor="middle" x="1170.5" y="-243.8" font-family="Arial" font-size="14.00">freertos/semphr.h</text>
</a>
</g>
</g>
<!-- Node1&#45;&gt;Node24 -->
<g id="edge31_Node000001_Node000024" class="edge">
<title>Node1&#45;&gt;Node24</title>
<g id="a_edge31_Node000001_Node000024"><a xlink:title=" ">
<path fill="none" stroke="#63b8ff" d="M819.17,-294.96C891.75,-286.19 997.39,-273.11 1099.27,-259.15"/>
<polygon fill="#63b8ff" stroke="#63b8ff" points="1100,-262.58 1109.43,-257.75 1099.05,-255.64 1100,-262.58"/>
</a>
</g>
</g>
<!-- Node25 -->
<g id="Node000025" class="node">
<title>Node25</title>
<g id="a_Node000025"><a xlink:title=" ">
<polygon fill="#e0e0e0" stroke="#999999" points="1365,-259 1250,-259 1250,-236 1365,-236 1365,-259"/>
<text text-anchor="middle" x="1307.5" y="-243.8" font-family="Arial" font-size="14.00">hal/gpio_types.h</text>
</a>
</g>
</g>
<!-- Node1&#45;&gt;Node25 -->
<g id="edge32_Node000001_Node000025" class="edge">
<title>Node1&#45;&gt;Node25</title>
<g id="a_edge32_Node000001_Node000025"><a xlink:title=" ">
<path fill="none" stroke="#63b8ff" d="M824.22,-298.78C924.47,-291.17 1088.35,-277.55 1239.83,-259.01"/>
<polygon fill="#63b8ff" stroke="#63b8ff" points="1240.29,-262.48 1249.79,-257.79 1239.44,-255.54 1240.29,-262.48"/>
</a>
</g>
</g>
<!-- Node26 -->
<g id="Node000026" class="node">
<title>Node26</title>
<g id="a_Node000026"><a xlink:title=" ">
<polygon fill="#e0e0e0" stroke="#999999" points="1505.5,-259 1383.5,-259 1383.5,-236 1505.5,-236 1505.5,-259"/>
<text text-anchor="middle" x="1444.5" y="-243.8" font-family="Arial" font-size="14.00">hal/rtc_io_types.h</text>
</a>
</g>
</g>
<!-- Node1&#45;&gt;Node26 -->
<g id="edge33_Node000001_Node000026" class="edge">
<title>Node1&#45;&gt;Node26</title>
<g id="a_edge33_Node000001_Node000026"><a xlink:title=" ">
<path fill="none" stroke="#63b8ff" d="M824.02,-301C947.44,-294.57 1171.65,-281.12 1373.26,-259.06"/>
<polygon fill="#63b8ff" stroke="#63b8ff" points="1373.9,-262.51 1383.45,-257.94 1373.13,-255.56 1373.9,-262.51"/>
</a>
</g>
</g>
<!-- Node27 -->
<g id="Node000027" class="node">
<title>Node27</title>
<g id="a_Node000027"><a xlink:title=" ">
<polygon fill="#e0e0e0" stroke="#999999" points="1657,-259 1524,-259 1524,-236 1657,-236 1657,-259"/>
<text text-anchor="middle" x="1590.5" y="-243.8" font-family="Arial" font-size="14.00">soc/clk_tree_defs.h</text>
</a>
</g>
</g>
<!-- Node1&#45;&gt;Node27 -->
<g id="edge34_Node000001_Node000027" class="edge">
<title>Node1&#45;&gt;Node27</title>
<g id="a_edge34_Node000001_Node000027"><a xlink:title=" ">
<path fill="none" stroke="#63b8ff" d="M824.21,-302.31C969.51,-296.83 1258.11,-283.86 1513.59,-259.02"/>
<polygon fill="#63b8ff" stroke="#63b8ff" points="1514.2,-262.47 1523.81,-258.01 1513.51,-255.51 1514.2,-262.47"/>
</a>
</g>
</g>
<!-- Node28 -->
<g id="Node000028" class="node">
<title>Node28</title>
<g id="a_Node000028"><a xlink:title=" ">
<polygon fill="#e0e0e0" stroke="#999999" points="1812,-259 1675,-259 1675,-236 1812,-236 1812,-259"/>
<text text-anchor="middle" x="1743.5" y="-243.8" font-family="Arial" font-size="14.00">soc/gpio_sig_map.h</text>
</a>
</g>
</g>
<!-- Node1&#45;&gt;Node28 -->
<g id="edge35_Node000001_Node000028" class="edge">
<title>Node1&#45;&gt;Node28</title>
<g id="a_edge35_Node000001_Node000028"><a xlink:title=" ">
<path fill="none" stroke="#63b8ff" d="M824.02,-303.51C990.87,-299.38 1351.05,-287.81 1664.49,-259.12"/>
<polygon fill="#63b8ff" stroke="#63b8ff" points="1665.05,-262.59 1674.69,-258.18 1664.41,-255.62 1665.05,-262.59"/>
</a>
</g>
</g>
<!-- Node2&#45;&gt;Node3 -->
<g id="edge2_Node000002_Node000003" class="edge">
<title>Node2&#45;&gt;Node3</title>
<g id="a_edge2_Node000002_Node000003"><a xlink:title=" ">
<path fill="none" stroke="#63b8ff" d="M143.2,-235.78C129.45,-227.26 110,-215.21 94.4,-205.55"/>
<polygon fill="#63b8ff" stroke="#63b8ff" points="96.07,-202.46 85.73,-200.17 92.38,-208.42 96.07,-202.46"/>
</a>
</g>
</g>
<!-- Node4 -->
<g id="Node000004" class="node">
<title>Node4</title>
<g id="a_Node000004"><a xlink:title=" ">
<polygon fill="#e0e0e0" stroke="#999999" points="282.5,-200 206.5,-200 206.5,-177 282.5,-177 282.5,-200"/>
<text text-anchor="middle" x="244.5" y="-184.8" font-family="Arial" font-size="14.00">esp_attr.h</text>
</a>
</g>
</g>
<!-- Node2&#45;&gt;Node4 -->
<g id="edge3_Node000002_Node000004" class="edge">
<title>Node2&#45;&gt;Node4</title>
<g id="a_edge3_Node000002_Node000004"><a xlink:title=" ">
<path fill="none" stroke="#63b8ff" d="M176.3,-235.78C188.74,-227.34 206.28,-215.44 220.45,-205.82"/>
<polygon fill="#63b8ff" stroke="#63b8ff" points="222.46,-208.68 228.77,-200.17 218.53,-202.89 222.46,-208.68"/>
</a>
</g>
</g>
<!-- Node5 -->
<g id="Node000005" class="node">
<title>Node5</title>
<g id="a_Node000005"><a xlink:href="BaseGpio_8h.html" target="_top" xlink:title="Unified GPIO base class for all digital GPIO implementations.">
<polygon fill="white" stroke="#666666" points="501.5,-141 413.5,-141 413.5,-118 501.5,-118 501.5,-141"/>
<text text-anchor="middle" x="457.5" y="-125.8" font-family="Arial" font-size="14.00">BaseGpio.h</text>
</a>
</g>
</g>
<!-- Node2&#45;&gt;Node5 -->
<g id="edge4_Node000002_Node000005" class="edge">
<title>Node2&#45;&gt;Node5</title>
<g id="a_edge4_Node000002_Node000005"><a xlink:title=" ">
<path fill="none" stroke="#63b8ff" d="M200.57,-237.72C203.59,-237.12 206.59,-236.54 209.5,-236 260.37,-226.58 401.17,-234.74 439.5,-200 452.88,-187.88 456.88,-167.22 457.83,-151.57"/>
<polygon fill="#63b8ff" stroke="#63b8ff" points="461.34,-151.34 458.08,-141.26 454.34,-151.17 461.34,-151.34"/>
</a>
</g>
</g>
<!-- Node11 -->
<g id="Node000011" class="node">
<title>Node11</title>
<g id="a_Node000011"><a xlink:href="EspTypes__GPIO_8h.html" target="_top" xlink:title="ESP32 GPIO type definitions for hardware abstraction.">
<polygon fill="white" stroke="#666666" points="430.5,-200 300.5,-200 300.5,-177 430.5,-177 430.5,-200"/>
<text text-anchor="middle" x="365.5" y="-184.8" font-family="Arial" font-size="14.00">EspTypes_GPIO.h</text>
</a>
</g>
</g>
<!-- Node2&#45;&gt;Node11 -->
<g id="edge11_Node000002_Node000011" class="edge">
<title>Node2&#45;&gt;Node11</title>
<g id="a_edge11_Node000002_Node000011"><a xlink:title=" ">
<path fill="none" stroke="#63b8ff" d="M198.58,-235.91C232.24,-226.55 281.48,-212.86 317.76,-202.77"/>
<polygon fill="#63b8ff" stroke="#63b8ff" points="318.93,-206.08 327.63,-200.03 317.05,-199.34 318.93,-206.08"/>
</a>
</g>
</g>
<!-- Node15 -->
<g id="Node000015" class="node">
<title>Node15</title>
<g id="a_Node000015"><a xlink:title=" ">
<polygon fill="#e0e0e0" stroke="#999999" points="188.5,-200 132.5,-200 132.5,-177 188.5,-177 188.5,-200"/>
<text text-anchor="middle" x="160.5" y="-184.8" font-family="Arial" font-size="14.00">stdio.h</text>
</a>
</g>
</g>
<!-- Node2&#45;&gt;Node15 -->
<g id="edge20_Node000002_Node000015" class="edge">
<title>Node2&#45;&gt;Node15</title>
<g id="a_edge20_Node000002_Node000015"><a xlink:title=" ">
<path fill="none" stroke="#63b8ff" d="M160.5,-235.78C160.5,-228.61 160.5,-218.95 160.5,-210.31"/>
<polygon fill="#63b8ff" stroke="#63b8ff" points="164,-210.17 160.5,-200.17 157,-210.17 164,-210.17"/>
</a>
</g>
</g>
<!-- Node6 -->
<g id="Node000006" class="node">
<title>Node6</title>
<g id="a_Node000006"><a xlink:href="HardwareTypes_8h.html" target="_top" xlink:title="Platform&#45;agnostic hardware type definitions for the HardFOC system.">
<polygon fill="white" stroke="#666666" points="427.5,-82 305.5,-82 305.5,-59 427.5,-59 427.5,-82"/>
<text text-anchor="middle" x="366.5" y="-66.8" font-family="Arial" font-size="14.00">HardwareTypes.h</text>
</a>
</g>
</g>
<!-- Node5&#45;&gt;Node6 -->
<g id="edge5_Node000005_Node000006" class="edge">
<title>Node5&#45;&gt;Node6</title>
<g id="a_edge5_Node000005_Node000006"><a xlink:title=" ">
<path fill="none" stroke="#63b8ff" d="M440.38,-117.78C426.78,-109.26 407.55,-97.21 392.12,-87.55"/>
<polygon fill="#63b8ff" stroke="#63b8ff" points="393.87,-84.52 383.54,-82.17 390.16,-90.45 393.87,-84.52"/>
</a>
</g>
</g>
<!-- Node7 -->
<g id="Node000007" class="node">
<title>Node7</title>
<g id="a_Node000007"><a xlink:title=" ">
<polygon fill="#e0e0e0" stroke="#999999" points="359.5,-23 303.5,-23 303.5,0 359.5,0 359.5,-23"/>
<text text-anchor="middle" x="331.5" y="-7.8" font-family="Arial" font-size="14.00">cstdint</text>
</a>
</g>
</g>
<!-- Node5&#45;&gt;Node7 -->
<g id="edge8_Node000005_Node000007" class="edge">
<title>Node5&#45;&gt;Node7</title>
<g id="a_edge8_Node000005_Node000007"><a xlink:title=" ">
<path fill="none" stroke="#63b8ff" d="M456.98,-117.76C455.71,-102.85 451.36,-75.81 436.5,-59 427.05,-48.3 395.31,-35.02 369.18,-25.4"/>
<polygon fill="#63b8ff" stroke="#63b8ff" points="370.1,-22 359.5,-21.9 367.72,-28.59 370.1,-22"/>
</a>
</g>
</g>
<!-- Node9 -->
<g id="Node000009" class="node">
<title>Node9</title>
<g id="a_Node000009"><a xlink:title=" ">
<polygon fill="#e0e0e0" stroke="#999999" points="557.5,-82 483.5,-82 483.5,-59 557.5,-59 557.5,-82"/>
<text text-anchor="middle" x="520.5" y="-66.8" font-family="Arial" font-size="14.00">functional</text>
</a>
</g>
</g>
<!-- Node5&#45;&gt;Node9 -->
<g id="edge9_Node000005_Node000009" class="edge">
<title>Node5&#45;&gt;Node9</title>
<g id="a_edge9_Node000005_Node000009"><a xlink:title=" ">
<path fill="none" stroke="#63b8ff" d="M469.35,-117.78C478.33,-109.66 490.84,-98.33 501.25,-88.92"/>
<polygon fill="#63b8ff" stroke="#63b8ff" points="503.64,-91.48 508.7,-82.17 498.94,-86.29 503.64,-91.48"/>
</a>
</g>
</g>
<!-- Node10 -->
<g id="Node000010" class="node">
<title>Node10</title>
<g id="a_Node000010"><a xlink:title=" ">
<polygon fill="#e0e0e0" stroke="#999999" points="659.5,-82 575.5,-82 575.5,-59 659.5,-59 659.5,-82"/>
<text text-anchor="middle" x="617.5" y="-66.8" font-family="Arial" font-size="14.00">string_view</text>
</a>
</g>
</g>
<!-- Node5&#45;&gt;Node10 -->
<g id="edge10_Node000005_Node000010" class="edge">
<title>Node5&#45;&gt;Node10</title>
<g id="a_edge10_Node000005_Node000010"><a xlink:title=" ">
<path fill="none" stroke="#63b8ff" d="M487.22,-117.91C512.93,-108.75 550.28,-95.45 578.41,-85.43"/>
<polygon fill="#63b8ff" stroke="#63b8ff" points="579.69,-88.68 587.94,-82.03 577.34,-82.09 579.69,-88.68"/>
</a>
</g>
</g>
<!-- Node6&#45;&gt;Node7 -->
<g id="edge6_Node000006_Node000007" class="edge">
<title>Node6&#45;&gt;Node7</title>
<g id="a_edge6_Node000006_Node000007"><a xlink:title=" ">
<path fill="none" stroke="#63b8ff" d="M359.92,-58.78C355.27,-51.22 348.92,-40.87 343.4,-31.88"/>
<polygon fill="#63b8ff" stroke="#63b8ff" points="346.27,-29.86 338.05,-23.17 340.3,-33.53 346.27,-29.86"/>
</a>
</g>
</g>
<!-- Node8 -->
<g id="Node000008" class="node">
<title>Node8</title>
<g id="a_Node000008"><a xlink:title=" ">
<polygon fill="#e0e0e0" stroke="#999999" points="425.5,-23 377.5,-23 377.5,0 425.5,0 425.5,-23"/>
<text text-anchor="middle" x="401.5" y="-7.8" font-family="Arial" font-size="14.00">limits</text>
</a>
</g>
</g>
<!-- Node6&#45;&gt;Node8 -->
<g id="edge7_Node000006_Node000008" class="edge">
<title>Node6&#45;&gt;Node8</title>
<g id="a_edge7_Node000006_Node000008"><a xlink:title=" ">
<path fill="none" stroke="#63b8ff" d="M373.08,-58.78C377.73,-51.22 384.08,-40.87 389.6,-31.88"/>
<polygon fill="#63b8ff" stroke="#63b8ff" points="392.7,-33.53 394.95,-23.17 386.73,-29.86 392.7,-33.53"/>
</a>
</g>
</g>
<!-- Node11&#45;&gt;Node5 -->
<g id="edge12_Node000011_Node000005" class="edge">
<title>Node11&#45;&gt;Node5</title>
<g id="a_edge12_Node000011_Node000005"><a xlink:title=" ">
<path fill="none" stroke="#63b8ff" d="M382.8,-176.78C396.55,-168.26 416,-156.21 431.6,-146.55"/>
<polygon fill="#63b8ff" stroke="#63b8ff" points="433.62,-149.42 440.27,-141.17 429.93,-143.46 433.62,-149.42"/>
</a>
</g>
</g>
<!-- Node11&#45;&gt;Node6 -->
<g id="edge18_Node000011_Node000006" class="edge">
<title>Node11&#45;&gt;Node6</title>
<g id="a_edge18_Node000011_Node000006"><a xlink:title=" ">
<path fill="none" stroke="#63b8ff" d="M365.59,-176.79C365.76,-157.63 366.11,-117.15 366.32,-92.34"/>
<polygon fill="#63b8ff" stroke="#63b8ff" points="369.82,-92.21 366.41,-82.18 362.82,-92.15 369.82,-92.21"/>
</a>
</g>
</g>
<!-- Node12 -->
<g id="Node000012" class="node">
<title>Node12</title>
<g id="a_Node000012"><a xlink:href="EspTypes__Base_8h.html" target="_top" xlink:title="ESP32 base type definitions for hardware abstraction.">
<polygon fill="white" stroke="#666666" points="338,-141 213,-141 213,-118 338,-118 338,-141"/>
<text text-anchor="middle" x="275.5" y="-125.8" font-family="Arial" font-size="14.00">EspTypes_Base.h</text>
</a>
</g>
</g>
<!-- Node11&#45;&gt;Node12 -->
<g id="edge13_Node000011_Node000012" class="edge">
<title>Node11&#45;&gt;Node12</title>
<g id="a_edge13_Node000011_Node000012"><a xlink:title=" ">
<path fill="none" stroke="#63b8ff" d="M348.57,-176.78C335.12,-168.26 316.1,-156.21 300.83,-146.55"/>
<polygon fill="#63b8ff" stroke="#63b8ff" points="302.67,-143.57 292.35,-141.17 298.93,-149.48 302.67,-143.57"/>
</a>
</g>
</g>
<!-- Node13 -->
<g id="Node000013" class="node">
<title>Node13</title>
<g id="a_Node000013"><a xlink:href="McuSelect_8h.html" target="_top" xlink:title="Centralized MCU platform selection and configuration header.">
<polygon fill="white" stroke="#666666" points="249.5,-82 107.5,-82 107.5,-59 249.5,-59 249.5,-82"/>
<text text-anchor="middle" x="178.5" y="-66.8" font-family="Arial" font-size="14.00">../../utils/McuSelect.h</text>
</a>
</g>
</g>
<!-- Node11&#45;&gt;Node13 -->
<g id="edge19_Node000011_Node000013" class="edge">
<title>Node11&#45;&gt;Node13</title>
<g id="a_edge19_Node000011_Node000013"><a xlink:title=" ">
<path fill="none" stroke="#63b8ff" d="M309.67,-176.94C269.57,-168.35 219.98,-155.33 204.5,-141 190.81,-128.32 184.29,-107.74 181.2,-92.26"/>
<polygon fill="#63b8ff" stroke="#63b8ff" points="184.6,-91.37 179.52,-82.07 177.7,-92.51 184.6,-91.37"/>
</a>
</g>
</g>
<!-- Node12&#45;&gt;Node6 -->
<g id="edge15_Node000012_Node000006" class="edge">
<title>Node12&#45;&gt;Node6</title>
<g id="a_edge15_Node000012_Node000006"><a xlink:title=" ">
<path fill="none" stroke="#63b8ff" d="M292.62,-117.78C306.22,-109.26 325.45,-97.21 340.88,-87.55"/>
<polygon fill="#63b8ff" stroke="#63b8ff" points="342.84,-90.45 349.46,-82.17 339.13,-84.52 342.84,-90.45"/>
</a>
</g>
</g>
<!-- Node12&#45;&gt;Node7 -->
<g id="edge17_Node000012_Node000007" class="edge">
<title>Node12&#45;&gt;Node7</title>
<g id="a_edge17_Node000012_Node000007"><a xlink:title=" ">
<path fill="none" stroke="#63b8ff" d="M277.53,-117.7C280.44,-103.64 286.58,-78.56 296.5,-59 301.52,-49.1 308.68,-39.14 315.21,-30.98"/>
<polygon fill="#63b8ff" stroke="#63b8ff" points="317.96,-33.15 321.68,-23.22 312.59,-28.66 317.96,-33.15"/>
</a>
</g>
</g>
<!-- Node12&#45;&gt;Node13 -->
<g id="edge14_Node000012_Node000013" class="edge">
<title>Node12&#45;&gt;Node13</title>
<g id="a_edge14_Node000012_Node000013"><a xlink:title=" ">
<path fill="none" stroke="#63b8ff" d="M257.26,-117.78C242.62,-109.18 221.87,-96.99 205.35,-87.28"/>
<polygon fill="#63b8ff" stroke="#63b8ff" points="207.06,-84.22 196.66,-82.17 203.51,-90.26 207.06,-84.22"/>
</a>
</g>
</g>
<!-- Node12&#45;&gt;Node14 -->
<g id="edge16_Node000012_Node000014" class="edge">
<title>Node12&#45;&gt;Node14</title>
<g id="a_edge16_Node000012_Node000014"><a xlink:title=" ">
<path fill="none" stroke="#63b8ff" d="M229.91,-117.98C183.09,-107.18 111.04,-90.55 67,-80.38"/>
<polygon fill="#63b8ff" stroke="#63b8ff" points="67.77,-76.97 57.24,-78.13 66.2,-83.79 67.77,-76.97"/>
</a>
</g>
</g>
</g>
</svg>

<g id="navigator" transform="translate(0 0)" fill="#404254">
  <rect fill="#f2f5e9" fill-opacity="0.5" stroke="#606060" stroke-width=".5" x="0" y="0" width="60" height="60"/>
  <use id="zoomplus" xlink:href="#zoomPlus" x="17" y="9" onmousedown="handleZoom(evt,'in')"/>
  <use id="zoomminus" xlink:href="#zoomMin" x="42" y="9" onmousedown="handleZoom(evt,'out')"/>
  <use id="reset" xlink:href="#resetDef" x="30" y="36" onmousedown="handleReset()"/>
   <use id="arrowup" xlink:href="#arrowUp" x="0" y="0" onmousedown="handlePan(0,-1)"/>
  <use id="arrowright" xlink:href="#arrowRight" x="0" y="0" onmousedown="handlePan(1,0)"/>
  <use id="arrowdown" xlink:href="#arrowDown" x="0" y="0" onmousedown="handlePan(0,1)"/>
  <use id="arrowleft" xlink:href="#arrowLeft" x="0" y="0" onmousedown="handlePan(-1,0)"/>
</g>
<svg viewBox="0 0 15 15" width="100%" height="30px" preserveAspectRatio="xMaxYMin meet">
 <g id="arrow_out" transform="scale(0.3 0.3)">
  <a xlink:href="EspGpio_8cpp__incl_org.svg" target="_base">
   <rect id="button" ry="5" rx="5" y="6" x="6" height="38" width="38"
        fill="#f2f5e9" fill-opacity="0.5" stroke="#606060" stroke-width="1.0"/>
   <path id="arrow"
     d="M 11.500037,31.436501 C 11.940474,20.09759 22.043105,11.32322 32.158766,21.979434 L 37.068811,17.246167 C 37.068811,17.246167 37.088388,32 37.088388,32 L 22.160133,31.978069 C 22.160133,31.978069 26.997745,27.140456 26.997745,27.140456 C 18.528582,18.264221 13.291696,25.230495 11.500037,31.436501 z"
     style="fill:#404040;"/>
  </a>
 </g>
</svg>

<style type='text/css'>
<![CDATA[
[data-mouse-over-selected='false'] { opacity: 0.7; }
[data-mouse-over-selected='true']  { opacity: 1.0; }
]]>
</style>
<script type="application/ecmascript"><![CDATA[
document.addEventListener('DOMContentLoaded', (event) => {
  highlightEdges();
  highlightAdjacentNodes();
});
]]></script>
</svg>
