<?xml version="1.0" encoding="UTF-8" standalone="no"?>
<!DOCTYPE svg PUBLIC "-//W3C//DTD SVG 1.1//EN"
 "http://www.w3.org/Graphics/SVG/1.1/DTD/svg11.dtd">
<!-- Generated by graphviz version 2.43.0 (0)
 -->
<!-- Title: src/mcu/esp32/EspLogger.cpp Pages: 1 -->
<!--zoomable 267 -->

<svg id="main" version="1.1" xmlns="http://www.w3.org/2000/svg" xmlns:xlink="http://www.w3.org/1999/xlink" xml:space="preserve" onload="init(evt)">
<style type="text/css"><![CDATA[
.node, .edge {opacity: 0.7;}
.node.selected, .edge.selected {opacity: 1;}
.edge:hover path { stroke: red; }
.edge:hover polygon { stroke: red; fill: red; }
]]></style>

<defs>
  <circle id="rim" cx="0" cy="0" r="7"/>
  <circle id="rim2" cx="0" cy="0" r="3.5"/>
  <g id="zoomPlus">
    <use xlink:href="#rim" fill="#404040"><set attributeName="fill" to="#808080" begin="zoomplus.mouseover" end="zoomplus.mouseout"/></use>
    <path d="M-4,0h8M0,-4v8" fill="none" stroke="white" stroke-width="1.5" pointer-events="none"/>
  </g>
  <g id="zoomMin">
    <use xlink:href="#rim" fill="#404040"><set attributeName="fill" to="#808080" begin="zoomminus.mouseover" end="zoomminus.mouseout"/></use>
    <path d="M-4,0h8" fill="none" stroke="white" stroke-width="1.5" pointer-events="none"/>
  </g>
  <g id="arrowUp" transform="translate(30 24)">
    <use xlink:href="#rim"/>
    <path pointer-events="none" fill="none" stroke="white" stroke-width="1.5" d="M0,-3.0v7 M-2.5,-0.5L0,-3.0L2.5,-0.5"/>
  </g>
  <g id="arrowRight" transform="rotate(90) translate(36 -43)">
    <use xlink:href="#rim"/>
    <path pointer-events="none" fill="none" stroke="white" stroke-width="1.5" d="M0,-3.0v7 M-2.5,-0.5L0,-3.0L2.5,-0.5"/>
  </g>
  <g id="arrowDown" transform="rotate(180) translate(-30 -48)">
    <use xlink:href="#rim"/>
    <path pointer-events="none" fill="none" stroke="white" stroke-width="1.5" d="M0,-3.0v7 M-2.5,-0.5L0,-3.0L2.5,-0.5"/>
  </g>
  <g id="arrowLeft" transform="rotate(270) translate(-36 17)">
    <use xlink:href="#rim"/>
    <path pointer-events="none" fill="none" stroke="white" stroke-width="1.5" d="M0,-3.0v7 M-2.5,-0.5L0,-3.0L2.5,-0.5"/>
  </g>
  <g id="resetDef">
    <use xlink:href="#rim2" fill="#404040"><set attributeName="fill" to="#808080" begin="reset.mouseover" end="reset.mouseout"/></use>
  </g>
</defs>
<script type="application/ecmascript">
var viewWidth = 1517;
var viewHeight = 267;
var sectionId = 'dynsection-0';
</script>
<script type="application/ecmascript" xlink:href="svg.min.js"/>
<svg id="graph" class="graph">
<g id="viewport">
<title>src/mcu/esp32/EspLogger.cpp</title>
<!-- Node1 -->
<g id="Node000001" class="node">
<title>Node1</title>
<g id="a_Node000001"><a xlink:title="Implementation of ESP32 logger for the HardFOC system.">
<polygon fill="#999999" stroke="#666666" points="1265,-259 1066,-259 1066,-236 1265,-236 1265,-259"/>
<text text-anchor="middle" x="1165.5" y="-243.8" font-family="Arial" font-size="14.00">src/mcu/esp32/EspLogger.cpp</text>
</a>
</g>
</g>
<!-- Node2 -->
<g id="Node000002" class="node">
<title>Node2</title>
<g id="a_Node000002"><a xlink:href="EspLogger_8h.html" target="_top" xlink:title="ESP32&#45;specific logger implementation for the HardFOC system.">
<polygon fill="white" stroke="#666666" points="977.5,-200 885.5,-200 885.5,-177 977.5,-177 977.5,-200"/>
<text text-anchor="middle" x="931.5" y="-184.8" font-family="Arial" font-size="14.00">EspLogger.h</text>
</a>
</g>
</g>
<!-- Node1&#45;&gt;Node2 -->
<g id="edge1_Node000001_Node000002" class="edge">
<title>Node1&#45;&gt;Node2</title>
<g id="a_edge1_Node000001_Node000002"><a xlink:title=" ">
<path fill="none" stroke="#63b8ff" d="M1122.31,-235.98C1083.51,-226.53 1026.42,-212.62 984.8,-202.48"/>
<polygon fill="#63b8ff" stroke="#63b8ff" points="985.38,-199.02 974.84,-200.06 983.72,-205.82 985.38,-199.02"/>
</a>
</g>
</g>
<!-- Node7 -->
<g id="Node000007" class="node">
<title>Node7</title>
<g id="a_Node000007"><a xlink:title=" ">
<polygon fill="#e0e0e0" stroke="#999999" points="61,-82 0,-82 0,-59 61,-59 61,-82"/>
<text text-anchor="middle" x="30.5" y="-66.8" font-family="Arial" font-size="14.00">cstdarg</text>
</a>
</g>
</g>
<!-- Node1&#45;&gt;Node7 -->
<g id="edge28_Node000001_Node000007" class="edge">
<title>Node1&#45;&gt;Node7</title>
<g id="a_edge28_Node000001_Node000007"><a xlink:title=" ">
<path fill="none" stroke="#63b8ff" d="M1065.89,-241.06C900.5,-230.6 559.53,-203.01 277.5,-141 203.78,-124.79 119.43,-99.59 70.83,-84.4"/>
<polygon fill="#63b8ff" stroke="#63b8ff" points="71.61,-80.98 61.02,-81.32 69.51,-87.66 71.61,-80.98"/>
</a>
</g>
</g>
<!-- Node13 -->
<g id="Node000013" class="node">
<title>Node13</title>
<g id="a_Node000013"><a xlink:title=" ">
<polygon fill="#e0e0e0" stroke="#999999" points="663,-82 520,-82 520,-59 663,-59 663,-82"/>
<text text-anchor="middle" x="591.5" y="-66.8" font-family="Arial" font-size="14.00">freertos/FreeRTOS.h</text>
</a>
</g>
</g>
<!-- Node1&#45;&gt;Node13 -->
<g id="edge33_Node000001_Node000013" class="edge">
<title>Node1&#45;&gt;Node13</title>
<g id="a_edge33_Node000001_Node000013"><a xlink:title=" ">
<path fill="none" stroke="#63b8ff" d="M1065.76,-243.02C917.81,-235.52 651.31,-212.22 592.5,-141 581.43,-127.6 582.5,-107.27 585.56,-92.06"/>
<polygon fill="#63b8ff" stroke="#63b8ff" points="589.03,-92.6 587.98,-82.06 582.22,-90.95 589.03,-92.6"/>
</a>
</g>
</g>
<!-- Node15 -->
<g id="Node000015" class="node">
<title>Node15</title>
<g id="a_Node000015"><a xlink:title=" ">
<polygon fill="#e0e0e0" stroke="#999999" points="1146.5,-82 1044.5,-82 1044.5,-59 1146.5,-59 1146.5,-82"/>
<text text-anchor="middle" x="1095.5" y="-66.8" font-family="Arial" font-size="14.00">freertos/task.h</text>
</a>
</g>
</g>
<!-- Node1&#45;&gt;Node15 -->
<g id="edge34_Node000001_Node000015" class="edge">
<title>Node1&#45;&gt;Node15</title>
<g id="a_edge34_Node000001_Node000015"><a xlink:title=" ">
<path fill="none" stroke="#63b8ff" d="M1197.53,-235.92C1253.47,-215.79 1359.22,-169.36 1317.5,-118 1297.59,-93.49 1215.51,-81.44 1156.96,-75.86"/>
<polygon fill="#63b8ff" stroke="#63b8ff" points="1156.96,-72.34 1146.68,-74.92 1156.32,-79.32 1156.96,-72.34"/>
</a>
</g>
</g>
<!-- Node17 -->
<g id="Node000017" class="node">
<title>Node17</title>
<g id="a_Node000017"><a xlink:title=" ">
<polygon fill="#e0e0e0" stroke="#999999" points="1109.5,-141 1053.5,-141 1053.5,-118 1109.5,-118 1109.5,-141"/>
<text text-anchor="middle" x="1081.5" y="-125.8" font-family="Arial" font-size="14.00">cstring</text>
</a>
</g>
</g>
<!-- Node1&#45;&gt;Node17 -->
<g id="edge30_Node000001_Node000017" class="edge">
<title>Node1&#45;&gt;Node17</title>
<g id="a_edge30_Node000001_Node000017"><a xlink:title=" ">
<path fill="none" stroke="#63b8ff" d="M1157.75,-235.79C1143.5,-216.11 1112.96,-173.95 1095.16,-149.37"/>
<polygon fill="#63b8ff" stroke="#63b8ff" points="1097.93,-147.23 1089.23,-141.18 1092.26,-151.33 1097.93,-147.23"/>
</a>
</g>
</g>
<!-- Node21 -->
<g id="Node000021" class="node">
<title>Node21</title>
<g id="a_Node000021"><a xlink:title=" ">
<polygon fill="#e0e0e0" stroke="#999999" points="1203,-141 1128,-141 1128,-118 1203,-118 1203,-141"/>
<text text-anchor="middle" x="1165.5" y="-125.8" font-family="Arial" font-size="14.00">esp_log.h</text>
</a>
</g>
</g>
<!-- Node1&#45;&gt;Node21 -->
<g id="edge31_Node000001_Node000021" class="edge">
<title>Node1&#45;&gt;Node21</title>
<g id="a_edge31_Node000001_Node000021"><a xlink:title=" ">
<path fill="none" stroke="#63b8ff" d="M1165.5,-235.79C1165.5,-216.63 1165.5,-176.15 1165.5,-151.34"/>
<polygon fill="#63b8ff" stroke="#63b8ff" points="1169,-151.18 1165.5,-141.18 1162,-151.18 1169,-151.18"/>
</a>
</g>
</g>
<!-- Node22 -->
<g id="Node000022" class="node">
<title>Node22</title>
<g id="a_Node000022"><a xlink:title=" ">
<polygon fill="#e0e0e0" stroke="#999999" points="1308,-141 1221,-141 1221,-118 1308,-118 1308,-141"/>
<text text-anchor="middle" x="1264.5" y="-125.8" font-family="Arial" font-size="14.00">esp_timer.h</text>
</a>
</g>
</g>
<!-- Node1&#45;&gt;Node22 -->
<g id="edge32_Node000001_Node000022" class="edge">
<title>Node1&#45;&gt;Node22</title>
<g id="a_edge32_Node000001_Node000022"><a xlink:title=" ">
<path fill="none" stroke="#63b8ff" d="M1174.64,-235.79C1191.51,-216.03 1227.73,-173.58 1248.67,-149.04"/>
<polygon fill="#63b8ff" stroke="#63b8ff" points="1251.56,-151.06 1255.39,-141.18 1246.23,-146.51 1251.56,-151.06"/>
</a>
</g>
</g>
<!-- Node23 -->
<g id="Node000023" class="node">
<title>Node23</title>
<g id="a_Node000023"><a xlink:title=" ">
<polygon fill="#e0e0e0" stroke="#999999" points="1438,-200 1365,-200 1365,-177 1438,-177 1438,-200"/>
<text text-anchor="middle" x="1401.5" y="-184.8" font-family="Arial" font-size="14.00">algorithm</text>
</a>
</g>
</g>
<!-- Node1&#45;&gt;Node23 -->
<g id="edge27_Node000001_Node000023" class="edge">
<title>Node1&#45;&gt;Node23</title>
<g id="a_edge27_Node000001_Node000023"><a xlink:title=" ">
<path fill="none" stroke="#63b8ff" d="M1209.06,-235.98C1250.49,-225.97 1312.61,-210.97 1354.99,-200.73"/>
<polygon fill="#63b8ff" stroke="#63b8ff" points="1355.88,-204.12 1364.78,-198.37 1354.24,-197.31 1355.88,-204.12"/>
</a>
</g>
</g>
<!-- Node24 -->
<g id="Node000024" class="node">
<title>Node24</title>
<g id="a_Node000024"><a xlink:title=" ">
<polygon fill="#e0e0e0" stroke="#999999" points="1508.5,-200 1456.5,-200 1456.5,-177 1508.5,-177 1508.5,-200"/>
<text text-anchor="middle" x="1482.5" y="-184.8" font-family="Arial" font-size="14.00">cstdio</text>
</a>
</g>
</g>
<!-- Node1&#45;&gt;Node24 -->
<g id="edge29_Node000001_Node000024" class="edge">
<title>Node1&#45;&gt;Node24</title>
<g id="a_edge29_Node000001_Node000024"><a xlink:title=" ">
<path fill="none" stroke="#63b8ff" d="M1246.26,-235.99C1300.51,-228.27 1373.69,-216.61 1446.43,-200.04"/>
<polygon fill="#63b8ff" stroke="#63b8ff" points="1447.27,-203.44 1456.22,-197.78 1445.69,-196.62 1447.27,-203.44"/>
</a>
</g>
</g>
<!-- Node3 -->
<g id="Node000003" class="node">
<title>Node3</title>
<g id="a_Node000003"><a xlink:href="BaseLogger_8h.html" target="_top" xlink:title="Unified logging base class for all logging implementations.">
<polygon fill="white" stroke="#666666" points="386.5,-141 286.5,-141 286.5,-118 386.5,-118 386.5,-141"/>
<text text-anchor="middle" x="336.5" y="-125.8" font-family="Arial" font-size="14.00">BaseLogger.h</text>
</a>
</g>
</g>
<!-- Node2&#45;&gt;Node3 -->
<g id="edge2_Node000002_Node000003" class="edge">
<title>Node2&#45;&gt;Node3</title>
<g id="a_edge2_Node000002_Node000003"><a xlink:title=" ">
<path fill="none" stroke="#63b8ff" d="M885.31,-183.07C778.78,-172.87 515.96,-147.69 396.87,-136.28"/>
<polygon fill="#63b8ff" stroke="#63b8ff" points="397.12,-132.79 386.84,-135.32 396.46,-139.76 397.12,-132.79"/>
</a>
</g>
</g>
<!-- Node11 -->
<g id="Node000011" class="node">
<title>Node11</title>
<g id="a_Node000011"><a xlink:href="RtosMutex_8h.html" target="_top" xlink:title="Cross&#45;platform RTOS mutex and synchronization primitives.">
<polygon fill="white" stroke="#666666" points="841,-141 720,-141 720,-118 841,-118 841,-141"/>
<text text-anchor="middle" x="780.5" y="-125.8" font-family="Arial" font-size="14.00">utils/RtosMutex.h</text>
</a>
</g>
</g>
<!-- Node2&#45;&gt;Node11 -->
<g id="edge11_Node000002_Node000011" class="edge">
<title>Node2&#45;&gt;Node11</title>
<g id="a_edge11_Node000002_Node000011"><a xlink:title=" ">
<path fill="none" stroke="#63b8ff" d="M903.45,-176.91C879.4,-167.83 844.55,-154.68 818.09,-144.69"/>
<polygon fill="#63b8ff" stroke="#63b8ff" points="818.99,-141.29 808.4,-141.03 816.52,-147.84 818.99,-141.29"/>
</a>
</g>
</g>
<!-- Node2&#45;&gt;Node13 -->
<g id="edge25_Node000002_Node000013" class="edge">
<title>Node2&#45;&gt;Node13</title>
<g id="a_edge25_Node000002_Node000013"><a xlink:title=" ">
<path fill="none" stroke="#63b8ff" d="M885.24,-186.85C806.33,-184.79 650.37,-176.24 610.5,-141 596.85,-128.93 592.58,-108.1 591.44,-92.38"/>
<polygon fill="#63b8ff" stroke="#63b8ff" points="594.92,-91.91 591.07,-82.04 587.93,-92.16 594.92,-91.91"/>
</a>
</g>
</g>
<!-- Node2&#45;&gt;Node15 -->
<g id="edge26_Node000002_Node000015" class="edge">
<title>Node2&#45;&gt;Node15</title>
<g id="a_edge26_Node000002_Node000015"><a xlink:title=" ">
<path fill="none" stroke="#63b8ff" d="M949.46,-176.88C964.64,-167.75 986.84,-154.03 1005.5,-141 1029.85,-124.01 1056.65,-103 1074.62,-88.55"/>
<polygon fill="#63b8ff" stroke="#63b8ff" points="1077.1,-91.04 1082.68,-82.03 1072.7,-85.6 1077.1,-91.04"/>
</a>
</g>
</g>
<!-- Node16 -->
<g id="Node000016" class="node">
<title>Node16</title>
<g id="a_Node000016"><a xlink:title=" ">
<polygon fill="#e0e0e0" stroke="#999999" points="738,-82 681,-82 681,-59 738,-59 738,-82"/>
<text text-anchor="middle" x="709.5" y="-66.8" font-family="Arial" font-size="14.00">atomic</text>
</a>
</g>
</g>
<!-- Node2&#45;&gt;Node16 -->
<g id="edge18_Node000002_Node000016" class="edge">
<title>Node2&#45;&gt;Node16</title>
<g id="a_edge18_Node000002_Node000016"><a xlink:title=" ">
<path fill="none" stroke="#63b8ff" d="M885.18,-184.39C827.03,-179.42 732.25,-167.41 710.5,-141 699.45,-127.58 700.52,-107.26 703.57,-92.05"/>
<polygon fill="#63b8ff" stroke="#63b8ff" points="707.04,-92.6 705.99,-82.05 700.23,-90.95 707.04,-92.6"/>
</a>
</g>
</g>
<!-- Node2&#45;&gt;Node17 -->
<g id="edge19_Node000002_Node000017" class="edge">
<title>Node2&#45;&gt;Node17</title>
<g id="a_edge19_Node000002_Node000017"><a xlink:title=" ">
<path fill="none" stroke="#63b8ff" d="M959.36,-176.91C983.25,-167.83 1017.87,-154.68 1044.16,-144.69"/>
<polygon fill="#63b8ff" stroke="#63b8ff" points="1045.68,-147.85 1053.79,-141.03 1043.2,-141.31 1045.68,-147.85"/>
</a>
</g>
</g>
<!-- Node18 -->
<g id="Node000018" class="node">
<title>Node18</title>
<g id="a_Node000018"><a xlink:title=" ">
<polygon fill="#e0e0e0" stroke="#999999" points="663.5,-141 619.5,-141 619.5,-118 663.5,-118 663.5,-141"/>
<text text-anchor="middle" x="641.5" y="-125.8" font-family="Arial" font-size="14.00">map</text>
</a>
</g>
</g>
<!-- Node2&#45;&gt;Node18 -->
<g id="edge20_Node000002_Node000018" class="edge">
<title>Node2&#45;&gt;Node18</title>
<g id="a_edge20_Node000002_Node000018"><a xlink:title=" ">
<path fill="none" stroke="#63b8ff" d="M885.32,-180.51C834.19,-172.43 749.48,-158.04 677.5,-141 676.25,-140.7 674.98,-140.39 673.71,-140.07"/>
<polygon fill="#63b8ff" stroke="#63b8ff" points="674.44,-136.64 663.87,-137.41 672.61,-143.4 674.44,-136.64"/>
</a>
</g>
</g>
<!-- Node19 -->
<g id="Node000019" class="node">
<title>Node19</title>
<g id="a_Node000019"><a xlink:title=" ">
<polygon fill="#e0e0e0" stroke="#999999" points="926,-141 859,-141 859,-118 926,-118 926,-141"/>
<text text-anchor="middle" x="892.5" y="-125.8" font-family="Arial" font-size="14.00">memory</text>
</a>
</g>
</g>
<!-- Node2&#45;&gt;Node19 -->
<g id="edge21_Node000002_Node000019" class="edge">
<title>Node2&#45;&gt;Node19</title>
<g id="a_edge21_Node000002_Node000019"><a xlink:title=" ">
<path fill="none" stroke="#63b8ff" d="M924.16,-176.78C918.93,-169.14 911.76,-158.65 905.57,-149.6"/>
<polygon fill="#63b8ff" stroke="#63b8ff" points="908.34,-147.45 899.8,-141.17 902.56,-151.4 908.34,-147.45"/>
</a>
</g>
</g>
<!-- Node20 -->
<g id="Node000020" class="node">
<title>Node20</title>
<g id="a_Node000020"><a xlink:title=" ">
<polygon fill="#e0e0e0" stroke="#999999" points="997,-141 944,-141 944,-118 997,-118 997,-141"/>
<text text-anchor="middle" x="970.5" y="-125.8" font-family="Arial" font-size="14.00">vector</text>
</a>
</g>
</g>
<!-- Node2&#45;&gt;Node20 -->
<g id="edge22_Node000002_Node000020" class="edge">
<title>Node2&#45;&gt;Node20</title>
<g id="a_edge22_Node000002_Node000020"><a xlink:title=" ">
<path fill="none" stroke="#63b8ff" d="M938.84,-176.78C944.07,-169.14 951.24,-158.65 957.43,-149.6"/>
<polygon fill="#63b8ff" stroke="#63b8ff" points="960.44,-151.4 963.2,-141.17 954.66,-147.45 960.44,-151.4"/>
</a>
</g>
</g>
<!-- Node2&#45;&gt;Node21 -->
<g id="edge23_Node000002_Node000021" class="edge">
<title>Node2&#45;&gt;Node21</title>
<g id="a_edge23_Node000002_Node000021"><a xlink:title=" ">
<path fill="none" stroke="#63b8ff" d="M974.69,-176.98C1015.32,-167.08 1076.01,-152.3 1117.99,-142.07"/>
<polygon fill="#63b8ff" stroke="#63b8ff" points="1119.08,-145.41 1127.97,-139.64 1117.42,-138.61 1119.08,-145.41"/>
</a>
</g>
</g>
<!-- Node2&#45;&gt;Node22 -->
<g id="edge24_Node000002_Node000022" class="edge">
<title>Node2&#45;&gt;Node22</title>
<g id="a_edge24_Node000002_Node000022"><a xlink:title=" ">
<path fill="none" stroke="#63b8ff" d="M977.65,-180.28C1031.21,-171.81 1122.43,-157.07 1210.91,-141.06"/>
<polygon fill="#63b8ff" stroke="#63b8ff" points="1211.63,-144.49 1220.85,-139.26 1210.38,-137.6 1211.63,-144.49"/>
</a>
</g>
</g>
<!-- Node4 -->
<g id="Node000004" class="node">
<title>Node4</title>
<g id="a_Node000004"><a xlink:href="HardwareTypes_8h.html" target="_top" xlink:title="Platform&#45;agnostic hardware type definitions for the HardFOC system.">
<polygon fill="white" stroke="#666666" points="201.5,-82 79.5,-82 79.5,-59 201.5,-59 201.5,-82"/>
<text text-anchor="middle" x="140.5" y="-66.8" font-family="Arial" font-size="14.00">HardwareTypes.h</text>
</a>
</g>
</g>
<!-- Node3&#45;&gt;Node4 -->
<g id="edge3_Node000003_Node000004" class="edge">
<title>Node3&#45;&gt;Node4</title>
<g id="a_edge3_Node000003_Node000004"><a xlink:title=" ">
<path fill="none" stroke="#63b8ff" d="M300.09,-117.91C268.05,-108.59 221.24,-94.98 186.59,-84.9"/>
<polygon fill="#63b8ff" stroke="#63b8ff" points="187.29,-81.46 176.71,-82.03 185.34,-88.18 187.29,-81.46"/>
</a>
</g>
</g>
<!-- Node5 -->
<g id="Node000005" class="node">
<title>Node5</title>
<g id="a_Node000005"><a xlink:title=" ">
<polygon fill="#e0e0e0" stroke="#999999" points="519.5,-23 463.5,-23 463.5,0 519.5,0 519.5,-23"/>
<text text-anchor="middle" x="491.5" y="-7.8" font-family="Arial" font-size="14.00">cstdint</text>
</a>
</g>
</g>
<!-- Node3&#45;&gt;Node5 -->
<g id="edge7_Node000003_Node000005" class="edge">
<title>Node3&#45;&gt;Node5</title>
<g id="a_edge7_Node000003_Node000005"><a xlink:title=" ">
<path fill="none" stroke="#63b8ff" d="M386.77,-122.98C415.57,-117.27 450.29,-105.64 472.5,-82 484.84,-68.87 489.3,-48.51 490.85,-33.22"/>
<polygon fill="#63b8ff" stroke="#63b8ff" points="494.35,-33.37 491.54,-23.15 487.37,-32.89 494.35,-33.37"/>
</a>
</g>
</g>
<!-- Node3&#45;&gt;Node7 -->
<g id="edge6_Node000003_Node000007" class="edge">
<title>Node3&#45;&gt;Node7</title>
<g id="a_edge6_Node000003_Node000007"><a xlink:title=" ">
<path fill="none" stroke="#63b8ff" d="M286.25,-121C234.68,-113.02 151.94,-99.41 70.89,-81.94"/>
<polygon fill="#63b8ff" stroke="#63b8ff" points="71.53,-78.5 61.01,-79.79 70.04,-85.34 71.53,-78.5"/>
</a>
</g>
</g>
<!-- Node8 -->
<g id="Node000008" class="node">
<title>Node8</title>
<g id="a_Node000008"><a xlink:title=" ">
<polygon fill="#e0e0e0" stroke="#999999" points="293.5,-82 219.5,-82 219.5,-59 293.5,-59 293.5,-82"/>
<text text-anchor="middle" x="256.5" y="-66.8" font-family="Arial" font-size="14.00">functional</text>
</a>
</g>
</g>
<!-- Node3&#45;&gt;Node8 -->
<g id="edge8_Node000003_Node000008" class="edge">
<title>Node3&#45;&gt;Node8</title>
<g id="a_edge8_Node000003_Node000008"><a xlink:title=" ">
<path fill="none" stroke="#63b8ff" d="M321.45,-117.78C309.72,-109.42 293.22,-97.66 279.78,-88.09"/>
<polygon fill="#63b8ff" stroke="#63b8ff" points="281.66,-85.13 271.48,-82.17 277.59,-90.83 281.66,-85.13"/>
</a>
</g>
</g>
<!-- Node9 -->
<g id="Node000009" class="node">
<title>Node9</title>
<g id="a_Node000009"><a xlink:title=" ">
<polygon fill="#e0e0e0" stroke="#999999" points="361.5,-82 311.5,-82 311.5,-59 361.5,-59 361.5,-82"/>
<text text-anchor="middle" x="336.5" y="-66.8" font-family="Arial" font-size="14.00">string</text>
</a>
</g>
</g>
<!-- Node3&#45;&gt;Node9 -->
<g id="edge9_Node000003_Node000009" class="edge">
<title>Node3&#45;&gt;Node9</title>
<g id="a_edge9_Node000003_Node000009"><a xlink:title=" ">
<path fill="none" stroke="#63b8ff" d="M336.5,-117.78C336.5,-110.61 336.5,-100.95 336.5,-92.31"/>
<polygon fill="#63b8ff" stroke="#63b8ff" points="340,-92.17 336.5,-82.17 333,-92.17 340,-92.17"/>
</a>
</g>
</g>
<!-- Node10 -->
<g id="Node000010" class="node">
<title>Node10</title>
<g id="a_Node000010"><a xlink:title=" ">
<polygon fill="#e0e0e0" stroke="#999999" points="463.5,-82 379.5,-82 379.5,-59 463.5,-59 463.5,-82"/>
<text text-anchor="middle" x="421.5" y="-66.8" font-family="Arial" font-size="14.00">string_view</text>
</a>
</g>
</g>
<!-- Node3&#45;&gt;Node10 -->
<g id="edge10_Node000003_Node000010" class="edge">
<title>Node3&#45;&gt;Node10</title>
<g id="a_edge10_Node000003_Node000010"><a xlink:title=" ">
<path fill="none" stroke="#63b8ff" d="M352.49,-117.78C365.07,-109.34 382.82,-97.44 397.17,-87.82"/>
<polygon fill="#63b8ff" stroke="#63b8ff" points="399.23,-90.65 405.58,-82.17 395.33,-84.84 399.23,-90.65"/>
</a>
</g>
</g>
<!-- Node4&#45;&gt;Node5 -->
<g id="edge4_Node000004_Node000005" class="edge">
<title>Node4&#45;&gt;Node5</title>
<g id="a_edge4_Node000004_Node000005"><a xlink:title=" ">
<path fill="none" stroke="#63b8ff" d="M201.64,-59.57C274.24,-47.78 393.08,-28.48 453.56,-18.66"/>
<polygon fill="#63b8ff" stroke="#63b8ff" points="454.14,-22.11 463.45,-17.05 453.02,-15.2 454.14,-22.11"/>
</a>
</g>
</g>
<!-- Node6 -->
<g id="Node000006" class="node">
<title>Node6</title>
<g id="a_Node000006"><a xlink:title=" ">
<polygon fill="#e0e0e0" stroke="#999999" points="164.5,-23 116.5,-23 116.5,0 164.5,0 164.5,-23"/>
<text text-anchor="middle" x="140.5" y="-7.8" font-family="Arial" font-size="14.00">limits</text>
</a>
</g>
</g>
<!-- Node4&#45;&gt;Node6 -->
<g id="edge5_Node000004_Node000006" class="edge">
<title>Node4&#45;&gt;Node6</title>
<g id="a_edge5_Node000004_Node000006"><a xlink:title=" ">
<path fill="none" stroke="#63b8ff" d="M140.5,-58.78C140.5,-51.61 140.5,-41.95 140.5,-33.31"/>
<polygon fill="#63b8ff" stroke="#63b8ff" points="144,-33.17 140.5,-23.17 137,-33.17 144,-33.17"/>
</a>
</g>
</g>
<!-- Node11&#45;&gt;Node5 -->
<g id="edge17_Node000011_Node000005" class="edge">
<title>Node11&#45;&gt;Node5</title>
<g id="a_edge17_Node000011_Node000005"><a xlink:title=" ">
<path fill="none" stroke="#63b8ff" d="M778.45,-117.88C774.85,-102.34 765.88,-73.68 746.5,-59 713.01,-33.64 592.74,-20.54 530.08,-15.3"/>
<polygon fill="#63b8ff" stroke="#63b8ff" points="530.06,-11.79 519.81,-14.47 529.5,-18.77 530.06,-11.79"/>
</a>
</g>
</g>
<!-- Node12 -->
<g id="Node000012" class="node">
<title>Node12</title>
<g id="a_Node000012"><a xlink:href="McuSelect_8h.html" target="_top" xlink:title="Centralized MCU platform selection and configuration header.">
<polygon fill="white" stroke="#666666" points="1026.5,-82 934.5,-82 934.5,-59 1026.5,-59 1026.5,-82"/>
<text text-anchor="middle" x="980.5" y="-66.8" font-family="Arial" font-size="14.00">McuSelect.h</text>
</a>
</g>
</g>
<!-- Node11&#45;&gt;Node12 -->
<g id="edge12_Node000011_Node000012" class="edge">
<title>Node11&#45;&gt;Node12</title>
<g id="a_edge12_Node000011_Node000012"><a xlink:title=" ">
<path fill="none" stroke="#63b8ff" d="M817.65,-117.91C850.49,-108.55 898.53,-94.86 933.92,-84.77"/>
<polygon fill="#63b8ff" stroke="#63b8ff" points="934.89,-88.14 943.55,-82.03 932.97,-81.41 934.89,-88.14"/>
</a>
</g>
</g>
<!-- Node11&#45;&gt;Node13 -->
<g id="edge13_Node000011_Node000013" class="edge">
<title>Node11&#45;&gt;Node13</title>
<g id="a_edge13_Node000011_Node000013"><a xlink:title=" ">
<path fill="none" stroke="#63b8ff" d="M745.39,-117.91C714.63,-108.63 669.74,-95.1 636.38,-85.03"/>
<polygon fill="#63b8ff" stroke="#63b8ff" points="637,-81.57 626.42,-82.03 634.98,-88.27 637,-81.57"/>
</a>
</g>
</g>
<!-- Node14 -->
<g id="Node000014" class="node">
<title>Node14</title>
<g id="a_Node000014"><a xlink:title=" ">
<polygon fill="#e0e0e0" stroke="#999999" points="916.5,-82 794.5,-82 794.5,-59 916.5,-59 916.5,-82"/>
<text text-anchor="middle" x="855.5" y="-66.8" font-family="Arial" font-size="14.00">freertos/semphr.h</text>
</a>
</g>
</g>
<!-- Node11&#45;&gt;Node14 -->
<g id="edge14_Node000011_Node000014" class="edge">
<title>Node11&#45;&gt;Node14</title>
<g id="a_edge14_Node000011_Node000014"><a xlink:title=" ">
<path fill="none" stroke="#63b8ff" d="M794.61,-117.78C805.5,-109.5 820.78,-97.89 833.31,-88.36"/>
<polygon fill="#63b8ff" stroke="#63b8ff" points="835.61,-91.01 841.46,-82.17 831.38,-85.44 835.61,-91.01"/>
</a>
</g>
</g>
<!-- Node11&#45;&gt;Node15 -->
<g id="edge15_Node000011_Node000015" class="edge">
<title>Node11&#45;&gt;Node15</title>
<g id="a_edge15_Node000011_Node000015"><a xlink:title=" ">
<path fill="none" stroke="#63b8ff" d="M838.64,-117.98C894.32,-107.9 977.99,-92.76 1034.58,-82.52"/>
<polygon fill="#63b8ff" stroke="#63b8ff" points="1035.25,-85.96 1044.47,-80.73 1034,-79.07 1035.25,-85.96"/>
</a>
</g>
</g>
<!-- Node11&#45;&gt;Node16 -->
<g id="edge16_Node000011_Node000016" class="edge">
<title>Node11&#45;&gt;Node16</title>
<g id="a_edge16_Node000011_Node000016"><a xlink:title=" ">
<path fill="none" stroke="#63b8ff" d="M767.15,-117.78C756.93,-109.58 742.64,-98.11 730.85,-88.64"/>
<polygon fill="#63b8ff" stroke="#63b8ff" points="732.78,-85.7 722.79,-82.17 728.4,-91.16 732.78,-85.7"/>
</a>
</g>
</g>
</g>
</svg>

<g id="navigator" transform="translate(0 0)" fill="#404254">
  <rect fill="#f2f5e9" fill-opacity="0.5" stroke="#606060" stroke-width=".5" x="0" y="0" width="60" height="60"/>
  <use id="zoomplus" xlink:href="#zoomPlus" x="17" y="9" onmousedown="handleZoom(evt,'in')"/>
  <use id="zoomminus" xlink:href="#zoomMin" x="42" y="9" onmousedown="handleZoom(evt,'out')"/>
  <use id="reset" xlink:href="#resetDef" x="30" y="36" onmousedown="handleReset()"/>
   <use id="arrowup" xlink:href="#arrowUp" x="0" y="0" onmousedown="handlePan(0,-1)"/>
  <use id="arrowright" xlink:href="#arrowRight" x="0" y="0" onmousedown="handlePan(1,0)"/>
  <use id="arrowdown" xlink:href="#arrowDown" x="0" y="0" onmousedown="handlePan(0,1)"/>
  <use id="arrowleft" xlink:href="#arrowLeft" x="0" y="0" onmousedown="handlePan(-1,0)"/>
</g>
<svg viewBox="0 0 15 15" width="100%" height="30px" preserveAspectRatio="xMaxYMin meet">
 <g id="arrow_out" transform="scale(0.3 0.3)">
  <a xlink:href="EspLogger_8cpp__incl_org.svg" target="_base">
   <rect id="button" ry="5" rx="5" y="6" x="6" height="38" width="38"
        fill="#f2f5e9" fill-opacity="0.5" stroke="#606060" stroke-width="1.0"/>
   <path id="arrow"
     d="M 11.500037,31.436501 C 11.940474,20.09759 22.043105,11.32322 32.158766,21.979434 L 37.068811,17.246167 C 37.068811,17.246167 37.088388,32 37.088388,32 L 22.160133,31.978069 C 22.160133,31.978069 26.997745,27.140456 26.997745,27.140456 C 18.528582,18.264221 13.291696,25.230495 11.500037,31.436501 z"
     style="fill:#404040;"/>
  </a>
 </g>
</svg>

<style type='text/css'>
<![CDATA[
[data-mouse-over-selected='false'] { opacity: 0.7; }
[data-mouse-over-selected='true']  { opacity: 1.0; }
]]>
</style>
<script type="application/ecmascript"><![CDATA[
document.addEventListener('DOMContentLoaded', (event) => {
  highlightEdges();
  highlightAdjacentNodes();
});
]]></script>
</svg>
