<?xml version="1.0" encoding="UTF-8" standalone="no"?>
<!DOCTYPE svg PUBLIC "-//W3C//DTD SVG 1.1//EN"
 "http://www.w3.org/Graphics/SVG/1.1/DTD/svg11.dtd">
<!-- Generated by graphviz version 2.43.0 (0)
 -->
<!-- Title: inc/mcu/esp32/EspLogger.h Pages: 1 -->
<svg width="659pt" height="208pt"
 viewBox="0.00 0.00 658.50 208.00" xmlns="http://www.w3.org/2000/svg" xmlns:xlink="http://www.w3.org/1999/xlink">
<g id="graph0" class="graph" transform="scale(1 1) rotate(0) translate(4 204)">
<title>inc/mcu/esp32/EspLogger.h</title>
<!-- Node1 -->
<g id="Node000001" class="node">
<title>Node1</title>
<g id="a_Node000001"><a xlink:title="ESP32&#45;specific logger implementation for the HardFOC system.">
<polygon fill="#999999" stroke="#666666" points="496,-200 312,-200 312,-177 496,-177 496,-200"/>
<text text-anchor="middle" x="404" y="-184.8" font-family="Arial" font-size="14.00">inc/mcu/esp32/EspLogger.h</text>
</a>
</g>
</g>
<!-- Node2 -->
<g id="Node000002" class="node">
<title>Node2</title>
<g id="a_Node000002"><a xlink:href="BaseLogger_8h.html" target="_top" xlink:title="Unified logging base class for all logging implementations.">
<polygon fill="white" stroke="#666666" points="358,-141 258,-141 258,-118 358,-118 358,-141"/>
<text text-anchor="middle" x="308" y="-125.8" font-family="Arial" font-size="14.00">BaseLogger.h</text>
</a>
</g>
</g>
<!-- Node1&#45;&gt;Node2 -->
<g id="edge1_Node000001_Node000002" class="edge">
<title>Node1&#45;&gt;Node2</title>
<g id="a_edge1_Node000001_Node000002"><a xlink:title=" ">
<path fill="none" stroke="#63b8ff" d="M385.94,-176.78C371.6,-168.26 351.31,-156.21 335.02,-146.55"/>
<polygon fill="#63b8ff" stroke="#63b8ff" points="336.36,-143.27 325.98,-141.17 332.79,-149.29 336.36,-143.27"/>
</a>
</g>
</g>
<!-- Node10 -->
<g id="Node000010" class="node">
<title>Node10</title>
<g id="a_Node000010"><a xlink:href="PlatformMutex_8h.html" target="_top" xlink:title="Cross&#45;platform mutex and synchronization primitives with pluggable backend.">
<polygon fill="white" stroke="#666666" points="144,-141 0,-141 0,-118 144,-118 144,-141"/>
<text text-anchor="middle" x="72" y="-125.8" font-family="Arial" font-size="14.00">utils/PlatformMutex.h</text>
</a>
</g>
</g>
<!-- Node1&#45;&gt;Node10 -->
<g id="edge10_Node000001_Node000010" class="edge">
<title>Node1&#45;&gt;Node10</title>
<g id="a_edge10_Node000001_Node000010"><a xlink:title=" ">
<path fill="none" stroke="#63b8ff" d="M342.72,-176.98C286.31,-167.29 202.63,-152.93 143.25,-142.73"/>
<polygon fill="#63b8ff" stroke="#63b8ff" points="143.65,-139.25 133.2,-141.01 142.47,-146.15 143.65,-139.25"/>
</a>
</g>
</g>
<!-- Node11 -->
<g id="Node000011" class="node">
<title>Node11</title>
<g id="a_Node000011"><a xlink:title=" ">
<polygon fill="#e0e0e0" stroke="#999999" points="100.5,-82 43.5,-82 43.5,-59 100.5,-59 100.5,-82"/>
<text text-anchor="middle" x="72" y="-66.8" font-family="Arial" font-size="14.00">atomic</text>
</a>
</g>
</g>
<!-- Node1&#45;&gt;Node11 -->
<g id="edge13_Node000001_Node000011" class="edge">
<title>Node1&#45;&gt;Node11</title>
<g id="a_edge13_Node000001_Node000011"><a xlink:title=" ">
<path fill="none" stroke="#63b8ff" d="M365.82,-177C334.27,-168.09 288.43,-154.63 249,-141 198.8,-123.65 141.8,-100.66 106.36,-85.97"/>
<polygon fill="#63b8ff" stroke="#63b8ff" points="107.54,-82.67 96.96,-82.06 104.85,-89.13 107.54,-82.67"/>
</a>
</g>
</g>
<!-- Node12 -->
<g id="Node000012" class="node">
<title>Node12</title>
<g id="a_Node000012"><a xlink:title=" ">
<polygon fill="#e0e0e0" stroke="#999999" points="432,-141 376,-141 376,-118 432,-118 432,-141"/>
<text text-anchor="middle" x="404" y="-125.8" font-family="Arial" font-size="14.00">cstring</text>
</a>
</g>
</g>
<!-- Node1&#45;&gt;Node12 -->
<g id="edge14_Node000001_Node000012" class="edge">
<title>Node1&#45;&gt;Node12</title>
<g id="a_edge14_Node000001_Node000012"><a xlink:title=" ">
<path fill="none" stroke="#63b8ff" d="M404,-176.78C404,-169.61 404,-159.95 404,-151.31"/>
<polygon fill="#63b8ff" stroke="#63b8ff" points="407.5,-151.17 404,-141.17 400.5,-151.17 407.5,-151.17"/>
</a>
</g>
</g>
<!-- Node13 -->
<g id="Node000013" class="node">
<title>Node13</title>
<g id="a_Node000013"><a xlink:title=" ">
<polygon fill="#e0e0e0" stroke="#999999" points="494,-141 450,-141 450,-118 494,-118 494,-141"/>
<text text-anchor="middle" x="472" y="-125.8" font-family="Arial" font-size="14.00">map</text>
</a>
</g>
</g>
<!-- Node1&#45;&gt;Node13 -->
<g id="edge15_Node000001_Node000013" class="edge">
<title>Node1&#45;&gt;Node13</title>
<g id="a_edge15_Node000001_Node000013"><a xlink:title=" ">
<path fill="none" stroke="#63b8ff" d="M416.79,-176.78C426.57,-168.58 440.26,-157.11 451.55,-147.64"/>
<polygon fill="#63b8ff" stroke="#63b8ff" points="453.85,-150.28 459.27,-141.17 449.35,-144.91 453.85,-150.28"/>
</a>
</g>
</g>
<!-- Node14 -->
<g id="Node000014" class="node">
<title>Node14</title>
<g id="a_Node000014"><a xlink:title=" ">
<polygon fill="#e0e0e0" stroke="#999999" points="579.5,-141 512.5,-141 512.5,-118 579.5,-118 579.5,-141"/>
<text text-anchor="middle" x="546" y="-125.8" font-family="Arial" font-size="14.00">memory</text>
</a>
</g>
</g>
<!-- Node1&#45;&gt;Node14 -->
<g id="edge16_Node000001_Node000014" class="edge">
<title>Node1&#45;&gt;Node14</title>
<g id="a_edge16_Node000001_Node000014"><a xlink:title=" ">
<path fill="none" stroke="#63b8ff" d="M430.38,-176.91C452.89,-167.87 485.48,-154.79 510.32,-144.82"/>
<polygon fill="#63b8ff" stroke="#63b8ff" points="511.79,-148 519.76,-141.03 509.18,-141.51 511.79,-148"/>
</a>
</g>
</g>
<!-- Node15 -->
<g id="Node000015" class="node">
<title>Node15</title>
<g id="a_Node000015"><a xlink:title=" ">
<polygon fill="#e0e0e0" stroke="#999999" points="650.5,-141 597.5,-141 597.5,-118 650.5,-118 650.5,-141"/>
<text text-anchor="middle" x="624" y="-125.8" font-family="Arial" font-size="14.00">vector</text>
</a>
</g>
</g>
<!-- Node1&#45;&gt;Node15 -->
<g id="edge17_Node000001_Node000015" class="edge">
<title>Node1&#45;&gt;Node15</title>
<g id="a_edge17_Node000001_Node000015"><a xlink:title=" ">
<path fill="none" stroke="#63b8ff" d="M448.25,-176.97C483.62,-168.42 534.69,-155.78 587.42,-141.36"/>
<polygon fill="#63b8ff" stroke="#63b8ff" points="588.57,-144.68 597.28,-138.65 586.71,-137.93 588.57,-144.68"/>
</a>
</g>
</g>
<!-- Node3 -->
<g id="Node000003" class="node">
<title>Node3</title>
<g id="a_Node000003"><a xlink:href="HardwareTypes_8h.html" target="_top" xlink:title="Platform&#45;agnostic hardware type definitions for the HardFOC system.">
<polygon fill="white" stroke="#666666" points="279,-82 157,-82 157,-59 279,-59 279,-82"/>
<text text-anchor="middle" x="218" y="-66.8" font-family="Arial" font-size="14.00">HardwareTypes.h</text>
</a>
</g>
</g>
<!-- Node2&#45;&gt;Node3 -->
<g id="edge2_Node000002_Node000003" class="edge">
<title>Node2&#45;&gt;Node3</title>
<g id="a_edge2_Node000002_Node000003"><a xlink:title=" ">
<path fill="none" stroke="#63b8ff" d="M291.07,-117.78C277.62,-109.26 258.6,-97.21 243.33,-87.55"/>
<polygon fill="#63b8ff" stroke="#63b8ff" points="245.17,-84.57 234.85,-82.17 241.43,-90.48 245.17,-84.57"/>
</a>
</g>
</g>
<!-- Node4 -->
<g id="Node000004" class="node">
<title>Node4</title>
<g id="a_Node000004"><a xlink:title=" ">
<polygon fill="#e0e0e0" stroke="#999999" points="157,-23 101,-23 101,0 157,0 157,-23"/>
<text text-anchor="middle" x="129" y="-7.8" font-family="Arial" font-size="14.00">cstdint</text>
</a>
</g>
</g>
<!-- Node2&#45;&gt;Node4 -->
<g id="edge6_Node000002_Node000004" class="edge">
<title>Node2&#45;&gt;Node4</title>
<g id="a_edge6_Node000002_Node000004"><a xlink:title=" ">
<path fill="none" stroke="#63b8ff" d="M257.87,-119.47C216.94,-111.12 163.42,-97.67 148,-82 135.36,-69.16 130.93,-48.77 129.47,-33.38"/>
<polygon fill="#63b8ff" stroke="#63b8ff" points="132.96,-33.02 128.86,-23.25 125.97,-33.44 132.96,-33.02"/>
</a>
</g>
</g>
<!-- Node6 -->
<g id="Node000006" class="node">
<title>Node6</title>
<g id="a_Node000006"><a xlink:title=" ">
<polygon fill="#e0e0e0" stroke="#999999" points="358.5,-82 297.5,-82 297.5,-59 358.5,-59 358.5,-82"/>
<text text-anchor="middle" x="328" y="-66.8" font-family="Arial" font-size="14.00">cstdarg</text>
</a>
</g>
</g>
<!-- Node2&#45;&gt;Node6 -->
<g id="edge5_Node000002_Node000006" class="edge">
<title>Node2&#45;&gt;Node6</title>
<g id="a_edge5_Node000002_Node000006"><a xlink:title=" ">
<path fill="none" stroke="#63b8ff" d="M311.76,-117.78C314.33,-110.45 317.82,-100.52 320.9,-91.74"/>
<polygon fill="#63b8ff" stroke="#63b8ff" points="324.25,-92.77 324.26,-82.17 317.64,-90.45 324.25,-92.77"/>
</a>
</g>
</g>
<!-- Node7 -->
<g id="Node000007" class="node">
<title>Node7</title>
<g id="a_Node000007"><a xlink:title=" ">
<polygon fill="#e0e0e0" stroke="#999999" points="451,-82 377,-82 377,-59 451,-59 451,-82"/>
<text text-anchor="middle" x="414" y="-66.8" font-family="Arial" font-size="14.00">functional</text>
</a>
</g>
</g>
<!-- Node2&#45;&gt;Node7 -->
<g id="edge7_Node000002_Node000007" class="edge">
<title>Node2&#45;&gt;Node7</title>
<g id="a_edge7_Node000002_Node000007"><a xlink:title=" ">
<path fill="none" stroke="#63b8ff" d="M327.94,-117.78C344.08,-109.1 367.02,-96.76 385.16,-87.01"/>
<polygon fill="#63b8ff" stroke="#63b8ff" points="387,-89.99 394.15,-82.17 383.69,-83.83 387,-89.99"/>
</a>
</g>
</g>
<!-- Node8 -->
<g id="Node000008" class="node">
<title>Node8</title>
<g id="a_Node000008"><a xlink:title=" ">
<polygon fill="#e0e0e0" stroke="#999999" points="519,-82 469,-82 469,-59 519,-59 519,-82"/>
<text text-anchor="middle" x="494" y="-66.8" font-family="Arial" font-size="14.00">string</text>
</a>
</g>
</g>
<!-- Node2&#45;&gt;Node8 -->
<g id="edge8_Node000002_Node000008" class="edge">
<title>Node2&#45;&gt;Node8</title>
<g id="a_edge8_Node000002_Node000008"><a xlink:title=" ">
<path fill="none" stroke="#63b8ff" d="M342.42,-118C371.18,-109.22 413.55,-96.27 459.01,-82.3"/>
<polygon fill="#63b8ff" stroke="#63b8ff" points="460.22,-85.59 468.75,-79.31 458.16,-78.9 460.22,-85.59"/>
</a>
</g>
</g>
<!-- Node9 -->
<g id="Node000009" class="node">
<title>Node9</title>
<g id="a_Node000009"><a xlink:title=" ">
<polygon fill="#e0e0e0" stroke="#999999" points="621,-82 537,-82 537,-59 621,-59 621,-82"/>
<text text-anchor="middle" x="579" y="-66.8" font-family="Arial" font-size="14.00">string_view</text>
</a>
</g>
</g>
<!-- Node2&#45;&gt;Node9 -->
<g id="edge9_Node000002_Node000009" class="edge">
<title>Node2&#45;&gt;Node9</title>
<g id="a_edge9_Node000002_Node000009"><a xlink:title=" ">
<path fill="none" stroke="#63b8ff" d="M358.02,-117.98C406,-107.89 478.13,-92.72 526.82,-82.48"/>
<polygon fill="#63b8ff" stroke="#63b8ff" points="527.77,-85.85 536.83,-80.37 526.33,-79 527.77,-85.85"/>
</a>
</g>
</g>
<!-- Node3&#45;&gt;Node4 -->
<g id="edge3_Node000003_Node000004" class="edge">
<title>Node3&#45;&gt;Node4</title>
<g id="a_edge3_Node000003_Node000004"><a xlink:title=" ">
<path fill="none" stroke="#63b8ff" d="M201.26,-58.78C188.08,-50.34 169.5,-38.44 154.48,-28.82"/>
<polygon fill="#63b8ff" stroke="#63b8ff" points="155.97,-25.62 145.67,-23.17 152.2,-31.51 155.97,-25.62"/>
</a>
</g>
</g>
<!-- Node5 -->
<g id="Node000005" class="node">
<title>Node5</title>
<g id="a_Node000005"><a xlink:title=" ">
<polygon fill="#e0e0e0" stroke="#999999" points="242,-23 194,-23 194,0 242,0 242,-23"/>
<text text-anchor="middle" x="218" y="-7.8" font-family="Arial" font-size="14.00">limits</text>
</a>
</g>
</g>
<!-- Node3&#45;&gt;Node5 -->
<g id="edge4_Node000003_Node000005" class="edge">
<title>Node3&#45;&gt;Node5</title>
<g id="a_edge4_Node000003_Node000005"><a xlink:title=" ">
<path fill="none" stroke="#63b8ff" d="M218,-58.78C218,-51.61 218,-41.95 218,-33.31"/>
<polygon fill="#63b8ff" stroke="#63b8ff" points="221.5,-33.17 218,-23.17 214.5,-33.17 221.5,-33.17"/>
</a>
</g>
</g>
<!-- Node10&#45;&gt;Node4 -->
<g id="edge12_Node000010_Node000004" class="edge">
<title>Node10&#45;&gt;Node4</title>
<g id="a_edge12_Node000010_Node000004"><a xlink:title=" ">
<path fill="none" stroke="#63b8ff" d="M59.18,-117.9C44.05,-104.05 22.45,-79.21 35,-59 47.3,-39.19 70.81,-27.57 91.24,-20.89"/>
<polygon fill="#63b8ff" stroke="#63b8ff" points="92.38,-24.21 100.96,-18 90.38,-17.5 92.38,-24.21"/>
</a>
</g>
</g>
<!-- Node10&#45;&gt;Node11 -->
<g id="edge11_Node000010_Node000011" class="edge">
<title>Node10&#45;&gt;Node11</title>
<g id="a_edge11_Node000010_Node000011"><a xlink:title=" ">
<path fill="none" stroke="#63b8ff" d="M72,-117.78C72,-110.61 72,-100.95 72,-92.31"/>
<polygon fill="#63b8ff" stroke="#63b8ff" points="75.5,-92.17 72,-82.17 68.5,-92.17 75.5,-92.17"/>
</a>
</g>
</g>
</g>
</svg>
