<?xml version="1.0" encoding="UTF-8" standalone="no"?>
<!DOCTYPE svg PUBLIC "-//W3C//DTD SVG 1.1//EN"
 "http://www.w3.org/Graphics/SVG/1.1/DTD/svg11.dtd">
<!-- Generated by graphviz version 2.43.0 (0)
 -->
<!-- Title: src/mcu/esp32/EspPwm.cpp Pages: 1 -->
<svg width="1779pt" height="385pt"
 viewBox="0.00 0.00 1778.50 385.00" xmlns="http://www.w3.org/2000/svg" xmlns:xlink="http://www.w3.org/1999/xlink">
<g id="graph0" class="graph" transform="scale(1 1) rotate(0) translate(4 381)">
<title>src/mcu/esp32/EspPwm.cpp</title>
<!-- Node1 -->
<g id="Node000001" class="node">
<title>Node1</title>
<g id="a_Node000001"><a xlink:title="Implementation of ESP32 family LEDC (PWM) controller for the HardFOC system.">
<polygon fill="#999999" stroke="#666666" points="1348.5,-377 1160.5,-377 1160.5,-354 1348.5,-354 1348.5,-377"/>
<text text-anchor="middle" x="1254.5" y="-361.8" font-family="Arial" font-size="14.00">src/mcu/esp32/EspPwm.cpp</text>
</a>
</g>
</g>
<!-- Node2 -->
<g id="Node000002" class="node">
<title>Node2</title>
<g id="a_Node000002"><a xlink:href="EspPwm_8h.html" target="_top" xlink:title="ESP32C6 LEDC (PWM) controller implementation for the HardFOC system.">
<polygon fill="white" stroke="#666666" points="920.5,-318 838.5,-318 838.5,-295 920.5,-295 920.5,-318"/>
<text text-anchor="middle" x="879.5" y="-302.8" font-family="Arial" font-size="14.00">EspPwm.h</text>
</a>
</g>
</g>
<!-- Node1&#45;&gt;Node2 -->
<g id="edge1_Node000001_Node000002" class="edge">
<title>Node1&#45;&gt;Node2</title>
<g id="a_edge1_Node000001_Node000002"><a xlink:title=" ">
<path fill="none" stroke="#63b8ff" d="M1185.28,-353.98C1111.66,-342.79 996.91,-325.35 930.92,-315.32"/>
<polygon fill="#63b8ff" stroke="#63b8ff" points="931.17,-311.81 920.76,-313.77 930.12,-318.73 931.17,-311.81"/>
</a>
</g>
</g>
<!-- Node21 -->
<g id="Node000021" class="node">
<title>Node21</title>
<g id="a_Node000021"><a xlink:title=" ">
<polygon fill="#e0e0e0" stroke="#999999" points="1084.5,-259 994.5,-259 994.5,-236 1084.5,-236 1084.5,-259"/>
<text text-anchor="middle" x="1039.5" y="-243.8" font-family="Arial" font-size="14.00">driver/ledc.h</text>
</a>
</g>
</g>
<!-- Node1&#45;&gt;Node21 -->
<g id="edge41_Node000001_Node000021" class="edge">
<title>Node1&#45;&gt;Node21</title>
<g id="a_edge41_Node000001_Node000021"><a xlink:title=" ">
<path fill="none" stroke="#63b8ff" d="M1160.34,-358.45C1101.04,-352.46 1032.25,-340.72 1013.5,-318 1001.43,-303.38 1011.82,-282.61 1022.84,-267.59"/>
<polygon fill="#63b8ff" stroke="#63b8ff" points="1025.79,-269.51 1029.24,-259.5 1020.29,-265.17 1025.79,-269.51"/>
</a>
</g>
</g>
<!-- Node22 -->
<g id="Node000022" class="node">
<title>Node22</title>
<g id="a_Node000022"><a xlink:title=" ">
<polygon fill="#e0e0e0" stroke="#999999" points="1095,-318 1022,-318 1022,-295 1095,-295 1095,-318"/>
<text text-anchor="middle" x="1058.5" y="-302.8" font-family="Arial" font-size="14.00">algorithm</text>
</a>
</g>
</g>
<!-- Node1&#45;&gt;Node22 -->
<g id="edge38_Node000001_Node000022" class="edge">
<title>Node1&#45;&gt;Node22</title>
<g id="a_edge38_Node000001_Node000022"><a xlink:title=" ">
<path fill="none" stroke="#63b8ff" d="M1218.09,-353.91C1186.05,-344.59 1139.24,-330.98 1104.59,-320.9"/>
<polygon fill="#63b8ff" stroke="#63b8ff" points="1105.29,-317.46 1094.71,-318.03 1103.34,-324.18 1105.29,-317.46"/>
</a>
</g>
</g>
<!-- Node23 -->
<g id="Node000023" class="node">
<title>Node23</title>
<g id="a_Node000023"><a xlink:title=" ">
<polygon fill="#e0e0e0" stroke="#999999" points="1169.5,-318 1113.5,-318 1113.5,-295 1169.5,-295 1169.5,-318"/>
<text text-anchor="middle" x="1141.5" y="-302.8" font-family="Arial" font-size="14.00">cstring</text>
</a>
</g>
</g>
<!-- Node1&#45;&gt;Node23 -->
<g id="edge39_Node000001_Node000023" class="edge">
<title>Node1&#45;&gt;Node23</title>
<g id="a_edge39_Node000001_Node000023"><a xlink:title=" ">
<path fill="none" stroke="#63b8ff" d="M1233.51,-353.91C1216.07,-345.11 1191.03,-332.49 1171.48,-322.62"/>
<polygon fill="#63b8ff" stroke="#63b8ff" points="1172.88,-319.41 1162.38,-318.03 1169.73,-325.66 1172.88,-319.41"/>
</a>
</g>
</g>
<!-- Node24 -->
<g id="Node000024" class="node">
<title>Node24</title>
<g id="a_Node000024"><a xlink:title=" ">
<polygon fill="#e0e0e0" stroke="#999999" points="1241,-318 1188,-318 1188,-295 1241,-295 1241,-318"/>
<text text-anchor="middle" x="1214.5" y="-302.8" font-family="Arial" font-size="14.00">vector</text>
</a>
</g>
</g>
<!-- Node1&#45;&gt;Node24 -->
<g id="edge40_Node000001_Node000024" class="edge">
<title>Node1&#45;&gt;Node24</title>
<g id="a_edge40_Node000001_Node000024"><a xlink:title=" ">
<path fill="none" stroke="#63b8ff" d="M1246.98,-353.78C1241.61,-346.14 1234.26,-335.65 1227.9,-326.6"/>
<polygon fill="#63b8ff" stroke="#63b8ff" points="1230.6,-324.35 1221.99,-318.17 1224.87,-328.37 1230.6,-324.35"/>
</a>
</g>
</g>
<!-- Node25 -->
<g id="Node000025" class="node">
<title>Node25</title>
<g id="a_Node000025"><a xlink:title=" ">
<polygon fill="#e0e0e0" stroke="#999999" points="1332,-318 1259,-318 1259,-295 1332,-295 1332,-318"/>
<text text-anchor="middle" x="1295.5" y="-302.8" font-family="Arial" font-size="14.00">esp_err.h</text>
</a>
</g>
</g>
<!-- Node1&#45;&gt;Node25 -->
<g id="edge42_Node000001_Node000025" class="edge">
<title>Node1&#45;&gt;Node25</title>
<g id="a_edge42_Node000001_Node000025"><a xlink:title=" ">
<path fill="none" stroke="#63b8ff" d="M1262.21,-353.78C1267.77,-346.06 1275.41,-335.43 1281.97,-326.31"/>
<polygon fill="#63b8ff" stroke="#63b8ff" points="1284.82,-328.34 1287.82,-318.17 1279.14,-324.25 1284.82,-328.34"/>
</a>
</g>
</g>
<!-- Node26 -->
<g id="Node000026" class="node">
<title>Node26</title>
<g id="a_Node000026"><a xlink:title=" ">
<polygon fill="#e0e0e0" stroke="#999999" points="1425,-318 1350,-318 1350,-295 1425,-295 1425,-318"/>
<text text-anchor="middle" x="1387.5" y="-302.8" font-family="Arial" font-size="14.00">esp_log.h</text>
</a>
</g>
</g>
<!-- Node1&#45;&gt;Node26 -->
<g id="edge43_Node000001_Node000026" class="edge">
<title>Node1&#45;&gt;Node26</title>
<g id="a_edge43_Node000001_Node000026"><a xlink:title=" ">
<path fill="none" stroke="#63b8ff" d="M1279.2,-353.91C1300.11,-344.95 1330.28,-332.02 1353.46,-322.09"/>
<polygon fill="#63b8ff" stroke="#63b8ff" points="1355.11,-325.19 1362.93,-318.03 1352.36,-318.75 1355.11,-325.19"/>
</a>
</g>
</g>
<!-- Node27 -->
<g id="Node000027" class="node">
<title>Node27</title>
<g id="a_Node000027"><a xlink:title=" ">
<polygon fill="#e0e0e0" stroke="#999999" points="1530,-318 1443,-318 1443,-295 1530,-295 1530,-318"/>
<text text-anchor="middle" x="1486.5" y="-302.8" font-family="Arial" font-size="14.00">esp_timer.h</text>
</a>
</g>
</g>
<!-- Node1&#45;&gt;Node27 -->
<g id="edge44_Node000001_Node000027" class="edge">
<title>Node1&#45;&gt;Node27</title>
<g id="a_edge44_Node000001_Node000027"><a xlink:title=" ">
<path fill="none" stroke="#63b8ff" d="M1297.32,-353.98C1335.79,-344.53 1392.39,-330.62 1433.66,-320.48"/>
<polygon fill="#63b8ff" stroke="#63b8ff" points="1434.66,-323.84 1443.53,-318.06 1432.99,-317.04 1434.66,-323.84"/>
</a>
</g>
</g>
<!-- Node28 -->
<g id="Node000028" class="node">
<title>Node28</title>
<g id="a_Node000028"><a xlink:title=" ">
<polygon fill="#e0e0e0" stroke="#999999" points="1648.5,-318 1548.5,-318 1548.5,-295 1648.5,-295 1648.5,-318"/>
<text text-anchor="middle" x="1598.5" y="-302.8" font-family="Arial" font-size="14.00">hal/ledc_hal.h</text>
</a>
</g>
</g>
<!-- Node1&#45;&gt;Node28 -->
<g id="edge45_Node000001_Node000028" class="edge">
<title>Node1&#45;&gt;Node28</title>
<g id="a_edge45_Node000001_Node000028"><a xlink:title=" ">
<path fill="none" stroke="#63b8ff" d="M1320.77,-353.96C1376.19,-345.09 1457.62,-331.91 1537.99,-318.24"/>
<polygon fill="#63b8ff" stroke="#63b8ff" points="1539.03,-321.61 1548.3,-316.49 1537.85,-314.71 1539.03,-321.61"/>
</a>
</g>
</g>
<!-- Node29 -->
<g id="Node000029" class="node">
<title>Node29</title>
<g id="a_Node000029"><a xlink:title=" ">
<polygon fill="#e0e0e0" stroke="#999999" points="1770.5,-318 1666.5,-318 1666.5,-295 1770.5,-295 1770.5,-318"/>
<text text-anchor="middle" x="1718.5" y="-302.8" font-family="Arial" font-size="14.00">soc/ledc_reg.h</text>
</a>
</g>
</g>
<!-- Node1&#45;&gt;Node29 -->
<g id="edge46_Node000001_Node000029" class="edge">
<title>Node1&#45;&gt;Node29</title>
<g id="a_edge46_Node000001_Node000029"><a xlink:title=" ">
<path fill="none" stroke="#63b8ff" d="M1348.74,-355.12C1428.14,-346.88 1544.97,-333.93 1656.23,-318.12"/>
<polygon fill="#63b8ff" stroke="#63b8ff" points="1656.88,-321.57 1666.29,-316.68 1655.89,-314.64 1656.88,-321.57"/>
</a>
</g>
</g>
<!-- Node3 -->
<g id="Node000003" class="node">
<title>Node3</title>
<g id="a_Node000003"><a xlink:href="BasePwm_8h.html" target="_top" xlink:title="Abstract base class for PWM implementations in the HardFOC system.">
<polygon fill="white" stroke="#666666" points="1010,-141 921,-141 921,-118 1010,-118 1010,-141"/>
<text text-anchor="middle" x="965.5" y="-125.8" font-family="Arial" font-size="14.00">BasePwm.h</text>
</a>
</g>
</g>
<!-- Node2&#45;&gt;Node3 -->
<g id="edge2_Node000002_Node000003" class="edge">
<title>Node2&#45;&gt;Node3</title>
<g id="a_edge2_Node000002_Node000003"><a xlink:title=" ">
<path fill="none" stroke="#63b8ff" d="M904.23,-294.98C919.24,-287.26 937.4,-275.29 947.5,-259 968.17,-225.66 969.05,-178.23 967.5,-151.29"/>
<polygon fill="#63b8ff" stroke="#63b8ff" points="970.97,-150.82 966.73,-141.11 963.99,-151.34 970.97,-150.82"/>
</a>
</g>
</g>
<!-- Node9 -->
<g id="Node000009" class="node">
<title>Node9</title>
<g id="a_Node000009"><a xlink:href="RtosMutex_8h.html" target="_top" xlink:title="Cross&#45;platform RTOS mutex and synchronization primitives.">
<polygon fill="white" stroke="#666666" points="460,-141 367,-141 367,-118 460,-118 460,-141"/>
<text text-anchor="middle" x="413.5" y="-125.8" font-family="Arial" font-size="14.00">RtosMutex.h</text>
</a>
</g>
</g>
<!-- Node2&#45;&gt;Node9 -->
<g id="edge9_Node000002_Node000009" class="edge">
<title>Node2&#45;&gt;Node9</title>
<g id="a_edge9_Node000002_Node000009"><a xlink:title=" ">
<path fill="none" stroke="#63b8ff" d="M838.44,-305.71C747.41,-305.41 532.13,-300.23 474.5,-259 438.52,-233.26 423.03,-180.64 416.97,-151.34"/>
<polygon fill="#63b8ff" stroke="#63b8ff" points="420.38,-150.54 415.08,-141.37 413.5,-151.84 420.38,-150.54"/>
</a>
</g>
</g>
<!-- Node14 -->
<g id="Node000014" class="node">
<title>Node14</title>
<g id="a_Node000014"><a xlink:title=" ">
<polygon fill="#e0e0e0" stroke="#999999" points="517,-82 460,-82 460,-59 517,-59 517,-82"/>
<text text-anchor="middle" x="488.5" y="-66.8" font-family="Arial" font-size="14.00">atomic</text>
</a>
</g>
</g>
<!-- Node2&#45;&gt;Node14 -->
<g id="edge35_Node000002_Node000014" class="edge">
<title>Node2&#45;&gt;Node14</title>
<g id="a_edge35_Node000002_Node000014"><a xlink:title=" ">
<path fill="none" stroke="#63b8ff" d="M838.07,-305.98C787.45,-304.76 700.87,-296.67 638.5,-259 568.91,-216.97 518.29,-130.16 498.13,-91.19"/>
<polygon fill="#63b8ff" stroke="#63b8ff" points="501.2,-89.51 493.57,-82.16 494.96,-92.67 501.2,-89.51"/>
</a>
</g>
</g>
<!-- Node15 -->
<g id="Node000015" class="node">
<title>Node15</title>
<g id="a_Node000015"><a xlink:href="EspTypes__PWM_8h.html" target="_top" xlink:title="ESP32 PWM type definitions for LEDC peripheral hardware abstraction.">
<polygon fill="white" stroke="#666666" points="805,-259 648,-259 648,-236 805,-236 805,-259"/>
<text text-anchor="middle" x="726.5" y="-243.8" font-family="Arial" font-size="14.00">utils/EspTypes_PWM.h</text>
</a>
</g>
</g>
<!-- Node2&#45;&gt;Node15 -->
<g id="edge16_Node000002_Node000015" class="edge">
<title>Node2&#45;&gt;Node15</title>
<g id="a_edge16_Node000002_Node000015"><a xlink:title=" ">
<path fill="none" stroke="#63b8ff" d="M851.08,-294.91C826.61,-285.79 791.09,-272.56 764.23,-262.56"/>
<polygon fill="#63b8ff" stroke="#63b8ff" points="765.36,-259.24 754.77,-259.03 762.92,-265.8 765.36,-259.24"/>
</a>
</g>
</g>
<!-- Node19 -->
<g id="Node000019" class="node">
<title>Node19</title>
<g id="a_Node000019"><a xlink:title=" ">
<polygon fill="#e0e0e0" stroke="#999999" points="870,-259 823,-259 823,-236 870,-236 870,-259"/>
<text text-anchor="middle" x="846.5" y="-243.8" font-family="Arial" font-size="14.00">array</text>
</a>
</g>
</g>
<!-- Node2&#45;&gt;Node19 -->
<g id="edge34_Node000002_Node000019" class="edge">
<title>Node2&#45;&gt;Node19</title>
<g id="a_edge34_Node000002_Node000019"><a xlink:title=" ">
<path fill="none" stroke="#63b8ff" d="M873.29,-294.78C868.91,-287.22 862.93,-276.87 857.72,-267.88"/>
<polygon fill="#63b8ff" stroke="#63b8ff" points="860.72,-266.07 852.68,-259.17 854.66,-269.58 860.72,-266.07"/>
</a>
</g>
</g>
<!-- Node20 -->
<g id="Node000020" class="node">
<title>Node20</title>
<g id="a_Node000020"><a xlink:title=" ">
<polygon fill="#e0e0e0" stroke="#999999" points="938.5,-259 888.5,-259 888.5,-236 938.5,-236 938.5,-259"/>
<text text-anchor="middle" x="913.5" y="-243.8" font-family="Arial" font-size="14.00">string</text>
</a>
</g>
</g>
<!-- Node2&#45;&gt;Node20 -->
<g id="edge36_Node000002_Node000020" class="edge">
<title>Node2&#45;&gt;Node20</title>
<g id="a_edge36_Node000002_Node000020"><a xlink:title=" ">
<path fill="none" stroke="#63b8ff" d="M885.9,-294.78C890.41,-287.22 896.58,-276.87 901.94,-267.88"/>
<polygon fill="#63b8ff" stroke="#63b8ff" points="905.02,-269.55 907.13,-259.17 899,-265.97 905.02,-269.55"/>
</a>
</g>
</g>
<!-- Node2&#45;&gt;Node21 -->
<g id="edge37_Node000002_Node000021" class="edge">
<title>Node2&#45;&gt;Node21</title>
<g id="a_edge37_Node000002_Node000021"><a xlink:title=" ">
<path fill="none" stroke="#63b8ff" d="M909.22,-294.91C934.93,-285.75 972.28,-272.45 1000.41,-262.43"/>
<polygon fill="#63b8ff" stroke="#63b8ff" points="1001.69,-265.68 1009.94,-259.03 999.34,-259.09 1001.69,-265.68"/>
</a>
</g>
</g>
<!-- Node4 -->
<g id="Node000004" class="node">
<title>Node4</title>
<g id="a_Node000004"><a xlink:href="HardwareTypes_8h.html" target="_top" xlink:title="Platform&#45;agnostic hardware type definitions for the HardFOC system.">
<polygon fill="white" stroke="#666666" points="843.5,-82 721.5,-82 721.5,-59 843.5,-59 843.5,-82"/>
<text text-anchor="middle" x="782.5" y="-66.8" font-family="Arial" font-size="14.00">HardwareTypes.h</text>
</a>
</g>
</g>
<!-- Node3&#45;&gt;Node4 -->
<g id="edge3_Node000003_Node000004" class="edge">
<title>Node3&#45;&gt;Node4</title>
<g id="a_edge3_Node000003_Node000004"><a xlink:title=" ">
<path fill="none" stroke="#63b8ff" d="M931.51,-117.91C901.72,-108.63 858.26,-95.1 825.95,-85.03"/>
<polygon fill="#63b8ff" stroke="#63b8ff" points="826.9,-81.66 816.31,-82.03 824.82,-88.35 826.9,-81.66"/>
</a>
</g>
</g>
<!-- Node5 -->
<g id="Node000005" class="node">
<title>Node5</title>
<g id="a_Node000005"><a xlink:title=" ">
<polygon fill="#e0e0e0" stroke="#999999" points="721.5,-23 665.5,-23 665.5,0 721.5,0 721.5,-23"/>
<text text-anchor="middle" x="693.5" y="-7.8" font-family="Arial" font-size="14.00">cstdint</text>
</a>
</g>
</g>
<!-- Node3&#45;&gt;Node5 -->
<g id="edge6_Node000003_Node000005" class="edge">
<title>Node3&#45;&gt;Node5</title>
<g id="a_edge6_Node000003_Node000005"><a xlink:title=" ">
<path fill="none" stroke="#63b8ff" d="M994.4,-118C1025.32,-105.22 1067.27,-82.44 1046.5,-59 1002.41,-9.24 815.21,-33.13 749.5,-23 743.68,-22.1 737.53,-21.05 731.53,-19.97"/>
<polygon fill="#63b8ff" stroke="#63b8ff" points="732.11,-16.52 721.64,-18.14 730.84,-23.4 732.11,-16.52"/>
</a>
</g>
</g>
<!-- Node7 -->
<g id="Node000007" class="node">
<title>Node7</title>
<g id="a_Node000007"><a xlink:title=" ">
<polygon fill="#e0e0e0" stroke="#999999" points="935.5,-82 861.5,-82 861.5,-59 935.5,-59 935.5,-82"/>
<text text-anchor="middle" x="898.5" y="-66.8" font-family="Arial" font-size="14.00">functional</text>
</a>
</g>
</g>
<!-- Node3&#45;&gt;Node7 -->
<g id="edge7_Node000003_Node000007" class="edge">
<title>Node3&#45;&gt;Node7</title>
<g id="a_edge7_Node000003_Node000007"><a xlink:title=" ">
<path fill="none" stroke="#63b8ff" d="M952.9,-117.78C943.35,-109.66 930.04,-98.33 918.97,-88.92"/>
<polygon fill="#63b8ff" stroke="#63b8ff" points="920.93,-85.99 911.05,-82.17 916.39,-91.32 920.93,-85.99"/>
</a>
</g>
</g>
<!-- Node8 -->
<g id="Node000008" class="node">
<title>Node8</title>
<g id="a_Node000008"><a xlink:title=" ">
<polygon fill="#e0e0e0" stroke="#999999" points="1037.5,-82 953.5,-82 953.5,-59 1037.5,-59 1037.5,-82"/>
<text text-anchor="middle" x="995.5" y="-66.8" font-family="Arial" font-size="14.00">string_view</text>
</a>
</g>
</g>
<!-- Node3&#45;&gt;Node8 -->
<g id="edge8_Node000003_Node000008" class="edge">
<title>Node3&#45;&gt;Node8</title>
<g id="a_edge8_Node000003_Node000008"><a xlink:title=" ">
<path fill="none" stroke="#63b8ff" d="M971.14,-117.78C975.08,-110.29 980.45,-100.09 985.15,-91.16"/>
<polygon fill="#63b8ff" stroke="#63b8ff" points="988.32,-92.65 989.88,-82.17 982.13,-89.39 988.32,-92.65"/>
</a>
</g>
</g>
<!-- Node4&#45;&gt;Node5 -->
<g id="edge4_Node000004_Node000005" class="edge">
<title>Node4&#45;&gt;Node5</title>
<g id="a_edge4_Node000004_Node000005"><a xlink:title=" ">
<path fill="none" stroke="#63b8ff" d="M765.76,-58.78C752.58,-50.34 734,-38.44 718.98,-28.82"/>
<polygon fill="#63b8ff" stroke="#63b8ff" points="720.47,-25.62 710.17,-23.17 716.7,-31.51 720.47,-25.62"/>
</a>
</g>
</g>
<!-- Node6 -->
<g id="Node000006" class="node">
<title>Node6</title>
<g id="a_Node000006"><a xlink:title=" ">
<polygon fill="#e0e0e0" stroke="#999999" points="806.5,-23 758.5,-23 758.5,0 806.5,0 806.5,-23"/>
<text text-anchor="middle" x="782.5" y="-7.8" font-family="Arial" font-size="14.00">limits</text>
</a>
</g>
</g>
<!-- Node4&#45;&gt;Node6 -->
<g id="edge5_Node000004_Node000006" class="edge">
<title>Node4&#45;&gt;Node6</title>
<g id="a_edge5_Node000004_Node000006"><a xlink:title=" ">
<path fill="none" stroke="#63b8ff" d="M782.5,-58.78C782.5,-51.61 782.5,-41.95 782.5,-33.31"/>
<polygon fill="#63b8ff" stroke="#63b8ff" points="786,-33.17 782.5,-23.17 779,-33.17 786,-33.17"/>
</a>
</g>
</g>
<!-- Node9&#45;&gt;Node5 -->
<g id="edge15_Node000009_Node000005" class="edge">
<title>Node9&#45;&gt;Node5</title>
<g id="a_edge15_Node000009_Node000005"><a xlink:title=" ">
<path fill="none" stroke="#63b8ff" d="M416.04,-117.88C420.34,-102.35 430.59,-73.68 450.5,-59 482.46,-35.43 595.02,-21.65 655.07,-15.81"/>
<polygon fill="#63b8ff" stroke="#63b8ff" points="655.67,-19.27 665.3,-14.85 655.01,-12.31 655.67,-19.27"/>
</a>
</g>
</g>
<!-- Node10 -->
<g id="Node000010" class="node">
<title>Node10</title>
<g id="a_Node000010"><a xlink:href="McuSelect_8h.html" target="_top" xlink:title="Centralized MCU platform selection and configuration header.">
<polygon fill="white" stroke="#666666" points="627.5,-82 535.5,-82 535.5,-59 627.5,-59 627.5,-82"/>
<text text-anchor="middle" x="581.5" y="-66.8" font-family="Arial" font-size="14.00">McuSelect.h</text>
</a>
</g>
</g>
<!-- Node9&#45;&gt;Node10 -->
<g id="edge10_Node000009_Node000010" class="edge">
<title>Node9&#45;&gt;Node10</title>
<g id="a_edge10_Node000009_Node000010"><a xlink:title=" ">
<path fill="none" stroke="#63b8ff" d="M444.71,-117.91C471.82,-108.71 511.27,-95.33 540.84,-85.29"/>
<polygon fill="#63b8ff" stroke="#63b8ff" points="542.12,-88.56 550.46,-82.03 539.87,-81.93 542.12,-88.56"/>
</a>
</g>
</g>
<!-- Node11 -->
<g id="Node000011" class="node">
<title>Node11</title>
<g id="a_Node000011"><a xlink:title=" ">
<polygon fill="#e0e0e0" stroke="#999999" points="143,-82 0,-82 0,-59 143,-59 143,-82"/>
<text text-anchor="middle" x="71.5" y="-66.8" font-family="Arial" font-size="14.00">freertos/FreeRTOS.h</text>
</a>
</g>
</g>
<!-- Node9&#45;&gt;Node11 -->
<g id="edge11_Node000009_Node000011" class="edge">
<title>Node9&#45;&gt;Node11</title>
<g id="a_edge11_Node000009_Node000011"><a xlink:title=" ">
<path fill="none" stroke="#63b8ff" d="M366.66,-120.69C309.42,-111.15 211.88,-94.9 144.7,-83.7"/>
<polygon fill="#63b8ff" stroke="#63b8ff" points="145.04,-80.21 134.6,-82.02 143.89,-87.11 145.04,-80.21"/>
</a>
</g>
</g>
<!-- Node12 -->
<g id="Node000012" class="node">
<title>Node12</title>
<g id="a_Node000012"><a xlink:title=" ">
<polygon fill="#e0e0e0" stroke="#999999" points="283.5,-82 161.5,-82 161.5,-59 283.5,-59 283.5,-82"/>
<text text-anchor="middle" x="222.5" y="-66.8" font-family="Arial" font-size="14.00">freertos/semphr.h</text>
</a>
</g>
</g>
<!-- Node9&#45;&gt;Node12 -->
<g id="edge12_Node000009_Node000012" class="edge">
<title>Node9&#45;&gt;Node12</title>
<g id="a_edge12_Node000009_Node000012"><a xlink:title=" ">
<path fill="none" stroke="#63b8ff" d="M378.02,-117.91C346.8,-108.59 301.18,-94.98 267.41,-84.9"/>
<polygon fill="#63b8ff" stroke="#63b8ff" points="268.37,-81.54 257.79,-82.03 266.37,-88.24 268.37,-81.54"/>
</a>
</g>
</g>
<!-- Node13 -->
<g id="Node000013" class="node">
<title>Node13</title>
<g id="a_Node000013"><a xlink:title=" ">
<polygon fill="#e0e0e0" stroke="#999999" points="403.5,-82 301.5,-82 301.5,-59 403.5,-59 403.5,-82"/>
<text text-anchor="middle" x="352.5" y="-66.8" font-family="Arial" font-size="14.00">freertos/task.h</text>
</a>
</g>
</g>
<!-- Node9&#45;&gt;Node13 -->
<g id="edge13_Node000009_Node000013" class="edge">
<title>Node9&#45;&gt;Node13</title>
<g id="a_edge13_Node000009_Node000013"><a xlink:title=" ">
<path fill="none" stroke="#63b8ff" d="M402.03,-117.78C393.42,-109.74 381.45,-98.55 371.43,-89.19"/>
<polygon fill="#63b8ff" stroke="#63b8ff" points="373.62,-86.44 363.92,-82.17 368.84,-91.56 373.62,-86.44"/>
</a>
</g>
</g>
<!-- Node9&#45;&gt;Node14 -->
<g id="edge14_Node000009_Node000014" class="edge">
<title>Node9&#45;&gt;Node14</title>
<g id="a_edge14_Node000009_Node000014"><a xlink:title=" ">
<path fill="none" stroke="#63b8ff" d="M427.61,-117.78C438.5,-109.5 453.78,-97.89 466.31,-88.36"/>
<polygon fill="#63b8ff" stroke="#63b8ff" points="468.61,-91.01 474.46,-82.17 464.38,-85.44 468.61,-91.01"/>
</a>
</g>
</g>
<!-- Node15&#45;&gt;Node3 -->
<g id="edge17_Node000015_Node000003" class="edge">
<title>Node15&#45;&gt;Node3</title>
<g id="a_edge17_Node000015_Node000003"><a xlink:title=" ">
<path fill="none" stroke="#63b8ff" d="M805.42,-236.29C837.87,-229.53 874.74,-218.37 904.5,-200 925.06,-187.31 942.52,-165.53 953.43,-149.73"/>
<polygon fill="#63b8ff" stroke="#63b8ff" points="956.46,-151.49 959.07,-141.23 950.62,-147.63 956.46,-151.49"/>
</a>
</g>
</g>
<!-- Node15&#45;&gt;Node4 -->
<g id="edge18_Node000015_Node000004" class="edge">
<title>Node15&#45;&gt;Node4</title>
<g id="a_edge18_Node000015_Node000004"><a xlink:title=" ">
<path fill="none" stroke="#63b8ff" d="M757.38,-235.96C794.13,-221.38 852.87,-191.04 871.5,-141 875.07,-131.42 876.8,-126.74 871.5,-118 862.67,-103.43 847.62,-93.21 832.37,-86.14"/>
<polygon fill="#63b8ff" stroke="#63b8ff" points="833.49,-82.81 822.91,-82.13 830.76,-89.25 833.49,-82.81"/>
</a>
</g>
</g>
<!-- Node15&#45;&gt;Node10 -->
<g id="edge19_Node000015_Node000010" class="edge">
<title>Node15&#45;&gt;Node10</title>
<g id="a_edge19_Node000015_Node000010"><a xlink:title=" ">
<path fill="none" stroke="#63b8ff" d="M696.17,-235.99C659.01,-221.28 597.76,-190.63 571.5,-141 563.43,-125.74 567.35,-106.09 572.46,-91.58"/>
<polygon fill="#63b8ff" stroke="#63b8ff" points="575.8,-92.65 576.24,-82.06 569.3,-90.07 575.8,-92.65"/>
</a>
</g>
</g>
<!-- Node16 -->
<g id="Node000016" class="node">
<title>Node16</title>
<g id="a_Node000016"><a xlink:href="EspTypes__Base_8h.html" target="_top" xlink:title="ESP32 base type definitions for hardware abstraction.">
<polygon fill="white" stroke="#666666" points="718,-141 593,-141 593,-118 718,-118 718,-141"/>
<text text-anchor="middle" x="655.5" y="-125.8" font-family="Arial" font-size="14.00">EspTypes_Base.h</text>
</a>
</g>
</g>
<!-- Node15&#45;&gt;Node16 -->
<g id="edge20_Node000015_Node000016" class="edge">
<title>Node15&#45;&gt;Node16</title>
<g id="a_edge20_Node000015_Node000016"><a xlink:title=" ">
<path fill="none" stroke="#63b8ff" d="M709.37,-235.96C697.29,-227.65 681.68,-214.98 672.5,-200 663.4,-185.15 659.16,-165.71 657.2,-151.17"/>
<polygon fill="#63b8ff" stroke="#63b8ff" points="660.67,-150.71 656.1,-141.16 653.71,-151.48 660.67,-150.71"/>
</a>
</g>
</g>
<!-- Node17 -->
<g id="Node000017" class="node">
<title>Node17</title>
<g id="a_Node000017"><a xlink:href="EspTypes__GPIO_8h.html" target="_top" xlink:title="ESP32 GPIO type definitions for hardware abstraction.">
<polygon fill="white" stroke="#666666" points="811.5,-200 681.5,-200 681.5,-177 811.5,-177 811.5,-200"/>
<text text-anchor="middle" x="746.5" y="-184.8" font-family="Arial" font-size="14.00">EspTypes_GPIO.h</text>
</a>
</g>
</g>
<!-- Node15&#45;&gt;Node17 -->
<g id="edge25_Node000015_Node000017" class="edge">
<title>Node15&#45;&gt;Node17</title>
<g id="a_edge25_Node000015_Node000017"><a xlink:title=" ">
<path fill="none" stroke="#63b8ff" d="M730.26,-235.78C732.83,-228.45 736.32,-218.52 739.4,-209.74"/>
<polygon fill="#63b8ff" stroke="#63b8ff" points="742.75,-210.77 742.76,-200.17 736.14,-208.45 742.75,-210.77"/>
</a>
</g>
</g>
<!-- Node16&#45;&gt;Node4 -->
<g id="edge22_Node000016_Node000004" class="edge">
<title>Node16&#45;&gt;Node4</title>
<g id="a_edge22_Node000016_Node000004"><a xlink:title=" ">
<path fill="none" stroke="#63b8ff" d="M679.09,-117.91C698.96,-108.99 727.6,-96.14 749.7,-86.22"/>
<polygon fill="#63b8ff" stroke="#63b8ff" points="751.35,-89.32 759.04,-82.03 748.48,-82.93 751.35,-89.32"/>
</a>
</g>
</g>
<!-- Node16&#45;&gt;Node5 -->
<g id="edge24_Node000016_Node000005" class="edge">
<title>Node16&#45;&gt;Node5</title>
<g id="a_edge24_Node000016_Node000005"><a xlink:title=" ">
<path fill="none" stroke="#63b8ff" d="M659.01,-117.79C665.31,-98.55 678.66,-57.79 686.78,-33.01"/>
<polygon fill="#63b8ff" stroke="#63b8ff" points="690.21,-33.77 690,-23.18 683.56,-31.59 690.21,-33.77"/>
</a>
</g>
</g>
<!-- Node16&#45;&gt;Node10 -->
<g id="edge21_Node000016_Node000010" class="edge">
<title>Node16&#45;&gt;Node10</title>
<g id="a_edge21_Node000016_Node000010"><a xlink:title=" ">
<path fill="none" stroke="#63b8ff" d="M641.58,-117.78C630.83,-109.5 615.75,-97.89 603.39,-88.36"/>
<polygon fill="#63b8ff" stroke="#63b8ff" points="605.41,-85.5 595.36,-82.17 601.14,-91.05 605.41,-85.5"/>
</a>
</g>
</g>
<!-- Node16&#45;&gt;Node14 -->
<g id="edge23_Node000016_Node000014" class="edge">
<title>Node16&#45;&gt;Node14</title>
<g id="a_edge23_Node000016_Node000014"><a xlink:title=" ">
<path fill="none" stroke="#63b8ff" d="M624.48,-117.91C596.85,-108.48 556.34,-94.65 526.72,-84.54"/>
<polygon fill="#63b8ff" stroke="#63b8ff" points="527.72,-81.19 517.12,-81.27 525.46,-87.81 527.72,-81.19"/>
</a>
</g>
</g>
<!-- Node17&#45;&gt;Node4 -->
<g id="edge32_Node000017_Node000004" class="edge">
<title>Node17&#45;&gt;Node4</title>
<g id="a_edge32_Node000017_Node000004"><a xlink:title=" ">
<path fill="none" stroke="#63b8ff" d="M749.18,-176.58C752.63,-162.83 758.96,-138.5 765.5,-118 768.29,-109.25 771.71,-99.7 774.76,-91.54"/>
<polygon fill="#63b8ff" stroke="#63b8ff" points="778.05,-92.72 778.33,-82.12 771.51,-90.23 778.05,-92.72"/>
</a>
</g>
</g>
<!-- Node17&#45;&gt;Node10 -->
<g id="edge33_Node000017_Node000010" class="edge">
<title>Node17&#45;&gt;Node10</title>
<g id="a_edge33_Node000017_Node000010"><a xlink:title=" ">
<path fill="none" stroke="#63b8ff" d="M681.16,-176.93C641.35,-169.02 595.83,-156.86 583.5,-141 572.89,-127.35 573.52,-107.22 576.15,-92.13"/>
<polygon fill="#63b8ff" stroke="#63b8ff" points="579.6,-92.71 578.27,-82.2 572.75,-91.25 579.6,-92.71"/>
</a>
</g>
</g>
<!-- Node17&#45;&gt;Node16 -->
<g id="edge31_Node000017_Node000016" class="edge">
<title>Node17&#45;&gt;Node16</title>
<g id="a_edge31_Node000017_Node000016"><a xlink:title=" ">
<path fill="none" stroke="#63b8ff" d="M729.38,-176.78C715.78,-168.26 696.55,-156.21 681.12,-146.55"/>
<polygon fill="#63b8ff" stroke="#63b8ff" points="682.87,-143.52 672.54,-141.17 679.16,-149.45 682.87,-143.52"/>
</a>
</g>
</g>
<!-- Node18 -->
<g id="Node000018" class="node">
<title>Node18</title>
<g id="a_Node000018"><a xlink:href="BaseGpio_8h.html" target="_top" xlink:title="Unified GPIO base class for all digital GPIO implementations.">
<polygon fill="white" stroke="#666666" points="862.5,-141 774.5,-141 774.5,-118 862.5,-118 862.5,-141"/>
<text text-anchor="middle" x="818.5" y="-125.8" font-family="Arial" font-size="14.00">BaseGpio.h</text>
</a>
</g>
</g>
<!-- Node17&#45;&gt;Node18 -->
<g id="edge26_Node000017_Node000018" class="edge">
<title>Node17&#45;&gt;Node18</title>
<g id="a_edge26_Node000017_Node000018"><a xlink:title=" ">
<path fill="none" stroke="#63b8ff" d="M760.04,-176.78C770.4,-168.58 784.89,-157.11 796.85,-147.64"/>
<polygon fill="#63b8ff" stroke="#63b8ff" points="799.35,-150.12 805.02,-141.17 795.01,-144.64 799.35,-150.12"/>
</a>
</g>
</g>
<!-- Node18&#45;&gt;Node4 -->
<g id="edge27_Node000018_Node000004" class="edge">
<title>Node18&#45;&gt;Node4</title>
<g id="a_edge27_Node000018_Node000004"><a xlink:title=" ">
<path fill="none" stroke="#63b8ff" d="M811.73,-117.78C806.95,-110.22 800.42,-99.87 794.74,-90.88"/>
<polygon fill="#63b8ff" stroke="#63b8ff" points="797.54,-88.76 789.24,-82.17 791.62,-92.5 797.54,-88.76"/>
</a>
</g>
</g>
<!-- Node18&#45;&gt;Node5 -->
<g id="edge28_Node000018_Node000005" class="edge">
<title>Node18&#45;&gt;Node5</title>
<g id="a_edge28_Node000018_Node000005"><a xlink:title=" ">
<path fill="none" stroke="#63b8ff" d="M774.41,-118.7C752.94,-111.8 728.39,-100.41 712.5,-82 700.91,-68.57 696.33,-48.69 694.55,-33.62"/>
<polygon fill="#63b8ff" stroke="#63b8ff" points="698,-32.9 693.66,-23.23 691.02,-33.49 698,-32.9"/>
</a>
</g>
</g>
<!-- Node18&#45;&gt;Node7 -->
<g id="edge29_Node000018_Node000007" class="edge">
<title>Node18&#45;&gt;Node7</title>
<g id="a_edge29_Node000018_Node000007"><a xlink:title=" ">
<path fill="none" stroke="#63b8ff" d="M833.55,-117.78C845.28,-109.42 861.78,-97.66 875.22,-88.09"/>
<polygon fill="#63b8ff" stroke="#63b8ff" points="877.41,-90.83 883.52,-82.17 873.34,-85.13 877.41,-90.83"/>
</a>
</g>
</g>
<!-- Node18&#45;&gt;Node8 -->
<g id="edge30_Node000018_Node000008" class="edge">
<title>Node18&#45;&gt;Node8</title>
<g id="a_edge30_Node000018_Node000008"><a xlink:title=" ">
<path fill="none" stroke="#63b8ff" d="M851.38,-117.91C880.06,-108.67 921.86,-95.21 953.07,-85.16"/>
<polygon fill="#63b8ff" stroke="#63b8ff" points="954.35,-88.43 962.8,-82.03 952.21,-81.76 954.35,-88.43"/>
</a>
</g>
</g>
</g>
</svg>
