<?xml version="1.0" encoding="UTF-8" standalone="no"?>
<!DOCTYPE svg PUBLIC "-//W3C//DTD SVG 1.1//EN"
 "http://www.w3.org/Graphics/SVG/1.1/DTD/svg11.dtd">
<!-- Generated by graphviz version 2.43.0 (0)
 -->
<!-- Title: inc/mcu/esp32/EspPwm.h Pages: 1 -->
<!--zoomable 326 -->

<svg id="main" version="1.1" xmlns="http://www.w3.org/2000/svg" xmlns:xlink="http://www.w3.org/1999/xlink" xml:space="preserve" onload="init(evt)">
<style type="text/css"><![CDATA[
.node, .edge {opacity: 0.7;}
.node.selected, .edge.selected {opacity: 1;}
.edge:hover path { stroke: red; }
.edge:hover polygon { stroke: red; fill: red; }
]]></style>

<defs>
  <circle id="rim" cx="0" cy="0" r="7"/>
  <circle id="rim2" cx="0" cy="0" r="3.5"/>
  <g id="zoomPlus">
    <use xlink:href="#rim" fill="#404040"><set attributeName="fill" to="#808080" begin="zoomplus.mouseover" end="zoomplus.mouseout"/></use>
    <path d="M-4,0h8M0,-4v8" fill="none" stroke="white" stroke-width="1.5" pointer-events="none"/>
  </g>
  <g id="zoomMin">
    <use xlink:href="#rim" fill="#404040"><set attributeName="fill" to="#808080" begin="zoomminus.mouseover" end="zoomminus.mouseout"/></use>
    <path d="M-4,0h8" fill="none" stroke="white" stroke-width="1.5" pointer-events="none"/>
  </g>
  <g id="arrowUp" transform="translate(30 24)">
    <use xlink:href="#rim"/>
    <path pointer-events="none" fill="none" stroke="white" stroke-width="1.5" d="M0,-3.0v7 M-2.5,-0.5L0,-3.0L2.5,-0.5"/>
  </g>
  <g id="arrowRight" transform="rotate(90) translate(36 -43)">
    <use xlink:href="#rim"/>
    <path pointer-events="none" fill="none" stroke="white" stroke-width="1.5" d="M0,-3.0v7 M-2.5,-0.5L0,-3.0L2.5,-0.5"/>
  </g>
  <g id="arrowDown" transform="rotate(180) translate(-30 -48)">
    <use xlink:href="#rim"/>
    <path pointer-events="none" fill="none" stroke="white" stroke-width="1.5" d="M0,-3.0v7 M-2.5,-0.5L0,-3.0L2.5,-0.5"/>
  </g>
  <g id="arrowLeft" transform="rotate(270) translate(-36 17)">
    <use xlink:href="#rim"/>
    <path pointer-events="none" fill="none" stroke="white" stroke-width="1.5" d="M0,-3.0v7 M-2.5,-0.5L0,-3.0L2.5,-0.5"/>
  </g>
  <g id="resetDef">
    <use xlink:href="#rim2" fill="#404040"><set attributeName="fill" to="#808080" begin="reset.mouseover" end="reset.mouseout"/></use>
  </g>
</defs>
<script type="application/ecmascript">
var viewWidth = 980;
var viewHeight = 326;
var sectionId = 'dynsection-0';
</script>
<script type="application/ecmascript" xlink:href="svg.min.js"/>
<svg id="graph" class="graph">
<g id="viewport">
<title>inc/mcu/esp32/EspPwm.h</title>
<!-- Node1 -->
<g id="Node000001" class="node">
<title>Node1</title>
<g id="a_Node000001"><a xlink:title="ESP32C6 LEDC (PWM) controller implementation for the HardFOC system.">
<polygon fill="#999999" stroke="#666666" points="644,-318 471,-318 471,-295 644,-295 644,-318"/>
<text text-anchor="middle" x="557.5" y="-302.8" font-family="Arial" font-size="14.00">inc/mcu/esp32/EspPwm.h</text>
</a>
</g>
</g>
<!-- Node2 -->
<g id="Node000002" class="node">
<title>Node2</title>
<g id="a_Node000002"><a xlink:href="BasePwm_8h.html" target="_top" xlink:title="Abstract base class for PWM implementations in the HardFOC system.">
<polygon fill="white" stroke="#666666" points="89,-141 0,-141 0,-118 89,-118 89,-141"/>
<text text-anchor="middle" x="44.5" y="-125.8" font-family="Arial" font-size="14.00">BasePwm.h</text>
</a>
</g>
</g>
<!-- Node1&#45;&gt;Node2 -->
<g id="edge1_Node000001_Node000002" class="edge">
<title>Node1&#45;&gt;Node2</title>
<g id="a_edge1_Node000001_Node000002"><a xlink:title=" ">
<path fill="none" stroke="#63b8ff" d="M470.68,-301.37C397.88,-296.2 291.82,-284.65 202.5,-259 141.9,-241.6 117.32,-245.32 73.5,-200 60.48,-186.54 52.95,-166.38 48.85,-151.24"/>
<polygon fill="#63b8ff" stroke="#63b8ff" points="52.19,-150.16 46.43,-141.26 45.38,-151.81 52.19,-150.16"/>
</a>
</g>
</g>
<!-- Node7 -->
<g id="Node000007" class="node">
<title>Node7</title>
<g id="a_Node000007"><a xlink:href="RtosMutex_8h.html" target="_top" xlink:title="Cross&#45;platform RTOS mutex and synchronization primitives.">
<polygon fill="white" stroke="#666666" points="641,-141 548,-141 548,-118 641,-118 641,-141"/>
<text text-anchor="middle" x="594.5" y="-125.8" font-family="Arial" font-size="14.00">RtosMutex.h</text>
</a>
</g>
</g>
<!-- Node1&#45;&gt;Node7 -->
<g id="edge7_Node000001_Node000007" class="edge">
<title>Node1&#45;&gt;Node7</title>
<g id="a_edge7_Node000001_Node000007"><a xlink:title=" ">
<path fill="none" stroke="#63b8ff" d="M559.76,-294.82C565.76,-266.44 582.18,-188.78 590.1,-151.29"/>
<polygon fill="#63b8ff" stroke="#63b8ff" points="593.63,-151.55 592.27,-141.04 586.78,-150.1 593.63,-151.55"/>
</a>
</g>
</g>
<!-- Node12 -->
<g id="Node000012" class="node">
<title>Node12</title>
<g id="a_Node000012"><a xlink:title=" ">
<polygon fill="#e0e0e0" stroke="#999999" points="512,-82 455,-82 455,-59 512,-59 512,-82"/>
<text text-anchor="middle" x="483.5" y="-66.8" font-family="Arial" font-size="14.00">atomic</text>
</a>
</g>
</g>
<!-- Node1&#45;&gt;Node12 -->
<g id="edge32_Node000001_Node000012" class="edge">
<title>Node1&#45;&gt;Node12</title>
<g id="a_edge32_Node000001_Node000012"><a xlink:title=" ">
<path fill="none" stroke="#63b8ff" d="M554.35,-294.89C545.81,-266.26 521.4,-185.05 499.5,-118 496.67,-109.33 493.41,-99.79 490.58,-91.62"/>
<polygon fill="#63b8ff" stroke="#63b8ff" points="493.88,-90.47 487.28,-82.18 487.27,-92.77 493.88,-90.47"/>
</a>
</g>
</g>
<!-- Node13 -->
<g id="Node000013" class="node">
<title>Node13</title>
<g id="a_Node000013"><a xlink:href="EspTypes__PWM_8h.html" target="_top" xlink:title="ESP32 PWM type definitions for LEDC peripheral hardware abstraction.">
<polygon fill="white" stroke="#666666" points="369,-259 212,-259 212,-236 369,-236 369,-259"/>
<text text-anchor="middle" x="290.5" y="-243.8" font-family="Arial" font-size="14.00">utils/EspTypes_PWM.h</text>
</a>
</g>
</g>
<!-- Node1&#45;&gt;Node13 -->
<g id="edge14_Node000001_Node000013" class="edge">
<title>Node1&#45;&gt;Node13</title>
<g id="a_edge14_Node000001_Node000013"><a xlink:title=" ">
<path fill="none" stroke="#63b8ff" d="M508.22,-294.98C463.48,-285.43 397.42,-271.33 349.81,-261.16"/>
<polygon fill="#63b8ff" stroke="#63b8ff" points="350.46,-257.72 339.95,-259.06 349,-264.57 350.46,-257.72"/>
</a>
</g>
</g>
<!-- Node17 -->
<g id="Node000017" class="node">
<title>Node17</title>
<g id="a_Node000017"><a xlink:title=" ">
<polygon fill="#e0e0e0" stroke="#999999" points="633,-259 586,-259 586,-236 633,-236 633,-259"/>
<text text-anchor="middle" x="609.5" y="-243.8" font-family="Arial" font-size="14.00">array</text>
</a>
</g>
</g>
<!-- Node1&#45;&gt;Node17 -->
<g id="edge31_Node000001_Node000017" class="edge">
<title>Node1&#45;&gt;Node17</title>
<g id="a_edge31_Node000001_Node000017"><a xlink:title=" ">
<path fill="none" stroke="#63b8ff" d="M567.28,-294.78C574.47,-286.9 584.42,-275.99 592.85,-266.75"/>
<polygon fill="#63b8ff" stroke="#63b8ff" points="595.61,-268.92 599.76,-259.17 590.44,-264.2 595.61,-268.92"/>
</a>
</g>
</g>
<!-- Node18 -->
<g id="Node000018" class="node">
<title>Node18</title>
<g id="a_Node000018"><a xlink:title=" ">
<polygon fill="#e0e0e0" stroke="#999999" points="701.5,-259 651.5,-259 651.5,-236 701.5,-236 701.5,-259"/>
<text text-anchor="middle" x="676.5" y="-243.8" font-family="Arial" font-size="14.00">string</text>
</a>
</g>
</g>
<!-- Node1&#45;&gt;Node18 -->
<g id="edge33_Node000001_Node000018" class="edge">
<title>Node1&#45;&gt;Node18</title>
<g id="a_edge33_Node000001_Node000018"><a xlink:title=" ">
<path fill="none" stroke="#63b8ff" d="M579.6,-294.91C598.14,-286.03 624.82,-273.26 645.49,-263.35"/>
<polygon fill="#63b8ff" stroke="#63b8ff" points="647.01,-266.51 654.51,-259.03 643.98,-260.19 647.01,-266.51"/>
</a>
</g>
</g>
<!-- Node19 -->
<g id="Node000019" class="node">
<title>Node19</title>
<g id="a_Node000019"><a xlink:title=" ">
<polygon fill="#e0e0e0" stroke="#999999" points="809.5,-259 719.5,-259 719.5,-236 809.5,-236 809.5,-259"/>
<text text-anchor="middle" x="764.5" y="-243.8" font-family="Arial" font-size="14.00">driver/ledc.h</text>
</a>
</g>
</g>
<!-- Node1&#45;&gt;Node19 -->
<g id="edge34_Node000001_Node000019" class="edge">
<title>Node1&#45;&gt;Node19</title>
<g id="a_edge34_Node000001_Node000019"><a xlink:title=" ">
<path fill="none" stroke="#63b8ff" d="M595.95,-294.91C629.94,-285.55 679.66,-271.86 716.29,-261.77"/>
<polygon fill="#63b8ff" stroke="#63b8ff" points="717.54,-265.06 726.26,-259.03 715.69,-258.31 717.54,-265.06"/>
</a>
</g>
</g>
<!-- Node3 -->
<g id="Node000003" class="node">
<title>Node3</title>
<g id="a_Node000003"><a xlink:href="HardwareTypes_8h.html" target="_top" xlink:title="Platform&#45;agnostic hardware type definitions for the HardFOC system.">
<polygon fill="white" stroke="#666666" points="250.5,-82 128.5,-82 128.5,-59 250.5,-59 250.5,-82"/>
<text text-anchor="middle" x="189.5" y="-66.8" font-family="Arial" font-size="14.00">HardwareTypes.h</text>
</a>
</g>
</g>
<!-- Node2&#45;&gt;Node3 -->
<g id="edge2_Node000002_Node000003" class="edge">
<title>Node2&#45;&gt;Node3</title>
<g id="a_edge2_Node000002_Node000003"><a xlink:title=" ">
<path fill="none" stroke="#63b8ff" d="M71.43,-117.91C94.43,-108.87 127.7,-95.79 153.07,-85.82"/>
<polygon fill="#63b8ff" stroke="#63b8ff" points="154.68,-88.95 162.71,-82.03 152.12,-82.43 154.68,-88.95"/>
</a>
</g>
</g>
<!-- Node4 -->
<g id="Node000004" class="node">
<title>Node4</title>
<g id="a_Node000004"><a xlink:title=" ">
<polygon fill="#e0e0e0" stroke="#999999" points="306.5,-23 250.5,-23 250.5,0 306.5,0 306.5,-23"/>
<text text-anchor="middle" x="278.5" y="-7.8" font-family="Arial" font-size="14.00">cstdint</text>
</a>
</g>
</g>
<!-- Node2&#45;&gt;Node4 -->
<g id="edge5_Node000002_Node000004" class="edge">
<title>Node2&#45;&gt;Node4</title>
<g id="a_edge5_Node000002_Node000004"><a xlink:title=" ">
<path fill="none" stroke="#63b8ff" d="M34.38,-117.99C21.52,-103.35 2.68,-76.65 17.5,-59 47.24,-23.58 176.99,-31.26 222.5,-23 228.3,-21.95 234.43,-20.82 240.43,-19.7"/>
<polygon fill="#63b8ff" stroke="#63b8ff" points="241.12,-23.13 250.31,-17.85 239.84,-16.25 241.12,-23.13"/>
</a>
</g>
</g>
<!-- Node6 -->
<g id="Node000006" class="node">
<title>Node6</title>
<g id="a_Node000006"><a xlink:title=" ">
<polygon fill="#e0e0e0" stroke="#999999" points="110.5,-82 26.5,-82 26.5,-59 110.5,-59 110.5,-82"/>
<text text-anchor="middle" x="68.5" y="-66.8" font-family="Arial" font-size="14.00">string_view</text>
</a>
</g>
</g>
<!-- Node2&#45;&gt;Node6 -->
<g id="edge6_Node000002_Node000006" class="edge">
<title>Node2&#45;&gt;Node6</title>
<g id="a_edge6_Node000002_Node000006"><a xlink:title=" ">
<path fill="none" stroke="#63b8ff" d="M49.01,-117.78C52.13,-110.37 56.37,-100.3 60.1,-91.45"/>
<polygon fill="#63b8ff" stroke="#63b8ff" points="63.35,-92.75 64.01,-82.17 56.9,-90.03 63.35,-92.75"/>
</a>
</g>
</g>
<!-- Node3&#45;&gt;Node4 -->
<g id="edge3_Node000003_Node000004" class="edge">
<title>Node3&#45;&gt;Node4</title>
<g id="a_edge3_Node000003_Node000004"><a xlink:title=" ">
<path fill="none" stroke="#63b8ff" d="M206.24,-58.78C219.42,-50.34 238,-38.44 253.02,-28.82"/>
<polygon fill="#63b8ff" stroke="#63b8ff" points="255.3,-31.51 261.83,-23.17 251.53,-25.62 255.3,-31.51"/>
</a>
</g>
</g>
<!-- Node5 -->
<g id="Node000005" class="node">
<title>Node5</title>
<g id="a_Node000005"><a xlink:title=" ">
<polygon fill="#e0e0e0" stroke="#999999" points="213.5,-23 165.5,-23 165.5,0 213.5,0 213.5,-23"/>
<text text-anchor="middle" x="189.5" y="-7.8" font-family="Arial" font-size="14.00">limits</text>
</a>
</g>
</g>
<!-- Node3&#45;&gt;Node5 -->
<g id="edge4_Node000003_Node000005" class="edge">
<title>Node3&#45;&gt;Node5</title>
<g id="a_edge4_Node000003_Node000005"><a xlink:title=" ">
<path fill="none" stroke="#63b8ff" d="M189.5,-58.78C189.5,-51.61 189.5,-41.95 189.5,-33.31"/>
<polygon fill="#63b8ff" stroke="#63b8ff" points="193,-33.17 189.5,-23.17 186,-33.17 193,-33.17"/>
</a>
</g>
</g>
<!-- Node7&#45;&gt;Node4 -->
<g id="edge13_Node000007_Node000004" class="edge">
<title>Node7&#45;&gt;Node4</title>
<g id="a_edge13_Node000007_Node000004"><a xlink:title=" ">
<path fill="none" stroke="#63b8ff" d="M586.48,-117.83C574.14,-102.24 548.91,-73.5 520.5,-59 454.29,-25.21 366.48,-15.86 316.89,-13.35"/>
<polygon fill="#63b8ff" stroke="#63b8ff" points="316.75,-9.84 306.61,-12.9 316.45,-16.83 316.75,-9.84"/>
</a>
</g>
</g>
<!-- Node8 -->
<g id="Node000008" class="node">
<title>Node8</title>
<g id="a_Node000008"><a xlink:href="McuSelect_8h.html" target="_top" xlink:title="Centralized MCU platform selection and configuration header.">
<polygon fill="white" stroke="#666666" points="398.5,-82 306.5,-82 306.5,-59 398.5,-59 398.5,-82"/>
<text text-anchor="middle" x="352.5" y="-66.8" font-family="Arial" font-size="14.00">McuSelect.h</text>
</a>
</g>
</g>
<!-- Node7&#45;&gt;Node8 -->
<g id="edge8_Node000007_Node000008" class="edge">
<title>Node7&#45;&gt;Node8</title>
<g id="a_edge8_Node000007_Node000008"><a xlink:title=" ">
<path fill="none" stroke="#63b8ff" d="M549.83,-117.98C509.54,-108.49 450.16,-94.5 407.07,-84.35"/>
<polygon fill="#63b8ff" stroke="#63b8ff" points="407.85,-80.94 397.32,-82.06 406.25,-87.76 407.85,-80.94"/>
</a>
</g>
</g>
<!-- Node9 -->
<g id="Node000009" class="node">
<title>Node9</title>
<g id="a_Node000009"><a xlink:title=" ">
<polygon fill="#e0e0e0" stroke="#999999" points="972,-82 829,-82 829,-59 972,-59 972,-82"/>
<text text-anchor="middle" x="900.5" y="-66.8" font-family="Arial" font-size="14.00">freertos/FreeRTOS.h</text>
</a>
</g>
</g>
<!-- Node7&#45;&gt;Node9 -->
<g id="edge9_Node000007_Node000009" class="edge">
<title>Node7&#45;&gt;Node9</title>
<g id="a_edge9_Node000007_Node000009"><a xlink:title=" ">
<path fill="none" stroke="#63b8ff" d="M641.31,-119.78C692.82,-110.18 776.03,-94.69 834.24,-83.84"/>
<polygon fill="#63b8ff" stroke="#63b8ff" points="834.88,-87.28 844.07,-82.01 833.6,-80.4 834.88,-87.28"/>
</a>
</g>
</g>
<!-- Node10 -->
<g id="Node000010" class="node">
<title>Node10</title>
<g id="a_Node000010"><a xlink:title=" ">
<polygon fill="#e0e0e0" stroke="#999999" points="690.5,-82 568.5,-82 568.5,-59 690.5,-59 690.5,-82"/>
<text text-anchor="middle" x="629.5" y="-66.8" font-family="Arial" font-size="14.00">freertos/semphr.h</text>
</a>
</g>
</g>
<!-- Node7&#45;&gt;Node10 -->
<g id="edge10_Node000007_Node000010" class="edge">
<title>Node7&#45;&gt;Node10</title>
<g id="a_edge10_Node000007_Node000010"><a xlink:title=" ">
<path fill="none" stroke="#63b8ff" d="M601.08,-117.78C605.73,-110.22 612.08,-99.87 617.6,-90.88"/>
<polygon fill="#63b8ff" stroke="#63b8ff" points="620.7,-92.53 622.95,-82.17 614.73,-88.86 620.7,-92.53"/>
</a>
</g>
</g>
<!-- Node11 -->
<g id="Node000011" class="node">
<title>Node11</title>
<g id="a_Node000011"><a xlink:title=" ">
<polygon fill="#e0e0e0" stroke="#999999" points="810.5,-82 708.5,-82 708.5,-59 810.5,-59 810.5,-82"/>
<text text-anchor="middle" x="759.5" y="-66.8" font-family="Arial" font-size="14.00">freertos/task.h</text>
</a>
</g>
</g>
<!-- Node7&#45;&gt;Node11 -->
<g id="edge11_Node000007_Node000011" class="edge">
<title>Node7&#45;&gt;Node11</title>
<g id="a_edge11_Node000007_Node000011"><a xlink:title=" ">
<path fill="none" stroke="#63b8ff" d="M625.15,-117.91C651.66,-108.75 690.18,-95.45 719.19,-85.43"/>
<polygon fill="#63b8ff" stroke="#63b8ff" points="720.71,-88.6 729.02,-82.03 718.42,-81.99 720.71,-88.6"/>
</a>
</g>
</g>
<!-- Node7&#45;&gt;Node12 -->
<g id="edge12_Node000007_Node000012" class="edge">
<title>Node7&#45;&gt;Node12</title>
<g id="a_edge12_Node000007_Node000012"><a xlink:title=" ">
<path fill="none" stroke="#63b8ff" d="M573.88,-117.91C556.75,-109.11 532.16,-96.49 512.95,-86.62"/>
<polygon fill="#63b8ff" stroke="#63b8ff" points="514.5,-83.49 504.01,-82.03 511.3,-89.71 514.5,-83.49"/>
</a>
</g>
</g>
<!-- Node13&#45;&gt;Node2 -->
<g id="edge15_Node000013_Node000002" class="edge">
<title>Node13&#45;&gt;Node2</title>
<g id="a_edge15_Node000013_Node000002"><a xlink:title=" ">
<path fill="none" stroke="#63b8ff" d="M211.63,-238.01C176.53,-231.53 135.91,-220.11 103.5,-200 83.15,-187.37 66.25,-165.4 55.82,-149.53"/>
<polygon fill="#63b8ff" stroke="#63b8ff" points="58.75,-147.61 50.46,-141.01 52.82,-151.34 58.75,-147.61"/>
</a>
</g>
</g>
<!-- Node13&#45;&gt;Node3 -->
<g id="edge16_Node000013_Node000003" class="edge">
<title>Node13&#45;&gt;Node3</title>
<g id="a_edge16_Node000013_Node000003"><a xlink:title=" ">
<path fill="none" stroke="#63b8ff" d="M242.41,-235.94C218.72,-228.86 190.94,-217.53 170.5,-200 140.55,-174.32 120.22,-153.94 136.5,-118 141.98,-105.89 152.35,-95.69 162.48,-87.95"/>
<polygon fill="#63b8ff" stroke="#63b8ff" points="164.67,-90.69 170.81,-82.05 160.62,-84.97 164.67,-90.69"/>
</a>
</g>
</g>
<!-- Node13&#45;&gt;Node8 -->
<g id="edge17_Node000013_Node000008" class="edge">
<title>Node13&#45;&gt;Node8</title>
<g id="a_edge17_Node000013_Node000008"><a xlink:title=" ">
<path fill="none" stroke="#63b8ff" d="M298.09,-235.88C304.32,-226.74 312.99,-213.02 318.5,-200 333.93,-163.53 343.95,-118.21 348.88,-92.3"/>
<polygon fill="#63b8ff" stroke="#63b8ff" points="352.38,-92.63 350.74,-82.16 345.5,-91.37 352.38,-92.63"/>
</a>
</g>
</g>
<!-- Node14 -->
<g id="Node000014" class="node">
<title>Node14</title>
<g id="a_Node000014"><a xlink:href="EspTypes__Base_8h.html" target="_top" xlink:title="ESP32 base type definitions for hardware abstraction.">
<polygon fill="white" stroke="#666666" points="491,-141 366,-141 366,-118 491,-118 491,-141"/>
<text text-anchor="middle" x="428.5" y="-125.8" font-family="Arial" font-size="14.00">EspTypes_Base.h</text>
</a>
</g>
</g>
<!-- Node13&#45;&gt;Node14 -->
<g id="edge18_Node000013_Node000014" class="edge">
<title>Node13&#45;&gt;Node14</title>
<g id="a_edge18_Node000013_Node000014"><a xlink:title=" ">
<path fill="none" stroke="#63b8ff" d="M305.06,-235.93C317.59,-226.71 336.03,-212.84 351.5,-200 372.03,-182.96 394.59,-162.36 409.95,-148.03"/>
<polygon fill="#63b8ff" stroke="#63b8ff" points="412.38,-150.56 417.28,-141.16 407.59,-145.45 412.38,-150.56"/>
</a>
</g>
</g>
<!-- Node15 -->
<g id="Node000015" class="node">
<title>Node15</title>
<g id="a_Node000015"><a xlink:href="EspTypes__GPIO_8h.html" target="_top" xlink:title="ESP32 GPIO type definitions for hardware abstraction.">
<polygon fill="white" stroke="#666666" points="309.5,-200 179.5,-200 179.5,-177 309.5,-177 309.5,-200"/>
<text text-anchor="middle" x="244.5" y="-184.8" font-family="Arial" font-size="14.00">EspTypes_GPIO.h</text>
</a>
</g>
</g>
<!-- Node13&#45;&gt;Node15 -->
<g id="edge23_Node000013_Node000015" class="edge">
<title>Node13&#45;&gt;Node15</title>
<g id="a_edge23_Node000013_Node000015"><a xlink:title=" ">
<path fill="none" stroke="#63b8ff" d="M281.85,-235.78C275.55,-227.98 266.87,-217.21 259.46,-208.03"/>
<polygon fill="#63b8ff" stroke="#63b8ff" points="262.12,-205.76 253.11,-200.17 256.67,-210.15 262.12,-205.76"/>
</a>
</g>
</g>
<!-- Node14&#45;&gt;Node3 -->
<g id="edge20_Node000014_Node000003" class="edge">
<title>Node14&#45;&gt;Node3</title>
<g id="a_edge20_Node000014_Node000003"><a xlink:title=" ">
<path fill="none" stroke="#63b8ff" d="M384.39,-117.98C344.68,-108.51 286.2,-94.56 243.67,-84.42"/>
<polygon fill="#63b8ff" stroke="#63b8ff" points="244.3,-80.97 233.76,-82.06 242.68,-87.78 244.3,-80.97"/>
</a>
</g>
</g>
<!-- Node14&#45;&gt;Node4 -->
<g id="edge22_Node000014_Node000004" class="edge">
<title>Node14&#45;&gt;Node4</title>
<g id="a_edge22_Node000014_Node000004"><a xlink:title=" ">
<path fill="none" stroke="#63b8ff" d="M428.16,-117.86C427.11,-102.83 423.03,-75.37 407.5,-59 383.71,-33.93 345.42,-22.34 316.72,-17"/>
<polygon fill="#63b8ff" stroke="#63b8ff" points="317.07,-13.51 306.63,-15.31 315.91,-20.42 317.07,-13.51"/>
</a>
</g>
</g>
<!-- Node14&#45;&gt;Node8 -->
<g id="edge19_Node000014_Node000008" class="edge">
<title>Node14&#45;&gt;Node8</title>
<g id="a_edge19_Node000014_Node000008"><a xlink:title=" ">
<path fill="none" stroke="#63b8ff" d="M414.2,-117.78C403.17,-109.5 387.68,-97.89 374.99,-88.36"/>
<polygon fill="#63b8ff" stroke="#63b8ff" points="376.83,-85.37 366.73,-82.17 372.63,-90.97 376.83,-85.37"/>
</a>
</g>
</g>
<!-- Node14&#45;&gt;Node12 -->
<g id="edge21_Node000014_Node000012" class="edge">
<title>Node14&#45;&gt;Node12</title>
<g id="a_edge21_Node000014_Node000012"><a xlink:title=" ">
<path fill="none" stroke="#63b8ff" d="M438.85,-117.78C446.53,-109.82 457.18,-98.77 466.16,-89.47"/>
<polygon fill="#63b8ff" stroke="#63b8ff" points="468.78,-91.8 473.2,-82.17 463.74,-86.94 468.78,-91.8"/>
</a>
</g>
</g>
<!-- Node15&#45;&gt;Node3 -->
<g id="edge29_Node000015_Node000003" class="edge">
<title>Node15&#45;&gt;Node3</title>
<g id="a_edge29_Node000015_Node000003"><a xlink:title=" ">
<path fill="none" stroke="#63b8ff" d="M246.77,-176.53C249.15,-162.28 251.44,-137.01 242.5,-118 236.84,-105.97 226.45,-95.78 216.35,-88.03"/>
<polygon fill="#63b8ff" stroke="#63b8ff" points="218.23,-85.07 208.05,-82.11 214.16,-90.77 218.23,-85.07"/>
</a>
</g>
</g>
<!-- Node15&#45;&gt;Node8 -->
<g id="edge30_Node000015_Node000008" class="edge">
<title>Node15&#45;&gt;Node8</title>
<g id="a_edge30_Node000015_Node000008"><a xlink:title=" ">
<path fill="none" stroke="#63b8ff" d="M254.47,-176.79C272.95,-156.94 312.74,-114.21 335.53,-89.72"/>
<polygon fill="#63b8ff" stroke="#63b8ff" points="338.3,-91.88 342.56,-82.18 333.18,-87.11 338.3,-91.88"/>
</a>
</g>
</g>
<!-- Node15&#45;&gt;Node14 -->
<g id="edge28_Node000015_Node000014" class="edge">
<title>Node15&#45;&gt;Node14</title>
<g id="a_edge28_Node000015_Node000014"><a xlink:title=" ">
<path fill="none" stroke="#63b8ff" d="M278.68,-176.91C308.63,-167.63 352.33,-154.1 384.81,-144.03"/>
<polygon fill="#63b8ff" stroke="#63b8ff" points="385.99,-147.33 394.51,-141.03 383.92,-140.65 385.99,-147.33"/>
</a>
</g>
</g>
<!-- Node16 -->
<g id="Node000016" class="node">
<title>Node16</title>
<g id="a_Node000016"><a xlink:href="BaseGpio_8h.html" target="_top" xlink:title="Unified GPIO base class for all digital GPIO implementations.">
<polygon fill="white" stroke="#666666" points="233.5,-141 145.5,-141 145.5,-118 233.5,-118 233.5,-141"/>
<text text-anchor="middle" x="189.5" y="-125.8" font-family="Arial" font-size="14.00">BaseGpio.h</text>
</a>
</g>
</g>
<!-- Node15&#45;&gt;Node16 -->
<g id="edge24_Node000015_Node000016" class="edge">
<title>Node15&#45;&gt;Node16</title>
<g id="a_edge24_Node000015_Node000016"><a xlink:title=" ">
<path fill="none" stroke="#63b8ff" d="M234.15,-176.78C226.47,-168.82 215.82,-157.77 206.84,-148.47"/>
<polygon fill="#63b8ff" stroke="#63b8ff" points="209.26,-145.94 199.8,-141.17 204.22,-150.8 209.26,-145.94"/>
</a>
</g>
</g>
<!-- Node16&#45;&gt;Node3 -->
<g id="edge25_Node000016_Node000003" class="edge">
<title>Node16&#45;&gt;Node3</title>
<g id="a_edge25_Node000016_Node000003"><a xlink:title=" ">
<path fill="none" stroke="#63b8ff" d="M189.5,-117.78C189.5,-110.61 189.5,-100.95 189.5,-92.31"/>
<polygon fill="#63b8ff" stroke="#63b8ff" points="193,-92.17 189.5,-82.17 186,-92.17 193,-92.17"/>
</a>
</g>
</g>
<!-- Node16&#45;&gt;Node4 -->
<g id="edge26_Node000016_Node000004" class="edge">
<title>Node16&#45;&gt;Node4</title>
<g id="a_edge26_Node000016_Node000004"><a xlink:title=" ">
<path fill="none" stroke="#63b8ff" d="M213.9,-117.86C229.13,-110.02 247.97,-97.97 259.5,-82 269.77,-67.78 274.49,-48.28 276.66,-33.56"/>
<polygon fill="#63b8ff" stroke="#63b8ff" points="280.16,-33.73 277.87,-23.39 273.21,-32.91 280.16,-33.73"/>
</a>
</g>
</g>
<!-- Node16&#45;&gt;Node6 -->
<g id="edge27_Node000016_Node000006" class="edge">
<title>Node16&#45;&gt;Node6</title>
<g id="a_edge27_Node000016_Node000006"><a xlink:title=" ">
<path fill="none" stroke="#63b8ff" d="M167.02,-117.91C148.18,-109.03 121.05,-96.26 100.03,-86.35"/>
<polygon fill="#63b8ff" stroke="#63b8ff" points="101.39,-83.13 90.86,-82.03 98.41,-89.46 101.39,-83.13"/>
</a>
</g>
</g>
</g>
</svg>

<g id="navigator" transform="translate(0 0)" fill="#404254">
  <rect fill="#f2f5e9" fill-opacity="0.5" stroke="#606060" stroke-width=".5" x="0" y="0" width="60" height="60"/>
  <use id="zoomplus" xlink:href="#zoomPlus" x="17" y="9" onmousedown="handleZoom(evt,'in')"/>
  <use id="zoomminus" xlink:href="#zoomMin" x="42" y="9" onmousedown="handleZoom(evt,'out')"/>
  <use id="reset" xlink:href="#resetDef" x="30" y="36" onmousedown="handleReset()"/>
   <use id="arrowup" xlink:href="#arrowUp" x="0" y="0" onmousedown="handlePan(0,-1)"/>
  <use id="arrowright" xlink:href="#arrowRight" x="0" y="0" onmousedown="handlePan(1,0)"/>
  <use id="arrowdown" xlink:href="#arrowDown" x="0" y="0" onmousedown="handlePan(0,1)"/>
  <use id="arrowleft" xlink:href="#arrowLeft" x="0" y="0" onmousedown="handlePan(-1,0)"/>
</g>
<svg viewBox="0 0 15 15" width="100%" height="30px" preserveAspectRatio="xMaxYMin meet">
 <g id="arrow_out" transform="scale(0.3 0.3)">
  <a xlink:href="EspPwm_8h__incl_org.svg" target="_base">
   <rect id="button" ry="5" rx="5" y="6" x="6" height="38" width="38"
        fill="#f2f5e9" fill-opacity="0.5" stroke="#606060" stroke-width="1.0"/>
   <path id="arrow"
     d="M 11.500037,31.436501 C 11.940474,20.09759 22.043105,11.32322 32.158766,21.979434 L 37.068811,17.246167 C 37.068811,17.246167 37.088388,32 37.088388,32 L 22.160133,31.978069 C 22.160133,31.978069 26.997745,27.140456 26.997745,27.140456 C 18.528582,18.264221 13.291696,25.230495 11.500037,31.436501 z"
     style="fill:#404040;"/>
  </a>
 </g>
</svg>

<style type='text/css'>
<![CDATA[
[data-mouse-over-selected='false'] { opacity: 0.7; }
[data-mouse-over-selected='true']  { opacity: 1.0; }
]]>
</style>
<script type="application/ecmascript"><![CDATA[
document.addEventListener('DOMContentLoaded', (event) => {
  highlightEdges();
  highlightAdjacentNodes();
});
]]></script>
</svg>
