<?xml version="1.0" encoding="UTF-8" standalone="no"?>
<!DOCTYPE svg PUBLIC "-//W3C//DTD SVG 1.1//EN"
 "http://www.w3.org/Graphics/SVG/1.1/DTD/svg11.dtd">
<!-- Generated by graphviz version 2.43.0 (0)
 -->
<!-- Title: inc/mcu/esp32/EspPwm.h Pages: 1 -->
<!--zoomable 326 -->

<svg id="main" version="1.1" xmlns="http://www.w3.org/2000/svg" xmlns:xlink="http://www.w3.org/1999/xlink" xml:space="preserve" onload="init(evt)">
<style type="text/css"><![CDATA[
.node, .edge {opacity: 0.7;}
.node.selected, .edge.selected {opacity: 1;}
.edge:hover path { stroke: red; }
.edge:hover polygon { stroke: red; fill: red; }
]]></style>

<defs>
  <circle id="rim" cx="0" cy="0" r="7"/>
  <circle id="rim2" cx="0" cy="0" r="3.5"/>
  <g id="zoomPlus">
    <use xlink:href="#rim" fill="#404040"><set attributeName="fill" to="#808080" begin="zoomplus.mouseover" end="zoomplus.mouseout"/></use>
    <path d="M-4,0h8M0,-4v8" fill="none" stroke="white" stroke-width="1.5" pointer-events="none"/>
  </g>
  <g id="zoomMin">
    <use xlink:href="#rim" fill="#404040"><set attributeName="fill" to="#808080" begin="zoomminus.mouseover" end="zoomminus.mouseout"/></use>
    <path d="M-4,0h8" fill="none" stroke="white" stroke-width="1.5" pointer-events="none"/>
  </g>
  <g id="arrowUp" transform="translate(30 24)">
    <use xlink:href="#rim"/>
    <path pointer-events="none" fill="none" stroke="white" stroke-width="1.5" d="M0,-3.0v7 M-2.5,-0.5L0,-3.0L2.5,-0.5"/>
  </g>
  <g id="arrowRight" transform="rotate(90) translate(36 -43)">
    <use xlink:href="#rim"/>
    <path pointer-events="none" fill="none" stroke="white" stroke-width="1.5" d="M0,-3.0v7 M-2.5,-0.5L0,-3.0L2.5,-0.5"/>
  </g>
  <g id="arrowDown" transform="rotate(180) translate(-30 -48)">
    <use xlink:href="#rim"/>
    <path pointer-events="none" fill="none" stroke="white" stroke-width="1.5" d="M0,-3.0v7 M-2.5,-0.5L0,-3.0L2.5,-0.5"/>
  </g>
  <g id="arrowLeft" transform="rotate(270) translate(-36 17)">
    <use xlink:href="#rim"/>
    <path pointer-events="none" fill="none" stroke="white" stroke-width="1.5" d="M0,-3.0v7 M-2.5,-0.5L0,-3.0L2.5,-0.5"/>
  </g>
  <g id="resetDef">
    <use xlink:href="#rim2" fill="#404040"><set attributeName="fill" to="#808080" begin="reset.mouseover" end="reset.mouseout"/></use>
  </g>
</defs>
<script type="application/ecmascript">
var viewWidth = 806;
var viewHeight = 326;
var sectionId = 'dynsection-0';
</script>
<script type="application/ecmascript" xlink:href="svg.min.js"/>
<svg id="graph" class="graph">
<g id="viewport">
<title>inc/mcu/esp32/EspPwm.h</title>
<!-- Node1 -->
<g id="Node000001" class="node">
<title>Node1</title>
<g id="a_Node000001"><a xlink:title="ESP32C6 LEDC (PWM) controller implementation for the HardFOC system.">
<polygon fill="#999999" stroke="#666666" points="718,-318 545,-318 545,-295 718,-295 718,-318"/>
<text text-anchor="middle" x="631.5" y="-302.8" font-family="Arial" font-size="14.00">inc/mcu/esp32/EspPwm.h</text>
</a>
</g>
</g>
<!-- Node2 -->
<g id="Node000002" class="node">
<title>Node2</title>
<g id="a_Node000002"><a xlink:href="BasePwm_8h.html" target="_top" xlink:title="Abstract base class for PWM implementations in the HardFOC system.">
<polygon fill="white" stroke="#666666" points="89,-141 0,-141 0,-118 89,-118 89,-141"/>
<text text-anchor="middle" x="44.5" y="-125.8" font-family="Arial" font-size="14.00">BasePwm.h</text>
</a>
</g>
</g>
<!-- Node1&#45;&gt;Node2 -->
<g id="edge1_Node000001_Node000002" class="edge">
<title>Node1&#45;&gt;Node2</title>
<g id="a_edge1_Node000001_Node000002"><a xlink:title=" ">
<path fill="none" stroke="#63b8ff" d="M544.66,-302.54C460.43,-298.07 329.57,-286.9 219.5,-259 151.66,-241.81 123.27,-249.21 73.5,-200 60.11,-186.76 52.61,-166.42 48.6,-151.15"/>
<polygon fill="#63b8ff" stroke="#63b8ff" points="51.95,-150.06 46.28,-141.11 45.13,-151.65 51.95,-150.06"/>
</a>
</g>
</g>
<!-- Node7 -->
<g id="Node000007" class="node">
<title>Node7</title>
<g id="a_Node000007"><a xlink:href="PlatformMutex_8h.html" target="_top" xlink:title="Cross&#45;platform RTOS mutex and synchronization primitives.">
<polygon fill="white" stroke="#666666" points="625.5,-141 509.5,-141 509.5,-118 625.5,-118 625.5,-141"/>
<text text-anchor="middle" x="567.5" y="-125.8" font-family="Arial" font-size="14.00">PlatformMutex.h</text>
</a>
</g>
</g>
<!-- Node1&#45;&gt;Node7 -->
<g id="edge7_Node000001_Node000007" class="edge">
<title>Node1&#45;&gt;Node7</title>
<g id="a_edge7_Node000001_Node000007"><a xlink:title=" ">
<path fill="none" stroke="#63b8ff" d="M627.59,-294.82C617.17,-266.31 588.57,-188.11 574.93,-150.81"/>
<polygon fill="#63b8ff" stroke="#63b8ff" points="578.08,-149.23 571.36,-141.04 571.5,-151.64 578.08,-149.23"/>
</a>
</g>
</g>
<!-- Node9 -->
<g id="Node000009" class="node">
<title>Node9</title>
<g id="a_Node000009"><a xlink:title=" ">
<polygon fill="#e0e0e0" stroke="#999999" points="603,-82 546,-82 546,-59 603,-59 603,-82"/>
<text text-anchor="middle" x="574.5" y="-66.8" font-family="Arial" font-size="14.00">atomic</text>
</a>
</g>
</g>
<!-- Node1&#45;&gt;Node9 -->
<g id="edge29_Node000001_Node000009" class="edge">
<title>Node1&#45;&gt;Node9</title>
<g id="a_edge29_Node000001_Node000009"><a xlink:title=" ">
<path fill="none" stroke="#63b8ff" d="M634.92,-294.61C643.7,-264.58 664.3,-178.81 634.5,-118 628.26,-105.27 616.67,-95.03 605.33,-87.43"/>
<polygon fill="#63b8ff" stroke="#63b8ff" points="607.14,-84.43 596.79,-82.14 603.45,-90.38 607.14,-84.43"/>
</a>
</g>
</g>
<!-- Node10 -->
<g id="Node000010" class="node">
<title>Node10</title>
<g id="a_Node000010"><a xlink:href="EspTypes__PWM_8h.html" target="_top" xlink:title="ESP32 PWM type definitions for LEDC peripheral hardware abstraction.">
<polygon fill="white" stroke="#666666" points="386,-259 229,-259 229,-236 386,-236 386,-259"/>
<text text-anchor="middle" x="307.5" y="-243.8" font-family="Arial" font-size="14.00">utils/EspTypes_PWM.h</text>
</a>
</g>
</g>
<!-- Node1&#45;&gt;Node10 -->
<g id="edge11_Node000001_Node000010" class="edge">
<title>Node1&#45;&gt;Node10</title>
<g id="a_edge11_Node000001_Node000010"><a xlink:title=" ">
<path fill="none" stroke="#63b8ff" d="M571.7,-294.98C516.76,-285.31 435.32,-270.99 377.4,-260.8"/>
<polygon fill="#63b8ff" stroke="#63b8ff" points="377.68,-257.29 367.23,-259.01 376.47,-264.19 377.68,-257.29"/>
</a>
</g>
</g>
<!-- Node14 -->
<g id="Node000014" class="node">
<title>Node14</title>
<g id="a_Node000014"><a xlink:title=" ">
<polygon fill="#e0e0e0" stroke="#999999" points="729,-259 682,-259 682,-236 729,-236 729,-259"/>
<text text-anchor="middle" x="705.5" y="-243.8" font-family="Arial" font-size="14.00">array</text>
</a>
</g>
</g>
<!-- Node1&#45;&gt;Node14 -->
<g id="edge28_Node000001_Node000014" class="edge">
<title>Node1&#45;&gt;Node14</title>
<g id="a_edge28_Node000001_Node000014"><a xlink:title=" ">
<path fill="none" stroke="#63b8ff" d="M645.42,-294.78C656.17,-286.5 671.25,-274.89 683.61,-265.36"/>
<polygon fill="#63b8ff" stroke="#63b8ff" points="685.86,-268.05 691.64,-259.17 681.59,-262.5 685.86,-268.05"/>
</a>
</g>
</g>
<!-- Node15 -->
<g id="Node000015" class="node">
<title>Node15</title>
<g id="a_Node000015"><a xlink:title=" ">
<polygon fill="#e0e0e0" stroke="#999999" points="797.5,-259 747.5,-259 747.5,-236 797.5,-236 797.5,-259"/>
<text text-anchor="middle" x="772.5" y="-243.8" font-family="Arial" font-size="14.00">string</text>
</a>
</g>
</g>
<!-- Node1&#45;&gt;Node15 -->
<g id="edge30_Node000001_Node000015" class="edge">
<title>Node1&#45;&gt;Node15</title>
<g id="a_edge30_Node000001_Node000015"><a xlink:title=" ">
<path fill="none" stroke="#63b8ff" d="M657.69,-294.91C680.33,-285.76 713.22,-272.46 738,-262.45"/>
<polygon fill="#63b8ff" stroke="#63b8ff" points="739.44,-265.64 747.4,-258.65 736.81,-259.15 739.44,-265.64"/>
</a>
</g>
</g>
<!-- Node3 -->
<g id="Node000003" class="node">
<title>Node3</title>
<g id="a_Node000003"><a xlink:href="HardwareTypes_8h.html" target="_top" xlink:title="Platform&#45;agnostic hardware type definitions for the HardFOC system.">
<polygon fill="white" stroke="#666666" points="286.5,-82 164.5,-82 164.5,-59 286.5,-59 286.5,-82"/>
<text text-anchor="middle" x="225.5" y="-66.8" font-family="Arial" font-size="14.00">HardwareTypes.h</text>
</a>
</g>
</g>
<!-- Node2&#45;&gt;Node3 -->
<g id="edge2_Node000002_Node000003" class="edge">
<title>Node2&#45;&gt;Node3</title>
<g id="a_edge2_Node000002_Node000003"><a xlink:title=" ">
<path fill="none" stroke="#63b8ff" d="M78.12,-117.91C107.46,-108.67 150.2,-95.21 182.11,-85.16"/>
<polygon fill="#63b8ff" stroke="#63b8ff" points="183.57,-88.37 192.06,-82.03 181.47,-81.7 183.57,-88.37"/>
</a>
</g>
</g>
<!-- Node4 -->
<g id="Node000004" class="node">
<title>Node4</title>
<g id="a_Node000004"><a xlink:title=" ">
<polygon fill="#e0e0e0" stroke="#999999" points="342.5,-23 286.5,-23 286.5,0 342.5,0 342.5,-23"/>
<text text-anchor="middle" x="314.5" y="-7.8" font-family="Arial" font-size="14.00">cstdint</text>
</a>
</g>
</g>
<!-- Node2&#45;&gt;Node4 -->
<g id="edge5_Node000002_Node000004" class="edge">
<title>Node2&#45;&gt;Node4</title>
<g id="a_edge5_Node000002_Node000004"><a xlink:title=" ">
<path fill="none" stroke="#63b8ff" d="M42.41,-117.95C40.07,-102.76 38.37,-74.83 53.5,-59 85.46,-25.57 212.99,-31.26 258.5,-23 264.3,-21.95 270.43,-20.82 276.43,-19.7"/>
<polygon fill="#63b8ff" stroke="#63b8ff" points="277.12,-23.13 286.31,-17.85 275.84,-16.25 277.12,-23.13"/>
</a>
</g>
</g>
<!-- Node6 -->
<g id="Node000006" class="node">
<title>Node6</title>
<g id="a_Node000006"><a xlink:title=" ">
<polygon fill="#e0e0e0" stroke="#999999" points="146.5,-82 62.5,-82 62.5,-59 146.5,-59 146.5,-82"/>
<text text-anchor="middle" x="104.5" y="-66.8" font-family="Arial" font-size="14.00">string_view</text>
</a>
</g>
</g>
<!-- Node2&#45;&gt;Node6 -->
<g id="edge6_Node000002_Node000006" class="edge">
<title>Node2&#45;&gt;Node6</title>
<g id="a_edge6_Node000002_Node000006"><a xlink:title=" ">
<path fill="none" stroke="#63b8ff" d="M55.79,-117.78C64.25,-109.74 76.02,-98.55 85.88,-89.19"/>
<polygon fill="#63b8ff" stroke="#63b8ff" points="88.43,-91.6 93.27,-82.17 83.6,-86.52 88.43,-91.6"/>
</a>
</g>
</g>
<!-- Node3&#45;&gt;Node4 -->
<g id="edge3_Node000003_Node000004" class="edge">
<title>Node3&#45;&gt;Node4</title>
<g id="a_edge3_Node000003_Node000004"><a xlink:title=" ">
<path fill="none" stroke="#63b8ff" d="M242.24,-58.78C255.42,-50.34 274,-38.44 289.02,-28.82"/>
<polygon fill="#63b8ff" stroke="#63b8ff" points="291.3,-31.51 297.83,-23.17 287.53,-25.62 291.3,-31.51"/>
</a>
</g>
</g>
<!-- Node5 -->
<g id="Node000005" class="node">
<title>Node5</title>
<g id="a_Node000005"><a xlink:title=" ">
<polygon fill="#e0e0e0" stroke="#999999" points="249.5,-23 201.5,-23 201.5,0 249.5,0 249.5,-23"/>
<text text-anchor="middle" x="225.5" y="-7.8" font-family="Arial" font-size="14.00">limits</text>
</a>
</g>
</g>
<!-- Node3&#45;&gt;Node5 -->
<g id="edge4_Node000003_Node000005" class="edge">
<title>Node3&#45;&gt;Node5</title>
<g id="a_edge4_Node000003_Node000005"><a xlink:title=" ">
<path fill="none" stroke="#63b8ff" d="M225.5,-58.78C225.5,-51.61 225.5,-41.95 225.5,-33.31"/>
<polygon fill="#63b8ff" stroke="#63b8ff" points="229,-33.17 225.5,-23.17 222,-33.17 229,-33.17"/>
</a>
</g>
</g>
<!-- Node7&#45;&gt;Node4 -->
<g id="edge10_Node000007_Node000004" class="edge">
<title>Node7&#45;&gt;Node4</title>
<g id="a_edge10_Node000007_Node000004"><a xlink:title=" ">
<path fill="none" stroke="#63b8ff" d="M559.9,-117.77C548.4,-102.36 525.09,-74.16 498.5,-59 452.59,-32.82 391.96,-21.19 353.09,-16.16"/>
<polygon fill="#63b8ff" stroke="#63b8ff" points="353.09,-12.63 342.74,-14.9 352.25,-19.58 353.09,-12.63"/>
</a>
</g>
</g>
<!-- Node8 -->
<g id="Node000008" class="node">
<title>Node8</title>
<g id="a_Node000008"><a xlink:href="McuSelect_8h.html" target="_top" xlink:title="Centralized MCU platform selection and configuration header.">
<polygon fill="white" stroke="#666666" points="489.5,-82 397.5,-82 397.5,-59 489.5,-59 489.5,-82"/>
<text text-anchor="middle" x="443.5" y="-66.8" font-family="Arial" font-size="14.00">McuSelect.h</text>
</a>
</g>
</g>
<!-- Node7&#45;&gt;Node8 -->
<g id="edge8_Node000007_Node000008" class="edge">
<title>Node7&#45;&gt;Node8</title>
<g id="a_edge8_Node000007_Node000008"><a xlink:title=" ">
<path fill="none" stroke="#63b8ff" d="M544.47,-117.91C525.07,-108.99 497.1,-96.14 475.52,-86.22"/>
<polygon fill="#63b8ff" stroke="#63b8ff" points="476.96,-83.03 466.41,-82.03 474.03,-89.39 476.96,-83.03"/>
</a>
</g>
</g>
<!-- Node7&#45;&gt;Node9 -->
<g id="edge9_Node000007_Node000009" class="edge">
<title>Node7&#45;&gt;Node9</title>
<g id="a_edge9_Node000007_Node000009"><a xlink:title=" ">
<path fill="none" stroke="#63b8ff" d="M568.82,-117.78C569.7,-110.61 570.88,-100.95 571.94,-92.31"/>
<polygon fill="#63b8ff" stroke="#63b8ff" points="575.44,-92.53 573.19,-82.17 568.5,-91.67 575.44,-92.53"/>
</a>
</g>
</g>
<!-- Node10&#45;&gt;Node2 -->
<g id="edge12_Node000010_Node000002" class="edge">
<title>Node10&#45;&gt;Node2</title>
<g id="a_edge12_Node000010_Node000002"><a xlink:title=" ">
<path fill="none" stroke="#63b8ff" d="M228.98,-240.44C189.1,-234.54 141.23,-222.9 103.5,-200 83.03,-187.57 66.15,-165.56 55.76,-149.63"/>
<polygon fill="#63b8ff" stroke="#63b8ff" points="58.68,-147.7 50.42,-141.07 52.75,-151.41 58.68,-147.7"/>
</a>
</g>
</g>
<!-- Node10&#45;&gt;Node3 -->
<g id="edge13_Node000010_Node000003" class="edge">
<title>Node10&#45;&gt;Node3</title>
<g id="a_edge13_Node000010_Node000003"><a xlink:title=" ">
<path fill="none" stroke="#63b8ff" d="M264.05,-235.94C220.24,-222.49 156.34,-194.29 136.5,-141 132.93,-131.42 131.2,-126.74 136.5,-118 145.33,-103.43 160.38,-93.21 175.63,-86.14"/>
<polygon fill="#63b8ff" stroke="#63b8ff" points="177.24,-89.25 185.09,-82.13 174.51,-82.81 177.24,-89.25"/>
</a>
</g>
</g>
<!-- Node10&#45;&gt;Node8 -->
<g id="edge14_Node000010_Node000008" class="edge">
<title>Node10&#45;&gt;Node8</title>
<g id="a_edge14_Node000010_Node000008"><a xlink:title=" ">
<path fill="none" stroke="#63b8ff" d="M332.44,-235.92C365.17,-220.49 421.17,-188.41 444.5,-141 451.97,-125.81 450.96,-106.41 448.51,-91.96"/>
<polygon fill="#63b8ff" stroke="#63b8ff" points="451.91,-91.13 446.48,-82.04 445.06,-92.54 451.91,-91.13"/>
</a>
</g>
</g>
<!-- Node11 -->
<g id="Node000011" class="node">
<title>Node11</title>
<g id="a_Node000011"><a xlink:href="EspTypes__Base_8h.html" target="_top" xlink:title="ESP32 base type definitions for hardware abstraction.">
<polygon fill="white" stroke="#666666" points="415,-141 290,-141 290,-118 415,-118 415,-141"/>
<text text-anchor="middle" x="352.5" y="-125.8" font-family="Arial" font-size="14.00">EspTypes_Base.h</text>
</a>
</g>
</g>
<!-- Node10&#45;&gt;Node11 -->
<g id="edge15_Node000010_Node000011" class="edge">
<title>Node10&#45;&gt;Node11</title>
<g id="a_edge15_Node000010_Node000011"><a xlink:title=" ">
<path fill="none" stroke="#63b8ff" d="M315.16,-235.91C321.43,-226.79 330.11,-213.07 335.5,-200 342,-184.23 346.42,-165.39 349.12,-151.3"/>
<polygon fill="#63b8ff" stroke="#63b8ff" points="352.61,-151.63 350.92,-141.17 345.72,-150.4 352.61,-151.63"/>
</a>
</g>
</g>
<!-- Node12 -->
<g id="Node000012" class="node">
<title>Node12</title>
<g id="a_Node000012"><a xlink:href="EspTypes__GPIO_8h.html" target="_top" xlink:title="ESP32 GPIO type definitions for hardware abstraction.">
<polygon fill="white" stroke="#666666" points="326.5,-200 196.5,-200 196.5,-177 326.5,-177 326.5,-200"/>
<text text-anchor="middle" x="261.5" y="-184.8" font-family="Arial" font-size="14.00">EspTypes_GPIO.h</text>
</a>
</g>
</g>
<!-- Node10&#45;&gt;Node12 -->
<g id="edge20_Node000010_Node000012" class="edge">
<title>Node10&#45;&gt;Node12</title>
<g id="a_edge20_Node000010_Node000012"><a xlink:title=" ">
<path fill="none" stroke="#63b8ff" d="M298.85,-235.78C292.55,-227.98 283.87,-217.21 276.46,-208.03"/>
<polygon fill="#63b8ff" stroke="#63b8ff" points="279.12,-205.76 270.11,-200.17 273.67,-210.15 279.12,-205.76"/>
</a>
</g>
</g>
<!-- Node11&#45;&gt;Node3 -->
<g id="edge17_Node000011_Node000003" class="edge">
<title>Node11&#45;&gt;Node3</title>
<g id="a_edge17_Node000011_Node000003"><a xlink:title=" ">
<path fill="none" stroke="#63b8ff" d="M328.91,-117.91C309.04,-108.99 280.4,-96.14 258.3,-86.22"/>
<polygon fill="#63b8ff" stroke="#63b8ff" points="259.52,-82.93 248.96,-82.03 256.65,-89.32 259.52,-82.93"/>
</a>
</g>
</g>
<!-- Node11&#45;&gt;Node4 -->
<g id="edge19_Node000011_Node000004" class="edge">
<title>Node11&#45;&gt;Node4</title>
<g id="a_edge19_Node000011_Node000004"><a xlink:title=" ">
<path fill="none" stroke="#63b8ff" d="M348.99,-117.79C342.69,-98.55 329.34,-57.79 321.22,-33.01"/>
<polygon fill="#63b8ff" stroke="#63b8ff" points="324.44,-31.59 318,-23.18 317.79,-33.77 324.44,-31.59"/>
</a>
</g>
</g>
<!-- Node11&#45;&gt;Node8 -->
<g id="edge16_Node000011_Node000008" class="edge">
<title>Node11&#45;&gt;Node8</title>
<g id="a_edge16_Node000011_Node000008"><a xlink:title=" ">
<path fill="none" stroke="#63b8ff" d="M369.62,-117.78C383.22,-109.26 402.45,-97.21 417.88,-87.55"/>
<polygon fill="#63b8ff" stroke="#63b8ff" points="419.84,-90.45 426.46,-82.17 416.13,-84.52 419.84,-90.45"/>
</a>
</g>
</g>
<!-- Node11&#45;&gt;Node9 -->
<g id="edge18_Node000011_Node000009" class="edge">
<title>Node11&#45;&gt;Node9</title>
<g id="a_edge18_Node000011_Node000009"><a xlink:title=" ">
<path fill="none" stroke="#63b8ff" d="M393.48,-117.98C434.16,-107.53 496.06,-91.64 535.89,-81.41"/>
<polygon fill="#63b8ff" stroke="#63b8ff" points="536.95,-84.75 545.76,-78.88 535.21,-77.97 536.95,-84.75"/>
</a>
</g>
</g>
<!-- Node12&#45;&gt;Node3 -->
<g id="edge26_Node000012_Node000003" class="edge">
<title>Node12&#45;&gt;Node3</title>
<g id="a_edge26_Node000012_Node000003"><a xlink:title=" ">
<path fill="none" stroke="#63b8ff" d="M258.82,-176.58C255.37,-162.83 249.04,-138.5 242.5,-118 239.71,-109.25 236.29,-99.7 233.24,-91.54"/>
<polygon fill="#63b8ff" stroke="#63b8ff" points="236.49,-90.23 229.67,-82.12 229.95,-92.72 236.49,-90.23"/>
</a>
</g>
</g>
<!-- Node12&#45;&gt;Node8 -->
<g id="edge27_Node000012_Node000008" class="edge">
<title>Node12&#45;&gt;Node8</title>
<g id="a_edge27_Node000012_Node000008"><a xlink:title=" ">
<path fill="none" stroke="#63b8ff" d="M326.63,-183.49C359.65,-178.17 398.04,-166.44 423.5,-141 436.36,-128.14 441.07,-107.59 442.74,-92.16"/>
<polygon fill="#63b8ff" stroke="#63b8ff" points="446.24,-92.25 443.49,-82.02 439.26,-91.73 446.24,-92.25"/>
</a>
</g>
</g>
<!-- Node12&#45;&gt;Node11 -->
<g id="edge25_Node000012_Node000011" class="edge">
<title>Node12&#45;&gt;Node11</title>
<g id="a_edge25_Node000012_Node000011"><a xlink:title=" ">
<path fill="none" stroke="#63b8ff" d="M278.62,-176.78C292.22,-168.26 311.45,-156.21 326.88,-146.55"/>
<polygon fill="#63b8ff" stroke="#63b8ff" points="328.84,-149.45 335.46,-141.17 325.13,-143.52 328.84,-149.45"/>
</a>
</g>
</g>
<!-- Node13 -->
<g id="Node000013" class="node">
<title>Node13</title>
<g id="a_Node000013"><a xlink:href="BaseGpio_8h.html" target="_top" xlink:title="Unified GPIO base class for all digital GPIO implementations.">
<polygon fill="white" stroke="#666666" points="233.5,-141 145.5,-141 145.5,-118 233.5,-118 233.5,-141"/>
<text text-anchor="middle" x="189.5" y="-125.8" font-family="Arial" font-size="14.00">BaseGpio.h</text>
</a>
</g>
</g>
<!-- Node12&#45;&gt;Node13 -->
<g id="edge21_Node000012_Node000013" class="edge">
<title>Node12&#45;&gt;Node13</title>
<g id="a_edge21_Node000012_Node000013"><a xlink:title=" ">
<path fill="none" stroke="#63b8ff" d="M247.96,-176.78C237.6,-168.58 223.11,-157.11 211.15,-147.64"/>
<polygon fill="#63b8ff" stroke="#63b8ff" points="212.99,-144.64 202.98,-141.17 208.65,-150.12 212.99,-144.64"/>
</a>
</g>
</g>
<!-- Node13&#45;&gt;Node3 -->
<g id="edge22_Node000013_Node000003" class="edge">
<title>Node13&#45;&gt;Node3</title>
<g id="a_edge22_Node000013_Node000003"><a xlink:title=" ">
<path fill="none" stroke="#63b8ff" d="M196.27,-117.78C201.05,-110.22 207.58,-99.87 213.26,-90.88"/>
<polygon fill="#63b8ff" stroke="#63b8ff" points="216.38,-92.5 218.76,-82.17 210.46,-88.76 216.38,-92.5"/>
</a>
</g>
</g>
<!-- Node13&#45;&gt;Node4 -->
<g id="edge23_Node000013_Node000004" class="edge">
<title>Node13&#45;&gt;Node4</title>
<g id="a_edge23_Node000013_Node000004"><a xlink:title=" ">
<path fill="none" stroke="#63b8ff" d="M233.59,-118.7C255.06,-111.8 279.61,-100.41 295.5,-82 307.09,-68.57 311.67,-48.69 313.45,-33.62"/>
<polygon fill="#63b8ff" stroke="#63b8ff" points="316.98,-33.49 314.34,-23.23 310,-32.9 316.98,-33.49"/>
</a>
</g>
</g>
<!-- Node13&#45;&gt;Node6 -->
<g id="edge24_Node000013_Node000006" class="edge">
<title>Node13&#45;&gt;Node6</title>
<g id="a_edge24_Node000013_Node000006"><a xlink:title=" ">
<path fill="none" stroke="#63b8ff" d="M173.51,-117.78C160.93,-109.34 143.18,-97.44 128.83,-87.82"/>
<polygon fill="#63b8ff" stroke="#63b8ff" points="130.67,-84.84 120.42,-82.17 126.77,-90.65 130.67,-84.84"/>
</a>
</g>
</g>
</g>
</svg>

<g id="navigator" transform="translate(0 0)" fill="#404254">
  <rect fill="#f2f5e9" fill-opacity="0.5" stroke="#606060" stroke-width=".5" x="0" y="0" width="60" height="60"/>
  <use id="zoomplus" xlink:href="#zoomPlus" x="17" y="9" onmousedown="handleZoom(evt,'in')"/>
  <use id="zoomminus" xlink:href="#zoomMin" x="42" y="9" onmousedown="handleZoom(evt,'out')"/>
  <use id="reset" xlink:href="#resetDef" x="30" y="36" onmousedown="handleReset()"/>
   <use id="arrowup" xlink:href="#arrowUp" x="0" y="0" onmousedown="handlePan(0,-1)"/>
  <use id="arrowright" xlink:href="#arrowRight" x="0" y="0" onmousedown="handlePan(1,0)"/>
  <use id="arrowdown" xlink:href="#arrowDown" x="0" y="0" onmousedown="handlePan(0,1)"/>
  <use id="arrowleft" xlink:href="#arrowLeft" x="0" y="0" onmousedown="handlePan(-1,0)"/>
</g>
<svg viewBox="0 0 15 15" width="100%" height="30px" preserveAspectRatio="xMaxYMin meet">
 <g id="arrow_out" transform="scale(0.3 0.3)">
  <a xlink:href="EspPwm_8h__incl_org.svg" target="_base">
   <rect id="button" ry="5" rx="5" y="6" x="6" height="38" width="38"
        fill="#f2f5e9" fill-opacity="0.5" stroke="#606060" stroke-width="1.0"/>
   <path id="arrow"
     d="M 11.500037,31.436501 C 11.940474,20.09759 22.043105,11.32322 32.158766,21.979434 L 37.068811,17.246167 C 37.068811,17.246167 37.088388,32 37.088388,32 L 22.160133,31.978069 C 22.160133,31.978069 26.997745,27.140456 26.997745,27.140456 C 18.528582,18.264221 13.291696,25.230495 11.500037,31.436501 z"
     style="fill:#404040;"/>
  </a>
 </g>
</svg>

<style type='text/css'>
<![CDATA[
[data-mouse-over-selected='false'] { opacity: 0.7; }
[data-mouse-over-selected='true']  { opacity: 1.0; }
]]>
</style>
<script type="application/ecmascript"><![CDATA[
document.addEventListener('DOMContentLoaded', (event) => {
  highlightEdges();
  highlightAdjacentNodes();
});
]]></script>
</svg>
