<?xml version="1.0" encoding="UTF-8" standalone="no"?>
<!DOCTYPE svg PUBLIC "-//W3C//DTD SVG 1.1//EN"
 "http://www.w3.org/Graphics/SVG/1.1/DTD/svg11.dtd">
<!-- Generated by graphviz version 2.43.0 (0)
 -->
<!-- Title: inc/mcu/esp32/utils/EspTypes_PIO.h Pages: 1 -->
<svg width="544pt" height="223pt"
 viewBox="0.00 0.00 544.00 223.00" xmlns="http://www.w3.org/2000/svg" xmlns:xlink="http://www.w3.org/1999/xlink">
<g id="graph0" class="graph" transform="scale(1 1) rotate(0) translate(4 219)">
<title>inc/mcu/esp32/utils/EspTypes_PIO.h</title>
<!-- Node1 -->
<g id="Node000001" class="node">
<title>Node1</title>
<g id="a_Node000001"><a xlink:title="ESP32 PIO/RMT type definitions for hardware abstraction.">
<polygon fill="#999999" stroke="#666666" points="312,-215 180,-215 180,-177 312,-177 312,-215"/>
<text text-anchor="start" x="188" y="-199.8" font-family="Arial" font-size="14.00">inc/mcu/esp32/utils</text>
<text text-anchor="middle" x="246" y="-184.8" font-family="Arial" font-size="14.00">/EspTypes_PIO.h</text>
</a>
</g>
</g>
<!-- Node2 -->
<g id="Node000002" class="node">
<title>Node2</title>
<g id="a_Node000002"><a xlink:href="BasePio_8h.html" target="_top" xlink:title="Abstract base class for Programmable IO Channel implementations in the HardFOC system.">
<polygon fill="white" stroke="#666666" points="162,-141 84,-141 84,-118 162,-118 162,-141"/>
<text text-anchor="middle" x="123" y="-125.8" font-family="Arial" font-size="14.00">BasePio.h</text>
</a>
</g>
</g>
<!-- Node1&#45;&gt;Node2 -->
<g id="edge1_Node000001_Node000002" class="edge">
<title>Node1&#45;&gt;Node2</title>
<g id="a_edge1_Node000001_Node000002"><a xlink:title=" ">
<path fill="none" stroke="#63b8ff" d="M211.41,-176.86C192.82,-167.12 170.16,-155.23 152.42,-145.93"/>
<polygon fill="#63b8ff" stroke="#63b8ff" points="153.62,-142.61 143.14,-141.06 150.37,-148.81 153.62,-142.61"/>
</a>
</g>
</g>
<!-- Node3 -->
<g id="Node000003" class="node">
<title>Node3</title>
<g id="a_Node000003"><a xlink:href="HardwareTypes_8h.html" target="_top" xlink:title="Platform&#45;agnostic hardware type definitions for the HardFOC system.">
<polygon fill="white" stroke="#666666" points="262,-82 140,-82 140,-59 262,-59 262,-82"/>
<text text-anchor="middle" x="201" y="-66.8" font-family="Arial" font-size="14.00">HardwareTypes.h</text>
</a>
</g>
</g>
<!-- Node1&#45;&gt;Node3 -->
<g id="edge12_Node000001_Node000003" class="edge">
<title>Node1&#45;&gt;Node3</title>
<g id="a_edge12_Node000001_Node000003"><a xlink:title=" ">
<path fill="none" stroke="#63b8ff" d="M236.25,-176.87C230.96,-166.55 224.59,-153.28 220,-141 213.99,-124.91 208.96,-106.09 205.59,-92.09"/>
<polygon fill="#63b8ff" stroke="#63b8ff" points="208.93,-91 203.25,-82.05 202.11,-92.58 208.93,-91"/>
</a>
</g>
</g>
<!-- Node7 -->
<g id="Node000007" class="node">
<title>Node7</title>
<g id="a_Node000007"><a xlink:href="EspTypes__Base_8h.html" target="_top" xlink:title="ESP32 base type definitions for hardware abstraction.">
<polygon fill="white" stroke="#666666" points="354.5,-141 229.5,-141 229.5,-118 354.5,-118 354.5,-141"/>
<text text-anchor="middle" x="292" y="-125.8" font-family="Arial" font-size="14.00">EspTypes_Base.h</text>
</a>
</g>
</g>
<!-- Node1&#45;&gt;Node7 -->
<g id="edge7_Node000001_Node000007" class="edge">
<title>Node1&#45;&gt;Node7</title>
<g id="a_edge7_Node000001_Node000007"><a xlink:title=" ">
<path fill="none" stroke="#63b8ff" d="M259.06,-176.69C265.13,-168.18 272.35,-158.06 278.48,-149.46"/>
<polygon fill="#63b8ff" stroke="#63b8ff" points="281.42,-151.37 284.38,-141.19 275.72,-147.3 281.42,-151.37"/>
</a>
</g>
</g>
<!-- Node8 -->
<g id="Node000008" class="node">
<title>Node8</title>
<g id="a_Node000008"><a xlink:href="McuSelect_8h.html" target="_top" xlink:title="Centralized MCU platform selection and configuration header.">
<polygon fill="white" stroke="#666666" points="536,-82 394,-82 394,-59 536,-59 536,-82"/>
<text text-anchor="middle" x="465" y="-66.8" font-family="Arial" font-size="14.00">../../utils/McuSelect.h</text>
</a>
</g>
</g>
<!-- Node1&#45;&gt;Node8 -->
<g id="edge13_Node000001_Node000008" class="edge">
<title>Node1&#45;&gt;Node8</title>
<g id="a_edge13_Node000001_Node000008"><a xlink:title=" ">
<path fill="none" stroke="#63b8ff" d="M289.64,-176.92C312.02,-167.13 339.44,-154.34 363,-141 391.59,-124.81 422.52,-103.09 442.73,-88.26"/>
<polygon fill="#63b8ff" stroke="#63b8ff" points="445,-90.94 450.96,-82.17 440.84,-85.31 445,-90.94"/>
</a>
</g>
</g>
<!-- Node2&#45;&gt;Node3 -->
<g id="edge2_Node000002_Node000003" class="edge">
<title>Node2&#45;&gt;Node3</title>
<g id="a_edge2_Node000002_Node000003"><a xlink:title=" ">
<path fill="none" stroke="#63b8ff" d="M137.67,-117.78C149.11,-109.42 165.2,-97.66 178.3,-88.09"/>
<polygon fill="#63b8ff" stroke="#63b8ff" points="180.39,-90.9 186.39,-82.17 176.26,-85.25 180.39,-90.9"/>
</a>
</g>
</g>
<!-- Node4 -->
<g id="Node000004" class="node">
<title>Node4</title>
<g id="a_Node000004"><a xlink:title=" ">
<polygon fill="#e0e0e0" stroke="#999999" points="264,-23 208,-23 208,0 264,0 264,-23"/>
<text text-anchor="middle" x="236" y="-7.8" font-family="Arial" font-size="14.00">cstdint</text>
</a>
</g>
</g>
<!-- Node2&#45;&gt;Node4 -->
<g id="edge5_Node000002_Node000004" class="edge">
<title>Node2&#45;&gt;Node4</title>
<g id="a_edge5_Node000002_Node000004"><a xlink:title=" ">
<path fill="none" stroke="#63b8ff" d="M121.21,-117.93C119.33,-103.21 118.19,-76.41 131,-59 139.52,-47.41 171.79,-34.12 198.33,-24.72"/>
<polygon fill="#63b8ff" stroke="#63b8ff" points="199.49,-28.02 207.8,-21.44 197.2,-21.41 199.49,-28.02"/>
</a>
</g>
</g>
<!-- Node6 -->
<g id="Node000006" class="node">
<title>Node6</title>
<g id="a_Node000006"><a xlink:title=" ">
<polygon fill="#e0e0e0" stroke="#999999" points="84,-82 0,-82 0,-59 84,-59 84,-82"/>
<text text-anchor="middle" x="42" y="-66.8" font-family="Arial" font-size="14.00">string_view</text>
</a>
</g>
</g>
<!-- Node2&#45;&gt;Node6 -->
<g id="edge6_Node000002_Node000006" class="edge">
<title>Node2&#45;&gt;Node6</title>
<g id="a_edge6_Node000002_Node000006"><a xlink:title=" ">
<path fill="none" stroke="#63b8ff" d="M107.76,-117.78C95.89,-109.42 79.18,-97.66 65.58,-88.09"/>
<polygon fill="#63b8ff" stroke="#63b8ff" points="67.36,-85.07 57.17,-82.17 63.33,-90.79 67.36,-85.07"/>
</a>
</g>
</g>
<!-- Node3&#45;&gt;Node4 -->
<g id="edge3_Node000003_Node000004" class="edge">
<title>Node3&#45;&gt;Node4</title>
<g id="a_edge3_Node000003_Node000004"><a xlink:title=" ">
<path fill="none" stroke="#63b8ff" d="M207.58,-58.78C212.23,-51.22 218.58,-40.87 224.1,-31.88"/>
<polygon fill="#63b8ff" stroke="#63b8ff" points="227.2,-33.53 229.45,-23.17 221.23,-29.86 227.2,-33.53"/>
</a>
</g>
</g>
<!-- Node5 -->
<g id="Node000005" class="node">
<title>Node5</title>
<g id="a_Node000005"><a xlink:title=" ">
<polygon fill="#e0e0e0" stroke="#999999" points="190,-23 142,-23 142,0 190,0 190,-23"/>
<text text-anchor="middle" x="166" y="-7.8" font-family="Arial" font-size="14.00">limits</text>
</a>
</g>
</g>
<!-- Node3&#45;&gt;Node5 -->
<g id="edge4_Node000003_Node000005" class="edge">
<title>Node3&#45;&gt;Node5</title>
<g id="a_edge4_Node000003_Node000005"><a xlink:title=" ">
<path fill="none" stroke="#63b8ff" d="M194.42,-58.78C189.77,-51.22 183.42,-40.87 177.9,-31.88"/>
<polygon fill="#63b8ff" stroke="#63b8ff" points="180.77,-29.86 172.55,-23.17 174.8,-33.53 180.77,-29.86"/>
</a>
</g>
</g>
<!-- Node7&#45;&gt;Node3 -->
<g id="edge9_Node000007_Node000003" class="edge">
<title>Node7&#45;&gt;Node3</title>
<g id="a_edge9_Node000007_Node000003"><a xlink:title=" ">
<path fill="none" stroke="#63b8ff" d="M274.88,-117.78C261.28,-109.26 242.05,-97.21 226.62,-87.55"/>
<polygon fill="#63b8ff" stroke="#63b8ff" points="228.37,-84.52 218.04,-82.17 224.66,-90.45 228.37,-84.52"/>
</a>
</g>
</g>
<!-- Node7&#45;&gt;Node4 -->
<g id="edge11_Node000007_Node000004" class="edge">
<title>Node7&#45;&gt;Node4</title>
<g id="a_edge11_Node000007_Node000004"><a xlink:title=" ">
<path fill="none" stroke="#63b8ff" d="M289.97,-117.7C287.06,-103.64 280.92,-78.56 271,-59 265.98,-49.1 258.82,-39.14 252.29,-30.98"/>
<polygon fill="#63b8ff" stroke="#63b8ff" points="254.91,-28.66 245.82,-23.22 249.54,-33.15 254.91,-28.66"/>
</a>
</g>
</g>
<!-- Node7&#45;&gt;Node8 -->
<g id="edge8_Node000007_Node000008" class="edge">
<title>Node7&#45;&gt;Node8</title>
<g id="a_edge8_Node000007_Node000008"><a xlink:title=" ">
<path fill="none" stroke="#63b8ff" d="M324.13,-117.91C352.17,-108.67 393.03,-95.21 423.53,-85.16"/>
<polygon fill="#63b8ff" stroke="#63b8ff" points="424.64,-88.48 433.04,-82.03 422.44,-81.84 424.64,-88.48"/>
</a>
</g>
</g>
<!-- Node9 -->
<g id="Node000009" class="node">
<title>Node9</title>
<g id="a_Node000009"><a xlink:title=" ">
<polygon fill="#e0e0e0" stroke="#999999" points="375.5,-82 318.5,-82 318.5,-59 375.5,-59 375.5,-82"/>
<text text-anchor="middle" x="347" y="-66.8" font-family="Arial" font-size="14.00">atomic</text>
</a>
</g>
</g>
<!-- Node7&#45;&gt;Node9 -->
<g id="edge10_Node000007_Node000009" class="edge">
<title>Node7&#45;&gt;Node9</title>
<g id="a_edge10_Node000007_Node000009"><a xlink:title=" ">
<path fill="none" stroke="#63b8ff" d="M302.35,-117.78C310.03,-109.82 320.68,-98.77 329.66,-89.47"/>
<polygon fill="#63b8ff" stroke="#63b8ff" points="332.28,-91.8 336.7,-82.17 327.24,-86.94 332.28,-91.8"/>
</a>
</g>
</g>
</g>
</svg>
