<?xml version="1.0" encoding="UTF-8" standalone="no"?>
<!DOCTYPE svg PUBLIC "-//W3C//DTD SVG 1.1//EN"
 "http://www.w3.org/Graphics/SVG/1.1/DTD/svg11.dtd">
<!-- Generated by graphviz version 2.43.0 (0)
 -->
<!-- Title: inc/mcu/esp32/EspTemperature.h Pages: 1 -->
<svg width="1199pt" height="223pt"
 viewBox="0.00 0.00 1198.50 223.00" xmlns="http://www.w3.org/2000/svg" xmlns:xlink="http://www.w3.org/1999/xlink">
<g id="graph0" class="graph" transform="scale(1 1) rotate(0) translate(4 219)">
<title>inc/mcu/esp32/EspTemperature.h</title>
<!-- Node1 -->
<g id="Node000001" class="node">
<title>Node1</title>
<g id="a_Node000001"><a xlink:title="ESP32&#45;C6 internal temperature sensor implementation for the HardFOC system.">
<polygon fill="#999999" stroke="#666666" points="835.5,-215 616.5,-215 616.5,-192 835.5,-192 835.5,-215"/>
<text text-anchor="middle" x="726" y="-199.8" font-family="Arial" font-size="14.00">inc/mcu/esp32/EspTemperature.h</text>
</a>
</g>
</g>
<!-- Node2 -->
<g id="Node000002" class="node">
<title>Node2</title>
<g id="a_Node000002"><a xlink:href="BaseTemperature_8h.html" target="_top" xlink:title="Abstract base class for temperature sensor implementations in the HardFOC system.">
<polygon fill="white" stroke="#666666" points="304,-148.5 136,-148.5 136,-125.5 304,-125.5 304,-148.5"/>
<text text-anchor="middle" x="220" y="-133.3" font-family="Arial" font-size="14.00">base/BaseTemperature.h</text>
</a>
</g>
</g>
<!-- Node1&#45;&gt;Node2 -->
<g id="edge1_Node000001_Node000002" class="edge">
<title>Node1&#45;&gt;Node2</title>
<g id="a_edge1_Node000001_Node000002"><a xlink:title=" ">
<path fill="none" stroke="#63b8ff" d="M643.58,-191.99C552.79,-180.42 407.15,-161.86 312.52,-149.79"/>
<polygon fill="#63b8ff" stroke="#63b8ff" points="312.75,-146.29 302.39,-148.5 311.87,-153.24 312.75,-146.29"/>
</a>
</g>
</g>
<!-- Node6 -->
<g id="Node000006" class="node">
<title>Node6</title>
<g id="a_Node000006"><a xlink:title=" ">
<polygon fill="#e0e0e0" stroke="#999999" points="354,-82 280,-82 280,-59 354,-59 354,-82"/>
<text text-anchor="middle" x="317" y="-66.8" font-family="Arial" font-size="14.00">functional</text>
</a>
</g>
</g>
<!-- Node1&#45;&gt;Node6 -->
<g id="edge22_Node000001_Node000006" class="edge">
<title>Node1&#45;&gt;Node6</title>
<g id="a_edge22_Node000001_Node000006"><a xlink:title=" ">
<path fill="none" stroke="#63b8ff" d="M646.62,-191.99C600.45,-184.6 541.57,-172.97 491,-156 436.58,-137.74 377.26,-106.19 343.84,-87.24"/>
<polygon fill="#63b8ff" stroke="#63b8ff" points="345.55,-84.19 335.13,-82.25 342.07,-90.26 345.55,-84.19"/>
</a>
</g>
</g>
<!-- Node8 -->
<g id="Node000008" class="node">
<title>Node8</title>
<g id="a_Node000008"><a xlink:href="RtosMutex_8h.html" target="_top" xlink:title="Cross&#45;platform RTOS mutex and synchronization primitives.">
<polygon fill="white" stroke="#666666" points="678.5,-148.5 557.5,-148.5 557.5,-125.5 678.5,-125.5 678.5,-148.5"/>
<text text-anchor="middle" x="618" y="-133.3" font-family="Arial" font-size="14.00">utils/RtosMutex.h</text>
</a>
</g>
</g>
<!-- Node1&#45;&gt;Node8 -->
<g id="edge8_Node000001_Node000008" class="edge">
<title>Node1&#45;&gt;Node8</title>
<g id="a_edge8_Node000001_Node000008"><a xlink:title=" ">
<path fill="none" stroke="#63b8ff" d="M708.17,-191.85C690.89,-181.53 664.48,-165.76 644.7,-153.94"/>
<polygon fill="#63b8ff" stroke="#63b8ff" points="646.24,-150.79 635.86,-148.67 642.65,-156.8 646.24,-150.79"/>
</a>
</g>
</g>
<!-- Node10 -->
<g id="Node000010" class="node">
<title>Node10</title>
<g id="a_Node000010"><a xlink:title=" ">
<polygon fill="#e0e0e0" stroke="#999999" points="515.5,-82 372.5,-82 372.5,-59 515.5,-59 515.5,-82"/>
<text text-anchor="middle" x="444" y="-66.8" font-family="Arial" font-size="14.00">freertos/FreeRTOS.h</text>
</a>
</g>
</g>
<!-- Node1&#45;&gt;Node10 -->
<g id="edge19_Node000001_Node000010" class="edge">
<title>Node1&#45;&gt;Node10</title>
<g id="a_edge19_Node000001_Node000010"><a xlink:title=" ">
<path fill="none" stroke="#63b8ff" d="M659.73,-191.97C625.43,-184.84 583.61,-173.46 549,-156 514.48,-138.58 480.78,-108.45 461.22,-89.27"/>
<polygon fill="#63b8ff" stroke="#63b8ff" points="463.52,-86.62 453.98,-82.02 458.57,-91.57 463.52,-86.62"/>
</a>
</g>
</g>
<!-- Node12 -->
<g id="Node000012" class="node">
<title>Node12</title>
<g id="a_Node000012"><a xlink:title=" ">
<polygon fill="#e0e0e0" stroke="#999999" points="924,-82 822,-82 822,-59 924,-59 924,-82"/>
<text text-anchor="middle" x="873" y="-66.8" font-family="Arial" font-size="14.00">freertos/task.h</text>
</a>
</g>
</g>
<!-- Node1&#45;&gt;Node12 -->
<g id="edge20_Node000001_Node000012" class="edge">
<title>Node1&#45;&gt;Node12</title>
<g id="a_edge20_Node000001_Node000012"><a xlink:title=" ">
<path fill="none" stroke="#63b8ff" d="M723.17,-191.86C719.23,-174.45 714.31,-139.65 731,-118 741.38,-104.54 778.35,-92.67 811.96,-84.3"/>
<polygon fill="#63b8ff" stroke="#63b8ff" points="812.89,-87.67 821.79,-81.92 811.25,-80.87 812.89,-87.67"/>
</a>
</g>
</g>
<!-- Node13 -->
<g id="Node000013" class="node">
<title>Node13</title>
<g id="a_Node000013"><a xlink:title=" ">
<polygon fill="#e0e0e0" stroke="#999999" points="999.5,-82 942.5,-82 942.5,-59 999.5,-59 999.5,-82"/>
<text text-anchor="middle" x="971" y="-66.8" font-family="Arial" font-size="14.00">atomic</text>
</a>
</g>
</g>
<!-- Node1&#45;&gt;Node13 -->
<g id="edge21_Node000001_Node000013" class="edge">
<title>Node1&#45;&gt;Node13</title>
<g id="a_edge21_Node000001_Node000013"><a xlink:title=" ">
<path fill="none" stroke="#63b8ff" d="M727.64,-191.8C731,-173.66 740.47,-136.99 764,-118 821.31,-71.75 855.52,-97.87 932.32,-81.89"/>
<polygon fill="#63b8ff" stroke="#63b8ff" points="933.44,-85.22 942.41,-79.6 931.89,-78.4 933.44,-85.22"/>
</a>
</g>
</g>
<!-- Node14 -->
<g id="Node000014" class="node">
<title>Node14</title>
<g id="a_Node000014"><a xlink:title=" ">
<polygon fill="#e0e0e0" stroke="#999999" points="901,-156 773,-156 773,-118 901,-118 901,-156"/>
<text text-anchor="start" x="781" y="-140.8" font-family="Arial" font-size="14.00">driver/temperature</text>
<text text-anchor="middle" x="837" y="-125.8" font-family="Arial" font-size="14.00">_sensor.h</text>
</a>
</g>
</g>
<!-- Node1&#45;&gt;Node14 -->
<g id="edge15_Node000001_Node000014" class="edge">
<title>Node1&#45;&gt;Node14</title>
<g id="a_edge15_Node000001_Node000014"><a xlink:title=" ">
<path fill="none" stroke="#63b8ff" d="M744.33,-191.85C758.49,-183.62 778.62,-171.93 796.5,-161.53"/>
<polygon fill="#63b8ff" stroke="#63b8ff" points="798.72,-164.29 805.6,-156.24 795.2,-158.24 798.72,-164.29"/>
</a>
</g>
</g>
<!-- Node15 -->
<g id="Node000015" class="node">
<title>Node15</title>
<g id="a_Node000015"><a xlink:title=" ">
<polygon fill="#e0e0e0" stroke="#999999" points="992.5,-148.5 919.5,-148.5 919.5,-125.5 992.5,-125.5 992.5,-148.5"/>
<text text-anchor="middle" x="956" y="-133.3" font-family="Arial" font-size="14.00">esp_err.h</text>
</a>
</g>
</g>
<!-- Node1&#45;&gt;Node15 -->
<g id="edge16_Node000001_Node000015" class="edge">
<title>Node1&#45;&gt;Node15</title>
<g id="a_edge16_Node000001_Node000015"><a xlink:title=" ">
<path fill="none" stroke="#63b8ff" d="M774.51,-191.99C811.88,-183.48 864.66,-170.54 910,-156 913.56,-154.86 917.24,-153.59 920.89,-152.26"/>
<polygon fill="#63b8ff" stroke="#63b8ff" points="922.29,-155.47 930.42,-148.67 919.82,-148.92 922.29,-155.47"/>
</a>
</g>
</g>
<!-- Node16 -->
<g id="Node000016" class="node">
<title>Node16</title>
<g id="a_Node000016"><a xlink:title=" ">
<polygon fill="#e0e0e0" stroke="#999999" points="1085.5,-148.5 1010.5,-148.5 1010.5,-125.5 1085.5,-125.5 1085.5,-148.5"/>
<text text-anchor="middle" x="1048" y="-133.3" font-family="Arial" font-size="14.00">esp_log.h</text>
</a>
</g>
</g>
<!-- Node1&#45;&gt;Node16 -->
<g id="edge17_Node000001_Node000016" class="edge">
<title>Node1&#45;&gt;Node16</title>
<g id="a_edge17_Node000001_Node000016"><a xlink:title=" ">
<path fill="none" stroke="#63b8ff" d="M816.83,-191.99C871.17,-184.53 941.24,-172.81 1002,-156 1005.89,-154.92 1009.9,-153.64 1013.86,-152.25"/>
<polygon fill="#63b8ff" stroke="#63b8ff" points="1015.34,-155.43 1023.49,-148.67 1012.9,-148.87 1015.34,-155.43"/>
</a>
</g>
</g>
<!-- Node17 -->
<g id="Node000017" class="node">
<title>Node17</title>
<g id="a_Node000017"><a xlink:title=" ">
<polygon fill="#e0e0e0" stroke="#999999" points="1190.5,-148.5 1103.5,-148.5 1103.5,-125.5 1190.5,-125.5 1190.5,-148.5"/>
<text text-anchor="middle" x="1147" y="-133.3" font-family="Arial" font-size="14.00">esp_timer.h</text>
</a>
</g>
</g>
<!-- Node1&#45;&gt;Node17 -->
<g id="edge18_Node000001_Node000017" class="edge">
<title>Node1&#45;&gt;Node17</title>
<g id="a_edge18_Node000001_Node000017"><a xlink:title=" ">
<path fill="none" stroke="#63b8ff" d="M835.64,-194.7C909.6,-187.97 1009.01,-176.07 1095,-156 1100.05,-154.82 1105.29,-153.34 1110.42,-151.72"/>
<polygon fill="#63b8ff" stroke="#63b8ff" points="1111.67,-155 1120.06,-148.52 1109.46,-148.35 1111.67,-155"/>
</a>
</g>
</g>
<!-- Node3 -->
<g id="Node000003" class="node">
<title>Node3</title>
<g id="a_Node000003"><a xlink:href="HardwareTypes_8h.html" target="_top" xlink:title="Platform&#45;agnostic hardware type definitions for the HardFOC system.">
<polygon fill="white" stroke="#666666" points="122,-82 0,-82 0,-59 122,-59 122,-82"/>
<text text-anchor="middle" x="61" y="-66.8" font-family="Arial" font-size="14.00">HardwareTypes.h</text>
</a>
</g>
</g>
<!-- Node2&#45;&gt;Node3 -->
<g id="edge2_Node000002_Node000003" class="edge">
<title>Node2&#45;&gt;Node3</title>
<g id="a_edge2_Node000002_Node000003"><a xlink:title=" ">
<path fill="none" stroke="#63b8ff" d="M194.1,-125.49C167.54,-114.72 126.03,-97.88 96.43,-85.87"/>
<polygon fill="#63b8ff" stroke="#63b8ff" points="97.47,-82.52 86.89,-82 94.84,-89 97.47,-82.52"/>
</a>
</g>
</g>
<!-- Node4 -->
<g id="Node000004" class="node">
<title>Node4</title>
<g id="a_Node000004"><a xlink:title=" ">
<polygon fill="#e0e0e0" stroke="#999999" points="178,-23 122,-23 122,0 178,0 178,-23"/>
<text text-anchor="middle" x="150" y="-7.8" font-family="Arial" font-size="14.00">cstdint</text>
</a>
</g>
</g>
<!-- Node2&#45;&gt;Node4 -->
<g id="edge5_Node000002_Node000004" class="edge">
<title>Node2&#45;&gt;Node4</title>
<g id="a_edge5_Node000002_Node000004"><a xlink:title=" ">
<path fill="none" stroke="#63b8ff" d="M206.8,-125.36C195.21,-115.34 178.73,-99.31 169,-82 160.51,-66.88 155.64,-47.75 152.96,-33.39"/>
<polygon fill="#63b8ff" stroke="#63b8ff" points="156.41,-32.78 151.32,-23.48 149.5,-33.92 156.41,-32.78"/>
</a>
</g>
</g>
<!-- Node2&#45;&gt;Node6 -->
<g id="edge6_Node000002_Node000006" class="edge">
<title>Node2&#45;&gt;Node6</title>
<g id="a_edge6_Node000002_Node000006"><a xlink:title=" ">
<path fill="none" stroke="#63b8ff" d="M236.02,-125.35C251.32,-115.17 274.61,-99.68 292.3,-87.93"/>
<polygon fill="#63b8ff" stroke="#63b8ff" points="294.57,-90.62 300.96,-82.17 290.69,-84.79 294.57,-90.62"/>
</a>
</g>
</g>
<!-- Node7 -->
<g id="Node000007" class="node">
<title>Node7</title>
<g id="a_Node000007"><a xlink:title=" ">
<polygon fill="#e0e0e0" stroke="#999999" points="262,-82 178,-82 178,-59 262,-59 262,-82"/>
<text text-anchor="middle" x="220" y="-66.8" font-family="Arial" font-size="14.00">string_view</text>
</a>
</g>
</g>
<!-- Node2&#45;&gt;Node7 -->
<g id="edge7_Node000002_Node000007" class="edge">
<title>Node2&#45;&gt;Node7</title>
<g id="a_edge7_Node000002_Node000007"><a xlink:title=" ">
<path fill="none" stroke="#63b8ff" d="M220,-125.35C220,-116.44 220,-103.46 220,-92.48"/>
<polygon fill="#63b8ff" stroke="#63b8ff" points="223.5,-92.38 220,-82.38 216.5,-92.38 223.5,-92.38"/>
</a>
</g>
</g>
<!-- Node3&#45;&gt;Node4 -->
<g id="edge3_Node000003_Node000004" class="edge">
<title>Node3&#45;&gt;Node4</title>
<g id="a_edge3_Node000003_Node000004"><a xlink:title=" ">
<path fill="none" stroke="#63b8ff" d="M77.74,-58.78C90.92,-50.34 109.5,-38.44 124.52,-28.82"/>
<polygon fill="#63b8ff" stroke="#63b8ff" points="126.8,-31.51 133.33,-23.17 123.03,-25.62 126.8,-31.51"/>
</a>
</g>
</g>
<!-- Node5 -->
<g id="Node000005" class="node">
<title>Node5</title>
<g id="a_Node000005"><a xlink:title=" ">
<polygon fill="#e0e0e0" stroke="#999999" points="85,-23 37,-23 37,0 85,0 85,-23"/>
<text text-anchor="middle" x="61" y="-7.8" font-family="Arial" font-size="14.00">limits</text>
</a>
</g>
</g>
<!-- Node3&#45;&gt;Node5 -->
<g id="edge4_Node000003_Node000005" class="edge">
<title>Node3&#45;&gt;Node5</title>
<g id="a_edge4_Node000003_Node000005"><a xlink:title=" ">
<path fill="none" stroke="#63b8ff" d="M61,-58.78C61,-51.61 61,-41.95 61,-33.31"/>
<polygon fill="#63b8ff" stroke="#63b8ff" points="64.5,-33.17 61,-23.17 57.5,-33.17 64.5,-33.17"/>
</a>
</g>
</g>
<!-- Node8&#45;&gt;Node4 -->
<g id="edge14_Node000008_Node000004" class="edge">
<title>Node8&#45;&gt;Node4</title>
<g id="a_edge14_Node000008_Node000004"><a xlink:title=" ">
<path fill="none" stroke="#63b8ff" d="M608.85,-125.34C593.34,-108.1 560.06,-74.46 524,-59 464.09,-33.32 270.92,-19.45 188.18,-14.56"/>
<polygon fill="#63b8ff" stroke="#63b8ff" points="188.38,-11.06 178.19,-13.98 187.97,-18.05 188.38,-11.06"/>
</a>
</g>
</g>
<!-- Node9 -->
<g id="Node000009" class="node">
<title>Node9</title>
<g id="a_Node000009"><a xlink:href="McuSelect_8h.html" target="_top" xlink:title="Centralized MCU platform selection and configuration header.">
<polygon fill="white" stroke="#666666" points="664,-82 572,-82 572,-59 664,-59 664,-82"/>
<text text-anchor="middle" x="618" y="-66.8" font-family="Arial" font-size="14.00">McuSelect.h</text>
</a>
</g>
</g>
<!-- Node8&#45;&gt;Node9 -->
<g id="edge9_Node000008_Node000009" class="edge">
<title>Node8&#45;&gt;Node9</title>
<g id="a_edge9_Node000008_Node000009"><a xlink:title=" ">
<path fill="none" stroke="#63b8ff" d="M618,-125.35C618,-116.44 618,-103.46 618,-92.48"/>
<polygon fill="#63b8ff" stroke="#63b8ff" points="621.5,-92.38 618,-82.38 614.5,-92.38 621.5,-92.38"/>
</a>
</g>
</g>
<!-- Node8&#45;&gt;Node10 -->
<g id="edge10_Node000008_Node000010" class="edge">
<title>Node8&#45;&gt;Node10</title>
<g id="a_edge10_Node000008_Node000010"><a xlink:title=" ">
<path fill="none" stroke="#63b8ff" d="M589.66,-125.49C560.33,-114.62 514.37,-97.59 481.93,-85.56"/>
<polygon fill="#63b8ff" stroke="#63b8ff" points="482.92,-82.2 472.33,-82 480.49,-88.76 482.92,-82.2"/>
</a>
</g>
</g>
<!-- Node11 -->
<g id="Node000011" class="node">
<title>Node11</title>
<g id="a_Node000011"><a xlink:title=" ">
<polygon fill="#e0e0e0" stroke="#999999" points="804,-82 682,-82 682,-59 804,-59 804,-82"/>
<text text-anchor="middle" x="743" y="-66.8" font-family="Arial" font-size="14.00">freertos/semphr.h</text>
</a>
</g>
</g>
<!-- Node8&#45;&gt;Node11 -->
<g id="edge11_Node000008_Node000011" class="edge">
<title>Node8&#45;&gt;Node11</title>
<g id="a_edge11_Node000008_Node000011"><a xlink:title=" ">
<path fill="none" stroke="#63b8ff" d="M638.36,-125.49C658.79,-114.95 690.46,-98.61 713.62,-86.66"/>
<polygon fill="#63b8ff" stroke="#63b8ff" points="715.37,-89.7 722.65,-82 712.16,-83.48 715.37,-89.7"/>
</a>
</g>
</g>
<!-- Node8&#45;&gt;Node12 -->
<g id="edge12_Node000008_Node000012" class="edge">
<title>Node8&#45;&gt;Node12</title>
<g id="a_edge12_Node000008_Node000012"><a xlink:title=" ">
<path fill="none" stroke="#63b8ff" d="M659.54,-125.49C703.81,-114.3 773.96,-96.55 821.66,-84.49"/>
<polygon fill="#63b8ff" stroke="#63b8ff" points="822.64,-87.85 831.48,-82 820.93,-81.06 822.64,-87.85"/>
</a>
</g>
</g>
<!-- Node8&#45;&gt;Node13 -->
<g id="edge13_Node000008_Node000013" class="edge">
<title>Node8&#45;&gt;Node13</title>
<g id="a_edge13_Node000008_Node000013"><a xlink:title=" ">
<path fill="none" stroke="#63b8ff" d="M678.75,-126.33C751.95,-114.55 871.68,-94.87 932.5,-81.9"/>
<polygon fill="#63b8ff" stroke="#63b8ff" points="933.42,-85.28 942.44,-79.72 931.93,-78.44 933.42,-85.28"/>
</a>
</g>
</g>
</g>
</svg>
