<?xml version="1.0" encoding="UTF-8" standalone="no"?>
<!DOCTYPE svg PUBLIC "-//W3C//DTD SVG 1.1//EN"
 "http://www.w3.org/Graphics/SVG/1.1/DTD/svg11.dtd">
<!-- Generated by graphviz version 2.43.0 (0)
 -->
<!-- Title: inc/mcu/esp32/EspTemperature.h Pages: 1 -->
<svg width="502pt" height="105pt"
 viewBox="0.00 0.00 502.00 105.00" xmlns="http://www.w3.org/2000/svg" xmlns:xlink="http://www.w3.org/1999/xlink">
<g id="graph0" class="graph" transform="scale(1 1) rotate(0) translate(4 101)">
<title>inc/mcu/esp32/EspTemperature.h</title>
<!-- Node1 -->
<g id="Node000001" class="node">
<title>Node1</title>
<g id="a_Node000001"><a xlink:title="ESP32&#45;C6 internal temperature sensor implementation for the HardFOC system.">
<polygon fill="#999999" stroke="#666666" points="358.5,-97 139.5,-97 139.5,-74 358.5,-74 358.5,-97"/>
<text text-anchor="middle" x="249" y="-81.8" font-family="Arial" font-size="14.00">inc/mcu/esp32/EspTemperature.h</text>
</a>
</g>
</g>
<!-- Node2 -->
<g id="Node000002" class="node">
<title>Node2</title>
<g id="a_Node000002"><a xlink:href="TemperatureComprehensiveTest_8cpp.html" target="_top" xlink:title="Comprehensive Temperature sensor testing suite for ESP32&#45;C6 DevKit&#45;M&#45;1 (noexcept)">
<polygon fill="white" stroke="#666666" points="242,-38 0,-38 0,0 242,0 242,-38"/>
<text text-anchor="start" x="8" y="-22.8" font-family="Arial" font-size="14.00">examples/esp32/main</text>
<text text-anchor="middle" x="121" y="-7.8" font-family="Arial" font-size="14.00">/TemperatureComprehensiveTest.cpp</text>
</a>
</g>
</g>
<!-- Node1&#45;&gt;Node2 -->
<g id="edge1_Node000001_Node000002" class="edge">
<title>Node1&#45;&gt;Node2</title>
<g id="a_edge1_Node000001_Node000002"><a xlink:title=" ">
<path fill="none" stroke="#63b8ff" d="M218.98,-69.37C200.39,-60.01 176.43,-47.93 156.86,-38.07"/>
<polygon fill="#63b8ff" stroke="#63b8ff" points="217.64,-72.62 228.15,-73.99 220.79,-66.37 217.64,-72.62"/>
</a>
</g>
</g>
<!-- Node3 -->
<g id="Node000003" class="node">
<title>Node3</title>
<g id="a_Node000003"><a xlink:href="EspTemperature_8cpp.html" target="_top" xlink:title="ESP32&#45;C6 internal temperature sensor implementation for the HardFOC system.">
<polygon fill="white" stroke="#666666" points="494,-30.5 260,-30.5 260,-7.5 494,-7.5 494,-30.5"/>
<text text-anchor="middle" x="377" y="-15.3" font-family="Arial" font-size="14.00">src/mcu/esp32/EspTemperature.cpp</text>
</a>
</g>
</g>
<!-- Node1&#45;&gt;Node3 -->
<g id="edge2_Node000001_Node000003" class="edge">
<title>Node1&#45;&gt;Node3</title>
<g id="a_edge2_Node000001_Node000003"><a xlink:title=" ">
<path fill="none" stroke="#63b8ff" d="M278.78,-69.49C302.52,-57.53 335.15,-41.09 356.16,-30.5"/>
<polygon fill="#63b8ff" stroke="#63b8ff" points="277.21,-66.37 269.85,-73.99 280.36,-72.62 277.21,-66.37"/>
</a>
</g>
</g>
</g>
</svg>
