<?xml version="1.0" encoding="UTF-8" standalone="no"?>
<!DOCTYPE svg PUBLIC "-//W3C//DTD SVG 1.1//EN"
 "http://www.w3.org/Graphics/SVG/1.1/DTD/svg11.dtd">
<!-- Generated by graphviz version 2.43.0 (0)
 -->
<!-- Title: inc/mcu/esp32/utils/EspTypes_GPIO.h Pages: 1 -->
<!--zoomable 357 -->

<svg id="main" version="1.1" xmlns="http://www.w3.org/2000/svg" xmlns:xlink="http://www.w3.org/1999/xlink" xml:space="preserve" onload="init(evt)">
<style type="text/css"><![CDATA[
.node, .edge {opacity: 0.7;}
.node.selected, .edge.selected {opacity: 1;}
.edge:hover path { stroke: red; }
.edge:hover polygon { stroke: red; fill: red; }
]]></style>

<defs>
  <circle id="rim" cx="0" cy="0" r="7"/>
  <circle id="rim2" cx="0" cy="0" r="3.5"/>
  <g id="zoomPlus">
    <use xlink:href="#rim" fill="#404040"><set attributeName="fill" to="#808080" begin="zoomplus.mouseover" end="zoomplus.mouseout"/></use>
    <path d="M-4,0h8M0,-4v8" fill="none" stroke="white" stroke-width="1.5" pointer-events="none"/>
  </g>
  <g id="zoomMin">
    <use xlink:href="#rim" fill="#404040"><set attributeName="fill" to="#808080" begin="zoomminus.mouseover" end="zoomminus.mouseout"/></use>
    <path d="M-4,0h8" fill="none" stroke="white" stroke-width="1.5" pointer-events="none"/>
  </g>
  <g id="arrowUp" transform="translate(30 24)">
    <use xlink:href="#rim"/>
    <path pointer-events="none" fill="none" stroke="white" stroke-width="1.5" d="M0,-3.0v7 M-2.5,-0.5L0,-3.0L2.5,-0.5"/>
  </g>
  <g id="arrowRight" transform="rotate(90) translate(36 -43)">
    <use xlink:href="#rim"/>
    <path pointer-events="none" fill="none" stroke="white" stroke-width="1.5" d="M0,-3.0v7 M-2.5,-0.5L0,-3.0L2.5,-0.5"/>
  </g>
  <g id="arrowDown" transform="rotate(180) translate(-30 -48)">
    <use xlink:href="#rim"/>
    <path pointer-events="none" fill="none" stroke="white" stroke-width="1.5" d="M0,-3.0v7 M-2.5,-0.5L0,-3.0L2.5,-0.5"/>
  </g>
  <g id="arrowLeft" transform="rotate(270) translate(-36 17)">
    <use xlink:href="#rim"/>
    <path pointer-events="none" fill="none" stroke="white" stroke-width="1.5" d="M0,-3.0v7 M-2.5,-0.5L0,-3.0L2.5,-0.5"/>
  </g>
  <g id="resetDef">
    <use xlink:href="#rim2" fill="#404040"><set attributeName="fill" to="#808080" begin="reset.mouseover" end="reset.mouseout"/></use>
  </g>
</defs>
<script type="application/ecmascript">
var viewWidth = 4479;
var viewHeight = 357;
var sectionId = 'dynsection-1';
</script>
<script type="application/ecmascript" xlink:href="svg.min.js"/>
<svg id="graph" class="graph">
<g id="viewport">
<title>inc/mcu/esp32/utils/EspTypes_GPIO.h</title>
<!-- Node1 -->
<g id="Node000001" class="node">
<title>Node1</title>
<g id="a_Node000001"><a xlink:title="ESP32 GPIO type definitions for hardware abstraction.">
<polygon fill="#999999" stroke="#666666" points="2083.5,-349 1949.5,-349 1949.5,-311 2083.5,-311 2083.5,-349"/>
<text text-anchor="start" x="1957.5" y="-333.8" font-family="Arial" font-size="14.00">inc/mcu/esp32/utils</text>
<text text-anchor="middle" x="2016.5" y="-318.8" font-family="Arial" font-size="14.00">/EspTypes_GPIO.h</text>
</a>
</g>
</g>
<!-- Node2 -->
<g id="Node000002" class="node">
<title>Node2</title>
<g id="a_Node000002"><a xlink:href="GpioComprehensiveTest_8cpp.html" target="_top" xlink:title="Comprehensive GPIO testing suite for ESP32&#45;C6 DevKit&#45;M&#45;1 (noexcept)">
<polygon fill="white" stroke="#666666" points="446,-45.5 251,-45.5 251,-7.5 446,-7.5 446,-45.5"/>
<text text-anchor="start" x="259" y="-30.3" font-family="Arial" font-size="14.00">examples/esp32/main</text>
<text text-anchor="middle" x="348.5" y="-15.3" font-family="Arial" font-size="14.00">/GpioComprehensiveTest.cpp</text>
</a>
</g>
</g>
<!-- Node1&#45;&gt;Node2 -->
<g id="edge1_Node000001_Node000002" class="edge">
<title>Node1&#45;&gt;Node2</title>
<g id="a_edge1_Node000001_Node000002"><a xlink:title=" ">
<path fill="none" stroke="#63b8ff" d="M1939.5,-315.58C1754.51,-283.32 1270.46,-198.76 866.5,-127 683.33,-94.46 636.57,-91.22 454.5,-53 443.66,-50.73 432.24,-48.16 421.07,-45.55"/>
<polygon fill="#63b8ff" stroke="#63b8ff" points="1938.95,-319.04 1949.4,-317.31 1940.15,-312.14 1938.95,-319.04"/>
</a>
</g>
</g>
<!-- Node3 -->
<g id="Node000003" class="node">
<title>Node3</title>
<g id="a_Node000003"><a xlink:href="EspGpio_8h.html" target="_top" xlink:title="Advanced MCU&#45;specific implementation of the unified BaseGpio class with ESP32/ESP&#45;IDF v5....">
<polygon fill="white" stroke="#666666" points="1932.5,-193.5 1760.5,-193.5 1760.5,-170.5 1932.5,-170.5 1932.5,-193.5"/>
<text text-anchor="middle" x="1846.5" y="-178.3" font-family="Arial" font-size="14.00">inc/mcu/esp32/EspGpio.h</text>
</a>
</g>
</g>
<!-- Node1&#45;&gt;Node3 -->
<g id="edge2_Node000001_Node000003" class="edge">
<title>Node1&#45;&gt;Node3</title>
<g id="a_edge2_Node000001_Node000003"><a xlink:title=" ">
<path fill="none" stroke="#63b8ff" d="M1987.7,-304.26C1950,-271.89 1885.58,-216.56 1858.77,-193.54"/>
<polygon fill="#63b8ff" stroke="#63b8ff" points="1985.45,-306.94 1995.31,-310.8 1990.01,-301.63 1985.45,-306.94"/>
</a>
</g>
</g>
<!-- Node21 -->
<g id="Node000021" class="node">
<title>Node21</title>
<g id="a_Node000021"><a xlink:href="EspTypes_8h.html" target="_top" xlink:title="Consolidated MCU&#45;specific type definitions for hardware abstraction (hf_* types).">
<polygon fill="white" stroke="#666666" points="2984.5,-201 2852.5,-201 2852.5,-163 2984.5,-163 2984.5,-201"/>
<text text-anchor="start" x="2860.5" y="-185.8" font-family="Arial" font-size="14.00">inc/mcu/esp32/utils</text>
<text text-anchor="middle" x="2918.5" y="-170.8" font-family="Arial" font-size="14.00">/EspTypes.h</text>
</a>
</g>
</g>
<!-- Node1&#45;&gt;Node21 -->
<g id="edge27_Node000001_Node000021" class="edge">
<title>Node1&#45;&gt;Node21</title>
<g id="a_edge27_Node000001_Node000021"><a xlink:title=" ">
<path fill="none" stroke="#63b8ff" d="M2093.67,-316.51C2267.83,-288.32 2688.92,-220.16 2852.22,-193.73"/>
<polygon fill="#63b8ff" stroke="#63b8ff" points="2092.87,-313.09 2083.56,-318.15 2093.99,-320 2092.87,-313.09"/>
</a>
</g>
</g>
<!-- Node32 -->
<g id="Node000032" class="node">
<title>Node32</title>
<g id="a_Node000032"><a xlink:href="EspTypes__PWM_8h.html" target="_top" xlink:title="ESP32 PWM type definitions for LEDC peripheral hardware abstraction.">
<polygon fill="white" stroke="#666666" points="2158,-275 2025,-275 2025,-237 2158,-237 2158,-275"/>
<text text-anchor="start" x="2033" y="-259.8" font-family="Arial" font-size="14.00">inc/mcu/esp32/utils</text>
<text text-anchor="middle" x="2091.5" y="-244.8" font-family="Arial" font-size="14.00">/EspTypes_PWM.h</text>
</a>
</g>
</g>
<!-- Node1&#45;&gt;Node32 -->
<g id="edge43_Node000001_Node000032" class="edge">
<title>Node1&#45;&gt;Node32</title>
<g id="a_edge43_Node000001_Node000032"><a xlink:title=" ">
<path fill="none" stroke="#63b8ff" d="M2042.68,-303.87C2052.53,-294.41 2063.52,-283.86 2072.58,-275.16"/>
<polygon fill="#63b8ff" stroke="#63b8ff" points="2040.22,-301.38 2035.43,-310.83 2045.06,-306.43 2040.22,-301.38"/>
</a>
</g>
</g>
<!-- Node3&#45;&gt;Node2 -->
<g id="edge4_Node000003_Node000002" class="edge">
<title>Node3&#45;&gt;Node2</title>
<g id="a_edge4_Node000003_Node000002"><a xlink:title=" ">
<path fill="none" stroke="#63b8ff" d="M1750.31,-173.01C1629.39,-162.86 1415.5,-144.55 1232.5,-127 1069.71,-111.39 1029.3,-104.56 866.5,-89 683.53,-71.51 635.91,-82.58 454.5,-53 442.26,-51.01 429.35,-48.36 416.91,-45.53"/>
<polygon fill="#63b8ff" stroke="#63b8ff" points="1750.03,-176.5 1760.28,-173.85 1750.61,-169.52 1750.03,-176.5"/>
</a>
</g>
</g>
<!-- Node4 -->
<g id="Node000004" class="node">
<title>Node4</title>
<g id="a_Node000004"><a xlink:href="DigitalOutputGuardComprehensiveTest_8cpp.html" target="_top" xlink:title="DigitalOutputGuard comprehensive test suite for ESP32&#45;C6 DevKit&#45;M&#45;1.">
<polygon fill="white" stroke="#666666" points="233,-53 0,-53 0,0 233,0 233,-53"/>
<text text-anchor="start" x="8" y="-37.8" font-family="Arial" font-size="14.00">examples/esp32/main</text>
<text text-anchor="start" x="8" y="-22.8" font-family="Arial" font-size="14.00">/DigitalOutputGuardComprehensive</text>
<text text-anchor="middle" x="116.5" y="-7.8" font-family="Arial" font-size="14.00">Test.cpp</text>
</a>
</g>
</g>
<!-- Node3&#45;&gt;Node4 -->
<g id="edge3_Node000003_Node000004" class="edge">
<title>Node3&#45;&gt;Node4</title>
<g id="a_edge3_Node000003_Node000004"><a xlink:title=" ">
<path fill="none" stroke="#63b8ff" d="M1750.07,-178.7C1499.65,-171.58 808.68,-144.48 241.5,-53 238.77,-52.56 236,-52.1 233.22,-51.63"/>
<polygon fill="#63b8ff" stroke="#63b8ff" points="1750.14,-182.21 1760.23,-178.99 1750.33,-175.21 1750.14,-182.21"/>
</a>
</g>
</g>
<!-- Node5 -->
<g id="Node000005" class="node">
<title>Node5</title>
<g id="a_Node000005"><a xlink:href="I2cComprehensiveTest_8cpp.html" target="_top" xlink:title="Comprehensive I2C testing suite for ESP32&#45;C6 DevKit&#45;M&#45;1 (noexcept)">
<polygon fill="white" stroke="#666666" points="3486.5,-45.5 3302.5,-45.5 3302.5,-7.5 3486.5,-7.5 3486.5,-45.5"/>
<text text-anchor="start" x="3310.5" y="-30.3" font-family="Arial" font-size="14.00">examples/esp32/main</text>
<text text-anchor="middle" x="3394.5" y="-15.3" font-family="Arial" font-size="14.00">/I2cComprehensiveTest.cpp</text>
</a>
</g>
</g>
<!-- Node3&#45;&gt;Node5 -->
<g id="edge5_Node000003_Node000005" class="edge">
<title>Node3&#45;&gt;Node5</title>
<g id="a_edge5_Node000003_Node000005"><a xlink:title=" ">
<path fill="none" stroke="#63b8ff" d="M1901.36,-167.7C1932.12,-158.85 1970.43,-145.43 2001.5,-127 2023.15,-114.16 2020.14,-98.39 2043.5,-89 2172.43,-37.19 3155.88,-72.12 3293.5,-53 3306.04,-51.26 3319.27,-48.56 3331.88,-45.56"/>
<polygon fill="#63b8ff" stroke="#63b8ff" points="1900.34,-164.35 1891.65,-170.41 1902.23,-171.09 1900.34,-164.35"/>
</a>
</g>
</g>
<!-- Node6 -->
<g id="Node000006" class="node">
<title>Node6</title>
<g id="a_Node000006"><a xlink:href="PioComprehensiveTest_8cpp.html" target="_top" xlink:title="Comprehensive PIO testing suite for ESP32&#45;C6 DevKit&#45;M&#45;1 with RMT peripheral (noexcept)">
<polygon fill="white" stroke="#666666" points="3081,-45.5 2896,-45.5 2896,-7.5 3081,-7.5 3081,-45.5"/>
<text text-anchor="start" x="2904" y="-30.3" font-family="Arial" font-size="14.00">examples/esp32/main</text>
<text text-anchor="middle" x="2988.5" y="-15.3" font-family="Arial" font-size="14.00">/PioComprehensiveTest.cpp</text>
</a>
</g>
</g>
<!-- Node3&#45;&gt;Node6 -->
<g id="edge6_Node000003_Node000006" class="edge">
<title>Node3&#45;&gt;Node6</title>
<g id="a_edge6_Node000003_Node000006"><a xlink:title=" ">
<path fill="none" stroke="#63b8ff" d="M1884.61,-166.54C1908.38,-156.81 1939.16,-142.88 1964.5,-127 1986.97,-112.92 1985.74,-98.48 2010.5,-89 2192.65,-19.24 2694.47,-81.02 2887.5,-53 2899.94,-51.19 2913.07,-48.49 2925.6,-45.51"/>
<polygon fill="#63b8ff" stroke="#63b8ff" points="1883.19,-163.34 1875.22,-170.32 1885.8,-169.83 1883.19,-163.34"/>
</a>
</g>
</g>
<!-- Node7 -->
<g id="Node000007" class="node">
<title>Node7</title>
<g id="a_Node000007"><a xlink:href="PwmComprehensiveTest_8cpp.html" target="_top" xlink:title="Comprehensive PWM testing suite for ESP32 family (noexcept)">
<polygon fill="white" stroke="#666666" points="661,-45.5 464,-45.5 464,-7.5 661,-7.5 661,-45.5"/>
<text text-anchor="start" x="472" y="-30.3" font-family="Arial" font-size="14.00">examples/esp32/main</text>
<text text-anchor="middle" x="562.5" y="-15.3" font-family="Arial" font-size="14.00">/PwmComprehensiveTest.cpp</text>
</a>
</g>
</g>
<!-- Node3&#45;&gt;Node7 -->
<g id="edge7_Node000003_Node000007" class="edge">
<title>Node3&#45;&gt;Node7</title>
<g id="a_edge7_Node000003_Node000007"><a xlink:title=" ">
<path fill="none" stroke="#63b8ff" d="M1770.81,-168.84C1630.65,-146.45 1335.62,-100 1232.5,-89 983.18,-62.4 917.46,-90.2 669.5,-53 656.75,-51.09 643.29,-48.41 630.37,-45.51"/>
<polygon fill="#63b8ff" stroke="#63b8ff" points="1770.6,-172.35 1781.03,-170.47 1771.71,-165.44 1770.6,-172.35"/>
</a>
</g>
</g>
<!-- Node8 -->
<g id="Node000008" class="node">
<title>Node8</title>
<g id="a_Node000008"><a xlink:href="TestFramework_8h.html" target="_top" xlink:title="Shared testing framework for ESP32&#45;C6 comprehensive test suites.">
<polygon fill="white" stroke="#666666" points="1921,-127 1772,-127 1772,-89 1921,-89 1921,-127"/>
<text text-anchor="start" x="1780" y="-111.8" font-family="Arial" font-size="14.00">examples/esp32/main</text>
<text text-anchor="middle" x="1846.5" y="-96.8" font-family="Arial" font-size="14.00">/TestFramework.h</text>
</a>
</g>
</g>
<!-- Node3&#45;&gt;Node8 -->
<g id="edge8_Node000003_Node000008" class="edge">
<title>Node3&#45;&gt;Node8</title>
<g id="a_edge8_Node000003_Node000008"><a xlink:title=" ">
<path fill="none" stroke="#63b8ff" d="M1846.5,-160.1C1846.5,-149.69 1846.5,-137.23 1846.5,-127.21"/>
<polygon fill="#63b8ff" stroke="#63b8ff" points="1843,-160.38 1846.5,-170.38 1850,-160.38 1843,-160.38"/>
</a>
</g>
</g>
<!-- Node18 -->
<g id="Node000018" class="node">
<title>Node18</title>
<g id="a_Node000018"><a xlink:href="UartComprehensiveTest_8cpp.html" target="_top" xlink:title="Comprehensive UART testing suite for ESP32&#45;C6 DevKit&#45;M&#45;1 (noexcept)">
<polygon fill="white" stroke="#666666" points="2878,-45.5 2687,-45.5 2687,-7.5 2878,-7.5 2878,-45.5"/>
<text text-anchor="start" x="2695" y="-30.3" font-family="Arial" font-size="14.00">examples/esp32/main</text>
<text text-anchor="middle" x="2782.5" y="-15.3" font-family="Arial" font-size="14.00">/UartComprehensiveTest.cpp</text>
</a>
</g>
</g>
<!-- Node3&#45;&gt;Node18 -->
<g id="edge25_Node000003_Node000018" class="edge">
<title>Node3&#45;&gt;Node18</title>
<g id="a_edge25_Node000003_Node000018"><a xlink:title=" ">
<path fill="none" stroke="#63b8ff" d="M1873.17,-165.04C1889.78,-154.76 1911.37,-140.79 1929.5,-127 1949.8,-111.56 1948.89,-98.63 1972.5,-89 2117.95,-29.66 2523.07,-75.81 2678.5,-53 2691.1,-51.15 2704.4,-48.47 2717.13,-45.52"/>
<polygon fill="#63b8ff" stroke="#63b8ff" points="1871.2,-162.14 1864.5,-170.35 1874.86,-168.11 1871.2,-162.14"/>
</a>
</g>
</g>
<!-- Node20 -->
<g id="Node000020" class="node">
<title>Node20</title>
<g id="a_Node000020"><a xlink:href="EspGpio_8cpp.html" target="_top" xlink:title="Production&#45;quality ESP32 GPIO implementation with ESP&#45;IDF v5.5+ advanced features.">
<polygon fill="white" stroke="#666666" points="1717,-119.5 1530,-119.5 1530,-96.5 1717,-96.5 1717,-119.5"/>
<text text-anchor="middle" x="1623.5" y="-104.3" font-family="Arial" font-size="14.00">src/mcu/esp32/EspGpio.cpp</text>
</a>
</g>
</g>
<!-- Node3&#45;&gt;Node20 -->
<g id="edge26_Node000003_Node000020" class="edge">
<title>Node3&#45;&gt;Node20</title>
<g id="a_edge26_Node000003_Node000020"><a xlink:title=" ">
<path fill="none" stroke="#63b8ff" d="M1803.97,-167.27C1760.93,-153.37 1695.3,-132.18 1656.18,-119.55"/>
<polygon fill="#63b8ff" stroke="#63b8ff" points="1803,-170.63 1813.6,-170.38 1805.15,-163.97 1803,-170.63"/>
</a>
</g>
</g>
<!-- Node8&#45;&gt;Node2 -->
<g id="edge14_Node000008_Node000002" class="edge">
<title>Node8&#45;&gt;Node2</title>
<g id="a_edge14_Node000008_Node000002"><a xlink:title=" ">
<path fill="none" stroke="#63b8ff" d="M1761.68,-93.07C1749.57,-91.47 1737.23,-90.04 1725.5,-89 1162.57,-39.34 1014.68,-127.49 454.5,-53 441.37,-51.25 427.49,-48.56 414.26,-45.56"/>
<polygon fill="#63b8ff" stroke="#63b8ff" points="1761.41,-96.57 1771.79,-94.46 1762.36,-89.64 1761.41,-96.57"/>
</a>
</g>
</g>
<!-- Node8&#45;&gt;Node4 -->
<g id="edge13_Node000008_Node000004" class="edge">
<title>Node8&#45;&gt;Node4</title>
<g id="a_edge13_Node000008_Node000004"><a xlink:title=" ">
<path fill="none" stroke="#63b8ff" d="M1761.69,-93.03C1749.57,-91.43 1737.24,-90.01 1725.5,-89 1068.19,-32.35 897.06,-127.23 241.5,-53 238.75,-52.69 235.97,-52.35 233.17,-51.98"/>
<polygon fill="#63b8ff" stroke="#63b8ff" points="1761.41,-96.53 1771.8,-94.41 1762.36,-89.59 1761.41,-96.53"/>
</a>
</g>
</g>
<!-- Node8&#45;&gt;Node5 -->
<g id="edge15_Node000008_Node000005" class="edge">
<title>Node8&#45;&gt;Node5</title>
<g id="a_edge15_Node000008_Node000005"><a xlink:title=" ">
<path fill="none" stroke="#63b8ff" d="M1931.09,-96.39C1956.57,-93.55 1984.64,-90.78 2010.5,-89 2579.6,-49.85 2728.45,-131.29 3293.5,-53 3306.13,-51.25 3319.46,-48.53 3332.15,-45.51"/>
<polygon fill="#63b8ff" stroke="#63b8ff" points="1930.63,-92.92 1921.09,-97.52 1931.42,-99.87 1930.63,-92.92"/>
</a>
</g>
</g>
<!-- Node8&#45;&gt;Node6 -->
<g id="edge18_Node000008_Node000006" class="edge">
<title>Node8&#45;&gt;Node6</title>
<g id="a_edge18_Node000008_Node000006"><a xlink:title=" ">
<path fill="none" stroke="#63b8ff" d="M1931.25,-93.68C1945.01,-91.87 1959.13,-90.21 1972.5,-89 2377.81,-52.17 2484.69,-111.13 2887.5,-53 2899.94,-51.2 2913.07,-48.5 2925.6,-45.52"/>
<polygon fill="#63b8ff" stroke="#63b8ff" points="1930.75,-90.22 1921.31,-95.02 1931.69,-97.15 1930.75,-90.22"/>
</a>
</g>
</g>
<!-- Node8&#45;&gt;Node7 -->
<g id="edge19_Node000008_Node000007" class="edge">
<title>Node8&#45;&gt;Node7</title>
<g id="a_edge19_Node000008_Node000007"><a xlink:title=" ">
<path fill="none" stroke="#63b8ff" d="M1761.77,-89.4C1760.67,-89.26 1759.58,-89.13 1758.5,-89 1277.57,-32.28 1149.46,-117.46 669.5,-53 656.25,-51.22 642.25,-48.51 628.89,-45.51"/>
<polygon fill="#63b8ff" stroke="#63b8ff" points="1761.35,-92.88 1771.75,-90.82 1762.34,-85.95 1761.35,-92.88"/>
</a>
</g>
</g>
<!-- Node9 -->
<g id="Node000009" class="node">
<title>Node9</title>
<g id="a_Node000009"><a xlink:href="AdcComprehensiveTest_8cpp.html" target="_top" xlink:title="Comprehensive ADC testing suite for ESP32&#45;C6 DevKit&#45;M&#45;1 (noexcept)">
<polygon fill="white" stroke="#666666" points="868,-45.5 679,-45.5 679,-7.5 868,-7.5 868,-45.5"/>
<text text-anchor="start" x="687" y="-30.3" font-family="Arial" font-size="14.00">examples/esp32/main</text>
<text text-anchor="middle" x="773.5" y="-15.3" font-family="Arial" font-size="14.00">/AdcComprehensiveTest.cpp</text>
</a>
</g>
</g>
<!-- Node8&#45;&gt;Node9 -->
<g id="edge9_Node000008_Node000009" class="edge">
<title>Node8&#45;&gt;Node9</title>
<g id="a_edge9_Node000008_Node000009"><a xlink:title=" ">
<path fill="none" stroke="#63b8ff" d="M1761.77,-89.41C1760.67,-89.27 1759.58,-89.13 1758.5,-89 1369.5,-41.58 1265.51,-107.93 877.5,-53 864.8,-51.2 851.39,-48.52 838.58,-45.56"/>
<polygon fill="#63b8ff" stroke="#63b8ff" points="1761.34,-92.89 1771.74,-90.86 1762.35,-85.96 1761.34,-92.89"/>
</a>
</g>
</g>
<!-- Node10 -->
<g id="Node000010" class="node">
<title>Node10</title>
<g id="a_Node000010"><a xlink:href="AsciiArtComprehensiveTest_8cpp.html" target="_top" xlink:title="ASCII Art Generator comprehensive example and test suite for ESP32&#45;C6 DevKit&#45;M&#45;1 (noexcept)">
<polygon fill="white" stroke="#666666" points="1098.5,-45.5 886.5,-45.5 886.5,-7.5 1098.5,-7.5 1098.5,-45.5"/>
<text text-anchor="start" x="894.5" y="-30.3" font-family="Arial" font-size="14.00">examples/esp32/main</text>
<text text-anchor="middle" x="992.5" y="-15.3" font-family="Arial" font-size="14.00">/AsciiArtComprehensiveTest.cpp</text>
</a>
</g>
</g>
<!-- Node8&#45;&gt;Node10 -->
<g id="edge10_Node000008_Node000010" class="edge">
<title>Node8&#45;&gt;Node10</title>
<g id="a_edge10_Node000008_Node000010"><a xlink:title=" ">
<path fill="none" stroke="#63b8ff" d="M1761.77,-89.44C1760.67,-89.29 1759.58,-89.14 1758.5,-89 1470.67,-51.82 1393.98,-92.81 1106.5,-53 1092.94,-51.12 1078.61,-48.46 1064.85,-45.56"/>
<polygon fill="#63b8ff" stroke="#63b8ff" points="1761.32,-92.91 1771.73,-90.93 1762.36,-85.99 1761.32,-92.91"/>
</a>
</g>
</g>
<!-- Node11 -->
<g id="Node000011" class="node">
<title>Node11</title>
<g id="a_Node000011"><a xlink:href="BluetoothComprehensiveTest_8cpp.html" target="_top" xlink:title="Comprehensive Bluetooth/NimBLE testing suite for ESP32&#45;C6 DevKit&#45;M&#45;1 (noexcept)">
<polygon fill="white" stroke="#666666" points="1339,-45.5 1116,-45.5 1116,-7.5 1339,-7.5 1339,-45.5"/>
<text text-anchor="start" x="1124" y="-30.3" font-family="Arial" font-size="14.00">examples/esp32/main</text>
<text text-anchor="middle" x="1227.5" y="-15.3" font-family="Arial" font-size="14.00">/BluetoothComprehensiveTest.cpp</text>
</a>
</g>
</g>
<!-- Node8&#45;&gt;Node11 -->
<g id="edge11_Node000008_Node000011" class="edge">
<title>Node8&#45;&gt;Node11</title>
<g id="a_edge11_Node000008_Node000011"><a xlink:title=" ">
<path fill="none" stroke="#63b8ff" d="M1761.76,-89.49C1760.67,-89.32 1759.58,-89.16 1758.5,-89 1577.05,-62.58 1528.85,-80.11 1347.5,-53 1333.91,-50.97 1319.56,-48.34 1305.68,-45.55"/>
<polygon fill="#63b8ff" stroke="#63b8ff" points="1761.28,-92.95 1771.71,-91.1 1762.4,-86.04 1761.28,-92.95"/>
</a>
</g>
</g>
<!-- Node12 -->
<g id="Node000012" class="node">
<title>Node12</title>
<g id="a_Node000012"><a xlink:href="CanComprehensiveTest_8cpp.html" target="_top" xlink:title="Comprehensive CAN testing suite for ESP32&#45;C6 with ESP&#45;IDF v5.5 TWAI API and SN65 transceiver.">
<polygon fill="white" stroke="#666666" points="1548,-45.5 1357,-45.5 1357,-7.5 1548,-7.5 1548,-45.5"/>
<text text-anchor="start" x="1365" y="-30.3" font-family="Arial" font-size="14.00">examples/esp32/main</text>
<text text-anchor="middle" x="1452.5" y="-15.3" font-family="Arial" font-size="14.00">/CanComprehensiveTest.cpp</text>
</a>
</g>
</g>
<!-- Node8&#45;&gt;Node12 -->
<g id="edge12_Node000008_Node000012" class="edge">
<title>Node8&#45;&gt;Node12</title>
<g id="a_edge12_Node000008_Node000012"><a xlink:title=" ">
<path fill="none" stroke="#63b8ff" d="M1761.74,-89.62C1760.65,-89.41 1759.57,-89.21 1758.5,-89 1669.37,-71.91 1646.3,-71.72 1557.5,-53 1546.67,-50.72 1535.25,-48.13 1524.1,-45.51"/>
<polygon fill="#63b8ff" stroke="#63b8ff" points="1761.15,-93.07 1771.63,-91.56 1762.49,-86.2 1761.15,-93.07"/>
</a>
</g>
</g>
<!-- Node13 -->
<g id="Node000013" class="node">
<title>Node13</title>
<g id="a_Node000013"><a xlink:href="LoggerComprehensiveTest_8cpp.html" target="_top" xlink:title="Comprehensive Logger testing suite for ESP32&#45;C6 DevKit&#45;M&#45;1 (noexcept)">
<polygon fill="white" stroke="#666666" points="1774.5,-45.5 1566.5,-45.5 1566.5,-7.5 1774.5,-7.5 1774.5,-45.5"/>
<text text-anchor="start" x="1574.5" y="-30.3" font-family="Arial" font-size="14.00">examples/esp32/main</text>
<text text-anchor="middle" x="1670.5" y="-15.3" font-family="Arial" font-size="14.00">/LoggerComprehensiveTest.cpp</text>
</a>
</g>
</g>
<!-- Node8&#45;&gt;Node13 -->
<g id="edge16_Node000008_Node000013" class="edge">
<title>Node8&#45;&gt;Node13</title>
<g id="a_edge16_Node000008_Node000013"><a xlink:title=" ">
<path fill="none" stroke="#63b8ff" d="M1797.18,-84.72C1769.84,-72.37 1736.29,-57.22 1710.58,-45.61"/>
<polygon fill="#63b8ff" stroke="#63b8ff" points="1796.01,-88.03 1806.56,-88.96 1798.89,-81.65 1796.01,-88.03"/>
</a>
</g>
</g>
<!-- Node14 -->
<g id="Node000014" class="node">
<title>Node14</title>
<g id="a_Node000014"><a xlink:href="NvsComprehensiveTest_8cpp.html" target="_top" xlink:title="Comprehensive NVS (Non&#45;Volatile Storage) testing suite for ESP32&#45;C6 DevKit&#45;M&#45;1 (noexcept)">
<polygon fill="white" stroke="#666666" points="1982,-45.5 1793,-45.5 1793,-7.5 1982,-7.5 1982,-45.5"/>
<text text-anchor="start" x="1801" y="-30.3" font-family="Arial" font-size="14.00">examples/esp32/main</text>
<text text-anchor="middle" x="1887.5" y="-15.3" font-family="Arial" font-size="14.00">/NvsComprehensiveTest.cpp</text>
</a>
</g>
</g>
<!-- Node8&#45;&gt;Node14 -->
<g id="edge17_Node000008_Node000014" class="edge">
<title>Node8&#45;&gt;Node14</title>
<g id="a_edge17_Node000008_Node000014"><a xlink:title=" ">
<path fill="none" stroke="#63b8ff" d="M1860.46,-79.94C1866.27,-68.67 1872.87,-55.87 1878.09,-45.74"/>
<polygon fill="#63b8ff" stroke="#63b8ff" points="1857.28,-78.47 1855.8,-88.96 1863.5,-81.68 1857.28,-78.47"/>
</a>
</g>
</g>
<!-- Node15 -->
<g id="Node000015" class="node">
<title>Node15</title>
<g id="a_Node000015"><a xlink:href="SpiComprehensiveTest_8cpp.html" target="_top" xlink:title="Comprehensive SPI testing suite for ESP32&#45;C6 DevKit&#45;M&#45;1 (noexcept)">
<polygon fill="white" stroke="#666666" points="3284,-45.5 3099,-45.5 3099,-7.5 3284,-7.5 3284,-45.5"/>
<text text-anchor="start" x="3107" y="-30.3" font-family="Arial" font-size="14.00">examples/esp32/main</text>
<text text-anchor="middle" x="3191.5" y="-15.3" font-family="Arial" font-size="14.00">/SpiComprehensiveTest.cpp</text>
</a>
</g>
</g>
<!-- Node8&#45;&gt;Node15 -->
<g id="edge20_Node000008_Node000015" class="edge">
<title>Node8&#45;&gt;Node15</title>
<g id="a_edge20_Node000008_Node000015"><a xlink:title=" ">
<path fill="none" stroke="#63b8ff" d="M1931.09,-96.47C1956.58,-93.64 1984.65,-90.85 2010.5,-89 2489.55,-54.78 2614.95,-120.17 3090.5,-53 3103.04,-51.23 3116.27,-48.52 3128.88,-45.52"/>
<polygon fill="#63b8ff" stroke="#63b8ff" points="1930.64,-93 1921.09,-97.6 1931.42,-99.96 1930.64,-93"/>
</a>
</g>
</g>
<!-- Node16 -->
<g id="Node000016" class="node">
<title>Node16</title>
<g id="a_Node000016"><a xlink:href="TemperatureComprehensiveTest_8cpp.html" target="_top" xlink:title="Comprehensive Temperature sensor testing suite for ESP32&#45;C6 DevKit&#45;M&#45;1 (noexcept)">
<polygon fill="white" stroke="#666666" points="2242.5,-45.5 2000.5,-45.5 2000.5,-7.5 2242.5,-7.5 2242.5,-45.5"/>
<text text-anchor="start" x="2008.5" y="-30.3" font-family="Arial" font-size="14.00">examples/esp32/main</text>
<text text-anchor="middle" x="2121.5" y="-15.3" font-family="Arial" font-size="14.00">/TemperatureComprehensiveTest.cpp</text>
</a>
</g>
</g>
<!-- Node8&#45;&gt;Node16 -->
<g id="edge21_Node000008_Node000016" class="edge">
<title>Node8&#45;&gt;Node16</title>
<g id="a_edge21_Node000008_Node000016"><a xlink:title=" ">
<path fill="none" stroke="#63b8ff" d="M1918.58,-86.16C1962.14,-73.57 2017.13,-57.67 2058.87,-45.61"/>
<polygon fill="#63b8ff" stroke="#63b8ff" points="1917.54,-82.82 1908.9,-88.96 1919.48,-89.55 1917.54,-82.82"/>
</a>
</g>
</g>
<!-- Node17 -->
<g id="Node000017" class="node">
<title>Node17</title>
<g id="a_Node000017"><a xlink:href="TimerComprehensiveTest_8cpp.html" target="_top" xlink:title="ESP32&#45;C6 Periodic Timer Comprehensive Test Suite v2.0.">
<polygon fill="white" stroke="#666666" points="2669,-45.5 2468,-45.5 2468,-7.5 2669,-7.5 2669,-45.5"/>
<text text-anchor="start" x="2476" y="-30.3" font-family="Arial" font-size="14.00">examples/esp32/main</text>
<text text-anchor="middle" x="2568.5" y="-15.3" font-family="Arial" font-size="14.00">/TimerComprehensiveTest.cpp</text>
</a>
</g>
</g>
<!-- Node8&#45;&gt;Node17 -->
<g id="edge22_Node000008_Node000017" class="edge">
<title>Node8&#45;&gt;Node17</title>
<g id="a_edge22_Node000008_Node000017"><a xlink:title=" ">
<path fill="none" stroke="#63b8ff" d="M1931.24,-89.46C1932.33,-89.3 1933.42,-89.15 1934.5,-89 2166.25,-57.5 2228.21,-87.75 2459.5,-53 2472.38,-51.07 2485.98,-48.4 2499.05,-45.51"/>
<polygon fill="#63b8ff" stroke="#63b8ff" points="1930.62,-86.01 1921.28,-91 1931.69,-92.93 1930.62,-86.01"/>
</a>
</g>
</g>
<!-- Node8&#45;&gt;Node18 -->
<g id="edge23_Node000008_Node000018" class="edge">
<title>Node8&#45;&gt;Node18</title>
<g id="a_edge23_Node000008_Node000018"><a xlink:title=" ">
<path fill="none" stroke="#63b8ff" d="M1931.23,-89.43C1932.33,-89.28 1933.42,-89.14 1934.5,-89 2262.97,-47.71 2350.89,-100.64 2678.5,-53 2691.1,-51.17 2704.41,-48.49 2717.13,-45.55"/>
<polygon fill="#63b8ff" stroke="#63b8ff" points="1930.65,-85.97 1921.26,-90.89 1931.67,-92.9 1930.65,-85.97"/>
</a>
</g>
</g>
<!-- Node19 -->
<g id="Node000019" class="node">
<title>Node19</title>
<g id="a_Node000019"><a xlink:href="WifiComprehensiveTest_8cpp.html" target="_top" xlink:title="Comprehensive WiFi testing suite for ESP32&#45;C6 DevKit&#45;M&#45;1 with ESP&#45;IDF v5.5f.">
<polygon fill="white" stroke="#666666" points="2450,-45.5 2261,-45.5 2261,-7.5 2450,-7.5 2450,-45.5"/>
<text text-anchor="start" x="2269" y="-30.3" font-family="Arial" font-size="14.00">examples/esp32/main</text>
<text text-anchor="middle" x="2355.5" y="-15.3" font-family="Arial" font-size="14.00">/WifiComprehensiveTest.cpp</text>
</a>
</g>
</g>
<!-- Node8&#45;&gt;Node19 -->
<g id="edge24_Node000008_Node000019" class="edge">
<title>Node8&#45;&gt;Node19</title>
<g id="a_edge24_Node000008_Node000019"><a xlink:title=" ">
<path fill="none" stroke="#63b8ff" d="M1931.25,-89.53C1932.34,-89.35 1933.42,-89.17 1934.5,-89 2074.54,-66.77 2111.91,-77.93 2251.5,-53 2263.12,-50.92 2275.38,-48.31 2287.23,-45.55"/>
<polygon fill="#63b8ff" stroke="#63b8ff" points="1930.58,-86.09 1921.31,-91.23 1931.76,-92.99 1930.58,-86.09"/>
</a>
</g>
</g>
<!-- Node22 -->
<g id="Node000022" class="node">
<title>Node22</title>
<g id="a_Node000022"><a xlink:href="EspI2c_8h.html" target="_top" xlink:title="Advanced ESP32&#45;integrated I2C controller for ESP&#45;IDF v5.5+ with proper bus&#45;device architecture.">
<polygon fill="white" stroke="#666666" points="3545,-119.5 3384,-119.5 3384,-96.5 3545,-96.5 3545,-119.5"/>
<text text-anchor="middle" x="3464.5" y="-104.3" font-family="Arial" font-size="14.00">inc/mcu/esp32/EspI2c.h</text>
</a>
</g>
</g>
<!-- Node21&#45;&gt;Node22 -->
<g id="edge28_Node000021_Node000022" class="edge">
<title>Node21&#45;&gt;Node22</title>
<g id="a_edge28_Node000021_Node000022"><a xlink:title=" ">
<path fill="none" stroke="#63b8ff" d="M2995.01,-173.82C3085.8,-164.86 3241.64,-148.12 3374.5,-127 3387.88,-124.87 3402.29,-122.18 3415.58,-119.52"/>
<polygon fill="#63b8ff" stroke="#63b8ff" points="2994.41,-170.36 2984.8,-174.82 2995.1,-177.32 2994.41,-170.36"/>
</a>
</g>
</g>
<!-- Node24 -->
<g id="Node000024" class="node">
<title>Node24</title>
<g id="a_Node000024"><a xlink:href="EspPeriodicTimer_8h.html" target="_top" xlink:title="MCU&#45;integrated periodic timer implementation.">
<polygon fill="white" stroke="#666666" points="2819.5,-127 2639.5,-127 2639.5,-89 2819.5,-89 2819.5,-127"/>
<text text-anchor="start" x="2647.5" y="-111.8" font-family="Arial" font-size="14.00">inc/mcu/esp32/EspPeriodic</text>
<text text-anchor="middle" x="2729.5" y="-96.8" font-family="Arial" font-size="14.00">Timer.h</text>
</a>
</g>
</g>
<!-- Node21&#45;&gt;Node24 -->
<g id="edge31_Node000021_Node000024" class="edge">
<title>Node21&#45;&gt;Node24</title>
<g id="a_edge31_Node000021_Node000024"><a xlink:title=" ">
<path fill="none" stroke="#63b8ff" d="M2861.11,-159.14C2834.16,-148.87 2802.41,-136.77 2776.85,-127.04"/>
<polygon fill="#63b8ff" stroke="#63b8ff" points="2860.22,-162.54 2870.81,-162.83 2862.71,-156 2860.22,-162.54"/>
</a>
</g>
</g>
<!-- Node26 -->
<g id="Node000026" class="node">
<title>Node26</title>
<g id="a_Node000026"><a xlink:href="EspPio_8h.html" target="_top" xlink:title="ESP32 RMT&#45;based Programmable IO Channel implementation with ESP&#45;IDF v5.5+ features.">
<polygon fill="white" stroke="#666666" points="2999.5,-119.5 2837.5,-119.5 2837.5,-96.5 2999.5,-96.5 2999.5,-119.5"/>
<text text-anchor="middle" x="2918.5" y="-104.3" font-family="Arial" font-size="14.00">inc/mcu/esp32/EspPio.h</text>
</a>
</g>
</g>
<!-- Node21&#45;&gt;Node26 -->
<g id="edge34_Node000021_Node000026" class="edge">
<title>Node21&#45;&gt;Node26</title>
<g id="a_edge34_Node000021_Node000026"><a xlink:title=" ">
<path fill="none" stroke="#63b8ff" d="M2918.5,-152.62C2918.5,-140.99 2918.5,-128.26 2918.5,-119.57"/>
<polygon fill="#63b8ff" stroke="#63b8ff" points="2915,-152.83 2918.5,-162.83 2922,-152.83 2915,-152.83"/>
</a>
</g>
</g>
<!-- Node28 -->
<g id="Node000028" class="node">
<title>Node28</title>
<g id="a_Node000028"><a xlink:href="EspSpi_8h.html" target="_top" xlink:title="Advanced MCU&#45;integrated SPI controller implementation with ESP32/ESP&#45;IDF v5.5+ features.">
<polygon fill="white" stroke="#666666" points="3365.5,-119.5 3203.5,-119.5 3203.5,-96.5 3365.5,-96.5 3365.5,-119.5"/>
<text text-anchor="middle" x="3284.5" y="-104.3" font-family="Arial" font-size="14.00">inc/mcu/esp32/EspSpi.h</text>
</a>
</g>
</g>
<!-- Node21&#45;&gt;Node28 -->
<g id="edge37_Node000021_Node000028" class="edge">
<title>Node21&#45;&gt;Node28</title>
<g id="a_edge37_Node000021_Node000028"><a xlink:title=" ">
<path fill="none" stroke="#63b8ff" d="M2994.69,-166.18C3050.12,-155.38 3126.98,-140.36 3194.5,-127 3206.69,-124.59 3219.81,-121.97 3232.16,-119.51"/>
<polygon fill="#63b8ff" stroke="#63b8ff" points="2993.74,-162.8 2984.6,-168.15 2995.08,-169.67 2993.74,-162.8"/>
</a>
</g>
</g>
<!-- Node30 -->
<g id="Node000030" class="node">
<title>Node30</title>
<g id="a_Node000030"><a xlink:href="EspUart_8h.html" target="_top" xlink:title="ESP32 UART implementation for the HardFOC system.">
<polygon fill="white" stroke="#666666" points="3185.5,-119.5 3017.5,-119.5 3017.5,-96.5 3185.5,-96.5 3185.5,-119.5"/>
<text text-anchor="middle" x="3101.5" y="-104.3" font-family="Arial" font-size="14.00">inc/mcu/esp32/EspUart.h</text>
</a>
</g>
</g>
<!-- Node21&#45;&gt;Node30 -->
<g id="edge40_Node000021_Node000030" class="edge">
<title>Node21&#45;&gt;Node30</title>
<g id="a_edge40_Node000021_Node000030"><a xlink:title=" ">
<path fill="none" stroke="#63b8ff" d="M2974.3,-159.05C3007.6,-145.94 3048.38,-129.9 3074.65,-119.57"/>
<polygon fill="#63b8ff" stroke="#63b8ff" points="2972.7,-155.91 2964.68,-162.83 2975.27,-162.43 2972.7,-155.91"/>
</a>
</g>
</g>
<!-- Node22&#45;&gt;Node5 -->
<g id="edge29_Node000022_Node000005" class="edge">
<title>Node22&#45;&gt;Node5</title>
<g id="a_edge29_Node000022_Node000005"><a xlink:title=" ">
<path fill="none" stroke="#63b8ff" d="M3448.21,-88.5C3436.85,-75.6 3421.77,-58.47 3410.48,-45.64"/>
<polygon fill="#63b8ff" stroke="#63b8ff" points="3445.82,-91.09 3455.06,-96.28 3451.08,-86.46 3445.82,-91.09"/>
</a>
</g>
</g>
<!-- Node23 -->
<g id="Node000023" class="node">
<title>Node23</title>
<g id="a_Node000023"><a xlink:href="EspI2c_8cpp.html" target="_top" xlink:title="Implementation of ESP32&#45;integrated I2C controller with proper bus&#45;device architecture.">
<polygon fill="white" stroke="#666666" points="4470.5,-38 4294.5,-38 4294.5,-15 4470.5,-15 4470.5,-38"/>
<text text-anchor="middle" x="4382.5" y="-22.8" font-family="Arial" font-size="14.00">src/mcu/esp32/EspI2c.cpp</text>
</a>
</g>
</g>
<!-- Node22&#45;&gt;Node23 -->
<g id="edge30_Node000022_Node000023" class="edge">
<title>Node22&#45;&gt;Node23</title>
<g id="a_edge30_Node000022_Node000023"><a xlink:title=" ">
<path fill="none" stroke="#63b8ff" d="M3555.24,-106.77C3707.44,-105.1 4023.34,-96.17 4286.5,-53 4307.6,-49.54 4330.78,-43.45 4349.08,-38.09"/>
<polygon fill="#63b8ff" stroke="#63b8ff" points="3554.98,-103.27 3545.02,-106.87 3555.05,-110.27 3554.98,-103.27"/>
</a>
</g>
</g>
<!-- Node24&#45;&gt;Node17 -->
<g id="edge32_Node000024_Node000017" class="edge">
<title>Node24&#45;&gt;Node17</title>
<g id="a_edge32_Node000024_Node000017"><a xlink:title=" ">
<path fill="none" stroke="#63b8ff" d="M2683.72,-84.4C2658.84,-72.11 2628.48,-57.12 2605.17,-45.61"/>
<polygon fill="#63b8ff" stroke="#63b8ff" points="2682.45,-87.67 2692.97,-88.96 2685.55,-81.39 2682.45,-87.67"/>
</a>
</g>
</g>
<!-- Node25 -->
<g id="Node000025" class="node">
<title>Node25</title>
<g id="a_Node000025"><a xlink:href="EspPeriodicTimer_8cpp.html" target="_top" xlink:title="Implementation of MCU&#45;integrated periodic timer.">
<polygon fill="white" stroke="#666666" points="3686,-45.5 3505,-45.5 3505,-7.5 3686,-7.5 3686,-45.5"/>
<text text-anchor="start" x="3513" y="-30.3" font-family="Arial" font-size="14.00">src/mcu/esp32/EspPeriodic</text>
<text text-anchor="middle" x="3595.5" y="-15.3" font-family="Arial" font-size="14.00">Timer.cpp</text>
</a>
</g>
</g>
<!-- Node24&#45;&gt;Node25 -->
<g id="edge33_Node000024_Node000025" class="edge">
<title>Node24&#45;&gt;Node25</title>
<g id="a_edge33_Node000024_Node000025"><a xlink:title=" ">
<path fill="none" stroke="#63b8ff" d="M2829.69,-88.96C3125.14,-55.34 3205.33,-97.39 3495.5,-53 3507.63,-51.14 3520.43,-48.46 3532.67,-45.51"/>
<polygon fill="#63b8ff" stroke="#63b8ff" points="2829.07,-85.51 2819.54,-90.13 2829.87,-92.46 2829.07,-85.51"/>
</a>
</g>
</g>
<!-- Node26&#45;&gt;Node6 -->
<g id="edge35_Node000026_Node000006" class="edge">
<title>Node26&#45;&gt;Node6</title>
<g id="a_edge35_Node000026_Node000006"><a xlink:title=" ">
<path fill="none" stroke="#63b8ff" d="M2934.79,-88.5C2946.15,-75.6 2961.23,-58.47 2972.52,-45.64"/>
<polygon fill="#63b8ff" stroke="#63b8ff" points="2931.92,-86.46 2927.94,-96.28 2937.18,-91.09 2931.92,-86.46"/>
</a>
</g>
</g>
<!-- Node27 -->
<g id="Node000027" class="node">
<title>Node27</title>
<g id="a_Node000027"><a xlink:href="EspPio_8cpp.html" target="_top" xlink:title="ESP32 RMT&#45;based Programmable IO Channel implementation.">
<polygon fill="white" stroke="#666666" points="3881,-38 3704,-38 3704,-15 3881,-15 3881,-38"/>
<text text-anchor="middle" x="3792.5" y="-22.8" font-family="Arial" font-size="14.00">src/mcu/esp32/EspPio.cpp</text>
</a>
</g>
</g>
<!-- Node26&#45;&gt;Node27 -->
<g id="edge36_Node000026_Node000027" class="edge">
<title>Node26&#45;&gt;Node27</title>
<g id="a_edge36_Node000026_Node000027"><a xlink:title=" ">
<path fill="none" stroke="#63b8ff" d="M2974.62,-94.47C2985.8,-92.35 2997.48,-90.38 3008.5,-89 3311.87,-50.92 3393.4,-100.12 3695.5,-53 3717.01,-49.65 3740.64,-43.49 3759.19,-38.06"/>
<polygon fill="#63b8ff" stroke="#63b8ff" points="2973.67,-91.09 2964.54,-96.46 2975.03,-97.96 2973.67,-91.09"/>
</a>
</g>
</g>
<!-- Node28&#45;&gt;Node15 -->
<g id="edge38_Node000028_Node000015" class="edge">
<title>Node28&#45;&gt;Node15</title>
<g id="a_edge38_Node000028_Node000015"><a xlink:title=" ">
<path fill="none" stroke="#63b8ff" d="M3264.14,-89.59C3248.91,-76.58 3228.15,-58.83 3212.72,-45.64"/>
<polygon fill="#63b8ff" stroke="#63b8ff" points="3262.08,-92.44 3271.96,-96.28 3266.63,-87.12 3262.08,-92.44"/>
</a>
</g>
</g>
<!-- Node29 -->
<g id="Node000029" class="node">
<title>Node29</title>
<g id="a_Node000029"><a xlink:href="EspSpi_8cpp.html" target="_top" xlink:title="Implementation of MCU&#45;integrated SPI controller for ESP32 with ESP&#45;IDF v5.5+ features.">
<polygon fill="white" stroke="#666666" points="4277,-38 4100,-38 4100,-15 4277,-15 4277,-38"/>
<text text-anchor="middle" x="4188.5" y="-22.8" font-family="Arial" font-size="14.00">src/mcu/esp32/EspSpi.cpp</text>
</a>
</g>
</g>
<!-- Node28&#45;&gt;Node29 -->
<g id="edge39_Node000028_Node000029" class="edge">
<title>Node28&#45;&gt;Node29</title>
<g id="a_edge39_Node000028_Node000029"><a xlink:title=" ">
<path fill="none" stroke="#63b8ff" d="M3340.9,-94.52C3352.31,-92.37 3364.25,-90.39 3375.5,-89 3691.73,-49.98 3776.63,-101.77 4091.5,-53 4113.01,-49.67 4136.64,-43.51 4155.19,-38.08"/>
<polygon fill="#63b8ff" stroke="#63b8ff" points="3340.2,-91.09 3331.05,-96.44 3341.54,-97.97 3340.2,-91.09"/>
</a>
</g>
</g>
<!-- Node30&#45;&gt;Node18 -->
<g id="edge41_Node000030_Node000018" class="edge">
<title>Node30&#45;&gt;Node18</title>
<g id="a_edge41_Node000030_Node000018"><a xlink:title=" ">
<path fill="none" stroke="#63b8ff" d="M3049.29,-93.99C2996.42,-80.81 2914.2,-60.32 2855.01,-45.57"/>
<polygon fill="#63b8ff" stroke="#63b8ff" points="3048.59,-97.42 3059.14,-96.44 3050.28,-90.63 3048.59,-97.42"/>
</a>
</g>
</g>
<!-- Node31 -->
<g id="Node000031" class="node">
<title>Node31</title>
<g id="a_Node000031"><a xlink:href="EspUart_8cpp.html" target="_top" xlink:title="Implementation of ESP32 UART controller for the HardFOC system.">
<polygon fill="white" stroke="#666666" points="4082,-38 3899,-38 3899,-15 4082,-15 4082,-38"/>
<text text-anchor="middle" x="3990.5" y="-22.8" font-family="Arial" font-size="14.00">src/mcu/esp32/EspUart.cpp</text>
</a>
</g>
</g>
<!-- Node30&#45;&gt;Node31 -->
<g id="edge42_Node000030_Node000031" class="edge">
<title>Node30&#45;&gt;Node31</title>
<g id="a_edge42_Node000030_Node000031"><a xlink:title=" ">
<path fill="none" stroke="#63b8ff" d="M3159.16,-94.54C3170.81,-92.39 3183.01,-90.4 3194.5,-89 3501.97,-51.48 3584.26,-99.5 3890.5,-53 3912.64,-49.64 3937,-43.48 3956.14,-38.06"/>
<polygon fill="#63b8ff" stroke="#63b8ff" points="3158.25,-91.15 3149.09,-96.47 3159.57,-98.03 3158.25,-91.15"/>
</a>
</g>
</g>
<!-- Node32&#45;&gt;Node21 -->
<g id="edge47_Node000032_Node000021" class="edge">
<title>Node32&#45;&gt;Node21</title>
<g id="a_edge47_Node000032_Node000021"><a xlink:title=" ">
<path fill="none" stroke="#63b8ff" d="M2168.44,-248.3C2329.72,-234.26 2700.78,-201.95 2852.27,-188.77"/>
<polygon fill="#63b8ff" stroke="#63b8ff" points="2167.79,-244.85 2158.13,-249.2 2168.39,-251.82 2167.79,-244.85"/>
</a>
</g>
</g>
<!-- Node33 -->
<g id="Node000033" class="node">
<title>Node33</title>
<g id="a_Node000033"><a xlink:href="EspPwm_8h.html" target="_top" xlink:title="ESP32 LEDC (PWM) controller implementation for the HardFOC system.">
<polygon fill="white" stroke="#666666" points="2178,-193.5 2005,-193.5 2005,-170.5 2178,-170.5 2178,-193.5"/>
<text text-anchor="middle" x="2091.5" y="-178.3" font-family="Arial" font-size="14.00">inc/mcu/esp32/EspPwm.h</text>
</a>
</g>
</g>
<!-- Node32&#45;&gt;Node33 -->
<g id="edge44_Node000032_Node000033" class="edge">
<title>Node32&#45;&gt;Node33</title>
<g id="a_edge44_Node000032_Node000033"><a xlink:title=" ">
<path fill="none" stroke="#63b8ff" d="M2091.5,-226.62C2091.5,-214.99 2091.5,-202.26 2091.5,-193.57"/>
<polygon fill="#63b8ff" stroke="#63b8ff" points="2088,-226.83 2091.5,-236.83 2095,-226.83 2088,-226.83"/>
</a>
</g>
</g>
<!-- Node33&#45;&gt;Node7 -->
<g id="edge45_Node000033_Node000007" class="edge">
<title>Node33&#45;&gt;Node7</title>
<g id="a_edge45_Node000033_Node000007"><a xlink:title=" ">
<path fill="none" stroke="#63b8ff" d="M2001.99,-169.14C1912.26,-156.78 1784.47,-137.77 1763.5,-127 1742.25,-116.09 1747.41,-98.51 1725.5,-89 1617.82,-42.23 785.85,-68.69 669.5,-53 656.35,-51.23 642.45,-48.54 629.18,-45.56"/>
<polygon fill="#63b8ff" stroke="#63b8ff" points="2001.53,-172.61 2011.91,-170.5 2002.48,-165.67 2001.53,-172.61"/>
</a>
</g>
</g>
<!-- Node34 -->
<g id="Node000034" class="node">
<title>Node34</title>
<g id="a_Node000034"><a xlink:href="EspPwm_8cpp.html" target="_top" xlink:title="Implementation of ESP32 family LEDC (PWM) controller for the HardFOC system.">
<polygon fill="white" stroke="#666666" points="2240.5,-119.5 2052.5,-119.5 2052.5,-96.5 2240.5,-96.5 2240.5,-119.5"/>
<text text-anchor="middle" x="2146.5" y="-104.3" font-family="Arial" font-size="14.00">src/mcu/esp32/EspPwm.cpp</text>
</a>
</g>
</g>
<!-- Node33&#45;&gt;Node34 -->
<g id="edge46_Node000033_Node000034" class="edge">
<title>Node33&#45;&gt;Node34</title>
<g id="a_edge46_Node000033_Node000034"><a xlink:title=" ">
<path fill="none" stroke="#63b8ff" d="M2105.86,-162.2C2116.21,-148.65 2129.81,-130.85 2138.35,-119.67"/>
<polygon fill="#63b8ff" stroke="#63b8ff" points="2102.9,-160.3 2099.62,-170.38 2108.47,-164.55 2102.9,-160.3"/>
</a>
</g>
</g>
</g>
</svg>

<g id="navigator" transform="translate(0 0)" fill="#404254">
  <rect fill="#f2f5e9" fill-opacity="0.5" stroke="#606060" stroke-width=".5" x="0" y="0" width="60" height="60"/>
  <use id="zoomplus" xlink:href="#zoomPlus" x="17" y="9" onmousedown="handleZoom(evt,'in')"/>
  <use id="zoomminus" xlink:href="#zoomMin" x="42" y="9" onmousedown="handleZoom(evt,'out')"/>
  <use id="reset" xlink:href="#resetDef" x="30" y="36" onmousedown="handleReset()"/>
   <use id="arrowup" xlink:href="#arrowUp" x="0" y="0" onmousedown="handlePan(0,-1)"/>
  <use id="arrowright" xlink:href="#arrowRight" x="0" y="0" onmousedown="handlePan(1,0)"/>
  <use id="arrowdown" xlink:href="#arrowDown" x="0" y="0" onmousedown="handlePan(0,1)"/>
  <use id="arrowleft" xlink:href="#arrowLeft" x="0" y="0" onmousedown="handlePan(-1,0)"/>
</g>
<svg viewBox="0 0 15 15" width="100%" height="30px" preserveAspectRatio="xMaxYMin meet">
 <g id="arrow_out" transform="scale(0.3 0.3)">
  <a xlink:href="EspTypes__GPIO_8h__dep__incl_org.svg" target="_base">
   <rect id="button" ry="5" rx="5" y="6" x="6" height="38" width="38"
        fill="#f2f5e9" fill-opacity="0.5" stroke="#606060" stroke-width="1.0"/>
   <path id="arrow"
     d="M 11.500037,31.436501 C 11.940474,20.09759 22.043105,11.32322 32.158766,21.979434 L 37.068811,17.246167 C 37.068811,17.246167 37.088388,32 37.088388,32 L 22.160133,31.978069 C 22.160133,31.978069 26.997745,27.140456 26.997745,27.140456 C 18.528582,18.264221 13.291696,25.230495 11.500037,31.436501 z"
     style="fill:#404040;"/>
  </a>
 </g>
</svg>

<style type='text/css'>
<![CDATA[
[data-mouse-over-selected='false'] { opacity: 0.7; }
[data-mouse-over-selected='true']  { opacity: 1.0; }
]]>
</style>
<script type="application/ecmascript"><![CDATA[
document.addEventListener('DOMContentLoaded', (event) => {
  highlightEdges();
  highlightAdjacentNodes();
});
]]></script>
</svg>
