<?xml version="1.0" encoding="UTF-8" standalone="no"?>
<!DOCTYPE svg PUBLIC "-//W3C//DTD SVG 1.1//EN"
 "http://www.w3.org/Graphics/SVG/1.1/DTD/svg11.dtd">
<!-- Generated by graphviz version 2.43.0 (0)
 -->
<!-- Title: inc/mcu/esp32/utils/EspTypes_CAN.h Pages: 1 -->
<svg width="521pt" height="223pt"
 viewBox="0.00 0.00 520.74 223.00" xmlns="http://www.w3.org/2000/svg" xmlns:xlink="http://www.w3.org/1999/xlink">
<g id="graph0" class="graph" transform="scale(1 1) rotate(0) translate(4 219)">
<title>inc/mcu/esp32/utils/EspTypes_CAN.h</title>
<!-- Node1 -->
<g id="Node000001" class="node">
<title>Node1</title>
<g id="a_Node000001"><a xlink:title="ESP32 CAN type definitions for hardware abstraction.">
<polygon fill="#999999" stroke="#666666" points="340.74,-215 208.74,-215 208.74,-177 340.74,-177 340.74,-215"/>
<text text-anchor="start" x="216.74" y="-199.8" font-family="Arial" font-size="14.00">inc/mcu/esp32/utils</text>
<text text-anchor="middle" x="274.74" y="-184.8" font-family="Arial" font-size="14.00">/EspTypes_CAN.h</text>
</a>
</g>
</g>
<!-- Node2 -->
<g id="Node000002" class="node">
<title>Node2</title>
<g id="a_Node000002"><a xlink:href="BaseCan_8h.html" target="_top" xlink:title="Abstract base class for CAN bus implementations in the HardFOC system.">
<polygon fill="white" stroke="#666666" points="149.24,-141 66.24,-141 66.24,-118 149.24,-118 149.24,-141"/>
<text text-anchor="middle" x="107.74" y="-125.8" font-family="Arial" font-size="14.00">BaseCan.h</text>
</a>
</g>
</g>
<!-- Node1&#45;&gt;Node2 -->
<g id="edge1_Node000001_Node000002" class="edge">
<title>Node1&#45;&gt;Node2</title>
<g id="a_edge1_Node000001_Node000002"><a xlink:title=" ">
<path fill="none" stroke="#63b8ff" d="M227.78,-176.86C201.49,-166.71 169.19,-154.23 144.72,-144.78"/>
<polygon fill="#63b8ff" stroke="#63b8ff" points="145.68,-141.4 135.09,-141.06 143.16,-147.93 145.68,-141.4"/>
</a>
</g>
</g>
<!-- Node3 -->
<g id="Node000003" class="node">
<title>Node3</title>
<g id="a_Node000003"><a xlink:href="HardwareTypes_8h.html" target="_top" xlink:title="Platform&#45;agnostic hardware type definitions for the HardFOC system.">
<polygon fill="white" stroke="#666666" points="352.74,-82 230.74,-82 230.74,-59 352.74,-59 352.74,-82"/>
<text text-anchor="middle" x="291.74" y="-66.8" font-family="Arial" font-size="14.00">HardwareTypes.h</text>
</a>
</g>
</g>
<!-- Node1&#45;&gt;Node3 -->
<g id="edge13_Node000001_Node000003" class="edge">
<title>Node1&#45;&gt;Node3</title>
<g id="a_edge13_Node000001_Node000003"><a xlink:title=" ">
<path fill="none" stroke="#63b8ff" d="M286.06,-176.77C291.68,-166.64 297.87,-153.58 300.74,-141 304.42,-124.9 301.67,-106.34 298.27,-92.45"/>
<polygon fill="#63b8ff" stroke="#63b8ff" points="301.55,-91.16 295.52,-82.45 294.8,-93.02 301.55,-91.16"/>
</a>
</g>
</g>
<!-- Node8 -->
<g id="Node000008" class="node">
<title>Node8</title>
<g id="a_Node000008"><a xlink:href="EspTypes__Base_8h.html" target="_top" xlink:title="ESP32 base type definitions for hardware abstraction.">
<polygon fill="white" stroke="#666666" points="292.24,-141 167.24,-141 167.24,-118 292.24,-118 292.24,-141"/>
<text text-anchor="middle" x="229.74" y="-125.8" font-family="Arial" font-size="14.00">EspTypes_Base.h</text>
</a>
</g>
</g>
<!-- Node1&#45;&gt;Node8 -->
<g id="edge8_Node000001_Node000008" class="edge">
<title>Node1&#45;&gt;Node8</title>
<g id="a_edge8_Node000001_Node000008"><a xlink:title=" ">
<path fill="none" stroke="#63b8ff" d="M261.97,-176.69C256.03,-168.18 248.97,-158.06 242.97,-149.46"/>
<polygon fill="#63b8ff" stroke="#63b8ff" points="245.79,-147.39 237.2,-141.19 240.05,-151.4 245.79,-147.39"/>
</a>
</g>
</g>
<!-- Node9 -->
<g id="Node000009" class="node">
<title>Node9</title>
<g id="a_Node000009"><a xlink:href="McuSelect_8h.html" target="_top" xlink:title="Centralized MCU platform selection and configuration header.">
<polygon fill="white" stroke="#666666" points="512.74,-82 370.74,-82 370.74,-59 512.74,-59 512.74,-82"/>
<text text-anchor="middle" x="441.74" y="-66.8" font-family="Arial" font-size="14.00">../../utils/McuSelect.h</text>
</a>
</g>
</g>
<!-- Node1&#45;&gt;Node9 -->
<g id="edge14_Node000001_Node000009" class="edge">
<title>Node1&#45;&gt;Node9</title>
<g id="a_edge14_Node000001_Node000009"><a xlink:title=" ">
<path fill="none" stroke="#63b8ff" d="M299.38,-176.78C331.73,-152.86 388.05,-111.21 419.27,-88.12"/>
<polygon fill="#63b8ff" stroke="#63b8ff" points="421.41,-90.89 427.37,-82.13 417.25,-85.26 421.41,-90.89"/>
</a>
</g>
</g>
<!-- Node2&#45;&gt;Node3 -->
<g id="edge2_Node000002_Node000003" class="edge">
<title>Node2&#45;&gt;Node3</title>
<g id="a_edge2_Node000002_Node000003"><a xlink:title=" ">
<path fill="none" stroke="#63b8ff" d="M141.92,-117.91C171.87,-108.63 215.57,-95.1 248.06,-85.03"/>
<polygon fill="#63b8ff" stroke="#63b8ff" points="249.23,-88.33 257.75,-82.03 247.16,-81.65 249.23,-88.33"/>
</a>
</g>
</g>
<!-- Node4 -->
<g id="Node000004" class="node">
<title>Node4</title>
<g id="a_Node000004"><a xlink:title=" ">
<polygon fill="#e0e0e0" stroke="#999999" points="230.74,-23 174.74,-23 174.74,0 230.74,0 230.74,-23"/>
<text text-anchor="middle" x="202.74" y="-7.8" font-family="Arial" font-size="14.00">cstdint</text>
</a>
</g>
</g>
<!-- Node2&#45;&gt;Node4 -->
<g id="edge6_Node000002_Node000004" class="edge">
<title>Node2&#45;&gt;Node4</title>
<g id="a_edge6_Node000002_Node000004"><a xlink:title=" ">
<path fill="none" stroke="#63b8ff" d="M66.84,-117.96C29.91,-106.44 -15.6,-85.97 5.74,-59 25.18,-34.45 113.03,-21.54 164.62,-15.97"/>
<polygon fill="#63b8ff" stroke="#63b8ff" points="165.15,-19.43 174.73,-14.92 164.43,-12.47 165.15,-19.43"/>
</a>
</g>
</g>
<!-- Node6 -->
<g id="Node000006" class="node">
<title>Node6</title>
<g id="a_Node000006"><a xlink:title=" ">
<polygon fill="#e0e0e0" stroke="#999999" points="174.24,-82 117.24,-82 117.24,-59 174.24,-59 174.24,-82"/>
<text text-anchor="middle" x="145.74" y="-66.8" font-family="Arial" font-size="14.00">atomic</text>
</a>
</g>
</g>
<!-- Node2&#45;&gt;Node6 -->
<g id="edge5_Node000002_Node000006" class="edge">
<title>Node2&#45;&gt;Node6</title>
<g id="a_edge5_Node000002_Node000006"><a xlink:title=" ">
<path fill="none" stroke="#63b8ff" d="M114.89,-117.78C119.99,-110.14 126.98,-99.65 133.01,-90.6"/>
<polygon fill="#63b8ff" stroke="#63b8ff" points="135.99,-92.44 138.63,-82.17 130.17,-88.55 135.99,-92.44"/>
</a>
</g>
</g>
<!-- Node7 -->
<g id="Node000007" class="node">
<title>Node7</title>
<g id="a_Node000007"><a xlink:title=" ">
<polygon fill="#e0e0e0" stroke="#999999" points="98.74,-82 14.74,-82 14.74,-59 98.74,-59 98.74,-82"/>
<text text-anchor="middle" x="56.74" y="-66.8" font-family="Arial" font-size="14.00">string_view</text>
</a>
</g>
</g>
<!-- Node2&#45;&gt;Node7 -->
<g id="edge7_Node000002_Node000007" class="edge">
<title>Node2&#45;&gt;Node7</title>
<g id="a_edge7_Node000002_Node000007"><a xlink:title=" ">
<path fill="none" stroke="#63b8ff" d="M98.15,-117.78C91.1,-109.9 81.34,-98.99 73.07,-89.75"/>
<polygon fill="#63b8ff" stroke="#63b8ff" points="75.57,-87.29 66.29,-82.17 70.35,-91.96 75.57,-87.29"/>
</a>
</g>
</g>
<!-- Node3&#45;&gt;Node4 -->
<g id="edge3_Node000003_Node000004" class="edge">
<title>Node3&#45;&gt;Node4</title>
<g id="a_edge3_Node000003_Node000004"><a xlink:title=" ">
<path fill="none" stroke="#63b8ff" d="M275,-58.78C261.83,-50.34 243.24,-38.44 228.22,-28.82"/>
<polygon fill="#63b8ff" stroke="#63b8ff" points="229.72,-25.62 219.41,-23.17 225.94,-31.51 229.72,-25.62"/>
</a>
</g>
</g>
<!-- Node5 -->
<g id="Node000005" class="node">
<title>Node5</title>
<g id="a_Node000005"><a xlink:title=" ">
<polygon fill="#e0e0e0" stroke="#999999" points="315.74,-23 267.74,-23 267.74,0 315.74,0 315.74,-23"/>
<text text-anchor="middle" x="291.74" y="-7.8" font-family="Arial" font-size="14.00">limits</text>
</a>
</g>
</g>
<!-- Node3&#45;&gt;Node5 -->
<g id="edge4_Node000003_Node000005" class="edge">
<title>Node3&#45;&gt;Node5</title>
<g id="a_edge4_Node000003_Node000005"><a xlink:title=" ">
<path fill="none" stroke="#63b8ff" d="M291.74,-58.78C291.74,-51.61 291.74,-41.95 291.74,-33.31"/>
<polygon fill="#63b8ff" stroke="#63b8ff" points="295.24,-33.17 291.74,-23.17 288.24,-33.17 295.24,-33.17"/>
</a>
</g>
</g>
<!-- Node8&#45;&gt;Node3 -->
<g id="edge10_Node000008_Node000003" class="edge">
<title>Node8&#45;&gt;Node3</title>
<g id="a_edge10_Node000008_Node000003"><a xlink:title=" ">
<path fill="none" stroke="#63b8ff" d="M241.41,-117.78C250.15,-109.74 262.32,-98.55 272.5,-89.19"/>
<polygon fill="#63b8ff" stroke="#63b8ff" points="275.14,-91.52 280.13,-82.17 270.4,-86.36 275.14,-91.52"/>
</a>
</g>
</g>
<!-- Node8&#45;&gt;Node4 -->
<g id="edge12_Node000008_Node000004" class="edge">
<title>Node8&#45;&gt;Node4</title>
<g id="a_edge12_Node000008_Node000004"><a xlink:title=" ">
<path fill="none" stroke="#63b8ff" d="M227.25,-117.79C222.77,-98.55 213.28,-57.79 207.52,-33.01"/>
<polygon fill="#63b8ff" stroke="#63b8ff" points="210.91,-32.13 205.23,-23.18 204.09,-33.71 210.91,-32.13"/>
</a>
</g>
</g>
<!-- Node8&#45;&gt;Node6 -->
<g id="edge11_Node000008_Node000006" class="edge">
<title>Node8&#45;&gt;Node6</title>
<g id="a_edge11_Node000008_Node000006"><a xlink:title=" ">
<path fill="none" stroke="#63b8ff" d="M213.94,-117.78C201.51,-109.34 183.97,-97.44 169.79,-87.82"/>
<polygon fill="#63b8ff" stroke="#63b8ff" points="171.71,-84.89 161.47,-82.17 167.78,-90.68 171.71,-84.89"/>
</a>
</g>
</g>
<!-- Node8&#45;&gt;Node9 -->
<g id="edge9_Node000008_Node000009" class="edge">
<title>Node8&#45;&gt;Node9</title>
<g id="a_edge9_Node000008_Node000009"><a xlink:title=" ">
<path fill="none" stroke="#63b8ff" d="M269.12,-117.91C304.08,-108.51 355.29,-94.75 392.85,-84.65"/>
<polygon fill="#63b8ff" stroke="#63b8ff" points="393.83,-88.01 402.58,-82.03 392.01,-81.25 393.83,-88.01"/>
</a>
</g>
</g>
</g>
</svg>
