<?xml version="1.0" encoding="UTF-8" standalone="no"?>
<!DOCTYPE svg PUBLIC "-//W3C//DTD SVG 1.1//EN"
 "http://www.w3.org/Graphics/SVG/1.1/DTD/svg11.dtd">
<!-- Generated by graphviz version 2.43.0 (0)
 -->
<!-- Title: inc/mcu/esp32/EspUsbSerialJtag.h Pages: 1 -->
<svg width="610pt" height="282pt"
 viewBox="0.00 0.00 610.00 282.00" xmlns="http://www.w3.org/2000/svg" xmlns:xlink="http://www.w3.org/1999/xlink">
<g id="graph0" class="graph" transform="scale(1 1) rotate(0) translate(4 278)">
<title>inc/mcu/esp32/EspUsbSerialJtag.h</title>
<!-- Node1 -->
<g id="Node000001" class="node">
<title>Node1</title>
<g id="a_Node000001"><a xlink:title="ESP32&#45;S3 / &#45;C3 / &#45;C6 USB Serial/JTAG console wrapper.">
<polygon fill="#999999" stroke="#666666" points="577,-274 387,-274 387,-236 577,-236 577,-274"/>
<text text-anchor="start" x="395" y="-258.8" font-family="Arial" font-size="14.00">inc/mcu/esp32/EspUsbSerial</text>
<text text-anchor="middle" x="482" y="-243.8" font-family="Arial" font-size="14.00">Jtag.h</text>
</a>
</g>
</g>
<!-- Node2 -->
<g id="Node000002" class="node">
<title>Node2</title>
<g id="a_Node000002"><a xlink:href="BaseUsbSerialJtag_8h.html" target="_top" xlink:title="Abstract base class for USB Serial/JTAG controller &quot;console&#45;style&quot; serial transports in the HardFOC s...">
<polygon fill="white" stroke="#666666" points="435.5,-200 292.5,-200 292.5,-177 435.5,-177 435.5,-200"/>
<text text-anchor="middle" x="364" y="-184.8" font-family="Arial" font-size="14.00">BaseUsbSerialJtag.h</text>
</a>
</g>
</g>
<!-- Node1&#45;&gt;Node2 -->
<g id="edge1_Node000001_Node000002" class="edge">
<title>Node1&#45;&gt;Node2</title>
<g id="a_edge1_Node000001_Node000002"><a xlink:title=" ">
<path fill="none" stroke="#63b8ff" d="M448.82,-235.86C430.99,-226.12 409.24,-214.23 392.23,-204.93"/>
<polygon fill="#63b8ff" stroke="#63b8ff" points="393.77,-201.79 383.32,-200.06 390.42,-207.93 393.77,-201.79"/>
</a>
</g>
</g>
<!-- Node5 -->
<g id="Node000005" class="node">
<title>Node5</title>
<g id="a_Node000005"><a xlink:title=" ">
<polygon fill="#e0e0e0" stroke="#999999" points="285,-23 229,-23 229,0 285,0 285,-23"/>
<text text-anchor="middle" x="257" y="-7.8" font-family="Arial" font-size="14.00">cstdint</text>
</a>
</g>
</g>
<!-- Node1&#45;&gt;Node5 -->
<g id="edge13_Node000001_Node000005" class="edge">
<title>Node1&#45;&gt;Node5</title>
<g id="a_edge13_Node000001_Node000005"><a xlink:title=" ">
<path fill="none" stroke="#63b8ff" d="M484.13,-236C486.47,-208.23 487.13,-154.35 463,-118 424.39,-59.84 343.29,-32.03 295.17,-20.16"/>
<polygon fill="#63b8ff" stroke="#63b8ff" points="295.68,-16.68 285.14,-17.8 294.07,-23.5 295.68,-16.68"/>
</a>
</g>
</g>
<!-- Node10 -->
<g id="Node000010" class="node">
<title>Node10</title>
<g id="a_Node000010"><a xlink:href="McuSelect_8h.html" target="_top" xlink:title="Centralized MCU platform selection and configuration header.">
<polygon fill="white" stroke="#666666" points="602,-200 510,-200 510,-177 602,-177 602,-200"/>
<text text-anchor="middle" x="556" y="-184.8" font-family="Arial" font-size="14.00">McuSelect.h</text>
</a>
</g>
</g>
<!-- Node1&#45;&gt;Node10 -->
<g id="edge12_Node000001_Node000010" class="edge">
<title>Node1&#45;&gt;Node10</title>
<g id="a_edge12_Node000001_Node000010"><a xlink:title=" ">
<path fill="none" stroke="#63b8ff" d="M503.01,-235.69C513.39,-226.64 525.86,-215.77 536.09,-206.85"/>
<polygon fill="#63b8ff" stroke="#63b8ff" points="538.5,-209.4 543.73,-200.19 533.9,-204.12 538.5,-209.4"/>
</a>
</g>
</g>
<!-- Node3 -->
<g id="Node000003" class="node">
<title>Node3</title>
<g id="a_Node000003"><a xlink:href="BaseUart_8h.html" target="_top" xlink:title="Abstract base class for UART driver implementations in the HardFOC system.">
<polygon fill="white" stroke="#666666" points="262,-141 178,-141 178,-118 262,-118 262,-141"/>
<text text-anchor="middle" x="220" y="-125.8" font-family="Arial" font-size="14.00">BaseUart.h</text>
</a>
</g>
</g>
<!-- Node2&#45;&gt;Node3 -->
<g id="edge2_Node000002_Node000003" class="edge">
<title>Node2&#45;&gt;Node3</title>
<g id="a_edge2_Node000002_Node000003"><a xlink:title=" ">
<path fill="none" stroke="#63b8ff" d="M337.25,-176.91C314.42,-167.87 281.37,-154.79 256.18,-144.82"/>
<polygon fill="#63b8ff" stroke="#63b8ff" points="257.19,-141.46 246.6,-141.03 254.61,-147.97 257.19,-141.46"/>
</a>
</g>
</g>
<!-- Node2&#45;&gt;Node5 -->
<g id="edge10_Node000002_Node000005" class="edge">
<title>Node2&#45;&gt;Node5</title>
<g id="a_edge10_Node000002_Node000005"><a xlink:title=" ">
<path fill="none" stroke="#63b8ff" d="M365.45,-176.67C368.02,-152.96 370.92,-95.64 345,-59 333.04,-42.1 313,-30.83 295.06,-23.63"/>
<polygon fill="#63b8ff" stroke="#63b8ff" points="295.97,-20.23 285.38,-20.03 293.54,-26.8 295.97,-20.23"/>
</a>
</g>
</g>
<!-- Node7 -->
<g id="Node000007" class="node">
<title>Node7</title>
<g id="a_Node000007"><a xlink:title=" ">
<polygon fill="#e0e0e0" stroke="#999999" points="336,-82 280,-82 280,-59 336,-59 336,-82"/>
<text text-anchor="middle" x="308" y="-66.8" font-family="Arial" font-size="14.00">cstring</text>
</a>
</g>
</g>
<!-- Node2&#45;&gt;Node7 -->
<g id="edge11_Node000002_Node000007" class="edge">
<title>Node2&#45;&gt;Node7</title>
<g id="a_edge11_Node000002_Node000007"><a xlink:title=" ">
<path fill="none" stroke="#63b8ff" d="M358.83,-176.79C349.46,-157.37 329.51,-116.06 317.58,-91.35"/>
<polygon fill="#63b8ff" stroke="#63b8ff" points="320.65,-89.66 313.16,-82.18 314.35,-92.71 320.65,-89.66"/>
</a>
</g>
</g>
<!-- Node9 -->
<g id="Node000009" class="node">
<title>Node9</title>
<g id="a_Node000009"><a xlink:title=" ">
<polygon fill="#e0e0e0" stroke="#999999" points="453.5,-141 392.5,-141 392.5,-118 453.5,-118 453.5,-141"/>
<text text-anchor="middle" x="423" y="-125.8" font-family="Arial" font-size="14.00">cstdarg</text>
</a>
</g>
</g>
<!-- Node2&#45;&gt;Node9 -->
<g id="edge9_Node000002_Node000009" class="edge">
<title>Node2&#45;&gt;Node9</title>
<g id="a_edge9_Node000002_Node000009"><a xlink:title=" ">
<path fill="none" stroke="#63b8ff" d="M375.1,-176.78C383.42,-168.74 395,-157.55 404.69,-148.19"/>
<polygon fill="#63b8ff" stroke="#63b8ff" points="407.19,-150.64 411.95,-141.17 402.33,-145.6 407.19,-150.64"/>
</a>
</g>
</g>
<!-- Node4 -->
<g id="Node000004" class="node">
<title>Node4</title>
<g id="a_Node000004"><a xlink:href="HardwareTypes_8h.html" target="_top" xlink:title="Platform&#45;agnostic hardware type definitions for the HardFOC system.">
<polygon fill="white" stroke="#666666" points="122,-82 0,-82 0,-59 122,-59 122,-82"/>
<text text-anchor="middle" x="61" y="-66.8" font-family="Arial" font-size="14.00">HardwareTypes.h</text>
</a>
</g>
</g>
<!-- Node3&#45;&gt;Node4 -->
<g id="edge3_Node000003_Node000004" class="edge">
<title>Node3&#45;&gt;Node4</title>
<g id="a_edge3_Node000003_Node000004"><a xlink:title=" ">
<path fill="none" stroke="#63b8ff" d="M190.47,-117.91C164.92,-108.75 127.8,-95.45 99.85,-85.43"/>
<polygon fill="#63b8ff" stroke="#63b8ff" points="100.97,-82.11 90.38,-82.03 98.61,-88.7 100.97,-82.11"/>
</a>
</g>
</g>
<!-- Node3&#45;&gt;Node5 -->
<g id="edge6_Node000003_Node000005" class="edge">
<title>Node3&#45;&gt;Node5</title>
<g id="a_edge6_Node000003_Node000005"><a xlink:title=" ">
<path fill="none" stroke="#63b8ff" d="M202.5,-117.85C182.98,-104.57 155.79,-80.92 169,-59 179.89,-40.93 200.4,-29.53 218.88,-22.53"/>
<polygon fill="#63b8ff" stroke="#63b8ff" points="220.28,-25.75 228.58,-19.18 217.99,-19.14 220.28,-25.75"/>
</a>
</g>
</g>
<!-- Node3&#45;&gt;Node7 -->
<g id="edge7_Node000003_Node000007" class="edge">
<title>Node3&#45;&gt;Node7</title>
<g id="a_edge7_Node000003_Node000007"><a xlink:title=" ">
<path fill="none" stroke="#63b8ff" d="M236.55,-117.78C249.58,-109.34 267.96,-97.44 282.81,-87.82"/>
<polygon fill="#63b8ff" stroke="#63b8ff" points="285.03,-90.55 291.52,-82.17 281.23,-84.67 285.03,-90.55"/>
</a>
</g>
</g>
<!-- Node8 -->
<g id="Node000008" class="node">
<title>Node8</title>
<g id="a_Node000008"><a xlink:title=" ">
<polygon fill="#e0e0e0" stroke="#999999" points="262,-82 178,-82 178,-59 262,-59 262,-82"/>
<text text-anchor="middle" x="220" y="-66.8" font-family="Arial" font-size="14.00">string_view</text>
</a>
</g>
</g>
<!-- Node3&#45;&gt;Node8 -->
<g id="edge8_Node000003_Node000008" class="edge">
<title>Node3&#45;&gt;Node8</title>
<g id="a_edge8_Node000003_Node000008"><a xlink:title=" ">
<path fill="none" stroke="#63b8ff" d="M220,-117.78C220,-110.61 220,-100.95 220,-92.31"/>
<polygon fill="#63b8ff" stroke="#63b8ff" points="223.5,-92.17 220,-82.17 216.5,-92.17 223.5,-92.17"/>
</a>
</g>
</g>
<!-- Node4&#45;&gt;Node5 -->
<g id="edge4_Node000004_Node000005" class="edge">
<title>Node4&#45;&gt;Node5</title>
<g id="a_edge4_Node000004_Node000005"><a xlink:title=" ">
<path fill="none" stroke="#63b8ff" d="M97.41,-58.91C131.97,-48.86 183.72,-33.81 218.84,-23.6"/>
<polygon fill="#63b8ff" stroke="#63b8ff" points="220.1,-26.88 228.73,-20.72 218.15,-20.15 220.1,-26.88"/>
</a>
</g>
</g>
<!-- Node6 -->
<g id="Node000006" class="node">
<title>Node6</title>
<g id="a_Node000006"><a xlink:title=" ">
<polygon fill="#e0e0e0" stroke="#999999" points="85,-23 37,-23 37,0 85,0 85,-23"/>
<text text-anchor="middle" x="61" y="-7.8" font-family="Arial" font-size="14.00">limits</text>
</a>
</g>
</g>
<!-- Node4&#45;&gt;Node6 -->
<g id="edge5_Node000004_Node000006" class="edge">
<title>Node4&#45;&gt;Node6</title>
<g id="a_edge5_Node000004_Node000006"><a xlink:title=" ">
<path fill="none" stroke="#63b8ff" d="M61,-58.78C61,-51.61 61,-41.95 61,-33.31"/>
<polygon fill="#63b8ff" stroke="#63b8ff" points="64.5,-33.17 61,-23.17 57.5,-33.17 64.5,-33.17"/>
</a>
</g>
</g>
</g>
</svg>
