<?xml version="1.0" encoding="UTF-8" standalone="no"?>
<!DOCTYPE svg PUBLIC "-//W3C//DTD SVG 1.1//EN"
 "http://www.w3.org/Graphics/SVG/1.1/DTD/svg11.dtd">
<!-- Generated by graphviz version 2.43.0 (0)
 -->
<!-- Title: inc/mcu/esp32/EspWifi.h Pages: 1 -->
<svg width="1551pt" height="223pt"
 viewBox="0.00 0.00 1551.00 223.00" xmlns="http://www.w3.org/2000/svg" xmlns:xlink="http://www.w3.org/1999/xlink">
<g id="graph0" class="graph" transform="scale(1 1) rotate(0) translate(4 219)">
<title>inc/mcu/esp32/EspWifi.h</title>
<!-- Node1 -->
<g id="Node000001" class="node">
<title>Node1</title>
<g id="a_Node000001"><a xlink:title="Advanced ESP32 implementation of the unified BaseWifi class with ESP&#45;IDF v5.5+ features.">
<polygon fill="#999999" stroke="#666666" points="819,-215 653,-215 653,-192 819,-192 819,-215"/>
<text text-anchor="middle" x="736" y="-199.8" font-family="Arial" font-size="14.00">inc/mcu/esp32/EspWifi.h</text>
</a>
</g>
</g>
<!-- Node2 -->
<g id="Node000002" class="node">
<title>Node2</title>
<g id="a_Node000002"><a xlink:title=" ">
<polygon fill="#e0e0e0" stroke="#999999" points="90,-148.5 0,-148.5 0,-125.5 90,-125.5 90,-148.5"/>
<text text-anchor="middle" x="45" y="-133.3" font-family="Arial" font-size="14.00">esp_event.h</text>
</a>
</g>
</g>
<!-- Node1&#45;&gt;Node2 -->
<g id="edge1_Node000001_Node000002" class="edge">
<title>Node1&#45;&gt;Node2</title>
<g id="a_edge1_Node000001_Node000002"><a xlink:title=" ">
<path fill="none" stroke="#63b8ff" d="M652.91,-202.99C530.46,-202.23 294.86,-195.15 99,-156 93.43,-154.89 87.63,-153.36 82,-151.67"/>
<polygon fill="#63b8ff" stroke="#63b8ff" points="82.71,-148.22 72.11,-148.5 80.57,-154.89 82.71,-148.22"/>
</a>
</g>
</g>
<!-- Node3 -->
<g id="Node000003" class="node">
<title>Node3</title>
<g id="a_Node000003"><a xlink:title=" ">
<polygon fill="#e0e0e0" stroke="#999999" points="199.5,-148.5 108.5,-148.5 108.5,-125.5 199.5,-125.5 199.5,-148.5"/>
<text text-anchor="middle" x="154" y="-133.3" font-family="Arial" font-size="14.00">esp_mesh.h</text>
</a>
</g>
</g>
<!-- Node1&#45;&gt;Node3 -->
<g id="edge2_Node000001_Node000003" class="edge">
<title>Node1&#45;&gt;Node3</title>
<g id="a_edge2_Node000001_Node000003"><a xlink:title=" ">
<path fill="none" stroke="#63b8ff" d="M652.82,-201.16C548.05,-198.11 362.97,-188.19 208,-156 202.5,-154.86 196.77,-153.33 191.2,-151.65"/>
<polygon fill="#63b8ff" stroke="#63b8ff" points="192,-148.24 181.41,-148.51 189.86,-154.9 192,-148.24"/>
</a>
</g>
</g>
<!-- Node4 -->
<g id="Node000004" class="node">
<title>Node4</title>
<g id="a_Node000004"><a xlink:title=" ">
<polygon fill="#e0e0e0" stroke="#999999" points="300.5,-148.5 217.5,-148.5 217.5,-125.5 300.5,-125.5 300.5,-148.5"/>
<text text-anchor="middle" x="259" y="-133.3" font-family="Arial" font-size="14.00">esp_netif.h</text>
</a>
</g>
</g>
<!-- Node1&#45;&gt;Node4 -->
<g id="edge3_Node000001_Node000004" class="edge">
<title>Node1&#45;&gt;Node4</title>
<g id="a_edge3_Node000001_Node000004"><a xlink:title=" ">
<path fill="none" stroke="#63b8ff" d="M652.6,-199.08C566.03,-194.21 427.15,-182.69 310,-156 304.98,-154.86 299.77,-153.38 294.68,-151.76"/>
<polygon fill="#63b8ff" stroke="#63b8ff" points="295.72,-148.41 285.13,-148.52 293.48,-155.04 295.72,-148.41"/>
</a>
</g>
</g>
<!-- Node5 -->
<g id="Node000005" class="node">
<title>Node5</title>
<g id="a_Node000005"><a xlink:title=" ">
<polygon fill="#e0e0e0" stroke="#999999" points="447,-148.5 319,-148.5 319,-125.5 447,-125.5 447,-148.5"/>
<text text-anchor="middle" x="383" y="-133.3" font-family="Arial" font-size="14.00">esp_smartconfig.h</text>
</a>
</g>
</g>
<!-- Node1&#45;&gt;Node5 -->
<g id="edge4_Node000001_Node000005" class="edge">
<title>Node1&#45;&gt;Node5</title>
<g id="a_edge4_Node000001_Node000005"><a xlink:title=" ">
<path fill="none" stroke="#63b8ff" d="M663.2,-191.99C606.52,-183.42 525.98,-170.42 456,-156 448.62,-154.48 440.86,-152.73 433.26,-150.93"/>
<polygon fill="#63b8ff" stroke="#63b8ff" points="433.96,-147.5 423.42,-148.56 432.32,-154.3 433.96,-147.5"/>
</a>
</g>
</g>
<!-- Node6 -->
<g id="Node000006" class="node">
<title>Node6</title>
<g id="a_Node000006"><a xlink:title=" ">
<polygon fill="#e0e0e0" stroke="#999999" points="542.5,-148.5 465.5,-148.5 465.5,-125.5 542.5,-125.5 542.5,-148.5"/>
<text text-anchor="middle" x="504" y="-133.3" font-family="Arial" font-size="14.00">esp_wifi.h</text>
</a>
</g>
</g>
<!-- Node1&#45;&gt;Node6 -->
<g id="edge5_Node000001_Node000006" class="edge">
<title>Node1&#45;&gt;Node6</title>
<g id="a_edge5_Node000001_Node000006"><a xlink:title=" ">
<path fill="none" stroke="#63b8ff" d="M687.26,-191.92C649.69,-183.37 596.63,-170.42 551,-156 547.26,-154.82 543.39,-153.5 539.55,-152.13"/>
<polygon fill="#63b8ff" stroke="#63b8ff" points="540.75,-148.84 530.15,-148.65 538.32,-155.4 540.75,-148.84"/>
</a>
</g>
</g>
<!-- Node7 -->
<g id="Node000007" class="node">
<title>Node7</title>
<g id="a_Node000007"><a xlink:title=" ">
<polygon fill="#e0e0e0" stroke="#999999" points="631.5,-148.5 560.5,-148.5 560.5,-125.5 631.5,-125.5 631.5,-148.5"/>
<text text-anchor="middle" x="596" y="-133.3" font-family="Arial" font-size="14.00">lwip/err.h</text>
</a>
</g>
</g>
<!-- Node1&#45;&gt;Node7 -->
<g id="edge6_Node000001_Node000007" class="edge">
<title>Node1&#45;&gt;Node7</title>
<g id="a_edge6_Node000001_Node000007"><a xlink:title=" ">
<path fill="none" stroke="#63b8ff" d="M713.19,-191.99C690.01,-181.31 653.89,-164.67 627.88,-152.69"/>
<polygon fill="#63b8ff" stroke="#63b8ff" points="629.34,-149.51 618.8,-148.5 626.41,-155.87 629.34,-149.51"/>
</a>
</g>
</g>
<!-- Node8 -->
<g id="Node000008" class="node">
<title>Node8</title>
<g id="a_Node000008"><a xlink:title=" ">
<polygon fill="#e0e0e0" stroke="#999999" points="724.5,-148.5 649.5,-148.5 649.5,-125.5 724.5,-125.5 724.5,-148.5"/>
<text text-anchor="middle" x="687" y="-133.3" font-family="Arial" font-size="14.00">lwip/sys.h</text>
</a>
</g>
</g>
<!-- Node1&#45;&gt;Node8 -->
<g id="edge7_Node000001_Node000008" class="edge">
<title>Node1&#45;&gt;Node8</title>
<g id="a_edge7_Node000001_Node000008"><a xlink:title=" ">
<path fill="none" stroke="#63b8ff" d="M727.91,-191.85C720.72,-182.38 710.03,-168.32 701.39,-156.94"/>
<polygon fill="#63b8ff" stroke="#63b8ff" points="704.1,-154.73 695.27,-148.88 698.53,-158.96 704.1,-154.73"/>
</a>
</g>
</g>
<!-- Node9 -->
<g id="Node000009" class="node">
<title>Node9</title>
<g id="a_Node000009"><a xlink:title=" ">
<polygon fill="#e0e0e0" stroke="#999999" points="827.5,-148.5 742.5,-148.5 742.5,-125.5 827.5,-125.5 827.5,-148.5"/>
<text text-anchor="middle" x="785" y="-133.3" font-family="Arial" font-size="14.00">nvs_flash.h</text>
</a>
</g>
</g>
<!-- Node1&#45;&gt;Node9 -->
<g id="edge8_Node000001_Node000009" class="edge">
<title>Node1&#45;&gt;Node9</title>
<g id="a_edge8_Node000001_Node000009"><a xlink:title=" ">
<path fill="none" stroke="#63b8ff" d="M744.09,-191.85C751.28,-182.38 761.97,-168.32 770.61,-156.94"/>
<polygon fill="#63b8ff" stroke="#63b8ff" points="773.47,-158.96 776.73,-148.88 767.9,-154.73 773.47,-158.96"/>
</a>
</g>
</g>
<!-- Node10 -->
<g id="Node000010" class="node">
<title>Node10</title>
<g id="a_Node000010"><a xlink:href="BaseWifi_8h.html" target="_top" xlink:title="Unified WiFi base class for all WiFi implementations.">
<polygon fill="white" stroke="#666666" points="1320,-148.5 1238,-148.5 1238,-125.5 1320,-125.5 1320,-148.5"/>
<text text-anchor="middle" x="1279" y="-133.3" font-family="Arial" font-size="14.00">BaseWifi.h</text>
</a>
</g>
</g>
<!-- Node1&#45;&gt;Node10 -->
<g id="edge9_Node000001_Node000010" class="edge">
<title>Node1&#45;&gt;Node10</title>
<g id="a_edge9_Node000001_Node000010"><a xlink:title=" ">
<path fill="none" stroke="#63b8ff" d="M819.42,-201C918.27,-197.77 1087.42,-187.63 1229,-156 1233.99,-154.88 1239.17,-153.41 1244.21,-151.78"/>
<polygon fill="#63b8ff" stroke="#63b8ff" points="1245.36,-155.08 1253.67,-148.51 1243.08,-148.47 1245.36,-155.08"/>
</a>
</g>
</g>
<!-- Node17 -->
<g id="Node000017" class="node">
<title>Node17</title>
<g id="a_Node000017"><a xlink:href="EspTypes__Base_8h.html" target="_top" xlink:title="ESP32 base type definitions for hardware abstraction.">
<polygon fill="white" stroke="#666666" points="1220,-156 1046,-156 1046,-118 1220,-118 1220,-156"/>
<text text-anchor="start" x="1054" y="-140.8" font-family="Arial" font-size="14.00">mcu/esp32/utils/EspTypes</text>
<text text-anchor="middle" x="1133" y="-125.8" font-family="Arial" font-size="14.00">_Base.h</text>
</a>
</g>
</g>
<!-- Node1&#45;&gt;Node17 -->
<g id="edge17_Node000001_Node000017" class="edge">
<title>Node1&#45;&gt;Node17</title>
<g id="a_edge17_Node000001_Node000017"><a xlink:title=" ">
<path fill="none" stroke="#63b8ff" d="M805.74,-191.96C865.76,-182.79 954.66,-168.97 1032,-156 1033.28,-155.78 1034.58,-155.57 1035.88,-155.35"/>
<polygon fill="#63b8ff" stroke="#63b8ff" points="1036.7,-158.76 1045.97,-153.63 1035.53,-151.86 1036.7,-158.76"/>
</a>
</g>
</g>
<!-- Node19 -->
<g id="Node000019" class="node">
<title>Node19</title>
<g id="a_Node000019"><a xlink:title=" ">
<polygon fill="#e0e0e0" stroke="#999999" points="1064.5,-82 1007.5,-82 1007.5,-59 1064.5,-59 1064.5,-82"/>
<text text-anchor="middle" x="1036" y="-66.8" font-family="Arial" font-size="14.00">atomic</text>
</a>
</g>
</g>
<!-- Node1&#45;&gt;Node19 -->
<g id="edge26_Node000001_Node000019" class="edge">
<title>Node1&#45;&gt;Node19</title>
<g id="a_edge26_Node000001_Node000019"><a xlink:title=" ">
<path fill="none" stroke="#63b8ff" d="M819.21,-196.31C885.5,-189.85 971.58,-177.57 999,-156 1018.87,-140.37 1028.31,-111.87 1032.62,-92.33"/>
<polygon fill="#63b8ff" stroke="#63b8ff" points="1036.1,-92.76 1034.56,-82.28 1029.23,-91.43 1036.1,-92.76"/>
</a>
</g>
</g>
<!-- Node20 -->
<g id="Node000020" class="node">
<title>Node20</title>
<g id="a_Node000020"><a xlink:href="PlatformMutex_8h.html" target="_top" xlink:title="Cross&#45;platform RTOS mutex and synchronization primitives.">
<polygon fill="white" stroke="#666666" points="990,-148.5 846,-148.5 846,-125.5 990,-125.5 990,-148.5"/>
<text text-anchor="middle" x="918" y="-133.3" font-family="Arial" font-size="14.00">utils/PlatformMutex.h</text>
</a>
</g>
</g>
<!-- Node1&#45;&gt;Node20 -->
<g id="edge22_Node000001_Node000020" class="edge">
<title>Node1&#45;&gt;Node20</title>
<g id="a_edge22_Node000001_Node000020"><a xlink:title=" ">
<path fill="none" stroke="#63b8ff" d="M765.65,-191.99C796.45,-181.08 844.81,-163.94 878.76,-151.91"/>
<polygon fill="#63b8ff" stroke="#63b8ff" points="880.11,-155.14 888.37,-148.5 877.77,-148.54 880.11,-155.14"/>
</a>
</g>
</g>
<!-- Node21 -->
<g id="Node000021" class="node">
<title>Node21</title>
<g id="a_Node000021"><a xlink:title=" ">
<polygon fill="#e0e0e0" stroke="#999999" points="1405.5,-148.5 1338.5,-148.5 1338.5,-125.5 1405.5,-125.5 1405.5,-148.5"/>
<text text-anchor="middle" x="1372" y="-133.3" font-family="Arial" font-size="14.00">memory</text>
</a>
</g>
</g>
<!-- Node1&#45;&gt;Node21 -->
<g id="edge27_Node000001_Node000021" class="edge">
<title>Node1&#45;&gt;Node21</title>
<g id="a_edge27_Node000001_Node000021"><a xlink:title=" ">
<path fill="none" stroke="#63b8ff" d="M819.04,-199.24C958.7,-193.22 1234.59,-178.84 1329,-156 1332.96,-155.04 1337.02,-153.77 1340.99,-152.33"/>
<polygon fill="#63b8ff" stroke="#63b8ff" points="1342.57,-155.47 1350.58,-148.54 1339.99,-148.97 1342.57,-155.47"/>
</a>
</g>
</g>
<!-- Node22 -->
<g id="Node000022" class="node">
<title>Node22</title>
<g id="a_Node000022"><a xlink:title=" ">
<polygon fill="#e0e0e0" stroke="#999999" points="1478,-148.5 1424,-148.5 1424,-125.5 1478,-125.5 1478,-148.5"/>
<text text-anchor="middle" x="1451" y="-133.3" font-family="Arial" font-size="14.00">queue</text>
</a>
</g>
</g>
<!-- Node1&#45;&gt;Node22 -->
<g id="edge28_Node000001_Node000022" class="edge">
<title>Node1&#45;&gt;Node22</title>
<g id="a_edge28_Node000001_Node000022"><a xlink:title=" ">
<path fill="none" stroke="#63b8ff" d="M819.14,-200.88C974.93,-197.18 1304.99,-185.97 1415,-156 1418,-155.18 1421.05,-154.1 1424.04,-152.88"/>
<polygon fill="#63b8ff" stroke="#63b8ff" points="1425.64,-155.99 1433.24,-148.62 1422.7,-149.64 1425.64,-155.99"/>
</a>
</g>
</g>
<!-- Node11 -->
<g id="Node000011" class="node">
<title>Node11</title>
<g id="a_Node000011"><a xlink:href="HardwareTypes_8h.html" target="_top" xlink:title="Platform&#45;agnostic hardware type definitions for the HardFOC system.">
<polygon fill="white" stroke="#666666" points="1243,-82 1121,-82 1121,-59 1243,-59 1243,-82"/>
<text text-anchor="middle" x="1182" y="-66.8" font-family="Arial" font-size="14.00">HardwareTypes.h</text>
</a>
</g>
</g>
<!-- Node10&#45;&gt;Node11 -->
<g id="edge10_Node000010_Node000011" class="edge">
<title>Node10&#45;&gt;Node11</title>
<g id="a_edge10_Node000010_Node000011"><a xlink:title=" ">
<path fill="none" stroke="#63b8ff" d="M1262.98,-125.35C1247.68,-115.17 1224.39,-99.68 1206.7,-87.93"/>
<polygon fill="#63b8ff" stroke="#63b8ff" points="1208.31,-84.79 1198.04,-82.17 1204.43,-90.62 1208.31,-84.79"/>
</a>
</g>
</g>
<!-- Node12 -->
<g id="Node000012" class="node">
<title>Node12</title>
<g id="a_Node000012"><a xlink:title=" ">
<polygon fill="#e0e0e0" stroke="#999999" points="1131,-23 1075,-23 1075,0 1131,0 1131,-23"/>
<text text-anchor="middle" x="1103" y="-7.8" font-family="Arial" font-size="14.00">cstdint</text>
</a>
</g>
</g>
<!-- Node10&#45;&gt;Node12 -->
<g id="edge13_Node000010_Node000012" class="edge">
<title>Node10&#45;&gt;Node12</title>
<g id="a_edge13_Node000010_Node000012"><a xlink:title=" ">
<path fill="none" stroke="#63b8ff" d="M1278.24,-125.45C1276.49,-108.96 1270.75,-77.11 1252,-59 1243.83,-51.11 1182.44,-33.61 1141.05,-22.47"/>
<polygon fill="#63b8ff" stroke="#63b8ff" points="1141.83,-19.05 1131.26,-19.85 1140.02,-25.82 1141.83,-19.05"/>
</a>
</g>
</g>
<!-- Node14 -->
<g id="Node000014" class="node">
<title>Node14</title>
<g id="a_Node000014"><a xlink:title=" ">
<polygon fill="#e0e0e0" stroke="#999999" points="1373,-82 1299,-82 1299,-59 1373,-59 1373,-82"/>
<text text-anchor="middle" x="1336" y="-66.8" font-family="Arial" font-size="14.00">functional</text>
</a>
</g>
</g>
<!-- Node10&#45;&gt;Node14 -->
<g id="edge14_Node000010_Node000014" class="edge">
<title>Node10&#45;&gt;Node14</title>
<g id="a_edge14_Node000010_Node000014"><a xlink:title=" ">
<path fill="none" stroke="#63b8ff" d="M1288.41,-125.35C1296.86,-115.79 1309.45,-101.55 1319.56,-90.11"/>
<polygon fill="#63b8ff" stroke="#63b8ff" points="1322.38,-92.19 1326.38,-82.38 1317.14,-87.56 1322.38,-92.19"/>
</a>
</g>
</g>
<!-- Node15 -->
<g id="Node000015" class="node">
<title>Node15</title>
<g id="a_Node000015"><a xlink:title=" ">
<polygon fill="#e0e0e0" stroke="#999999" points="1441,-82 1391,-82 1391,-59 1441,-59 1441,-82"/>
<text text-anchor="middle" x="1416" y="-66.8" font-family="Arial" font-size="14.00">string</text>
</a>
</g>
</g>
<!-- Node10&#45;&gt;Node15 -->
<g id="edge15_Node000010_Node000015" class="edge">
<title>Node10&#45;&gt;Node15</title>
<g id="a_edge15_Node000010_Node000015"><a xlink:title=" ">
<path fill="none" stroke="#63b8ff" d="M1301.32,-125.49C1323.91,-114.86 1359.04,-98.32 1384.47,-86.34"/>
<polygon fill="#63b8ff" stroke="#63b8ff" points="1386.14,-89.43 1393.69,-82 1383.15,-83.1 1386.14,-89.43"/>
</a>
</g>
</g>
<!-- Node16 -->
<g id="Node000016" class="node">
<title>Node16</title>
<g id="a_Node000016"><a xlink:title=" ">
<polygon fill="#e0e0e0" stroke="#999999" points="1543,-82 1459,-82 1459,-59 1543,-59 1543,-82"/>
<text text-anchor="middle" x="1501" y="-66.8" font-family="Arial" font-size="14.00">string_view</text>
</a>
</g>
</g>
<!-- Node10&#45;&gt;Node16 -->
<g id="edge16_Node000010_Node000016" class="edge">
<title>Node10&#45;&gt;Node16</title>
<g id="a_edge16_Node000010_Node000016"><a xlink:title=" ">
<path fill="none" stroke="#63b8ff" d="M1307.74,-125.44C1314.97,-122.9 1322.74,-120.27 1330,-118 1369.7,-105.62 1415.14,-93.35 1449.2,-84.52"/>
<polygon fill="#63b8ff" stroke="#63b8ff" points="1450.13,-87.9 1458.94,-82.01 1448.38,-81.12 1450.13,-87.9"/>
</a>
</g>
</g>
<!-- Node11&#45;&gt;Node12 -->
<g id="edge11_Node000011_Node000012" class="edge">
<title>Node11&#45;&gt;Node12</title>
<g id="a_edge11_Node000011_Node000012"><a xlink:title=" ">
<path fill="none" stroke="#63b8ff" d="M1167.14,-58.78C1155.55,-50.42 1139.26,-38.66 1125.99,-29.09"/>
<polygon fill="#63b8ff" stroke="#63b8ff" points="1127.95,-26.19 1117.79,-23.17 1123.85,-31.86 1127.95,-26.19"/>
</a>
</g>
</g>
<!-- Node13 -->
<g id="Node000013" class="node">
<title>Node13</title>
<g id="a_Node000013"><a xlink:title=" ">
<polygon fill="#e0e0e0" stroke="#999999" points="1206,-23 1158,-23 1158,0 1206,0 1206,-23"/>
<text text-anchor="middle" x="1182" y="-7.8" font-family="Arial" font-size="14.00">limits</text>
</a>
</g>
</g>
<!-- Node11&#45;&gt;Node13 -->
<g id="edge12_Node000011_Node000013" class="edge">
<title>Node11&#45;&gt;Node13</title>
<g id="a_edge12_Node000011_Node000013"><a xlink:title=" ">
<path fill="none" stroke="#63b8ff" d="M1182,-58.78C1182,-51.61 1182,-41.95 1182,-33.31"/>
<polygon fill="#63b8ff" stroke="#63b8ff" points="1185.5,-33.17 1182,-23.17 1178.5,-33.17 1185.5,-33.17"/>
</a>
</g>
</g>
<!-- Node17&#45;&gt;Node11 -->
<g id="edge19_Node000017_Node000011" class="edge">
<title>Node17&#45;&gt;Node11</title>
<g id="a_edge19_Node000017_Node000011"><a xlink:title=" ">
<path fill="none" stroke="#63b8ff" d="M1146.91,-117.69C1153.45,-109.09 1161.23,-98.84 1167.8,-90.19"/>
<polygon fill="#63b8ff" stroke="#63b8ff" points="1170.62,-92.27 1173.88,-82.19 1165.04,-88.04 1170.62,-92.27"/>
</a>
</g>
</g>
<!-- Node17&#45;&gt;Node12 -->
<g id="edge21_Node000017_Node000012" class="edge">
<title>Node17&#45;&gt;Node12</title>
<g id="a_edge21_Node000017_Node000012"><a xlink:title=" ">
<path fill="none" stroke="#63b8ff" d="M1124.68,-117.87C1120.27,-107.55 1115.13,-94.28 1112,-82 1107.87,-65.81 1105.58,-47 1104.35,-33.03"/>
<polygon fill="#63b8ff" stroke="#63b8ff" points="1107.83,-32.71 1103.57,-23.01 1100.85,-33.25 1107.83,-32.71"/>
</a>
</g>
</g>
<!-- Node18 -->
<g id="Node000018" class="node">
<title>Node18</title>
<g id="a_Node000018"><a xlink:href="McuSelect_8h.html" target="_top" xlink:title="Centralized MCU platform selection and configuration header.">
<polygon fill="white" stroke="#666666" points="989,-82 847,-82 847,-59 989,-59 989,-82"/>
<text text-anchor="middle" x="918" y="-66.8" font-family="Arial" font-size="14.00">../../utils/McuSelect.h</text>
</a>
</g>
</g>
<!-- Node17&#45;&gt;Node18 -->
<g id="edge18_Node000017_Node000018" class="edge">
<title>Node17&#45;&gt;Node18</title>
<g id="a_edge18_Node000017_Node000018"><a xlink:title=" ">
<path fill="none" stroke="#63b8ff" d="M1072.82,-117.95C1038.07,-107.52 995.08,-94.62 963.23,-85.07"/>
<polygon fill="#63b8ff" stroke="#63b8ff" points="963.88,-81.61 953.3,-82.09 961.87,-88.32 963.88,-81.61"/>
</a>
</g>
</g>
<!-- Node17&#45;&gt;Node19 -->
<g id="edge20_Node000017_Node000019" class="edge">
<title>Node17&#45;&gt;Node19</title>
<g id="a_edge20_Node000017_Node000019"><a xlink:title=" ">
<path fill="none" stroke="#63b8ff" d="M1105.72,-117.86C1091.47,-108.39 1074.18,-96.89 1060.38,-87.71"/>
<polygon fill="#63b8ff" stroke="#63b8ff" points="1062.15,-84.68 1051.88,-82.06 1058.27,-90.51 1062.15,-84.68"/>
</a>
</g>
</g>
<!-- Node20&#45;&gt;Node12 -->
<g id="edge25_Node000020_Node000012" class="edge">
<title>Node20&#45;&gt;Node12</title>
<g id="a_edge25_Node000020_Node000012"><a xlink:title=" ">
<path fill="none" stroke="#63b8ff" d="M892.26,-125.39C861.4,-111.18 816.37,-84.76 838,-59 866.51,-25.05 998.47,-15.88 1064.77,-13.41"/>
<polygon fill="#63b8ff" stroke="#63b8ff" points="1064.94,-16.9 1074.82,-13.07 1064.7,-9.91 1064.94,-16.9"/>
</a>
</g>
</g>
<!-- Node20&#45;&gt;Node18 -->
<g id="edge23_Node000020_Node000018" class="edge">
<title>Node20&#45;&gt;Node18</title>
<g id="a_edge23_Node000020_Node000018"><a xlink:title=" ">
<path fill="none" stroke="#63b8ff" d="M918,-125.35C918,-116.44 918,-103.46 918,-92.48"/>
<polygon fill="#63b8ff" stroke="#63b8ff" points="921.5,-92.38 918,-82.38 914.5,-92.38 921.5,-92.38"/>
</a>
</g>
</g>
<!-- Node20&#45;&gt;Node19 -->
<g id="edge24_Node000020_Node000019" class="edge">
<title>Node20&#45;&gt;Node19</title>
<g id="a_edge24_Node000020_Node000019"><a xlink:title=" ">
<path fill="none" stroke="#63b8ff" d="M937.22,-125.49C956.42,-115 986.14,-98.75 1007.97,-86.82"/>
<polygon fill="#63b8ff" stroke="#63b8ff" points="1009.69,-89.87 1016.79,-82 1006.33,-83.73 1009.69,-89.87"/>
</a>
</g>
</g>
</g>
</svg>
