<?xml version="1.0" encoding="UTF-8" standalone="no"?>
<!DOCTYPE svg PUBLIC "-//W3C//DTD SVG 1.1//EN"
 "http://www.w3.org/Graphics/SVG/1.1/DTD/svg11.dtd">
<!-- Generated by graphviz version 2.43.0 (0)
 -->
<!-- Title: Graphical Class Hierarchy Pages: 1 -->
<svg width="184pt" height="72pt"
 viewBox="0.00 0.00 184.00 72.00" xmlns="http://www.w3.org/2000/svg" xmlns:xlink="http://www.w3.org/1999/xlink">
<g id="graph0" class="graph" transform="scale(1 1) rotate(0) translate(4 68)">
<title>Graphical Class Hierarchy</title>
<!-- Node0 -->
<g id="Node000000" class="node">
<title>Node0</title>
<g id="a_Node000000"><a xlink:href="classBaseUart.html" target="_top" xlink:title="Abstract base class for UART driver implementations.">
<polygon fill="white" stroke="#666666" points="73,-43 0,-43 0,-20 73,-20 73,-43"/>
<text text-anchor="middle" x="36.5" y="-27.8" font-family="Arial" font-size="14.00">BaseUart</text>
</a>
</g>
</g>
<!-- Node1 -->
<g id="Node000001" class="node">
<title>Node1</title>
<g id="a_Node000001"><a xlink:href="classEspUart.html" target="_top" xlink:title="ESP32 UART implementation class.">
<polygon fill="white" stroke="#666666" points="175,-64 110,-64 110,-41 175,-41 175,-64"/>
<text text-anchor="middle" x="142.5" y="-48.8" font-family="Arial" font-size="14.00">EspUart</text>
</a>
</g>
</g>
<!-- Node0&#45;&gt;Node1 -->
<g id="edge21_Node000000_Node000001" class="edge">
<title>Node0&#45;&gt;Node1</title>
<g id="a_edge21_Node000000_Node000001"><a xlink:title=" ">
<path fill="none" stroke="#63b8ff" d="M83.08,-40.7C92.16,-42.54 101.51,-44.42 109.99,-46.14"/>
<polygon fill="#63b8ff" stroke="#63b8ff" points="83.49,-37.22 73,-38.67 82.11,-44.08 83.49,-37.22"/>
</a>
</g>
</g>
<!-- Node2 -->
<g id="Node000002" class="node">
<title>Node2</title>
<g id="a_Node000002"><a xlink:href="classStmUart.html" target="_top" xlink:title="STM32 UART implementation.">
<polygon fill="white" stroke="#666666" points="176,-23 109,-23 109,0 176,0 176,-23"/>
<text text-anchor="middle" x="142.5" y="-7.8" font-family="Arial" font-size="14.00">StmUart</text>
</a>
</g>
</g>
<!-- Node0&#45;&gt;Node2 -->
<g id="edge22_Node000000_Node000002" class="edge">
<title>Node0&#45;&gt;Node2</title>
<g id="a_edge22_Node000000_Node000002"><a xlink:title=" ">
<path fill="none" stroke="#63b8ff" d="M83.06,-22.74C91.78,-21.06 100.75,-19.34 108.96,-17.76"/>
<polygon fill="#63b8ff" stroke="#63b8ff" points="82.16,-19.35 73,-24.67 83.48,-26.22 82.16,-19.35"/>
</a>
</g>
</g>
</g>
</svg>
