<?xml version="1.0" encoding="UTF-8" standalone="no"?>
<!DOCTYPE svg PUBLIC "-//W3C//DTD SVG 1.1//EN"
 "http://www.w3.org/Graphics/SVG/1.1/DTD/svg11.dtd">
<!-- Generated by graphviz version 2.43.0 (0)
 -->
<!-- Title: Graphical Class Hierarchy Pages: 1 -->
<svg width="210pt" height="72pt"
 viewBox="0.00 0.00 210.00 72.00" xmlns="http://www.w3.org/2000/svg" xmlns:xlink="http://www.w3.org/1999/xlink">
<g id="graph0" class="graph" transform="scale(1 1) rotate(0) translate(4 68)">
<title>Graphical Class Hierarchy</title>
<!-- Node0 -->
<g id="Node000000" class="node">
<title>Node0</title>
<g id="a_Node000000"><a xlink:href="classBaseI2c.html" target="_top" xlink:title="Abstract base class for I2C device implementations.">
<polygon fill="white" stroke="#666666" points="65,-43 0,-43 0,-20 65,-20 65,-43"/>
<text text-anchor="middle" x="32.5" y="-27.8" font-family="Arial" font-size="14.00">BaseI2c</text>
</a>
</g>
</g>
<!-- Node1 -->
<g id="Node000001" class="node">
<title>Node1</title>
<g id="a_Node000001"><a xlink:href="classEspI2cDevice.html" target="_top" xlink:title="Represents a single I2C device on a bus.">
<polygon fill="white" stroke="#666666" points="201,-64 102,-64 102,-41 201,-41 201,-64"/>
<text text-anchor="middle" x="151.5" y="-48.8" font-family="Arial" font-size="14.00">EspI2cDevice</text>
</a>
</g>
</g>
<!-- Node0&#45;&gt;Node1 -->
<g id="edge6_Node000000_Node000001" class="edge">
<title>Node0&#45;&gt;Node1</title>
<g id="a_edge6_Node000000_Node000001"><a xlink:title=" ">
<path fill="none" stroke="#63b8ff" d="M75.27,-39C83.82,-40.53 92.88,-42.16 101.65,-43.73"/>
<polygon fill="#63b8ff" stroke="#63b8ff" points="75.62,-35.5 65.16,-37.18 74.39,-42.39 75.62,-35.5"/>
</a>
</g>
</g>
<!-- Node2 -->
<g id="Node000002" class="node">
<title>Node2</title>
<g id="a_Node000002"><a xlink:href="classStmI2cDevice.html" target="_top" xlink:title="STM32 I2C device — stub implementation.">
<polygon fill="white" stroke="#666666" points="202,-23 101,-23 101,0 202,0 202,-23"/>
<text text-anchor="middle" x="151.5" y="-7.8" font-family="Arial" font-size="14.00">StmI2cDevice</text>
</a>
</g>
</g>
<!-- Node0&#45;&gt;Node2 -->
<g id="edge7_Node000000_Node000002" class="edge">
<title>Node0&#45;&gt;Node2</title>
<g id="a_edge7_Node000000_Node000002"><a xlink:title=" ">
<path fill="none" stroke="#63b8ff" d="M75.02,-24.4C83.35,-22.98 92.18,-21.47 100.76,-20"/>
<polygon fill="#63b8ff" stroke="#63b8ff" points="74.43,-20.95 65.16,-26.09 75.61,-27.85 74.43,-20.95"/>
</a>
</g>
</g>
</g>
</svg>
