<?xml version="1.0" encoding="UTF-8" standalone="no"?>
<!DOCTYPE svg PUBLIC "-//W3C//DTD SVG 1.1//EN"
 "http://www.w3.org/Graphics/SVG/1.1/DTD/svg11.dtd">
<!-- Generated by graphviz version 2.43.0 (0)
 -->
<!-- Title: Graphical Class Hierarchy Pages: 1 -->
<svg width="300pt" height="72pt"
 viewBox="0.00 0.00 300.00 72.00" xmlns="http://www.w3.org/2000/svg" xmlns:xlink="http://www.w3.org/1999/xlink">
<g id="graph0" class="graph" transform="scale(1 1) rotate(0) translate(4 68)">
<title>Graphical Class Hierarchy</title>
<!-- Node0 -->
<g id="Node000000" class="node">
<title>Node0</title>
<g id="a_Node000000"><a xlink:href="classBasePeriodicTimer.html" target="_top" xlink:title="Abstract base class for periodic timer operations.">
<polygon fill="white" stroke="#666666" points="131,-43 0,-43 0,-20 131,-20 131,-43"/>
<text text-anchor="middle" x="65.5" y="-27.8" font-family="Arial" font-size="14.00">BasePeriodicTimer</text>
</a>
</g>
</g>
<!-- Node1 -->
<g id="Node000001" class="node">
<title>Node1</title>
<g id="a_Node000001"><a xlink:href="classEspPeriodicTimer.html" target="_top" xlink:title="MCU&#45;integrated periodic timer implementation.">
<polygon fill="white" stroke="#666666" points="291.5,-64 167.5,-64 167.5,-41 291.5,-41 291.5,-64"/>
<text text-anchor="middle" x="229.5" y="-48.8" font-family="Arial" font-size="14.00">EspPeriodicTimer</text>
</a>
</g>
</g>
<!-- Node0&#45;&gt;Node1 -->
<g id="edge12_Node000000_Node000001" class="edge">
<title>Node0&#45;&gt;Node1</title>
<g id="a_edge12_Node000000_Node000001"><a xlink:title=" ">
<path fill="none" stroke="#63b8ff" d="M141.57,-41.23C150.25,-42.36 159.01,-43.49 167.47,-44.59"/>
<polygon fill="#63b8ff" stroke="#63b8ff" points="141.83,-37.74 131.46,-39.92 140.93,-44.68 141.83,-37.74"/>
</a>
</g>
</g>
<!-- Node2 -->
<g id="Node000002" class="node">
<title>Node2</title>
<g id="a_Node000002"><a xlink:href="classStmPeriodicTimer.html" target="_top" xlink:title="STM32 Periodic Timer implementation.">
<polygon fill="white" stroke="#666666" points="292,-23 167,-23 167,0 292,0 292,-23"/>
<text text-anchor="middle" x="229.5" y="-7.8" font-family="Arial" font-size="14.00">StmPeriodicTimer</text>
</a>
</g>
</g>
<!-- Node0&#45;&gt;Node2 -->
<g id="edge13_Node000000_Node000002" class="edge">
<title>Node0&#45;&gt;Node2</title>
<g id="a_edge13_Node000000_Node000002"><a xlink:title=" ">
<path fill="none" stroke="#63b8ff" d="M141.42,-22.25C149.97,-21.2 158.6,-20.13 166.95,-19.1"/>
<polygon fill="#63b8ff" stroke="#63b8ff" points="140.95,-18.78 131.46,-23.48 141.81,-25.73 140.95,-18.78"/>
</a>
</g>
</g>
</g>
</svg>
