<?xml version="1.0" encoding="UTF-8" standalone="no"?>
<!DOCTYPE svg PUBLIC "-//W3C//DTD SVG 1.1//EN"
 "http://www.w3.org/Graphics/SVG/1.1/DTD/svg11.dtd">
<!-- Generated by graphviz version 2.43.0 (0)
 -->
<!-- Title: examples/esp32/main/LoggerComprehensiveTest.cpp Pages: 1 -->
<!--zoomable 400 -->

<svg id="main" version="1.1" xmlns="http://www.w3.org/2000/svg" xmlns:xlink="http://www.w3.org/1999/xlink" xml:space="preserve" onload="init(evt)">
<style type="text/css"><![CDATA[
.node, .edge {opacity: 0.7;}
.node.selected, .edge.selected {opacity: 1;}
.edge:hover path { stroke: red; }
.edge:hover polygon { stroke: red; fill: red; }
]]></style>

<defs>
  <circle id="rim" cx="0" cy="0" r="7"/>
  <circle id="rim2" cx="0" cy="0" r="3.5"/>
  <g id="zoomPlus">
    <use xlink:href="#rim" fill="#404040"><set attributeName="fill" to="#808080" begin="zoomplus.mouseover" end="zoomplus.mouseout"/></use>
    <path d="M-4,0h8M0,-4v8" fill="none" stroke="white" stroke-width="1.5" pointer-events="none"/>
  </g>
  <g id="zoomMin">
    <use xlink:href="#rim" fill="#404040"><set attributeName="fill" to="#808080" begin="zoomminus.mouseover" end="zoomminus.mouseout"/></use>
    <path d="M-4,0h8" fill="none" stroke="white" stroke-width="1.5" pointer-events="none"/>
  </g>
  <g id="arrowUp" transform="translate(30 24)">
    <use xlink:href="#rim"/>
    <path pointer-events="none" fill="none" stroke="white" stroke-width="1.5" d="M0,-3.0v7 M-2.5,-0.5L0,-3.0L2.5,-0.5"/>
  </g>
  <g id="arrowRight" transform="rotate(90) translate(36 -43)">
    <use xlink:href="#rim"/>
    <path pointer-events="none" fill="none" stroke="white" stroke-width="1.5" d="M0,-3.0v7 M-2.5,-0.5L0,-3.0L2.5,-0.5"/>
  </g>
  <g id="arrowDown" transform="rotate(180) translate(-30 -48)">
    <use xlink:href="#rim"/>
    <path pointer-events="none" fill="none" stroke="white" stroke-width="1.5" d="M0,-3.0v7 M-2.5,-0.5L0,-3.0L2.5,-0.5"/>
  </g>
  <g id="arrowLeft" transform="rotate(270) translate(-36 17)">
    <use xlink:href="#rim"/>
    <path pointer-events="none" fill="none" stroke="white" stroke-width="1.5" d="M0,-3.0v7 M-2.5,-0.5L0,-3.0L2.5,-0.5"/>
  </g>
  <g id="resetDef">
    <use xlink:href="#rim2" fill="#404040"><set attributeName="fill" to="#808080" begin="reset.mouseover" end="reset.mouseout"/></use>
  </g>
</defs>
<script type="application/ecmascript">
var viewWidth = 1497;
var viewHeight = 400;
var sectionId = 'dynsection-0';
</script>
<script type="application/ecmascript" xlink:href="svg.min.js"/>
<svg id="graph" class="graph">
<g id="viewport">
<title>examples/esp32/main/LoggerComprehensiveTest.cpp</title>
<!-- Node1 -->
<g id="Node000001" class="node">
<title>Node1</title>
<g id="a_Node000001"><a xlink:title="Comprehensive Logger testing suite for ESP32&#45;C6 DevKit&#45;M&#45;1 (noexcept)">
<polygon fill="#999999" stroke="#666666" points="1198,-392 990,-392 990,-354 1198,-354 1198,-392"/>
<text text-anchor="start" x="998" y="-376.8" font-family="Arial" font-size="14.00">examples/esp32/main</text>
<text text-anchor="middle" x="1094" y="-361.8" font-family="Arial" font-size="14.00">/LoggerComprehensiveTest.cpp</text>
</a>
</g>
</g>
<!-- Node2 -->
<g id="Node000002" class="node">
<title>Node2</title>
<g id="a_Node000002"><a xlink:href="TestFramework_8h.html" target="_top" xlink:title="Shared testing framework for ESP32&#45;C6 comprehensive test suites.">
<polygon fill="white" stroke="#666666" points="579.5,-318 458.5,-318 458.5,-295 579.5,-295 579.5,-318"/>
<text text-anchor="middle" x="519" y="-302.8" font-family="Arial" font-size="14.00">TestFramework.h</text>
</a>
</g>
</g>
<!-- Node1&#45;&gt;Node2 -->
<g id="edge1_Node000001_Node000002" class="edge">
<title>Node1&#45;&gt;Node2</title>
<g id="a_edge1_Node000001_Node000002"><a xlink:title=" ">
<path fill="none" stroke="#63b8ff" d="M989.87,-360.32C873.95,-347.32 689.76,-326.65 589.56,-315.42"/>
<polygon fill="#63b8ff" stroke="#63b8ff" points="589.87,-311.93 579.54,-314.29 589.09,-318.88 589.87,-311.93"/>
</a>
</g>
</g>
<!-- Node22 -->
<g id="Node000022" class="node">
<title>Node22</title>
<g id="a_Node000022"><a xlink:href="BaseLogger_8h.html" target="_top" xlink:title="Unified logging base class for all logging implementations.">
<polygon fill="white" stroke="#666666" points="800.5,-141 667.5,-141 667.5,-118 800.5,-118 800.5,-141"/>
<text text-anchor="middle" x="734" y="-125.8" font-family="Arial" font-size="14.00">base/BaseLogger.h</text>
</a>
</g>
</g>
<!-- Node1&#45;&gt;Node22 -->
<g id="edge28_Node000001_Node000022" class="edge">
<title>Node1&#45;&gt;Node22</title>
<g id="a_edge28_Node000001_Node000022"><a xlink:title=" ">
<path fill="none" stroke="#63b8ff" d="M1080.19,-353.59C1058.19,-325.28 1012.68,-270.68 964,-236 904.08,-193.31 824.13,-161.33 776,-144.31"/>
<polygon fill="#63b8ff" stroke="#63b8ff" points="777.12,-140.99 766.52,-141.01 774.82,-147.6 777.12,-140.99"/>
</a>
</g>
</g>
<!-- Node25 -->
<g id="Node000025" class="node">
<title>Node25</title>
<g id="a_Node000025"><a xlink:title=" ">
<polygon fill="#e0e0e0" stroke="#999999" points="1209,-82 1159,-82 1159,-59 1209,-59 1209,-82"/>
<text text-anchor="middle" x="1184" y="-66.8" font-family="Arial" font-size="14.00">string</text>
</a>
</g>
</g>
<!-- Node1&#45;&gt;Node25 -->
<g id="edge50_Node000001_Node000025" class="edge">
<title>Node1&#45;&gt;Node25</title>
<g id="a_edge50_Node000001_Node000025"><a xlink:title=" ">
<path fill="none" stroke="#63b8ff" d="M1198.11,-356.44C1258.61,-340.83 1323,-309.82 1323,-248.5 1323,-248.5 1323,-248.5 1323,-187.5 1323,-155.36 1324.66,-141.75 1303,-118 1281.23,-94.12 1245.71,-82.36 1219.13,-76.66"/>
<polygon fill="#63b8ff" stroke="#63b8ff" points="1219.56,-73.18 1209.07,-74.7 1218.22,-80.05 1219.56,-73.18"/>
</a>
</g>
</g>
<!-- Node26 -->
<g id="Node000026" class="node">
<title>Node26</title>
<g id="a_Node000026"><a xlink:href="EspLogger_8h.html" target="_top" xlink:title="ESP32&#45;specific logger implementation for the HardFOC system.">
<polygon fill="white" stroke="#666666" points="1175.5,-200 1012.5,-200 1012.5,-177 1175.5,-177 1175.5,-200"/>
<text text-anchor="middle" x="1094" y="-184.8" font-family="Arial" font-size="14.00">mcu/esp32/EspLogger.h</text>
</a>
</g>
</g>
<!-- Node1&#45;&gt;Node26 -->
<g id="edge35_Node000001_Node000026" class="edge">
<title>Node1&#45;&gt;Node26</title>
<g id="a_edge35_Node000001_Node000026"><a xlink:title=" ">
<path fill="none" stroke="#63b8ff" d="M1094,-353.83C1094,-319.83 1094,-246.74 1094,-210.61"/>
<polygon fill="#63b8ff" stroke="#63b8ff" points="1097.5,-210.27 1094,-200.27 1090.5,-210.27 1097.5,-210.27"/>
</a>
</g>
</g>
<!-- Node32 -->
<g id="Node000032" class="node">
<title>Node32</title>
<g id="a_Node000032"><a xlink:href="memory__utils_8h.html" target="_top" xlink:title="Memory management utilities for exception&#45;free design.">
<polygon fill="white" stroke="#666666" points="1488.5,-200 1351.5,-200 1351.5,-177 1488.5,-177 1488.5,-200"/>
<text text-anchor="middle" x="1420" y="-184.8" font-family="Arial" font-size="14.00">utils/memory_utils.h</text>
</a>
</g>
</g>
<!-- Node1&#45;&gt;Node32 -->
<g id="edge46_Node000001_Node000032" class="edge">
<title>Node1&#45;&gt;Node32</title>
<g id="a_edge46_Node000001_Node000032"><a xlink:title=" ">
<path fill="none" stroke="#63b8ff" d="M1198.03,-366.56C1243.95,-359.93 1296.56,-346.14 1337,-318 1376.22,-290.71 1401.31,-238.31 1412.75,-209.58"/>
<polygon fill="#63b8ff" stroke="#63b8ff" points="1416.06,-210.74 1416.36,-200.15 1409.52,-208.24 1416.06,-210.74"/>
</a>
</g>
</g>
<!-- Node3 -->
<g id="Node000003" class="node">
<title>Node3</title>
<g id="a_Node000003"><a xlink:title=" ">
<polygon fill="#e0e0e0" stroke="#999999" points="556.5,-259 481.5,-259 481.5,-236 556.5,-236 556.5,-259"/>
<text text-anchor="middle" x="519" y="-243.8" font-family="Arial" font-size="14.00">esp_log.h</text>
</a>
</g>
</g>
<!-- Node2&#45;&gt;Node3 -->
<g id="edge2_Node000002_Node000003" class="edge">
<title>Node2&#45;&gt;Node3</title>
<g id="a_edge2_Node000002_Node000003"><a xlink:title=" ">
<path fill="none" stroke="#63b8ff" d="M519,-294.78C519,-287.61 519,-277.95 519,-269.31"/>
<polygon fill="#63b8ff" stroke="#63b8ff" points="522.5,-269.17 519,-259.17 515.5,-269.17 522.5,-269.17"/>
</a>
</g>
</g>
<!-- Node4 -->
<g id="Node000004" class="node">
<title>Node4</title>
<g id="a_Node000004"><a xlink:title=" ">
<polygon fill="#e0e0e0" stroke="#999999" points="661.5,-259 574.5,-259 574.5,-236 661.5,-236 661.5,-259"/>
<text text-anchor="middle" x="618" y="-243.8" font-family="Arial" font-size="14.00">esp_timer.h</text>
</a>
</g>
</g>
<!-- Node2&#45;&gt;Node4 -->
<g id="edge3_Node000002_Node000004" class="edge">
<title>Node2&#45;&gt;Node4</title>
<g id="a_edge3_Node000002_Node000004"><a xlink:title=" ">
<path fill="none" stroke="#63b8ff" d="M537.62,-294.78C552.56,-286.18 573.73,-273.99 590.6,-264.28"/>
<polygon fill="#63b8ff" stroke="#63b8ff" points="592.54,-267.2 599.46,-259.17 589.05,-261.13 592.54,-267.2"/>
</a>
</g>
</g>
<!-- Node5 -->
<g id="Node000005" class="node">
<title>Node5</title>
<g id="a_Node000005"><a xlink:title=" ">
<polygon fill="#e0e0e0" stroke="#999999" points="822.5,-259 679.5,-259 679.5,-236 822.5,-236 822.5,-259"/>
<text text-anchor="middle" x="751" y="-243.8" font-family="Arial" font-size="14.00">freertos/FreeRTOS.h</text>
</a>
</g>
</g>
<!-- Node2&#45;&gt;Node5 -->
<g id="edge4_Node000002_Node000005" class="edge">
<title>Node2&#45;&gt;Node5</title>
<g id="a_edge4_Node000002_Node000005"><a xlink:title=" ">
<path fill="none" stroke="#63b8ff" d="M561.82,-294.98C600.29,-285.53 656.89,-271.62 698.16,-261.48"/>
<polygon fill="#63b8ff" stroke="#63b8ff" points="699.16,-264.84 708.03,-259.06 697.49,-258.04 699.16,-264.84"/>
</a>
</g>
</g>
<!-- Node6 -->
<g id="Node000006" class="node">
<title>Node6</title>
<g id="a_Node000006"><a xlink:title=" ">
<polygon fill="#e0e0e0" stroke="#999999" points="955.5,-259 840.5,-259 840.5,-236 955.5,-236 955.5,-259"/>
<text text-anchor="middle" x="898" y="-243.8" font-family="Arial" font-size="14.00">freertos/queue.h</text>
</a>
</g>
</g>
<!-- Node2&#45;&gt;Node6 -->
<g id="edge5_Node000002_Node000006" class="edge">
<title>Node2&#45;&gt;Node6</title>
<g id="a_edge5_Node000002_Node000006"><a xlink:title=" ">
<path fill="none" stroke="#63b8ff" d="M579.71,-296.59C640.45,-287.64 736.84,-273.36 830.35,-259.09"/>
<polygon fill="#63b8ff" stroke="#63b8ff" points="830.9,-262.55 840.26,-257.58 829.85,-255.63 830.9,-262.55"/>
</a>
</g>
</g>
<!-- Node7 -->
<g id="Node000007" class="node">
<title>Node7</title>
<g id="a_Node000007"><a xlink:title=" ">
<polygon fill="#e0e0e0" stroke="#999999" points="122,-259 0,-259 0,-236 122,-236 122,-259"/>
<text text-anchor="middle" x="61" y="-243.8" font-family="Arial" font-size="14.00">freertos/semphr.h</text>
</a>
</g>
</g>
<!-- Node2&#45;&gt;Node7 -->
<g id="edge6_Node000002_Node000007" class="edge">
<title>Node2&#45;&gt;Node7</title>
<g id="a_edge6_Node000002_Node000007"><a xlink:title=" ">
<path fill="none" stroke="#63b8ff" d="M458.44,-298.8C384.13,-290.46 254,-275.45 132.31,-259.15"/>
<polygon fill="#63b8ff" stroke="#63b8ff" points="132.45,-255.63 122.07,-257.77 131.51,-262.57 132.45,-255.63"/>
</a>
</g>
</g>
<!-- Node8 -->
<g id="Node000008" class="node">
<title>Node8</title>
<g id="a_Node000008"><a xlink:title=" ">
<polygon fill="#e0e0e0" stroke="#999999" points="242,-259 140,-259 140,-236 242,-236 242,-259"/>
<text text-anchor="middle" x="191" y="-243.8" font-family="Arial" font-size="14.00">freertos/task.h</text>
</a>
</g>
</g>
<!-- Node2&#45;&gt;Node8 -->
<g id="edge7_Node000002_Node000008" class="edge">
<title>Node2&#45;&gt;Node8</title>
<g id="a_edge7_Node000002_Node000008"><a xlink:title=" ">
<path fill="none" stroke="#63b8ff" d="M458.46,-294.98C399.66,-284.76 310.89,-269.33 251.95,-259.09"/>
<polygon fill="#63b8ff" stroke="#63b8ff" points="252.49,-255.63 242.04,-257.37 251.29,-262.53 252.49,-255.63"/>
</a>
</g>
</g>
<!-- Node9 -->
<g id="Node000009" class="node">
<title>Node9</title>
<g id="a_Node000009"><a xlink:href="HardwareTypes_8h.html" target="_top" xlink:title="Platform&#45;agnostic hardware type definitions for the HardFOC system.">
<polygon fill="white" stroke="#666666" points="341,-82 219,-82 219,-59 341,-59 341,-82"/>
<text text-anchor="middle" x="280" y="-66.8" font-family="Arial" font-size="14.00">HardwareTypes.h</text>
</a>
</g>
</g>
<!-- Node2&#45;&gt;Node9 -->
<g id="edge8_Node000002_Node000009" class="edge">
<title>Node2&#45;&gt;Node9</title>
<g id="a_edge8_Node000002_Node000009"><a xlink:title=" ">
<path fill="none" stroke="#63b8ff" d="M458.33,-300.23C401.91,-294 323.57,-281.51 303,-259 260.51,-212.51 268.83,-130.25 275.63,-92.06"/>
<polygon fill="#63b8ff" stroke="#63b8ff" points="279.09,-92.59 277.55,-82.11 272.22,-91.26 279.09,-92.59"/>
</a>
</g>
</g>
<!-- Node12 -->
<g id="Node000012" class="node">
<title>Node12</title>
<g id="a_Node000012"><a xlink:href="EspGpio_8h.html" target="_top" xlink:title="Advanced MCU&#45;specific implementation of the unified BaseGpio class with ESP32C6/ESP&#45;IDF v5....">
<polygon fill="white" stroke="#666666" points="463.5,-259 312.5,-259 312.5,-236 463.5,-236 463.5,-259"/>
<text text-anchor="middle" x="388" y="-243.8" font-family="Arial" font-size="14.00">mcu/esp32/EspGpio.h</text>
</a>
</g>
</g>
<!-- Node2&#45;&gt;Node12 -->
<g id="edge11_Node000002_Node000012" class="edge">
<title>Node2&#45;&gt;Node12</title>
<g id="a_edge11_Node000002_Node000012"><a xlink:title=" ">
<path fill="none" stroke="#63b8ff" d="M494.67,-294.91C474.08,-285.95 444.36,-273.02 421.52,-263.09"/>
<polygon fill="#63b8ff" stroke="#63b8ff" points="422.77,-259.81 412.2,-259.03 419.98,-266.23 422.77,-259.81"/>
</a>
</g>
</g>
<!-- Node10 -->
<g id="Node000010" class="node">
<title>Node10</title>
<g id="a_Node000010"><a xlink:title=" ">
<polygon fill="#e0e0e0" stroke="#999999" points="435,-23 379,-23 379,0 435,0 435,-23"/>
<text text-anchor="middle" x="407" y="-7.8" font-family="Arial" font-size="14.00">cstdint</text>
</a>
</g>
</g>
<!-- Node9&#45;&gt;Node10 -->
<g id="edge9_Node000009_Node000010" class="edge">
<title>Node9&#45;&gt;Node10</title>
<g id="a_edge9_Node000009_Node000010"><a xlink:title=" ">
<path fill="none" stroke="#63b8ff" d="M303.59,-58.91C323.46,-49.99 352.1,-37.14 374.2,-27.22"/>
<polygon fill="#63b8ff" stroke="#63b8ff" points="375.85,-30.32 383.54,-23.03 372.98,-23.93 375.85,-30.32"/>
</a>
</g>
</g>
<!-- Node11 -->
<g id="Node000011" class="node">
<title>Node11</title>
<g id="a_Node000011"><a xlink:title=" ">
<polygon fill="#e0e0e0" stroke="#999999" points="304,-23 256,-23 256,0 304,0 304,-23"/>
<text text-anchor="middle" x="280" y="-7.8" font-family="Arial" font-size="14.00">limits</text>
</a>
</g>
</g>
<!-- Node9&#45;&gt;Node11 -->
<g id="edge10_Node000009_Node000011" class="edge">
<title>Node9&#45;&gt;Node11</title>
<g id="a_edge10_Node000009_Node000011"><a xlink:title=" ">
<path fill="none" stroke="#63b8ff" d="M280,-58.78C280,-51.61 280,-41.95 280,-33.31"/>
<polygon fill="#63b8ff" stroke="#63b8ff" points="283.5,-33.17 280,-23.17 276.5,-33.17 283.5,-33.17"/>
</a>
</g>
</g>
<!-- Node13 -->
<g id="Node000013" class="node">
<title>Node13</title>
<g id="a_Node000013"><a xlink:title=" ">
<polygon fill="#e0e0e0" stroke="#999999" points="575.5,-200 484.5,-200 484.5,-177 575.5,-177 575.5,-200"/>
<text text-anchor="middle" x="530" y="-184.8" font-family="Arial" font-size="14.00">driver/gpio.h</text>
</a>
</g>
</g>
<!-- Node12&#45;&gt;Node13 -->
<g id="edge12_Node000012_Node000013" class="edge">
<title>Node12&#45;&gt;Node13</title>
<g id="a_edge12_Node000012_Node000013"><a xlink:title=" ">
<path fill="none" stroke="#63b8ff" d="M414.38,-235.91C436.89,-226.87 469.48,-213.79 494.32,-203.82"/>
<polygon fill="#63b8ff" stroke="#63b8ff" points="495.79,-207 503.76,-200.03 493.18,-200.51 495.79,-207"/>
</a>
</g>
</g>
<!-- Node14 -->
<g id="Node000014" class="node">
<title>Node14</title>
<g id="a_Node000014"><a xlink:title=" ">
<polygon fill="#e0e0e0" stroke="#999999" points="670,-200 594,-200 594,-177 670,-177 670,-200"/>
<text text-anchor="middle" x="632" y="-184.8" font-family="Arial" font-size="14.00">esp_attr.h</text>
</a>
</g>
</g>
<!-- Node12&#45;&gt;Node14 -->
<g id="edge13_Node000012_Node000014" class="edge">
<title>Node12&#45;&gt;Node14</title>
<g id="a_edge13_Node000012_Node000014"><a xlink:title=" ">
<path fill="none" stroke="#63b8ff" d="M433.04,-235.98C475.83,-225.98 539.98,-211 583.8,-200.76"/>
<polygon fill="#63b8ff" stroke="#63b8ff" points="584.7,-204.14 593.64,-198.46 583.11,-197.33 584.7,-204.14"/>
</a>
</g>
</g>
<!-- Node15 -->
<g id="Node000015" class="node">
<title>Node15</title>
<g id="a_Node000015"><a xlink:href="BaseGpio_8h.html" target="_top" xlink:title="Unified GPIO base class for all digital GPIO implementations.">
<polygon fill="white" stroke="#666666" points="424,-141 336,-141 336,-118 424,-118 424,-141"/>
<text text-anchor="middle" x="380" y="-125.8" font-family="Arial" font-size="14.00">BaseGpio.h</text>
</a>
</g>
</g>
<!-- Node12&#45;&gt;Node15 -->
<g id="edge14_Node000012_Node000015" class="edge">
<title>Node12&#45;&gt;Node15</title>
<g id="a_edge14_Node000012_Node000015"><a xlink:title=" ">
<path fill="none" stroke="#63b8ff" d="M365.35,-235.95C351.5,-228.16 334.98,-216.11 327,-200 317.22,-180.25 335.6,-160.54 353.33,-147.18"/>
<polygon fill="#63b8ff" stroke="#63b8ff" points="355.7,-149.79 361.85,-141.16 351.67,-144.07 355.7,-149.79"/>
</a>
</g>
</g>
<!-- Node17 -->
<g id="Node000017" class="node">
<title>Node17</title>
<g id="a_Node000017"><a xlink:href="EspTypes__GPIO_8h.html" target="_top" xlink:title="ESP32 GPIO type definitions for hardware abstraction.">
<polygon fill="white" stroke="#666666" points="466,-200 336,-200 336,-177 466,-177 466,-200"/>
<text text-anchor="middle" x="401" y="-184.8" font-family="Arial" font-size="14.00">EspTypes_GPIO.h</text>
</a>
</g>
</g>
<!-- Node12&#45;&gt;Node17 -->
<g id="edge18_Node000012_Node000017" class="edge">
<title>Node12&#45;&gt;Node17</title>
<g id="a_edge18_Node000012_Node000017"><a xlink:title=" ">
<path fill="none" stroke="#63b8ff" d="M390.45,-235.78C392.1,-228.53 394.33,-218.74 396.32,-210.02"/>
<polygon fill="#63b8ff" stroke="#63b8ff" points="399.75,-210.7 398.57,-200.17 392.93,-209.14 399.75,-210.7"/>
</a>
</g>
</g>
<!-- Node21 -->
<g id="Node000021" class="node">
<title>Node21</title>
<g id="a_Node000021"><a xlink:title=" ">
<polygon fill="#e0e0e0" stroke="#999999" points="744,-200 688,-200 688,-177 744,-177 744,-200"/>
<text text-anchor="middle" x="716" y="-184.8" font-family="Arial" font-size="14.00">stdio.h</text>
</a>
</g>
</g>
<!-- Node12&#45;&gt;Node21 -->
<g id="edge27_Node000012_Node000021" class="edge">
<title>Node12&#45;&gt;Node21</title>
<g id="a_edge27_Node000012_Node000021"><a xlink:title=" ">
<path fill="none" stroke="#63b8ff" d="M463.52,-236.92C520.12,-229.17 599.6,-217.08 677.78,-200.08"/>
<polygon fill="#63b8ff" stroke="#63b8ff" points="678.79,-203.44 687.81,-197.87 677.29,-196.61 678.79,-203.44"/>
</a>
</g>
</g>
<!-- Node15&#45;&gt;Node9 -->
<g id="edge15_Node000015_Node000009" class="edge">
<title>Node15&#45;&gt;Node9</title>
<g id="a_edge15_Node000015_Node000009"><a xlink:title=" ">
<path fill="none" stroke="#63b8ff" d="M361.19,-117.78C346.11,-109.18 324.71,-96.99 307.68,-87.28"/>
<polygon fill="#63b8ff" stroke="#63b8ff" points="309.15,-84.08 298.72,-82.17 305.68,-90.17 309.15,-84.08"/>
</a>
</g>
</g>
<!-- Node15&#45;&gt;Node10 -->
<g id="edge16_Node000015_Node000010" class="edge">
<title>Node15&#45;&gt;Node10</title>
<g id="a_edge16_Node000015_Node000010"><a xlink:title=" ">
<path fill="none" stroke="#63b8ff" d="M381.67,-117.59C383.86,-103.84 388.01,-79.51 393,-59 395.11,-50.34 397.86,-40.91 400.37,-32.81"/>
<polygon fill="#63b8ff" stroke="#63b8ff" points="403.75,-33.71 403.45,-23.12 397.08,-31.59 403.75,-33.71"/>
</a>
</g>
</g>
<!-- Node16 -->
<g id="Node000016" class="node">
<title>Node16</title>
<g id="a_Node000016"><a xlink:title=" ">
<polygon fill="#e0e0e0" stroke="#999999" points="519,-82 435,-82 435,-59 519,-59 519,-82"/>
<text text-anchor="middle" x="477" y="-66.8" font-family="Arial" font-size="14.00">string_view</text>
</a>
</g>
</g>
<!-- Node15&#45;&gt;Node16 -->
<g id="edge17_Node000015_Node000016" class="edge">
<title>Node15&#45;&gt;Node16</title>
<g id="a_edge17_Node000015_Node000016"><a xlink:title=" ">
<path fill="none" stroke="#63b8ff" d="M398.24,-117.78C412.88,-109.18 433.63,-96.99 450.15,-87.28"/>
<polygon fill="#63b8ff" stroke="#63b8ff" points="451.99,-90.26 458.84,-82.17 448.44,-84.22 451.99,-90.26"/>
</a>
</g>
</g>
<!-- Node17&#45;&gt;Node9 -->
<g id="edge25_Node000017_Node000009" class="edge">
<title>Node17&#45;&gt;Node9</title>
<g id="a_edge25_Node000017_Node000009"><a xlink:title=" ">
<path fill="none" stroke="#63b8ff" d="M379.26,-176.96C363.56,-168.65 342.49,-155.98 327,-141 311.88,-126.38 298.87,-106.15 290.39,-91.28"/>
<polygon fill="#63b8ff" stroke="#63b8ff" points="293.39,-89.47 285.5,-82.4 287.26,-92.85 293.39,-89.47"/>
</a>
</g>
</g>
<!-- Node17&#45;&gt;Node15 -->
<g id="edge19_Node000017_Node000015" class="edge">
<title>Node17&#45;&gt;Node15</title>
<g id="a_edge19_Node000017_Node000015"><a xlink:title=" ">
<path fill="none" stroke="#63b8ff" d="M397.05,-176.78C394.35,-169.45 390.69,-159.52 387.46,-150.74"/>
<polygon fill="#63b8ff" stroke="#63b8ff" points="390.67,-149.35 383.93,-141.17 384.11,-151.77 390.67,-149.35"/>
</a>
</g>
</g>
<!-- Node18 -->
<g id="Node000018" class="node">
<title>Node18</title>
<g id="a_Node000018"><a xlink:href="EspTypes__Base_8h.html" target="_top" xlink:title="ESP32 base type definitions for hardware abstraction.">
<polygon fill="white" stroke="#666666" points="566.5,-141 441.5,-141 441.5,-118 566.5,-118 566.5,-141"/>
<text text-anchor="middle" x="504" y="-125.8" font-family="Arial" font-size="14.00">EspTypes_Base.h</text>
</a>
</g>
</g>
<!-- Node17&#45;&gt;Node18 -->
<g id="edge20_Node000017_Node000018" class="edge">
<title>Node17&#45;&gt;Node18</title>
<g id="a_edge20_Node000017_Node000018"><a xlink:title=" ">
<path fill="none" stroke="#63b8ff" d="M420.37,-176.78C435.91,-168.18 457.94,-155.99 475.49,-146.28"/>
<polygon fill="#63b8ff" stroke="#63b8ff" points="477.66,-149.08 484.71,-141.17 474.27,-142.95 477.66,-149.08"/>
</a>
</g>
</g>
<!-- Node19 -->
<g id="Node000019" class="node">
<title>Node19</title>
<g id="a_Node000019"><a xlink:href="McuSelect_8h.html" target="_top" xlink:title="Centralized MCU platform selection and configuration header.">
<polygon fill="white" stroke="#666666" points="679,-82 537,-82 537,-59 679,-59 679,-82"/>
<text text-anchor="middle" x="608" y="-66.8" font-family="Arial" font-size="14.00">../../utils/McuSelect.h</text>
</a>
</g>
</g>
<!-- Node17&#45;&gt;Node19 -->
<g id="edge26_Node000017_Node000019" class="edge">
<title>Node17&#45;&gt;Node19</title>
<g id="a_edge26_Node000017_Node000019"><a xlink:title=" ">
<path fill="none" stroke="#63b8ff" d="M461.39,-176.95C504.44,-168.41 557.64,-155.46 575,-141 590.01,-128.5 598.64,-107.6 603.28,-91.98"/>
<polygon fill="#63b8ff" stroke="#63b8ff" points="606.7,-92.73 605.89,-82.17 599.94,-90.94 606.7,-92.73"/>
</a>
</g>
</g>
<!-- Node18&#45;&gt;Node9 -->
<g id="edge22_Node000018_Node000009" class="edge">
<title>Node18&#45;&gt;Node9</title>
<g id="a_edge22_Node000018_Node000009"><a xlink:title=" ">
<path fill="none" stroke="#63b8ff" d="M462.65,-117.98C425.6,-108.55 371.09,-94.68 331.27,-84.55"/>
<polygon fill="#63b8ff" stroke="#63b8ff" points="332.04,-81.13 321.48,-82.06 330.31,-87.91 332.04,-81.13"/>
</a>
</g>
</g>
<!-- Node18&#45;&gt;Node10 -->
<g id="edge24_Node000018_Node000010" class="edge">
<title>Node18&#45;&gt;Node10</title>
<g id="a_edge24_Node000018_Node000010"><a xlink:title=" ">
<path fill="none" stroke="#63b8ff" d="M475.69,-118C458.94,-110.41 438.59,-98.57 426,-82 415.38,-68.03 410.7,-48.51 408.63,-33.71"/>
<polygon fill="#63b8ff" stroke="#63b8ff" points="412.08,-33.04 407.5,-23.48 405.12,-33.81 412.08,-33.04"/>
</a>
</g>
</g>
<!-- Node18&#45;&gt;Node19 -->
<g id="edge21_Node000018_Node000019" class="edge">
<title>Node18&#45;&gt;Node19</title>
<g id="a_edge21_Node000018_Node000019"><a xlink:title=" ">
<path fill="none" stroke="#63b8ff" d="M523.56,-117.78C539.4,-109.1 561.91,-96.76 579.71,-87.01"/>
<polygon fill="#63b8ff" stroke="#63b8ff" points="581.44,-90.05 588.53,-82.17 578.07,-83.91 581.44,-90.05"/>
</a>
</g>
</g>
<!-- Node20 -->
<g id="Node000020" class="node">
<title>Node20</title>
<g id="a_Node000020"><a xlink:title=" ">
<polygon fill="#e0e0e0" stroke="#999999" points="964.5,-82 907.5,-82 907.5,-59 964.5,-59 964.5,-82"/>
<text text-anchor="middle" x="936" y="-66.8" font-family="Arial" font-size="14.00">atomic</text>
</a>
</g>
</g>
<!-- Node18&#45;&gt;Node20 -->
<g id="edge23_Node000018_Node000020" class="edge">
<title>Node18&#45;&gt;Node20</title>
<g id="a_edge23_Node000018_Node000020"><a xlink:title=" ">
<path fill="none" stroke="#63b8ff" d="M566.54,-120.41C637.46,-111.21 756.57,-95.69 859,-82 871.54,-80.32 885.22,-78.47 897.52,-76.79"/>
<polygon fill="#63b8ff" stroke="#63b8ff" points="898.05,-80.25 907.48,-75.43 897.1,-73.31 898.05,-80.25"/>
</a>
</g>
</g>
<!-- Node22&#45;&gt;Node9 -->
<g id="edge29_Node000022_Node000009" class="edge">
<title>Node22&#45;&gt;Node9</title>
<g id="a_edge29_Node000022_Node000009"><a xlink:title=" ">
<path fill="none" stroke="#63b8ff" d="M667.5,-120.15C583.04,-109.55 437.89,-91.32 351.23,-80.44"/>
<polygon fill="#63b8ff" stroke="#63b8ff" points="351.58,-76.96 341.22,-79.19 350.71,-83.9 351.58,-76.96"/>
</a>
</g>
</g>
<!-- Node22&#45;&gt;Node10 -->
<g id="edge31_Node000022_Node000010" class="edge">
<title>Node22&#45;&gt;Node10</title>
<g id="a_edge31_Node000022_Node000010"><a xlink:title=" ">
<path fill="none" stroke="#63b8ff" d="M789.06,-117.92C833.52,-107.02 884.78,-87.57 859,-59 831.47,-28.5 549.37,-16.84 445.3,-13.56"/>
<polygon fill="#63b8ff" stroke="#63b8ff" points="445.32,-10.06 435.22,-13.25 445.11,-17.06 445.32,-10.06"/>
</a>
</g>
</g>
<!-- Node22&#45;&gt;Node16 -->
<g id="edge34_Node000022_Node000016" class="edge">
<title>Node22&#45;&gt;Node16</title>
<g id="a_edge34_Node000022_Node000016"><a xlink:title=" ">
<path fill="none" stroke="#63b8ff" d="M686.56,-117.98C641.84,-108.06 574.97,-93.23 528.85,-83"/>
<polygon fill="#63b8ff" stroke="#63b8ff" points="529.57,-79.58 519.05,-80.83 528.06,-86.41 529.57,-79.58"/>
</a>
</g>
</g>
<!-- Node23 -->
<g id="Node000023" class="node">
<title>Node23</title>
<g id="a_Node000023"><a xlink:title=" ">
<polygon fill="#e0e0e0" stroke="#999999" points="850.5,-82 789.5,-82 789.5,-59 850.5,-59 850.5,-82"/>
<text text-anchor="middle" x="820" y="-66.8" font-family="Arial" font-size="14.00">cstdarg</text>
</a>
</g>
</g>
<!-- Node22&#45;&gt;Node23 -->
<g id="edge30_Node000022_Node000023" class="edge">
<title>Node22&#45;&gt;Node23</title>
<g id="a_edge30_Node000022_Node000023"><a xlink:title=" ">
<path fill="none" stroke="#63b8ff" d="M750.18,-117.78C762.91,-109.34 780.87,-97.44 795.38,-87.82"/>
<polygon fill="#63b8ff" stroke="#63b8ff" points="797.49,-90.62 803.9,-82.17 793.63,-84.78 797.49,-90.62"/>
</a>
</g>
</g>
<!-- Node24 -->
<g id="Node000024" class="node">
<title>Node24</title>
<g id="a_Node000024"><a xlink:title=" ">
<polygon fill="#e0e0e0" stroke="#999999" points="771,-82 697,-82 697,-59 771,-59 771,-82"/>
<text text-anchor="middle" x="734" y="-66.8" font-family="Arial" font-size="14.00">functional</text>
</a>
</g>
</g>
<!-- Node22&#45;&gt;Node24 -->
<g id="edge32_Node000022_Node000024" class="edge">
<title>Node22&#45;&gt;Node24</title>
<g id="a_edge32_Node000022_Node000024"><a xlink:title=" ">
<path fill="none" stroke="#63b8ff" d="M734,-117.78C734,-110.61 734,-100.95 734,-92.31"/>
<polygon fill="#63b8ff" stroke="#63b8ff" points="737.5,-92.17 734,-82.17 730.5,-92.17 737.5,-92.17"/>
</a>
</g>
</g>
<!-- Node22&#45;&gt;Node25 -->
<g id="edge33_Node000022_Node000025" class="edge">
<title>Node22&#45;&gt;Node25</title>
<g id="a_edge33_Node000022_Node000025"><a xlink:title=" ">
<path fill="none" stroke="#63b8ff" d="M800.72,-119.23C803.86,-118.81 806.96,-118.4 810,-118 934.39,-101.68 1082.26,-83.72 1148.65,-75.73"/>
<polygon fill="#63b8ff" stroke="#63b8ff" points="1149.08,-79.21 1158.59,-74.54 1148.24,-72.26 1149.08,-79.21"/>
</a>
</g>
</g>
<!-- Node26&#45;&gt;Node20 -->
<g id="edge41_Node000026_Node000020" class="edge">
<title>Node26&#45;&gt;Node20</title>
<g id="a_edge41_Node000026_Node000020"><a xlink:title=" ">
<path fill="none" stroke="#63b8ff" d="M1088.62,-176.96C1080.53,-162.03 1063.93,-134.72 1043,-118 1022.69,-101.78 995.85,-90.13 974.13,-82.56"/>
<polygon fill="#63b8ff" stroke="#63b8ff" points="975.15,-79.21 964.56,-79.36 972.93,-85.85 975.15,-79.21"/>
</a>
</g>
</g>
<!-- Node26&#45;&gt;Node22 -->
<g id="edge36_Node000026_Node000022" class="edge">
<title>Node26&#45;&gt;Node22</title>
<g id="a_edge36_Node000026_Node000022"><a xlink:title=" ">
<path fill="none" stroke="#63b8ff" d="M1027.55,-176.98C966.13,-167.25 874.89,-152.81 810.47,-142.61"/>
<polygon fill="#63b8ff" stroke="#63b8ff" points="810.79,-139.11 800.37,-141.01 809.7,-146.03 810.79,-139.11"/>
</a>
</g>
</g>
<!-- Node27 -->
<g id="Node000027" class="node">
<title>Node27</title>
<g id="a_Node000027"><a xlink:href="PlatformMutex_8h.html" target="_top" xlink:title="Cross&#45;platform RTOS mutex and synchronization primitives.">
<polygon fill="white" stroke="#666666" points="963,-141 819,-141 819,-118 963,-118 963,-141"/>
<text text-anchor="middle" x="891" y="-125.8" font-family="Arial" font-size="14.00">utils/PlatformMutex.h</text>
</a>
</g>
</g>
<!-- Node26&#45;&gt;Node27 -->
<g id="edge37_Node000026_Node000027" class="edge">
<title>Node26&#45;&gt;Node27</title>
<g id="a_edge37_Node000026_Node000027"><a xlink:title=" ">
<path fill="none" stroke="#63b8ff" d="M1056.29,-176.91C1022.96,-167.55 974.2,-153.86 938.28,-143.77"/>
<polygon fill="#63b8ff" stroke="#63b8ff" points="939.08,-140.36 928.51,-141.03 937.19,-147.1 939.08,-140.36"/>
</a>
</g>
</g>
<!-- Node28 -->
<g id="Node000028" class="node">
<title>Node28</title>
<g id="a_Node000028"><a xlink:title=" ">
<polygon fill="#e0e0e0" stroke="#999999" points="1147,-141 1091,-141 1091,-118 1147,-118 1147,-141"/>
<text text-anchor="middle" x="1119" y="-125.8" font-family="Arial" font-size="14.00">cstring</text>
</a>
</g>
</g>
<!-- Node26&#45;&gt;Node28 -->
<g id="edge42_Node000026_Node000028" class="edge">
<title>Node26&#45;&gt;Node28</title>
<g id="a_edge42_Node000026_Node000028"><a xlink:title=" ">
<path fill="none" stroke="#63b8ff" d="M1098.7,-176.78C1101.95,-169.37 1106.37,-159.3 1110.25,-150.45"/>
<polygon fill="#63b8ff" stroke="#63b8ff" points="1113.51,-151.74 1114.32,-141.17 1107.1,-148.93 1113.51,-151.74"/>
</a>
</g>
</g>
<!-- Node29 -->
<g id="Node000029" class="node">
<title>Node29</title>
<g id="a_Node000029"><a xlink:title=" ">
<polygon fill="#e0e0e0" stroke="#999999" points="1209,-141 1165,-141 1165,-118 1209,-118 1209,-141"/>
<text text-anchor="middle" x="1187" y="-125.8" font-family="Arial" font-size="14.00">map</text>
</a>
</g>
</g>
<!-- Node26&#45;&gt;Node29 -->
<g id="edge43_Node000026_Node000029" class="edge">
<title>Node26&#45;&gt;Node29</title>
<g id="a_edge43_Node000026_Node000029"><a xlink:title=" ">
<path fill="none" stroke="#63b8ff" d="M1111.49,-176.78C1125.39,-168.26 1145.05,-156.21 1160.82,-146.55"/>
<polygon fill="#63b8ff" stroke="#63b8ff" points="1162.89,-149.38 1169.59,-141.17 1159.23,-143.41 1162.89,-149.38"/>
</a>
</g>
</g>
<!-- Node30 -->
<g id="Node000030" class="node">
<title>Node30</title>
<g id="a_Node000030"><a xlink:title=" ">
<polygon fill="#e0e0e0" stroke="#999999" points="1294.5,-141 1227.5,-141 1227.5,-118 1294.5,-118 1294.5,-141"/>
<text text-anchor="middle" x="1261" y="-125.8" font-family="Arial" font-size="14.00">memory</text>
</a>
</g>
</g>
<!-- Node26&#45;&gt;Node30 -->
<g id="edge44_Node000026_Node000030" class="edge">
<title>Node26&#45;&gt;Node30</title>
<g id="a_edge44_Node000026_Node000030"><a xlink:title=" ">
<path fill="none" stroke="#63b8ff" d="M1125.02,-176.91C1151.97,-167.71 1191.18,-154.33 1220.58,-144.29"/>
<polygon fill="#63b8ff" stroke="#63b8ff" points="1221.81,-147.57 1230.15,-141.03 1219.55,-140.95 1221.81,-147.57"/>
</a>
</g>
</g>
<!-- Node31 -->
<g id="Node000031" class="node">
<title>Node31</title>
<g id="a_Node000031"><a xlink:title=" ">
<polygon fill="#e0e0e0" stroke="#999999" points="1034.5,-141 981.5,-141 981.5,-118 1034.5,-118 1034.5,-141"/>
<text text-anchor="middle" x="1008" y="-125.8" font-family="Arial" font-size="14.00">vector</text>
</a>
</g>
</g>
<!-- Node26&#45;&gt;Node31 -->
<g id="edge45_Node000026_Node000031" class="edge">
<title>Node26&#45;&gt;Node31</title>
<g id="a_edge45_Node000026_Node000031"><a xlink:title=" ">
<path fill="none" stroke="#63b8ff" d="M1077.82,-176.78C1065.09,-168.34 1047.13,-156.44 1032.62,-146.82"/>
<polygon fill="#63b8ff" stroke="#63b8ff" points="1034.37,-143.78 1024.1,-141.17 1030.51,-149.62 1034.37,-143.78"/>
</a>
</g>
</g>
<!-- Node27&#45;&gt;Node10 -->
<g id="edge40_Node000027_Node000010" class="edge">
<title>Node27&#45;&gt;Node10</title>
<g id="a_edge40_Node000027_Node000010"><a xlink:title=" ">
<path fill="none" stroke="#63b8ff" d="M920.38,-117.91C951.79,-105.05 994.37,-82.2 973,-59 937.34,-20.29 567.3,-13.8 445.58,-12.72"/>
<polygon fill="#63b8ff" stroke="#63b8ff" points="445.28,-9.22 435.25,-12.63 445.22,-16.22 445.28,-9.22"/>
</a>
</g>
</g>
<!-- Node27&#45;&gt;Node19 -->
<g id="edge38_Node000027_Node000019" class="edge">
<title>Node27&#45;&gt;Node19</title>
<g id="a_edge38_Node000027_Node000019"><a xlink:title=" ">
<path fill="none" stroke="#63b8ff" d="M838.76,-117.98C791.15,-108.39 720.75,-94.21 670.23,-84.03"/>
<polygon fill="#63b8ff" stroke="#63b8ff" points="670.9,-80.6 660.41,-82.06 669.52,-87.46 670.9,-80.6"/>
</a>
</g>
</g>
<!-- Node27&#45;&gt;Node20 -->
<g id="edge39_Node000027_Node000020" class="edge">
<title>Node27&#45;&gt;Node20</title>
<g id="a_edge39_Node000027_Node000020"><a xlink:title=" ">
<path fill="none" stroke="#63b8ff" d="M899.46,-117.78C905.62,-109.98 914.12,-99.21 921.37,-90.03"/>
<polygon fill="#63b8ff" stroke="#63b8ff" points="924.12,-92.19 927.57,-82.17 918.63,-87.85 924.12,-92.19"/>
</a>
</g>
</g>
<!-- Node32&#45;&gt;Node30 -->
<g id="edge47_Node000032_Node000030" class="edge">
<title>Node32&#45;&gt;Node30</title>
<g id="a_edge47_Node000032_Node000030"><a xlink:title=" ">
<path fill="none" stroke="#63b8ff" d="M1390.47,-176.91C1364.92,-167.75 1327.8,-154.45 1299.85,-144.43"/>
<polygon fill="#63b8ff" stroke="#63b8ff" points="1300.97,-141.11 1290.38,-141.03 1298.61,-147.7 1300.97,-141.11"/>
</a>
</g>
</g>
<!-- Node33 -->
<g id="Node000033" class="node">
<title>Node33</title>
<g id="a_Node000033"><a xlink:title=" ">
<polygon fill="#e0e0e0" stroke="#999999" points="1480.5,-141 1439.5,-141 1439.5,-118 1480.5,-118 1480.5,-141"/>
<text text-anchor="middle" x="1460" y="-125.8" font-family="Arial" font-size="14.00">new</text>
</a>
</g>
</g>
<!-- Node32&#45;&gt;Node33 -->
<g id="edge48_Node000032_Node000033" class="edge">
<title>Node32&#45;&gt;Node33</title>
<g id="a_edge48_Node000032_Node000033"><a xlink:title=" ">
<path fill="none" stroke="#63b8ff" d="M1427.52,-176.78C1432.89,-169.14 1440.24,-158.65 1446.6,-149.6"/>
<polygon fill="#63b8ff" stroke="#63b8ff" points="1449.63,-151.37 1452.51,-141.17 1443.9,-147.35 1449.63,-151.37"/>
</a>
</g>
</g>
<!-- Node34 -->
<g id="Node000034" class="node">
<title>Node34</title>
<g id="a_Node000034"><a xlink:title=" ">
<polygon fill="#e0e0e0" stroke="#999999" points="1421.5,-141 1374.5,-141 1374.5,-118 1421.5,-118 1421.5,-141"/>
<text text-anchor="middle" x="1398" y="-125.8" font-family="Arial" font-size="14.00">utility</text>
</a>
</g>
</g>
<!-- Node32&#45;&gt;Node34 -->
<g id="edge49_Node000032_Node000034" class="edge">
<title>Node32&#45;&gt;Node34</title>
<g id="a_edge49_Node000032_Node000034"><a xlink:title=" ">
<path fill="none" stroke="#63b8ff" d="M1415.86,-176.78C1413.03,-169.45 1409.2,-159.52 1405.81,-150.74"/>
<polygon fill="#63b8ff" stroke="#63b8ff" points="1408.99,-149.24 1402.12,-141.17 1402.46,-151.76 1408.99,-149.24"/>
</a>
</g>
</g>
</g>
</svg>

<g id="navigator" transform="translate(0 0)" fill="#404254">
  <rect fill="#f2f5e9" fill-opacity="0.5" stroke="#606060" stroke-width=".5" x="0" y="0" width="60" height="60"/>
  <use id="zoomplus" xlink:href="#zoomPlus" x="17" y="9" onmousedown="handleZoom(evt,'in')"/>
  <use id="zoomminus" xlink:href="#zoomMin" x="42" y="9" onmousedown="handleZoom(evt,'out')"/>
  <use id="reset" xlink:href="#resetDef" x="30" y="36" onmousedown="handleReset()"/>
   <use id="arrowup" xlink:href="#arrowUp" x="0" y="0" onmousedown="handlePan(0,-1)"/>
  <use id="arrowright" xlink:href="#arrowRight" x="0" y="0" onmousedown="handlePan(1,0)"/>
  <use id="arrowdown" xlink:href="#arrowDown" x="0" y="0" onmousedown="handlePan(0,1)"/>
  <use id="arrowleft" xlink:href="#arrowLeft" x="0" y="0" onmousedown="handlePan(-1,0)"/>
</g>
<svg viewBox="0 0 15 15" width="100%" height="30px" preserveAspectRatio="xMaxYMin meet">
 <g id="arrow_out" transform="scale(0.3 0.3)">
  <a xlink:href="LoggerComprehensiveTest_8cpp__incl_org.svg" target="_base">
   <rect id="button" ry="5" rx="5" y="6" x="6" height="38" width="38"
        fill="#f2f5e9" fill-opacity="0.5" stroke="#606060" stroke-width="1.0"/>
   <path id="arrow"
     d="M 11.500037,31.436501 C 11.940474,20.09759 22.043105,11.32322 32.158766,21.979434 L 37.068811,17.246167 C 37.068811,17.246167 37.088388,32 37.088388,32 L 22.160133,31.978069 C 22.160133,31.978069 26.997745,27.140456 26.997745,27.140456 C 18.528582,18.264221 13.291696,25.230495 11.500037,31.436501 z"
     style="fill:#404040;"/>
  </a>
 </g>
</svg>

<style type='text/css'>
<![CDATA[
[data-mouse-over-selected='false'] { opacity: 0.7; }
[data-mouse-over-selected='true']  { opacity: 1.0; }
]]>
</style>
<script type="application/ecmascript"><![CDATA[
document.addEventListener('DOMContentLoaded', (event) => {
  highlightEdges();
  highlightAdjacentNodes();
});
]]></script>
</svg>
