<?xml version="1.0" encoding="UTF-8" standalone="no"?>
<!DOCTYPE svg PUBLIC "-//W3C//DTD SVG 1.1//EN"
 "http://www.w3.org/Graphics/SVG/1.1/DTD/svg11.dtd">
<!-- Generated by graphviz version 2.43.0 (0)
 -->
<!-- Title: inc/utils/memory_utils.h Pages: 1 -->
<svg width="818pt" height="105pt"
 viewBox="0.00 0.00 818.00 105.00" xmlns="http://www.w3.org/2000/svg" xmlns:xlink="http://www.w3.org/1999/xlink">
<g id="graph0" class="graph" transform="scale(1 1) rotate(0) translate(4 101)">
<title>inc/utils/memory_utils.h</title>
<!-- Node1 -->
<g id="Node000001" class="node">
<title>Node1</title>
<g id="a_Node000001"><a xlink:title=" ">
<polygon fill="#999999" stroke="#666666" points="501.5,-97 343.5,-97 343.5,-74 501.5,-74 501.5,-97"/>
<text text-anchor="middle" x="422.5" y="-81.8" font-family="Arial" font-size="14.00">inc/utils/memory_utils.h</text>
</a>
</g>
</g>
<!-- Node2 -->
<g id="Node000002" class="node">
<title>Node2</title>
<g id="a_Node000002"><a xlink:href="GpioComprehensiveTest_8cpp.html" target="_top" xlink:title="Comprehensive GPIO testing suite for ESP32&#45;C6 DevKit&#45;M&#45;1 (noexcept)">
<polygon fill="white" stroke="#666666" points="195,-38 0,-38 0,0 195,0 195,-38"/>
<text text-anchor="start" x="8" y="-22.8" font-family="Arial" font-size="14.00">examples/esp32/main</text>
<text text-anchor="middle" x="97.5" y="-7.8" font-family="Arial" font-size="14.00">/GpioComprehensiveTest.cpp</text>
</a>
</g>
</g>
<!-- Node1&#45;&gt;Node2 -->
<g id="edge1_Node000001_Node000002" class="edge">
<title>Node1&#45;&gt;Node2</title>
<g id="a_edge1_Node000001_Node000002"><a xlink:title=" ">
<path fill="none" stroke="#63b8ff" d="M359.48,-71.99C310.8,-62.33 242.76,-48.83 188.22,-38"/>
<polygon fill="#63b8ff" stroke="#63b8ff" points="359.07,-75.48 369.56,-73.99 360.43,-68.61 359.07,-75.48"/>
</a>
</g>
</g>
<!-- Node3 -->
<g id="Node000003" class="node">
<title>Node3</title>
<g id="a_Node000003"><a xlink:href="LoggerComprehensiveTest_8cpp.html" target="_top" xlink:title="Comprehensive Logger testing suite for ESP32&#45;C6 DevKit&#45;M&#45;1 (noexcept)">
<polygon fill="white" stroke="#666666" points="421.5,-38 213.5,-38 213.5,0 421.5,0 421.5,-38"/>
<text text-anchor="start" x="221.5" y="-22.8" font-family="Arial" font-size="14.00">examples/esp32/main</text>
<text text-anchor="middle" x="317.5" y="-7.8" font-family="Arial" font-size="14.00">/LoggerComprehensiveTest.cpp</text>
</a>
</g>
</g>
<!-- Node1&#45;&gt;Node3 -->
<g id="edge2_Node000001_Node000003" class="edge">
<title>Node1&#45;&gt;Node3</title>
<g id="a_edge2_Node000001_Node000003"><a xlink:title=" ">
<path fill="none" stroke="#63b8ff" d="M396.43,-68.48C381.49,-59.31 362.7,-47.77 347.2,-38.24"/>
<polygon fill="#63b8ff" stroke="#63b8ff" points="394.81,-71.6 405.16,-73.85 398.47,-65.63 394.81,-71.6"/>
</a>
</g>
</g>
<!-- Node4 -->
<g id="Node000004" class="node">
<title>Node4</title>
<g id="a_Node000004"><a xlink:href="EspI2c_8cpp.html" target="_top" xlink:title="Implementation of ESP32&#45;integrated I2C controller with proper bus&#45;device architecture.">
<polygon fill="white" stroke="#666666" points="615.5,-30.5 439.5,-30.5 439.5,-7.5 615.5,-7.5 615.5,-30.5"/>
<text text-anchor="middle" x="527.5" y="-15.3" font-family="Arial" font-size="14.00">src/mcu/esp32/EspI2c.cpp</text>
</a>
</g>
</g>
<!-- Node1&#45;&gt;Node4 -->
<g id="edge3_Node000001_Node000004" class="edge">
<title>Node1&#45;&gt;Node4</title>
<g id="a_edge3_Node000001_Node000004"><a xlink:title=" ">
<path fill="none" stroke="#63b8ff" d="M448.43,-68.57C467.65,-56.76 493.33,-40.99 510.14,-30.67"/>
<polygon fill="#63b8ff" stroke="#63b8ff" points="446.53,-65.63 439.84,-73.85 450.19,-71.6 446.53,-65.63"/>
</a>
</g>
</g>
<!-- Node5 -->
<g id="Node000005" class="node">
<title>Node5</title>
<g id="a_Node000005"><a xlink:href="EspSpi_8cpp.html" target="_top" xlink:title="Implementation of MCU&#45;integrated SPI controller for ESP32C6 with ESP&#45;IDF v5.5+ features.">
<polygon fill="white" stroke="#666666" points="810,-30.5 633,-30.5 633,-7.5 810,-7.5 810,-30.5"/>
<text text-anchor="middle" x="721.5" y="-15.3" font-family="Arial" font-size="14.00">src/mcu/esp32/EspSpi.cpp</text>
</a>
</g>
</g>
<!-- Node1&#45;&gt;Node5 -->
<g id="edge4_Node000001_Node000005" class="edge">
<title>Node1&#45;&gt;Node5</title>
<g id="a_edge4_Node000001_Node000005"><a xlink:title=" ">
<path fill="none" stroke="#63b8ff" d="M481.32,-71.81C537.28,-59.74 620.48,-41.79 672.82,-30.5"/>
<polygon fill="#63b8ff" stroke="#63b8ff" points="480.24,-68.46 471.2,-73.99 481.72,-75.31 480.24,-68.46"/>
</a>
</g>
</g>
</g>
</svg>
