<?xml version="1.0" encoding="UTF-8" standalone="no"?>
<!DOCTYPE svg PUBLIC "-//W3C//DTD SVG 1.1//EN"
 "http://www.w3.org/Graphics/SVG/1.1/DTD/svg11.dtd">
<!-- Generated by graphviz version 2.43.0 (0)
 -->
<!-- Title: examples/esp32/main/NvsComprehensiveTest.cpp Pages: 1 -->
<svg width="1190pt" height="400pt"
 viewBox="0.00 0.00 1189.58 400.00" xmlns="http://www.w3.org/2000/svg" xmlns:xlink="http://www.w3.org/1999/xlink">
<g id="graph0" class="graph" transform="scale(1 1) rotate(0) translate(4 396)">
<title>examples/esp32/main/NvsComprehensiveTest.cpp</title>
<!-- Node1 -->
<g id="Node000001" class="node">
<title>Node1</title>
<g id="a_Node000001"><a xlink:title="Comprehensive NVS (Non&#45;Volatile Storage) testing suite for ESP32&#45;C6 DevKit&#45;M&#45;1 (noexcept)">
<polygon fill="#999999" stroke="#666666" points="884.5,-392 695.5,-392 695.5,-354 884.5,-354 884.5,-392"/>
<text text-anchor="start" x="703.5" y="-376.8" font-family="Arial" font-size="14.00">examples/esp32/main</text>
<text text-anchor="middle" x="790" y="-361.8" font-family="Arial" font-size="14.00">/NvsComprehensiveTest.cpp</text>
</a>
</g>
</g>
<!-- Node2 -->
<g id="Node000002" class="node">
<title>Node2</title>
<g id="a_Node000002"><a xlink:href="TestFramework_8h.html" target="_top" xlink:title="Shared testing framework for ESP32&#45;C6 comprehensive test suites.">
<polygon fill="white" stroke="#666666" points="640.5,-318 519.5,-318 519.5,-295 640.5,-295 640.5,-318"/>
<text text-anchor="middle" x="580" y="-302.8" font-family="Arial" font-size="14.00">TestFramework.h</text>
</a>
</g>
</g>
<!-- Node1&#45;&gt;Node2 -->
<g id="edge1_Node000001_Node000002" class="edge">
<title>Node1&#45;&gt;Node2</title>
<g id="a_edge1_Node000001_Node000002"><a xlink:title=" ">
<path fill="none" stroke="#63b8ff" d="M731.22,-353.95C697.28,-343.52 655.29,-330.62 624.17,-321.07"/>
<polygon fill="#63b8ff" stroke="#63b8ff" points="625.06,-317.68 614.48,-318.09 623.01,-324.37 625.06,-317.68"/>
</a>
</g>
</g>
<!-- Node23 -->
<g id="Node000023" class="node">
<title>Node23</title>
<g id="a_Node000023"><a xlink:href="BaseNvs_8h.html" target="_top" xlink:title="Abstract base class for Non&#45;Volatile Storage implementations in the HardFOC system.">
<polygon fill="white" stroke="#666666" points="344.5,-141 229.5,-141 229.5,-118 344.5,-118 344.5,-141"/>
<text text-anchor="middle" x="287" y="-125.8" font-family="Arial" font-size="14.00">base/BaseNvs.h</text>
</a>
</g>
</g>
<!-- Node1&#45;&gt;Node23 -->
<g id="edge29_Node000001_Node000023" class="edge">
<title>Node1&#45;&gt;Node23</title>
<g id="a_edge29_Node000001_Node000023"><a xlink:title=" ">
<path fill="none" stroke="#63b8ff" d="M695.48,-364.98C520.04,-349.5 156.72,-305.12 101,-200 74.87,-150.71 156.12,-135.96 219.42,-131.78"/>
<polygon fill="#63b8ff" stroke="#63b8ff" points="219.63,-135.28 229.4,-131.2 219.22,-128.29 219.63,-135.28"/>
</a>
</g>
</g>
<!-- Node24 -->
<g id="Node000024" class="node">
<title>Node24</title>
<g id="a_Node000024"><a xlink:href="EspNvs_8h.html" target="_top" xlink:title="World&#45;class ESP32&#45;C6 NVS storage implementation with ESP&#45;IDF v5.5+ features.">
<polygon fill="white" stroke="#666666" points="1039.5,-259 894.5,-259 894.5,-236 1039.5,-236 1039.5,-259"/>
<text text-anchor="middle" x="967" y="-243.8" font-family="Arial" font-size="14.00">mcu/esp32/EspNvs.h</text>
</a>
</g>
</g>
<!-- Node1&#45;&gt;Node24 -->
<g id="edge33_Node000001_Node000024" class="edge">
<title>Node1&#45;&gt;Node24</title>
<g id="a_edge33_Node000001_Node000024"><a xlink:title=" ">
<path fill="none" stroke="#63b8ff" d="M794.54,-353.93C799.81,-336.51 810.14,-310.59 828,-295 846.12,-279.19 869.8,-268.71 892.47,-261.79"/>
<polygon fill="#63b8ff" stroke="#63b8ff" points="893.45,-265.15 902.1,-259.03 891.53,-258.42 893.45,-265.15"/>
</a>
</g>
</g>
<!-- Node27 -->
<g id="Node000027" class="node">
<title>Node27</title>
<g id="a_Node000027"><a xlink:title=" ">
<polygon fill="#e0e0e0" stroke="#999999" points="677,-141 621,-141 621,-118 677,-118 677,-141"/>
<text text-anchor="middle" x="649" y="-125.8" font-family="Arial" font-size="14.00">cstring</text>
</a>
</g>
</g>
<!-- Node1&#45;&gt;Node27 -->
<g id="edge50_Node000001_Node000027" class="edge">
<title>Node1&#45;&gt;Node27</title>
<g id="a_edge50_Node000001_Node000027"><a xlink:title=" ">
<path fill="none" stroke="#63b8ff" d="M789.24,-353.74C786.81,-316.49 776.5,-230.73 733,-177 720.99,-162.16 702.91,-151.3 686.6,-143.82"/>
<polygon fill="#63b8ff" stroke="#63b8ff" points="687.83,-140.53 677.26,-139.8 685.06,-146.96 687.83,-140.53"/>
</a>
</g>
</g>
<!-- Node28 -->
<g id="Node000028" class="node">
<title>Node28</title>
<g id="a_Node000028"><a xlink:title=" ">
<polygon fill="#e0e0e0" stroke="#999999" points="889,-318 837,-318 837,-295 889,-295 889,-318"/>
<text text-anchor="middle" x="863" y="-302.8" font-family="Arial" font-size="14.00">cstdio</text>
</a>
</g>
</g>
<!-- Node1&#45;&gt;Node28 -->
<g id="edge49_Node000001_Node000028" class="edge">
<title>Node1&#45;&gt;Node28</title>
<g id="a_edge49_Node000001_Node000028"><a xlink:title=" ">
<path fill="none" stroke="#63b8ff" d="M810.72,-353.69C820.97,-344.64 833.27,-333.77 843.36,-324.85"/>
<polygon fill="#63b8ff" stroke="#63b8ff" points="845.72,-327.44 850.9,-318.19 841.09,-322.19 845.72,-327.44"/>
</a>
</g>
</g>
<!-- Node29 -->
<g id="Node000029" class="node">
<title>Node29</title>
<g id="a_Node000029"><a xlink:title=" ">
<polygon fill="#e0e0e0" stroke="#999999" points="970.5,-318 907.5,-318 907.5,-295 970.5,-295 970.5,-318"/>
<text text-anchor="middle" x="939" y="-302.8" font-family="Arial" font-size="14.00">random</text>
</a>
</g>
</g>
<!-- Node1&#45;&gt;Node29 -->
<g id="edge51_Node000001_Node000029" class="edge">
<title>Node1&#45;&gt;Node29</title>
<g id="a_edge51_Node000001_Node000029"><a xlink:title=" ">
<path fill="none" stroke="#63b8ff" d="M831.9,-353.86C855.14,-343.8 883.66,-331.45 905.42,-322.03"/>
<polygon fill="#63b8ff" stroke="#63b8ff" points="906.82,-325.25 914.6,-318.06 904.04,-318.82 906.82,-325.25"/>
</a>
</g>
</g>
<!-- Node3 -->
<g id="Node000003" class="node">
<title>Node3</title>
<g id="a_Node000003"><a xlink:title=" ">
<polygon fill="#e0e0e0" stroke="#999999" points="465.5,-259 390.5,-259 390.5,-236 465.5,-236 465.5,-259"/>
<text text-anchor="middle" x="428" y="-243.8" font-family="Arial" font-size="14.00">esp_log.h</text>
</a>
</g>
</g>
<!-- Node2&#45;&gt;Node3 -->
<g id="edge2_Node000002_Node000003" class="edge">
<title>Node2&#45;&gt;Node3</title>
<g id="a_edge2_Node000002_Node000003"><a xlink:title=" ">
<path fill="none" stroke="#63b8ff" d="M551.77,-294.91C527.45,-285.79 492.17,-272.56 465.49,-262.56"/>
<polygon fill="#63b8ff" stroke="#63b8ff" points="466.67,-259.27 456.08,-259.03 464.22,-265.82 466.67,-259.27"/>
</a>
</g>
</g>
<!-- Node4 -->
<g id="Node000004" class="node">
<title>Node4</title>
<g id="a_Node000004"><a xlink:title=" ">
<polygon fill="#e0e0e0" stroke="#999999" points="742.5,-259 655.5,-259 655.5,-236 742.5,-236 742.5,-259"/>
<text text-anchor="middle" x="699" y="-243.8" font-family="Arial" font-size="14.00">esp_timer.h</text>
</a>
</g>
</g>
<!-- Node2&#45;&gt;Node4 -->
<g id="edge3_Node000002_Node000004" class="edge">
<title>Node2&#45;&gt;Node4</title>
<g id="a_edge3_Node000002_Node000004"><a xlink:title=" ">
<path fill="none" stroke="#63b8ff" d="M602.1,-294.91C620.64,-286.03 647.32,-273.26 667.99,-263.35"/>
<polygon fill="#63b8ff" stroke="#63b8ff" points="669.51,-266.51 677.01,-259.03 666.48,-260.19 669.51,-266.51"/>
</a>
</g>
</g>
<!-- Node5 -->
<g id="Node000005" class="node">
<title>Node5</title>
<g id="a_Node000005"><a xlink:title=" ">
<polygon fill="#e0e0e0" stroke="#999999" points="1098.5,-141 955.5,-141 955.5,-118 1098.5,-118 1098.5,-141"/>
<text text-anchor="middle" x="1027" y="-125.8" font-family="Arial" font-size="14.00">freertos/FreeRTOS.h</text>
</a>
</g>
</g>
<!-- Node2&#45;&gt;Node5 -->
<g id="edge4_Node000002_Node000005" class="edge">
<title>Node2&#45;&gt;Node5</title>
<g id="a_edge4_Node000002_Node000005"><a xlink:title=" ">
<path fill="none" stroke="#63b8ff" d="M640.84,-295.71C681.56,-288.15 735.94,-276.06 782,-259 866.34,-227.77 958.39,-173.47 1001.74,-146.56"/>
<polygon fill="#63b8ff" stroke="#63b8ff" points="1003.85,-149.37 1010.47,-141.1 1000.13,-143.44 1003.85,-149.37"/>
</a>
</g>
</g>
<!-- Node6 -->
<g id="Node000006" class="node">
<title>Node6</title>
<g id="a_Node000006"><a xlink:title=" ">
<polygon fill="#e0e0e0" stroke="#999999" points="637.5,-259 522.5,-259 522.5,-236 637.5,-236 637.5,-259"/>
<text text-anchor="middle" x="580" y="-243.8" font-family="Arial" font-size="14.00">freertos/queue.h</text>
</a>
</g>
</g>
<!-- Node2&#45;&gt;Node6 -->
<g id="edge5_Node000002_Node000006" class="edge">
<title>Node2&#45;&gt;Node6</title>
<g id="a_edge5_Node000002_Node000006"><a xlink:title=" ">
<path fill="none" stroke="#63b8ff" d="M580,-294.78C580,-287.61 580,-277.95 580,-269.31"/>
<polygon fill="#63b8ff" stroke="#63b8ff" points="583.5,-269.17 580,-259.17 576.5,-269.17 583.5,-269.17"/>
</a>
</g>
</g>
<!-- Node7 -->
<g id="Node000007" class="node">
<title>Node7</title>
<g id="a_Node000007"><a xlink:title=" ">
<polygon fill="#e0e0e0" stroke="#999999" points="817,-141 695,-141 695,-118 817,-118 817,-141"/>
<text text-anchor="middle" x="756" y="-125.8" font-family="Arial" font-size="14.00">freertos/semphr.h</text>
</a>
</g>
</g>
<!-- Node2&#45;&gt;Node7 -->
<g id="edge6_Node000002_Node000007" class="edge">
<title>Node2&#45;&gt;Node7</title>
<g id="a_edge6_Node000002_Node000007"><a xlink:title=" ">
<path fill="none" stroke="#63b8ff" d="M556.61,-294.83C530.57,-281.51 494.44,-257.84 513,-236 577.15,-160.5 657.65,-264.33 733,-200 747.08,-187.98 752.58,-167.14 754.71,-151.41"/>
<polygon fill="#63b8ff" stroke="#63b8ff" points="758.23,-151.35 755.74,-141.05 751.27,-150.66 758.23,-151.35"/>
</a>
</g>
</g>
<!-- Node8 -->
<g id="Node000008" class="node">
<title>Node8</title>
<g id="a_Node000008"><a xlink:title=" ">
<polygon fill="#e0e0e0" stroke="#999999" points="937,-141 835,-141 835,-118 937,-118 937,-141"/>
<text text-anchor="middle" x="886" y="-125.8" font-family="Arial" font-size="14.00">freertos/task.h</text>
</a>
</g>
</g>
<!-- Node2&#45;&gt;Node8 -->
<g id="edge7_Node000002_Node000008" class="edge">
<title>Node2&#45;&gt;Node8</title>
<g id="a_edge7_Node000002_Node000008"><a xlink:title=" ">
<path fill="none" stroke="#63b8ff" d="M640.57,-296.59C674.61,-289.77 716.96,-278.18 751,-259 802.35,-230.07 848.97,-177.25 871.6,-149.18"/>
<polygon fill="#63b8ff" stroke="#63b8ff" points="874.36,-151.34 877.83,-141.32 868.88,-146.99 874.36,-151.34"/>
</a>
</g>
</g>
<!-- Node9 -->
<g id="Node000009" class="node">
<title>Node9</title>
<g id="a_Node000009"><a xlink:href="HardwareTypes_8h.html" target="_top" xlink:title="Platform&#45;agnostic hardware type definitions for the HardFOC system.">
<polygon fill="white" stroke="#666666" points="355,-82 233,-82 233,-59 355,-59 355,-82"/>
<text text-anchor="middle" x="294" y="-66.8" font-family="Arial" font-size="14.00">HardwareTypes.h</text>
</a>
</g>
</g>
<!-- Node2&#45;&gt;Node9 -->
<g id="edge8_Node000002_Node000009" class="edge">
<title>Node2&#45;&gt;Node9</title>
<g id="a_edge8_Node000002_Node000009"><a xlink:title=" ">
<path fill="none" stroke="#63b8ff" d="M519.21,-301.81C424.7,-295.49 247.24,-281.09 188,-259 144.23,-242.67 122.88,-241.28 101,-200 68.79,-139.24 165.53,-102.34 233.45,-84.52"/>
<polygon fill="#63b8ff" stroke="#63b8ff" points="234.42,-87.89 243.25,-82.03 232.69,-81.11 234.42,-87.89"/>
</a>
</g>
</g>
<!-- Node12 -->
<g id="Node000012" class="node">
<title>Node12</title>
<g id="a_Node000012"><a xlink:href="EspGpio_8h.html" target="_top" xlink:title="Advanced MCU&#45;specific implementation of the unified BaseGpio class with ESP32C6/ESP&#45;IDF v5....">
<polygon fill="white" stroke="#666666" points="348.5,-259 197.5,-259 197.5,-236 348.5,-236 348.5,-259"/>
<text text-anchor="middle" x="273" y="-243.8" font-family="Arial" font-size="14.00">mcu/esp32/EspGpio.h</text>
</a>
</g>
</g>
<!-- Node2&#45;&gt;Node12 -->
<g id="edge11_Node000002_Node000012" class="edge">
<title>Node2&#45;&gt;Node12</title>
<g id="a_edge11_Node000002_Node000012"><a xlink:title=" ">
<path fill="none" stroke="#63b8ff" d="M523.33,-294.98C471.39,-285.33 394.43,-271.05 339.57,-260.86"/>
<polygon fill="#63b8ff" stroke="#63b8ff" points="340.07,-257.39 329.6,-259.01 338.79,-264.27 340.07,-257.39"/>
</a>
</g>
</g>
<!-- Node10 -->
<g id="Node000010" class="node">
<title>Node10</title>
<g id="a_Node000010"><a xlink:title=" ">
<polygon fill="#e0e0e0" stroke="#999999" points="471,-23 415,-23 415,0 471,0 471,-23"/>
<text text-anchor="middle" x="443" y="-7.8" font-family="Arial" font-size="14.00">cstdint</text>
</a>
</g>
</g>
<!-- Node9&#45;&gt;Node10 -->
<g id="edge9_Node000009_Node000010" class="edge">
<title>Node9&#45;&gt;Node10</title>
<g id="a_edge9_Node000009_Node000010"><a xlink:title=" ">
<path fill="none" stroke="#63b8ff" d="M321.68,-58.91C345.41,-49.83 379.8,-36.68 405.91,-26.69"/>
<polygon fill="#63b8ff" stroke="#63b8ff" points="407.38,-29.87 415.47,-23.03 404.88,-23.34 407.38,-29.87"/>
</a>
</g>
</g>
<!-- Node11 -->
<g id="Node000011" class="node">
<title>Node11</title>
<g id="a_Node000011"><a xlink:title=" ">
<polygon fill="#e0e0e0" stroke="#999999" points="318,-23 270,-23 270,0 318,0 318,-23"/>
<text text-anchor="middle" x="294" y="-7.8" font-family="Arial" font-size="14.00">limits</text>
</a>
</g>
</g>
<!-- Node9&#45;&gt;Node11 -->
<g id="edge10_Node000009_Node000011" class="edge">
<title>Node9&#45;&gt;Node11</title>
<g id="a_edge10_Node000009_Node000011"><a xlink:title=" ">
<path fill="none" stroke="#63b8ff" d="M294,-58.78C294,-51.61 294,-41.95 294,-33.31"/>
<polygon fill="#63b8ff" stroke="#63b8ff" points="297.5,-33.17 294,-23.17 290.5,-33.17 297.5,-33.17"/>
</a>
</g>
</g>
<!-- Node13 -->
<g id="Node000013" class="node">
<title>Node13</title>
<g id="a_Node000013"><a xlink:title=" ">
<polygon fill="#e0e0e0" stroke="#999999" points="275.5,-200 184.5,-200 184.5,-177 275.5,-177 275.5,-200"/>
<text text-anchor="middle" x="230" y="-184.8" font-family="Arial" font-size="14.00">driver/gpio.h</text>
</a>
</g>
</g>
<!-- Node12&#45;&gt;Node13 -->
<g id="edge12_Node000012_Node000013" class="edge">
<title>Node12&#45;&gt;Node13</title>
<g id="a_edge12_Node000012_Node000013"><a xlink:title=" ">
<path fill="none" stroke="#63b8ff" d="M264.91,-235.78C259.09,-228.06 251.07,-217.43 244.19,-208.31"/>
<polygon fill="#63b8ff" stroke="#63b8ff" points="246.87,-206.05 238.05,-200.17 241.28,-210.26 246.87,-206.05"/>
</a>
</g>
</g>
<!-- Node14 -->
<g id="Node000014" class="node">
<title>Node14</title>
<g id="a_Node000014"><a xlink:title=" ">
<polygon fill="#e0e0e0" stroke="#999999" points="370,-200 294,-200 294,-177 370,-177 370,-200"/>
<text text-anchor="middle" x="332" y="-184.8" font-family="Arial" font-size="14.00">esp_attr.h</text>
</a>
</g>
</g>
<!-- Node12&#45;&gt;Node14 -->
<g id="edge13_Node000012_Node000014" class="edge">
<title>Node12&#45;&gt;Node14</title>
<g id="a_edge13_Node000012_Node000014"><a xlink:title=" ">
<path fill="none" stroke="#63b8ff" d="M284.1,-235.78C292.42,-227.74 304,-216.55 313.69,-207.19"/>
<polygon fill="#63b8ff" stroke="#63b8ff" points="316.19,-209.64 320.95,-200.17 311.33,-204.6 316.19,-209.64"/>
</a>
</g>
</g>
<!-- Node15 -->
<g id="Node000015" class="node">
<title>Node15</title>
<g id="a_Node000015"><a xlink:href="BaseGpio_8h.html" target="_top" xlink:title="Unified GPIO base class for all digital GPIO implementations.">
<polygon fill="white" stroke="#666666" points="88,-141 0,-141 0,-118 88,-118 88,-141"/>
<text text-anchor="middle" x="44" y="-125.8" font-family="Arial" font-size="14.00">BaseGpio.h</text>
</a>
</g>
</g>
<!-- Node12&#45;&gt;Node15 -->
<g id="edge14_Node000012_Node000015" class="edge">
<title>Node12&#45;&gt;Node15</title>
<g id="a_edge14_Node000012_Node000015"><a xlink:title=" ">
<path fill="none" stroke="#63b8ff" d="M197.29,-236.5C165.67,-229.76 129.7,-218.56 101,-200 81.47,-187.37 65.36,-165.88 55.3,-150.14"/>
<polygon fill="#63b8ff" stroke="#63b8ff" points="58.05,-147.92 49.85,-141.21 52.07,-151.57 58.05,-147.92"/>
</a>
</g>
</g>
<!-- Node18 -->
<g id="Node000018" class="node">
<title>Node18</title>
<g id="a_Node000018"><a xlink:href="EspTypes__GPIO_8h.html" target="_top" xlink:title="ESP32 GPIO type definitions for hardware abstraction.">
<polygon fill="white" stroke="#666666" points="518,-200 388,-200 388,-177 518,-177 518,-200"/>
<text text-anchor="middle" x="453" y="-184.8" font-family="Arial" font-size="14.00">EspTypes_GPIO.h</text>
</a>
</g>
</g>
<!-- Node12&#45;&gt;Node18 -->
<g id="edge19_Node000012_Node000018" class="edge">
<title>Node12&#45;&gt;Node18</title>
<g id="a_edge19_Node000012_Node000018"><a xlink:title=" ">
<path fill="none" stroke="#63b8ff" d="M306.43,-235.91C335.61,-226.67 378.12,-213.21 409.85,-203.16"/>
<polygon fill="#63b8ff" stroke="#63b8ff" points="411.27,-206.39 419.74,-200.03 409.15,-199.71 411.27,-206.39"/>
</a>
</g>
</g>
<!-- Node22 -->
<g id="Node000022" class="node">
<title>Node22</title>
<g id="a_Node000022"><a xlink:title=" ">
<polygon fill="#e0e0e0" stroke="#999999" points="166,-200 110,-200 110,-177 166,-177 166,-200"/>
<text text-anchor="middle" x="138" y="-184.8" font-family="Arial" font-size="14.00">stdio.h</text>
</a>
</g>
</g>
<!-- Node12&#45;&gt;Node22 -->
<g id="edge28_Node000012_Node000022" class="edge">
<title>Node12&#45;&gt;Node22</title>
<g id="a_edge28_Node000012_Node000022"><a xlink:title=" ">
<path fill="none" stroke="#63b8ff" d="M247.92,-235.91C226.61,-226.91 195.81,-213.91 172.23,-203.95"/>
<polygon fill="#63b8ff" stroke="#63b8ff" points="173.52,-200.7 162.94,-200.03 170.79,-207.15 173.52,-200.7"/>
</a>
</g>
</g>
<!-- Node15&#45;&gt;Node9 -->
<g id="edge15_Node000015_Node000009" class="edge">
<title>Node15&#45;&gt;Node9</title>
<g id="a_edge15_Node000015_Node000009"><a xlink:title=" ">
<path fill="none" stroke="#63b8ff" d="M88.12,-118.44C129.82,-108.93 192.57,-94.63 237.83,-84.31"/>
<polygon fill="#63b8ff" stroke="#63b8ff" points="238.81,-87.67 247.78,-82.04 237.25,-80.85 238.81,-87.67"/>
</a>
</g>
</g>
<!-- Node15&#45;&gt;Node10 -->
<g id="edge16_Node000015_Node000010" class="edge">
<title>Node15&#45;&gt;Node10</title>
<g id="a_edge16_Node000015_Node000010"><a xlink:title=" ">
<path fill="none" stroke="#63b8ff" d="M52.28,-117.93C65.28,-102.18 92.08,-72.94 122,-59 147.25,-47.24 325.23,-25.88 404.76,-16.79"/>
<polygon fill="#63b8ff" stroke="#63b8ff" points="405.32,-20.24 414.86,-15.64 404.53,-13.29 405.32,-20.24"/>
</a>
</g>
</g>
<!-- Node16 -->
<g id="Node000016" class="node">
<title>Node16</title>
<g id="a_Node000016"><a xlink:title=" ">
<polygon fill="#e0e0e0" stroke="#999999" points="75,-82 1,-82 1,-59 75,-59 75,-82"/>
<text text-anchor="middle" x="38" y="-66.8" font-family="Arial" font-size="14.00">functional</text>
</a>
</g>
</g>
<!-- Node15&#45;&gt;Node16 -->
<g id="edge17_Node000015_Node000016" class="edge">
<title>Node15&#45;&gt;Node16</title>
<g id="a_edge17_Node000015_Node000016"><a xlink:title=" ">
<path fill="none" stroke="#63b8ff" d="M42.87,-117.78C42.12,-110.61 41.1,-100.95 40.19,-92.31"/>
<polygon fill="#63b8ff" stroke="#63b8ff" points="43.65,-91.75 39.12,-82.17 36.69,-92.48 43.65,-91.75"/>
</a>
</g>
</g>
<!-- Node17 -->
<g id="Node000017" class="node">
<title>Node17</title>
<g id="a_Node000017"><a xlink:title=" ">
<polygon fill="#e0e0e0" stroke="#999999" points="215,-82 131,-82 131,-59 215,-59 215,-82"/>
<text text-anchor="middle" x="173" y="-66.8" font-family="Arial" font-size="14.00">string_view</text>
</a>
</g>
</g>
<!-- Node15&#45;&gt;Node17 -->
<g id="edge18_Node000015_Node000017" class="edge">
<title>Node15&#45;&gt;Node17</title>
<g id="a_edge18_Node000015_Node000017"><a xlink:title=" ">
<path fill="none" stroke="#63b8ff" d="M67.96,-117.91C88.24,-108.95 117.5,-96.02 139.99,-86.09"/>
<polygon fill="#63b8ff" stroke="#63b8ff" points="141.43,-89.27 149.17,-82.03 138.61,-82.87 141.43,-89.27"/>
</a>
</g>
</g>
<!-- Node18&#45;&gt;Node9 -->
<g id="edge26_Node000018_Node000009" class="edge">
<title>Node18&#45;&gt;Node9</title>
<g id="a_edge26_Node000018_Node000009"><a xlink:title=" ">
<path fill="none" stroke="#63b8ff" d="M390.08,-176.96C322.95,-165.42 225.46,-147.66 220,-141 203.1,-120.4 231.97,-99.89 258.44,-86.55"/>
<polygon fill="#63b8ff" stroke="#63b8ff" points="260.12,-89.63 267.62,-82.14 257.09,-83.32 260.12,-89.63"/>
</a>
</g>
</g>
<!-- Node18&#45;&gt;Node15 -->
<g id="edge20_Node000018_Node000015" class="edge">
<title>Node18&#45;&gt;Node15</title>
<g id="a_edge20_Node000018_Node000015"><a xlink:title=" ">
<path fill="none" stroke="#63b8ff" d="M387.63,-178.21C384.71,-177.8 381.83,-177.4 379,-177 280.06,-163.11 164.66,-147.15 98.38,-138"/>
<polygon fill="#63b8ff" stroke="#63b8ff" points="98.56,-134.49 88.17,-136.59 97.6,-141.42 98.56,-134.49"/>
</a>
</g>
</g>
<!-- Node19 -->
<g id="Node000019" class="node">
<title>Node19</title>
<g id="a_Node000019"><a xlink:href="EspTypes__Base_8h.html" target="_top" xlink:title="ESP32 base type definitions for hardware abstraction.">
<polygon fill="white" stroke="#666666" points="564.5,-141 439.5,-141 439.5,-118 564.5,-118 564.5,-141"/>
<text text-anchor="middle" x="502" y="-125.8" font-family="Arial" font-size="14.00">EspTypes_Base.h</text>
</a>
</g>
</g>
<!-- Node18&#45;&gt;Node19 -->
<g id="edge21_Node000018_Node000019" class="edge">
<title>Node18&#45;&gt;Node19</title>
<g id="a_edge21_Node000018_Node000019"><a xlink:title=" ">
<path fill="none" stroke="#63b8ff" d="M462.22,-176.78C468.92,-168.98 478.18,-158.21 486.07,-149.03"/>
<polygon fill="#63b8ff" stroke="#63b8ff" points="488.96,-151.04 492.82,-141.17 483.65,-146.47 488.96,-151.04"/>
</a>
</g>
</g>
<!-- Node20 -->
<g id="Node000020" class="node">
<title>Node20</title>
<g id="a_Node000020"><a xlink:href="McuSelect_8h.html" target="_top" xlink:title="Centralized MCU platform selection and configuration header.">
<polygon fill="white" stroke="#666666" points="646,-82 504,-82 504,-59 646,-59 646,-82"/>
<text text-anchor="middle" x="575" y="-66.8" font-family="Arial" font-size="14.00">../../utils/McuSelect.h</text>
</a>
</g>
</g>
<!-- Node18&#45;&gt;Node20 -->
<g id="edge27_Node000018_Node000020" class="edge">
<title>Node18&#45;&gt;Node20</title>
<g id="a_edge27_Node000018_Node000020"><a xlink:title=" ">
<path fill="none" stroke="#63b8ff" d="M443.8,-176.68C432.63,-162.14 416.82,-136.07 430,-118 445.06,-97.35 469.42,-85.67 493.91,-79.12"/>
<polygon fill="#63b8ff" stroke="#63b8ff" points="494.75,-82.52 503.65,-76.78 493.11,-75.72 494.75,-82.52"/>
</a>
</g>
</g>
<!-- Node19&#45;&gt;Node9 -->
<g id="edge23_Node000019_Node000009" class="edge">
<title>Node19&#45;&gt;Node9</title>
<g id="a_edge23_Node000019_Node000009"><a xlink:title=" ">
<path fill="none" stroke="#63b8ff" d="M463.36,-117.91C429.21,-108.55 379.25,-94.86 342.44,-84.77"/>
<polygon fill="#63b8ff" stroke="#63b8ff" points="343,-81.3 332.43,-82.03 341.15,-88.05 343,-81.3"/>
</a>
</g>
</g>
<!-- Node19&#45;&gt;Node10 -->
<g id="edge25_Node000019_Node000010" class="edge">
<title>Node19&#45;&gt;Node10</title>
<g id="a_edge25_Node000019_Node000010"><a xlink:title=" ">
<path fill="none" stroke="#63b8ff" d="M496.56,-117.79C486.68,-98.37 465.66,-57.06 453.09,-32.35"/>
<polygon fill="#63b8ff" stroke="#63b8ff" points="456.08,-30.51 448.43,-23.18 449.85,-33.68 456.08,-30.51"/>
</a>
</g>
</g>
<!-- Node19&#45;&gt;Node20 -->
<g id="edge22_Node000019_Node000020" class="edge">
<title>Node19&#45;&gt;Node20</title>
<g id="a_edge22_Node000019_Node000020"><a xlink:title=" ">
<path fill="none" stroke="#63b8ff" d="M515.73,-117.78C526.33,-109.5 541.21,-97.89 553.4,-88.36"/>
<polygon fill="#63b8ff" stroke="#63b8ff" points="555.6,-91.09 561.33,-82.17 551.29,-85.57 555.6,-91.09"/>
</a>
</g>
</g>
<!-- Node21 -->
<g id="Node000021" class="node">
<title>Node21</title>
<g id="a_Node000021"><a xlink:title=" ">
<polygon fill="#e0e0e0" stroke="#999999" points="948.5,-82 891.5,-82 891.5,-59 948.5,-59 948.5,-82"/>
<text text-anchor="middle" x="920" y="-66.8" font-family="Arial" font-size="14.00">atomic</text>
</a>
</g>
</g>
<!-- Node19&#45;&gt;Node21 -->
<g id="edge24_Node000019_Node000021" class="edge">
<title>Node19&#45;&gt;Node21</title>
<g id="a_edge24_Node000019_Node000021"><a xlink:title=" ">
<path fill="none" stroke="#63b8ff" d="M564.58,-119.97C652.17,-108.02 808.71,-86.68 881.2,-76.79"/>
<polygon fill="#63b8ff" stroke="#63b8ff" points="881.83,-80.24 891.26,-75.42 880.88,-73.3 881.83,-80.24"/>
</a>
</g>
</g>
<!-- Node23&#45;&gt;Node9 -->
<g id="edge30_Node000023_Node000009" class="edge">
<title>Node23&#45;&gt;Node9</title>
<g id="a_edge30_Node000023_Node000009"><a xlink:title=" ">
<path fill="none" stroke="#63b8ff" d="M288.32,-117.78C289.2,-110.61 290.38,-100.95 291.44,-92.31"/>
<polygon fill="#63b8ff" stroke="#63b8ff" points="294.94,-92.53 292.69,-82.17 288,-91.67 294.94,-92.53"/>
</a>
</g>
</g>
<!-- Node23&#45;&gt;Node10 -->
<g id="edge31_Node000023_Node000010" class="edge">
<title>Node23&#45;&gt;Node10</title>
<g id="a_edge31_Node000023_Node000010"><a xlink:title=" ">
<path fill="none" stroke="#63b8ff" d="M306.6,-117.95C322.53,-109.07 345.36,-95.66 364,-82 386.08,-65.82 409.39,-44.76 424.91,-30.09"/>
<polygon fill="#63b8ff" stroke="#63b8ff" points="427.46,-32.49 432.27,-23.05 422.63,-27.43 427.46,-32.49"/>
</a>
</g>
</g>
<!-- Node23&#45;&gt;Node17 -->
<g id="edge32_Node000023_Node000017" class="edge">
<title>Node23&#45;&gt;Node17</title>
<g id="a_edge32_Node000023_Node000017"><a xlink:title=" ">
<path fill="none" stroke="#63b8ff" d="M265.82,-117.91C248.23,-109.11 222.97,-96.49 203.24,-86.62"/>
<polygon fill="#63b8ff" stroke="#63b8ff" points="204.57,-83.37 194.06,-82.03 201.44,-89.63 204.57,-83.37"/>
</a>
</g>
</g>
<!-- Node24&#45;&gt;Node10 -->
<g id="edge48_Node000024_Node000010" class="edge">
<title>Node24&#45;&gt;Node10</title>
<g id="a_edge48_Node000024_Node000010"><a xlink:title=" ">
<path fill="none" stroke="#63b8ff" d="M1022.58,-235.97C1096.4,-219.28 1213.09,-181.92 1173,-118 1141,-66.98 1109.15,-74.68 1051,-59 942.71,-29.8 597.17,-17.08 481.29,-13.57"/>
<polygon fill="#63b8ff" stroke="#63b8ff" points="481.23,-10.06 471.13,-13.26 481.02,-17.06 481.23,-10.06"/>
</a>
</g>
</g>
<!-- Node24&#45;&gt;Node23 -->
<g id="edge34_Node000024_Node000023" class="edge">
<title>Node24&#45;&gt;Node23</title>
<g id="a_edge34_Node000024_Node000023"><a xlink:title=" ">
<path fill="none" stroke="#63b8ff" d="M894.26,-241.82C795.4,-234.82 624.16,-220.25 565,-200 546.32,-193.61 545.42,-184.1 527,-177 496.21,-165.13 414.27,-150.53 354.68,-140.89"/>
<polygon fill="#63b8ff" stroke="#63b8ff" points="355.01,-137.39 344.58,-139.26 353.9,-144.3 355.01,-137.39"/>
</a>
</g>
</g>
<!-- Node25 -->
<g id="Node000025" class="node">
<title>Node25</title>
<g id="a_Node000025"><a xlink:href="RtosMutex_8h.html" target="_top" xlink:title="Cross&#45;platform RTOS mutex and synchronization primitives.">
<polygon fill="white" stroke="#666666" points="1073.5,-200 980.5,-200 980.5,-177 1073.5,-177 1073.5,-200"/>
<text text-anchor="middle" x="1027" y="-184.8" font-family="Arial" font-size="14.00">RtosMutex.h</text>
</a>
</g>
</g>
<!-- Node24&#45;&gt;Node25 -->
<g id="edge35_Node000024_Node000025" class="edge">
<title>Node24&#45;&gt;Node25</title>
<g id="a_edge35_Node000024_Node000025"><a xlink:title=" ">
<path fill="none" stroke="#63b8ff" d="M978.29,-235.78C986.75,-227.74 998.52,-216.55 1008.38,-207.19"/>
<polygon fill="#63b8ff" stroke="#63b8ff" points="1010.93,-209.6 1015.77,-200.17 1006.1,-204.52 1010.93,-209.6"/>
</a>
</g>
</g>
<!-- Node26 -->
<g id="Node000026" class="node">
<title>Node26</title>
<g id="a_Node000026"><a xlink:href="EspTypes__NVS_8h.html" target="_top" xlink:title="ESP32 NVS type definitions for hardware abstraction.">
<polygon fill="white" stroke="#666666" points="724,-200 574,-200 574,-177 724,-177 724,-200"/>
<text text-anchor="middle" x="649" y="-184.8" font-family="Arial" font-size="14.00">utils/EspTypes_NVS.h</text>
</a>
</g>
</g>
<!-- Node24&#45;&gt;Node26 -->
<g id="edge42_Node000024_Node000026" class="edge">
<title>Node24&#45;&gt;Node26</title>
<g id="a_edge42_Node000024_Node000026"><a xlink:title=" ">
<path fill="none" stroke="#63b8ff" d="M908.3,-235.98C854.38,-226.31 774.45,-211.99 717.6,-201.8"/>
<polygon fill="#63b8ff" stroke="#63b8ff" points="718.08,-198.33 707.62,-200.01 716.85,-205.22 718.08,-198.33"/>
</a>
</g>
</g>
<!-- Node25&#45;&gt;Node5 -->
<g id="edge37_Node000025_Node000005" class="edge">
<title>Node25&#45;&gt;Node5</title>
<g id="a_edge37_Node000025_Node000005"><a xlink:title=" ">
<path fill="none" stroke="#63b8ff" d="M1027,-176.78C1027,-169.61 1027,-159.95 1027,-151.31"/>
<polygon fill="#63b8ff" stroke="#63b8ff" points="1030.5,-151.17 1027,-141.17 1023.5,-151.17 1030.5,-151.17"/>
</a>
</g>
</g>
<!-- Node25&#45;&gt;Node7 -->
<g id="edge38_Node000025_Node000007" class="edge">
<title>Node25&#45;&gt;Node7</title>
<g id="a_edge38_Node000025_Node000007"><a xlink:title=" ">
<path fill="none" stroke="#63b8ff" d="M980.41,-177.7C934.97,-168.14 865.63,-153.56 816.06,-143.13"/>
<polygon fill="#63b8ff" stroke="#63b8ff" points="816.62,-139.67 806.11,-141.04 815.17,-146.52 816.62,-139.67"/>
</a>
</g>
</g>
<!-- Node25&#45;&gt;Node8 -->
<g id="edge39_Node000025_Node000008" class="edge">
<title>Node25&#45;&gt;Node8</title>
<g id="a_edge39_Node000025_Node000008"><a xlink:title=" ">
<path fill="none" stroke="#63b8ff" d="M1000.81,-176.91C978.45,-167.87 946.1,-154.79 921.43,-144.82"/>
<polygon fill="#63b8ff" stroke="#63b8ff" points="922.63,-141.53 912.05,-141.03 920.01,-148.02 922.63,-141.53"/>
</a>
</g>
</g>
<!-- Node25&#45;&gt;Node10 -->
<g id="edge41_Node000025_Node000010" class="edge">
<title>Node25&#45;&gt;Node10</title>
<g id="a_edge41_Node000025_Node000010"><a xlink:title=" ">
<path fill="none" stroke="#63b8ff" d="M1073.75,-180.31C1120.58,-171.04 1182.34,-151.94 1157,-118 1101.81,-44.08 1048.6,-76.34 958,-59 781.94,-25.3 567.22,-15.88 481.26,-13.37"/>
<polygon fill="#63b8ff" stroke="#63b8ff" points="481.28,-9.87 471.18,-13.09 481.08,-16.86 481.28,-9.87"/>
</a>
</g>
</g>
<!-- Node25&#45;&gt;Node20 -->
<g id="edge36_Node000025_Node000020" class="edge">
<title>Node25&#45;&gt;Node20</title>
<g id="a_edge36_Node000025_Node000020"><a xlink:title=" ">
<path fill="none" stroke="#63b8ff" d="M1055.76,-176.99C1086.83,-164.11 1129.22,-141.15 1108,-118 1092.96,-101.6 801.72,-83.69 656.25,-75.73"/>
<polygon fill="#63b8ff" stroke="#63b8ff" points="656.21,-72.22 646.04,-75.17 655.83,-79.21 656.21,-72.22"/>
</a>
</g>
</g>
<!-- Node25&#45;&gt;Node21 -->
<g id="edge40_Node000025_Node000021" class="edge">
<title>Node25&#45;&gt;Node21</title>
<g id="a_edge40_Node000025_Node000021"><a xlink:title=" ">
<path fill="none" stroke="#63b8ff" d="M1073.7,-177.45C1114.62,-166.5 1164.22,-146.62 1141,-118 1118.5,-90.27 1016.12,-78.46 958.93,-73.95"/>
<polygon fill="#63b8ff" stroke="#63b8ff" points="959.05,-70.45 948.81,-73.19 958.52,-77.43 959.05,-70.45"/>
</a>
</g>
</g>
<!-- Node26&#45;&gt;Node9 -->
<g id="edge45_Node000026_Node000009" class="edge">
<title>Node26&#45;&gt;Node9</title>
<g id="a_edge45_Node000026_Node000009"><a xlink:title=" ">
<path fill="none" stroke="#63b8ff" d="M576.18,-176.98C532.92,-169.53 477.44,-157.83 430,-141 389.76,-126.73 346.34,-102.92 319.66,-87.21"/>
<polygon fill="#63b8ff" stroke="#63b8ff" points="321.33,-84.13 310.95,-82.02 317.75,-90.15 321.33,-84.13"/>
</a>
</g>
</g>
<!-- Node26&#45;&gt;Node19 -->
<g id="edge44_Node000026_Node000019" class="edge">
<title>Node26&#45;&gt;Node19</title>
<g id="a_edge44_Node000026_Node000019"><a xlink:title=" ">
<path fill="none" stroke="#63b8ff" d="M621.69,-176.91C598.28,-167.83 564.35,-154.68 538.59,-144.69"/>
<polygon fill="#63b8ff" stroke="#63b8ff" points="539.75,-141.38 529.16,-141.03 537.22,-147.91 539.75,-141.38"/>
</a>
</g>
</g>
<!-- Node26&#45;&gt;Node20 -->
<g id="edge46_Node000026_Node000020" class="edge">
<title>Node26&#45;&gt;Node20</title>
<g id="a_edge46_Node000026_Node000020"><a xlink:title=" ">
<path fill="none" stroke="#63b8ff" d="M639.59,-176.84C631.73,-167.68 620.49,-153.94 612,-141 601.5,-125 591.42,-105.71 584.44,-91.52"/>
<polygon fill="#63b8ff" stroke="#63b8ff" points="587.44,-89.69 579.94,-82.2 581.14,-92.73 587.44,-89.69"/>
</a>
</g>
</g>
<!-- Node26&#45;&gt;Node23 -->
<g id="edge43_Node000026_Node000023" class="edge">
<title>Node26&#45;&gt;Node23</title>
<g id="a_edge43_Node000026_Node000023"><a xlink:title=" ">
<path fill="none" stroke="#63b8ff" d="M582.18,-176.98C517.51,-166.8 419.97,-151.44 354.92,-141.2"/>
<polygon fill="#63b8ff" stroke="#63b8ff" points="355.2,-137.7 344.77,-139.6 354.11,-144.61 355.2,-137.7"/>
</a>
</g>
</g>
<!-- Node26&#45;&gt;Node27 -->
<g id="edge47_Node000026_Node000027" class="edge">
<title>Node26&#45;&gt;Node27</title>
<g id="a_edge47_Node000026_Node000027"><a xlink:title=" ">
<path fill="none" stroke="#63b8ff" d="M649,-176.78C649,-169.61 649,-159.95 649,-151.31"/>
<polygon fill="#63b8ff" stroke="#63b8ff" points="652.5,-151.17 649,-141.17 645.5,-151.17 652.5,-151.17"/>
</a>
</g>
</g>
</g>
</svg>
