<?xml version="1.0" encoding="UTF-8" standalone="no"?>
<!DOCTYPE svg PUBLIC "-//W3C//DTD SVG 1.1//EN"
 "http://www.w3.org/Graphics/SVG/1.1/DTD/svg11.dtd">
<!-- Generated by graphviz version 2.43.0 (0)
 -->
<!-- Title: inc/mcu/stm32/StmLogger.h Pages: 1 -->
<svg width="626pt" height="208pt"
 viewBox="0.00 0.00 625.50 208.00" xmlns="http://www.w3.org/2000/svg" xmlns:xlink="http://www.w3.org/1999/xlink">
<g id="graph0" class="graph" transform="scale(1 1) rotate(0) translate(4 204)">
<title>inc/mcu/stm32/StmLogger.h</title>
<!-- Node1 -->
<g id="Node000001" class="node">
<title>Node1</title>
<g id="a_Node000001"><a xlink:title="STM32 Logger — UART/SWO/ITM&#45;based logging with full BaseLogger interface.">
<polygon fill="#999999" stroke="#666666" points="331.5,-200 145.5,-200 145.5,-177 331.5,-177 331.5,-200"/>
<text text-anchor="middle" x="238.5" y="-184.8" font-family="Arial" font-size="14.00">inc/mcu/stm32/StmLogger.h</text>
</a>
</g>
</g>
<!-- Node2 -->
<g id="Node000002" class="node">
<title>Node2</title>
<g id="a_Node000002"><a xlink:href="BaseLogger_8h.html" target="_top" xlink:title="Unified logging base class for all logging implementations.">
<polygon fill="white" stroke="#666666" points="288.5,-141 188.5,-141 188.5,-118 288.5,-118 288.5,-141"/>
<text text-anchor="middle" x="238.5" y="-125.8" font-family="Arial" font-size="14.00">BaseLogger.h</text>
</a>
</g>
</g>
<!-- Node1&#45;&gt;Node2 -->
<g id="edge1_Node000001_Node000002" class="edge">
<title>Node1&#45;&gt;Node2</title>
<g id="a_edge1_Node000001_Node000002"><a xlink:title=" ">
<path fill="none" stroke="#63b8ff" d="M238.5,-176.78C238.5,-169.61 238.5,-159.95 238.5,-151.31"/>
<polygon fill="#63b8ff" stroke="#63b8ff" points="242,-151.17 238.5,-141.17 235,-151.17 242,-151.17"/>
</a>
</g>
</g>
<!-- Node6 -->
<g id="Node000006" class="node">
<title>Node6</title>
<g id="a_Node000006"><a xlink:title=" ">
<polygon fill="#e0e0e0" stroke="#999999" points="61,-82 0,-82 0,-59 61,-59 61,-82"/>
<text text-anchor="middle" x="30.5" y="-66.8" font-family="Arial" font-size="14.00">cstdarg</text>
</a>
</g>
</g>
<!-- Node1&#45;&gt;Node6 -->
<g id="edge14_Node000001_Node000006" class="edge">
<title>Node1&#45;&gt;Node6</title>
<g id="a_edge14_Node000001_Node000006"><a xlink:title=" ">
<path fill="none" stroke="#63b8ff" d="M219.3,-176.79C182.29,-156.15 100.95,-110.79 58.12,-86.9"/>
<polygon fill="#63b8ff" stroke="#63b8ff" points="59.79,-83.83 49.35,-82.01 56.38,-89.94 59.79,-83.83"/>
</a>
</g>
</g>
<!-- Node10 -->
<g id="Node000010" class="node">
<title>Node10</title>
<g id="a_Node000010"><a xlink:href="StmTypes_8h.html" target="_top" xlink:title="STM32 platform&#45;specific type definitions for hardware abstraction.">
<polygon fill="white" stroke="#666666" points="529,-141 440,-141 440,-118 529,-118 529,-141"/>
<text text-anchor="middle" x="484.5" y="-125.8" font-family="Arial" font-size="14.00">StmTypes.h</text>
</a>
</g>
</g>
<!-- Node1&#45;&gt;Node10 -->
<g id="edge10_Node000001_Node000010" class="edge">
<title>Node1&#45;&gt;Node10</title>
<g id="a_edge10_Node000001_Node000010"><a xlink:title=" ">
<path fill="none" stroke="#63b8ff" d="M283.91,-176.98C325.12,-167.43 385.98,-153.33 429.85,-143.16"/>
<polygon fill="#63b8ff" stroke="#63b8ff" points="430.82,-146.53 439.77,-140.86 429.24,-139.71 430.82,-146.53"/>
</a>
</g>
</g>
<!-- Node3 -->
<g id="Node000003" class="node">
<title>Node3</title>
<g id="a_Node000003"><a xlink:href="HardwareTypes_8h.html" target="_top" xlink:title="Platform&#45;agnostic hardware type definitions for the HardFOC system.">
<polygon fill="white" stroke="#666666" points="501.5,-82 379.5,-82 379.5,-59 501.5,-59 501.5,-82"/>
<text text-anchor="middle" x="440.5" y="-66.8" font-family="Arial" font-size="14.00">HardwareTypes.h</text>
</a>
</g>
</g>
<!-- Node2&#45;&gt;Node3 -->
<g id="edge2_Node000002_Node000003" class="edge">
<title>Node2&#45;&gt;Node3</title>
<g id="a_edge2_Node000002_Node000003"><a xlink:title=" ">
<path fill="none" stroke="#63b8ff" d="M276.02,-117.91C309.19,-108.55 357.71,-94.86 393.46,-84.77"/>
<polygon fill="#63b8ff" stroke="#63b8ff" points="394.51,-88.12 403.18,-82.03 392.6,-81.38 394.51,-88.12"/>
</a>
</g>
</g>
<!-- Node4 -->
<g id="Node000004" class="node">
<title>Node4</title>
<g id="a_Node000004"><a xlink:title=" ">
<polygon fill="#e0e0e0" stroke="#999999" points="503.5,-23 447.5,-23 447.5,0 503.5,0 503.5,-23"/>
<text text-anchor="middle" x="475.5" y="-7.8" font-family="Arial" font-size="14.00">cstdint</text>
</a>
</g>
</g>
<!-- Node2&#45;&gt;Node4 -->
<g id="edge6_Node000002_Node000004" class="edge">
<title>Node2&#45;&gt;Node4</title>
<g id="a_edge6_Node000002_Node000004"><a xlink:title=" ">
<path fill="none" stroke="#63b8ff" d="M261.19,-117.94C280.4,-108.84 308.56,-95.14 332.5,-82 349.81,-72.5 352.99,-68.13 370.5,-59 393.09,-47.22 419.28,-35.62 439.86,-26.95"/>
<polygon fill="#63b8ff" stroke="#63b8ff" points="441.29,-30.14 449.17,-23.06 438.6,-23.68 441.29,-30.14"/>
</a>
</g>
</g>
<!-- Node2&#45;&gt;Node6 -->
<g id="edge5_Node000002_Node000006" class="edge">
<title>Node2&#45;&gt;Node6</title>
<g id="a_edge5_Node000002_Node000006"><a xlink:title=" ">
<path fill="none" stroke="#63b8ff" d="M199.86,-117.91C163.24,-107.88 108.44,-92.86 71.17,-82.64"/>
<polygon fill="#63b8ff" stroke="#63b8ff" points="71.72,-79.17 61.15,-79.9 69.87,-85.92 71.72,-79.17"/>
</a>
</g>
</g>
<!-- Node7 -->
<g id="Node000007" class="node">
<title>Node7</title>
<g id="a_Node000007"><a xlink:title=" ">
<polygon fill="#e0e0e0" stroke="#999999" points="153.5,-82 79.5,-82 79.5,-59 153.5,-59 153.5,-82"/>
<text text-anchor="middle" x="116.5" y="-66.8" font-family="Arial" font-size="14.00">functional</text>
</a>
</g>
</g>
<!-- Node2&#45;&gt;Node7 -->
<g id="edge7_Node000002_Node000007" class="edge">
<title>Node2&#45;&gt;Node7</title>
<g id="a_edge7_Node000002_Node000007"><a xlink:title=" ">
<path fill="none" stroke="#63b8ff" d="M215.84,-117.91C196.84,-109.03 169.49,-96.26 148.29,-86.35"/>
<polygon fill="#63b8ff" stroke="#63b8ff" points="149.58,-83.09 139.04,-82.03 146.62,-89.43 149.58,-83.09"/>
</a>
</g>
</g>
<!-- Node8 -->
<g id="Node000008" class="node">
<title>Node8</title>
<g id="a_Node000008"><a xlink:title=" ">
<polygon fill="#e0e0e0" stroke="#999999" points="221.5,-82 171.5,-82 171.5,-59 221.5,-59 221.5,-82"/>
<text text-anchor="middle" x="196.5" y="-66.8" font-family="Arial" font-size="14.00">string</text>
</a>
</g>
</g>
<!-- Node2&#45;&gt;Node8 -->
<g id="edge8_Node000002_Node000008" class="edge">
<title>Node2&#45;&gt;Node8</title>
<g id="a_edge8_Node000002_Node000008"><a xlink:title=" ">
<path fill="none" stroke="#63b8ff" d="M230.6,-117.78C224.91,-110.06 217.08,-99.43 210.36,-90.31"/>
<polygon fill="#63b8ff" stroke="#63b8ff" points="213.11,-88.15 204.36,-82.17 207.48,-92.3 213.11,-88.15"/>
</a>
</g>
</g>
<!-- Node9 -->
<g id="Node000009" class="node">
<title>Node9</title>
<g id="a_Node000009"><a xlink:title=" ">
<polygon fill="#e0e0e0" stroke="#999999" points="323.5,-82 239.5,-82 239.5,-59 323.5,-59 323.5,-82"/>
<text text-anchor="middle" x="281.5" y="-66.8" font-family="Arial" font-size="14.00">string_view</text>
</a>
</g>
</g>
<!-- Node2&#45;&gt;Node9 -->
<g id="edge9_Node000002_Node000009" class="edge">
<title>Node2&#45;&gt;Node9</title>
<g id="a_edge9_Node000002_Node000009"><a xlink:title=" ">
<path fill="none" stroke="#63b8ff" d="M246.59,-117.78C252.41,-110.06 260.43,-99.43 267.31,-90.31"/>
<polygon fill="#63b8ff" stroke="#63b8ff" points="270.22,-92.26 273.45,-82.17 264.63,-88.05 270.22,-92.26"/>
</a>
</g>
</g>
<!-- Node3&#45;&gt;Node4 -->
<g id="edge3_Node000003_Node000004" class="edge">
<title>Node3&#45;&gt;Node4</title>
<g id="a_edge3_Node000003_Node000004"><a xlink:title=" ">
<path fill="none" stroke="#63b8ff" d="M447.08,-58.78C451.73,-51.22 458.08,-40.87 463.6,-31.88"/>
<polygon fill="#63b8ff" stroke="#63b8ff" points="466.7,-33.53 468.95,-23.17 460.73,-29.86 466.7,-33.53"/>
</a>
</g>
</g>
<!-- Node5 -->
<g id="Node000005" class="node">
<title>Node5</title>
<g id="a_Node000005"><a xlink:title=" ">
<polygon fill="#e0e0e0" stroke="#999999" points="429.5,-23 381.5,-23 381.5,0 429.5,0 429.5,-23"/>
<text text-anchor="middle" x="405.5" y="-7.8" font-family="Arial" font-size="14.00">limits</text>
</a>
</g>
</g>
<!-- Node3&#45;&gt;Node5 -->
<g id="edge4_Node000003_Node000005" class="edge">
<title>Node3&#45;&gt;Node5</title>
<g id="a_edge4_Node000003_Node000005"><a xlink:title=" ">
<path fill="none" stroke="#63b8ff" d="M433.92,-58.78C429.27,-51.22 422.92,-40.87 417.4,-31.88"/>
<polygon fill="#63b8ff" stroke="#63b8ff" points="420.27,-29.86 412.05,-23.17 414.3,-33.53 420.27,-29.86"/>
</a>
</g>
</g>
<!-- Node10&#45;&gt;Node3 -->
<g id="edge11_Node000010_Node000003" class="edge">
<title>Node10&#45;&gt;Node3</title>
<g id="a_edge11_Node000010_Node000003"><a xlink:title=" ">
<path fill="none" stroke="#63b8ff" d="M476.22,-117.78C470.26,-110.06 462.06,-99.43 455.02,-90.31"/>
<polygon fill="#63b8ff" stroke="#63b8ff" points="457.62,-87.95 448.74,-82.17 452.08,-92.23 457.62,-87.95"/>
</a>
</g>
</g>
<!-- Node10&#45;&gt;Node4 -->
<g id="edge12_Node000010_Node000004" class="edge">
<title>Node10&#45;&gt;Node4</title>
<g id="a_edge12_Node000010_Node000004"><a xlink:title=" ">
<path fill="none" stroke="#63b8ff" d="M493.33,-117.75C503.37,-104.16 517.53,-80.02 510.5,-59 507.03,-48.62 500.23,-38.69 493.53,-30.7"/>
<polygon fill="#63b8ff" stroke="#63b8ff" points="496.03,-28.24 486.74,-23.13 490.81,-32.91 496.03,-28.24"/>
</a>
</g>
</g>
<!-- Node11 -->
<g id="Node000011" class="node">
<title>Node11</title>
<g id="a_Node000011"><a xlink:title=" ">
<polygon fill="#e0e0e0" stroke="#999999" points="617.5,-82 557.5,-82 557.5,-59 617.5,-59 617.5,-82"/>
<text text-anchor="middle" x="587.5" y="-66.8" font-family="Arial" font-size="14.00">cstddef</text>
</a>
</g>
</g>
<!-- Node10&#45;&gt;Node11 -->
<g id="edge13_Node000010_Node000011" class="edge">
<title>Node10&#45;&gt;Node11</title>
<g id="a_edge13_Node000010_Node000011"><a xlink:title=" ">
<path fill="none" stroke="#63b8ff" d="M503.87,-117.78C519.41,-109.18 541.44,-96.99 558.99,-87.28"/>
<polygon fill="#63b8ff" stroke="#63b8ff" points="561.16,-90.08 568.21,-82.17 557.77,-83.95 561.16,-90.08"/>
</a>
</g>
</g>
</g>
</svg>
