<?xml version="1.0" encoding="UTF-8" standalone="no"?>
<!DOCTYPE svg PUBLIC "-//W3C//DTD SVG 1.1//EN"
 "http://www.w3.org/Graphics/SVG/1.1/DTD/svg11.dtd">
<!-- Generated by graphviz version 2.43.0 (0)
 -->
<!-- Title: src/mcu/stm32/StmNvs.cpp Pages: 1 -->
<svg width="378pt" height="267pt"
 viewBox="0.00 0.00 377.79 267.00" xmlns="http://www.w3.org/2000/svg" xmlns:xlink="http://www.w3.org/1999/xlink">

<svg id="main" version="1.1" xmlns="http://www.w3.org/2000/svg" xmlns:xlink="http://www.w3.org/1999/xlink" xml:space="preserve" onload="init(evt)">
<style type="text/css"><![CDATA[
.node, .edge {opacity: 0.7;}
.node.selected, .edge.selected {opacity: 1;}
.edge:hover path { stroke: red; }
.edge:hover polygon { stroke: red; fill: red; }
]]></style>
<script type="application/ecmascript" xlink:href="svg.min.js"/>
<svg id="graph" class="graph">
<g id="graph0" class="graph" transform="scale(1 1) rotate(0) translate(4 263)">
<title>src/mcu/stm32/StmNvs.cpp</title>
<!-- Node1 -->
<g id="Node000001" class="node">
<title>Node1</title>
<g id="a_Node000001"><a xlink:title="STM32 NVS implementation — flash&#45;backed key&#45;value store.">
<polygon fill="#999999" stroke="#666666" points="369.79,-259 186.79,-259 186.79,-236 369.79,-236 369.79,-259"/>
<text text-anchor="middle" x="278.29" y="-243.8" font-family="Arial" font-size="14.00">src/mcu/stm32/StmNvs.cpp</text>
</a>
</g>
</g>
<!-- Node2 -->
<g id="Node000002" class="node">
<title>Node2</title>
<g id="a_Node000002"><a xlink:href="StmNvs_8h.html" target="_top" xlink:title="STM32 NVS (Non&#45;Volatile Storage) — flash&#45;based key&#45;value store.">
<polygon fill="white" stroke="#666666" points="245.29,-200 169.29,-200 169.29,-177 245.29,-177 245.29,-200"/>
<text text-anchor="middle" x="207.29" y="-184.8" font-family="Arial" font-size="14.00">StmNvs.h</text>
</a>
</g>
</g>
<!-- Node1&#45;&gt;Node2 -->
<g id="edge1_Node000001_Node000002" class="edge">
<title>Node1&#45;&gt;Node2</title>
<g id="a_edge1_Node000001_Node000002"><a xlink:title=" ">
<path fill="none" stroke="#63b8ff" d="M264.93,-235.78C254.72,-227.58 240.43,-216.11 228.64,-206.64"/>
<polygon fill="#63b8ff" stroke="#63b8ff" points="230.57,-203.7 220.58,-200.17 226.19,-209.16 230.57,-203.7"/>
</a>
</g>
</g>
<!-- Node10 -->
<g id="Node000010" class="node">
<title>Node10</title>
<g id="a_Node000010"><a xlink:title=" ">
<polygon fill="#e0e0e0" stroke="#999999" points="312.29,-141 256.29,-141 256.29,-118 312.29,-118 312.29,-141"/>
<text text-anchor="middle" x="284.29" y="-125.8" font-family="Arial" font-size="14.00">cstring</text>
</a>
</g>
</g>
<!-- Node1&#45;&gt;Node10 -->
<g id="edge13_Node000001_Node000010" class="edge">
<title>Node1&#45;&gt;Node10</title>
<g id="a_edge13_Node000001_Node000010"><a xlink:title=" ">
<path fill="none" stroke="#63b8ff" d="M278.84,-235.79C279.83,-216.63 281.93,-176.15 283.21,-151.34"/>
<polygon fill="#63b8ff" stroke="#63b8ff" points="286.71,-151.35 283.73,-141.18 279.72,-150.99 286.71,-151.35"/>
</a>
</g>
</g>
<!-- Node11 -->
<g id="Node000011" class="node">
<title>Node11</title>
<g id="a_Node000011"><a xlink:title=" ">
<polygon fill="#e0e0e0" stroke="#999999" points="358.29,-200 306.29,-200 306.29,-177 358.29,-177 358.29,-200"/>
<text text-anchor="middle" x="332.29" y="-184.8" font-family="Arial" font-size="14.00">cstdio</text>
</a>
</g>
</g>
<!-- Node1&#45;&gt;Node11 -->
<g id="edge14_Node000001_Node000011" class="edge">
<title>Node1&#45;&gt;Node11</title>
<g id="a_edge14_Node000001_Node000011"><a xlink:title=" ">
<path fill="none" stroke="#63b8ff" d="M288.44,-235.78C295.99,-227.82 306.45,-216.77 315.26,-207.47"/>
<polygon fill="#63b8ff" stroke="#63b8ff" points="317.84,-209.84 322.18,-200.17 312.76,-205.03 317.84,-209.84"/>
</a>
</g>
</g>
<!-- Node3 -->
<g id="Node000003" class="node">
<title>Node3</title>
<g id="a_Node000003"><a xlink:href="BaseNvs_8h.html" target="_top" xlink:title="Abstract base class for Non&#45;Volatile Storage implementations in the HardFOC system.">
<polygon fill="white" stroke="#666666" points="238.29,-141 156.29,-141 156.29,-118 238.29,-118 238.29,-141"/>
<text text-anchor="middle" x="197.29" y="-125.8" font-family="Arial" font-size="14.00">BaseNvs.h</text>
</a>
</g>
</g>
<!-- Node2&#45;&gt;Node3 -->
<g id="edge2_Node000002_Node000003" class="edge">
<title>Node2&#45;&gt;Node3</title>
<g id="a_edge2_Node000002_Node000003"><a xlink:title=" ">
<path fill="none" stroke="#63b8ff" d="M205.41,-176.78C204.15,-169.61 202.45,-159.95 200.94,-151.31"/>
<polygon fill="#63b8ff" stroke="#63b8ff" points="204.33,-150.42 199.16,-141.17 197.44,-151.63 204.33,-150.42"/>
</a>
</g>
</g>
<!-- Node8 -->
<g id="Node000008" class="node">
<title>Node8</title>
<g id="a_Node000008"><a xlink:href="StmTypes_8h.html" target="_top" xlink:title="STM32 platform&#45;specific type definitions for hardware abstraction.">
<polygon fill="white" stroke="#666666" points="135.79,-141 46.79,-141 46.79,-118 135.79,-118 135.79,-141"/>
<text text-anchor="middle" x="91.29" y="-125.8" font-family="Arial" font-size="14.00">StmTypes.h</text>
</a>
</g>
</g>
<!-- Node2&#45;&gt;Node8 -->
<g id="edge8_Node000002_Node000008" class="edge">
<title>Node2&#45;&gt;Node8</title>
<g id="a_edge8_Node000002_Node000008"><a xlink:title=" ">
<path fill="none" stroke="#63b8ff" d="M185.74,-176.91C167.75,-168.07 141.9,-155.37 121.79,-145.49"/>
<polygon fill="#63b8ff" stroke="#63b8ff" points="123.24,-142.3 112.72,-141.03 120.15,-148.58 123.24,-142.3"/>
</a>
</g>
</g>
<!-- Node2&#45;&gt;Node10 -->
<g id="edge12_Node000002_Node000010" class="edge">
<title>Node2&#45;&gt;Node10</title>
<g id="a_edge12_Node000002_Node000010"><a xlink:title=" ">
<path fill="none" stroke="#63b8ff" d="M221.77,-176.78C232.95,-168.5 248.64,-156.89 261.51,-147.36"/>
<polygon fill="#63b8ff" stroke="#63b8ff" points="263.91,-149.94 269.87,-141.17 259.75,-144.31 263.91,-149.94"/>
</a>
</g>
</g>
<!-- Node4 -->
<g id="Node000004" class="node">
<title>Node4</title>
<g id="a_Node000004"><a xlink:href="HardwareTypes_8h.html" target="_top" xlink:title="Platform&#45;agnostic hardware type definitions for the HardFOC system.">
<polygon fill="white" stroke="#666666" points="214.29,-82 92.29,-82 92.29,-59 214.29,-59 214.29,-82"/>
<text text-anchor="middle" x="153.29" y="-66.8" font-family="Arial" font-size="14.00">HardwareTypes.h</text>
</a>
</g>
</g>
<!-- Node3&#45;&gt;Node4 -->
<g id="edge3_Node000003_Node000004" class="edge">
<title>Node3&#45;&gt;Node4</title>
<g id="a_edge3_Node000003_Node000004"><a xlink:title=" ">
<path fill="none" stroke="#63b8ff" d="M189.01,-117.78C183.05,-110.06 174.85,-99.43 167.81,-90.31"/>
<polygon fill="#63b8ff" stroke="#63b8ff" points="170.41,-87.95 161.53,-82.17 164.87,-92.23 170.41,-87.95"/>
</a>
</g>
</g>
<!-- Node5 -->
<g id="Node000005" class="node">
<title>Node5</title>
<g id="a_Node000005"><a xlink:title=" ">
<polygon fill="#e0e0e0" stroke="#999999" points="216.29,-23 160.29,-23 160.29,0 216.29,0 216.29,-23"/>
<text text-anchor="middle" x="188.29" y="-7.8" font-family="Arial" font-size="14.00">cstdint</text>
</a>
</g>
</g>
<!-- Node3&#45;&gt;Node5 -->
<g id="edge6_Node000003_Node000005" class="edge">
<title>Node3&#45;&gt;Node5</title>
<g id="a_edge6_Node000003_Node000005"><a xlink:title=" ">
<path fill="none" stroke="#63b8ff" d="M206.12,-117.75C216.16,-104.16 230.31,-80.02 223.29,-59 219.82,-48.62 213.01,-38.69 206.32,-30.7"/>
<polygon fill="#63b8ff" stroke="#63b8ff" points="208.81,-28.24 199.53,-23.13 203.6,-32.91 208.81,-28.24"/>
</a>
</g>
</g>
<!-- Node7 -->
<g id="Node000007" class="node">
<title>Node7</title>
<g id="a_Node000007"><a xlink:title=" ">
<polygon fill="#e0e0e0" stroke="#999999" points="354.29,-82 270.29,-82 270.29,-59 354.29,-59 354.29,-82"/>
<text text-anchor="middle" x="312.29" y="-66.8" font-family="Arial" font-size="14.00">string_view</text>
</a>
</g>
</g>
<!-- Node3&#45;&gt;Node7 -->
<g id="edge7_Node000003_Node000007" class="edge">
<title>Node3&#45;&gt;Node7</title>
<g id="a_edge7_Node000003_Node000007"><a xlink:title=" ">
<path fill="none" stroke="#63b8ff" d="M218.65,-117.91C236.48,-109.07 262.11,-96.37 282.05,-86.49"/>
<polygon fill="#63b8ff" stroke="#63b8ff" points="283.63,-89.61 291.04,-82.03 280.53,-83.34 283.63,-89.61"/>
</a>
</g>
</g>
<!-- Node4&#45;&gt;Node5 -->
<g id="edge4_Node000004_Node000005" class="edge">
<title>Node4&#45;&gt;Node5</title>
<g id="a_edge4_Node000004_Node000005"><a xlink:title=" ">
<path fill="none" stroke="#63b8ff" d="M159.87,-58.78C164.51,-51.22 170.87,-40.87 176.39,-31.88"/>
<polygon fill="#63b8ff" stroke="#63b8ff" points="179.48,-33.53 181.73,-23.17 173.52,-29.86 179.48,-33.53"/>
</a>
</g>
</g>
<!-- Node6 -->
<g id="Node000006" class="node">
<title>Node6</title>
<g id="a_Node000006"><a xlink:title=" ">
<polygon fill="#e0e0e0" stroke="#999999" points="142.29,-23 94.29,-23 94.29,0 142.29,0 142.29,-23"/>
<text text-anchor="middle" x="118.29" y="-7.8" font-family="Arial" font-size="14.00">limits</text>
</a>
</g>
</g>
<!-- Node4&#45;&gt;Node6 -->
<g id="edge5_Node000004_Node000006" class="edge">
<title>Node4&#45;&gt;Node6</title>
<g id="a_edge5_Node000004_Node000006"><a xlink:title=" ">
<path fill="none" stroke="#63b8ff" d="M146.7,-58.78C142.06,-51.22 135.71,-40.87 130.19,-31.88"/>
<polygon fill="#63b8ff" stroke="#63b8ff" points="133.06,-29.86 124.84,-23.17 127.09,-33.53 133.06,-29.86"/>
</a>
</g>
</g>
<!-- Node8&#45;&gt;Node4 -->
<g id="edge9_Node000008_Node000004" class="edge">
<title>Node8&#45;&gt;Node4</title>
<g id="a_edge9_Node000008_Node000004"><a xlink:title=" ">
<path fill="none" stroke="#63b8ff" d="M102.95,-117.78C111.69,-109.74 123.86,-98.55 134.04,-89.19"/>
<polygon fill="#63b8ff" stroke="#63b8ff" points="136.68,-91.52 141.68,-82.17 131.95,-86.36 136.68,-91.52"/>
</a>
</g>
</g>
<!-- Node8&#45;&gt;Node5 -->
<g id="edge10_Node000008_Node000005" class="edge">
<title>Node8&#45;&gt;Node5</title>
<g id="a_edge10_Node000008_Node000005"><a xlink:title=" ">
<path fill="none" stroke="#63b8ff" d="M59.3,-117.96C27.38,-105.73 -14.31,-84.01 5.29,-59 44.57,-8.85 82.92,-37.15 149.93,-23.03"/>
<polygon fill="#63b8ff" stroke="#63b8ff" points="151.12,-26.35 160.03,-20.63 149.49,-19.54 151.12,-26.35"/>
</a>
</g>
</g>
<!-- Node9 -->
<g id="Node000009" class="node">
<title>Node9</title>
<g id="a_Node000009"><a xlink:title=" ">
<polygon fill="#e0e0e0" stroke="#999999" points="74.29,-82 14.29,-82 14.29,-59 74.29,-59 74.29,-82"/>
<text text-anchor="middle" x="44.29" y="-66.8" font-family="Arial" font-size="14.00">cstddef</text>
</a>
</g>
</g>
<!-- Node8&#45;&gt;Node9 -->
<g id="edge11_Node000008_Node000009" class="edge">
<title>Node8&#45;&gt;Node9</title>
<g id="a_edge11_Node000008_Node000009"><a xlink:title=" ">
<path fill="none" stroke="#63b8ff" d="M82.45,-117.78C76.01,-109.98 67.14,-99.21 59.57,-90.03"/>
<polygon fill="#63b8ff" stroke="#63b8ff" points="62.15,-87.66 53.09,-82.17 56.75,-92.12 62.15,-87.66"/>
</a>
</g>
</g>
</g>
</svg>
</svg>

<style type='text/css'>
<![CDATA[
[data-mouse-over-selected='false'] { opacity: 0.7; }
[data-mouse-over-selected='true']  { opacity: 1.0; }
]]>
</style>
<script type="application/ecmascript"><![CDATA[
document.addEventListener('DOMContentLoaded', (event) => {
  highlightEdges();
  highlightAdjacentNodes();
});
]]></script>
</svg>
