<?xml version="1.0" encoding="UTF-8" standalone="no"?>
<!DOCTYPE svg PUBLIC "-//W3C//DTD SVG 1.1//EN"
 "http://www.w3.org/Graphics/SVG/1.1/DTD/svg11.dtd">
<!-- Generated by graphviz version 2.43.0 (0)
 -->
<!-- Title: inc/mcu/stm32/StmPwm.h Pages: 1 -->
<svg width="363pt" height="208pt"
 viewBox="0.00 0.00 362.87 208.00" xmlns="http://www.w3.org/2000/svg" xmlns:xlink="http://www.w3.org/1999/xlink">
<g id="graph0" class="graph" transform="scale(1 1) rotate(0) translate(4 204)">
<title>inc/mcu/stm32/StmPwm.h</title>
<!-- Node1 -->
<g id="Node000001" class="node">
<title>Node1</title>
<g id="a_Node000001"><a xlink:title="STM32 PWM wrapper — wraps TIM_HandleTypeDef for BasePwm interface.">
<polygon fill="#999999" stroke="#666666" points="248.87,-200 72.87,-200 72.87,-177 248.87,-177 248.87,-200"/>
<text text-anchor="middle" x="160.87" y="-184.8" font-family="Arial" font-size="14.00">inc/mcu/stm32/StmPwm.h</text>
</a>
</g>
</g>
<!-- Node2 -->
<g id="Node000002" class="node">
<title>Node2</title>
<g id="a_Node000002"><a xlink:href="BasePwm_8h.html" target="_top" xlink:title="Abstract base class for PWM implementations in the HardFOC system.">
<polygon fill="white" stroke="#666666" points="152.37,-141 63.37,-141 63.37,-118 152.37,-118 152.37,-141"/>
<text text-anchor="middle" x="107.87" y="-125.8" font-family="Arial" font-size="14.00">BasePwm.h</text>
</a>
</g>
</g>
<!-- Node1&#45;&gt;Node2 -->
<g id="edge1_Node000001_Node000002" class="edge">
<title>Node1&#45;&gt;Node2</title>
<g id="a_edge1_Node000001_Node000002"><a xlink:title=" ">
<path fill="none" stroke="#63b8ff" d="M150.9,-176.78C143.58,-168.9 133.44,-157.99 124.84,-148.75"/>
<polygon fill="#63b8ff" stroke="#63b8ff" points="127.17,-146.11 117.8,-141.17 122.04,-150.88 127.17,-146.11"/>
</a>
</g>
</g>
<!-- Node7 -->
<g id="Node000007" class="node">
<title>Node7</title>
<g id="a_Node000007"><a xlink:href="StmTypes_8h.html" target="_top" xlink:title="STM32 platform&#45;specific type definitions for hardware abstraction.">
<polygon fill="white" stroke="#666666" points="266.37,-141 177.37,-141 177.37,-118 266.37,-118 266.37,-141"/>
<text text-anchor="middle" x="221.87" y="-125.8" font-family="Arial" font-size="14.00">StmTypes.h</text>
</a>
</g>
</g>
<!-- Node1&#45;&gt;Node7 -->
<g id="edge7_Node000001_Node000007" class="edge">
<title>Node1&#45;&gt;Node7</title>
<g id="a_edge7_Node000001_Node000007"><a xlink:title=" ">
<path fill="none" stroke="#63b8ff" d="M172.35,-176.78C180.95,-168.74 192.92,-157.55 202.94,-148.19"/>
<polygon fill="#63b8ff" stroke="#63b8ff" points="205.53,-150.56 210.45,-141.17 200.75,-145.44 205.53,-150.56"/>
</a>
</g>
</g>
<!-- Node3 -->
<g id="Node000003" class="node">
<title>Node3</title>
<g id="a_Node000003"><a xlink:href="HardwareTypes_8h.html" target="_top" xlink:title="Platform&#45;agnostic hardware type definitions for the HardFOC system.">
<polygon fill="white" stroke="#666666" points="238.87,-82 116.87,-82 116.87,-59 238.87,-59 238.87,-82"/>
<text text-anchor="middle" x="177.87" y="-66.8" font-family="Arial" font-size="14.00">HardwareTypes.h</text>
</a>
</g>
</g>
<!-- Node2&#45;&gt;Node3 -->
<g id="edge2_Node000002_Node000003" class="edge">
<title>Node2&#45;&gt;Node3</title>
<g id="a_edge2_Node000002_Node000003"><a xlink:title=" ">
<path fill="none" stroke="#63b8ff" d="M121.04,-117.78C131.11,-109.58 145.2,-98.11 156.83,-88.64"/>
<polygon fill="#63b8ff" stroke="#63b8ff" points="159.22,-91.2 164.77,-82.17 154.8,-85.77 159.22,-91.2"/>
</a>
</g>
</g>
<!-- Node4 -->
<g id="Node000004" class="node">
<title>Node4</title>
<g id="a_Node000004"><a xlink:title=" ">
<polygon fill="#e0e0e0" stroke="#999999" points="240.87,-23 184.87,-23 184.87,0 240.87,0 240.87,-23"/>
<text text-anchor="middle" x="212.87" y="-7.8" font-family="Arial" font-size="14.00">cstdint</text>
</a>
</g>
</g>
<!-- Node2&#45;&gt;Node4 -->
<g id="edge5_Node000002_Node000004" class="edge">
<title>Node2&#45;&gt;Node4</title>
<g id="a_edge5_Node000002_Node000004"><a xlink:title=" ">
<path fill="none" stroke="#63b8ff" d="M67.19,-117.96C30.1,-106.38 -15.85,-85.8 5.87,-59 52.5,-1.46 97.09,-38.23 174.53,-22.98"/>
<polygon fill="#63b8ff" stroke="#63b8ff" points="175.64,-26.32 184.64,-20.72 174.12,-19.48 175.64,-26.32"/>
</a>
</g>
</g>
<!-- Node6 -->
<g id="Node000006" class="node">
<title>Node6</title>
<g id="a_Node000006"><a xlink:title=" ">
<polygon fill="#e0e0e0" stroke="#999999" points="98.87,-82 14.87,-82 14.87,-59 98.87,-59 98.87,-82"/>
<text text-anchor="middle" x="56.87" y="-66.8" font-family="Arial" font-size="14.00">string_view</text>
</a>
</g>
</g>
<!-- Node2&#45;&gt;Node6 -->
<g id="edge6_Node000002_Node000006" class="edge">
<title>Node2&#45;&gt;Node6</title>
<g id="a_edge6_Node000002_Node000006"><a xlink:title=" ">
<path fill="none" stroke="#63b8ff" d="M98.28,-117.78C91.23,-109.9 81.47,-98.99 73.2,-89.75"/>
<polygon fill="#63b8ff" stroke="#63b8ff" points="75.7,-87.29 66.42,-82.17 70.48,-91.96 75.7,-87.29"/>
</a>
</g>
</g>
<!-- Node3&#45;&gt;Node4 -->
<g id="edge3_Node000003_Node000004" class="edge">
<title>Node3&#45;&gt;Node4</title>
<g id="a_edge3_Node000003_Node000004"><a xlink:title=" ">
<path fill="none" stroke="#63b8ff" d="M184.46,-58.78C189.1,-51.22 195.45,-40.87 200.97,-31.88"/>
<polygon fill="#63b8ff" stroke="#63b8ff" points="204.07,-33.53 206.32,-23.17 198.1,-29.86 204.07,-33.53"/>
</a>
</g>
</g>
<!-- Node5 -->
<g id="Node000005" class="node">
<title>Node5</title>
<g id="a_Node000005"><a xlink:title=" ">
<polygon fill="#e0e0e0" stroke="#999999" points="166.87,-23 118.87,-23 118.87,0 166.87,0 166.87,-23"/>
<text text-anchor="middle" x="142.87" y="-7.8" font-family="Arial" font-size="14.00">limits</text>
</a>
</g>
</g>
<!-- Node3&#45;&gt;Node5 -->
<g id="edge4_Node000003_Node000005" class="edge">
<title>Node3&#45;&gt;Node5</title>
<g id="a_edge4_Node000003_Node000005"><a xlink:title=" ">
<path fill="none" stroke="#63b8ff" d="M171.29,-58.78C166.65,-51.22 160.29,-40.87 154.77,-31.88"/>
<polygon fill="#63b8ff" stroke="#63b8ff" points="157.64,-29.86 149.43,-23.17 151.68,-33.53 157.64,-29.86"/>
</a>
</g>
</g>
<!-- Node7&#45;&gt;Node3 -->
<g id="edge8_Node000007_Node000003" class="edge">
<title>Node7&#45;&gt;Node3</title>
<g id="a_edge8_Node000007_Node000003"><a xlink:title=" ">
<path fill="none" stroke="#63b8ff" d="M213.6,-117.78C207.64,-110.06 199.44,-99.43 192.4,-90.31"/>
<polygon fill="#63b8ff" stroke="#63b8ff" points="194.99,-87.95 186.11,-82.17 189.45,-92.23 194.99,-87.95"/>
</a>
</g>
</g>
<!-- Node7&#45;&gt;Node4 -->
<g id="edge9_Node000007_Node000004" class="edge">
<title>Node7&#45;&gt;Node4</title>
<g id="a_edge9_Node000007_Node000004"><a xlink:title=" ">
<path fill="none" stroke="#63b8ff" d="M230.7,-117.75C240.75,-104.16 254.9,-80.02 247.87,-59 244.4,-48.62 237.6,-38.69 230.91,-30.7"/>
<polygon fill="#63b8ff" stroke="#63b8ff" points="233.4,-28.24 224.12,-23.13 228.19,-32.91 233.4,-28.24"/>
</a>
</g>
</g>
<!-- Node8 -->
<g id="Node000008" class="node">
<title>Node8</title>
<g id="a_Node000008"><a xlink:title=" ">
<polygon fill="#e0e0e0" stroke="#999999" points="354.87,-82 294.87,-82 294.87,-59 354.87,-59 354.87,-82"/>
<text text-anchor="middle" x="324.87" y="-66.8" font-family="Arial" font-size="14.00">cstddef</text>
</a>
</g>
</g>
<!-- Node7&#45;&gt;Node8 -->
<g id="edge10_Node000007_Node000008" class="edge">
<title>Node7&#45;&gt;Node8</title>
<g id="a_edge10_Node000007_Node000008"><a xlink:title=" ">
<path fill="none" stroke="#63b8ff" d="M241.25,-117.78C256.78,-109.18 278.82,-96.99 296.37,-87.28"/>
<polygon fill="#63b8ff" stroke="#63b8ff" points="298.53,-90.08 305.59,-82.17 295.14,-83.95 298.53,-90.08"/>
</a>
</g>
</g>
</g>
</svg>
