<?xml version="1.0" encoding="UTF-8" standalone="no"?>
<!DOCTYPE svg PUBLIC "-//W3C//DTD SVG 1.1//EN"
 "http://www.w3.org/Graphics/SVG/1.1/DTD/svg11.dtd">
<!-- Generated by graphviz version 2.43.0 (0)
 -->
<!-- Title: StmPeriodicTimer::DispatchEntry Pages: 1 -->
<svg width="473pt" height="194pt"
 viewBox="0.00 0.00 473.00 194.00" xmlns="http://www.w3.org/2000/svg" xmlns:xlink="http://www.w3.org/1999/xlink">

<svg id="main" version="1.1" xmlns="http://www.w3.org/2000/svg" xmlns:xlink="http://www.w3.org/1999/xlink" xml:space="preserve" onload="init(evt)">
<style type="text/css"><![CDATA[
.node, .edge {opacity: 0.7;}
.node.selected, .edge.selected {opacity: 1;}
.edge:hover path { stroke: red; }
.edge:hover polygon { stroke: red; fill: red; }
]]></style>
<script type="application/ecmascript" xlink:href="svg.min.js"/>
<svg id="graph" class="graph">
<g id="graph0" class="graph" transform="scale(1 1) rotate(0) translate(4 190)">
<title>StmPeriodicTimer::DispatchEntry</title>
<!-- Node1 -->
<g id="Node000001" class="node">
<title>Node1</title>
<g id="a_Node000001"><a xlink:title=" ">
<polygon fill="#999999" stroke="#666666" points="185,-112 0,-112 0,-74 185,-74 185,-112"/>
<text text-anchor="start" x="8" y="-96.8" font-family="Arial" font-size="14.00">StmPeriodicTimer::Dispatch</text>
<text text-anchor="middle" x="92.5" y="-81.8" font-family="Arial" font-size="14.00">Entry</text>
</a>
</g>
</g>
<!-- Node2 -->
<g id="Node000002" class="node">
<title>Node2</title>
<g id="a_Node000002"><a xlink:href="classStmPeriodicTimer.html" target="_top" xlink:title="STM32 Periodic Timer implementation.">
<polygon fill="white" stroke="#666666" points="292,-23 167,-23 167,0 292,0 292,-23"/>
<text text-anchor="middle" x="229.5" y="-7.8" font-family="Arial" font-size="14.00">StmPeriodicTimer</text>
</a>
</g>
</g>
<!-- Node1&#45;&gt;Node2 -->
<g id="edge6_Node000002_Node000001" class="edge">
<title>Node1&#45;&gt;Node2</title>
<g id="a_edge6_Node000002_Node000001"><a xlink:title=" ">
<path fill="none" stroke="#9a32cd" stroke-dasharray="5,2" d="M86.16,-63.38C85.97,-55.39 87.45,-47.21 92.5,-41 102.16,-29.13 135.5,-22.04 166.87,-17.9"/>
<polygon fill="#9a32cd" stroke="#9a32cd" points="82.71,-64 87.22,-73.59 89.67,-63.28 82.71,-64"/>
</a>
</g>
<text text-anchor="middle" x="130.5" y="-44.8" font-family="Arial" font-size="14.00" fill="grey"> s_dispatch_</text>
</g>
<!-- Node2&#45;&gt;Node1 -->
<g id="edge1_Node000001_Node000002" class="edge">
<title>Node2&#45;&gt;Node1</title>
<g id="a_edge1_Node000001_Node000002"><a xlink:title=" ">
<path fill="none" stroke="#9a32cd" stroke-dasharray="5,2" d="M207.78,-29.26C192.5,-41.02 174.44,-54.84 172.5,-56 161.51,-62.55 149.12,-68.68 137.43,-73.95"/>
<polygon fill="#9a32cd" stroke="#9a32cd" points="210.07,-31.91 215.86,-23.03 205.8,-26.36 210.07,-31.91"/>
</a>
</g>
<text text-anchor="middle" x="220" y="-44.8" font-family="Arial" font-size="14.00" fill="grey"> instance</text>
</g>
<!-- Node3 -->
<g id="Node000003" class="node">
<title>Node3</title>
<g id="a_Node000003"><a xlink:href="classBasePeriodicTimer.html" target="_top" xlink:title="Abstract base class for periodic timer operations.">
<polygon fill="white" stroke="#666666" points="334,-104.5 203,-104.5 203,-81.5 334,-81.5 334,-104.5"/>
<text text-anchor="middle" x="268.5" y="-89.3" font-family="Arial" font-size="14.00">BasePeriodicTimer</text>
</a>
</g>
</g>
<!-- Node3&#45;&gt;Node2 -->
<g id="edge2_Node000002_Node000003" class="edge">
<title>Node3&#45;&gt;Node2</title>
<g id="a_edge2_Node000002_Node000003"><a xlink:title=" ">
<path fill="none" stroke="#63b8ff" d="M263.39,-71.56C260.58,-61.97 256.6,-50.58 251.5,-41 248.09,-34.6 243.25,-28.15 238.98,-23.01"/>
<polygon fill="#63b8ff" stroke="#63b8ff" points="260.08,-72.7 266.08,-81.42 266.83,-70.85 260.08,-72.7"/>
</a>
</g>
</g>
<!-- Node4 -->
<g id="Node000004" class="node">
<title>Node4</title>
<g id="a_Node000004"><a xlink:href="structhf__timer__statistics__t.html" target="_top" xlink:title="Timer operation statistics.">
<polygon fill="white" stroke="#666666" points="255,-186 118,-186 118,-163 255,-163 255,-186"/>
<text text-anchor="middle" x="186.5" y="-170.8" font-family="Arial" font-size="14.00">hf_timer_statistics_t</text>
</a>
</g>
</g>
<!-- Node4&#45;&gt;Node3 -->
<g id="edge3_Node000003_Node000004" class="edge">
<title>Node4&#45;&gt;Node3</title>
<g id="a_edge3_Node000003_Node000004"><a xlink:title=" ">
<path fill="none" stroke="#9a32cd" stroke-dasharray="5,2" d="M204.89,-155.67C221.1,-139.95 244.17,-117.58 257.62,-104.55"/>
<polygon fill="#9a32cd" stroke="#9a32cd" points="202.3,-153.3 197.56,-162.78 207.17,-158.33 202.3,-153.3"/>
</a>
</g>
<text text-anchor="middle" x="261.5" y="-133.8" font-family="Arial" font-size="14.00" fill="grey"> statistics_</text>
</g>
<!-- Node5 -->
<g id="Node000005" class="node">
<title>Node5</title>
<g id="a_Node000005"><a xlink:href="structhf__timer__diagnostics__t.html" target="_top" xlink:title="Timer diagnostic information.">
<polygon fill="white" stroke="#666666" points="425.5,-186 273.5,-186 273.5,-163 425.5,-163 425.5,-186"/>
<text text-anchor="middle" x="349.5" y="-170.8" font-family="Arial" font-size="14.00">hf_timer_diagnostics_t</text>
</a>
</g>
</g>
<!-- Node5&#45;&gt;Node3 -->
<g id="edge4_Node000003_Node000005" class="edge">
<title>Node5&#45;&gt;Node3</title>
<g id="a_edge4_Node000003_Node000005"><a xlink:title=" ">
<path fill="none" stroke="#9a32cd" stroke-dasharray="5,2" d="M331.33,-155.67C315.32,-139.95 292.53,-117.58 279.25,-104.55"/>
<polygon fill="#9a32cd" stroke="#9a32cd" points="328.99,-158.27 338.58,-162.78 333.89,-153.28 328.99,-158.27"/>
</a>
</g>
<text text-anchor="middle" x="358" y="-133.8" font-family="Arial" font-size="14.00" fill="grey"> diagnostics_</text>
</g>
<!-- Node6 -->
<g id="Node000006" class="node">
<title>Node6</title>
<g id="a_Node000006"><a xlink:href="structhf__timer__stats__t.html" target="_top" xlink:title="Timer statistics structure.">
<polygon fill="white" stroke="#666666" points="465,-104.5 352,-104.5 352,-81.5 465,-81.5 465,-104.5"/>
<text text-anchor="middle" x="408.5" y="-89.3" font-family="Arial" font-size="14.00">hf_timer_stats_t</text>
</a>
</g>
</g>
<!-- Node6&#45;&gt;Node2 -->
<g id="edge5_Node000002_Node000006" class="edge">
<title>Node6&#45;&gt;Node2</title>
<g id="a_edge5_Node000002_Node000006"><a xlink:title=" ">
<path fill="none" stroke="#9a32cd" stroke-dasharray="5,2" d="M375.31,-77.26C339.91,-61.53 284.71,-37.02 253.37,-23.1"/>
<polygon fill="#9a32cd" stroke="#9a32cd" points="374.17,-80.58 384.73,-81.44 377.01,-74.19 374.17,-80.58"/>
</a>
</g>
<text text-anchor="middle" x="343.5" y="-44.8" font-family="Arial" font-size="14.00" fill="grey"> stats_</text>
</g>
</g>
</svg>
</svg>

<style type='text/css'>
<![CDATA[
[data-mouse-over-selected='false'] { opacity: 0.7; }
[data-mouse-over-selected='true']  { opacity: 1.0; }
]]>
</style>
<script type="application/ecmascript"><![CDATA[
document.addEventListener('DOMContentLoaded', (event) => {
  highlightEdges();
  highlightAdjacentNodes();
});
]]></script>
</svg>
