<?xml version="1.0" encoding="UTF-8" standalone="no"?>
<!DOCTYPE svg PUBLIC "-//W3C//DTD SVG 1.1//EN"
 "http://www.w3.org/Graphics/SVG/1.1/DTD/svg11.dtd">
<!-- Generated by graphviz version 2.43.0 (0)
 -->
<!-- Title: examples/esp32/main/TemperatureComprehensiveTest.cpp Pages: 1 -->
<svg width="1557pt" height="415pt"
 viewBox="0.00 0.00 1556.50 415.00" xmlns="http://www.w3.org/2000/svg" xmlns:xlink="http://www.w3.org/1999/xlink">
<g id="graph0" class="graph" transform="scale(1 1) rotate(0) translate(4 411)">
<title>examples/esp32/main/TemperatureComprehensiveTest.cpp</title>
<!-- Node1 -->
<g id="Node000001" class="node">
<title>Node1</title>
<g id="a_Node000001"><a xlink:title="Comprehensive Temperature sensor testing suite for ESP32&#45;C6 DevKit&#45;M&#45;1 (noexcept)">
<polygon fill="#999999" stroke="#666666" points="1203.5,-407 961.5,-407 961.5,-369 1203.5,-369 1203.5,-407"/>
<text text-anchor="start" x="969.5" y="-391.8" font-family="Arial" font-size="14.00">examples/esp32/main</text>
<text text-anchor="middle" x="1082.5" y="-376.8" font-family="Arial" font-size="14.00">/TemperatureComprehensiveTest.cpp</text>
</a>
</g>
</g>
<!-- Node2 -->
<g id="Node000002" class="node">
<title>Node2</title>
<g id="a_Node000002"><a xlink:href="TestFramework_8h.html" target="_top" xlink:title="Shared testing framework for ESP32&#45;C6 comprehensive test suites.">
<polygon fill="white" stroke="#666666" points="804,-333 683,-333 683,-310 804,-310 804,-333"/>
<text text-anchor="middle" x="743.5" y="-317.8" font-family="Arial" font-size="14.00">TestFramework.h</text>
</a>
</g>
</g>
<!-- Node1&#45;&gt;Node2 -->
<g id="edge1_Node000001_Node000002" class="edge">
<title>Node1&#45;&gt;Node2</title>
<g id="a_edge1_Node000001_Node000002"><a xlink:title=" ">
<path fill="none" stroke="#63b8ff" d="M987.62,-368.95C930.69,-358.12 859.74,-344.62 809.02,-334.97"/>
<polygon fill="#63b8ff" stroke="#63b8ff" points="809.64,-331.52 799.16,-333.09 808.33,-338.4 809.64,-331.52"/>
</a>
</g>
</g>
<!-- Node21 -->
<g id="Node000021" class="node">
<title>Node21</title>
<g id="a_Node000021"><a xlink:title=" ">
<polygon fill="#e0e0e0" stroke="#999999" points="1304,-82 1247,-82 1247,-59 1304,-59 1304,-82"/>
<text text-anchor="middle" x="1275.5" y="-66.8" font-family="Arial" font-size="14.00">atomic</text>
</a>
</g>
</g>
<!-- Node1&#45;&gt;Node21 -->
<g id="edge51_Node000001_Node000021" class="edge">
<title>Node1&#45;&gt;Node21</title>
<g id="a_edge51_Node000001_Node000021"><a xlink:title=" ">
<path fill="none" stroke="#63b8ff" d="M1203.6,-370.87C1313.84,-352.69 1459.5,-318.3 1459.5,-263.5 1459.5,-263.5 1459.5,-263.5 1459.5,-202.5 1459.5,-160.95 1450.72,-145.41 1419.5,-118 1390.06,-92.15 1346.05,-80.64 1314.43,-75.53"/>
<polygon fill="#63b8ff" stroke="#63b8ff" points="1314.63,-72.02 1304.23,-74.03 1313.61,-78.95 1314.63,-72.02"/>
</a>
</g>
</g>
<!-- Node23 -->
<g id="Node000023" class="node">
<title>Node23</title>
<g id="a_Node000023"><a xlink:href="BaseTemperature_8h.html" target="_top" xlink:title="Abstract base class for temperature sensor implementations in the HardFOC system.">
<polygon fill="white" stroke="#666666" points="483.5,-148.5 315.5,-148.5 315.5,-125.5 483.5,-125.5 483.5,-148.5"/>
<text text-anchor="middle" x="399.5" y="-133.3" font-family="Arial" font-size="14.00">base/BaseTemperature.h</text>
</a>
</g>
</g>
<!-- Node1&#45;&gt;Node23 -->
<g id="edge29_Node000001_Node000023" class="edge">
<title>Node1&#45;&gt;Node23</title>
<g id="a_edge29_Node000001_Node000023"><a xlink:title=" ">
<path fill="none" stroke="#63b8ff" d="M961.3,-385.43C856.48,-381.55 715.37,-369.44 673.5,-333 624.45,-290.32 681.48,-236.95 634.5,-192 628.15,-185.93 529.07,-164.6 461.61,-150.63"/>
<polygon fill="#63b8ff" stroke="#63b8ff" points="461.98,-147.14 451.48,-148.54 460.57,-153.99 461.98,-147.14"/>
</a>
</g>
</g>
<!-- Node24 -->
<g id="Node000024" class="node">
<title>Node24</title>
<g id="a_Node000024"><a xlink:href="EspTemperature_8h.html" target="_top" xlink:title="ESP32&#45;C6 internal temperature sensor implementation for the HardFOC system.">
<polygon fill="white" stroke="#666666" points="1193.5,-215 995.5,-215 995.5,-192 1193.5,-192 1193.5,-215"/>
<text text-anchor="middle" x="1094.5" y="-199.8" font-family="Arial" font-size="14.00">mcu/esp32/EspTemperature.h</text>
</a>
</g>
</g>
<!-- Node1&#45;&gt;Node24 -->
<g id="edge34_Node000001_Node000024" class="edge">
<title>Node1&#45;&gt;Node24</title>
<g id="a_edge34_Node000001_Node000024"><a xlink:title=" ">
<path fill="none" stroke="#63b8ff" d="M1083.69,-368.83C1085.93,-334.83 1090.74,-261.74 1093.11,-225.61"/>
<polygon fill="#63b8ff" stroke="#63b8ff" points="1096.63,-225.48 1093.79,-215.27 1089.64,-225.02 1096.63,-225.48"/>
</a>
</g>
</g>
<!-- Node3 -->
<g id="Node000003" class="node">
<title>Node3</title>
<g id="a_Node000003"><a xlink:title=" ">
<polygon fill="#e0e0e0" stroke="#999999" points="834,-148.5 759,-148.5 759,-125.5 834,-125.5 834,-148.5"/>
<text text-anchor="middle" x="796.5" y="-133.3" font-family="Arial" font-size="14.00">esp_log.h</text>
</a>
</g>
</g>
<!-- Node2&#45;&gt;Node3 -->
<g id="edge2_Node000002_Node000003" class="edge">
<title>Node2&#45;&gt;Node3</title>
<g id="a_edge2_Node000002_Node000003"><a xlink:title=" ">
<path fill="none" stroke="#63b8ff" d="M746.58,-309.9C755.14,-280.42 779.34,-197.07 790.6,-158.3"/>
<polygon fill="#63b8ff" stroke="#63b8ff" points="793.99,-159.21 793.41,-148.63 787.26,-157.26 793.99,-159.21"/>
</a>
</g>
</g>
<!-- Node4 -->
<g id="Node000004" class="node">
<title>Node4</title>
<g id="a_Node000004"><a xlink:title=" ">
<polygon fill="#e0e0e0" stroke="#999999" points="939,-148.5 852,-148.5 852,-125.5 939,-125.5 939,-148.5"/>
<text text-anchor="middle" x="895.5" y="-133.3" font-family="Arial" font-size="14.00">esp_timer.h</text>
</a>
</g>
</g>
<!-- Node2&#45;&gt;Node4 -->
<g id="edge3_Node000002_Node000004" class="edge">
<title>Node2&#45;&gt;Node4</title>
<g id="a_edge3_Node000002_Node000004"><a xlink:title=" ">
<path fill="none" stroke="#63b8ff" d="M752.5,-309.8C760.41,-300.38 772.24,-286.29 782.5,-274 817.5,-232.08 858.42,-182.75 880.13,-156.55"/>
<polygon fill="#63b8ff" stroke="#63b8ff" points="883.04,-158.53 886.73,-148.59 877.65,-154.06 883.04,-158.53"/>
</a>
</g>
</g>
<!-- Node5 -->
<g id="Node000005" class="node">
<title>Node5</title>
<g id="a_Node000005"><a xlink:title=" ">
<polygon fill="#e0e0e0" stroke="#999999" points="1066,-82 923,-82 923,-59 1066,-59 1066,-82"/>
<text text-anchor="middle" x="994.5" y="-66.8" font-family="Arial" font-size="14.00">freertos/FreeRTOS.h</text>
</a>
</g>
</g>
<!-- Node2&#45;&gt;Node5 -->
<g id="edge4_Node000002_Node000005" class="edge">
<title>Node2&#45;&gt;Node5</title>
<g id="a_edge4_Node000002_Node000005"><a xlink:title=" ">
<path fill="none" stroke="#63b8ff" d="M742.15,-309.85C737.64,-272.35 724.73,-147.03 749.5,-118 760.26,-105.39 845.82,-91.23 912.83,-81.88"/>
<polygon fill="#63b8ff" stroke="#63b8ff" points="913.57,-85.31 923,-80.48 912.61,-78.38 913.57,-85.31"/>
</a>
</g>
</g>
<!-- Node6 -->
<g id="Node000006" class="node">
<title>Node6</title>
<g id="a_Node000006"><a xlink:title=" ">
<polygon fill="#e0e0e0" stroke="#999999" points="115,-274 0,-274 0,-251 115,-251 115,-274"/>
<text text-anchor="middle" x="57.5" y="-258.8" font-family="Arial" font-size="14.00">freertos/queue.h</text>
</a>
</g>
</g>
<!-- Node2&#45;&gt;Node6 -->
<g id="edge5_Node000002_Node000006" class="edge">
<title>Node2&#45;&gt;Node6</title>
<g id="a_edge5_Node000002_Node000006"><a xlink:title=" ">
<path fill="none" stroke="#63b8ff" d="M682.8,-317.3C572.45,-311.17 331.65,-296.37 129.5,-274 128.19,-273.86 126.87,-273.71 125.55,-273.55"/>
<polygon fill="#63b8ff" stroke="#63b8ff" points="125.58,-270.03 115.22,-272.28 124.72,-276.97 125.58,-270.03"/>
</a>
</g>
</g>
<!-- Node7 -->
<g id="Node000007" class="node">
<title>Node7</title>
<g id="a_Node000007"><a xlink:title=" ">
<polygon fill="#e0e0e0" stroke="#999999" points="884.5,-82 762.5,-82 762.5,-59 884.5,-59 884.5,-82"/>
<text text-anchor="middle" x="823.5" y="-66.8" font-family="Arial" font-size="14.00">freertos/semphr.h</text>
</a>
</g>
</g>
<!-- Node2&#45;&gt;Node7 -->
<g id="edge6_Node000002_Node000007" class="edge">
<title>Node2&#45;&gt;Node7</title>
<g id="a_edge6_Node000002_Node000007"><a xlink:title=" ">
<path fill="none" stroke="#63b8ff" d="M737.49,-309.73C720.41,-277.57 675.46,-180.58 716.5,-118 726.53,-102.71 742.79,-92.42 759.64,-85.51"/>
<polygon fill="#63b8ff" stroke="#63b8ff" points="760.89,-88.78 769.03,-82 758.44,-82.22 760.89,-88.78"/>
</a>
</g>
</g>
<!-- Node8 -->
<g id="Node000008" class="node">
<title>Node8</title>
<g id="a_Node000008"><a xlink:title=" ">
<polygon fill="#e0e0e0" stroke="#999999" points="1548.5,-82 1446.5,-82 1446.5,-59 1548.5,-59 1548.5,-82"/>
<text text-anchor="middle" x="1497.5" y="-66.8" font-family="Arial" font-size="14.00">freertos/task.h</text>
</a>
</g>
</g>
<!-- Node2&#45;&gt;Node8 -->
<g id="edge7_Node000002_Node000008" class="edge">
<title>Node2&#45;&gt;Node8</title>
<g id="a_edge7_Node000002_Node000008"><a xlink:title=" ">
<path fill="none" stroke="#63b8ff" d="M804.16,-313.29C957.29,-294.06 1354.55,-237.38 1456.5,-156 1476.71,-139.86 1487.62,-111.28 1492.99,-91.87"/>
<polygon fill="#63b8ff" stroke="#63b8ff" points="1496.39,-92.72 1495.43,-82.17 1489.6,-91.02 1496.39,-92.72"/>
</a>
</g>
</g>
<!-- Node9 -->
<g id="Node000009" class="node">
<title>Node9</title>
<g id="a_Node000009"><a xlink:href="HardwareTypes_8h.html" target="_top" xlink:title="Platform&#45;agnostic hardware type definitions for the HardFOC system.">
<polygon fill="white" stroke="#666666" points="246.5,-82 124.5,-82 124.5,-59 246.5,-59 246.5,-82"/>
<text text-anchor="middle" x="185.5" y="-66.8" font-family="Arial" font-size="14.00">HardwareTypes.h</text>
</a>
</g>
</g>
<!-- Node2&#45;&gt;Node9 -->
<g id="edge8_Node000002_Node000009" class="edge">
<title>Node2&#45;&gt;Node9</title>
<g id="a_edge8_Node000002_Node000009"><a xlink:title=" ">
<path fill="none" stroke="#63b8ff" d="M682.98,-317.45C555.42,-309.69 265.39,-284.65 200.5,-215 169.48,-181.7 174.93,-123.39 180.72,-92.34"/>
<polygon fill="#63b8ff" stroke="#63b8ff" points="184.21,-92.73 182.79,-82.23 177.35,-91.32 184.21,-92.73"/>
</a>
</g>
</g>
<!-- Node12 -->
<g id="Node000012" class="node">
<title>Node12</title>
<g id="a_Node000012"><a xlink:href="EspGpio_8h.html" target="_top" xlink:title="Advanced MCU&#45;specific implementation of the unified BaseGpio class with ESP32C6/ESP&#45;IDF v5....">
<polygon fill="white" stroke="#666666" points="522,-274 371,-274 371,-251 522,-251 522,-274"/>
<text text-anchor="middle" x="446.5" y="-258.8" font-family="Arial" font-size="14.00">mcu/esp32/EspGpio.h</text>
</a>
</g>
</g>
<!-- Node2&#45;&gt;Node12 -->
<g id="edge11_Node000002_Node000012" class="edge">
<title>Node2&#45;&gt;Node12</title>
<g id="a_edge11_Node000002_Node000012"><a xlink:title=" ">
<path fill="none" stroke="#63b8ff" d="M688.68,-309.98C638.53,-300.35 564.28,-286.1 511.23,-275.92"/>
<polygon fill="#63b8ff" stroke="#63b8ff" points="511.73,-272.46 501.25,-274.01 510.41,-279.33 511.73,-272.46"/>
</a>
</g>
</g>
<!-- Node10 -->
<g id="Node000010" class="node">
<title>Node10</title>
<g id="a_Node000010"><a xlink:title=" ">
<polygon fill="#e0e0e0" stroke="#999999" points="442.5,-23 386.5,-23 386.5,0 442.5,0 442.5,-23"/>
<text text-anchor="middle" x="414.5" y="-7.8" font-family="Arial" font-size="14.00">cstdint</text>
</a>
</g>
</g>
<!-- Node9&#45;&gt;Node10 -->
<g id="edge9_Node000009_Node000010" class="edge">
<title>Node9&#45;&gt;Node10</title>
<g id="a_edge9_Node000009_Node000010"><a xlink:title=" ">
<path fill="none" stroke="#63b8ff" d="M227.77,-58.98C270.3,-48.39 335.31,-32.21 376.32,-22"/>
<polygon fill="#63b8ff" stroke="#63b8ff" points="377.35,-25.35 386.21,-19.54 375.66,-18.56 377.35,-25.35"/>
</a>
</g>
</g>
<!-- Node11 -->
<g id="Node000011" class="node">
<title>Node11</title>
<g id="a_Node000011"><a xlink:title=" ">
<polygon fill="#e0e0e0" stroke="#999999" points="209.5,-23 161.5,-23 161.5,0 209.5,0 209.5,-23"/>
<text text-anchor="middle" x="185.5" y="-7.8" font-family="Arial" font-size="14.00">limits</text>
</a>
</g>
</g>
<!-- Node9&#45;&gt;Node11 -->
<g id="edge10_Node000009_Node000011" class="edge">
<title>Node9&#45;&gt;Node11</title>
<g id="a_edge10_Node000009_Node000011"><a xlink:title=" ">
<path fill="none" stroke="#63b8ff" d="M185.5,-58.78C185.5,-51.61 185.5,-41.95 185.5,-33.31"/>
<polygon fill="#63b8ff" stroke="#63b8ff" points="189,-33.17 185.5,-23.17 182,-33.17 189,-33.17"/>
</a>
</g>
</g>
<!-- Node13 -->
<g id="Node000013" class="node">
<title>Node13</title>
<g id="a_Node000013"><a xlink:title=" ">
<polygon fill="#e0e0e0" stroke="#999999" points="626,-215 535,-215 535,-192 626,-192 626,-215"/>
<text text-anchor="middle" x="580.5" y="-199.8" font-family="Arial" font-size="14.00">driver/gpio.h</text>
</a>
</g>
</g>
<!-- Node12&#45;&gt;Node13 -->
<g id="edge12_Node000012_Node000013" class="edge">
<title>Node12&#45;&gt;Node13</title>
<g id="a_edge12_Node000012_Node000013"><a xlink:title=" ">
<path fill="none" stroke="#63b8ff" d="M471.39,-250.91C492.54,-241.91 523.12,-228.91 546.52,-218.95"/>
<polygon fill="#63b8ff" stroke="#63b8ff" points="547.91,-222.17 555.74,-215.03 545.17,-215.72 547.91,-222.17"/>
</a>
</g>
</g>
<!-- Node14 -->
<g id="Node000014" class="node">
<title>Node14</title>
<g id="a_Node000014"><a xlink:title=" ">
<polygon fill="#e0e0e0" stroke="#999999" points="442.5,-215 366.5,-215 366.5,-192 442.5,-192 442.5,-215"/>
<text text-anchor="middle" x="404.5" y="-199.8" font-family="Arial" font-size="14.00">esp_attr.h</text>
</a>
</g>
</g>
<!-- Node12&#45;&gt;Node14 -->
<g id="edge13_Node000012_Node000014" class="edge">
<title>Node12&#45;&gt;Node14</title>
<g id="a_edge13_Node000012_Node000014"><a xlink:title=" ">
<path fill="none" stroke="#63b8ff" d="M438.6,-250.78C432.91,-243.06 425.08,-232.43 418.36,-223.31"/>
<polygon fill="#63b8ff" stroke="#63b8ff" points="421.11,-221.15 412.36,-215.17 415.48,-225.3 421.11,-221.15"/>
</a>
</g>
</g>
<!-- Node15 -->
<g id="Node000015" class="node">
<title>Node15</title>
<g id="a_Node000015"><a xlink:href="BaseGpio_8h.html" target="_top" xlink:title="Unified GPIO base class for all digital GPIO implementations.">
<polygon fill="white" stroke="#666666" points="297.5,-148.5 209.5,-148.5 209.5,-125.5 297.5,-125.5 297.5,-148.5"/>
<text text-anchor="middle" x="253.5" y="-133.3" font-family="Arial" font-size="14.00">BaseGpio.h</text>
</a>
</g>
</g>
<!-- Node12&#45;&gt;Node15 -->
<g id="edge14_Node000012_Node000015" class="edge">
<title>Node12&#45;&gt;Node15</title>
<g id="a_edge14_Node000012_Node000015"><a xlink:title=" ">
<path fill="none" stroke="#63b8ff" d="M370.96,-256.9C309.5,-251.39 229.75,-239.61 209.5,-215 194.23,-196.44 213.94,-171.89 231.65,-155.55"/>
<polygon fill="#63b8ff" stroke="#63b8ff" points="234.29,-157.89 239.51,-148.67 229.68,-152.62 234.29,-157.89"/>
</a>
</g>
</g>
<!-- Node18 -->
<g id="Node000018" class="node">
<title>Node18</title>
<g id="a_Node000018"><a xlink:href="EspTypes__GPIO_8h.html" target="_top" xlink:title="ESP32 GPIO type definitions for hardware abstraction.">
<polygon fill="white" stroke="#666666" points="348.5,-215 218.5,-215 218.5,-192 348.5,-192 348.5,-215"/>
<text text-anchor="middle" x="283.5" y="-199.8" font-family="Arial" font-size="14.00">EspTypes_GPIO.h</text>
</a>
</g>
</g>
<!-- Node12&#45;&gt;Node18 -->
<g id="edge19_Node000012_Node000018" class="edge">
<title>Node12&#45;&gt;Node18</title>
<g id="a_edge19_Node000012_Node000018"><a xlink:title=" ">
<path fill="none" stroke="#63b8ff" d="M416.22,-250.91C390.03,-241.75 351.98,-228.45 323.32,-218.43"/>
<polygon fill="#63b8ff" stroke="#63b8ff" points="324.21,-215.03 313.61,-215.03 321.9,-221.64 324.21,-215.03"/>
</a>
</g>
</g>
<!-- Node22 -->
<g id="Node000022" class="node">
<title>Node22</title>
<g id="a_Node000022"><a xlink:title=" ">
<polygon fill="#e0e0e0" stroke="#999999" points="516.5,-215 460.5,-215 460.5,-192 516.5,-192 516.5,-215"/>
<text text-anchor="middle" x="488.5" y="-199.8" font-family="Arial" font-size="14.00">stdio.h</text>
</a>
</g>
</g>
<!-- Node12&#45;&gt;Node22 -->
<g id="edge28_Node000012_Node000022" class="edge">
<title>Node12&#45;&gt;Node22</title>
<g id="a_edge28_Node000012_Node000022"><a xlink:title=" ">
<path fill="none" stroke="#63b8ff" d="M454.4,-250.78C460.09,-243.06 467.92,-232.43 474.64,-223.31"/>
<polygon fill="#63b8ff" stroke="#63b8ff" points="477.52,-225.3 480.64,-215.17 471.89,-221.15 477.52,-225.3"/>
</a>
</g>
</g>
<!-- Node15&#45;&gt;Node9 -->
<g id="edge15_Node000015_Node000009" class="edge">
<title>Node15&#45;&gt;Node9</title>
<g id="a_edge15_Node000015_Node000009"><a xlink:title=" ">
<path fill="none" stroke="#63b8ff" d="M242.27,-125.35C232,-115.6 216.59,-100.99 204.42,-89.44"/>
<polygon fill="#63b8ff" stroke="#63b8ff" points="206.64,-86.72 196.97,-82.38 201.82,-91.8 206.64,-86.72"/>
</a>
</g>
</g>
<!-- Node15&#45;&gt;Node10 -->
<g id="edge16_Node000015_Node000010" class="edge">
<title>Node15&#45;&gt;Node10</title>
<g id="a_edge16_Node000015_Node000010"><a xlink:title=" ">
<path fill="none" stroke="#63b8ff" d="M256.39,-125.27C261.34,-108.82 272.94,-77.37 293.5,-59 316.83,-38.15 350.51,-26.23 376.42,-19.69"/>
<polygon fill="#63b8ff" stroke="#63b8ff" points="377.35,-23.07 386.28,-17.36 375.75,-16.26 377.35,-23.07"/>
</a>
</g>
</g>
<!-- Node16 -->
<g id="Node000016" class="node">
<title>Node16</title>
<g id="a_Node000016"><a xlink:title=" ">
<polygon fill="#e0e0e0" stroke="#999999" points="516.5,-82 442.5,-82 442.5,-59 516.5,-59 516.5,-82"/>
<text text-anchor="middle" x="479.5" y="-66.8" font-family="Arial" font-size="14.00">functional</text>
</a>
</g>
</g>
<!-- Node15&#45;&gt;Node16 -->
<g id="edge17_Node000015_Node000016" class="edge">
<title>Node15&#45;&gt;Node16</title>
<g id="a_edge17_Node000015_Node000016"><a xlink:title=" ">
<path fill="none" stroke="#63b8ff" d="M283.38,-125.47C290.9,-122.93 298.97,-120.29 306.5,-118 348.75,-105.16 397.35,-92.26 432.26,-83.32"/>
<polygon fill="#63b8ff" stroke="#63b8ff" points="433.36,-86.65 442.18,-80.79 431.63,-79.87 433.36,-86.65"/>
</a>
</g>
</g>
<!-- Node17 -->
<g id="Node000017" class="node">
<title>Node17</title>
<g id="a_Node000017"><a xlink:title=" ">
<polygon fill="#e0e0e0" stroke="#999999" points="386.5,-82 302.5,-82 302.5,-59 386.5,-59 386.5,-82"/>
<text text-anchor="middle" x="344.5" y="-66.8" font-family="Arial" font-size="14.00">string_view</text>
</a>
</g>
</g>
<!-- Node15&#45;&gt;Node17 -->
<g id="edge18_Node000015_Node000017" class="edge">
<title>Node15&#45;&gt;Node17</title>
<g id="a_edge18_Node000015_Node000017"><a xlink:title=" ">
<path fill="none" stroke="#63b8ff" d="M268.53,-125.35C282.75,-115.27 304.34,-99.97 320.87,-88.25"/>
<polygon fill="#63b8ff" stroke="#63b8ff" points="323.32,-90.8 329.45,-82.17 319.27,-85.09 323.32,-90.8"/>
</a>
</g>
</g>
<!-- Node18&#45;&gt;Node9 -->
<g id="edge26_Node000018_Node000009" class="edge">
<title>Node18&#45;&gt;Node9</title>
<g id="a_edge26_Node000018_Node000009"><a xlink:title=" ">
<path fill="none" stroke="#63b8ff" d="M250.35,-191.83C232.85,-184.49 212.56,-172.96 200.5,-156 187.28,-137.39 184.51,-110.79 184.42,-92.43"/>
<polygon fill="#63b8ff" stroke="#63b8ff" points="187.92,-92.28 184.64,-82.21 180.92,-92.13 187.92,-92.28"/>
</a>
</g>
</g>
<!-- Node18&#45;&gt;Node15 -->
<g id="edge20_Node000018_Node000015" class="edge">
<title>Node18&#45;&gt;Node15</title>
<g id="a_edge20_Node000018_Node000015"><a xlink:title=" ">
<path fill="none" stroke="#63b8ff" d="M278.55,-191.85C274.27,-182.66 267.99,-169.14 262.78,-157.95"/>
<polygon fill="#63b8ff" stroke="#63b8ff" points="265.95,-156.47 258.56,-148.88 259.61,-159.43 265.95,-156.47"/>
</a>
</g>
</g>
<!-- Node19 -->
<g id="Node000019" class="node">
<title>Node19</title>
<g id="a_Node000019"><a xlink:href="EspTypes__Base_8h.html" target="_top" xlink:title="ESP32 base type definitions for hardware abstraction.">
<polygon fill="white" stroke="#666666" points="626,-148.5 501,-148.5 501,-125.5 626,-125.5 626,-148.5"/>
<text text-anchor="middle" x="563.5" y="-133.3" font-family="Arial" font-size="14.00">EspTypes_Base.h</text>
</a>
</g>
</g>
<!-- Node18&#45;&gt;Node19 -->
<g id="edge21_Node000018_Node000019" class="edge">
<title>Node18&#45;&gt;Node19</title>
<g id="a_edge21_Node000018_Node000019"><a xlink:title=" ">
<path fill="none" stroke="#63b8ff" d="M333,-191.92C375.41,-182.74 438.08,-168.95 492.5,-156 499.07,-154.44 505.96,-152.75 512.77,-151.05"/>
<polygon fill="#63b8ff" stroke="#63b8ff" points="513.78,-154.41 522.63,-148.58 512.08,-147.62 513.78,-154.41"/>
</a>
</g>
</g>
<!-- Node20 -->
<g id="Node000020" class="node">
<title>Node20</title>
<g id="a_Node000020"><a xlink:href="McuSelect_8h.html" target="_top" xlink:title="Centralized MCU platform selection and configuration header.">
<polygon fill="white" stroke="#666666" points="725.5,-82 583.5,-82 583.5,-59 725.5,-59 725.5,-82"/>
<text text-anchor="middle" x="654.5" y="-66.8" font-family="Arial" font-size="14.00">../../utils/McuSelect.h</text>
</a>
</g>
</g>
<!-- Node18&#45;&gt;Node20 -->
<g id="edge27_Node000018_Node000020" class="edge">
<title>Node18&#45;&gt;Node20</title>
<g id="a_edge27_Node000018_Node000020"><a xlink:title=" ">
<path fill="none" stroke="#63b8ff" d="M348.86,-193.18C351.78,-192.78 354.67,-192.38 357.5,-192 419.01,-183.64 588.4,-197.57 634.5,-156 652.09,-140.13 655.62,-111.9 655.73,-92.47"/>
<polygon fill="#63b8ff" stroke="#63b8ff" points="659.22,-92.11 655.47,-82.2 652.22,-92.29 659.22,-92.11"/>
</a>
</g>
</g>
<!-- Node19&#45;&gt;Node9 -->
<g id="edge23_Node000019_Node000009" class="edge">
<title>Node19&#45;&gt;Node9</title>
<g id="a_edge23_Node000019_Node000009"><a xlink:title=" ">
<path fill="none" stroke="#63b8ff" d="M524.6,-125.41C514.21,-122.78 502.97,-120.11 492.5,-118 412.29,-101.8 319.26,-88.46 256.82,-80.29"/>
<polygon fill="#63b8ff" stroke="#63b8ff" points="257.05,-76.79 246.68,-78.97 256.14,-83.73 257.05,-76.79"/>
</a>
</g>
</g>
<!-- Node19&#45;&gt;Node10 -->
<g id="edge25_Node000019_Node000010" class="edge">
<title>Node19&#45;&gt;Node10</title>
<g id="a_edge25_Node000019_Node000010"><a xlink:title=" ">
<path fill="none" stroke="#63b8ff" d="M560.84,-125.35C556.25,-109 545.38,-77.69 525.5,-59 505.21,-39.93 475.96,-28.11 452.58,-21.16"/>
<polygon fill="#63b8ff" stroke="#63b8ff" points="453.21,-17.7 442.64,-18.39 451.33,-24.45 453.21,-17.7"/>
</a>
</g>
</g>
<!-- Node19&#45;&gt;Node20 -->
<g id="edge22_Node000019_Node000020" class="edge">
<title>Node19&#45;&gt;Node20</title>
<g id="a_edge22_Node000019_Node000020"><a xlink:title=" ">
<path fill="none" stroke="#63b8ff" d="M578.53,-125.35C592.75,-115.27 614.34,-99.97 630.87,-88.25"/>
<polygon fill="#63b8ff" stroke="#63b8ff" points="633.32,-90.8 639.45,-82.17 629.27,-85.09 633.32,-90.8"/>
</a>
</g>
</g>
<!-- Node19&#45;&gt;Node21 -->
<g id="edge24_Node000019_Node000021" class="edge">
<title>Node19&#45;&gt;Node21</title>
<g id="a_edge24_Node000019_Node000021"><a xlink:title=" ">
<path fill="none" stroke="#63b8ff" d="M626.34,-129.79C662.38,-126.26 708.47,-121.8 749.5,-118 931.77,-101.12 1149.7,-82.29 1236.78,-74.81"/>
<polygon fill="#63b8ff" stroke="#63b8ff" points="1237.32,-78.28 1246.98,-73.94 1236.72,-71.3 1237.32,-78.28"/>
</a>
</g>
</g>
<!-- Node23&#45;&gt;Node9 -->
<g id="edge30_Node000023_Node000009" class="edge">
<title>Node23&#45;&gt;Node9</title>
<g id="a_edge30_Node000023_Node000009"><a xlink:title=" ">
<path fill="none" stroke="#63b8ff" d="M364.64,-125.49C327.96,-114.44 270.09,-97 230.1,-84.94"/>
<polygon fill="#63b8ff" stroke="#63b8ff" points="230.93,-81.54 220.34,-82 228.91,-88.24 230.93,-81.54"/>
</a>
</g>
</g>
<!-- Node23&#45;&gt;Node10 -->
<g id="edge31_Node000023_Node000010" class="edge">
<title>Node23&#45;&gt;Node10</title>
<g id="a_edge31_Node000023_Node000010"><a xlink:title=" ">
<path fill="none" stroke="#63b8ff" d="M400.78,-125.47C403.26,-105.05 408.76,-59.76 411.99,-33.14"/>
<polygon fill="#63b8ff" stroke="#63b8ff" points="415.49,-33.35 413.22,-23 408.54,-32.51 415.49,-33.35"/>
</a>
</g>
</g>
<!-- Node23&#45;&gt;Node16 -->
<g id="edge32_Node000023_Node000016" class="edge">
<title>Node23&#45;&gt;Node16</title>
<g id="a_edge32_Node000023_Node000016"><a xlink:title=" ">
<path fill="none" stroke="#63b8ff" d="M412.71,-125.35C425.1,-115.36 443.84,-100.25 458.32,-88.58"/>
<polygon fill="#63b8ff" stroke="#63b8ff" points="460.68,-91.17 466.27,-82.17 456.29,-85.72 460.68,-91.17"/>
</a>
</g>
</g>
<!-- Node23&#45;&gt;Node17 -->
<g id="edge33_Node000023_Node000017" class="edge">
<title>Node23&#45;&gt;Node17</title>
<g id="a_edge33_Node000023_Node000017"><a xlink:title=" ">
<path fill="none" stroke="#63b8ff" d="M390.42,-125.35C382.27,-115.79 370.12,-101.55 360.37,-90.11"/>
<polygon fill="#63b8ff" stroke="#63b8ff" points="362.93,-87.72 353.78,-82.38 357.6,-92.26 362.93,-87.72"/>
</a>
</g>
</g>
<!-- Node24&#45;&gt;Node3 -->
<g id="edge45_Node000024_Node000003" class="edge">
<title>Node24&#45;&gt;Node3</title>
<g id="a_edge45_Node000024_Node000003"><a xlink:title=" ">
<path fill="none" stroke="#63b8ff" d="M1016.13,-191.98C965.94,-184.27 899.72,-172.31 842.5,-156 838.62,-154.89 834.62,-153.59 830.66,-152.19"/>
<polygon fill="#63b8ff" stroke="#63b8ff" points="831.62,-148.81 821.03,-148.6 829.18,-155.37 831.62,-148.81"/>
</a>
</g>
</g>
<!-- Node24&#45;&gt;Node4 -->
<g id="edge46_Node000024_Node000004" class="edge">
<title>Node24&#45;&gt;Node4</title>
<g id="a_edge46_Node000024_Node000004"><a xlink:title=" ">
<path fill="none" stroke="#63b8ff" d="M1062.08,-191.99C1028.11,-180.98 974.62,-163.64 937.45,-151.6"/>
<polygon fill="#63b8ff" stroke="#63b8ff" points="938.49,-148.26 927.9,-148.5 936.34,-154.91 938.49,-148.26"/>
</a>
</g>
</g>
<!-- Node24&#45;&gt;Node5 -->
<g id="edge47_Node000024_Node000005" class="edge">
<title>Node24&#45;&gt;Node5</title>
<g id="a_edge47_Node000024_Node000005"><a xlink:title=" ">
<path fill="none" stroke="#63b8ff" d="M1071.16,-191.91C1055.98,-183.97 1036.8,-171.76 1024.5,-156 1009.76,-137.11 1001.9,-110.39 997.97,-92.08"/>
<polygon fill="#63b8ff" stroke="#63b8ff" points="1001.39,-91.31 996.05,-82.16 994.52,-92.64 1001.39,-91.31"/>
</a>
</g>
</g>
<!-- Node24&#45;&gt;Node8 -->
<g id="edge48_Node000024_Node000008" class="edge">
<title>Node24&#45;&gt;Node8</title>
<g id="a_edge48_Node000024_Node000008"><a xlink:title=" ">
<path fill="none" stroke="#63b8ff" d="M1193.65,-195.62C1274.47,-188.68 1381.28,-176.08 1419.5,-156 1448.34,-140.85 1472.1,-110.69 1485.54,-90.8"/>
<polygon fill="#63b8ff" stroke="#63b8ff" points="1488.6,-92.52 1491.13,-82.23 1482.74,-88.69 1488.6,-92.52"/>
</a>
</g>
</g>
<!-- Node24&#45;&gt;Node16 -->
<g id="edge50_Node000024_Node000016" class="edge">
<title>Node24&#45;&gt;Node16</title>
<g id="a_edge50_Node000024_Node000016"><a xlink:title=" ">
<path fill="none" stroke="#63b8ff" d="M1071.35,-191.88C1052.46,-182.96 1025.27,-169.53 1002.5,-156 976.96,-140.82 975.41,-128.2 947.5,-118 791.07,-60.83 740.16,-99.15 574.5,-82 559.08,-80.4 542.26,-78.57 527.11,-76.89"/>
<polygon fill="#63b8ff" stroke="#63b8ff" points="527.26,-73.39 516.94,-75.76 526.49,-80.35 527.26,-73.39"/>
</a>
</g>
</g>
<!-- Node24&#45;&gt;Node21 -->
<g id="edge49_Node000024_Node000021" class="edge">
<title>Node24&#45;&gt;Node21</title>
<g id="a_edge49_Node000024_Node000021"><a xlink:title=" ">
<path fill="none" stroke="#63b8ff" d="M1193.68,-201.02C1272.92,-197.49 1374.96,-186.86 1401.5,-156 1412.51,-143.19 1411.16,-131.86 1401.5,-118 1381.94,-89.94 1343.42,-78.77 1314.1,-74.34"/>
<polygon fill="#63b8ff" stroke="#63b8ff" points="1314.52,-70.87 1304.15,-73.04 1313.61,-77.81 1314.52,-70.87"/>
</a>
</g>
</g>
<!-- Node24&#45;&gt;Node23 -->
<g id="edge35_Node000024_Node000023" class="edge">
<title>Node24&#45;&gt;Node23</title>
<g id="a_edge35_Node000024_Node000023"><a xlink:title=" ">
<path fill="none" stroke="#63b8ff" d="M995.42,-198.4C875.63,-192.62 668.11,-180 491.5,-156 480.63,-154.52 469.12,-152.58 458.04,-150.51"/>
<polygon fill="#63b8ff" stroke="#63b8ff" points="458.51,-147.04 448.03,-148.59 457.19,-153.91 458.51,-147.04"/>
</a>
</g>
</g>
<!-- Node25 -->
<g id="Node000025" class="node">
<title>Node25</title>
<g id="a_Node000025"><a xlink:href="RtosMutex_8h.html" target="_top" xlink:title="Cross&#45;platform RTOS mutex and synchronization primitives.">
<polygon fill="white" stroke="#666666" points="1155,-148.5 1034,-148.5 1034,-125.5 1155,-125.5 1155,-148.5"/>
<text text-anchor="middle" x="1094.5" y="-133.3" font-family="Arial" font-size="14.00">utils/RtosMutex.h</text>
</a>
</g>
</g>
<!-- Node24&#45;&gt;Node25 -->
<g id="edge36_Node000024_Node000025" class="edge">
<title>Node24&#45;&gt;Node25</title>
<g id="a_edge36_Node000024_Node000025"><a xlink:title=" ">
<path fill="none" stroke="#63b8ff" d="M1094.5,-191.85C1094.5,-182.94 1094.5,-169.96 1094.5,-158.98"/>
<polygon fill="#63b8ff" stroke="#63b8ff" points="1098,-158.88 1094.5,-148.88 1091,-158.88 1098,-158.88"/>
</a>
</g>
</g>
<!-- Node26 -->
<g id="Node000026" class="node">
<title>Node26</title>
<g id="a_Node000026"><a xlink:title=" ">
<polygon fill="#e0e0e0" stroke="#999999" points="1301.5,-156 1173.5,-156 1173.5,-118 1301.5,-118 1301.5,-156"/>
<text text-anchor="start" x="1181.5" y="-140.8" font-family="Arial" font-size="14.00">driver/temperature</text>
<text text-anchor="middle" x="1237.5" y="-125.8" font-family="Arial" font-size="14.00">_sensor.h</text>
</a>
</g>
</g>
<!-- Node24&#45;&gt;Node26 -->
<g id="edge43_Node000024_Node000026" class="edge">
<title>Node24&#45;&gt;Node26</title>
<g id="a_edge43_Node000024_Node000026"><a xlink:title=" ">
<path fill="none" stroke="#63b8ff" d="M1117.79,-191.99C1136.8,-183.42 1164.31,-171.01 1188.16,-160.25"/>
<polygon fill="#63b8ff" stroke="#63b8ff" points="1189.76,-163.37 1197.44,-156.07 1186.89,-156.99 1189.76,-163.37"/>
</a>
</g>
</g>
<!-- Node27 -->
<g id="Node000027" class="node">
<title>Node27</title>
<g id="a_Node000027"><a xlink:title=" ">
<polygon fill="#e0e0e0" stroke="#999999" points="1393,-148.5 1320,-148.5 1320,-125.5 1393,-125.5 1393,-148.5"/>
<text text-anchor="middle" x="1356.5" y="-133.3" font-family="Arial" font-size="14.00">esp_err.h</text>
</a>
</g>
</g>
<!-- Node24&#45;&gt;Node27 -->
<g id="edge44_Node000024_Node000027" class="edge">
<title>Node24&#45;&gt;Node27</title>
<g id="a_edge44_Node000024_Node000027"><a xlink:title=" ">
<path fill="none" stroke="#63b8ff" d="M1156.15,-191.96C1199.73,-183.85 1259.26,-171.43 1310.5,-156 1314.27,-154.86 1318.17,-153.56 1322.03,-152.17"/>
<polygon fill="#63b8ff" stroke="#63b8ff" points="1323.31,-155.43 1331.45,-148.64 1320.86,-148.88 1323.31,-155.43"/>
</a>
</g>
</g>
<!-- Node25&#45;&gt;Node5 -->
<g id="edge38_Node000025_Node000005" class="edge">
<title>Node25&#45;&gt;Node5</title>
<g id="a_edge38_Node000025_Node000005"><a xlink:title=" ">
<path fill="none" stroke="#63b8ff" d="M1077.99,-125.35C1062.06,-115.08 1037.76,-99.4 1019.47,-87.6"/>
<polygon fill="#63b8ff" stroke="#63b8ff" points="1021.34,-84.65 1011.04,-82.17 1017.54,-90.53 1021.34,-84.65"/>
</a>
</g>
</g>
<!-- Node25&#45;&gt;Node7 -->
<g id="edge39_Node000025_Node000007" class="edge">
<title>Node25&#45;&gt;Node7</title>
<g id="a_edge39_Node000025_Node000007"><a xlink:title=" ">
<path fill="none" stroke="#63b8ff" d="M1050.36,-125.49C1003.11,-114.25 928.13,-96.4 877.43,-84.34"/>
<polygon fill="#63b8ff" stroke="#63b8ff" points="878.16,-80.91 867.63,-82 876.54,-87.72 878.16,-80.91"/>
</a>
</g>
</g>
<!-- Node25&#45;&gt;Node8 -->
<g id="edge40_Node000025_Node000008" class="edge">
<title>Node25&#45;&gt;Node8</title>
<g id="a_edge40_Node000025_Node000008"><a xlink:title=" ">
<path fill="none" stroke="#63b8ff" d="M1132.1,-125.5C1142.54,-122.81 1153.91,-120.09 1164.5,-118 1258.73,-99.37 1369.41,-85.48 1436.45,-77.93"/>
<polygon fill="#63b8ff" stroke="#63b8ff" points="1436.88,-81.4 1446.43,-76.82 1436.1,-74.45 1436.88,-81.4"/>
</a>
</g>
</g>
<!-- Node25&#45;&gt;Node10 -->
<g id="edge42_Node000025_Node000010" class="edge">
<title>Node25&#45;&gt;Node10</title>
<g id="a_edge42_Node000025_Node000010"><a xlink:title=" ">
<path fill="none" stroke="#63b8ff" d="M1095.27,-125.29C1095.84,-108.27 1094.15,-75.33 1074.5,-59 1026.61,-19.19 586.18,-13.46 452.68,-12.64"/>
<polygon fill="#63b8ff" stroke="#63b8ff" points="452.54,-9.14 442.52,-12.58 452.5,-16.14 452.54,-9.14"/>
</a>
</g>
</g>
<!-- Node25&#45;&gt;Node20 -->
<g id="edge37_Node000025_Node000020" class="edge">
<title>Node25&#45;&gt;Node20</title>
<g id="a_edge37_Node000025_Node000020"><a xlink:title=" ">
<path fill="none" stroke="#63b8ff" d="M1033.83,-126.14C1016.9,-123.45 998.49,-120.56 981.5,-118 897.77,-105.38 801.83,-91.85 735.63,-82.65"/>
<polygon fill="#63b8ff" stroke="#63b8ff" points="736.06,-79.18 725.67,-81.27 735.1,-86.11 736.06,-79.18"/>
</a>
</g>
</g>
<!-- Node25&#45;&gt;Node21 -->
<g id="edge41_Node000025_Node000021" class="edge">
<title>Node25&#45;&gt;Node21</title>
<g id="a_edge41_Node000025_Node000021"><a xlink:title=" ">
<path fill="none" stroke="#63b8ff" d="M1123.98,-125.49C1154.89,-114.48 1203.57,-97.13 1237.38,-85.08"/>
<polygon fill="#63b8ff" stroke="#63b8ff" points="1238.68,-88.34 1246.93,-81.68 1236.33,-81.74 1238.68,-88.34"/>
</a>
</g>
</g>
</g>
</svg>
