<?xml version="1.0" encoding="UTF-8" standalone="no"?>
<!DOCTYPE svg PUBLIC "-//W3C//DTD SVG 1.1//EN"
 "http://www.w3.org/Graphics/SVG/1.1/DTD/svg11.dtd">
<!-- Generated by graphviz version 2.43.0 (0)
 -->
<!-- Title: examples/esp32/main/UsbSerialJtagComprehensiveTest.cpp Pages: 1 -->
<!--zoomable 415 -->

<svg id="main" version="1.1" xmlns="http://www.w3.org/2000/svg" xmlns:xlink="http://www.w3.org/1999/xlink" xml:space="preserve" onload="init(evt)">
<style type="text/css"><![CDATA[
.node, .edge {opacity: 0.7;}
.node.selected, .edge.selected {opacity: 1;}
.edge:hover path { stroke: red; }
.edge:hover polygon { stroke: red; fill: red; }
]]></style>

<defs>
  <circle id="rim" cx="0" cy="0" r="7"/>
  <circle id="rim2" cx="0" cy="0" r="3.5"/>
  <g id="zoomPlus">
    <use xlink:href="#rim" fill="#404040"><set attributeName="fill" to="#808080" begin="zoomplus.mouseover" end="zoomplus.mouseout"/></use>
    <path d="M-4,0h8M0,-4v8" fill="none" stroke="white" stroke-width="1.5" pointer-events="none"/>
  </g>
  <g id="zoomMin">
    <use xlink:href="#rim" fill="#404040"><set attributeName="fill" to="#808080" begin="zoomminus.mouseover" end="zoomminus.mouseout"/></use>
    <path d="M-4,0h8" fill="none" stroke="white" stroke-width="1.5" pointer-events="none"/>
  </g>
  <g id="arrowUp" transform="translate(30 24)">
    <use xlink:href="#rim"/>
    <path pointer-events="none" fill="none" stroke="white" stroke-width="1.5" d="M0,-3.0v7 M-2.5,-0.5L0,-3.0L2.5,-0.5"/>
  </g>
  <g id="arrowRight" transform="rotate(90) translate(36 -43)">
    <use xlink:href="#rim"/>
    <path pointer-events="none" fill="none" stroke="white" stroke-width="1.5" d="M0,-3.0v7 M-2.5,-0.5L0,-3.0L2.5,-0.5"/>
  </g>
  <g id="arrowDown" transform="rotate(180) translate(-30 -48)">
    <use xlink:href="#rim"/>
    <path pointer-events="none" fill="none" stroke="white" stroke-width="1.5" d="M0,-3.0v7 M-2.5,-0.5L0,-3.0L2.5,-0.5"/>
  </g>
  <g id="arrowLeft" transform="rotate(270) translate(-36 17)">
    <use xlink:href="#rim"/>
    <path pointer-events="none" fill="none" stroke="white" stroke-width="1.5" d="M0,-3.0v7 M-2.5,-0.5L0,-3.0L2.5,-0.5"/>
  </g>
  <g id="resetDef">
    <use xlink:href="#rim2" fill="#404040"><set attributeName="fill" to="#808080" begin="reset.mouseover" end="reset.mouseout"/></use>
  </g>
</defs>
<script type="application/ecmascript">
var viewWidth = 1495;
var viewHeight = 415;
var sectionId = 'dynsection-0';
</script>
<script type="application/ecmascript" xlink:href="svg.min.js"/>
<svg id="graph" class="graph">
<g id="viewport">
<title>examples/esp32/main/UsbSerialJtagComprehensiveTest.cpp</title>
<!-- Node1 -->
<g id="Node000001" class="node">
<title>Node1</title>
<g id="a_Node000001"><a xlink:title="Comprehensive test suite for the EspUsbSerialJtag wrapper (noexcept).">
<polygon fill="#999999" stroke="#666666" points="1294.5,-407 1094.5,-407 1094.5,-354 1294.5,-354 1294.5,-407"/>
<text text-anchor="start" x="1102.5" y="-391.8" font-family="Arial" font-size="14.00">examples/esp32/main</text>
<text text-anchor="start" x="1102.5" y="-376.8" font-family="Arial" font-size="14.00">/UsbSerialJtagComprehensive</text>
<text text-anchor="middle" x="1194.5" y="-361.8" font-family="Arial" font-size="14.00">Test.cpp</text>
</a>
</g>
</g>
<!-- Node2 -->
<g id="Node000002" class="node">
<title>Node2</title>
<g id="a_Node000002"><a xlink:href="TestFramework_8h.html" target="_top" xlink:title="Shared testing framework for ESP32&#45;C6 comprehensive test suites.">
<polygon fill="white" stroke="#666666" points="538,-318 417,-318 417,-295 538,-295 538,-318"/>
<text text-anchor="middle" x="477.5" y="-302.8" font-family="Arial" font-size="14.00">TestFramework.h</text>
</a>
</g>
</g>
<!-- Node1&#45;&gt;Node2 -->
<g id="edge1_Node000001_Node000002" class="edge">
<title>Node1&#45;&gt;Node2</title>
<g id="a_edge1_Node000001_Node000002"><a xlink:title=" ">
<path fill="none" stroke="#63b8ff" d="M1094.43,-369.45C947.45,-354.69 676.78,-327.51 548.51,-314.63"/>
<polygon fill="#63b8ff" stroke="#63b8ff" points="548.7,-311.13 538.4,-313.62 548,-318.1 548.7,-311.13"/>
</a>
</g>
</g>
<!-- Node3 -->
<g id="Node000003" class="node">
<title>Node3</title>
<g id="a_Node000003"><a xlink:title=" ">
<polygon fill="#e0e0e0" stroke="#999999" points="75,-259 0,-259 0,-236 75,-236 75,-259"/>
<text text-anchor="middle" x="37.5" y="-243.8" font-family="Arial" font-size="14.00">esp_log.h</text>
</a>
</g>
</g>
<!-- Node1&#45;&gt;Node3 -->
<g id="edge42_Node000001_Node000003" class="edge">
<title>Node1&#45;&gt;Node3</title>
<g id="a_edge42_Node000001_Node000003"><a xlink:title=" ">
<path fill="none" stroke="#63b8ff" d="M1094.45,-375.07C944.62,-367.66 653.27,-350.31 407.5,-318 290.77,-302.65 155.11,-274.49 84.96,-259.15"/>
<polygon fill="#63b8ff" stroke="#63b8ff" points="85.62,-255.71 75.1,-256.98 84.11,-262.55 85.62,-255.71"/>
</a>
</g>
</g>
<!-- Node22 -->
<g id="Node000022" class="node">
<title>Node22</title>
<g id="a_Node000022"><a xlink:href="BaseUsbSerialJtag_8h.html" target="_top" xlink:title="Abstract base class for USB Serial/JTAG controller &quot;console&#45;style&quot; serial transports in the HardFOC s...">
<polygon fill="white" stroke="#666666" points="1151.5,-200 975.5,-200 975.5,-177 1151.5,-177 1151.5,-200"/>
<text text-anchor="middle" x="1063.5" y="-184.8" font-family="Arial" font-size="14.00">base/BaseUsbSerialJtag.h</text>
</a>
</g>
</g>
<!-- Node1&#45;&gt;Node22 -->
<g id="edge28_Node000001_Node000022" class="edge">
<title>Node1&#45;&gt;Node22</title>
<g id="a_edge28_Node000001_Node000022"><a xlink:title=" ">
<path fill="none" stroke="#63b8ff" d="M1198.26,-353.82C1201.35,-322.67 1201.66,-270.09 1175.5,-236 1163.82,-220.78 1146.27,-210.5 1128.5,-203.58"/>
<polygon fill="#63b8ff" stroke="#63b8ff" points="1129.23,-200.13 1118.64,-200.07 1126.89,-206.72 1129.23,-200.13"/>
</a>
</g>
</g>
<!-- Node24 -->
<g id="Node000024" class="node">
<title>Node24</title>
<g id="a_Node000024"><a xlink:title=" ">
<polygon fill="#e0e0e0" stroke="#999999" points="1146.5,-82 1090.5,-82 1090.5,-59 1146.5,-59 1146.5,-82"/>
<text text-anchor="middle" x="1118.5" y="-66.8" font-family="Arial" font-size="14.00">cstring</text>
</a>
</g>
</g>
<!-- Node1&#45;&gt;Node24 -->
<g id="edge44_Node000001_Node000024" class="edge">
<title>Node1&#45;&gt;Node24</title>
<g id="a_edge44_Node000001_Node000024"><a xlink:title=" ">
<path fill="none" stroke="#63b8ff" d="M1206.73,-353.55C1217.84,-327.57 1232.5,-286.15 1232.5,-248.5 1232.5,-248.5 1232.5,-248.5 1232.5,-187.5 1232.5,-140.53 1184.36,-105.62 1150.64,-86.93"/>
<polygon fill="#63b8ff" stroke="#63b8ff" points="1152.04,-83.71 1141.57,-82.09 1148.75,-89.88 1152.04,-83.71"/>
</a>
</g>
</g>
<!-- Node26 -->
<g id="Node000026" class="node">
<title>Node26</title>
<g id="a_Node000026"><a xlink:href="EspUsbSerialJtag_8h.html" target="_top" xlink:title="ESP32&#45;S3 / &#45;C3 / &#45;C6 USB Serial/JTAG console wrapper.">
<polygon fill="white" stroke="#666666" points="1166.5,-259 960.5,-259 960.5,-236 1166.5,-236 1166.5,-259"/>
<text text-anchor="middle" x="1063.5" y="-243.8" font-family="Arial" font-size="14.00">mcu/esp32/EspUsbSerialJtag.h</text>
</a>
</g>
</g>
<!-- Node1&#45;&gt;Node26 -->
<g id="edge37_Node000001_Node000026" class="edge">
<title>Node1&#45;&gt;Node26</title>
<g id="a_edge37_Node000001_Node000026"><a xlink:title=" ">
<path fill="none" stroke="#63b8ff" d="M1168.93,-353.93C1143.22,-328.22 1104.24,-289.24 1081.58,-266.58"/>
<polygon fill="#63b8ff" stroke="#63b8ff" points="1083.84,-263.89 1074.29,-259.29 1078.89,-268.84 1083.84,-263.89"/>
</a>
</g>
</g>
<!-- Node27 -->
<g id="Node000027" class="node">
<title>Node27</title>
<g id="a_Node000027"><a xlink:title=" ">
<polygon fill="#e0e0e0" stroke="#999999" points="1416.5,-318 1260.5,-318 1260.5,-295 1416.5,-295 1416.5,-318"/>
<text text-anchor="middle" x="1338.5" y="-302.8" font-family="Arial" font-size="14.00">driver/usb_serial_jtag.h</text>
</a>
</g>
</g>
<!-- Node1&#45;&gt;Node27 -->
<g id="edge41_Node000001_Node000027" class="edge">
<title>Node1&#45;&gt;Node27</title>
<g id="a_edge41_Node000001_Node000027"><a xlink:title=" ">
<path fill="none" stroke="#63b8ff" d="M1245.67,-353.91C1266.41,-343.55 1289.67,-331.92 1307.71,-322.89"/>
<polygon fill="#63b8ff" stroke="#63b8ff" points="1309.78,-325.77 1317.16,-318.17 1306.65,-319.51 1309.78,-325.77"/>
</a>
</g>
</g>
<!-- Node28 -->
<g id="Node000028" class="node">
<title>Node28</title>
<g id="a_Node000028"><a xlink:title=" ">
<polygon fill="#e0e0e0" stroke="#999999" points="1486.5,-318 1434.5,-318 1434.5,-295 1486.5,-295 1486.5,-318"/>
<text text-anchor="middle" x="1460.5" y="-302.8" font-family="Arial" font-size="14.00">cstdio</text>
</a>
</g>
</g>
<!-- Node1&#45;&gt;Node28 -->
<g id="edge43_Node000001_Node000028" class="edge">
<title>Node1&#45;&gt;Node28</title>
<g id="a_edge43_Node000001_Node000028"><a xlink:title=" ">
<path fill="none" stroke="#63b8ff" d="M1293.04,-353.99C1331.51,-343.85 1376.19,-331.87 1424.45,-318.25"/>
<polygon fill="#63b8ff" stroke="#63b8ff" points="1425.48,-321.59 1434.15,-315.5 1423.58,-314.86 1425.48,-321.59"/>
</a>
</g>
</g>
<!-- Node2&#45;&gt;Node3 -->
<g id="edge2_Node000002_Node000003" class="edge">
<title>Node2&#45;&gt;Node3</title>
<g id="a_edge2_Node000002_Node000003"><a xlink:title=" ">
<path fill="none" stroke="#63b8ff" d="M416.8,-299.74C340.26,-292.14 204.71,-277.51 89.5,-259 88.05,-258.77 86.58,-258.52 85.1,-258.27"/>
<polygon fill="#63b8ff" stroke="#63b8ff" points="85.67,-254.82 75.21,-256.48 84.43,-261.7 85.67,-254.82"/>
</a>
</g>
</g>
<!-- Node4 -->
<g id="Node000004" class="node">
<title>Node4</title>
<g id="a_Node000004"><a xlink:title=" ">
<polygon fill="#e0e0e0" stroke="#999999" points="388,-259 301,-259 301,-236 388,-236 388,-259"/>
<text text-anchor="middle" x="344.5" y="-243.8" font-family="Arial" font-size="14.00">esp_timer.h</text>
</a>
</g>
</g>
<!-- Node2&#45;&gt;Node4 -->
<g id="edge3_Node000002_Node000004" class="edge">
<title>Node2&#45;&gt;Node4</title>
<g id="a_edge3_Node000002_Node000004"><a xlink:title=" ">
<path fill="none" stroke="#63b8ff" d="M452.8,-294.91C431.89,-285.95 401.72,-273.02 378.54,-263.09"/>
<polygon fill="#63b8ff" stroke="#63b8ff" points="379.64,-259.75 369.07,-259.03 376.89,-266.19 379.64,-259.75"/>
</a>
</g>
</g>
<!-- Node5 -->
<g id="Node000005" class="node">
<title>Node5</title>
<g id="a_Node000005"><a xlink:title=" ">
<polygon fill="#e0e0e0" stroke="#999999" points="549,-259 406,-259 406,-236 549,-236 549,-259"/>
<text text-anchor="middle" x="477.5" y="-243.8" font-family="Arial" font-size="14.00">freertos/FreeRTOS.h</text>
</a>
</g>
</g>
<!-- Node2&#45;&gt;Node5 -->
<g id="edge4_Node000002_Node000005" class="edge">
<title>Node2&#45;&gt;Node5</title>
<g id="a_edge4_Node000002_Node000005"><a xlink:title=" ">
<path fill="none" stroke="#63b8ff" d="M477.5,-294.78C477.5,-287.61 477.5,-277.95 477.5,-269.31"/>
<polygon fill="#63b8ff" stroke="#63b8ff" points="481,-269.17 477.5,-259.17 474,-269.17 481,-269.17"/>
</a>
</g>
</g>
<!-- Node6 -->
<g id="Node000006" class="node">
<title>Node6</title>
<g id="a_Node000006"><a xlink:title=" ">
<polygon fill="#e0e0e0" stroke="#999999" points="682,-259 567,-259 567,-236 682,-236 682,-259"/>
<text text-anchor="middle" x="624.5" y="-243.8" font-family="Arial" font-size="14.00">freertos/queue.h</text>
</a>
</g>
</g>
<!-- Node2&#45;&gt;Node6 -->
<g id="edge5_Node000002_Node000006" class="edge">
<title>Node2&#45;&gt;Node6</title>
<g id="a_edge5_Node000002_Node000006"><a xlink:title=" ">
<path fill="none" stroke="#63b8ff" d="M504.81,-294.91C528.22,-285.83 562.15,-272.68 587.91,-262.69"/>
<polygon fill="#63b8ff" stroke="#63b8ff" points="589.28,-265.91 597.34,-259.03 586.75,-259.38 589.28,-265.91"/>
</a>
</g>
</g>
<!-- Node7 -->
<g id="Node000007" class="node">
<title>Node7</title>
<g id="a_Node000007"><a xlink:title=" ">
<polygon fill="#e0e0e0" stroke="#999999" points="822.5,-259 700.5,-259 700.5,-236 822.5,-236 822.5,-259"/>
<text text-anchor="middle" x="761.5" y="-243.8" font-family="Arial" font-size="14.00">freertos/semphr.h</text>
</a>
</g>
</g>
<!-- Node2&#45;&gt;Node7 -->
<g id="edge6_Node000002_Node000007" class="edge">
<title>Node2&#45;&gt;Node7</title>
<g id="a_edge6_Node000002_Node000007"><a xlink:title=" ">
<path fill="none" stroke="#63b8ff" d="M529.92,-294.98C577.7,-285.39 648.36,-271.21 699.05,-261.03"/>
<polygon fill="#63b8ff" stroke="#63b8ff" points="699.79,-264.46 708.9,-259.06 698.41,-257.59 699.79,-264.46"/>
</a>
</g>
</g>
<!-- Node8 -->
<g id="Node000008" class="node">
<title>Node8</title>
<g id="a_Node000008"><a xlink:title=" ">
<polygon fill="#e0e0e0" stroke="#999999" points="942.5,-259 840.5,-259 840.5,-236 942.5,-236 942.5,-259"/>
<text text-anchor="middle" x="891.5" y="-243.8" font-family="Arial" font-size="14.00">freertos/task.h</text>
</a>
</g>
</g>
<!-- Node2&#45;&gt;Node8 -->
<g id="edge7_Node000002_Node000008" class="edge">
<title>Node2&#45;&gt;Node8</title>
<g id="a_edge7_Node000002_Node000008"><a xlink:title=" ">
<path fill="none" stroke="#63b8ff" d="M538.06,-298.34C606.5,-290.07 721.49,-275.64 830.29,-259.14"/>
<polygon fill="#63b8ff" stroke="#63b8ff" points="831.1,-262.55 840.46,-257.58 830.05,-255.63 831.1,-262.55"/>
</a>
</g>
</g>
<!-- Node9 -->
<g id="Node000009" class="node">
<title>Node9</title>
<g id="a_Node000009"><a xlink:href="HardwareTypes_8h.html" target="_top" xlink:title="Platform&#45;agnostic hardware type definitions for the HardFOC system.">
<polygon fill="white" stroke="#666666" points="431.5,-82 309.5,-82 309.5,-59 431.5,-59 431.5,-82"/>
<text text-anchor="middle" x="370.5" y="-66.8" font-family="Arial" font-size="14.00">HardwareTypes.h</text>
</a>
</g>
</g>
<!-- Node2&#45;&gt;Node9 -->
<g id="edge8_Node000002_Node000009" class="edge">
<title>Node2&#45;&gt;Node9</title>
<g id="a_edge8_Node000002_Node000009"><a xlink:title=" ">
<path fill="none" stroke="#63b8ff" d="M416.91,-299.65C318.08,-289.8 132.11,-269.95 122.5,-259 53.18,-180.01 232.76,-112.71 322.73,-85.02"/>
<polygon fill="#63b8ff" stroke="#63b8ff" points="323.9,-88.32 332.45,-82.07 321.87,-81.62 323.9,-88.32"/>
</a>
</g>
</g>
<!-- Node12 -->
<g id="Node000012" class="node">
<title>Node12</title>
<g id="a_Node000012"><a xlink:href="EspGpio_8h.html" target="_top" xlink:title="Advanced MCU&#45;specific implementation of the unified BaseGpio class with ESP32/ESP&#45;IDF v5....">
<polygon fill="white" stroke="#666666" points="283,-259 132,-259 132,-236 283,-236 283,-259"/>
<text text-anchor="middle" x="207.5" y="-243.8" font-family="Arial" font-size="14.00">mcu/esp32/EspGpio.h</text>
</a>
</g>
</g>
<!-- Node2&#45;&gt;Node12 -->
<g id="edge11_Node000002_Node000012" class="edge">
<title>Node2&#45;&gt;Node12</title>
<g id="a_edge11_Node000002_Node000012"><a xlink:title=" ">
<path fill="none" stroke="#63b8ff" d="M427.66,-294.98C382.43,-285.43 315.63,-271.33 267.48,-261.16"/>
<polygon fill="#63b8ff" stroke="#63b8ff" points="268.01,-257.7 257.5,-259.06 266.56,-264.55 268.01,-257.7"/>
</a>
</g>
</g>
<!-- Node10 -->
<g id="Node000010" class="node">
<title>Node10</title>
<g id="a_Node000010"><a xlink:title=" ">
<polygon fill="#e0e0e0" stroke="#999999" points="662.5,-23 606.5,-23 606.5,0 662.5,0 662.5,-23"/>
<text text-anchor="middle" x="634.5" y="-7.8" font-family="Arial" font-size="14.00">cstdint</text>
</a>
</g>
</g>
<!-- Node9&#45;&gt;Node10 -->
<g id="edge9_Node000009_Node000010" class="edge">
<title>Node9&#45;&gt;Node10</title>
<g id="a_edge9_Node000009_Node000010"><a xlink:title=" ">
<path fill="none" stroke="#63b8ff" d="M419.23,-58.98C470.34,-47.94 549.6,-30.83 596.35,-20.74"/>
<polygon fill="#63b8ff" stroke="#63b8ff" points="597.33,-24.11 606.37,-18.57 595.85,-17.26 597.33,-24.11"/>
</a>
</g>
</g>
<!-- Node11 -->
<g id="Node000011" class="node">
<title>Node11</title>
<g id="a_Node000011"><a xlink:title=" ">
<polygon fill="#e0e0e0" stroke="#999999" points="394.5,-23 346.5,-23 346.5,0 394.5,0 394.5,-23"/>
<text text-anchor="middle" x="370.5" y="-7.8" font-family="Arial" font-size="14.00">limits</text>
</a>
</g>
</g>
<!-- Node9&#45;&gt;Node11 -->
<g id="edge10_Node000009_Node000011" class="edge">
<title>Node9&#45;&gt;Node11</title>
<g id="a_edge10_Node000009_Node000011"><a xlink:title=" ">
<path fill="none" stroke="#63b8ff" d="M370.5,-58.78C370.5,-51.61 370.5,-41.95 370.5,-33.31"/>
<polygon fill="#63b8ff" stroke="#63b8ff" points="374,-33.17 370.5,-23.17 367,-33.17 374,-33.17"/>
</a>
</g>
</g>
<!-- Node13 -->
<g id="Node000013" class="node">
<title>Node13</title>
<g id="a_Node000013"><a xlink:title=" ">
<polygon fill="#e0e0e0" stroke="#999999" points="475,-200 384,-200 384,-177 475,-177 475,-200"/>
<text text-anchor="middle" x="429.5" y="-184.8" font-family="Arial" font-size="14.00">driver/gpio.h</text>
</a>
</g>
</g>
<!-- Node12&#45;&gt;Node13 -->
<g id="edge12_Node000012_Node000013" class="edge">
<title>Node12&#45;&gt;Node13</title>
<g id="a_edge12_Node000012_Node000013"><a xlink:title=" ">
<path fill="none" stroke="#63b8ff" d="M248.48,-235.98C285.2,-226.55 339.22,-212.68 378.69,-202.55"/>
<polygon fill="#63b8ff" stroke="#63b8ff" points="379.57,-205.93 388.39,-200.06 377.83,-199.15 379.57,-205.93"/>
</a>
</g>
</g>
<!-- Node14 -->
<g id="Node000014" class="node">
<title>Node14</title>
<g id="a_Node000014"><a xlink:title=" ">
<polygon fill="#e0e0e0" stroke="#999999" points="569.5,-200 493.5,-200 493.5,-177 569.5,-177 569.5,-200"/>
<text text-anchor="middle" x="531.5" y="-184.8" font-family="Arial" font-size="14.00">esp_attr.h</text>
</a>
</g>
</g>
<!-- Node12&#45;&gt;Node14 -->
<g id="edge13_Node000012_Node000014" class="edge">
<title>Node12&#45;&gt;Node14</title>
<g id="a_edge13_Node000012_Node000014"><a xlink:title=" ">
<path fill="none" stroke="#63b8ff" d="M275.44,-235.99C329.11,-227.48 406.14,-214.78 483.37,-199.95"/>
<polygon fill="#63b8ff" stroke="#63b8ff" points="484.13,-203.37 493.28,-198.03 482.8,-196.5 484.13,-203.37"/>
</a>
</g>
</g>
<!-- Node15 -->
<g id="Node000015" class="node">
<title>Node15</title>
<g id="a_Node000015"><a xlink:href="BaseGpio_8h.html" target="_top" xlink:title="Unified GPIO base class for all digital GPIO implementations.">
<polygon fill="white" stroke="#666666" points="416.5,-141 328.5,-141 328.5,-118 416.5,-118 416.5,-141"/>
<text text-anchor="middle" x="372.5" y="-125.8" font-family="Arial" font-size="14.00">BaseGpio.h</text>
</a>
</g>
</g>
<!-- Node12&#45;&gt;Node15 -->
<g id="edge14_Node000012_Node000015" class="edge">
<title>Node12&#45;&gt;Node15</title>
<g id="a_edge14_Node000012_Node000015"><a xlink:title=" ">
<path fill="none" stroke="#63b8ff" d="M207.42,-235.8C207.89,-220.7 211,-193.16 226.5,-177 250.33,-152.16 287.36,-140.56 318.16,-135.15"/>
<polygon fill="#63b8ff" stroke="#63b8ff" points="319.01,-138.56 328.34,-133.54 317.92,-131.64 319.01,-138.56"/>
</a>
</g>
</g>
<!-- Node17 -->
<g id="Node000017" class="node">
<title>Node17</title>
<g id="a_Node000017"><a xlink:href="EspTypes__GPIO_8h.html" target="_top" xlink:title="ESP32 GPIO type definitions for hardware abstraction.">
<polygon fill="white" stroke="#666666" points="365.5,-200 235.5,-200 235.5,-177 365.5,-177 365.5,-200"/>
<text text-anchor="middle" x="300.5" y="-184.8" font-family="Arial" font-size="14.00">EspTypes_GPIO.h</text>
</a>
</g>
</g>
<!-- Node12&#45;&gt;Node17 -->
<g id="edge18_Node000012_Node000017" class="edge">
<title>Node12&#45;&gt;Node17</title>
<g id="a_edge18_Node000012_Node000017"><a xlink:title=" ">
<path fill="none" stroke="#63b8ff" d="M224.99,-235.78C238.89,-227.26 258.55,-215.21 274.32,-205.55"/>
<polygon fill="#63b8ff" stroke="#63b8ff" points="276.39,-208.38 283.09,-200.17 272.73,-202.41 276.39,-208.38"/>
</a>
</g>
</g>
<!-- Node21 -->
<g id="Node000021" class="node">
<title>Node21</title>
<g id="a_Node000021"><a xlink:title=" ">
<polygon fill="#e0e0e0" stroke="#999999" points="643.5,-200 587.5,-200 587.5,-177 643.5,-177 643.5,-200"/>
<text text-anchor="middle" x="615.5" y="-184.8" font-family="Arial" font-size="14.00">stdio.h</text>
</a>
</g>
</g>
<!-- Node12&#45;&gt;Node21 -->
<g id="edge27_Node000012_Node000021" class="edge">
<title>Node12&#45;&gt;Node21</title>
<g id="a_edge27_Node000012_Node000021"><a xlink:title=" ">
<path fill="none" stroke="#63b8ff" d="M283.24,-237.02C379.02,-225.04 535.74,-205.42 577.33,-199.53"/>
<polygon fill="#63b8ff" stroke="#63b8ff" points="577.98,-202.97 587.33,-197.97 576.91,-196.05 577.98,-202.97"/>
</a>
</g>
</g>
<!-- Node15&#45;&gt;Node9 -->
<g id="edge15_Node000015_Node000009" class="edge">
<title>Node15&#45;&gt;Node9</title>
<g id="a_edge15_Node000015_Node000009"><a xlink:title=" ">
<path fill="none" stroke="#63b8ff" d="M372.12,-117.78C371.87,-110.61 371.53,-100.95 371.23,-92.31"/>
<polygon fill="#63b8ff" stroke="#63b8ff" points="374.72,-92.04 370.87,-82.17 367.73,-92.29 374.72,-92.04"/>
</a>
</g>
</g>
<!-- Node15&#45;&gt;Node10 -->
<g id="edge16_Node000015_Node000010" class="edge">
<title>Node15&#45;&gt;Node10</title>
<g id="a_edge16_Node000015_Node000010"><a xlink:title=" ">
<path fill="none" stroke="#63b8ff" d="M389.85,-117.89C414.04,-103.38 459.55,-77.08 500.5,-59 532.06,-45.07 569.21,-32.46 596.38,-23.9"/>
<polygon fill="#63b8ff" stroke="#63b8ff" points="597.76,-27.13 606.27,-20.82 595.68,-20.45 597.76,-27.13"/>
</a>
</g>
</g>
<!-- Node16 -->
<g id="Node000016" class="node">
<title>Node16</title>
<g id="a_Node000016"><a xlink:title=" ">
<polygon fill="#e0e0e0" stroke="#999999" points="883.5,-82 799.5,-82 799.5,-59 883.5,-59 883.5,-82"/>
<text text-anchor="middle" x="841.5" y="-66.8" font-family="Arial" font-size="14.00">string_view</text>
</a>
</g>
</g>
<!-- Node15&#45;&gt;Node16 -->
<g id="edge17_Node000015_Node000016" class="edge">
<title>Node15&#45;&gt;Node16</title>
<g id="a_edge17_Node000015_Node000016"><a xlink:title=" ">
<path fill="none" stroke="#63b8ff" d="M416.7,-119.45C419.67,-118.93 422.63,-118.44 425.5,-118 570.01,-95.77 607.23,-98.57 752.5,-82 764.46,-80.64 777.31,-79.14 789.43,-77.71"/>
<polygon fill="#63b8ff" stroke="#63b8ff" points="789.88,-81.18 799.4,-76.53 789.06,-74.23 789.88,-81.18"/>
</a>
</g>
</g>
<!-- Node17&#45;&gt;Node9 -->
<g id="edge25_Node000017_Node000009" class="edge">
<title>Node17&#45;&gt;Node9</title>
<g id="a_edge25_Node000017_Node000009"><a xlink:title=" ">
<path fill="none" stroke="#63b8ff" d="M301.54,-176.88C303.34,-162.59 308.01,-136.78 319.5,-118 326.37,-106.78 336.73,-96.62 346.32,-88.69"/>
<polygon fill="#63b8ff" stroke="#63b8ff" points="348.74,-91.24 354.45,-82.32 344.42,-85.73 348.74,-91.24"/>
</a>
</g>
</g>
<!-- Node17&#45;&gt;Node15 -->
<g id="edge19_Node000017_Node000015" class="edge">
<title>Node17&#45;&gt;Node15</title>
<g id="a_edge19_Node000017_Node000015"><a xlink:title=" ">
<path fill="none" stroke="#63b8ff" d="M314.04,-176.78C324.4,-168.58 338.89,-157.11 350.85,-147.64"/>
<polygon fill="#63b8ff" stroke="#63b8ff" points="353.35,-150.12 359.02,-141.17 349.01,-144.64 353.35,-150.12"/>
</a>
</g>
</g>
<!-- Node18 -->
<g id="Node000018" class="node">
<title>Node18</title>
<g id="a_Node000018"><a xlink:href="EspTypes__Base_8h.html" target="_top" xlink:title="ESP32 base type definitions for hardware abstraction.">
<polygon fill="white" stroke="#666666" points="560,-141 435,-141 435,-118 560,-118 560,-141"/>
<text text-anchor="middle" x="497.5" y="-125.8" font-family="Arial" font-size="14.00">EspTypes_Base.h</text>
</a>
</g>
</g>
<!-- Node17&#45;&gt;Node18 -->
<g id="edge20_Node000017_Node000018" class="edge">
<title>Node17&#45;&gt;Node18</title>
<g id="a_edge20_Node000017_Node000018"><a xlink:title=" ">
<path fill="none" stroke="#63b8ff" d="M337.09,-176.91C369.3,-167.59 416.35,-153.98 451.17,-143.9"/>
<polygon fill="#63b8ff" stroke="#63b8ff" points="452.47,-147.17 461.1,-141.03 450.52,-140.45 452.47,-147.17"/>
</a>
</g>
</g>
<!-- Node19 -->
<g id="Node000019" class="node">
<title>Node19</title>
<g id="a_Node000019"><a xlink:href="McuSelect_8h.html" target="_top" xlink:title="Centralized MCU platform selection and configuration header.">
<polygon fill="white" stroke="#666666" points="743.5,-82 601.5,-82 601.5,-59 743.5,-59 743.5,-82"/>
<text text-anchor="middle" x="672.5" y="-66.8" font-family="Arial" font-size="14.00">../../utils/McuSelect.h</text>
</a>
</g>
</g>
<!-- Node17&#45;&gt;Node19 -->
<g id="edge26_Node000017_Node000019" class="edge">
<title>Node17&#45;&gt;Node19</title>
<g id="a_edge26_Node000017_Node000019"><a xlink:title=" ">
<path fill="none" stroke="#63b8ff" d="M365.58,-177.66C438.78,-166.35 549.95,-148.42 568.5,-141 600.43,-128.23 632.66,-104.66 652.59,-88.54"/>
<polygon fill="#63b8ff" stroke="#63b8ff" points="654.86,-91.21 660.35,-82.14 650.41,-85.81 654.86,-91.21"/>
</a>
</g>
</g>
<!-- Node18&#45;&gt;Node9 -->
<g id="edge22_Node000018_Node000009" class="edge">
<title>Node18&#45;&gt;Node9</title>
<g id="a_edge22_Node000018_Node000009"><a xlink:title=" ">
<path fill="none" stroke="#63b8ff" d="M473.91,-117.91C454.04,-108.99 425.4,-96.14 403.3,-86.22"/>
<polygon fill="#63b8ff" stroke="#63b8ff" points="404.52,-82.93 393.96,-82.03 401.65,-89.32 404.52,-82.93"/>
</a>
</g>
</g>
<!-- Node18&#45;&gt;Node10 -->
<g id="edge24_Node000018_Node000010" class="edge">
<title>Node18&#45;&gt;Node10</title>
<g id="a_edge24_Node000018_Node000010"><a xlink:title=" ">
<path fill="none" stroke="#63b8ff" d="M497.57,-117.94C498.22,-103.01 501.55,-75.67 516.5,-59 537.07,-36.06 570.41,-24.31 596.41,-18.36"/>
<polygon fill="#63b8ff" stroke="#63b8ff" points="597.26,-21.76 606.33,-16.29 595.83,-14.91 597.26,-21.76"/>
</a>
</g>
</g>
<!-- Node18&#45;&gt;Node19 -->
<g id="edge21_Node000018_Node000019" class="edge">
<title>Node18&#45;&gt;Node19</title>
<g id="a_edge21_Node000018_Node000019"><a xlink:title=" ">
<path fill="none" stroke="#63b8ff" d="M530.01,-117.91C558.37,-108.67 599.7,-95.21 630.55,-85.16"/>
<polygon fill="#63b8ff" stroke="#63b8ff" points="631.74,-88.46 640.17,-82.03 629.58,-81.8 631.74,-88.46"/>
</a>
</g>
</g>
<!-- Node20 -->
<g id="Node000020" class="node">
<title>Node20</title>
<g id="a_Node000020"><a xlink:title=" ">
<polygon fill="#e0e0e0" stroke="#999999" points="583,-82 526,-82 526,-59 583,-59 583,-82"/>
<text text-anchor="middle" x="554.5" y="-66.8" font-family="Arial" font-size="14.00">atomic</text>
</a>
</g>
</g>
<!-- Node18&#45;&gt;Node20 -->
<g id="edge23_Node000018_Node000020" class="edge">
<title>Node18&#45;&gt;Node20</title>
<g id="a_edge23_Node000018_Node000020"><a xlink:title=" ">
<path fill="none" stroke="#63b8ff" d="M508.22,-117.78C516.18,-109.82 527.23,-98.77 536.53,-89.47"/>
<polygon fill="#63b8ff" stroke="#63b8ff" points="539.23,-91.72 543.83,-82.17 534.28,-86.77 539.23,-91.72"/>
</a>
</g>
</g>
<!-- Node22&#45;&gt;Node10 -->
<g id="edge35_Node000022_Node000010" class="edge">
<title>Node22&#45;&gt;Node10</title>
<g id="a_edge35_Node000022_Node000010"><a xlink:title=" ">
<path fill="none" stroke="#63b8ff" d="M1063.13,-176.79C1062.07,-161.91 1058.11,-134.91 1043.5,-118 1002.02,-69.98 974.2,-77.48 913.5,-59 829.82,-33.52 727.52,-20.99 673.02,-15.72"/>
<polygon fill="#63b8ff" stroke="#63b8ff" points="673.06,-12.21 662.77,-14.76 672.4,-19.18 673.06,-12.21"/>
</a>
</g>
</g>
<!-- Node23 -->
<g id="Node000023" class="node">
<title>Node23</title>
<g id="a_Node000023"><a xlink:href="BaseUart_8h.html" target="_top" xlink:title="Abstract base class for UART driver implementations in the HardFOC system.">
<polygon fill="white" stroke="#666666" points="953.5,-141 869.5,-141 869.5,-118 953.5,-118 953.5,-141"/>
<text text-anchor="middle" x="911.5" y="-125.8" font-family="Arial" font-size="14.00">BaseUart.h</text>
</a>
</g>
</g>
<!-- Node22&#45;&gt;Node23 -->
<g id="edge29_Node000022_Node000023" class="edge">
<title>Node22&#45;&gt;Node23</title>
<g id="a_edge29_Node000022_Node000023"><a xlink:title=" ">
<path fill="none" stroke="#63b8ff" d="M1035.27,-176.91C1010.95,-167.79 975.67,-154.56 948.99,-144.56"/>
<polygon fill="#63b8ff" stroke="#63b8ff" points="950.17,-141.27 939.58,-141.03 947.72,-147.82 950.17,-141.27"/>
</a>
</g>
</g>
<!-- Node22&#45;&gt;Node24 -->
<g id="edge36_Node000022_Node000024" class="edge">
<title>Node22&#45;&gt;Node24</title>
<g id="a_edge36_Node000022_Node000024"><a xlink:title=" ">
<path fill="none" stroke="#63b8ff" d="M1068.58,-176.79C1077.78,-157.37 1097.37,-116.06 1109.09,-91.35"/>
<polygon fill="#63b8ff" stroke="#63b8ff" points="1112.31,-92.71 1113.44,-82.18 1105.99,-89.72 1112.31,-92.71"/>
</a>
</g>
</g>
<!-- Node25 -->
<g id="Node000025" class="node">
<title>Node25</title>
<g id="a_Node000025"><a xlink:title=" ">
<polygon fill="#e0e0e0" stroke="#999999" points="1034,-141 973,-141 973,-118 1034,-118 1034,-141"/>
<text text-anchor="middle" x="1003.5" y="-125.8" font-family="Arial" font-size="14.00">cstdarg</text>
</a>
</g>
</g>
<!-- Node22&#45;&gt;Node25 -->
<g id="edge34_Node000022_Node000025" class="edge">
<title>Node22&#45;&gt;Node25</title>
<g id="a_edge34_Node000022_Node000025"><a xlink:title=" ">
<path fill="none" stroke="#63b8ff" d="M1052.21,-176.78C1043.75,-168.74 1031.98,-157.55 1022.12,-148.19"/>
<polygon fill="#63b8ff" stroke="#63b8ff" points="1024.4,-145.52 1014.73,-141.17 1019.57,-150.6 1024.4,-145.52"/>
</a>
</g>
</g>
<!-- Node23&#45;&gt;Node9 -->
<g id="edge30_Node000023_Node000009" class="edge">
<title>Node23&#45;&gt;Node9</title>
<g id="a_edge30_Node000023_Node000009"><a xlink:title=" ">
<path fill="none" stroke="#63b8ff" d="M869.5,-124.07C777.32,-114.36 556.42,-91.09 441.96,-79.03"/>
<polygon fill="#63b8ff" stroke="#63b8ff" points="442.21,-75.54 431.89,-77.97 441.47,-82.5 442.21,-75.54"/>
</a>
</g>
</g>
<!-- Node23&#45;&gt;Node10 -->
<g id="edge31_Node000023_Node000010" class="edge">
<title>Node23&#45;&gt;Node10</title>
<g id="a_edge31_Node000023_Node000010"><a xlink:title=" ">
<path fill="none" stroke="#63b8ff" d="M911.86,-117.78C911.76,-102.39 909.11,-74.2 892.5,-59 860.93,-30.11 736.55,-18.57 672.73,-14.48"/>
<polygon fill="#63b8ff" stroke="#63b8ff" points="672.85,-10.99 662.66,-13.87 672.43,-17.97 672.85,-10.99"/>
</a>
</g>
</g>
<!-- Node23&#45;&gt;Node16 -->
<g id="edge33_Node000023_Node000016" class="edge">
<title>Node23&#45;&gt;Node16</title>
<g id="a_edge33_Node000023_Node000016"><a xlink:title=" ">
<path fill="none" stroke="#63b8ff" d="M898.33,-117.78C888.26,-109.58 874.18,-98.11 862.55,-88.64"/>
<polygon fill="#63b8ff" stroke="#63b8ff" points="864.57,-85.77 854.61,-82.17 860.15,-91.2 864.57,-85.77"/>
</a>
</g>
</g>
<!-- Node23&#45;&gt;Node24 -->
<g id="edge32_Node000023_Node000024" class="edge">
<title>Node23&#45;&gt;Node24</title>
<g id="a_edge32_Node000023_Node000024"><a xlink:title=" ">
<path fill="none" stroke="#63b8ff" d="M949.95,-117.91C987.14,-107.67 1043.18,-92.24 1080.29,-82.02"/>
<polygon fill="#63b8ff" stroke="#63b8ff" points="1081.51,-85.32 1090.22,-79.29 1079.65,-78.57 1081.51,-85.32"/>
</a>
</g>
</g>
<!-- Node26&#45;&gt;Node10 -->
<g id="edge40_Node000026_Node000010" class="edge">
<title>Node26&#45;&gt;Node10</title>
<g id="a_edge40_Node000026_Node000010"><a xlink:title=" ">
<path fill="none" stroke="#63b8ff" d="M1040.57,-235.99C1020.79,-226.81 991.55,-212.96 966.5,-200 918.61,-175.22 905.64,-170.49 860.5,-141 810.04,-108.04 805.03,-88.55 752.5,-59 726.98,-44.64 696.12,-32.65 672.37,-24.44"/>
<polygon fill="#63b8ff" stroke="#63b8ff" points="673.25,-21.05 662.66,-21.16 671.01,-27.68 673.25,-21.05"/>
</a>
</g>
</g>
<!-- Node26&#45;&gt;Node19 -->
<g id="edge39_Node000026_Node000019" class="edge">
<title>Node26&#45;&gt;Node19</title>
<g id="a_edge39_Node000026_Node000019"><a xlink:title=" ">
<path fill="none" stroke="#63b8ff" d="M968.39,-235.97C885.28,-226.13 775.19,-211.3 757.5,-200 716.95,-174.09 691.41,-121.13 679.82,-91.94"/>
<polygon fill="#63b8ff" stroke="#63b8ff" points="683,-90.46 676.17,-82.36 676.46,-92.95 683,-90.46"/>
</a>
</g>
</g>
<!-- Node26&#45;&gt;Node22 -->
<g id="edge38_Node000026_Node000022" class="edge">
<title>Node26&#45;&gt;Node22</title>
<g id="a_edge38_Node000026_Node000022"><a xlink:title=" ">
<path fill="none" stroke="#63b8ff" d="M1063.5,-235.78C1063.5,-228.61 1063.5,-218.95 1063.5,-210.31"/>
<polygon fill="#63b8ff" stroke="#63b8ff" points="1067,-210.17 1063.5,-200.17 1060,-210.17 1067,-210.17"/>
</a>
</g>
</g>
</g>
</svg>

<g id="navigator" transform="translate(0 0)" fill="#404254">
  <rect fill="#f2f5e9" fill-opacity="0.5" stroke="#606060" stroke-width=".5" x="0" y="0" width="60" height="60"/>
  <use id="zoomplus" xlink:href="#zoomPlus" x="17" y="9" onmousedown="handleZoom(evt,'in')"/>
  <use id="zoomminus" xlink:href="#zoomMin" x="42" y="9" onmousedown="handleZoom(evt,'out')"/>
  <use id="reset" xlink:href="#resetDef" x="30" y="36" onmousedown="handleReset()"/>
   <use id="arrowup" xlink:href="#arrowUp" x="0" y="0" onmousedown="handlePan(0,-1)"/>
  <use id="arrowright" xlink:href="#arrowRight" x="0" y="0" onmousedown="handlePan(1,0)"/>
  <use id="arrowdown" xlink:href="#arrowDown" x="0" y="0" onmousedown="handlePan(0,1)"/>
  <use id="arrowleft" xlink:href="#arrowLeft" x="0" y="0" onmousedown="handlePan(-1,0)"/>
</g>
<svg viewBox="0 0 15 15" width="100%" height="30px" preserveAspectRatio="xMaxYMin meet">
 <g id="arrow_out" transform="scale(0.3 0.3)">
  <a xlink:href="UsbSerialJtagComprehensiveTest_8cpp__incl_org.svg" target="_base">
   <rect id="button" ry="5" rx="5" y="6" x="6" height="38" width="38"
        fill="#f2f5e9" fill-opacity="0.5" stroke="#606060" stroke-width="1.0"/>
   <path id="arrow"
     d="M 11.500037,31.436501 C 11.940474,20.09759 22.043105,11.32322 32.158766,21.979434 L 37.068811,17.246167 C 37.068811,17.246167 37.088388,32 37.088388,32 L 22.160133,31.978069 C 22.160133,31.978069 26.997745,27.140456 26.997745,27.140456 C 18.528582,18.264221 13.291696,25.230495 11.500037,31.436501 z"
     style="fill:#404040;"/>
  </a>
 </g>
</svg>

<style type='text/css'>
<![CDATA[
[data-mouse-over-selected='false'] { opacity: 0.7; }
[data-mouse-over-selected='true']  { opacity: 1.0; }
]]>
</style>
<script type="application/ecmascript"><![CDATA[
document.addEventListener('DOMContentLoaded', (event) => {
  highlightEdges();
  highlightAdjacentNodes();
});
]]></script>
</svg>
