<?xml version="1.0" encoding="UTF-8" standalone="no"?>
<!DOCTYPE svg PUBLIC "-//W3C//DTD SVG 1.1//EN"
 "http://www.w3.org/Graphics/SVG/1.1/DTD/svg11.dtd">
<!-- Generated by graphviz version 2.43.0 (0)
 -->
<!-- Title: examples/esp32/main/WifiComprehensiveTest.cpp Pages: 1 -->
<!--zoomable 400 -->

<svg id="main" version="1.1" xmlns="http://www.w3.org/2000/svg" xmlns:xlink="http://www.w3.org/1999/xlink" xml:space="preserve" onload="init(evt)">
<style type="text/css"><![CDATA[
.node, .edge {opacity: 0.7;}
.node.selected, .edge.selected {opacity: 1;}
.edge:hover path { stroke: red; }
.edge:hover polygon { stroke: red; fill: red; }
]]></style>

<defs>
  <circle id="rim" cx="0" cy="0" r="7"/>
  <circle id="rim2" cx="0" cy="0" r="3.5"/>
  <g id="zoomPlus">
    <use xlink:href="#rim" fill="#404040"><set attributeName="fill" to="#808080" begin="zoomplus.mouseover" end="zoomplus.mouseout"/></use>
    <path d="M-4,0h8M0,-4v8" fill="none" stroke="white" stroke-width="1.5" pointer-events="none"/>
  </g>
  <g id="zoomMin">
    <use xlink:href="#rim" fill="#404040"><set attributeName="fill" to="#808080" begin="zoomminus.mouseover" end="zoomminus.mouseout"/></use>
    <path d="M-4,0h8" fill="none" stroke="white" stroke-width="1.5" pointer-events="none"/>
  </g>
  <g id="arrowUp" transform="translate(30 24)">
    <use xlink:href="#rim"/>
    <path pointer-events="none" fill="none" stroke="white" stroke-width="1.5" d="M0,-3.0v7 M-2.5,-0.5L0,-3.0L2.5,-0.5"/>
  </g>
  <g id="arrowRight" transform="rotate(90) translate(36 -43)">
    <use xlink:href="#rim"/>
    <path pointer-events="none" fill="none" stroke="white" stroke-width="1.5" d="M0,-3.0v7 M-2.5,-0.5L0,-3.0L2.5,-0.5"/>
  </g>
  <g id="arrowDown" transform="rotate(180) translate(-30 -48)">
    <use xlink:href="#rim"/>
    <path pointer-events="none" fill="none" stroke="white" stroke-width="1.5" d="M0,-3.0v7 M-2.5,-0.5L0,-3.0L2.5,-0.5"/>
  </g>
  <g id="arrowLeft" transform="rotate(270) translate(-36 17)">
    <use xlink:href="#rim"/>
    <path pointer-events="none" fill="none" stroke="white" stroke-width="1.5" d="M0,-3.0v7 M-2.5,-0.5L0,-3.0L2.5,-0.5"/>
  </g>
  <g id="resetDef">
    <use xlink:href="#rim2" fill="#404040"><set attributeName="fill" to="#808080" begin="reset.mouseover" end="reset.mouseout"/></use>
  </g>
</defs>
<script type="application/ecmascript">
var viewWidth = 1989;
var viewHeight = 400;
var sectionId = 'dynsection-0';
</script>
<script type="application/ecmascript" xlink:href="svg.min.js"/>
<svg id="graph" class="graph">
<g id="viewport">
<title>examples/esp32/main/WifiComprehensiveTest.cpp</title>
<!-- Node1 -->
<g id="Node000001" class="node">
<title>Node1</title>
<g id="a_Node000001"><a xlink:title="Comprehensive WiFi testing suite for ESP32&#45;C6 DevKit&#45;M&#45;1 with ESP&#45;IDF v5.5f.">
<polygon fill="#999999" stroke="#666666" points="1319.58,-392 1130.58,-392 1130.58,-354 1319.58,-354 1319.58,-392"/>
<text text-anchor="start" x="1138.58" y="-376.8" font-family="Arial" font-size="14.00">examples/esp32/main</text>
<text text-anchor="middle" x="1225.08" y="-361.8" font-family="Arial" font-size="14.00">/WifiComprehensiveTest.cpp</text>
</a>
</g>
</g>
<!-- Node2 -->
<g id="Node000002" class="node">
<title>Node2</title>
<g id="a_Node000002"><a xlink:href="TestFramework_8h.html" target="_top" xlink:title="Shared testing framework for ESP32&#45;C6 comprehensive test suites.">
<polygon fill="white" stroke="#666666" points="1285.58,-318 1164.58,-318 1164.58,-295 1285.58,-295 1285.58,-318"/>
<text text-anchor="middle" x="1225.08" y="-302.8" font-family="Arial" font-size="14.00">TestFramework.h</text>
</a>
</g>
</g>
<!-- Node1&#45;&gt;Node2 -->
<g id="edge1_Node000001_Node000002" class="edge">
<title>Node1&#45;&gt;Node2</title>
<g id="a_edge1_Node000001_Node000002"><a xlink:title=" ">
<path fill="none" stroke="#63b8ff" d="M1225.08,-353.69C1225.08,-345.8 1225.08,-336.54 1225.08,-328.39"/>
<polygon fill="#63b8ff" stroke="#63b8ff" points="1228.58,-328.19 1225.08,-318.19 1221.58,-328.19 1228.58,-328.19"/>
</a>
</g>
</g>
<!-- Node22 -->
<g id="Node000022" class="node">
<title>Node22</title>
<g id="a_Node000022"><a xlink:href="BaseWifi_8h.html" target="_top" xlink:title="Unified WiFi base class for all WiFi implementations.">
<polygon fill="white" stroke="#666666" points="1716.58,-141 1601.58,-141 1601.58,-118 1716.58,-118 1716.58,-141"/>
<text text-anchor="middle" x="1659.08" y="-125.8" font-family="Arial" font-size="14.00">base/BaseWifi.h</text>
</a>
</g>
</g>
<!-- Node1&#45;&gt;Node22 -->
<g id="edge28_Node000001_Node000022" class="edge">
<title>Node1&#45;&gt;Node22</title>
<g id="a_edge28_Node000001_Node000022"><a xlink:title=" ">
<path fill="none" stroke="#63b8ff" d="M1320,-362.06C1408.08,-349.28 1539.99,-320.85 1638.08,-259 1667.4,-240.51 1676.99,-232.48 1689.08,-200 1695.62,-182.46 1685.59,-162.92 1675.41,-149.04"/>
<polygon fill="#63b8ff" stroke="#63b8ff" points="1678.15,-146.86 1669.2,-141.2 1672.67,-151.21 1678.15,-146.86"/>
</a>
</g>
</g>
<!-- Node25 -->
<g id="Node000025" class="node">
<title>Node25</title>
<g id="a_Node000025"><a xlink:href="EspWifi_8h.html" target="_top" xlink:title="Advanced ESP32 implementation of the unified BaseWifi class with ESP&#45;IDF v5.5+ features.">
<polygon fill="white" stroke="#666666" points="683.58,-200 538.58,-200 538.58,-177 683.58,-177 683.58,-200"/>
<text text-anchor="middle" x="611.08" y="-184.8" font-family="Arial" font-size="14.00">mcu/esp32/EspWifi.h</text>
</a>
</g>
</g>
<!-- Node1&#45;&gt;Node25 -->
<g id="edge34_Node000001_Node000025" class="edge">
<title>Node1&#45;&gt;Node25</title>
<g id="a_edge34_Node000001_Node000025"><a xlink:title=" ">
<path fill="none" stroke="#63b8ff" d="M1164.25,-353.92C1041.16,-317.33 765.06,-235.27 656.33,-202.95"/>
<polygon fill="#63b8ff" stroke="#63b8ff" points="657.23,-199.56 646.64,-200.07 655.23,-206.27 657.23,-199.56"/>
</a>
</g>
</g>
<!-- Node3 -->
<g id="Node000003" class="node">
<title>Node3</title>
<g id="a_Node000003"><a xlink:title=" ">
<polygon fill="#e0e0e0" stroke="#999999" points="1072.58,-259 997.58,-259 997.58,-236 1072.58,-236 1072.58,-259"/>
<text text-anchor="middle" x="1035.08" y="-243.8" font-family="Arial" font-size="14.00">esp_log.h</text>
</a>
</g>
</g>
<!-- Node2&#45;&gt;Node3 -->
<g id="edge2_Node000002_Node000003" class="edge">
<title>Node2&#45;&gt;Node3</title>
<g id="a_edge2_Node000002_Node000003"><a xlink:title=" ">
<path fill="none" stroke="#63b8ff" d="M1189.79,-294.91C1158.86,-285.63 1113.74,-272.1 1080.2,-262.03"/>
<polygon fill="#63b8ff" stroke="#63b8ff" points="1080.77,-258.55 1070.19,-259.03 1078.76,-265.26 1080.77,-258.55"/>
</a>
</g>
</g>
<!-- Node4 -->
<g id="Node000004" class="node">
<title>Node4</title>
<g id="a_Node000004"><a xlink:title=" ">
<polygon fill="#e0e0e0" stroke="#999999" points="1177.58,-259 1090.58,-259 1090.58,-236 1177.58,-236 1177.58,-259"/>
<text text-anchor="middle" x="1134.08" y="-243.8" font-family="Arial" font-size="14.00">esp_timer.h</text>
</a>
</g>
</g>
<!-- Node2&#45;&gt;Node4 -->
<g id="edge3_Node000002_Node000004" class="edge">
<title>Node2&#45;&gt;Node4</title>
<g id="a_edge3_Node000002_Node000004"><a xlink:title=" ">
<path fill="none" stroke="#63b8ff" d="M1207.97,-294.78C1194.37,-286.26 1175.13,-274.21 1159.7,-264.55"/>
<polygon fill="#63b8ff" stroke="#63b8ff" points="1161.46,-261.52 1151.12,-259.17 1157.74,-267.45 1161.46,-261.52"/>
</a>
</g>
</g>
<!-- Node5 -->
<g id="Node000005" class="node">
<title>Node5</title>
<g id="a_Node000005"><a xlink:title=" ">
<polygon fill="#e0e0e0" stroke="#999999" points="1164.58,-82 1021.58,-82 1021.58,-59 1164.58,-59 1164.58,-82"/>
<text text-anchor="middle" x="1093.08" y="-66.8" font-family="Arial" font-size="14.00">freertos/FreeRTOS.h</text>
</a>
</g>
</g>
<!-- Node2&#45;&gt;Node5 -->
<g id="edge4_Node000002_Node000005" class="edge">
<title>Node2&#45;&gt;Node5</title>
<g id="a_edge4_Node000002_Node000005"><a xlink:title=" ">
<path fill="none" stroke="#63b8ff" d="M1224.15,-294.79C1220.86,-259.32 1208.85,-146.3 1187.08,-118 1175.86,-103.4 1158.83,-93.08 1142.33,-85.94"/>
<polygon fill="#63b8ff" stroke="#63b8ff" points="1143.31,-82.56 1132.73,-82.09 1140.71,-89.06 1143.31,-82.56"/>
</a>
</g>
</g>
<!-- Node6 -->
<g id="Node000006" class="node">
<title>Node6</title>
<g id="a_Node000006"><a xlink:title=" ">
<polygon fill="#e0e0e0" stroke="#999999" points="1628.58,-259 1513.58,-259 1513.58,-236 1628.58,-236 1628.58,-259"/>
<text text-anchor="middle" x="1571.08" y="-243.8" font-family="Arial" font-size="14.00">freertos/queue.h</text>
</a>
</g>
</g>
<!-- Node2&#45;&gt;Node6 -->
<g id="edge5_Node000002_Node000006" class="edge">
<title>Node2&#45;&gt;Node6</title>
<g id="a_edge5_Node000002_Node000006"><a xlink:title=" ">
<path fill="none" stroke="#63b8ff" d="M1285.75,-295.51C1346.64,-285.47 1440.25,-270.05 1503.49,-259.64"/>
<polygon fill="#63b8ff" stroke="#63b8ff" points="1504.07,-263.09 1513.37,-258.01 1502.93,-256.18 1504.07,-263.09"/>
</a>
</g>
</g>
<!-- Node7 -->
<g id="Node000007" class="node">
<title>Node7</title>
<g id="a_Node000007"><a xlink:title=" ">
<polygon fill="#e0e0e0" stroke="#999999" points="1305.08,-82 1183.08,-82 1183.08,-59 1305.08,-59 1305.08,-82"/>
<text text-anchor="middle" x="1244.08" y="-66.8" font-family="Arial" font-size="14.00">freertos/semphr.h</text>
</a>
</g>
</g>
<!-- Node2&#45;&gt;Node7 -->
<g id="edge6_Node000002_Node000007" class="edge">
<title>Node2&#45;&gt;Node7</title>
<g id="a_edge6_Node000002_Node000007"><a xlink:title=" ">
<path fill="none" stroke="#63b8ff" d="M1225.95,-294.84C1228.88,-258.75 1238.46,-140.75 1242.39,-92.43"/>
<polygon fill="#63b8ff" stroke="#63b8ff" points="1245.89,-92.48 1243.21,-82.23 1238.92,-91.91 1245.89,-92.48"/>
</a>
</g>
</g>
<!-- Node8 -->
<g id="Node000008" class="node">
<title>Node8</title>
<g id="a_Node000008"><a xlink:title=" ">
<polygon fill="#e0e0e0" stroke="#999999" points="463.08,-82 361.08,-82 361.08,-59 463.08,-59 463.08,-82"/>
<text text-anchor="middle" x="412.08" y="-66.8" font-family="Arial" font-size="14.00">freertos/task.h</text>
</a>
</g>
</g>
<!-- Node2&#45;&gt;Node8 -->
<g id="edge7_Node000002_Node000008" class="edge">
<title>Node2&#45;&gt;Node8</title>
<g id="a_edge7_Node000002_Node000008"><a xlink:title=" ">
<path fill="none" stroke="#63b8ff" d="M1164.48,-301.93C928.81,-287.44 82.49,-229.55 5.08,-141 -1.64,-133.3 -1.72,-125.63 5.08,-118 27.68,-92.68 242.77,-79.27 350.8,-74.08"/>
<polygon fill="#63b8ff" stroke="#63b8ff" points="351.09,-77.57 360.91,-73.61 350.76,-70.58 351.09,-77.57"/>
</a>
</g>
</g>
<!-- Node9 -->
<g id="Node000009" class="node">
<title>Node9</title>
<g id="a_Node000009"><a xlink:href="HardwareTypes_8h.html" target="_top" xlink:title="Platform&#45;agnostic hardware type definitions for the HardFOC system.">
<polygon fill="white" stroke="#666666" points="1981.08,-82 1859.08,-82 1859.08,-59 1981.08,-59 1981.08,-82"/>
<text text-anchor="middle" x="1920.08" y="-66.8" font-family="Arial" font-size="14.00">HardwareTypes.h</text>
</a>
</g>
</g>
<!-- Node2&#45;&gt;Node9 -->
<g id="edge8_Node000002_Node000009" class="edge">
<title>Node2&#45;&gt;Node9</title>
<g id="a_edge8_Node000002_Node000009"><a xlink:title=" ">
<path fill="none" stroke="#63b8ff" d="M1285.64,-305.58C1367.4,-304.16 1516.81,-296.07 1638.08,-259 1746.45,-225.88 1776.47,-212.85 1864.08,-141 1881.75,-126.52 1897.64,-105.67 1907.94,-90.59"/>
<polygon fill="#63b8ff" stroke="#63b8ff" points="1910.99,-92.32 1913.6,-82.05 1905.15,-88.45 1910.99,-92.32"/>
</a>
</g>
</g>
<!-- Node12 -->
<g id="Node000012" class="node">
<title>Node12</title>
<g id="a_Node000012"><a xlink:href="EspGpio_8h.html" target="_top" xlink:title="Advanced MCU&#45;specific implementation of the unified BaseGpio class with ESP32C6/ESP&#45;IDF v5....">
<polygon fill="white" stroke="#666666" points="1495.58,-259 1344.58,-259 1344.58,-236 1495.58,-236 1495.58,-259"/>
<text text-anchor="middle" x="1420.08" y="-243.8" font-family="Arial" font-size="14.00">mcu/esp32/EspGpio.h</text>
</a>
</g>
</g>
<!-- Node2&#45;&gt;Node12 -->
<g id="edge11_Node000002_Node000012" class="edge">
<title>Node2&#45;&gt;Node12</title>
<g id="a_edge11_Node000002_Node000012"><a xlink:title=" ">
<path fill="none" stroke="#63b8ff" d="M1261.31,-294.91C1293.18,-285.59 1339.76,-271.98 1374.23,-261.9"/>
<polygon fill="#63b8ff" stroke="#63b8ff" points="1375.44,-265.2 1384.06,-259.03 1373.48,-258.48 1375.44,-265.2"/>
</a>
</g>
</g>
<!-- Node10 -->
<g id="Node000010" class="node">
<title>Node10</title>
<g id="a_Node000010"><a xlink:title=" ">
<polygon fill="#e0e0e0" stroke="#999999" points="1559.08,-23 1503.08,-23 1503.08,0 1559.08,0 1559.08,-23"/>
<text text-anchor="middle" x="1531.08" y="-7.8" font-family="Arial" font-size="14.00">cstdint</text>
</a>
</g>
</g>
<!-- Node9&#45;&gt;Node10 -->
<g id="edge9_Node000009_Node000010" class="edge">
<title>Node9&#45;&gt;Node10</title>
<g id="a_edge9_Node000009_Node000010"><a xlink:title=" ">
<path fill="none" stroke="#63b8ff" d="M1858.88,-60.53C1777.84,-48.66 1637.33,-28.07 1569.67,-18.15"/>
<polygon fill="#63b8ff" stroke="#63b8ff" points="1569.86,-14.64 1559.46,-16.66 1568.85,-21.57 1569.86,-14.64"/>
</a>
</g>
</g>
<!-- Node11 -->
<g id="Node000011" class="node">
<title>Node11</title>
<g id="a_Node000011"><a xlink:title=" ">
<polygon fill="#e0e0e0" stroke="#999999" points="1944.08,-23 1896.08,-23 1896.08,0 1944.08,0 1944.08,-23"/>
<text text-anchor="middle" x="1920.08" y="-7.8" font-family="Arial" font-size="14.00">limits</text>
</a>
</g>
</g>
<!-- Node9&#45;&gt;Node11 -->
<g id="edge10_Node000009_Node000011" class="edge">
<title>Node9&#45;&gt;Node11</title>
<g id="a_edge10_Node000009_Node000011"><a xlink:title=" ">
<path fill="none" stroke="#63b8ff" d="M1920.08,-58.78C1920.08,-51.61 1920.08,-41.95 1920.08,-33.31"/>
<polygon fill="#63b8ff" stroke="#63b8ff" points="1923.58,-33.17 1920.08,-23.17 1916.58,-33.17 1923.58,-33.17"/>
</a>
</g>
</g>
<!-- Node13 -->
<g id="Node000013" class="node">
<title>Node13</title>
<g id="a_Node000013"><a xlink:title=" ">
<polygon fill="#e0e0e0" stroke="#999999" points="1363.58,-200 1272.58,-200 1272.58,-177 1363.58,-177 1363.58,-200"/>
<text text-anchor="middle" x="1318.08" y="-184.8" font-family="Arial" font-size="14.00">driver/gpio.h</text>
</a>
</g>
</g>
<!-- Node12&#45;&gt;Node13 -->
<g id="edge12_Node000012_Node000013" class="edge">
<title>Node12&#45;&gt;Node13</title>
<g id="a_edge12_Node000012_Node000013"><a xlink:title=" ">
<path fill="none" stroke="#63b8ff" d="M1400.9,-235.78C1385.51,-227.18 1363.69,-214.99 1346.31,-205.28"/>
<polygon fill="#63b8ff" stroke="#63b8ff" points="1347.62,-202 1337.18,-200.17 1344.21,-208.11 1347.62,-202"/>
</a>
</g>
</g>
<!-- Node14 -->
<g id="Node000014" class="node">
<title>Node14</title>
<g id="a_Node000014"><a xlink:title=" ">
<polygon fill="#e0e0e0" stroke="#999999" points="1458.08,-200 1382.08,-200 1382.08,-177 1458.08,-177 1458.08,-200"/>
<text text-anchor="middle" x="1420.08" y="-184.8" font-family="Arial" font-size="14.00">esp_attr.h</text>
</a>
</g>
</g>
<!-- Node12&#45;&gt;Node14 -->
<g id="edge13_Node000012_Node000014" class="edge">
<title>Node12&#45;&gt;Node14</title>
<g id="a_edge13_Node000012_Node000014"><a xlink:title=" ">
<path fill="none" stroke="#63b8ff" d="M1420.08,-235.78C1420.08,-228.61 1420.08,-218.95 1420.08,-210.31"/>
<polygon fill="#63b8ff" stroke="#63b8ff" points="1423.58,-210.17 1420.08,-200.17 1416.58,-210.17 1423.58,-210.17"/>
</a>
</g>
</g>
<!-- Node15 -->
<g id="Node000015" class="node">
<title>Node15</title>
<g id="a_Node000015"><a xlink:href="BaseGpio_8h.html" target="_top" xlink:title="Unified GPIO base class for all digital GPIO implementations.">
<polygon fill="white" stroke="#666666" points="1823.08,-141 1735.08,-141 1735.08,-118 1823.08,-118 1823.08,-141"/>
<text text-anchor="middle" x="1779.08" y="-125.8" font-family="Arial" font-size="14.00">BaseGpio.h</text>
</a>
</g>
</g>
<!-- Node12&#45;&gt;Node15 -->
<g id="edge14_Node000012_Node000015" class="edge">
<title>Node12&#45;&gt;Node15</title>
<g id="a_edge14_Node000012_Node000015"><a xlink:title=" ">
<path fill="none" stroke="#63b8ff" d="M1491.44,-235.98C1564.94,-224.86 1671.22,-207.86 1689.08,-200 1717.19,-187.64 1744.37,-164.64 1761.37,-148.49"/>
<polygon fill="#63b8ff" stroke="#63b8ff" points="1764.14,-150.68 1768.86,-141.2 1759.25,-145.67 1764.14,-150.68"/>
</a>
</g>
</g>
<!-- Node17 -->
<g id="Node000017" class="node">
<title>Node17</title>
<g id="a_Node000017"><a xlink:href="EspTypes__GPIO_8h.html" target="_top" xlink:title="ESP32 GPIO type definitions for hardware abstraction.">
<polygon fill="white" stroke="#666666" points="1680.08,-200 1550.08,-200 1550.08,-177 1680.08,-177 1680.08,-200"/>
<text text-anchor="middle" x="1615.08" y="-184.8" font-family="Arial" font-size="14.00">EspTypes_GPIO.h</text>
</a>
</g>
</g>
<!-- Node12&#45;&gt;Node17 -->
<g id="edge18_Node000012_Node000017" class="edge">
<title>Node12&#45;&gt;Node17</title>
<g id="a_edge18_Node000012_Node000017"><a xlink:title=" ">
<path fill="none" stroke="#63b8ff" d="M1456.31,-235.91C1488.18,-226.59 1534.76,-212.98 1569.23,-202.9"/>
<polygon fill="#63b8ff" stroke="#63b8ff" points="1570.44,-206.2 1579.06,-200.03 1568.48,-199.48 1570.44,-206.2"/>
</a>
</g>
</g>
<!-- Node21 -->
<g id="Node000021" class="node">
<title>Node21</title>
<g id="a_Node000021"><a xlink:title=" ">
<polygon fill="#e0e0e0" stroke="#999999" points="1532.08,-200 1476.08,-200 1476.08,-177 1532.08,-177 1532.08,-200"/>
<text text-anchor="middle" x="1504.08" y="-184.8" font-family="Arial" font-size="14.00">stdio.h</text>
</a>
</g>
</g>
<!-- Node12&#45;&gt;Node21 -->
<g id="edge27_Node000012_Node000021" class="edge">
<title>Node12&#45;&gt;Node21</title>
<g id="a_edge27_Node000012_Node000021"><a xlink:title=" ">
<path fill="none" stroke="#63b8ff" d="M1435.88,-235.78C1448.32,-227.34 1465.86,-215.44 1480.04,-205.82"/>
<polygon fill="#63b8ff" stroke="#63b8ff" points="1482.05,-208.68 1488.36,-200.17 1478.12,-202.89 1482.05,-208.68"/>
</a>
</g>
</g>
<!-- Node15&#45;&gt;Node9 -->
<g id="edge15_Node000015_Node000009" class="edge">
<title>Node15&#45;&gt;Node9</title>
<g id="a_edge15_Node000015_Node000009"><a xlink:title=" ">
<path fill="none" stroke="#63b8ff" d="M1805.28,-117.91C1827.63,-108.87 1859.99,-95.79 1884.66,-85.82"/>
<polygon fill="#63b8ff" stroke="#63b8ff" points="1886.08,-89.02 1894.03,-82.03 1883.45,-82.53 1886.08,-89.02"/>
</a>
</g>
</g>
<!-- Node15&#45;&gt;Node10 -->
<g id="edge16_Node000015_Node000010" class="edge">
<title>Node15&#45;&gt;Node10</title>
<g id="a_edge16_Node000015_Node000010"><a xlink:title=" ">
<path fill="none" stroke="#63b8ff" d="M1791.19,-117.63C1805.99,-103.05 1827.29,-76.93 1812.08,-59 1781.43,-22.86 1639.17,-14.77 1569.6,-12.99"/>
<polygon fill="#63b8ff" stroke="#63b8ff" points="1569.56,-9.49 1559.49,-12.76 1569.41,-16.48 1569.56,-9.49"/>
</a>
</g>
</g>
<!-- Node16 -->
<g id="Node000016" class="node">
<title>Node16</title>
<g id="a_Node000016"><a xlink:title=" ">
<polygon fill="#e0e0e0" stroke="#999999" points="1803.08,-82 1719.08,-82 1719.08,-59 1803.08,-59 1803.08,-82"/>
<text text-anchor="middle" x="1761.08" y="-66.8" font-family="Arial" font-size="14.00">string_view</text>
</a>
</g>
</g>
<!-- Node15&#45;&gt;Node16 -->
<g id="edge17_Node000015_Node000016" class="edge">
<title>Node15&#45;&gt;Node16</title>
<g id="a_edge17_Node000015_Node000016"><a xlink:title=" ">
<path fill="none" stroke="#63b8ff" d="M1775.7,-117.78C1773.39,-110.45 1770.25,-100.52 1767.47,-91.74"/>
<polygon fill="#63b8ff" stroke="#63b8ff" points="1770.8,-90.66 1764.46,-82.17 1764.13,-92.76 1770.8,-90.66"/>
</a>
</g>
</g>
<!-- Node17&#45;&gt;Node9 -->
<g id="edge25_Node000017_Node000009" class="edge">
<title>Node17&#45;&gt;Node9</title>
<g id="a_edge25_Node000017_Node000009"><a xlink:title=" ">
<path fill="none" stroke="#63b8ff" d="M1680.23,-181.4C1724.68,-175.38 1783.97,-163.64 1832.08,-141 1859.48,-128.11 1886.08,-105.22 1902.73,-89.25"/>
<polygon fill="#63b8ff" stroke="#63b8ff" points="1905.38,-91.54 1910.06,-82.04 1900.48,-86.55 1905.38,-91.54"/>
</a>
</g>
</g>
<!-- Node17&#45;&gt;Node15 -->
<g id="edge19_Node000017_Node000015" class="edge">
<title>Node17&#45;&gt;Node15</title>
<g id="a_edge19_Node000017_Node000015"><a xlink:title=" ">
<path fill="none" stroke="#63b8ff" d="M1645.55,-176.91C1671.9,-167.75 1710.19,-154.45 1739.02,-144.43"/>
<polygon fill="#63b8ff" stroke="#63b8ff" points="1740.49,-147.62 1748.79,-141.03 1738.19,-141.01 1740.49,-147.62"/>
</a>
</g>
</g>
<!-- Node18 -->
<g id="Node000018" class="node">
<title>Node18</title>
<g id="a_Node000018"><a xlink:href="EspTypes__Base_8h.html" target="_top" xlink:title="ESP32 base type definitions for hardware abstraction.">
<polygon fill="white" stroke="#666666" points="1446.58,-141 1321.58,-141 1321.58,-118 1446.58,-118 1446.58,-141"/>
<text text-anchor="middle" x="1384.08" y="-125.8" font-family="Arial" font-size="14.00">EspTypes_Base.h</text>
</a>
</g>
</g>
<!-- Node17&#45;&gt;Node18 -->
<g id="edge20_Node000017_Node000018" class="edge">
<title>Node17&#45;&gt;Node18</title>
<g id="a_edge20_Node000017_Node000018"><a xlink:title=" ">
<path fill="none" stroke="#63b8ff" d="M1572.45,-176.98C1534.15,-167.53 1477.79,-153.62 1436.7,-143.48"/>
<polygon fill="#63b8ff" stroke="#63b8ff" points="1437.41,-140.05 1426.87,-141.06 1435.74,-146.85 1437.41,-140.05"/>
</a>
</g>
</g>
<!-- Node19 -->
<g id="Node000019" class="node">
<title>Node19</title>
<g id="a_Node000019"><a xlink:href="McuSelect_8h.html" target="_top" xlink:title="Centralized MCU platform selection and configuration header.">
<polygon fill="white" stroke="#666666" points="1503.08,-82 1361.08,-82 1361.08,-59 1503.08,-59 1503.08,-82"/>
<text text-anchor="middle" x="1432.08" y="-66.8" font-family="Arial" font-size="14.00">../../utils/McuSelect.h</text>
</a>
</g>
</g>
<!-- Node17&#45;&gt;Node19 -->
<g id="edge26_Node000017_Node000019" class="edge">
<title>Node17&#45;&gt;Node19</title>
<g id="a_edge26_Node000017_Node000019"><a xlink:title=" ">
<path fill="none" stroke="#63b8ff" d="M1598.2,-176.79C1565.98,-156.37 1495.56,-111.74 1457.58,-87.66"/>
<polygon fill="#63b8ff" stroke="#63b8ff" points="1458.99,-84.41 1448.67,-82.01 1455.24,-90.32 1458.99,-84.41"/>
</a>
</g>
</g>
<!-- Node18&#45;&gt;Node9 -->
<g id="edge22_Node000018_Node000009" class="edge">
<title>Node18&#45;&gt;Node9</title>
<g id="a_edge22_Node000018_Node000009"><a xlink:title=" ">
<path fill="none" stroke="#63b8ff" d="M1446.62,-121.85C1546.84,-111.19 1742.86,-90.35 1848.52,-79.11"/>
<polygon fill="#63b8ff" stroke="#63b8ff" points="1849.2,-82.56 1858.77,-78.02 1848.46,-75.6 1849.2,-82.56"/>
</a>
</g>
</g>
<!-- Node18&#45;&gt;Node10 -->
<g id="edge24_Node000018_Node000010" class="edge">
<title>Node18&#45;&gt;Node10</title>
<g id="a_edge24_Node000018_Node000010"><a xlink:title=" ">
<path fill="none" stroke="#63b8ff" d="M1372.47,-117.8C1358.27,-103.41 1337.78,-77.49 1352.08,-59 1369.11,-36.98 1445.19,-23.46 1492.51,-17.02"/>
<polygon fill="#63b8ff" stroke="#63b8ff" points="1493.26,-20.46 1502.72,-15.68 1492.35,-13.51 1493.26,-20.46"/>
</a>
</g>
</g>
<!-- Node18&#45;&gt;Node19 -->
<g id="edge21_Node000018_Node000019" class="edge">
<title>Node18&#45;&gt;Node19</title>
<g id="a_edge21_Node000018_Node000019"><a xlink:title=" ">
<path fill="none" stroke="#63b8ff" d="M1393.11,-117.78C1399.68,-109.98 1408.75,-99.21 1416.48,-90.03"/>
<polygon fill="#63b8ff" stroke="#63b8ff" points="1419.33,-92.08 1423.1,-82.17 1413.98,-87.57 1419.33,-92.08"/>
</a>
</g>
</g>
<!-- Node20 -->
<g id="Node000020" class="node">
<title>Node20</title>
<g id="a_Node000020"><a xlink:title=" ">
<polygon fill="#e0e0e0" stroke="#999999" points="964.58,-82 907.58,-82 907.58,-59 964.58,-59 964.58,-82"/>
<text text-anchor="middle" x="936.08" y="-66.8" font-family="Arial" font-size="14.00">atomic</text>
</a>
</g>
</g>
<!-- Node18&#45;&gt;Node20 -->
<g id="edge23_Node000018_Node000020" class="edge">
<title>Node18&#45;&gt;Node20</title>
<g id="a_edge23_Node000018_Node000020"><a xlink:title=" ">
<path fill="none" stroke="#63b8ff" d="M1321.37,-120.85C1247.58,-111.8 1121.38,-96.17 1013.08,-82 1000.54,-80.36 986.86,-78.51 974.56,-76.83"/>
<polygon fill="#63b8ff" stroke="#63b8ff" points="974.98,-73.35 964.6,-75.46 974.03,-80.29 974.98,-73.35"/>
</a>
</g>
</g>
<!-- Node22&#45;&gt;Node9 -->
<g id="edge29_Node000022_Node000009" class="edge">
<title>Node22&#45;&gt;Node9</title>
<g id="a_edge29_Node000022_Node000009"><a xlink:title=" ">
<path fill="none" stroke="#63b8ff" d="M1707.26,-117.98C1750.9,-108.45 1815.29,-94.39 1861.81,-84.23"/>
<polygon fill="#63b8ff" stroke="#63b8ff" points="1862.73,-87.61 1871.75,-82.06 1861.23,-80.77 1862.73,-87.61"/>
</a>
</g>
</g>
<!-- Node22&#45;&gt;Node10 -->
<g id="edge30_Node000022_Node000010" class="edge">
<title>Node22&#45;&gt;Node10</title>
<g id="a_edge30_Node000022_Node000010"><a xlink:title=" ">
<path fill="none" stroke="#63b8ff" d="M1610.46,-117.95C1589.21,-111.03 1565.64,-99.83 1550.08,-82 1538.42,-68.63 1533.85,-48.74 1532.09,-33.66"/>
<polygon fill="#63b8ff" stroke="#63b8ff" points="1535.54,-32.93 1531.23,-23.25 1528.57,-33.51 1535.54,-32.93"/>
</a>
</g>
</g>
<!-- Node22&#45;&gt;Node16 -->
<g id="edge33_Node000022_Node000016" class="edge">
<title>Node22&#45;&gt;Node16</title>
<g id="a_edge33_Node000022_Node000016"><a xlink:title=" ">
<path fill="none" stroke="#63b8ff" d="M1678.27,-117.78C1693.66,-109.18 1715.48,-96.99 1732.86,-87.28"/>
<polygon fill="#63b8ff" stroke="#63b8ff" points="1734.96,-90.11 1741.99,-82.17 1731.55,-84 1734.96,-90.11"/>
</a>
</g>
</g>
<!-- Node23 -->
<g id="Node000023" class="node">
<title>Node23</title>
<g id="a_Node000023"><a xlink:title=" ">
<polygon fill="#e0e0e0" stroke="#999999" points="1633.08,-82 1559.08,-82 1559.08,-59 1633.08,-59 1633.08,-82"/>
<text text-anchor="middle" x="1596.08" y="-66.8" font-family="Arial" font-size="14.00">functional</text>
</a>
</g>
</g>
<!-- Node22&#45;&gt;Node23 -->
<g id="edge31_Node000022_Node000023" class="edge">
<title>Node22&#45;&gt;Node23</title>
<g id="a_edge31_Node000022_Node000023"><a xlink:title=" ">
<path fill="none" stroke="#63b8ff" d="M1647.23,-117.78C1638.26,-109.66 1625.74,-98.33 1615.33,-88.92"/>
<polygon fill="#63b8ff" stroke="#63b8ff" points="1617.65,-86.29 1607.88,-82.17 1612.95,-91.48 1617.65,-86.29"/>
</a>
</g>
</g>
<!-- Node24 -->
<g id="Node000024" class="node">
<title>Node24</title>
<g id="a_Node000024"><a xlink:title=" ">
<polygon fill="#e0e0e0" stroke="#999999" points="1701.08,-82 1651.08,-82 1651.08,-59 1701.08,-59 1701.08,-82"/>
<text text-anchor="middle" x="1676.08" y="-66.8" font-family="Arial" font-size="14.00">string</text>
</a>
</g>
</g>
<!-- Node22&#45;&gt;Node24 -->
<g id="edge32_Node000022_Node000024" class="edge">
<title>Node22&#45;&gt;Node24</title>
<g id="a_edge32_Node000022_Node000024"><a xlink:title=" ">
<path fill="none" stroke="#63b8ff" d="M1662.28,-117.78C1664.44,-110.53 1667.37,-100.74 1669.96,-92.02"/>
<polygon fill="#63b8ff" stroke="#63b8ff" points="1673.4,-92.76 1672.9,-82.17 1666.69,-90.76 1673.4,-92.76"/>
</a>
</g>
</g>
<!-- Node25&#45;&gt;Node18 -->
<g id="edge44_Node000025_Node000018" class="edge">
<title>Node25&#45;&gt;Node18</title>
<g id="a_edge44_Node000025_Node000018"><a xlink:title=" ">
<path fill="none" stroke="#63b8ff" d="M683.81,-182.14C831.17,-171.27 1163.51,-146.76 1311.09,-135.88"/>
<polygon fill="#63b8ff" stroke="#63b8ff" points="1311.68,-139.35 1321.4,-135.12 1311.17,-132.37 1311.68,-139.35"/>
</a>
</g>
</g>
<!-- Node25&#45;&gt;Node20 -->
<g id="edge52_Node000025_Node000020" class="edge">
<title>Node25&#45;&gt;Node20</title>
<g id="a_edge52_Node000025_Node000020"><a xlink:title=" ">
<path fill="none" stroke="#63b8ff" d="M683.66,-184.16C792.58,-178.39 987.87,-164.84 1009.08,-141 1026.88,-121 997.35,-100.09 970.69,-86.5"/>
<polygon fill="#63b8ff" stroke="#63b8ff" points="971.99,-83.23 961.46,-82.01 968.92,-89.53 971.99,-83.23"/>
</a>
</g>
</g>
<!-- Node25&#45;&gt;Node22 -->
<g id="edge43_Node000025_Node000022" class="edge">
<title>Node25&#45;&gt;Node22</title>
<g id="a_edge43_Node000025_Node000022"><a xlink:title=" ">
<path fill="none" stroke="#63b8ff" d="M683.95,-183.54C877.66,-173 1403.43,-144.4 1591.25,-134.19"/>
<polygon fill="#63b8ff" stroke="#63b8ff" points="1591.48,-137.68 1601.27,-133.64 1591.1,-130.69 1591.48,-137.68"/>
</a>
</g>
</g>
<!-- Node26 -->
<g id="Node000026" class="node">
<title>Node26</title>
<g id="a_Node000026"><a xlink:title=" ">
<polygon fill="#e0e0e0" stroke="#999999" points="547.08,-141 457.08,-141 457.08,-118 547.08,-118 547.08,-141"/>
<text text-anchor="middle" x="502.08" y="-125.8" font-family="Arial" font-size="14.00">esp_event.h</text>
</a>
</g>
</g>
<!-- Node25&#45;&gt;Node26 -->
<g id="edge35_Node000025_Node000026" class="edge">
<title>Node25&#45;&gt;Node26</title>
<g id="a_edge35_Node000025_Node000026"><a xlink:title=" ">
<path fill="none" stroke="#63b8ff" d="M590.84,-176.91C574.09,-168.15 550.08,-155.6 531.26,-145.76"/>
<polygon fill="#63b8ff" stroke="#63b8ff" points="532.71,-142.56 522.22,-141.03 529.46,-148.77 532.71,-142.56"/>
</a>
</g>
</g>
<!-- Node27 -->
<g id="Node000027" class="node">
<title>Node27</title>
<g id="a_Node000027"><a xlink:title=" ">
<polygon fill="#e0e0e0" stroke="#999999" points="656.58,-141 565.58,-141 565.58,-118 656.58,-118 656.58,-141"/>
<text text-anchor="middle" x="611.08" y="-125.8" font-family="Arial" font-size="14.00">esp_mesh.h</text>
</a>
</g>
</g>
<!-- Node25&#45;&gt;Node27 -->
<g id="edge36_Node000025_Node000027" class="edge">
<title>Node25&#45;&gt;Node27</title>
<g id="a_edge36_Node000025_Node000027"><a xlink:title=" ">
<path fill="none" stroke="#63b8ff" d="M611.08,-176.78C611.08,-169.61 611.08,-159.95 611.08,-151.31"/>
<polygon fill="#63b8ff" stroke="#63b8ff" points="614.58,-151.17 611.08,-141.17 607.58,-151.17 614.58,-151.17"/>
</a>
</g>
</g>
<!-- Node28 -->
<g id="Node000028" class="node">
<title>Node28</title>
<g id="a_Node000028"><a xlink:title=" ">
<polygon fill="#e0e0e0" stroke="#999999" points="757.58,-141 674.58,-141 674.58,-118 757.58,-118 757.58,-141"/>
<text text-anchor="middle" x="716.08" y="-125.8" font-family="Arial" font-size="14.00">esp_netif.h</text>
</a>
</g>
</g>
<!-- Node25&#45;&gt;Node28 -->
<g id="edge37_Node000025_Node000028" class="edge">
<title>Node25&#45;&gt;Node28</title>
<g id="a_edge37_Node000025_Node000028"><a xlink:title=" ">
<path fill="none" stroke="#63b8ff" d="M630.83,-176.78C646.82,-168.1 669.55,-155.76 687.52,-146.01"/>
<polygon fill="#63b8ff" stroke="#63b8ff" points="689.3,-149.02 696.42,-141.17 685.97,-142.87 689.3,-149.02"/>
</a>
</g>
</g>
<!-- Node29 -->
<g id="Node000029" class="node">
<title>Node29</title>
<g id="a_Node000029"><a xlink:title=" ">
<polygon fill="#e0e0e0" stroke="#999999" points="904.08,-141 776.08,-141 776.08,-118 904.08,-118 904.08,-141"/>
<text text-anchor="middle" x="840.08" y="-125.8" font-family="Arial" font-size="14.00">esp_smartconfig.h</text>
</a>
</g>
</g>
<!-- Node25&#45;&gt;Node29 -->
<g id="edge38_Node000025_Node000029" class="edge">
<title>Node25&#45;&gt;Node29</title>
<g id="a_edge38_Node000025_Node000029"><a xlink:title=" ">
<path fill="none" stroke="#63b8ff" d="M653.35,-176.98C691.32,-167.53 747.19,-153.62 787.93,-143.48"/>
<polygon fill="#63b8ff" stroke="#63b8ff" points="788.82,-146.87 797.67,-141.06 787.13,-140.08 788.82,-146.87"/>
</a>
</g>
</g>
<!-- Node30 -->
<g id="Node000030" class="node">
<title>Node30</title>
<g id="a_Node000030"><a xlink:title=" ">
<polygon fill="#e0e0e0" stroke="#999999" points="999.58,-141 922.58,-141 922.58,-118 999.58,-118 999.58,-141"/>
<text text-anchor="middle" x="961.08" y="-125.8" font-family="Arial" font-size="14.00">esp_wifi.h</text>
</a>
</g>
</g>
<!-- Node25&#45;&gt;Node30 -->
<g id="edge39_Node000025_Node000030" class="edge">
<title>Node25&#45;&gt;Node30</title>
<g id="a_edge39_Node000025_Node000030"><a xlink:title=" ">
<path fill="none" stroke="#63b8ff" d="M683.61,-177.63C742.58,-169.31 828.17,-156.56 912.36,-141.05"/>
<polygon fill="#63b8ff" stroke="#63b8ff" points="913.16,-144.46 922.35,-139.19 911.88,-137.57 913.16,-144.46"/>
</a>
</g>
</g>
<!-- Node31 -->
<g id="Node000031" class="node">
<title>Node31</title>
<g id="a_Node000031"><a xlink:title=" ">
<polygon fill="#e0e0e0" stroke="#999999" points="85.58,-141 14.58,-141 14.58,-118 85.58,-118 85.58,-141"/>
<text text-anchor="middle" x="50.08" y="-125.8" font-family="Arial" font-size="14.00">lwip/err.h</text>
</a>
</g>
</g>
<!-- Node25&#45;&gt;Node31 -->
<g id="edge40_Node000025_Node000031" class="edge">
<title>Node25&#45;&gt;Node31</title>
<g id="a_edge40_Node000025_Node000031"><a xlink:title=" ">
<path fill="none" stroke="#63b8ff" d="M538.48,-184.15C440.29,-178.91 259.65,-166.77 96.11,-140.96"/>
<polygon fill="#63b8ff" stroke="#63b8ff" points="96.28,-137.44 85.86,-139.32 95.18,-144.36 96.28,-137.44"/>
</a>
</g>
</g>
<!-- Node32 -->
<g id="Node000032" class="node">
<title>Node32</title>
<g id="a_Node000032"><a xlink:title=" ">
<polygon fill="#e0e0e0" stroke="#999999" points="178.58,-141 103.58,-141 103.58,-118 178.58,-118 178.58,-141"/>
<text text-anchor="middle" x="141.08" y="-125.8" font-family="Arial" font-size="14.00">lwip/sys.h</text>
</a>
</g>
</g>
<!-- Node25&#45;&gt;Node32 -->
<g id="edge41_Node000025_Node000032" class="edge">
<title>Node25&#45;&gt;Node32</title>
<g id="a_edge41_Node000025_Node000032"><a xlink:title=" ">
<path fill="none" stroke="#63b8ff" d="M538.52,-181.97C456.15,-175.15 317.6,-162 188.77,-140.95"/>
<polygon fill="#63b8ff" stroke="#63b8ff" points="189.16,-137.47 178.72,-139.29 188.02,-144.38 189.16,-137.47"/>
</a>
</g>
</g>
<!-- Node33 -->
<g id="Node000033" class="node">
<title>Node33</title>
<g id="a_Node000033"><a xlink:title=" ">
<polygon fill="#e0e0e0" stroke="#999999" points="281.58,-141 196.58,-141 196.58,-118 281.58,-118 281.58,-141"/>
<text text-anchor="middle" x="239.08" y="-125.8" font-family="Arial" font-size="14.00">nvs_flash.h</text>
</a>
</g>
</g>
<!-- Node25&#45;&gt;Node33 -->
<g id="edge42_Node000025_Node000033" class="edge">
<title>Node25&#45;&gt;Node33</title>
<g id="a_edge42_Node000025_Node000033"><a xlink:title=" ">
<path fill="none" stroke="#63b8ff" d="M538.46,-178.1C475.77,-169.73 382.55,-156.64 291.55,-141.01"/>
<polygon fill="#63b8ff" stroke="#63b8ff" points="292.07,-137.54 281.62,-139.29 290.87,-144.44 292.07,-137.54"/>
</a>
</g>
</g>
<!-- Node34 -->
<g id="Node000034" class="node">
<title>Node34</title>
<g id="a_Node000034"><a xlink:href="RtosMutex_8h.html" target="_top" xlink:title="Cross&#45;platform RTOS mutex and synchronization primitives.">
<polygon fill="white" stroke="#666666" points="1177.58,-141 1056.58,-141 1056.58,-118 1177.58,-118 1177.58,-141"/>
<text text-anchor="middle" x="1117.08" y="-125.8" font-family="Arial" font-size="14.00">utils/RtosMutex.h</text>
</a>
</g>
</g>
<!-- Node25&#45;&gt;Node34 -->
<g id="edge45_Node000025_Node000034" class="edge">
<title>Node25&#45;&gt;Node34</title>
<g id="a_edge45_Node000025_Node000034"><a xlink:title=" ">
<path fill="none" stroke="#63b8ff" d="M683.61,-180.38C769.33,-171.81 916.23,-156.59 1042.08,-141 1043.55,-140.82 1045.04,-140.63 1046.53,-140.44"/>
<polygon fill="#63b8ff" stroke="#63b8ff" points="1047.06,-143.9 1056.52,-139.15 1046.16,-136.96 1047.06,-143.9"/>
</a>
</g>
</g>
<!-- Node35 -->
<g id="Node000035" class="node">
<title>Node35</title>
<g id="a_Node000035"><a xlink:title=" ">
<polygon fill="#e0e0e0" stroke="#999999" points="366.58,-141 299.58,-141 299.58,-118 366.58,-118 366.58,-141"/>
<text text-anchor="middle" x="333.08" y="-125.8" font-family="Arial" font-size="14.00">memory</text>
</a>
</g>
</g>
<!-- Node25&#45;&gt;Node35 -->
<g id="edge53_Node000025_Node000035" class="edge">
<title>Node25&#45;&gt;Node35</title>
<g id="a_edge53_Node000025_Node000035"><a xlink:title=" ">
<path fill="none" stroke="#63b8ff" d="M553.95,-176.93C508.51,-168.35 443.08,-155.63 376.66,-141.06"/>
<polygon fill="#63b8ff" stroke="#63b8ff" points="377.37,-137.63 366.85,-138.89 375.86,-144.47 377.37,-137.63"/>
</a>
</g>
</g>
<!-- Node36 -->
<g id="Node000036" class="node">
<title>Node36</title>
<g id="a_Node000036"><a xlink:title=" ">
<polygon fill="#e0e0e0" stroke="#999999" points="439.08,-141 385.08,-141 385.08,-118 439.08,-118 439.08,-141"/>
<text text-anchor="middle" x="412.08" y="-125.8" font-family="Arial" font-size="14.00">queue</text>
</a>
</g>
</g>
<!-- Node25&#45;&gt;Node36 -->
<g id="edge54_Node000025_Node000036" class="edge">
<title>Node25&#45;&gt;Node36</title>
<g id="a_edge54_Node000025_Node000036"><a xlink:title=" ">
<path fill="none" stroke="#63b8ff" d="M573.84,-176.94C542.86,-168.15 497.34,-155.18 448.92,-141.23"/>
<polygon fill="#63b8ff" stroke="#63b8ff" points="449.78,-137.84 439.21,-138.43 447.84,-144.56 449.78,-137.84"/>
</a>
</g>
</g>
<!-- Node34&#45;&gt;Node5 -->
<g id="edge47_Node000034_Node000005" class="edge">
<title>Node34&#45;&gt;Node5</title>
<g id="a_edge47_Node000034_Node000005"><a xlink:title=" ">
<path fill="none" stroke="#63b8ff" d="M1112.57,-117.78C1109.45,-110.37 1105.21,-100.3 1101.48,-91.45"/>
<polygon fill="#63b8ff" stroke="#63b8ff" points="1104.69,-90.03 1097.58,-82.17 1098.23,-92.75 1104.69,-90.03"/>
</a>
</g>
</g>
<!-- Node34&#45;&gt;Node7 -->
<g id="edge48_Node000034_Node000007" class="edge">
<title>Node34&#45;&gt;Node7</title>
<g id="a_edge48_Node000034_Node000007"><a xlink:title=" ">
<path fill="none" stroke="#63b8ff" d="M1140.67,-117.91C1160.55,-108.99 1189.18,-96.14 1211.29,-86.22"/>
<polygon fill="#63b8ff" stroke="#63b8ff" points="1212.93,-89.32 1220.62,-82.03 1210.06,-82.93 1212.93,-89.32"/>
</a>
</g>
</g>
<!-- Node34&#45;&gt;Node8 -->
<g id="edge49_Node000034_Node000008" class="edge">
<title>Node34&#45;&gt;Node8</title>
<g id="a_edge49_Node000034_Node000008"><a xlink:title=" ">
<path fill="none" stroke="#63b8ff" d="M1056.56,-122.41C1041.08,-120.91 1024.47,-119.35 1009.08,-118 813.45,-100.87 581.46,-83.7 473.3,-75.88"/>
<polygon fill="#63b8ff" stroke="#63b8ff" points="473.45,-72.38 463.22,-75.15 472.94,-79.36 473.45,-72.38"/>
</a>
</g>
</g>
<!-- Node34&#45;&gt;Node10 -->
<g id="edge51_Node000034_Node000010" class="edge">
<title>Node34&#45;&gt;Node10</title>
<g id="a_edge51_Node000034_Node000010"><a xlink:title=" ">
<path fill="none" stroke="#63b8ff" d="M1076.42,-117.99C1037.89,-106.16 989.2,-85.12 1013.08,-59 1045.32,-23.74 1378.3,-15 1492.72,-13.03"/>
<polygon fill="#63b8ff" stroke="#63b8ff" points="1492.84,-16.53 1502.78,-12.86 1492.73,-9.53 1492.84,-16.53"/>
</a>
</g>
</g>
<!-- Node34&#45;&gt;Node19 -->
<g id="edge46_Node000034_Node000019" class="edge">
<title>Node34&#45;&gt;Node19</title>
<g id="a_edge46_Node000034_Node000019"><a xlink:title=" ">
<path fill="none" stroke="#63b8ff" d="M1175.23,-117.98C1228.64,-108.31 1307.82,-93.99 1364.13,-83.8"/>
<polygon fill="#63b8ff" stroke="#63b8ff" points="1364.8,-87.23 1374.01,-82.01 1363.55,-80.34 1364.8,-87.23"/>
</a>
</g>
</g>
<!-- Node34&#45;&gt;Node20 -->
<g id="edge50_Node000034_Node000020" class="edge">
<title>Node34&#45;&gt;Node20</title>
<g id="a_edge50_Node000034_Node000020"><a xlink:title=" ">
<path fill="none" stroke="#63b8ff" d="M1083.46,-117.91C1052.52,-108.17 1006.65,-93.72 974.32,-83.54"/>
<polygon fill="#63b8ff" stroke="#63b8ff" points="975.35,-80.19 964.76,-80.53 973.24,-86.87 975.35,-80.19"/>
</a>
</g>
</g>
</g>
</svg>

<g id="navigator" transform="translate(0 0)" fill="#404254">
  <rect fill="#f2f5e9" fill-opacity="0.5" stroke="#606060" stroke-width=".5" x="0" y="0" width="60" height="60"/>
  <use id="zoomplus" xlink:href="#zoomPlus" x="17" y="9" onmousedown="handleZoom(evt,'in')"/>
  <use id="zoomminus" xlink:href="#zoomMin" x="42" y="9" onmousedown="handleZoom(evt,'out')"/>
  <use id="reset" xlink:href="#resetDef" x="30" y="36" onmousedown="handleReset()"/>
   <use id="arrowup" xlink:href="#arrowUp" x="0" y="0" onmousedown="handlePan(0,-1)"/>
  <use id="arrowright" xlink:href="#arrowRight" x="0" y="0" onmousedown="handlePan(1,0)"/>
  <use id="arrowdown" xlink:href="#arrowDown" x="0" y="0" onmousedown="handlePan(0,1)"/>
  <use id="arrowleft" xlink:href="#arrowLeft" x="0" y="0" onmousedown="handlePan(-1,0)"/>
</g>
<svg viewBox="0 0 15 15" width="100%" height="30px" preserveAspectRatio="xMaxYMin meet">
 <g id="arrow_out" transform="scale(0.3 0.3)">
  <a xlink:href="WifiComprehensiveTest_8cpp__incl_org.svg" target="_base">
   <rect id="button" ry="5" rx="5" y="6" x="6" height="38" width="38"
        fill="#f2f5e9" fill-opacity="0.5" stroke="#606060" stroke-width="1.0"/>
   <path id="arrow"
     d="M 11.500037,31.436501 C 11.940474,20.09759 22.043105,11.32322 32.158766,21.979434 L 37.068811,17.246167 C 37.068811,17.246167 37.088388,32 37.088388,32 L 22.160133,31.978069 C 22.160133,31.978069 26.997745,27.140456 26.997745,27.140456 C 18.528582,18.264221 13.291696,25.230495 11.500037,31.436501 z"
     style="fill:#404040;"/>
  </a>
 </g>
</svg>

<style type='text/css'>
<![CDATA[
[data-mouse-over-selected='false'] { opacity: 0.7; }
[data-mouse-over-selected='true']  { opacity: 1.0; }
]]>
</style>
<script type="application/ecmascript"><![CDATA[
document.addEventListener('DOMContentLoaded', (event) => {
  highlightEdges();
  highlightAdjacentNodes();
});
]]></script>
</svg>
