<?xml version="1.0" encoding="UTF-8" standalone="no"?>
<!DOCTYPE svg PUBLIC "-//W3C//DTD SVG 1.1//EN"
 "http://www.w3.org/Graphics/SVG/1.1/DTD/svg11.dtd">
<!-- Generated by graphviz version 2.43.0 (0)
 -->
<!-- Title: inc/base/BaseUart.h Pages: 1 -->
<svg width="444pt" height="149pt"
 viewBox="0.00 0.00 444.00 149.00" xmlns="http://www.w3.org/2000/svg" xmlns:xlink="http://www.w3.org/1999/xlink">

<svg id="main" version="1.1" xmlns="http://www.w3.org/2000/svg" xmlns:xlink="http://www.w3.org/1999/xlink" xml:space="preserve" onload="init(evt)">
<style type="text/css"><![CDATA[
.node, .edge {opacity: 0.7;}
.node.selected, .edge.selected {opacity: 1;}
.edge:hover path { stroke: red; }
.edge:hover polygon { stroke: red; fill: red; }
]]></style>
<script type="application/ecmascript" xlink:href="svg.min.js"/>
<svg id="graph" class="graph">
<g id="graph0" class="graph" transform="scale(1 1) rotate(0) translate(4 145)">
<title>inc/base/BaseUart.h</title>
<!-- Node1 -->
<g id="Node000001" class="node">
<title>Node1</title>
<g id="a_Node000001"><a xlink:title="Abstract base class for UART driver implementations in the HardFOC system.">
<polygon fill="#999999" stroke="#666666" points="283,-141 145,-141 145,-118 283,-118 283,-141"/>
<text text-anchor="middle" x="214" y="-125.8" font-family="Arial" font-size="14.00">inc/base/BaseUart.h</text>
</a>
</g>
</g>
<!-- Node2 -->
<g id="Node000002" class="node">
<title>Node2</title>
<g id="a_Node000002"><a xlink:href="HardwareTypes_8h.html" target="_top" xlink:title="Platform&#45;agnostic hardware type definitions for the HardFOC system.">
<polygon fill="white" stroke="#666666" points="168,-82 46,-82 46,-59 168,-59 168,-82"/>
<text text-anchor="middle" x="107" y="-66.8" font-family="Arial" font-size="14.00">HardwareTypes.h</text>
</a>
</g>
</g>
<!-- Node1&#45;&gt;Node2 -->
<g id="edge1_Node000001_Node000002" class="edge">
<title>Node1&#45;&gt;Node2</title>
<g id="a_edge1_Node000001_Node000002"><a xlink:title=" ">
<path fill="none" stroke="#63b8ff" d="M194.12,-117.91C177.68,-109.15 154.12,-96.6 135.64,-86.76"/>
<polygon fill="#63b8ff" stroke="#63b8ff" points="137.24,-83.64 126.77,-82.03 133.95,-89.82 137.24,-83.64"/>
</a>
</g>
</g>
<!-- Node3 -->
<g id="Node000003" class="node">
<title>Node3</title>
<g id="a_Node000003"><a xlink:title=" ">
<polygon fill="#e0e0e0" stroke="#999999" points="56,-23 0,-23 0,0 56,0 56,-23"/>
<text text-anchor="middle" x="28" y="-7.8" font-family="Arial" font-size="14.00">cstdint</text>
</a>
</g>
</g>
<!-- Node1&#45;&gt;Node3 -->
<g id="edge4_Node000001_Node000003" class="edge">
<title>Node1&#45;&gt;Node3</title>
<g id="a_edge4_Node000001_Node000003"><a xlink:title=" ">
<path fill="none" stroke="#63b8ff" d="M144.61,-118.38C101.42,-110.6 51.42,-98.4 37,-82 25.43,-68.84 24.03,-48.49 25.02,-33.2"/>
<polygon fill="#63b8ff" stroke="#63b8ff" points="28.51,-33.45 26.05,-23.14 21.55,-32.73 28.51,-33.45"/>
</a>
</g>
</g>
<!-- Node5 -->
<g id="Node000005" class="node">
<title>Node5</title>
<g id="a_Node000005"><a xlink:title=" ">
<polygon fill="#e0e0e0" stroke="#999999" points="242,-82 186,-82 186,-59 242,-59 242,-82"/>
<text text-anchor="middle" x="214" y="-66.8" font-family="Arial" font-size="14.00">cstring</text>
</a>
</g>
</g>
<!-- Node1&#45;&gt;Node5 -->
<g id="edge5_Node000001_Node000005" class="edge">
<title>Node1&#45;&gt;Node5</title>
<g id="a_edge5_Node000001_Node000005"><a xlink:title=" ">
<path fill="none" stroke="#63b8ff" d="M214,-117.78C214,-110.61 214,-100.95 214,-92.31"/>
<polygon fill="#63b8ff" stroke="#63b8ff" points="217.5,-92.17 214,-82.17 210.5,-92.17 217.5,-92.17"/>
</a>
</g>
</g>
<!-- Node6 -->
<g id="Node000006" class="node">
<title>Node6</title>
<g id="a_Node000006"><a xlink:title=" ">
<polygon fill="#e0e0e0" stroke="#999999" points="334,-82 260,-82 260,-59 334,-59 334,-82"/>
<text text-anchor="middle" x="297" y="-66.8" font-family="Arial" font-size="14.00">functional</text>
</a>
</g>
</g>
<!-- Node1&#45;&gt;Node6 -->
<g id="edge6_Node000001_Node000006" class="edge">
<title>Node1&#45;&gt;Node6</title>
<g id="a_edge6_Node000001_Node000006"><a xlink:title=" ">
<path fill="none" stroke="#63b8ff" d="M229.61,-117.78C241.78,-109.42 258.9,-97.66 272.84,-88.09"/>
<polygon fill="#63b8ff" stroke="#63b8ff" points="275.2,-90.72 281.46,-82.17 271.23,-84.95 275.2,-90.72"/>
</a>
</g>
</g>
<!-- Node7 -->
<g id="Node000007" class="node">
<title>Node7</title>
<g id="a_Node000007"><a xlink:title=" ">
<polygon fill="#e0e0e0" stroke="#999999" points="436,-82 352,-82 352,-59 436,-59 436,-82"/>
<text text-anchor="middle" x="394" y="-66.8" font-family="Arial" font-size="14.00">string_view</text>
</a>
</g>
</g>
<!-- Node1&#45;&gt;Node7 -->
<g id="edge7_Node000001_Node000007" class="edge">
<title>Node1&#45;&gt;Node7</title>
<g id="a_edge7_Node000001_Node000007"><a xlink:title=" ">
<path fill="none" stroke="#63b8ff" d="M247.43,-117.91C276.61,-108.67 319.12,-95.21 350.85,-85.16"/>
<polygon fill="#63b8ff" stroke="#63b8ff" points="352.27,-88.39 360.74,-82.03 350.15,-81.71 352.27,-88.39"/>
</a>
</g>
</g>
<!-- Node2&#45;&gt;Node3 -->
<g id="edge2_Node000002_Node000003" class="edge">
<title>Node2&#45;&gt;Node3</title>
<g id="a_edge2_Node000002_Node000003"><a xlink:title=" ">
<path fill="none" stroke="#63b8ff" d="M92.14,-58.78C80.55,-50.42 64.26,-38.66 50.99,-29.09"/>
<polygon fill="#63b8ff" stroke="#63b8ff" points="52.95,-26.19 42.79,-23.17 48.85,-31.86 52.95,-26.19"/>
</a>
</g>
</g>
<!-- Node4 -->
<g id="Node000004" class="node">
<title>Node4</title>
<g id="a_Node000004"><a xlink:title=" ">
<polygon fill="#e0e0e0" stroke="#999999" points="131,-23 83,-23 83,0 131,0 131,-23"/>
<text text-anchor="middle" x="107" y="-7.8" font-family="Arial" font-size="14.00">limits</text>
</a>
</g>
</g>
<!-- Node2&#45;&gt;Node4 -->
<g id="edge3_Node000002_Node000004" class="edge">
<title>Node2&#45;&gt;Node4</title>
<g id="a_edge3_Node000002_Node000004"><a xlink:title=" ">
<path fill="none" stroke="#63b8ff" d="M107,-58.78C107,-51.61 107,-41.95 107,-33.31"/>
<polygon fill="#63b8ff" stroke="#63b8ff" points="110.5,-33.17 107,-23.17 103.5,-33.17 110.5,-33.17"/>
</a>
</g>
</g>
</g>
</svg>
</svg>

<style type='text/css'>
<![CDATA[
[data-mouse-over-selected='false'] { opacity: 0.7; }
[data-mouse-over-selected='true']  { opacity: 1.0; }
]]>
</style>
<script type="application/ecmascript"><![CDATA[
document.addEventListener('DOMContentLoaded', (event) => {
  highlightEdges();
  highlightAdjacentNodes();
});
]]></script>
</svg>
