<?xml version="1.0" encoding="UTF-8" standalone="no"?>
<!DOCTYPE svg PUBLIC "-//W3C//DTD SVG 1.1//EN"
 "http://www.w3.org/Graphics/SVG/1.1/DTD/svg11.dtd">
<!-- Generated by graphviz version 2.43.0 (0)
 -->
<!-- Title: inc/base/BaseSpi.h Pages: 1 -->
<svg width="2417pt" height="327pt"
 viewBox="0.00 0.00 2417.00 327.00" xmlns="http://www.w3.org/2000/svg" xmlns:xlink="http://www.w3.org/1999/xlink">
<g id="graph0" class="graph" transform="scale(1 1) rotate(0) translate(4 323)">
<title>inc/base/BaseSpi.h</title>
<!-- Node1 -->
<g id="Node000001" class="node">
<title>Node1</title>
<g id="a_Node000001"><a xlink:title="Abstract base class for SPI device implementations in the HardFOC system.">
<polygon fill="#999999" stroke="#666666" points="2284.5,-319 2152.5,-319 2152.5,-296 2284.5,-296 2284.5,-319"/>
<text text-anchor="middle" x="2218.5" y="-303.8" font-family="Arial" font-size="14.00">inc/base/BaseSpi.h</text>
</a>
</g>
</g>
<!-- Node2 -->
<g id="Node000002" class="node">
<title>Node2</title>
<g id="a_Node000002"><a xlink:href="SpiComprehensiveTest_8cpp.html" target="_top" xlink:title="Comprehensive SPI testing suite for ESP32&#45;C6 DevKit&#45;M&#45;1 (noexcept)">
<polygon fill="white" stroke="#666666" points="2409,-38 2224,-38 2224,0 2409,0 2409,-38"/>
<text text-anchor="start" x="2232" y="-22.8" font-family="Arial" font-size="14.00">examples/esp32/main</text>
<text text-anchor="middle" x="2316.5" y="-7.8" font-family="Arial" font-size="14.00">/SpiComprehensiveTest.cpp</text>
</a>
</g>
</g>
<!-- Node1&#45;&gt;Node2 -->
<g id="edge1_Node000001_Node000002" class="edge">
<title>Node1&#45;&gt;Node2</title>
<g id="a_edge1_Node000001_Node000002"><a xlink:title=" ">
<path fill="none" stroke="#63b8ff" d="M2257.22,-291.28C2270.92,-283.91 2285.03,-273.64 2293.5,-260 2337.99,-188.35 2326.69,-80.8 2319.87,-38.26"/>
<polygon fill="#63b8ff" stroke="#63b8ff" points="2255.26,-288.34 2247.86,-295.92 2258.38,-294.61 2255.26,-288.34"/>
</a>
</g>
</g>
<!-- Node3 -->
<g id="Node000003" class="node">
<title>Node3</title>
<g id="a_Node000003"><a xlink:href="EspSpi_8h.html" target="_top" xlink:title="Advanced MCU&#45;integrated SPI controller implementation with ESP32C6/ESP&#45;IDF v5.5+ features.">
<polygon fill="white" stroke="#666666" points="2199.5,-104.5 2037.5,-104.5 2037.5,-81.5 2199.5,-81.5 2199.5,-104.5"/>
<text text-anchor="middle" x="2118.5" y="-89.3" font-family="Arial" font-size="14.00">inc/mcu/esp32/EspSpi.h</text>
</a>
</g>
</g>
<!-- Node1&#45;&gt;Node3 -->
<g id="edge2_Node000001_Node000003" class="edge">
<title>Node1&#45;&gt;Node3</title>
<g id="a_edge2_Node000001_Node000003"><a xlink:title=" ">
<path fill="none" stroke="#63b8ff" d="M2180.88,-291.42C2167,-283.99 2152.49,-273.64 2143.5,-260 2110.47,-209.87 2114.41,-132.93 2117.21,-104.79"/>
<polygon fill="#63b8ff" stroke="#63b8ff" points="2179.33,-294.55 2189.84,-295.88 2182.45,-288.29 2179.33,-294.55"/>
</a>
</g>
</g>
<!-- Node5 -->
<g id="Node000005" class="node">
<title>Node5</title>
<g id="a_Node000005"><a xlink:href="EspTypes__SPI_8h.html" target="_top" xlink:title="ESP32 SPI type definitions for hardware abstraction.">
<polygon fill="white" stroke="#666666" points="2284.5,-260 2152.5,-260 2152.5,-222 2284.5,-222 2284.5,-260"/>
<text text-anchor="start" x="2160.5" y="-244.8" font-family="Arial" font-size="14.00">inc/mcu/esp32/utils</text>
<text text-anchor="middle" x="2218.5" y="-229.8" font-family="Arial" font-size="14.00">/EspTypes_SPI.h</text>
</a>
</g>
</g>
<!-- Node1&#45;&gt;Node5 -->
<g id="edge5_Node000001_Node000005" class="edge">
<title>Node1&#45;&gt;Node5</title>
<g id="a_edge5_Node000001_Node000005"><a xlink:title=" ">
<path fill="none" stroke="#63b8ff" d="M2218.5,-285.63C2218.5,-277.45 2218.5,-268.15 2218.5,-260.24"/>
<polygon fill="#63b8ff" stroke="#63b8ff" points="2215,-285.85 2218.5,-295.85 2222,-285.85 2215,-285.85"/>
</a>
</g>
</g>
<!-- Node3&#45;&gt;Node2 -->
<g id="edge3_Node000003_Node000002" class="edge">
<title>Node3&#45;&gt;Node2</title>
<g id="a_edge3_Node000003_Node000002"><a xlink:title=" ">
<path fill="none" stroke="#63b8ff" d="M2157.4,-77.85C2188.71,-66.47 2232.93,-50.39 2266.8,-38.07"/>
<polygon fill="#63b8ff" stroke="#63b8ff" points="2155.92,-74.67 2147.72,-81.38 2158.31,-81.25 2155.92,-74.67"/>
</a>
</g>
</g>
<!-- Node4 -->
<g id="Node000004" class="node">
<title>Node4</title>
<g id="a_Node000004"><a xlink:href="EspSpi_8cpp.html" target="_top" xlink:title="Implementation of MCU&#45;integrated SPI controller for ESP32C6 with ESP&#45;IDF v5.5+ features.">
<polygon fill="white" stroke="#666666" points="2206,-30.5 2029,-30.5 2029,-7.5 2206,-7.5 2206,-30.5"/>
<text text-anchor="middle" x="2117.5" y="-15.3" font-family="Arial" font-size="14.00">src/mcu/esp32/EspSpi.cpp</text>
</a>
</g>
</g>
<!-- Node3&#45;&gt;Node4 -->
<g id="edge4_Node000003_Node000004" class="edge">
<title>Node3&#45;&gt;Node4</title>
<g id="a_edge4_Node000003_Node000004"><a xlink:title=" ">
<path fill="none" stroke="#63b8ff" d="M2118.21,-71.23C2118.03,-57.97 2117.8,-41.32 2117.65,-30.67"/>
<polygon fill="#63b8ff" stroke="#63b8ff" points="2114.71,-71.43 2118.35,-81.38 2121.71,-71.33 2114.71,-71.43"/>
</a>
</g>
</g>
<!-- Node5&#45;&gt;Node2 -->
<g id="edge6_Node000005_Node000002" class="edge">
<title>Node5&#45;&gt;Node2</title>
<g id="a_edge6_Node000005_Node000002"><a xlink:title=" ">
<path fill="none" stroke="#63b8ff" d="M2230.64,-212.74C2250.92,-167.21 2291.15,-76.91 2308.37,-38.25"/>
<polygon fill="#63b8ff" stroke="#63b8ff" points="2227.39,-211.44 2226.52,-222 2233.79,-214.29 2227.39,-211.44"/>
</a>
</g>
</g>
<!-- Node6 -->
<g id="Node000006" class="node">
<title>Node6</title>
<g id="a_Node000006"><a xlink:href="EspTypes_8h.html" target="_top" xlink:title="Consolidated MCU&#45;specific type definitions for hardware abstraction (hf_* types).">
<polygon fill="white" stroke="#666666" points="1483.5,-186 1351.5,-186 1351.5,-148 1483.5,-148 1483.5,-186"/>
<text text-anchor="start" x="1359.5" y="-170.8" font-family="Arial" font-size="14.00">inc/mcu/esp32/utils</text>
<text text-anchor="middle" x="1417.5" y="-155.8" font-family="Arial" font-size="14.00">/EspTypes.h</text>
</a>
</g>
</g>
<!-- Node5&#45;&gt;Node6 -->
<g id="edge7_Node000005_Node000006" class="edge">
<title>Node5&#45;&gt;Node6</title>
<g id="a_edge7_Node000005_Node000006"><a xlink:title=" ">
<path fill="none" stroke="#63b8ff" d="M2142.26,-233.15C1985.81,-219.08 1630.87,-187.18 1483.53,-173.94"/>
<polygon fill="#63b8ff" stroke="#63b8ff" points="2142,-236.64 2152.27,-234.05 2142.62,-229.67 2142,-236.64"/>
</a>
</g>
</g>
<!-- Node6&#45;&gt;Node3 -->
<g id="edge20_Node000006_Node000003" class="edge">
<title>Node6&#45;&gt;Node3</title>
<g id="a_edge20_Node000006_Node000003"><a xlink:title=" ">
<path fill="none" stroke="#63b8ff" d="M1493.89,-158.15C1627.13,-144.47 1900.82,-116.36 2037.34,-102.34"/>
<polygon fill="#63b8ff" stroke="#63b8ff" points="1493.35,-154.69 1483.76,-159.19 1494.07,-161.65 1493.35,-154.69"/>
</a>
</g>
</g>
<!-- Node7 -->
<g id="Node000007" class="node">
<title>Node7</title>
<g id="a_Node000007"><a xlink:href="EspAdc_8h.html" target="_top" xlink:title="ESP32 ADC implementation for the HardFOC system.">
<polygon fill="white" stroke="#666666" points="790.5,-104.5 624.5,-104.5 624.5,-81.5 790.5,-81.5 790.5,-104.5"/>
<text text-anchor="middle" x="707.5" y="-89.3" font-family="Arial" font-size="14.00">inc/mcu/esp32/EspAdc.h</text>
</a>
</g>
</g>
<!-- Node6&#45;&gt;Node7 -->
<g id="edge8_Node000006_Node000007" class="edge">
<title>Node6&#45;&gt;Node7</title>
<g id="a_edge8_Node000006_Node000007"><a xlink:title=" ">
<path fill="none" stroke="#63b8ff" d="M1341.14,-158.26C1206.84,-144.64 929.44,-116.51 790.54,-102.42"/>
<polygon fill="#63b8ff" stroke="#63b8ff" points="1341.04,-161.76 1351.34,-159.29 1341.75,-154.8 1341.04,-161.76"/>
</a>
</g>
</g>
<!-- Node10 -->
<g id="Node000010" class="node">
<title>Node10</title>
<g id="a_Node000010"><a xlink:href="EspI2c_8h.html" target="_top" xlink:title="Advanced ESP32&#45;integrated I2C controller for ESP&#45;IDF v5.5+ with proper bus&#45;device architecture.">
<polygon fill="white" stroke="#666666" points="1187,-104.5 1026,-104.5 1026,-81.5 1187,-81.5 1187,-104.5"/>
<text text-anchor="middle" x="1106.5" y="-89.3" font-family="Arial" font-size="14.00">inc/mcu/esp32/EspI2c.h</text>
</a>
</g>
</g>
<!-- Node6&#45;&gt;Node10 -->
<g id="edge11_Node000006_Node000010" class="edge">
<title>Node6&#45;&gt;Node10</title>
<g id="a_edge11_Node000006_Node000010"><a xlink:title=" ">
<path fill="none" stroke="#63b8ff" d="M1341.1,-148.31C1281.85,-134.6 1201.72,-116.04 1152.11,-104.56"/>
<polygon fill="#63b8ff" stroke="#63b8ff" points="1340.63,-151.8 1351.16,-150.64 1342.21,-144.98 1340.63,-151.8"/>
</a>
</g>
</g>
<!-- Node13 -->
<g id="Node000013" class="node">
<title>Node13</title>
<g id="a_Node000013"><a xlink:href="EspPeriodicTimer_8h.html" target="_top" xlink:title="MCU&#45;integrated periodic timer implementation.">
<polygon fill="white" stroke="#666666" points="1507.5,-112 1327.5,-112 1327.5,-74 1507.5,-74 1507.5,-112"/>
<text text-anchor="start" x="1335.5" y="-96.8" font-family="Arial" font-size="14.00">inc/mcu/esp32/EspPeriodic</text>
<text text-anchor="middle" x="1417.5" y="-81.8" font-family="Arial" font-size="14.00">Timer.h</text>
</a>
</g>
</g>
<!-- Node6&#45;&gt;Node13 -->
<g id="edge14_Node000006_Node000013" class="edge">
<title>Node6&#45;&gt;Node13</title>
<g id="a_edge14_Node000006_Node000013"><a xlink:title=" ">
<path fill="none" stroke="#63b8ff" d="M1417.5,-137.57C1417.5,-129.11 1417.5,-120.06 1417.5,-112.41"/>
<polygon fill="#63b8ff" stroke="#63b8ff" points="1414,-137.83 1417.5,-147.83 1421,-137.83 1414,-137.83"/>
</a>
</g>
</g>
<!-- Node16 -->
<g id="Node000016" class="node">
<title>Node16</title>
<g id="a_Node000016"><a xlink:href="EspPio_8h.html" target="_top" xlink:title="ESP32C6 RMT&#45;based Programmable IO Channel implementation with ESP&#45;IDF v5.5+ features.">
<polygon fill="white" stroke="#666666" points="1804.5,-104.5 1642.5,-104.5 1642.5,-81.5 1804.5,-81.5 1804.5,-104.5"/>
<text text-anchor="middle" x="1723.5" y="-89.3" font-family="Arial" font-size="14.00">inc/mcu/esp32/EspPio.h</text>
</a>
</g>
</g>
<!-- Node6&#45;&gt;Node16 -->
<g id="edge17_Node000006_Node000016" class="edge">
<title>Node6&#45;&gt;Node16</title>
<g id="a_edge17_Node000006_Node000016"><a xlink:title=" ">
<path fill="none" stroke="#63b8ff" d="M1493.43,-148.13C1551.74,-134.41 1630.27,-115.94 1678.85,-104.51"/>
<polygon fill="#63b8ff" stroke="#63b8ff" points="1492.45,-144.77 1483.52,-150.47 1494.06,-151.58 1492.45,-144.77"/>
</a>
</g>
</g>
<!-- Node19 -->
<g id="Node000019" class="node">
<title>Node19</title>
<g id="a_Node000019"><a xlink:href="EspUart_8h.html" target="_top" xlink:title="ESP32 UART implementation for the HardFOC system.">
<polygon fill="white" stroke="#666666" points="384.5,-104.5 216.5,-104.5 216.5,-81.5 384.5,-81.5 384.5,-104.5"/>
<text text-anchor="middle" x="300.5" y="-89.3" font-family="Arial" font-size="14.00">inc/mcu/esp32/EspUart.h</text>
</a>
</g>
</g>
<!-- Node6&#45;&gt;Node19 -->
<g id="edge21_Node000006_Node000019" class="edge">
<title>Node6&#45;&gt;Node19</title>
<g id="a_edge21_Node000006_Node000019"><a xlink:title=" ">
<path fill="none" stroke="#63b8ff" d="M1341.19,-161.08C1139.71,-148.09 594.57,-112.96 384.56,-99.42"/>
<polygon fill="#63b8ff" stroke="#63b8ff" points="1341.18,-164.59 1351.38,-161.74 1341.63,-157.6 1341.18,-164.59"/>
</a>
</g>
</g>
<!-- Node8 -->
<g id="Node000008" class="node">
<title>Node8</title>
<g id="a_Node000008"><a xlink:href="AdcComprehensiveTest_8cpp.html" target="_top" xlink:title="Comprehensive ADC testing suite for ESP32&#45;C6 DevKit&#45;M&#45;1 (noexcept)">
<polygon fill="white" stroke="#666666" points="599,-38 410,-38 410,0 599,0 599,-38"/>
<text text-anchor="start" x="418" y="-22.8" font-family="Arial" font-size="14.00">examples/esp32/main</text>
<text text-anchor="middle" x="504.5" y="-7.8" font-family="Arial" font-size="14.00">/AdcComprehensiveTest.cpp</text>
</a>
</g>
</g>
<!-- Node7&#45;&gt;Node8 -->
<g id="edge9_Node000007_Node000008" class="edge">
<title>Node7&#45;&gt;Node8</title>
<g id="a_edge9_Node000007_Node000008"><a xlink:title=" ">
<path fill="none" stroke="#63b8ff" d="M668.03,-78C635.91,-66.61 590.33,-50.44 555.45,-38.07"/>
<polygon fill="#63b8ff" stroke="#63b8ff" points="666.95,-81.33 677.55,-81.38 669.29,-74.73 666.95,-81.33"/>
</a>
</g>
</g>
<!-- Node9 -->
<g id="Node000009" class="node">
<title>Node9</title>
<g id="a_Node000009"><a xlink:href="EspAdc_8cpp.html" target="_top" xlink:title="ESP32 ADC implementation for the HardFOC system.">
<polygon fill="white" stroke="#666666" points="798,-30.5 617,-30.5 617,-7.5 798,-7.5 798,-30.5"/>
<text text-anchor="middle" x="707.5" y="-15.3" font-family="Arial" font-size="14.00">src/mcu/esp32/EspAdc.cpp</text>
</a>
</g>
</g>
<!-- Node7&#45;&gt;Node9 -->
<g id="edge10_Node000007_Node000009" class="edge">
<title>Node7&#45;&gt;Node9</title>
<g id="a_edge10_Node000007_Node000009"><a xlink:title=" ">
<path fill="none" stroke="#63b8ff" d="M707.5,-71.23C707.5,-57.97 707.5,-41.32 707.5,-30.67"/>
<polygon fill="#63b8ff" stroke="#63b8ff" points="704,-71.38 707.5,-81.38 711,-71.38 704,-71.38"/>
</a>
</g>
</g>
<!-- Node11 -->
<g id="Node000011" class="node">
<title>Node11</title>
<g id="a_Node000011"><a xlink:href="I2cComprehensiveTest_8cpp.html" target="_top" xlink:title="Comprehensive I2C testing suite for ESP32&#45;C6 DevKit&#45;M&#45;1 (noexcept)">
<polygon fill="white" stroke="#666666" points="1000.5,-38 816.5,-38 816.5,0 1000.5,0 1000.5,-38"/>
<text text-anchor="start" x="824.5" y="-22.8" font-family="Arial" font-size="14.00">examples/esp32/main</text>
<text text-anchor="middle" x="908.5" y="-7.8" font-family="Arial" font-size="14.00">/I2cComprehensiveTest.cpp</text>
</a>
</g>
</g>
<!-- Node10&#45;&gt;Node11 -->
<g id="edge12_Node000010_Node000011" class="edge">
<title>Node10&#45;&gt;Node11</title>
<g id="a_edge12_Node000010_Node000011"><a xlink:title=" ">
<path fill="none" stroke="#63b8ff" d="M1067.6,-77.85C1036.29,-66.47 992.07,-50.39 958.2,-38.07"/>
<polygon fill="#63b8ff" stroke="#63b8ff" points="1066.69,-81.25 1077.28,-81.38 1069.08,-74.67 1066.69,-81.25"/>
</a>
</g>
</g>
<!-- Node12 -->
<g id="Node000012" class="node">
<title>Node12</title>
<g id="a_Node000012"><a xlink:href="EspI2c_8cpp.html" target="_top" xlink:title="Implementation of ESP32&#45;integrated I2C controller with proper bus&#45;device architecture.">
<polygon fill="white" stroke="#666666" points="1194.5,-30.5 1018.5,-30.5 1018.5,-7.5 1194.5,-7.5 1194.5,-30.5"/>
<text text-anchor="middle" x="1106.5" y="-15.3" font-family="Arial" font-size="14.00">src/mcu/esp32/EspI2c.cpp</text>
</a>
</g>
</g>
<!-- Node10&#45;&gt;Node12 -->
<g id="edge13_Node000010_Node000012" class="edge">
<title>Node10&#45;&gt;Node12</title>
<g id="a_edge13_Node000010_Node000012"><a xlink:title=" ">
<path fill="none" stroke="#63b8ff" d="M1106.5,-71.23C1106.5,-57.97 1106.5,-41.32 1106.5,-30.67"/>
<polygon fill="#63b8ff" stroke="#63b8ff" points="1103,-71.38 1106.5,-81.38 1110,-71.38 1103,-71.38"/>
</a>
</g>
</g>
<!-- Node14 -->
<g id="Node000014" class="node">
<title>Node14</title>
<g id="a_Node000014"><a xlink:href="TimerComprehensiveTest_8cpp.html" target="_top" xlink:title="ESP32&#45;C6 Periodic Timer Comprehensive Test Suite v2.0.">
<polygon fill="white" stroke="#666666" points="1414,-38 1213,-38 1213,0 1414,0 1414,-38"/>
<text text-anchor="start" x="1221" y="-22.8" font-family="Arial" font-size="14.00">examples/esp32/main</text>
<text text-anchor="middle" x="1313.5" y="-7.8" font-family="Arial" font-size="14.00">/TimerComprehensiveTest.cpp</text>
</a>
</g>
</g>
<!-- Node13&#45;&gt;Node14 -->
<g id="edge15_Node000013_Node000014" class="edge">
<title>Node13&#45;&gt;Node14</title>
<g id="a_edge15_Node000013_Node000014"><a xlink:title=" ">
<path fill="none" stroke="#63b8ff" d="M1382.8,-67.97C1368.74,-58.25 1352.79,-47.2 1339.74,-38.16"/>
<polygon fill="#63b8ff" stroke="#63b8ff" points="1381.04,-71.02 1391.26,-73.83 1385.03,-65.26 1381.04,-71.02"/>
</a>
</g>
</g>
<!-- Node15 -->
<g id="Node000015" class="node">
<title>Node15</title>
<g id="a_Node000015"><a xlink:href="EspPeriodicTimer_8cpp.html" target="_top" xlink:title="Implementation of MCU&#45;integrated periodic timer.">
<polygon fill="white" stroke="#666666" points="1613,-38 1432,-38 1432,0 1613,0 1613,-38"/>
<text text-anchor="start" x="1440" y="-22.8" font-family="Arial" font-size="14.00">src/mcu/esp32/EspPeriodic</text>
<text text-anchor="middle" x="1522.5" y="-7.8" font-family="Arial" font-size="14.00">Timer.cpp</text>
</a>
</g>
</g>
<!-- Node13&#45;&gt;Node15 -->
<g id="edge16_Node000013_Node000015" class="edge">
<title>Node13&#45;&gt;Node15</title>
<g id="a_edge16_Node000013_Node000015"><a xlink:title=" ">
<path fill="none" stroke="#63b8ff" d="M1452.54,-67.97C1466.73,-58.25 1482.83,-47.2 1496.01,-38.16"/>
<polygon fill="#63b8ff" stroke="#63b8ff" points="1450.26,-65.29 1444,-73.83 1454.22,-71.06 1450.26,-65.29"/>
</a>
</g>
</g>
<!-- Node17 -->
<g id="Node000017" class="node">
<title>Node17</title>
<g id="a_Node000017"><a xlink:href="PioComprehensiveTest_8cpp.html" target="_top" xlink:title="Comprehensive PIO testing suite for ESP32&#45;C6 DevKit&#45;M&#45;1 with RMT peripheral (noexcept)">
<polygon fill="white" stroke="#666666" points="1816,-38 1631,-38 1631,0 1816,0 1816,-38"/>
<text text-anchor="start" x="1639" y="-22.8" font-family="Arial" font-size="14.00">examples/esp32/main</text>
<text text-anchor="middle" x="1723.5" y="-7.8" font-family="Arial" font-size="14.00">/PioComprehensiveTest.cpp</text>
</a>
</g>
</g>
<!-- Node16&#45;&gt;Node17 -->
<g id="edge18_Node000016_Node000017" class="edge">
<title>Node16&#45;&gt;Node17</title>
<g id="a_edge18_Node000016_Node000017"><a xlink:title=" ">
<path fill="none" stroke="#63b8ff" d="M1723.5,-71.1C1723.5,-60.69 1723.5,-48.23 1723.5,-38.21"/>
<polygon fill="#63b8ff" stroke="#63b8ff" points="1720,-71.38 1723.5,-81.38 1727,-71.38 1720,-71.38"/>
</a>
</g>
</g>
<!-- Node18 -->
<g id="Node000018" class="node">
<title>Node18</title>
<g id="a_Node000018"><a xlink:href="EspPio_8cpp.html" target="_top" xlink:title="ESP32C6 RMT&#45;based Programmable IO Channel implementation.">
<polygon fill="white" stroke="#666666" points="2011,-30.5 1834,-30.5 1834,-7.5 2011,-7.5 2011,-30.5"/>
<text text-anchor="middle" x="1922.5" y="-15.3" font-family="Arial" font-size="14.00">src/mcu/esp32/EspPio.cpp</text>
</a>
</g>
</g>
<!-- Node16&#45;&gt;Node18 -->
<g id="edge19_Node000016_Node000018" class="edge">
<title>Node16&#45;&gt;Node18</title>
<g id="a_edge19_Node000016_Node000018"><a xlink:title=" ">
<path fill="none" stroke="#63b8ff" d="M1762.67,-77.83C1801.09,-63.93 1858.79,-43.05 1893.34,-30.55"/>
<polygon fill="#63b8ff" stroke="#63b8ff" points="1761.08,-74.68 1752.86,-81.38 1763.46,-81.27 1761.08,-74.68"/>
</a>
</g>
</g>
<!-- Node20 -->
<g id="Node000020" class="node">
<title>Node20</title>
<g id="a_Node000020"><a xlink:href="UartComprehensiveTest_8cpp.html" target="_top" xlink:title="Comprehensive UART testing suite for ESP32&#45;C6 DevKit&#45;M&#45;1 (noexcept)">
<polygon fill="white" stroke="#666666" points="191,-38 0,-38 0,0 191,0 191,-38"/>
<text text-anchor="start" x="8" y="-22.8" font-family="Arial" font-size="14.00">examples/esp32/main</text>
<text text-anchor="middle" x="95.5" y="-7.8" font-family="Arial" font-size="14.00">/UartComprehensiveTest.cpp</text>
</a>
</g>
</g>
<!-- Node19&#45;&gt;Node20 -->
<g id="edge22_Node000019_Node000020" class="edge">
<title>Node19&#45;&gt;Node20</title>
<g id="a_edge22_Node000019_Node000020"><a xlink:title=" ">
<path fill="none" stroke="#63b8ff" d="M260.65,-78C228.2,-66.61 182.18,-50.44 146.95,-38.07"/>
<polygon fill="#63b8ff" stroke="#63b8ff" points="259.66,-81.36 270.25,-81.38 261.98,-74.76 259.66,-81.36"/>
</a>
</g>
</g>
<!-- Node21 -->
<g id="Node000021" class="node">
<title>Node21</title>
<g id="a_Node000021"><a xlink:href="EspUart_8cpp.html" target="_top" xlink:title="Implementation of ESP32 UART controller for the HardFOC system.">
<polygon fill="white" stroke="#666666" points="392,-30.5 209,-30.5 209,-7.5 392,-7.5 392,-30.5"/>
<text text-anchor="middle" x="300.5" y="-15.3" font-family="Arial" font-size="14.00">src/mcu/esp32/EspUart.cpp</text>
</a>
</g>
</g>
<!-- Node19&#45;&gt;Node21 -->
<g id="edge23_Node000019_Node000021" class="edge">
<title>Node19&#45;&gt;Node21</title>
<g id="a_edge23_Node000019_Node000021"><a xlink:title=" ">
<path fill="none" stroke="#63b8ff" d="M300.5,-71.23C300.5,-57.97 300.5,-41.32 300.5,-30.67"/>
<polygon fill="#63b8ff" stroke="#63b8ff" points="297,-71.38 300.5,-81.38 304,-71.38 297,-71.38"/>
</a>
</g>
</g>
</g>
</svg>
