<?xml version="1.0" encoding="UTF-8" standalone="no"?>
<!DOCTYPE svg PUBLIC "-//W3C//DTD SVG 1.1//EN"
 "http://www.w3.org/Graphics/SVG/1.1/DTD/svg11.dtd">
<!-- Generated by graphviz version 2.43.0 (0)
 -->
<!-- Title: EspUart Pages: 1 -->
<svg width="581pt" height="179pt"
 viewBox="0.00 0.00 581.00 179.00" xmlns="http://www.w3.org/2000/svg" xmlns:xlink="http://www.w3.org/1999/xlink">
<g id="graph0" class="graph" transform="scale(1 1) rotate(0) translate(4 175)">
<title>EspUart</title>
<!-- Node1 -->
<g id="Node000001" class="node">
<title>Node1</title>
<g id="a_Node000001"><a xlink:title="ESP32 UART implementation class.">
<polygon fill="#999999" stroke="#666666" points="295,-23 230,-23 230,0 295,0 295,-23"/>
<text text-anchor="middle" x="262.5" y="-7.8" font-family="Arial" font-size="14.00">EspUart</text>
</a>
</g>
</g>
<!-- Node2 -->
<g id="Node000002" class="node">
<title>Node2</title>
<g id="a_Node000002"><a xlink:href="classBaseUart.html" target="_top" xlink:title="Abstract base class for UART driver implementations.">
<polygon fill="white" stroke="#666666" points="205,-97 132,-97 132,-74 205,-74 205,-97"/>
<text text-anchor="middle" x="168.5" y="-81.8" font-family="Arial" font-size="14.00">BaseUart</text>
</a>
</g>
</g>
<!-- Node2&#45;&gt;Node1 -->
<g id="edge1_Node000001_Node000002" class="edge">
<title>Node2&#45;&gt;Node1</title>
<g id="a_edge1_Node000001_Node000002"><a xlink:title=" ">
<path fill="none" stroke="#63b8ff" d="M190.56,-67.6C208.5,-53.86 233.28,-34.88 248.57,-23.17"/>
<polygon fill="#63b8ff" stroke="#63b8ff" points="188.18,-65.02 182.37,-73.88 192.44,-70.57 188.18,-65.02"/>
</a>
</g>
</g>
<!-- Node3 -->
<g id="Node000003" class="node">
<title>Node3</title>
<g id="a_Node000003"><a xlink:href="structhf__uart__statistics__t.html" target="_top" xlink:title="UART operation statistics.">
<polygon fill="white" stroke="#666666" points="129,-171 0,-171 0,-148 129,-148 129,-171"/>
<text text-anchor="middle" x="64.5" y="-155.8" font-family="Arial" font-size="14.00">hf_uart_statistics_t</text>
</a>
</g>
</g>
<!-- Node3&#45;&gt;Node1 -->
<g id="edge6_Node000001_Node000003" class="edge">
<title>Node3&#45;&gt;Node1</title>
<g id="a_edge6_Node000001_Node000003"><a xlink:title=" ">
<path fill="none" stroke="#9a32cd" stroke-dasharray="5,2" d="M56.23,-138.4C50.05,-119.84 44.8,-92.44 58.5,-74 79.02,-46.39 177.41,-26.43 229.69,-17.59"/>
<polygon fill="#9a32cd" stroke="#9a32cd" points="53,-139.75 59.74,-147.93 59.57,-137.33 53,-139.75"/>
</a>
</g>
<text text-anchor="middle" x="90.5" y="-81.8" font-family="Arial" font-size="14.00" fill="grey"> statistics_</text>
</g>
<!-- Node3&#45;&gt;Node2 -->
<g id="edge2_Node000002_Node000003" class="edge">
<title>Node3&#45;&gt;Node2</title>
<g id="a_edge2_Node000002_Node000003"><a xlink:title=" ">
<path fill="none" stroke="#9a32cd" stroke-dasharray="5,2" d="M75.68,-139.37C81.35,-130.99 88.87,-121.59 97.5,-115 107.64,-107.27 120.16,-101.32 131.84,-96.92"/>
<polygon fill="#9a32cd" stroke="#9a32cd" points="72.69,-137.56 70.29,-147.88 78.6,-141.31 72.69,-137.56"/>
</a>
</g>
<text text-anchor="middle" x="129.5" y="-118.8" font-family="Arial" font-size="14.00" fill="grey"> statistics_</text>
</g>
<!-- Node4 -->
<g id="Node000004" class="node">
<title>Node4</title>
<g id="a_Node000004"><a xlink:href="structhf__uart__diagnostics__t.html" target="_top" xlink:title="UART diagnostic information.">
<polygon fill="white" stroke="#666666" points="313,-171 168,-171 168,-148 313,-148 313,-171"/>
<text text-anchor="middle" x="240.5" y="-155.8" font-family="Arial" font-size="14.00">hf_uart_diagnostics_t</text>
</a>
</g>
</g>
<!-- Node4&#45;&gt;Node1 -->
<g id="edge7_Node000001_Node000004" class="edge">
<title>Node4&#45;&gt;Node1</title>
<g id="a_edge7_Node000001_Node000004"><a xlink:title=" ">
<path fill="none" stroke="#9a32cd" stroke-dasharray="5,2" d="M246.67,-137.99C247.35,-135.31 247.98,-132.6 248.5,-130 256.23,-91.11 260.26,-44.08 261.78,-23.28"/>
<polygon fill="#9a32cd" stroke="#9a32cd" points="243.25,-137.2 243.94,-147.77 250,-139.08 243.25,-137.2"/>
</a>
</g>
<text text-anchor="middle" x="297" y="-81.8" font-family="Arial" font-size="14.00" fill="grey"> diagnostics_</text>
</g>
<!-- Node4&#45;&gt;Node2 -->
<g id="edge3_Node000002_Node000004" class="edge">
<title>Node4&#45;&gt;Node2</title>
<g id="a_edge3_Node000002_Node000004"><a xlink:title=" ">
<path fill="none" stroke="#9a32cd" stroke-dasharray="5,2" d="M183.21,-142.99C177.88,-139.5 173.12,-135.23 169.5,-130 162.87,-120.44 163.86,-106.64 165.69,-97.16"/>
<polygon fill="#9a32cd" stroke="#9a32cd" points="181.55,-146.07 191.99,-147.85 184.94,-139.94 181.55,-146.07"/>
</a>
</g>
<text text-anchor="middle" x="209" y="-118.8" font-family="Arial" font-size="14.00" fill="grey"> diagnostics_</text>
</g>
<!-- Node5 -->
<g id="Node000005" class="node">
<title>Node5</title>
<g id="a_Node000005"><a xlink:href="classRtosMutex.html" target="_top" xlink:title=" ">
<polygon fill="white" stroke="#666666" points="441.5,-97 359.5,-97 359.5,-74 441.5,-74 441.5,-97"/>
<text text-anchor="middle" x="400.5" y="-81.8" font-family="Arial" font-size="14.00">RtosMutex</text>
</a>
</g>
</g>
<!-- Node5&#45;&gt;Node1 -->
<g id="edge4_Node000001_Node000005" class="edge">
<title>Node5&#45;&gt;Node1</title>
<g id="a_edge4_Node000001_Node000005"><a xlink:title=" ">
<path fill="none" stroke="#9a32cd" stroke-dasharray="5,2" d="M370.95,-69.08C344.43,-55.25 306.22,-35.31 282.95,-23.17"/>
<polygon fill="#9a32cd" stroke="#9a32cd" points="369.65,-72.35 380.14,-73.88 372.89,-66.15 369.65,-72.35"/>
</a>
</g>
<text text-anchor="middle" x="369" y="-44.8" font-family="Arial" font-size="14.00" fill="grey"> mutex_</text>
</g>
<!-- Node6 -->
<g id="Node000006" class="node">
<title>Node6</title>
<g id="a_Node000006"><a xlink:href="structhf__uart__config__t.html" target="_top" xlink:title="ESP32 UART port configuration.">
<polygon fill="white" stroke="#666666" points="573,-97 460,-97 460,-74 573,-74 573,-97"/>
<text text-anchor="middle" x="516.5" y="-81.8" font-family="Arial" font-size="14.00">hf_uart_config_t</text>
</a>
</g>
</g>
<!-- Node6&#45;&gt;Node1 -->
<g id="edge5_Node000001_Node000006" class="edge">
<title>Node6&#45;&gt;Node1</title>
<g id="a_edge5_Node000001_Node000006"><a xlink:title=" ">
<path fill="none" stroke="#9a32cd" stroke-dasharray="5,2" d="M481.33,-70.15C457.87,-60.94 426.18,-49.22 397.5,-41 362.96,-31.1 322.55,-23.01 295,-18.02"/>
<polygon fill="#9a32cd" stroke="#9a32cd" points="480.27,-73.49 490.85,-73.92 482.84,-66.98 480.27,-73.49"/>
</a>
</g>
<text text-anchor="middle" x="480" y="-44.8" font-family="Arial" font-size="14.00" fill="grey"> port_config_</text>
</g>
</g>
</svg>
