<?xml version="1.0" encoding="UTF-8" standalone="no"?>
<!DOCTYPE svg PUBLIC "-//W3C//DTD SVG 1.1//EN"
 "http://www.w3.org/Graphics/SVG/1.1/DTD/svg11.dtd">
<!-- Generated by graphviz version 2.43.0 (0)
 -->
<!-- Title: EspI2cDevice Pages: 1 -->
<svg width="677pt" height="338pt"
 viewBox="0.00 0.00 677.00 337.50" xmlns="http://www.w3.org/2000/svg" xmlns:xlink="http://www.w3.org/1999/xlink">
<g id="graph0" class="graph" transform="scale(1 1) rotate(0) translate(4 333.5)">
<title>EspI2cDevice</title>
<!-- Node1 -->
<g id="Node000001" class="node">
<title>Node1</title>
<g id="a_Node000001"><a xlink:title="Represents a single I2C device on a bus.">
<polygon fill="#999999" stroke="#666666" points="669,-195 570,-195 570,-172 669,-172 669,-195"/>
<text text-anchor="middle" x="619.5" y="-179.8" font-family="Arial" font-size="14.00">EspI2cDevice</text>
</a>
</g>
</g>
<!-- Node2 -->
<g id="Node000002" class="node">
<title>Node2</title>
<g id="a_Node000002"><a xlink:href="classBaseI2c.html" target="_top" xlink:title="Abstract base class for I2C device implementations.">
<polygon fill="white" stroke="#666666" points="410.5,-255 345.5,-255 345.5,-232 410.5,-232 410.5,-255"/>
<text text-anchor="middle" x="378" y="-239.8" font-family="Arial" font-size="14.00">BaseI2c</text>
</a>
</g>
</g>
<!-- Node2&#45;&gt;Node1 -->
<g id="edge1_Node000001_Node000002" class="edge">
<title>Node2&#45;&gt;Node1</title>
<g id="a_edge1_Node000001_Node000002"><a xlink:title=" ">
<path fill="none" stroke="#63b8ff" d="M420.76,-238.8C456.21,-234.16 508.15,-225.79 552,-212.5 566.95,-207.97 583.02,-201.02 595.61,-195.07"/>
<polygon fill="#63b8ff" stroke="#63b8ff" points="420.25,-235.34 410.77,-240.07 421.14,-242.28 420.25,-235.34"/>
</a>
</g>
</g>
<!-- Node3 -->
<g id="Node000003" class="node">
<title>Node3</title>
<g id="a_Node000003"><a xlink:href="structhf__i2c__statistics__t.html" target="_top" xlink:title="I2C operation statistics.">
<polygon fill="white" stroke="#666666" points="154.5,-319 31.5,-319 31.5,-296 154.5,-296 154.5,-319"/>
<text text-anchor="middle" x="93" y="-303.8" font-family="Arial" font-size="14.00">hf_i2c_statistics_t</text>
</a>
</g>
</g>
<!-- Node3&#45;&gt;Node1 -->
<g id="edge10_Node000001_Node000003" class="edge">
<title>Node3&#45;&gt;Node1</title>
<g id="a_edge10_Node000001_Node000003"><a xlink:title=" ">
<path fill="none" stroke="#9a32cd" stroke-dasharray="5,2" d="M165.02,-318.62C200.61,-322.43 244.26,-324.41 283,-318.5 406.82,-299.62 440.82,-292.17 552,-234.5 572.67,-223.78 593.48,-206.54 606.18,-195.12"/>
<polygon fill="#9a32cd" stroke="#9a32cd" points="165.07,-315.11 154.73,-317.45 164.27,-322.06 165.07,-315.11"/>
</a>
</g>
<text text-anchor="middle" x="378" y="-318.3" font-family="Arial" font-size="14.00" fill="grey"> statistics_</text>
</g>
<!-- Node3&#45;&gt;Node2 -->
<g id="edge2_Node000002_Node000003" class="edge">
<title>Node3&#45;&gt;Node2</title>
<g id="a_edge2_Node000002_Node000003"><a xlink:title=" ">
<path fill="none" stroke="#9a32cd" stroke-dasharray="5,2" d="M165.27,-304.34C201.09,-301.46 244.87,-295.97 283,-285.5 309.2,-278.3 337.43,-264.85 356.04,-255.1"/>
<polygon fill="#9a32cd" stroke="#9a32cd" points="164.61,-300.88 154.9,-305.11 165.14,-307.86 164.61,-300.88"/>
</a>
</g>
<text text-anchor="middle" x="243.5" y="-303.3" font-family="Arial" font-size="14.00" fill="grey"> statistics_</text>
</g>
<!-- Node5 -->
<g id="Node000005" class="node">
<title>Node5</title>
<g id="a_Node000005"><a xlink:href="classEspI2cBus.html" target="_top" xlink:title="Manages a single I2C bus. Handles bus initialization and device creation.">
<polygon fill="white" stroke="#666666" points="418.5,-162 337.5,-162 337.5,-139 418.5,-139 418.5,-162"/>
<text text-anchor="middle" x="378" y="-146.8" font-family="Arial" font-size="14.00">EspI2cBus</text>
</a>
</g>
</g>
<!-- Node3&#45;&gt;Node5 -->
<g id="edge7_Node000005_Node000003" class="edge">
<title>Node3&#45;&gt;Node5</title>
<g id="a_edge7_Node000005_Node000003"><a xlink:title=" ">
<path fill="none" stroke="#9a32cd" stroke-dasharray="5,2" d="M132.18,-292.1C153.18,-283.93 179.81,-274.04 204,-266.5 238.58,-255.71 257.34,-272.06 283,-246.5 305.76,-223.83 279.19,-200.08 301,-176.5 310.47,-166.26 324.14,-160.06 337.28,-156.29"/>
<polygon fill="#9a32cd" stroke="#9a32cd" points="130.68,-288.93 122.65,-295.84 133.24,-295.45 130.68,-288.93"/>
</a>
</g>
<text text-anchor="middle" x="243.5" y="-270.3" font-family="Arial" font-size="14.00" fill="grey"> statistics_</text>
</g>
<!-- Node4 -->
<g id="Node000004" class="node">
<title>Node4</title>
<g id="a_Node000004"><a xlink:href="structhf__i2c__diagnostics__t.html" target="_top" xlink:title="I2C diagnostic information.">
<polygon fill="white" stroke="#666666" points="162.5,-210 23.5,-210 23.5,-187 162.5,-187 162.5,-210"/>
<text text-anchor="middle" x="93" y="-194.8" font-family="Arial" font-size="14.00">hf_i2c_diagnostics_t</text>
</a>
</g>
</g>
<!-- Node4&#45;&gt;Node1 -->
<g id="edge11_Node000001_Node000004" class="edge">
<title>Node4&#45;&gt;Node1</title>
<g id="a_edge11_Node000001_Node000004"><a xlink:title=" ">
<path fill="none" stroke="#9a32cd" stroke-dasharray="5,2" d="M172.61,-196.25C282.53,-193.11 478.89,-187.49 569.82,-184.89"/>
<polygon fill="#9a32cd" stroke="#9a32cd" points="172.47,-192.75 162.57,-196.54 172.67,-199.75 172.47,-192.75"/>
</a>
</g>
<text text-anchor="middle" x="378" y="-195.3" font-family="Arial" font-size="14.00" fill="grey"> diagnostics_</text>
</g>
<!-- Node4&#45;&gt;Node2 -->
<g id="edge3_Node000002_Node000004" class="edge">
<title>Node4&#45;&gt;Node2</title>
<g id="a_edge3_Node000002_Node000004"><a xlink:title=" ">
<path fill="none" stroke="#9a32cd" stroke-dasharray="5,2" d="M172.58,-211C229.6,-220.06 303.73,-231.85 345.24,-238.45"/>
<polygon fill="#9a32cd" stroke="#9a32cd" points="172.93,-207.51 162.51,-209.39 171.83,-214.42 172.93,-207.51"/>
</a>
</g>
<text text-anchor="middle" x="243.5" y="-231.3" font-family="Arial" font-size="14.00" fill="grey"> diagnostics_</text>
</g>
<!-- Node4&#45;&gt;Node5 -->
<g id="edge8_Node000005_Node000004" class="edge">
<title>Node4&#45;&gt;Node5</title>
<g id="a_edge8_Node000005_Node000004"><a xlink:title=" ">
<path fill="none" stroke="#9a32cd" stroke-dasharray="5,2" d="M141.83,-184.24C161.01,-178.95 183.41,-173.32 204,-169.5 249.3,-161.09 302.02,-155.96 337.25,-153.18"/>
<polygon fill="#9a32cd" stroke="#9a32cd" points="140.8,-180.89 132.12,-186.96 142.69,-187.63 140.8,-180.89"/>
</a>
</g>
<text text-anchor="middle" x="243.5" y="-173.3" font-family="Arial" font-size="14.00" fill="grey"> diagnostics_</text>
</g>
<!-- Node5&#45;&gt;Node1 -->
<g id="edge4_Node000001_Node000005" class="edge">
<title>Node5&#45;&gt;Node1</title>
<g id="a_edge4_Node000001_Node000005"><a xlink:title=" ">
<path fill="none" stroke="#9a32cd" stroke-dasharray="5,2" d="M428.99,-154.68C463.63,-157.9 510.76,-162.91 552,-169.5 557.83,-170.43 563.91,-171.53 569.94,-172.7"/>
<polygon fill="#9a32cd" stroke="#9a32cd" points="428.93,-151.16 418.66,-153.74 428.3,-158.13 428.93,-151.16"/>
</a>
</g>
<text text-anchor="middle" x="512.5" y="-173.3" font-family="Arial" font-size="14.00" fill="grey"> parent_bus_</text>
</g>
<!-- Node6 -->
<g id="Node000006" class="node">
<title>Node6</title>
<g id="a_Node000006"><a xlink:href="structhf__i2c__master__bus__config__t.html" target="_top" xlink:title="I2C master bus configuration structure.">
<polygon fill="white" stroke="#666666" points="186,-142 0,-142 0,-119 186,-119 186,-142"/>
<text text-anchor="middle" x="93" y="-126.8" font-family="Arial" font-size="14.00">hf_i2c_master_bus_config_t</text>
</a>
</g>
</g>
<!-- Node6&#45;&gt;Node5 -->
<g id="edge5_Node000005_Node000006" class="edge">
<title>Node6&#45;&gt;Node5</title>
<g id="a_edge5_Node000005_Node000006"><a xlink:title=" ">
<path fill="none" stroke="#9a32cd" stroke-dasharray="5,2" d="M196.7,-127.42C224.74,-127.57 255.09,-128.63 283,-131.5 301.05,-133.35 320.77,-137.07 337.47,-140.73"/>
<polygon fill="#9a32cd" stroke="#9a32cd" points="196.48,-123.92 186.48,-127.41 196.47,-130.92 196.48,-123.92"/>
</a>
</g>
<text text-anchor="middle" x="243.5" y="-135.3" font-family="Arial" font-size="14.00" fill="grey"> config_</text>
</g>
<!-- Node7 -->
<g id="Node000007" class="node">
<title>Node7</title>
<g id="a_Node000007"><a xlink:href="classRtosMutex.html" target="_top" xlink:title=" ">
<polygon fill="white" stroke="#666666" points="134,-86 52,-86 52,-63 134,-63 134,-86"/>
<text text-anchor="middle" x="93" y="-70.8" font-family="Arial" font-size="14.00">RtosMutex</text>
</a>
</g>
</g>
<!-- Node7&#45;&gt;Node1 -->
<g id="edge12_Node000001_Node000007" class="edge">
<title>Node7&#45;&gt;Node1</title>
<g id="a_edge12_Node000001_Node000007"><a xlink:title=" ">
<path fill="none" stroke="#9a32cd" stroke-dasharray="5,2" d="M144.51,-74.96C215.27,-76.78 347.33,-84.5 455,-115.5 506.85,-130.43 564.45,-156.85 595.55,-171.98"/>
<polygon fill="#9a32cd" stroke="#9a32cd" points="144.18,-71.45 134.11,-74.72 144.02,-78.45 144.18,-71.45"/>
</a>
</g>
<text text-anchor="middle" x="378" y="-119.3" font-family="Arial" font-size="14.00" fill="grey"> mutex_</text>
</g>
<!-- Node7&#45;&gt;Node5 -->
<g id="edge6_Node000005_Node000007" class="edge">
<title>Node7&#45;&gt;Node5</title>
<g id="a_edge6_Node000005_Node000007"><a xlink:title=" ">
<path fill="none" stroke="#9a32cd" stroke-dasharray="5,2" d="M144.1,-79.7C182.68,-84.55 237.01,-93.22 283,-107.5 309.05,-115.59 337.31,-129.23 355.96,-138.98"/>
<polygon fill="#9a32cd" stroke="#9a32cd" points="144.51,-76.22 134.16,-78.49 143.66,-83.17 144.51,-76.22"/>
</a>
</g>
<text text-anchor="middle" x="243.5" y="-111.3" font-family="Arial" font-size="14.00" fill="grey"> mutex_</text>
</g>
<!-- Node8 -->
<g id="Node000008" class="node">
<title>Node8</title>
<g id="a_Node000008"><a xlink:href="structhf__i2c__device__config__t.html" target="_top" xlink:title="I2C device configuration structure.">
<polygon fill="white" stroke="#666666" points="455,-23 301,-23 301,0 455,0 455,-23"/>
<text text-anchor="middle" x="378" y="-7.8" font-family="Arial" font-size="14.00">hf_i2c_device_config_t</text>
</a>
</g>
</g>
<!-- Node8&#45;&gt;Node1 -->
<g id="edge9_Node000001_Node000008" class="edge">
<title>Node8&#45;&gt;Node1</title>
<g id="a_edge9_Node000001_Node000008"><a xlink:title=" ">
<path fill="none" stroke="#9a32cd" stroke-dasharray="5,2" d="M465.38,-4.05C495.28,-5.61 527.41,-12.38 552,-30.5 599.8,-65.72 613.69,-142.65 617.32,-171.9"/>
<polygon fill="#9a32cd" stroke="#9a32cd" points="465.45,-0.55 455.34,-3.71 465.22,-7.54 465.45,-0.55"/>
</a>
</g>
<text text-anchor="middle" x="512.5" y="-34.3" font-family="Arial" font-size="14.00" fill="grey"> config_</text>
</g>
</g>
</svg>
