<?xml version="1.0" encoding="UTF-8" standalone="no"?>
<!DOCTYPE svg PUBLIC "-//W3C//DTD SVG 1.1//EN"
 "http://www.w3.org/Graphics/SVG/1.1/DTD/svg11.dtd">
<!-- Generated by graphviz version 2.43.0 (0)
 -->
<!-- Title: EspI2cBus Pages: 1 -->
<svg width="593pt" height="105pt"
 viewBox="0.00 0.00 592.50 105.00" xmlns="http://www.w3.org/2000/svg" xmlns:xlink="http://www.w3.org/1999/xlink">
<g id="graph0" class="graph" transform="scale(1 1) rotate(0) translate(4 101)">
<title>EspI2cBus</title>
<!-- Node1 -->
<g id="Node000001" class="node">
<title>Node1</title>
<g id="a_Node000001"><a xlink:title="Manages a single I2C bus. Handles bus initialization and device creation.">
<polygon fill="#999999" stroke="#666666" points="345.5,-23 264.5,-23 264.5,0 345.5,0 345.5,-23"/>
<text text-anchor="middle" x="305" y="-7.8" font-family="Arial" font-size="14.00">EspI2cBus</text>
</a>
</g>
</g>
<!-- Node2 -->
<g id="Node000002" class="node">
<title>Node2</title>
<g id="a_Node000002"><a xlink:href="structhf__i2c__master__bus__config__t.html" target="_top" xlink:title="I2C master bus configuration structure.">
<polygon fill="white" stroke="#666666" points="186,-97 0,-97 0,-74 186,-74 186,-97"/>
<text text-anchor="middle" x="93" y="-81.8" font-family="Arial" font-size="14.00">hf_i2c_master_bus_config_t</text>
</a>
</g>
</g>
<!-- Node2&#45;&gt;Node1 -->
<g id="edge1_Node000001_Node000002" class="edge">
<title>Node2&#45;&gt;Node1</title>
<g id="a_edge1_Node000001_Node000002"><a xlink:title=" ">
<path fill="none" stroke="#9a32cd" stroke-dasharray="5,2" d="M132.44,-70.57C157.01,-61.94 189.3,-50.69 218,-41 235.92,-34.95 255.98,-28.36 272.32,-23.05"/>
<polygon fill="#9a32cd" stroke="#9a32cd" points="131.02,-67.36 122.75,-73.98 133.34,-73.96 131.02,-67.36"/>
</a>
</g>
<text text-anchor="middle" x="242" y="-44.8" font-family="Arial" font-size="14.00" fill="grey"> config_</text>
</g>
<!-- Node3 -->
<g id="Node000003" class="node">
<title>Node3</title>
<g id="a_Node000003"><a xlink:href="classRtosMutex.html" target="_top" xlink:title=" ">
<polygon fill="white" stroke="#666666" points="286,-97 204,-97 204,-74 286,-74 286,-97"/>
<text text-anchor="middle" x="245" y="-81.8" font-family="Arial" font-size="14.00">RtosMutex</text>
</a>
</g>
</g>
<!-- Node3&#45;&gt;Node1 -->
<g id="edge2_Node000001_Node000003" class="edge">
<title>Node3&#45;&gt;Node1</title>
<g id="a_edge2_Node000001_Node000003"><a xlink:title=" ">
<path fill="none" stroke="#9a32cd" stroke-dasharray="5,2" d="M260.35,-66.08C271.68,-52.49 286.7,-34.46 296.11,-23.17"/>
<polygon fill="#9a32cd" stroke="#9a32cd" points="257.57,-63.95 253.85,-73.88 262.94,-68.43 257.57,-63.95"/>
</a>
</g>
<text text-anchor="middle" x="305.5" y="-44.8" font-family="Arial" font-size="14.00" fill="grey"> mutex_</text>
</g>
<!-- Node4 -->
<g id="Node000004" class="node">
<title>Node4</title>
<g id="a_Node000004"><a xlink:href="structhf__i2c__statistics__t.html" target="_top" xlink:title="I2C operation statistics.">
<polygon fill="white" stroke="#666666" points="427.5,-97 304.5,-97 304.5,-74 427.5,-74 427.5,-97"/>
<text text-anchor="middle" x="366" y="-81.8" font-family="Arial" font-size="14.00">hf_i2c_statistics_t</text>
</a>
</g>
</g>
<!-- Node4&#45;&gt;Node1 -->
<g id="edge3_Node000001_Node000004" class="edge">
<title>Node4&#45;&gt;Node1</title>
<g id="a_edge3_Node000001_Node000004"><a xlink:title=" ">
<path fill="none" stroke="#9a32cd" stroke-dasharray="5,2" d="M353.08,-65.58C347.49,-57.75 340.69,-48.72 334,-41 328.64,-34.81 322.18,-28.38 316.72,-23.2"/>
<polygon fill="#9a32cd" stroke="#9a32cd" points="350.22,-67.59 358.82,-73.77 355.95,-63.57 350.22,-67.59"/>
</a>
</g>
<text text-anchor="middle" x="377" y="-44.8" font-family="Arial" font-size="14.00" fill="grey"> statistics_</text>
</g>
<!-- Node5 -->
<g id="Node000005" class="node">
<title>Node5</title>
<g id="a_Node000005"><a xlink:href="structhf__i2c__diagnostics__t.html" target="_top" xlink:title="I2C diagnostic information.">
<polygon fill="white" stroke="#666666" points="584.5,-97 445.5,-97 445.5,-74 584.5,-74 584.5,-97"/>
<text text-anchor="middle" x="515" y="-81.8" font-family="Arial" font-size="14.00">hf_i2c_diagnostics_t</text>
</a>
</g>
</g>
<!-- Node5&#45;&gt;Node1 -->
<g id="edge4_Node000001_Node000005" class="edge">
<title>Node5&#45;&gt;Node1</title>
<g id="a_edge4_Node000001_Node000005"><a xlink:title=" ">
<path fill="none" stroke="#9a32cd" stroke-dasharray="5,2" d="M483.46,-69.65C463.54,-60.61 437.1,-49.27 413,-41 391.08,-33.48 366.09,-26.77 345.68,-21.75"/>
<polygon fill="#9a32cd" stroke="#9a32cd" points="482.13,-72.88 492.68,-73.87 485.05,-66.52 482.13,-72.88"/>
</a>
</g>
<text text-anchor="middle" x="489.5" y="-44.8" font-family="Arial" font-size="14.00" fill="grey"> diagnostics_</text>
</g>
</g>
</svg>
