<?xml version="1.0" encoding="UTF-8" standalone="no"?>
<!DOCTYPE svg PUBLIC "-//W3C//DTD SVG 1.1//EN"
 "http://www.w3.org/Graphics/SVG/1.1/DTD/svg11.dtd">
<!-- Generated by graphviz version 2.43.0 (0)
 -->
<!-- Title: inc/mcu/esp32/EspLogger.h Pages: 1 -->
<!--zoomable 208 -->

<svg id="main" version="1.1" xmlns="http://www.w3.org/2000/svg" xmlns:xlink="http://www.w3.org/1999/xlink" xml:space="preserve" onload="init(evt)">
<style type="text/css"><![CDATA[
.node, .edge {opacity: 0.7;}
.node.selected, .edge.selected {opacity: 1;}
.edge:hover path { stroke: red; }
.edge:hover polygon { stroke: red; fill: red; }
]]></style>

<defs>
  <circle id="rim" cx="0" cy="0" r="7"/>
  <circle id="rim2" cx="0" cy="0" r="3.5"/>
  <g id="zoomPlus">
    <use xlink:href="#rim" fill="#404040"><set attributeName="fill" to="#808080" begin="zoomplus.mouseover" end="zoomplus.mouseout"/></use>
    <path d="M-4,0h8M0,-4v8" fill="none" stroke="white" stroke-width="1.5" pointer-events="none"/>
  </g>
  <g id="zoomMin">
    <use xlink:href="#rim" fill="#404040"><set attributeName="fill" to="#808080" begin="zoomminus.mouseover" end="zoomminus.mouseout"/></use>
    <path d="M-4,0h8" fill="none" stroke="white" stroke-width="1.5" pointer-events="none"/>
  </g>
  <g id="arrowUp" transform="translate(30 24)">
    <use xlink:href="#rim"/>
    <path pointer-events="none" fill="none" stroke="white" stroke-width="1.5" d="M0,-3.0v7 M-2.5,-0.5L0,-3.0L2.5,-0.5"/>
  </g>
  <g id="arrowRight" transform="rotate(90) translate(36 -43)">
    <use xlink:href="#rim"/>
    <path pointer-events="none" fill="none" stroke="white" stroke-width="1.5" d="M0,-3.0v7 M-2.5,-0.5L0,-3.0L2.5,-0.5"/>
  </g>
  <g id="arrowDown" transform="rotate(180) translate(-30 -48)">
    <use xlink:href="#rim"/>
    <path pointer-events="none" fill="none" stroke="white" stroke-width="1.5" d="M0,-3.0v7 M-2.5,-0.5L0,-3.0L2.5,-0.5"/>
  </g>
  <g id="arrowLeft" transform="rotate(270) translate(-36 17)">
    <use xlink:href="#rim"/>
    <path pointer-events="none" fill="none" stroke="white" stroke-width="1.5" d="M0,-3.0v7 M-2.5,-0.5L0,-3.0L2.5,-0.5"/>
  </g>
  <g id="resetDef">
    <use xlink:href="#rim2" fill="#404040"><set attributeName="fill" to="#808080" begin="reset.mouseover" end="reset.mouseout"/></use>
  </g>
</defs>
<script type="application/ecmascript">
var viewWidth = 1276;
var viewHeight = 208;
var sectionId = 'dynsection-0';
</script>
<script type="application/ecmascript" xlink:href="svg.min.js"/>
<svg id="graph" class="graph">
<g id="viewport">
<title>inc/mcu/esp32/EspLogger.h</title>
<!-- Node1 -->
<g id="Node000001" class="node">
<title>Node1</title>
<g id="a_Node000001"><a xlink:title="ESP32&#45;specific logger implementation for the HardFOC system.">
<polygon fill="#999999" stroke="#666666" points="915.5,-200 731.5,-200 731.5,-177 915.5,-177 915.5,-200"/>
<text text-anchor="middle" x="823.5" y="-184.8" font-family="Arial" font-size="14.00">inc/mcu/esp32/EspLogger.h</text>
</a>
</g>
</g>
<!-- Node2 -->
<g id="Node000002" class="node">
<title>Node2</title>
<g id="a_Node000002"><a xlink:href="BaseLogger_8h.html" target="_top" xlink:title="Unified logging base class for all logging implementations.">
<polygon fill="white" stroke="#666666" points="777.5,-141 677.5,-141 677.5,-118 777.5,-118 777.5,-141"/>
<text text-anchor="middle" x="727.5" y="-125.8" font-family="Arial" font-size="14.00">BaseLogger.h</text>
</a>
</g>
</g>
<!-- Node1&#45;&gt;Node2 -->
<g id="edge1_Node000001_Node000002" class="edge">
<title>Node1&#45;&gt;Node2</title>
<g id="a_edge1_Node000001_Node000002"><a xlink:title=" ">
<path fill="none" stroke="#63b8ff" d="M805.44,-176.78C791.1,-168.26 770.81,-156.21 754.52,-146.55"/>
<polygon fill="#63b8ff" stroke="#63b8ff" points="755.86,-143.27 745.48,-141.17 752.29,-149.29 755.86,-143.27"/>
</a>
</g>
</g>
<!-- Node10 -->
<g id="Node000010" class="node">
<title>Node10</title>
<g id="a_Node000010"><a xlink:href="RtosMutex_8h.html" target="_top" xlink:title="Cross&#45;platform RTOS mutex and synchronization primitives.">
<polygon fill="white" stroke="#666666" points="431,-141 310,-141 310,-118 431,-118 431,-141"/>
<text text-anchor="middle" x="370.5" y="-125.8" font-family="Arial" font-size="14.00">utils/RtosMutex.h</text>
</a>
</g>
</g>
<!-- Node1&#45;&gt;Node10 -->
<g id="edge10_Node000001_Node000010" class="edge">
<title>Node1&#45;&gt;Node10</title>
<g id="a_edge10_Node000001_Node000010"><a xlink:title=" ">
<path fill="none" stroke="#63b8ff" d="M739.88,-176.98C654.08,-166.18 522.03,-149.57 441.24,-139.4"/>
<polygon fill="#63b8ff" stroke="#63b8ff" points="441.52,-135.91 431.17,-138.13 440.65,-142.85 441.52,-135.91"/>
</a>
</g>
</g>
<!-- Node12 -->
<g id="Node000012" class="node">
<title>Node12</title>
<g id="a_Node000012"><a xlink:title=" ">
<polygon fill="#e0e0e0" stroke="#999999" points="143,-82 0,-82 0,-59 143,-59 143,-82"/>
<text text-anchor="middle" x="71.5" y="-66.8" font-family="Arial" font-size="14.00">freertos/FreeRTOS.h</text>
</a>
</g>
</g>
<!-- Node1&#45;&gt;Node12 -->
<g id="edge24_Node000001_Node000012" class="edge">
<title>Node1&#45;&gt;Node12</title>
<g id="a_edge24_Node000001_Node000012"><a xlink:title=" ">
<path fill="none" stroke="#63b8ff" d="M731.06,-185.03C625.91,-180.89 449.5,-169.91 300.5,-141 231.68,-127.64 154.09,-101.7 109.19,-85.57"/>
<polygon fill="#63b8ff" stroke="#63b8ff" points="110.18,-82.2 99.59,-82.08 107.79,-88.78 110.18,-82.2"/>
</a>
</g>
</g>
<!-- Node14 -->
<g id="Node000014" class="node">
<title>Node14</title>
<g id="a_Node000014"><a xlink:title=" ">
<polygon fill="#e0e0e0" stroke="#999999" points="551.5,-82 449.5,-82 449.5,-59 551.5,-59 551.5,-82"/>
<text text-anchor="middle" x="500.5" y="-66.8" font-family="Arial" font-size="14.00">freertos/task.h</text>
</a>
</g>
</g>
<!-- Node1&#45;&gt;Node14 -->
<g id="edge25_Node000001_Node000014" class="edge">
<title>Node1&#45;&gt;Node14</title>
<g id="a_edge25_Node000001_Node000014"><a xlink:title=" ">
<path fill="none" stroke="#63b8ff" d="M766.84,-176.94C729.22,-169.07 679.11,-156.95 636.5,-141 596.74,-126.12 553.51,-102.66 526.71,-87.18"/>
<polygon fill="#63b8ff" stroke="#63b8ff" points="528.35,-84.09 517.95,-82.07 524.82,-90.13 528.35,-84.09"/>
</a>
</g>
</g>
<!-- Node15 -->
<g id="Node000015" class="node">
<title>Node15</title>
<g id="a_Node000015"><a xlink:title=" ">
<polygon fill="#e0e0e0" stroke="#999999" points="627,-82 570,-82 570,-59 627,-59 627,-82"/>
<text text-anchor="middle" x="598.5" y="-66.8" font-family="Arial" font-size="14.00">atomic</text>
</a>
</g>
</g>
<!-- Node1&#45;&gt;Node15 -->
<g id="edge17_Node000001_Node000015" class="edge">
<title>Node1&#45;&gt;Node15</title>
<g id="a_edge17_Node000001_Node000015"><a xlink:title=" ">
<path fill="none" stroke="#63b8ff" d="M764.4,-176.93C734.24,-169.81 697.84,-158.45 668.5,-141 646.15,-127.7 625.68,-105.72 612.73,-90.04"/>
<polygon fill="#63b8ff" stroke="#63b8ff" points="615.33,-87.69 606.34,-82.07 609.86,-92.06 615.33,-87.69"/>
</a>
</g>
</g>
<!-- Node16 -->
<g id="Node000016" class="node">
<title>Node16</title>
<g id="a_Node000016"><a xlink:title=" ">
<polygon fill="#e0e0e0" stroke="#999999" points="851.5,-141 795.5,-141 795.5,-118 851.5,-118 851.5,-141"/>
<text text-anchor="middle" x="823.5" y="-125.8" font-family="Arial" font-size="14.00">cstring</text>
</a>
</g>
</g>
<!-- Node1&#45;&gt;Node16 -->
<g id="edge18_Node000001_Node000016" class="edge">
<title>Node1&#45;&gt;Node16</title>
<g id="a_edge18_Node000001_Node000016"><a xlink:title=" ">
<path fill="none" stroke="#63b8ff" d="M823.5,-176.78C823.5,-169.61 823.5,-159.95 823.5,-151.31"/>
<polygon fill="#63b8ff" stroke="#63b8ff" points="827,-151.17 823.5,-141.17 820,-151.17 827,-151.17"/>
</a>
</g>
</g>
<!-- Node17 -->
<g id="Node000017" class="node">
<title>Node17</title>
<g id="a_Node000017"><a xlink:title=" ">
<polygon fill="#e0e0e0" stroke="#999999" points="913.5,-141 869.5,-141 869.5,-118 913.5,-118 913.5,-141"/>
<text text-anchor="middle" x="891.5" y="-125.8" font-family="Arial" font-size="14.00">map</text>
</a>
</g>
</g>
<!-- Node1&#45;&gt;Node17 -->
<g id="edge19_Node000001_Node000017" class="edge">
<title>Node1&#45;&gt;Node17</title>
<g id="a_edge19_Node000001_Node000017"><a xlink:title=" ">
<path fill="none" stroke="#63b8ff" d="M836.29,-176.78C846.07,-168.58 859.76,-157.11 871.05,-147.64"/>
<polygon fill="#63b8ff" stroke="#63b8ff" points="873.35,-150.28 878.77,-141.17 868.85,-144.91 873.35,-150.28"/>
</a>
</g>
</g>
<!-- Node18 -->
<g id="Node000018" class="node">
<title>Node18</title>
<g id="a_Node000018"><a xlink:title=" ">
<polygon fill="#e0e0e0" stroke="#999999" points="999,-141 932,-141 932,-118 999,-118 999,-141"/>
<text text-anchor="middle" x="965.5" y="-125.8" font-family="Arial" font-size="14.00">memory</text>
</a>
</g>
</g>
<!-- Node1&#45;&gt;Node18 -->
<g id="edge20_Node000001_Node000018" class="edge">
<title>Node1&#45;&gt;Node18</title>
<g id="a_edge20_Node000001_Node000018"><a xlink:title=" ">
<path fill="none" stroke="#63b8ff" d="M849.88,-176.91C872.39,-167.87 904.98,-154.79 929.82,-144.82"/>
<polygon fill="#63b8ff" stroke="#63b8ff" points="931.29,-148 939.26,-141.03 928.68,-141.51 931.29,-148"/>
</a>
</g>
</g>
<!-- Node19 -->
<g id="Node000019" class="node">
<title>Node19</title>
<g id="a_Node000019"><a xlink:title=" ">
<polygon fill="#e0e0e0" stroke="#999999" points="1070,-141 1017,-141 1017,-118 1070,-118 1070,-141"/>
<text text-anchor="middle" x="1043.5" y="-125.8" font-family="Arial" font-size="14.00">vector</text>
</a>
</g>
</g>
<!-- Node1&#45;&gt;Node19 -->
<g id="edge21_Node000001_Node000019" class="edge">
<title>Node1&#45;&gt;Node19</title>
<g id="a_edge21_Node000001_Node000019"><a xlink:title=" ">
<path fill="none" stroke="#63b8ff" d="M867.75,-176.97C903.12,-168.42 954.19,-155.78 1006.92,-141.36"/>
<polygon fill="#63b8ff" stroke="#63b8ff" points="1008.07,-144.68 1016.78,-138.65 1006.21,-137.93 1008.07,-144.68"/>
</a>
</g>
</g>
<!-- Node20 -->
<g id="Node000020" class="node">
<title>Node20</title>
<g id="a_Node000020"><a xlink:title=" ">
<polygon fill="#e0e0e0" stroke="#999999" points="1163,-141 1088,-141 1088,-118 1163,-118 1163,-141"/>
<text text-anchor="middle" x="1125.5" y="-125.8" font-family="Arial" font-size="14.00">esp_log.h</text>
</a>
</g>
</g>
<!-- Node1&#45;&gt;Node20 -->
<g id="edge22_Node000001_Node000020" class="edge">
<title>Node1&#45;&gt;Node20</title>
<g id="a_edge22_Node000001_Node000020"><a xlink:title=" ">
<path fill="none" stroke="#63b8ff" d="M885.73,-177C935.33,-168.45 1006.79,-155.71 1077.85,-141.28"/>
<polygon fill="#63b8ff" stroke="#63b8ff" points="1078.78,-144.66 1087.87,-139.23 1077.38,-137.81 1078.78,-144.66"/>
</a>
</g>
</g>
<!-- Node21 -->
<g id="Node000021" class="node">
<title>Node21</title>
<g id="a_Node000021"><a xlink:title=" ">
<polygon fill="#e0e0e0" stroke="#999999" points="1268,-141 1181,-141 1181,-118 1268,-118 1268,-141"/>
<text text-anchor="middle" x="1224.5" y="-125.8" font-family="Arial" font-size="14.00">esp_timer.h</text>
</a>
</g>
</g>
<!-- Node1&#45;&gt;Node21 -->
<g id="edge23_Node000001_Node000021" class="edge">
<title>Node1&#45;&gt;Node21</title>
<g id="a_edge23_Node000001_Node000021"><a xlink:title=" ">
<path fill="none" stroke="#63b8ff" d="M915.23,-176.98C983.29,-168.77 1078.56,-156.46 1170.78,-141.21"/>
<polygon fill="#63b8ff" stroke="#63b8ff" points="1171.56,-144.63 1180.85,-139.53 1170.41,-137.73 1171.56,-144.63"/>
</a>
</g>
</g>
<!-- Node3 -->
<g id="Node000003" class="node">
<title>Node3</title>
<g id="a_Node000003"><a xlink:href="HardwareTypes_8h.html" target="_top" xlink:title="Platform&#45;agnostic hardware type definitions for the HardFOC system.">
<polygon fill="white" stroke="#666666" points="805.5,-82 683.5,-82 683.5,-59 805.5,-59 805.5,-82"/>
<text text-anchor="middle" x="744.5" y="-66.8" font-family="Arial" font-size="14.00">HardwareTypes.h</text>
</a>
</g>
</g>
<!-- Node2&#45;&gt;Node3 -->
<g id="edge2_Node000002_Node000003" class="edge">
<title>Node2&#45;&gt;Node3</title>
<g id="a_edge2_Node000002_Node000003"><a xlink:title=" ">
<path fill="none" stroke="#63b8ff" d="M730.7,-117.78C732.86,-110.53 735.78,-100.74 738.38,-92.02"/>
<polygon fill="#63b8ff" stroke="#63b8ff" points="741.81,-92.76 741.32,-82.17 735.1,-90.76 741.81,-92.76"/>
</a>
</g>
</g>
<!-- Node4 -->
<g id="Node000004" class="node">
<title>Node4</title>
<g id="a_Node000004"><a xlink:title=" ">
<polygon fill="#e0e0e0" stroke="#999999" points="683.5,-23 627.5,-23 627.5,0 683.5,0 683.5,-23"/>
<text text-anchor="middle" x="655.5" y="-7.8" font-family="Arial" font-size="14.00">cstdint</text>
</a>
</g>
</g>
<!-- Node2&#45;&gt;Node4 -->
<g id="edge6_Node000002_Node000004" class="edge">
<title>Node2&#45;&gt;Node4</title>
<g id="a_edge6_Node000002_Node000004"><a xlink:title=" ">
<path fill="none" stroke="#63b8ff" d="M711.06,-117.99C699.23,-109.61 683.78,-96.84 674.5,-82 665.2,-67.12 660.39,-47.69 657.94,-33.15"/>
<polygon fill="#63b8ff" stroke="#63b8ff" points="661.38,-32.55 656.49,-23.15 654.46,-33.55 661.38,-32.55"/>
</a>
</g>
</g>
<!-- Node6 -->
<g id="Node000006" class="node">
<title>Node6</title>
<g id="a_Node000006"><a xlink:title=" ">
<polygon fill="#e0e0e0" stroke="#999999" points="885,-82 824,-82 824,-59 885,-59 885,-82"/>
<text text-anchor="middle" x="854.5" y="-66.8" font-family="Arial" font-size="14.00">cstdarg</text>
</a>
</g>
</g>
<!-- Node2&#45;&gt;Node6 -->
<g id="edge5_Node000002_Node000006" class="edge">
<title>Node2&#45;&gt;Node6</title>
<g id="a_edge5_Node000002_Node000006"><a xlink:title=" ">
<path fill="none" stroke="#63b8ff" d="M751.09,-117.91C770.96,-108.99 799.6,-96.14 821.7,-86.22"/>
<polygon fill="#63b8ff" stroke="#63b8ff" points="823.35,-89.32 831.04,-82.03 820.48,-82.93 823.35,-89.32"/>
</a>
</g>
</g>
<!-- Node7 -->
<g id="Node000007" class="node">
<title>Node7</title>
<g id="a_Node000007"><a xlink:title=" ">
<polygon fill="#e0e0e0" stroke="#999999" points="977.5,-82 903.5,-82 903.5,-59 977.5,-59 977.5,-82"/>
<text text-anchor="middle" x="940.5" y="-66.8" font-family="Arial" font-size="14.00">functional</text>
</a>
</g>
</g>
<!-- Node2&#45;&gt;Node7 -->
<g id="edge7_Node000002_Node000007" class="edge">
<title>Node2&#45;&gt;Node7</title>
<g id="a_edge7_Node000002_Node000007"><a xlink:title=" ">
<path fill="none" stroke="#63b8ff" d="M767.06,-117.91C802.85,-108.34 855.58,-94.22 893.5,-84.08"/>
<polygon fill="#63b8ff" stroke="#63b8ff" points="894.53,-87.42 903.29,-81.46 892.72,-80.66 894.53,-87.42"/>
</a>
</g>
</g>
<!-- Node8 -->
<g id="Node000008" class="node">
<title>Node8</title>
<g id="a_Node000008"><a xlink:title=" ">
<polygon fill="#e0e0e0" stroke="#999999" points="1045.5,-82 995.5,-82 995.5,-59 1045.5,-59 1045.5,-82"/>
<text text-anchor="middle" x="1020.5" y="-66.8" font-family="Arial" font-size="14.00">string</text>
</a>
</g>
</g>
<!-- Node2&#45;&gt;Node8 -->
<g id="edge8_Node000002_Node000008" class="edge">
<title>Node2&#45;&gt;Node8</title>
<g id="a_edge8_Node000002_Node000008"><a xlink:title=" ">
<path fill="none" stroke="#63b8ff" d="M777.73,-119.56C842.66,-108 950.81,-88.7 985.5,-81.76"/>
<polygon fill="#63b8ff" stroke="#63b8ff" points="986.3,-85.16 995.34,-79.64 984.83,-78.32 986.3,-85.16"/>
</a>
</g>
</g>
<!-- Node9 -->
<g id="Node000009" class="node">
<title>Node9</title>
<g id="a_Node000009"><a xlink:title=" ">
<polygon fill="#e0e0e0" stroke="#999999" points="1147.5,-82 1063.5,-82 1063.5,-59 1147.5,-59 1147.5,-82"/>
<text text-anchor="middle" x="1105.5" y="-66.8" font-family="Arial" font-size="14.00">string_view</text>
</a>
</g>
</g>
<!-- Node2&#45;&gt;Node9 -->
<g id="edge9_Node000002_Node000009" class="edge">
<title>Node2&#45;&gt;Node9</title>
<g id="a_edge9_Node000002_Node000009"><a xlink:title=" ">
<path fill="none" stroke="#63b8ff" d="M777.69,-119.42C780.67,-118.93 783.62,-118.45 786.5,-118 902.11,-99.96 934.33,-102 1053.38,-82.1"/>
<polygon fill="#63b8ff" stroke="#63b8ff" points="1053.96,-85.55 1063.24,-80.44 1052.8,-78.65 1053.96,-85.55"/>
</a>
</g>
</g>
<!-- Node3&#45;&gt;Node4 -->
<g id="edge3_Node000003_Node000004" class="edge">
<title>Node3&#45;&gt;Node4</title>
<g id="a_edge3_Node000003_Node000004"><a xlink:title=" ">
<path fill="none" stroke="#63b8ff" d="M727.76,-58.78C714.58,-50.34 696,-38.44 680.98,-28.82"/>
<polygon fill="#63b8ff" stroke="#63b8ff" points="682.47,-25.62 672.17,-23.17 678.7,-31.51 682.47,-25.62"/>
</a>
</g>
</g>
<!-- Node5 -->
<g id="Node000005" class="node">
<title>Node5</title>
<g id="a_Node000005"><a xlink:title=" ">
<polygon fill="#e0e0e0" stroke="#999999" points="768.5,-23 720.5,-23 720.5,0 768.5,0 768.5,-23"/>
<text text-anchor="middle" x="744.5" y="-7.8" font-family="Arial" font-size="14.00">limits</text>
</a>
</g>
</g>
<!-- Node3&#45;&gt;Node5 -->
<g id="edge4_Node000003_Node000005" class="edge">
<title>Node3&#45;&gt;Node5</title>
<g id="a_edge4_Node000003_Node000005"><a xlink:title=" ">
<path fill="none" stroke="#63b8ff" d="M744.5,-58.78C744.5,-51.61 744.5,-41.95 744.5,-33.31"/>
<polygon fill="#63b8ff" stroke="#63b8ff" points="748,-33.17 744.5,-23.17 741,-33.17 748,-33.17"/>
</a>
</g>
</g>
<!-- Node10&#45;&gt;Node4 -->
<g id="edge16_Node000010_Node000004" class="edge">
<title>Node10&#45;&gt;Node4</title>
<g id="a_edge16_Node000010_Node000004"><a xlink:title=" ">
<path fill="none" stroke="#63b8ff" d="M309.98,-124.51C243.93,-117.97 152.34,-101.16 190.5,-59 218.95,-27.56 511.07,-16.46 617.22,-13.45"/>
<polygon fill="#63b8ff" stroke="#63b8ff" points="617.58,-16.94 627.48,-13.16 617.38,-9.94 617.58,-16.94"/>
</a>
</g>
</g>
<!-- Node11 -->
<g id="Node000011" class="node">
<title>Node11</title>
<g id="a_Node000011"><a xlink:href="McuSelect_8h.html" target="_top" xlink:title="Centralized MCU platform selection and configuration header.">
<polygon fill="white" stroke="#666666" points="291.5,-82 199.5,-82 199.5,-59 291.5,-59 291.5,-82"/>
<text text-anchor="middle" x="245.5" y="-66.8" font-family="Arial" font-size="14.00">McuSelect.h</text>
</a>
</g>
</g>
<!-- Node10&#45;&gt;Node11 -->
<g id="edge11_Node000010_Node000011" class="edge">
<title>Node10&#45;&gt;Node11</title>
<g id="a_edge11_Node000010_Node000011"><a xlink:title=" ">
<path fill="none" stroke="#63b8ff" d="M347.28,-117.91C327.72,-108.99 299.54,-96.14 277.78,-86.22"/>
<polygon fill="#63b8ff" stroke="#63b8ff" points="279.15,-83 268.59,-82.03 276.24,-89.36 279.15,-83"/>
</a>
</g>
</g>
<!-- Node10&#45;&gt;Node12 -->
<g id="edge12_Node000010_Node000012" class="edge">
<title>Node10&#45;&gt;Node12</title>
<g id="a_edge12_Node000010_Node000012"><a xlink:title=" ">
<path fill="none" stroke="#63b8ff" d="M315.31,-117.98C264.82,-108.35 190.08,-94.1 136.67,-83.92"/>
<polygon fill="#63b8ff" stroke="#63b8ff" points="137.1,-80.44 126.62,-82.01 135.79,-87.32 137.1,-80.44"/>
</a>
</g>
</g>
<!-- Node13 -->
<g id="Node000013" class="node">
<title>Node13</title>
<g id="a_Node000013"><a xlink:title=" ">
<polygon fill="#e0e0e0" stroke="#999999" points="431.5,-82 309.5,-82 309.5,-59 431.5,-59 431.5,-82"/>
<text text-anchor="middle" x="370.5" y="-66.8" font-family="Arial" font-size="14.00">freertos/semphr.h</text>
</a>
</g>
</g>
<!-- Node10&#45;&gt;Node13 -->
<g id="edge13_Node000010_Node000013" class="edge">
<title>Node10&#45;&gt;Node13</title>
<g id="a_edge13_Node000010_Node000013"><a xlink:title=" ">
<path fill="none" stroke="#63b8ff" d="M370.5,-117.78C370.5,-110.61 370.5,-100.95 370.5,-92.31"/>
<polygon fill="#63b8ff" stroke="#63b8ff" points="374,-92.17 370.5,-82.17 367,-92.17 374,-92.17"/>
</a>
</g>
</g>
<!-- Node10&#45;&gt;Node14 -->
<g id="edge14_Node000010_Node000014" class="edge">
<title>Node10&#45;&gt;Node14</title>
<g id="a_edge14_Node000010_Node000014"><a xlink:title=" ">
<path fill="none" stroke="#63b8ff" d="M394.65,-117.91C415.08,-108.95 444.57,-96.02 467.23,-86.09"/>
<polygon fill="#63b8ff" stroke="#63b8ff" points="468.73,-89.25 476.48,-82.03 465.92,-82.84 468.73,-89.25"/>
</a>
</g>
</g>
<!-- Node10&#45;&gt;Node15 -->
<g id="edge15_Node000010_Node000015" class="edge">
<title>Node10&#45;&gt;Node15</title>
<g id="a_edge15_Node000010_Node000015"><a xlink:title=" ">
<path fill="none" stroke="#63b8ff" d="M415.13,-117.97C451.51,-109.3 504.46,-96.48 559.88,-82.11"/>
<polygon fill="#63b8ff" stroke="#63b8ff" points="561.09,-85.41 569.89,-79.5 559.33,-78.63 561.09,-85.41"/>
</a>
</g>
</g>
</g>
</svg>

<g id="navigator" transform="translate(0 0)" fill="#404254">
  <rect fill="#f2f5e9" fill-opacity="0.5" stroke="#606060" stroke-width=".5" x="0" y="0" width="60" height="60"/>
  <use id="zoomplus" xlink:href="#zoomPlus" x="17" y="9" onmousedown="handleZoom(evt,'in')"/>
  <use id="zoomminus" xlink:href="#zoomMin" x="42" y="9" onmousedown="handleZoom(evt,'out')"/>
  <use id="reset" xlink:href="#resetDef" x="30" y="36" onmousedown="handleReset()"/>
   <use id="arrowup" xlink:href="#arrowUp" x="0" y="0" onmousedown="handlePan(0,-1)"/>
  <use id="arrowright" xlink:href="#arrowRight" x="0" y="0" onmousedown="handlePan(1,0)"/>
  <use id="arrowdown" xlink:href="#arrowDown" x="0" y="0" onmousedown="handlePan(0,1)"/>
  <use id="arrowleft" xlink:href="#arrowLeft" x="0" y="0" onmousedown="handlePan(-1,0)"/>
</g>
<svg viewBox="0 0 15 15" width="100%" height="30px" preserveAspectRatio="xMaxYMin meet">
 <g id="arrow_out" transform="scale(0.3 0.3)">
  <a xlink:href="EspLogger_8h__incl_org.svg" target="_base">
   <rect id="button" ry="5" rx="5" y="6" x="6" height="38" width="38"
        fill="#f2f5e9" fill-opacity="0.5" stroke="#606060" stroke-width="1.0"/>
   <path id="arrow"
     d="M 11.500037,31.436501 C 11.940474,20.09759 22.043105,11.32322 32.158766,21.979434 L 37.068811,17.246167 C 37.068811,17.246167 37.088388,32 37.088388,32 L 22.160133,31.978069 C 22.160133,31.978069 26.997745,27.140456 26.997745,27.140456 C 18.528582,18.264221 13.291696,25.230495 11.500037,31.436501 z"
     style="fill:#404040;"/>
  </a>
 </g>
</svg>

<style type='text/css'>
<![CDATA[
[data-mouse-over-selected='false'] { opacity: 0.7; }
[data-mouse-over-selected='true']  { opacity: 1.0; }
]]>
</style>
<script type="application/ecmascript"><![CDATA[
document.addEventListener('DOMContentLoaded', (event) => {
  highlightEdges();
  highlightAdjacentNodes();
});
]]></script>
</svg>
