<?xml version="1.0" encoding="UTF-8" standalone="no"?>
<!DOCTYPE svg PUBLIC "-//W3C//DTD SVG 1.1//EN"
 "http://www.w3.org/Graphics/SVG/1.1/DTD/svg11.dtd">
<!-- Generated by graphviz version 2.43.0 (0)
 -->
<!-- Title: inc/mcu/esp32/EspNvs.h Pages: 1 -->
<svg width="976pt" height="267pt"
 viewBox="0.00 0.00 975.70 267.00" xmlns="http://www.w3.org/2000/svg" xmlns:xlink="http://www.w3.org/1999/xlink">
<g id="graph0" class="graph" transform="scale(1 1) rotate(0) translate(4 263)">
<title>inc/mcu/esp32/EspNvs.h</title>
<!-- Node1 -->
<g id="Node000001" class="node">
<title>Node1</title>
<g id="a_Node000001"><a xlink:title="World&#45;class ESP32&#45;C6 NVS storage implementation with ESP&#45;IDF v5.5+ features.">
<polygon fill="#999999" stroke="#666666" points="277.7,-259 111.7,-259 111.7,-236 277.7,-236 277.7,-259"/>
<text text-anchor="middle" x="194.7" y="-243.8" font-family="Arial" font-size="14.00">inc/mcu/esp32/EspNvs.h</text>
</a>
</g>
</g>
<!-- Node2 -->
<g id="Node000002" class="node">
<title>Node2</title>
<g id="a_Node000002"><a xlink:href="BaseNvs_8h.html" target="_top" xlink:title="Abstract base class for Non&#45;Volatile Storage implementations in the HardFOC system.">
<polygon fill="white" stroke="#666666" points="174.7,-141 92.7,-141 92.7,-118 174.7,-118 174.7,-141"/>
<text text-anchor="middle" x="133.7" y="-125.8" font-family="Arial" font-size="14.00">BaseNvs.h</text>
</a>
</g>
</g>
<!-- Node1&#45;&gt;Node2 -->
<g id="edge1_Node000001_Node000002" class="edge">
<title>Node1&#45;&gt;Node2</title>
<g id="a_edge1_Node000001_Node000002"><a xlink:title=" ">
<path fill="none" stroke="#63b8ff" d="M189.07,-235.79C178.86,-216.37 157.13,-175.06 144.14,-150.35"/>
<polygon fill="#63b8ff" stroke="#63b8ff" points="147.07,-148.4 139.32,-141.18 140.87,-151.66 147.07,-148.4"/>
</a>
</g>
</g>
<!-- Node4 -->
<g id="Node000004" class="node">
<title>Node4</title>
<g id="a_Node000004"><a xlink:title=" ">
<polygon fill="#e0e0e0" stroke="#999999" points="215.7,-23 159.7,-23 159.7,0 215.7,0 215.7,-23"/>
<text text-anchor="middle" x="187.7" y="-7.8" font-family="Arial" font-size="14.00">cstdint</text>
</a>
</g>
</g>
<!-- Node1&#45;&gt;Node4 -->
<g id="edge24_Node000001_Node000004" class="edge">
<title>Node1&#45;&gt;Node4</title>
<g id="a_edge24_Node000001_Node000004"><a xlink:title=" ">
<path fill="none" stroke="#63b8ff" d="M169.16,-235.92C106.82,-208.61 -43.99,-132.72 12.7,-59 29.27,-37.45 103.3,-23.8 149.61,-17.21"/>
<polygon fill="#63b8ff" stroke="#63b8ff" points="150.17,-20.66 159.6,-15.83 149.22,-13.73 150.17,-20.66"/>
</a>
</g>
</g>
<!-- Node7 -->
<g id="Node000007" class="node">
<title>Node7</title>
<g id="a_Node000007"><a xlink:href="RtosMutex_8h.html" target="_top" xlink:title="Cross&#45;platform RTOS mutex and synchronization primitives.">
<polygon fill="white" stroke="#666666" points="623.2,-141 530.2,-141 530.2,-118 623.2,-118 623.2,-141"/>
<text text-anchor="middle" x="576.7" y="-125.8" font-family="Arial" font-size="14.00">RtosMutex.h</text>
</a>
</g>
</g>
<!-- Node1&#45;&gt;Node7 -->
<g id="edge7_Node000001_Node000007" class="edge">
<title>Node1&#45;&gt;Node7</title>
<g id="a_edge7_Node000001_Node000007"><a xlink:title=" ">
<path fill="none" stroke="#63b8ff" d="M230.35,-235.97C261.99,-226.6 309.45,-212.49 350.7,-200 414.07,-180.81 487.31,-158.21 532.82,-144.12"/>
<polygon fill="#63b8ff" stroke="#63b8ff" points="534.14,-147.37 542.65,-141.07 532.06,-140.69 534.14,-147.37"/>
</a>
</g>
</g>
<!-- Node13 -->
<g id="Node000013" class="node">
<title>Node13</title>
<g id="a_Node000013"><a xlink:href="EspTypes__NVS_8h.html" target="_top" xlink:title="ESP32 NVS type definitions for hardware abstraction.">
<polygon fill="white" stroke="#666666" points="341.7,-200 191.7,-200 191.7,-177 341.7,-177 341.7,-200"/>
<text text-anchor="middle" x="266.7" y="-184.8" font-family="Arial" font-size="14.00">utils/EspTypes_NVS.h</text>
</a>
</g>
</g>
<!-- Node1&#45;&gt;Node13 -->
<g id="edge14_Node000001_Node000013" class="edge">
<title>Node1&#45;&gt;Node13</title>
<g id="a_edge14_Node000001_Node000013"><a xlink:title=" ">
<path fill="none" stroke="#63b8ff" d="M208.24,-235.78C218.6,-227.58 233.09,-216.11 245.05,-206.64"/>
<polygon fill="#63b8ff" stroke="#63b8ff" points="247.55,-209.12 253.22,-200.17 243.21,-203.64 247.55,-209.12"/>
</a>
</g>
</g>
<!-- Node3 -->
<g id="Node000003" class="node">
<title>Node3</title>
<g id="a_Node000003"><a xlink:href="HardwareTypes_8h.html" target="_top" xlink:title="Platform&#45;agnostic hardware type definitions for the HardFOC system.">
<polygon fill="white" stroke="#666666" points="283.7,-82 161.7,-82 161.7,-59 283.7,-59 283.7,-82"/>
<text text-anchor="middle" x="222.7" y="-66.8" font-family="Arial" font-size="14.00">HardwareTypes.h</text>
</a>
</g>
</g>
<!-- Node2&#45;&gt;Node3 -->
<g id="edge2_Node000002_Node000003" class="edge">
<title>Node2&#45;&gt;Node3</title>
<g id="a_edge2_Node000002_Node000003"><a xlink:title=" ">
<path fill="none" stroke="#63b8ff" d="M150.44,-117.78C163.62,-109.34 182.2,-97.44 197.22,-87.82"/>
<polygon fill="#63b8ff" stroke="#63b8ff" points="199.5,-90.51 206.04,-82.17 195.73,-84.62 199.5,-90.51"/>
</a>
</g>
</g>
<!-- Node2&#45;&gt;Node4 -->
<g id="edge5_Node000002_Node000004" class="edge">
<title>Node2&#45;&gt;Node4</title>
<g id="a_edge5_Node000002_Node000004"><a xlink:title=" ">
<path fill="none" stroke="#63b8ff" d="M135.35,-117.69C137.78,-103.63 143.12,-78.54 152.7,-59 157.59,-49.04 164.73,-39.06 171.28,-30.92"/>
<polygon fill="#63b8ff" stroke="#63b8ff" points="174.03,-33.09 177.79,-23.18 168.67,-28.58 174.03,-33.09"/>
</a>
</g>
</g>
<!-- Node6 -->
<g id="Node000006" class="node">
<title>Node6</title>
<g id="a_Node000006"><a xlink:title=" ">
<polygon fill="#e0e0e0" stroke="#999999" points="105.7,-82 21.7,-82 21.7,-59 105.7,-59 105.7,-82"/>
<text text-anchor="middle" x="63.7" y="-66.8" font-family="Arial" font-size="14.00">string_view</text>
</a>
</g>
</g>
<!-- Node2&#45;&gt;Node6 -->
<g id="edge6_Node000002_Node000006" class="edge">
<title>Node2&#45;&gt;Node6</title>
<g id="a_edge6_Node000002_Node000006"><a xlink:title=" ">
<path fill="none" stroke="#63b8ff" d="M120.53,-117.78C110.46,-109.58 96.38,-98.11 84.75,-88.64"/>
<polygon fill="#63b8ff" stroke="#63b8ff" points="86.77,-85.77 76.81,-82.17 82.35,-91.2 86.77,-85.77"/>
</a>
</g>
</g>
<!-- Node3&#45;&gt;Node4 -->
<g id="edge3_Node000003_Node000004" class="edge">
<title>Node3&#45;&gt;Node4</title>
<g id="a_edge3_Node000003_Node000004"><a xlink:title=" ">
<path fill="none" stroke="#63b8ff" d="M216.12,-58.78C211.47,-51.22 205.12,-40.87 199.6,-31.88"/>
<polygon fill="#63b8ff" stroke="#63b8ff" points="202.47,-29.86 194.25,-23.17 196.5,-33.53 202.47,-29.86"/>
</a>
</g>
</g>
<!-- Node5 -->
<g id="Node000005" class="node">
<title>Node5</title>
<g id="a_Node000005"><a xlink:title=" ">
<polygon fill="#e0e0e0" stroke="#999999" points="281.7,-23 233.7,-23 233.7,0 281.7,0 281.7,-23"/>
<text text-anchor="middle" x="257.7" y="-7.8" font-family="Arial" font-size="14.00">limits</text>
</a>
</g>
</g>
<!-- Node3&#45;&gt;Node5 -->
<g id="edge4_Node000003_Node000005" class="edge">
<title>Node3&#45;&gt;Node5</title>
<g id="a_edge4_Node000003_Node000005"><a xlink:title=" ">
<path fill="none" stroke="#63b8ff" d="M229.28,-58.78C233.93,-51.22 240.28,-40.87 245.8,-31.88"/>
<polygon fill="#63b8ff" stroke="#63b8ff" points="248.9,-33.53 251.15,-23.17 242.93,-29.86 248.9,-33.53"/>
</a>
</g>
</g>
<!-- Node7&#45;&gt;Node4 -->
<g id="edge13_Node000007_Node000004" class="edge">
<title>Node7&#45;&gt;Node4</title>
<g id="a_edge13_Node000007_Node000004"><a xlink:title=" ">
<path fill="none" stroke="#63b8ff" d="M596.99,-117.97C620.99,-104.21 655.44,-79.45 636.7,-59 607.23,-26.84 303.21,-30.78 226.19,-22.52"/>
<polygon fill="#63b8ff" stroke="#63b8ff" points="226.24,-18.99 215.85,-21.08 225.27,-25.93 226.24,-18.99"/>
</a>
</g>
</g>
<!-- Node8 -->
<g id="Node000008" class="node">
<title>Node8</title>
<g id="a_Node000008"><a xlink:href="McuSelect_8h.html" target="_top" xlink:title="Centralized MCU platform selection and configuration header.">
<polygon fill="white" stroke="#666666" points="507.7,-82 415.7,-82 415.7,-59 507.7,-59 507.7,-82"/>
<text text-anchor="middle" x="461.7" y="-66.8" font-family="Arial" font-size="14.00">McuSelect.h</text>
</a>
</g>
</g>
<!-- Node7&#45;&gt;Node8 -->
<g id="edge8_Node000007_Node000008" class="edge">
<title>Node7&#45;&gt;Node8</title>
<g id="a_edge8_Node000007_Node000008"><a xlink:title=" ">
<path fill="none" stroke="#63b8ff" d="M555.34,-117.91C537.51,-109.07 511.88,-96.37 491.94,-86.49"/>
<polygon fill="#63b8ff" stroke="#63b8ff" points="493.46,-83.34 482.95,-82.03 490.35,-89.61 493.46,-83.34"/>
</a>
</g>
</g>
<!-- Node9 -->
<g id="Node000009" class="node">
<title>Node9</title>
<g id="a_Node000009"><a xlink:title=" ">
<polygon fill="#e0e0e0" stroke="#999999" points="827.2,-82 684.2,-82 684.2,-59 827.2,-59 827.2,-82"/>
<text text-anchor="middle" x="755.7" y="-66.8" font-family="Arial" font-size="14.00">freertos/FreeRTOS.h</text>
</a>
</g>
</g>
<!-- Node7&#45;&gt;Node9 -->
<g id="edge9_Node000007_Node000009" class="edge">
<title>Node7&#45;&gt;Node9</title>
<g id="a_edge9_Node000007_Node000009"><a xlink:title=" ">
<path fill="none" stroke="#63b8ff" d="M609.95,-117.91C638.96,-108.67 681.23,-95.21 712.79,-85.16"/>
<polygon fill="#63b8ff" stroke="#63b8ff" points="714.16,-88.4 722.63,-82.03 712.04,-81.73 714.16,-88.4"/>
</a>
</g>
</g>
<!-- Node10 -->
<g id="Node000010" class="node">
<title>Node10</title>
<g id="a_Node000010"><a xlink:title=" ">
<polygon fill="#e0e0e0" stroke="#999999" points="967.7,-82 845.7,-82 845.7,-59 967.7,-59 967.7,-82"/>
<text text-anchor="middle" x="906.7" y="-66.8" font-family="Arial" font-size="14.00">freertos/semphr.h</text>
</a>
</g>
</g>
<!-- Node7&#45;&gt;Node10 -->
<g id="edge10_Node000007_Node000010" class="edge">
<title>Node7&#45;&gt;Node10</title>
<g id="a_edge10_Node000007_Node000010"><a xlink:title=" ">
<path fill="none" stroke="#63b8ff" d="M623.28,-120.45C678.6,-110.9 771.44,-94.86 835.72,-83.76"/>
<polygon fill="#63b8ff" stroke="#63b8ff" points="836.52,-87.17 845.78,-82.02 835.33,-80.28 836.52,-87.17"/>
</a>
</g>
</g>
<!-- Node11 -->
<g id="Node000011" class="node">
<title>Node11</title>
<g id="a_Node000011"><a xlink:title=" ">
<polygon fill="#e0e0e0" stroke="#999999" points="627.7,-82 525.7,-82 525.7,-59 627.7,-59 627.7,-82"/>
<text text-anchor="middle" x="576.7" y="-66.8" font-family="Arial" font-size="14.00">freertos/task.h</text>
</a>
</g>
</g>
<!-- Node7&#45;&gt;Node11 -->
<g id="edge11_Node000007_Node000011" class="edge">
<title>Node7&#45;&gt;Node11</title>
<g id="a_edge11_Node000007_Node000011"><a xlink:title=" ">
<path fill="none" stroke="#63b8ff" d="M576.7,-117.78C576.7,-110.61 576.7,-100.95 576.7,-92.31"/>
<polygon fill="#63b8ff" stroke="#63b8ff" points="580.2,-92.17 576.7,-82.17 573.2,-92.17 580.2,-92.17"/>
</a>
</g>
</g>
<!-- Node12 -->
<g id="Node000012" class="node">
<title>Node12</title>
<g id="a_Node000012"><a xlink:title=" ">
<polygon fill="#e0e0e0" stroke="#999999" points="397.2,-82 340.2,-82 340.2,-59 397.2,-59 397.2,-82"/>
<text text-anchor="middle" x="368.7" y="-66.8" font-family="Arial" font-size="14.00">atomic</text>
</a>
</g>
</g>
<!-- Node7&#45;&gt;Node12 -->
<g id="edge12_Node000007_Node000012" class="edge">
<title>Node7&#45;&gt;Node12</title>
<g id="a_edge12_Node000007_Node000012"><a xlink:title=" ">
<path fill="none" stroke="#63b8ff" d="M537.87,-117.91C505.49,-109.07 457.89,-96.06 407.17,-82.13"/>
<polygon fill="#63b8ff" stroke="#63b8ff" points="407.9,-78.7 397.33,-79.42 406.05,-85.45 407.9,-78.7"/>
</a>
</g>
</g>
<!-- Node13&#45;&gt;Node2 -->
<g id="edge15_Node000013_Node000002" class="edge">
<title>Node13&#45;&gt;Node2</title>
<g id="a_edge15_Node000013_Node000002"><a xlink:title=" ">
<path fill="none" stroke="#63b8ff" d="M242,-176.91C221.09,-167.95 190.93,-155.02 167.74,-145.09"/>
<polygon fill="#63b8ff" stroke="#63b8ff" points="168.84,-141.75 158.27,-141.03 166.09,-148.19 168.84,-141.75"/>
</a>
</g>
</g>
<!-- Node13&#45;&gt;Node3 -->
<g id="edge21_Node000013_Node000003" class="edge">
<title>Node13&#45;&gt;Node3</title>
<g id="a_edge21_Node000013_Node000003"><a xlink:title=" ">
<path fill="none" stroke="#63b8ff" d="M266.98,-176.71C266.98,-162.67 265.69,-137.6 257.7,-118 253.57,-107.86 246.66,-97.97 240.07,-89.94"/>
<polygon fill="#63b8ff" stroke="#63b8ff" points="242.65,-87.57 233.45,-82.31 237.36,-92.16 242.65,-87.57"/>
</a>
</g>
</g>
<!-- Node13&#45;&gt;Node8 -->
<g id="edge22_Node000013_Node000008" class="edge">
<title>Node13&#45;&gt;Node8</title>
<g id="a_edge22_Node000013_Node000008"><a xlink:title=" ">
<path fill="none" stroke="#63b8ff" d="M341.94,-183.37C375.67,-177.83 413.64,-165.94 439.7,-141 452.94,-128.33 458.24,-107.74 460.35,-92.26"/>
<polygon fill="#63b8ff" stroke="#63b8ff" points="463.86,-92.38 461.39,-82.07 456.89,-91.67 463.86,-92.38"/>
</a>
</g>
</g>
<!-- Node14 -->
<g id="Node000014" class="node">
<title>Node14</title>
<g id="a_Node000014"><a xlink:href="EspTypes__Base_8h.html" target="_top" xlink:title="ESP32 base type definitions for hardware abstraction.">
<polygon fill="white" stroke="#666666" points="430.2,-141 305.2,-141 305.2,-118 430.2,-118 430.2,-141"/>
<text text-anchor="middle" x="367.7" y="-125.8" font-family="Arial" font-size="14.00">EspTypes_Base.h</text>
</a>
</g>
</g>
<!-- Node13&#45;&gt;Node14 -->
<g id="edge16_Node000013_Node000014" class="edge">
<title>Node13&#45;&gt;Node14</title>
<g id="a_edge16_Node000013_Node000014"><a xlink:title=" ">
<path fill="none" stroke="#63b8ff" d="M285.7,-176.78C300.93,-168.18 322.54,-155.99 339.75,-146.28"/>
<polygon fill="#63b8ff" stroke="#63b8ff" points="341.8,-149.14 348.79,-141.17 338.36,-143.04 341.8,-149.14"/>
</a>
</g>
</g>
<!-- Node15 -->
<g id="Node000015" class="node">
<title>Node15</title>
<g id="a_Node000015"><a xlink:title=" ">
<polygon fill="#e0e0e0" stroke="#999999" points="248.7,-141 192.7,-141 192.7,-118 248.7,-118 248.7,-141"/>
<text text-anchor="middle" x="220.7" y="-125.8" font-family="Arial" font-size="14.00">cstring</text>
</a>
</g>
</g>
<!-- Node13&#45;&gt;Node15 -->
<g id="edge23_Node000013_Node000015" class="edge">
<title>Node13&#45;&gt;Node15</title>
<g id="a_edge23_Node000013_Node000015"><a xlink:title=" ">
<path fill="none" stroke="#63b8ff" d="M258.05,-176.78C251.75,-168.98 243.07,-158.21 235.66,-149.03"/>
<polygon fill="#63b8ff" stroke="#63b8ff" points="238.32,-146.76 229.31,-141.17 232.87,-151.15 238.32,-146.76"/>
</a>
</g>
</g>
<!-- Node14&#45;&gt;Node3 -->
<g id="edge18_Node000014_Node000003" class="edge">
<title>Node14&#45;&gt;Node3</title>
<g id="a_edge18_Node000014_Node000003"><a xlink:title=" ">
<path fill="none" stroke="#63b8ff" d="M340.77,-117.91C317.77,-108.87 284.5,-95.79 259.13,-85.82"/>
<polygon fill="#63b8ff" stroke="#63b8ff" points="260.08,-82.43 249.49,-82.03 257.52,-88.95 260.08,-82.43"/>
</a>
</g>
</g>
<!-- Node14&#45;&gt;Node4 -->
<g id="edge20_Node000014_Node000004" class="edge">
<title>Node14&#45;&gt;Node4</title>
<g id="a_edge20_Node000014_Node000004"><a xlink:title=" ">
<path fill="none" stroke="#63b8ff" d="M358.41,-117.91C345.04,-103.19 319.09,-76.37 292.7,-59 271.71,-45.18 245.94,-33.7 225.18,-25.6"/>
<polygon fill="#63b8ff" stroke="#63b8ff" points="226.32,-22.29 215.73,-22.01 223.84,-28.84 226.32,-22.29"/>
</a>
</g>
</g>
<!-- Node14&#45;&gt;Node8 -->
<g id="edge17_Node000014_Node000008" class="edge">
<title>Node14&#45;&gt;Node8</title>
<g id="a_edge17_Node000014_Node000008"><a xlink:title=" ">
<path fill="none" stroke="#63b8ff" d="M385.38,-117.78C399.43,-109.26 419.3,-97.21 435.24,-87.55"/>
<polygon fill="#63b8ff" stroke="#63b8ff" points="437.36,-90.35 444.1,-82.17 433.73,-84.37 437.36,-90.35"/>
</a>
</g>
</g>
<!-- Node14&#45;&gt;Node12 -->
<g id="edge19_Node000014_Node000012" class="edge">
<title>Node14&#45;&gt;Node12</title>
<g id="a_edge19_Node000014_Node000012"><a xlink:title=" ">
<path fill="none" stroke="#63b8ff" d="M367.89,-117.78C368.01,-110.61 368.18,-100.95 368.34,-92.31"/>
<polygon fill="#63b8ff" stroke="#63b8ff" points="371.84,-92.23 368.51,-82.17 364.84,-92.11 371.84,-92.23"/>
</a>
</g>
</g>
</g>
</svg>
