<?xml version="1.0" encoding="UTF-8" standalone="no"?>
<!DOCTYPE svg PUBLIC "-//W3C//DTD SVG 1.1//EN"
 "http://www.w3.org/Graphics/SVG/1.1/DTD/svg11.dtd">
<!-- Generated by graphviz version 2.43.0 (0)
 -->
<!-- Title: src/mcu/esp32/EspNvs.cpp Pages: 1 -->
<svg width="1401pt" height="326pt"
 viewBox="0.00 0.00 1400.81 326.00" xmlns="http://www.w3.org/2000/svg" xmlns:xlink="http://www.w3.org/1999/xlink">
<g id="graph0" class="graph" transform="scale(1 1) rotate(0) translate(4 322)">
<title>src/mcu/esp32/EspNvs.cpp</title>
<!-- Node1 -->
<g id="Node000001" class="node">
<title>Node1</title>
<g id="a_Node000001"><a xlink:title="World&#45;class ESP32&#45;C6 NVS implementation with ESP&#45;IDF v5.5+ advanced features.">
<polygon fill="#999999" stroke="#666666" points="1191.81,-318 1010.81,-318 1010.81,-295 1191.81,-295 1191.81,-318"/>
<text text-anchor="middle" x="1101.31" y="-302.8" font-family="Arial" font-size="14.00">src/mcu/esp32/EspNvs.cpp</text>
</a>
</g>
</g>
<!-- Node2 -->
<g id="Node000002" class="node">
<title>Node2</title>
<g id="a_Node000002"><a xlink:href="EspNvs_8h.html" target="_top" xlink:title="World&#45;class ESP32&#45;C6 NVS storage implementation with ESP&#45;IDF v5.5+ features.">
<polygon fill="white" stroke="#666666" points="645.31,-259 571.31,-259 571.31,-236 645.31,-236 645.31,-259"/>
<text text-anchor="middle" x="608.31" y="-243.8" font-family="Arial" font-size="14.00">EspNvs.h</text>
</a>
</g>
</g>
<!-- Node1&#45;&gt;Node2 -->
<g id="edge1_Node000001_Node000002" class="edge">
<title>Node1&#45;&gt;Node2</title>
<g id="a_edge1_Node000001_Node000002"><a xlink:title=" ">
<path fill="none" stroke="#63b8ff" d="M1010.59,-295.01C905.65,-282.88 736.87,-263.36 655.36,-253.94"/>
<polygon fill="#63b8ff" stroke="#63b8ff" points="655.73,-250.46 645.39,-252.79 654.92,-257.41 655.73,-250.46"/>
</a>
</g>
</g>
<!-- Node16 -->
<g id="Node000016" class="node">
<title>Node16</title>
<g id="a_Node000016"><a xlink:title=" ">
<polygon fill="#e0e0e0" stroke="#999999" points="794.31,-141 738.31,-141 738.31,-118 794.31,-118 794.31,-141"/>
<text text-anchor="middle" x="766.31" y="-125.8" font-family="Arial" font-size="14.00">cstring</text>
</a>
</g>
</g>
<!-- Node1&#45;&gt;Node16 -->
<g id="edge26_Node000001_Node000016" class="edge">
<title>Node1&#45;&gt;Node16</title>
<g id="a_edge26_Node000001_Node000016"><a xlink:title=" ">
<path fill="none" stroke="#63b8ff" d="M1080.3,-294.86C1061.84,-285.48 1034.24,-271.42 1010.31,-259 932.34,-218.55 840.82,-170.09 795.2,-145.87"/>
<polygon fill="#63b8ff" stroke="#63b8ff" points="796.66,-142.68 786.19,-141.08 793.38,-148.86 796.66,-142.68"/>
</a>
</g>
</g>
<!-- Node17 -->
<g id="Node000017" class="node">
<title>Node17</title>
<g id="a_Node000017"><a xlink:title=" ">
<polygon fill="#e0e0e0" stroke="#999999" points="1091.81,-259 1018.81,-259 1018.81,-236 1091.81,-236 1091.81,-259"/>
<text text-anchor="middle" x="1055.31" y="-243.8" font-family="Arial" font-size="14.00">esp_err.h</text>
</a>
</g>
</g>
<!-- Node1&#45;&gt;Node17 -->
<g id="edge27_Node000001_Node000017" class="edge">
<title>Node1&#45;&gt;Node17</title>
<g id="a_edge27_Node000001_Node000017"><a xlink:title=" ">
<path fill="none" stroke="#63b8ff" d="M1092.65,-294.78C1086.36,-286.98 1077.67,-276.21 1070.26,-267.03"/>
<polygon fill="#63b8ff" stroke="#63b8ff" points="1072.92,-264.76 1063.92,-259.17 1067.48,-269.15 1072.92,-264.76"/>
</a>
</g>
</g>
<!-- Node18 -->
<g id="Node000018" class="node">
<title>Node18</title>
<g id="a_Node000018"><a xlink:title=" ">
<polygon fill="#e0e0e0" stroke="#999999" points="1184.81,-259 1109.81,-259 1109.81,-236 1184.81,-236 1184.81,-259"/>
<text text-anchor="middle" x="1147.31" y="-243.8" font-family="Arial" font-size="14.00">esp_log.h</text>
</a>
</g>
</g>
<!-- Node1&#45;&gt;Node18 -->
<g id="edge28_Node000001_Node000018" class="edge">
<title>Node1&#45;&gt;Node18</title>
<g id="a_edge28_Node000001_Node000018"><a xlink:title=" ">
<path fill="none" stroke="#63b8ff" d="M1109.96,-294.78C1116.25,-286.98 1124.94,-276.21 1132.35,-267.03"/>
<polygon fill="#63b8ff" stroke="#63b8ff" points="1135.14,-269.15 1138.69,-259.17 1129.69,-264.76 1135.14,-269.15"/>
</a>
</g>
</g>
<!-- Node19 -->
<g id="Node000019" class="node">
<title>Node19</title>
<g id="a_Node000019"><a xlink:title=" ">
<polygon fill="#e0e0e0" stroke="#999999" points="1289.81,-259 1202.81,-259 1202.81,-236 1289.81,-236 1289.81,-259"/>
<text text-anchor="middle" x="1246.31" y="-243.8" font-family="Arial" font-size="14.00">esp_timer.h</text>
</a>
</g>
</g>
<!-- Node1&#45;&gt;Node19 -->
<g id="edge29_Node000001_Node000019" class="edge">
<title>Node1&#45;&gt;Node19</title>
<g id="a_edge29_Node000001_Node000019"><a xlink:title=" ">
<path fill="none" stroke="#63b8ff" d="M1128.24,-294.91C1151.23,-285.87 1184.51,-272.79 1209.87,-262.82"/>
<polygon fill="#63b8ff" stroke="#63b8ff" points="1211.49,-265.95 1219.52,-259.03 1208.93,-259.43 1211.49,-265.95"/>
</a>
</g>
</g>
<!-- Node20 -->
<g id="Node000020" class="node">
<title>Node20</title>
<g id="a_Node000020"><a xlink:title=" ">
<polygon fill="#e0e0e0" stroke="#999999" points="1392.81,-259 1307.81,-259 1307.81,-236 1392.81,-236 1392.81,-259"/>
<text text-anchor="middle" x="1350.31" y="-243.8" font-family="Arial" font-size="14.00">nvs_flash.h</text>
</a>
</g>
</g>
<!-- Node1&#45;&gt;Node20 -->
<g id="edge30_Node000001_Node000020" class="edge">
<title>Node1&#45;&gt;Node20</title>
<g id="a_edge30_Node000001_Node000020"><a xlink:title=" ">
<path fill="none" stroke="#63b8ff" d="M1147.27,-294.98C1189.86,-285.23 1253.17,-270.74 1297.75,-260.53"/>
<polygon fill="#63b8ff" stroke="#63b8ff" points="1298.56,-263.94 1307.52,-258.29 1297,-257.11 1298.56,-263.94"/>
</a>
</g>
</g>
<!-- Node3 -->
<g id="Node000003" class="node">
<title>Node3</title>
<g id="a_Node000003"><a xlink:href="BaseNvs_8h.html" target="_top" xlink:title="Abstract base class for Non&#45;Volatile Storage implementations in the HardFOC system.">
<polygon fill="white" stroke="#666666" points="185.31,-141 103.31,-141 103.31,-118 185.31,-118 185.31,-141"/>
<text text-anchor="middle" x="144.31" y="-125.8" font-family="Arial" font-size="14.00">BaseNvs.h</text>
</a>
</g>
</g>
<!-- Node2&#45;&gt;Node3 -->
<g id="edge2_Node000002_Node000003" class="edge">
<title>Node2&#45;&gt;Node3</title>
<g id="a_edge2_Node000002_Node000003"><a xlink:title=" ">
<path fill="none" stroke="#63b8ff" d="M571.2,-246.11C507.11,-244.42 372.26,-236.4 265.31,-200 228.29,-187.4 189.86,-163.07 166.51,-146.8"/>
<polygon fill="#63b8ff" stroke="#63b8ff" points="168.51,-143.93 158.33,-141 164.46,-149.64 168.51,-143.93"/>
</a>
</g>
</g>
<!-- Node5 -->
<g id="Node000005" class="node">
<title>Node5</title>
<g id="a_Node000005"><a xlink:title=" ">
<polygon fill="#e0e0e0" stroke="#999999" points="296.31,-23 240.31,-23 240.31,0 296.31,0 296.31,-23"/>
<text text-anchor="middle" x="268.31" y="-7.8" font-family="Arial" font-size="14.00">cstdint</text>
</a>
</g>
</g>
<!-- Node2&#45;&gt;Node5 -->
<g id="edge25_Node000002_Node000005" class="edge">
<title>Node2&#45;&gt;Node5</title>
<g id="a_edge25_Node000002_Node000005"><a xlink:title=" ">
<path fill="none" stroke="#63b8ff" d="M645.42,-240.14C748.8,-220.98 1026.49,-158.93 933.31,-59 890.46,-13.06 441.95,-11.6 306.7,-12.21"/>
<polygon fill="#63b8ff" stroke="#63b8ff" points="306.4,-8.71 296.41,-12.27 306.43,-15.71 306.4,-8.71"/>
</a>
</g>
</g>
<!-- Node8 -->
<g id="Node000008" class="node">
<title>Node8</title>
<g id="a_Node000008"><a xlink:href="RtosMutex_8h.html" target="_top" xlink:title="Cross&#45;platform RTOS mutex and synchronization primitives.">
<polygon fill="white" stroke="#666666" points="654.81,-141 561.81,-141 561.81,-118 654.81,-118 654.81,-141"/>
<text text-anchor="middle" x="608.31" y="-125.8" font-family="Arial" font-size="14.00">RtosMutex.h</text>
</a>
</g>
</g>
<!-- Node2&#45;&gt;Node8 -->
<g id="edge8_Node000002_Node000008" class="edge">
<title>Node2&#45;&gt;Node8</title>
<g id="a_edge8_Node000002_Node000008"><a xlink:title=" ">
<path fill="none" stroke="#63b8ff" d="M608.31,-235.79C608.31,-216.63 608.31,-176.15 608.31,-151.34"/>
<polygon fill="#63b8ff" stroke="#63b8ff" points="611.81,-151.18 608.31,-141.18 604.81,-151.18 611.81,-151.18"/>
</a>
</g>
</g>
<!-- Node14 -->
<g id="Node000014" class="node">
<title>Node14</title>
<g id="a_Node000014"><a xlink:href="EspTypes__NVS_8h.html" target="_top" xlink:title="ESP32 NVS type definitions for hardware abstraction.">
<polygon fill="white" stroke="#666666" points="424.31,-200 274.31,-200 274.31,-177 424.31,-177 424.31,-200"/>
<text text-anchor="middle" x="349.31" y="-184.8" font-family="Arial" font-size="14.00">utils/EspTypes_NVS.h</text>
</a>
</g>
</g>
<!-- Node2&#45;&gt;Node14 -->
<g id="edge15_Node000002_Node000014" class="edge">
<title>Node2&#45;&gt;Node14</title>
<g id="a_edge15_Node000002_Node000014"><a xlink:title=" ">
<path fill="none" stroke="#63b8ff" d="M571.2,-238.33C528.41,-228.92 457.53,-213.32 407.41,-202.29"/>
<polygon fill="#63b8ff" stroke="#63b8ff" points="407.88,-198.81 397.37,-200.08 406.38,-205.64 407.88,-198.81"/>
</a>
</g>
</g>
<!-- Node4 -->
<g id="Node000004" class="node">
<title>Node4</title>
<g id="a_Node000004"><a xlink:href="HardwareTypes_8h.html" target="_top" xlink:title="Platform&#45;agnostic hardware type definitions for the HardFOC system.">
<polygon fill="white" stroke="#666666" points="240.31,-82 118.31,-82 118.31,-59 240.31,-59 240.31,-82"/>
<text text-anchor="middle" x="179.31" y="-66.8" font-family="Arial" font-size="14.00">HardwareTypes.h</text>
</a>
</g>
</g>
<!-- Node3&#45;&gt;Node4 -->
<g id="edge3_Node000003_Node000004" class="edge">
<title>Node3&#45;&gt;Node4</title>
<g id="a_edge3_Node000003_Node000004"><a xlink:title=" ">
<path fill="none" stroke="#63b8ff" d="M150.89,-117.78C155.53,-110.22 161.89,-99.87 167.41,-90.88"/>
<polygon fill="#63b8ff" stroke="#63b8ff" points="170.5,-92.53 172.75,-82.17 164.54,-88.86 170.5,-92.53"/>
</a>
</g>
</g>
<!-- Node3&#45;&gt;Node5 -->
<g id="edge6_Node000003_Node000005" class="edge">
<title>Node3&#45;&gt;Node5</title>
<g id="a_edge6_Node000003_Node000005"><a xlink:title=" ">
<path fill="none" stroke="#63b8ff" d="M103.26,-122.84C52.76,-114.21 -22.79,-94.85 7.31,-59 37.05,-23.58 166.8,-31.26 212.31,-23 218.1,-21.95 224.24,-20.82 230.23,-19.7"/>
<polygon fill="#63b8ff" stroke="#63b8ff" points="230.93,-23.13 240.12,-17.85 229.64,-16.25 230.93,-23.13"/>
</a>
</g>
</g>
<!-- Node7 -->
<g id="Node000007" class="node">
<title>Node7</title>
<g id="a_Node000007"><a xlink:title=" ">
<polygon fill="#e0e0e0" stroke="#999999" points="100.31,-82 16.31,-82 16.31,-59 100.31,-59 100.31,-82"/>
<text text-anchor="middle" x="58.31" y="-66.8" font-family="Arial" font-size="14.00">string_view</text>
</a>
</g>
</g>
<!-- Node3&#45;&gt;Node7 -->
<g id="edge7_Node000003_Node000007" class="edge">
<title>Node3&#45;&gt;Node7</title>
<g id="a_edge7_Node000003_Node000007"><a xlink:title=" ">
<path fill="none" stroke="#63b8ff" d="M128.13,-117.78C115.4,-109.34 97.44,-97.44 82.92,-87.82"/>
<polygon fill="#63b8ff" stroke="#63b8ff" points="84.68,-84.78 74.41,-82.17 80.81,-90.62 84.68,-84.78"/>
</a>
</g>
</g>
<!-- Node4&#45;&gt;Node5 -->
<g id="edge4_Node000004_Node000005" class="edge">
<title>Node4&#45;&gt;Node5</title>
<g id="a_edge4_Node000004_Node000005"><a xlink:title=" ">
<path fill="none" stroke="#63b8ff" d="M196.05,-58.78C209.22,-50.34 227.81,-38.44 242.83,-28.82"/>
<polygon fill="#63b8ff" stroke="#63b8ff" points="245.11,-31.51 251.64,-23.17 241.33,-25.62 245.11,-31.51"/>
</a>
</g>
</g>
<!-- Node6 -->
<g id="Node000006" class="node">
<title>Node6</title>
<g id="a_Node000006"><a xlink:title=" ">
<polygon fill="#e0e0e0" stroke="#999999" points="203.31,-23 155.31,-23 155.31,0 203.31,0 203.31,-23"/>
<text text-anchor="middle" x="179.31" y="-7.8" font-family="Arial" font-size="14.00">limits</text>
</a>
</g>
</g>
<!-- Node4&#45;&gt;Node6 -->
<g id="edge5_Node000004_Node000006" class="edge">
<title>Node4&#45;&gt;Node6</title>
<g id="a_edge5_Node000004_Node000006"><a xlink:title=" ">
<path fill="none" stroke="#63b8ff" d="M179.31,-58.78C179.31,-51.61 179.31,-41.95 179.31,-33.31"/>
<polygon fill="#63b8ff" stroke="#63b8ff" points="182.81,-33.17 179.31,-23.17 175.81,-33.17 182.81,-33.17"/>
</a>
</g>
</g>
<!-- Node8&#45;&gt;Node5 -->
<g id="edge14_Node000008_Node000005" class="edge">
<title>Node8&#45;&gt;Node5</title>
<g id="a_edge14_Node000008_Node000005"><a xlink:title=" ">
<path fill="none" stroke="#63b8ff" d="M654.88,-119.91C700.92,-109.47 760.8,-89.38 733.31,-59 704.85,-27.56 412.73,-16.46 306.59,-13.45"/>
<polygon fill="#63b8ff" stroke="#63b8ff" points="306.42,-9.94 296.33,-13.16 306.23,-16.94 306.42,-9.94"/>
</a>
</g>
</g>
<!-- Node9 -->
<g id="Node000009" class="node">
<title>Node9</title>
<g id="a_Node000009"><a xlink:href="McuSelect_8h.html" target="_top" xlink:title="Centralized MCU platform selection and configuration header.">
<polygon fill="white" stroke="#666666" points="388.31,-82 296.31,-82 296.31,-59 388.31,-59 388.31,-82"/>
<text text-anchor="middle" x="342.31" y="-66.8" font-family="Arial" font-size="14.00">McuSelect.h</text>
</a>
</g>
</g>
<!-- Node8&#45;&gt;Node9 -->
<g id="edge9_Node000008_Node000009" class="edge">
<title>Node8&#45;&gt;Node9</title>
<g id="a_edge9_Node000008_Node000009"><a xlink:title=" ">
<path fill="none" stroke="#63b8ff" d="M561.67,-118.51C516.18,-108.76 446.95,-93.92 398.46,-83.53"/>
<polygon fill="#63b8ff" stroke="#63b8ff" points="398.96,-80.06 388.44,-81.39 397.49,-86.9 398.96,-80.06"/>
</a>
</g>
</g>
<!-- Node10 -->
<g id="Node000010" class="node">
<title>Node10</title>
<g id="a_Node000010"><a xlink:title=" ">
<polygon fill="#e0e0e0" stroke="#999999" points="923.81,-82 780.81,-82 780.81,-59 923.81,-59 923.81,-82"/>
<text text-anchor="middle" x="852.31" y="-66.8" font-family="Arial" font-size="14.00">freertos/FreeRTOS.h</text>
</a>
</g>
</g>
<!-- Node8&#45;&gt;Node10 -->
<g id="edge10_Node000008_Node000010" class="edge">
<title>Node8&#45;&gt;Node10</title>
<g id="a_edge10_Node000008_Node000010"><a xlink:title=" ">
<path fill="none" stroke="#63b8ff" d="M653.34,-117.98C693.97,-108.49 753.83,-94.5 797.28,-84.35"/>
<polygon fill="#63b8ff" stroke="#63b8ff" points="798.18,-87.74 807.12,-82.06 796.58,-80.92 798.18,-87.74"/>
</a>
</g>
</g>
<!-- Node11 -->
<g id="Node000011" class="node">
<title>Node11</title>
<g id="a_Node000011"><a xlink:title=" ">
<polygon fill="#e0e0e0" stroke="#999999" points="604.31,-82 482.31,-82 482.31,-59 604.31,-59 604.31,-82"/>
<text text-anchor="middle" x="543.31" y="-66.8" font-family="Arial" font-size="14.00">freertos/semphr.h</text>
</a>
</g>
</g>
<!-- Node8&#45;&gt;Node11 -->
<g id="edge11_Node000008_Node000011" class="edge">
<title>Node8&#45;&gt;Node11</title>
<g id="a_edge11_Node000008_Node000011"><a xlink:title=" ">
<path fill="none" stroke="#63b8ff" d="M596.08,-117.78C586.82,-109.66 573.9,-98.33 563.17,-88.92"/>
<polygon fill="#63b8ff" stroke="#63b8ff" points="565.3,-86.13 555.48,-82.17 560.69,-91.4 565.3,-86.13"/>
</a>
</g>
</g>
<!-- Node12 -->
<g id="Node000012" class="node">
<title>Node12</title>
<g id="a_Node000012"><a xlink:title=" ">
<polygon fill="#e0e0e0" stroke="#999999" points="724.31,-82 622.31,-82 622.31,-59 724.31,-59 724.31,-82"/>
<text text-anchor="middle" x="673.31" y="-66.8" font-family="Arial" font-size="14.00">freertos/task.h</text>
</a>
</g>
</g>
<!-- Node8&#45;&gt;Node12 -->
<g id="edge12_Node000008_Node000012" class="edge">
<title>Node8&#45;&gt;Node12</title>
<g id="a_edge12_Node000008_Node000012"><a xlink:title=" ">
<path fill="none" stroke="#63b8ff" d="M620.53,-117.78C629.79,-109.66 642.71,-98.33 653.45,-88.92"/>
<polygon fill="#63b8ff" stroke="#63b8ff" points="655.92,-91.4 661.13,-82.17 651.31,-86.13 655.92,-91.4"/>
</a>
</g>
</g>
<!-- Node13 -->
<g id="Node000013" class="node">
<title>Node13</title>
<g id="a_Node000013"><a xlink:title=" ">
<polygon fill="#e0e0e0" stroke="#999999" points="463.81,-82 406.81,-82 406.81,-59 463.81,-59 463.81,-82"/>
<text text-anchor="middle" x="435.31" y="-66.8" font-family="Arial" font-size="14.00">atomic</text>
</a>
</g>
</g>
<!-- Node8&#45;&gt;Node13 -->
<g id="edge13_Node000008_Node000013" class="edge">
<title>Node8&#45;&gt;Node13</title>
<g id="a_edge13_Node000008_Node000013"><a xlink:title=" ">
<path fill="none" stroke="#63b8ff" d="M576.17,-117.91C547.07,-108.33 504.18,-94.19 473.37,-84.04"/>
<polygon fill="#63b8ff" stroke="#63b8ff" points="474.42,-80.7 463.83,-80.9 472.23,-87.35 474.42,-80.7"/>
</a>
</g>
</g>
<!-- Node14&#45;&gt;Node3 -->
<g id="edge16_Node000014_Node000003" class="edge">
<title>Node14&#45;&gt;Node3</title>
<g id="a_edge16_Node000014_Node000003"><a xlink:title=" ">
<path fill="none" stroke="#63b8ff" d="M311.23,-176.91C277.57,-167.55 228.33,-153.86 192.05,-143.77"/>
<polygon fill="#63b8ff" stroke="#63b8ff" points="192.75,-140.34 182.18,-141.03 190.88,-147.08 192.75,-140.34"/>
</a>
</g>
</g>
<!-- Node14&#45;&gt;Node4 -->
<g id="edge22_Node000014_Node000004" class="edge">
<title>Node14&#45;&gt;Node4</title>
<g id="a_edge22_Node000014_Node000004"><a xlink:title=" ">
<path fill="none" stroke="#63b8ff" d="M307.53,-176.93C283.85,-169.53 254.6,-157.91 232.31,-141 214.38,-127.41 199.45,-106.26 190.05,-90.85"/>
<polygon fill="#63b8ff" stroke="#63b8ff" points="193.01,-88.98 184.93,-82.13 186.97,-92.52 193.01,-88.98"/>
</a>
</g>
</g>
<!-- Node14&#45;&gt;Node9 -->
<g id="edge23_Node000014_Node000009" class="edge">
<title>Node14&#45;&gt;Node9</title>
<g id="a_edge23_Node000014_Node000009"><a xlink:title=" ">
<path fill="none" stroke="#63b8ff" d="M358.04,-176.78C367.99,-163.23 382.04,-139.11 375.31,-118 372.08,-107.89 365.77,-98.09 359.52,-90.12"/>
<polygon fill="#63b8ff" stroke="#63b8ff" points="362.03,-87.66 352.92,-82.25 356.67,-92.16 362.03,-87.66"/>
</a>
</g>
</g>
<!-- Node15 -->
<g id="Node000015" class="node">
<title>Node15</title>
<g id="a_Node000015"><a xlink:href="EspTypes__Base_8h.html" target="_top" xlink:title="ESP32 base type definitions for hardware abstraction.">
<polygon fill="white" stroke="#666666" points="366.81,-141 241.81,-141 241.81,-118 366.81,-118 366.81,-141"/>
<text text-anchor="middle" x="304.31" y="-125.8" font-family="Arial" font-size="14.00">EspTypes_Base.h</text>
</a>
</g>
</g>
<!-- Node14&#45;&gt;Node15 -->
<g id="edge17_Node000014_Node000015" class="edge">
<title>Node14&#45;&gt;Node15</title>
<g id="a_edge17_Node000014_Node000015"><a xlink:title=" ">
<path fill="none" stroke="#63b8ff" d="M340.84,-176.78C334.68,-168.98 326.19,-158.21 318.94,-149.03"/>
<polygon fill="#63b8ff" stroke="#63b8ff" points="321.68,-146.85 312.73,-141.17 316.18,-151.19 321.68,-146.85"/>
</a>
</g>
</g>
<!-- Node14&#45;&gt;Node16 -->
<g id="edge24_Node000014_Node000016" class="edge">
<title>Node14&#45;&gt;Node16</title>
<g id="a_edge24_Node000014_Node000016"><a xlink:title=" ">
<path fill="none" stroke="#63b8ff" d="M424.34,-177.24C513.55,-165.05 659.01,-145.17 727.86,-135.76"/>
<polygon fill="#63b8ff" stroke="#63b8ff" points="728.4,-139.21 737.84,-134.39 727.46,-132.28 728.4,-139.21"/>
</a>
</g>
</g>
<!-- Node15&#45;&gt;Node4 -->
<g id="edge19_Node000015_Node000004" class="edge">
<title>Node15&#45;&gt;Node4</title>
<g id="a_edge19_Node000015_Node000004"><a xlink:title=" ">
<path fill="none" stroke="#63b8ff" d="M281.09,-117.91C261.53,-108.99 233.34,-96.14 211.59,-86.22"/>
<polygon fill="#63b8ff" stroke="#63b8ff" points="212.95,-83 202.4,-82.03 210.05,-89.36 212.95,-83"/>
</a>
</g>
</g>
<!-- Node15&#45;&gt;Node5 -->
<g id="edge21_Node000015_Node000005" class="edge">
<title>Node15&#45;&gt;Node5</title>
<g id="a_edge21_Node000015_Node000005"><a xlink:title=" ">
<path fill="none" stroke="#63b8ff" d="M300.13,-117.88C296.52,-108.51 291.27,-94.45 287.31,-82 282.15,-65.83 277.12,-47.27 273.53,-33.4"/>
<polygon fill="#63b8ff" stroke="#63b8ff" points="276.85,-32.24 270.99,-23.42 270.07,-33.97 276.85,-32.24"/>
</a>
</g>
</g>
<!-- Node15&#45;&gt;Node9 -->
<g id="edge18_Node000015_Node000009" class="edge">
<title>Node15&#45;&gt;Node9</title>
<g id="a_edge18_Node000015_Node000009"><a xlink:title=" ">
<path fill="none" stroke="#63b8ff" d="M311.45,-117.78C316.55,-110.14 323.54,-99.65 329.58,-90.6"/>
<polygon fill="#63b8ff" stroke="#63b8ff" points="332.56,-92.44 335.19,-82.17 326.73,-88.55 332.56,-92.44"/>
</a>
</g>
</g>
<!-- Node15&#45;&gt;Node13 -->
<g id="edge20_Node000015_Node000013" class="edge">
<title>Node15&#45;&gt;Node13</title>
<g id="a_edge20_Node000015_Node000013"><a xlink:title=" ">
<path fill="none" stroke="#63b8ff" d="M328.64,-117.91C349.23,-108.95 378.94,-96.02 401.78,-86.09"/>
<polygon fill="#63b8ff" stroke="#63b8ff" points="403.33,-89.23 411.1,-82.03 400.54,-82.81 403.33,-89.23"/>
</a>
</g>
</g>
</g>
</svg>
