<?xml version="1.0" encoding="UTF-8" standalone="no"?>
<!DOCTYPE svg PUBLIC "-//W3C//DTD SVG 1.1//EN"
 "http://www.w3.org/Graphics/SVG/1.1/DTD/svg11.dtd">
<!-- Generated by graphviz version 2.43.0 (0)
 -->
<!-- Title: inc/mcu/esp32/EspPwm.h Pages: 1 -->
<!--zoomable 326 -->

<svg id="main" version="1.1" xmlns="http://www.w3.org/2000/svg" xmlns:xlink="http://www.w3.org/1999/xlink" xml:space="preserve" onload="init(evt)">
<style type="text/css"><![CDATA[
.node, .edge {opacity: 0.7;}
.node.selected, .edge.selected {opacity: 1;}
.edge:hover path { stroke: red; }
.edge:hover polygon { stroke: red; fill: red; }
]]></style>

<defs>
  <circle id="rim" cx="0" cy="0" r="7"/>
  <circle id="rim2" cx="0" cy="0" r="3.5"/>
  <g id="zoomPlus">
    <use xlink:href="#rim" fill="#404040"><set attributeName="fill" to="#808080" begin="zoomplus.mouseover" end="zoomplus.mouseout"/></use>
    <path d="M-4,0h8M0,-4v8" fill="none" stroke="white" stroke-width="1.5" pointer-events="none"/>
  </g>
  <g id="zoomMin">
    <use xlink:href="#rim" fill="#404040"><set attributeName="fill" to="#808080" begin="zoomminus.mouseover" end="zoomminus.mouseout"/></use>
    <path d="M-4,0h8" fill="none" stroke="white" stroke-width="1.5" pointer-events="none"/>
  </g>
  <g id="arrowUp" transform="translate(30 24)">
    <use xlink:href="#rim"/>
    <path pointer-events="none" fill="none" stroke="white" stroke-width="1.5" d="M0,-3.0v7 M-2.5,-0.5L0,-3.0L2.5,-0.5"/>
  </g>
  <g id="arrowRight" transform="rotate(90) translate(36 -43)">
    <use xlink:href="#rim"/>
    <path pointer-events="none" fill="none" stroke="white" stroke-width="1.5" d="M0,-3.0v7 M-2.5,-0.5L0,-3.0L2.5,-0.5"/>
  </g>
  <g id="arrowDown" transform="rotate(180) translate(-30 -48)">
    <use xlink:href="#rim"/>
    <path pointer-events="none" fill="none" stroke="white" stroke-width="1.5" d="M0,-3.0v7 M-2.5,-0.5L0,-3.0L2.5,-0.5"/>
  </g>
  <g id="arrowLeft" transform="rotate(270) translate(-36 17)">
    <use xlink:href="#rim"/>
    <path pointer-events="none" fill="none" stroke="white" stroke-width="1.5" d="M0,-3.0v7 M-2.5,-0.5L0,-3.0L2.5,-0.5"/>
  </g>
  <g id="resetDef">
    <use xlink:href="#rim2" fill="#404040"><set attributeName="fill" to="#808080" begin="reset.mouseover" end="reset.mouseout"/></use>
  </g>
</defs>
<script type="application/ecmascript">
var viewWidth = 1060;
var viewHeight = 326;
var sectionId = 'dynsection-0';
</script>
<script type="application/ecmascript" xlink:href="svg.min.js"/>
<svg id="graph" class="graph">
<g id="viewport">
<title>inc/mcu/esp32/EspPwm.h</title>
<!-- Node1 -->
<g id="Node000001" class="node">
<title>Node1</title>
<g id="a_Node000001"><a xlink:title="ESP32C6 LEDC (PWM) controller implementation for the HardFOC system.">
<polygon fill="#999999" stroke="#666666" points="762.3,-318 589.3,-318 589.3,-295 762.3,-295 762.3,-318"/>
<text text-anchor="middle" x="675.8" y="-302.8" font-family="Arial" font-size="14.00">inc/mcu/esp32/EspPwm.h</text>
</a>
</g>
</g>
<!-- Node2 -->
<g id="Node000002" class="node">
<title>Node2</title>
<g id="a_Node000002"><a xlink:href="BasePwm_8h.html" target="_top" xlink:title="Abstract base class for PWM implementations in the HardFOC system.">
<polygon fill="white" stroke="#666666" points="132.3,-141 43.3,-141 43.3,-118 132.3,-118 132.3,-141"/>
<text text-anchor="middle" x="87.8" y="-125.8" font-family="Arial" font-size="14.00">BasePwm.h</text>
</a>
</g>
</g>
<!-- Node1&#45;&gt;Node2 -->
<g id="edge1_Node000001_Node000002" class="edge">
<title>Node1&#45;&gt;Node2</title>
<g id="a_edge1_Node000001_Node000002"><a xlink:title=" ">
<path fill="none" stroke="#63b8ff" d="M588.96,-302.54C504.73,-298.07 373.87,-286.9 263.8,-259 195.95,-241.81 167.86,-248.9 117.8,-200 104.25,-186.77 96.45,-166.43 92.22,-151.16"/>
<polygon fill="#63b8ff" stroke="#63b8ff" points="95.54,-149.99 89.74,-141.12 88.74,-151.67 95.54,-149.99"/>
</a>
</g>
</g>
<!-- Node8 -->
<g id="Node000008" class="node">
<title>Node8</title>
<g id="a_Node000008"><a xlink:href="RtosMutex_8h.html" target="_top" xlink:title="Cross&#45;platform RTOS mutex and synchronization primitives.">
<polygon fill="white" stroke="#666666" points="647.3,-141 554.3,-141 554.3,-118 647.3,-118 647.3,-141"/>
<text text-anchor="middle" x="600.8" y="-125.8" font-family="Arial" font-size="14.00">RtosMutex.h</text>
</a>
</g>
</g>
<!-- Node1&#45;&gt;Node8 -->
<g id="edge8_Node000001_Node000008" class="edge">
<title>Node1&#45;&gt;Node8</title>
<g id="a_edge8_Node000001_Node000008"><a xlink:title=" ">
<path fill="none" stroke="#63b8ff" d="M671.22,-294.82C658.95,-266.19 625.2,-187.43 609.29,-150.33"/>
<polygon fill="#63b8ff" stroke="#63b8ff" points="612.47,-148.86 605.31,-141.04 606.04,-151.61 612.47,-148.86"/>
</a>
</g>
</g>
<!-- Node13 -->
<g id="Node000013" class="node">
<title>Node13</title>
<g id="a_Node000013"><a xlink:title=" ">
<polygon fill="#e0e0e0" stroke="#999999" points="630.3,-82 573.3,-82 573.3,-59 630.3,-59 630.3,-82"/>
<text text-anchor="middle" x="601.8" y="-66.8" font-family="Arial" font-size="14.00">atomic</text>
</a>
</g>
</g>
<!-- Node1&#45;&gt;Node13 -->
<g id="edge34_Node000001_Node000013" class="edge">
<title>Node1&#45;&gt;Node13</title>
<g id="a_edge34_Node000001_Node000013"><a xlink:title=" ">
<path fill="none" stroke="#63b8ff" d="M677.23,-294.99C680.8,-265.22 687.58,-178.59 655.8,-118 649.51,-106.02 638.74,-95.78 628.46,-88"/>
<polygon fill="#63b8ff" stroke="#63b8ff" points="630.24,-84.96 620.05,-82.04 626.19,-90.68 630.24,-84.96"/>
</a>
</g>
</g>
<!-- Node14 -->
<g id="Node000014" class="node">
<title>Node14</title>
<g id="a_Node000014"><a xlink:href="EspTypes__PWM_8h.html" target="_top" xlink:title="ESP32 PWM type definitions for LEDC peripheral hardware abstraction.">
<polygon fill="white" stroke="#666666" points="430.3,-259 273.3,-259 273.3,-236 430.3,-236 430.3,-259"/>
<text text-anchor="middle" x="351.8" y="-243.8" font-family="Arial" font-size="14.00">utils/EspTypes_PWM.h</text>
</a>
</g>
</g>
<!-- Node1&#45;&gt;Node14 -->
<g id="edge15_Node000001_Node000014" class="edge">
<title>Node1&#45;&gt;Node14</title>
<g id="a_edge15_Node000001_Node000014"><a xlink:title=" ">
<path fill="none" stroke="#63b8ff" d="M615.99,-294.98C561.05,-285.31 479.61,-270.99 421.69,-260.8"/>
<polygon fill="#63b8ff" stroke="#63b8ff" points="421.98,-257.29 411.52,-259.01 420.77,-264.19 421.98,-257.29"/>
</a>
</g>
</g>
<!-- Node18 -->
<g id="Node000018" class="node">
<title>Node18</title>
<g id="a_Node000018"><a xlink:title=" ">
<polygon fill="#e0e0e0" stroke="#999999" points="751.3,-259 704.3,-259 704.3,-236 751.3,-236 751.3,-259"/>
<text text-anchor="middle" x="727.8" y="-243.8" font-family="Arial" font-size="14.00">array</text>
</a>
</g>
</g>
<!-- Node1&#45;&gt;Node18 -->
<g id="edge33_Node000001_Node000018" class="edge">
<title>Node1&#45;&gt;Node18</title>
<g id="a_edge33_Node000001_Node000018"><a xlink:title=" ">
<path fill="none" stroke="#63b8ff" d="M685.58,-294.78C692.77,-286.9 702.71,-275.99 711.15,-266.75"/>
<polygon fill="#63b8ff" stroke="#63b8ff" points="713.9,-268.92 718.06,-259.17 708.73,-264.2 713.9,-268.92"/>
</a>
</g>
</g>
<!-- Node19 -->
<g id="Node000019" class="node">
<title>Node19</title>
<g id="a_Node000019"><a xlink:title=" ">
<polygon fill="#e0e0e0" stroke="#999999" points="819.8,-259 769.8,-259 769.8,-236 819.8,-236 819.8,-259"/>
<text text-anchor="middle" x="794.8" y="-243.8" font-family="Arial" font-size="14.00">string</text>
</a>
</g>
</g>
<!-- Node1&#45;&gt;Node19 -->
<g id="edge35_Node000001_Node000019" class="edge">
<title>Node1&#45;&gt;Node19</title>
<g id="a_edge35_Node000001_Node000019"><a xlink:title=" ">
<path fill="none" stroke="#63b8ff" d="M697.9,-294.91C716.44,-286.03 743.11,-273.26 763.79,-263.35"/>
<polygon fill="#63b8ff" stroke="#63b8ff" points="765.3,-266.51 772.81,-259.03 762.28,-260.19 765.3,-266.51"/>
</a>
</g>
</g>
<!-- Node20 -->
<g id="Node000020" class="node">
<title>Node20</title>
<g id="a_Node000020"><a xlink:title=" ">
<polygon fill="#e0e0e0" stroke="#999999" points="927.8,-259 837.8,-259 837.8,-236 927.8,-236 927.8,-259"/>
<text text-anchor="middle" x="882.8" y="-243.8" font-family="Arial" font-size="14.00">driver/ledc.h</text>
</a>
</g>
</g>
<!-- Node1&#45;&gt;Node20 -->
<g id="edge36_Node000001_Node000020" class="edge">
<title>Node1&#45;&gt;Node20</title>
<g id="a_edge36_Node000001_Node000020"><a xlink:title=" ">
<path fill="none" stroke="#63b8ff" d="M714.25,-294.91C748.23,-285.55 797.95,-271.86 834.59,-261.77"/>
<polygon fill="#63b8ff" stroke="#63b8ff" points="835.84,-265.06 844.55,-259.03 833.98,-258.31 835.84,-265.06"/>
</a>
</g>
</g>
<!-- Node3 -->
<g id="Node000003" class="node">
<title>Node3</title>
<g id="a_Node000003"><a xlink:href="HardwareTypes_8h.html" target="_top" xlink:title="Platform&#45;agnostic hardware type definitions for the HardFOC system.">
<polygon fill="white" stroke="#666666" points="330.8,-82 208.8,-82 208.8,-59 330.8,-59 330.8,-82"/>
<text text-anchor="middle" x="269.8" y="-66.8" font-family="Arial" font-size="14.00">HardwareTypes.h</text>
</a>
</g>
</g>
<!-- Node2&#45;&gt;Node3 -->
<g id="edge2_Node000002_Node000003" class="edge">
<title>Node2&#45;&gt;Node3</title>
<g id="a_edge2_Node000002_Node000003"><a xlink:title=" ">
<path fill="none" stroke="#63b8ff" d="M121.6,-117.91C151.23,-108.63 194.45,-95.1 226.58,-85.03"/>
<polygon fill="#63b8ff" stroke="#63b8ff" points="227.67,-88.36 236.17,-82.03 225.58,-81.68 227.67,-88.36"/>
</a>
</g>
</g>
<!-- Node4 -->
<g id="Node000004" class="node">
<title>Node4</title>
<g id="a_Node000004"><a xlink:title=" ">
<polygon fill="#e0e0e0" stroke="#999999" points="386.8,-23 330.8,-23 330.8,0 386.8,0 386.8,-23"/>
<text text-anchor="middle" x="358.8" y="-7.8" font-family="Arial" font-size="14.00">cstdint</text>
</a>
</g>
</g>
<!-- Node2&#45;&gt;Node4 -->
<g id="edge5_Node000002_Node000004" class="edge">
<title>Node2&#45;&gt;Node4</title>
<g id="a_edge5_Node000002_Node000004"><a xlink:title=" ">
<path fill="none" stroke="#63b8ff" d="M58.3,-117.94C27.06,-105.2 -15.06,-82.53 5.8,-59 49.89,-9.24 237.09,-33.13 302.8,-23 308.62,-22.1 314.77,-21.05 320.77,-19.97"/>
<polygon fill="#63b8ff" stroke="#63b8ff" points="321.46,-23.4 330.66,-18.14 320.19,-16.52 321.46,-23.4"/>
</a>
</g>
</g>
<!-- Node6 -->
<g id="Node000006" class="node">
<title>Node6</title>
<g id="a_Node000006"><a xlink:title=" ">
<polygon fill="#e0e0e0" stroke="#999999" points="88.8,-82 14.8,-82 14.8,-59 88.8,-59 88.8,-82"/>
<text text-anchor="middle" x="51.8" y="-66.8" font-family="Arial" font-size="14.00">functional</text>
</a>
</g>
</g>
<!-- Node2&#45;&gt;Node6 -->
<g id="edge6_Node000002_Node000006" class="edge">
<title>Node2&#45;&gt;Node6</title>
<g id="a_edge6_Node000002_Node000006"><a xlink:title=" ">
<path fill="none" stroke="#63b8ff" d="M81.02,-117.78C76.25,-110.22 69.71,-99.87 64.04,-90.88"/>
<polygon fill="#63b8ff" stroke="#63b8ff" points="66.84,-88.76 58.54,-82.17 60.92,-92.5 66.84,-88.76"/>
</a>
</g>
</g>
<!-- Node7 -->
<g id="Node000007" class="node">
<title>Node7</title>
<g id="a_Node000007"><a xlink:title=" ">
<polygon fill="#e0e0e0" stroke="#999999" points="190.8,-82 106.8,-82 106.8,-59 190.8,-59 190.8,-82"/>
<text text-anchor="middle" x="148.8" y="-66.8" font-family="Arial" font-size="14.00">string_view</text>
</a>
</g>
</g>
<!-- Node2&#45;&gt;Node7 -->
<g id="edge7_Node000002_Node000007" class="edge">
<title>Node2&#45;&gt;Node7</title>
<g id="a_edge7_Node000002_Node000007"><a xlink:title=" ">
<path fill="none" stroke="#63b8ff" d="M99.27,-117.78C107.87,-109.74 119.84,-98.55 129.86,-89.19"/>
<polygon fill="#63b8ff" stroke="#63b8ff" points="132.46,-91.56 137.37,-82.17 127.68,-86.44 132.46,-91.56"/>
</a>
</g>
</g>
<!-- Node3&#45;&gt;Node4 -->
<g id="edge3_Node000003_Node000004" class="edge">
<title>Node3&#45;&gt;Node4</title>
<g id="a_edge3_Node000003_Node000004"><a xlink:title=" ">
<path fill="none" stroke="#63b8ff" d="M286.54,-58.78C299.71,-50.34 318.3,-38.44 333.32,-28.82"/>
<polygon fill="#63b8ff" stroke="#63b8ff" points="335.6,-31.51 342.13,-23.17 331.82,-25.62 335.6,-31.51"/>
</a>
</g>
</g>
<!-- Node5 -->
<g id="Node000005" class="node">
<title>Node5</title>
<g id="a_Node000005"><a xlink:title=" ">
<polygon fill="#e0e0e0" stroke="#999999" points="293.8,-23 245.8,-23 245.8,0 293.8,0 293.8,-23"/>
<text text-anchor="middle" x="269.8" y="-7.8" font-family="Arial" font-size="14.00">limits</text>
</a>
</g>
</g>
<!-- Node3&#45;&gt;Node5 -->
<g id="edge4_Node000003_Node000005" class="edge">
<title>Node3&#45;&gt;Node5</title>
<g id="a_edge4_Node000003_Node000005"><a xlink:title=" ">
<path fill="none" stroke="#63b8ff" d="M269.8,-58.78C269.8,-51.61 269.8,-41.95 269.8,-33.31"/>
<polygon fill="#63b8ff" stroke="#63b8ff" points="273.3,-33.17 269.8,-23.17 266.3,-33.17 273.3,-33.17"/>
</a>
</g>
</g>
<!-- Node8&#45;&gt;Node4 -->
<g id="edge14_Node000008_Node000004" class="edge">
<title>Node8&#45;&gt;Node4</title>
<g id="a_edge14_Node000008_Node000004"><a xlink:title=" ">
<path fill="none" stroke="#63b8ff" d="M592.27,-117.88C579.44,-102.61 553.69,-74.58 525.8,-59 484.9,-36.16 432.01,-23.9 396.82,-17.8"/>
<polygon fill="#63b8ff" stroke="#63b8ff" points="397.38,-14.35 386.94,-16.17 396.24,-21.26 397.38,-14.35"/>
</a>
</g>
</g>
<!-- Node9 -->
<g id="Node000009" class="node">
<title>Node9</title>
<g id="a_Node000009"><a xlink:href="McuSelect_8h.html" target="_top" xlink:title="Centralized MCU platform selection and configuration header.">
<polygon fill="white" stroke="#666666" points="516.8,-82 424.8,-82 424.8,-59 516.8,-59 516.8,-82"/>
<text text-anchor="middle" x="470.8" y="-66.8" font-family="Arial" font-size="14.00">McuSelect.h</text>
</a>
</g>
</g>
<!-- Node8&#45;&gt;Node9 -->
<g id="edge9_Node000008_Node000009" class="edge">
<title>Node8&#45;&gt;Node9</title>
<g id="a_edge9_Node000008_Node000009"><a xlink:title=" ">
<path fill="none" stroke="#63b8ff" d="M576.65,-117.91C556.22,-108.95 526.73,-96.02 504.06,-86.09"/>
<polygon fill="#63b8ff" stroke="#63b8ff" points="505.38,-82.84 494.81,-82.03 502.57,-89.25 505.38,-82.84"/>
</a>
</g>
</g>
<!-- Node10 -->
<g id="Node000010" class="node">
<title>Node10</title>
<g id="a_Node000010"><a xlink:title=" ">
<polygon fill="#e0e0e0" stroke="#999999" points="791.3,-82 648.3,-82 648.3,-59 791.3,-59 791.3,-82"/>
<text text-anchor="middle" x="719.8" y="-66.8" font-family="Arial" font-size="14.00">freertos/FreeRTOS.h</text>
</a>
</g>
</g>
<!-- Node8&#45;&gt;Node10 -->
<g id="edge10_Node000008_Node000010" class="edge">
<title>Node8&#45;&gt;Node10</title>
<g id="a_edge10_Node000008_Node000010"><a xlink:title=" ">
<path fill="none" stroke="#63b8ff" d="M622.9,-117.91C641.44,-109.03 668.11,-96.26 688.79,-86.35"/>
<polygon fill="#63b8ff" stroke="#63b8ff" points="690.3,-89.51 697.81,-82.03 687.28,-83.19 690.3,-89.51"/>
</a>
</g>
</g>
<!-- Node11 -->
<g id="Node000011" class="node">
<title>Node11</title>
<g id="a_Node000011"><a xlink:title=" ">
<polygon fill="#e0e0e0" stroke="#999999" points="931.8,-82 809.8,-82 809.8,-59 931.8,-59 931.8,-82"/>
<text text-anchor="middle" x="870.8" y="-66.8" font-family="Arial" font-size="14.00">freertos/semphr.h</text>
</a>
</g>
</g>
<!-- Node8&#45;&gt;Node11 -->
<g id="edge11_Node000008_Node000011" class="edge">
<title>Node8&#45;&gt;Node11</title>
<g id="a_edge11_Node000008_Node000011"><a xlink:title=" ">
<path fill="none" stroke="#63b8ff" d="M647.52,-118.64C692.84,-109.07 761.81,-94.51 811.1,-84.1"/>
<polygon fill="#63b8ff" stroke="#63b8ff" points="811.93,-87.5 820.99,-82.01 810.48,-80.66 811.93,-87.5"/>
</a>
</g>
</g>
<!-- Node12 -->
<g id="Node000012" class="node">
<title>Node12</title>
<g id="a_Node000012"><a xlink:title=" ">
<polygon fill="#e0e0e0" stroke="#999999" points="1051.8,-82 949.8,-82 949.8,-59 1051.8,-59 1051.8,-82"/>
<text text-anchor="middle" x="1000.8" y="-66.8" font-family="Arial" font-size="14.00">freertos/task.h</text>
</a>
</g>
</g>
<!-- Node8&#45;&gt;Node12 -->
<g id="edge12_Node000008_Node000012" class="edge">
<title>Node8&#45;&gt;Node12</title>
<g id="a_edge12_Node000008_Node000012"><a xlink:title=" ">
<path fill="none" stroke="#63b8ff" d="M647.35,-122.69C710.99,-114.63 828.99,-99.24 939.75,-82.12"/>
<polygon fill="#63b8ff" stroke="#63b8ff" points="940.41,-85.56 949.75,-80.57 939.34,-78.64 940.41,-85.56"/>
</a>
</g>
</g>
<!-- Node8&#45;&gt;Node13 -->
<g id="edge13_Node000008_Node000013" class="edge">
<title>Node8&#45;&gt;Node13</title>
<g id="a_edge13_Node000008_Node000013"><a xlink:title=" ">
<path fill="none" stroke="#63b8ff" d="M600.98,-117.78C601.11,-110.61 601.28,-100.95 601.43,-92.31"/>
<polygon fill="#63b8ff" stroke="#63b8ff" points="604.93,-92.23 601.61,-82.17 597.93,-92.11 604.93,-92.23"/>
</a>
</g>
</g>
<!-- Node14&#45;&gt;Node2 -->
<g id="edge16_Node000014_Node000002" class="edge">
<title>Node14&#45;&gt;Node2</title>
<g id="a_edge16_Node000014_Node000002"><a xlink:title=" ">
<path fill="none" stroke="#63b8ff" d="M272.86,-240.24C233.1,-234.28 185.46,-222.65 147.8,-200 127.13,-187.57 109.93,-165.56 99.32,-149.63"/>
<polygon fill="#63b8ff" stroke="#63b8ff" points="102.19,-147.62 93.86,-141.07 96.29,-151.38 102.19,-147.62"/>
</a>
</g>
</g>
<!-- Node14&#45;&gt;Node3 -->
<g id="edge17_Node000014_Node000003" class="edge">
<title>Node14&#45;&gt;Node3</title>
<g id="a_edge17_Node000014_Node000003"><a xlink:title=" ">
<path fill="none" stroke="#63b8ff" d="M308.34,-235.94C264.53,-222.49 200.63,-194.29 180.8,-141 177.23,-131.42 175.5,-126.74 180.8,-118 189.62,-103.43 204.68,-93.21 219.92,-86.14"/>
<polygon fill="#63b8ff" stroke="#63b8ff" points="221.54,-89.25 229.38,-82.13 218.81,-82.81 221.54,-89.25"/>
</a>
</g>
</g>
<!-- Node14&#45;&gt;Node9 -->
<g id="edge18_Node000014_Node000009" class="edge">
<title>Node14&#45;&gt;Node9</title>
<g id="a_edge18_Node000014_Node000009"><a xlink:title=" ">
<path fill="none" stroke="#63b8ff" d="M376.11,-235.95C408.33,-220.46 463.78,-188.19 486.8,-141 494.47,-125.27 488.79,-105.71 482.16,-91.36"/>
<polygon fill="#63b8ff" stroke="#63b8ff" points="485.23,-89.68 477.58,-82.36 479,-92.86 485.23,-89.68"/>
</a>
</g>
</g>
<!-- Node15 -->
<g id="Node000015" class="node">
<title>Node15</title>
<g id="a_Node000015"><a xlink:href="EspTypes__Base_8h.html" target="_top" xlink:title="ESP32 base type definitions for hardware abstraction.">
<polygon fill="white" stroke="#666666" points="459.3,-141 334.3,-141 334.3,-118 459.3,-118 459.3,-141"/>
<text text-anchor="middle" x="396.8" y="-125.8" font-family="Arial" font-size="14.00">EspTypes_Base.h</text>
</a>
</g>
</g>
<!-- Node14&#45;&gt;Node15 -->
<g id="edge19_Node000014_Node000015" class="edge">
<title>Node14&#45;&gt;Node15</title>
<g id="a_edge19_Node000014_Node000015"><a xlink:title=" ">
<path fill="none" stroke="#63b8ff" d="M359.45,-235.91C365.72,-226.79 374.41,-213.07 379.8,-200 386.29,-184.23 390.71,-165.39 393.41,-151.3"/>
<polygon fill="#63b8ff" stroke="#63b8ff" points="396.91,-151.63 395.22,-141.17 390.02,-150.4 396.91,-151.63"/>
</a>
</g>
</g>
<!-- Node16 -->
<g id="Node000016" class="node">
<title>Node16</title>
<g id="a_Node000016"><a xlink:href="EspTypes__GPIO_8h.html" target="_top" xlink:title="ESP32 GPIO type definitions for hardware abstraction.">
<polygon fill="white" stroke="#666666" points="370.8,-200 240.8,-200 240.8,-177 370.8,-177 370.8,-200"/>
<text text-anchor="middle" x="305.8" y="-184.8" font-family="Arial" font-size="14.00">EspTypes_GPIO.h</text>
</a>
</g>
</g>
<!-- Node14&#45;&gt;Node16 -->
<g id="edge24_Node000014_Node000016" class="edge">
<title>Node14&#45;&gt;Node16</title>
<g id="a_edge24_Node000014_Node000016"><a xlink:title=" ">
<path fill="none" stroke="#63b8ff" d="M343.14,-235.78C336.85,-227.98 328.16,-217.21 320.75,-208.03"/>
<polygon fill="#63b8ff" stroke="#63b8ff" points="323.41,-205.76 314.41,-200.17 317.97,-210.15 323.41,-205.76"/>
</a>
</g>
</g>
<!-- Node15&#45;&gt;Node3 -->
<g id="edge21_Node000015_Node000003" class="edge">
<title>Node15&#45;&gt;Node3</title>
<g id="a_edge21_Node000015_Node000003"><a xlink:title=" ">
<path fill="none" stroke="#63b8ff" d="M373.21,-117.91C353.33,-108.99 324.7,-96.14 302.59,-86.22"/>
<polygon fill="#63b8ff" stroke="#63b8ff" points="303.82,-82.93 293.26,-82.03 300.95,-89.32 303.82,-82.93"/>
</a>
</g>
</g>
<!-- Node15&#45;&gt;Node4 -->
<g id="edge23_Node000015_Node000004" class="edge">
<title>Node15&#45;&gt;Node4</title>
<g id="a_edge23_Node000015_Node000004"><a xlink:title=" ">
<path fill="none" stroke="#63b8ff" d="M393.29,-117.79C386.98,-98.55 373.63,-57.79 365.51,-33.01"/>
<polygon fill="#63b8ff" stroke="#63b8ff" points="368.73,-31.59 362.29,-23.18 362.08,-33.77 368.73,-31.59"/>
</a>
</g>
</g>
<!-- Node15&#45;&gt;Node9 -->
<g id="edge20_Node000015_Node000009" class="edge">
<title>Node15&#45;&gt;Node9</title>
<g id="a_edge20_Node000015_Node000009"><a xlink:title=" ">
<path fill="none" stroke="#63b8ff" d="M410.71,-117.78C421.46,-109.5 436.54,-97.89 448.9,-88.36"/>
<polygon fill="#63b8ff" stroke="#63b8ff" points="451.15,-91.05 456.94,-82.17 446.88,-85.5 451.15,-91.05"/>
</a>
</g>
</g>
<!-- Node15&#45;&gt;Node13 -->
<g id="edge22_Node000015_Node000013" class="edge">
<title>Node15&#45;&gt;Node13</title>
<g id="a_edge22_Node000015_Node000013"><a xlink:title=" ">
<path fill="none" stroke="#63b8ff" d="M434.87,-117.91C471.49,-107.73 526.56,-92.42 563.32,-82.2"/>
<polygon fill="#63b8ff" stroke="#63b8ff" points="564.47,-85.51 573.17,-79.46 562.6,-78.77 564.47,-85.51"/>
</a>
</g>
</g>
<!-- Node16&#45;&gt;Node3 -->
<g id="edge31_Node000016_Node000003" class="edge">
<title>Node16&#45;&gt;Node3</title>
<g id="a_edge31_Node000016_Node000003"><a xlink:title=" ">
<path fill="none" stroke="#63b8ff" d="M303.11,-176.58C299.66,-162.83 293.33,-138.5 286.8,-118 284,-109.25 280.58,-99.7 277.54,-91.54"/>
<polygon fill="#63b8ff" stroke="#63b8ff" points="280.79,-90.23 273.97,-82.12 274.24,-92.72 280.79,-90.23"/>
</a>
</g>
</g>
<!-- Node16&#45;&gt;Node9 -->
<g id="edge32_Node000016_Node000009" class="edge">
<title>Node16&#45;&gt;Node9</title>
<g id="a_edge32_Node000016_Node000009"><a xlink:title=" ">
<path fill="none" stroke="#63b8ff" d="M369.79,-176.99C409.54,-169.04 455.35,-156.8 467.8,-141 478.5,-127.41 478.16,-107.27 475.79,-92.17"/>
<polygon fill="#63b8ff" stroke="#63b8ff" points="479.2,-91.36 473.83,-82.22 472.33,-92.71 479.2,-91.36"/>
</a>
</g>
</g>
<!-- Node16&#45;&gt;Node15 -->
<g id="edge30_Node000016_Node000015" class="edge">
<title>Node16&#45;&gt;Node15</title>
<g id="a_edge30_Node000016_Node000015"><a xlink:title=" ">
<path fill="none" stroke="#63b8ff" d="M322.91,-176.78C336.51,-168.26 355.75,-156.21 371.18,-146.55"/>
<polygon fill="#63b8ff" stroke="#63b8ff" points="373.14,-149.45 379.76,-141.17 369.42,-143.52 373.14,-149.45"/>
</a>
</g>
</g>
<!-- Node17 -->
<g id="Node000017" class="node">
<title>Node17</title>
<g id="a_Node000017"><a xlink:href="BaseGpio_8h.html" target="_top" xlink:title="Unified GPIO base class for all digital GPIO implementations.">
<polygon fill="white" stroke="#666666" points="277.8,-141 189.8,-141 189.8,-118 277.8,-118 277.8,-141"/>
<text text-anchor="middle" x="233.8" y="-125.8" font-family="Arial" font-size="14.00">BaseGpio.h</text>
</a>
</g>
</g>
<!-- Node16&#45;&gt;Node17 -->
<g id="edge25_Node000016_Node000017" class="edge">
<title>Node16&#45;&gt;Node17</title>
<g id="a_edge25_Node000016_Node000017"><a xlink:title=" ">
<path fill="none" stroke="#63b8ff" d="M292.25,-176.78C281.89,-168.58 267.41,-157.11 255.45,-147.64"/>
<polygon fill="#63b8ff" stroke="#63b8ff" points="257.29,-144.64 247.28,-141.17 252.95,-150.12 257.29,-144.64"/>
</a>
</g>
</g>
<!-- Node17&#45;&gt;Node3 -->
<g id="edge26_Node000017_Node000003" class="edge">
<title>Node17&#45;&gt;Node3</title>
<g id="a_edge26_Node000017_Node000003"><a xlink:title=" ">
<path fill="none" stroke="#63b8ff" d="M240.57,-117.78C245.34,-110.22 251.88,-99.87 257.56,-90.88"/>
<polygon fill="#63b8ff" stroke="#63b8ff" points="260.67,-92.5 263.05,-82.17 254.76,-88.76 260.67,-92.5"/>
</a>
</g>
</g>
<!-- Node17&#45;&gt;Node4 -->
<g id="edge27_Node000017_Node000004" class="edge">
<title>Node17&#45;&gt;Node4</title>
<g id="a_edge27_Node000017_Node000004"><a xlink:title=" ">
<path fill="none" stroke="#63b8ff" d="M277.88,-118.7C299.36,-111.8 323.91,-100.41 339.8,-82 351.39,-68.57 355.97,-48.69 357.75,-33.62"/>
<polygon fill="#63b8ff" stroke="#63b8ff" points="361.27,-33.49 358.63,-23.23 354.3,-32.9 361.27,-33.49"/>
</a>
</g>
</g>
<!-- Node17&#45;&gt;Node6 -->
<g id="edge28_Node000017_Node000006" class="edge">
<title>Node17&#45;&gt;Node6</title>
<g id="a_edge28_Node000017_Node000006"><a xlink:title=" ">
<path fill="none" stroke="#63b8ff" d="M199.99,-117.91C170.36,-108.63 127.14,-95.1 95.01,-85.03"/>
<polygon fill="#63b8ff" stroke="#63b8ff" points="96.01,-81.68 85.42,-82.03 93.92,-88.36 96.01,-81.68"/>
</a>
</g>
</g>
<!-- Node17&#45;&gt;Node7 -->
<g id="edge29_Node000017_Node000007" class="edge">
<title>Node17&#45;&gt;Node7</title>
<g id="a_edge29_Node000017_Node000007"><a xlink:title=" ">
<path fill="none" stroke="#63b8ff" d="M217.81,-117.78C205.22,-109.34 187.47,-97.44 173.13,-87.82"/>
<polygon fill="#63b8ff" stroke="#63b8ff" points="174.97,-84.84 164.71,-82.17 171.07,-90.65 174.97,-84.84"/>
</a>
</g>
</g>
</g>
</svg>

<g id="navigator" transform="translate(0 0)" fill="#404254">
  <rect fill="#f2f5e9" fill-opacity="0.5" stroke="#606060" stroke-width=".5" x="0" y="0" width="60" height="60"/>
  <use id="zoomplus" xlink:href="#zoomPlus" x="17" y="9" onmousedown="handleZoom(evt,'in')"/>
  <use id="zoomminus" xlink:href="#zoomMin" x="42" y="9" onmousedown="handleZoom(evt,'out')"/>
  <use id="reset" xlink:href="#resetDef" x="30" y="36" onmousedown="handleReset()"/>
   <use id="arrowup" xlink:href="#arrowUp" x="0" y="0" onmousedown="handlePan(0,-1)"/>
  <use id="arrowright" xlink:href="#arrowRight" x="0" y="0" onmousedown="handlePan(1,0)"/>
  <use id="arrowdown" xlink:href="#arrowDown" x="0" y="0" onmousedown="handlePan(0,1)"/>
  <use id="arrowleft" xlink:href="#arrowLeft" x="0" y="0" onmousedown="handlePan(-1,0)"/>
</g>
<svg viewBox="0 0 15 15" width="100%" height="30px" preserveAspectRatio="xMaxYMin meet">
 <g id="arrow_out" transform="scale(0.3 0.3)">
  <a xlink:href="EspPwm_8h__incl_org.svg" target="_base">
   <rect id="button" ry="5" rx="5" y="6" x="6" height="38" width="38"
        fill="#f2f5e9" fill-opacity="0.5" stroke="#606060" stroke-width="1.0"/>
   <path id="arrow"
     d="M 11.500037,31.436501 C 11.940474,20.09759 22.043105,11.32322 32.158766,21.979434 L 37.068811,17.246167 C 37.068811,17.246167 37.088388,32 37.088388,32 L 22.160133,31.978069 C 22.160133,31.978069 26.997745,27.140456 26.997745,27.140456 C 18.528582,18.264221 13.291696,25.230495 11.500037,31.436501 z"
     style="fill:#404040;"/>
  </a>
 </g>
</svg>

<style type='text/css'>
<![CDATA[
[data-mouse-over-selected='false'] { opacity: 0.7; }
[data-mouse-over-selected='true']  { opacity: 1.0; }
]]>
</style>
<script type="application/ecmascript"><![CDATA[
document.addEventListener('DOMContentLoaded', (event) => {
  highlightEdges();
  highlightAdjacentNodes();
});
]]></script>
</svg>
