<?xml version="1.0" encoding="UTF-8" standalone="no"?>
<!DOCTYPE svg PUBLIC "-//W3C//DTD SVG 1.1//EN"
 "http://www.w3.org/Graphics/SVG/1.1/DTD/svg11.dtd">
<!-- Generated by graphviz version 2.43.0 (0)
 -->
<!-- Title: inc/mcu/esp32/utils/EspTypes_NVS.h Pages: 1 -->
<!--zoomable 223 -->

<svg id="main" version="1.1" xmlns="http://www.w3.org/2000/svg" xmlns:xlink="http://www.w3.org/1999/xlink" xml:space="preserve" onload="init(evt)">
<style type="text/css"><![CDATA[
.node, .edge {opacity: 0.7;}
.node.selected, .edge.selected {opacity: 1;}
.edge:hover path { stroke: red; }
.edge:hover polygon { stroke: red; fill: red; }
]]></style>

<defs>
  <circle id="rim" cx="0" cy="0" r="7"/>
  <circle id="rim2" cx="0" cy="0" r="3.5"/>
  <g id="zoomPlus">
    <use xlink:href="#rim" fill="#404040"><set attributeName="fill" to="#808080" begin="zoomplus.mouseover" end="zoomplus.mouseout"/></use>
    <path d="M-4,0h8M0,-4v8" fill="none" stroke="white" stroke-width="1.5" pointer-events="none"/>
  </g>
  <g id="zoomMin">
    <use xlink:href="#rim" fill="#404040"><set attributeName="fill" to="#808080" begin="zoomminus.mouseover" end="zoomminus.mouseout"/></use>
    <path d="M-4,0h8" fill="none" stroke="white" stroke-width="1.5" pointer-events="none"/>
  </g>
  <g id="arrowUp" transform="translate(30 24)">
    <use xlink:href="#rim"/>
    <path pointer-events="none" fill="none" stroke="white" stroke-width="1.5" d="M0,-3.0v7 M-2.5,-0.5L0,-3.0L2.5,-0.5"/>
  </g>
  <g id="arrowRight" transform="rotate(90) translate(36 -43)">
    <use xlink:href="#rim"/>
    <path pointer-events="none" fill="none" stroke="white" stroke-width="1.5" d="M0,-3.0v7 M-2.5,-0.5L0,-3.0L2.5,-0.5"/>
  </g>
  <g id="arrowDown" transform="rotate(180) translate(-30 -48)">
    <use xlink:href="#rim"/>
    <path pointer-events="none" fill="none" stroke="white" stroke-width="1.5" d="M0,-3.0v7 M-2.5,-0.5L0,-3.0L2.5,-0.5"/>
  </g>
  <g id="arrowLeft" transform="rotate(270) translate(-36 17)">
    <use xlink:href="#rim"/>
    <path pointer-events="none" fill="none" stroke="white" stroke-width="1.5" d="M0,-3.0v7 M-2.5,-0.5L0,-3.0L2.5,-0.5"/>
  </g>
  <g id="resetDef">
    <use xlink:href="#rim2" fill="#404040"><set attributeName="fill" to="#808080" begin="reset.mouseover" end="reset.mouseout"/></use>
  </g>
</defs>
<script type="application/ecmascript">
var viewWidth = 544;
var viewHeight = 223;
var sectionId = 'dynsection-0';
</script>
<script type="application/ecmascript" xlink:href="svg.min.js"/>
<svg id="graph" class="graph">
<g id="viewport">
<title>inc/mcu/esp32/utils/EspTypes_NVS.h</title>
<!-- Node1 -->
<g id="Node000001" class="node">
<title>Node1</title>
<g id="a_Node000001"><a xlink:title="ESP32 NVS type definitions for hardware abstraction.">
<polygon fill="#999999" stroke="#666666" points="358,-215 226,-215 226,-177 358,-177 358,-215"/>
<text text-anchor="start" x="234" y="-199.8" font-family="Arial" font-size="14.00">inc/mcu/esp32/utils</text>
<text text-anchor="middle" x="292" y="-184.8" font-family="Arial" font-size="14.00">/EspTypes_NVS.h</text>
</a>
</g>
</g>
<!-- Node2 -->
<g id="Node000002" class="node">
<title>Node2</title>
<g id="a_Node000002"><a xlink:href="BaseNvs_8h.html" target="_top" xlink:title="Abstract base class for Non&#45;Volatile Storage implementations in the HardFOC system.">
<polygon fill="white" stroke="#666666" points="163,-141 81,-141 81,-118 163,-118 163,-141"/>
<text text-anchor="middle" x="122" y="-125.8" font-family="Arial" font-size="14.00">BaseNvs.h</text>
</a>
</g>
</g>
<!-- Node1&#45;&gt;Node2 -->
<g id="edge1_Node000001_Node000002" class="edge">
<title>Node1&#45;&gt;Node2</title>
<g id="a_edge1_Node000001_Node000002"><a xlink:title=" ">
<path fill="none" stroke="#63b8ff" d="M244.19,-176.86C217.32,-166.66 184.26,-154.12 159.31,-144.66"/>
<polygon fill="#63b8ff" stroke="#63b8ff" points="160.43,-141.34 149.84,-141.06 157.94,-147.88 160.43,-141.34"/>
</a>
</g>
</g>
<!-- Node3 -->
<g id="Node000003" class="node">
<title>Node3</title>
<g id="a_Node000003"><a xlink:href="HardwareTypes_8h.html" target="_top" xlink:title="Platform&#45;agnostic hardware type definitions for the HardFOC system.">
<polygon fill="white" stroke="#666666" points="262,-82 140,-82 140,-59 262,-59 262,-82"/>
<text text-anchor="middle" x="201" y="-66.8" font-family="Arial" font-size="14.00">HardwareTypes.h</text>
</a>
</g>
</g>
<!-- Node1&#45;&gt;Node3 -->
<g id="edge12_Node000001_Node000003" class="edge">
<title>Node1&#45;&gt;Node3</title>
<g id="a_edge12_Node000001_Node000003"><a xlink:title=" ">
<path fill="none" stroke="#63b8ff" d="M258.99,-176.94C245.12,-167.83 229.93,-155.6 220,-141 210.14,-126.49 205.38,-107.02 203.09,-92.38"/>
<polygon fill="#63b8ff" stroke="#63b8ff" points="206.54,-91.75 201.78,-82.29 199.6,-92.65 206.54,-91.75"/>
</a>
</g>
</g>
<!-- Node7 -->
<g id="Node000007" class="node">
<title>Node7</title>
<g id="a_Node000007"><a xlink:href="EspTypes__Base_8h.html" target="_top" xlink:title="ESP32 base type definitions for hardware abstraction.">
<polygon fill="white" stroke="#666666" points="354.5,-141 229.5,-141 229.5,-118 354.5,-118 354.5,-141"/>
<text text-anchor="middle" x="292" y="-125.8" font-family="Arial" font-size="14.00">EspTypes_Base.h</text>
</a>
</g>
</g>
<!-- Node1&#45;&gt;Node7 -->
<g id="edge7_Node000001_Node000007" class="edge">
<title>Node1&#45;&gt;Node7</title>
<g id="a_edge7_Node000001_Node000007"><a xlink:title=" ">
<path fill="none" stroke="#63b8ff" d="M292,-176.69C292,-168.8 292,-159.54 292,-151.39"/>
<polygon fill="#63b8ff" stroke="#63b8ff" points="295.5,-151.19 292,-141.19 288.5,-151.19 295.5,-151.19"/>
</a>
</g>
</g>
<!-- Node8 -->
<g id="Node000008" class="node">
<title>Node8</title>
<g id="a_Node000008"><a xlink:href="McuSelect_8h.html" target="_top" xlink:title="Centralized MCU platform selection and configuration header.">
<polygon fill="white" stroke="#666666" points="536,-82 394,-82 394,-59 536,-59 536,-82"/>
<text text-anchor="middle" x="465" y="-66.8" font-family="Arial" font-size="14.00">../../utils/McuSelect.h</text>
</a>
</g>
</g>
<!-- Node1&#45;&gt;Node8 -->
<g id="edge13_Node000001_Node000008" class="edge">
<title>Node1&#45;&gt;Node8</title>
<g id="a_edge13_Node000001_Node000008"><a xlink:title=" ">
<path fill="none" stroke="#63b8ff" d="M317.53,-176.78C351.03,-152.86 409.37,-111.21 441.72,-88.12"/>
<polygon fill="#63b8ff" stroke="#63b8ff" points="444.01,-90.79 450.11,-82.13 439.94,-85.09 444.01,-90.79"/>
</a>
</g>
</g>
<!-- Node10 -->
<g id="Node000010" class="node">
<title>Node10</title>
<g id="a_Node000010"><a xlink:title=" ">
<polygon fill="#e0e0e0" stroke="#999999" points="467,-141 411,-141 411,-118 467,-118 467,-141"/>
<text text-anchor="middle" x="439" y="-125.8" font-family="Arial" font-size="14.00">cstring</text>
</a>
</g>
</g>
<!-- Node1&#45;&gt;Node10 -->
<g id="edge14_Node000001_Node000010" class="edge">
<title>Node1&#45;&gt;Node10</title>
<g id="a_edge14_Node000001_Node000010"><a xlink:title=" ">
<path fill="none" stroke="#63b8ff" d="M333.34,-176.86C356.17,-166.84 384.15,-154.57 405.59,-145.16"/>
<polygon fill="#63b8ff" stroke="#63b8ff" points="407.18,-148.28 414.93,-141.06 404.37,-141.87 407.18,-148.28"/>
</a>
</g>
</g>
<!-- Node2&#45;&gt;Node3 -->
<g id="edge2_Node000002_Node000003" class="edge">
<title>Node2&#45;&gt;Node3</title>
<g id="a_edge2_Node000002_Node000003"><a xlink:title=" ">
<path fill="none" stroke="#63b8ff" d="M136.86,-117.78C148.45,-109.42 164.74,-97.66 178.01,-88.09"/>
<polygon fill="#63b8ff" stroke="#63b8ff" points="180.15,-90.86 186.21,-82.17 176.05,-85.19 180.15,-90.86"/>
</a>
</g>
</g>
<!-- Node4 -->
<g id="Node000004" class="node">
<title>Node4</title>
<g id="a_Node000004"><a xlink:title=" ">
<polygon fill="#e0e0e0" stroke="#999999" points="264,-23 208,-23 208,0 264,0 264,-23"/>
<text text-anchor="middle" x="236" y="-7.8" font-family="Arial" font-size="14.00">cstdint</text>
</a>
</g>
</g>
<!-- Node2&#45;&gt;Node4 -->
<g id="edge5_Node000002_Node000004" class="edge">
<title>Node2&#45;&gt;Node4</title>
<g id="a_edge5_Node000002_Node000004"><a xlink:title=" ">
<path fill="none" stroke="#63b8ff" d="M120.39,-117.91C118.75,-103.18 118.04,-76.35 131,-59 139.6,-47.48 171.86,-34.17 198.38,-24.75"/>
<polygon fill="#63b8ff" stroke="#63b8ff" points="199.54,-28.06 207.83,-21.47 197.24,-21.44 199.54,-28.06"/>
</a>
</g>
</g>
<!-- Node6 -->
<g id="Node000006" class="node">
<title>Node6</title>
<g id="a_Node000006"><a xlink:title=" ">
<polygon fill="#e0e0e0" stroke="#999999" points="84,-82 0,-82 0,-59 84,-59 84,-82"/>
<text text-anchor="middle" x="42" y="-66.8" font-family="Arial" font-size="14.00">string_view</text>
</a>
</g>
</g>
<!-- Node2&#45;&gt;Node6 -->
<g id="edge6_Node000002_Node000006" class="edge">
<title>Node2&#45;&gt;Node6</title>
<g id="a_edge6_Node000002_Node000006"><a xlink:title=" ">
<path fill="none" stroke="#63b8ff" d="M106.95,-117.78C95.22,-109.42 78.72,-97.66 65.28,-88.09"/>
<polygon fill="#63b8ff" stroke="#63b8ff" points="67.16,-85.13 56.98,-82.17 63.09,-90.83 67.16,-85.13"/>
</a>
</g>
</g>
<!-- Node3&#45;&gt;Node4 -->
<g id="edge3_Node000003_Node000004" class="edge">
<title>Node3&#45;&gt;Node4</title>
<g id="a_edge3_Node000003_Node000004"><a xlink:title=" ">
<path fill="none" stroke="#63b8ff" d="M207.58,-58.78C212.23,-51.22 218.58,-40.87 224.1,-31.88"/>
<polygon fill="#63b8ff" stroke="#63b8ff" points="227.2,-33.53 229.45,-23.17 221.23,-29.86 227.2,-33.53"/>
</a>
</g>
</g>
<!-- Node5 -->
<g id="Node000005" class="node">
<title>Node5</title>
<g id="a_Node000005"><a xlink:title=" ">
<polygon fill="#e0e0e0" stroke="#999999" points="190,-23 142,-23 142,0 190,0 190,-23"/>
<text text-anchor="middle" x="166" y="-7.8" font-family="Arial" font-size="14.00">limits</text>
</a>
</g>
</g>
<!-- Node3&#45;&gt;Node5 -->
<g id="edge4_Node000003_Node000005" class="edge">
<title>Node3&#45;&gt;Node5</title>
<g id="a_edge4_Node000003_Node000005"><a xlink:title=" ">
<path fill="none" stroke="#63b8ff" d="M194.42,-58.78C189.77,-51.22 183.42,-40.87 177.9,-31.88"/>
<polygon fill="#63b8ff" stroke="#63b8ff" points="180.77,-29.86 172.55,-23.17 174.8,-33.53 180.77,-29.86"/>
</a>
</g>
</g>
<!-- Node7&#45;&gt;Node3 -->
<g id="edge9_Node000007_Node000003" class="edge">
<title>Node7&#45;&gt;Node3</title>
<g id="a_edge9_Node000007_Node000003"><a xlink:title=" ">
<path fill="none" stroke="#63b8ff" d="M274.88,-117.78C261.28,-109.26 242.05,-97.21 226.62,-87.55"/>
<polygon fill="#63b8ff" stroke="#63b8ff" points="228.37,-84.52 218.04,-82.17 224.66,-90.45 228.37,-84.52"/>
</a>
</g>
</g>
<!-- Node7&#45;&gt;Node4 -->
<g id="edge11_Node000007_Node000004" class="edge">
<title>Node7&#45;&gt;Node4</title>
<g id="a_edge11_Node000007_Node000004"><a xlink:title=" ">
<path fill="none" stroke="#63b8ff" d="M289.97,-117.7C287.06,-103.64 280.92,-78.56 271,-59 265.98,-49.1 258.82,-39.14 252.29,-30.98"/>
<polygon fill="#63b8ff" stroke="#63b8ff" points="254.91,-28.66 245.82,-23.22 249.54,-33.15 254.91,-28.66"/>
</a>
</g>
</g>
<!-- Node7&#45;&gt;Node8 -->
<g id="edge8_Node000007_Node000008" class="edge">
<title>Node7&#45;&gt;Node8</title>
<g id="a_edge8_Node000007_Node000008"><a xlink:title=" ">
<path fill="none" stroke="#63b8ff" d="M324.13,-117.91C352.17,-108.67 393.03,-95.21 423.53,-85.16"/>
<polygon fill="#63b8ff" stroke="#63b8ff" points="424.64,-88.48 433.04,-82.03 422.44,-81.84 424.64,-88.48"/>
</a>
</g>
</g>
<!-- Node9 -->
<g id="Node000009" class="node">
<title>Node9</title>
<g id="a_Node000009"><a xlink:title=" ">
<polygon fill="#e0e0e0" stroke="#999999" points="375.5,-82 318.5,-82 318.5,-59 375.5,-59 375.5,-82"/>
<text text-anchor="middle" x="347" y="-66.8" font-family="Arial" font-size="14.00">atomic</text>
</a>
</g>
</g>
<!-- Node7&#45;&gt;Node9 -->
<g id="edge10_Node000007_Node000009" class="edge">
<title>Node7&#45;&gt;Node9</title>
<g id="a_edge10_Node000007_Node000009"><a xlink:title=" ">
<path fill="none" stroke="#63b8ff" d="M302.35,-117.78C310.03,-109.82 320.68,-98.77 329.66,-89.47"/>
<polygon fill="#63b8ff" stroke="#63b8ff" points="332.28,-91.8 336.7,-82.17 327.24,-86.94 332.28,-91.8"/>
</a>
</g>
</g>
</g>
</svg>

<g id="navigator" transform="translate(0 0)" fill="#404254">
  <rect fill="#f2f5e9" fill-opacity="0.5" stroke="#606060" stroke-width=".5" x="0" y="0" width="60" height="60"/>
  <use id="zoomplus" xlink:href="#zoomPlus" x="17" y="9" onmousedown="handleZoom(evt,'in')"/>
  <use id="zoomminus" xlink:href="#zoomMin" x="42" y="9" onmousedown="handleZoom(evt,'out')"/>
  <use id="reset" xlink:href="#resetDef" x="30" y="36" onmousedown="handleReset()"/>
   <use id="arrowup" xlink:href="#arrowUp" x="0" y="0" onmousedown="handlePan(0,-1)"/>
  <use id="arrowright" xlink:href="#arrowRight" x="0" y="0" onmousedown="handlePan(1,0)"/>
  <use id="arrowdown" xlink:href="#arrowDown" x="0" y="0" onmousedown="handlePan(0,1)"/>
  <use id="arrowleft" xlink:href="#arrowLeft" x="0" y="0" onmousedown="handlePan(-1,0)"/>
</g>
<svg viewBox="0 0 15 15" width="100%" height="30px" preserveAspectRatio="xMaxYMin meet">
 <g id="arrow_out" transform="scale(0.3 0.3)">
  <a xlink:href="EspTypes__NVS_8h__incl_org.svg" target="_base">
   <rect id="button" ry="5" rx="5" y="6" x="6" height="38" width="38"
        fill="#f2f5e9" fill-opacity="0.5" stroke="#606060" stroke-width="1.0"/>
   <path id="arrow"
     d="M 11.500037,31.436501 C 11.940474,20.09759 22.043105,11.32322 32.158766,21.979434 L 37.068811,17.246167 C 37.068811,17.246167 37.088388,32 37.088388,32 L 22.160133,31.978069 C 22.160133,31.978069 26.997745,27.140456 26.997745,27.140456 C 18.528582,18.264221 13.291696,25.230495 11.500037,31.436501 z"
     style="fill:#404040;"/>
  </a>
 </g>
</svg>

<style type='text/css'>
<![CDATA[
[data-mouse-over-selected='false'] { opacity: 0.7; }
[data-mouse-over-selected='true']  { opacity: 1.0; }
]]>
</style>
<script type="application/ecmascript"><![CDATA[
document.addEventListener('DOMContentLoaded', (event) => {
  highlightEdges();
  highlightAdjacentNodes();
});
]]></script>
</svg>
