<?xml version="1.0" encoding="UTF-8" standalone="no"?>
<!DOCTYPE svg PUBLIC "-//W3C//DTD SVG 1.1//EN"
 "http://www.w3.org/Graphics/SVG/1.1/DTD/svg11.dtd">
<!-- Generated by graphviz version 2.43.0 (0)
 -->
<!-- Title: examples/esp32/main/AdcComprehensiveTest.cpp Pages: 1 -->
<svg width="1625pt" height="415pt"
 viewBox="0.00 0.00 1625.30 415.00" xmlns="http://www.w3.org/2000/svg" xmlns:xlink="http://www.w3.org/1999/xlink">
<g id="graph0" class="graph" transform="scale(1 1) rotate(0) translate(4 411)">
<title>examples/esp32/main/AdcComprehensiveTest.cpp</title>
<!-- Node1 -->
<g id="Node000001" class="node">
<title>Node1</title>
<g id="a_Node000001"><a xlink:title="Comprehensive ADC testing suite for ESP32&#45;C6 DevKit&#45;M&#45;1 (noexcept)">
<polygon fill="#999999" stroke="#666666" points="965.3,-407 776.3,-407 776.3,-369 965.3,-369 965.3,-407"/>
<text text-anchor="start" x="784.3" y="-391.8" font-family="Arial" font-size="14.00">examples/esp32/main</text>
<text text-anchor="middle" x="870.8" y="-376.8" font-family="Arial" font-size="14.00">/AdcComprehensiveTest.cpp</text>
</a>
</g>
</g>
<!-- Node2 -->
<g id="Node000002" class="node">
<title>Node2</title>
<g id="a_Node000002"><a xlink:href="BaseAdc_8h.html" target="_top" xlink:title="Abstract base class for ADC implementations in the HardFOC system.">
<polygon fill="white" stroke="#666666" points="924.3,-141 809.3,-141 809.3,-118 924.3,-118 924.3,-141"/>
<text text-anchor="middle" x="866.8" y="-125.8" font-family="Arial" font-size="14.00">base/BaseAdc.h</text>
</a>
</g>
</g>
<!-- Node1&#45;&gt;Node2 -->
<g id="edge1_Node000001_Node000002" class="edge">
<title>Node1&#45;&gt;Node2</title>
<g id="a_edge1_Node000001_Node000002"><a xlink:title=" ">
<path fill="none" stroke="#63b8ff" d="M965.35,-381.04C1147.47,-367.71 1523.51,-330.22 1458.8,-251 1393.21,-170.72 1075.93,-142.57 934.76,-133.91"/>
<polygon fill="#63b8ff" stroke="#63b8ff" points="934.69,-130.4 924.5,-133.3 934.28,-137.39 934.69,-130.4"/>
</a>
</g>
</g>
<!-- Node7 -->
<g id="Node000007" class="node">
<title>Node7</title>
<g id="a_Node000007"><a xlink:href="EspAdc_8h.html" target="_top" xlink:title="ESP32 ADC implementation for the HardFOC system.">
<polygon fill="white" stroke="#666666" points="244.3,-333 99.3,-333 99.3,-310 244.3,-310 244.3,-333"/>
<text text-anchor="middle" x="171.8" y="-317.8" font-family="Arial" font-size="14.00">mcu/esp32/EspAdc.h</text>
</a>
</g>
</g>
<!-- Node1&#45;&gt;Node7 -->
<g id="edge7_Node000001_Node000007" class="edge">
<title>Node1&#45;&gt;Node7</title>
<g id="a_edge7_Node000001_Node000007"><a xlink:title=" ">
<path fill="none" stroke="#63b8ff" d="M776.16,-378.27C638.54,-365.57 385.36,-342.21 254.68,-330.15"/>
<polygon fill="#63b8ff" stroke="#63b8ff" points="254.62,-326.63 244.34,-329.19 253.98,-333.6 254.62,-326.63"/>
</a>
</g>
</g>
<!-- Node9 -->
<g id="Node000009" class="node">
<title>Node9</title>
<g id="a_Node000009"><a xlink:href="EspTypes__ADC_8h.html" target="_top" xlink:title="ESP32 ADC type definitions for hardware abstraction.">
<polygon fill="white" stroke="#666666" points="554.8,-215 380.8,-215 380.8,-177 554.8,-177 554.8,-215"/>
<text text-anchor="start" x="388.8" y="-199.8" font-family="Arial" font-size="14.00">mcu/esp32/utils/EspTypes</text>
<text text-anchor="middle" x="467.8" y="-184.8" font-family="Arial" font-size="14.00">_ADC.h</text>
</a>
</g>
</g>
<!-- Node1&#45;&gt;Node9 -->
<g id="edge9_Node000001_Node000009" class="edge">
<title>Node1&#45;&gt;Node9</title>
<g id="a_edge9_Node000001_Node000009"><a xlink:title=" ">
<path fill="none" stroke="#63b8ff" d="M776.15,-379.14C695.29,-367.88 580.24,-340.52 503.8,-274 489.14,-261.25 480.04,-241.24 474.65,-224.82"/>
<polygon fill="#63b8ff" stroke="#63b8ff" points="477.98,-223.73 471.76,-215.15 471.27,-225.74 477.98,-223.73"/>
</a>
</g>
</g>
<!-- Node14 -->
<g id="Node000014" class="node">
<title>Node14</title>
<g id="a_Node000014"><a xlink:href="TestFramework_8h.html" target="_top" xlink:title="Shared testing framework for ESP32&#45;C6 comprehensive test suites.">
<polygon fill="white" stroke="#666666" points="931.3,-333 810.3,-333 810.3,-310 931.3,-310 931.3,-333"/>
<text text-anchor="middle" x="870.8" y="-317.8" font-family="Arial" font-size="14.00">TestFramework.h</text>
</a>
</g>
</g>
<!-- Node1&#45;&gt;Node14 -->
<g id="edge20_Node000001_Node000014" class="edge">
<title>Node1&#45;&gt;Node14</title>
<g id="a_edge20_Node000001_Node000014"><a xlink:title=" ">
<path fill="none" stroke="#63b8ff" d="M870.8,-368.69C870.8,-360.8 870.8,-351.54 870.8,-343.39"/>
<polygon fill="#63b8ff" stroke="#63b8ff" points="874.3,-343.19 870.8,-333.19 867.3,-343.19 874.3,-343.19"/>
</a>
</g>
</g>
<!-- Node27 -->
<g id="Node000027" class="node">
<title>Node27</title>
<g id="a_Node000027"><a xlink:title=" ">
<polygon fill="#e0e0e0" stroke="#999999" points="1617.3,-333 1506.3,-333 1506.3,-310 1617.3,-310 1617.3,-333"/>
<text text-anchor="middle" x="1561.8" y="-317.8" font-family="Arial" font-size="14.00">hal/adc_types.h</text>
</a>
</g>
</g>
<!-- Node1&#45;&gt;Node27 -->
<g id="edge41_Node000001_Node000027" class="edge">
<title>Node1&#45;&gt;Node27</title>
<g id="a_edge41_Node000001_Node000027"><a xlink:title=" ">
<path fill="none" stroke="#63b8ff" d="M965.41,-380.61C1087.32,-371.95 1305.74,-355.02 1491.8,-333 1493.1,-332.85 1494.42,-332.69 1495.75,-332.52"/>
<polygon fill="#63b8ff" stroke="#63b8ff" points="1496.59,-335.94 1506.05,-331.18 1495.69,-329 1496.59,-335.94"/>
</a>
</g>
</g>
<!-- Node3 -->
<g id="Node000003" class="node">
<title>Node3</title>
<g id="a_Node000003"><a xlink:href="HardwareTypes_8h.html" target="_top" xlink:title="Platform&#45;agnostic hardware type definitions for the HardFOC system.">
<polygon fill="white" stroke="#666666" points="706.8,-82 584.8,-82 584.8,-59 706.8,-59 706.8,-82"/>
<text text-anchor="middle" x="645.8" y="-66.8" font-family="Arial" font-size="14.00">HardwareTypes.h</text>
</a>
</g>
</g>
<!-- Node2&#45;&gt;Node3 -->
<g id="edge2_Node000002_Node000003" class="edge">
<title>Node2&#45;&gt;Node3</title>
<g id="a_edge2_Node000002_Node000003"><a xlink:title=" ">
<path fill="none" stroke="#63b8ff" d="M826,-117.98C789.52,-108.57 735.9,-94.74 696.63,-84.61"/>
<polygon fill="#63b8ff" stroke="#63b8ff" points="697.28,-81.16 686.73,-82.06 695.53,-87.94 697.28,-81.16"/>
</a>
</g>
</g>
<!-- Node4 -->
<g id="Node000004" class="node">
<title>Node4</title>
<g id="a_Node000004"><a xlink:title=" ">
<polygon fill="#e0e0e0" stroke="#999999" points="752.8,-23 696.8,-23 696.8,0 752.8,0 752.8,-23"/>
<text text-anchor="middle" x="724.8" y="-7.8" font-family="Arial" font-size="14.00">cstdint</text>
</a>
</g>
</g>
<!-- Node2&#45;&gt;Node4 -->
<g id="edge5_Node000002_Node000004" class="edge">
<title>Node2&#45;&gt;Node4</title>
<g id="a_edge5_Node000002_Node000004"><a xlink:title=" ">
<path fill="none" stroke="#63b8ff" d="M868.23,-117.73C869.58,-102.79 869.69,-75.72 855.8,-59 833.03,-31.6 792.97,-20.34 763.13,-15.72"/>
<polygon fill="#63b8ff" stroke="#63b8ff" points="763.42,-12.22 753.04,-14.34 762.48,-19.16 763.42,-12.22"/>
</a>
</g>
</g>
<!-- Node6 -->
<g id="Node000006" class="node">
<title>Node6</title>
<g id="a_Node000006"><a xlink:title=" ">
<polygon fill="#e0e0e0" stroke="#999999" points="846.8,-82 762.8,-82 762.8,-59 846.8,-59 846.8,-82"/>
<text text-anchor="middle" x="804.8" y="-66.8" font-family="Arial" font-size="14.00">string_view</text>
</a>
</g>
</g>
<!-- Node2&#45;&gt;Node6 -->
<g id="edge6_Node000002_Node000006" class="edge">
<title>Node2&#45;&gt;Node6</title>
<g id="a_edge6_Node000002_Node000006"><a xlink:title=" ">
<path fill="none" stroke="#63b8ff" d="M855.14,-117.78C846.39,-109.74 834.22,-98.55 824.04,-89.19"/>
<polygon fill="#63b8ff" stroke="#63b8ff" points="826.14,-86.36 816.41,-82.17 821.4,-91.52 826.14,-86.36"/>
</a>
</g>
</g>
<!-- Node3&#45;&gt;Node4 -->
<g id="edge3_Node000003_Node000004" class="edge">
<title>Node3&#45;&gt;Node4</title>
<g id="a_edge3_Node000003_Node000004"><a xlink:title=" ">
<path fill="none" stroke="#63b8ff" d="M660.66,-58.78C672.24,-50.42 688.54,-38.66 701.8,-29.09"/>
<polygon fill="#63b8ff" stroke="#63b8ff" points="703.94,-31.86 710,-23.17 699.85,-26.19 703.94,-31.86"/>
</a>
</g>
</g>
<!-- Node5 -->
<g id="Node000005" class="node">
<title>Node5</title>
<g id="a_Node000005"><a xlink:title=" ">
<polygon fill="#e0e0e0" stroke="#999999" points="669.8,-23 621.8,-23 621.8,0 669.8,0 669.8,-23"/>
<text text-anchor="middle" x="645.8" y="-7.8" font-family="Arial" font-size="14.00">limits</text>
</a>
</g>
</g>
<!-- Node3&#45;&gt;Node5 -->
<g id="edge4_Node000003_Node000005" class="edge">
<title>Node3&#45;&gt;Node5</title>
<g id="a_edge4_Node000003_Node000005"><a xlink:title=" ">
<path fill="none" stroke="#63b8ff" d="M645.8,-58.78C645.8,-51.61 645.8,-41.95 645.8,-33.31"/>
<polygon fill="#63b8ff" stroke="#63b8ff" points="649.3,-33.17 645.8,-23.17 642.3,-33.17 649.3,-33.17"/>
</a>
</g>
</g>
<!-- Node8 -->
<g id="Node000008" class="node">
<title>Node8</title>
<g id="a_Node000008"><a xlink:href="McuSelect_8h.html" target="_top" xlink:title="Centralized MCU platform selection and configuration header.">
<polygon fill="white" stroke="#666666" points="256.8,-82 164.8,-82 164.8,-59 256.8,-59 256.8,-82"/>
<text text-anchor="middle" x="210.8" y="-66.8" font-family="Arial" font-size="14.00">McuSelect.h</text>
</a>
</g>
</g>
<!-- Node7&#45;&gt;Node8 -->
<g id="edge8_Node000007_Node000008" class="edge">
<title>Node7&#45;&gt;Node8</title>
<g id="a_edge8_Node000007_Node000008"><a xlink:title=" ">
<path fill="none" stroke="#63b8ff" d="M151.93,-309.92C97.87,-279.8 -44.04,-191.08 13.8,-118 31.07,-96.17 102.42,-83.55 154.3,-77.1"/>
<polygon fill="#63b8ff" stroke="#63b8ff" points="154.88,-80.56 164.39,-75.89 154.04,-73.61 154.88,-80.56"/>
</a>
</g>
</g>
<!-- Node9&#45;&gt;Node2 -->
<g id="edge10_Node000009_Node000002" class="edge">
<title>Node9&#45;&gt;Node2</title>
<g id="a_edge10_Node000009_Node000002"><a xlink:title=" ">
<path fill="none" stroke="#63b8ff" d="M554.87,-180.92C628.26,-169.06 731.79,-152.32 799.1,-141.44"/>
<polygon fill="#63b8ff" stroke="#63b8ff" points="799.86,-144.87 809.17,-139.82 798.74,-137.96 799.86,-144.87"/>
</a>
</g>
</g>
<!-- Node9&#45;&gt;Node3 -->
<g id="edge16_Node000009_Node000003" class="edge">
<title>Node9&#45;&gt;Node3</title>
<g id="a_edge16_Node000009_Node000003"><a xlink:title=" ">
<path fill="none" stroke="#63b8ff" d="M514.6,-176.97C535.53,-167.8 559.92,-155.5 579.8,-141 599.8,-126.41 618.85,-105.3 631.29,-90.18"/>
<polygon fill="#63b8ff" stroke="#63b8ff" points="634.28,-92.05 637.81,-82.06 628.82,-87.67 634.28,-92.05"/>
</a>
</g>
</g>
<!-- Node9&#45;&gt;Node8 -->
<g id="edge17_Node000009_Node000008" class="edge">
<title>Node9&#45;&gt;Node8</title>
<g id="a_edge17_Node000009_Node000008"><a xlink:title=" ">
<path fill="none" stroke="#63b8ff" d="M380.67,-190.47C258.59,-183.21 48.89,-167.08 25.8,-141 -13.9,-96.16 86.53,-80.16 154.46,-74.51"/>
<polygon fill="#63b8ff" stroke="#63b8ff" points="154.95,-77.99 164.65,-73.72 154.41,-71.01 154.95,-77.99"/>
</a>
</g>
</g>
<!-- Node10 -->
<g id="Node000010" class="node">
<title>Node10</title>
<g id="a_Node000010"><a xlink:href="EspTypes__Base_8h.html" target="_top" xlink:title="ESP32 base type definitions for hardware abstraction.">
<polygon fill="white" stroke="#666666" points="571.3,-141 446.3,-141 446.3,-118 571.3,-118 571.3,-141"/>
<text text-anchor="middle" x="508.8" y="-125.8" font-family="Arial" font-size="14.00">EspTypes_Base.h</text>
</a>
</g>
</g>
<!-- Node9&#45;&gt;Node10 -->
<g id="edge11_Node000009_Node000010" class="edge">
<title>Node9&#45;&gt;Node10</title>
<g id="a_edge11_Node000009_Node000010"><a xlink:title=" ">
<path fill="none" stroke="#63b8ff" d="M479.44,-176.69C484.79,-168.27 491.14,-158.27 496.57,-149.74"/>
<polygon fill="#63b8ff" stroke="#63b8ff" points="499.59,-151.51 502,-141.19 493.68,-147.75 499.59,-151.51"/>
</a>
</g>
</g>
<!-- Node12 -->
<g id="Node000012" class="node">
<title>Node12</title>
<g id="a_Node000012"><a xlink:title=" ">
<polygon fill="#e0e0e0" stroke="#999999" points="390.3,-141 213.3,-141 213.3,-118 390.3,-118 390.3,-141"/>
<text text-anchor="middle" x="301.8" y="-125.8" font-family="Arial" font-size="14.00">esp_adc/adc_continuous.h</text>
</a>
</g>
</g>
<!-- Node9&#45;&gt;Node12 -->
<g id="edge18_Node000009_Node000012" class="edge">
<title>Node9&#45;&gt;Node12</title>
<g id="a_edge18_Node000009_Node000012"><a xlink:title=" ">
<path fill="none" stroke="#63b8ff" d="M421.11,-176.86C394.99,-166.71 362.88,-154.23 338.55,-144.78"/>
<polygon fill="#63b8ff" stroke="#63b8ff" points="339.57,-141.42 328.98,-141.06 337.03,-147.95 339.57,-141.42"/>
</a>
</g>
</g>
<!-- Node13 -->
<g id="Node000013" class="node">
<title>Node13</title>
<g id="a_Node000013"><a xlink:title=" ">
<polygon fill="#e0e0e0" stroke="#999999" points="194.8,-141 34.8,-141 34.8,-118 194.8,-118 194.8,-141"/>
<text text-anchor="middle" x="114.8" y="-125.8" font-family="Arial" font-size="14.00">esp_adc/adc_oneshot.h</text>
</a>
</g>
</g>
<!-- Node9&#45;&gt;Node13 -->
<g id="edge19_Node000009_Node000013" class="edge">
<title>Node9&#45;&gt;Node13</title>
<g id="a_edge19_Node000009_Node000013"><a xlink:title=" ">
<path fill="none" stroke="#63b8ff" d="M380.54,-179.06C319.29,-167.87 238.59,-153.12 182.25,-142.83"/>
<polygon fill="#63b8ff" stroke="#63b8ff" points="182.84,-139.38 172.38,-141.02 181.59,-146.26 182.84,-139.38"/>
</a>
</g>
</g>
<!-- Node10&#45;&gt;Node3 -->
<g id="edge13_Node000010_Node000003" class="edge">
<title>Node10&#45;&gt;Node3</title>
<g id="a_edge13_Node000010_Node000003"><a xlink:title=" ">
<path fill="none" stroke="#63b8ff" d="M534.24,-117.91C555.87,-108.91 587.13,-95.91 611.06,-85.95"/>
<polygon fill="#63b8ff" stroke="#63b8ff" points="612.6,-89.1 620.49,-82.03 609.91,-82.64 612.6,-89.1"/>
</a>
</g>
</g>
<!-- Node10&#45;&gt;Node4 -->
<g id="edge15_Node000010_Node000004" class="edge">
<title>Node10&#45;&gt;Node4</title>
<g id="a_edge15_Node000010_Node000004"><a xlink:title=" ">
<path fill="none" stroke="#63b8ff" d="M516.22,-117.95C527.43,-102.77 550.13,-74.85 575.8,-59 594.4,-47.52 648.73,-32.04 686.37,-22.16"/>
<polygon fill="#63b8ff" stroke="#63b8ff" points="687.7,-25.43 696.5,-19.53 685.94,-18.66 687.7,-25.43"/>
</a>
</g>
</g>
<!-- Node10&#45;&gt;Node8 -->
<g id="edge12_Node000010_Node000008" class="edge">
<title>Node10&#45;&gt;Node8</title>
<g id="a_edge12_Node000010_Node000008"><a xlink:title=" ">
<path fill="none" stroke="#63b8ff" d="M453.79,-117.98C400.71,-107.82 320.72,-92.52 267.17,-82.28"/>
<polygon fill="#63b8ff" stroke="#63b8ff" points="267.64,-78.81 257.17,-80.37 266.33,-85.69 267.64,-78.81"/>
</a>
</g>
</g>
<!-- Node11 -->
<g id="Node000011" class="node">
<title>Node11</title>
<g id="a_Node000011"><a xlink:title=" ">
<polygon fill="#e0e0e0" stroke="#999999" points="528.3,-82 471.3,-82 471.3,-59 528.3,-59 528.3,-82"/>
<text text-anchor="middle" x="499.8" y="-66.8" font-family="Arial" font-size="14.00">atomic</text>
</a>
</g>
</g>
<!-- Node10&#45;&gt;Node11 -->
<g id="edge14_Node000010_Node000011" class="edge">
<title>Node10&#45;&gt;Node11</title>
<g id="a_edge14_Node000010_Node000011"><a xlink:title=" ">
<path fill="none" stroke="#63b8ff" d="M507.1,-117.78C505.97,-110.61 504.45,-100.95 503.08,-92.31"/>
<polygon fill="#63b8ff" stroke="#63b8ff" points="506.5,-91.5 501.48,-82.17 499.58,-92.6 506.5,-91.5"/>
</a>
</g>
</g>
<!-- Node14&#45;&gt;Node3 -->
<g id="edge27_Node000014_Node000003" class="edge">
<title>Node14&#45;&gt;Node3</title>
<g id="a_edge27_Node000014_Node000003"><a xlink:title=" ">
<path fill="none" stroke="#63b8ff" d="M810.19,-321.15C723.72,-320.64 571.53,-313.91 536.8,-274 530.09,-266.29 533.56,-260.7 536.8,-251 543.12,-232.03 552.75,-231.67 563.8,-215 584.8,-183.29 587.93,-174.03 606.8,-141 616.29,-124.37 626.92,-105.41 634.68,-91.5"/>
<polygon fill="#63b8ff" stroke="#63b8ff" points="637.96,-92.8 639.77,-82.36 631.84,-89.4 637.96,-92.8"/>
</a>
</g>
</g>
<!-- Node15 -->
<g id="Node000015" class="node">
<title>Node15</title>
<g id="a_Node000015"><a xlink:title=" ">
<polygon fill="#e0e0e0" stroke="#999999" points="741.3,-274 666.3,-274 666.3,-251 741.3,-251 741.3,-274"/>
<text text-anchor="middle" x="703.8" y="-258.8" font-family="Arial" font-size="14.00">esp_log.h</text>
</a>
</g>
</g>
<!-- Node14&#45;&gt;Node15 -->
<g id="edge21_Node000014_Node000015" class="edge">
<title>Node14&#45;&gt;Node15</title>
<g id="a_edge21_Node000014_Node000015"><a xlink:title=" ">
<path fill="none" stroke="#63b8ff" d="M839.78,-309.91C812.83,-300.71 773.61,-287.33 744.21,-277.29"/>
<polygon fill="#63b8ff" stroke="#63b8ff" points="745.25,-273.95 734.65,-274.03 742.98,-280.57 745.25,-273.95"/>
</a>
</g>
</g>
<!-- Node16 -->
<g id="Node000016" class="node">
<title>Node16</title>
<g id="a_Node000016"><a xlink:title=" ">
<polygon fill="#e0e0e0" stroke="#999999" points="846.3,-274 759.3,-274 759.3,-251 846.3,-251 846.3,-274"/>
<text text-anchor="middle" x="802.8" y="-258.8" font-family="Arial" font-size="14.00">esp_timer.h</text>
</a>
</g>
</g>
<!-- Node14&#45;&gt;Node16 -->
<g id="edge22_Node000014_Node000016" class="edge">
<title>Node14&#45;&gt;Node16</title>
<g id="a_edge22_Node000014_Node000016"><a xlink:title=" ">
<path fill="none" stroke="#63b8ff" d="M858.01,-309.78C848.22,-301.58 834.54,-290.11 823.24,-280.64"/>
<polygon fill="#63b8ff" stroke="#63b8ff" points="825.44,-277.91 815.53,-274.17 820.95,-283.28 825.44,-277.91"/>
</a>
</g>
</g>
<!-- Node17 -->
<g id="Node000017" class="node">
<title>Node17</title>
<g id="a_Node000017"><a xlink:title=" ">
<polygon fill="#e0e0e0" stroke="#999999" points="1176.3,-274 1033.3,-274 1033.3,-251 1176.3,-251 1176.3,-274"/>
<text text-anchor="middle" x="1104.8" y="-258.8" font-family="Arial" font-size="14.00">freertos/FreeRTOS.h</text>
</a>
</g>
</g>
<!-- Node14&#45;&gt;Node17 -->
<g id="edge23_Node000014_Node000017" class="edge">
<title>Node14&#45;&gt;Node17</title>
<g id="a_edge23_Node000014_Node000017"><a xlink:title=" ">
<path fill="none" stroke="#63b8ff" d="M913.99,-309.98C952.78,-300.53 1009.88,-286.62 1051.5,-276.48"/>
<polygon fill="#63b8ff" stroke="#63b8ff" points="1052.57,-279.82 1061.46,-274.06 1050.92,-273.02 1052.57,-279.82"/>
</a>
</g>
</g>
<!-- Node18 -->
<g id="Node000018" class="node">
<title>Node18</title>
<g id="a_Node000018"><a xlink:title=" ">
<polygon fill="#e0e0e0" stroke="#999999" points="1309.3,-274 1194.3,-274 1194.3,-251 1309.3,-251 1309.3,-274"/>
<text text-anchor="middle" x="1251.8" y="-258.8" font-family="Arial" font-size="14.00">freertos/queue.h</text>
</a>
</g>
</g>
<!-- Node14&#45;&gt;Node18 -->
<g id="edge24_Node000014_Node000018" class="edge">
<title>Node14&#45;&gt;Node18</title>
<g id="a_edge24_Node000014_Node000018"><a xlink:title=" ">
<path fill="none" stroke="#63b8ff" d="M931.51,-311.74C992.8,-302.86 1090.46,-288.57 1184.27,-274.22"/>
<polygon fill="#63b8ff" stroke="#63b8ff" points="1184.86,-277.67 1194.21,-272.7 1183.8,-270.76 1184.86,-277.67"/>
</a>
</g>
</g>
<!-- Node19 -->
<g id="Node000019" class="node">
<title>Node19</title>
<g id="a_Node000019"><a xlink:title=" ">
<polygon fill="#e0e0e0" stroke="#999999" points="1449.8,-274 1327.8,-274 1327.8,-251 1449.8,-251 1449.8,-274"/>
<text text-anchor="middle" x="1388.8" y="-258.8" font-family="Arial" font-size="14.00">freertos/semphr.h</text>
</a>
</g>
</g>
<!-- Node14&#45;&gt;Node19 -->
<g id="edge25_Node000014_Node000019" class="edge">
<title>Node14&#45;&gt;Node19</title>
<g id="a_edge25_Node000014_Node000019"><a xlink:title=" ">
<path fill="none" stroke="#63b8ff" d="M931.4,-315.09C1015.67,-307.37 1173.24,-292.24 1317.79,-274.08"/>
<polygon fill="#63b8ff" stroke="#63b8ff" points="1318.25,-277.55 1327.74,-272.83 1317.38,-270.61 1318.25,-277.55"/>
</a>
</g>
</g>
<!-- Node20 -->
<g id="Node000020" class="node">
<title>Node20</title>
<g id="a_Node000020"><a xlink:title=" ">
<polygon fill="#e0e0e0" stroke="#999999" points="647.8,-274 545.8,-274 545.8,-251 647.8,-251 647.8,-274"/>
<text text-anchor="middle" x="596.8" y="-258.8" font-family="Arial" font-size="14.00">freertos/task.h</text>
</a>
</g>
</g>
<!-- Node14&#45;&gt;Node20 -->
<g id="edge26_Node000014_Node000020" class="edge">
<title>Node14&#45;&gt;Node20</title>
<g id="a_edge26_Node000014_Node000020"><a xlink:title=" ">
<path fill="none" stroke="#63b8ff" d="M820.22,-309.98C774.22,-300.41 706.24,-286.27 657.36,-276.1"/>
<polygon fill="#63b8ff" stroke="#63b8ff" points="658.04,-272.67 647.54,-274.06 656.62,-279.52 658.04,-272.67"/>
</a>
</g>
</g>
<!-- Node21 -->
<g id="Node000021" class="node">
<title>Node21</title>
<g id="a_Node000021"><a xlink:href="EspGpio_8h.html" target="_top" xlink:title="Advanced MCU&#45;specific implementation of the unified BaseGpio class with ESP32C6/ESP&#45;IDF v5....">
<polygon fill="white" stroke="#666666" points="1015.3,-274 864.3,-274 864.3,-251 1015.3,-251 1015.3,-274"/>
<text text-anchor="middle" x="939.8" y="-258.8" font-family="Arial" font-size="14.00">mcu/esp32/EspGpio.h</text>
</a>
</g>
</g>
<!-- Node14&#45;&gt;Node21 -->
<g id="edge28_Node000014_Node000021" class="edge">
<title>Node14&#45;&gt;Node21</title>
<g id="a_edge28_Node000014_Node000021"><a xlink:title=" ">
<path fill="none" stroke="#63b8ff" d="M883.78,-309.78C893.7,-301.58 907.59,-290.11 919.05,-280.64"/>
<polygon fill="#63b8ff" stroke="#63b8ff" points="921.4,-283.24 926.88,-274.17 916.94,-277.84 921.4,-283.24"/>
</a>
</g>
</g>
<!-- Node22 -->
<g id="Node000022" class="node">
<title>Node22</title>
<g id="a_Node000022"><a xlink:title=" ">
<polygon fill="#e0e0e0" stroke="#999999" points="850.3,-207.5 759.3,-207.5 759.3,-184.5 850.3,-184.5 850.3,-207.5"/>
<text text-anchor="middle" x="804.8" y="-192.3" font-family="Arial" font-size="14.00">driver/gpio.h</text>
</a>
</g>
</g>
<!-- Node21&#45;&gt;Node22 -->
<g id="edge29_Node000021_Node000022" class="edge">
<title>Node21&#45;&gt;Node22</title>
<g id="a_edge29_Node000021_Node000022"><a xlink:title=" ">
<path fill="none" stroke="#63b8ff" d="M917.81,-250.99C895.55,-240.36 860.93,-223.82 835.87,-211.84"/>
<polygon fill="#63b8ff" stroke="#63b8ff" points="837.31,-208.66 826.78,-207.5 834.29,-214.97 837.31,-208.66"/>
</a>
</g>
</g>
<!-- Node23 -->
<g id="Node000023" class="node">
<title>Node23</title>
<g id="a_Node000023"><a xlink:title=" ">
<polygon fill="#e0e0e0" stroke="#999999" points="982.8,-207.5 906.8,-207.5 906.8,-184.5 982.8,-184.5 982.8,-207.5"/>
<text text-anchor="middle" x="944.8" y="-192.3" font-family="Arial" font-size="14.00">esp_attr.h</text>
</a>
</g>
</g>
<!-- Node21&#45;&gt;Node23 -->
<g id="edge30_Node000021_Node000023" class="edge">
<title>Node21&#45;&gt;Node23</title>
<g id="a_edge30_Node000021_Node000023"><a xlink:title=" ">
<path fill="none" stroke="#63b8ff" d="M940.62,-250.85C941.31,-241.94 942.32,-228.96 943.17,-217.98"/>
<polygon fill="#63b8ff" stroke="#63b8ff" points="946.67,-218.12 943.95,-207.88 939.69,-217.58 946.67,-218.12"/>
</a>
</g>
</g>
<!-- Node24 -->
<g id="Node000024" class="node">
<title>Node24</title>
<g id="a_Node000024"><a xlink:href="BaseGpio_8h.html" target="_top" xlink:title="Unified GPIO base class for all digital GPIO implementations.">
<polygon fill="white" stroke="#666666" points="791.8,-141 703.8,-141 703.8,-118 791.8,-118 791.8,-141"/>
<text text-anchor="middle" x="747.8" y="-125.8" font-family="Arial" font-size="14.00">BaseGpio.h</text>
</a>
</g>
</g>
<!-- Node21&#45;&gt;Node24 -->
<g id="edge31_Node000021_Node000024" class="edge">
<title>Node21&#45;&gt;Node24</title>
<g id="a_edge31_Node000021_Node000024"><a xlink:title=" ">
<path fill="none" stroke="#63b8ff" d="M930.02,-250.68C910.51,-229.16 867.95,-182.61 859.8,-177 839.5,-163.02 814.34,-152.1 793.02,-144.37"/>
<polygon fill="#63b8ff" stroke="#63b8ff" points="794.11,-141.04 783.52,-141.04 791.8,-147.65 794.11,-141.04"/>
</a>
</g>
</g>
<!-- Node25 -->
<g id="Node000025" class="node">
<title>Node25</title>
<g id="a_Node000025"><a xlink:href="EspTypes__GPIO_8h.html" target="_top" xlink:title="ESP32 GPIO type definitions for hardware abstraction.">
<polygon fill="white" stroke="#666666" points="740.8,-207.5 610.8,-207.5 610.8,-184.5 740.8,-184.5 740.8,-207.5"/>
<text text-anchor="middle" x="675.8" y="-192.3" font-family="Arial" font-size="14.00">EspTypes_GPIO.h</text>
</a>
</g>
</g>
<!-- Node21&#45;&gt;Node25 -->
<g id="edge35_Node000021_Node000025" class="edge">
<title>Node21&#45;&gt;Node25</title>
<g id="a_edge35_Node000021_Node000025"><a xlink:title=" ">
<path fill="none" stroke="#63b8ff" d="M896.79,-250.99C850.86,-239.77 778.03,-221.98 728.64,-209.91"/>
<polygon fill="#63b8ff" stroke="#63b8ff" points="729.33,-206.48 718.78,-207.5 727.67,-213.28 729.33,-206.48"/>
</a>
</g>
</g>
<!-- Node26 -->
<g id="Node000026" class="node">
<title>Node26</title>
<g id="a_Node000026"><a xlink:title=" ">
<polygon fill="#e0e0e0" stroke="#999999" points="1056.8,-207.5 1000.8,-207.5 1000.8,-184.5 1056.8,-184.5 1056.8,-207.5"/>
<text text-anchor="middle" x="1028.8" y="-192.3" font-family="Arial" font-size="14.00">stdio.h</text>
</a>
</g>
</g>
<!-- Node21&#45;&gt;Node26 -->
<g id="edge40_Node000021_Node000026" class="edge">
<title>Node21&#45;&gt;Node26</title>
<g id="a_edge40_Node000021_Node000026"><a xlink:title=" ">
<path fill="none" stroke="#63b8ff" d="M954.49,-250.85C968.41,-240.77 989.51,-225.47 1005.68,-213.75"/>
<polygon fill="#63b8ff" stroke="#63b8ff" points="1008.04,-216.37 1014.08,-207.67 1003.93,-210.7 1008.04,-216.37"/>
</a>
</g>
</g>
<!-- Node24&#45;&gt;Node3 -->
<g id="edge32_Node000024_Node000003" class="edge">
<title>Node24&#45;&gt;Node3</title>
<g id="a_edge32_Node000024_Node000003"><a xlink:title=" ">
<path fill="none" stroke="#63b8ff" d="M728.61,-117.78C713.22,-109.18 691.41,-96.99 674.03,-87.28"/>
<polygon fill="#63b8ff" stroke="#63b8ff" points="675.33,-84 664.9,-82.17 671.92,-90.11 675.33,-84"/>
</a>
</g>
</g>
<!-- Node24&#45;&gt;Node4 -->
<g id="edge33_Node000024_Node000004" class="edge">
<title>Node24&#45;&gt;Node4</title>
<g id="a_edge33_Node000024_Node000004"><a xlink:title=" ">
<path fill="none" stroke="#63b8ff" d="M745.67,-117.79C741.86,-98.55 733.78,-57.79 728.86,-33.01"/>
<polygon fill="#63b8ff" stroke="#63b8ff" points="732.29,-32.31 726.91,-23.18 725.43,-33.67 732.29,-32.31"/>
</a>
</g>
</g>
<!-- Node24&#45;&gt;Node6 -->
<g id="edge34_Node000024_Node000006" class="edge">
<title>Node24&#45;&gt;Node6</title>
<g id="a_edge34_Node000024_Node000006"><a xlink:title=" ">
<path fill="none" stroke="#63b8ff" d="M758.52,-117.78C766.48,-109.82 777.52,-98.77 786.83,-89.47"/>
<polygon fill="#63b8ff" stroke="#63b8ff" points="789.53,-91.72 794.12,-82.17 784.58,-86.77 789.53,-91.72"/>
</a>
</g>
</g>
<!-- Node25&#45;&gt;Node3 -->
<g id="edge38_Node000025_Node000003" class="edge">
<title>Node25&#45;&gt;Node3</title>
<g id="a_edge38_Node000025_Node000003"><a xlink:title=" ">
<path fill="none" stroke="#63b8ff" d="M673.24,-184.47C668.26,-163.96 657.18,-118.35 650.72,-91.79"/>
<polygon fill="#63b8ff" stroke="#63b8ff" points="654.11,-90.89 648.35,-82 647.31,-92.55 654.11,-90.89"/>
</a>
</g>
</g>
<!-- Node25&#45;&gt;Node8 -->
<g id="edge39_Node000025_Node000008" class="edge">
<title>Node25&#45;&gt;Node8</title>
<g id="a_edge39_Node000025_Node000008"><a xlink:title=" ">
<path fill="none" stroke="#63b8ff" d="M619.55,-184.46C559.77,-172.88 469.44,-154.16 436.8,-141 418.49,-133.62 417.03,-125.57 398.8,-118 356.04,-100.25 304.89,-88.15 266.74,-80.74"/>
<polygon fill="#63b8ff" stroke="#63b8ff" points="267.32,-77.29 256.84,-78.87 266.02,-84.17 267.32,-77.29"/>
</a>
</g>
</g>
<!-- Node25&#45;&gt;Node10 -->
<g id="edge37_Node000025_Node000010" class="edge">
<title>Node25&#45;&gt;Node10</title>
<g id="a_edge37_Node000025_Node000010"><a xlink:title=" ">
<path fill="none" stroke="#63b8ff" d="M648.59,-184.49C620.57,-173.67 576.72,-156.73 545.61,-144.72"/>
<polygon fill="#63b8ff" stroke="#63b8ff" points="546.58,-141.34 535.99,-141 544.06,-147.87 546.58,-141.34"/>
</a>
</g>
</g>
<!-- Node25&#45;&gt;Node24 -->
<g id="edge36_Node000025_Node000024" class="edge">
<title>Node25&#45;&gt;Node24</title>
<g id="a_edge36_Node000025_Node000024"><a xlink:title=" ">
<path fill="none" stroke="#63b8ff" d="M687.69,-184.35C698.67,-174.51 715.19,-159.71 728.13,-148.12"/>
<polygon fill="#63b8ff" stroke="#63b8ff" points="730.54,-150.66 735.65,-141.38 725.87,-145.45 730.54,-150.66"/>
</a>
</g>
</g>
</g>
</svg>
