<?xml version="1.0" encoding="UTF-8" standalone="no"?>
<!DOCTYPE svg PUBLIC "-//W3C//DTD SVG 1.1//EN"
 "http://www.w3.org/Graphics/SVG/1.1/DTD/svg11.dtd">
<!-- Generated by graphviz version 2.43.0 (0)
 -->
<!-- Title: examples/esp32/main/AsciiArtComprehensiveTest.cpp Pages: 1 -->
<!--zoomable 400 -->

<svg id="main" version="1.1" xmlns="http://www.w3.org/2000/svg" xmlns:xlink="http://www.w3.org/1999/xlink" xml:space="preserve" onload="init(evt)">
<style type="text/css"><![CDATA[
.node, .edge {opacity: 0.7;}
.node.selected, .edge.selected {opacity: 1;}
.edge:hover path { stroke: red; }
.edge:hover polygon { stroke: red; fill: red; }
]]></style>

<defs>
  <circle id="rim" cx="0" cy="0" r="7"/>
  <circle id="rim2" cx="0" cy="0" r="3.5"/>
  <g id="zoomPlus">
    <use xlink:href="#rim" fill="#404040"><set attributeName="fill" to="#808080" begin="zoomplus.mouseover" end="zoomplus.mouseout"/></use>
    <path d="M-4,0h8M0,-4v8" fill="none" stroke="white" stroke-width="1.5" pointer-events="none"/>
  </g>
  <g id="zoomMin">
    <use xlink:href="#rim" fill="#404040"><set attributeName="fill" to="#808080" begin="zoomminus.mouseover" end="zoomminus.mouseout"/></use>
    <path d="M-4,0h8" fill="none" stroke="white" stroke-width="1.5" pointer-events="none"/>
  </g>
  <g id="arrowUp" transform="translate(30 24)">
    <use xlink:href="#rim"/>
    <path pointer-events="none" fill="none" stroke="white" stroke-width="1.5" d="M0,-3.0v7 M-2.5,-0.5L0,-3.0L2.5,-0.5"/>
  </g>
  <g id="arrowRight" transform="rotate(90) translate(36 -43)">
    <use xlink:href="#rim"/>
    <path pointer-events="none" fill="none" stroke="white" stroke-width="1.5" d="M0,-3.0v7 M-2.5,-0.5L0,-3.0L2.5,-0.5"/>
  </g>
  <g id="arrowDown" transform="rotate(180) translate(-30 -48)">
    <use xlink:href="#rim"/>
    <path pointer-events="none" fill="none" stroke="white" stroke-width="1.5" d="M0,-3.0v7 M-2.5,-0.5L0,-3.0L2.5,-0.5"/>
  </g>
  <g id="arrowLeft" transform="rotate(270) translate(-36 17)">
    <use xlink:href="#rim"/>
    <path pointer-events="none" fill="none" stroke="white" stroke-width="1.5" d="M0,-3.0v7 M-2.5,-0.5L0,-3.0L2.5,-0.5"/>
  </g>
  <g id="resetDef">
    <use xlink:href="#rim2" fill="#404040"><set attributeName="fill" to="#808080" begin="reset.mouseover" end="reset.mouseout"/></use>
  </g>
</defs>
<script type="application/ecmascript">
var viewWidth = 1719;
var viewHeight = 400;
var sectionId = 'dynsection-0';
</script>
<script type="application/ecmascript" xlink:href="svg.min.js"/>
<svg id="graph" class="graph">
<g id="viewport">
<title>examples/esp32/main/AsciiArtComprehensiveTest.cpp</title>
<!-- Node1 -->
<g id="Node000001" class="node">
<title>Node1</title>
<g id="a_Node000001"><a xlink:title="ASCII Art Generator comprehensive example and test suite for ESP32&#45;C6 DevKit&#45;M&#45;1 (noexcept)">
<polygon fill="#999999" stroke="#666666" points="300.5,-392 88.5,-392 88.5,-354 300.5,-354 300.5,-392"/>
<text text-anchor="start" x="96.5" y="-376.8" font-family="Arial" font-size="14.00">examples/esp32/main</text>
<text text-anchor="middle" x="194.5" y="-361.8" font-family="Arial" font-size="14.00">/AsciiArtComprehensiveTest.cpp</text>
</a>
</g>
</g>
<!-- Node2 -->
<g id="Node000002" class="node">
<title>Node2</title>
<g id="a_Node000002"><a xlink:title=" ">
<polygon fill="#e0e0e0" stroke="#999999" points="73,-318 0,-318 0,-295 73,-295 73,-318"/>
<text text-anchor="middle" x="36.5" y="-302.8" font-family="Arial" font-size="14.00">algorithm</text>
</a>
</g>
</g>
<!-- Node1&#45;&gt;Node2 -->
<g id="edge1_Node000001_Node000002" class="edge">
<title>Node1&#45;&gt;Node2</title>
<g id="a_edge1_Node000001_Node000002"><a xlink:title=" ">
<path fill="none" stroke="#63b8ff" d="M150.07,-353.86C125.31,-343.75 94.91,-331.34 71.79,-321.91"/>
<polygon fill="#63b8ff" stroke="#63b8ff" points="72.95,-318.6 62.37,-318.06 70.31,-325.08 72.95,-318.6"/>
</a>
</g>
</g>
<!-- Node3 -->
<g id="Node000003" class="node">
<title>Node3</title>
<g id="a_Node000003"><a xlink:title=" ">
<polygon fill="#e0e0e0" stroke="#999999" points="147.5,-318 91.5,-318 91.5,-295 147.5,-295 147.5,-318"/>
<text text-anchor="middle" x="119.5" y="-302.8" font-family="Arial" font-size="14.00">cstring</text>
</a>
</g>
</g>
<!-- Node1&#45;&gt;Node3 -->
<g id="edge2_Node000001_Node000003" class="edge">
<title>Node1&#45;&gt;Node3</title>
<g id="a_edge2_Node000001_Node000003"><a xlink:title=" ">
<path fill="none" stroke="#63b8ff" d="M173.21,-353.69C162.68,-344.64 150.05,-333.77 139.68,-324.85"/>
<polygon fill="#63b8ff" stroke="#63b8ff" points="141.8,-322.06 131.93,-318.19 137.23,-327.37 141.8,-322.06"/>
</a>
</g>
</g>
<!-- Node4 -->
<g id="Node000004" class="node">
<title>Node4</title>
<g id="a_Node000004"><a xlink:title=" ">
<polygon fill="#e0e0e0" stroke="#999999" points="200.5,-259 150.5,-259 150.5,-236 200.5,-236 200.5,-259"/>
<text text-anchor="middle" x="175.5" y="-243.8" font-family="Arial" font-size="14.00">string</text>
</a>
</g>
</g>
<!-- Node1&#45;&gt;Node4 -->
<g id="edge3_Node000001_Node000004" class="edge">
<title>Node1&#45;&gt;Node4</title>
<g id="a_edge3_Node000001_Node000004"><a xlink:title=" ">
<path fill="none" stroke="#63b8ff" d="M191.7,-353.78C188.22,-331.19 182.31,-292.78 178.67,-269.13"/>
<polygon fill="#63b8ff" stroke="#63b8ff" points="182.11,-268.48 177.13,-259.13 175.2,-269.54 182.11,-268.48"/>
</a>
</g>
</g>
<!-- Node5 -->
<g id="Node000005" class="node">
<title>Node5</title>
<g id="a_Node000005"><a xlink:title=" ">
<polygon fill="#e0e0e0" stroke="#999999" points="272,-259 219,-259 219,-236 272,-236 272,-259"/>
<text text-anchor="middle" x="245.5" y="-243.8" font-family="Arial" font-size="14.00">vector</text>
</a>
</g>
</g>
<!-- Node1&#45;&gt;Node5 -->
<g id="edge4_Node000001_Node000005" class="edge">
<title>Node1&#45;&gt;Node5</title>
<g id="a_edge4_Node000001_Node000005"><a xlink:title=" ">
<path fill="none" stroke="#63b8ff" d="M202.03,-353.78C211.44,-330.98 227.5,-292.09 237.24,-268.49"/>
<polygon fill="#63b8ff" stroke="#63b8ff" points="240.53,-269.71 241.11,-259.13 234.06,-267.03 240.53,-269.71"/>
</a>
</g>
</g>
<!-- Node6 -->
<g id="Node000006" class="node">
<title>Node6</title>
<g id="a_Node000006"><a xlink:href="TestFramework_8h.html" target="_top" xlink:title="Shared testing framework for ESP32&#45;C6 comprehensive test suites.">
<polygon fill="white" stroke="#666666" points="915,-318 794,-318 794,-295 915,-295 915,-318"/>
<text text-anchor="middle" x="854.5" y="-302.8" font-family="Arial" font-size="14.00">TestFramework.h</text>
</a>
</g>
</g>
<!-- Node1&#45;&gt;Node6 -->
<g id="edge5_Node000001_Node000006" class="edge">
<title>Node1&#45;&gt;Node6</title>
<g id="a_edge5_Node000001_Node000006"><a xlink:title=" ">
<path fill="none" stroke="#63b8ff" d="M300.54,-361.64C436.19,-348.38 667.43,-325.78 783.55,-314.43"/>
<polygon fill="#63b8ff" stroke="#63b8ff" points="784.13,-317.89 793.74,-313.44 783.45,-310.93 784.13,-317.89"/>
</a>
</g>
</g>
<!-- Node26 -->
<g id="Node000026" class="node">
<title>Node26</title>
<g id="a_Node000026"><a xlink:href="AsciiArtGenerator_8h.html" target="_top" xlink:title="Simple ASCII art generator.">
<polygon fill="white" stroke="#666666" points="403.5,-318 241.5,-318 241.5,-295 403.5,-295 403.5,-318"/>
<text text-anchor="middle" x="322.5" y="-302.8" font-family="Arial" font-size="14.00">utils/AsciiArtGenerator.h</text>
</a>
</g>
</g>
<!-- Node1&#45;&gt;Node26 -->
<g id="edge32_Node000001_Node000026" class="edge">
<title>Node1&#45;&gt;Node26</title>
<g id="a_edge32_Node000001_Node000026"><a xlink:title=" ">
<path fill="none" stroke="#63b8ff" d="M230.5,-353.86C250.02,-344.03 273.87,-332.01 292.39,-322.67"/>
<polygon fill="#63b8ff" stroke="#63b8ff" points="294.19,-325.69 301.54,-318.06 291.04,-319.44 294.19,-325.69"/>
</a>
</g>
</g>
<!-- Node7 -->
<g id="Node000007" class="node">
<title>Node7</title>
<g id="a_Node000007"><a xlink:title=" ">
<polygon fill="#e0e0e0" stroke="#999999" points="513,-259 438,-259 438,-236 513,-236 513,-259"/>
<text text-anchor="middle" x="475.5" y="-243.8" font-family="Arial" font-size="14.00">esp_log.h</text>
</a>
</g>
</g>
<!-- Node6&#45;&gt;Node7 -->
<g id="edge6_Node000006_Node000007" class="edge">
<title>Node6&#45;&gt;Node7</title>
<g id="a_edge6_Node000006_Node000007"><a xlink:title=" ">
<path fill="none" stroke="#63b8ff" d="M793.79,-298.61C729.01,-290.9 623.18,-277.28 523.08,-259.18"/>
<polygon fill="#63b8ff" stroke="#63b8ff" points="523.57,-255.71 513.1,-257.36 522.31,-262.6 523.57,-255.71"/>
</a>
</g>
</g>
<!-- Node8 -->
<g id="Node000008" class="node">
<title>Node8</title>
<g id="a_Node000008"><a xlink:title=" ">
<polygon fill="#e0e0e0" stroke="#999999" points="618,-259 531,-259 531,-236 618,-236 618,-259"/>
<text text-anchor="middle" x="574.5" y="-243.8" font-family="Arial" font-size="14.00">esp_timer.h</text>
</a>
</g>
</g>
<!-- Node6&#45;&gt;Node8 -->
<g id="edge7_Node000006_Node000008" class="edge">
<title>Node6&#45;&gt;Node8</title>
<g id="a_edge7_Node000006_Node000008"><a xlink:title=" ">
<path fill="none" stroke="#63b8ff" d="M802.82,-294.98C753.15,-284.87 678.4,-269.65 628.1,-259.41"/>
<polygon fill="#63b8ff" stroke="#63b8ff" points="628.56,-255.93 618.07,-257.37 627.17,-262.79 628.56,-255.93"/>
</a>
</g>
</g>
<!-- Node9 -->
<g id="Node000009" class="node">
<title>Node9</title>
<g id="a_Node000009"><a xlink:title=" ">
<polygon fill="#e0e0e0" stroke="#999999" points="779,-259 636,-259 636,-236 779,-236 779,-259"/>
<text text-anchor="middle" x="707.5" y="-243.8" font-family="Arial" font-size="14.00">freertos/FreeRTOS.h</text>
</a>
</g>
</g>
<!-- Node6&#45;&gt;Node9 -->
<g id="edge8_Node000006_Node000009" class="edge">
<title>Node6&#45;&gt;Node9</title>
<g id="a_edge8_Node000006_Node000009"><a xlink:title=" ">
<path fill="none" stroke="#63b8ff" d="M827.19,-294.91C803.78,-285.83 769.85,-272.68 744.09,-262.69"/>
<polygon fill="#63b8ff" stroke="#63b8ff" points="745.25,-259.38 734.66,-259.03 742.72,-265.91 745.25,-259.38"/>
</a>
</g>
</g>
<!-- Node10 -->
<g id="Node000010" class="node">
<title>Node10</title>
<g id="a_Node000010"><a xlink:title=" ">
<polygon fill="#e0e0e0" stroke="#999999" points="912,-259 797,-259 797,-236 912,-236 912,-259"/>
<text text-anchor="middle" x="854.5" y="-243.8" font-family="Arial" font-size="14.00">freertos/queue.h</text>
</a>
</g>
</g>
<!-- Node6&#45;&gt;Node10 -->
<g id="edge9_Node000006_Node000010" class="edge">
<title>Node6&#45;&gt;Node10</title>
<g id="a_edge9_Node000006_Node000010"><a xlink:title=" ">
<path fill="none" stroke="#63b8ff" d="M854.5,-294.78C854.5,-287.61 854.5,-277.95 854.5,-269.31"/>
<polygon fill="#63b8ff" stroke="#63b8ff" points="858,-269.17 854.5,-259.17 851,-269.17 858,-269.17"/>
</a>
</g>
</g>
<!-- Node11 -->
<g id="Node000011" class="node">
<title>Node11</title>
<g id="a_Node000011"><a xlink:title=" ">
<polygon fill="#e0e0e0" stroke="#999999" points="1052.5,-259 930.5,-259 930.5,-236 1052.5,-236 1052.5,-259"/>
<text text-anchor="middle" x="991.5" y="-243.8" font-family="Arial" font-size="14.00">freertos/semphr.h</text>
</a>
</g>
</g>
<!-- Node6&#45;&gt;Node11 -->
<g id="edge10_Node000006_Node000011" class="edge">
<title>Node6&#45;&gt;Node11</title>
<g id="a_edge10_Node000006_Node000011"><a xlink:title=" ">
<path fill="none" stroke="#63b8ff" d="M879.95,-294.91C901.58,-285.91 932.83,-272.91 956.76,-262.95"/>
<polygon fill="#63b8ff" stroke="#63b8ff" points="958.3,-266.1 966.19,-259.03 955.61,-259.64 958.3,-266.1"/>
</a>
</g>
</g>
<!-- Node12 -->
<g id="Node000012" class="node">
<title>Node12</title>
<g id="a_Node000012"><a xlink:title=" ">
<polygon fill="#e0e0e0" stroke="#999999" points="1172.5,-259 1070.5,-259 1070.5,-236 1172.5,-236 1172.5,-259"/>
<text text-anchor="middle" x="1121.5" y="-243.8" font-family="Arial" font-size="14.00">freertos/task.h</text>
</a>
</g>
</g>
<!-- Node6&#45;&gt;Node12 -->
<g id="edge11_Node000006_Node000012" class="edge">
<title>Node6&#45;&gt;Node12</title>
<g id="a_edge11_Node000006_Node000012"><a xlink:title=" ">
<path fill="none" stroke="#63b8ff" d="M903.78,-294.98C948.52,-285.43 1014.58,-271.33 1062.19,-261.16"/>
<polygon fill="#63b8ff" stroke="#63b8ff" points="1063,-264.57 1072.05,-259.06 1061.54,-257.72 1063,-264.57"/>
</a>
</g>
</g>
<!-- Node13 -->
<g id="Node000013" class="node">
<title>Node13</title>
<g id="a_Node000013"><a xlink:href="HardwareTypes_8h.html" target="_top" xlink:title="Platform&#45;agnostic hardware type definitions for the HardFOC system.">
<polygon fill="white" stroke="#666666" points="1263.5,-82 1141.5,-82 1141.5,-59 1263.5,-59 1263.5,-82"/>
<text text-anchor="middle" x="1202.5" y="-66.8" font-family="Arial" font-size="14.00">HardwareTypes.h</text>
</a>
</g>
</g>
<!-- Node6&#45;&gt;Node13 -->
<g id="edge12_Node000006_Node000013" class="edge">
<title>Node6&#45;&gt;Node13</title>
<g id="a_edge12_Node000006_Node000013"><a xlink:title=" ">
<path fill="none" stroke="#63b8ff" d="M915.05,-305.42C999.31,-303.93 1145.65,-295.93 1181.5,-259 1225.31,-213.86 1215.21,-130.93 1207.43,-92.31"/>
<polygon fill="#63b8ff" stroke="#63b8ff" points="1210.78,-91.28 1205.24,-82.25 1203.94,-92.76 1210.78,-91.28"/>
</a>
</g>
</g>
<!-- Node16 -->
<g id="Node000016" class="node">
<title>Node16</title>
<g id="a_Node000016"><a xlink:href="EspGpio_8h.html" target="_top" xlink:title="Advanced MCU&#45;specific implementation of the unified BaseGpio class with ESP32C6/ESP&#45;IDF v5....">
<polygon fill="white" stroke="#666666" points="1507,-259 1356,-259 1356,-236 1507,-236 1507,-259"/>
<text text-anchor="middle" x="1431.5" y="-243.8" font-family="Arial" font-size="14.00">mcu/esp32/EspGpio.h</text>
</a>
</g>
</g>
<!-- Node6&#45;&gt;Node16 -->
<g id="edge15_Node000006_Node000016" class="edge">
<title>Node6&#45;&gt;Node16</title>
<g id="a_edge15_Node000006_Node000016"><a xlink:title=" ">
<path fill="none" stroke="#63b8ff" d="M915.16,-299.51C1018.2,-289.33 1227.7,-268.63 1345.71,-256.97"/>
<polygon fill="#63b8ff" stroke="#63b8ff" points="1346.19,-260.44 1355.8,-255.98 1345.5,-253.48 1346.19,-260.44"/>
</a>
</g>
</g>
<!-- Node14 -->
<g id="Node000014" class="node">
<title>Node14</title>
<g id="a_Node000014"><a xlink:title=" ">
<polygon fill="#e0e0e0" stroke="#999999" points="1319.5,-23 1263.5,-23 1263.5,0 1319.5,0 1319.5,-23"/>
<text text-anchor="middle" x="1291.5" y="-7.8" font-family="Arial" font-size="14.00">cstdint</text>
</a>
</g>
</g>
<!-- Node13&#45;&gt;Node14 -->
<g id="edge13_Node000013_Node000014" class="edge">
<title>Node13&#45;&gt;Node14</title>
<g id="a_edge13_Node000013_Node000014"><a xlink:title=" ">
<path fill="none" stroke="#63b8ff" d="M1219.24,-58.78C1232.42,-50.34 1251,-38.44 1266.02,-28.82"/>
<polygon fill="#63b8ff" stroke="#63b8ff" points="1268.3,-31.51 1274.83,-23.17 1264.53,-25.62 1268.3,-31.51"/>
</a>
</g>
</g>
<!-- Node15 -->
<g id="Node000015" class="node">
<title>Node15</title>
<g id="a_Node000015"><a xlink:title=" ">
<polygon fill="#e0e0e0" stroke="#999999" points="1226.5,-23 1178.5,-23 1178.5,0 1226.5,0 1226.5,-23"/>
<text text-anchor="middle" x="1202.5" y="-7.8" font-family="Arial" font-size="14.00">limits</text>
</a>
</g>
</g>
<!-- Node13&#45;&gt;Node15 -->
<g id="edge14_Node000013_Node000015" class="edge">
<title>Node13&#45;&gt;Node15</title>
<g id="a_edge14_Node000013_Node000015"><a xlink:title=" ">
<path fill="none" stroke="#63b8ff" d="M1202.5,-58.78C1202.5,-51.61 1202.5,-41.95 1202.5,-33.31"/>
<polygon fill="#63b8ff" stroke="#63b8ff" points="1206,-33.17 1202.5,-23.17 1199,-33.17 1206,-33.17"/>
</a>
</g>
</g>
<!-- Node17 -->
<g id="Node000017" class="node">
<title>Node17</title>
<g id="a_Node000017"><a xlink:title=" ">
<polygon fill="#e0e0e0" stroke="#999999" points="1542,-200 1451,-200 1451,-177 1542,-177 1542,-200"/>
<text text-anchor="middle" x="1496.5" y="-184.8" font-family="Arial" font-size="14.00">driver/gpio.h</text>
</a>
</g>
</g>
<!-- Node16&#45;&gt;Node17 -->
<g id="edge16_Node000016_Node000017" class="edge">
<title>Node16&#45;&gt;Node17</title>
<g id="a_edge16_Node000016_Node000017"><a xlink:title=" ">
<path fill="none" stroke="#63b8ff" d="M1443.73,-235.78C1452.99,-227.66 1465.9,-216.33 1476.64,-206.92"/>
<polygon fill="#63b8ff" stroke="#63b8ff" points="1479.12,-209.4 1484.33,-200.17 1474.5,-204.13 1479.12,-209.4"/>
</a>
</g>
</g>
<!-- Node18 -->
<g id="Node000018" class="node">
<title>Node18</title>
<g id="a_Node000018"><a xlink:title=" ">
<polygon fill="#e0e0e0" stroke="#999999" points="1636.5,-200 1560.5,-200 1560.5,-177 1636.5,-177 1636.5,-200"/>
<text text-anchor="middle" x="1598.5" y="-184.8" font-family="Arial" font-size="14.00">esp_attr.h</text>
</a>
</g>
</g>
<!-- Node16&#45;&gt;Node18 -->
<g id="edge17_Node000016_Node000018" class="edge">
<title>Node16&#45;&gt;Node18</title>
<g id="a_edge17_Node000016_Node000018"><a xlink:title=" ">
<path fill="none" stroke="#63b8ff" d="M1462.52,-235.91C1489.47,-226.71 1528.68,-213.33 1558.08,-203.29"/>
<polygon fill="#63b8ff" stroke="#63b8ff" points="1559.31,-206.57 1567.65,-200.03 1557.05,-199.95 1559.31,-206.57"/>
</a>
</g>
</g>
<!-- Node19 -->
<g id="Node000019" class="node">
<title>Node19</title>
<g id="a_Node000019"><a xlink:href="BaseGpio_8h.html" target="_top" xlink:title="Unified GPIO base class for all digital GPIO implementations.">
<polygon fill="white" stroke="#666666" points="1354.5,-141 1266.5,-141 1266.5,-118 1354.5,-118 1354.5,-141"/>
<text text-anchor="middle" x="1310.5" y="-125.8" font-family="Arial" font-size="14.00">BaseGpio.h</text>
</a>
</g>
</g>
<!-- Node16&#45;&gt;Node19 -->
<g id="edge18_Node000016_Node000019" class="edge">
<title>Node16&#45;&gt;Node19</title>
<g id="a_edge18_Node000016_Node000019"><a xlink:title=" ">
<path fill="none" stroke="#63b8ff" d="M1355.93,-238.42C1332.05,-231.89 1308.1,-220.33 1293.5,-200 1283.04,-185.43 1289.78,-165.19 1297.65,-150.31"/>
<polygon fill="#63b8ff" stroke="#63b8ff" points="1300.82,-151.82 1302.82,-141.42 1294.77,-148.31 1300.82,-151.82"/>
</a>
</g>
</g>
<!-- Node21 -->
<g id="Node000021" class="node">
<title>Node21</title>
<g id="a_Node000021"><a xlink:href="EspTypes__GPIO_8h.html" target="_top" xlink:title="ESP32 GPIO type definitions for hardware abstraction.">
<polygon fill="white" stroke="#666666" points="1432.5,-200 1302.5,-200 1302.5,-177 1432.5,-177 1432.5,-200"/>
<text text-anchor="middle" x="1367.5" y="-184.8" font-family="Arial" font-size="14.00">EspTypes_GPIO.h</text>
</a>
</g>
</g>
<!-- Node16&#45;&gt;Node21 -->
<g id="edge22_Node000016_Node000021" class="edge">
<title>Node16&#45;&gt;Node21</title>
<g id="a_edge22_Node000016_Node000021"><a xlink:title=" ">
<path fill="none" stroke="#63b8ff" d="M1419.46,-235.78C1410.34,-227.66 1397.63,-216.33 1387.05,-206.92"/>
<polygon fill="#63b8ff" stroke="#63b8ff" points="1389.28,-204.21 1379.48,-200.17 1384.62,-209.44 1389.28,-204.21"/>
</a>
</g>
</g>
<!-- Node25 -->
<g id="Node000025" class="node">
<title>Node25</title>
<g id="a_Node000025"><a xlink:title=" ">
<polygon fill="#e0e0e0" stroke="#999999" points="1710.5,-200 1654.5,-200 1654.5,-177 1710.5,-177 1710.5,-200"/>
<text text-anchor="middle" x="1682.5" y="-184.8" font-family="Arial" font-size="14.00">stdio.h</text>
</a>
</g>
</g>
<!-- Node16&#45;&gt;Node25 -->
<g id="edge31_Node000016_Node000025" class="edge">
<title>Node16&#45;&gt;Node25</title>
<g id="a_edge31_Node000016_Node000025"><a xlink:title=" ">
<path fill="none" stroke="#63b8ff" d="M1484.48,-235.95C1525.63,-227.54 1584.32,-215.06 1644.25,-200.21"/>
<polygon fill="#63b8ff" stroke="#63b8ff" points="1645.41,-203.53 1654.27,-197.71 1643.72,-196.74 1645.41,-203.53"/>
</a>
</g>
</g>
<!-- Node19&#45;&gt;Node13 -->
<g id="edge19_Node000019_Node000013" class="edge">
<title>Node19&#45;&gt;Node13</title>
<g id="a_edge19_Node000019_Node000013"><a xlink:title=" ">
<path fill="none" stroke="#63b8ff" d="M1290.44,-117.91C1273.84,-109.15 1250.06,-96.6 1231.41,-86.76"/>
<polygon fill="#63b8ff" stroke="#63b8ff" points="1232.93,-83.6 1222.45,-82.03 1229.66,-89.79 1232.93,-83.6"/>
</a>
</g>
</g>
<!-- Node19&#45;&gt;Node14 -->
<g id="edge20_Node000019_Node000014" class="edge">
<title>Node19&#45;&gt;Node14</title>
<g id="a_edge20_Node000019_Node000014"><a xlink:title=" ">
<path fill="none" stroke="#63b8ff" d="M1308.75,-117.79C1305.61,-98.63 1298.98,-58.15 1294.91,-33.34"/>
<polygon fill="#63b8ff" stroke="#63b8ff" points="1298.32,-32.48 1293.25,-23.18 1291.41,-33.61 1298.32,-32.48"/>
</a>
</g>
</g>
<!-- Node20 -->
<g id="Node000020" class="node">
<title>Node20</title>
<g id="a_Node000020"><a xlink:title=" ">
<polygon fill="#e0e0e0" stroke="#999999" points="1403.5,-82 1319.5,-82 1319.5,-59 1403.5,-59 1403.5,-82"/>
<text text-anchor="middle" x="1361.5" y="-66.8" font-family="Arial" font-size="14.00">string_view</text>
</a>
</g>
</g>
<!-- Node19&#45;&gt;Node20 -->
<g id="edge21_Node000019_Node000020" class="edge">
<title>Node19&#45;&gt;Node20</title>
<g id="a_edge21_Node000019_Node000020"><a xlink:title=" ">
<path fill="none" stroke="#63b8ff" d="M1320.09,-117.78C1327.14,-109.9 1336.9,-98.99 1345.17,-89.75"/>
<polygon fill="#63b8ff" stroke="#63b8ff" points="1347.89,-91.96 1351.95,-82.17 1342.67,-87.29 1347.89,-91.96"/>
</a>
</g>
</g>
<!-- Node21&#45;&gt;Node13 -->
<g id="edge29_Node000021_Node000013" class="edge">
<title>Node21&#45;&gt;Node13</title>
<g id="a_edge29_Node000021_Node000013"><a xlink:title=" ">
<path fill="none" stroke="#63b8ff" d="M1330.15,-176.92C1307.63,-169.33 1279.19,-157.51 1257.5,-141 1239.35,-127.18 1223.78,-106.07 1213.89,-90.73"/>
<polygon fill="#63b8ff" stroke="#63b8ff" points="1216.74,-88.7 1208.49,-82.05 1210.8,-92.39 1216.74,-88.7"/>
</a>
</g>
</g>
<!-- Node21&#45;&gt;Node19 -->
<g id="edge23_Node000021_Node000019" class="edge">
<title>Node21&#45;&gt;Node19</title>
<g id="a_edge23_Node000021_Node000019"><a xlink:title=" ">
<path fill="none" stroke="#63b8ff" d="M1356.78,-176.78C1348.82,-168.82 1337.77,-157.77 1328.47,-148.47"/>
<polygon fill="#63b8ff" stroke="#63b8ff" points="1330.72,-145.77 1321.17,-141.17 1325.77,-150.72 1330.72,-145.77"/>
</a>
</g>
</g>
<!-- Node22 -->
<g id="Node000022" class="node">
<title>Node22</title>
<g id="a_Node000022"><a xlink:href="EspTypes__Base_8h.html" target="_top" xlink:title="ESP32 base type definitions for hardware abstraction.">
<polygon fill="white" stroke="#666666" points="1497,-141 1372,-141 1372,-118 1497,-118 1497,-141"/>
<text text-anchor="middle" x="1434.5" y="-125.8" font-family="Arial" font-size="14.00">EspTypes_Base.h</text>
</a>
</g>
</g>
<!-- Node21&#45;&gt;Node22 -->
<g id="edge24_Node000021_Node000022" class="edge">
<title>Node21&#45;&gt;Node22</title>
<g id="a_edge24_Node000021_Node000022"><a xlink:title=" ">
<path fill="none" stroke="#63b8ff" d="M1380.1,-176.78C1389.65,-168.66 1402.96,-157.33 1414.03,-147.92"/>
<polygon fill="#63b8ff" stroke="#63b8ff" points="1416.61,-150.32 1421.95,-141.17 1412.07,-144.99 1416.61,-150.32"/>
</a>
</g>
</g>
<!-- Node23 -->
<g id="Node000023" class="node">
<title>Node23</title>
<g id="a_Node000023"><a xlink:href="McuSelect_8h.html" target="_top" xlink:title="Centralized MCU platform selection and configuration header.">
<polygon fill="white" stroke="#666666" points="1677.5,-82 1535.5,-82 1535.5,-59 1677.5,-59 1677.5,-82"/>
<text text-anchor="middle" x="1606.5" y="-66.8" font-family="Arial" font-size="14.00">../../utils/McuSelect.h</text>
</a>
</g>
</g>
<!-- Node21&#45;&gt;Node23 -->
<g id="edge30_Node000021_Node000023" class="edge">
<title>Node21&#45;&gt;Node23</title>
<g id="a_edge30_Node000021_Node000023"><a xlink:title=" ">
<path fill="none" stroke="#63b8ff" d="M1409.17,-176.92C1437.45,-168.94 1475.23,-156.69 1506.5,-141 1535.8,-126.3 1566.29,-103.91 1585.78,-88.54"/>
<polygon fill="#63b8ff" stroke="#63b8ff" points="1588.05,-91.2 1593.67,-82.22 1583.68,-85.74 1588.05,-91.2"/>
</a>
</g>
</g>
<!-- Node22&#45;&gt;Node13 -->
<g id="edge26_Node000022_Node000013" class="edge">
<title>Node22&#45;&gt;Node13</title>
<g id="a_edge26_Node000022_Node000013"><a xlink:title=" ">
<path fill="none" stroke="#63b8ff" d="M1391.68,-117.98C1353.21,-108.53 1296.61,-94.62 1255.34,-84.48"/>
<polygon fill="#63b8ff" stroke="#63b8ff" points="1256.01,-81.04 1245.47,-82.06 1254.34,-87.84 1256.01,-81.04"/>
</a>
</g>
</g>
<!-- Node22&#45;&gt;Node14 -->
<g id="edge28_Node000022_Node000014" class="edge">
<title>Node22&#45;&gt;Node14</title>
<g id="a_edge28_Node000022_Node000014"><a xlink:title=" ">
<path fill="none" stroke="#63b8ff" d="M1433.94,-117.9C1432.6,-102.9 1428.03,-75.49 1412.5,-59 1390.78,-35.93 1356.35,-24.17 1329.76,-18.26"/>
<polygon fill="#63b8ff" stroke="#63b8ff" points="1330.13,-14.76 1319.63,-16.2 1328.73,-21.62 1330.13,-14.76"/>
</a>
</g>
</g>
<!-- Node22&#45;&gt;Node23 -->
<g id="edge25_Node000022_Node000023" class="edge">
<title>Node22&#45;&gt;Node23</title>
<g id="a_edge25_Node000022_Node000023"><a xlink:title=" ">
<path fill="none" stroke="#63b8ff" d="M1466.45,-117.91C1494.21,-108.71 1534.59,-95.33 1564.87,-85.29"/>
<polygon fill="#63b8ff" stroke="#63b8ff" points="1566.33,-88.5 1574.72,-82.03 1564.13,-81.85 1566.33,-88.5"/>
</a>
</g>
</g>
<!-- Node24 -->
<g id="Node000024" class="node">
<title>Node24</title>
<g id="a_Node000024"><a xlink:title=" ">
<polygon fill="#e0e0e0" stroke="#999999" points="1517,-82 1460,-82 1460,-59 1517,-59 1517,-82"/>
<text text-anchor="middle" x="1488.5" y="-66.8" font-family="Arial" font-size="14.00">atomic</text>
</a>
</g>
</g>
<!-- Node22&#45;&gt;Node24 -->
<g id="edge27_Node000022_Node000024" class="edge">
<title>Node22&#45;&gt;Node24</title>
<g id="a_edge27_Node000022_Node000024"><a xlink:title=" ">
<path fill="none" stroke="#63b8ff" d="M1444.66,-117.78C1452.2,-109.82 1462.66,-98.77 1471.47,-89.47"/>
<polygon fill="#63b8ff" stroke="#63b8ff" points="1474.05,-91.84 1478.39,-82.17 1468.97,-87.03 1474.05,-91.84"/>
</a>
</g>
</g>
<!-- Node26&#45;&gt;Node4 -->
<g id="edge35_Node000026_Node000004" class="edge">
<title>Node26&#45;&gt;Node4</title>
<g id="a_edge35_Node000026_Node000004"><a xlink:title=" ">
<path fill="none" stroke="#63b8ff" d="M295.19,-294.91C271.19,-285.61 236.14,-272.01 210.16,-261.94"/>
<polygon fill="#63b8ff" stroke="#63b8ff" points="211.28,-258.62 200.7,-258.27 208.75,-265.15 211.28,-258.62"/>
</a>
</g>
</g>
<!-- Node26&#45;&gt;Node5 -->
<g id="edge36_Node000026_Node000005" class="edge">
<title>Node26&#45;&gt;Node5</title>
<g id="a_edge36_Node000026_Node000005"><a xlink:title=" ">
<path fill="none" stroke="#63b8ff" d="M308.02,-294.78C296.83,-286.5 281.14,-274.89 268.28,-265.36"/>
<polygon fill="#63b8ff" stroke="#63b8ff" points="270.04,-262.31 259.92,-259.17 265.87,-267.94 270.04,-262.31"/>
</a>
</g>
</g>
<!-- Node27 -->
<g id="Node000027" class="node">
<title>Node27</title>
<g id="a_Node000027"><a xlink:title=" ">
<polygon fill="#e0e0e0" stroke="#999999" points="334.5,-259 290.5,-259 290.5,-236 334.5,-236 334.5,-259"/>
<text text-anchor="middle" x="312.5" y="-243.8" font-family="Arial" font-size="14.00">map</text>
</a>
</g>
</g>
<!-- Node26&#45;&gt;Node27 -->
<g id="edge33_Node000026_Node000027" class="edge">
<title>Node26&#45;&gt;Node27</title>
<g id="a_edge33_Node000026_Node000027"><a xlink:title=" ">
<path fill="none" stroke="#63b8ff" d="M320.62,-294.78C319.36,-287.61 317.67,-277.95 316.15,-269.31"/>
<polygon fill="#63b8ff" stroke="#63b8ff" points="319.55,-268.42 314.37,-259.17 312.65,-269.63 319.55,-268.42"/>
</a>
</g>
</g>
<!-- Node28 -->
<g id="Node000028" class="node">
<title>Node28</title>
<g id="a_Node000028"><a xlink:title=" ">
<polygon fill="#e0e0e0" stroke="#999999" points="420,-259 353,-259 353,-236 420,-236 420,-259"/>
<text text-anchor="middle" x="386.5" y="-243.8" font-family="Arial" font-size="14.00">memory</text>
</a>
</g>
</g>
<!-- Node26&#45;&gt;Node28 -->
<g id="edge34_Node000026_Node000028" class="edge">
<title>Node26&#45;&gt;Node28</title>
<g id="a_edge34_Node000026_Node000028"><a xlink:title=" ">
<path fill="none" stroke="#63b8ff" d="M334.54,-294.78C343.66,-286.66 356.37,-275.33 366.95,-265.92"/>
<polygon fill="#63b8ff" stroke="#63b8ff" points="369.38,-268.44 374.52,-259.17 364.72,-263.21 369.38,-268.44"/>
</a>
</g>
</g>
</g>
</svg>

<g id="navigator" transform="translate(0 0)" fill="#404254">
  <rect fill="#f2f5e9" fill-opacity="0.5" stroke="#606060" stroke-width=".5" x="0" y="0" width="60" height="60"/>
  <use id="zoomplus" xlink:href="#zoomPlus" x="17" y="9" onmousedown="handleZoom(evt,'in')"/>
  <use id="zoomminus" xlink:href="#zoomMin" x="42" y="9" onmousedown="handleZoom(evt,'out')"/>
  <use id="reset" xlink:href="#resetDef" x="30" y="36" onmousedown="handleReset()"/>
   <use id="arrowup" xlink:href="#arrowUp" x="0" y="0" onmousedown="handlePan(0,-1)"/>
  <use id="arrowright" xlink:href="#arrowRight" x="0" y="0" onmousedown="handlePan(1,0)"/>
  <use id="arrowdown" xlink:href="#arrowDown" x="0" y="0" onmousedown="handlePan(0,1)"/>
  <use id="arrowleft" xlink:href="#arrowLeft" x="0" y="0" onmousedown="handlePan(-1,0)"/>
</g>
<svg viewBox="0 0 15 15" width="100%" height="30px" preserveAspectRatio="xMaxYMin meet">
 <g id="arrow_out" transform="scale(0.3 0.3)">
  <a xlink:href="AsciiArtComprehensiveTest_8cpp__incl_org.svg" target="_base">
   <rect id="button" ry="5" rx="5" y="6" x="6" height="38" width="38"
        fill="#f2f5e9" fill-opacity="0.5" stroke="#606060" stroke-width="1.0"/>
   <path id="arrow"
     d="M 11.500037,31.436501 C 11.940474,20.09759 22.043105,11.32322 32.158766,21.979434 L 37.068811,17.246167 C 37.068811,17.246167 37.088388,32 37.088388,32 L 22.160133,31.978069 C 22.160133,31.978069 26.997745,27.140456 26.997745,27.140456 C 18.528582,18.264221 13.291696,25.230495 11.500037,31.436501 z"
     style="fill:#404040;"/>
  </a>
 </g>
</svg>

<style type='text/css'>
<![CDATA[
[data-mouse-over-selected='false'] { opacity: 0.7; }
[data-mouse-over-selected='true']  { opacity: 1.0; }
]]>
</style>
<script type="application/ecmascript"><![CDATA[
document.addEventListener('DOMContentLoaded', (event) => {
  highlightEdges();
  highlightAdjacentNodes();
});
]]></script>
</svg>
