<?xml version="1.0" encoding="UTF-8" standalone="no"?>
<!DOCTYPE svg PUBLIC "-//W3C//DTD SVG 1.1//EN"
 "http://www.w3.org/Graphics/SVG/1.1/DTD/svg11.dtd">
<!-- Generated by graphviz version 2.43.0 (0)
 -->
<!-- Title: inc/base/BaseCan.h Pages: 1 -->
<svg width="354pt" height="149pt"
 viewBox="0.00 0.00 354.00 149.00" xmlns="http://www.w3.org/2000/svg" xmlns:xlink="http://www.w3.org/1999/xlink">

<svg id="main" version="1.1" xmlns="http://www.w3.org/2000/svg" xmlns:xlink="http://www.w3.org/1999/xlink" xml:space="preserve" onload="init(evt)">
<style type="text/css"><![CDATA[
.node, .edge {opacity: 0.7;}
.node.selected, .edge.selected {opacity: 1;}
.edge:hover path { stroke: red; }
.edge:hover polygon { stroke: red; fill: red; }
]]></style>
<script type="application/ecmascript" xlink:href="svg.min.js"/>
<svg id="graph" class="graph">
<g id="graph0" class="graph" transform="scale(1 1) rotate(0) translate(4 145)">
<title>inc/base/BaseCan.h</title>
<!-- Node1 -->
<g id="Node000001" class="node">
<title>Node1</title>
<g id="a_Node000001"><a xlink:title="Abstract base class for CAN bus implementations in the HardFOC system.">
<polygon fill="#999999" stroke="#666666" points="229.5,-141 92.5,-141 92.5,-118 229.5,-118 229.5,-141"/>
<text text-anchor="middle" x="161" y="-125.8" font-family="Arial" font-size="14.00">inc/base/BaseCan.h</text>
</a>
</g>
</g>
<!-- Node2 -->
<g id="Node000002" class="node">
<title>Node2</title>
<g id="a_Node000002"><a xlink:href="HardwareTypes_8h.html" target="_top" xlink:title="Platform&#45;agnostic hardware type definitions for the HardFOC system.">
<polygon fill="white" stroke="#666666" points="168,-82 46,-82 46,-59 168,-59 168,-82"/>
<text text-anchor="middle" x="107" y="-66.8" font-family="Arial" font-size="14.00">HardwareTypes.h</text>
</a>
</g>
</g>
<!-- Node1&#45;&gt;Node2 -->
<g id="edge1_Node000001_Node000002" class="edge">
<title>Node1&#45;&gt;Node2</title>
<g id="a_edge1_Node000001_Node000002"><a xlink:title=" ">
<path fill="none" stroke="#63b8ff" d="M150.84,-117.78C143.3,-109.82 132.84,-98.77 124.03,-89.47"/>
<polygon fill="#63b8ff" stroke="#63b8ff" points="126.53,-87.03 117.11,-82.17 121.45,-91.84 126.53,-87.03"/>
</a>
</g>
</g>
<!-- Node3 -->
<g id="Node000003" class="node">
<title>Node3</title>
<g id="a_Node000003"><a xlink:title=" ">
<polygon fill="#e0e0e0" stroke="#999999" points="56,-23 0,-23 0,0 56,0 56,-23"/>
<text text-anchor="middle" x="28" y="-7.8" font-family="Arial" font-size="14.00">cstdint</text>
</a>
</g>
</g>
<!-- Node1&#45;&gt;Node3 -->
<g id="edge5_Node000001_Node000003" class="edge">
<title>Node1&#45;&gt;Node3</title>
<g id="a_edge5_Node000001_Node000003"><a xlink:title=" ">
<path fill="none" stroke="#63b8ff" d="M95.22,-117.91C73.55,-111.16 51.36,-100.11 37,-82 26.28,-68.48 24.67,-48.6 25.38,-33.57"/>
<polygon fill="#63b8ff" stroke="#63b8ff" points="28.9,-33.46 26.25,-23.2 21.92,-32.87 28.9,-33.46"/>
</a>
</g>
</g>
<!-- Node5 -->
<g id="Node000005" class="node">
<title>Node5</title>
<g id="a_Node000005"><a xlink:title=" ">
<polygon fill="#e0e0e0" stroke="#999999" points="243.5,-82 186.5,-82 186.5,-59 243.5,-59 243.5,-82"/>
<text text-anchor="middle" x="215" y="-66.8" font-family="Arial" font-size="14.00">atomic</text>
</a>
</g>
</g>
<!-- Node1&#45;&gt;Node5 -->
<g id="edge4_Node000001_Node000005" class="edge">
<title>Node1&#45;&gt;Node5</title>
<g id="a_edge4_Node000001_Node000005"><a xlink:title=" ">
<path fill="none" stroke="#63b8ff" d="M171.16,-117.78C178.7,-109.82 189.16,-98.77 197.97,-89.47"/>
<polygon fill="#63b8ff" stroke="#63b8ff" points="200.55,-91.84 204.89,-82.17 195.47,-87.03 200.55,-91.84"/>
</a>
</g>
</g>
<!-- Node6 -->
<g id="Node000006" class="node">
<title>Node6</title>
<g id="a_Node000006"><a xlink:title=" ">
<polygon fill="#e0e0e0" stroke="#999999" points="346,-82 262,-82 262,-59 346,-59 346,-82"/>
<text text-anchor="middle" x="304" y="-66.8" font-family="Arial" font-size="14.00">string_view</text>
</a>
</g>
</g>
<!-- Node1&#45;&gt;Node6 -->
<g id="edge6_Node000001_Node000006" class="edge">
<title>Node1&#45;&gt;Node6</title>
<g id="a_edge6_Node000001_Node000006"><a xlink:title=" ">
<path fill="none" stroke="#63b8ff" d="M187.56,-117.91C210.24,-108.87 243.05,-95.79 268.07,-85.82"/>
<polygon fill="#63b8ff" stroke="#63b8ff" points="269.59,-88.98 277.58,-82.03 266.99,-82.48 269.59,-88.98"/>
</a>
</g>
</g>
<!-- Node2&#45;&gt;Node3 -->
<g id="edge2_Node000002_Node000003" class="edge">
<title>Node2&#45;&gt;Node3</title>
<g id="a_edge2_Node000002_Node000003"><a xlink:title=" ">
<path fill="none" stroke="#63b8ff" d="M92.14,-58.78C80.55,-50.42 64.26,-38.66 50.99,-29.09"/>
<polygon fill="#63b8ff" stroke="#63b8ff" points="52.95,-26.19 42.79,-23.17 48.85,-31.86 52.95,-26.19"/>
</a>
</g>
</g>
<!-- Node4 -->
<g id="Node000004" class="node">
<title>Node4</title>
<g id="a_Node000004"><a xlink:title=" ">
<polygon fill="#e0e0e0" stroke="#999999" points="131,-23 83,-23 83,0 131,0 131,-23"/>
<text text-anchor="middle" x="107" y="-7.8" font-family="Arial" font-size="14.00">limits</text>
</a>
</g>
</g>
<!-- Node2&#45;&gt;Node4 -->
<g id="edge3_Node000002_Node000004" class="edge">
<title>Node2&#45;&gt;Node4</title>
<g id="a_edge3_Node000002_Node000004"><a xlink:title=" ">
<path fill="none" stroke="#63b8ff" d="M107,-58.78C107,-51.61 107,-41.95 107,-33.31"/>
<polygon fill="#63b8ff" stroke="#63b8ff" points="110.5,-33.17 107,-23.17 103.5,-33.17 110.5,-33.17"/>
</a>
</g>
</g>
</g>
</svg>
</svg>

<style type='text/css'>
<![CDATA[
[data-mouse-over-selected='false'] { opacity: 0.7; }
[data-mouse-over-selected='true']  { opacity: 1.0; }
]]>
</style>
<script type="application/ecmascript"><![CDATA[
document.addEventListener('DOMContentLoaded', (event) => {
  highlightEdges();
  highlightAdjacentNodes();
});
]]></script>
</svg>
