<?xml version="1.0" encoding="UTF-8" standalone="no"?>
<!DOCTYPE svg PUBLIC "-//W3C//DTD SVG 1.1//EN"
 "http://www.w3.org/Graphics/SVG/1.1/DTD/svg11.dtd">
<!-- Generated by graphviz version 2.43.0 (0)
 -->
<!-- Title: inc/base/BaseUsbSerialJtag.h Pages: 1 -->
<svg width="418pt" height="194pt"
 viewBox="0.00 0.00 417.50 194.00" xmlns="http://www.w3.org/2000/svg" xmlns:xlink="http://www.w3.org/1999/xlink">

<svg id="main" version="1.1" xmlns="http://www.w3.org/2000/svg" xmlns:xlink="http://www.w3.org/1999/xlink" xml:space="preserve" onload="init(evt)">
<style type="text/css"><![CDATA[
.node, .edge {opacity: 0.7;}
.node.selected, .edge.selected {opacity: 1;}
.edge:hover path { stroke: red; }
.edge:hover polygon { stroke: red; fill: red; }
]]></style>
<script type="application/ecmascript" xlink:href="svg.min.js"/>
<svg id="graph" class="graph">
<g id="graph0" class="graph" transform="scale(1 1) rotate(0) translate(4 190)">
<title>inc/base/BaseUsbSerialJtag.h</title>
<!-- Node1 -->
<g id="Node000001" class="node">
<title>Node1</title>
<g id="a_Node000001"><a xlink:title="Abstract base class for USB Serial/JTAG controller &quot;console&#45;style&quot; serial transports in the HardFOC s...">
<polygon fill="#999999" stroke="#666666" points="259.5,-186 62.5,-186 62.5,-163 259.5,-163 259.5,-186"/>
<text text-anchor="middle" x="161" y="-170.8" font-family="Arial" font-size="14.00">inc/base/BaseUsbSerialJtag.h</text>
</a>
</g>
</g>
<!-- Node2 -->
<g id="Node000002" class="node">
<title>Node2</title>
<g id="a_Node000002"><a xlink:href="UsbSerialJtagComprehensiveTest_8cpp.html" target="_top" xlink:title="Comprehensive test suite for the EspUsbSerialJtag wrapper (noexcept).">
<polygon fill="white" stroke="#666666" points="200,-53 0,-53 0,0 200,0 200,-53"/>
<text text-anchor="start" x="8" y="-37.8" font-family="Arial" font-size="14.00">examples/esp32/main</text>
<text text-anchor="start" x="8" y="-22.8" font-family="Arial" font-size="14.00">/UsbSerialJtagComprehensive</text>
<text text-anchor="middle" x="100" y="-7.8" font-family="Arial" font-size="14.00">Test.cpp</text>
</a>
</g>
</g>
<!-- Node1&#45;&gt;Node2 -->
<g id="edge1_Node000001_Node000002" class="edge">
<title>Node1&#45;&gt;Node2</title>
<g id="a_edge1_Node000001_Node000002"><a xlink:title=" ">
<path fill="none" stroke="#63b8ff" d="M140.69,-155.72C132.76,-147.71 124.31,-137.66 119,-127 107.41,-103.7 102.87,-74.08 101.1,-53.24"/>
<polygon fill="#63b8ff" stroke="#63b8ff" points="138.67,-158.63 148.32,-163 143.5,-153.56 138.67,-158.63"/>
</a>
</g>
</g>
<!-- Node3 -->
<g id="Node000003" class="node">
<title>Node3</title>
<g id="a_Node000003"><a xlink:href="EspUsbSerialJtag_8h.html" target="_top" xlink:title="ESP32&#45;S3 / &#45;C3 / &#45;C6 USB Serial/JTAG console wrapper.">
<polygon fill="white" stroke="#666666" points="318,-127 128,-127 128,-89 318,-89 318,-127"/>
<text text-anchor="start" x="136" y="-111.8" font-family="Arial" font-size="14.00">inc/mcu/esp32/EspUsbSerial</text>
<text text-anchor="middle" x="223" y="-96.8" font-family="Arial" font-size="14.00">Jtag.h</text>
</a>
</g>
</g>
<!-- Node1&#45;&gt;Node3 -->
<g id="edge2_Node000001_Node000003" class="edge">
<title>Node1&#45;&gt;Node3</title>
<g id="a_edge2_Node000001_Node000003"><a xlink:title=" ">
<path fill="none" stroke="#63b8ff" d="M178.17,-155.64C186.67,-146.79 196.92,-136.14 205.46,-127.24"/>
<polygon fill="#63b8ff" stroke="#63b8ff" points="175.64,-153.21 171.24,-162.85 180.69,-158.07 175.64,-153.21"/>
</a>
</g>
</g>
<!-- Node3&#45;&gt;Node2 -->
<g id="edge3_Node000003_Node000002" class="edge">
<title>Node3&#45;&gt;Node2</title>
<g id="a_edge3_Node000003_Node000002"><a xlink:title=" ">
<path fill="none" stroke="#63b8ff" d="M186.66,-83.51C171.81,-73.92 154.61,-62.79 139.46,-53"/>
<polygon fill="#63b8ff" stroke="#63b8ff" points="184.79,-86.47 195.09,-88.96 188.59,-80.59 184.79,-86.47"/>
</a>
</g>
</g>
<!-- Node4 -->
<g id="Node000004" class="node">
<title>Node4</title>
<g id="a_Node000004"><a xlink:href="EspUsbSerialJtag_8cpp.html" target="_top" xlink:title="ESP32&#45;family USB Serial/JTAG console wrapper implementation.">
<polygon fill="white" stroke="#666666" points="409.5,-45.5 218.5,-45.5 218.5,-7.5 409.5,-7.5 409.5,-45.5"/>
<text text-anchor="start" x="226.5" y="-30.3" font-family="Arial" font-size="14.00">src/mcu/esp32/EspUsbSerial</text>
<text text-anchor="middle" x="314" y="-15.3" font-family="Arial" font-size="14.00">Jtag.cpp</text>
</a>
</g>
</g>
<!-- Node3&#45;&gt;Node4 -->
<g id="edge4_Node000003_Node000004" class="edge">
<title>Node3&#45;&gt;Node4</title>
<g id="a_edge4_Node000003_Node000004"><a xlink:title=" ">
<path fill="none" stroke="#63b8ff" d="M251.29,-82.28C264.81,-70.47 280.71,-56.58 293.12,-45.74"/>
<polygon fill="#63b8ff" stroke="#63b8ff" points="248.88,-79.75 243.65,-88.96 253.48,-85.02 248.88,-79.75"/>
</a>
</g>
</g>
</g>
</svg>
</svg>

<style type='text/css'>
<![CDATA[
[data-mouse-over-selected='false'] { opacity: 0.7; }
[data-mouse-over-selected='true']  { opacity: 1.0; }
]]>
</style>
<script type="application/ecmascript"><![CDATA[
document.addEventListener('DOMContentLoaded', (event) => {
  highlightEdges();
  highlightAdjacentNodes();
});
]]></script>
</svg>
