<?xml version="1.0" encoding="UTF-8" standalone="no"?>
<!DOCTYPE svg PUBLIC "-//W3C//DTD SVG 1.1//EN"
 "http://www.w3.org/Graphics/SVG/1.1/DTD/svg11.dtd">
<!-- Generated by graphviz version 2.43.0 (0)
 -->
<!-- Title: inc/base/BaseBluetooth.h Pages: 1 -->
<svg width="464pt" height="164pt"
 viewBox="0.00 0.00 464.00 164.00" xmlns="http://www.w3.org/2000/svg" xmlns:xlink="http://www.w3.org/1999/xlink">
<g id="graph0" class="graph" transform="scale(1 1) rotate(0) translate(4 160)">
<title>inc/base/BaseBluetooth.h</title>
<!-- Node1 -->
<g id="Node000001" class="node">
<title>Node1</title>
<g id="a_Node000001"><a xlink:title="Unified Bluetooth base class for all Bluetooth implementations.">
<polygon fill="#999999" stroke="#666666" points="260.5,-156 90.5,-156 90.5,-133 260.5,-133 260.5,-156"/>
<text text-anchor="middle" x="175.5" y="-140.8" font-family="Arial" font-size="14.00">inc/base/BaseBluetooth.h</text>
</a>
</g>
</g>
<!-- Node2 -->
<g id="Node000002" class="node">
<title>Node2</title>
<g id="a_Node000002"><a xlink:href="BluetoothComprehensiveTest_8cpp.html" target="_top" xlink:title="Comprehensive Bluetooth/NimBLE testing suite for ESP32&#45;C6 DevKit&#45;M&#45;1 (noexcept)">
<polygon fill="white" stroke="#666666" points="223,-38 0,-38 0,0 223,0 223,-38"/>
<text text-anchor="start" x="8" y="-22.8" font-family="Arial" font-size="14.00">examples/esp32/main</text>
<text text-anchor="middle" x="111.5" y="-7.8" font-family="Arial" font-size="14.00">/BluetoothComprehensiveTest.cpp</text>
</a>
</g>
</g>
<!-- Node1&#45;&gt;Node2 -->
<g id="edge1_Node000001_Node000002" class="edge">
<title>Node1&#45;&gt;Node2</title>
<g id="a_edge1_Node000001_Node000002"><a xlink:title=" ">
<path fill="none" stroke="#63b8ff" d="M154.18,-125.98C145.68,-117.96 136.5,-107.84 130.5,-97 120.23,-78.45 115.44,-54.35 113.26,-38.1"/>
<polygon fill="#63b8ff" stroke="#63b8ff" points="151.91,-128.65 161.69,-132.71 156.58,-123.43 151.91,-128.65"/>
</a>
</g>
</g>
<!-- Node3 -->
<g id="Node000003" class="node">
<title>Node3</title>
<g id="a_Node000003"><a xlink:href="EspBluetooth_8h.html" target="_top" xlink:title="ESP32 Bluetooth implementation using NimBLE for BLE&#45;only support (ESP32C6)">
<polygon fill="white" stroke="#666666" points="339.5,-97 139.5,-97 139.5,-74 339.5,-74 339.5,-97"/>
<text text-anchor="middle" x="239.5" y="-81.8" font-family="Arial" font-size="14.00">inc/mcu/esp32/EspBluetooth.h</text>
</a>
</g>
</g>
<!-- Node1&#45;&gt;Node3 -->
<g id="edge2_Node000001_Node000003" class="edge">
<title>Node1&#45;&gt;Node3</title>
<g id="a_edge2_Node000001_Node000003"><a xlink:title=" ">
<path fill="none" stroke="#63b8ff" d="M195.12,-126.03C205.7,-116.61 218.41,-105.28 227.52,-97.17"/>
<polygon fill="#63b8ff" stroke="#63b8ff" points="192.68,-123.51 187.54,-132.78 197.33,-128.74 192.68,-123.51"/>
</a>
</g>
</g>
<!-- Node3&#45;&gt;Node2 -->
<g id="edge3_Node000003_Node000002" class="edge">
<title>Node3&#45;&gt;Node2</title>
<g id="a_edge3_Node000003_Node000002"><a xlink:title=" ">
<path fill="none" stroke="#63b8ff" d="M209.48,-69.37C190.89,-60.01 166.93,-47.93 147.36,-38.07"/>
<polygon fill="#63b8ff" stroke="#63b8ff" points="208.14,-72.62 218.65,-73.99 211.29,-66.37 208.14,-72.62"/>
</a>
</g>
</g>
<!-- Node4 -->
<g id="Node000004" class="node">
<title>Node4</title>
<g id="a_Node000004"><a xlink:href="EspBluetooth_8cpp.html" target="_top" xlink:title="ESP32 Bluetooth implementation using NimBLE for BLE&#45;only support (ESP32C6)">
<polygon fill="white" stroke="#666666" points="456,-30.5 241,-30.5 241,-7.5 456,-7.5 456,-30.5"/>
<text text-anchor="middle" x="348.5" y="-15.3" font-family="Arial" font-size="14.00">src/mcu/esp32/EspBluetooth.cpp</text>
</a>
</g>
</g>
<!-- Node3&#45;&gt;Node4 -->
<g id="edge4_Node000003_Node000004" class="edge">
<title>Node3&#45;&gt;Node4</title>
<g id="a_edge4_Node000003_Node000004"><a xlink:title=" ">
<path fill="none" stroke="#63b8ff" d="M266.14,-68.73C286.13,-56.91 312.95,-41.04 330.47,-30.67"/>
<polygon fill="#63b8ff" stroke="#63b8ff" points="264.32,-65.74 257.5,-73.85 267.89,-71.77 264.32,-65.74"/>
</a>
</g>
</g>
</g>
</svg>
