<?xml version="1.0" encoding="UTF-8" standalone="no"?>
<!DOCTYPE svg PUBLIC "-//W3C//DTD SVG 1.1//EN"
 "http://www.w3.org/Graphics/SVG/1.1/DTD/svg11.dtd">
<!-- Generated by graphviz version 2.43.0 (0)
 -->
<!-- Title: inc/base/BaseAdc.h Pages: 1 -->
<svg width="2011pt" height="327pt"
 viewBox="0.00 0.00 2010.50 327.00" xmlns="http://www.w3.org/2000/svg" xmlns:xlink="http://www.w3.org/1999/xlink">
<g id="graph0" class="graph" transform="scale(1 1) rotate(0) translate(4 323)">
<title>inc/base/BaseAdc.h</title>
<!-- Node1 -->
<g id="Node000001" class="node">
<title>Node1</title>
<g id="a_Node000001"><a xlink:title="Abstract base class for ADC implementations in the HardFOC system.">
<polygon fill="#999999" stroke="#666666" points="1052,-319 916,-319 916,-296 1052,-296 1052,-319"/>
<text text-anchor="middle" x="984" y="-303.8" font-family="Arial" font-size="14.00">inc/base/BaseAdc.h</text>
</a>
</g>
</g>
<!-- Node2 -->
<g id="Node000002" class="node">
<title>Node2</title>
<g id="a_Node000002"><a xlink:href="AdcComprehensiveTest_8cpp.html" target="_top" xlink:title="Comprehensive ADC testing suite for ESP32&#45;C6 DevKit&#45;M&#45;1 (noexcept)">
<polygon fill="white" stroke="#666666" points="921.5,-186 732.5,-186 732.5,-148 921.5,-148 921.5,-186"/>
<text text-anchor="start" x="740.5" y="-170.8" font-family="Arial" font-size="14.00">examples/esp32/main</text>
<text text-anchor="middle" x="827" y="-155.8" font-family="Arial" font-size="14.00">/AdcComprehensiveTest.cpp</text>
</a>
</g>
</g>
<!-- Node1&#45;&gt;Node2 -->
<g id="edge1_Node000001_Node000002" class="edge">
<title>Node1&#45;&gt;Node2</title>
<g id="a_edge1_Node000001_Node000002"><a xlink:title=" ">
<path fill="none" stroke="#63b8ff" d="M954.52,-290.87C940.13,-282.59 922.95,-271.72 909,-260 881.97,-237.29 855.72,-205.63 840.47,-186"/>
<polygon fill="#63b8ff" stroke="#63b8ff" points="953.08,-294.07 963.52,-295.92 956.51,-287.97 953.08,-294.07"/>
</a>
</g>
</g>
<!-- Node3 -->
<g id="Node000003" class="node">
<title>Node3</title>
<g id="a_Node000003"><a xlink:href="EspTypes__ADC_8h.html" target="_top" xlink:title="ESP32 ADC type definitions for hardware abstraction.">
<polygon fill="white" stroke="#666666" points="1050,-260 918,-260 918,-222 1050,-222 1050,-260"/>
<text text-anchor="start" x="926" y="-244.8" font-family="Arial" font-size="14.00">inc/mcu/esp32/utils</text>
<text text-anchor="middle" x="984" y="-229.8" font-family="Arial" font-size="14.00">/EspTypes_ADC.h</text>
</a>
</g>
</g>
<!-- Node1&#45;&gt;Node3 -->
<g id="edge2_Node000001_Node000003" class="edge">
<title>Node1&#45;&gt;Node3</title>
<g id="a_edge2_Node000001_Node000003"><a xlink:title=" ">
<path fill="none" stroke="#63b8ff" d="M984,-285.63C984,-277.45 984,-268.15 984,-260.24"/>
<polygon fill="#63b8ff" stroke="#63b8ff" points="980.5,-285.85 984,-295.85 987.5,-285.85 980.5,-285.85"/>
</a>
</g>
</g>
<!-- Node20 -->
<g id="Node000020" class="node">
<title>Node20</title>
<g id="a_Node000020"><a xlink:href="StmAdc_8h.html" target="_top" xlink:title="STM32 ADC stub implementation — placeholder for future STM32 HAL integration.">
<polygon fill="white" stroke="#666666" points="1251,-252.5 1083,-252.5 1083,-229.5 1251,-229.5 1251,-252.5"/>
<text text-anchor="middle" x="1167" y="-237.3" font-family="Arial" font-size="14.00">inc/mcu/stm32/StmAdc.h</text>
</a>
</g>
</g>
<!-- Node1&#45;&gt;Node20 -->
<g id="edge20_Node000001_Node000020" class="edge">
<title>Node1&#45;&gt;Node20</title>
<g id="a_edge20_Node000001_Node000020"><a xlink:title=" ">
<path fill="none" stroke="#63b8ff" d="M1023.47,-292.59C1057.61,-280.56 1106.24,-263.42 1137.2,-252.5"/>
<polygon fill="#63b8ff" stroke="#63b8ff" points="1022.08,-289.37 1013.81,-295.99 1024.4,-295.97 1022.08,-289.37"/>
</a>
</g>
</g>
<!-- Node3&#45;&gt;Node2 -->
<g id="edge3_Node000003_Node000002" class="edge">
<title>Node3&#45;&gt;Node2</title>
<g id="a_edge3_Node000003_Node000002"><a xlink:title=" ">
<path fill="none" stroke="#63b8ff" d="M935.15,-217.6C913.01,-207.45 887.19,-195.6 866.33,-186.04"/>
<polygon fill="#63b8ff" stroke="#63b8ff" points="933.83,-220.84 944.38,-221.83 936.75,-214.48 933.83,-220.84"/>
</a>
</g>
</g>
<!-- Node4 -->
<g id="Node000004" class="node">
<title>Node4</title>
<g id="a_Node000004"><a xlink:href="EspTypes_8h.html" target="_top" xlink:title="Consolidated MCU&#45;specific type definitions for hardware abstraction (hf_* types).">
<polygon fill="white" stroke="#666666" points="1072,-186 940,-186 940,-148 1072,-148 1072,-186"/>
<text text-anchor="start" x="948" y="-170.8" font-family="Arial" font-size="14.00">inc/mcu/esp32/utils</text>
<text text-anchor="middle" x="1006" y="-155.8" font-family="Arial" font-size="14.00">/EspTypes.h</text>
</a>
</g>
</g>
<!-- Node3&#45;&gt;Node4 -->
<g id="edge4_Node000003_Node000004" class="edge">
<title>Node3&#45;&gt;Node4</title>
<g id="a_edge4_Node000003_Node000004"><a xlink:title=" ">
<path fill="none" stroke="#63b8ff" d="M992.51,-212.14C995.15,-203.51 997.99,-194.23 1000.37,-186.41"/>
<polygon fill="#63b8ff" stroke="#63b8ff" points="989.13,-211.25 989.55,-221.83 995.82,-213.29 989.13,-211.25"/>
</a>
</g>
</g>
<!-- Node5 -->
<g id="Node000005" class="node">
<title>Node5</title>
<g id="a_Node000005"><a xlink:href="EspI2c_8h.html" target="_top" xlink:title="Advanced ESP32&#45;integrated I2C controller for ESP&#45;IDF v5.5+ with proper bus&#45;device architecture.">
<polygon fill="white" stroke="#666666" points="370.5,-104.5 209.5,-104.5 209.5,-81.5 370.5,-81.5 370.5,-104.5"/>
<text text-anchor="middle" x="290" y="-89.3" font-family="Arial" font-size="14.00">inc/mcu/esp32/EspI2c.h</text>
</a>
</g>
</g>
<!-- Node4&#45;&gt;Node5 -->
<g id="edge5_Node000004_Node000005" class="edge">
<title>Node4&#45;&gt;Node5</title>
<g id="a_edge5_Node000004_Node000005"><a xlink:title=" ">
<path fill="none" stroke="#63b8ff" d="M929.91,-148.18C807.79,-129.95 513.92,-108.97 370.76,-99.31"/>
<polygon fill="#63b8ff" stroke="#63b8ff" points="929.38,-151.64 939.8,-149.71 930.45,-144.72 929.38,-151.64"/>
</a>
</g>
</g>
<!-- Node8 -->
<g id="Node000008" class="node">
<title>Node8</title>
<g id="a_Node000008"><a xlink:href="EspPeriodicTimer_8h.html" target="_top" xlink:title="MCU&#45;integrated periodic timer implementation.">
<polygon fill="white" stroke="#666666" points="796,-112 616,-112 616,-74 796,-74 796,-112"/>
<text text-anchor="start" x="624" y="-96.8" font-family="Arial" font-size="14.00">inc/mcu/esp32/EspPeriodic</text>
<text text-anchor="middle" x="706" y="-81.8" font-family="Arial" font-size="14.00">Timer.h</text>
</a>
</g>
</g>
<!-- Node4&#45;&gt;Node8 -->
<g id="edge8_Node000004_Node000008" class="edge">
<title>Node4&#45;&gt;Node8</title>
<g id="a_edge8_Node000004_Node000008"><a xlink:title=" ">
<path fill="none" stroke="#63b8ff" d="M929.95,-147.75C884.3,-136.79 826.47,-122.91 781.01,-112"/>
<polygon fill="#63b8ff" stroke="#63b8ff" points="929.25,-151.18 939.79,-150.11 930.89,-144.37 929.25,-151.18"/>
</a>
</g>
</g>
<!-- Node11 -->
<g id="Node000011" class="node">
<title>Node11</title>
<g id="a_Node000011"><a xlink:href="EspPio_8h.html" target="_top" xlink:title="ESP32C6 RMT&#45;based Programmable IO Channel implementation with ESP&#45;IDF v5.5+ features.">
<polygon fill="white" stroke="#666666" points="1087,-104.5 925,-104.5 925,-81.5 1087,-81.5 1087,-104.5"/>
<text text-anchor="middle" x="1006" y="-89.3" font-family="Arial" font-size="14.00">inc/mcu/esp32/EspPio.h</text>
</a>
</g>
</g>
<!-- Node4&#45;&gt;Node11 -->
<g id="edge11_Node000004_Node000011" class="edge">
<title>Node4&#45;&gt;Node11</title>
<g id="a_edge11_Node000004_Node000011"><a xlink:title=" ">
<path fill="none" stroke="#63b8ff" d="M1006,-137.62C1006,-125.99 1006,-113.26 1006,-104.57"/>
<polygon fill="#63b8ff" stroke="#63b8ff" points="1002.5,-137.83 1006,-147.83 1009.5,-137.83 1002.5,-137.83"/>
</a>
</g>
</g>
<!-- Node14 -->
<g id="Node000014" class="node">
<title>Node14</title>
<g id="a_Node000014"><a xlink:href="EspSpi_8h.html" target="_top" xlink:title="Advanced MCU&#45;integrated SPI controller implementation with ESP32C6/ESP&#45;IDF v5.5+ features.">
<polygon fill="white" stroke="#666666" points="1386,-104.5 1224,-104.5 1224,-81.5 1386,-81.5 1386,-104.5"/>
<text text-anchor="middle" x="1305" y="-89.3" font-family="Arial" font-size="14.00">inc/mcu/esp32/EspSpi.h</text>
</a>
</g>
</g>
<!-- Node4&#45;&gt;Node14 -->
<g id="edge14_Node000004_Node000014" class="edge">
<title>Node4&#45;&gt;Node14</title>
<g id="a_edge14_Node000004_Node000014"><a xlink:title=" ">
<path fill="none" stroke="#63b8ff" d="M1082.34,-147.62C1138.95,-133.99 1214.13,-115.88 1261.03,-104.59"/>
<polygon fill="#63b8ff" stroke="#63b8ff" points="1081.26,-144.28 1072.36,-150.02 1082.9,-151.08 1081.26,-144.28"/>
</a>
</g>
</g>
<!-- Node17 -->
<g id="Node000017" class="node">
<title>Node17</title>
<g id="a_Node000017"><a xlink:href="EspUart_8h.html" target="_top" xlink:title="ESP32 UART implementation for the HardFOC system.">
<polygon fill="white" stroke="#666666" points="1790,-104.5 1622,-104.5 1622,-81.5 1790,-81.5 1790,-104.5"/>
<text text-anchor="middle" x="1706" y="-89.3" font-family="Arial" font-size="14.00">inc/mcu/esp32/EspUart.h</text>
</a>
</g>
</g>
<!-- Node4&#45;&gt;Node17 -->
<g id="edge17_Node000004_Node000017" class="edge">
<title>Node4&#45;&gt;Node17</title>
<g id="a_edge17_Node000004_Node000017"><a xlink:title=" ">
<path fill="none" stroke="#63b8ff" d="M1082.33,-147.96C1199.85,-130.22 1480.27,-109.56 1621.72,-99.71"/>
<polygon fill="#63b8ff" stroke="#63b8ff" points="1081.48,-144.55 1072.14,-149.56 1082.57,-151.47 1081.48,-144.55"/>
</a>
</g>
</g>
<!-- Node6 -->
<g id="Node000006" class="node">
<title>Node6</title>
<g id="a_Node000006"><a xlink:href="I2cComprehensiveTest_8cpp.html" target="_top" xlink:title="Comprehensive I2C testing suite for ESP32&#45;C6 DevKit&#45;M&#45;1 (noexcept)">
<polygon fill="white" stroke="#666666" points="184,-38 0,-38 0,0 184,0 184,-38"/>
<text text-anchor="start" x="8" y="-22.8" font-family="Arial" font-size="14.00">examples/esp32/main</text>
<text text-anchor="middle" x="92" y="-7.8" font-family="Arial" font-size="14.00">/I2cComprehensiveTest.cpp</text>
</a>
</g>
</g>
<!-- Node5&#45;&gt;Node6 -->
<g id="edge6_Node000005_Node000006" class="edge">
<title>Node5&#45;&gt;Node6</title>
<g id="a_edge6_Node000005_Node000006"><a xlink:title=" ">
<path fill="none" stroke="#63b8ff" d="M251.1,-77.85C219.79,-66.47 175.57,-50.39 141.7,-38.07"/>
<polygon fill="#63b8ff" stroke="#63b8ff" points="250.19,-81.25 260.78,-81.38 252.58,-74.67 250.19,-81.25"/>
</a>
</g>
</g>
<!-- Node7 -->
<g id="Node000007" class="node">
<title>Node7</title>
<g id="a_Node000007"><a xlink:href="EspI2c_8cpp.html" target="_top" xlink:title="Implementation of ESP32&#45;integrated I2C controller with proper bus&#45;device architecture.">
<polygon fill="white" stroke="#666666" points="378,-30.5 202,-30.5 202,-7.5 378,-7.5 378,-30.5"/>
<text text-anchor="middle" x="290" y="-15.3" font-family="Arial" font-size="14.00">src/mcu/esp32/EspI2c.cpp</text>
</a>
</g>
</g>
<!-- Node5&#45;&gt;Node7 -->
<g id="edge7_Node000005_Node000007" class="edge">
<title>Node5&#45;&gt;Node7</title>
<g id="a_edge7_Node000005_Node000007"><a xlink:title=" ">
<path fill="none" stroke="#63b8ff" d="M290,-71.23C290,-57.97 290,-41.32 290,-30.67"/>
<polygon fill="#63b8ff" stroke="#63b8ff" points="286.5,-71.38 290,-81.38 293.5,-71.38 286.5,-71.38"/>
</a>
</g>
</g>
<!-- Node9 -->
<g id="Node000009" class="node">
<title>Node9</title>
<g id="a_Node000009"><a xlink:href="TimerComprehensiveTest_8cpp.html" target="_top" xlink:title="ESP32&#45;C6 Periodic Timer Comprehensive Test Suite v2.0.">
<polygon fill="white" stroke="#666666" points="597.5,-38 396.5,-38 396.5,0 597.5,0 597.5,-38"/>
<text text-anchor="start" x="404.5" y="-22.8" font-family="Arial" font-size="14.00">examples/esp32/main</text>
<text text-anchor="middle" x="497" y="-7.8" font-family="Arial" font-size="14.00">/TimerComprehensiveTest.cpp</text>
</a>
</g>
</g>
<!-- Node8&#45;&gt;Node9 -->
<g id="edge9_Node000008_Node000009" class="edge">
<title>Node8&#45;&gt;Node9</title>
<g id="a_edge9_Node000008_Node000009"><a xlink:title=" ">
<path fill="none" stroke="#63b8ff" d="M643.98,-70.64C613.91,-60.28 578.19,-47.97 549.49,-38.08"/>
<polygon fill="#63b8ff" stroke="#63b8ff" points="642.94,-73.98 653.53,-73.92 645.22,-67.36 642.94,-73.98"/>
</a>
</g>
</g>
<!-- Node10 -->
<g id="Node000010" class="node">
<title>Node10</title>
<g id="a_Node000010"><a xlink:href="EspPeriodicTimer_8cpp.html" target="_top" xlink:title="Implementation of MCU&#45;integrated periodic timer.">
<polygon fill="white" stroke="#666666" points="796.5,-38 615.5,-38 615.5,0 796.5,0 796.5,-38"/>
<text text-anchor="start" x="623.5" y="-22.8" font-family="Arial" font-size="14.00">src/mcu/esp32/EspPeriodic</text>
<text text-anchor="middle" x="706" y="-7.8" font-family="Arial" font-size="14.00">Timer.cpp</text>
</a>
</g>
</g>
<!-- Node8&#45;&gt;Node10 -->
<g id="edge10_Node000008_Node000010" class="edge">
<title>Node8&#45;&gt;Node10</title>
<g id="a_edge10_Node000008_Node000010"><a xlink:title=" ">
<path fill="none" stroke="#63b8ff" d="M706,-63.57C706,-55.11 706,-46.06 706,-38.41"/>
<polygon fill="#63b8ff" stroke="#63b8ff" points="702.5,-63.83 706,-73.83 709.5,-63.83 702.5,-63.83"/>
</a>
</g>
</g>
<!-- Node12 -->
<g id="Node000012" class="node">
<title>Node12</title>
<g id="a_Node000012"><a xlink:href="PioComprehensiveTest_8cpp.html" target="_top" xlink:title="Comprehensive PIO testing suite for ESP32&#45;C6 DevKit&#45;M&#45;1 with RMT peripheral (noexcept)">
<polygon fill="white" stroke="#666666" points="999.5,-38 814.5,-38 814.5,0 999.5,0 999.5,-38"/>
<text text-anchor="start" x="822.5" y="-22.8" font-family="Arial" font-size="14.00">examples/esp32/main</text>
<text text-anchor="middle" x="907" y="-7.8" font-family="Arial" font-size="14.00">/PioComprehensiveTest.cpp</text>
</a>
</g>
</g>
<!-- Node11&#45;&gt;Node12 -->
<g id="edge12_Node000011_Node000012" class="edge">
<title>Node11&#45;&gt;Node12</title>
<g id="a_edge12_Node000011_Node000012"><a xlink:title=" ">
<path fill="none" stroke="#63b8ff" d="M983.02,-75.29C967.76,-64.19 947.72,-49.61 932.04,-38.21"/>
<polygon fill="#63b8ff" stroke="#63b8ff" points="981.25,-78.32 991.39,-81.38 985.36,-72.66 981.25,-78.32"/>
</a>
</g>
</g>
<!-- Node13 -->
<g id="Node000013" class="node">
<title>Node13</title>
<g id="a_Node000013"><a xlink:href="EspPio_8cpp.html" target="_top" xlink:title="ESP32C6 RMT&#45;based Programmable IO Channel implementation.">
<polygon fill="white" stroke="#666666" points="1194.5,-30.5 1017.5,-30.5 1017.5,-7.5 1194.5,-7.5 1194.5,-30.5"/>
<text text-anchor="middle" x="1106" y="-15.3" font-family="Arial" font-size="14.00">src/mcu/esp32/EspPio.cpp</text>
</a>
</g>
</g>
<!-- Node11&#45;&gt;Node13 -->
<g id="edge13_Node000011_Node000013" class="edge">
<title>Node11&#45;&gt;Node13</title>
<g id="a_edge13_Node000011_Node000013"><a xlink:title=" ">
<path fill="none" stroke="#63b8ff" d="M1028.95,-75.48C1048.08,-61.7 1074.76,-42.49 1091.18,-30.67"/>
<polygon fill="#63b8ff" stroke="#63b8ff" points="1026.83,-72.69 1020.76,-81.38 1030.92,-78.37 1026.83,-72.69"/>
</a>
</g>
</g>
<!-- Node15 -->
<g id="Node000015" class="node">
<title>Node15</title>
<g id="a_Node000015"><a xlink:href="SpiComprehensiveTest_8cpp.html" target="_top" xlink:title="Comprehensive SPI testing suite for ESP32&#45;C6 DevKit&#45;M&#45;1 (noexcept)">
<polygon fill="white" stroke="#666666" points="1397.5,-38 1212.5,-38 1212.5,0 1397.5,0 1397.5,-38"/>
<text text-anchor="start" x="1220.5" y="-22.8" font-family="Arial" font-size="14.00">examples/esp32/main</text>
<text text-anchor="middle" x="1305" y="-7.8" font-family="Arial" font-size="14.00">/SpiComprehensiveTest.cpp</text>
</a>
</g>
</g>
<!-- Node14&#45;&gt;Node15 -->
<g id="edge15_Node000014_Node000015" class="edge">
<title>Node14&#45;&gt;Node15</title>
<g id="a_edge15_Node000014_Node000015"><a xlink:title=" ">
<path fill="none" stroke="#63b8ff" d="M1305,-71.1C1305,-60.69 1305,-48.23 1305,-38.21"/>
<polygon fill="#63b8ff" stroke="#63b8ff" points="1301.5,-71.38 1305,-81.38 1308.5,-71.38 1301.5,-71.38"/>
</a>
</g>
</g>
<!-- Node16 -->
<g id="Node000016" class="node">
<title>Node16</title>
<g id="a_Node000016"><a xlink:href="EspSpi_8cpp.html" target="_top" xlink:title="Implementation of MCU&#45;integrated SPI controller for ESP32C6 with ESP&#45;IDF v5.5+ features.">
<polygon fill="white" stroke="#666666" points="1592.5,-30.5 1415.5,-30.5 1415.5,-7.5 1592.5,-7.5 1592.5,-30.5"/>
<text text-anchor="middle" x="1504" y="-15.3" font-family="Arial" font-size="14.00">src/mcu/esp32/EspSpi.cpp</text>
</a>
</g>
</g>
<!-- Node14&#45;&gt;Node16 -->
<g id="edge16_Node000014_Node000016" class="edge">
<title>Node14&#45;&gt;Node16</title>
<g id="a_edge16_Node000014_Node000016"><a xlink:title=" ">
<path fill="none" stroke="#63b8ff" d="M1344.17,-77.83C1382.59,-63.93 1440.29,-43.05 1474.84,-30.55"/>
<polygon fill="#63b8ff" stroke="#63b8ff" points="1342.58,-74.68 1334.36,-81.38 1344.96,-81.27 1342.58,-74.68"/>
</a>
</g>
</g>
<!-- Node18 -->
<g id="Node000018" class="node">
<title>Node18</title>
<g id="a_Node000018"><a xlink:href="UartComprehensiveTest_8cpp.html" target="_top" xlink:title="Comprehensive UART testing suite for ESP32&#45;C6 DevKit&#45;M&#45;1 (noexcept)">
<polygon fill="white" stroke="#666666" points="1801.5,-38 1610.5,-38 1610.5,0 1801.5,0 1801.5,-38"/>
<text text-anchor="start" x="1618.5" y="-22.8" font-family="Arial" font-size="14.00">examples/esp32/main</text>
<text text-anchor="middle" x="1706" y="-7.8" font-family="Arial" font-size="14.00">/UartComprehensiveTest.cpp</text>
</a>
</g>
</g>
<!-- Node17&#45;&gt;Node18 -->
<g id="edge18_Node000017_Node000018" class="edge">
<title>Node17&#45;&gt;Node18</title>
<g id="a_edge18_Node000017_Node000018"><a xlink:title=" ">
<path fill="none" stroke="#63b8ff" d="M1706,-71.1C1706,-60.69 1706,-48.23 1706,-38.21"/>
<polygon fill="#63b8ff" stroke="#63b8ff" points="1702.5,-71.38 1706,-81.38 1709.5,-71.38 1702.5,-71.38"/>
</a>
</g>
</g>
<!-- Node19 -->
<g id="Node000019" class="node">
<title>Node19</title>
<g id="a_Node000019"><a xlink:href="EspUart_8cpp.html" target="_top" xlink:title="Implementation of ESP32 UART controller for the HardFOC system.">
<polygon fill="white" stroke="#666666" points="2002.5,-30.5 1819.5,-30.5 1819.5,-7.5 2002.5,-7.5 2002.5,-30.5"/>
<text text-anchor="middle" x="1911" y="-15.3" font-family="Arial" font-size="14.00">src/mcu/esp32/EspUart.cpp</text>
</a>
</g>
</g>
<!-- Node17&#45;&gt;Node19 -->
<g id="edge19_Node000017_Node000019" class="edge">
<title>Node17&#45;&gt;Node19</title>
<g id="a_edge19_Node000017_Node000019"><a xlink:title=" ">
<path fill="none" stroke="#63b8ff" d="M1745.85,-78C1785.43,-64.1 1845.22,-43.1 1880.96,-30.55"/>
<polygon fill="#63b8ff" stroke="#63b8ff" points="1744.52,-74.76 1736.25,-81.38 1746.84,-81.36 1744.52,-74.76"/>
</a>
</g>
</g>
<!-- Node21 -->
<g id="Node000021" class="node">
<title>Node21</title>
<g id="a_Node000021"><a xlink:href="StmAdc_8cpp.html" target="_top" xlink:title="STM32 ADC stub implementation.">
<polygon fill="white" stroke="#666666" points="1273.5,-178.5 1090.5,-178.5 1090.5,-155.5 1273.5,-155.5 1273.5,-178.5"/>
<text text-anchor="middle" x="1182" y="-163.3" font-family="Arial" font-size="14.00">src/mcu/stm32/StmAdc.cpp</text>
</a>
</g>
</g>
<!-- Node20&#45;&gt;Node21 -->
<g id="edge21_Node000020_Node000021" class="edge">
<title>Node20&#45;&gt;Node21</title>
<g id="a_edge21_Node000020_Node000021"><a xlink:title=" ">
<path fill="none" stroke="#63b8ff" d="M1171.33,-219.23C1174.09,-205.97 1177.56,-189.32 1179.78,-178.67"/>
<polygon fill="#63b8ff" stroke="#63b8ff" points="1167.83,-218.87 1169.21,-229.38 1174.68,-220.3 1167.83,-218.87"/>
</a>
</g>
</g>
</g>
</svg>
