<?xml version="1.0" encoding="UTF-8" standalone="no"?>
<!DOCTYPE svg PUBLIC "-//W3C//DTD SVG 1.1//EN"
 "http://www.w3.org/Graphics/SVG/1.1/DTD/svg11.dtd">
<!-- Generated by graphviz version 2.43.0 (0)
 -->
<!-- Title: inc/base/BaseUart.h Pages: 1 -->
<!--zoomable 342 -->

<svg id="main" version="1.1" xmlns="http://www.w3.org/2000/svg" xmlns:xlink="http://www.w3.org/1999/xlink" xml:space="preserve" onload="init(evt)">
<style type="text/css"><![CDATA[
.node, .edge {opacity: 0.7;}
.node.selected, .edge.selected {opacity: 1;}
.edge:hover path { stroke: red; }
.edge:hover polygon { stroke: red; fill: red; }
]]></style>

<defs>
  <circle id="rim" cx="0" cy="0" r="7"/>
  <circle id="rim2" cx="0" cy="0" r="3.5"/>
  <g id="zoomPlus">
    <use xlink:href="#rim" fill="#404040"><set attributeName="fill" to="#808080" begin="zoomplus.mouseover" end="zoomplus.mouseout"/></use>
    <path d="M-4,0h8M0,-4v8" fill="none" stroke="white" stroke-width="1.5" pointer-events="none"/>
  </g>
  <g id="zoomMin">
    <use xlink:href="#rim" fill="#404040"><set attributeName="fill" to="#808080" begin="zoomminus.mouseover" end="zoomminus.mouseout"/></use>
    <path d="M-4,0h8" fill="none" stroke="white" stroke-width="1.5" pointer-events="none"/>
  </g>
  <g id="arrowUp" transform="translate(30 24)">
    <use xlink:href="#rim"/>
    <path pointer-events="none" fill="none" stroke="white" stroke-width="1.5" d="M0,-3.0v7 M-2.5,-0.5L0,-3.0L2.5,-0.5"/>
  </g>
  <g id="arrowRight" transform="rotate(90) translate(36 -43)">
    <use xlink:href="#rim"/>
    <path pointer-events="none" fill="none" stroke="white" stroke-width="1.5" d="M0,-3.0v7 M-2.5,-0.5L0,-3.0L2.5,-0.5"/>
  </g>
  <g id="arrowDown" transform="rotate(180) translate(-30 -48)">
    <use xlink:href="#rim"/>
    <path pointer-events="none" fill="none" stroke="white" stroke-width="1.5" d="M0,-3.0v7 M-2.5,-0.5L0,-3.0L2.5,-0.5"/>
  </g>
  <g id="arrowLeft" transform="rotate(270) translate(-36 17)">
    <use xlink:href="#rim"/>
    <path pointer-events="none" fill="none" stroke="white" stroke-width="1.5" d="M0,-3.0v7 M-2.5,-0.5L0,-3.0L2.5,-0.5"/>
  </g>
  <g id="resetDef">
    <use xlink:href="#rim2" fill="#404040"><set attributeName="fill" to="#808080" begin="reset.mouseover" end="reset.mouseout"/></use>
  </g>
</defs>
<script type="application/ecmascript">
var viewWidth = 2374;
var viewHeight = 342;
var sectionId = 'dynsection-1';
</script>
<script type="application/ecmascript" xlink:href="svg.min.js"/>
<svg id="graph" class="graph">
<g id="viewport">
<title>inc/base/BaseUart.h</title>
<!-- Node1 -->
<g id="Node000001" class="node">
<title>Node1</title>
<g id="a_Node000001"><a xlink:title="Abstract base class for UART driver implementations in the HardFOC system.">
<polygon fill="#999999" stroke="#666666" points="1974,-334 1836,-334 1836,-311 1974,-311 1974,-334"/>
<text text-anchor="middle" x="1905" y="-318.8" font-family="Arial" font-size="14.00">inc/base/BaseUart.h</text>
</a>
</g>
</g>
<!-- Node2 -->
<g id="Node000002" class="node">
<title>Node2</title>
<g id="a_Node000002"><a xlink:href="UartComprehensiveTest_8cpp.html" target="_top" xlink:title="Comprehensive UART testing suite for ESP32&#45;C6 DevKit&#45;M&#45;1 (noexcept)">
<polygon fill="white" stroke="#666666" points="2002.5,-38 1811.5,-38 1811.5,0 2002.5,0 2002.5,-38"/>
<text text-anchor="start" x="1819.5" y="-22.8" font-family="Arial" font-size="14.00">examples/esp32/main</text>
<text text-anchor="middle" x="1907" y="-7.8" font-family="Arial" font-size="14.00">/UartComprehensiveTest.cpp</text>
</a>
</g>
</g>
<!-- Node1&#45;&gt;Node2 -->
<g id="edge1_Node000001_Node000002" class="edge">
<title>Node1&#45;&gt;Node2</title>
<g id="a_edge1_Node000001_Node000002"><a xlink:title=" ">
<path fill="none" stroke="#63b8ff" d="M1905.14,-300.61C1905.51,-244.44 1906.53,-90.83 1906.88,-38.07"/>
<polygon fill="#63b8ff" stroke="#63b8ff" points="1901.64,-300.75 1905.07,-310.77 1908.64,-300.79 1901.64,-300.75"/>
</a>
</g>
</g>
<!-- Node3 -->
<g id="Node000003" class="node">
<title>Node3</title>
<g id="a_Node000003"><a xlink:href="BaseUsbSerialJtag_8h.html" target="_top" xlink:title="Abstract base class for USB Serial/JTAG controller &quot;console&#45;style&quot; serial transports in the HardFOC s...">
<polygon fill="white" stroke="#666666" points="2130.5,-267.5 1933.5,-267.5 1933.5,-244.5 2130.5,-244.5 2130.5,-267.5"/>
<text text-anchor="middle" x="2032" y="-252.3" font-family="Arial" font-size="14.00">inc/base/BaseUsbSerialJtag.h</text>
</a>
</g>
</g>
<!-- Node1&#45;&gt;Node3 -->
<g id="edge2_Node000001_Node000003" class="edge">
<title>Node1&#45;&gt;Node3</title>
<g id="a_edge2_Node000001_Node000003"><a xlink:title=" ">
<path fill="none" stroke="#63b8ff" d="M1934.86,-306.33C1958.39,-294.39 1990.57,-278.04 2011.32,-267.5"/>
<polygon fill="#63b8ff" stroke="#63b8ff" points="1933.02,-303.34 1925.69,-310.99 1936.19,-309.59 1933.02,-303.34"/>
</a>
</g>
</g>
<!-- Node7 -->
<g id="Node000007" class="node">
<title>Node7</title>
<g id="a_Node000007"><a xlink:href="EspUart_8h.html" target="_top" xlink:title="ESP32 UART implementation for the HardFOC system.">
<polygon fill="white" stroke="#666666" points="1790,-112 1622,-112 1622,-89 1790,-89 1790,-112"/>
<text text-anchor="middle" x="1706" y="-96.8" font-family="Arial" font-size="14.00">inc/mcu/esp32/EspUart.h</text>
</a>
</g>
</g>
<!-- Node1&#45;&gt;Node7 -->
<g id="edge7_Node000001_Node000007" class="edge">
<title>Node1&#45;&gt;Node7</title>
<g id="a_edge7_Node000001_Node000007"><a xlink:title=" ">
<path fill="none" stroke="#63b8ff" d="M1828.23,-309C1789.09,-301.04 1747.04,-289.5 1734,-275 1691.35,-227.59 1699.68,-141.95 1704.17,-112.1"/>
<polygon fill="#63b8ff" stroke="#63b8ff" points="1827.61,-312.44 1838.09,-310.94 1828.96,-305.57 1827.61,-312.44"/>
</a>
</g>
</g>
<!-- Node9 -->
<g id="Node000009" class="node">
<title>Node9</title>
<g id="a_Node000009"><a xlink:href="EspTypes__UART_8h.html" target="_top" xlink:title="ESP32 UART type definitions for hardware abstraction.">
<polygon fill="white" stroke="#666666" points="1877,-275 1743,-275 1743,-237 1877,-237 1877,-275"/>
<text text-anchor="start" x="1751" y="-259.8" font-family="Arial" font-size="14.00">inc/mcu/esp32/utils</text>
<text text-anchor="middle" x="1810" y="-244.8" font-family="Arial" font-size="14.00">/EspTypes_UART.h</text>
</a>
</g>
</g>
<!-- Node1&#45;&gt;Node9 -->
<g id="edge10_Node000001_Node000009" class="edge">
<title>Node1&#45;&gt;Node9</title>
<g id="a_edge10_Node000001_Node000009"><a xlink:title=" ">
<path fill="none" stroke="#63b8ff" d="M1881.03,-305.22C1867.58,-296.09 1850.76,-284.68 1836.87,-275.24"/>
<polygon fill="#63b8ff" stroke="#63b8ff" points="1879.07,-308.13 1889.31,-310.85 1883.01,-302.34 1879.07,-308.13"/>
</a>
</g>
</g>
<!-- Node23 -->
<g id="Node000023" class="node">
<title>Node23</title>
<g id="a_Node000023"><a xlink:href="StmUart_8h.html" target="_top" xlink:title="STM32 UART wrapper — wraps UART_HandleTypeDef for BaseUart interface.">
<polygon fill="white" stroke="#666666" points="2339,-267.5 2169,-267.5 2169,-244.5 2339,-244.5 2339,-267.5"/>
<text text-anchor="middle" x="2254" y="-252.3" font-family="Arial" font-size="14.00">inc/mcu/stm32/StmUart.h</text>
</a>
</g>
</g>
<!-- Node1&#45;&gt;Node23 -->
<g id="edge26_Node000001_Node000023" class="edge">
<title>Node1&#45;&gt;Node23</title>
<g id="a_edge26_Node000001_Node000023"><a xlink:title=" ">
<path fill="none" stroke="#63b8ff" d="M1972.04,-309.11C2037.36,-297.04 2135.58,-278.89 2197.17,-267.5"/>
<polygon fill="#63b8ff" stroke="#63b8ff" points="1971.05,-305.73 1961.85,-310.99 1972.32,-312.62 1971.05,-305.73"/>
</a>
</g>
</g>
<!-- Node4 -->
<g id="Node000004" class="node">
<title>Node4</title>
<g id="a_Node000004"><a xlink:href="UsbSerialJtagComprehensiveTest_8cpp.html" target="_top" xlink:title="Comprehensive test suite for the EspUsbSerialJtag wrapper (noexcept).">
<polygon fill="white" stroke="#666666" points="2343,-127 2143,-127 2143,-74 2343,-74 2343,-127"/>
<text text-anchor="start" x="2151" y="-111.8" font-family="Arial" font-size="14.00">examples/esp32/main</text>
<text text-anchor="start" x="2151" y="-96.8" font-family="Arial" font-size="14.00">/UsbSerialJtagComprehensive</text>
<text text-anchor="middle" x="2243" y="-81.8" font-family="Arial" font-size="14.00">Test.cpp</text>
</a>
</g>
</g>
<!-- Node3&#45;&gt;Node4 -->
<g id="edge3_Node000003_Node000004" class="edge">
<title>Node3&#45;&gt;Node4</title>
<g id="a_edge3_Node000003_Node000004"><a xlink:title=" ">
<path fill="none" stroke="#63b8ff" d="M2066,-240.15C2086.58,-230.41 2112.85,-216.62 2134,-201 2153.21,-186.81 2154.52,-179.27 2172,-163 2185.01,-150.89 2199.81,-137.94 2212.52,-127.07"/>
<polygon fill="#63b8ff" stroke="#63b8ff" points="2064.3,-237.08 2056.69,-244.46 2067.24,-243.44 2064.3,-237.08"/>
</a>
</g>
</g>
<!-- Node5 -->
<g id="Node000005" class="node">
<title>Node5</title>
<g id="a_Node000005"><a xlink:href="EspUsbSerialJtag_8h.html" target="_top" xlink:title="ESP32&#45;S3 / &#45;C3 / &#45;C6 USB Serial/JTAG console wrapper.">
<polygon fill="white" stroke="#666666" points="2125,-201 1935,-201 1935,-163 2125,-163 2125,-201"/>
<text text-anchor="start" x="1943" y="-185.8" font-family="Arial" font-size="14.00">inc/mcu/esp32/EspUsbSerial</text>
<text text-anchor="middle" x="2030" y="-170.8" font-family="Arial" font-size="14.00">Jtag.h</text>
</a>
</g>
</g>
<!-- Node3&#45;&gt;Node5 -->
<g id="edge4_Node000003_Node000005" class="edge">
<title>Node3&#45;&gt;Node5</title>
<g id="a_edge4_Node000003_Node000005"><a xlink:title=" ">
<path fill="none" stroke="#63b8ff" d="M2031.42,-234.1C2031.13,-223.69 2030.78,-211.23 2030.51,-201.21"/>
<polygon fill="#63b8ff" stroke="#63b8ff" points="2027.93,-234.48 2031.7,-244.38 2034.93,-234.28 2027.93,-234.48"/>
</a>
</g>
</g>
<!-- Node5&#45;&gt;Node4 -->
<g id="edge5_Node000005_Node000004" class="edge">
<title>Node5&#45;&gt;Node4</title>
<g id="a_edge5_Node000005_Node000004"><a xlink:title=" ">
<path fill="none" stroke="#63b8ff" d="M2087.95,-159.37C2114.73,-149.38 2146.72,-137.44 2174.67,-127"/>
<polygon fill="#63b8ff" stroke="#63b8ff" points="2086.48,-156.18 2078.33,-162.96 2088.93,-162.74 2086.48,-156.18"/>
</a>
</g>
</g>
<!-- Node6 -->
<g id="Node000006" class="node">
<title>Node6</title>
<g id="a_Node000006"><a xlink:href="EspUsbSerialJtag_8cpp.html" target="_top" xlink:title="ESP32&#45;family USB Serial/JTAG console wrapper implementation.">
<polygon fill="white" stroke="#666666" points="2124.5,-119.5 1933.5,-119.5 1933.5,-81.5 2124.5,-81.5 2124.5,-119.5"/>
<text text-anchor="start" x="1941.5" y="-104.3" font-family="Arial" font-size="14.00">src/mcu/esp32/EspUsbSerial</text>
<text text-anchor="middle" x="2029" y="-89.3" font-family="Arial" font-size="14.00">Jtag.cpp</text>
</a>
</g>
</g>
<!-- Node5&#45;&gt;Node6 -->
<g id="edge6_Node000005_Node000006" class="edge">
<title>Node5&#45;&gt;Node6</title>
<g id="a_edge6_Node000005_Node000006"><a xlink:title=" ">
<path fill="none" stroke="#63b8ff" d="M2029.65,-152.92C2029.51,-141.9 2029.35,-129.57 2029.23,-119.74"/>
<polygon fill="#63b8ff" stroke="#63b8ff" points="2026.15,-153.01 2029.77,-162.96 2033.15,-152.92 2026.15,-153.01"/>
</a>
</g>
</g>
<!-- Node7&#45;&gt;Node2 -->
<g id="edge8_Node000007_Node000002" class="edge">
<title>Node7&#45;&gt;Node2</title>
<g id="a_edge8_Node000007_Node000002"><a xlink:title=" ">
<path fill="none" stroke="#63b8ff" d="M1742.06,-85.24C1775.43,-72.04 1825.18,-52.36 1861.31,-38.07"/>
<polygon fill="#63b8ff" stroke="#63b8ff" points="1740.7,-82.01 1732.69,-88.94 1743.28,-88.52 1740.7,-82.01"/>
</a>
</g>
</g>
<!-- Node8 -->
<g id="Node000008" class="node">
<title>Node8</title>
<g id="a_Node000008"><a xlink:href="EspUart_8cpp.html" target="_top" xlink:title="Implementation of ESP32 UART controller for the HardFOC system.">
<polygon fill="white" stroke="#666666" points="1793.5,-30.5 1610.5,-30.5 1610.5,-7.5 1793.5,-7.5 1793.5,-30.5"/>
<text text-anchor="middle" x="1702" y="-15.3" font-family="Arial" font-size="14.00">src/mcu/esp32/EspUart.cpp</text>
</a>
</g>
</g>
<!-- Node7&#45;&gt;Node8 -->
<g id="edge9_Node000007_Node000008" class="edge">
<title>Node7&#45;&gt;Node8</title>
<g id="a_edge9_Node000007_Node000008"><a xlink:title=" ">
<path fill="none" stroke="#63b8ff" d="M1704.95,-78.59C1704.17,-63.14 1703.14,-42.75 1702.53,-30.55"/>
<polygon fill="#63b8ff" stroke="#63b8ff" points="1701.46,-78.97 1705.46,-88.78 1708.45,-78.61 1701.46,-78.97"/>
</a>
</g>
</g>
<!-- Node9&#45;&gt;Node2 -->
<g id="edge11_Node000009_Node000002" class="edge">
<title>Node9&#45;&gt;Node2</title>
<g id="a_edge11_Node000009_Node000002"><a xlink:title=" ">
<path fill="none" stroke="#63b8ff" d="M1821.27,-227.69C1841.31,-179.14 1882.61,-79.09 1899.52,-38.11"/>
<polygon fill="#63b8ff" stroke="#63b8ff" points="1818.03,-226.37 1817.45,-236.95 1824.5,-229.04 1818.03,-226.37"/>
</a>
</g>
</g>
<!-- Node10 -->
<g id="Node000010" class="node">
<title>Node10</title>
<g id="a_Node000010"><a xlink:href="EspTypes_8h.html" target="_top" xlink:title="Consolidated MCU&#45;specific type definitions for hardware abstraction (hf_* types).">
<polygon fill="white" stroke="#666666" points="1268,-201 1136,-201 1136,-163 1268,-163 1268,-201"/>
<text text-anchor="start" x="1144" y="-185.8" font-family="Arial" font-size="14.00">inc/mcu/esp32/utils</text>
<text text-anchor="middle" x="1202" y="-170.8" font-family="Arial" font-size="14.00">/EspTypes.h</text>
</a>
</g>
</g>
<!-- Node9&#45;&gt;Node10 -->
<g id="edge12_Node000009_Node000010" class="edge">
<title>Node9&#45;&gt;Node10</title>
<g id="a_edge12_Node000009_Node000010"><a xlink:title=" ">
<path fill="none" stroke="#63b8ff" d="M1732.65,-245.84C1612.17,-231.57 1381.77,-204.29 1268.38,-190.86"/>
<polygon fill="#63b8ff" stroke="#63b8ff" points="1732.56,-249.35 1742.9,-247.05 1733.38,-242.4 1732.56,-249.35"/>
</a>
</g>
</g>
<!-- Node10&#45;&gt;Node7 -->
<g id="edge25_Node000010_Node000007" class="edge">
<title>Node10&#45;&gt;Node7</title>
<g id="a_edge25_Node000010_Node000007"><a xlink:title=" ">
<path fill="none" stroke="#63b8ff" d="M1278.31,-168.96C1376.64,-153.45 1545.99,-126.74 1639.37,-112.01"/>
<polygon fill="#63b8ff" stroke="#63b8ff" points="1277.48,-165.55 1268.15,-170.57 1278.57,-172.46 1277.48,-165.55"/>
</a>
</g>
</g>
<!-- Node11 -->
<g id="Node000011" class="node">
<title>Node11</title>
<g id="a_Node000011"><a xlink:href="EspI2c_8h.html" target="_top" xlink:title="Advanced ESP32&#45;integrated I2C controller for ESP&#45;IDF v5.5+ with proper bus&#45;device architecture.">
<polygon fill="white" stroke="#666666" points="366.5,-112 205.5,-112 205.5,-89 366.5,-89 366.5,-112"/>
<text text-anchor="middle" x="286" y="-96.8" font-family="Arial" font-size="14.00">inc/mcu/esp32/EspI2c.h</text>
</a>
</g>
</g>
<!-- Node10&#45;&gt;Node11 -->
<g id="edge13_Node000010_Node000011" class="edge">
<title>Node10&#45;&gt;Node11</title>
<g id="a_edge13_Node000010_Node000011"><a xlink:title=" ">
<path fill="none" stroke="#63b8ff" d="M1125.57,-174.37C954.41,-159.51 541.61,-123.68 366.6,-108.5"/>
<polygon fill="#63b8ff" stroke="#63b8ff" points="1125.49,-177.87 1135.76,-175.25 1126.1,-170.9 1125.49,-177.87"/>
</a>
</g>
</g>
<!-- Node14 -->
<g id="Node000014" class="node">
<title>Node14</title>
<g id="a_Node000014"><a xlink:href="EspPeriodicTimer_8h.html" target="_top" xlink:title="MCU&#45;integrated periodic timer implementation.">
<polygon fill="white" stroke="#666666" points="786,-119.5 606,-119.5 606,-81.5 786,-81.5 786,-119.5"/>
<text text-anchor="start" x="614" y="-104.3" font-family="Arial" font-size="14.00">inc/mcu/esp32/EspPeriodic</text>
<text text-anchor="middle" x="696" y="-89.3" font-family="Arial" font-size="14.00">Timer.h</text>
</a>
</g>
</g>
<!-- Node10&#45;&gt;Node14 -->
<g id="edge16_Node000010_Node000014" class="edge">
<title>Node10&#45;&gt;Node14</title>
<g id="a_edge16_Node000010_Node000014"><a xlink:title=" ">
<path fill="none" stroke="#63b8ff" d="M1125.88,-169.04C1034.9,-154.75 882.83,-130.85 786.08,-115.65"/>
<polygon fill="#63b8ff" stroke="#63b8ff" points="1125.43,-172.51 1135.85,-170.61 1126.51,-165.6 1125.43,-172.51"/>
</a>
</g>
</g>
<!-- Node17 -->
<g id="Node000017" class="node">
<title>Node17</title>
<g id="a_Node000017"><a xlink:href="EspPio_8h.html" target="_top" xlink:title="ESP32 RMT&#45;based Programmable IO Channel implementation with ESP&#45;IDF v5.5+ features.">
<polygon fill="white" stroke="#666666" points="1183,-112 1021,-112 1021,-89 1183,-89 1183,-112"/>
<text text-anchor="middle" x="1102" y="-96.8" font-family="Arial" font-size="14.00">inc/mcu/esp32/EspPio.h</text>
</a>
</g>
</g>
<!-- Node10&#45;&gt;Node17 -->
<g id="edge19_Node000010_Node000017" class="edge">
<title>Node10&#45;&gt;Node17</title>
<g id="a_edge19_Node000010_Node000017"><a xlink:title=" ">
<path fill="none" stroke="#63b8ff" d="M1171.32,-156.61C1152.61,-141.73 1129.62,-123.46 1115.39,-112.15"/>
<polygon fill="#63b8ff" stroke="#63b8ff" points="1169.3,-159.48 1179.31,-162.96 1173.66,-154 1169.3,-159.48"/>
</a>
</g>
</g>
<!-- Node20 -->
<g id="Node000020" class="node">
<title>Node20</title>
<g id="a_Node000020"><a xlink:href="EspSpi_8h.html" target="_top" xlink:title="Advanced MCU&#45;integrated SPI controller implementation with ESP32/ESP&#45;IDF v5.5+ features.">
<polygon fill="white" stroke="#666666" points="1382,-112 1220,-112 1220,-89 1382,-89 1382,-112"/>
<text text-anchor="middle" x="1301" y="-96.8" font-family="Arial" font-size="14.00">inc/mcu/esp32/EspSpi.h</text>
</a>
</g>
</g>
<!-- Node10&#45;&gt;Node20 -->
<g id="edge22_Node000010_Node000020" class="edge">
<title>Node10&#45;&gt;Node20</title>
<g id="a_edge22_Node000010_Node000020"><a xlink:title=" ">
<path fill="none" stroke="#63b8ff" d="M1232.37,-156.61C1250.9,-141.73 1273.65,-123.46 1287.74,-112.15"/>
<polygon fill="#63b8ff" stroke="#63b8ff" points="1230.07,-153.97 1224.46,-162.96 1234.45,-159.43 1230.07,-153.97"/>
</a>
</g>
</g>
<!-- Node12 -->
<g id="Node000012" class="node">
<title>Node12</title>
<g id="a_Node000012"><a xlink:href="I2cComprehensiveTest_8cpp.html" target="_top" xlink:title="Comprehensive I2C testing suite for ESP32&#45;C6 DevKit&#45;M&#45;1 (noexcept)">
<polygon fill="white" stroke="#666666" points="378,-38 194,-38 194,0 378,0 378,-38"/>
<text text-anchor="start" x="202" y="-22.8" font-family="Arial" font-size="14.00">examples/esp32/main</text>
<text text-anchor="middle" x="286" y="-7.8" font-family="Arial" font-size="14.00">/I2cComprehensiveTest.cpp</text>
</a>
</g>
</g>
<!-- Node11&#45;&gt;Node12 -->
<g id="edge14_Node000011_Node000012" class="edge">
<title>Node11&#45;&gt;Node12</title>
<g id="a_edge14_Node000011_Node000012"><a xlink:title=" ">
<path fill="none" stroke="#63b8ff" d="M286,-78.75C286,-66.15 286,-50.23 286,-38.14"/>
<polygon fill="#63b8ff" stroke="#63b8ff" points="282.5,-78.78 286,-88.78 289.5,-78.78 282.5,-78.78"/>
</a>
</g>
</g>
<!-- Node13 -->
<g id="Node000013" class="node">
<title>Node13</title>
<g id="a_Node000013"><a xlink:href="EspI2c_8cpp.html" target="_top" xlink:title="Implementation of ESP32&#45;integrated I2C controller with proper bus&#45;device architecture.">
<polygon fill="white" stroke="#666666" points="176,-30.5 0,-30.5 0,-7.5 176,-7.5 176,-30.5"/>
<text text-anchor="middle" x="88" y="-15.3" font-family="Arial" font-size="14.00">src/mcu/esp32/EspI2c.cpp</text>
</a>
</g>
</g>
<!-- Node11&#45;&gt;Node13 -->
<g id="edge15_Node000011_Node000013" class="edge">
<title>Node11&#45;&gt;Node13</title>
<g id="a_edge15_Node000011_Node000013"><a xlink:title=" ">
<path fill="none" stroke="#63b8ff" d="M250.28,-85.16C211.17,-69.45 149.37,-44.64 114.4,-30.6"/>
<polygon fill="#63b8ff" stroke="#63b8ff" points="249.12,-88.46 259.71,-88.94 251.73,-81.97 249.12,-88.46"/>
</a>
</g>
</g>
<!-- Node15 -->
<g id="Node000015" class="node">
<title>Node15</title>
<g id="a_Node000015"><a xlink:href="TimerComprehensiveTest_8cpp.html" target="_top" xlink:title="ESP32&#45;C6 Periodic Timer Comprehensive Test Suite v2.0.">
<polygon fill="white" stroke="#666666" points="796.5,-38 595.5,-38 595.5,0 796.5,0 796.5,-38"/>
<text text-anchor="start" x="603.5" y="-22.8" font-family="Arial" font-size="14.00">examples/esp32/main</text>
<text text-anchor="middle" x="696" y="-7.8" font-family="Arial" font-size="14.00">/TimerComprehensiveTest.cpp</text>
</a>
</g>
</g>
<!-- Node14&#45;&gt;Node15 -->
<g id="edge17_Node000014_Node000015" class="edge">
<title>Node14&#45;&gt;Node15</title>
<g id="a_edge17_Node000014_Node000015"><a xlink:title=" ">
<path fill="none" stroke="#63b8ff" d="M696,-71.42C696,-60.4 696,-48.07 696,-38.24"/>
<polygon fill="#63b8ff" stroke="#63b8ff" points="692.5,-71.46 696,-81.46 699.5,-71.46 692.5,-71.46"/>
</a>
</g>
</g>
<!-- Node16 -->
<g id="Node000016" class="node">
<title>Node16</title>
<g id="a_Node000016"><a xlink:href="EspPeriodicTimer_8cpp.html" target="_top" xlink:title="Implementation of MCU&#45;integrated periodic timer.">
<polygon fill="white" stroke="#666666" points="577.5,-38 396.5,-38 396.5,0 577.5,0 577.5,-38"/>
<text text-anchor="start" x="404.5" y="-22.8" font-family="Arial" font-size="14.00">src/mcu/esp32/EspPeriodic</text>
<text text-anchor="middle" x="487" y="-7.8" font-family="Arial" font-size="14.00">Timer.cpp</text>
</a>
</g>
</g>
<!-- Node14&#45;&gt;Node16 -->
<g id="edge18_Node000014_Node000016" class="edge">
<title>Node14&#45;&gt;Node16</title>
<g id="a_edge18_Node000014_Node000016"><a xlink:title=" ">
<path fill="none" stroke="#63b8ff" d="M639.12,-77.86C606.36,-65.4 565.66,-49.92 534.6,-38.11"/>
<polygon fill="#63b8ff" stroke="#63b8ff" points="637.98,-81.18 648.57,-81.46 640.47,-74.63 637.98,-81.18"/>
</a>
</g>
</g>
<!-- Node18 -->
<g id="Node000018" class="node">
<title>Node18</title>
<g id="a_Node000018"><a xlink:href="PioComprehensiveTest_8cpp.html" target="_top" xlink:title="Comprehensive PIO testing suite for ESP32&#45;C6 DevKit&#45;M&#45;1 with RMT peripheral (noexcept)">
<polygon fill="white" stroke="#666666" points="1194.5,-38 1009.5,-38 1009.5,0 1194.5,0 1194.5,-38"/>
<text text-anchor="start" x="1017.5" y="-22.8" font-family="Arial" font-size="14.00">examples/esp32/main</text>
<text text-anchor="middle" x="1102" y="-7.8" font-family="Arial" font-size="14.00">/PioComprehensiveTest.cpp</text>
</a>
</g>
</g>
<!-- Node17&#45;&gt;Node18 -->
<g id="edge20_Node000017_Node000018" class="edge">
<title>Node17&#45;&gt;Node18</title>
<g id="a_edge20_Node000017_Node000018"><a xlink:title=" ">
<path fill="none" stroke="#63b8ff" d="M1102,-78.75C1102,-66.15 1102,-50.23 1102,-38.14"/>
<polygon fill="#63b8ff" stroke="#63b8ff" points="1098.5,-78.78 1102,-88.78 1105.5,-78.78 1098.5,-78.78"/>
</a>
</g>
</g>
<!-- Node19 -->
<g id="Node000019" class="node">
<title>Node19</title>
<g id="a_Node000019"><a xlink:href="EspPio_8cpp.html" target="_top" xlink:title="ESP32 RMT&#45;based Programmable IO Channel implementation.">
<polygon fill="white" stroke="#666666" points="991.5,-30.5 814.5,-30.5 814.5,-7.5 991.5,-7.5 991.5,-30.5"/>
<text text-anchor="middle" x="903" y="-15.3" font-family="Arial" font-size="14.00">src/mcu/esp32/EspPio.cpp</text>
</a>
</g>
</g>
<!-- Node17&#45;&gt;Node19 -->
<g id="edge21_Node000017_Node000019" class="edge">
<title>Node17&#45;&gt;Node19</title>
<g id="a_edge21_Node000017_Node000019"><a xlink:title=" ">
<path fill="none" stroke="#63b8ff" d="M1066.1,-85.16C1026.79,-69.45 964.68,-44.64 929.53,-30.6"/>
<polygon fill="#63b8ff" stroke="#63b8ff" points="1064.99,-88.48 1075.57,-88.94 1067.59,-81.98 1064.99,-88.48"/>
</a>
</g>
</g>
<!-- Node21 -->
<g id="Node000021" class="node">
<title>Node21</title>
<g id="a_Node000021"><a xlink:href="SpiComprehensiveTest_8cpp.html" target="_top" xlink:title="Comprehensive SPI testing suite for ESP32&#45;C6 DevKit&#45;M&#45;1 (noexcept)">
<polygon fill="white" stroke="#666666" points="1592.5,-38 1407.5,-38 1407.5,0 1592.5,0 1592.5,-38"/>
<text text-anchor="start" x="1415.5" y="-22.8" font-family="Arial" font-size="14.00">examples/esp32/main</text>
<text text-anchor="middle" x="1500" y="-7.8" font-family="Arial" font-size="14.00">/SpiComprehensiveTest.cpp</text>
</a>
</g>
</g>
<!-- Node20&#45;&gt;Node21 -->
<g id="edge23_Node000020_Node000021" class="edge">
<title>Node20&#45;&gt;Node21</title>
<g id="a_edge23_Node000020_Node000021"><a xlink:title=" ">
<path fill="none" stroke="#63b8ff" d="M1337.13,-85.07C1370.16,-71.87 1419.15,-52.3 1454.77,-38.07"/>
<polygon fill="#63b8ff" stroke="#63b8ff" points="1335.41,-81.98 1327.43,-88.94 1338.01,-88.48 1335.41,-81.98"/>
</a>
</g>
</g>
<!-- Node22 -->
<g id="Node000022" class="node">
<title>Node22</title>
<g id="a_Node000022"><a xlink:href="EspSpi_8cpp.html" target="_top" xlink:title="Implementation of MCU&#45;integrated SPI controller for ESP32 with ESP&#45;IDF v5.5+ features.">
<polygon fill="white" stroke="#666666" points="1389.5,-30.5 1212.5,-30.5 1212.5,-7.5 1389.5,-7.5 1389.5,-30.5"/>
<text text-anchor="middle" x="1301" y="-15.3" font-family="Arial" font-size="14.00">src/mcu/esp32/EspSpi.cpp</text>
</a>
</g>
</g>
<!-- Node20&#45;&gt;Node22 -->
<g id="edge24_Node000020_Node000022" class="edge">
<title>Node20&#45;&gt;Node22</title>
<g id="a_edge24_Node000020_Node000022"><a xlink:title=" ">
<path fill="none" stroke="#63b8ff" d="M1301,-78.59C1301,-63.14 1301,-42.75 1301,-30.55"/>
<polygon fill="#63b8ff" stroke="#63b8ff" points="1297.5,-78.78 1301,-88.78 1304.5,-78.78 1297.5,-78.78"/>
</a>
</g>
</g>
<!-- Node24 -->
<g id="Node000024" class="node">
<title>Node24</title>
<g id="a_Node000024"><a xlink:href="StmUart_8cpp.html" target="_top" xlink:title="STM32 UART implementation — blocking TX/RX with optional ring buffer.">
<polygon fill="white" stroke="#666666" points="2365.5,-193.5 2180.5,-193.5 2180.5,-170.5 2365.5,-170.5 2365.5,-193.5"/>
<text text-anchor="middle" x="2273" y="-178.3" font-family="Arial" font-size="14.00">src/mcu/stm32/StmUart.cpp</text>
</a>
</g>
</g>
<!-- Node23&#45;&gt;Node24 -->
<g id="edge27_Node000023_Node000024" class="edge">
<title>Node23&#45;&gt;Node24</title>
<g id="a_edge27_Node000023_Node000024"><a xlink:title=" ">
<path fill="none" stroke="#63b8ff" d="M2259.37,-234.63C2262.89,-221.3 2267.35,-204.43 2270.18,-193.67"/>
<polygon fill="#63b8ff" stroke="#63b8ff" points="2255.97,-233.81 2256.8,-244.38 2262.74,-235.6 2255.97,-233.81"/>
</a>
</g>
</g>
</g>
</svg>

<g id="navigator" transform="translate(0 0)" fill="#404254">
  <rect fill="#f2f5e9" fill-opacity="0.5" stroke="#606060" stroke-width=".5" x="0" y="0" width="60" height="60"/>
  <use id="zoomplus" xlink:href="#zoomPlus" x="17" y="9" onmousedown="handleZoom(evt,'in')"/>
  <use id="zoomminus" xlink:href="#zoomMin" x="42" y="9" onmousedown="handleZoom(evt,'out')"/>
  <use id="reset" xlink:href="#resetDef" x="30" y="36" onmousedown="handleReset()"/>
   <use id="arrowup" xlink:href="#arrowUp" x="0" y="0" onmousedown="handlePan(0,-1)"/>
  <use id="arrowright" xlink:href="#arrowRight" x="0" y="0" onmousedown="handlePan(1,0)"/>
  <use id="arrowdown" xlink:href="#arrowDown" x="0" y="0" onmousedown="handlePan(0,1)"/>
  <use id="arrowleft" xlink:href="#arrowLeft" x="0" y="0" onmousedown="handlePan(-1,0)"/>
</g>
<svg viewBox="0 0 15 15" width="100%" height="30px" preserveAspectRatio="xMaxYMin meet">
 <g id="arrow_out" transform="scale(0.3 0.3)">
  <a xlink:href="BaseUart_8h__dep__incl_org.svg" target="_base">
   <rect id="button" ry="5" rx="5" y="6" x="6" height="38" width="38"
        fill="#f2f5e9" fill-opacity="0.5" stroke="#606060" stroke-width="1.0"/>
   <path id="arrow"
     d="M 11.500037,31.436501 C 11.940474,20.09759 22.043105,11.32322 32.158766,21.979434 L 37.068811,17.246167 C 37.068811,17.246167 37.088388,32 37.088388,32 L 22.160133,31.978069 C 22.160133,31.978069 26.997745,27.140456 26.997745,27.140456 C 18.528582,18.264221 13.291696,25.230495 11.500037,31.436501 z"
     style="fill:#404040;"/>
  </a>
 </g>
</svg>

<style type='text/css'>
<![CDATA[
[data-mouse-over-selected='false'] { opacity: 0.7; }
[data-mouse-over-selected='true']  { opacity: 1.0; }
]]>
</style>
<script type="application/ecmascript"><![CDATA[
document.addEventListener('DOMContentLoaded', (event) => {
  highlightEdges();
  highlightAdjacentNodes();
});
]]></script>
</svg>
