<?xml version="1.0" encoding="UTF-8" standalone="no"?>
<!DOCTYPE svg PUBLIC "-//W3C//DTD SVG 1.1//EN"
 "http://www.w3.org/Graphics/SVG/1.1/DTD/svg11.dtd">
<!-- Generated by graphviz version 2.43.0 (0)
 -->
<!-- Title: inc/base/BasePwm.h Pages: 1 -->
<svg width="2011pt" height="327pt"
 viewBox="0.00 0.00 2010.50 327.00" xmlns="http://www.w3.org/2000/svg" xmlns:xlink="http://www.w3.org/1999/xlink">
<g id="graph0" class="graph" transform="scale(1 1) rotate(0) translate(4 323)">
<title>inc/base/BasePwm.h</title>
<!-- Node1 -->
<g id="Node000001" class="node">
<title>Node1</title>
<g id="a_Node000001"><a xlink:title="Abstract base class for PWM implementations in the HardFOC system.">
<polygon fill="#999999" stroke="#666666" points="442.5,-319 299.5,-319 299.5,-296 442.5,-296 442.5,-319"/>
<text text-anchor="middle" x="371" y="-303.8" font-family="Arial" font-size="14.00">inc/base/BasePwm.h</text>
</a>
</g>
</g>
<!-- Node2 -->
<g id="Node000002" class="node">
<title>Node2</title>
<g id="a_Node000002"><a xlink:href="PwmComprehensiveTest_8cpp.html" target="_top" xlink:title="Comprehensive PWM testing suite for ESP32 family (noexcept)">
<polygon fill="white" stroke="#666666" points="211.5,-112 14.5,-112 14.5,-74 211.5,-74 211.5,-112"/>
<text text-anchor="start" x="22.5" y="-96.8" font-family="Arial" font-size="14.00">examples/esp32/main</text>
<text text-anchor="middle" x="113" y="-81.8" font-family="Arial" font-size="14.00">/PwmComprehensiveTest.cpp</text>
</a>
</g>
</g>
<!-- Node1&#45;&gt;Node2 -->
<g id="edge1_Node000001_Node000002" class="edge">
<title>Node1&#45;&gt;Node2</title>
<g id="a_edge1_Node000001_Node000002"><a xlink:title=" ">
<path fill="none" stroke="#63b8ff" d="M350.37,-289.51C302.45,-250.04 183.98,-152.46 134.87,-112.01"/>
<polygon fill="#63b8ff" stroke="#63b8ff" points="348.26,-292.31 358.21,-295.96 352.71,-286.9 348.26,-292.31"/>
</a>
</g>
</g>
<!-- Node3 -->
<g id="Node000003" class="node">
<title>Node3</title>
<g id="a_Node000003"><a xlink:href="EspPwm_8h.html" target="_top" xlink:title="ESP32C6 LEDC (PWM) controller implementation for the HardFOC system.">
<polygon fill="white" stroke="#666666" points="410.5,-178.5 237.5,-178.5 237.5,-155.5 410.5,-155.5 410.5,-178.5"/>
<text text-anchor="middle" x="324" y="-163.3" font-family="Arial" font-size="14.00">inc/mcu/esp32/EspPwm.h</text>
</a>
</g>
</g>
<!-- Node1&#45;&gt;Node3 -->
<g id="edge2_Node000001_Node000003" class="edge">
<title>Node1&#45;&gt;Node3</title>
<g id="a_edge2_Node000001_Node000003"><a xlink:title=" ">
<path fill="none" stroke="#63b8ff" d="M357.6,-287.57C352.37,-279.41 346.74,-269.56 343,-260 331.95,-231.75 326.93,-195.98 325.01,-178.54"/>
<polygon fill="#63b8ff" stroke="#63b8ff" points="354.75,-289.6 363.22,-295.96 360.56,-285.7 354.75,-289.6"/>
</a>
</g>
</g>
<!-- Node5 -->
<g id="Node000005" class="node">
<title>Node5</title>
<g id="a_Node000005"><a xlink:href="EspTypes__PWM_8h.html" target="_top" xlink:title="ESP32 PWM type definitions for LEDC peripheral hardware abstraction.">
<polygon fill="white" stroke="#666666" points="485.5,-260 352.5,-260 352.5,-222 485.5,-222 485.5,-260"/>
<text text-anchor="start" x="360.5" y="-244.8" font-family="Arial" font-size="14.00">inc/mcu/esp32/utils</text>
<text text-anchor="middle" x="419" y="-229.8" font-family="Arial" font-size="14.00">/EspTypes_PWM.h</text>
</a>
</g>
</g>
<!-- Node1&#45;&gt;Node5 -->
<g id="edge5_Node000001_Node000005" class="edge">
<title>Node1&#45;&gt;Node5</title>
<g id="a_edge5_Node000001_Node000005"><a xlink:title=" ">
<path fill="none" stroke="#63b8ff" d="M385.1,-287.56C391.51,-278.94 399.07,-268.78 405.42,-260.24"/>
<polygon fill="#63b8ff" stroke="#63b8ff" points="382.09,-285.74 378.93,-295.85 387.7,-289.92 382.09,-285.74"/>
</a>
</g>
</g>
<!-- Node22 -->
<g id="Node000022" class="node">
<title>Node22</title>
<g id="a_Node000022"><a xlink:href="StmPwm_8h.html" target="_top" xlink:title="STM32 PWM wrapper — wraps TIM_HandleTypeDef for BasePwm interface.">
<polygon fill="white" stroke="#666666" points="827,-252.5 651,-252.5 651,-229.5 827,-229.5 827,-252.5"/>
<text text-anchor="middle" x="739" y="-237.3" font-family="Arial" font-size="14.00">inc/mcu/stm32/StmPwm.h</text>
</a>
</g>
</g>
<!-- Node1&#45;&gt;Node22 -->
<g id="edge23_Node000001_Node000022" class="edge">
<title>Node1&#45;&gt;Node22</title>
<g id="a_edge23_Node000001_Node000022"><a xlink:title=" ">
<path fill="none" stroke="#63b8ff" d="M440.84,-294.26C509.72,-282.19 613.87,-263.93 679.08,-252.5"/>
<polygon fill="#63b8ff" stroke="#63b8ff" points="440.19,-290.82 430.94,-295.99 441.4,-297.71 440.19,-290.82"/>
</a>
</g>
</g>
<!-- Node3&#45;&gt;Node2 -->
<g id="edge3_Node000003_Node000002" class="edge">
<title>Node3&#45;&gt;Node2</title>
<g id="a_edge3_Node000003_Node000002"><a xlink:title=" ">
<path fill="none" stroke="#63b8ff" d="M282.98,-152C249.59,-140.61 202.21,-124.44 165.96,-112.07"/>
<polygon fill="#63b8ff" stroke="#63b8ff" points="282.27,-155.46 292.87,-155.38 284.53,-148.83 282.27,-155.46"/>
</a>
</g>
</g>
<!-- Node4 -->
<g id="Node000004" class="node">
<title>Node4</title>
<g id="a_Node000004"><a xlink:href="EspPwm_8cpp.html" target="_top" xlink:title="Implementation of ESP32 family LEDC (PWM) controller for the HardFOC system.">
<polygon fill="white" stroke="#666666" points="418,-104.5 230,-104.5 230,-81.5 418,-81.5 418,-104.5"/>
<text text-anchor="middle" x="324" y="-89.3" font-family="Arial" font-size="14.00">src/mcu/esp32/EspPwm.cpp</text>
</a>
</g>
</g>
<!-- Node3&#45;&gt;Node4 -->
<g id="edge4_Node000003_Node000004" class="edge">
<title>Node3&#45;&gt;Node4</title>
<g id="a_edge4_Node000003_Node000004"><a xlink:title=" ">
<path fill="none" stroke="#63b8ff" d="M324,-145.23C324,-131.97 324,-115.32 324,-104.67"/>
<polygon fill="#63b8ff" stroke="#63b8ff" points="320.5,-145.38 324,-155.38 327.5,-145.38 320.5,-145.38"/>
</a>
</g>
</g>
<!-- Node5&#45;&gt;Node3 -->
<g id="edge6_Node000005_Node000003" class="edge">
<title>Node5&#45;&gt;Node3</title>
<g id="a_edge6_Node000005_Node000003"><a xlink:title=" ">
<path fill="none" stroke="#63b8ff" d="M386.65,-215.48C370.05,-202.9 350.7,-188.23 337.94,-178.57"/>
<polygon fill="#63b8ff" stroke="#63b8ff" points="384.94,-218.58 395.03,-221.83 389.17,-213 384.94,-218.58"/>
</a>
</g>
</g>
<!-- Node6 -->
<g id="Node000006" class="node">
<title>Node6</title>
<g id="a_Node000006"><a xlink:href="EspTypes_8h.html" target="_top" xlink:title="Consolidated MCU&#45;specific type definitions for hardware abstraction (hf_* types).">
<polygon fill="white" stroke="#666666" points="772,-186 640,-186 640,-148 772,-148 772,-186"/>
<text text-anchor="start" x="648" y="-170.8" font-family="Arial" font-size="14.00">inc/mcu/esp32/utils</text>
<text text-anchor="middle" x="706" y="-155.8" font-family="Arial" font-size="14.00">/EspTypes.h</text>
</a>
</g>
</g>
<!-- Node5&#45;&gt;Node6 -->
<g id="edge7_Node000005_Node000006" class="edge">
<title>Node5&#45;&gt;Node6</title>
<g id="a_edge7_Node000005_Node000006"><a xlink:title=" ">
<path fill="none" stroke="#63b8ff" d="M495.28,-220.86C540.28,-209.57 596.67,-195.43 639.8,-184.61"/>
<polygon fill="#63b8ff" stroke="#63b8ff" points="494.41,-217.47 485.56,-223.3 496.12,-224.26 494.41,-217.47"/>
</a>
</g>
</g>
<!-- Node7 -->
<g id="Node000007" class="node">
<title>Node7</title>
<g id="a_Node000007"><a xlink:href="EspI2c_8h.html" target="_top" xlink:title="Advanced ESP32&#45;integrated I2C controller for ESP&#45;IDF v5.5+ with proper bus&#45;device architecture.">
<polygon fill="white" stroke="#666666" points="597.5,-104.5 436.5,-104.5 436.5,-81.5 597.5,-81.5 597.5,-104.5"/>
<text text-anchor="middle" x="517" y="-89.3" font-family="Arial" font-size="14.00">inc/mcu/esp32/EspI2c.h</text>
</a>
</g>
</g>
<!-- Node6&#45;&gt;Node7 -->
<g id="edge8_Node000006_Node000007" class="edge">
<title>Node6&#45;&gt;Node7</title>
<g id="a_edge8_Node000006_Node000007"><a xlink:title=" ">
<path fill="none" stroke="#63b8ff" d="M648.81,-144.21C614.34,-131.08 571.97,-114.94 544.74,-104.57"/>
<polygon fill="#63b8ff" stroke="#63b8ff" points="647.72,-147.54 658.31,-147.83 650.21,-141 647.72,-147.54"/>
</a>
</g>
</g>
<!-- Node10 -->
<g id="Node000010" class="node">
<title>Node10</title>
<g id="a_Node000010"><a xlink:href="EspPeriodicTimer_8h.html" target="_top" xlink:title="MCU&#45;integrated periodic timer implementation.">
<polygon fill="white" stroke="#666666" points="796,-112 616,-112 616,-74 796,-74 796,-112"/>
<text text-anchor="start" x="624" y="-96.8" font-family="Arial" font-size="14.00">inc/mcu/esp32/EspPeriodic</text>
<text text-anchor="middle" x="706" y="-81.8" font-family="Arial" font-size="14.00">Timer.h</text>
</a>
</g>
</g>
<!-- Node6&#45;&gt;Node10 -->
<g id="edge11_Node000006_Node000010" class="edge">
<title>Node6&#45;&gt;Node10</title>
<g id="a_edge11_Node000006_Node000010"><a xlink:title=" ">
<path fill="none" stroke="#63b8ff" d="M706,-137.57C706,-129.11 706,-120.06 706,-112.41"/>
<polygon fill="#63b8ff" stroke="#63b8ff" points="702.5,-137.83 706,-147.83 709.5,-137.83 702.5,-137.83"/>
</a>
</g>
</g>
<!-- Node13 -->
<g id="Node000013" class="node">
<title>Node13</title>
<g id="a_Node000013"><a xlink:href="EspPio_8h.html" target="_top" xlink:title="ESP32C6 RMT&#45;based Programmable IO Channel implementation with ESP&#45;IDF v5.5+ features.">
<polygon fill="white" stroke="#666666" points="988,-104.5 826,-104.5 826,-81.5 988,-81.5 988,-104.5"/>
<text text-anchor="middle" x="907" y="-89.3" font-family="Arial" font-size="14.00">inc/mcu/esp32/EspPio.h</text>
</a>
</g>
</g>
<!-- Node6&#45;&gt;Node13 -->
<g id="edge14_Node000006_Node000013" class="edge">
<title>Node6&#45;&gt;Node13</title>
<g id="a_edge14_Node000006_Node000013"><a xlink:title=" ">
<path fill="none" stroke="#63b8ff" d="M766.09,-144.47C802.85,-131.31 848.26,-115.04 877.43,-104.59"/>
<polygon fill="#63b8ff" stroke="#63b8ff" points="764.7,-141.26 756.46,-147.92 767.06,-147.85 764.7,-141.26"/>
</a>
</g>
</g>
<!-- Node16 -->
<g id="Node000016" class="node">
<title>Node16</title>
<g id="a_Node000016"><a xlink:href="EspSpi_8h.html" target="_top" xlink:title="Advanced MCU&#45;integrated SPI controller implementation with ESP32C6/ESP&#45;IDF v5.5+ features.">
<polygon fill="white" stroke="#666666" points="1386,-104.5 1224,-104.5 1224,-81.5 1386,-81.5 1386,-104.5"/>
<text text-anchor="middle" x="1305" y="-89.3" font-family="Arial" font-size="14.00">inc/mcu/esp32/EspSpi.h</text>
</a>
</g>
</g>
<!-- Node6&#45;&gt;Node16 -->
<g id="edge17_Node000006_Node000016" class="edge">
<title>Node6&#45;&gt;Node16</title>
<g id="a_edge17_Node000006_Node000016"><a xlink:title=" ">
<path fill="none" stroke="#63b8ff" d="M782.29,-147.9C944.01,-120.82 1122.48,-106.01 1223.76,-99.01"/>
<polygon fill="#63b8ff" stroke="#63b8ff" points="781.43,-144.5 772.15,-149.62 782.6,-151.4 781.43,-144.5"/>
</a>
</g>
</g>
<!-- Node19 -->
<g id="Node000019" class="node">
<title>Node19</title>
<g id="a_Node000019"><a xlink:href="EspUart_8h.html" target="_top" xlink:title="ESP32 UART implementation for the HardFOC system.">
<polygon fill="white" stroke="#666666" points="1790,-104.5 1622,-104.5 1622,-81.5 1790,-81.5 1790,-104.5"/>
<text text-anchor="middle" x="1706" y="-89.3" font-family="Arial" font-size="14.00">inc/mcu/esp32/EspUart.h</text>
</a>
</g>
</g>
<!-- Node6&#45;&gt;Node19 -->
<g id="edge20_Node000006_Node000019" class="edge">
<title>Node6&#45;&gt;Node19</title>
<g id="a_edge20_Node000006_Node000019"><a xlink:title=" ">
<path fill="none" stroke="#63b8ff" d="M782.3,-148.64C864.12,-142.93 1409.42,-111.23 1621.73,-98.9"/>
<polygon fill="#63b8ff" stroke="#63b8ff" points="781.82,-145.17 772.13,-149.46 782.38,-152.15 781.82,-145.17"/>
</a>
</g>
</g>
<!-- Node8 -->
<g id="Node000008" class="node">
<title>Node8</title>
<g id="a_Node000008"><a xlink:href="I2cComprehensiveTest_8cpp.html" target="_top" xlink:title="Comprehensive I2C testing suite for ESP32&#45;C6 DevKit&#45;M&#45;1 (noexcept)">
<polygon fill="white" stroke="#666666" points="184,-38 0,-38 0,0 184,0 184,-38"/>
<text text-anchor="start" x="8" y="-22.8" font-family="Arial" font-size="14.00">examples/esp32/main</text>
<text text-anchor="middle" x="92" y="-7.8" font-family="Arial" font-size="14.00">/I2cComprehensiveTest.cpp</text>
</a>
</g>
</g>
<!-- Node7&#45;&gt;Node8 -->
<g id="edge9_Node000007_Node000008" class="edge">
<title>Node7&#45;&gt;Node8</title>
<g id="a_edge9_Node000007_Node000008"><a xlink:title=" ">
<path fill="none" stroke="#63b8ff" d="M456.13,-79.44C446.4,-77.55 436.43,-75.67 427,-74 323.38,-55.68 296.8,-55.23 193,-38 190.1,-37.52 187.16,-37.02 184.18,-36.52"/>
<polygon fill="#63b8ff" stroke="#63b8ff" points="455.66,-82.92 466.15,-81.42 457.01,-76.05 455.66,-82.92"/>
</a>
</g>
</g>
<!-- Node9 -->
<g id="Node000009" class="node">
<title>Node9</title>
<g id="a_Node000009"><a xlink:href="EspI2c_8cpp.html" target="_top" xlink:title="Implementation of ESP32&#45;integrated I2C controller with proper bus&#45;device architecture.">
<polygon fill="white" stroke="#666666" points="378,-30.5 202,-30.5 202,-7.5 378,-7.5 378,-30.5"/>
<text text-anchor="middle" x="290" y="-15.3" font-family="Arial" font-size="14.00">src/mcu/esp32/EspI2c.cpp</text>
</a>
</g>
</g>
<!-- Node7&#45;&gt;Node9 -->
<g id="edge10_Node000007_Node000009" class="edge">
<title>Node7&#45;&gt;Node9</title>
<g id="a_edge10_Node000007_Node000009"><a xlink:title=" ">
<path fill="none" stroke="#63b8ff" d="M473.71,-78.27C429.89,-64.37 363.09,-43.18 323.26,-30.55"/>
<polygon fill="#63b8ff" stroke="#63b8ff" points="472.92,-81.69 483.51,-81.38 475.03,-75.02 472.92,-81.69"/>
</a>
</g>
</g>
<!-- Node11 -->
<g id="Node000011" class="node">
<title>Node11</title>
<g id="a_Node000011"><a xlink:href="TimerComprehensiveTest_8cpp.html" target="_top" xlink:title="ESP32&#45;C6 Periodic Timer Comprehensive Test Suite v2.0.">
<polygon fill="white" stroke="#666666" points="597.5,-38 396.5,-38 396.5,0 597.5,0 597.5,-38"/>
<text text-anchor="start" x="404.5" y="-22.8" font-family="Arial" font-size="14.00">examples/esp32/main</text>
<text text-anchor="middle" x="497" y="-7.8" font-family="Arial" font-size="14.00">/TimerComprehensiveTest.cpp</text>
</a>
</g>
</g>
<!-- Node10&#45;&gt;Node11 -->
<g id="edge12_Node000010_Node000011" class="edge">
<title>Node10&#45;&gt;Node11</title>
<g id="a_edge12_Node000010_Node000011"><a xlink:title=" ">
<path fill="none" stroke="#63b8ff" d="M643.98,-70.64C613.91,-60.28 578.19,-47.97 549.49,-38.08"/>
<polygon fill="#63b8ff" stroke="#63b8ff" points="642.94,-73.98 653.53,-73.92 645.22,-67.36 642.94,-73.98"/>
</a>
</g>
</g>
<!-- Node12 -->
<g id="Node000012" class="node">
<title>Node12</title>
<g id="a_Node000012"><a xlink:href="EspPeriodicTimer_8cpp.html" target="_top" xlink:title="Implementation of MCU&#45;integrated periodic timer.">
<polygon fill="white" stroke="#666666" points="796.5,-38 615.5,-38 615.5,0 796.5,0 796.5,-38"/>
<text text-anchor="start" x="623.5" y="-22.8" font-family="Arial" font-size="14.00">src/mcu/esp32/EspPeriodic</text>
<text text-anchor="middle" x="706" y="-7.8" font-family="Arial" font-size="14.00">Timer.cpp</text>
</a>
</g>
</g>
<!-- Node10&#45;&gt;Node12 -->
<g id="edge13_Node000010_Node000012" class="edge">
<title>Node10&#45;&gt;Node12</title>
<g id="a_edge13_Node000010_Node000012"><a xlink:title=" ">
<path fill="none" stroke="#63b8ff" d="M706,-63.57C706,-55.11 706,-46.06 706,-38.41"/>
<polygon fill="#63b8ff" stroke="#63b8ff" points="702.5,-63.83 706,-73.83 709.5,-63.83 702.5,-63.83"/>
</a>
</g>
</g>
<!-- Node14 -->
<g id="Node000014" class="node">
<title>Node14</title>
<g id="a_Node000014"><a xlink:href="PioComprehensiveTest_8cpp.html" target="_top" xlink:title="Comprehensive PIO testing suite for ESP32&#45;C6 DevKit&#45;M&#45;1 with RMT peripheral (noexcept)">
<polygon fill="white" stroke="#666666" points="999.5,-38 814.5,-38 814.5,0 999.5,0 999.5,-38"/>
<text text-anchor="start" x="822.5" y="-22.8" font-family="Arial" font-size="14.00">examples/esp32/main</text>
<text text-anchor="middle" x="907" y="-7.8" font-family="Arial" font-size="14.00">/PioComprehensiveTest.cpp</text>
</a>
</g>
</g>
<!-- Node13&#45;&gt;Node14 -->
<g id="edge15_Node000013_Node000014" class="edge">
<title>Node13&#45;&gt;Node14</title>
<g id="a_edge15_Node000013_Node000014"><a xlink:title=" ">
<path fill="none" stroke="#63b8ff" d="M907,-71.1C907,-60.69 907,-48.23 907,-38.21"/>
<polygon fill="#63b8ff" stroke="#63b8ff" points="903.5,-71.38 907,-81.38 910.5,-71.38 903.5,-71.38"/>
</a>
</g>
</g>
<!-- Node15 -->
<g id="Node000015" class="node">
<title>Node15</title>
<g id="a_Node000015"><a xlink:href="EspPio_8cpp.html" target="_top" xlink:title="ESP32C6 RMT&#45;based Programmable IO Channel implementation.">
<polygon fill="white" stroke="#666666" points="1194.5,-30.5 1017.5,-30.5 1017.5,-7.5 1194.5,-7.5 1194.5,-30.5"/>
<text text-anchor="middle" x="1106" y="-15.3" font-family="Arial" font-size="14.00">src/mcu/esp32/EspPio.cpp</text>
</a>
</g>
</g>
<!-- Node13&#45;&gt;Node15 -->
<g id="edge16_Node000013_Node000015" class="edge">
<title>Node13&#45;&gt;Node15</title>
<g id="a_edge16_Node000013_Node000015"><a xlink:title=" ">
<path fill="none" stroke="#63b8ff" d="M946.17,-77.83C984.59,-63.93 1042.29,-43.05 1076.84,-30.55"/>
<polygon fill="#63b8ff" stroke="#63b8ff" points="944.58,-74.68 936.36,-81.38 946.96,-81.27 944.58,-74.68"/>
</a>
</g>
</g>
<!-- Node17 -->
<g id="Node000017" class="node">
<title>Node17</title>
<g id="a_Node000017"><a xlink:href="SpiComprehensiveTest_8cpp.html" target="_top" xlink:title="Comprehensive SPI testing suite for ESP32&#45;C6 DevKit&#45;M&#45;1 (noexcept)">
<polygon fill="white" stroke="#666666" points="1397.5,-38 1212.5,-38 1212.5,0 1397.5,0 1397.5,-38"/>
<text text-anchor="start" x="1220.5" y="-22.8" font-family="Arial" font-size="14.00">examples/esp32/main</text>
<text text-anchor="middle" x="1305" y="-7.8" font-family="Arial" font-size="14.00">/SpiComprehensiveTest.cpp</text>
</a>
</g>
</g>
<!-- Node16&#45;&gt;Node17 -->
<g id="edge18_Node000016_Node000017" class="edge">
<title>Node16&#45;&gt;Node17</title>
<g id="a_edge18_Node000016_Node000017"><a xlink:title=" ">
<path fill="none" stroke="#63b8ff" d="M1305,-71.1C1305,-60.69 1305,-48.23 1305,-38.21"/>
<polygon fill="#63b8ff" stroke="#63b8ff" points="1301.5,-71.38 1305,-81.38 1308.5,-71.38 1301.5,-71.38"/>
</a>
</g>
</g>
<!-- Node18 -->
<g id="Node000018" class="node">
<title>Node18</title>
<g id="a_Node000018"><a xlink:href="EspSpi_8cpp.html" target="_top" xlink:title="Implementation of MCU&#45;integrated SPI controller for ESP32C6 with ESP&#45;IDF v5.5+ features.">
<polygon fill="white" stroke="#666666" points="1592.5,-30.5 1415.5,-30.5 1415.5,-7.5 1592.5,-7.5 1592.5,-30.5"/>
<text text-anchor="middle" x="1504" y="-15.3" font-family="Arial" font-size="14.00">src/mcu/esp32/EspSpi.cpp</text>
</a>
</g>
</g>
<!-- Node16&#45;&gt;Node18 -->
<g id="edge19_Node000016_Node000018" class="edge">
<title>Node16&#45;&gt;Node18</title>
<g id="a_edge19_Node000016_Node000018"><a xlink:title=" ">
<path fill="none" stroke="#63b8ff" d="M1344.17,-77.83C1382.59,-63.93 1440.29,-43.05 1474.84,-30.55"/>
<polygon fill="#63b8ff" stroke="#63b8ff" points="1342.58,-74.68 1334.36,-81.38 1344.96,-81.27 1342.58,-74.68"/>
</a>
</g>
</g>
<!-- Node20 -->
<g id="Node000020" class="node">
<title>Node20</title>
<g id="a_Node000020"><a xlink:href="UartComprehensiveTest_8cpp.html" target="_top" xlink:title="Comprehensive UART testing suite for ESP32&#45;C6 DevKit&#45;M&#45;1 (noexcept)">
<polygon fill="white" stroke="#666666" points="1801.5,-38 1610.5,-38 1610.5,0 1801.5,0 1801.5,-38"/>
<text text-anchor="start" x="1618.5" y="-22.8" font-family="Arial" font-size="14.00">examples/esp32/main</text>
<text text-anchor="middle" x="1706" y="-7.8" font-family="Arial" font-size="14.00">/UartComprehensiveTest.cpp</text>
</a>
</g>
</g>
<!-- Node19&#45;&gt;Node20 -->
<g id="edge21_Node000019_Node000020" class="edge">
<title>Node19&#45;&gt;Node20</title>
<g id="a_edge21_Node000019_Node000020"><a xlink:title=" ">
<path fill="none" stroke="#63b8ff" d="M1706,-71.1C1706,-60.69 1706,-48.23 1706,-38.21"/>
<polygon fill="#63b8ff" stroke="#63b8ff" points="1702.5,-71.38 1706,-81.38 1709.5,-71.38 1702.5,-71.38"/>
</a>
</g>
</g>
<!-- Node21 -->
<g id="Node000021" class="node">
<title>Node21</title>
<g id="a_Node000021"><a xlink:href="EspUart_8cpp.html" target="_top" xlink:title="Implementation of ESP32 UART controller for the HardFOC system.">
<polygon fill="white" stroke="#666666" points="2002.5,-30.5 1819.5,-30.5 1819.5,-7.5 2002.5,-7.5 2002.5,-30.5"/>
<text text-anchor="middle" x="1911" y="-15.3" font-family="Arial" font-size="14.00">src/mcu/esp32/EspUart.cpp</text>
</a>
</g>
</g>
<!-- Node19&#45;&gt;Node21 -->
<g id="edge22_Node000019_Node000021" class="edge">
<title>Node19&#45;&gt;Node21</title>
<g id="a_edge22_Node000019_Node000021"><a xlink:title=" ">
<path fill="none" stroke="#63b8ff" d="M1745.85,-78C1785.43,-64.1 1845.22,-43.1 1880.96,-30.55"/>
<polygon fill="#63b8ff" stroke="#63b8ff" points="1744.52,-74.76 1736.25,-81.38 1746.84,-81.36 1744.52,-74.76"/>
</a>
</g>
</g>
<!-- Node23 -->
<g id="Node000023" class="node">
<title>Node23</title>
<g id="a_Node000023"><a xlink:href="StmPwm_8cpp.html" target="_top" xlink:title="STM32 PWM implementation — TIM OC with frequency/duty/deadtime control.">
<polygon fill="white" stroke="#666666" points="981.5,-178.5 790.5,-178.5 790.5,-155.5 981.5,-155.5 981.5,-178.5"/>
<text text-anchor="middle" x="886" y="-163.3" font-family="Arial" font-size="14.00">src/mcu/stm32/StmPwm.cpp</text>
</a>
</g>
</g>
<!-- Node22&#45;&gt;Node23 -->
<g id="edge24_Node000022_Node000023" class="edge">
<title>Node22&#45;&gt;Node23</title>
<g id="a_edge24_Node000022_Node000023"><a xlink:title=" ">
<path fill="none" stroke="#63b8ff" d="M769.74,-224.94C798.01,-211.1 839.21,-190.92 864.22,-178.67"/>
<polygon fill="#63b8ff" stroke="#63b8ff" points="768.13,-221.83 760.69,-229.38 771.21,-228.12 768.13,-221.83"/>
</a>
</g>
</g>
</g>
</svg>
