<?xml version="1.0" encoding="UTF-8" standalone="no"?>
<!DOCTYPE svg PUBLIC "-//W3C//DTD SVG 1.1//EN"
 "http://www.w3.org/Graphics/SVG/1.1/DTD/svg11.dtd">
<!-- Generated by graphviz version 2.43.0 (0)
 -->
<!-- Title: BaseTemperature Pages: 1 -->
<svg width="260pt" height="90pt"
 viewBox="0.00 0.00 260.00 90.00" xmlns="http://www.w3.org/2000/svg" xmlns:xlink="http://www.w3.org/1999/xlink">
<g id="graph0" class="graph" transform="scale(1 1) rotate(0) translate(4 86)">
<title>BaseTemperature</title>
<!-- Node1 -->
<g id="Node000001" class="node">
<title>Node1</title>
<g id="a_Node000001"><a xlink:title="Abstract base class for all temperature sensor implementations.">
<polygon fill="#999999" stroke="#666666" points="187,-82 63,-82 63,-59 187,-59 187,-82"/>
<text text-anchor="middle" x="125" y="-66.8" font-family="Arial" font-size="14.00">BaseTemperature</text>
</a>
</g>
</g>
<!-- Node2 -->
<g id="Node000002" class="node">
<title>Node2</title>
<g id="a_Node000002"><a xlink:href="classEspTemperature.html" target="_top" xlink:title="ESP32&#45;C6 internal temperature sensor implementation.">
<polygon fill="white" stroke="#666666" points="116,-23 0,-23 0,0 116,0 116,-23"/>
<text text-anchor="middle" x="58" y="-7.8" font-family="Arial" font-size="14.00">EspTemperature</text>
</a>
</g>
</g>
<!-- Node1&#45;&gt;Node2 -->
<g id="edge1_Node000001_Node000002" class="edge">
<title>Node1&#45;&gt;Node2</title>
<g id="a_edge1_Node000001_Node000002"><a xlink:title=" ">
<path fill="none" stroke="#63b8ff" d="M104.46,-52.03C93.39,-42.61 80.08,-31.28 70.55,-23.17"/>
<polygon fill="#63b8ff" stroke="#63b8ff" points="102.51,-54.96 112.4,-58.78 107.05,-49.63 102.51,-54.96"/>
</a>
</g>
</g>
<!-- Node3 -->
<g id="Node000003" class="node">
<title>Node3</title>
<g id="a_Node000003"><a xlink:href="classStmTemperature.html" target="_top" xlink:title="STM32 Temperature sensor — stub implementation.">
<polygon fill="white" stroke="#666666" points="252,-23 134,-23 134,0 252,0 252,-23"/>
<text text-anchor="middle" x="193" y="-7.8" font-family="Arial" font-size="14.00">StmTemperature</text>
</a>
</g>
</g>
<!-- Node1&#45;&gt;Node3 -->
<g id="edge2_Node000001_Node000003" class="edge">
<title>Node1&#45;&gt;Node3</title>
<g id="a_edge2_Node000001_Node000003"><a xlink:title=" ">
<path fill="none" stroke="#63b8ff" d="M145.51,-52.31C156.82,-42.83 170.5,-31.36 180.27,-23.17"/>
<polygon fill="#63b8ff" stroke="#63b8ff" points="143.21,-49.67 137.79,-58.78 147.7,-55.04 143.21,-49.67"/>
</a>
</g>
</g>
</g>
</svg>
