<?xml version="1.0" encoding="UTF-8" standalone="no"?>
<!DOCTYPE svg PUBLIC "-//W3C//DTD SVG 1.1//EN"
 "http://www.w3.org/Graphics/SVG/1.1/DTD/svg11.dtd">
<!-- Generated by graphviz version 2.43.0 (0)
 -->
<!-- Title: EspTemperature Pages: 1 -->
<svg width="443pt" height="383pt"
 viewBox="0.00 0.00 443.00 382.61" xmlns="http://www.w3.org/2000/svg" xmlns:xlink="http://www.w3.org/1999/xlink">

<svg id="main" version="1.1" xmlns="http://www.w3.org/2000/svg" xmlns:xlink="http://www.w3.org/1999/xlink" xml:space="preserve" onload="init(evt)">
<style type="text/css"><![CDATA[
.node, .edge {opacity: 0.7;}
.node.selected, .edge.selected {opacity: 1;}
.edge:hover path { stroke: red; }
.edge:hover polygon { stroke: red; fill: red; }
]]></style>
<script type="application/ecmascript" xlink:href="svg.min.js"/>
<svg id="graph" class="graph">
<g id="graph0" class="graph" transform="scale(1 1) rotate(0) translate(4 378.61)">
<title>EspTemperature</title>
<!-- Node1 -->
<g id="Node000001" class="node">
<title>Node1</title>
<g id="a_Node000001"><a xlink:title="ESP32&#45;C6 internal temperature sensor implementation.">
<polygon fill="#999999" stroke="#666666" points="435,-189.41 319,-189.41 319,-166.41 435,-166.41 435,-189.41"/>
<text text-anchor="middle" x="377" y="-174.21" font-family="Arial" font-size="14.00">EspTemperature</text>
</a>
</g>
</g>
<!-- Node2 -->
<g id="Node000002" class="node">
<title>Node2</title>
<g id="a_Node000002"><a xlink:href="classBaseTemperature.html" target="_top" xlink:title="Abstract base class for all temperature sensor implementations.">
<polygon fill="white" stroke="#666666" points="141.5,-349.41 17.5,-349.41 17.5,-326.41 141.5,-326.41 141.5,-349.41"/>
<text text-anchor="middle" x="79.5" y="-334.21" font-family="Arial" font-size="14.00">BaseTemperature</text>
</a>
</g>
</g>
<!-- Node2&#45;&gt;Node1 -->
<g id="edge1_Node000001_Node000002" class="edge">
<title>Node2&#45;&gt;Node1</title>
<g id="a_edge1_Node000001_Node000002"><a xlink:title=" ">
<path fill="none" stroke="#63b8ff" d="M116.63,-353.08C163.33,-370.08 245.25,-390.76 301,-353.91 358.91,-315.64 372.25,-222.55 375.2,-189.66"/>
<polygon fill="#63b8ff" stroke="#63b8ff" points="117.82,-349.79 107.23,-349.54 115.35,-356.34 117.82,-349.79"/>
</a>
</g>
</g>
<!-- Node2&#45;&gt;Node1 -->
<g id="edge8_Node000001_Node000002" class="edge">
<title>Node2&#45;&gt;Node1</title>
<g id="a_edge8_Node000001_Node000002"><a xlink:title=" ">
<path fill="none" stroke="#9a32cd" stroke-dasharray="5,2" d="M119.89,-322.83C137.21,-316.62 157.92,-309.76 177,-304.91 231.18,-291.16 253.68,-313.67 301,-283.91 338.02,-260.63 362,-211.76 371.45,-189.46"/>
<polygon fill="#9a32cd" stroke="#9a32cd" points="118.31,-319.68 110.12,-326.39 120.71,-326.25 118.31,-319.68"/>
</a>
</g>
<text text-anchor="start" x="177" y="-338.71" font-family="Arial" font-size="14.00" fill="grey"> monitoring_callback</text>
<text text-anchor="middle" x="239" y="-323.71" font-family="Arial" font-size="14.00" fill="grey">_</text>
<text text-anchor="middle" x="239" y="-308.71" font-family="Arial" font-size="14.00" fill="grey">threshold_callback_</text>
</g>
<!-- Node3 -->
<g id="Node000003" class="node">
<title>Node3</title>
<g id="a_Node000003"><a xlink:href="classPlatformMutex.html" target="_top" xlink:title=" ">
<polygon fill="white" stroke="#666666" points="132,-271.41 27,-271.41 27,-248.41 132,-248.41 132,-271.41"/>
<text text-anchor="middle" x="79.5" y="-256.21" font-family="Arial" font-size="14.00">PlatformMutex</text>
</a>
</g>
</g>
<!-- Node3&#45;&gt;Node1 -->
<g id="edge2_Node000001_Node000003" class="edge">
<title>Node3&#45;&gt;Node1</title>
<g id="a_edge2_Node000001_Node000003"><a xlink:title=" ">
<path fill="none" stroke="#9a32cd" stroke-dasharray="5,2" d="M142.23,-254.39C197.11,-248.91 272.86,-239.77 301,-228.91 324.94,-219.67 348.8,-201.52 362.98,-189.55"/>
<polygon fill="#9a32cd" stroke="#9a32cd" points="141.86,-250.91 132.25,-255.37 142.54,-257.88 141.86,-250.91"/>
</a>
</g>
<text text-anchor="middle" x="239" y="-268.71" font-family="Arial" font-size="14.00" fill="grey"> mutex_</text>
<text text-anchor="middle" x="239" y="-253.71" font-family="Arial" font-size="14.00" fill="grey">s_shared_mutex_</text>
</g>
<!-- Node4 -->
<g id="Node000004" class="node">
<title>Node4</title>
<g id="a_Node000004"><a xlink:href="structesp__temp__state__t.html" target="_top" xlink:title="ESP32&#45;C6 specific temperature sensor state.">
<polygon fill="white" stroke="#666666" points="142,-230.41 17,-230.41 17,-207.41 142,-207.41 142,-230.41"/>
<text text-anchor="middle" x="79.5" y="-215.21" font-family="Arial" font-size="14.00">esp_temp_state_t</text>
</a>
</g>
</g>
<!-- Node4&#45;&gt;Node1 -->
<g id="edge3_Node000001_Node000004" class="edge">
<title>Node4&#45;&gt;Node1</title>
<g id="a_edge3_Node000001_Node000004"><a xlink:title=" ">
<path fill="none" stroke="#9a32cd" stroke-dasharray="5,2" d="M152.21,-213.2C195.47,-209.23 251.6,-203.17 301,-194.91 310.09,-193.39 319.72,-191.46 328.95,-189.44"/>
<polygon fill="#9a32cd" stroke="#9a32cd" points="151.71,-209.73 142.06,-214.11 152.34,-216.7 151.71,-209.73"/>
</a>
</g>
<text text-anchor="middle" x="239" y="-213.71" font-family="Arial" font-size="14.00" fill="grey"> esp_state_</text>
</g>
<!-- Node5 -->
<g id="Node000005" class="node">
<title>Node5</title>
<g id="a_Node000005"><a xlink:href="structesp__temp__config__t.html" target="_top" xlink:title="ESP32&#45;C6 specific temperature sensor configuration.">
<polygon fill="white" stroke="#666666" points="145,-189.41 14,-189.41 14,-166.41 145,-166.41 145,-189.41"/>
<text text-anchor="middle" x="79.5" y="-174.21" font-family="Arial" font-size="14.00">esp_temp_config_t</text>
</a>
</g>
</g>
<!-- Node5&#45;&gt;Node1 -->
<g id="edge4_Node000001_Node000005" class="edge">
<title>Node5&#45;&gt;Node1</title>
<g id="a_edge4_Node000001_Node000005"><a xlink:title=" ">
<path fill="none" stroke="#9a32cd" stroke-dasharray="5,2" d="M155.61,-177.91C206.35,-177.91 272.3,-177.91 318.79,-177.91"/>
<polygon fill="#9a32cd" stroke="#9a32cd" points="155.35,-174.41 145.35,-177.91 155.35,-181.41 155.35,-174.41"/>
</a>
</g>
<text text-anchor="middle" x="239" y="-181.71" font-family="Arial" font-size="14.00" fill="grey"> esp_config_</text>
</g>
<!-- Node6 -->
<g id="Node000006" class="node">
<title>Node6</title>
<g id="a_Node000006"><a xlink:href="structhf__temp__config__t.html" target="_top" xlink:title="Temperature sensor configuration structure.">
<polygon fill="white" stroke="#666666" points="140,-148.41 19,-148.41 19,-125.41 140,-125.41 140,-148.41"/>
<text text-anchor="middle" x="79.5" y="-133.21" font-family="Arial" font-size="14.00">hf_temp_config_t</text>
</a>
</g>
</g>
<!-- Node6&#45;&gt;Node1 -->
<g id="edge5_Node000001_Node000006" class="edge">
<title>Node6&#45;&gt;Node1</title>
<g id="a_edge5_Node000001_Node000006"><a xlink:title=" ">
<path fill="none" stroke="#9a32cd" stroke-dasharray="5,2" d="M150.45,-141.22C193.99,-144.56 251.01,-150.14 301,-158.91 312.11,-160.86 324.01,-163.58 334.98,-166.35"/>
<polygon fill="#9a32cd" stroke="#9a32cd" points="150.49,-137.71 140.25,-140.46 149.97,-144.7 150.49,-137.71"/>
</a>
</g>
<text text-anchor="middle" x="239" y="-162.71" font-family="Arial" font-size="14.00" fill="grey"> base_config_</text>
</g>
<!-- Node7 -->
<g id="Node000007" class="node">
<title>Node7</title>
<g id="a_Node000007"><a xlink:href="structhf__temp__statistics__t.html" target="_top" xlink:title="Temperature sensor statistics.">
<polygon fill="white" stroke="#666666" points="148,-107.41 11,-107.41 11,-84.41 148,-84.41 148,-107.41"/>
<text text-anchor="middle" x="79.5" y="-92.21" font-family="Arial" font-size="14.00">hf_temp_statistics_t</text>
</a>
</g>
</g>
<!-- Node7&#45;&gt;Node1 -->
<g id="edge6_Node000001_Node000007" class="edge">
<title>Node7&#45;&gt;Node1</title>
<g id="a_edge6_Node000001_Node000007"><a xlink:title=" ">
<path fill="none" stroke="#9a32cd" stroke-dasharray="5,2" d="M158.43,-96.46C201.72,-99.04 255.79,-106.11 301,-123.91 325.78,-133.67 349.96,-153.48 363.9,-166.2"/>
<polygon fill="#9a32cd" stroke="#9a32cd" points="158.41,-92.96 148.24,-95.92 158.04,-99.95 158.41,-92.96"/>
</a>
</g>
<text text-anchor="middle" x="239" y="-127.71" font-family="Arial" font-size="14.00" fill="grey"> statistics_</text>
</g>
<!-- Node8 -->
<g id="Node000008" class="node">
<title>Node8</title>
<g id="a_Node000008"><a xlink:href="structhf__temp__diagnostics__t.html" target="_top" xlink:title="Temperature sensor diagnostics.">
<polygon fill="white" stroke="#666666" points="155.5,-66.41 3.5,-66.41 3.5,-43.41 155.5,-43.41 155.5,-66.41"/>
<text text-anchor="middle" x="79.5" y="-51.21" font-family="Arial" font-size="14.00">hf_temp_diagnostics_t</text>
</a>
</g>
</g>
<!-- Node8&#45;&gt;Node1 -->
<g id="edge7_Node000001_Node000008" class="edge">
<title>Node8&#45;&gt;Node1</title>
<g id="a_edge7_Node000001_Node000008"><a xlink:title=" ">
<path fill="none" stroke="#9a32cd" stroke-dasharray="5,2" d="M165.93,-48.2C208.97,-48.55 260.47,-54.94 301,-77.91 337.25,-98.46 361.31,-144.43 371.08,-166.14"/>
<polygon fill="#9a32cd" stroke="#9a32cd" points="165.75,-44.7 155.76,-48.22 165.77,-51.7 165.75,-44.7"/>
</a>
</g>
<text text-anchor="middle" x="239" y="-81.71" font-family="Arial" font-size="14.00" fill="grey"> diagnostics_</text>
</g>
<!-- Node9 -->
<g id="Node000009" class="node">
<title>Node9</title>
<g id="a_Node000009"><a xlink:href="structesp__temp__range__info__t.html" target="_top" xlink:title="Temperature range information structure.">
<polygon fill="white" stroke="#666666" points="159,-25.41 0,-25.41 0,-2.41 159,-2.41 159,-25.41"/>
<text text-anchor="middle" x="79.5" y="-10.21" font-family="Arial" font-size="14.00">esp_temp_range_info_t</text>
</a>
</g>
</g>
<!-- Node9&#45;&gt;Node1 -->
<g id="edge9_Node000001_Node000009" class="edge">
<title>Node9&#45;&gt;Node1</title>
<g id="a_edge9_Node000001_Node000009"><a xlink:title=" ">
<path fill="none" stroke="#9a32cd" stroke-dasharray="5,2" d="M154.43,-1.46C200.28,2.28 258.36,-0.59 301,-28.91 350.22,-61.59 368.62,-136.81 374.07,-166.01"/>
<polygon fill="#9a32cd" stroke="#9a32cd" points="153.88,2.01 144.25,-2.41 154.53,-4.96 153.88,2.01"/>
</a>
</g>
<text text-anchor="middle" x="239" y="-32.71" font-family="Arial" font-size="14.00" fill="grey"> RANGE_INFO</text>
</g>
</g>
</svg>
</svg>

<style type='text/css'>
<![CDATA[
[data-mouse-over-selected='false'] { opacity: 0.7; }
[data-mouse-over-selected='true']  { opacity: 1.0; }
]]>
</style>
<script type="application/ecmascript"><![CDATA[
document.addEventListener('DOMContentLoaded', (event) => {
  highlightEdges();
  highlightAdjacentNodes();
});
]]></script>
</svg>
