<?xml version="1.0" encoding="UTF-8" standalone="no"?>
<!DOCTYPE svg PUBLIC "-//W3C//DTD SVG 1.1//EN"
 "http://www.w3.org/Graphics/SVG/1.1/DTD/svg11.dtd">
<!-- Generated by graphviz version 2.43.0 (0)
 -->
<!-- Title: EspAdc Pages: 1 -->
<svg width="749pt" height="275pt"
 viewBox="0.00 0.00 749.00 275.07" xmlns="http://www.w3.org/2000/svg" xmlns:xlink="http://www.w3.org/1999/xlink">
<g id="graph0" class="graph" transform="scale(1 1) rotate(0) translate(4 271.07)">
<title>EspAdc</title>
<!-- Node1 -->
<g id="Node000001" class="node">
<title>Node1</title>
<g id="a_Node000001"><a xlink:title="ESP32 ADC implementation class.">
<polygon fill="#999999" stroke="#666666" points="741,-146.57 678,-146.57 678,-123.57 741,-123.57 741,-146.57"/>
<text text-anchor="middle" x="709.5" y="-131.37" font-family="Arial" font-size="14.00">EspAdc</text>
</a>
</g>
</g>
<!-- Node2 -->
<g id="Node000002" class="node">
<title>Node2</title>
<g id="a_Node000002"><a xlink:href="classBaseAdc.html" target="_top" xlink:title="Base class for ADCs.">
<polygon fill="white" stroke="#666666" points="457,-206.57 386,-206.57 386,-183.57 457,-183.57 457,-206.57"/>
<text text-anchor="middle" x="421.5" y="-191.37" font-family="Arial" font-size="14.00">BaseAdc</text>
</a>
</g>
</g>
<!-- Node2&#45;&gt;Node1 -->
<g id="edge1_Node000001_Node000002" class="edge">
<title>Node2&#45;&gt;Node1</title>
<g id="a_edge1_Node000001_Node000002"><a xlink:title=" ">
<path fill="none" stroke="#63b8ff" d="M467.54,-194.61C516.26,-192.87 595.59,-186.44 660,-164.07 671.68,-160.01 683.61,-152.92 692.72,-146.77"/>
<polygon fill="#63b8ff" stroke="#63b8ff" points="467.22,-191.11 457.33,-194.92 467.43,-198.11 467.22,-191.11"/>
</a>
</g>
</g>
<!-- Node3 -->
<g id="Node000003" class="node">
<title>Node3</title>
<g id="a_Node000003"><a xlink:href="structhf__adc__statistics__t.html" target="_top" xlink:title="ADC operation statistics.">
<polygon fill="white" stroke="#666666" points="156.5,-237.57 28.5,-237.57 28.5,-214.57 156.5,-214.57 156.5,-237.57"/>
<text text-anchor="middle" x="92.5" y="-222.37" font-family="Arial" font-size="14.00">hf_adc_statistics_t</text>
</a>
</g>
</g>
<!-- Node3&#45;&gt;Node1 -->
<g id="edge10_Node000001_Node000003" class="edge">
<title>Node3&#45;&gt;Node1</title>
<g id="a_edge10_Node000001_Node000003"><a xlink:title=" ">
<path fill="none" stroke="#9a32cd" stroke-dasharray="5,2" d="M166.66,-232.16C178.79,-232.95 191.24,-233.64 203,-234.07 406.87,-241.51 482.01,-290.76 660,-191.07 678.85,-180.51 693.85,-159.69 701.93,-146.63"/>
<polygon fill="#9a32cd" stroke="#9a32cd" points="166.79,-228.66 156.57,-231.47 166.31,-235.64 166.79,-228.66"/>
</a>
</g>
<text text-anchor="middle" x="421.5" y="-255.87" font-family="Arial" font-size="14.00" fill="grey"> statistics_</text>
</g>
<!-- Node3&#45;&gt;Node2 -->
<g id="edge2_Node000002_Node000003" class="edge">
<title>Node3&#45;&gt;Node2</title>
<g id="a_edge2_Node000002_Node000003"><a xlink:title=" ">
<path fill="none" stroke="#9a32cd" stroke-dasharray="5,2" d="M166.82,-219.12C235.12,-212.64 333.98,-203.27 385.81,-198.36"/>
<polygon fill="#9a32cd" stroke="#9a32cd" points="166.17,-215.66 156.55,-220.09 166.83,-222.63 166.17,-215.66"/>
</a>
</g>
<text text-anchor="middle" x="259.5" y="-218.87" font-family="Arial" font-size="14.00" fill="grey"> statistics_</text>
</g>
<!-- Node4 -->
<g id="Node000004" class="node">
<title>Node4</title>
<g id="a_Node000004"><a xlink:href="structhf__adc__diagnostics__t.html" target="_top" xlink:title="ADC diagnostic information.">
<polygon fill="white" stroke="#666666" points="164,-188.57 21,-188.57 21,-165.57 164,-165.57 164,-188.57"/>
<text text-anchor="middle" x="92.5" y="-173.37" font-family="Arial" font-size="14.00">hf_adc_diagnostics_t</text>
</a>
</g>
</g>
<!-- Node4&#45;&gt;Node1 -->
<g id="edge11_Node000001_Node000004" class="edge">
<title>Node4&#45;&gt;Node1</title>
<g id="a_edge11_Node000001_Node000004"><a xlink:title=" ">
<path fill="none" stroke="#9a32cd" stroke-dasharray="5,2" d="M174.06,-171.3C220.77,-167.97 280.7,-163.73 334,-160.07 461.74,-151.29 614.03,-141.26 677.91,-137.07"/>
<polygon fill="#9a32cd" stroke="#9a32cd" points="173.73,-167.81 164,-172.01 174.23,-174.79 173.73,-167.81"/>
</a>
</g>
<text text-anchor="middle" x="421.5" y="-163.87" font-family="Arial" font-size="14.00" fill="grey"> diagnostics_</text>
</g>
<!-- Node4&#45;&gt;Node2 -->
<g id="edge3_Node000002_Node000004" class="edge">
<title>Node4&#45;&gt;Node2</title>
<g id="a_edge3_Node000002_Node000004"><a xlink:title=" ">
<path fill="none" stroke="#9a32cd" stroke-dasharray="5,2" d="M174.44,-178.19C216.67,-179.13 269.16,-180.87 316,-184.07 339.3,-185.66 365.42,-188.41 385.72,-190.76"/>
<polygon fill="#9a32cd" stroke="#9a32cd" points="174.28,-174.68 164.21,-177.97 174.13,-181.68 174.28,-174.68"/>
</a>
</g>
<text text-anchor="middle" x="259.5" y="-187.87" font-family="Arial" font-size="14.00" fill="grey"> diagnostics_</text>
</g>
<!-- Node5 -->
<g id="Node000005" class="node">
<title>Node5</title>
<g id="a_Node000005"><a xlink:href="structhf__adc__unit__config__t.html" target="_top" xlink:title="ADC unit configuration structure.">
<polygon fill="white" stroke="#666666" points="492,-113.57 351,-113.57 351,-90.57 492,-90.57 492,-113.57"/>
<text text-anchor="middle" x="421.5" y="-98.37" font-family="Arial" font-size="14.00">hf_adc_unit_config_t</text>
</a>
</g>
</g>
<!-- Node5&#45;&gt;Node1 -->
<g id="edge4_Node000001_Node000005" class="edge">
<title>Node5&#45;&gt;Node1</title>
<g id="a_edge4_Node000001_Node000005"><a xlink:title=" ">
<path fill="none" stroke="#9a32cd" stroke-dasharray="5,2" d="M502.37,-104.45C548.69,-106.83 607.98,-111.58 660,-121.07 665.86,-122.14 672.03,-123.63 677.93,-125.24"/>
<polygon fill="#9a32cd" stroke="#9a32cd" points="502.25,-100.94 492.09,-103.95 501.91,-107.94 502.25,-100.94"/>
</a>
</g>
<text text-anchor="middle" x="593.5" y="-124.87" font-family="Arial" font-size="14.00" fill="grey"> config_</text>
</g>
<!-- Node6 -->
<g id="Node000006" class="node">
<title>Node6</title>
<g id="a_Node000006"><a xlink:href="structhf__adc__channel__config__t.html" target="_top" xlink:title="ADC channel configuration structure.">
<polygon fill="white" stroke="#666666" points="176,-133.57 9,-133.57 9,-110.57 176,-110.57 176,-133.57"/>
<text text-anchor="middle" x="92.5" y="-118.37" font-family="Arial" font-size="14.00">hf_adc_channel_config_t</text>
</a>
</g>
</g>
<!-- Node6&#45;&gt;Node5 -->
<g id="edge5_Node000005_Node000006" class="edge">
<title>Node6&#45;&gt;Node5</title>
<g id="a_edge5_Node000005_Node000006"><a xlink:title=" ">
<path fill="none" stroke="#9a32cd" stroke-dasharray="5,2" d="M186.3,-116.39C238.57,-113.2 302.78,-109.27 350.74,-106.34"/>
<polygon fill="#9a32cd" stroke="#9a32cd" points="185.78,-112.92 176.02,-117.02 186.21,-119.91 185.78,-112.92"/>
</a>
</g>
<text text-anchor="middle" x="259.5" y="-117.87" font-family="Arial" font-size="14.00" fill="grey"> channel_configs</text>
</g>
<!-- Node7 -->
<g id="Node000007" class="node">
<title>Node7</title>
<g id="a_Node000007"><a xlink:href="structhf__adc__continuous__config__t.html" target="_top" xlink:title="ADC continuous mode configuration structure.">
<polygon fill="white" stroke="#666666" points="185,-92.57 0,-92.57 0,-69.57 185,-69.57 185,-92.57"/>
<text text-anchor="middle" x="92.5" y="-77.37" font-family="Arial" font-size="14.00">hf_adc_continuous_config_t</text>
</a>
</g>
</g>
<!-- Node7&#45;&gt;Node5 -->
<g id="edge6_Node000005_Node000007" class="edge">
<title>Node7&#45;&gt;Node5</title>
<g id="a_edge6_Node000005_Node000007"><a xlink:title=" ">
<path fill="none" stroke="#9a32cd" stroke-dasharray="5,2" d="M195.12,-82.85C233.09,-84 276.56,-85.91 316,-89.07 327.3,-89.97 339.25,-91.2 350.89,-92.55"/>
<polygon fill="#9a32cd" stroke="#9a32cd" points="195.18,-79.35 185.08,-82.55 194.97,-86.34 195.18,-79.35"/>
</a>
</g>
<text text-anchor="middle" x="259.5" y="-92.87" font-family="Arial" font-size="14.00" fill="grey"> continuous_config</text>
</g>
<!-- Node8 -->
<g id="Node000008" class="node">
<title>Node8</title>
<g id="a_Node000008"><a xlink:href="structhf__adc__calibration__config__t.html" target="_top" xlink:title="ADC calibration configuration structure.">
<polygon fill="white" stroke="#666666" points="155.5,-51.07 29.5,-51.07 29.5,-13.07 155.5,-13.07 155.5,-51.07"/>
<text text-anchor="start" x="37.5" y="-35.87" font-family="Arial" font-size="14.00">hf_adc_calibration</text>
<text text-anchor="middle" x="92.5" y="-20.87" font-family="Arial" font-size="14.00">_config_t</text>
</a>
</g>
</g>
<!-- Node8&#45;&gt;Node5 -->
<g id="edge7_Node000005_Node000008" class="edge">
<title>Node8&#45;&gt;Node5</title>
<g id="a_edge7_Node000005_Node000008"><a xlink:title=" ">
<path fill="none" stroke="#9a32cd" stroke-dasharray="5,2" d="M165.67,-31.02C210.98,-33.06 269.44,-40.76 316,-64.07 326.12,-69.13 324.11,-76.58 334,-82.07 340.07,-85.43 346.67,-88.23 353.44,-90.56"/>
<polygon fill="#9a32cd" stroke="#9a32cd" points="165.75,-27.52 155.63,-30.65 165.49,-34.52 165.75,-27.52"/>
</a>
</g>
<text text-anchor="middle" x="259.5" y="-67.87" font-family="Arial" font-size="14.00" fill="grey"> calibration_config</text>
</g>
<!-- Node9 -->
<g id="Node000009" class="node">
<title>Node9</title>
<g id="a_Node000009"><a xlink:href="classRtosMutex.html" target="_top" xlink:title=" ">
<polygon fill="white" stroke="#666666" points="462.5,-72.57 380.5,-72.57 380.5,-49.57 462.5,-49.57 462.5,-72.57"/>
<text text-anchor="middle" x="421.5" y="-57.37" font-family="Arial" font-size="14.00">RtosMutex</text>
</a>
</g>
</g>
<!-- Node9&#45;&gt;Node1 -->
<g id="edge8_Node000001_Node000009" class="edge">
<title>Node9&#45;&gt;Node1</title>
<g id="a_edge8_Node000001_Node000009"><a xlink:title=" ">
<path fill="none" stroke="#9a32cd" stroke-dasharray="5,2" d="M472.52,-51.73C522.87,-44.9 601.27,-41.46 660,-72.07 681.42,-83.24 696.22,-108.58 703.44,-123.49"/>
<polygon fill="#9a32cd" stroke="#9a32cd" points="471.92,-48.28 462.53,-53.18 472.93,-55.21 471.92,-48.28"/>
</a>
</g>
<text text-anchor="middle" x="593.5" y="-90.87" font-family="Arial" font-size="14.00" fill="grey"> config_mutex_</text>
<text text-anchor="middle" x="593.5" y="-75.87" font-family="Arial" font-size="14.00" fill="grey">stats_mutex_</text>
</g>
<!-- Node10 -->
<g id="Node000010" class="node">
<title>Node10</title>
<g id="a_Node000010"><a xlink:href="structhf__adc__continuous__data__t.html" target="_top" xlink:title="ADC continuous data structure.">
<polygon fill="white" stroke="#666666" points="509,-31.57 334,-31.57 334,-8.57 509,-8.57 509,-31.57"/>
<text text-anchor="middle" x="421.5" y="-16.37" font-family="Arial" font-size="14.00">hf_adc_continuous_data_t</text>
</a>
</g>
</g>
<!-- Node10&#45;&gt;Node1 -->
<g id="edge9_Node000001_Node000010" class="edge">
<title>Node10&#45;&gt;Node1</title>
<g id="a_edge9_Node000001_Node000010"><a xlink:title=" ">
<path fill="none" stroke="#9a32cd" stroke-dasharray="5,2" d="M478.79,-6.66C530.38,2.26 606.63,6.64 660,-29.07 692.63,-50.91 703.66,-100.52 707.09,-123.27"/>
<polygon fill="#9a32cd" stroke="#9a32cd" points="478.02,-3.25 468.82,-8.5 479.28,-10.13 478.02,-3.25"/>
</a>
</g>
<text text-anchor="middle" x="593.5" y="-32.87" font-family="Arial" font-size="14.00" fill="grey"> continuous_callback_</text>
</g>
</g>
</svg>
