<?xml version="1.0" encoding="UTF-8" standalone="no"?>
<!DOCTYPE svg PUBLIC "-//W3C//DTD SVG 1.1//EN"
 "http://www.w3.org/Graphics/SVG/1.1/DTD/svg11.dtd">
<!-- Generated by graphviz version 2.43.0 (0)
 -->
<!-- Title: EspI2cBus Pages: 1 -->
<svg width="414pt" height="170pt"
 viewBox="0.00 0.00 414.00 170.00" xmlns="http://www.w3.org/2000/svg" xmlns:xlink="http://www.w3.org/1999/xlink">

<svg id="main" version="1.1" xmlns="http://www.w3.org/2000/svg" xmlns:xlink="http://www.w3.org/1999/xlink" xml:space="preserve" onload="init(evt)">
<style type="text/css"><![CDATA[
.node, .edge {opacity: 0.7;}
.node.selected, .edge.selected {opacity: 1;}
.edge:hover path { stroke: red; }
.edge:hover polygon { stroke: red; fill: red; }
]]></style>
<script type="application/ecmascript" xlink:href="svg.min.js"/>
<svg id="graph" class="graph">
<g id="graph0" class="graph" transform="scale(1 1) rotate(0) translate(4 166)">
<title>EspI2cBus</title>
<!-- Node1 -->
<g id="Node000001" class="node">
<title>Node1</title>
<g id="a_Node000001"><a xlink:title="Manages a single I2C bus. Handles bus initialization and device creation.">
<polygon fill="#999999" stroke="#666666" points="406,-88 325,-88 325,-65 406,-65 406,-88"/>
<text text-anchor="middle" x="365.5" y="-72.8" font-family="Arial" font-size="14.00">EspI2cBus</text>
</a>
</g>
</g>
<!-- Node2 -->
<g id="Node000002" class="node">
<title>Node2</title>
<g id="a_Node000002"><a xlink:href="structhf__i2c__master__bus__config__t.html" target="_top" xlink:title="I2C master bus configuration structure.">
<polygon fill="white" stroke="#666666" points="198,-162 12,-162 12,-139 198,-139 198,-162"/>
<text text-anchor="middle" x="105" y="-146.8" font-family="Arial" font-size="14.00">hf_i2c_master_bus_config_t</text>
</a>
</g>
</g>
<!-- Node2&#45;&gt;Node1 -->
<g id="edge1_Node000001_Node000002" class="edge">
<title>Node2&#45;&gt;Node1</title>
<g id="a_edge1_Node000001_Node000002"><a xlink:title=" ">
<path fill="none" stroke="#9a32cd" stroke-dasharray="5,2" d="M196.55,-137.02C231.7,-130.28 271.87,-120.67 307,-107.5 320.7,-102.36 335.19,-94.53 346.2,-88.03"/>
<polygon fill="#9a32cd" stroke="#9a32cd" points="195.49,-133.66 186.3,-138.94 196.77,-140.54 195.49,-133.66"/>
</a>
</g>
<text text-anchor="middle" x="267.5" y="-133.3" font-family="Arial" font-size="14.00" fill="grey"> config_</text>
</g>
<!-- Node3 -->
<g id="Node000003" class="node">
<title>Node3</title>
<g id="a_Node000003"><a xlink:href="classPlatformMutexImpl.html" target="_top" xlink:title=" ">
<polygon fill="white" stroke="#666666" points="210,-120.5 0,-120.5 0,-82.5 210,-82.5 210,-120.5"/>
<text text-anchor="start" x="8" y="-105.3" font-family="Arial" font-size="14.00">PlatformMutexImpl&lt;</text>
<text text-anchor="middle" x="105" y="-90.3" font-family="Arial" font-size="14.00"> PlatformMutexActiveBackend &gt;</text>
</a>
</g>
</g>
<!-- Node3&#45;&gt;Node1 -->
<g id="edge2_Node000001_Node000003" class="edge">
<title>Node3&#45;&gt;Node1</title>
<g id="a_edge2_Node000001_Node000003"><a xlink:title=" ">
<path fill="none" stroke="#9a32cd" stroke-dasharray="5,2" d="M220.03,-90.47C257.53,-86.85 296.77,-83.05 324.87,-80.33"/>
<polygon fill="#9a32cd" stroke="#9a32cd" points="219.64,-86.99 210.02,-91.44 220.31,-93.96 219.64,-86.99"/>
</a>
</g>
<text text-anchor="middle" x="267.5" y="-92.3" font-family="Arial" font-size="14.00" fill="grey"> mutex_</text>
</g>
<!-- Node4 -->
<g id="Node000004" class="node">
<title>Node4</title>
<g id="a_Node000004"><a xlink:href="structhf__i2c__statistics__t.html" target="_top" xlink:title="I2C operation statistics.">
<polygon fill="white" stroke="#666666" points="166.5,-64 43.5,-64 43.5,-41 166.5,-41 166.5,-64"/>
<text text-anchor="middle" x="105" y="-48.8" font-family="Arial" font-size="14.00">hf_i2c_statistics_t</text>
</a>
</g>
</g>
<!-- Node4&#45;&gt;Node1 -->
<g id="edge3_Node000001_Node000004" class="edge">
<title>Node4&#45;&gt;Node1</title>
<g id="a_edge3_Node000001_Node000004"><a xlink:title=" ">
<path fill="none" stroke="#9a32cd" stroke-dasharray="5,2" d="M177.01,-54.21C215.59,-55.77 264.06,-58.77 307,-64.5 312.76,-65.27 318.81,-66.29 324.73,-67.41"/>
<polygon fill="#9a32cd" stroke="#9a32cd" points="177.04,-50.71 166.91,-53.82 176.77,-57.7 177.04,-50.71"/>
</a>
</g>
<text text-anchor="middle" x="267.5" y="-68.3" font-family="Arial" font-size="14.00" fill="grey"> statistics_</text>
</g>
<!-- Node5 -->
<g id="Node000005" class="node">
<title>Node5</title>
<g id="a_Node000005"><a xlink:href="structhf__i2c__diagnostics__t.html" target="_top" xlink:title="I2C diagnostic information.">
<polygon fill="white" stroke="#666666" points="174.5,-23 35.5,-23 35.5,0 174.5,0 174.5,-23"/>
<text text-anchor="middle" x="105" y="-7.8" font-family="Arial" font-size="14.00">hf_i2c_diagnostics_t</text>
</a>
</g>
</g>
<!-- Node5&#45;&gt;Node1 -->
<g id="edge4_Node000001_Node000005" class="edge">
<title>Node5&#45;&gt;Node1</title>
<g id="a_edge4_Node000001_Node000005"><a xlink:title=" ">
<path fill="none" stroke="#9a32cd" stroke-dasharray="5,2" d="M184.89,-13.23C222.82,-16.17 268.34,-22.85 307,-37.5 323.69,-43.83 340.3,-55.87 351.35,-64.91"/>
<polygon fill="#9a32cd" stroke="#9a32cd" points="185.13,-9.74 174.91,-12.53 184.64,-16.72 185.13,-9.74"/>
</a>
</g>
<text text-anchor="middle" x="267.5" y="-41.3" font-family="Arial" font-size="14.00" fill="grey"> diagnostics_</text>
</g>
</g>
</svg>
</svg>

<style type='text/css'>
<![CDATA[
[data-mouse-over-selected='false'] { opacity: 0.7; }
[data-mouse-over-selected='true']  { opacity: 1.0; }
]]>
</style>
<script type="application/ecmascript"><![CDATA[
document.addEventListener('DOMContentLoaded', (event) => {
  highlightEdges();
  highlightAdjacentNodes();
});
]]></script>
</svg>
