<?xml version="1.0" encoding="UTF-8" standalone="no"?>
<!DOCTYPE svg PUBLIC "-//W3C//DTD SVG 1.1//EN"
 "http://www.w3.org/Graphics/SVG/1.1/DTD/svg11.dtd">
<!-- Generated by graphviz version 2.43.0 (0)
 -->
<!-- Title: EspGpio Pages: 1 -->
<svg width="663pt" height="194pt"
 viewBox="0.00 0.00 663.00 194.00" xmlns="http://www.w3.org/2000/svg" xmlns:xlink="http://www.w3.org/1999/xlink">
<g id="graph0" class="graph" transform="scale(1 1) rotate(0) translate(4 190)">
<title>EspGpio</title>
<!-- Node1 -->
<g id="Node000001" class="node">
<title>Node1</title>
<g id="a_Node000001"><a xlink:title="Advanced MCU&#45;specific implementation of unified BaseGpio with ESP32C6/ESP&#45;IDF v5.5+ features.">
<polygon fill="#999999" stroke="#666666" points="655,-107 586,-107 586,-84 655,-84 655,-107"/>
<text text-anchor="middle" x="620.5" y="-91.8" font-family="Arial" font-size="14.00">EspGpio</text>
</a>
</g>
</g>
<!-- Node2 -->
<g id="Node000002" class="node">
<title>Node2</title>
<g id="a_Node000002"><a xlink:href="classBaseGpio.html" target="_top" xlink:title="Unified GPIO base class for all digital GPIO implementations.">
<polygon fill="white" stroke="#666666" points="385.5,-166 308.5,-166 308.5,-143 385.5,-143 385.5,-166"/>
<text text-anchor="middle" x="347" y="-150.8" font-family="Arial" font-size="14.00">BaseGpio</text>
</a>
</g>
</g>
<!-- Node2&#45;&gt;Node1 -->
<g id="edge1_Node000001_Node000002" class="edge">
<title>Node2&#45;&gt;Node1</title>
<g id="a_edge1_Node000001_Node000002"><a xlink:title=" ">
<path fill="none" stroke="#63b8ff" d="M395.72,-163.58C441.88,-170.07 512.77,-173.89 568,-149.5 587.91,-140.71 603.87,-120.2 612.48,-107.14"/>
<polygon fill="#63b8ff" stroke="#63b8ff" points="396.1,-160.1 385.69,-162.07 395.06,-167.02 396.1,-160.1"/>
</a>
</g>
</g>
<!-- Node2&#45;&gt;Node1 -->
<g id="edge4_Node000001_Node000002" class="edge">
<title>Node2&#45;&gt;Node1</title>
<g id="a_edge4_Node000001_Node000002"><a xlink:title=" ">
<path fill="none" stroke="#9a32cd" stroke-dasharray="5,2" d="M395.43,-142.6C412.56,-138.49 432.1,-134.04 450,-130.5 502.11,-120.19 516.28,-123.63 568,-111.5 573.83,-110.13 579.97,-108.45 585.89,-106.69"/>
<polygon fill="#9a32cd" stroke="#9a32cd" points="394.54,-139.21 385.64,-144.96 396.19,-146.02 394.54,-139.21"/>
</a>
</g>
<text text-anchor="middle" x="509" y="-134.3" font-family="Arial" font-size="14.00" fill="grey"> interrupt_callback_</text>
</g>
<!-- Node3 -->
<g id="Node000003" class="node">
<title>Node3</title>
<g id="a_Node000003"><a xlink:href="structhf__gpio__statistics__t.html" target="_top" xlink:title="GPIO operation statistics.">
<polygon fill="white" stroke="#666666" points="139,-186 8,-186 8,-163 139,-163 139,-186"/>
<text text-anchor="middle" x="73.5" y="-170.8" font-family="Arial" font-size="14.00">hf_gpio_statistics_t</text>
</a>
</g>
</g>
<!-- Node3&#45;&gt;Node2 -->
<g id="edge2_Node000002_Node000003" class="edge">
<title>Node3&#45;&gt;Node2</title>
<g id="a_edge2_Node000002_Node000003"><a xlink:title=" ">
<path fill="none" stroke="#9a32cd" stroke-dasharray="5,2" d="M149.29,-168.99C200.85,-165.19 267.21,-160.3 308.17,-157.29"/>
<polygon fill="#9a32cd" stroke="#9a32cd" points="148.9,-165.51 139.19,-169.73 149.42,-172.49 148.9,-165.51"/>
</a>
</g>
<text text-anchor="middle" x="204.5" y="-170.3" font-family="Arial" font-size="14.00" fill="grey"> statistics_</text>
</g>
<!-- Node4 -->
<g id="Node000004" class="node">
<title>Node4</title>
<g id="a_Node000004"><a xlink:href="structhf__gpio__diagnostics__t.html" target="_top" xlink:title="GPIO diagnostic information.">
<polygon fill="white" stroke="#666666" points="147,-145 0,-145 0,-122 147,-122 147,-145"/>
<text text-anchor="middle" x="73.5" y="-129.8" font-family="Arial" font-size="14.00">hf_gpio_diagnostics_t</text>
</a>
</g>
</g>
<!-- Node4&#45;&gt;Node2 -->
<g id="edge3_Node000002_Node000004" class="edge">
<title>Node4&#45;&gt;Node2</title>
<g id="a_edge3_Node000002_Node000004"><a xlink:title=" ">
<path fill="none" stroke="#9a32cd" stroke-dasharray="5,2" d="M157.18,-136.83C184.81,-138.22 215.76,-140.09 244,-142.5 265.32,-144.32 289.06,-147.07 308.28,-149.48"/>
<polygon fill="#9a32cd" stroke="#9a32cd" points="157.32,-133.33 147.16,-136.33 156.97,-140.32 157.32,-133.33"/>
</a>
</g>
<text text-anchor="middle" x="204.5" y="-146.3" font-family="Arial" font-size="14.00" fill="grey"> diagnostics_</text>
</g>
<!-- Node5 -->
<g id="Node000005" class="node">
<title>Node5</title>
<g id="a_Node000005"><a xlink:href="structhf__gpio__flex__filter__config__t.html" target="_top" xlink:title="Flexible glitch filter configuration.">
<polygon fill="white" stroke="#666666" points="408,-120.5 286,-120.5 286,-82.5 408,-82.5 408,-120.5"/>
<text text-anchor="start" x="294" y="-105.3" font-family="Arial" font-size="14.00">hf_gpio_flex_filter</text>
<text text-anchor="middle" x="347" y="-90.3" font-family="Arial" font-size="14.00">_config_t</text>
</a>
</g>
</g>
<!-- Node5&#45;&gt;Node1 -->
<g id="edge5_Node000001_Node000005" class="edge">
<title>Node5&#45;&gt;Node1</title>
<g id="a_edge5_Node000001_Node000005"><a xlink:title=" ">
<path fill="none" stroke="#9a32cd" stroke-dasharray="5,2" d="M418.23,-97.66C428.87,-97.19 439.73,-96.78 450,-96.5 497.07,-95.21 551.51,-95.14 585.73,-95.27"/>
<polygon fill="#9a32cd" stroke="#9a32cd" points="417.95,-94.17 408.12,-98.12 418.27,-101.16 417.95,-94.17"/>
</a>
</g>
<text text-anchor="middle" x="509" y="-100.3" font-family="Arial" font-size="14.00" fill="grey"> flex_filter_config_</text>
</g>
<!-- Node6 -->
<g id="Node000006" class="node">
<title>Node6</title>
<g id="a_Node000006"><a xlink:href="structhf__gpio__sleep__config__t.html" target="_top" xlink:title="GPIO sleep mode configuration.">
<polygon fill="white" stroke="#666666" points="424.5,-64 269.5,-64 269.5,-41 424.5,-41 424.5,-64"/>
<text text-anchor="middle" x="347" y="-48.8" font-family="Arial" font-size="14.00">hf_gpio_sleep_config_t</text>
</a>
</g>
</g>
<!-- Node6&#45;&gt;Node1 -->
<g id="edge6_Node000001_Node000006" class="edge">
<title>Node6&#45;&gt;Node1</title>
<g id="a_edge6_Node000001_Node000006"><a xlink:title=" ">
<path fill="none" stroke="#9a32cd" stroke-dasharray="5,2" d="M434.82,-57.05C475.64,-60.44 524.73,-66.32 568,-76.5 575.98,-78.38 584.41,-81.14 592.09,-83.97"/>
<polygon fill="#9a32cd" stroke="#9a32cd" points="434.88,-53.55 424.63,-56.24 434.32,-60.52 434.88,-53.55"/>
</a>
</g>
<text text-anchor="middle" x="509" y="-80.3" font-family="Arial" font-size="14.00" fill="grey"> sleep_config_</text>
</g>
<!-- Node7 -->
<g id="Node000007" class="node">
<title>Node7</title>
<g id="a_Node000007"><a xlink:href="structhf__gpio__wakeup__config__t.html" target="_top" xlink:title="GPIO wake&#45;up configuration for deep sleep.">
<polygon fill="white" stroke="#666666" points="432,-23 262,-23 262,0 432,0 432,-23"/>
<text text-anchor="middle" x="347" y="-7.8" font-family="Arial" font-size="14.00">hf_gpio_wakeup_config_t</text>
</a>
</g>
</g>
<!-- Node7&#45;&gt;Node1 -->
<g id="edge7_Node000001_Node000007" class="edge">
<title>Node7&#45;&gt;Node1</title>
<g id="a_edge7_Node000001_Node000007"><a xlink:title=" ">
<path fill="none" stroke="#9a32cd" stroke-dasharray="5,2" d="M442.33,-10C482.9,-12.8 529.7,-20.82 568,-40.5 587.31,-50.42 603.23,-70.6 612.04,-83.57"/>
<polygon fill="#9a32cd" stroke="#9a32cd" points="442.35,-6.5 432.16,-9.4 441.94,-13.49 442.35,-6.5"/>
</a>
</g>
<text text-anchor="middle" x="509" y="-44.3" font-family="Arial" font-size="14.00" fill="grey"> wakeup_config_</text>
</g>
</g>
</svg>
