<?xml version="1.0" encoding="UTF-8" standalone="no"?>
<!DOCTYPE svg PUBLIC "-//W3C//DTD SVG 1.1//EN"
 "http://www.w3.org/Graphics/SVG/1.1/DTD/svg11.dtd">
<!-- Generated by graphviz version 2.43.0 (0)
 -->
<!-- Title: EspWifi Pages: 1 -->
<svg width="443pt" height="221pt"
 viewBox="0.00 0.00 443.00 220.71" xmlns="http://www.w3.org/2000/svg" xmlns:xlink="http://www.w3.org/1999/xlink">
<g id="graph0" class="graph" transform="scale(1 1) rotate(0) translate(4 216.71)">
<title>EspWifi</title>
<!-- Node1 -->
<g id="Node000001" class="node">
<title>Node1</title>
<g id="a_Node000001"><a xlink:title="Advanced ESP32 implementation of unified BaseWifi with ESP&#45;IDF v5.5+ features.">
<polygon fill="#999999" stroke="#666666" points="435,-105 372,-105 372,-82 435,-82 435,-105"/>
<text text-anchor="middle" x="403.5" y="-89.8" font-family="Arial" font-size="14.00">EspWifi</text>
</a>
</g>
</g>
<!-- Node2 -->
<g id="Node000002" class="node">
<title>Node2</title>
<g id="a_Node000002"><a xlink:href="classBaseWifi.html" target="_top" xlink:title="Abstract base class for WiFi functionality.">
<polygon fill="white" stroke="#666666" points="140.5,-208 69.5,-208 69.5,-185 140.5,-185 140.5,-208"/>
<text text-anchor="middle" x="105" y="-192.8" font-family="Arial" font-size="14.00">BaseWifi</text>
</a>
</g>
</g>
<!-- Node2&#45;&gt;Node1 -->
<g id="edge1_Node000001_Node000002" class="edge">
<title>Node2&#45;&gt;Node1</title>
<g id="a_edge1_Node000001_Node000002"><a xlink:title=" ">
<path fill="none" stroke="#63b8ff" d="M150.91,-205.94C203.81,-214.5 292.3,-220.5 354,-181.5 381.72,-163.98 394.88,-124.73 399.92,-105.12"/>
<polygon fill="#63b8ff" stroke="#63b8ff" points="151.26,-202.45 140.82,-204.21 150.08,-209.35 151.26,-202.45"/>
</a>
</g>
</g>
<!-- Node3 -->
<g id="Node000003" class="node">
<title>Node3</title>
<g id="a_Node000003"><a xlink:href="classPlatformMutexImpl.html" target="_top" xlink:title=" ">
<polygon fill="white" stroke="#666666" points="210,-161.5 0,-161.5 0,-123.5 210,-123.5 210,-161.5"/>
<text text-anchor="start" x="8" y="-146.3" font-family="Arial" font-size="14.00">PlatformMutexImpl&lt;</text>
<text text-anchor="middle" x="105" y="-131.3" font-family="Arial" font-size="14.00"> PlatformMutexActiveBackend &gt;</text>
</a>
</g>
</g>
<!-- Node3&#45;&gt;Node1 -->
<g id="edge2_Node000001_Node000003" class="edge">
<title>Node3&#45;&gt;Node1</title>
<g id="a_edge2_Node000001_Node000003"><a xlink:title=" ">
<path fill="none" stroke="#9a32cd" stroke-dasharray="5,2" d="M220.32,-134.77C262.74,-130.31 310.98,-123.34 354,-112.5 361.45,-110.62 369.3,-107.9 376.47,-105.09"/>
<polygon fill="#9a32cd" stroke="#9a32cd" points="219.83,-131.3 210.24,-135.79 220.54,-138.26 219.83,-131.3"/>
</a>
</g>
<text text-anchor="middle" x="291" y="-166.3" font-family="Arial" font-size="14.00" fill="grey"> m_event_mutex</text>
<text text-anchor="middle" x="291" y="-151.3" font-family="Arial" font-size="14.00" fill="grey">m_mutex</text>
<text text-anchor="middle" x="291" y="-136.3" font-family="Arial" font-size="14.00" fill="grey">m_scan_mutex</text>
</g>
<!-- Node4 -->
<g id="Node000004" class="node">
<title>Node4</title>
<g id="a_Node000004"><a xlink:href="structhf__wifi__station__config__t.html" target="_top" xlink:title="WiFi station configuration structure.">
<polygon fill="white" stroke="#666666" points="183.5,-105 26.5,-105 26.5,-82 183.5,-82 183.5,-105"/>
<text text-anchor="middle" x="105" y="-89.8" font-family="Arial" font-size="14.00">hf_wifi_station_config_t</text>
</a>
</g>
</g>
<!-- Node4&#45;&gt;Node1 -->
<g id="edge3_Node000001_Node000004" class="edge">
<title>Node4&#45;&gt;Node1</title>
<g id="a_edge3_Node000001_Node000004"><a xlink:title=" ">
<path fill="none" stroke="#9a32cd" stroke-dasharray="5,2" d="M193.77,-93.5C253.86,-93.5 329.94,-93.5 371.66,-93.5"/>
<polygon fill="#9a32cd" stroke="#9a32cd" points="193.51,-90 183.51,-93.5 193.51,-97 193.51,-90"/>
</a>
</g>
<text text-anchor="middle" x="291" y="-97.3" font-family="Arial" font-size="14.00" fill="grey"> m_sta_config</text>
</g>
<!-- Node5 -->
<g id="Node000005" class="node">
<title>Node5</title>
<g id="a_Node000005"><a xlink:href="structhf__wifi__ap__config__t.html" target="_top" xlink:title="WiFi Access Point configuration structure.">
<polygon fill="white" stroke="#666666" points="171,-64 39,-64 39,-41 171,-41 171,-64"/>
<text text-anchor="middle" x="105" y="-48.8" font-family="Arial" font-size="14.00">hf_wifi_ap_config_t</text>
</a>
</g>
</g>
<!-- Node5&#45;&gt;Node1 -->
<g id="edge4_Node000001_Node000005" class="edge">
<title>Node5&#45;&gt;Node1</title>
<g id="a_edge4_Node000001_Node000005"><a xlink:title=" ">
<path fill="none" stroke="#9a32cd" stroke-dasharray="5,2" d="M181.05,-53.62C230.7,-55.7 296.92,-61.08 354,-74.5 361.66,-76.3 369.71,-79.07 377.01,-81.95"/>
<polygon fill="#9a32cd" stroke="#9a32cd" points="181.16,-50.12 171.03,-53.23 180.89,-57.11 181.16,-50.12"/>
</a>
</g>
<text text-anchor="middle" x="291" y="-78.3" font-family="Arial" font-size="14.00" fill="grey"> m_ap_config</text>
</g>
<!-- Node6 -->
<g id="Node000006" class="node">
<title>Node6</title>
<g id="a_Node000006"><a xlink:href="structEspWifiAdvancedConfig.html" target="_top" xlink:title="ESP32&#45;specific WiFi configuration extensions.">
<polygon fill="white" stroke="#666666" points="186,-23 24,-23 24,0 186,0 186,-23"/>
<text text-anchor="middle" x="105" y="-7.8" font-family="Arial" font-size="14.00">EspWifiAdvancedConfig</text>
</a>
</g>
</g>
<!-- Node6&#45;&gt;Node1 -->
<g id="edge5_Node000001_Node000006" class="edge">
<title>Node6&#45;&gt;Node1</title>
<g id="a_edge5_Node000001_Node000006"><a xlink:title=" ">
<path fill="none" stroke="#9a32cd" stroke-dasharray="5,2" d="M196.55,-5.3C245.67,-5.68 305.98,-12.45 354,-37.5 373.16,-47.49 388.06,-68.49 396.04,-81.74"/>
<polygon fill="#9a32cd" stroke="#9a32cd" points="196.24,-1.8 186.24,-5.31 196.25,-8.8 196.24,-1.8"/>
</a>
</g>
<text text-anchor="middle" x="291" y="-41.3" font-family="Arial" font-size="14.00" fill="grey"> m_advanced_config</text>
</g>
</g>
</svg>
