<?xml version="1.0" encoding="UTF-8" standalone="no"?>
<!DOCTYPE svg PUBLIC "-//W3C//DTD SVG 1.1//EN"
 "http://www.w3.org/Graphics/SVG/1.1/DTD/svg11.dtd">
<!-- Generated by graphviz version 2.43.0 (0)
 -->
<!-- Title: EspI2cBus Pages: 1 -->
<svg width="616pt" height="105pt"
 viewBox="0.00 0.00 615.50 105.00" xmlns="http://www.w3.org/2000/svg" xmlns:xlink="http://www.w3.org/1999/xlink">
<g id="graph0" class="graph" transform="scale(1 1) rotate(0) translate(4 101)">
<title>EspI2cBus</title>
<!-- Node1 -->
<g id="Node000001" class="node">
<title>Node1</title>
<g id="a_Node000001"><a xlink:title="Manages a single I2C bus. Handles bus initialization and device creation.">
<polygon fill="#999999" stroke="#666666" points="363.5,-23 282.5,-23 282.5,0 363.5,0 363.5,-23"/>
<text text-anchor="middle" x="323" y="-7.8" font-family="Arial" font-size="14.00">EspI2cBus</text>
</a>
</g>
</g>
<!-- Node2 -->
<g id="Node000002" class="node">
<title>Node2</title>
<g id="a_Node000002"><a xlink:href="structhf__i2c__master__bus__config__t.html" target="_top" xlink:title="I2C master bus configuration structure.">
<polygon fill="white" stroke="#666666" points="186,-97 0,-97 0,-74 186,-74 186,-97"/>
<text text-anchor="middle" x="93" y="-81.8" font-family="Arial" font-size="14.00">hf_i2c_master_bus_config_t</text>
</a>
</g>
</g>
<!-- Node2&#45;&gt;Node1 -->
<g id="edge1_Node000001_Node000002" class="edge">
<title>Node2&#45;&gt;Node1</title>
<g id="a_edge1_Node000001_Node000002"><a xlink:title=" ">
<path fill="none" stroke="#9a32cd" stroke-dasharray="5,2" d="M136.58,-70.86C180.97,-56.96 248.86,-35.71 289.3,-23.05"/>
<polygon fill="#9a32cd" stroke="#9a32cd" points="135.43,-67.55 126.94,-73.88 137.53,-74.23 135.43,-67.55"/>
</a>
</g>
<text text-anchor="middle" x="253" y="-44.8" font-family="Arial" font-size="14.00" fill="grey"> config_</text>
</g>
<!-- Node3 -->
<g id="Node000003" class="node">
<title>Node3</title>
<g id="a_Node000003"><a xlink:href="classPlatformMutex.html" target="_top" xlink:title=" ">
<polygon fill="white" stroke="#666666" points="309.5,-97 204.5,-97 204.5,-74 309.5,-74 309.5,-97"/>
<text text-anchor="middle" x="257" y="-81.8" font-family="Arial" font-size="14.00">PlatformMutex</text>
</a>
</g>
</g>
<!-- Node3&#45;&gt;Node1 -->
<g id="edge2_Node000001_Node000003" class="edge">
<title>Node3&#45;&gt;Node1</title>
<g id="a_edge2_Node000001_Node000003"><a xlink:title=" ">
<path fill="none" stroke="#9a32cd" stroke-dasharray="5,2" d="M273.53,-66.47C286.03,-52.83 302.77,-34.56 313.22,-23.17"/>
<polygon fill="#9a32cd" stroke="#9a32cd" points="270.92,-64.14 266.74,-73.88 276.08,-68.87 270.92,-64.14"/>
</a>
</g>
<text text-anchor="middle" x="320.5" y="-44.8" font-family="Arial" font-size="14.00" fill="grey"> mutex_</text>
</g>
<!-- Node4 -->
<g id="Node000004" class="node">
<title>Node4</title>
<g id="a_Node000004"><a xlink:href="structhf__i2c__statistics__t.html" target="_top" xlink:title="I2C operation statistics.">
<polygon fill="white" stroke="#666666" points="450.5,-97 327.5,-97 327.5,-74 450.5,-74 450.5,-97"/>
<text text-anchor="middle" x="389" y="-81.8" font-family="Arial" font-size="14.00">hf_i2c_statistics_t</text>
</a>
</g>
</g>
<!-- Node4&#45;&gt;Node1 -->
<g id="edge3_Node000001_Node000004" class="edge">
<title>Node4&#45;&gt;Node1</title>
<g id="a_edge3_Node000001_Node000004"><a xlink:title=" ">
<path fill="none" stroke="#9a32cd" stroke-dasharray="5,2" d="M372.47,-66.47C359.97,-52.83 343.23,-34.56 332.78,-23.17"/>
<polygon fill="#9a32cd" stroke="#9a32cd" points="369.92,-68.87 379.26,-73.88 375.08,-64.14 369.92,-68.87"/>
</a>
</g>
<text text-anchor="middle" x="393" y="-44.8" font-family="Arial" font-size="14.00" fill="grey"> statistics_</text>
</g>
<!-- Node5 -->
<g id="Node000005" class="node">
<title>Node5</title>
<g id="a_Node000005"><a xlink:href="structhf__i2c__diagnostics__t.html" target="_top" xlink:title="I2C diagnostic information.">
<polygon fill="white" stroke="#666666" points="607.5,-97 468.5,-97 468.5,-74 607.5,-74 607.5,-97"/>
<text text-anchor="middle" x="538" y="-81.8" font-family="Arial" font-size="14.00">hf_i2c_diagnostics_t</text>
</a>
</g>
</g>
<!-- Node5&#45;&gt;Node1 -->
<g id="edge4_Node000001_Node000005" class="edge">
<title>Node5&#45;&gt;Node1</title>
<g id="a_edge4_Node000001_Node000005"><a xlink:title=" ">
<path fill="none" stroke="#9a32cd" stroke-dasharray="5,2" d="M504.34,-69.88C482.99,-60.91 454.65,-49.53 429,-41 407.66,-33.9 383.48,-27.29 363.6,-22.23"/>
<polygon fill="#9a32cd" stroke="#9a32cd" points="503.06,-73.14 513.63,-73.82 505.79,-66.69 503.06,-73.14"/>
</a>
</g>
<text text-anchor="middle" x="507.5" y="-44.8" font-family="Arial" font-size="14.00" fill="grey"> diagnostics_</text>
</g>
</g>
</svg>
