<?xml version="1.0" encoding="UTF-8" standalone="no"?>
<!DOCTYPE svg PUBLIC "-//W3C//DTD SVG 1.1//EN"
 "http://www.w3.org/Graphics/SVG/1.1/DTD/svg11.dtd">
<!-- Generated by graphviz version 2.43.0 (0)
 -->
<!-- Title: EspSpiDevice Pages: 1 -->
<!--zoomable 232 -->

<svg id="main" version="1.1" xmlns="http://www.w3.org/2000/svg" xmlns:xlink="http://www.w3.org/1999/xlink" xml:space="preserve" onload="init(evt)">
<style type="text/css"><![CDATA[
.node, .edge {opacity: 0.7;}
.node.selected, .edge.selected {opacity: 1;}
.edge:hover path { stroke: red; }
.edge:hover polygon { stroke: red; fill: red; }
]]></style>

<defs>
  <circle id="rim" cx="0" cy="0" r="7"/>
  <circle id="rim2" cx="0" cy="0" r="3.5"/>
  <g id="zoomPlus">
    <use xlink:href="#rim" fill="#404040"><set attributeName="fill" to="#808080" begin="zoomplus.mouseover" end="zoomplus.mouseout"/></use>
    <path d="M-4,0h8M0,-4v8" fill="none" stroke="white" stroke-width="1.5" pointer-events="none"/>
  </g>
  <g id="zoomMin">
    <use xlink:href="#rim" fill="#404040"><set attributeName="fill" to="#808080" begin="zoomminus.mouseover" end="zoomminus.mouseout"/></use>
    <path d="M-4,0h8" fill="none" stroke="white" stroke-width="1.5" pointer-events="none"/>
  </g>
  <g id="arrowUp" transform="translate(30 24)">
    <use xlink:href="#rim"/>
    <path pointer-events="none" fill="none" stroke="white" stroke-width="1.5" d="M0,-3.0v7 M-2.5,-0.5L0,-3.0L2.5,-0.5"/>
  </g>
  <g id="arrowRight" transform="rotate(90) translate(36 -43)">
    <use xlink:href="#rim"/>
    <path pointer-events="none" fill="none" stroke="white" stroke-width="1.5" d="M0,-3.0v7 M-2.5,-0.5L0,-3.0L2.5,-0.5"/>
  </g>
  <g id="arrowDown" transform="rotate(180) translate(-30 -48)">
    <use xlink:href="#rim"/>
    <path pointer-events="none" fill="none" stroke="white" stroke-width="1.5" d="M0,-3.0v7 M-2.5,-0.5L0,-3.0L2.5,-0.5"/>
  </g>
  <g id="arrowLeft" transform="rotate(270) translate(-36 17)">
    <use xlink:href="#rim"/>
    <path pointer-events="none" fill="none" stroke="white" stroke-width="1.5" d="M0,-3.0v7 M-2.5,-0.5L0,-3.0L2.5,-0.5"/>
  </g>
  <g id="resetDef">
    <use xlink:href="#rim2" fill="#404040"><set attributeName="fill" to="#808080" begin="reset.mouseover" end="reset.mouseout"/></use>
  </g>
</defs>
<script type="application/ecmascript">
var viewWidth = 703;
var viewHeight = 232;
var sectionId = 'dynsection-1';
</script>
<script type="application/ecmascript" xlink:href="svg.min.js"/>
<svg id="graph" class="graph">
<g id="viewport">
<title>EspSpiDevice</title>
<!-- Node1 -->
<g id="Node000001" class="node">
<title>Node1</title>
<g id="a_Node000001"><a xlink:title="Represents a single SPI device on a bus (CS/config/handle).">
<polygon fill="#999999" stroke="#666666" points="695,-87 594,-87 594,-64 695,-64 695,-87"/>
<text text-anchor="middle" x="644.5" y="-71.8" font-family="Arial" font-size="14.00">EspSpiDevice</text>
</a>
</g>
</g>
<!-- Node2 -->
<g id="Node000002" class="node">
<title>Node2</title>
<g id="a_Node000002"><a xlink:href="classBaseSpi.html" target="_top" xlink:title="Abstract base class for SPI device implementations.">
<polygon fill="white" stroke="#666666" points="435.5,-183 368.5,-183 368.5,-160 435.5,-160 435.5,-183"/>
<text text-anchor="middle" x="402" y="-167.8" font-family="Arial" font-size="14.00">BaseSpi</text>
</a>
</g>
</g>
<!-- Node2&#45;&gt;Node1 -->
<g id="edge1_Node000001_Node000002" class="edge">
<title>Node2&#45;&gt;Node1</title>
<g id="a_edge1_Node000001_Node000002"><a xlink:title=" ">
<path fill="none" stroke="#63b8ff" d="M445.79,-158.71C481.24,-147.63 532.65,-130.44 576,-111.5 592.55,-104.27 610.57,-94.56 623.82,-87.05"/>
<polygon fill="#63b8ff" stroke="#63b8ff" points="444.3,-155.51 435.78,-161.81 446.37,-162.2 444.3,-155.51"/>
</a>
</g>
</g>
<!-- Node3 -->
<g id="Node000003" class="node">
<title>Node3</title>
<g id="a_Node000003"><a xlink:href="structhf__spi__statistics__t.html" target="_top" xlink:title="SPI operation statistics.">
<polygon fill="white" stroke="#666666" points="166.5,-224 43.5,-224 43.5,-201 166.5,-201 166.5,-224"/>
<text text-anchor="middle" x="105" y="-208.8" font-family="Arial" font-size="14.00">hf_spi_statistics_t</text>
</a>
</g>
</g>
<!-- Node3&#45;&gt;Node2 -->
<g id="edge2_Node000002_Node000003" class="edge">
<title>Node3&#45;&gt;Node2</title>
<g id="a_edge2_Node000002_Node000003"><a xlink:title=" ">
<path fill="none" stroke="#9a32cd" stroke-dasharray="5,2" d="M176.97,-206.31C215.54,-202.55 264.01,-197.18 307,-190.5 327.4,-187.33 350.09,-182.77 368.07,-178.92"/>
<polygon fill="#9a32cd" stroke="#9a32cd" points="176.5,-202.84 166.88,-207.28 177.17,-209.81 176.5,-202.84"/>
</a>
</g>
<text text-anchor="middle" x="267.5" y="-204.3" font-family="Arial" font-size="14.00" fill="grey"> statistics_</text>
</g>
<!-- Node4 -->
<g id="Node000004" class="node">
<title>Node4</title>
<g id="a_Node000004"><a xlink:href="structhf__spi__diagnostics__t.html" target="_top" xlink:title="SPI diagnostic information.">
<polygon fill="white" stroke="#666666" points="174.5,-183 35.5,-183 35.5,-160 174.5,-160 174.5,-183"/>
<text text-anchor="middle" x="105" y="-167.8" font-family="Arial" font-size="14.00">hf_spi_diagnostics_t</text>
</a>
</g>
</g>
<!-- Node4&#45;&gt;Node2 -->
<g id="edge3_Node000002_Node000004" class="edge">
<title>Node4&#45;&gt;Node2</title>
<g id="a_edge3_Node000002_Node000004"><a xlink:title=" ">
<path fill="none" stroke="#9a32cd" stroke-dasharray="5,2" d="M185.01,-171.5C245.06,-171.5 324.59,-171.5 368.46,-171.5"/>
<polygon fill="#9a32cd" stroke="#9a32cd" points="184.79,-168 174.79,-171.5 184.79,-175 184.79,-168"/>
</a>
</g>
<text text-anchor="middle" x="267.5" y="-175.3" font-family="Arial" font-size="14.00" fill="grey"> diagnostics_</text>
</g>
<!-- Node5 -->
<g id="Node000005" class="node">
<title>Node5</title>
<g id="a_Node000005"><a xlink:href="classEspSpiBus.html" target="_top" xlink:title="Manages a single SPI bus (host). Handles bus init/deinit and device creation.">
<polygon fill="white" stroke="#666666" points="443.5,-116 360.5,-116 360.5,-93 443.5,-93 443.5,-116"/>
<text text-anchor="middle" x="402" y="-100.8" font-family="Arial" font-size="14.00">EspSpiBus</text>
</a>
</g>
</g>
<!-- Node5&#45;&gt;Node1 -->
<g id="edge4_Node000001_Node000005" class="edge">
<title>Node5&#45;&gt;Node1</title>
<g id="a_edge4_Node000001_Node000005"><a xlink:title=" ">
<path fill="none" stroke="#9a32cd" stroke-dasharray="5,2" d="M453.62,-98.4C494.81,-93.43 552.64,-86.46 593.63,-81.51"/>
<polygon fill="#9a32cd" stroke="#9a32cd" points="453.03,-94.94 443.53,-99.61 453.87,-101.89 453.03,-94.94"/>
</a>
</g>
<text text-anchor="middle" x="536.5" y="-96.3" font-family="Arial" font-size="14.00" fill="grey"> parent_bus_</text>
</g>
<!-- Node6 -->
<g id="Node000006" class="node">
<title>Node6</title>
<g id="a_Node000006"><a xlink:href="structhf__spi__bus__config__t.html" target="_top" xlink:title="Platform&#45;agnostic SPI bus configuration for STM32.">
<polygon fill="white" stroke="#666666" points="173.5,-142 36.5,-142 36.5,-119 173.5,-119 173.5,-142"/>
<text text-anchor="middle" x="105" y="-126.8" font-family="Arial" font-size="14.00">hf_spi_bus_config_t</text>
</a>
</g>
</g>
<!-- Node6&#45;&gt;Node5 -->
<g id="edge5_Node000005_Node000006" class="edge">
<title>Node6&#45;&gt;Node5</title>
<g id="a_edge5_Node000005_Node000006"><a xlink:title=" ">
<path fill="none" stroke="#9a32cd" stroke-dasharray="5,2" d="M183.69,-123.65C240.41,-118.65 315.03,-112.08 360.43,-108.08"/>
<polygon fill="#9a32cd" stroke="#9a32cd" points="183.33,-120.17 173.68,-124.54 183.95,-127.14 183.33,-120.17"/>
</a>
</g>
<text text-anchor="middle" x="267.5" y="-122.3" font-family="Arial" font-size="14.00" fill="grey"> config_</text>
</g>
<!-- Node7 -->
<g id="Node000007" class="node">
<title>Node7</title>
<g id="a_Node000007"><a xlink:href="classPlatformMutexImpl.html" target="_top" xlink:title=" ">
<polygon fill="white" stroke="#666666" points="210,-89.5 0,-89.5 0,-51.5 210,-51.5 210,-89.5"/>
<text text-anchor="start" x="8" y="-74.3" font-family="Arial" font-size="14.00">PlatformMutexImpl&lt;</text>
<text text-anchor="middle" x="105" y="-59.3" font-family="Arial" font-size="14.00"> PlatformMutexActiveBackend &gt;</text>
</a>
</g>
</g>
<!-- Node7&#45;&gt;Node1 -->
<g id="edge8_Node000001_Node000007" class="edge">
<title>Node7&#45;&gt;Node1</title>
<g id="a_edge8_Node000001_Node000007"><a xlink:title=" ">
<path fill="none" stroke="#9a32cd" stroke-dasharray="5,2" d="M220.37,-68.96C294.18,-68.27 392.27,-67.92 479,-69.5 517.57,-70.2 561.21,-71.83 593.84,-73.22"/>
<polygon fill="#9a32cd" stroke="#9a32cd" points="220.08,-65.46 210.12,-69.06 220.15,-72.46 220.08,-65.46"/>
</a>
</g>
<text text-anchor="middle" x="402" y="-73.3" font-family="Arial" font-size="14.00" fill="grey"> mutex_</text>
</g>
<!-- Node7&#45;&gt;Node5 -->
<g id="edge6_Node000005_Node000007" class="edge">
<title>Node7&#45;&gt;Node5</title>
<g id="a_edge6_Node000005_Node000007"><a xlink:title=" ">
<path fill="none" stroke="#9a32cd" stroke-dasharray="5,2" d="M220.03,-83.5C248.44,-86.75 278.83,-90.24 307,-93.5 324.46,-95.52 343.75,-97.77 360.29,-99.71"/>
<polygon fill="#9a32cd" stroke="#9a32cd" points="220.4,-80.02 210.07,-82.36 219.61,-86.97 220.4,-80.02"/>
</a>
</g>
<text text-anchor="middle" x="267.5" y="-97.3" font-family="Arial" font-size="14.00" fill="grey"> mutex_</text>
</g>
<!-- Node8 -->
<g id="Node000008" class="node">
<title>Node8</title>
<g id="a_Node000008"><a xlink:href="structhf__spi__device__config__t.html" target="_top" xlink:title="SPI device configuration for STM32.">
<polygon fill="white" stroke="#666666" points="479,-23 325,-23 325,0 479,0 479,-23"/>
<text text-anchor="middle" x="402" y="-7.8" font-family="Arial" font-size="14.00">hf_spi_device_config_t</text>
</a>
</g>
</g>
<!-- Node8&#45;&gt;Node1 -->
<g id="edge7_Node000001_Node000008" class="edge">
<title>Node8&#45;&gt;Node1</title>
<g id="a_edge7_Node000001_Node000008"><a xlink:title=" ">
<path fill="none" stroke="#9a32cd" stroke-dasharray="5,2" d="M489.54,-12.89C517.76,-15.47 548.81,-20.62 576,-30.5 596.65,-38.01 617.2,-53.08 630.1,-63.7"/>
<polygon fill="#9a32cd" stroke="#9a32cd" points="489.54,-9.38 479.29,-12.06 488.97,-16.36 489.54,-9.38"/>
</a>
</g>
<text text-anchor="middle" x="536.5" y="-34.3" font-family="Arial" font-size="14.00" fill="grey"> config_</text>
</g>
</g>
</svg>

<g id="navigator" transform="translate(0 0)" fill="#404254">
  <rect fill="#f2f5e9" fill-opacity="0.5" stroke="#606060" stroke-width=".5" x="0" y="0" width="60" height="60"/>
  <use id="zoomplus" xlink:href="#zoomPlus" x="17" y="9" onmousedown="handleZoom(evt,'in')"/>
  <use id="zoomminus" xlink:href="#zoomMin" x="42" y="9" onmousedown="handleZoom(evt,'out')"/>
  <use id="reset" xlink:href="#resetDef" x="30" y="36" onmousedown="handleReset()"/>
   <use id="arrowup" xlink:href="#arrowUp" x="0" y="0" onmousedown="handlePan(0,-1)"/>
  <use id="arrowright" xlink:href="#arrowRight" x="0" y="0" onmousedown="handlePan(1,0)"/>
  <use id="arrowdown" xlink:href="#arrowDown" x="0" y="0" onmousedown="handlePan(0,1)"/>
  <use id="arrowleft" xlink:href="#arrowLeft" x="0" y="0" onmousedown="handlePan(-1,0)"/>
</g>
<svg viewBox="0 0 15 15" width="100%" height="30px" preserveAspectRatio="xMaxYMin meet">
 <g id="arrow_out" transform="scale(0.3 0.3)">
  <a xlink:href="classEspSpiDevice__coll__graph_org.svg" target="_base">
   <rect id="button" ry="5" rx="5" y="6" x="6" height="38" width="38"
        fill="#f2f5e9" fill-opacity="0.5" stroke="#606060" stroke-width="1.0"/>
   <path id="arrow"
     d="M 11.500037,31.436501 C 11.940474,20.09759 22.043105,11.32322 32.158766,21.979434 L 37.068811,17.246167 C 37.068811,17.246167 37.088388,32 37.088388,32 L 22.160133,31.978069 C 22.160133,31.978069 26.997745,27.140456 26.997745,27.140456 C 18.528582,18.264221 13.291696,25.230495 11.500037,31.436501 z"
     style="fill:#404040;"/>
  </a>
 </g>
</svg>

<style type='text/css'>
<![CDATA[
[data-mouse-over-selected='false'] { opacity: 0.7; }
[data-mouse-over-selected='true']  { opacity: 1.0; }
]]>
</style>
<script type="application/ecmascript"><![CDATA[
document.addEventListener('DOMContentLoaded', (event) => {
  highlightEdges();
  highlightAdjacentNodes();
});
]]></script>
</svg>
