<?xml version="1.0" encoding="UTF-8" standalone="no"?>
<!DOCTYPE svg PUBLIC "-//W3C//DTD SVG 1.1//EN"
 "http://www.w3.org/Graphics/SVG/1.1/DTD/svg11.dtd">
<!-- Generated by graphviz version 2.43.0 (0)
 -->
<!-- Title: EspCan Pages: 1 -->
<svg width="692pt" height="535pt"
 viewBox="0.00 0.00 692.00 535.43" xmlns="http://www.w3.org/2000/svg" xmlns:xlink="http://www.w3.org/1999/xlink">
<g id="graph0" class="graph" transform="scale(1 1) rotate(0) translate(4 531.43)">
<title>EspCan</title>
<!-- Node1 -->
<g id="Node000001" class="node">
<title>Node1</title>
<g id="a_Node000001"><a xlink:title="ESP32 CAN (TWAI) implementation using ESP&#45;IDF v5.5+ node&#45;based API.">
<polygon fill="#999999" stroke="#666666" points="684,-245.93 619,-245.93 619,-222.93 684,-222.93 684,-245.93"/>
<text text-anchor="middle" x="651.5" y="-230.73" font-family="Arial" font-size="14.00">EspCan</text>
</a>
</g>
</g>
<!-- Node2 -->
<g id="Node000002" class="node">
<title>Node2</title>
<g id="a_Node000002"><a xlink:href="classBaseCan.html" target="_top" xlink:title="Abstract base class defining the unified CAN bus API.">
<polygon fill="white" stroke="#666666" points="399,-439.93 327,-439.93 327,-416.93 399,-416.93 399,-439.93"/>
<text text-anchor="middle" x="363" y="-424.73" font-family="Arial" font-size="14.00">BaseCan</text>
</a>
</g>
</g>
<!-- Node2&#45;&gt;Node1 -->
<g id="edge1_Node000001_Node000002" class="edge">
<title>Node2&#45;&gt;Node1</title>
<g id="a_edge1_Node000001_Node000002"><a xlink:title=" ">
<path fill="none" stroke="#63b8ff" d="M409.21,-435.85C461.6,-441.76 547.58,-442.7 601,-397.43 647.48,-358.04 651.21,-276.49 650.89,-246.14"/>
<polygon fill="#63b8ff" stroke="#63b8ff" points="409.55,-432.37 399.19,-434.62 408.69,-439.32 409.55,-432.37"/>
</a>
</g>
</g>
<!-- Node3 -->
<g id="Node000003" class="node">
<title>Node3</title>
<g id="a_Node000003"><a xlink:href="structhf__can__statistics__t.html" target="_top" xlink:title="CAN bus statistics structure for performance monitoring.">
<polygon fill="white" stroke="#666666" points="135.5,-480.93 7.5,-480.93 7.5,-457.93 135.5,-457.93 135.5,-480.93"/>
<text text-anchor="middle" x="71.5" y="-465.73" font-family="Arial" font-size="14.00">hf_can_statistics_t</text>
</a>
</g>
</g>
<!-- Node3&#45;&gt;Node1 -->
<g id="edge11_Node000001_Node000003" class="edge">
<title>Node3&#45;&gt;Node1</title>
<g id="a_edge11_Node000001_Node000003"><a xlink:title=" ">
<path fill="none" stroke="#9a32cd" stroke-dasharray="5,2" d="M121.96,-483.48C225.32,-509.53 465.78,-552.33 601,-431.43 629.26,-406.16 644.97,-284.38 649.27,-246.02"/>
<polygon fill="#9a32cd" stroke="#9a32cd" points="122.66,-480.04 112.1,-480.94 120.91,-486.82 122.66,-480.04"/>
</a>
</g>
<text text-anchor="middle" x="363" y="-516.23" font-family="Arial" font-size="14.00" fill="grey"> statistics_</text>
</g>
<!-- Node3&#45;&gt;Node2 -->
<g id="edge2_Node000002_Node000003" class="edge">
<title>Node3&#45;&gt;Node2</title>
<g id="a_edge2_Node000002_Node000003"><a xlink:title=" ">
<path fill="none" stroke="#9a32cd" stroke-dasharray="5,2" d="M145.74,-457.7C150.9,-456.92 156.03,-456.15 161,-455.43 219.01,-446.94 286.58,-438.07 326.75,-432.91"/>
<polygon fill="#9a32cd" stroke="#9a32cd" points="145.16,-454.25 135.8,-459.23 146.22,-461.17 145.16,-454.25"/>
</a>
</g>
<text text-anchor="middle" x="200.5" y="-459.23" font-family="Arial" font-size="14.00" fill="grey"> statistics_</text>
</g>
<!-- Node4 -->
<g id="Node000004" class="node">
<title>Node4</title>
<g id="a_Node000004"><a xlink:href="structhf__can__diagnostics__t.html" target="_top" xlink:title="CAN diagnostics structure for detailed error analysis.">
<polygon fill="white" stroke="#666666" points="143,-410.93 0,-410.93 0,-387.93 143,-387.93 143,-410.93"/>
<text text-anchor="middle" x="71.5" y="-395.73" font-family="Arial" font-size="14.00">hf_can_diagnostics_t</text>
</a>
</g>
</g>
<!-- Node4&#45;&gt;Node1 -->
<g id="edge12_Node000001_Node000004" class="edge">
<title>Node4&#45;&gt;Node1</title>
<g id="a_edge12_Node000001_Node000004"><a xlink:title=" ">
<path fill="none" stroke="#9a32cd" stroke-dasharray="5,2" d="M153.36,-396.19C296.99,-390.13 583.31,-376.49 601,-363.43 639.59,-334.92 648.1,-272.22 649.97,-246.15"/>
<polygon fill="#9a32cd" stroke="#9a32cd" points="153.11,-392.7 143.27,-396.62 153.4,-399.69 153.11,-392.7"/>
</a>
</g>
<text text-anchor="middle" x="363" y="-394.23" font-family="Arial" font-size="14.00" fill="grey"> diagnostics_</text>
</g>
<!-- Node4&#45;&gt;Node2 -->
<g id="edge3_Node000002_Node000004" class="edge">
<title>Node4&#45;&gt;Node2</title>
<g id="a_edge3_Node000002_Node000004"><a xlink:title=" ">
<path fill="none" stroke="#9a32cd" stroke-dasharray="5,2" d="M153.42,-407.53C210.53,-413.25 284.23,-420.64 326.99,-424.92"/>
<polygon fill="#9a32cd" stroke="#9a32cd" points="153.62,-404.03 143.32,-406.52 152.92,-411 153.62,-404.03"/>
</a>
</g>
<text text-anchor="middle" x="200.5" y="-419.23" font-family="Arial" font-size="14.00" fill="grey"> diagnostics_</text>
</g>
<!-- Node5 -->
<g id="Node000005" class="node">
<title>Node5</title>
<g id="a_Node000005"><a xlink:href="structhf__esp__can__config__t.html" target="_top" xlink:title="ESP32 TWAI node configuration structure for ESP&#45;IDF v5.5.">
<polygon fill="white" stroke="#666666" points="433.5,-346.93 292.5,-346.93 292.5,-323.93 433.5,-323.93 433.5,-346.93"/>
<text text-anchor="middle" x="363" y="-331.73" font-family="Arial" font-size="14.00">hf_esp_can_config_t</text>
</a>
</g>
</g>
<!-- Node5&#45;&gt;Node1 -->
<g id="edge4_Node000001_Node000005" class="edge">
<title>Node5&#45;&gt;Node1</title>
<g id="a_edge4_Node000001_Node000005"><a xlink:title=" ">
<path fill="none" stroke="#9a32cd" stroke-dasharray="5,2" d="M443.88,-345.05C492.68,-347 554.43,-342.09 601,-313.43 626.36,-297.81 640.84,-263.83 646.97,-245.95"/>
<polygon fill="#9a32cd" stroke="#9a32cd" points="443.84,-341.55 433.67,-344.54 443.49,-348.54 443.84,-341.55"/>
</a>
</g>
<text text-anchor="middle" x="543.5" y="-348.23" font-family="Arial" font-size="14.00" fill="grey"> config_</text>
</g>
<!-- Node6 -->
<g id="Node000006" class="node">
<title>Node6</title>
<g id="a_Node000006"><a xlink:href="classPlatformMutexImpl.html" target="_top" xlink:title=" ">
<polygon fill="white" stroke="#666666" points="468,-305.43 258,-305.43 258,-267.43 468,-267.43 468,-305.43"/>
<text text-anchor="start" x="266" y="-290.23" font-family="Arial" font-size="14.00">PlatformMutexImpl&lt;</text>
<text text-anchor="middle" x="363" y="-275.23" font-family="Arial" font-size="14.00"> PlatformMutexActiveBackend &gt;</text>
</a>
</g>
</g>
<!-- Node6&#45;&gt;Node1 -->
<g id="edge5_Node000001_Node000006" class="edge">
<title>Node6&#45;&gt;Node1</title>
<g id="a_edge5_Node000001_Node000006"><a xlink:title=" ">
<path fill="none" stroke="#9a32cd" stroke-dasharray="5,2" d="M478.35,-267.77C517.34,-261.11 561.14,-253.3 601,-245.43 606.79,-244.28 612.93,-242.99 618.86,-241.69"/>
<polygon fill="#9a32cd" stroke="#9a32cd" points="477.3,-264.4 468.02,-269.53 478.47,-271.3 477.3,-264.4"/>
</a>
</g>
<text text-anchor="middle" x="543.5" y="-299.23" font-family="Arial" font-size="14.00" fill="grey"> callback_mutex_</text>
<text text-anchor="middle" x="543.5" y="-284.23" font-family="Arial" font-size="14.00" fill="grey">config_mutex_</text>
<text text-anchor="middle" x="543.5" y="-269.23" font-family="Arial" font-size="14.00" fill="grey">stats_mutex_</text>
</g>
<!-- Node7 -->
<g id="Node000007" class="node">
<title>Node7</title>
<g id="a_Node000007"><a xlink:href="structhf__can__message__t.html" target="_top" xlink:title="Platform&#45;agnostic CAN message structure.">
<polygon fill="white" stroke="#666666" points="137,-230.93 6,-230.93 6,-207.93 137,-207.93 137,-230.93"/>
<text text-anchor="middle" x="71.5" y="-215.73" font-family="Arial" font-size="14.00">hf_can_message_t</text>
</a>
</g>
</g>
<!-- Node7&#45;&gt;Node1 -->
<g id="edge6_Node000001_Node000007" class="edge">
<title>Node7&#45;&gt;Node1</title>
<g id="a_edge6_Node000001_Node000007"><a xlink:title=" ">
<path fill="none" stroke="#9a32cd" stroke-dasharray="5,2" d="M147.2,-221.36C274.76,-224.68 529.46,-231.29 618.71,-233.6"/>
<polygon fill="#9a32cd" stroke="#9a32cd" points="147.21,-217.86 137.12,-221.1 147.03,-224.86 147.21,-217.86"/>
</a>
</g>
<text text-anchor="middle" x="363" y="-233.23" font-family="Arial" font-size="14.00" fill="grey"> receive_cb_</text>
</g>
<!-- Node10 -->
<g id="Node000010" class="node">
<title>Node10</title>
<g id="a_Node000010"><a xlink:href="structhf__esp__can__tx__info__t.html" target="_top" xlink:title="Transmission completion information.">
<polygon fill="white" stroke="#666666" points="435.5,-197.93 290.5,-197.93 290.5,-174.93 435.5,-174.93 435.5,-197.93"/>
<text text-anchor="middle" x="363" y="-182.73" font-family="Arial" font-size="14.00">hf_esp_can_tx_info_t</text>
</a>
</g>
</g>
<!-- Node7&#45;&gt;Node10 -->
<g id="edge10_Node000010_Node000007" class="edge">
<title>Node7&#45;&gt;Node10</title>
<g id="a_edge10_Node000010_Node000007"><a xlink:title=" ">
<path fill="none" stroke="#9a32cd" stroke-dasharray="5,2" d="M147.34,-207.25C151.96,-206.6 156.54,-205.99 161,-205.43 203.77,-200.03 251.85,-195.43 290.25,-192.11"/>
<polygon fill="#9a32cd" stroke="#9a32cd" points="146.6,-203.82 137.2,-208.71 147.6,-210.75 146.6,-203.82"/>
</a>
</g>
<text text-anchor="middle" x="200.5" y="-209.23" font-family="Arial" font-size="14.00" fill="grey"> message</text>
</g>
<!-- Node8 -->
<g id="Node000008" class="node">
<title>Node8</title>
<g id="a_Node000008"><a xlink:href="structhf__esp__can__error__info__t.html" target="_top" xlink:title="Comprehensive error information structure for error callbacks.">
<polygon fill="white" stroke="#666666" points="444.5,-156.93 281.5,-156.93 281.5,-133.93 444.5,-133.93 444.5,-156.93"/>
<text text-anchor="middle" x="363" y="-141.73" font-family="Arial" font-size="14.00">hf_esp_can_error_info_t</text>
</a>
</g>
</g>
<!-- Node8&#45;&gt;Node1 -->
<g id="edge7_Node000001_Node000008" class="edge">
<title>Node8&#45;&gt;Node1</title>
<g id="a_edge7_Node000001_Node000008"><a xlink:title=" ">
<path fill="none" stroke="#9a32cd" stroke-dasharray="5,2" d="M454.72,-136.26C501.22,-135.67 557.13,-141.6 601,-166.43 623.62,-179.23 638.72,-207.1 645.81,-222.9"/>
<polygon fill="#9a32cd" stroke="#9a32cd" points="454.57,-132.77 444.65,-136.5 454.73,-139.76 454.57,-132.77"/>
</a>
</g>
<text text-anchor="middle" x="543.5" y="-170.23" font-family="Arial" font-size="14.00" fill="grey"> error_cb_</text>
</g>
<!-- Node9 -->
<g id="Node000009" class="node">
<title>Node9</title>
<g id="a_Node000009"><a xlink:href="structhf__esp__can__state__info__t.html" target="_top" xlink:title="Bus state information for state change callbacks.">
<polygon fill="white" stroke="#666666" points="445,-115.93 281,-115.93 281,-92.93 445,-92.93 445,-115.93"/>
<text text-anchor="middle" x="363" y="-100.73" font-family="Arial" font-size="14.00">hf_esp_can_state_info_t</text>
</a>
</g>
</g>
<!-- Node9&#45;&gt;Node1 -->
<g id="edge8_Node000001_Node000009" class="edge">
<title>Node9&#45;&gt;Node1</title>
<g id="a_edge8_Node000001_Node000009"><a xlink:title=" ">
<path fill="none" stroke="#9a32cd" stroke-dasharray="5,2" d="M424.32,-91.27C475.93,-83.57 549.8,-81.44 601,-117.43 636.55,-142.41 646.7,-198.23 649.49,-222.63"/>
<polygon fill="#9a32cd" stroke="#9a32cd" points="423.63,-87.83 414.31,-92.87 424.73,-94.75 423.63,-87.83"/>
</a>
</g>
<text text-anchor="middle" x="543.5" y="-121.23" font-family="Arial" font-size="14.00" fill="grey"> state_cb_</text>
</g>
<!-- Node10&#45;&gt;Node1 -->
<g id="edge9_Node000001_Node000010" class="edge">
<title>Node10&#45;&gt;Node1</title>
<g id="a_edge9_Node000001_Node000010"><a xlink:title=" ">
<path fill="none" stroke="#9a32cd" stroke-dasharray="5,2" d="M445.61,-184.04C492.12,-184.87 550.93,-189.66 601,-205.43 613.16,-209.25 625.54,-216.5 634.87,-222.8"/>
<polygon fill="#9a32cd" stroke="#9a32cd" points="445.62,-180.54 435.58,-183.92 445.54,-187.54 445.62,-180.54"/>
</a>
</g>
<text text-anchor="middle" x="543.5" y="-209.23" font-family="Arial" font-size="14.00" fill="grey"> tx_cb_</text>
</g>
<!-- Node11 -->
<g id="Node000011" class="node">
<title>Node11</title>
<g id="a_Node000011"><a xlink:href="structhf__esp__can__timing__config__t.html" target="_top" xlink:title="Advanced bit timing configuration for fine&#45;tuning.">
<polygon fill="white" stroke="#666666" points="455.5,-74.93 270.5,-74.93 270.5,-51.93 455.5,-51.93 455.5,-74.93"/>
<text text-anchor="middle" x="363" y="-59.73" font-family="Arial" font-size="14.00">hf_esp_can_timing_config_t</text>
</a>
</g>
</g>
<!-- Node11&#45;&gt;Node1 -->
<g id="edge13_Node000001_Node000011" class="edge">
<title>Node11&#45;&gt;Node1</title>
<g id="a_edge13_Node000001_Node000011"><a xlink:title=" ">
<path fill="none" stroke="#9a32cd" stroke-dasharray="5,2" d="M465.84,-53.53C520.1,-50.48 579.91,-51.4 601,-67.43 650.84,-105.3 652.44,-191.11 651.23,-222.58"/>
<polygon fill="#9a32cd" stroke="#9a32cd" points="465.55,-50.04 455.78,-54.14 465.98,-57.03 465.55,-50.04"/>
</a>
</g>
<text text-anchor="middle" x="543.5" y="-71.23" font-family="Arial" font-size="14.00" fill="grey"> advanced_timing_</text>
</g>
<!-- Node12 -->
<g id="Node000012" class="node">
<title>Node12</title>
<g id="a_Node000012"><a xlink:href="structhf__esp__can__filter__config__t.html" target="_top" xlink:title="CAN message filter configuration for hardware filtering.">
<polygon fill="white" stroke="#666666" points="450,-33.93 276,-33.93 276,-10.93 450,-10.93 450,-33.93"/>
<text text-anchor="middle" x="363" y="-18.73" font-family="Arial" font-size="14.00">hf_esp_can_filter_config_t</text>
</a>
</g>
</g>
<!-- Node12&#45;&gt;Node1 -->
<g id="edge14_Node000001_Node000012" class="edge">
<title>Node12&#45;&gt;Node1</title>
<g id="a_edge14_Node000001_Node000012"><a xlink:title=" ">
<path fill="none" stroke="#9a32cd" stroke-dasharray="5,2" d="M415.03,-8.76C467.71,2.05 549.28,9.08 601,-33.43 630.92,-58.01 645.54,-183.64 649.42,-222.77"/>
<polygon fill="#9a32cd" stroke="#9a32cd" points="414.26,-5.34 405.22,-10.88 415.74,-12.18 414.26,-5.34"/>
</a>
</g>
<text text-anchor="middle" x="543.5" y="-37.23" font-family="Arial" font-size="14.00" fill="grey"> current_filter_</text>
</g>
</g>
</svg>
