<?xml version="1.0" encoding="UTF-8" standalone="no"?>
<!DOCTYPE svg PUBLIC "-//W3C//DTD SVG 1.1//EN"
 "http://www.w3.org/Graphics/SVG/1.1/DTD/svg11.dtd">
<!-- Generated by graphviz version 2.43.0 (0)
 -->
<!-- Title: EspUart Pages: 1 -->
<svg width="658pt" height="228pt"
 viewBox="0.00 0.00 658.00 227.50" xmlns="http://www.w3.org/2000/svg" xmlns:xlink="http://www.w3.org/1999/xlink">
<g id="graph0" class="graph" transform="scale(1 1) rotate(0) translate(4 223.5)">
<title>EspUart</title>
<!-- Node1 -->
<g id="Node000001" class="node">
<title>Node1</title>
<g id="a_Node000001"><a xlink:title="ESP32 UART implementation class.">
<polygon fill="#999999" stroke="#666666" points="650,-127 585,-127 585,-104 650,-104 650,-127"/>
<text text-anchor="middle" x="617.5" y="-111.8" font-family="Arial" font-size="14.00">EspUart</text>
</a>
</g>
</g>
<!-- Node2 -->
<g id="Node000002" class="node">
<title>Node2</title>
<g id="a_Node000002"><a xlink:href="classBaseUart.html" target="_top" xlink:title="Abstract base class for UART driver implementations.">
<polygon fill="white" stroke="#666666" points="401.5,-172 328.5,-172 328.5,-149 401.5,-149 401.5,-172"/>
<text text-anchor="middle" x="365" y="-156.8" font-family="Arial" font-size="14.00">BaseUart</text>
</a>
</g>
</g>
<!-- Node2&#45;&gt;Node1 -->
<g id="edge1_Node000001_Node000002" class="edge">
<title>Node2&#45;&gt;Node1</title>
<g id="a_edge1_Node000001_Node000002"><a xlink:title=" ">
<path fill="none" stroke="#63b8ff" d="M411.77,-155.07C452.7,-149.82 514.2,-140.99 567,-129.5 572.85,-128.23 579.02,-126.66 584.96,-125.04"/>
<polygon fill="#63b8ff" stroke="#63b8ff" points="411.31,-151.6 401.83,-156.32 412.19,-158.54 411.31,-151.6"/>
</a>
</g>
</g>
<!-- Node3 -->
<g id="Node000003" class="node">
<title>Node3</title>
<g id="a_Node000003"><a xlink:href="structhf__uart__statistics__t.html" target="_top" xlink:title="UART operation statistics.">
<polygon fill="white" stroke="#666666" points="137,-207 8,-207 8,-184 137,-184 137,-207"/>
<text text-anchor="middle" x="72.5" y="-191.8" font-family="Arial" font-size="14.00">hf_uart_statistics_t</text>
</a>
</g>
</g>
<!-- Node3&#45;&gt;Node1 -->
<g id="edge6_Node000001_Node000003" class="edge">
<title>Node3&#45;&gt;Node1</title>
<g id="a_edge6_Node000001_Node000003"><a xlink:title=" ">
<path fill="none" stroke="#9a32cd" stroke-dasharray="5,2" d="M147.27,-201.73C152.59,-202.04 157.88,-202.3 163,-202.5 299.66,-207.84 335.98,-208.75 470,-181.5 514.35,-172.48 526.49,-170.69 567,-150.5 579.81,-144.11 592.98,-134.64 602.51,-127.15"/>
<polygon fill="#9a32cd" stroke="#9a32cd" points="147.22,-198.22 137.02,-201.08 146.79,-205.2 147.22,-198.22"/>
</a>
</g>
<text text-anchor="middle" x="365" y="-208.3" font-family="Arial" font-size="14.00" fill="grey"> statistics_</text>
</g>
<!-- Node3&#45;&gt;Node2 -->
<g id="edge2_Node000002_Node000003" class="edge">
<title>Node3&#45;&gt;Node2</title>
<g id="a_edge2_Node000002_Node000003"><a xlink:title=" ">
<path fill="none" stroke="#9a32cd" stroke-dasharray="5,2" d="M147.45,-186.59C205.36,-179.61 283.38,-170.21 328.23,-164.81"/>
<polygon fill="#9a32cd" stroke="#9a32cd" points="146.76,-183.15 137.25,-187.82 147.6,-190.1 146.76,-183.15"/>
</a>
</g>
<text text-anchor="middle" x="202.5" y="-187.3" font-family="Arial" font-size="14.00" fill="grey"> statistics_</text>
</g>
<!-- Node4 -->
<g id="Node000004" class="node">
<title>Node4</title>
<g id="a_Node000004"><a xlink:href="structhf__uart__diagnostics__t.html" target="_top" xlink:title="UART diagnostic information.">
<polygon fill="white" stroke="#666666" points="145,-151 0,-151 0,-128 145,-128 145,-151"/>
<text text-anchor="middle" x="72.5" y="-135.8" font-family="Arial" font-size="14.00">hf_uart_diagnostics_t</text>
</a>
</g>
</g>
<!-- Node4&#45;&gt;Node1 -->
<g id="edge7_Node000001_Node000004" class="edge">
<title>Node4&#45;&gt;Node1</title>
<g id="a_edge7_Node000001_Node000004"><a xlink:title=" ">
<path fill="none" stroke="#9a32cd" stroke-dasharray="5,2" d="M155.55,-132.51C188.05,-129.95 225.77,-127.26 260,-125.5 379.65,-119.33 522.1,-116.78 584.52,-115.89"/>
<polygon fill="#9a32cd" stroke="#9a32cd" points="154.88,-129.05 145.19,-133.33 155.43,-136.03 154.88,-129.05"/>
</a>
</g>
<text text-anchor="middle" x="365" y="-129.3" font-family="Arial" font-size="14.00" fill="grey"> diagnostics_</text>
</g>
<!-- Node4&#45;&gt;Node2 -->
<g id="edge3_Node000002_Node000004" class="edge">
<title>Node4&#45;&gt;Node2</title>
<g id="a_edge3_Node000002_Node000004"><a xlink:title=" ">
<path fill="none" stroke="#9a32cd" stroke-dasharray="5,2" d="M155.27,-143.85C182.83,-145.45 213.76,-147.39 242,-149.5 271.05,-151.67 303.95,-154.67 328.26,-156.99"/>
<polygon fill="#9a32cd" stroke="#9a32cd" points="155.46,-140.35 145.28,-143.27 155.06,-147.34 155.46,-140.35"/>
</a>
</g>
<text text-anchor="middle" x="202.5" y="-153.3" font-family="Arial" font-size="14.00" fill="grey"> diagnostics_</text>
</g>
<!-- Node5 -->
<g id="Node000005" class="node">
<title>Node5</title>
<g id="a_Node000005"><a xlink:href="classPlatformMutexImpl.html" target="_top" xlink:title=" ">
<polygon fill="white" stroke="#666666" points="470,-79.5 260,-79.5 260,-41.5 470,-41.5 470,-79.5"/>
<text text-anchor="start" x="268" y="-64.3" font-family="Arial" font-size="14.00">PlatformMutexImpl&lt;</text>
<text text-anchor="middle" x="365" y="-49.3" font-family="Arial" font-size="14.00"> PlatformMutexActiveBackend &gt;</text>
</a>
</g>
</g>
<!-- Node5&#45;&gt;Node1 -->
<g id="edge4_Node000001_Node000005" class="edge">
<title>Node5&#45;&gt;Node1</title>
<g id="a_edge4_Node000001_Node000005"><a xlink:title=" ">
<path fill="none" stroke="#9a32cd" stroke-dasharray="5,2" d="M480.19,-67.23C509.04,-71.11 539.6,-77.14 567,-86.5 578.88,-90.56 591.05,-97.65 600.36,-103.8"/>
<polygon fill="#9a32cd" stroke="#9a32cd" points="480.43,-63.73 470.07,-65.95 479.55,-70.68 480.43,-63.73"/>
</a>
</g>
<text text-anchor="middle" x="527.5" y="-90.3" font-family="Arial" font-size="14.00" fill="grey"> mutex_</text>
</g>
<!-- Node6 -->
<g id="Node000006" class="node">
<title>Node6</title>
<g id="a_Node000006"><a xlink:href="structhf__uart__config__t.html" target="_top" xlink:title="ESP32 UART port configuration.">
<polygon fill="white" stroke="#666666" points="421.5,-23 308.5,-23 308.5,0 421.5,0 421.5,-23"/>
<text text-anchor="middle" x="365" y="-7.8" font-family="Arial" font-size="14.00">hf_uart_config_t</text>
</a>
</g>
</g>
<!-- Node6&#45;&gt;Node1 -->
<g id="edge5_Node000001_Node000006" class="edge">
<title>Node6&#45;&gt;Node1</title>
<g id="a_edge5_Node000001_Node000006"><a xlink:title=" ">
<path fill="none" stroke="#9a32cd" stroke-dasharray="5,2" d="M431.91,-12.51C473.4,-15.87 526.55,-25.38 567,-50.5 587.97,-63.52 603.3,-88.87 610.97,-103.77"/>
<polygon fill="#9a32cd" stroke="#9a32cd" points="432.12,-9.02 421.9,-11.8 431.63,-16 432.12,-9.02"/>
</a>
</g>
<text text-anchor="middle" x="527.5" y="-54.3" font-family="Arial" font-size="14.00" fill="grey"> port_config_</text>
</g>
</g>
</svg>
