<?xml version="1.0" encoding="UTF-8" standalone="no"?>
<!DOCTYPE svg PUBLIC "-//W3C//DTD SVG 1.1//EN"
 "http://www.w3.org/Graphics/SVG/1.1/DTD/svg11.dtd">
<!-- Generated by graphviz version 2.43.0 (0)
 -->
<!-- Title: inc/mcu/esp32 Pages: 1 -->
<svg width="123pt" height="196pt"
 viewBox="0.00 0.00 122.50 196.00" xmlns="http://www.w3.org/2000/svg" xmlns:xlink="http://www.w3.org/1999/xlink">
<g id="graph0" class="graph" transform="scale(1 1) rotate(0) translate(4 192)">
<title>inc/mcu/esp32</title>
<g id="clust1" class="cluster">
<title>clusterdir_a8fcf44594a21eb2fd60c83cfa0bc114</title>
<g id="a_clust1"><a xlink:href="dir_a8fcf44594a21eb2fd60c83cfa0bc114.html" target="_top" xlink:title="mcu">
<polygon fill="#edf0f7" stroke="#7f7f7f" stroke-dasharray="5,2" points="8.5,-43 8.5,-180 94.5,-180 94.5,-43 8.5,-43"/>
<text text-anchor="middle" x="51.5" y="-164.8" font-family="Arial" font-size="14.00">mcu</text>
</a>
</g>
</g>
<g id="clust2" class="cluster">
<title>clusterdir_426f378bcfb40d7530258730abe85710</title>
<g id="a_clust2"><a xlink:href="dir_426f378bcfb40d7530258730abe85710.html" target="_top">
<polygon fill="#edf0f7" stroke="#404040" stroke-width="2" points="16.5,-51 16.5,-149 86.5,-149 86.5,-51 16.5,-51"/>
</a>
</g>
</g>
<!-- dir_426f378bcfb40d7530258730abe85710 -->
<g id="node1" class="node">
<title>dir_426f378bcfb40d7530258730abe85710</title>
<text text-anchor="middle" x="51.5" y="-125.8" font-family="Arial" font-size="14.00">esp32</text>
</g>
<!-- dir_67bf3475cdd007f9e9d2e9df8d704317 -->
<g id="node2" class="node">
<title>dir_67bf3475cdd007f9e9d2e9df8d704317</title>
<g id="a_node2"><a xlink:href="dir_67bf3475cdd007f9e9d2e9df8d704317.html" target="_top" xlink:title="utils">
<polygon fill="#a2b4d6" stroke="#404040" points="72,-82 31,-82 31,-59 72,-59 72,-82"/>
<text text-anchor="middle" x="51.5" y="-66.8" font-family="Arial" font-size="14.00">utils</text>
</a>
</g>
</g>
<!-- dir_426f378bcfb40d7530258730abe85710&#45;&gt;dir_67bf3475cdd007f9e9d2e9df8d704317 -->
<g id="edge1" class="edge">
<title>dir_426f378bcfb40d7530258730abe85710&#45;&gt;dir_67bf3475cdd007f9e9d2e9df8d704317</title>
<g id="a_edge1"><a xlink:href="dir_000003_000011.html" target="_top">
<path fill="none" stroke="#63b8ff" d="M51.5,-117.78C51.5,-110.61 51.5,-100.95 51.5,-92.31"/>
<polygon fill="#63b8ff" stroke="#63b8ff" points="55,-92.17 51.5,-82.17 48,-92.17 55,-92.17"/>
</a>
</g>
<g id="a_edge1&#45;headlabel"><a xlink:href="dir_000003_000011.html" target="_top" xlink:title="11">
<text text-anchor="middle" x="57.84" y="-92.07" font-family="Arial" font-size="14.00" fill="#63b8ff">11</text>
</a>
</g>
</g>
<!-- dir_8f46c503ad4a32bd125d4189308369db -->
<g id="node3" class="node">
<title>dir_8f46c503ad4a32bd125d4189308369db</title>
<g id="a_node3"><a xlink:href="dir_8f46c503ad4a32bd125d4189308369db.html" target="_top" xlink:title="utils">
<polygon fill="#edf0f7" stroke="#7f7f7f" points="41,-23 0,-23 0,0 41,0 41,-23"/>
<text text-anchor="middle" x="20.5" y="-7.8" font-family="Arial" font-size="14.00">utils</text>
</a>
</g>
</g>
<!-- dir_426f378bcfb40d7530258730abe85710&#45;&gt;dir_8f46c503ad4a32bd125d4189308369db -->
<g id="edge2" class="edge">
<title>dir_426f378bcfb40d7530258730abe85710&#45;&gt;dir_8f46c503ad4a32bd125d4189308369db</title>
<g id="a_edge2"><a xlink:href="dir_000003_000012.html" target="_top">
<path fill="none" stroke="#63b8ff" d="M42.18,-117.92C35,-109.03 25.62,-95.61 21.5,-82 16.7,-66.14 16.76,-47.3 17.85,-33.24"/>
<polygon fill="#63b8ff" stroke="#63b8ff" points="21.35,-33.44 18.87,-23.14 14.39,-32.74 21.35,-33.44"/>
</a>
</g>
<g id="a_edge2&#45;headlabel"><a xlink:href="dir_000003_000012.html" target="_top" xlink:title="27">
<text text-anchor="middle" x="23.81" y="-33.6" font-family="Arial" font-size="14.00" fill="#63b8ff">27</text>
</a>
</g>
</g>
<!-- dir_af527b166bd0aeb318c4d06f73919cfb -->
<g id="node4" class="node">
<title>dir_af527b166bd0aeb318c4d06f73919cfb</title>
<g id="a_node4"><a xlink:href="dir_af527b166bd0aeb318c4d06f73919cfb.html" target="_top" xlink:title="base">
<polygon fill="#edf0f7" stroke="#7f7f7f" points="114.5,-23 68.5,-23 68.5,0 114.5,0 114.5,-23"/>
<text text-anchor="middle" x="91.5" y="-7.8" font-family="Arial" font-size="14.00">base</text>
</a>
</g>
</g>
<!-- dir_426f378bcfb40d7530258730abe85710&#45;&gt;dir_af527b166bd0aeb318c4d06f73919cfb -->
<g id="edge3" class="edge">
<title>dir_426f378bcfb40d7530258730abe85710&#45;&gt;dir_af527b166bd0aeb318c4d06f73919cfb</title>
<g id="a_edge3"><a xlink:href="dir_000003_000000.html" target="_top">
<path fill="none" stroke="#63b8ff" d="M60.35,-117.77C67.27,-108.78 76.52,-95.32 81.5,-82 87.36,-66.32 89.81,-47.47 90.83,-33.36"/>
<polygon fill="#63b8ff" stroke="#63b8ff" points="94.33,-33.38 91.37,-23.21 87.34,-33.01 94.33,-33.38"/>
</a>
</g>
<g id="a_edge3&#45;headlabel"><a xlink:href="dir_000003_000000.html" target="_top" xlink:title="36">
<text text-anchor="middle" x="96.97" y="-33.42" font-family="Arial" font-size="14.00" fill="#63b8ff">36</text>
</a>
</g>
</g>
<!-- dir_67bf3475cdd007f9e9d2e9df8d704317&#45;&gt;dir_8f46c503ad4a32bd125d4189308369db -->
<g id="edge4" class="edge">
<title>dir_67bf3475cdd007f9e9d2e9df8d704317&#45;&gt;dir_8f46c503ad4a32bd125d4189308369db</title>
<g id="a_edge4"><a xlink:href="dir_000011_000012.html" target="_top">
<path fill="none" stroke="#63b8ff" d="M45.67,-58.78C41.6,-51.29 36.05,-41.09 31.19,-32.16"/>
<polygon fill="#63b8ff" stroke="#63b8ff" points="34.16,-30.29 26.3,-23.17 28.01,-33.63 34.16,-30.29"/>
</a>
</g>
<g id="a_edge4&#45;headlabel"><a xlink:href="dir_000011_000012.html" target="_top" xlink:title="12">
<text text-anchor="middle" x="38.37" y="-28.39" font-family="Arial" font-size="14.00" fill="#63b8ff">12</text>
</a>
</g>
</g>
<!-- dir_67bf3475cdd007f9e9d2e9df8d704317&#45;&gt;dir_af527b166bd0aeb318c4d06f73919cfb -->
<g id="edge5" class="edge">
<title>dir_67bf3475cdd007f9e9d2e9df8d704317&#45;&gt;dir_af527b166bd0aeb318c4d06f73919cfb</title>
<g id="a_edge5"><a xlink:href="dir_000011_000000.html" target="_top">
<path fill="none" stroke="#63b8ff" d="M59.02,-58.78C64.39,-51.14 71.74,-40.65 78.1,-31.6"/>
<polygon fill="#63b8ff" stroke="#63b8ff" points="81.13,-33.37 84.01,-23.17 75.4,-29.35 81.13,-33.37"/>
</a>
</g>
<g id="a_edge5&#45;headlabel"><a xlink:href="dir_000011_000000.html" target="_top" xlink:title="21">
<text text-anchor="middle" x="81.39" y="-34.24" font-family="Arial" font-size="14.00" fill="#63b8ff">21</text>
</a>
</g>
</g>
</g>
</svg>
