<?xml version="1.0" encoding="UTF-8" standalone="no"?>
<!DOCTYPE svg PUBLIC "-//W3C//DTD SVG 1.1//EN"
 "http://www.w3.org/Graphics/SVG/1.1/DTD/svg11.dtd">
<!-- Generated by graphviz version 2.43.0 (0)
 -->
<!-- Title: inc/mcu/esp32/EspBluetooth.h Pages: 1 -->
<svg width="464pt" height="105pt"
 viewBox="0.00 0.00 464.00 105.00" xmlns="http://www.w3.org/2000/svg" xmlns:xlink="http://www.w3.org/1999/xlink">
<g id="graph0" class="graph" transform="scale(1 1) rotate(0) translate(4 101)">
<title>inc/mcu/esp32/EspBluetooth.h</title>
<!-- Node1 -->
<g id="Node000001" class="node">
<title>Node1</title>
<g id="a_Node000001"><a xlink:title="ESP32 Bluetooth implementation using NimBLE for BLE&#45;only support (ESP32C6)">
<polygon fill="#999999" stroke="#666666" points="329.5,-97 129.5,-97 129.5,-74 329.5,-74 329.5,-97"/>
<text text-anchor="middle" x="229.5" y="-81.8" font-family="Arial" font-size="14.00">inc/mcu/esp32/EspBluetooth.h</text>
</a>
</g>
</g>
<!-- Node2 -->
<g id="Node000002" class="node">
<title>Node2</title>
<g id="a_Node000002"><a xlink:href="BluetoothComprehensiveTest_8cpp.html" target="_top" xlink:title="Comprehensive Bluetooth/NimBLE testing suite for ESP32&#45;C6 DevKit&#45;M&#45;1 (noexcept)">
<polygon fill="white" stroke="#666666" points="223,-38 0,-38 0,0 223,0 223,-38"/>
<text text-anchor="start" x="8" y="-22.8" font-family="Arial" font-size="14.00">examples/esp32/main</text>
<text text-anchor="middle" x="111.5" y="-7.8" font-family="Arial" font-size="14.00">/BluetoothComprehensiveTest.cpp</text>
</a>
</g>
</g>
<!-- Node1&#45;&gt;Node2 -->
<g id="edge1_Node000001_Node000002" class="edge">
<title>Node1&#45;&gt;Node2</title>
<g id="a_edge1_Node000001_Node000002"><a xlink:title=" ">
<path fill="none" stroke="#63b8ff" d="M201.35,-69.11C184.29,-59.79 162.44,-47.84 144.56,-38.07"/>
<polygon fill="#63b8ff" stroke="#63b8ff" points="199.83,-72.27 210.28,-73.99 203.18,-66.13 199.83,-72.27"/>
</a>
</g>
</g>
<!-- Node3 -->
<g id="Node000003" class="node">
<title>Node3</title>
<g id="a_Node000003"><a xlink:href="EspBluetooth_8cpp.html" target="_top" xlink:title="ESP32 Bluetooth implementation using NimBLE for BLE&#45;only support (ESP32C6)">
<polygon fill="white" stroke="#666666" points="456,-30.5 241,-30.5 241,-7.5 456,-7.5 456,-30.5"/>
<text text-anchor="middle" x="348.5" y="-15.3" font-family="Arial" font-size="14.00">src/mcu/esp32/EspBluetooth.cpp</text>
</a>
</g>
</g>
<!-- Node1&#45;&gt;Node3 -->
<g id="edge2_Node000001_Node000003" class="edge">
<title>Node1&#45;&gt;Node3</title>
<g id="a_edge2_Node000001_Node000003"><a xlink:title=" ">
<path fill="none" stroke="#63b8ff" d="M257.78,-69.17C279.79,-57.24 309.76,-41 329.12,-30.5"/>
<polygon fill="#63b8ff" stroke="#63b8ff" points="256.01,-66.15 248.88,-73.99 259.34,-72.31 256.01,-66.15"/>
</a>
</g>
</g>
</g>
</svg>
