<?xml version="1.0" encoding="UTF-8" standalone="no"?>
<!DOCTYPE svg PUBLIC "-//W3C//DTD SVG 1.1//EN"
 "http://www.w3.org/Graphics/SVG/1.1/DTD/svg11.dtd">
<!-- Generated by graphviz version 2.43.0 (0)
 -->
<!-- Title: src/mcu/esp32/EspGpio.cpp Pages: 1 -->
<!--zoomable 326 -->

<svg id="main" version="1.1" xmlns="http://www.w3.org/2000/svg" xmlns:xlink="http://www.w3.org/1999/xlink" xml:space="preserve" onload="init(evt)">
<style type="text/css"><![CDATA[
.node, .edge {opacity: 0.7;}
.node.selected, .edge.selected {opacity: 1;}
.edge:hover path { stroke: red; }
.edge:hover polygon { stroke: red; fill: red; }
]]></style>

<defs>
  <circle id="rim" cx="0" cy="0" r="7"/>
  <circle id="rim2" cx="0" cy="0" r="3.5"/>
  <g id="zoomPlus">
    <use xlink:href="#rim" fill="#404040"><set attributeName="fill" to="#808080" begin="zoomplus.mouseover" end="zoomplus.mouseout"/></use>
    <path d="M-4,0h8M0,-4v8" fill="none" stroke="white" stroke-width="1.5" pointer-events="none"/>
  </g>
  <g id="zoomMin">
    <use xlink:href="#rim" fill="#404040"><set attributeName="fill" to="#808080" begin="zoomminus.mouseover" end="zoomminus.mouseout"/></use>
    <path d="M-4,0h8" fill="none" stroke="white" stroke-width="1.5" pointer-events="none"/>
  </g>
  <g id="arrowUp" transform="translate(30 24)">
    <use xlink:href="#rim"/>
    <path pointer-events="none" fill="none" stroke="white" stroke-width="1.5" d="M0,-3.0v7 M-2.5,-0.5L0,-3.0L2.5,-0.5"/>
  </g>
  <g id="arrowRight" transform="rotate(90) translate(36 -43)">
    <use xlink:href="#rim"/>
    <path pointer-events="none" fill="none" stroke="white" stroke-width="1.5" d="M0,-3.0v7 M-2.5,-0.5L0,-3.0L2.5,-0.5"/>
  </g>
  <g id="arrowDown" transform="rotate(180) translate(-30 -48)">
    <use xlink:href="#rim"/>
    <path pointer-events="none" fill="none" stroke="white" stroke-width="1.5" d="M0,-3.0v7 M-2.5,-0.5L0,-3.0L2.5,-0.5"/>
  </g>
  <g id="arrowLeft" transform="rotate(270) translate(-36 17)">
    <use xlink:href="#rim"/>
    <path pointer-events="none" fill="none" stroke="white" stroke-width="1.5" d="M0,-3.0v7 M-2.5,-0.5L0,-3.0L2.5,-0.5"/>
  </g>
  <g id="resetDef">
    <use xlink:href="#rim2" fill="#404040"><set attributeName="fill" to="#808080" begin="reset.mouseover" end="reset.mouseout"/></use>
  </g>
</defs>
<script type="application/ecmascript">
var viewWidth = 758;
var viewHeight = 326;
var sectionId = 'dynsection-0';
</script>
<script type="application/ecmascript" xlink:href="svg.min.js"/>
<svg id="graph" class="graph">
<g id="viewport">
<title>src/mcu/esp32/EspGpio.cpp</title>
<!-- Node1 -->
<g id="Node000001" class="node">
<title>Node1</title>
<g id="a_Node000001"><a xlink:title="Production&#45;quality ESP32C6 GPIO implementation with ESP&#45;IDF v5.5+ advanced features.">
<polygon fill="#999999" stroke="#666666" points="699.5,-318 512.5,-318 512.5,-295 699.5,-295 699.5,-318"/>
<text text-anchor="middle" x="606" y="-302.8" font-family="Arial" font-size="14.00">src/mcu/esp32/EspGpio.cpp</text>
</a>
</g>
</g>
<!-- Node2 -->
<g id="Node000002" class="node">
<title>Node2</title>
<g id="a_Node000002"><a xlink:href="EspGpio_8h.html" target="_top" xlink:title="Advanced MCU&#45;specific implementation of the unified BaseGpio class with ESP32C6/ESP&#45;IDF v5....">
<polygon fill="white" stroke="#666666" points="400,-259 320,-259 320,-236 400,-236 400,-259"/>
<text text-anchor="middle" x="360" y="-243.8" font-family="Arial" font-size="14.00">EspGpio.h</text>
</a>
</g>
</g>
<!-- Node1&#45;&gt;Node2 -->
<g id="edge1_Node000001_Node000002" class="edge">
<title>Node1&#45;&gt;Node2</title>
<g id="a_edge1_Node000001_Node000002"><a xlink:title=" ">
<path fill="none" stroke="#63b8ff" d="M560.59,-294.98C517.96,-285.1 454.31,-270.35 410.19,-260.13"/>
<polygon fill="#63b8ff" stroke="#63b8ff" points="410.79,-256.67 400.25,-257.83 409.21,-263.49 410.79,-256.67"/>
</a>
</g>
</g>
<!-- Node13 -->
<g id="Node000013" class="node">
<title>Node13</title>
<g id="a_Node000013"><a xlink:title=" ">
<polygon fill="#e0e0e0" stroke="#999999" points="569.5,-82 512.5,-82 512.5,-59 569.5,-59 569.5,-82"/>
<text text-anchor="middle" x="541" y="-66.8" font-family="Arial" font-size="14.00">atomic</text>
</a>
</g>
</g>
<!-- Node1&#45;&gt;Node13 -->
<g id="edge21_Node000001_Node000013" class="edge">
<title>Node1&#45;&gt;Node13</title>
<g id="a_edge21_Node000001_Node000013"><a xlink:title=" ">
<path fill="none" stroke="#63b8ff" d="M603,-294.79C600.36,-285.37 596.42,-271.27 593,-259 576.07,-198.22 556.16,-126.31 546.64,-91.88"/>
<polygon fill="#63b8ff" stroke="#63b8ff" points="549.96,-90.78 543.92,-82.07 543.22,-92.65 549.96,-90.78"/>
</a>
</g>
</g>
<!-- Node15 -->
<g id="Node000015" class="node">
<title>Node15</title>
<g id="a_Node000015"><a xlink:title=" ">
<polygon fill="#e0e0e0" stroke="#999999" points="675.5,-259 602.5,-259 602.5,-236 675.5,-236 675.5,-259"/>
<text text-anchor="middle" x="639" y="-243.8" font-family="Arial" font-size="14.00">algorithm</text>
</a>
</g>
</g>
<!-- Node1&#45;&gt;Node15 -->
<g id="edge20_Node000001_Node000015" class="edge">
<title>Node1&#45;&gt;Node15</title>
<g id="a_edge20_Node000001_Node000015"><a xlink:title=" ">
<path fill="none" stroke="#63b8ff" d="M612.21,-294.78C616.59,-287.22 622.57,-276.87 627.78,-267.88"/>
<polygon fill="#63b8ff" stroke="#63b8ff" points="630.84,-269.58 632.82,-259.17 624.78,-266.07 630.84,-269.58"/>
</a>
</g>
</g>
<!-- Node16 -->
<g id="Node000016" class="node">
<title>Node16</title>
<g id="a_Node000016"><a xlink:title=" ">
<polygon fill="#e0e0e0" stroke="#999999" points="750,-259 694,-259 694,-236 750,-236 750,-259"/>
<text text-anchor="middle" x="722" y="-243.8" font-family="Arial" font-size="14.00">cstring</text>
</a>
</g>
</g>
<!-- Node1&#45;&gt;Node16 -->
<g id="edge22_Node000001_Node000016" class="edge">
<title>Node1&#45;&gt;Node16</title>
<g id="a_edge22_Node000001_Node000016"><a xlink:title=" ">
<path fill="none" stroke="#63b8ff" d="M627.55,-294.91C645.53,-286.07 671.39,-273.37 691.5,-263.49"/>
<polygon fill="#63b8ff" stroke="#63b8ff" points="693.14,-266.58 700.57,-259.03 690.05,-260.3 693.14,-266.58"/>
</a>
</g>
</g>
<!-- Node3 -->
<g id="Node000003" class="node">
<title>Node3</title>
<g id="a_Node000003"><a xlink:title=" ">
<polygon fill="#e0e0e0" stroke="#999999" points="451.5,-200 360.5,-200 360.5,-177 451.5,-177 451.5,-200"/>
<text text-anchor="middle" x="406" y="-184.8" font-family="Arial" font-size="14.00">driver/gpio.h</text>
</a>
</g>
</g>
<!-- Node2&#45;&gt;Node3 -->
<g id="edge2_Node000002_Node000003" class="edge">
<title>Node2&#45;&gt;Node3</title>
<g id="a_edge2_Node000002_Node000003"><a xlink:title=" ">
<path fill="none" stroke="#63b8ff" d="M368.65,-235.78C374.95,-227.98 383.63,-217.21 391.04,-208.03"/>
<polygon fill="#63b8ff" stroke="#63b8ff" points="393.83,-210.15 397.39,-200.17 388.38,-205.76 393.83,-210.15"/>
</a>
</g>
</g>
<!-- Node4 -->
<g id="Node000004" class="node">
<title>Node4</title>
<g id="a_Node000004"><a xlink:title=" ">
<polygon fill="#e0e0e0" stroke="#999999" points="546,-200 470,-200 470,-177 546,-177 546,-200"/>
<text text-anchor="middle" x="508" y="-184.8" font-family="Arial" font-size="14.00">esp_attr.h</text>
</a>
</g>
</g>
<!-- Node2&#45;&gt;Node4 -->
<g id="edge3_Node000002_Node000004" class="edge">
<title>Node2&#45;&gt;Node4</title>
<g id="a_edge3_Node000002_Node000004"><a xlink:title=" ">
<path fill="none" stroke="#63b8ff" d="M387.49,-235.91C411.06,-226.83 445.22,-213.68 471.16,-203.69"/>
<polygon fill="#63b8ff" stroke="#63b8ff" points="472.58,-206.89 480.66,-200.03 470.07,-200.36 472.58,-206.89"/>
</a>
</g>
</g>
<!-- Node5 -->
<g id="Node000005" class="node">
<title>Node5</title>
<g id="a_Node000005"><a xlink:href="BaseGpio_8h.html" target="_top" xlink:title="Unified GPIO base class for all digital GPIO implementations.">
<polygon fill="white" stroke="#666666" points="156,-141 68,-141 68,-118 156,-118 156,-141"/>
<text text-anchor="middle" x="112" y="-125.8" font-family="Arial" font-size="14.00">BaseGpio.h</text>
</a>
</g>
</g>
<!-- Node2&#45;&gt;Node5 -->
<g id="edge4_Node000002_Node000005" class="edge">
<title>Node2&#45;&gt;Node5</title>
<g id="a_edge4_Node000002_Node000005"><a xlink:title=" ">
<path fill="none" stroke="#63b8ff" d="M319.99,-243.55C261.28,-238.4 155.86,-225.77 129,-200 116.02,-187.54 112.28,-166.93 111.49,-151.38"/>
<polygon fill="#63b8ff" stroke="#63b8ff" points="114.99,-151.09 111.34,-141.15 107.99,-151.2 114.99,-151.09"/>
</a>
</g>
</g>
<!-- Node10 -->
<g id="Node000010" class="node">
<title>Node10</title>
<g id="a_Node000010"><a xlink:href="EspTypes__GPIO_8h.html" target="_top" xlink:title="ESP32 GPIO type definitions for hardware abstraction.">
<polygon fill="white" stroke="#666666" points="268,-200 138,-200 138,-177 268,-177 268,-200"/>
<text text-anchor="middle" x="203" y="-184.8" font-family="Arial" font-size="14.00">EspTypes_GPIO.h</text>
</a>
</g>
</g>
<!-- Node2&#45;&gt;Node10 -->
<g id="edge10_Node000002_Node000010" class="edge">
<title>Node2&#45;&gt;Node10</title>
<g id="a_edge10_Node000002_Node000010"><a xlink:title=" ">
<path fill="none" stroke="#63b8ff" d="M330.84,-235.91C305.72,-226.79 269.28,-213.56 241.72,-203.56"/>
<polygon fill="#63b8ff" stroke="#63b8ff" points="242.6,-200.15 232.01,-200.03 240.21,-206.73 242.6,-200.15"/>
</a>
</g>
</g>
<!-- Node14 -->
<g id="Node000014" class="node">
<title>Node14</title>
<g id="a_Node000014"><a xlink:title=" ">
<polygon fill="#e0e0e0" stroke="#999999" points="342,-200 286,-200 286,-177 342,-177 342,-200"/>
<text text-anchor="middle" x="314" y="-184.8" font-family="Arial" font-size="14.00">stdio.h</text>
</a>
</g>
</g>
<!-- Node2&#45;&gt;Node14 -->
<g id="edge19_Node000002_Node000014" class="edge">
<title>Node2&#45;&gt;Node14</title>
<g id="a_edge19_Node000002_Node000014"><a xlink:title=" ">
<path fill="none" stroke="#63b8ff" d="M351.35,-235.78C345.05,-227.98 336.37,-217.21 328.96,-208.03"/>
<polygon fill="#63b8ff" stroke="#63b8ff" points="331.62,-205.76 322.61,-200.17 326.17,-210.15 331.62,-205.76"/>
</a>
</g>
</g>
<!-- Node6 -->
<g id="Node000006" class="node">
<title>Node6</title>
<g id="a_Node000006"><a xlink:href="HardwareTypes_8h.html" target="_top" xlink:title="Platform&#45;agnostic hardware type definitions for the HardFOC system.">
<polygon fill="white" stroke="#666666" points="262,-82 140,-82 140,-59 262,-59 262,-82"/>
<text text-anchor="middle" x="201" y="-66.8" font-family="Arial" font-size="14.00">HardwareTypes.h</text>
</a>
</g>
</g>
<!-- Node5&#45;&gt;Node6 -->
<g id="edge5_Node000005_Node000006" class="edge">
<title>Node5&#45;&gt;Node6</title>
<g id="a_edge5_Node000005_Node000006"><a xlink:title=" ">
<path fill="none" stroke="#63b8ff" d="M128.74,-117.78C141.92,-109.34 160.5,-97.44 175.52,-87.82"/>
<polygon fill="#63b8ff" stroke="#63b8ff" points="177.8,-90.51 184.33,-82.17 174.03,-84.62 177.8,-90.51"/>
</a>
</g>
</g>
<!-- Node7 -->
<g id="Node000007" class="node">
<title>Node7</title>
<g id="a_Node000007"><a xlink:title=" ">
<polygon fill="#e0e0e0" stroke="#999999" points="264,-23 208,-23 208,0 264,0 264,-23"/>
<text text-anchor="middle" x="236" y="-7.8" font-family="Arial" font-size="14.00">cstdint</text>
</a>
</g>
</g>
<!-- Node5&#45;&gt;Node7 -->
<g id="edge8_Node000005_Node000007" class="edge">
<title>Node5&#45;&gt;Node7</title>
<g id="a_edge8_Node000005_Node000007"><a xlink:title=" ">
<path fill="none" stroke="#63b8ff" d="M112.17,-117.78C112.97,-102.89 116.48,-75.88 131,-59 140.31,-48.18 172.06,-34.91 198.23,-25.32"/>
<polygon fill="#63b8ff" stroke="#63b8ff" points="199.7,-28.51 207.93,-21.84 197.34,-21.93 199.7,-28.51"/>
</a>
</g>
</g>
<!-- Node9 -->
<g id="Node000009" class="node">
<title>Node9</title>
<g id="a_Node000009"><a xlink:title=" ">
<polygon fill="#e0e0e0" stroke="#999999" points="84,-82 0,-82 0,-59 84,-59 84,-82"/>
<text text-anchor="middle" x="42" y="-66.8" font-family="Arial" font-size="14.00">string_view</text>
</a>
</g>
</g>
<!-- Node5&#45;&gt;Node9 -->
<g id="edge9_Node000005_Node000009" class="edge">
<title>Node5&#45;&gt;Node9</title>
<g id="a_edge9_Node000005_Node000009"><a xlink:title=" ">
<path fill="none" stroke="#63b8ff" d="M98.83,-117.78C88.76,-109.58 74.68,-98.11 63.05,-88.64"/>
<polygon fill="#63b8ff" stroke="#63b8ff" points="65.07,-85.77 55.11,-82.17 60.65,-91.2 65.07,-85.77"/>
</a>
</g>
</g>
<!-- Node6&#45;&gt;Node7 -->
<g id="edge6_Node000006_Node000007" class="edge">
<title>Node6&#45;&gt;Node7</title>
<g id="a_edge6_Node000006_Node000007"><a xlink:title=" ">
<path fill="none" stroke="#63b8ff" d="M207.58,-58.78C212.23,-51.22 218.58,-40.87 224.1,-31.88"/>
<polygon fill="#63b8ff" stroke="#63b8ff" points="227.2,-33.53 229.45,-23.17 221.23,-29.86 227.2,-33.53"/>
</a>
</g>
</g>
<!-- Node8 -->
<g id="Node000008" class="node">
<title>Node8</title>
<g id="a_Node000008"><a xlink:title=" ">
<polygon fill="#e0e0e0" stroke="#999999" points="190,-23 142,-23 142,0 190,0 190,-23"/>
<text text-anchor="middle" x="166" y="-7.8" font-family="Arial" font-size="14.00">limits</text>
</a>
</g>
</g>
<!-- Node6&#45;&gt;Node8 -->
<g id="edge7_Node000006_Node000008" class="edge">
<title>Node6&#45;&gt;Node8</title>
<g id="a_edge7_Node000006_Node000008"><a xlink:title=" ">
<path fill="none" stroke="#63b8ff" d="M194.42,-58.78C189.77,-51.22 183.42,-40.87 177.9,-31.88"/>
<polygon fill="#63b8ff" stroke="#63b8ff" points="180.77,-29.86 172.55,-23.17 174.8,-33.53 180.77,-29.86"/>
</a>
</g>
</g>
<!-- Node10&#45;&gt;Node5 -->
<g id="edge11_Node000010_Node000005" class="edge">
<title>Node10&#45;&gt;Node5</title>
<g id="a_edge11_Node000010_Node000005"><a xlink:title=" ">
<path fill="none" stroke="#63b8ff" d="M185.88,-176.78C172.28,-168.26 153.05,-156.21 137.62,-146.55"/>
<polygon fill="#63b8ff" stroke="#63b8ff" points="139.37,-143.52 129.04,-141.17 135.66,-149.45 139.37,-143.52"/>
</a>
</g>
</g>
<!-- Node10&#45;&gt;Node6 -->
<g id="edge17_Node000010_Node000006" class="edge">
<title>Node10&#45;&gt;Node6</title>
<g id="a_edge17_Node000010_Node000006"><a xlink:title=" ">
<path fill="none" stroke="#63b8ff" d="M202.82,-176.79C202.49,-157.63 201.79,-117.15 201.36,-92.34"/>
<polygon fill="#63b8ff" stroke="#63b8ff" points="204.86,-92.12 201.18,-82.18 197.86,-92.24 204.86,-92.12"/>
</a>
</g>
</g>
<!-- Node11 -->
<g id="Node000011" class="node">
<title>Node11</title>
<g id="a_Node000011"><a xlink:href="EspTypes__Base_8h.html" target="_top" xlink:title="ESP32 base type definitions for hardware abstraction.">
<polygon fill="white" stroke="#666666" points="354.5,-141 229.5,-141 229.5,-118 354.5,-118 354.5,-141"/>
<text text-anchor="middle" x="292" y="-125.8" font-family="Arial" font-size="14.00">EspTypes_Base.h</text>
</a>
</g>
</g>
<!-- Node10&#45;&gt;Node11 -->
<g id="edge12_Node000010_Node000011" class="edge">
<title>Node10&#45;&gt;Node11</title>
<g id="a_edge12_Node000010_Node000011"><a xlink:title=" ">
<path fill="none" stroke="#63b8ff" d="M219.74,-176.78C232.92,-168.34 251.5,-156.44 266.52,-146.82"/>
<polygon fill="#63b8ff" stroke="#63b8ff" points="268.8,-149.51 275.33,-141.17 265.03,-143.62 268.8,-149.51"/>
</a>
</g>
</g>
<!-- Node12 -->
<g id="Node000012" class="node">
<title>Node12</title>
<g id="a_Node000012"><a xlink:href="McuSelect_8h.html" target="_top" xlink:title="Centralized MCU platform selection and configuration header.">
<polygon fill="white" stroke="#666666" points="460,-82 318,-82 318,-59 460,-59 460,-82"/>
<text text-anchor="middle" x="389" y="-66.8" font-family="Arial" font-size="14.00">../../utils/McuSelect.h</text>
</a>
</g>
</g>
<!-- Node10&#45;&gt;Node12 -->
<g id="edge18_Node000010_Node000012" class="edge">
<title>Node10&#45;&gt;Node12</title>
<g id="a_edge18_Node000010_Node000012"><a xlink:title=" ">
<path fill="none" stroke="#63b8ff" d="M258.07,-176.99C298,-168.38 347.57,-155.31 363,-141 376.68,-128.31 383.2,-107.73 386.29,-92.25"/>
<polygon fill="#63b8ff" stroke="#63b8ff" points="389.79,-92.51 387.98,-82.07 382.89,-91.36 389.79,-92.51"/>
</a>
</g>
</g>
<!-- Node11&#45;&gt;Node6 -->
<g id="edge14_Node000011_Node000006" class="edge">
<title>Node11&#45;&gt;Node6</title>
<g id="a_edge14_Node000011_Node000006"><a xlink:title=" ">
<path fill="none" stroke="#63b8ff" d="M274.88,-117.78C261.28,-109.26 242.05,-97.21 226.62,-87.55"/>
<polygon fill="#63b8ff" stroke="#63b8ff" points="228.37,-84.52 218.04,-82.17 224.66,-90.45 228.37,-84.52"/>
</a>
</g>
</g>
<!-- Node11&#45;&gt;Node7 -->
<g id="edge16_Node000011_Node000007" class="edge">
<title>Node11&#45;&gt;Node7</title>
<g id="a_edge16_Node000011_Node000007"><a xlink:title=" ">
<path fill="none" stroke="#63b8ff" d="M289.97,-117.7C287.06,-103.64 280.92,-78.56 271,-59 265.98,-49.1 258.82,-39.14 252.29,-30.98"/>
<polygon fill="#63b8ff" stroke="#63b8ff" points="254.91,-28.66 245.82,-23.22 249.54,-33.15 254.91,-28.66"/>
</a>
</g>
</g>
<!-- Node11&#45;&gt;Node12 -->
<g id="edge13_Node000011_Node000012" class="edge">
<title>Node11&#45;&gt;Node12</title>
<g id="a_edge13_Node000011_Node000012"><a xlink:title=" ">
<path fill="none" stroke="#63b8ff" d="M310.24,-117.78C324.88,-109.18 345.63,-96.99 362.15,-87.28"/>
<polygon fill="#63b8ff" stroke="#63b8ff" points="363.99,-90.26 370.84,-82.17 360.44,-84.22 363.99,-90.26"/>
</a>
</g>
</g>
<!-- Node11&#45;&gt;Node13 -->
<g id="edge15_Node000011_Node000013" class="edge">
<title>Node11&#45;&gt;Node13</title>
<g id="a_edge15_Node000011_Node000013"><a xlink:title=" ">
<path fill="none" stroke="#63b8ff" d="M337.96,-117.98C385.28,-107.15 458.2,-90.46 502.56,-80.3"/>
<polygon fill="#63b8ff" stroke="#63b8ff" points="503.42,-83.69 512.38,-78.05 501.85,-76.87 503.42,-83.69"/>
</a>
</g>
</g>
</g>
</svg>

<g id="navigator" transform="translate(0 0)" fill="#404254">
  <rect fill="#f2f5e9" fill-opacity="0.5" stroke="#606060" stroke-width=".5" x="0" y="0" width="60" height="60"/>
  <use id="zoomplus" xlink:href="#zoomPlus" x="17" y="9" onmousedown="handleZoom(evt,'in')"/>
  <use id="zoomminus" xlink:href="#zoomMin" x="42" y="9" onmousedown="handleZoom(evt,'out')"/>
  <use id="reset" xlink:href="#resetDef" x="30" y="36" onmousedown="handleReset()"/>
   <use id="arrowup" xlink:href="#arrowUp" x="0" y="0" onmousedown="handlePan(0,-1)"/>
  <use id="arrowright" xlink:href="#arrowRight" x="0" y="0" onmousedown="handlePan(1,0)"/>
  <use id="arrowdown" xlink:href="#arrowDown" x="0" y="0" onmousedown="handlePan(0,1)"/>
  <use id="arrowleft" xlink:href="#arrowLeft" x="0" y="0" onmousedown="handlePan(-1,0)"/>
</g>
<svg viewBox="0 0 15 15" width="100%" height="30px" preserveAspectRatio="xMaxYMin meet">
 <g id="arrow_out" transform="scale(0.3 0.3)">
  <a xlink:href="EspGpio_8cpp__incl_org.svg" target="_base">
   <rect id="button" ry="5" rx="5" y="6" x="6" height="38" width="38"
        fill="#f2f5e9" fill-opacity="0.5" stroke="#606060" stroke-width="1.0"/>
   <path id="arrow"
     d="M 11.500037,31.436501 C 11.940474,20.09759 22.043105,11.32322 32.158766,21.979434 L 37.068811,17.246167 C 37.068811,17.246167 37.088388,32 37.088388,32 L 22.160133,31.978069 C 22.160133,31.978069 26.997745,27.140456 26.997745,27.140456 C 18.528582,18.264221 13.291696,25.230495 11.500037,31.436501 z"
     style="fill:#404040;"/>
  </a>
 </g>
</svg>

<style type='text/css'>
<![CDATA[
[data-mouse-over-selected='false'] { opacity: 0.7; }
[data-mouse-over-selected='true']  { opacity: 1.0; }
]]>
</style>
<script type="application/ecmascript"><![CDATA[
document.addEventListener('DOMContentLoaded', (event) => {
  highlightEdges();
  highlightAdjacentNodes();
});
]]></script>
</svg>
