<?xml version="1.0" encoding="UTF-8" standalone="no"?>
<!DOCTYPE svg PUBLIC "-//W3C//DTD SVG 1.1//EN"
 "http://www.w3.org/Graphics/SVG/1.1/DTD/svg11.dtd">
<!-- Generated by graphviz version 2.43.0 (0)
 -->
<!-- Title: inc/mcu/esp32/EspGpio.h Pages: 1 -->
<svg width="3494pt" height="194pt"
 viewBox="0.00 0.00 3494.00 194.00" xmlns="http://www.w3.org/2000/svg" xmlns:xlink="http://www.w3.org/1999/xlink">
<g id="graph0" class="graph" transform="scale(1 1) rotate(0) translate(4 190)">
<title>inc/mcu/esp32/EspGpio.h</title>
<!-- Node1 -->
<g id="Node000001" class="node">
<title>Node1</title>
<g id="a_Node000001"><a xlink:title="Advanced MCU&#45;specific implementation of the unified BaseGpio class with ESP32C6/ESP&#45;IDF v5....">
<polygon fill="#999999" stroke="#666666" points="975.5,-186 803.5,-186 803.5,-163 975.5,-163 975.5,-186"/>
<text text-anchor="middle" x="889.5" y="-170.8" font-family="Arial" font-size="14.00">inc/mcu/esp32/EspGpio.h</text>
</a>
</g>
</g>
<!-- Node2 -->
<g id="Node000002" class="node">
<title>Node2</title>
<g id="a_Node000002"><a xlink:href="DigitalOutputGuardComprehensiveTest_8cpp.html" target="_top" xlink:title="DigitalOutputGuard comprehensive test suite for ESP32&#45;C6 DevKit&#45;M&#45;1.">
<polygon fill="white" stroke="#666666" points="233,-53 0,-53 0,0 233,0 233,-53"/>
<text text-anchor="start" x="8" y="-37.8" font-family="Arial" font-size="14.00">examples/esp32/main</text>
<text text-anchor="start" x="8" y="-22.8" font-family="Arial" font-size="14.00">/DigitalOutputGuardComprehensive</text>
<text text-anchor="middle" x="116.5" y="-7.8" font-family="Arial" font-size="14.00">Test.cpp</text>
</a>
</g>
</g>
<!-- Node1&#45;&gt;Node2 -->
<g id="edge1_Node000001_Node000002" class="edge">
<title>Node1&#45;&gt;Node2</title>
<g id="a_edge1_Node000001_Node000002"><a xlink:title=" ">
<path fill="none" stroke="#63b8ff" d="M793.36,-161.97C727.58,-153.58 638.5,-141.23 560.5,-127 442.96,-105.56 309.32,-74.72 219.64,-53.07"/>
<polygon fill="#63b8ff" stroke="#63b8ff" points="792.94,-165.45 803.3,-163.23 793.82,-158.5 792.94,-165.45"/>
</a>
</g>
</g>
<!-- Node3 -->
<g id="Node000003" class="node">
<title>Node3</title>
<g id="a_Node000003"><a xlink:href="GpioComprehensiveTest_8cpp.html" target="_top" xlink:title="Comprehensive GPIO testing suite for ESP32&#45;C6 DevKit&#45;M&#45;1 (noexcept)">
<polygon fill="white" stroke="#666666" points="446,-45.5 251,-45.5 251,-7.5 446,-7.5 446,-45.5"/>
<text text-anchor="start" x="259" y="-30.3" font-family="Arial" font-size="14.00">examples/esp32/main</text>
<text text-anchor="middle" x="348.5" y="-15.3" font-family="Arial" font-size="14.00">/GpioComprehensiveTest.cpp</text>
</a>
</g>
</g>
<!-- Node1&#45;&gt;Node3 -->
<g id="edge2_Node000001_Node000003" class="edge">
<title>Node1&#45;&gt;Node3</title>
<g id="a_edge2_Node000001_Node000003"><a xlink:title=" ">
<path fill="none" stroke="#63b8ff" d="M834.62,-160.62C796.6,-151.57 744.86,-138.98 699.5,-127 597.38,-100.04 479.37,-65.99 409.5,-45.52"/>
<polygon fill="#63b8ff" stroke="#63b8ff" points="833.93,-164.06 844.47,-162.96 835.55,-157.25 833.93,-164.06"/>
</a>
</g>
</g>
<!-- Node4 -->
<g id="Node000004" class="node">
<title>Node4</title>
<g id="a_Node000004"><a xlink:href="I2cComprehensiveTest_8cpp.html" target="_top" xlink:title="Comprehensive I2C testing suite for ESP32&#45;C6 DevKit&#45;M&#45;1 (noexcept)">
<polygon fill="white" stroke="#666666" points="648.5,-45.5 464.5,-45.5 464.5,-7.5 648.5,-7.5 648.5,-45.5"/>
<text text-anchor="start" x="472.5" y="-30.3" font-family="Arial" font-size="14.00">examples/esp32/main</text>
<text text-anchor="middle" x="556.5" y="-15.3" font-family="Arial" font-size="14.00">/I2cComprehensiveTest.cpp</text>
</a>
</g>
</g>
<!-- Node1&#45;&gt;Node4 -->
<g id="edge3_Node000001_Node000004" class="edge">
<title>Node1&#45;&gt;Node4</title>
<g id="a_edge3_Node000001_Node000004"><a xlink:title=" ">
<path fill="none" stroke="#63b8ff" d="M856.06,-158.84C794.75,-131.96 664.54,-74.87 597.81,-45.61"/>
<polygon fill="#63b8ff" stroke="#63b8ff" points="854.72,-162.07 865.28,-162.88 857.53,-155.66 854.72,-162.07"/>
</a>
</g>
</g>
<!-- Node5 -->
<g id="Node000005" class="node">
<title>Node5</title>
<g id="a_Node000005"><a xlink:href="PioComprehensiveTest_8cpp.html" target="_top" xlink:title="Comprehensive PIO testing suite for ESP32&#45;C6 DevKit&#45;M&#45;1 with RMT peripheral (noexcept)">
<polygon fill="white" stroke="#666666" points="852,-45.5 667,-45.5 667,-7.5 852,-7.5 852,-45.5"/>
<text text-anchor="start" x="675" y="-30.3" font-family="Arial" font-size="14.00">examples/esp32/main</text>
<text text-anchor="middle" x="759.5" y="-15.3" font-family="Arial" font-size="14.00">/PioComprehensiveTest.cpp</text>
</a>
</g>
</g>
<!-- Node1&#45;&gt;Node5 -->
<g id="edge4_Node000001_Node000005" class="edge">
<title>Node1&#45;&gt;Node5</title>
<g id="a_edge4_Node000001_Node000005"><a xlink:title=" ">
<path fill="none" stroke="#63b8ff" d="M873.01,-154.98C847.96,-126.85 800.64,-73.7 775.74,-45.74"/>
<polygon fill="#63b8ff" stroke="#63b8ff" points="870.46,-157.39 879.73,-162.53 875.69,-152.73 870.46,-157.39"/>
</a>
</g>
</g>
<!-- Node6 -->
<g id="Node000006" class="node">
<title>Node6</title>
<g id="a_Node000006"><a xlink:href="PwmComprehensiveTest_8cpp.html" target="_top" xlink:title="Comprehensive PWM testing suite for ESP32 family (noexcept)">
<polygon fill="white" stroke="#666666" points="1067,-45.5 870,-45.5 870,-7.5 1067,-7.5 1067,-45.5"/>
<text text-anchor="start" x="878" y="-30.3" font-family="Arial" font-size="14.00">examples/esp32/main</text>
<text text-anchor="middle" x="968.5" y="-15.3" font-family="Arial" font-size="14.00">/PwmComprehensiveTest.cpp</text>
</a>
</g>
</g>
<!-- Node1&#45;&gt;Node6 -->
<g id="edge5_Node000001_Node000006" class="edge">
<title>Node1&#45;&gt;Node6</title>
<g id="a_edge5_Node000001_Node000006"><a xlink:title=" ">
<path fill="none" stroke="#63b8ff" d="M900.32,-153.51C915.72,-125.03 943.76,-73.22 958.63,-45.74"/>
<polygon fill="#63b8ff" stroke="#63b8ff" points="897.12,-152.07 895.44,-162.53 903.28,-155.4 897.12,-152.07"/>
</a>
</g>
</g>
<!-- Node7 -->
<g id="Node000007" class="node">
<title>Node7</title>
<g id="a_Node000007"><a xlink:href="TestFramework_8h.html" target="_top" xlink:title="Shared testing framework for ESP32&#45;C6 comprehensive test suites.">
<polygon fill="white" stroke="#666666" points="1576,-127 1427,-127 1427,-89 1576,-89 1576,-127"/>
<text text-anchor="start" x="1435" y="-111.8" font-family="Arial" font-size="14.00">examples/esp32/main</text>
<text text-anchor="middle" x="1501.5" y="-96.8" font-family="Arial" font-size="14.00">/TestFramework.h</text>
</a>
</g>
</g>
<!-- Node1&#45;&gt;Node7 -->
<g id="edge6_Node000001_Node000007" class="edge">
<title>Node1&#45;&gt;Node7</title>
<g id="a_edge6_Node000001_Node000007"><a xlink:title=" ">
<path fill="none" stroke="#63b8ff" d="M985.66,-163.37C1107.85,-150.49 1316.15,-128.53 1426.99,-116.85"/>
<polygon fill="#63b8ff" stroke="#63b8ff" points="985.14,-159.9 975.56,-164.43 985.88,-166.86 985.14,-159.9"/>
</a>
</g>
</g>
<!-- Node17 -->
<g id="Node000017" class="node">
<title>Node17</title>
<g id="a_Node000017"><a xlink:href="UartComprehensiveTest_8cpp.html" target="_top" xlink:title="Comprehensive UART testing suite for ESP32&#45;C6 DevKit&#45;M&#45;1 (noexcept)">
<polygon fill="white" stroke="#666666" points="3486,-45.5 3295,-45.5 3295,-7.5 3486,-7.5 3486,-45.5"/>
<text text-anchor="start" x="3303" y="-30.3" font-family="Arial" font-size="14.00">examples/esp32/main</text>
<text text-anchor="middle" x="3390.5" y="-15.3" font-family="Arial" font-size="14.00">/UartComprehensiveTest.cpp</text>
</a>
</g>
</g>
<!-- Node1&#45;&gt;Node17 -->
<g id="edge23_Node000001_Node000017" class="edge">
<title>Node1&#45;&gt;Node17</title>
<g id="a_edge23_Node000001_Node000017"><a xlink:title=" ">
<path fill="none" stroke="#63b8ff" d="M985.9,-170.88C1164.26,-165.47 1532.49,-151.49 1585.5,-127 1606.9,-117.12 1600.88,-98.4 1622.5,-89 1707.24,-52.15 3193.87,-64.97 3285.5,-53 3298.61,-51.29 3312.47,-48.58 3325.66,-45.56"/>
<polygon fill="#63b8ff" stroke="#63b8ff" points="985.62,-167.39 975.73,-171.18 985.83,-174.38 985.62,-167.39"/>
</a>
</g>
</g>
<!-- Node19 -->
<g id="Node000019" class="node">
<title>Node19</title>
<g id="a_Node000019"><a xlink:href="EspGpio_8cpp.html" target="_top" xlink:title="Production&#45;quality ESP32C6 GPIO implementation with ESP&#45;IDF v5.5+ advanced features.">
<polygon fill="white" stroke="#666666" points="1818,-119.5 1631,-119.5 1631,-96.5 1818,-96.5 1818,-119.5"/>
<text text-anchor="middle" x="1724.5" y="-104.3" font-family="Arial" font-size="14.00">src/mcu/esp32/EspGpio.cpp</text>
</a>
</g>
</g>
<!-- Node1&#45;&gt;Node19 -->
<g id="edge24_Node000001_Node000019" class="edge">
<title>Node1&#45;&gt;Node19</title>
<g id="a_edge24_Node000001_Node000019"><a xlink:title=" ">
<path fill="none" stroke="#63b8ff" d="M986.01,-170.5C1125.69,-165.43 1392.13,-153.08 1617.5,-127 1634.15,-125.07 1652.16,-122.31 1668.57,-119.53"/>
<polygon fill="#63b8ff" stroke="#63b8ff" points="985.64,-167.01 975.77,-170.86 985.89,-174 985.64,-167.01"/>
</a>
</g>
</g>
<!-- Node7&#45;&gt;Node2 -->
<g id="edge11_Node000007_Node000002" class="edge">
<title>Node7&#45;&gt;Node2</title>
<g id="a_edge11_Node000007_Node000002"><a xlink:title=" ">
<path fill="none" stroke="#63b8ff" d="M1416.55,-105.12C1172.09,-99.41 469.8,-81 241.5,-53 238.75,-52.66 235.97,-52.3 233.18,-51.91"/>
<polygon fill="#63b8ff" stroke="#63b8ff" points="1416.72,-108.62 1426.8,-105.35 1416.88,-101.62 1416.72,-108.62"/>
</a>
</g>
</g>
<!-- Node7&#45;&gt;Node3 -->
<g id="edge12_Node000007_Node000003" class="edge">
<title>Node7&#45;&gt;Node3</title>
<g id="a_edge12_Node000007_Node000003"><a xlink:title=" ">
<path fill="none" stroke="#63b8ff" d="M1416.73,-107.84C1238.04,-108.47 809.95,-103.95 455.5,-53 442.55,-51.14 428.87,-48.45 415.78,-45.5"/>
<polygon fill="#63b8ff" stroke="#63b8ff" points="1416.87,-111.34 1426.86,-107.8 1416.84,-104.34 1416.87,-111.34"/>
</a>
</g>
</g>
<!-- Node7&#45;&gt;Node4 -->
<g id="edge13_Node000007_Node000004" class="edge">
<title>Node7&#45;&gt;Node4</title>
<g id="a_edge13_Node000007_Node000004"><a xlink:title=" ">
<path fill="none" stroke="#63b8ff" d="M1416.52,-106.7C1263.7,-105.02 932.76,-96.18 657.5,-53 645.44,-51.11 632.72,-48.44 620.52,-45.54"/>
<polygon fill="#63b8ff" stroke="#63b8ff" points="1416.73,-110.2 1426.77,-106.8 1416.8,-103.2 1416.73,-110.2"/>
</a>
</g>
</g>
<!-- Node7&#45;&gt;Node5 -->
<g id="edge16_Node000007_Node000005" class="edge">
<title>Node7&#45;&gt;Node5</title>
<g id="a_edge16_Node000007_Node000005"><a xlink:title=" ">
<path fill="none" stroke="#63b8ff" d="M1416.86,-104.27C1293.69,-99.3 1058.17,-86.05 860.5,-53 848.73,-51.03 836.31,-48.38 824.37,-45.54"/>
<polygon fill="#63b8ff" stroke="#63b8ff" points="1416.85,-107.77 1426.98,-104.67 1417.13,-100.78 1416.85,-107.77"/>
</a>
</g>
</g>
<!-- Node7&#45;&gt;Node6 -->
<g id="edge17_Node000007_Node000006" class="edge">
<title>Node7&#45;&gt;Node6</title>
<g id="a_edge17_Node000007_Node000006"><a xlink:title=" ">
<path fill="none" stroke="#63b8ff" d="M1416.86,-98.99C1330.6,-90.19 1193.15,-74.41 1075.5,-53 1063.76,-50.86 1051.37,-48.25 1039.35,-45.52"/>
<polygon fill="#63b8ff" stroke="#63b8ff" points="1416.56,-102.48 1426.86,-100 1417.27,-95.51 1416.56,-102.48"/>
</a>
</g>
</g>
<!-- Node8 -->
<g id="Node000008" class="node">
<title>Node8</title>
<g id="a_Node000008"><a xlink:href="AdcComprehensiveTest_8cpp.html" target="_top" xlink:title="Comprehensive ADC testing suite for ESP32&#45;C6 DevKit&#45;M&#45;1 (noexcept)">
<polygon fill="white" stroke="#666666" points="1700,-45.5 1511,-45.5 1511,-7.5 1700,-7.5 1700,-45.5"/>
<text text-anchor="start" x="1519" y="-30.3" font-family="Arial" font-size="14.00">examples/esp32/main</text>
<text text-anchor="middle" x="1605.5" y="-15.3" font-family="Arial" font-size="14.00">/AdcComprehensiveTest.cpp</text>
</a>
</g>
</g>
<!-- Node7&#45;&gt;Node8 -->
<g id="edge7_Node000007_Node000008" class="edge">
<title>Node7&#45;&gt;Node8</title>
<g id="a_edge7_Node000007_Node000008"><a xlink:title=" ">
<path fill="none" stroke="#63b8ff" d="M1533.4,-82.61C1548.95,-70.73 1567.32,-56.68 1581.63,-45.74"/>
<polygon fill="#63b8ff" stroke="#63b8ff" points="1530.92,-80.11 1525.1,-88.96 1535.17,-85.67 1530.92,-80.11"/>
</a>
</g>
</g>
<!-- Node9 -->
<g id="Node000009" class="node">
<title>Node9</title>
<g id="a_Node000009"><a xlink:href="AsciiArtComprehensiveTest_8cpp.html" target="_top" xlink:title="ASCII Art Generator comprehensive example and test suite for ESP32&#45;C6 DevKit&#45;M&#45;1 (noexcept)">
<polygon fill="white" stroke="#666666" points="1930.5,-45.5 1718.5,-45.5 1718.5,-7.5 1930.5,-7.5 1930.5,-45.5"/>
<text text-anchor="start" x="1726.5" y="-30.3" font-family="Arial" font-size="14.00">examples/esp32/main</text>
<text text-anchor="middle" x="1824.5" y="-15.3" font-family="Arial" font-size="14.00">/AsciiArtComprehensiveTest.cpp</text>
</a>
</g>
</g>
<!-- Node7&#45;&gt;Node9 -->
<g id="edge8_Node000007_Node000009" class="edge">
<title>Node7&#45;&gt;Node9</title>
<g id="a_edge8_Node000007_Node000009"><a xlink:title=" ">
<path fill="none" stroke="#63b8ff" d="M1584.57,-86.55C1636.08,-73.88 1701.65,-57.74 1751.22,-45.54"/>
<polygon fill="#63b8ff" stroke="#63b8ff" points="1583.67,-83.17 1574.79,-88.96 1585.34,-89.97 1583.67,-83.17"/>
</a>
</g>
</g>
<!-- Node10 -->
<g id="Node000010" class="node">
<title>Node10</title>
<g id="a_Node000010"><a xlink:href="BluetoothComprehensiveTest_8cpp.html" target="_top" xlink:title="Comprehensive Bluetooth/NimBLE testing suite for ESP32&#45;C6 DevKit&#45;M&#45;1 (noexcept)">
<polygon fill="white" stroke="#666666" points="2171,-45.5 1948,-45.5 1948,-7.5 2171,-7.5 2171,-45.5"/>
<text text-anchor="start" x="1956" y="-30.3" font-family="Arial" font-size="14.00">examples/esp32/main</text>
<text text-anchor="middle" x="2059.5" y="-15.3" font-family="Arial" font-size="14.00">/BluetoothComprehensiveTest.cpp</text>
</a>
</g>
</g>
<!-- Node7&#45;&gt;Node10 -->
<g id="edge9_Node000007_Node000010" class="edge">
<title>Node7&#45;&gt;Node10</title>
<g id="a_edge9_Node000007_Node000010"><a xlink:title=" ">
<path fill="none" stroke="#63b8ff" d="M1586.24,-89.51C1587.34,-89.34 1588.42,-89.17 1589.5,-89 1744.07,-65.3 1785.02,-77.29 1939.5,-53 1952.86,-50.9 1966.98,-48.27 1980.65,-45.51"/>
<polygon fill="#63b8ff" stroke="#63b8ff" points="1585.59,-86.07 1576.3,-91.17 1586.74,-92.97 1585.59,-86.07"/>
</a>
</g>
</g>
<!-- Node11 -->
<g id="Node000011" class="node">
<title>Node11</title>
<g id="a_Node000011"><a xlink:href="CanComprehensiveTest_8cpp.html" target="_top" xlink:title="Comprehensive CAN testing suite for ESP32&#45;C6 with ESP&#45;IDF v5.5 TWAI API and SN65 transceiver.">
<polygon fill="white" stroke="#666666" points="2380,-45.5 2189,-45.5 2189,-7.5 2380,-7.5 2380,-45.5"/>
<text text-anchor="start" x="2197" y="-30.3" font-family="Arial" font-size="14.00">examples/esp32/main</text>
<text text-anchor="middle" x="2284.5" y="-15.3" font-family="Arial" font-size="14.00">/CanComprehensiveTest.cpp</text>
</a>
</g>
</g>
<!-- Node7&#45;&gt;Node11 -->
<g id="edge10_Node000007_Node000011" class="edge">
<title>Node7&#45;&gt;Node11</title>
<g id="a_edge10_Node000007_Node000011"><a xlink:title=" ">
<path fill="none" stroke="#63b8ff" d="M1586.23,-89.45C1587.33,-89.29 1588.42,-89.14 1589.5,-89 1850.39,-54.55 1920.33,-92.49 2180.5,-53 2192.91,-51.12 2206,-48.45 2218.56,-45.55"/>
<polygon fill="#63b8ff" stroke="#63b8ff" points="1585.63,-86 1576.27,-90.96 1586.68,-92.92 1585.63,-86"/>
</a>
</g>
</g>
<!-- Node12 -->
<g id="Node000012" class="node">
<title>Node12</title>
<g id="a_Node000012"><a xlink:href="LoggerComprehensiveTest_8cpp.html" target="_top" xlink:title="Comprehensive Logger testing suite for ESP32&#45;C6 DevKit&#45;M&#45;1 (noexcept)">
<polygon fill="white" stroke="#666666" points="2606.5,-45.5 2398.5,-45.5 2398.5,-7.5 2606.5,-7.5 2606.5,-45.5"/>
<text text-anchor="start" x="2406.5" y="-30.3" font-family="Arial" font-size="14.00">examples/esp32/main</text>
<text text-anchor="middle" x="2502.5" y="-15.3" font-family="Arial" font-size="14.00">/LoggerComprehensiveTest.cpp</text>
</a>
</g>
</g>
<!-- Node7&#45;&gt;Node12 -->
<g id="edge14_Node000007_Node000012" class="edge">
<title>Node7&#45;&gt;Node12</title>
<g id="a_edge14_Node000007_Node000012"><a xlink:title=" ">
<path fill="none" stroke="#63b8ff" d="M1586.23,-89.42C1587.33,-89.27 1588.42,-89.13 1589.5,-89 1942.71,-45.2 2036.75,-100.36 2389.5,-53 2403.15,-51.17 2417.59,-48.49 2431.42,-45.55"/>
<polygon fill="#63b8ff" stroke="#63b8ff" points="1585.65,-85.97 1576.26,-90.88 1586.66,-92.9 1585.65,-85.97"/>
</a>
</g>
</g>
<!-- Node13 -->
<g id="Node000013" class="node">
<title>Node13</title>
<g id="a_Node000013"><a xlink:href="NvsComprehensiveTest_8cpp.html" target="_top" xlink:title="Comprehensive NVS (Non&#45;Volatile Storage) testing suite for ESP32&#45;C6 DevKit&#45;M&#45;1 (noexcept)">
<polygon fill="white" stroke="#666666" points="2814,-45.5 2625,-45.5 2625,-7.5 2814,-7.5 2814,-45.5"/>
<text text-anchor="start" x="2633" y="-30.3" font-family="Arial" font-size="14.00">examples/esp32/main</text>
<text text-anchor="middle" x="2719.5" y="-15.3" font-family="Arial" font-size="14.00">/NvsComprehensiveTest.cpp</text>
</a>
</g>
</g>
<!-- Node7&#45;&gt;Node13 -->
<g id="edge15_Node000007_Node000013" class="edge">
<title>Node7&#45;&gt;Node13</title>
<g id="a_edge15_Node000007_Node000013"><a xlink:title=" ">
<path fill="none" stroke="#63b8ff" d="M1586.23,-89.41C1587.33,-89.26 1588.42,-89.13 1589.5,-89 2042.59,-35.09 2163.54,-115.66 2615.5,-53 2628.3,-51.23 2641.81,-48.54 2654.71,-45.56"/>
<polygon fill="#63b8ff" stroke="#63b8ff" points="1585.66,-85.95 1576.25,-90.83 1586.65,-92.88 1585.66,-85.95"/>
</a>
</g>
</g>
<!-- Node14 -->
<g id="Node000014" class="node">
<title>Node14</title>
<g id="a_Node000014"><a xlink:href="SpiComprehensiveTest_8cpp.html" target="_top" xlink:title="Comprehensive SPI testing suite for ESP32&#45;C6 DevKit&#45;M&#45;1 (noexcept)">
<polygon fill="white" stroke="#666666" points="3017,-45.5 2832,-45.5 2832,-7.5 3017,-7.5 3017,-45.5"/>
<text text-anchor="start" x="2840" y="-30.3" font-family="Arial" font-size="14.00">examples/esp32/main</text>
<text text-anchor="middle" x="2924.5" y="-15.3" font-family="Arial" font-size="14.00">/SpiComprehensiveTest.cpp</text>
</a>
</g>
</g>
<!-- Node7&#45;&gt;Node14 -->
<g id="edge18_Node000007_Node000014" class="edge">
<title>Node7&#45;&gt;Node14</title>
<g id="a_edge18_Node000007_Node000014"><a xlink:title=" ">
<path fill="none" stroke="#63b8ff" d="M1586.23,-89.4C1587.32,-89.26 1588.42,-89.13 1589.5,-89 2134.52,-25.79 2280.06,-128.61 2823.5,-53 2836.04,-51.26 2849.27,-48.56 2861.88,-45.56"/>
<polygon fill="#63b8ff" stroke="#63b8ff" points="1585.67,-85.94 1576.25,-90.8 1586.64,-92.87 1585.67,-85.94"/>
</a>
</g>
</g>
<!-- Node15 -->
<g id="Node000015" class="node">
<title>Node15</title>
<g id="a_Node000015"><a xlink:href="TemperatureComprehensiveTest_8cpp.html" target="_top" xlink:title="Comprehensive Temperature sensor testing suite for ESP32&#45;C6 DevKit&#45;M&#45;1 (noexcept)">
<polygon fill="white" stroke="#666666" points="3276.5,-45.5 3034.5,-45.5 3034.5,-7.5 3276.5,-7.5 3276.5,-45.5"/>
<text text-anchor="start" x="3042.5" y="-30.3" font-family="Arial" font-size="14.00">examples/esp32/main</text>
<text text-anchor="middle" x="3155.5" y="-15.3" font-family="Arial" font-size="14.00">/TemperatureComprehensiveTest.cpp</text>
</a>
</g>
</g>
<!-- Node7&#45;&gt;Node15 -->
<g id="edge19_Node000007_Node000015" class="edge">
<title>Node7&#45;&gt;Node15</title>
<g id="a_edge19_Node000007_Node000015"><a xlink:title=" ">
<path fill="none" stroke="#63b8ff" d="M1586.23,-89.39C1587.32,-89.25 1588.42,-89.12 1589.5,-89 2224.26,-16.7 2391.5,-123.2 3026.5,-53 3042.38,-51.24 3059.23,-48.54 3075.32,-45.54"/>
<polygon fill="#63b8ff" stroke="#63b8ff" points="1585.67,-85.93 1576.25,-90.77 1586.63,-92.87 1585.67,-85.93"/>
</a>
</g>
</g>
<!-- Node16 -->
<g id="Node000016" class="node">
<title>Node16</title>
<g id="a_Node000016"><a xlink:href="TimerComprehensiveTest_8cpp.html" target="_top" xlink:title="ESP32&#45;C6 Periodic Timer Comprehensive Test Suite v2.0.">
<polygon fill="white" stroke="#666666" points="1286,-45.5 1085,-45.5 1085,-7.5 1286,-7.5 1286,-45.5"/>
<text text-anchor="start" x="1093" y="-30.3" font-family="Arial" font-size="14.00">examples/esp32/main</text>
<text text-anchor="middle" x="1185.5" y="-15.3" font-family="Arial" font-size="14.00">/TimerComprehensiveTest.cpp</text>
</a>
</g>
</g>
<!-- Node7&#45;&gt;Node16 -->
<g id="edge20_Node000007_Node000016" class="edge">
<title>Node7&#45;&gt;Node16</title>
<g id="a_edge20_Node000007_Node000016"><a xlink:title=" ">
<path fill="none" stroke="#63b8ff" d="M1419.92,-86.47C1369.57,-73.81 1305.59,-57.71 1257.19,-45.54"/>
<polygon fill="#63b8ff" stroke="#63b8ff" points="1419.24,-89.91 1429.79,-88.96 1420.95,-83.13 1419.24,-89.91"/>
</a>
</g>
</g>
<!-- Node7&#45;&gt;Node17 -->
<g id="edge21_Node000007_Node000017" class="edge">
<title>Node7&#45;&gt;Node17</title>
<g id="a_edge21_Node000007_Node000017"><a xlink:title=" ">
<path fill="none" stroke="#63b8ff" d="M1586.23,-89.38C1587.32,-89.25 1588.42,-89.12 1589.5,-89 2338.77,-5.11 2537.89,-150.54 3285.5,-53 3298.71,-51.28 3312.66,-48.55 3325.94,-45.5"/>
<polygon fill="#63b8ff" stroke="#63b8ff" points="1585.68,-85.93 1576.25,-90.75 1586.63,-92.86 1585.68,-85.93"/>
</a>
</g>
</g>
<!-- Node18 -->
<g id="Node000018" class="node">
<title>Node18</title>
<g id="a_Node000018"><a xlink:href="WifiComprehensiveTest_8cpp.html" target="_top" xlink:title="Comprehensive WiFi testing suite for ESP32&#45;C6 DevKit&#45;M&#45;1 with ESP&#45;IDF v5.5f.">
<polygon fill="white" stroke="#666666" points="1493,-45.5 1304,-45.5 1304,-7.5 1493,-7.5 1493,-45.5"/>
<text text-anchor="start" x="1312" y="-30.3" font-family="Arial" font-size="14.00">examples/esp32/main</text>
<text text-anchor="middle" x="1398.5" y="-15.3" font-family="Arial" font-size="14.00">/WifiComprehensiveTest.cpp</text>
</a>
</g>
</g>
<!-- Node7&#45;&gt;Node18 -->
<g id="edge22_Node000007_Node000018" class="edge">
<title>Node7&#45;&gt;Node18</title>
<g id="a_edge22_Node000007_Node000018"><a xlink:title=" ">
<path fill="none" stroke="#63b8ff" d="M1469.91,-82.61C1454.51,-70.73 1436.31,-56.68 1422.14,-45.74"/>
<polygon fill="#63b8ff" stroke="#63b8ff" points="1468.07,-85.62 1478.13,-88.96 1472.35,-80.08 1468.07,-85.62"/>
</a>
</g>
</g>
</g>
</svg>
