<?xml version="1.0" encoding="UTF-8" standalone="no"?>
<!DOCTYPE svg PUBLIC "-//W3C//DTD SVG 1.1//EN"
 "http://www.w3.org/Graphics/SVG/1.1/DTD/svg11.dtd">
<!-- Generated by graphviz version 2.43.0 (0)
 -->
<!-- Title: inc/mcu/esp32/EspLogger.h Pages: 1 -->
<!--zoomable 208 -->

<svg id="main" version="1.1" xmlns="http://www.w3.org/2000/svg" xmlns:xlink="http://www.w3.org/1999/xlink" xml:space="preserve" onload="init(evt)">
<style type="text/css"><![CDATA[
.node, .edge {opacity: 0.7;}
.node.selected, .edge.selected {opacity: 1;}
.edge:hover path { stroke: red; }
.edge:hover polygon { stroke: red; fill: red; }
]]></style>

<defs>
  <circle id="rim" cx="0" cy="0" r="7"/>
  <circle id="rim2" cx="0" cy="0" r="3.5"/>
  <g id="zoomPlus">
    <use xlink:href="#rim" fill="#404040"><set attributeName="fill" to="#808080" begin="zoomplus.mouseover" end="zoomplus.mouseout"/></use>
    <path d="M-4,0h8M0,-4v8" fill="none" stroke="white" stroke-width="1.5" pointer-events="none"/>
  </g>
  <g id="zoomMin">
    <use xlink:href="#rim" fill="#404040"><set attributeName="fill" to="#808080" begin="zoomminus.mouseover" end="zoomminus.mouseout"/></use>
    <path d="M-4,0h8" fill="none" stroke="white" stroke-width="1.5" pointer-events="none"/>
  </g>
  <g id="arrowUp" transform="translate(30 24)">
    <use xlink:href="#rim"/>
    <path pointer-events="none" fill="none" stroke="white" stroke-width="1.5" d="M0,-3.0v7 M-2.5,-0.5L0,-3.0L2.5,-0.5"/>
  </g>
  <g id="arrowRight" transform="rotate(90) translate(36 -43)">
    <use xlink:href="#rim"/>
    <path pointer-events="none" fill="none" stroke="white" stroke-width="1.5" d="M0,-3.0v7 M-2.5,-0.5L0,-3.0L2.5,-0.5"/>
  </g>
  <g id="arrowDown" transform="rotate(180) translate(-30 -48)">
    <use xlink:href="#rim"/>
    <path pointer-events="none" fill="none" stroke="white" stroke-width="1.5" d="M0,-3.0v7 M-2.5,-0.5L0,-3.0L2.5,-0.5"/>
  </g>
  <g id="arrowLeft" transform="rotate(270) translate(-36 17)">
    <use xlink:href="#rim"/>
    <path pointer-events="none" fill="none" stroke="white" stroke-width="1.5" d="M0,-3.0v7 M-2.5,-0.5L0,-3.0L2.5,-0.5"/>
  </g>
  <g id="resetDef">
    <use xlink:href="#rim2" fill="#404040"><set attributeName="fill" to="#808080" begin="reset.mouseover" end="reset.mouseout"/></use>
  </g>
</defs>
<script type="application/ecmascript">
var viewWidth = 711;
var viewHeight = 208;
var sectionId = 'dynsection-0';
</script>
<script type="application/ecmascript" xlink:href="svg.min.js"/>
<svg id="graph" class="graph">
<g id="viewport">
<title>inc/mcu/esp32/EspLogger.h</title>
<!-- Node1 -->
<g id="Node000001" class="node">
<title>Node1</title>
<g id="a_Node000001"><a xlink:title="ESP32&#45;specific logger implementation for the HardFOC system.">
<polygon fill="#999999" stroke="#666666" points="525.99,-200 341.99,-200 341.99,-177 525.99,-177 525.99,-200"/>
<text text-anchor="middle" x="433.99" y="-184.8" font-family="Arial" font-size="14.00">inc/mcu/esp32/EspLogger.h</text>
</a>
</g>
</g>
<!-- Node2 -->
<g id="Node000002" class="node">
<title>Node2</title>
<g id="a_Node000002"><a xlink:href="BaseLogger_8h.html" target="_top" xlink:title="Unified logging base class for all logging implementations.">
<polygon fill="white" stroke="#666666" points="387.99,-141 287.99,-141 287.99,-118 387.99,-118 387.99,-141"/>
<text text-anchor="middle" x="337.99" y="-125.8" font-family="Arial" font-size="14.00">BaseLogger.h</text>
</a>
</g>
</g>
<!-- Node1&#45;&gt;Node2 -->
<g id="edge1_Node000001_Node000002" class="edge">
<title>Node1&#45;&gt;Node2</title>
<g id="a_edge1_Node000001_Node000002"><a xlink:title=" ">
<path fill="none" stroke="#63b8ff" d="M415.93,-176.78C401.58,-168.26 381.29,-156.21 365.01,-146.55"/>
<polygon fill="#63b8ff" stroke="#63b8ff" points="366.35,-143.27 355.96,-141.17 362.77,-149.29 366.35,-143.27"/>
</a>
</g>
</g>
<!-- Node10 -->
<g id="Node000010" class="node">
<title>Node10</title>
<g id="a_Node000010"><a xlink:href="PlatformMutex_8h.html" target="_top" xlink:title="Cross&#45;platform RTOS mutex and synchronization primitives.">
<polygon fill="white" stroke="#666666" points="186.99,-141 42.99,-141 42.99,-118 186.99,-118 186.99,-141"/>
<text text-anchor="middle" x="114.99" y="-125.8" font-family="Arial" font-size="14.00">utils/PlatformMutex.h</text>
</a>
</g>
</g>
<!-- Node1&#45;&gt;Node10 -->
<g id="edge10_Node000001_Node000010" class="edge">
<title>Node1&#45;&gt;Node10</title>
<g id="a_edge10_Node000001_Node000010"><a xlink:title=" ">
<path fill="none" stroke="#63b8ff" d="M375.1,-176.98C321.01,-167.31 240.83,-152.99 183.8,-142.8"/>
<polygon fill="#63b8ff" stroke="#63b8ff" points="184.25,-139.32 173.79,-141.01 183.02,-146.21 184.25,-139.32"/>
</a>
</g>
</g>
<!-- Node12 -->
<g id="Node000012" class="node">
<title>Node12</title>
<g id="a_Node000012"><a xlink:title=" ">
<polygon fill="#e0e0e0" stroke="#999999" points="182.49,-82 125.49,-82 125.49,-59 182.49,-59 182.49,-82"/>
<text text-anchor="middle" x="153.99" y="-66.8" font-family="Arial" font-size="14.00">atomic</text>
</a>
</g>
</g>
<!-- Node1&#45;&gt;Node12 -->
<g id="edge14_Node000001_Node000012" class="edge">
<title>Node1&#45;&gt;Node12</title>
<g id="a_edge14_Node000001_Node000012"><a xlink:title=" ">
<path fill="none" stroke="#63b8ff" d="M389.67,-176.93C358.18,-168.77 315.22,-156.3 278.99,-141 242.88,-125.76 203.78,-102.89 179.1,-87.6"/>
<polygon fill="#63b8ff" stroke="#63b8ff" points="180.72,-84.48 170.39,-82.14 177,-90.41 180.72,-84.48"/>
</a>
</g>
</g>
<!-- Node13 -->
<g id="Node000013" class="node">
<title>Node13</title>
<g id="a_Node000013"><a xlink:title=" ">
<polygon fill="#e0e0e0" stroke="#999999" points="461.99,-141 405.99,-141 405.99,-118 461.99,-118 461.99,-141"/>
<text text-anchor="middle" x="433.99" y="-125.8" font-family="Arial" font-size="14.00">cstring</text>
</a>
</g>
</g>
<!-- Node1&#45;&gt;Node13 -->
<g id="edge15_Node000001_Node000013" class="edge">
<title>Node1&#45;&gt;Node13</title>
<g id="a_edge15_Node000001_Node000013"><a xlink:title=" ">
<path fill="none" stroke="#63b8ff" d="M433.99,-176.78C433.99,-169.61 433.99,-159.95 433.99,-151.31"/>
<polygon fill="#63b8ff" stroke="#63b8ff" points="437.49,-151.17 433.99,-141.17 430.49,-151.17 437.49,-151.17"/>
</a>
</g>
</g>
<!-- Node14 -->
<g id="Node000014" class="node">
<title>Node14</title>
<g id="a_Node000014"><a xlink:title=" ">
<polygon fill="#e0e0e0" stroke="#999999" points="523.99,-141 479.99,-141 479.99,-118 523.99,-118 523.99,-141"/>
<text text-anchor="middle" x="501.99" y="-125.8" font-family="Arial" font-size="14.00">map</text>
</a>
</g>
</g>
<!-- Node1&#45;&gt;Node14 -->
<g id="edge16_Node000001_Node000014" class="edge">
<title>Node1&#45;&gt;Node14</title>
<g id="a_edge16_Node000001_Node000014"><a xlink:title=" ">
<path fill="none" stroke="#63b8ff" d="M446.78,-176.78C456.56,-168.58 470.24,-157.11 481.54,-147.64"/>
<polygon fill="#63b8ff" stroke="#63b8ff" points="483.84,-150.28 489.25,-141.17 479.34,-144.91 483.84,-150.28"/>
</a>
</g>
</g>
<!-- Node15 -->
<g id="Node000015" class="node">
<title>Node15</title>
<g id="a_Node000015"><a xlink:title=" ">
<polygon fill="#e0e0e0" stroke="#999999" points="609.49,-141 542.49,-141 542.49,-118 609.49,-118 609.49,-141"/>
<text text-anchor="middle" x="575.99" y="-125.8" font-family="Arial" font-size="14.00">memory</text>
</a>
</g>
</g>
<!-- Node1&#45;&gt;Node15 -->
<g id="edge17_Node000001_Node000015" class="edge">
<title>Node1&#45;&gt;Node15</title>
<g id="a_edge17_Node000001_Node000015"><a xlink:title=" ">
<path fill="none" stroke="#63b8ff" d="M460.36,-176.91C482.88,-167.87 515.46,-154.79 540.31,-144.82"/>
<polygon fill="#63b8ff" stroke="#63b8ff" points="541.77,-148 549.75,-141.03 539.17,-141.51 541.77,-148"/>
</a>
</g>
</g>
<!-- Node16 -->
<g id="Node000016" class="node">
<title>Node16</title>
<g id="a_Node000016"><a xlink:title=" ">
<polygon fill="#e0e0e0" stroke="#999999" points="680.49,-141 627.49,-141 627.49,-118 680.49,-118 680.49,-141"/>
<text text-anchor="middle" x="653.99" y="-125.8" font-family="Arial" font-size="14.00">vector</text>
</a>
</g>
</g>
<!-- Node1&#45;&gt;Node16 -->
<g id="edge18_Node000001_Node000016" class="edge">
<title>Node1&#45;&gt;Node16</title>
<g id="a_edge18_Node000001_Node000016"><a xlink:title=" ">
<path fill="none" stroke="#63b8ff" d="M478.24,-176.97C513.61,-168.42 564.68,-155.78 617.41,-141.36"/>
<polygon fill="#63b8ff" stroke="#63b8ff" points="618.55,-144.68 627.27,-138.65 616.7,-137.93 618.55,-144.68"/>
</a>
</g>
</g>
<!-- Node3 -->
<g id="Node000003" class="node">
<title>Node3</title>
<g id="a_Node000003"><a xlink:href="HardwareTypes_8h.html" target="_top" xlink:title="Platform&#45;agnostic hardware type definitions for the HardFOC system.">
<polygon fill="white" stroke="#666666" points="360.99,-82 238.99,-82 238.99,-59 360.99,-59 360.99,-82"/>
<text text-anchor="middle" x="299.99" y="-66.8" font-family="Arial" font-size="14.00">HardwareTypes.h</text>
</a>
</g>
</g>
<!-- Node2&#45;&gt;Node3 -->
<g id="edge2_Node000002_Node000003" class="edge">
<title>Node2&#45;&gt;Node3</title>
<g id="a_edge2_Node000002_Node000003"><a xlink:title=" ">
<path fill="none" stroke="#63b8ff" d="M330.84,-117.78C325.74,-110.14 318.75,-99.65 312.72,-90.6"/>
<polygon fill="#63b8ff" stroke="#63b8ff" points="315.56,-88.55 307.1,-82.17 309.74,-92.44 315.56,-88.55"/>
</a>
</g>
</g>
<!-- Node4 -->
<g id="Node000004" class="node">
<title>Node4</title>
<g id="a_Node000004"><a xlink:title=" ">
<polygon fill="#e0e0e0" stroke="#999999" points="238.99,-23 182.99,-23 182.99,0 238.99,0 238.99,-23"/>
<text text-anchor="middle" x="210.99" y="-7.8" font-family="Arial" font-size="14.00">cstdint</text>
</a>
</g>
</g>
<!-- Node2&#45;&gt;Node4 -->
<g id="edge6_Node000002_Node000004" class="edge">
<title>Node2&#45;&gt;Node4</title>
<g id="a_edge6_Node000002_Node000004"><a xlink:title=" ">
<path fill="none" stroke="#63b8ff" d="M290.08,-117.94C268.95,-111 245.45,-99.8 229.99,-82 218.35,-68.61 213.77,-48.72 212.01,-33.65"/>
<polygon fill="#63b8ff" stroke="#63b8ff" points="215.46,-32.92 211.13,-23.24 208.48,-33.5 215.46,-32.92"/>
</a>
</g>
</g>
<!-- Node6 -->
<g id="Node000006" class="node">
<title>Node6</title>
<g id="a_Node000006"><a xlink:title=" ">
<polygon fill="#e0e0e0" stroke="#999999" points="440.49,-82 379.49,-82 379.49,-59 440.49,-59 440.49,-82"/>
<text text-anchor="middle" x="409.99" y="-66.8" font-family="Arial" font-size="14.00">cstdarg</text>
</a>
</g>
</g>
<!-- Node2&#45;&gt;Node6 -->
<g id="edge5_Node000002_Node000006" class="edge">
<title>Node2&#45;&gt;Node6</title>
<g id="a_edge5_Node000002_Node000006"><a xlink:title=" ">
<path fill="none" stroke="#63b8ff" d="M351.53,-117.78C361.89,-109.58 376.37,-98.11 388.34,-88.64"/>
<polygon fill="#63b8ff" stroke="#63b8ff" points="390.84,-91.12 396.5,-82.17 386.49,-85.64 390.84,-91.12"/>
</a>
</g>
</g>
<!-- Node7 -->
<g id="Node000007" class="node">
<title>Node7</title>
<g id="a_Node000007"><a xlink:title=" ">
<polygon fill="#e0e0e0" stroke="#999999" points="532.99,-82 458.99,-82 458.99,-59 532.99,-59 532.99,-82"/>
<text text-anchor="middle" x="495.99" y="-66.8" font-family="Arial" font-size="14.00">functional</text>
</a>
</g>
</g>
<!-- Node2&#45;&gt;Node7 -->
<g id="edge7_Node000002_Node000007" class="edge">
<title>Node2&#45;&gt;Node7</title>
<g id="a_edge7_Node000002_Node000007"><a xlink:title=" ">
<path fill="none" stroke="#63b8ff" d="M367.33,-117.91C392.72,-108.75 429.61,-95.45 457.38,-85.43"/>
<polygon fill="#63b8ff" stroke="#63b8ff" points="458.58,-88.72 466.79,-82.03 456.2,-82.13 458.58,-88.72"/>
</a>
</g>
</g>
<!-- Node8 -->
<g id="Node000008" class="node">
<title>Node8</title>
<g id="a_Node000008"><a xlink:title=" ">
<polygon fill="#e0e0e0" stroke="#999999" points="600.99,-82 550.99,-82 550.99,-59 600.99,-59 600.99,-82"/>
<text text-anchor="middle" x="575.99" y="-66.8" font-family="Arial" font-size="14.00">string</text>
</a>
</g>
</g>
<!-- Node2&#45;&gt;Node8 -->
<g id="edge8_Node000002_Node000008" class="edge">
<title>Node2&#45;&gt;Node8</title>
<g id="a_edge8_Node000002_Node000008"><a xlink:title=" ">
<path fill="none" stroke="#63b8ff" d="M388.13,-118.17C427.31,-109.85 483.34,-97.42 540.81,-82.18"/>
<polygon fill="#63b8ff" stroke="#63b8ff" points="542.04,-85.48 550.8,-79.51 540.23,-78.71 542.04,-85.48"/>
</a>
</g>
</g>
<!-- Node9 -->
<g id="Node000009" class="node">
<title>Node9</title>
<g id="a_Node000009"><a xlink:title=" ">
<polygon fill="#e0e0e0" stroke="#999999" points="702.99,-82 618.99,-82 618.99,-59 702.99,-59 702.99,-82"/>
<text text-anchor="middle" x="660.99" y="-66.8" font-family="Arial" font-size="14.00">string_view</text>
</a>
</g>
</g>
<!-- Node2&#45;&gt;Node9 -->
<g id="edge9_Node000002_Node000009" class="edge">
<title>Node2&#45;&gt;Node9</title>
<g id="a_edge9_Node000002_Node000009"><a xlink:title=" ">
<path fill="none" stroke="#63b8ff" d="M388.19,-119.53C391.17,-119.01 394.11,-118.5 396.99,-118 488.44,-102.13 513.94,-99.83 608.94,-82.15"/>
<polygon fill="#63b8ff" stroke="#63b8ff" points="609.8,-85.55 618.98,-80.27 608.51,-78.67 609.8,-85.55"/>
</a>
</g>
</g>
<!-- Node3&#45;&gt;Node4 -->
<g id="edge3_Node000003_Node000004" class="edge">
<title>Node3&#45;&gt;Node4</title>
<g id="a_edge3_Node000003_Node000004"><a xlink:title=" ">
<path fill="none" stroke="#63b8ff" d="M283.24,-58.78C270.07,-50.34 251.48,-38.44 236.46,-28.82"/>
<polygon fill="#63b8ff" stroke="#63b8ff" points="237.96,-25.62 227.65,-23.17 234.18,-31.51 237.96,-25.62"/>
</a>
</g>
</g>
<!-- Node5 -->
<g id="Node000005" class="node">
<title>Node5</title>
<g id="a_Node000005"><a xlink:title=" ">
<polygon fill="#e0e0e0" stroke="#999999" points="323.99,-23 275.99,-23 275.99,0 323.99,0 323.99,-23"/>
<text text-anchor="middle" x="299.99" y="-7.8" font-family="Arial" font-size="14.00">limits</text>
</a>
</g>
</g>
<!-- Node3&#45;&gt;Node5 -->
<g id="edge4_Node000003_Node000005" class="edge">
<title>Node3&#45;&gt;Node5</title>
<g id="a_edge4_Node000003_Node000005"><a xlink:title=" ">
<path fill="none" stroke="#63b8ff" d="M299.99,-58.78C299.99,-51.61 299.99,-41.95 299.99,-33.31"/>
<polygon fill="#63b8ff" stroke="#63b8ff" points="303.49,-33.17 299.99,-23.17 296.49,-33.17 303.49,-33.17"/>
</a>
</g>
</g>
<!-- Node10&#45;&gt;Node4 -->
<g id="edge13_Node000010_Node000004" class="edge">
<title>Node10&#45;&gt;Node4</title>
<g id="a_edge13_Node000010_Node000004"><a xlink:title=" ">
<path fill="none" stroke="#63b8ff" d="M69.57,-117.92C30.56,-106.69 -16.14,-86.71 5.99,-59 26.43,-33.4 119.02,-20.84 172.51,-15.62"/>
<polygon fill="#63b8ff" stroke="#63b8ff" points="173.02,-19.08 182.65,-14.67 172.37,-12.11 173.02,-19.08"/>
</a>
</g>
</g>
<!-- Node11 -->
<g id="Node000011" class="node">
<title>Node11</title>
<g id="a_Node000011"><a xlink:href="McuSelect_8h.html" target="_top" xlink:title="Centralized MCU platform selection and configuration header.">
<polygon fill="white" stroke="#666666" points="106.99,-82 14.99,-82 14.99,-59 106.99,-59 106.99,-82"/>
<text text-anchor="middle" x="60.99" y="-66.8" font-family="Arial" font-size="14.00">McuSelect.h</text>
</a>
</g>
</g>
<!-- Node10&#45;&gt;Node11 -->
<g id="edge11_Node000010_Node000011" class="edge">
<title>Node10&#45;&gt;Node11</title>
<g id="a_edge11_Node000010_Node000011"><a xlink:title=" ">
<path fill="none" stroke="#63b8ff" d="M104.83,-117.78C97.29,-109.82 86.82,-98.77 78.01,-89.47"/>
<polygon fill="#63b8ff" stroke="#63b8ff" points="80.51,-87.03 71.1,-82.17 75.43,-91.84 80.51,-87.03"/>
</a>
</g>
</g>
<!-- Node10&#45;&gt;Node12 -->
<g id="edge12_Node000010_Node000012" class="edge">
<title>Node10&#45;&gt;Node12</title>
<g id="a_edge12_Node000010_Node000012"><a xlink:title=" ">
<path fill="none" stroke="#63b8ff" d="M122.32,-117.78C127.55,-110.14 134.72,-99.65 140.92,-90.6"/>
<polygon fill="#63b8ff" stroke="#63b8ff" points="143.92,-92.4 146.68,-82.17 138.15,-88.45 143.92,-92.4"/>
</a>
</g>
</g>
</g>
</svg>

<g id="navigator" transform="translate(0 0)" fill="#404254">
  <rect fill="#f2f5e9" fill-opacity="0.5" stroke="#606060" stroke-width=".5" x="0" y="0" width="60" height="60"/>
  <use id="zoomplus" xlink:href="#zoomPlus" x="17" y="9" onmousedown="handleZoom(evt,'in')"/>
  <use id="zoomminus" xlink:href="#zoomMin" x="42" y="9" onmousedown="handleZoom(evt,'out')"/>
  <use id="reset" xlink:href="#resetDef" x="30" y="36" onmousedown="handleReset()"/>
   <use id="arrowup" xlink:href="#arrowUp" x="0" y="0" onmousedown="handlePan(0,-1)"/>
  <use id="arrowright" xlink:href="#arrowRight" x="0" y="0" onmousedown="handlePan(1,0)"/>
  <use id="arrowdown" xlink:href="#arrowDown" x="0" y="0" onmousedown="handlePan(0,1)"/>
  <use id="arrowleft" xlink:href="#arrowLeft" x="0" y="0" onmousedown="handlePan(-1,0)"/>
</g>
<svg viewBox="0 0 15 15" width="100%" height="30px" preserveAspectRatio="xMaxYMin meet">
 <g id="arrow_out" transform="scale(0.3 0.3)">
  <a xlink:href="EspLogger_8h__incl_org.svg" target="_base">
   <rect id="button" ry="5" rx="5" y="6" x="6" height="38" width="38"
        fill="#f2f5e9" fill-opacity="0.5" stroke="#606060" stroke-width="1.0"/>
   <path id="arrow"
     d="M 11.500037,31.436501 C 11.940474,20.09759 22.043105,11.32322 32.158766,21.979434 L 37.068811,17.246167 C 37.068811,17.246167 37.088388,32 37.088388,32 L 22.160133,31.978069 C 22.160133,31.978069 26.997745,27.140456 26.997745,27.140456 C 18.528582,18.264221 13.291696,25.230495 11.500037,31.436501 z"
     style="fill:#404040;"/>
  </a>
 </g>
</svg>

<style type='text/css'>
<![CDATA[
[data-mouse-over-selected='false'] { opacity: 0.7; }
[data-mouse-over-selected='true']  { opacity: 1.0; }
]]>
</style>
<script type="application/ecmascript"><![CDATA[
document.addEventListener('DOMContentLoaded', (event) => {
  highlightEdges();
  highlightAdjacentNodes();
});
]]></script>
</svg>
