<?xml version="1.0" encoding="UTF-8" standalone="no"?>
<!DOCTYPE svg PUBLIC "-//W3C//DTD SVG 1.1//EN"
 "http://www.w3.org/Graphics/SVG/1.1/DTD/svg11.dtd">
<!-- Generated by graphviz version 2.43.0 (0)
 -->
<!-- Title: src/mcu/esp32/EspLogger.cpp Pages: 1 -->
<svg width="777pt" height="267pt"
 viewBox="0.00 0.00 777.33 267.00" xmlns="http://www.w3.org/2000/svg" xmlns:xlink="http://www.w3.org/1999/xlink">
<g id="graph0" class="graph" transform="scale(1 1) rotate(0) translate(4 263)">
<title>src/mcu/esp32/EspLogger.cpp</title>
<!-- Node1 -->
<g id="Node000001" class="node">
<title>Node1</title>
<g id="a_Node000001"><a xlink:title="Implementation of ESP32 logger for the HardFOC system.">
<polygon fill="#999999" stroke="#666666" points="696.83,-259 497.83,-259 497.83,-236 696.83,-236 696.83,-259"/>
<text text-anchor="middle" x="597.33" y="-243.8" font-family="Arial" font-size="14.00">src/mcu/esp32/EspLogger.cpp</text>
</a>
</g>
</g>
<!-- Node2 -->
<g id="Node000002" class="node">
<title>Node2</title>
<g id="a_Node000002"><a xlink:href="EspLogger_8h.html" target="_top" xlink:title="ESP32&#45;specific logger implementation for the HardFOC system.">
<polygon fill="white" stroke="#666666" points="293.33,-200 201.33,-200 201.33,-177 293.33,-177 293.33,-200"/>
<text text-anchor="middle" x="247.33" y="-184.8" font-family="Arial" font-size="14.00">EspLogger.h</text>
</a>
</g>
</g>
<!-- Node1&#45;&gt;Node2 -->
<g id="edge1_Node000001_Node000002" class="edge">
<title>Node1&#45;&gt;Node2</title>
<g id="a_edge1_Node000001_Node000002"><a xlink:title=" ">
<path fill="none" stroke="#63b8ff" d="M532.73,-235.98C466.96,-225.27 366.03,-208.83 303.49,-198.65"/>
<polygon fill="#63b8ff" stroke="#63b8ff" points="303.85,-195.16 293.42,-197.01 302.72,-202.07 303.85,-195.16"/>
</a>
</g>
</g>
<!-- Node7 -->
<g id="Node000007" class="node">
<title>Node7</title>
<g id="a_Node000007"><a xlink:title=" ">
<polygon fill="#e0e0e0" stroke="#999999" points="721.83,-82 660.83,-82 660.83,-59 721.83,-59 721.83,-82"/>
<text text-anchor="middle" x="691.33" y="-66.8" font-family="Arial" font-size="14.00">cstdarg</text>
</a>
</g>
</g>
<!-- Node1&#45;&gt;Node7 -->
<g id="edge20_Node000001_Node000007" class="edge">
<title>Node1&#45;&gt;Node7</title>
<g id="a_edge20_Node000001_Node000007"><a xlink:title=" ">
<path fill="none" stroke="#63b8ff" d="M599.27,-235.74C602.05,-221.73 607.91,-196.71 617.33,-177 633.12,-143.97 658.96,-110.07 675.55,-89.9"/>
<polygon fill="#63b8ff" stroke="#63b8ff" points="678.3,-92.05 682.03,-82.14 672.93,-87.56 678.3,-92.05"/>
</a>
</g>
</g>
<!-- Node13 -->
<g id="Node000013" class="node">
<title>Node13</title>
<g id="a_Node000013"><a xlink:title=" ">
<polygon fill="#e0e0e0" stroke="#999999" points="569.33,-141 513.33,-141 513.33,-118 569.33,-118 569.33,-141"/>
<text text-anchor="middle" x="541.33" y="-125.8" font-family="Arial" font-size="14.00">cstring</text>
</a>
</g>
</g>
<!-- Node1&#45;&gt;Node13 -->
<g id="edge22_Node000001_Node000013" class="edge">
<title>Node1&#45;&gt;Node13</title>
<g id="a_edge22_Node000001_Node000013"><a xlink:title=" ">
<path fill="none" stroke="#63b8ff" d="M592.16,-235.79C582.79,-216.37 562.84,-175.06 550.91,-150.35"/>
<polygon fill="#63b8ff" stroke="#63b8ff" points="553.99,-148.66 546.49,-141.18 547.68,-151.71 553.99,-148.66"/>
</a>
</g>
</g>
<!-- Node17 -->
<g id="Node000017" class="node">
<title>Node17</title>
<g id="a_Node000017"><a xlink:title=" ">
<polygon fill="#e0e0e0" stroke="#999999" points="698.83,-200 625.83,-200 625.83,-177 698.83,-177 698.83,-200"/>
<text text-anchor="middle" x="662.33" y="-184.8" font-family="Arial" font-size="14.00">algorithm</text>
</a>
</g>
</g>
<!-- Node1&#45;&gt;Node17 -->
<g id="edge19_Node000001_Node000017" class="edge">
<title>Node1&#45;&gt;Node17</title>
<g id="a_edge19_Node000001_Node000017"><a xlink:title=" ">
<path fill="none" stroke="#63b8ff" d="M609.56,-235.78C618.82,-227.66 631.73,-216.33 642.47,-206.92"/>
<polygon fill="#63b8ff" stroke="#63b8ff" points="644.95,-209.4 650.16,-200.17 640.33,-204.13 644.95,-209.4"/>
</a>
</g>
</g>
<!-- Node18 -->
<g id="Node000018" class="node">
<title>Node18</title>
<g id="a_Node000018"><a xlink:title=" ">
<polygon fill="#e0e0e0" stroke="#999999" points="769.33,-200 717.33,-200 717.33,-177 769.33,-177 769.33,-200"/>
<text text-anchor="middle" x="743.33" y="-184.8" font-family="Arial" font-size="14.00">cstdio</text>
</a>
</g>
</g>
<!-- Node1&#45;&gt;Node18 -->
<g id="edge21_Node000001_Node000018" class="edge">
<title>Node1&#45;&gt;Node18</title>
<g id="a_edge21_Node000001_Node000018"><a xlink:title=" ">
<path fill="none" stroke="#63b8ff" d="M624.45,-235.91C647.85,-226.78 681.83,-213.51 707.47,-203.5"/>
<polygon fill="#63b8ff" stroke="#63b8ff" points="708.81,-206.74 716.85,-199.84 706.26,-200.22 708.81,-206.74"/>
</a>
</g>
</g>
<!-- Node3 -->
<g id="Node000003" class="node">
<title>Node3</title>
<g id="a_Node000003"><a xlink:href="BaseLogger_8h.html" target="_top" xlink:title="Unified logging base class for all logging implementations.">
<polygon fill="white" stroke="#666666" points="495.33,-141 395.33,-141 395.33,-118 495.33,-118 495.33,-141"/>
<text text-anchor="middle" x="445.33" y="-125.8" font-family="Arial" font-size="14.00">BaseLogger.h</text>
</a>
</g>
</g>
<!-- Node2&#45;&gt;Node3 -->
<g id="edge2_Node000002_Node000003" class="edge">
<title>Node2&#45;&gt;Node3</title>
<g id="a_edge2_Node000002_Node000003"><a xlink:title=" ">
<path fill="none" stroke="#63b8ff" d="M284.11,-176.91C316.48,-167.59 363.77,-153.98 398.77,-143.9"/>
<polygon fill="#63b8ff" stroke="#63b8ff" points="400.11,-147.16 408.75,-141.03 398.17,-140.43 400.11,-147.16"/>
</a>
</g>
</g>
<!-- Node11 -->
<g id="Node000011" class="node">
<title>Node11</title>
<g id="a_Node000011"><a xlink:href="PlatformMutex_8h.html" target="_top" xlink:title="Cross&#45;platform mutex and synchronization primitives with pluggable backend.">
<polygon fill="white" stroke="#666666" points="377.33,-141 233.33,-141 233.33,-118 377.33,-118 377.33,-141"/>
<text text-anchor="middle" x="305.33" y="-125.8" font-family="Arial" font-size="14.00">utils/PlatformMutex.h</text>
</a>
</g>
</g>
<!-- Node2&#45;&gt;Node11 -->
<g id="edge11_Node000002_Node000011" class="edge">
<title>Node2&#45;&gt;Node11</title>
<g id="a_edge11_Node000002_Node000011"><a xlink:title=" ">
<path fill="none" stroke="#63b8ff" d="M258.24,-176.78C266.42,-168.74 277.8,-157.55 287.33,-148.19"/>
<polygon fill="#63b8ff" stroke="#63b8ff" points="289.79,-150.68 294.47,-141.17 284.88,-145.69 289.79,-150.68"/>
</a>
</g>
</g>
<!-- Node12 -->
<g id="Node000012" class="node">
<title>Node12</title>
<g id="a_Node000012"><a xlink:title=" ">
<polygon fill="#e0e0e0" stroke="#999999" points="111.83,-82 54.83,-82 54.83,-59 111.83,-59 111.83,-82"/>
<text text-anchor="middle" x="83.33" y="-66.8" font-family="Arial" font-size="14.00">atomic</text>
</a>
</g>
</g>
<!-- Node2&#45;&gt;Node12 -->
<g id="edge14_Node000002_Node000012" class="edge">
<title>Node2&#45;&gt;Node12</title>
<g id="a_edge14_Node000002_Node000012"><a xlink:title=" ">
<path fill="none" stroke="#63b8ff" d="M201.17,-185.41C138.01,-181.46 29.68,-170.48 5.33,-141 -12.16,-119.83 18.31,-99.4 46.14,-86.23"/>
<polygon fill="#63b8ff" stroke="#63b8ff" points="47.72,-89.35 55.4,-82.05 44.85,-82.97 47.72,-89.35"/>
</a>
</g>
</g>
<!-- Node2&#45;&gt;Node13 -->
<g id="edge15_Node000002_Node000013" class="edge">
<title>Node2&#45;&gt;Node13</title>
<g id="a_edge15_Node000002_Node000013"><a xlink:title=" ">
<path fill="none" stroke="#63b8ff" d="M293.57,-180.53C343.11,-172.75 424.23,-159.12 503.03,-141.14"/>
<polygon fill="#63b8ff" stroke="#63b8ff" points="504.17,-144.47 513.12,-138.81 502.59,-137.65 504.17,-144.47"/>
</a>
</g>
</g>
<!-- Node14 -->
<g id="Node000014" class="node">
<title>Node14</title>
<g id="a_Node000014"><a xlink:title=" ">
<polygon fill="#e0e0e0" stroke="#999999" points="58.33,-141 14.33,-141 14.33,-118 58.33,-118 58.33,-141"/>
<text text-anchor="middle" x="36.33" y="-125.8" font-family="Arial" font-size="14.00">map</text>
</a>
</g>
</g>
<!-- Node2&#45;&gt;Node14 -->
<g id="edge16_Node000002_Node000014" class="edge">
<title>Node2&#45;&gt;Node14</title>
<g id="a_edge16_Node000002_Node000014"><a xlink:title=" ">
<path fill="none" stroke="#63b8ff" d="M202.69,-176.94C168.33,-168.59 119.47,-156.25 68.5,-141.21"/>
<polygon fill="#63b8ff" stroke="#63b8ff" points="69.2,-137.77 58.62,-138.27 67.2,-144.48 69.2,-137.77"/>
</a>
</g>
</g>
<!-- Node15 -->
<g id="Node000015" class="node">
<title>Node15</title>
<g id="a_Node000015"><a xlink:title=" ">
<polygon fill="#e0e0e0" stroke="#999999" points="143.83,-141 76.83,-141 76.83,-118 143.83,-118 143.83,-141"/>
<text text-anchor="middle" x="110.33" y="-125.8" font-family="Arial" font-size="14.00">memory</text>
</a>
</g>
</g>
<!-- Node2&#45;&gt;Node15 -->
<g id="edge17_Node000002_Node000015" class="edge">
<title>Node2&#45;&gt;Node15</title>
<g id="a_edge17_Node000002_Node000015"><a xlink:title=" ">
<path fill="none" stroke="#63b8ff" d="M221.88,-176.91C200.26,-167.91 169,-154.91 145.07,-144.95"/>
<polygon fill="#63b8ff" stroke="#63b8ff" points="146.22,-141.64 135.64,-141.03 143.53,-148.1 146.22,-141.64"/>
</a>
</g>
</g>
<!-- Node16 -->
<g id="Node000016" class="node">
<title>Node16</title>
<g id="a_Node000016"><a xlink:title=" ">
<polygon fill="#e0e0e0" stroke="#999999" points="214.83,-141 161.83,-141 161.83,-118 214.83,-118 214.83,-141"/>
<text text-anchor="middle" x="188.33" y="-125.8" font-family="Arial" font-size="14.00">vector</text>
</a>
</g>
</g>
<!-- Node2&#45;&gt;Node16 -->
<g id="edge18_Node000002_Node000016" class="edge">
<title>Node2&#45;&gt;Node16</title>
<g id="a_edge18_Node000002_Node000016"><a xlink:title=" ">
<path fill="none" stroke="#63b8ff" d="M236.23,-176.78C227.91,-168.74 216.33,-157.55 206.64,-148.19"/>
<polygon fill="#63b8ff" stroke="#63b8ff" points="209,-145.6 199.38,-141.17 204.14,-150.64 209,-145.6"/>
</a>
</g>
</g>
<!-- Node4 -->
<g id="Node000004" class="node">
<title>Node4</title>
<g id="a_Node000004"><a xlink:href="HardwareTypes_8h.html" target="_top" xlink:title="Platform&#45;agnostic hardware type definitions for the HardFOC system.">
<polygon fill="white" stroke="#666666" points="550.33,-82 428.33,-82 428.33,-59 550.33,-59 550.33,-82"/>
<text text-anchor="middle" x="489.33" y="-66.8" font-family="Arial" font-size="14.00">HardwareTypes.h</text>
</a>
</g>
</g>
<!-- Node3&#45;&gt;Node4 -->
<g id="edge3_Node000003_Node000004" class="edge">
<title>Node3&#45;&gt;Node4</title>
<g id="a_edge3_Node000003_Node000004"><a xlink:title=" ">
<path fill="none" stroke="#63b8ff" d="M453.61,-117.78C459.57,-110.06 467.77,-99.43 474.81,-90.31"/>
<polygon fill="#63b8ff" stroke="#63b8ff" points="477.75,-92.23 481.09,-82.17 472.21,-87.95 477.75,-92.23"/>
</a>
</g>
</g>
<!-- Node5 -->
<g id="Node000005" class="node">
<title>Node5</title>
<g id="a_Node000005"><a xlink:title=" ">
<polygon fill="#e0e0e0" stroke="#999999" points="428.33,-23 372.33,-23 372.33,0 428.33,0 428.33,-23"/>
<text text-anchor="middle" x="400.33" y="-7.8" font-family="Arial" font-size="14.00">cstdint</text>
</a>
</g>
</g>
<!-- Node3&#45;&gt;Node5 -->
<g id="edge7_Node000003_Node000005" class="edge">
<title>Node3&#45;&gt;Node5</title>
<g id="a_edge7_Node000003_Node000005"><a xlink:title=" ">
<path fill="none" stroke="#63b8ff" d="M438.35,-117.79C432.61,-108.6 424.58,-94.84 419.33,-82 412.83,-66.1 407.83,-47.27 404.6,-33.22"/>
<polygon fill="#63b8ff" stroke="#63b8ff" points="407.95,-32.14 402.39,-23.12 401.11,-33.64 407.95,-32.14"/>
</a>
</g>
</g>
<!-- Node3&#45;&gt;Node7 -->
<g id="edge6_Node000003_Node000007" class="edge">
<title>Node3&#45;&gt;Node7</title>
<g id="a_edge6_Node000003_Node000007"><a xlink:title=" ">
<path fill="none" stroke="#63b8ff" d="M494.14,-117.98C533.75,-109.33 591.26,-96.52 650.82,-82.06"/>
<polygon fill="#63b8ff" stroke="#63b8ff" points="651.9,-85.4 660.78,-79.64 650.24,-78.6 651.9,-85.4"/>
</a>
</g>
</g>
<!-- Node8 -->
<g id="Node000008" class="node">
<title>Node8</title>
<g id="a_Node000008"><a xlink:title=" ">
<polygon fill="#e0e0e0" stroke="#999999" points="642.33,-82 568.33,-82 568.33,-59 642.33,-59 642.33,-82"/>
<text text-anchor="middle" x="605.33" y="-66.8" font-family="Arial" font-size="14.00">functional</text>
</a>
</g>
</g>
<!-- Node3&#45;&gt;Node8 -->
<g id="edge8_Node000003_Node000008" class="edge">
<title>Node3&#45;&gt;Node8</title>
<g id="a_edge8_Node000003_Node000008"><a xlink:title=" ">
<path fill="none" stroke="#63b8ff" d="M475.05,-117.91C500.76,-108.75 538.11,-95.45 566.24,-85.43"/>
<polygon fill="#63b8ff" stroke="#63b8ff" points="567.52,-88.68 575.77,-82.03 565.18,-82.09 567.52,-88.68"/>
</a>
</g>
</g>
<!-- Node9 -->
<g id="Node000009" class="node">
<title>Node9</title>
<g id="a_Node000009"><a xlink:title=" ">
<polygon fill="#e0e0e0" stroke="#999999" points="270.33,-82 220.33,-82 220.33,-59 270.33,-59 270.33,-82"/>
<text text-anchor="middle" x="245.33" y="-66.8" font-family="Arial" font-size="14.00">string</text>
</a>
</g>
</g>
<!-- Node3&#45;&gt;Node9 -->
<g id="edge9_Node000003_Node000009" class="edge">
<title>Node3&#45;&gt;Node9</title>
<g id="a_edge9_Node000003_Node000009"><a xlink:title=" ">
<path fill="none" stroke="#63b8ff" d="M406.67,-117.98C375.08,-109.32 329.03,-96.53 280.33,-82.25"/>
<polygon fill="#63b8ff" stroke="#63b8ff" points="281.14,-78.84 270.56,-79.37 279.16,-85.55 281.14,-78.84"/>
</a>
</g>
</g>
<!-- Node10 -->
<g id="Node000010" class="node">
<title>Node10</title>
<g id="a_Node000010"><a xlink:title=" ">
<polygon fill="#e0e0e0" stroke="#999999" points="372.33,-82 288.33,-82 288.33,-59 372.33,-59 372.33,-82"/>
<text text-anchor="middle" x="330.33" y="-66.8" font-family="Arial" font-size="14.00">string_view</text>
</a>
</g>
</g>
<!-- Node3&#45;&gt;Node10 -->
<g id="edge10_Node000003_Node000010" class="edge">
<title>Node3&#45;&gt;Node10</title>
<g id="a_edge10_Node000003_Node000010"><a xlink:title=" ">
<path fill="none" stroke="#63b8ff" d="M423.97,-117.91C406.14,-109.07 380.51,-96.37 360.57,-86.49"/>
<polygon fill="#63b8ff" stroke="#63b8ff" points="362.09,-83.34 351.58,-82.03 358.98,-89.61 362.09,-83.34"/>
</a>
</g>
</g>
<!-- Node4&#45;&gt;Node5 -->
<g id="edge4_Node000004_Node000005" class="edge">
<title>Node4&#45;&gt;Node5</title>
<g id="a_edge4_Node000004_Node000005"><a xlink:title=" ">
<path fill="none" stroke="#63b8ff" d="M472.59,-58.78C459.41,-50.34 440.83,-38.44 425.81,-28.82"/>
<polygon fill="#63b8ff" stroke="#63b8ff" points="427.3,-25.62 417,-23.17 423.53,-31.51 427.3,-25.62"/>
</a>
</g>
</g>
<!-- Node6 -->
<g id="Node000006" class="node">
<title>Node6</title>
<g id="a_Node000006"><a xlink:title=" ">
<polygon fill="#e0e0e0" stroke="#999999" points="513.33,-23 465.33,-23 465.33,0 513.33,0 513.33,-23"/>
<text text-anchor="middle" x="489.33" y="-7.8" font-family="Arial" font-size="14.00">limits</text>
</a>
</g>
</g>
<!-- Node4&#45;&gt;Node6 -->
<g id="edge5_Node000004_Node000006" class="edge">
<title>Node4&#45;&gt;Node6</title>
<g id="a_edge5_Node000004_Node000006"><a xlink:title=" ">
<path fill="none" stroke="#63b8ff" d="M489.33,-58.78C489.33,-51.61 489.33,-41.95 489.33,-33.31"/>
<polygon fill="#63b8ff" stroke="#63b8ff" points="492.83,-33.17 489.33,-23.17 485.83,-33.17 492.83,-33.17"/>
</a>
</g>
</g>
<!-- Node11&#45;&gt;Node5 -->
<g id="edge13_Node000011_Node000005" class="edge">
<title>Node11&#45;&gt;Node5</title>
<g id="a_edge13_Node000011_Node000005"><a xlink:title=" ">
<path fill="none" stroke="#63b8ff" d="M269.05,-117.96C234.61,-106.09 190.92,-85.04 211.33,-59 229.72,-35.54 312.55,-22.33 362.25,-16.38"/>
<polygon fill="#63b8ff" stroke="#63b8ff" points="362.78,-19.84 372.32,-15.22 361.98,-12.89 362.78,-19.84"/>
</a>
</g>
</g>
<!-- Node11&#45;&gt;Node12 -->
<g id="edge12_Node000011_Node000012" class="edge">
<title>Node11&#45;&gt;Node12</title>
<g id="a_edge12_Node000011_Node000012"><a xlink:title=" ">
<path fill="none" stroke="#63b8ff" d="M264.35,-117.98C223.67,-107.53 161.77,-91.64 121.94,-81.41"/>
<polygon fill="#63b8ff" stroke="#63b8ff" points="122.62,-77.97 112.07,-78.88 120.88,-84.75 122.62,-77.97"/>
</a>
</g>
</g>
</g>
</svg>
