<?xml version="1.0" encoding="UTF-8" standalone="no"?>
<!DOCTYPE svg PUBLIC "-//W3C//DTD SVG 1.1//EN"
 "http://www.w3.org/Graphics/SVG/1.1/DTD/svg11.dtd">
<!-- Generated by graphviz version 2.43.0 (0)
 -->
<!-- Title: src/mcu/esp32/EspNvs.cpp Pages: 1 -->
<svg width="546pt" height="326pt"
 viewBox="0.00 0.00 546.16 326.00" xmlns="http://www.w3.org/2000/svg" xmlns:xlink="http://www.w3.org/1999/xlink">
<g id="graph0" class="graph" transform="scale(1 1) rotate(0) translate(4 322)">
<title>src/mcu/esp32/EspNvs.cpp</title>
<!-- Node1 -->
<g id="Node000001" class="node">
<title>Node1</title>
<g id="a_Node000001"><a xlink:title="World&#45;class ESP32&#45;C6 NVS implementation with ESP&#45;IDF v5.5+ advanced features.">
<polygon fill="#999999" stroke="#666666" points="466.66,-318 285.66,-318 285.66,-295 466.66,-295 466.66,-318"/>
<text text-anchor="middle" x="376.16" y="-302.8" font-family="Arial" font-size="14.00">src/mcu/esp32/EspNvs.cpp</text>
</a>
</g>
</g>
<!-- Node2 -->
<g id="Node000002" class="node">
<title>Node2</title>
<g id="a_Node000002"><a xlink:href="EspNvs_8h.html" target="_top" xlink:title="World&#45;class ESP32&#45;C6 NVS storage implementation with ESP&#45;IDF v5.5+ features.">
<polygon fill="white" stroke="#666666" points="343.16,-259 269.16,-259 269.16,-236 343.16,-236 343.16,-259"/>
<text text-anchor="middle" x="306.16" y="-243.8" font-family="Arial" font-size="14.00">EspNvs.h</text>
</a>
</g>
</g>
<!-- Node1&#45;&gt;Node2 -->
<g id="edge1_Node000001_Node000002" class="edge">
<title>Node1&#45;&gt;Node2</title>
<g id="a_edge1_Node000001_Node000002"><a xlink:title=" ">
<path fill="none" stroke="#63b8ff" d="M362.99,-294.78C352.92,-286.58 338.83,-275.11 327.21,-265.64"/>
<polygon fill="#63b8ff" stroke="#63b8ff" points="329.23,-262.77 319.26,-259.17 324.81,-268.2 329.23,-262.77"/>
</a>
</g>
</g>
<!-- Node13 -->
<g id="Node000013" class="node">
<title>Node13</title>
<g id="a_Node000013"><a xlink:title=" ">
<polygon fill="#e0e0e0" stroke="#999999" points="524.16,-141 468.16,-141 468.16,-118 524.16,-118 524.16,-141"/>
<text text-anchor="middle" x="496.16" y="-125.8" font-family="Arial" font-size="14.00">cstring</text>
</a>
</g>
</g>
<!-- Node1&#45;&gt;Node13 -->
<g id="edge23_Node000001_Node000013" class="edge">
<title>Node1&#45;&gt;Node13</title>
<g id="a_edge23_Node000001_Node000013"><a xlink:title=" ">
<path fill="none" stroke="#63b8ff" d="M383.48,-294.82C403.28,-265.95 458.04,-186.08 483.21,-149.39"/>
<polygon fill="#63b8ff" stroke="#63b8ff" points="486.16,-151.27 488.93,-141.04 480.39,-147.31 486.16,-151.27"/>
</a>
</g>
</g>
<!-- Node3 -->
<g id="Node000003" class="node">
<title>Node3</title>
<g id="a_Node000003"><a xlink:href="BaseNvs_8h.html" target="_top" xlink:title="Abstract base class for Non&#45;Volatile Storage implementations in the HardFOC system.">
<polygon fill="white" stroke="#666666" points="450.16,-141 368.16,-141 368.16,-118 450.16,-118 450.16,-141"/>
<text text-anchor="middle" x="409.16" y="-125.8" font-family="Arial" font-size="14.00">BaseNvs.h</text>
</a>
</g>
</g>
<!-- Node2&#45;&gt;Node3 -->
<g id="edge2_Node000002_Node000003" class="edge">
<title>Node2&#45;&gt;Node3</title>
<g id="a_edge2_Node000002_Node000003"><a xlink:title=" ">
<path fill="none" stroke="#63b8ff" d="M338.27,-235.83C355.97,-228.4 376.97,-216.78 390.16,-200 401.12,-186.05 405.77,-166.22 407.73,-151.31"/>
<polygon fill="#63b8ff" stroke="#63b8ff" points="411.25,-151.35 408.77,-141.05 404.28,-150.64 411.25,-151.35"/>
</a>
</g>
</g>
<!-- Node5 -->
<g id="Node000005" class="node">
<title>Node5</title>
<g id="a_Node000005"><a xlink:title=" ">
<polygon fill="#e0e0e0" stroke="#999999" points="276.16,-23 220.16,-23 220.16,0 276.16,0 276.16,-23"/>
<text text-anchor="middle" x="248.16" y="-7.8" font-family="Arial" font-size="14.00">cstdint</text>
</a>
</g>
</g>
<!-- Node2&#45;&gt;Node5 -->
<g id="edge22_Node000002_Node000005" class="edge">
<title>Node2&#45;&gt;Node5</title>
<g id="a_edge22_Node000002_Node000005"><a xlink:title=" ">
<path fill="none" stroke="#63b8ff" d="M268.96,-246.32C202.66,-243.73 65.39,-227.6 5.16,-141 -13.3,-114.47 24.58,-66.49 34.16,-59 61.11,-37.91 155.96,-23.49 209.9,-16.79"/>
<polygon fill="#63b8ff" stroke="#63b8ff" points="210.6,-20.23 220.11,-15.55 209.76,-13.28 210.6,-20.23"/>
</a>
</g>
</g>
<!-- Node8 -->
<g id="Node000008" class="node">
<title>Node8</title>
<g id="a_Node000008"><a xlink:href="PlatformMutex_8h.html" target="_top" xlink:title="Cross&#45;platform RTOS mutex and synchronization primitives.">
<polygon fill="white" stroke="#666666" points="130.16,-141 14.16,-141 14.16,-118 130.16,-118 130.16,-141"/>
<text text-anchor="middle" x="72.16" y="-125.8" font-family="Arial" font-size="14.00">PlatformMutex.h</text>
</a>
</g>
</g>
<!-- Node2&#45;&gt;Node8 -->
<g id="edge8_Node000002_Node000008" class="edge">
<title>Node2&#45;&gt;Node8</title>
<g id="a_edge8_Node000002_Node000008"><a xlink:title=" ">
<path fill="none" stroke="#63b8ff" d="M284.56,-235.79C242.66,-215.03 150.26,-169.22 102.33,-145.46"/>
<polygon fill="#63b8ff" stroke="#63b8ff" points="103.88,-142.32 93.36,-141.01 100.77,-148.59 103.88,-142.32"/>
</a>
</g>
</g>
<!-- Node11 -->
<g id="Node000011" class="node">
<title>Node11</title>
<g id="a_Node000011"><a xlink:href="EspTypes__NVS_8h.html" target="_top" xlink:title="ESP32 NVS type definitions for hardware abstraction.">
<polygon fill="white" stroke="#666666" points="381.16,-200 231.16,-200 231.16,-177 381.16,-177 381.16,-200"/>
<text text-anchor="middle" x="306.16" y="-184.8" font-family="Arial" font-size="14.00">utils/EspTypes_NVS.h</text>
</a>
</g>
</g>
<!-- Node2&#45;&gt;Node11 -->
<g id="edge12_Node000002_Node000011" class="edge">
<title>Node2&#45;&gt;Node11</title>
<g id="a_edge12_Node000002_Node000011"><a xlink:title=" ">
<path fill="none" stroke="#63b8ff" d="M306.16,-235.78C306.16,-228.61 306.16,-218.95 306.16,-210.31"/>
<polygon fill="#63b8ff" stroke="#63b8ff" points="309.66,-210.17 306.16,-200.17 302.66,-210.17 309.66,-210.17"/>
</a>
</g>
</g>
<!-- Node4 -->
<g id="Node000004" class="node">
<title>Node4</title>
<g id="a_Node000004"><a xlink:href="HardwareTypes_8h.html" target="_top" xlink:title="Platform&#45;agnostic hardware type definitions for the HardFOC system.">
<polygon fill="white" stroke="#666666" points="398.16,-82 276.16,-82 276.16,-59 398.16,-59 398.16,-82"/>
<text text-anchor="middle" x="337.16" y="-66.8" font-family="Arial" font-size="14.00">HardwareTypes.h</text>
</a>
</g>
</g>
<!-- Node3&#45;&gt;Node4 -->
<g id="edge3_Node000003_Node000004" class="edge">
<title>Node3&#45;&gt;Node4</title>
<g id="a_edge3_Node000003_Node000004"><a xlink:title=" ">
<path fill="none" stroke="#63b8ff" d="M395.61,-117.78C385.26,-109.58 370.77,-98.11 358.81,-88.64"/>
<polygon fill="#63b8ff" stroke="#63b8ff" points="360.65,-85.64 350.64,-82.17 356.31,-91.12 360.65,-85.64"/>
</a>
</g>
</g>
<!-- Node3&#45;&gt;Node5 -->
<g id="edge6_Node000003_Node000005" class="edge">
<title>Node3&#45;&gt;Node5</title>
<g id="a_edge6_Node000003_Node000005"><a xlink:title=" ">
<path fill="none" stroke="#63b8ff" d="M412.37,-117.81C416.13,-102.96 420.29,-76.01 407.16,-59 399.62,-49.23 330.72,-31.66 286.13,-21.14"/>
<polygon fill="#63b8ff" stroke="#63b8ff" points="286.72,-17.69 276.19,-18.82 285.13,-24.5 286.72,-17.69"/>
</a>
</g>
</g>
<!-- Node7 -->
<g id="Node000007" class="node">
<title>Node7</title>
<g id="a_Node000007"><a xlink:title=" ">
<polygon fill="#e0e0e0" stroke="#999999" points="538.16,-82 454.16,-82 454.16,-59 538.16,-59 538.16,-82"/>
<text text-anchor="middle" x="496.16" y="-66.8" font-family="Arial" font-size="14.00">string_view</text>
</a>
</g>
</g>
<!-- Node3&#45;&gt;Node7 -->
<g id="edge7_Node000003_Node000007" class="edge">
<title>Node3&#45;&gt;Node7</title>
<g id="a_edge7_Node000003_Node000007"><a xlink:title=" ">
<path fill="none" stroke="#63b8ff" d="M425.52,-117.78C438.4,-109.34 456.57,-97.44 471.25,-87.82"/>
<polygon fill="#63b8ff" stroke="#63b8ff" points="473.42,-90.58 479.87,-82.17 469.58,-84.73 473.42,-90.58"/>
</a>
</g>
</g>
<!-- Node4&#45;&gt;Node5 -->
<g id="edge4_Node000004_Node000005" class="edge">
<title>Node4&#45;&gt;Node5</title>
<g id="a_edge4_Node000004_Node000005"><a xlink:title=" ">
<path fill="none" stroke="#63b8ff" d="M320.42,-58.78C307.24,-50.34 288.66,-38.44 273.63,-28.82"/>
<polygon fill="#63b8ff" stroke="#63b8ff" points="275.13,-25.62 264.82,-23.17 271.36,-31.51 275.13,-25.62"/>
</a>
</g>
</g>
<!-- Node6 -->
<g id="Node000006" class="node">
<title>Node6</title>
<g id="a_Node000006"><a xlink:title=" ">
<polygon fill="#e0e0e0" stroke="#999999" points="361.16,-23 313.16,-23 313.16,0 361.16,0 361.16,-23"/>
<text text-anchor="middle" x="337.16" y="-7.8" font-family="Arial" font-size="14.00">limits</text>
</a>
</g>
</g>
<!-- Node4&#45;&gt;Node6 -->
<g id="edge5_Node000004_Node000006" class="edge">
<title>Node4&#45;&gt;Node6</title>
<g id="a_edge5_Node000004_Node000006"><a xlink:title=" ">
<path fill="none" stroke="#63b8ff" d="M337.16,-58.78C337.16,-51.61 337.16,-41.95 337.16,-33.31"/>
<polygon fill="#63b8ff" stroke="#63b8ff" points="340.66,-33.17 337.16,-23.17 333.66,-33.17 340.66,-33.17"/>
</a>
</g>
</g>
<!-- Node8&#45;&gt;Node5 -->
<g id="edge11_Node000008_Node000005" class="edge">
<title>Node8&#45;&gt;Node5</title>
<g id="a_edge11_Node000008_Node000005"><a xlink:title=" ">
<path fill="none" stroke="#63b8ff" d="M61.22,-117.65C47.89,-103.09 28.8,-76.98 43.16,-59 63.6,-33.4 156.19,-20.84 209.68,-15.62"/>
<polygon fill="#63b8ff" stroke="#63b8ff" points="210.2,-19.08 219.83,-14.67 209.54,-12.11 210.2,-19.08"/>
</a>
</g>
</g>
<!-- Node9 -->
<g id="Node000009" class="node">
<title>Node9</title>
<g id="a_Node000009"><a xlink:href="McuSelect_8h.html" target="_top" xlink:title="Centralized MCU platform selection and configuration header.">
<polygon fill="white" stroke="#666666" points="220.16,-82 128.16,-82 128.16,-59 220.16,-59 220.16,-82"/>
<text text-anchor="middle" x="174.16" y="-66.8" font-family="Arial" font-size="14.00">McuSelect.h</text>
</a>
</g>
</g>
<!-- Node8&#45;&gt;Node9 -->
<g id="edge9_Node000008_Node000009" class="edge">
<title>Node8&#45;&gt;Node9</title>
<g id="a_edge9_Node000008_Node000009"><a xlink:title=" ">
<path fill="none" stroke="#63b8ff" d="M91.34,-117.78C106.73,-109.18 128.55,-96.99 145.93,-87.28"/>
<polygon fill="#63b8ff" stroke="#63b8ff" points="148.04,-90.11 155.06,-82.17 144.62,-84 148.04,-90.11"/>
</a>
</g>
</g>
<!-- Node10 -->
<g id="Node000010" class="node">
<title>Node10</title>
<g id="a_Node000010"><a xlink:title=" ">
<polygon fill="#e0e0e0" stroke="#999999" points="109.66,-82 52.66,-82 52.66,-59 109.66,-59 109.66,-82"/>
<text text-anchor="middle" x="81.16" y="-66.8" font-family="Arial" font-size="14.00">atomic</text>
</a>
</g>
</g>
<!-- Node8&#45;&gt;Node10 -->
<g id="edge10_Node000008_Node000010" class="edge">
<title>Node8&#45;&gt;Node10</title>
<g id="a_edge10_Node000008_Node000010"><a xlink:title=" ">
<path fill="none" stroke="#63b8ff" d="M73.85,-117.78C74.98,-110.61 76.51,-100.95 77.87,-92.31"/>
<polygon fill="#63b8ff" stroke="#63b8ff" points="81.37,-92.6 79.47,-82.17 74.45,-91.5 81.37,-92.6"/>
</a>
</g>
</g>
<!-- Node11&#45;&gt;Node3 -->
<g id="edge13_Node000011_Node000003" class="edge">
<title>Node11&#45;&gt;Node3</title>
<g id="a_edge13_Node000011_Node000003"><a xlink:title=" ">
<path fill="none" stroke="#63b8ff" d="M325.53,-176.78C341.07,-168.18 363.1,-155.99 380.65,-146.28"/>
<polygon fill="#63b8ff" stroke="#63b8ff" points="382.82,-149.08 389.87,-141.17 379.43,-142.95 382.82,-149.08"/>
</a>
</g>
</g>
<!-- Node11&#45;&gt;Node4 -->
<g id="edge19_Node000011_Node000004" class="edge">
<title>Node11&#45;&gt;Node4</title>
<g id="a_edge19_Node000011_Node000004"><a xlink:title=" ">
<path fill="none" stroke="#63b8ff" d="M309.87,-176.87C313.08,-167.49 317.73,-153.43 321.16,-141 325.63,-124.8 329.85,-106.24 332.84,-92.38"/>
<polygon fill="#63b8ff" stroke="#63b8ff" points="336.3,-92.91 334.95,-82.41 329.46,-91.47 336.3,-92.91"/>
</a>
</g>
</g>
<!-- Node11&#45;&gt;Node9 -->
<g id="edge20_Node000011_Node000009" class="edge">
<title>Node11&#45;&gt;Node9</title>
<g id="a_edge20_Node000011_Node000009"><a xlink:title=" ">
<path fill="none" stroke="#63b8ff" d="M234.2,-176.94C212.88,-170.18 191.64,-159.11 178.16,-141 167.82,-127.11 167.8,-107.01 169.78,-91.99"/>
<polygon fill="#63b8ff" stroke="#63b8ff" points="173.24,-92.56 171.47,-82.12 166.34,-91.39 173.24,-92.56"/>
</a>
</g>
</g>
<!-- Node12 -->
<g id="Node000012" class="node">
<title>Node12</title>
<g id="a_Node000012"><a xlink:href="EspTypes__Base_8h.html" target="_top" xlink:title="ESP32 base type definitions for hardware abstraction.">
<polygon fill="white" stroke="#666666" points="311.66,-141 186.66,-141 186.66,-118 311.66,-118 311.66,-141"/>
<text text-anchor="middle" x="249.16" y="-125.8" font-family="Arial" font-size="14.00">EspTypes_Base.h</text>
</a>
</g>
</g>
<!-- Node11&#45;&gt;Node12 -->
<g id="edge14_Node000011_Node000012" class="edge">
<title>Node11&#45;&gt;Node12</title>
<g id="a_edge14_Node000011_Node000012"><a xlink:title=" ">
<path fill="none" stroke="#63b8ff" d="M295.44,-176.78C287.47,-168.82 276.43,-157.77 267.13,-148.47"/>
<polygon fill="#63b8ff" stroke="#63b8ff" points="269.38,-145.77 259.83,-141.17 264.43,-150.72 269.38,-145.77"/>
</a>
</g>
</g>
<!-- Node11&#45;&gt;Node13 -->
<g id="edge21_Node000011_Node000013" class="edge">
<title>Node11&#45;&gt;Node13</title>
<g id="a_edge21_Node000011_Node000013"><a xlink:title=" ">
<path fill="none" stroke="#63b8ff" d="M341.45,-176.91C374.66,-166.95 424.24,-152.08 458.27,-141.87"/>
<polygon fill="#63b8ff" stroke="#63b8ff" points="459.29,-145.21 467.86,-138.99 457.28,-138.51 459.29,-145.21"/>
</a>
</g>
</g>
<!-- Node12&#45;&gt;Node4 -->
<g id="edge16_Node000012_Node000004" class="edge">
<title>Node12&#45;&gt;Node4</title>
<g id="a_edge16_Node000012_Node000004"><a xlink:title=" ">
<path fill="none" stroke="#63b8ff" d="M265.71,-117.78C278.74,-109.34 297.11,-97.44 311.97,-87.82"/>
<polygon fill="#63b8ff" stroke="#63b8ff" points="314.19,-90.55 320.68,-82.17 310.38,-84.67 314.19,-90.55"/>
</a>
</g>
</g>
<!-- Node12&#45;&gt;Node5 -->
<g id="edge18_Node000012_Node000005" class="edge">
<title>Node12&#45;&gt;Node5</title>
<g id="a_edge18_Node000012_Node000005"><a xlink:title=" ">
<path fill="none" stroke="#63b8ff" d="M249.06,-117.79C248.9,-98.63 248.55,-58.15 248.34,-33.34"/>
<polygon fill="#63b8ff" stroke="#63b8ff" points="251.84,-33.15 248.25,-23.18 244.84,-33.21 251.84,-33.15"/>
</a>
</g>
</g>
<!-- Node12&#45;&gt;Node9 -->
<g id="edge15_Node000012_Node000009" class="edge">
<title>Node12&#45;&gt;Node9</title>
<g id="a_edge15_Node000012_Node000009"><a xlink:title=" ">
<path fill="none" stroke="#63b8ff" d="M235.05,-117.78C224.16,-109.5 208.87,-97.89 196.35,-88.36"/>
<polygon fill="#63b8ff" stroke="#63b8ff" points="198.28,-85.44 188.2,-82.17 194.04,-91.01 198.28,-85.44"/>
</a>
</g>
</g>
<!-- Node12&#45;&gt;Node10 -->
<g id="edge17_Node000012_Node000010" class="edge">
<title>Node12&#45;&gt;Node10</title>
<g id="a_edge17_Node000012_Node000010"><a xlink:title=" ">
<path fill="none" stroke="#63b8ff" d="M217.95,-117.91C190.07,-108.45 149.15,-94.57 119.33,-84.45"/>
<polygon fill="#63b8ff" stroke="#63b8ff" points="120.27,-81.07 109.68,-81.18 118.02,-87.7 120.27,-81.07"/>
</a>
</g>
</g>
</g>
</svg>
