<?xml version="1.0" encoding="UTF-8" standalone="no"?>
<!DOCTYPE svg PUBLIC "-//W3C//DTD SVG 1.1//EN"
 "http://www.w3.org/Graphics/SVG/1.1/DTD/svg11.dtd">
<!-- Generated by graphviz version 2.43.0 (0)
 -->
<!-- Title: inc/mcu/esp32/utils/EspTypes_PIO.h Pages: 1 -->
<svg width="2011pt" height="268pt"
 viewBox="0.00 0.00 2011.00 268.00" xmlns="http://www.w3.org/2000/svg" xmlns:xlink="http://www.w3.org/1999/xlink">
<g id="graph0" class="graph" transform="scale(1 1) rotate(0) translate(4 264)">
<title>inc/mcu/esp32/utils/EspTypes_PIO.h</title>
<!-- Node1 -->
<g id="Node000001" class="node">
<title>Node1</title>
<g id="a_Node000001"><a xlink:title="ESP32 PIO/RMT type definitions for hardware abstraction.">
<polygon fill="#999999" stroke="#666666" points="444.5,-260 312.5,-260 312.5,-222 444.5,-222 444.5,-260"/>
<text text-anchor="start" x="320.5" y="-244.8" font-family="Arial" font-size="14.00">inc/mcu/esp32/utils</text>
<text text-anchor="middle" x="378.5" y="-229.8" font-family="Arial" font-size="14.00">/EspTypes_PIO.h</text>
</a>
</g>
</g>
<!-- Node2 -->
<g id="Node000002" class="node">
<title>Node2</title>
<g id="a_Node000002"><a xlink:href="PioComprehensiveTest_8cpp.html" target="_top" xlink:title="Comprehensive PIO testing suite for ESP32&#45;C6 DevKit&#45;M&#45;1 with RMT peripheral (noexcept)">
<polygon fill="white" stroke="#666666" points="185,-38 0,-38 0,0 185,0 185,-38"/>
<text text-anchor="start" x="8" y="-22.8" font-family="Arial" font-size="14.00">examples/esp32/main</text>
<text text-anchor="middle" x="92.5" y="-7.8" font-family="Arial" font-size="14.00">/PioComprehensiveTest.cpp</text>
</a>
</g>
</g>
<!-- Node1&#45;&gt;Node2 -->
<g id="edge1_Node000001_Node000002" class="edge">
<title>Node1&#45;&gt;Node2</title>
<g id="a_edge1_Node000001_Node000002"><a xlink:title=" ">
<path fill="none" stroke="#63b8ff" d="M336.34,-216.89C294.61,-193.13 229.87,-153.78 179.5,-112 151.75,-88.98 123.85,-57.7 107.38,-38.19"/>
<polygon fill="#63b8ff" stroke="#63b8ff" points="334.71,-219.99 345.13,-221.87 338.15,-213.9 334.71,-219.99"/>
</a>
</g>
</g>
<!-- Node3 -->
<g id="Node000003" class="node">
<title>Node3</title>
<g id="a_Node000003"><a xlink:href="EspTypes_8h.html" target="_top" xlink:title="Consolidated MCU&#45;specific type definitions for hardware abstraction (hf_* types).">
<polygon fill="white" stroke="#666666" points="857.5,-186 725.5,-186 725.5,-148 857.5,-148 857.5,-186"/>
<text text-anchor="start" x="733.5" y="-170.8" font-family="Arial" font-size="14.00">inc/mcu/esp32/utils</text>
<text text-anchor="middle" x="791.5" y="-155.8" font-family="Arial" font-size="14.00">/EspTypes.h</text>
</a>
</g>
</g>
<!-- Node1&#45;&gt;Node3 -->
<g id="edge2_Node000001_Node000003" class="edge">
<title>Node1&#45;&gt;Node3</title>
<g id="a_edge2_Node000001_Node000003"><a xlink:title=" ">
<path fill="none" stroke="#63b8ff" d="M455.06,-226.65C532.7,-213.12 651.62,-192.39 725.31,-179.54"/>
<polygon fill="#63b8ff" stroke="#63b8ff" points="454.11,-223.27 444.86,-228.43 455.31,-230.16 454.11,-223.27"/>
</a>
</g>
</g>
<!-- Node11 -->
<g id="Node000011" class="node">
<title>Node11</title>
<g id="a_Node000011"><a xlink:href="EspPio_8cpp.html" target="_top" xlink:title="ESP32C6 RMT&#45;based Programmable IO Channel implementation.">
<polygon fill="white" stroke="#666666" points="380,-30.5 203,-30.5 203,-7.5 380,-7.5 380,-30.5"/>
<text text-anchor="middle" x="291.5" y="-15.3" font-family="Arial" font-size="14.00">src/mcu/esp32/EspPio.cpp</text>
</a>
</g>
</g>
<!-- Node1&#45;&gt;Node11 -->
<g id="edge18_Node000001_Node000011" class="edge">
<title>Node1&#45;&gt;Node11</title>
<g id="a_edge18_Node000001_Node000011"><a xlink:title=" ">
<path fill="none" stroke="#63b8ff" d="M381.57,-211.59C383.97,-176.86 383.58,-117.37 359.5,-74 348.82,-54.76 328.2,-39.9 312.46,-30.68"/>
<polygon fill="#63b8ff" stroke="#63b8ff" points="378.05,-211.69 380.72,-221.94 385.03,-212.26 378.05,-211.69"/>
</a>
</g>
</g>
<!-- Node4 -->
<g id="Node000004" class="node">
<title>Node4</title>
<g id="a_Node000004"><a xlink:href="EspI2c_8h.html" target="_top" xlink:title="Advanced ESP32&#45;integrated I2C controller for ESP&#45;IDF v5.5+ with proper bus&#45;device architecture.">
<polygon fill="white" stroke="#666666" points="769,-104.5 608,-104.5 608,-81.5 769,-81.5 769,-104.5"/>
<text text-anchor="middle" x="688.5" y="-89.3" font-family="Arial" font-size="14.00">inc/mcu/esp32/EspI2c.h</text>
</a>
</g>
</g>
<!-- Node3&#45;&gt;Node4 -->
<g id="edge3_Node000003_Node000004" class="edge">
<title>Node3&#45;&gt;Node4</title>
<g id="a_edge3_Node000003_Node000004"><a xlink:title=" ">
<path fill="none" stroke="#63b8ff" d="M756.92,-141.83C738.81,-129.17 717.57,-114.32 703.62,-104.57"/>
<polygon fill="#63b8ff" stroke="#63b8ff" points="755.31,-144.97 765.51,-147.83 759.32,-139.23 755.31,-144.97"/>
</a>
</g>
</g>
<!-- Node7 -->
<g id="Node000007" class="node">
<title>Node7</title>
<g id="a_Node000007"><a xlink:href="EspPeriodicTimer_8h.html" target="_top" xlink:title="MCU&#45;integrated periodic timer implementation.">
<polygon fill="white" stroke="#666666" points="985.5,-112 805.5,-112 805.5,-74 985.5,-74 985.5,-112"/>
<text text-anchor="start" x="813.5" y="-96.8" font-family="Arial" font-size="14.00">inc/mcu/esp32/EspPeriodic</text>
<text text-anchor="middle" x="895.5" y="-81.8" font-family="Arial" font-size="14.00">Timer.h</text>
</a>
</g>
</g>
<!-- Node3&#45;&gt;Node7 -->
<g id="edge6_Node000003_Node000007" class="edge">
<title>Node3&#45;&gt;Node7</title>
<g id="a_edge6_Node000003_Node000007"><a xlink:title=" ">
<path fill="none" stroke="#63b8ff" d="M826.2,-141.97C840.26,-132.25 856.21,-121.2 869.26,-112.16"/>
<polygon fill="#63b8ff" stroke="#63b8ff" points="823.97,-139.26 817.74,-147.83 827.96,-145.02 823.97,-139.26"/>
</a>
</g>
</g>
<!-- Node10 -->
<g id="Node000010" class="node">
<title>Node10</title>
<g id="a_Node000010"><a xlink:href="EspPio_8h.html" target="_top" xlink:title="ESP32C6 RMT&#45;based Programmable IO Channel implementation with ESP&#45;IDF v5.5+ features.">
<polygon fill="white" stroke="#666666" points="350.5,-104.5 188.5,-104.5 188.5,-81.5 350.5,-81.5 350.5,-104.5"/>
<text text-anchor="middle" x="269.5" y="-89.3" font-family="Arial" font-size="14.00">inc/mcu/esp32/EspPio.h</text>
</a>
</g>
</g>
<!-- Node3&#45;&gt;Node10 -->
<g id="edge9_Node000003_Node000010" class="edge">
<title>Node3&#45;&gt;Node10</title>
<g id="a_edge9_Node000003_Node000010"><a xlink:title=" ">
<path fill="none" stroke="#63b8ff" d="M715.46,-155.51C616.52,-141.86 444.63,-118.16 345.64,-104.5"/>
<polygon fill="#63b8ff" stroke="#63b8ff" points="715,-158.98 725.39,-156.88 715.96,-152.05 715,-158.98"/>
</a>
</g>
</g>
<!-- Node12 -->
<g id="Node000012" class="node">
<title>Node12</title>
<g id="a_Node000012"><a xlink:href="EspSpi_8h.html" target="_top" xlink:title="Advanced MCU&#45;integrated SPI controller implementation with ESP32C6/ESP&#45;IDF v5.5+ features.">
<polygon fill="white" stroke="#666666" points="1386.5,-104.5 1224.5,-104.5 1224.5,-81.5 1386.5,-81.5 1386.5,-104.5"/>
<text text-anchor="middle" x="1305.5" y="-89.3" font-family="Arial" font-size="14.00">inc/mcu/esp32/EspSpi.h</text>
</a>
</g>
</g>
<!-- Node3&#45;&gt;Node12 -->
<g id="edge12_Node000003_Node000012" class="edge">
<title>Node3&#45;&gt;Node12</title>
<g id="a_edge12_Node000003_Node000012"><a xlink:title=" ">
<path fill="none" stroke="#63b8ff" d="M867.74,-155.32C965.34,-141.65 1133.41,-118.11 1230.44,-104.51"/>
<polygon fill="#63b8ff" stroke="#63b8ff" points="867.06,-151.88 857.64,-156.73 868.03,-158.81 867.06,-151.88"/>
</a>
</g>
</g>
<!-- Node15 -->
<g id="Node000015" class="node">
<title>Node15</title>
<g id="a_Node000015"><a xlink:href="EspUart_8h.html" target="_top" xlink:title="ESP32 UART implementation for the HardFOC system.">
<polygon fill="white" stroke="#666666" points="1790.5,-104.5 1622.5,-104.5 1622.5,-81.5 1790.5,-81.5 1790.5,-104.5"/>
<text text-anchor="middle" x="1706.5" y="-89.3" font-family="Arial" font-size="14.00">inc/mcu/esp32/EspUart.h</text>
</a>
</g>
</g>
<!-- Node3&#45;&gt;Node15 -->
<g id="edge15_Node000003_Node000015" class="edge">
<title>Node3&#45;&gt;Node15</title>
<g id="a_edge15_Node000003_Node000015"><a xlink:title=" ">
<path fill="none" stroke="#63b8ff" d="M867.77,-160C1037.51,-146.64 1445.37,-114.55 1622.27,-100.63"/>
<polygon fill="#63b8ff" stroke="#63b8ff" points="867.37,-156.52 857.67,-160.79 867.92,-163.5 867.37,-156.52"/>
</a>
</g>
</g>
<!-- Node5 -->
<g id="Node000005" class="node">
<title>Node5</title>
<g id="a_Node000005"><a xlink:href="I2cComprehensiveTest_8cpp.html" target="_top" xlink:title="Comprehensive I2C testing suite for ESP32&#45;C6 DevKit&#45;M&#45;1 (noexcept)">
<polygon fill="white" stroke="#666666" points="582.5,-38 398.5,-38 398.5,0 582.5,0 582.5,-38"/>
<text text-anchor="start" x="406.5" y="-22.8" font-family="Arial" font-size="14.00">examples/esp32/main</text>
<text text-anchor="middle" x="490.5" y="-7.8" font-family="Arial" font-size="14.00">/I2cComprehensiveTest.cpp</text>
</a>
</g>
</g>
<!-- Node4&#45;&gt;Node5 -->
<g id="edge4_Node000004_Node000005" class="edge">
<title>Node4&#45;&gt;Node5</title>
<g id="a_edge4_Node000004_Node000005"><a xlink:title=" ">
<path fill="none" stroke="#63b8ff" d="M649.6,-77.85C618.29,-66.47 574.07,-50.39 540.2,-38.07"/>
<polygon fill="#63b8ff" stroke="#63b8ff" points="648.69,-81.25 659.28,-81.38 651.08,-74.67 648.69,-81.25"/>
</a>
</g>
</g>
<!-- Node6 -->
<g id="Node000006" class="node">
<title>Node6</title>
<g id="a_Node000006"><a xlink:href="EspI2c_8cpp.html" target="_top" xlink:title="Implementation of ESP32&#45;integrated I2C controller with proper bus&#45;device architecture.">
<polygon fill="white" stroke="#666666" points="776.5,-30.5 600.5,-30.5 600.5,-7.5 776.5,-7.5 776.5,-30.5"/>
<text text-anchor="middle" x="688.5" y="-15.3" font-family="Arial" font-size="14.00">src/mcu/esp32/EspI2c.cpp</text>
</a>
</g>
</g>
<!-- Node4&#45;&gt;Node6 -->
<g id="edge5_Node000004_Node000006" class="edge">
<title>Node4&#45;&gt;Node6</title>
<g id="a_edge5_Node000004_Node000006"><a xlink:title=" ">
<path fill="none" stroke="#63b8ff" d="M688.5,-71.23C688.5,-57.97 688.5,-41.32 688.5,-30.67"/>
<polygon fill="#63b8ff" stroke="#63b8ff" points="685,-71.38 688.5,-81.38 692,-71.38 685,-71.38"/>
</a>
</g>
</g>
<!-- Node8 -->
<g id="Node000008" class="node">
<title>Node8</title>
<g id="a_Node000008"><a xlink:href="TimerComprehensiveTest_8cpp.html" target="_top" xlink:title="ESP32&#45;C6 Periodic Timer Comprehensive Test Suite v2.0.">
<polygon fill="white" stroke="#666666" points="996,-38 795,-38 795,0 996,0 996,-38"/>
<text text-anchor="start" x="803" y="-22.8" font-family="Arial" font-size="14.00">examples/esp32/main</text>
<text text-anchor="middle" x="895.5" y="-7.8" font-family="Arial" font-size="14.00">/TimerComprehensiveTest.cpp</text>
</a>
</g>
</g>
<!-- Node7&#45;&gt;Node8 -->
<g id="edge7_Node000007_Node000008" class="edge">
<title>Node7&#45;&gt;Node8</title>
<g id="a_edge7_Node000007_Node000008"><a xlink:title=" ">
<path fill="none" stroke="#63b8ff" d="M895.5,-63.57C895.5,-55.11 895.5,-46.06 895.5,-38.41"/>
<polygon fill="#63b8ff" stroke="#63b8ff" points="892,-63.83 895.5,-73.83 899,-63.83 892,-63.83"/>
</a>
</g>
</g>
<!-- Node9 -->
<g id="Node000009" class="node">
<title>Node9</title>
<g id="a_Node000009"><a xlink:href="EspPeriodicTimer_8cpp.html" target="_top" xlink:title="Implementation of MCU&#45;integrated periodic timer.">
<polygon fill="white" stroke="#666666" points="1195,-38 1014,-38 1014,0 1195,0 1195,-38"/>
<text text-anchor="start" x="1022" y="-22.8" font-family="Arial" font-size="14.00">src/mcu/esp32/EspPeriodic</text>
<text text-anchor="middle" x="1104.5" y="-7.8" font-family="Arial" font-size="14.00">Timer.cpp</text>
</a>
</g>
</g>
<!-- Node7&#45;&gt;Node9 -->
<g id="edge8_Node000007_Node000009" class="edge">
<title>Node7&#45;&gt;Node9</title>
<g id="a_edge8_Node000007_Node000009"><a xlink:title=" ">
<path fill="none" stroke="#63b8ff" d="M957.52,-70.64C987.59,-60.28 1023.31,-47.97 1052.01,-38.08"/>
<polygon fill="#63b8ff" stroke="#63b8ff" points="956.28,-67.36 947.97,-73.92 958.56,-73.98 956.28,-67.36"/>
</a>
</g>
</g>
<!-- Node10&#45;&gt;Node2 -->
<g id="edge10_Node000010_Node000002" class="edge">
<title>Node10&#45;&gt;Node2</title>
<g id="a_edge10_Node000010_Node000002"><a xlink:title=" ">
<path fill="none" stroke="#63b8ff" d="M234,-77.56C206.05,-66.19 166.95,-50.28 136.93,-38.07"/>
<polygon fill="#63b8ff" stroke="#63b8ff" points="232.8,-80.85 243.38,-81.38 235.44,-74.37 232.8,-80.85"/>
</a>
</g>
</g>
<!-- Node10&#45;&gt;Node11 -->
<g id="edge11_Node000010_Node000011" class="edge">
<title>Node10&#45;&gt;Node11</title>
<g id="a_edge11_Node000010_Node000011"><a xlink:title=" ">
<path fill="none" stroke="#63b8ff" d="M275.72,-71.63C279.8,-58.3 284.95,-41.43 288.24,-30.67"/>
<polygon fill="#63b8ff" stroke="#63b8ff" points="272.32,-70.79 272.75,-81.38 279.02,-72.84 272.32,-70.79"/>
</a>
</g>
</g>
<!-- Node13 -->
<g id="Node000013" class="node">
<title>Node13</title>
<g id="a_Node000013"><a xlink:href="SpiComprehensiveTest_8cpp.html" target="_top" xlink:title="Comprehensive SPI testing suite for ESP32&#45;C6 DevKit&#45;M&#45;1 (noexcept)">
<polygon fill="white" stroke="#666666" points="1398,-38 1213,-38 1213,0 1398,0 1398,-38"/>
<text text-anchor="start" x="1221" y="-22.8" font-family="Arial" font-size="14.00">examples/esp32/main</text>
<text text-anchor="middle" x="1305.5" y="-7.8" font-family="Arial" font-size="14.00">/SpiComprehensiveTest.cpp</text>
</a>
</g>
</g>
<!-- Node12&#45;&gt;Node13 -->
<g id="edge13_Node000012_Node000013" class="edge">
<title>Node12&#45;&gt;Node13</title>
<g id="a_edge13_Node000012_Node000013"><a xlink:title=" ">
<path fill="none" stroke="#63b8ff" d="M1305.5,-71.1C1305.5,-60.69 1305.5,-48.23 1305.5,-38.21"/>
<polygon fill="#63b8ff" stroke="#63b8ff" points="1302,-71.38 1305.5,-81.38 1309,-71.38 1302,-71.38"/>
</a>
</g>
</g>
<!-- Node14 -->
<g id="Node000014" class="node">
<title>Node14</title>
<g id="a_Node000014"><a xlink:href="EspSpi_8cpp.html" target="_top" xlink:title="Implementation of MCU&#45;integrated SPI controller for ESP32C6 with ESP&#45;IDF v5.5+ features.">
<polygon fill="white" stroke="#666666" points="1593,-30.5 1416,-30.5 1416,-7.5 1593,-7.5 1593,-30.5"/>
<text text-anchor="middle" x="1504.5" y="-15.3" font-family="Arial" font-size="14.00">src/mcu/esp32/EspSpi.cpp</text>
</a>
</g>
</g>
<!-- Node12&#45;&gt;Node14 -->
<g id="edge14_Node000012_Node000014" class="edge">
<title>Node12&#45;&gt;Node14</title>
<g id="a_edge14_Node000012_Node000014"><a xlink:title=" ">
<path fill="none" stroke="#63b8ff" d="M1344.67,-77.83C1383.09,-63.93 1440.79,-43.05 1475.34,-30.55"/>
<polygon fill="#63b8ff" stroke="#63b8ff" points="1343.08,-74.68 1334.86,-81.38 1345.46,-81.27 1343.08,-74.68"/>
</a>
</g>
</g>
<!-- Node16 -->
<g id="Node000016" class="node">
<title>Node16</title>
<g id="a_Node000016"><a xlink:href="UartComprehensiveTest_8cpp.html" target="_top" xlink:title="Comprehensive UART testing suite for ESP32&#45;C6 DevKit&#45;M&#45;1 (noexcept)">
<polygon fill="white" stroke="#666666" points="1802,-38 1611,-38 1611,0 1802,0 1802,-38"/>
<text text-anchor="start" x="1619" y="-22.8" font-family="Arial" font-size="14.00">examples/esp32/main</text>
<text text-anchor="middle" x="1706.5" y="-7.8" font-family="Arial" font-size="14.00">/UartComprehensiveTest.cpp</text>
</a>
</g>
</g>
<!-- Node15&#45;&gt;Node16 -->
<g id="edge16_Node000015_Node000016" class="edge">
<title>Node15&#45;&gt;Node16</title>
<g id="a_edge16_Node000015_Node000016"><a xlink:title=" ">
<path fill="none" stroke="#63b8ff" d="M1706.5,-71.1C1706.5,-60.69 1706.5,-48.23 1706.5,-38.21"/>
<polygon fill="#63b8ff" stroke="#63b8ff" points="1703,-71.38 1706.5,-81.38 1710,-71.38 1703,-71.38"/>
</a>
</g>
</g>
<!-- Node17 -->
<g id="Node000017" class="node">
<title>Node17</title>
<g id="a_Node000017"><a xlink:href="EspUart_8cpp.html" target="_top" xlink:title="Implementation of ESP32 UART controller for the HardFOC system.">
<polygon fill="white" stroke="#666666" points="2003,-30.5 1820,-30.5 1820,-7.5 2003,-7.5 2003,-30.5"/>
<text text-anchor="middle" x="1911.5" y="-15.3" font-family="Arial" font-size="14.00">src/mcu/esp32/EspUart.cpp</text>
</a>
</g>
</g>
<!-- Node15&#45;&gt;Node17 -->
<g id="edge17_Node000015_Node000017" class="edge">
<title>Node15&#45;&gt;Node17</title>
<g id="a_edge17_Node000015_Node000017"><a xlink:title=" ">
<path fill="none" stroke="#63b8ff" d="M1746.35,-78C1785.93,-64.1 1845.72,-43.1 1881.46,-30.55"/>
<polygon fill="#63b8ff" stroke="#63b8ff" points="1745.02,-74.76 1736.75,-81.38 1747.34,-81.36 1745.02,-74.76"/>
</a>
</g>
</g>
</g>
</svg>
