<?xml version="1.0" encoding="UTF-8" standalone="no"?>
<!DOCTYPE svg PUBLIC "-//W3C//DTD SVG 1.1//EN"
 "http://www.w3.org/Graphics/SVG/1.1/DTD/svg11.dtd">
<!-- Generated by graphviz version 2.43.0 (0)
 -->
<!-- Title: inc/mcu/esp32/EspUsbSerialJtag.h Pages: 1 -->
<svg width="418pt" height="135pt"
 viewBox="0.00 0.00 417.50 135.00" xmlns="http://www.w3.org/2000/svg" xmlns:xlink="http://www.w3.org/1999/xlink">
<g id="graph0" class="graph" transform="scale(1 1) rotate(0) translate(4 131)">
<title>inc/mcu/esp32/EspUsbSerialJtag.h</title>
<!-- Node1 -->
<g id="Node000001" class="node">
<title>Node1</title>
<g id="a_Node000001"><a xlink:title="ESP32&#45;S3 / &#45;C3 / &#45;C6 USB Serial/JTAG console wrapper.">
<polygon fill="#999999" stroke="#666666" points="302,-127 112,-127 112,-89 302,-89 302,-127"/>
<text text-anchor="start" x="120" y="-111.8" font-family="Arial" font-size="14.00">inc/mcu/esp32/EspUsbSerial</text>
<text text-anchor="middle" x="207" y="-96.8" font-family="Arial" font-size="14.00">Jtag.h</text>
</a>
</g>
</g>
<!-- Node2 -->
<g id="Node000002" class="node">
<title>Node2</title>
<g id="a_Node000002"><a xlink:href="UsbSerialJtagComprehensiveTest_8cpp.html" target="_top" xlink:title="Comprehensive test suite for the EspUsbSerialJtag wrapper (noexcept).">
<polygon fill="white" stroke="#666666" points="200,-53 0,-53 0,0 200,0 200,-53"/>
<text text-anchor="start" x="8" y="-37.8" font-family="Arial" font-size="14.00">examples/esp32/main</text>
<text text-anchor="start" x="8" y="-22.8" font-family="Arial" font-size="14.00">/UsbSerialJtagComprehensive</text>
<text text-anchor="middle" x="100" y="-7.8" font-family="Arial" font-size="14.00">Test.cpp</text>
</a>
</g>
</g>
<!-- Node1&#45;&gt;Node2 -->
<g id="edge1_Node000001_Node000002" class="edge">
<title>Node1&#45;&gt;Node2</title>
<g id="a_edge1_Node000001_Node000002"><a xlink:title=" ">
<path fill="none" stroke="#63b8ff" d="M174.66,-82.97C161.91,-73.5 147.26,-62.61 134.32,-53"/>
<polygon fill="#63b8ff" stroke="#63b8ff" points="172.61,-85.81 182.72,-88.96 176.78,-80.19 172.61,-85.81"/>
</a>
</g>
</g>
<!-- Node3 -->
<g id="Node000003" class="node">
<title>Node3</title>
<g id="a_Node000003"><a xlink:href="EspUsbSerialJtag_8cpp.html" target="_top" xlink:title="ESP32&#45;family USB Serial/JTAG console wrapper implementation.">
<polygon fill="white" stroke="#666666" points="409.5,-45.5 218.5,-45.5 218.5,-7.5 409.5,-7.5 409.5,-45.5"/>
<text text-anchor="start" x="226.5" y="-30.3" font-family="Arial" font-size="14.00">src/mcu/esp32/EspUsbSerial</text>
<text text-anchor="middle" x="314" y="-15.3" font-family="Arial" font-size="14.00">Jtag.cpp</text>
</a>
</g>
</g>
<!-- Node1&#45;&gt;Node3 -->
<g id="edge2_Node000001_Node000003" class="edge">
<title>Node1&#45;&gt;Node3</title>
<g id="a_edge2_Node000001_Node000003"><a xlink:title=" ">
<path fill="none" stroke="#63b8ff" d="M239.38,-82.94C255.46,-70.99 274.59,-56.78 289.45,-45.74"/>
<polygon fill="#63b8ff" stroke="#63b8ff" points="237.22,-80.19 231.28,-88.96 241.39,-85.81 237.22,-80.19"/>
</a>
</g>
</g>
</g>
</svg>
