<?xml version="1.0" encoding="UTF-8" standalone="no"?>
<!DOCTYPE svg PUBLIC "-//W3C//DTD SVG 1.1//EN"
 "http://www.w3.org/Graphics/SVG/1.1/DTD/svg11.dtd">
<!-- Generated by graphviz version 2.43.0 (0)
 -->
<!-- Title: src/mcu/esp32/EspWifi.cpp Pages: 1 -->
<!--zoomable 282 -->

<svg id="main" version="1.1" xmlns="http://www.w3.org/2000/svg" xmlns:xlink="http://www.w3.org/1999/xlink" xml:space="preserve" onload="init(evt)">
<style type="text/css"><![CDATA[
.node, .edge {opacity: 0.7;}
.node.selected, .edge.selected {opacity: 1;}
.edge:hover path { stroke: red; }
.edge:hover polygon { stroke: red; fill: red; }
]]></style>

<defs>
  <circle id="rim" cx="0" cy="0" r="7"/>
  <circle id="rim2" cx="0" cy="0" r="3.5"/>
  <g id="zoomPlus">
    <use xlink:href="#rim" fill="#404040"><set attributeName="fill" to="#808080" begin="zoomplus.mouseover" end="zoomplus.mouseout"/></use>
    <path d="M-4,0h8M0,-4v8" fill="none" stroke="white" stroke-width="1.5" pointer-events="none"/>
  </g>
  <g id="zoomMin">
    <use xlink:href="#rim" fill="#404040"><set attributeName="fill" to="#808080" begin="zoomminus.mouseover" end="zoomminus.mouseout"/></use>
    <path d="M-4,0h8" fill="none" stroke="white" stroke-width="1.5" pointer-events="none"/>
  </g>
  <g id="arrowUp" transform="translate(30 24)">
    <use xlink:href="#rim"/>
    <path pointer-events="none" fill="none" stroke="white" stroke-width="1.5" d="M0,-3.0v7 M-2.5,-0.5L0,-3.0L2.5,-0.5"/>
  </g>
  <g id="arrowRight" transform="rotate(90) translate(36 -43)">
    <use xlink:href="#rim"/>
    <path pointer-events="none" fill="none" stroke="white" stroke-width="1.5" d="M0,-3.0v7 M-2.5,-0.5L0,-3.0L2.5,-0.5"/>
  </g>
  <g id="arrowDown" transform="rotate(180) translate(-30 -48)">
    <use xlink:href="#rim"/>
    <path pointer-events="none" fill="none" stroke="white" stroke-width="1.5" d="M0,-3.0v7 M-2.5,-0.5L0,-3.0L2.5,-0.5"/>
  </g>
  <g id="arrowLeft" transform="rotate(270) translate(-36 17)">
    <use xlink:href="#rim"/>
    <path pointer-events="none" fill="none" stroke="white" stroke-width="1.5" d="M0,-3.0v7 M-2.5,-0.5L0,-3.0L2.5,-0.5"/>
  </g>
  <g id="resetDef">
    <use xlink:href="#rim2" fill="#404040"><set attributeName="fill" to="#808080" begin="reset.mouseover" end="reset.mouseout"/></use>
  </g>
</defs>
<script type="application/ecmascript">
var viewWidth = 1858;
var viewHeight = 282;
var sectionId = 'dynsection-0';
</script>
<script type="application/ecmascript" xlink:href="svg.min.js"/>
<svg id="graph" class="graph">
<g id="viewport">
<title>src/mcu/esp32/EspWifi.cpp</title>
<!-- Node1 -->
<g id="Node000001" class="node">
<title>Node1</title>
<g id="a_Node000001"><a xlink:title="Advanced ESP32 implementation of the unified BaseWifi class with ESP&#45;IDF v5.5+ features.">
<polygon fill="#999999" stroke="#666666" points="1339.5,-274 1158.5,-274 1158.5,-251 1339.5,-251 1339.5,-274"/>
<text text-anchor="middle" x="1249" y="-258.8" font-family="Arial" font-size="14.00">src/mcu/esp32/EspWifi.cpp</text>
</a>
</g>
</g>
<!-- Node2 -->
<g id="Node000002" class="node">
<title>Node2</title>
<g id="a_Node000002"><a xlink:href="EspWifi_8h.html" target="_top" xlink:title="Advanced ESP32 implementation of the unified BaseWifi class with ESP&#45;IDF v5.5+ features.">
<polygon fill="white" stroke="#666666" points="808.5,-215 663.5,-215 663.5,-192 808.5,-192 808.5,-215"/>
<text text-anchor="middle" x="736" y="-199.8" font-family="Arial" font-size="14.00">mcu/esp32/EspWifi.h</text>
</a>
</g>
</g>
<!-- Node1&#45;&gt;Node2 -->
<g id="edge1_Node000001_Node000002" class="edge">
<title>Node1&#45;&gt;Node2</title>
<g id="a_edge1_Node000001_Node000002"><a xlink:title=" ">
<path fill="none" stroke="#63b8ff" d="M1158.33,-252.32C1073.18,-243.56 941.94,-229.73 818.83,-215.2"/>
<polygon fill="#63b8ff" stroke="#63b8ff" points="819.19,-211.72 808.85,-214.02 818.37,-218.67 819.19,-211.72"/>
</a>
</g>
</g>
<!-- Node24 -->
<g id="Node000024" class="node">
<title>Node24</title>
<g id="a_Node000024"><a xlink:title=" ">
<polygon fill="#e0e0e0" stroke="#999999" points="901.5,-215 826.5,-215 826.5,-192 901.5,-192 901.5,-215"/>
<text text-anchor="middle" x="864" y="-199.8" font-family="Arial" font-size="14.00">esp_log.h</text>
</a>
</g>
</g>
<!-- Node1&#45;&gt;Node24 -->
<g id="edge29_Node000001_Node000024" class="edge">
<title>Node1&#45;&gt;Node24</title>
<g id="a_edge29_Node000001_Node000024"><a xlink:title=" ">
<path fill="none" stroke="#63b8ff" d="M1158.37,-251.27C1092.36,-243.31 1000.63,-231.18 911.6,-215.18"/>
<polygon fill="#63b8ff" stroke="#63b8ff" points="912.06,-211.71 901.6,-213.37 910.81,-218.6 912.06,-211.71"/>
</a>
</g>
</g>
<!-- Node25 -->
<g id="Node000025" class="node">
<title>Node25</title>
<g id="a_Node000025"><a xlink:title=" ">
<polygon fill="#e0e0e0" stroke="#999999" points="1002.5,-215 919.5,-215 919.5,-192 1002.5,-192 1002.5,-215"/>
<text text-anchor="middle" x="961" y="-199.8" font-family="Arial" font-size="14.00">esp_mac.h</text>
</a>
</g>
</g>
<!-- Node1&#45;&gt;Node25 -->
<g id="edge30_Node000001_Node000025" class="edge">
<title>Node1&#45;&gt;Node25</title>
<g id="a_edge30_Node000001_Node000025"><a xlink:title=" ">
<path fill="none" stroke="#63b8ff" d="M1193.65,-250.91C1147.65,-242.06 1080.2,-228.97 1012.69,-215.33"/>
<polygon fill="#63b8ff" stroke="#63b8ff" points="1013.23,-211.86 1002.73,-213.31 1011.84,-218.72 1013.23,-211.86"/>
</a>
</g>
</g>
<!-- Node26 -->
<g id="Node000026" class="node">
<title>Node26</title>
<g id="a_Node000026"><a xlink:title=" ">
<polygon fill="#e0e0e0" stroke="#999999" points="1121.5,-215 1020.5,-215 1020.5,-192 1121.5,-192 1121.5,-215"/>
<text text-anchor="middle" x="1071" y="-199.8" font-family="Arial" font-size="14.00">esp_system.h</text>
</a>
</g>
</g>
<!-- Node1&#45;&gt;Node26 -->
<g id="edge31_Node000001_Node000026" class="edge">
<title>Node1&#45;&gt;Node26</title>
<g id="a_edge31_Node000001_Node000026"><a xlink:title=" ">
<path fill="none" stroke="#63b8ff" d="M1215.94,-250.91C1187.09,-241.67 1145.05,-228.21 1113.67,-218.16"/>
<polygon fill="#63b8ff" stroke="#63b8ff" points="1114.48,-214.75 1103.89,-215.03 1112.34,-221.41 1114.48,-214.75"/>
</a>
</g>
</g>
<!-- Node27 -->
<g id="Node000027" class="node">
<title>Node27</title>
<g id="a_Node000027"><a xlink:title=" ">
<polygon fill="#e0e0e0" stroke="#999999" points="1226.5,-215 1139.5,-215 1139.5,-192 1226.5,-192 1226.5,-215"/>
<text text-anchor="middle" x="1183" y="-199.8" font-family="Arial" font-size="14.00">esp_timer.h</text>
</a>
</g>
</g>
<!-- Node1&#45;&gt;Node27 -->
<g id="edge32_Node000001_Node000027" class="edge">
<title>Node1&#45;&gt;Node27</title>
<g id="a_edge32_Node000001_Node000027"><a xlink:title=" ">
<path fill="none" stroke="#63b8ff" d="M1236.59,-250.78C1227.18,-242.66 1214.07,-231.33 1203.17,-221.92"/>
<polygon fill="#63b8ff" stroke="#63b8ff" points="1205.21,-219.06 1195.36,-215.17 1200.64,-224.36 1205.21,-219.06"/>
</a>
</g>
</g>
<!-- Node28 -->
<g id="Node000028" class="node">
<title>Node28</title>
<g id="a_Node000028"><a xlink:title=" ">
<polygon fill="#e0e0e0" stroke="#999999" points="1387.5,-215 1244.5,-215 1244.5,-192 1387.5,-192 1387.5,-215"/>
<text text-anchor="middle" x="1316" y="-199.8" font-family="Arial" font-size="14.00">freertos/FreeRTOS.h</text>
</a>
</g>
</g>
<!-- Node1&#45;&gt;Node28 -->
<g id="edge33_Node000001_Node000028" class="edge">
<title>Node1&#45;&gt;Node28</title>
<g id="a_edge33_Node000001_Node000028"><a xlink:title=" ">
<path fill="none" stroke="#63b8ff" d="M1261.6,-250.78C1271.15,-242.66 1284.46,-231.33 1295.53,-221.92"/>
<polygon fill="#63b8ff" stroke="#63b8ff" points="1298.11,-224.32 1303.45,-215.17 1293.57,-218.99 1298.11,-224.32"/>
</a>
</g>
</g>
<!-- Node29 -->
<g id="Node000029" class="node">
<title>Node29</title>
<g id="a_Node000029"><a xlink:title=" ">
<polygon fill="#e0e0e0" stroke="#999999" points="1564.5,-215 1405.5,-215 1405.5,-192 1564.5,-192 1564.5,-215"/>
<text text-anchor="middle" x="1485" y="-199.8" font-family="Arial" font-size="14.00">freertos/event_groups.h</text>
</a>
</g>
</g>
<!-- Node1&#45;&gt;Node29 -->
<g id="edge34_Node000001_Node000029" class="edge">
<title>Node1&#45;&gt;Node29</title>
<g id="a_edge34_Node000001_Node000029"><a xlink:title=" ">
<path fill="none" stroke="#63b8ff" d="M1292.56,-250.98C1331.77,-241.51 1389.51,-227.56 1431.51,-217.42"/>
<polygon fill="#63b8ff" stroke="#63b8ff" points="1432.39,-220.81 1441.29,-215.06 1430.75,-214 1432.39,-220.81"/>
</a>
</g>
</g>
<!-- Node30 -->
<g id="Node000030" class="node">
<title>Node30</title>
<g id="a_Node000030"><a xlink:title=" ">
<polygon fill="#e0e0e0" stroke="#999999" points="1684,-215 1582,-215 1582,-192 1684,-192 1684,-215"/>
<text text-anchor="middle" x="1633" y="-199.8" font-family="Arial" font-size="14.00">freertos/task.h</text>
</a>
</g>
</g>
<!-- Node1&#45;&gt;Node30 -->
<g id="edge35_Node000001_Node000030" class="edge">
<title>Node1&#45;&gt;Node30</title>
<g id="a_edge35_Node000001_Node000030"><a xlink:title=" ">
<path fill="none" stroke="#63b8ff" d="M1327.92,-250.97C1391.43,-242.33 1483.22,-229.43 1571.89,-215.31"/>
<polygon fill="#63b8ff" stroke="#63b8ff" points="1572.53,-218.75 1581.85,-213.71 1571.42,-211.84 1572.53,-218.75"/>
</a>
</g>
</g>
<!-- Node31 -->
<g id="Node000031" class="node">
<title>Node31</title>
<g id="a_Node000031"><a xlink:title=" ">
<polygon fill="#e0e0e0" stroke="#999999" points="1775.5,-215 1702.5,-215 1702.5,-192 1775.5,-192 1775.5,-215"/>
<text text-anchor="middle" x="1739" y="-199.8" font-family="Arial" font-size="14.00">algorithm</text>
</a>
</g>
</g>
<!-- Node1&#45;&gt;Node31 -->
<g id="edge36_Node000001_Node000031" class="edge">
<title>Node1&#45;&gt;Node31</title>
<g id="a_edge36_Node000001_Node000031"><a xlink:title=" ">
<path fill="none" stroke="#63b8ff" d="M1339.57,-255.22C1427.31,-248.4 1564.26,-235.83 1692.42,-214.92"/>
<polygon fill="#63b8ff" stroke="#63b8ff" points="1693.12,-218.35 1702.42,-213.27 1691.98,-211.44 1693.12,-218.35"/>
</a>
</g>
</g>
<!-- Node32 -->
<g id="Node000032" class="node">
<title>Node32</title>
<g id="a_Node000032"><a xlink:title=" ">
<polygon fill="#e0e0e0" stroke="#999999" points="1850,-215 1794,-215 1794,-192 1850,-192 1850,-215"/>
<text text-anchor="middle" x="1822" y="-199.8" font-family="Arial" font-size="14.00">cstring</text>
</a>
</g>
</g>
<!-- Node1&#45;&gt;Node32 -->
<g id="edge37_Node000001_Node000032" class="edge">
<title>Node1&#45;&gt;Node32</title>
<g id="a_edge37_Node000001_Node000032"><a xlink:title=" ">
<path fill="none" stroke="#63b8ff" d="M1339.8,-258.87C1444.77,-254.66 1622.72,-243.87 1783.76,-214.93"/>
<polygon fill="#63b8ff" stroke="#63b8ff" points="1784.64,-218.32 1793.85,-213.08 1783.38,-211.44 1784.64,-218.32"/>
</a>
</g>
</g>
<!-- Node3 -->
<g id="Node000003" class="node">
<title>Node3</title>
<g id="a_Node000003"><a xlink:title=" ">
<polygon fill="#e0e0e0" stroke="#999999" points="90,-148.5 0,-148.5 0,-125.5 90,-125.5 90,-148.5"/>
<text text-anchor="middle" x="45" y="-133.3" font-family="Arial" font-size="14.00">esp_event.h</text>
</a>
</g>
</g>
<!-- Node2&#45;&gt;Node3 -->
<g id="edge2_Node000002_Node000003" class="edge">
<title>Node2&#45;&gt;Node3</title>
<g id="a_edge2_Node000002_Node000003"><a xlink:title=" ">
<path fill="none" stroke="#63b8ff" d="M663.09,-203.04C543.9,-202.61 300.43,-196.27 99,-156 93.43,-154.89 87.63,-153.36 82,-151.67"/>
<polygon fill="#63b8ff" stroke="#63b8ff" points="82.71,-148.22 72.11,-148.5 80.57,-154.89 82.71,-148.22"/>
</a>
</g>
</g>
<!-- Node4 -->
<g id="Node000004" class="node">
<title>Node4</title>
<g id="a_Node000004"><a xlink:title=" ">
<polygon fill="#e0e0e0" stroke="#999999" points="199.5,-148.5 108.5,-148.5 108.5,-125.5 199.5,-125.5 199.5,-148.5"/>
<text text-anchor="middle" x="154" y="-133.3" font-family="Arial" font-size="14.00">esp_mesh.h</text>
</a>
</g>
</g>
<!-- Node2&#45;&gt;Node4 -->
<g id="edge3_Node000002_Node000004" class="edge">
<title>Node2&#45;&gt;Node4</title>
<g id="a_edge3_Node000002_Node000004"><a xlink:title=" ">
<path fill="none" stroke="#63b8ff" d="M663.48,-201.46C561,-198.78 368.38,-189.31 208,-156 202.5,-154.86 196.77,-153.33 191.2,-151.65"/>
<polygon fill="#63b8ff" stroke="#63b8ff" points="192,-148.24 181.41,-148.51 189.86,-154.9 192,-148.24"/>
</a>
</g>
</g>
<!-- Node5 -->
<g id="Node000005" class="node">
<title>Node5</title>
<g id="a_Node000005"><a xlink:title=" ">
<polygon fill="#e0e0e0" stroke="#999999" points="300.5,-148.5 217.5,-148.5 217.5,-125.5 300.5,-125.5 300.5,-148.5"/>
<text text-anchor="middle" x="259" y="-133.3" font-family="Arial" font-size="14.00">esp_netif.h</text>
</a>
</g>
</g>
<!-- Node2&#45;&gt;Node5 -->
<g id="edge4_Node000002_Node000005" class="edge">
<title>Node2&#45;&gt;Node5</title>
<g id="a_edge4_Node000002_Node000005"><a xlink:title=" ">
<path fill="none" stroke="#63b8ff" d="M663.18,-199.66C577.68,-195.15 432.05,-183.81 310,-156 304.98,-154.86 299.77,-153.38 294.68,-151.76"/>
<polygon fill="#63b8ff" stroke="#63b8ff" points="295.72,-148.41 285.13,-148.52 293.48,-155.04 295.72,-148.41"/>
</a>
</g>
</g>
<!-- Node6 -->
<g id="Node000006" class="node">
<title>Node6</title>
<g id="a_Node000006"><a xlink:title=" ">
<polygon fill="#e0e0e0" stroke="#999999" points="447,-148.5 319,-148.5 319,-125.5 447,-125.5 447,-148.5"/>
<text text-anchor="middle" x="383" y="-133.3" font-family="Arial" font-size="14.00">esp_smartconfig.h</text>
</a>
</g>
</g>
<!-- Node2&#45;&gt;Node6 -->
<g id="edge5_Node000002_Node000006" class="edge">
<title>Node2&#45;&gt;Node6</title>
<g id="a_edge5_Node000002_Node000006"><a xlink:title=" ">
<path fill="none" stroke="#63b8ff" d="M663.49,-192.03C606.79,-183.46 526.1,-170.44 456,-156 448.62,-154.48 440.86,-152.73 433.26,-150.93"/>
<polygon fill="#63b8ff" stroke="#63b8ff" points="433.96,-147.5 423.42,-148.56 432.32,-154.3 433.96,-147.5"/>
</a>
</g>
</g>
<!-- Node7 -->
<g id="Node000007" class="node">
<title>Node7</title>
<g id="a_Node000007"><a xlink:title=" ">
<polygon fill="#e0e0e0" stroke="#999999" points="542.5,-148.5 465.5,-148.5 465.5,-125.5 542.5,-125.5 542.5,-148.5"/>
<text text-anchor="middle" x="504" y="-133.3" font-family="Arial" font-size="14.00">esp_wifi.h</text>
</a>
</g>
</g>
<!-- Node2&#45;&gt;Node7 -->
<g id="edge6_Node000002_Node000007" class="edge">
<title>Node2&#45;&gt;Node7</title>
<g id="a_edge6_Node000002_Node000007"><a xlink:title=" ">
<path fill="none" stroke="#63b8ff" d="M687.26,-191.92C649.69,-183.37 596.63,-170.42 551,-156 547.26,-154.82 543.39,-153.5 539.55,-152.13"/>
<polygon fill="#63b8ff" stroke="#63b8ff" points="540.75,-148.84 530.15,-148.65 538.32,-155.4 540.75,-148.84"/>
</a>
</g>
</g>
<!-- Node8 -->
<g id="Node000008" class="node">
<title>Node8</title>
<g id="a_Node000008"><a xlink:title=" ">
<polygon fill="#e0e0e0" stroke="#999999" points="631.5,-148.5 560.5,-148.5 560.5,-125.5 631.5,-125.5 631.5,-148.5"/>
<text text-anchor="middle" x="596" y="-133.3" font-family="Arial" font-size="14.00">lwip/err.h</text>
</a>
</g>
</g>
<!-- Node2&#45;&gt;Node8 -->
<g id="edge7_Node000002_Node000008" class="edge">
<title>Node2&#45;&gt;Node8</title>
<g id="a_edge7_Node000002_Node000008"><a xlink:title=" ">
<path fill="none" stroke="#63b8ff" d="M713.19,-191.99C690.01,-181.31 653.89,-164.67 627.88,-152.69"/>
<polygon fill="#63b8ff" stroke="#63b8ff" points="629.34,-149.51 618.8,-148.5 626.41,-155.87 629.34,-149.51"/>
</a>
</g>
</g>
<!-- Node9 -->
<g id="Node000009" class="node">
<title>Node9</title>
<g id="a_Node000009"><a xlink:title=" ">
<polygon fill="#e0e0e0" stroke="#999999" points="724.5,-148.5 649.5,-148.5 649.5,-125.5 724.5,-125.5 724.5,-148.5"/>
<text text-anchor="middle" x="687" y="-133.3" font-family="Arial" font-size="14.00">lwip/sys.h</text>
</a>
</g>
</g>
<!-- Node2&#45;&gt;Node9 -->
<g id="edge8_Node000002_Node000009" class="edge">
<title>Node2&#45;&gt;Node9</title>
<g id="a_edge8_Node000002_Node000009"><a xlink:title=" ">
<path fill="none" stroke="#63b8ff" d="M727.91,-191.85C720.72,-182.38 710.03,-168.32 701.39,-156.94"/>
<polygon fill="#63b8ff" stroke="#63b8ff" points="704.1,-154.73 695.27,-148.88 698.53,-158.96 704.1,-154.73"/>
</a>
</g>
</g>
<!-- Node10 -->
<g id="Node000010" class="node">
<title>Node10</title>
<g id="a_Node000010"><a xlink:title=" ">
<polygon fill="#e0e0e0" stroke="#999999" points="827.5,-148.5 742.5,-148.5 742.5,-125.5 827.5,-125.5 827.5,-148.5"/>
<text text-anchor="middle" x="785" y="-133.3" font-family="Arial" font-size="14.00">nvs_flash.h</text>
</a>
</g>
</g>
<!-- Node2&#45;&gt;Node10 -->
<g id="edge9_Node000002_Node000010" class="edge">
<title>Node2&#45;&gt;Node10</title>
<g id="a_edge9_Node000002_Node000010"><a xlink:title=" ">
<path fill="none" stroke="#63b8ff" d="M744.09,-191.85C751.28,-182.38 761.97,-168.32 770.61,-156.94"/>
<polygon fill="#63b8ff" stroke="#63b8ff" points="773.47,-158.96 776.73,-148.88 767.9,-154.73 773.47,-158.96"/>
</a>
</g>
</g>
<!-- Node11 -->
<g id="Node000011" class="node">
<title>Node11</title>
<g id="a_Node000011"><a xlink:href="BaseWifi_8h.html" target="_top" xlink:title="Unified WiFi base class for all WiFi implementations.">
<polygon fill="white" stroke="#666666" points="928,-148.5 846,-148.5 846,-125.5 928,-125.5 928,-148.5"/>
<text text-anchor="middle" x="887" y="-133.3" font-family="Arial" font-size="14.00">BaseWifi.h</text>
</a>
</g>
</g>
<!-- Node2&#45;&gt;Node11 -->
<g id="edge10_Node000002_Node000011" class="edge">
<title>Node2&#45;&gt;Node11</title>
<g id="a_edge10_Node000002_Node000011"><a xlink:title=" ">
<path fill="none" stroke="#63b8ff" d="M760.6,-191.99C785.71,-181.26 824.9,-164.53 852.98,-152.53"/>
<polygon fill="#63b8ff" stroke="#63b8ff" points="854.59,-155.65 862.41,-148.5 851.84,-149.21 854.59,-155.65"/>
</a>
</g>
</g>
<!-- Node18 -->
<g id="Node000018" class="node">
<title>Node18</title>
<g id="a_Node000018"><a xlink:href="EspTypes__Base_8h.html" target="_top" xlink:title="ESP32 base type definitions for hardware abstraction.">
<polygon fill="white" stroke="#666666" points="1120,-156 946,-156 946,-118 1120,-118 1120,-156"/>
<text text-anchor="start" x="954" y="-140.8" font-family="Arial" font-size="14.00">mcu/esp32/utils/EspTypes</text>
<text text-anchor="middle" x="1033" y="-125.8" font-family="Arial" font-size="14.00">_Base.h</text>
</a>
</g>
</g>
<!-- Node2&#45;&gt;Node18 -->
<g id="edge18_Node000002_Node000018" class="edge">
<title>Node2&#45;&gt;Node18</title>
<g id="a_edge18_Node000002_Node000018"><a xlink:title=" ">
<path fill="none" stroke="#63b8ff" d="M784.38,-191.99C826.46,-182.85 888.61,-169.36 940.25,-158.14"/>
<polygon fill="#63b8ff" stroke="#63b8ff" points="941.06,-161.55 950.09,-156 939.58,-154.71 941.06,-161.55"/>
</a>
</g>
</g>
<!-- Node20 -->
<g id="Node000020" class="node">
<title>Node20</title>
<g id="a_Node000020"><a xlink:title=" ">
<polygon fill="#e0e0e0" stroke="#999999" points="1249.5,-82 1192.5,-82 1192.5,-59 1249.5,-59 1249.5,-82"/>
<text text-anchor="middle" x="1221" y="-66.8" font-family="Arial" font-size="14.00">atomic</text>
</a>
</g>
</g>
<!-- Node2&#45;&gt;Node20 -->
<g id="edge26_Node000002_Node000020" class="edge">
<title>Node2&#45;&gt;Node20</title>
<g id="a_edge26_Node000002_Node000020"><a xlink:title=" ">
<path fill="none" stroke="#63b8ff" d="M808.85,-193.01C811.6,-192.66 814.33,-192.33 817,-192 955.55,-175.03 1003.32,-216.73 1129,-156 1150.51,-145.61 1149.49,-134.25 1167,-118 1177.63,-108.14 1189.84,-97.56 1199.96,-88.99"/>
<polygon fill="#63b8ff" stroke="#63b8ff" points="1202.49,-91.44 1207.89,-82.32 1197.98,-86.08 1202.49,-91.44"/>
</a>
</g>
</g>
<!-- Node21 -->
<g id="Node000021" class="node">
<title>Node21</title>
<g id="a_Node000021"><a xlink:href="PlatformMutex_8h.html" target="_top" xlink:title="Cross&#45;platform mutex and synchronization primitives with pluggable backend.">
<polygon fill="white" stroke="#666666" points="1320,-148.5 1176,-148.5 1176,-125.5 1320,-125.5 1320,-148.5"/>
<text text-anchor="middle" x="1248" y="-133.3" font-family="Arial" font-size="14.00">utils/PlatformMutex.h</text>
</a>
</g>
</g>
<!-- Node2&#45;&gt;Node21 -->
<g id="edge23_Node000002_Node000021" class="edge">
<title>Node2&#45;&gt;Node21</title>
<g id="a_edge23_Node000002_Node000021"><a xlink:title=" ">
<path fill="none" stroke="#63b8ff" d="M808.85,-192.97C811.6,-192.64 814.32,-192.31 817,-192 970.12,-174.09 1009.69,-179.82 1162,-156 1171.72,-154.48 1182,-152.58 1191.95,-150.6"/>
<polygon fill="#63b8ff" stroke="#63b8ff" points="1192.65,-154.02 1201.74,-148.59 1191.24,-147.17 1192.65,-154.02"/>
</a>
</g>
</g>
<!-- Node22 -->
<g id="Node000022" class="node">
<title>Node22</title>
<g id="a_Node000022"><a xlink:title=" ">
<polygon fill="#e0e0e0" stroke="#999999" points="1405.5,-148.5 1338.5,-148.5 1338.5,-125.5 1405.5,-125.5 1405.5,-148.5"/>
<text text-anchor="middle" x="1372" y="-133.3" font-family="Arial" font-size="14.00">memory</text>
</a>
</g>
</g>
<!-- Node2&#45;&gt;Node22 -->
<g id="edge27_Node000002_Node000022" class="edge">
<title>Node2&#45;&gt;Node22</title>
<g id="a_edge27_Node000002_Node000022"><a xlink:title=" ">
<path fill="none" stroke="#63b8ff" d="M808.83,-192.85C811.59,-192.55 814.32,-192.27 817,-192 1043.99,-169.33 1107.06,-208.74 1329,-156 1332.96,-155.06 1337.03,-153.79 1341,-152.36"/>
<polygon fill="#63b8ff" stroke="#63b8ff" points="1342.57,-155.51 1350.59,-148.58 1340,-149 1342.57,-155.51"/>
</a>
</g>
</g>
<!-- Node23 -->
<g id="Node000023" class="node">
<title>Node23</title>
<g id="a_Node000023"><a xlink:title=" ">
<polygon fill="#e0e0e0" stroke="#999999" points="1478,-148.5 1424,-148.5 1424,-125.5 1478,-125.5 1478,-148.5"/>
<text text-anchor="middle" x="1451" y="-133.3" font-family="Arial" font-size="14.00">queue</text>
</a>
</g>
</g>
<!-- Node2&#45;&gt;Node23 -->
<g id="edge28_Node000002_Node000023" class="edge">
<title>Node2&#45;&gt;Node23</title>
<g id="a_edge28_Node000002_Node000023"><a xlink:title=" ">
<path fill="none" stroke="#63b8ff" d="M808.83,-192.82C811.59,-192.53 814.32,-192.25 817,-192 1082.07,-166.87 1157.82,-224.94 1415,-156 1418.01,-155.19 1421.06,-154.12 1424.05,-152.9"/>
<polygon fill="#63b8ff" stroke="#63b8ff" points="1425.64,-156.02 1433.25,-148.65 1422.71,-149.67 1425.64,-156.02"/>
</a>
</g>
</g>
<!-- Node12 -->
<g id="Node000012" class="node">
<title>Node12</title>
<g id="a_Node000012"><a xlink:href="HardwareTypes_8h.html" target="_top" xlink:title="Platform&#45;agnostic hardware type definitions for the HardFOC system.">
<polygon fill="white" stroke="#666666" points="976,-82 854,-82 854,-59 976,-59 976,-82"/>
<text text-anchor="middle" x="915" y="-66.8" font-family="Arial" font-size="14.00">HardwareTypes.h</text>
</a>
</g>
</g>
<!-- Node11&#45;&gt;Node12 -->
<g id="edge11_Node000011_Node000012" class="edge">
<title>Node11&#45;&gt;Node12</title>
<g id="a_edge11_Node000011_Node000012"><a xlink:title=" ">
<path fill="none" stroke="#63b8ff" d="M891.62,-125.35C895.57,-116.25 901.36,-102.92 906.19,-91.79"/>
<polygon fill="#63b8ff" stroke="#63b8ff" points="909.5,-92.95 910.28,-82.38 903.08,-90.16 909.5,-92.95"/>
</a>
</g>
</g>
<!-- Node13 -->
<g id="Node000013" class="node">
<title>Node13</title>
<g id="a_Node000013"><a xlink:title=" ">
<polygon fill="#e0e0e0" stroke="#999999" points="1102,-23 1046,-23 1046,0 1102,0 1102,-23"/>
<text text-anchor="middle" x="1074" y="-7.8" font-family="Arial" font-size="14.00">cstdint</text>
</a>
</g>
</g>
<!-- Node11&#45;&gt;Node13 -->
<g id="edge14_Node000011_Node000013" class="edge">
<title>Node11&#45;&gt;Node13</title>
<g id="a_edge14_Node000011_Node000013"><a xlink:title=" ">
<path fill="none" stroke="#63b8ff" d="M873.51,-125.28C855.46,-109.67 827.65,-80.22 845,-59 868.67,-30.03 977.09,-18.67 1035.86,-14.58"/>
<polygon fill="#63b8ff" stroke="#63b8ff" points="1036.13,-18.07 1045.88,-13.92 1035.67,-11.08 1036.13,-18.07"/>
</a>
</g>
</g>
<!-- Node15 -->
<g id="Node000015" class="node">
<title>Node15</title>
<g id="a_Node000015"><a xlink:title=" ">
<polygon fill="#e0e0e0" stroke="#999999" points="730,-82 656,-82 656,-59 730,-59 730,-82"/>
<text text-anchor="middle" x="693" y="-66.8" font-family="Arial" font-size="14.00">functional</text>
</a>
</g>
</g>
<!-- Node11&#45;&gt;Node15 -->
<g id="edge15_Node000011_Node000015" class="edge">
<title>Node11&#45;&gt;Node15</title>
<g id="a_edge15_Node000011_Node000015"><a xlink:title=" ">
<path fill="none" stroke="#63b8ff" d="M857.65,-125.5C850.57,-123.01 843.02,-120.38 836,-118 802.49,-106.64 764.39,-94.28 735.94,-85.16"/>
<polygon fill="#63b8ff" stroke="#63b8ff" points="736.9,-81.79 726.31,-82.07 734.76,-88.45 736.9,-81.79"/>
</a>
</g>
</g>
<!-- Node16 -->
<g id="Node000016" class="node">
<title>Node16</title>
<g id="a_Node000016"><a xlink:title=" ">
<polygon fill="#e0e0e0" stroke="#999999" points="798,-82 748,-82 748,-59 798,-59 798,-82"/>
<text text-anchor="middle" x="773" y="-66.8" font-family="Arial" font-size="14.00">string</text>
</a>
</g>
</g>
<!-- Node11&#45;&gt;Node16 -->
<g id="edge16_Node000011_Node000016" class="edge">
<title>Node11&#45;&gt;Node16</title>
<g id="a_edge16_Node000011_Node000016"><a xlink:title=" ">
<path fill="none" stroke="#63b8ff" d="M868.43,-125.49C849.96,-115.05 821.42,-98.9 800.36,-86.98"/>
<polygon fill="#63b8ff" stroke="#63b8ff" points="801.99,-83.88 791.56,-82 798.54,-89.97 801.99,-83.88"/>
</a>
</g>
</g>
<!-- Node17 -->
<g id="Node000017" class="node">
<title>Node17</title>
<g id="a_Node000017"><a xlink:title=" ">
<polygon fill="#e0e0e0" stroke="#999999" points="638,-82 554,-82 554,-59 638,-59 638,-82"/>
<text text-anchor="middle" x="596" y="-66.8" font-family="Arial" font-size="14.00">string_view</text>
</a>
</g>
</g>
<!-- Node11&#45;&gt;Node17 -->
<g id="edge17_Node000011_Node000017" class="edge">
<title>Node11&#45;&gt;Node17</title>
<g id="a_edge17_Node000011_Node000017"><a xlink:title=" ">
<path fill="none" stroke="#63b8ff" d="M859.45,-125.42C851.92,-122.76 843.71,-120.08 836,-118 756.51,-96.53 732.64,-98.44 648.07,-82.17"/>
<polygon fill="#63b8ff" stroke="#63b8ff" points="648.5,-78.68 638.01,-80.2 647.16,-85.55 648.5,-78.68"/>
</a>
</g>
</g>
<!-- Node12&#45;&gt;Node13 -->
<g id="edge12_Node000012_Node000013" class="edge">
<title>Node12&#45;&gt;Node13</title>
<g id="a_edge12_Node000012_Node000013"><a xlink:title=" ">
<path fill="none" stroke="#63b8ff" d="M944.53,-58.91C970.48,-49.61 1008.37,-36.03 1036.47,-25.96"/>
<polygon fill="#63b8ff" stroke="#63b8ff" points="1037.73,-29.22 1045.96,-22.55 1035.36,-22.63 1037.73,-29.22"/>
</a>
</g>
</g>
<!-- Node14 -->
<g id="Node000014" class="node">
<title>Node14</title>
<g id="a_Node000014"><a xlink:title=" ">
<polygon fill="#e0e0e0" stroke="#999999" points="939,-23 891,-23 891,0 939,0 939,-23"/>
<text text-anchor="middle" x="915" y="-7.8" font-family="Arial" font-size="14.00">limits</text>
</a>
</g>
</g>
<!-- Node12&#45;&gt;Node14 -->
<g id="edge13_Node000012_Node000014" class="edge">
<title>Node12&#45;&gt;Node14</title>
<g id="a_edge13_Node000012_Node000014"><a xlink:title=" ">
<path fill="none" stroke="#63b8ff" d="M915,-58.78C915,-51.61 915,-41.95 915,-33.31"/>
<polygon fill="#63b8ff" stroke="#63b8ff" points="918.5,-33.17 915,-23.17 911.5,-33.17 918.5,-33.17"/>
</a>
</g>
</g>
<!-- Node18&#45;&gt;Node12 -->
<g id="edge20_Node000018_Node000012" class="edge">
<title>Node18&#45;&gt;Node12</title>
<g id="a_edge20_Node000018_Node000012"><a xlink:title=" ">
<path fill="none" stroke="#63b8ff" d="M999.82,-117.86C981.99,-108.12 960.24,-96.23 943.23,-86.93"/>
<polygon fill="#63b8ff" stroke="#63b8ff" points="944.77,-83.79 934.32,-82.06 941.42,-89.93 944.77,-83.79"/>
</a>
</g>
</g>
<!-- Node18&#45;&gt;Node13 -->
<g id="edge22_Node000018_Node000013" class="edge">
<title>Node18&#45;&gt;Node13</title>
<g id="a_edge22_Node000018_Node000013"><a xlink:title=" ">
<path fill="none" stroke="#63b8ff" d="M1100.46,-117.95C1117.95,-109.88 1134.72,-98.36 1145,-82 1158.58,-60.37 1132.7,-40.51 1108.46,-27.61"/>
<polygon fill="#63b8ff" stroke="#63b8ff" points="1109.84,-24.38 1099.33,-23.01 1106.69,-30.64 1109.84,-24.38"/>
</a>
</g>
</g>
<!-- Node19 -->
<g id="Node000019" class="node">
<title>Node19</title>
<g id="a_Node000019"><a xlink:href="McuSelect_8h.html" target="_top" xlink:title="Centralized MCU platform selection and configuration header.">
<polygon fill="white" stroke="#666666" points="1136,-82 994,-82 994,-59 1136,-59 1136,-82"/>
<text text-anchor="middle" x="1065" y="-66.8" font-family="Arial" font-size="14.00">../../utils/McuSelect.h</text>
</a>
</g>
</g>
<!-- Node18&#45;&gt;Node19 -->
<g id="edge19_Node000018_Node000019" class="edge">
<title>Node18&#45;&gt;Node19</title>
<g id="a_edge19_Node000018_Node000019"><a xlink:title=" ">
<path fill="none" stroke="#63b8ff" d="M1042.08,-117.69C1046.17,-109.44 1051.01,-99.69 1055.19,-91.28"/>
<polygon fill="#63b8ff" stroke="#63b8ff" points="1058.39,-92.71 1059.7,-82.19 1052.12,-89.59 1058.39,-92.71"/>
</a>
</g>
</g>
<!-- Node18&#45;&gt;Node20 -->
<g id="edge21_Node000018_Node000020" class="edge">
<title>Node18&#45;&gt;Node20</title>
<g id="a_edge21_Node000018_Node000020"><a xlink:title=" ">
<path fill="none" stroke="#63b8ff" d="M1085.62,-117.95C1116.38,-107.39 1154.54,-94.3 1182.49,-84.71"/>
<polygon fill="#63b8ff" stroke="#63b8ff" points="1183.97,-87.9 1192.3,-81.35 1181.7,-81.28 1183.97,-87.9"/>
</a>
</g>
</g>
<!-- Node21&#45;&gt;Node13 -->
<g id="edge25_Node000021_Node000013" class="edge">
<title>Node21&#45;&gt;Node13</title>
<g id="a_edge25_Node000021_Node000013"><a xlink:title=" ">
<path fill="none" stroke="#63b8ff" d="M1254.01,-125.28C1262.18,-109.12 1274.11,-78.38 1259,-59 1241.17,-36.13 1161.14,-22.79 1112.37,-16.64"/>
<polygon fill="#63b8ff" stroke="#63b8ff" points="1112.52,-13.13 1102.17,-15.4 1111.68,-20.08 1112.52,-13.13"/>
</a>
</g>
</g>
<!-- Node21&#45;&gt;Node20 -->
<g id="edge24_Node000021_Node000020" class="edge">
<title>Node21&#45;&gt;Node20</title>
<g id="a_edge24_Node000021_Node000020"><a xlink:title=" ">
<path fill="none" stroke="#63b8ff" d="M1243.54,-125.35C1239.73,-116.25 1234.15,-102.92 1229.49,-91.79"/>
<polygon fill="#63b8ff" stroke="#63b8ff" points="1232.65,-90.26 1225.56,-82.38 1226.19,-92.96 1232.65,-90.26"/>
</a>
</g>
</g>
</g>
</svg>

<g id="navigator" transform="translate(0 0)" fill="#404254">
  <rect fill="#f2f5e9" fill-opacity="0.5" stroke="#606060" stroke-width=".5" x="0" y="0" width="60" height="60"/>
  <use id="zoomplus" xlink:href="#zoomPlus" x="17" y="9" onmousedown="handleZoom(evt,'in')"/>
  <use id="zoomminus" xlink:href="#zoomMin" x="42" y="9" onmousedown="handleZoom(evt,'out')"/>
  <use id="reset" xlink:href="#resetDef" x="30" y="36" onmousedown="handleReset()"/>
   <use id="arrowup" xlink:href="#arrowUp" x="0" y="0" onmousedown="handlePan(0,-1)"/>
  <use id="arrowright" xlink:href="#arrowRight" x="0" y="0" onmousedown="handlePan(1,0)"/>
  <use id="arrowdown" xlink:href="#arrowDown" x="0" y="0" onmousedown="handlePan(0,1)"/>
  <use id="arrowleft" xlink:href="#arrowLeft" x="0" y="0" onmousedown="handlePan(-1,0)"/>
</g>
<svg viewBox="0 0 15 15" width="100%" height="30px" preserveAspectRatio="xMaxYMin meet">
 <g id="arrow_out" transform="scale(0.3 0.3)">
  <a xlink:href="EspWifi_8cpp__incl_org.svg" target="_base">
   <rect id="button" ry="5" rx="5" y="6" x="6" height="38" width="38"
        fill="#f2f5e9" fill-opacity="0.5" stroke="#606060" stroke-width="1.0"/>
   <path id="arrow"
     d="M 11.500037,31.436501 C 11.940474,20.09759 22.043105,11.32322 32.158766,21.979434 L 37.068811,17.246167 C 37.068811,17.246167 37.088388,32 37.088388,32 L 22.160133,31.978069 C 22.160133,31.978069 26.997745,27.140456 26.997745,27.140456 C 18.528582,18.264221 13.291696,25.230495 11.500037,31.436501 z"
     style="fill:#404040;"/>
  </a>
 </g>
</svg>

<style type='text/css'>
<![CDATA[
[data-mouse-over-selected='false'] { opacity: 0.7; }
[data-mouse-over-selected='true']  { opacity: 1.0; }
]]>
</style>
<script type="application/ecmascript"><![CDATA[
document.addEventListener('DOMContentLoaded', (event) => {
  highlightEdges();
  highlightAdjacentNodes();
});
]]></script>
</svg>
