<?xml version="1.0" encoding="UTF-8" standalone="no"?>
<!DOCTYPE svg PUBLIC "-//W3C//DTD SVG 1.1//EN"
 "http://www.w3.org/Graphics/SVG/1.1/DTD/svg11.dtd">
<!-- Generated by graphviz version 2.43.0 (0)
 -->
<!-- Title: Graphical Class Hierarchy Pages: 1 -->
<svg width="180pt" height="72pt"
 viewBox="0.00 0.00 180.00 72.00" xmlns="http://www.w3.org/2000/svg" xmlns:xlink="http://www.w3.org/1999/xlink">
<g id="graph0" class="graph" transform="scale(1 1) rotate(0) translate(4 68)">
<title>Graphical Class Hierarchy</title>
<!-- Node0 -->
<g id="Node000000" class="node">
<title>Node0</title>
<g id="a_Node000000"><a xlink:href="classBaseNvs.html" target="_top" xlink:title="Abstract base class for non&#45;volatile storage operations.">
<polygon fill="white" stroke="#666666" points="71,-43 0,-43 0,-20 71,-20 71,-43"/>
<text text-anchor="middle" x="35.5" y="-27.8" font-family="Arial" font-size="14.00">BaseNvs</text>
</a>
</g>
</g>
<!-- Node1 -->
<g id="Node000001" class="node">
<title>Node1</title>
<g id="a_Node000001"><a xlink:href="classEspNvs.html" target="_top" xlink:title="Production&#45;ready MCU&#45;integrated non&#45;volatile storage implementation.">
<polygon fill="white" stroke="#666666" points="171,-64 108,-64 108,-41 171,-41 171,-64"/>
<text text-anchor="middle" x="139.5" y="-48.8" font-family="Arial" font-size="14.00">EspNvs</text>
</a>
</g>
</g>
<!-- Node0&#45;&gt;Node1 -->
<g id="edge10_Node000000_Node000001" class="edge">
<title>Node0&#45;&gt;Node1</title>
<g id="a_edge10_Node000000_Node000001"><a xlink:title=" ">
<path fill="none" stroke="#63b8ff" d="M81.04,-40.67C90.06,-42.53 99.35,-44.44 107.77,-46.17"/>
<polygon fill="#63b8ff" stroke="#63b8ff" points="81.53,-37.2 71.03,-38.61 80.12,-44.05 81.53,-37.2"/>
</a>
</g>
</g>
<!-- Node2 -->
<g id="Node000002" class="node">
<title>Node2</title>
<g id="a_Node000002"><a xlink:href="classStmNvs.html" target="_top" xlink:title="STM32 NVS — flash&#45;backed key&#45;value store with wear leveling.">
<polygon fill="white" stroke="#666666" points="172,-23 107,-23 107,0 172,0 172,-23"/>
<text text-anchor="middle" x="139.5" y="-7.8" font-family="Arial" font-size="14.00">StmNvs</text>
</a>
</g>
</g>
<!-- Node0&#45;&gt;Node2 -->
<g id="edge11_Node000000_Node000002" class="edge">
<title>Node0&#45;&gt;Node2</title>
<g id="a_edge11_Node000000_Node000002"><a xlink:title=" ">
<path fill="none" stroke="#63b8ff" d="M81.02,-22.77C89.69,-21.07 98.6,-19.32 106.75,-17.73"/>
<polygon fill="#63b8ff" stroke="#63b8ff" points="80.17,-19.37 71.03,-24.73 81.52,-26.24 80.17,-19.37"/>
</a>
</g>
</g>
</g>
</svg>
