<?xml version="1.0" encoding="UTF-8" standalone="no"?>
<!DOCTYPE svg PUBLIC "-//W3C//DTD SVG 1.1//EN"
 "http://www.w3.org/Graphics/SVG/1.1/DTD/svg11.dtd">
<!-- Generated by graphviz version 2.43.0 (0)
 -->
<!-- Title: Graphical Class Hierarchy Pages: 1 -->
<svg width="286pt" height="72pt"
 viewBox="0.00 0.00 286.00 72.00" xmlns="http://www.w3.org/2000/svg" xmlns:xlink="http://www.w3.org/1999/xlink">
<g id="graph0" class="graph" transform="scale(1 1) rotate(0) translate(4 68)">
<title>Graphical Class Hierarchy</title>
<!-- Node0 -->
<g id="Node000000" class="node">
<title>Node0</title>
<g id="a_Node000000"><a xlink:href="classBaseTemperature.html" target="_top" xlink:title="Abstract base class for all temperature sensor implementations.">
<polygon fill="white" stroke="#666666" points="124,-43 0,-43 0,-20 124,-20 124,-43"/>
<text text-anchor="middle" x="62" y="-27.8" font-family="Arial" font-size="14.00">BaseTemperature</text>
</a>
</g>
</g>
<!-- Node1 -->
<g id="Node000001" class="node">
<title>Node1</title>
<g id="a_Node000001"><a xlink:href="classEspTemperature.html" target="_top" xlink:title="ESP32&#45;C6 internal temperature sensor implementation.">
<polygon fill="white" stroke="#666666" points="277,-64 161,-64 161,-41 277,-41 277,-64"/>
<text text-anchor="middle" x="219" y="-48.8" font-family="Arial" font-size="14.00">EspTemperature</text>
</a>
</g>
</g>
<!-- Node0&#45;&gt;Node1 -->
<g id="edge19_Node000000_Node000001" class="edge">
<title>Node0&#45;&gt;Node1</title>
<g id="a_edge19_Node000000_Node000001"><a xlink:title=" ">
<path fill="none" stroke="#63b8ff" d="M134.28,-41.16C143.23,-42.37 152.28,-43.6 160.97,-44.77"/>
<polygon fill="#63b8ff" stroke="#63b8ff" points="134.64,-37.67 124.26,-39.8 133.7,-44.61 134.64,-37.67"/>
</a>
</g>
</g>
<!-- Node2 -->
<g id="Node000002" class="node">
<title>Node2</title>
<g id="a_Node000002"><a xlink:href="classStmTemperature.html" target="_top" xlink:title="STM32 Temperature sensor implementation.">
<polygon fill="white" stroke="#666666" points="278,-23 160,-23 160,0 278,0 278,-23"/>
<text text-anchor="middle" x="219" y="-7.8" font-family="Arial" font-size="14.00">StmTemperature</text>
</a>
</g>
</g>
<!-- Node0&#45;&gt;Node2 -->
<g id="edge20_Node000000_Node000002" class="edge">
<title>Node0&#45;&gt;Node2</title>
<g id="a_edge20_Node000000_Node000002"><a xlink:title=" ">
<path fill="none" stroke="#63b8ff" d="M134.28,-22.3C142.88,-21.19 151.59,-20.07 159.96,-18.99"/>
<polygon fill="#63b8ff" stroke="#63b8ff" points="133.73,-18.84 124.26,-23.6 134.63,-25.79 133.73,-18.84"/>
</a>
</g>
</g>
</g>
</svg>
