<?xml version="1.0" encoding="UTF-8" standalone="no"?>
<!DOCTYPE svg PUBLIC "-//W3C//DTD SVG 1.1//EN"
 "http://www.w3.org/Graphics/SVG/1.1/DTD/svg11.dtd">
<!-- Generated by graphviz version 2.43.0 (0)
 -->
<!-- Title: Graphical Class Hierarchy Pages: 1 -->
<svg width="192pt" height="72pt"
 viewBox="0.00 0.00 192.00 72.00" xmlns="http://www.w3.org/2000/svg" xmlns:xlink="http://www.w3.org/1999/xlink">
<g id="graph0" class="graph" transform="scale(1 1) rotate(0) translate(4 68)">
<title>Graphical Class Hierarchy</title>
<!-- Node0 -->
<g id="Node000000" class="node">
<title>Node0</title>
<g id="a_Node000000"><a xlink:href="classBaseGpio.html" target="_top" xlink:title="Unified GPIO base class for all digital GPIO implementations.">
<polygon fill="white" stroke="#666666" points="77,-43 0,-43 0,-20 77,-20 77,-43"/>
<text text-anchor="middle" x="38.5" y="-27.8" font-family="Arial" font-size="14.00">BaseGpio</text>
</a>
</g>
</g>
<!-- Node1 -->
<g id="Node000001" class="node">
<title>Node1</title>
<g id="a_Node000001"><a xlink:href="classEspGpio.html" target="_top" xlink:title="Advanced MCU&#45;specific implementation of unified BaseGpio with ESP32/ESP&#45;IDF v5.5+ features.">
<polygon fill="white" stroke="#666666" points="183,-64 114,-64 114,-41 183,-41 183,-64"/>
<text text-anchor="middle" x="148.5" y="-48.8" font-family="Arial" font-size="14.00">EspGpio</text>
</a>
</g>
</g>
<!-- Node0&#45;&gt;Node1 -->
<g id="edge5_Node000000_Node000001" class="edge">
<title>Node0&#45;&gt;Node1</title>
<g id="a_edge5_Node000000_Node000001"><a xlink:title=" ">
<path fill="none" stroke="#63b8ff" d="M87.26,-40.79C96.24,-42.53 105.46,-44.32 113.89,-45.97"/>
<polygon fill="#63b8ff" stroke="#63b8ff" points="87.76,-37.32 77.27,-38.84 86.42,-44.19 87.76,-37.32"/>
</a>
</g>
</g>
<!-- Node2 -->
<g id="Node000002" class="node">
<title>Node2</title>
<g id="a_Node000002"><a xlink:href="classStmGpio.html" target="_top" xlink:title="STM32 GPIO implementation with full HAL integration.">
<polygon fill="white" stroke="#666666" points="184,-23 113,-23 113,0 184,0 184,-23"/>
<text text-anchor="middle" x="148.5" y="-7.8" font-family="Arial" font-size="14.00">StmGpio</text>
</a>
</g>
</g>
<!-- Node0&#45;&gt;Node2 -->
<g id="edge6_Node000000_Node000002" class="edge">
<title>Node0&#45;&gt;Node2</title>
<g id="a_edge6_Node000000_Node000002"><a xlink:title=" ">
<path fill="none" stroke="#63b8ff" d="M87.23,-22.66C95.84,-21.07 104.67,-19.43 112.82,-17.92"/>
<polygon fill="#63b8ff" stroke="#63b8ff" points="86.47,-19.24 77.27,-24.5 87.74,-26.13 86.47,-19.24"/>
</a>
</g>
</g>
</g>
</svg>
