<?xml version="1.0" encoding="UTF-8" standalone="no"?>
<!DOCTYPE svg PUBLIC "-//W3C//DTD SVG 1.1//EN"
 "http://www.w3.org/Graphics/SVG/1.1/DTD/svg11.dtd">
<!-- Generated by graphviz version 2.43.0 (0)
 -->
<!-- Title: Graphical Class Hierarchy Pages: 1 -->
<svg width="213pt" height="72pt"
 viewBox="0.00 0.00 213.00 72.00" xmlns="http://www.w3.org/2000/svg" xmlns:xlink="http://www.w3.org/1999/xlink">
<g id="graph0" class="graph" transform="scale(1 1) rotate(0) translate(4 68)">
<title>Graphical Class Hierarchy</title>
<!-- Node0 -->
<g id="Node000000" class="node">
<title>Node0</title>
<g id="a_Node000000"><a xlink:href="classBaseSpi.html" target="_top" xlink:title="Abstract base class for SPI device implementations.">
<polygon fill="white" stroke="#666666" points="67,-43 0,-43 0,-20 67,-20 67,-43"/>
<text text-anchor="middle" x="33.5" y="-27.8" font-family="Arial" font-size="14.00">BaseSpi</text>
</a>
</g>
</g>
<!-- Node1 -->
<g id="Node000001" class="node">
<title>Node1</title>
<g id="a_Node000001"><a xlink:href="classEspSpiDevice.html" target="_top" xlink:title="Represents a single SPI device on a bus (CS/config/handle).">
<polygon fill="white" stroke="#666666" points="204.5,-64 103.5,-64 103.5,-41 204.5,-41 204.5,-64"/>
<text text-anchor="middle" x="154" y="-48.8" font-family="Arial" font-size="14.00">EspSpiDevice</text>
</a>
</g>
</g>
<!-- Node0&#45;&gt;Node1 -->
<g id="edge15_Node000000_Node000001" class="edge">
<title>Node0&#45;&gt;Node1</title>
<g id="a_edge15_Node000000_Node000001"><a xlink:title=" ">
<path fill="none" stroke="#63b8ff" d="M77.16,-39.06C85.57,-40.55 94.46,-42.13 103.09,-43.65"/>
<polygon fill="#63b8ff" stroke="#63b8ff" points="77.65,-35.59 67.19,-37.29 76.43,-42.49 77.65,-35.59"/>
</a>
</g>
</g>
<!-- Node2 -->
<g id="Node000002" class="node">
<title>Node2</title>
<g id="a_Node000002"><a xlink:href="classStmSpiDevice.html" target="_top" xlink:title="STM32 SPI device — stub implementation.">
<polygon fill="white" stroke="#666666" points="205,-23 103,-23 103,0 205,0 205,-23"/>
<text text-anchor="middle" x="154" y="-7.8" font-family="Arial" font-size="14.00">StmSpiDevice</text>
</a>
</g>
</g>
<!-- Node0&#45;&gt;Node2 -->
<g id="edge16_Node000000_Node000002" class="edge">
<title>Node0&#45;&gt;Node2</title>
<g id="a_edge16_Node000000_Node000002"><a xlink:title=" ">
<path fill="none" stroke="#63b8ff" d="M77.31,-24.28C85.53,-22.89 94.21,-21.42 102.64,-20"/>
<polygon fill="#63b8ff" stroke="#63b8ff" points="76.47,-20.87 67.19,-25.98 77.64,-27.77 76.47,-20.87"/>
</a>
</g>
</g>
</g>
</svg>
