<?xml version="1.0" encoding="UTF-8" standalone="no"?>
<!DOCTYPE svg PUBLIC "-//W3C//DTD SVG 1.1//EN"
 "http://www.w3.org/Graphics/SVG/1.1/DTD/svg11.dtd">
<!-- Generated by graphviz version 2.43.0 (0)
 -->
<!-- Title: examples/esp32/main/LoggerComprehensiveTest.cpp Pages: 1 -->
<!--zoomable 400 -->

<svg id="main" version="1.1" xmlns="http://www.w3.org/2000/svg" xmlns:xlink="http://www.w3.org/1999/xlink" xml:space="preserve" onload="init(evt)">
<style type="text/css"><![CDATA[
.node, .edge {opacity: 0.7;}
.node.selected, .edge.selected {opacity: 1;}
.edge:hover path { stroke: red; }
.edge:hover polygon { stroke: red; fill: red; }
]]></style>

<defs>
  <circle id="rim" cx="0" cy="0" r="7"/>
  <circle id="rim2" cx="0" cy="0" r="3.5"/>
  <g id="zoomPlus">
    <use xlink:href="#rim" fill="#404040"><set attributeName="fill" to="#808080" begin="zoomplus.mouseover" end="zoomplus.mouseout"/></use>
    <path d="M-4,0h8M0,-4v8" fill="none" stroke="white" stroke-width="1.5" pointer-events="none"/>
  </g>
  <g id="zoomMin">
    <use xlink:href="#rim" fill="#404040"><set attributeName="fill" to="#808080" begin="zoomminus.mouseover" end="zoomminus.mouseout"/></use>
    <path d="M-4,0h8" fill="none" stroke="white" stroke-width="1.5" pointer-events="none"/>
  </g>
  <g id="arrowUp" transform="translate(30 24)">
    <use xlink:href="#rim"/>
    <path pointer-events="none" fill="none" stroke="white" stroke-width="1.5" d="M0,-3.0v7 M-2.5,-0.5L0,-3.0L2.5,-0.5"/>
  </g>
  <g id="arrowRight" transform="rotate(90) translate(36 -43)">
    <use xlink:href="#rim"/>
    <path pointer-events="none" fill="none" stroke="white" stroke-width="1.5" d="M0,-3.0v7 M-2.5,-0.5L0,-3.0L2.5,-0.5"/>
  </g>
  <g id="arrowDown" transform="rotate(180) translate(-30 -48)">
    <use xlink:href="#rim"/>
    <path pointer-events="none" fill="none" stroke="white" stroke-width="1.5" d="M0,-3.0v7 M-2.5,-0.5L0,-3.0L2.5,-0.5"/>
  </g>
  <g id="arrowLeft" transform="rotate(270) translate(-36 17)">
    <use xlink:href="#rim"/>
    <path pointer-events="none" fill="none" stroke="white" stroke-width="1.5" d="M0,-3.0v7 M-2.5,-0.5L0,-3.0L2.5,-0.5"/>
  </g>
  <g id="resetDef">
    <use xlink:href="#rim2" fill="#404040"><set attributeName="fill" to="#808080" begin="reset.mouseover" end="reset.mouseout"/></use>
  </g>
</defs>
<script type="application/ecmascript">
var viewWidth = 1487;
var viewHeight = 400;
var sectionId = 'dynsection-0';
</script>
<script type="application/ecmascript" xlink:href="svg.min.js"/>
<svg id="graph" class="graph">
<g id="viewport">
<title>examples/esp32/main/LoggerComprehensiveTest.cpp</title>
<!-- Node1 -->
<g id="Node000001" class="node">
<title>Node1</title>
<g id="a_Node000001"><a xlink:title="Comprehensive Logger testing suite for ESP32&#45;C6 DevKit&#45;M&#45;1 (noexcept)">
<polygon fill="#999999" stroke="#666666" points="1316.07,-392 1108.07,-392 1108.07,-354 1316.07,-354 1316.07,-392"/>
<text text-anchor="start" x="1116.07" y="-376.8" font-family="Arial" font-size="14.00">examples/esp32/main</text>
<text text-anchor="middle" x="1212.07" y="-361.8" font-family="Arial" font-size="14.00">/LoggerComprehensiveTest.cpp</text>
</a>
</g>
</g>
<!-- Node2 -->
<g id="Node000002" class="node">
<title>Node2</title>
<g id="a_Node000002"><a xlink:href="TestFramework_8h.html" target="_top" xlink:title="Shared testing framework for ESP32&#45;C6 comprehensive test suites.">
<polygon fill="white" stroke="#666666" points="497.57,-318 376.57,-318 376.57,-295 497.57,-295 497.57,-318"/>
<text text-anchor="middle" x="437.07" y="-302.8" font-family="Arial" font-size="14.00">TestFramework.h</text>
</a>
</g>
</g>
<!-- Node1&#45;&gt;Node2 -->
<g id="edge1_Node000001_Node000002" class="edge">
<title>Node1&#45;&gt;Node2</title>
<g id="a_edge1_Node000001_Node000002"><a xlink:title=" ">
<path fill="none" stroke="#63b8ff" d="M1107.95,-363.33C947.66,-349.99 644.65,-324.78 507.57,-313.37"/>
<polygon fill="#63b8ff" stroke="#63b8ff" points="507.85,-309.88 497.6,-312.54 507.27,-316.86 507.85,-309.88"/>
</a>
</g>
</g>
<!-- Node23 -->
<g id="Node000023" class="node">
<title>Node23</title>
<g id="a_Node000023"><a xlink:href="BaseLogger_8h.html" target="_top" xlink:title="Unified logging base class for all logging implementations.">
<polygon fill="white" stroke="#666666" points="1230.57,-141 1097.57,-141 1097.57,-118 1230.57,-118 1230.57,-141"/>
<text text-anchor="middle" x="1164.07" y="-125.8" font-family="Arial" font-size="14.00">base/BaseLogger.h</text>
</a>
</g>
</g>
<!-- Node1&#45;&gt;Node23 -->
<g id="edge29_Node000001_Node000023" class="edge">
<title>Node1&#45;&gt;Node23</title>
<g id="a_edge29_Node000001_Node000023"><a xlink:title=" ">
<path fill="none" stroke="#63b8ff" d="M1211.29,-353.9C1209.41,-319.03 1203.35,-240.38 1185.07,-177 1182.45,-167.92 1178.37,-158.34 1174.5,-150.25"/>
<polygon fill="#63b8ff" stroke="#63b8ff" points="1177.6,-148.62 1169.99,-141.25 1171.34,-151.76 1177.6,-148.62"/>
</a>
</g>
</g>
<!-- Node25 -->
<g id="Node000025" class="node">
<title>Node25</title>
<g id="a_Node000025"><a xlink:title=" ">
<polygon fill="#e0e0e0" stroke="#999999" points="1284.07,-82 1234.07,-82 1234.07,-59 1284.07,-59 1284.07,-82"/>
<text text-anchor="middle" x="1259.07" y="-66.8" font-family="Arial" font-size="14.00">string</text>
</a>
</g>
</g>
<!-- Node1&#45;&gt;Node25 -->
<g id="edge58_Node000001_Node000025" class="edge">
<title>Node1&#45;&gt;Node25</title>
<g id="a_edge58_Node000001_Node000025"><a xlink:title=" ">
<path fill="none" stroke="#63b8ff" d="M1223.68,-353.99C1237.6,-330.64 1259.07,-288.19 1259.07,-248.5 1259.07,-248.5 1259.07,-248.5 1259.07,-187.5 1259.07,-154.1 1259.07,-115.29 1259.07,-92.09"/>
<polygon fill="#63b8ff" stroke="#63b8ff" points="1262.57,-92.06 1259.07,-82.06 1255.57,-92.06 1262.57,-92.06"/>
</a>
</g>
</g>
<!-- Node26 -->
<g id="Node000026" class="node">
<title>Node26</title>
<g id="a_Node000026"><a xlink:href="EspLogger_8h.html" target="_top" xlink:title="ESP32&#45;specific logger implementation for the HardFOC system.">
<polygon fill="white" stroke="#666666" points="1082.57,-318 919.57,-318 919.57,-295 1082.57,-295 1082.57,-318"/>
<text text-anchor="middle" x="1001.07" y="-302.8" font-family="Arial" font-size="14.00">mcu/esp32/EspLogger.h</text>
</a>
</g>
</g>
<!-- Node1&#45;&gt;Node26 -->
<g id="edge36_Node000001_Node000026" class="edge">
<title>Node1&#45;&gt;Node26</title>
<g id="a_edge36_Node000001_Node000026"><a xlink:title=" ">
<path fill="none" stroke="#63b8ff" d="M1153.01,-353.95C1118.91,-343.52 1076.71,-330.62 1045.45,-321.07"/>
<polygon fill="#63b8ff" stroke="#63b8ff" points="1046.29,-317.67 1035.71,-318.09 1044.25,-324.36 1046.29,-317.67"/>
</a>
</g>
</g>
<!-- Node32 -->
<g id="Node000032" class="node">
<title>Node32</title>
<g id="a_Node000032"><a xlink:href="memory__utils_8h.html" target="_top" xlink:title="Memory management utilities for exception&#45;free design.">
<polygon fill="white" stroke="#666666" points="1444.57,-318 1307.57,-318 1307.57,-295 1444.57,-295 1444.57,-318"/>
<text text-anchor="middle" x="1376.07" y="-302.8" font-family="Arial" font-size="14.00">utils/memory_utils.h</text>
</a>
</g>
</g>
<!-- Node1&#45;&gt;Node32 -->
<g id="edge54_Node000001_Node000032" class="edge">
<title>Node1&#45;&gt;Node32</title>
<g id="a_edge54_Node000001_Node000032"><a xlink:title=" ">
<path fill="none" stroke="#63b8ff" d="M1258.19,-353.86C1284,-343.71 1315.72,-331.23 1339.75,-321.78"/>
<polygon fill="#63b8ff" stroke="#63b8ff" points="1341.19,-324.98 1349.21,-318.06 1338.63,-318.46 1341.19,-324.98"/>
</a>
</g>
</g>
<!-- Node3 -->
<g id="Node000003" class="node">
<title>Node3</title>
<g id="a_Node000003"><a xlink:title=" ">
<polygon fill="#e0e0e0" stroke="#999999" points="645.57,-259 570.57,-259 570.57,-236 645.57,-236 645.57,-259"/>
<text text-anchor="middle" x="608.07" y="-243.8" font-family="Arial" font-size="14.00">esp_log.h</text>
</a>
</g>
</g>
<!-- Node2&#45;&gt;Node3 -->
<g id="edge2_Node000002_Node000003" class="edge">
<title>Node2&#45;&gt;Node3</title>
<g id="a_edge2_Node000002_Node000003"><a xlink:title=" ">
<path fill="none" stroke="#63b8ff" d="M468.83,-294.91C496.42,-285.71 536.58,-272.33 566.68,-262.29"/>
<polygon fill="#63b8ff" stroke="#63b8ff" points="568.09,-265.51 576.47,-259.03 565.88,-258.87 568.09,-265.51"/>
</a>
</g>
</g>
<!-- Node4 -->
<g id="Node000004" class="node">
<title>Node4</title>
<g id="a_Node000004"><a xlink:title=" ">
<polygon fill="#e0e0e0" stroke="#999999" points="552.57,-259 465.57,-259 465.57,-236 552.57,-236 552.57,-259"/>
<text text-anchor="middle" x="509.07" y="-243.8" font-family="Arial" font-size="14.00">esp_timer.h</text>
</a>
</g>
</g>
<!-- Node2&#45;&gt;Node4 -->
<g id="edge3_Node000002_Node000004" class="edge">
<title>Node2&#45;&gt;Node4</title>
<g id="a_edge3_Node000002_Node000004"><a xlink:title=" ">
<path fill="none" stroke="#63b8ff" d="M450.61,-294.78C460.97,-286.58 475.46,-275.11 487.42,-265.64"/>
<polygon fill="#63b8ff" stroke="#63b8ff" points="489.92,-268.12 495.58,-259.17 485.57,-262.64 489.92,-268.12"/>
</a>
</g>
</g>
<!-- Node5 -->
<g id="Node000005" class="node">
<title>Node5</title>
<g id="a_Node000005"><a xlink:title=" ">
<polygon fill="#e0e0e0" stroke="#999999" points="663.57,-200 520.57,-200 520.57,-177 663.57,-177 663.57,-200"/>
<text text-anchor="middle" x="592.07" y="-184.8" font-family="Arial" font-size="14.00">freertos/FreeRTOS.h</text>
</a>
</g>
</g>
<!-- Node2&#45;&gt;Node5 -->
<g id="edge4_Node000002_Node000005" class="edge">
<title>Node2&#45;&gt;Node5</title>
<g id="a_edge4_Node000002_Node000005"><a xlink:title=" ">
<path fill="none" stroke="#63b8ff" d="M376.33,-298.52C321.42,-289.8 253.53,-271.5 284.07,-236 287.78,-231.68 420.32,-212.86 510.3,-200.53"/>
<polygon fill="#63b8ff" stroke="#63b8ff" points="510.8,-204 520.23,-199.17 509.85,-197.06 510.8,-204"/>
</a>
</g>
</g>
<!-- Node6 -->
<g id="Node000006" class="node">
<title>Node6</title>
<g id="a_Node000006"><a xlink:title=" ">
<polygon fill="#e0e0e0" stroke="#999999" points="408.57,-259 293.57,-259 293.57,-236 408.57,-236 408.57,-259"/>
<text text-anchor="middle" x="351.07" y="-243.8" font-family="Arial" font-size="14.00">freertos/queue.h</text>
</a>
</g>
</g>
<!-- Node2&#45;&gt;Node6 -->
<g id="edge5_Node000002_Node000006" class="edge">
<title>Node2&#45;&gt;Node6</title>
<g id="a_edge5_Node000002_Node000006"><a xlink:title=" ">
<path fill="none" stroke="#63b8ff" d="M420.89,-294.78C408.16,-286.34 390.2,-274.44 375.69,-264.82"/>
<polygon fill="#63b8ff" stroke="#63b8ff" points="377.44,-261.78 367.17,-259.17 373.57,-267.62 377.44,-261.78"/>
</a>
</g>
</g>
<!-- Node7 -->
<g id="Node000007" class="node">
<title>Node7</title>
<g id="a_Node000007"><a xlink:title=" ">
<polygon fill="#e0e0e0" stroke="#999999" points="804.07,-200 682.07,-200 682.07,-177 804.07,-177 804.07,-200"/>
<text text-anchor="middle" x="743.07" y="-184.8" font-family="Arial" font-size="14.00">freertos/semphr.h</text>
</a>
</g>
</g>
<!-- Node2&#45;&gt;Node7 -->
<g id="edge6_Node000002_Node000007" class="edge">
<title>Node2&#45;&gt;Node7</title>
<g id="a_edge6_Node000002_Node000007"><a xlink:title=" ">
<path fill="none" stroke="#63b8ff" d="M436.67,-295C436.7,-279.61 439.23,-251.14 456.07,-236 460.1,-232.37 588.28,-212.63 671.96,-200.06"/>
<polygon fill="#63b8ff" stroke="#63b8ff" points="672.56,-203.51 681.93,-198.57 671.52,-196.59 672.56,-203.51"/>
</a>
</g>
</g>
<!-- Node8 -->
<g id="Node000008" class="node">
<title>Node8</title>
<g id="a_Node000008"><a xlink:title=" ">
<polygon fill="#e0e0e0" stroke="#999999" points="1000.07,-200 898.07,-200 898.07,-177 1000.07,-177 1000.07,-200"/>
<text text-anchor="middle" x="949.07" y="-184.8" font-family="Arial" font-size="14.00">freertos/task.h</text>
</a>
</g>
</g>
<!-- Node2&#45;&gt;Node8 -->
<g id="edge7_Node000002_Node000008" class="edge">
<title>Node2&#45;&gt;Node8</title>
<g id="a_edge7_Node000002_Node000008"><a xlink:title=" ">
<path fill="none" stroke="#63b8ff" d="M497.66,-306.11C576.69,-305.18 718.27,-297.55 832.07,-259 832.69,-258.79 888.49,-225.58 922.79,-205.15"/>
<polygon fill="#63b8ff" stroke="#63b8ff" points="924.62,-208.14 931.42,-200.01 921.04,-202.12 924.62,-208.14"/>
</a>
</g>
</g>
<!-- Node9 -->
<g id="Node000009" class="node">
<title>Node9</title>
<g id="a_Node000009"><a xlink:href="HardwareTypes_8h.html" target="_top" xlink:title="Platform&#45;agnostic hardware type definitions for the HardFOC system.">
<polygon fill="white" stroke="#666666" points="662.07,-82 540.07,-82 540.07,-59 662.07,-59 662.07,-82"/>
<text text-anchor="middle" x="601.07" y="-66.8" font-family="Arial" font-size="14.00">HardwareTypes.h</text>
</a>
</g>
</g>
<!-- Node2&#45;&gt;Node9 -->
<g id="edge8_Node000002_Node000009" class="edge">
<title>Node2&#45;&gt;Node9</title>
<g id="a_edge8_Node000002_Node000009"><a xlink:title=" ">
<path fill="none" stroke="#63b8ff" d="M376.42,-301.99C287.93,-296.14 128.31,-282.65 76.07,-259 33.19,-239.59 -21.15,-213.08 9.07,-177 42.32,-137.3 379.74,-95.75 529.78,-79.08"/>
<polygon fill="#63b8ff" stroke="#63b8ff" points="530.27,-82.55 539.82,-77.97 529.5,-75.59 530.27,-82.55"/>
</a>
</g>
</g>
<!-- Node12 -->
<g id="Node000012" class="node">
<title>Node12</title>
<g id="a_Node000012"><a xlink:href="EspGpio_8h.html" target="_top" xlink:title="Advanced MCU&#45;specific implementation of the unified BaseGpio class with ESP32C6/ESP&#45;IDF v5....">
<polygon fill="white" stroke="#666666" points="236.57,-259 85.57,-259 85.57,-236 236.57,-236 236.57,-259"/>
<text text-anchor="middle" x="161.07" y="-243.8" font-family="Arial" font-size="14.00">mcu/esp32/EspGpio.h</text>
</a>
</g>
</g>
<!-- Node2&#45;&gt;Node12 -->
<g id="edge11_Node000002_Node000012" class="edge">
<title>Node2&#45;&gt;Node12</title>
<g id="a_edge11_Node000002_Node000012"><a xlink:title=" ">
<path fill="none" stroke="#63b8ff" d="M386.12,-294.98C339.78,-285.41 271.31,-271.27 222.07,-261.1"/>
<polygon fill="#63b8ff" stroke="#63b8ff" points="222.68,-257.65 212.18,-259.06 221.27,-264.51 222.68,-257.65"/>
</a>
</g>
</g>
<!-- Node10 -->
<g id="Node000010" class="node">
<title>Node10</title>
<g id="a_Node000010"><a xlink:title=" ">
<polygon fill="#e0e0e0" stroke="#999999" points="756.07,-23 700.07,-23 700.07,0 756.07,0 756.07,-23"/>
<text text-anchor="middle" x="728.07" y="-7.8" font-family="Arial" font-size="14.00">cstdint</text>
</a>
</g>
</g>
<!-- Node9&#45;&gt;Node10 -->
<g id="edge9_Node000009_Node000010" class="edge">
<title>Node9&#45;&gt;Node10</title>
<g id="a_edge9_Node000009_Node000010"><a xlink:title=" ">
<path fill="none" stroke="#63b8ff" d="M624.66,-58.91C644.53,-49.99 673.17,-37.14 695.27,-27.22"/>
<polygon fill="#63b8ff" stroke="#63b8ff" points="696.91,-30.32 704.6,-23.03 694.05,-23.93 696.91,-30.32"/>
</a>
</g>
</g>
<!-- Node11 -->
<g id="Node000011" class="node">
<title>Node11</title>
<g id="a_Node000011"><a xlink:title=" ">
<polygon fill="#e0e0e0" stroke="#999999" points="625.07,-23 577.07,-23 577.07,0 625.07,0 625.07,-23"/>
<text text-anchor="middle" x="601.07" y="-7.8" font-family="Arial" font-size="14.00">limits</text>
</a>
</g>
</g>
<!-- Node9&#45;&gt;Node11 -->
<g id="edge10_Node000009_Node000011" class="edge">
<title>Node9&#45;&gt;Node11</title>
<g id="a_edge10_Node000009_Node000011"><a xlink:title=" ">
<path fill="none" stroke="#63b8ff" d="M601.07,-58.78C601.07,-51.61 601.07,-41.95 601.07,-33.31"/>
<polygon fill="#63b8ff" stroke="#63b8ff" points="604.57,-33.17 601.07,-23.17 597.57,-33.17 604.57,-33.17"/>
</a>
</g>
</g>
<!-- Node13 -->
<g id="Node000013" class="node">
<title>Node13</title>
<g id="a_Node000013"><a xlink:title=" ">
<polygon fill="#e0e0e0" stroke="#999999" points="109.57,-200 18.57,-200 18.57,-177 109.57,-177 109.57,-200"/>
<text text-anchor="middle" x="64.07" y="-184.8" font-family="Arial" font-size="14.00">driver/gpio.h</text>
</a>
</g>
</g>
<!-- Node12&#45;&gt;Node13 -->
<g id="edge12_Node000012_Node000013" class="edge">
<title>Node12&#45;&gt;Node13</title>
<g id="a_edge12_Node000012_Node000013"><a xlink:title=" ">
<path fill="none" stroke="#63b8ff" d="M142.82,-235.78C128.19,-227.18 107.44,-214.99 90.91,-205.28"/>
<polygon fill="#63b8ff" stroke="#63b8ff" points="92.62,-202.22 82.23,-200.17 89.08,-208.26 92.62,-202.22"/>
</a>
</g>
</g>
<!-- Node14 -->
<g id="Node000014" class="node">
<title>Node14</title>
<g id="a_Node000014"><a xlink:title=" ">
<polygon fill="#e0e0e0" stroke="#999999" points="204.07,-200 128.07,-200 128.07,-177 204.07,-177 204.07,-200"/>
<text text-anchor="middle" x="166.07" y="-184.8" font-family="Arial" font-size="14.00">esp_attr.h</text>
</a>
</g>
</g>
<!-- Node12&#45;&gt;Node14 -->
<g id="edge13_Node000012_Node000014" class="edge">
<title>Node12&#45;&gt;Node14</title>
<g id="a_edge13_Node000012_Node000014"><a xlink:title=" ">
<path fill="none" stroke="#63b8ff" d="M162.01,-235.78C162.64,-228.61 163.48,-218.95 164.24,-210.31"/>
<polygon fill="#63b8ff" stroke="#63b8ff" points="167.74,-210.44 165.13,-200.17 160.77,-209.83 167.74,-210.44"/>
</a>
</g>
</g>
<!-- Node15 -->
<g id="Node000015" class="node">
<title>Node15</title>
<g id="a_Node000015"><a xlink:href="BaseGpio_8h.html" target="_top" xlink:title="Unified GPIO base class for all digital GPIO implementations.">
<polygon fill="white" stroke="#666666" points="771.07,-141 683.07,-141 683.07,-118 771.07,-118 771.07,-141"/>
<text text-anchor="middle" x="727.07" y="-125.8" font-family="Arial" font-size="14.00">BaseGpio.h</text>
</a>
</g>
</g>
<!-- Node12&#45;&gt;Node15 -->
<g id="edge14_Node000012_Node000015" class="edge">
<title>Node12&#45;&gt;Node15</title>
<g id="a_edge14_Node000012_Node000015"><a xlink:title=" ">
<path fill="none" stroke="#63b8ff" d="M236.62,-238.7C314.66,-230.03 430.82,-215.23 473.07,-200 491.64,-193.3 492.72,-184.29 511.07,-177 526.02,-171.06 614.17,-152.93 673.13,-141.14"/>
<polygon fill="#63b8ff" stroke="#63b8ff" points="673.93,-144.55 683.05,-139.16 672.56,-137.69 673.93,-144.55"/>
</a>
</g>
</g>
<!-- Node18 -->
<g id="Node000018" class="node">
<title>Node18</title>
<g id="a_Node000018"><a xlink:href="EspTypes__GPIO_8h.html" target="_top" xlink:title="ESP32 GPIO type definitions for hardware abstraction.">
<polygon fill="white" stroke="#666666" points="464.07,-200 334.07,-200 334.07,-177 464.07,-177 464.07,-200"/>
<text text-anchor="middle" x="399.07" y="-184.8" font-family="Arial" font-size="14.00">EspTypes_GPIO.h</text>
</a>
</g>
</g>
<!-- Node12&#45;&gt;Node18 -->
<g id="edge19_Node000012_Node000018" class="edge">
<title>Node12&#45;&gt;Node18</title>
<g id="a_edge19_Node000012_Node000018"><a xlink:title=" ">
<path fill="none" stroke="#63b8ff" d="M205,-235.98C244.54,-226.51 302.77,-212.56 345.13,-202.42"/>
<polygon fill="#63b8ff" stroke="#63b8ff" points="346.08,-205.79 354.99,-200.06 344.45,-198.98 346.08,-205.79"/>
</a>
</g>
</g>
<!-- Node22 -->
<g id="Node000022" class="node">
<title>Node22</title>
<g id="a_Node000022"><a xlink:title=" ">
<polygon fill="#e0e0e0" stroke="#999999" points="278.07,-200 222.07,-200 222.07,-177 278.07,-177 278.07,-200"/>
<text text-anchor="middle" x="250.07" y="-184.8" font-family="Arial" font-size="14.00">stdio.h</text>
</a>
</g>
</g>
<!-- Node12&#45;&gt;Node22 -->
<g id="edge28_Node000012_Node000022" class="edge">
<title>Node12&#45;&gt;Node22</title>
<g id="a_edge28_Node000012_Node000022"><a xlink:title=" ">
<path fill="none" stroke="#63b8ff" d="M177.81,-235.78C190.98,-227.34 209.57,-215.44 224.59,-205.82"/>
<polygon fill="#63b8ff" stroke="#63b8ff" points="226.87,-208.51 233.4,-200.17 223.09,-202.62 226.87,-208.51"/>
</a>
</g>
</g>
<!-- Node15&#45;&gt;Node9 -->
<g id="edge15_Node000015_Node000009" class="edge">
<title>Node15&#45;&gt;Node9</title>
<g id="a_edge15_Node000015_Node000009"><a xlink:title=" ">
<path fill="none" stroke="#63b8ff" d="M703.66,-117.91C683.95,-108.99 655.53,-96.14 633.61,-86.22"/>
<polygon fill="#63b8ff" stroke="#63b8ff" points="634.9,-82.96 624.35,-82.03 632.01,-89.34 634.9,-82.96"/>
</a>
</g>
</g>
<!-- Node15&#45;&gt;Node10 -->
<g id="edge16_Node000015_Node000010" class="edge">
<title>Node15&#45;&gt;Node10</title>
<g id="a_edge16_Node000015_Node000010"><a xlink:title=" ">
<path fill="none" stroke="#63b8ff" d="M727.16,-117.79C727.32,-98.63 727.67,-58.15 727.89,-33.34"/>
<polygon fill="#63b8ff" stroke="#63b8ff" points="731.39,-33.21 727.97,-23.18 724.39,-33.15 731.39,-33.21"/>
</a>
</g>
</g>
<!-- Node16 -->
<g id="Node000016" class="node">
<title>Node16</title>
<g id="a_Node000016"><a xlink:title=" ">
<polygon fill="#e0e0e0" stroke="#999999" points="996.07,-82 922.07,-82 922.07,-59 996.07,-59 996.07,-82"/>
<text text-anchor="middle" x="959.07" y="-66.8" font-family="Arial" font-size="14.00">functional</text>
</a>
</g>
</g>
<!-- Node15&#45;&gt;Node16 -->
<g id="edge17_Node000015_Node000016" class="edge">
<title>Node15&#45;&gt;Node16</title>
<g id="a_edge17_Node000015_Node000016"><a xlink:title=" ">
<path fill="none" stroke="#63b8ff" d="M769.89,-117.98C810.17,-108.08 870.34,-93.3 911.96,-83.07"/>
<polygon fill="#63b8ff" stroke="#63b8ff" points="912.98,-86.43 921.85,-80.64 911.31,-79.63 912.98,-86.43"/>
</a>
</g>
</g>
<!-- Node17 -->
<g id="Node000017" class="node">
<title>Node17</title>
<g id="a_Node000017"><a xlink:title=" ">
<polygon fill="#e0e0e0" stroke="#999999" points="1098.07,-82 1014.07,-82 1014.07,-59 1098.07,-59 1098.07,-82"/>
<text text-anchor="middle" x="1056.07" y="-66.8" font-family="Arial" font-size="14.00">string_view</text>
</a>
</g>
</g>
<!-- Node15&#45;&gt;Node17 -->
<g id="edge18_Node000015_Node000017" class="edge">
<title>Node15&#45;&gt;Node17</title>
<g id="a_edge18_Node000015_Node000017"><a xlink:title=" ">
<path fill="none" stroke="#63b8ff" d="M771.45,-121.6C824.42,-113.25 915.89,-98.46 1004.16,-82.12"/>
<polygon fill="#63b8ff" stroke="#63b8ff" points="1004.88,-85.55 1014.07,-80.28 1003.59,-78.66 1004.88,-85.55"/>
</a>
</g>
</g>
<!-- Node18&#45;&gt;Node9 -->
<g id="edge26_Node000018_Node000009" class="edge">
<title>Node18&#45;&gt;Node9</title>
<g id="a_edge26_Node000018_Node000009"><a xlink:title=" ">
<path fill="none" stroke="#63b8ff" d="M417.71,-176.79C453.58,-156.2 532.32,-110.98 573.98,-87.05"/>
<polygon fill="#63b8ff" stroke="#63b8ff" points="575.83,-90.03 582.76,-82.01 572.35,-83.96 575.83,-90.03"/>
</a>
</g>
</g>
<!-- Node18&#45;&gt;Node15 -->
<g id="edge20_Node000018_Node000015" class="edge">
<title>Node18&#45;&gt;Node15</title>
<g id="a_edge20_Node000018_Node000015"><a xlink:title=" ">
<path fill="none" stroke="#63b8ff" d="M463.12,-176.96C518.48,-167.76 600.62,-153.9 672.07,-141 672.4,-140.94 672.73,-140.88 673.07,-140.82"/>
<polygon fill="#63b8ff" stroke="#63b8ff" points="673.75,-144.25 682.95,-139 672.48,-137.37 673.75,-144.25"/>
</a>
</g>
</g>
<!-- Node19 -->
<g id="Node000019" class="node">
<title>Node19</title>
<g id="a_Node000019"><a xlink:href="EspTypes__Base_8h.html" target="_top" xlink:title="ESP32 base type definitions for hardware abstraction.">
<polygon fill="white" stroke="#666666" points="663.57,-141 538.57,-141 538.57,-118 663.57,-118 663.57,-141"/>
<text text-anchor="middle" x="601.07" y="-125.8" font-family="Arial" font-size="14.00">EspTypes_Base.h</text>
</a>
</g>
</g>
<!-- Node18&#45;&gt;Node19 -->
<g id="edge21_Node000018_Node000019" class="edge">
<title>Node18&#45;&gt;Node19</title>
<g id="a_edge21_Node000018_Node000019"><a xlink:title=" ">
<path fill="none" stroke="#63b8ff" d="M436.59,-176.91C469.75,-167.55 518.27,-153.86 554.02,-143.77"/>
<polygon fill="#63b8ff" stroke="#63b8ff" points="555.07,-147.12 563.75,-141.03 553.17,-140.38 555.07,-147.12"/>
</a>
</g>
</g>
<!-- Node20 -->
<g id="Node000020" class="node">
<title>Node20</title>
<g id="a_Node000020"><a xlink:href="McuSelect_8h.html" target="_top" xlink:title="Centralized MCU platform selection and configuration header.">
<polygon fill="white" stroke="#666666" points="470.07,-82 328.07,-82 328.07,-59 470.07,-59 470.07,-82"/>
<text text-anchor="middle" x="399.07" y="-66.8" font-family="Arial" font-size="14.00">../../utils/McuSelect.h</text>
</a>
</g>
</g>
<!-- Node18&#45;&gt;Node20 -->
<g id="edge27_Node000018_Node000020" class="edge">
<title>Node18&#45;&gt;Node20</title>
<g id="a_edge27_Node000018_Node000020"><a xlink:title=" ">
<path fill="none" stroke="#63b8ff" d="M399.07,-176.79C399.07,-157.63 399.07,-117.15 399.07,-92.34"/>
<polygon fill="#63b8ff" stroke="#63b8ff" points="402.57,-92.18 399.07,-82.18 395.57,-92.18 402.57,-92.18"/>
</a>
</g>
</g>
<!-- Node19&#45;&gt;Node9 -->
<g id="edge23_Node000019_Node000009" class="edge">
<title>Node19&#45;&gt;Node9</title>
<g id="a_edge23_Node000019_Node000009"><a xlink:title=" ">
<path fill="none" stroke="#63b8ff" d="M601.07,-117.78C601.07,-110.61 601.07,-100.95 601.07,-92.31"/>
<polygon fill="#63b8ff" stroke="#63b8ff" points="604.57,-92.17 601.07,-82.17 597.57,-92.17 604.57,-92.17"/>
</a>
</g>
</g>
<!-- Node19&#45;&gt;Node10 -->
<g id="edge25_Node000019_Node000010" class="edge">
<title>Node19&#45;&gt;Node10</title>
<g id="a_edge25_Node000019_Node000010"><a xlink:title=" ">
<path fill="none" stroke="#63b8ff" d="M620.28,-117.86C635,-109.22 655.37,-96.19 671.07,-82 687.94,-66.75 704.07,-46.33 714.84,-31.58"/>
<polygon fill="#63b8ff" stroke="#63b8ff" points="717.85,-33.39 720.81,-23.22 712.15,-29.33 717.85,-33.39"/>
</a>
</g>
</g>
<!-- Node19&#45;&gt;Node20 -->
<g id="edge22_Node000019_Node000020" class="edge">
<title>Node19&#45;&gt;Node20</title>
<g id="a_edge22_Node000019_Node000020"><a xlink:title=" ">
<path fill="none" stroke="#63b8ff" d="M563.55,-117.91C530.38,-108.55 481.86,-94.86 446.11,-84.77"/>
<polygon fill="#63b8ff" stroke="#63b8ff" points="446.96,-81.38 436.39,-82.03 445.06,-88.12 446.96,-81.38"/>
</a>
</g>
</g>
<!-- Node21 -->
<g id="Node000021" class="node">
<title>Node21</title>
<g id="a_Node000021"><a xlink:title=" ">
<polygon fill="#e0e0e0" stroke="#999999" points="903.57,-82 846.57,-82 846.57,-59 903.57,-59 903.57,-82"/>
<text text-anchor="middle" x="875.07" y="-66.8" font-family="Arial" font-size="14.00">atomic</text>
</a>
</g>
</g>
<!-- Node19&#45;&gt;Node21 -->
<g id="edge24_Node000019_Node000021" class="edge">
<title>Node19&#45;&gt;Node21</title>
<g id="a_edge24_Node000019_Node000021"><a xlink:title=" ">
<path fill="none" stroke="#63b8ff" d="M651.64,-117.98C704.94,-106.89 787.75,-89.67 836.17,-79.59"/>
<polygon fill="#63b8ff" stroke="#63b8ff" points="837.17,-82.96 846.24,-77.5 835.74,-76.11 837.17,-82.96"/>
</a>
</g>
</g>
<!-- Node23&#45;&gt;Node9 -->
<g id="edge30_Node000023_Node000009" class="edge">
<title>Node23&#45;&gt;Node9</title>
<g id="a_edge30_Node000023_Node000009"><a xlink:title=" ">
<path fill="none" stroke="#63b8ff" d="M1097.55,-121.77C990.75,-110.95 781.93,-89.81 672.24,-78.71"/>
<polygon fill="#63b8ff" stroke="#63b8ff" points="672.57,-75.22 662.26,-77.7 671.86,-82.19 672.57,-75.22"/>
</a>
</g>
</g>
<!-- Node23&#45;&gt;Node10 -->
<g id="edge32_Node000023_Node000010" class="edge">
<title>Node23&#45;&gt;Node10</title>
<g id="a_edge32_Node000023_Node000010"><a xlink:title=" ">
<path fill="none" stroke="#63b8ff" d="M1173.16,-117.73C1184.63,-102.79 1201.17,-75.71 1186.07,-59 1158.12,-28.08 871.66,-16.68 766.5,-13.51"/>
<polygon fill="#63b8ff" stroke="#63b8ff" points="766.43,-10.01 756.33,-13.22 766.22,-17.01 766.43,-10.01"/>
</a>
</g>
</g>
<!-- Node23&#45;&gt;Node16 -->
<g id="edge33_Node000023_Node000016" class="edge">
<title>Node23&#45;&gt;Node16</title>
<g id="a_edge33_Node000023_Node000016"><a xlink:title=" ">
<path fill="none" stroke="#63b8ff" d="M1125.99,-117.91C1092.12,-108.5 1042.47,-94.69 1006.12,-84.58"/>
<polygon fill="#63b8ff" stroke="#63b8ff" points="1006.82,-81.15 996.25,-81.84 1004.95,-87.89 1006.82,-81.15"/>
</a>
</g>
</g>
<!-- Node23&#45;&gt;Node17 -->
<g id="edge35_Node000023_Node000017" class="edge">
<title>Node23&#45;&gt;Node17</title>
<g id="a_edge35_Node000023_Node000017"><a xlink:title=" ">
<path fill="none" stroke="#63b8ff" d="M1144.01,-117.91C1127.41,-109.15 1103.62,-96.6 1084.97,-86.76"/>
<polygon fill="#63b8ff" stroke="#63b8ff" points="1086.5,-83.6 1076.02,-82.03 1083.23,-89.79 1086.5,-83.6"/>
</a>
</g>
</g>
<!-- Node24 -->
<g id="Node000024" class="node">
<title>Node24</title>
<g id="a_Node000024"><a xlink:title=" ">
<polygon fill="#e0e0e0" stroke="#999999" points="1177.57,-82 1116.57,-82 1116.57,-59 1177.57,-59 1177.57,-82"/>
<text text-anchor="middle" x="1147.07" y="-66.8" font-family="Arial" font-size="14.00">cstdarg</text>
</a>
</g>
</g>
<!-- Node23&#45;&gt;Node24 -->
<g id="edge31_Node000023_Node000024" class="edge">
<title>Node23&#45;&gt;Node24</title>
<g id="a_edge31_Node000023_Node000024"><a xlink:title=" ">
<path fill="none" stroke="#63b8ff" d="M1160.87,-117.78C1158.71,-110.53 1155.79,-100.74 1153.19,-92.02"/>
<polygon fill="#63b8ff" stroke="#63b8ff" points="1156.46,-90.76 1150.25,-82.17 1149.75,-92.76 1156.46,-90.76"/>
</a>
</g>
</g>
<!-- Node23&#45;&gt;Node25 -->
<g id="edge34_Node000023_Node000025" class="edge">
<title>Node23&#45;&gt;Node25</title>
<g id="a_edge34_Node000023_Node000025"><a xlink:title=" ">
<path fill="none" stroke="#63b8ff" d="M1181.94,-117.78C1196.13,-109.26 1216.21,-97.21 1232.32,-87.55"/>
<polygon fill="#63b8ff" stroke="#63b8ff" points="1234.5,-90.32 1241.28,-82.17 1230.9,-84.32 1234.5,-90.32"/>
</a>
</g>
</g>
<!-- Node26&#45;&gt;Node3 -->
<g id="edge50_Node000026_Node000003" class="edge">
<title>Node26&#45;&gt;Node3</title>
<g id="a_edge50_Node000026_Node000003"><a xlink:title=" ">
<path fill="none" stroke="#63b8ff" d="M919.54,-295.87C850.32,-287.33 748.44,-273.93 660.07,-259 658.62,-258.76 657.15,-258.5 655.67,-258.24"/>
<polygon fill="#63b8ff" stroke="#63b8ff" points="656.26,-254.79 645.79,-256.41 654.98,-261.67 656.26,-254.79"/>
</a>
</g>
</g>
<!-- Node26&#45;&gt;Node4 -->
<g id="edge51_Node000026_Node000004" class="edge">
<title>Node26&#45;&gt;Node4</title>
<g id="a_edge51_Node000026_Node000004"><a xlink:title=" ">
<path fill="none" stroke="#63b8ff" d="M919.27,-299.17C832.95,-291.96 692.74,-278.77 562.84,-259.17"/>
<polygon fill="#63b8ff" stroke="#63b8ff" points="563.12,-255.67 552.71,-257.62 562.06,-262.59 563.12,-255.67"/>
</a>
</g>
</g>
<!-- Node26&#45;&gt;Node5 -->
<g id="edge52_Node000026_Node000005" class="edge">
<title>Node26&#45;&gt;Node5</title>
<g id="a_edge52_Node000026_Node000005"><a xlink:title=" ">
<path fill="none" stroke="#63b8ff" d="M919.35,-303.15C855.73,-298.98 766.25,-287.91 693.07,-259 676.42,-252.42 638.06,-224.49 613.7,-206.11"/>
<polygon fill="#63b8ff" stroke="#63b8ff" points="615.8,-203.31 605.72,-200.05 611.57,-208.88 615.8,-203.31"/>
</a>
</g>
</g>
<!-- Node26&#45;&gt;Node8 -->
<g id="edge53_Node000026_Node000008" class="edge">
<title>Node26&#45;&gt;Node8</title>
<g id="a_edge53_Node000026_Node000008"><a xlink:title=" ">
<path fill="none" stroke="#63b8ff" d="M1005.33,-294.52C1010.14,-280.28 1016.19,-255 1007.07,-236 1001.07,-223.51 989.91,-213.33 978.97,-205.7"/>
<polygon fill="#63b8ff" stroke="#63b8ff" points="980.65,-202.62 970.34,-200.14 976.85,-208.5 980.65,-202.62"/>
</a>
</g>
</g>
<!-- Node26&#45;&gt;Node21 -->
<g id="edge45_Node000026_Node000021" class="edge">
<title>Node26&#45;&gt;Node21</title>
<g id="a_edge45_Node000026_Node000021"><a xlink:title=" ">
<path fill="none" stroke="#63b8ff" d="M1054.57,-294.92C1091.79,-284.74 1132.08,-266.32 1116.07,-236 1073.1,-154.66 969.82,-105.94 913.42,-84.5"/>
<polygon fill="#63b8ff" stroke="#63b8ff" points="914.38,-81.12 903.79,-80.93 911.95,-87.68 914.38,-81.12"/>
</a>
</g>
</g>
<!-- Node26&#45;&gt;Node23 -->
<g id="edge37_Node000026_Node000023" class="edge">
<title>Node26&#45;&gt;Node23</title>
<g id="a_edge37_Node000026_Node000023"><a xlink:title=" ">
<path fill="none" stroke="#63b8ff" d="M1082.78,-297.46C1107.93,-290.89 1133.37,-279.3 1150.07,-259 1175.13,-228.54 1172.37,-179.32 1168.19,-151.47"/>
<polygon fill="#63b8ff" stroke="#63b8ff" points="1171.58,-150.55 1166.44,-141.28 1164.68,-151.73 1171.58,-150.55"/>
</a>
</g>
</g>
<!-- Node27 -->
<g id="Node000027" class="node">
<title>Node27</title>
<g id="a_Node000027"><a xlink:href="RtosMutex_8h.html" target="_top" xlink:title="Cross&#45;platform RTOS mutex and synchronization primitives.">
<polygon fill="white" stroke="#666666" points="823.57,-259 702.57,-259 702.57,-236 823.57,-236 823.57,-259"/>
<text text-anchor="middle" x="763.07" y="-243.8" font-family="Arial" font-size="14.00">utils/RtosMutex.h</text>
</a>
</g>
</g>
<!-- Node26&#45;&gt;Node27 -->
<g id="edge38_Node000026_Node000027" class="edge">
<title>Node26&#45;&gt;Node27</title>
<g id="a_edge38_Node000026_Node000027"><a xlink:title=" ">
<path fill="none" stroke="#63b8ff" d="M957.14,-294.98C917.59,-285.51 859.36,-271.56 817.01,-261.42"/>
<polygon fill="#63b8ff" stroke="#63b8ff" points="817.68,-257.98 807.14,-259.06 816.05,-264.79 817.68,-257.98"/>
</a>
</g>
</g>
<!-- Node28 -->
<g id="Node000028" class="node">
<title>Node28</title>
<g id="a_Node000028"><a xlink:title=" ">
<polygon fill="#e0e0e0" stroke="#999999" points="936.07,-259 880.07,-259 880.07,-236 936.07,-236 936.07,-259"/>
<text text-anchor="middle" x="908.07" y="-243.8" font-family="Arial" font-size="14.00">cstring</text>
</a>
</g>
</g>
<!-- Node26&#45;&gt;Node28 -->
<g id="edge46_Node000026_Node000028" class="edge">
<title>Node26&#45;&gt;Node28</title>
<g id="a_edge46_Node000026_Node000028"><a xlink:title=" ">
<path fill="none" stroke="#63b8ff" d="M983.57,-294.78C969.67,-286.26 950.02,-274.21 934.25,-264.55"/>
<polygon fill="#63b8ff" stroke="#63b8ff" points="935.84,-261.41 925.48,-259.17 932.18,-267.38 935.84,-261.41"/>
</a>
</g>
</g>
<!-- Node29 -->
<g id="Node000029" class="node">
<title>Node29</title>
<g id="a_Node000029"><a xlink:title=" ">
<polygon fill="#e0e0e0" stroke="#999999" points="998.07,-259 954.07,-259 954.07,-236 998.07,-236 998.07,-259"/>
<text text-anchor="middle" x="976.07" y="-243.8" font-family="Arial" font-size="14.00">map</text>
</a>
</g>
</g>
<!-- Node26&#45;&gt;Node29 -->
<g id="edge47_Node000026_Node000029" class="edge">
<title>Node26&#45;&gt;Node29</title>
<g id="a_edge47_Node000026_Node000029"><a xlink:title=" ">
<path fill="none" stroke="#63b8ff" d="M996.36,-294.78C993.12,-287.37 988.7,-277.3 984.82,-268.45"/>
<polygon fill="#63b8ff" stroke="#63b8ff" points="987.97,-266.93 980.75,-259.17 981.56,-269.74 987.97,-266.93"/>
</a>
</g>
</g>
<!-- Node30 -->
<g id="Node000030" class="node">
<title>Node30</title>
<g id="a_Node000030"><a xlink:title=" ">
<polygon fill="#e0e0e0" stroke="#999999" points="1354.57,-259 1287.57,-259 1287.57,-236 1354.57,-236 1354.57,-259"/>
<text text-anchor="middle" x="1321.07" y="-243.8" font-family="Arial" font-size="14.00">memory</text>
</a>
</g>
</g>
<!-- Node26&#45;&gt;Node30 -->
<g id="edge48_Node000026_Node000030" class="edge">
<title>Node26&#45;&gt;Node30</title>
<g id="a_edge48_Node000026_Node000030"><a xlink:title=" ">
<path fill="none" stroke="#63b8ff" d="M1060.13,-294.98C1123.04,-283.77 1221.12,-266.3 1277.4,-256.28"/>
<polygon fill="#63b8ff" stroke="#63b8ff" points="1278.17,-259.7 1287.41,-254.5 1276.95,-252.8 1278.17,-259.7"/>
</a>
</g>
</g>
<!-- Node31 -->
<g id="Node000031" class="node">
<title>Node31</title>
<g id="a_Node000031"><a xlink:title=" ">
<polygon fill="#e0e0e0" stroke="#999999" points="1107.57,-259 1054.57,-259 1054.57,-236 1107.57,-236 1107.57,-259"/>
<text text-anchor="middle" x="1081.07" y="-243.8" font-family="Arial" font-size="14.00">vector</text>
</a>
</g>
</g>
<!-- Node26&#45;&gt;Node31 -->
<g id="edge49_Node000026_Node000031" class="edge">
<title>Node26&#45;&gt;Node31</title>
<g id="a_edge49_Node000026_Node000031"><a xlink:title=" ">
<path fill="none" stroke="#63b8ff" d="M1016.11,-294.78C1027.85,-286.42 1044.35,-274.66 1057.78,-265.09"/>
<polygon fill="#63b8ff" stroke="#63b8ff" points="1059.97,-267.83 1066.09,-259.17 1055.91,-262.13 1059.97,-267.83"/>
</a>
</g>
</g>
<!-- Node27&#45;&gt;Node5 -->
<g id="edge40_Node000027_Node000005" class="edge">
<title>Node27&#45;&gt;Node5</title>
<g id="a_edge40_Node000027_Node000005"><a xlink:title=" ">
<path fill="none" stroke="#63b8ff" d="M731.3,-235.91C703.71,-226.71 663.55,-213.33 633.45,-203.29"/>
<polygon fill="#63b8ff" stroke="#63b8ff" points="634.25,-199.87 623.66,-200.03 632.04,-206.51 634.25,-199.87"/>
</a>
</g>
</g>
<!-- Node27&#45;&gt;Node7 -->
<g id="edge41_Node000027_Node000007" class="edge">
<title>Node27&#45;&gt;Node7</title>
<g id="a_edge41_Node000027_Node000007"><a xlink:title=" ">
<path fill="none" stroke="#63b8ff" d="M759.3,-235.78C756.73,-228.45 753.25,-218.52 750.17,-209.74"/>
<polygon fill="#63b8ff" stroke="#63b8ff" points="753.43,-208.45 746.81,-200.17 746.82,-210.77 753.43,-208.45"/>
</a>
</g>
</g>
<!-- Node27&#45;&gt;Node8 -->
<g id="edge42_Node000027_Node000008" class="edge">
<title>Node27&#45;&gt;Node8</title>
<g id="a_edge42_Node000027_Node000008"><a xlink:title=" ">
<path fill="none" stroke="#63b8ff" d="M797.62,-235.91C827.89,-226.63 872.07,-213.1 904.9,-203.03"/>
<polygon fill="#63b8ff" stroke="#63b8ff" points="906.17,-206.31 914.7,-200.03 904.12,-199.61 906.17,-206.31"/>
</a>
</g>
</g>
<!-- Node27&#45;&gt;Node10 -->
<g id="edge44_Node000027_Node000010" class="edge">
<title>Node27&#45;&gt;Node10</title>
<g id="a_edge44_Node000027_Node000010"><a xlink:title=" ">
<path fill="none" stroke="#63b8ff" d="M780.48,-235.88C792.11,-227.7 806.44,-215.22 813.07,-200 817.15,-190.63 815.48,-186.93 813.07,-177 799.29,-120.35 762.37,-61.4 742.01,-31.84"/>
<polygon fill="#63b8ff" stroke="#63b8ff" points="744.64,-29.5 736.04,-23.32 738.91,-33.52 744.64,-29.5"/>
</a>
</g>
</g>
<!-- Node27&#45;&gt;Node20 -->
<g id="edge39_Node000027_Node000020" class="edge">
<title>Node27&#45;&gt;Node20</title>
<g id="a_edge39_Node000027_Node000020"><a xlink:title=" ">
<path fill="none" stroke="#63b8ff" d="M702.22,-240.56C582.63,-228.83 328.19,-203.48 325.07,-200 293.62,-165.04 344.73,-114.54 376.59,-88.48"/>
<polygon fill="#63b8ff" stroke="#63b8ff" points="378.95,-91.08 384.6,-82.11 374.59,-85.6 378.95,-91.08"/>
</a>
</g>
</g>
<!-- Node27&#45;&gt;Node21 -->
<g id="edge43_Node000027_Node000021" class="edge">
<title>Node27&#45;&gt;Node21</title>
<g id="a_edge43_Node000027_Node000021"><a xlink:title=" ">
<path fill="none" stroke="#63b8ff" d="M795.08,-235.96C812.67,-228.57 833.42,-216.94 846.07,-200 869.99,-167.94 874.76,-119.71 875.38,-92.36"/>
<polygon fill="#63b8ff" stroke="#63b8ff" points="878.88,-92.37 875.44,-82.35 871.88,-92.33 878.88,-92.37"/>
</a>
</g>
</g>
<!-- Node32&#45;&gt;Node30 -->
<g id="edge55_Node000032_Node000030" class="edge">
<title>Node32&#45;&gt;Node30</title>
<g id="a_edge55_Node000032_Node000030"><a xlink:title=" ">
<path fill="none" stroke="#63b8ff" d="M1365.72,-294.78C1358.04,-286.82 1347.38,-275.77 1338.41,-266.47"/>
<polygon fill="#63b8ff" stroke="#63b8ff" points="1340.83,-263.94 1331.37,-259.17 1335.79,-268.8 1340.83,-263.94"/>
</a>
</g>
</g>
<!-- Node33 -->
<g id="Node000033" class="node">
<title>Node33</title>
<g id="a_Node000033"><a xlink:title=" ">
<polygon fill="#e0e0e0" stroke="#999999" points="1478.57,-259 1437.57,-259 1437.57,-236 1478.57,-236 1478.57,-259"/>
<text text-anchor="middle" x="1458.07" y="-243.8" font-family="Arial" font-size="14.00">new</text>
</a>
</g>
</g>
<!-- Node32&#45;&gt;Node33 -->
<g id="edge56_Node000032_Node000033" class="edge">
<title>Node32&#45;&gt;Node33</title>
<g id="a_edge56_Node000032_Node000033"><a xlink:title=" ">
<path fill="none" stroke="#63b8ff" d="M1391.49,-294.78C1403.52,-286.42 1420.43,-274.66 1434.2,-265.09"/>
<polygon fill="#63b8ff" stroke="#63b8ff" points="1436.5,-267.75 1442.71,-259.17 1432.5,-262.01 1436.5,-267.75"/>
</a>
</g>
</g>
<!-- Node34 -->
<g id="Node000034" class="node">
<title>Node34</title>
<g id="a_Node000034"><a xlink:title=" ">
<polygon fill="#e0e0e0" stroke="#999999" points="1419.57,-259 1372.57,-259 1372.57,-236 1419.57,-236 1419.57,-259"/>
<text text-anchor="middle" x="1396.07" y="-243.8" font-family="Arial" font-size="14.00">utility</text>
</a>
</g>
</g>
<!-- Node32&#45;&gt;Node34 -->
<g id="edge57_Node000032_Node000034" class="edge">
<title>Node32&#45;&gt;Node34</title>
<g id="a_edge57_Node000032_Node000034"><a xlink:title=" ">
<path fill="none" stroke="#63b8ff" d="M1379.83,-294.78C1382.4,-287.45 1385.88,-277.52 1388.97,-268.74"/>
<polygon fill="#63b8ff" stroke="#63b8ff" points="1392.31,-269.77 1392.32,-259.17 1385.71,-267.45 1392.31,-269.77"/>
</a>
</g>
</g>
</g>
</svg>

<g id="navigator" transform="translate(0 0)" fill="#404254">
  <rect fill="#f2f5e9" fill-opacity="0.5" stroke="#606060" stroke-width=".5" x="0" y="0" width="60" height="60"/>
  <use id="zoomplus" xlink:href="#zoomPlus" x="17" y="9" onmousedown="handleZoom(evt,'in')"/>
  <use id="zoomminus" xlink:href="#zoomMin" x="42" y="9" onmousedown="handleZoom(evt,'out')"/>
  <use id="reset" xlink:href="#resetDef" x="30" y="36" onmousedown="handleReset()"/>
   <use id="arrowup" xlink:href="#arrowUp" x="0" y="0" onmousedown="handlePan(0,-1)"/>
  <use id="arrowright" xlink:href="#arrowRight" x="0" y="0" onmousedown="handlePan(1,0)"/>
  <use id="arrowdown" xlink:href="#arrowDown" x="0" y="0" onmousedown="handlePan(0,1)"/>
  <use id="arrowleft" xlink:href="#arrowLeft" x="0" y="0" onmousedown="handlePan(-1,0)"/>
</g>
<svg viewBox="0 0 15 15" width="100%" height="30px" preserveAspectRatio="xMaxYMin meet">
 <g id="arrow_out" transform="scale(0.3 0.3)">
  <a xlink:href="LoggerComprehensiveTest_8cpp__incl_org.svg" target="_base">
   <rect id="button" ry="5" rx="5" y="6" x="6" height="38" width="38"
        fill="#f2f5e9" fill-opacity="0.5" stroke="#606060" stroke-width="1.0"/>
   <path id="arrow"
     d="M 11.500037,31.436501 C 11.940474,20.09759 22.043105,11.32322 32.158766,21.979434 L 37.068811,17.246167 C 37.068811,17.246167 37.088388,32 37.088388,32 L 22.160133,31.978069 C 22.160133,31.978069 26.997745,27.140456 26.997745,27.140456 C 18.528582,18.264221 13.291696,25.230495 11.500037,31.436501 z"
     style="fill:#404040;"/>
  </a>
 </g>
</svg>

<style type='text/css'>
<![CDATA[
[data-mouse-over-selected='false'] { opacity: 0.7; }
[data-mouse-over-selected='true']  { opacity: 1.0; }
]]>
</style>
<script type="application/ecmascript"><![CDATA[
document.addEventListener('DOMContentLoaded', (event) => {
  highlightEdges();
  highlightAdjacentNodes();
});
]]></script>
</svg>
