<?xml version="1.0" encoding="UTF-8" standalone="no"?>
<!DOCTYPE svg PUBLIC "-//W3C//DTD SVG 1.1//EN"
 "http://www.w3.org/Graphics/SVG/1.1/DTD/svg11.dtd">
<!-- Generated by graphviz version 2.43.0 (0)
 -->
<!-- Title: examples/esp32/main/PwmComprehensiveTest.cpp Pages: 1 -->
<svg width="1588pt" height="400pt"
 viewBox="0.00 0.00 1587.50 400.00" xmlns="http://www.w3.org/2000/svg" xmlns:xlink="http://www.w3.org/1999/xlink">
<g id="graph0" class="graph" transform="scale(1 1) rotate(0) translate(4 396)">
<title>examples/esp32/main/PwmComprehensiveTest.cpp</title>
<!-- Node1 -->
<g id="Node000001" class="node">
<title>Node1</title>
<g id="a_Node000001"><a xlink:title="Comprehensive PWM testing suite for ESP32 family (noexcept)">
<polygon fill="#999999" stroke="#666666" points="1069.5,-392 872.5,-392 872.5,-354 1069.5,-354 1069.5,-392"/>
<text text-anchor="start" x="880.5" y="-376.8" font-family="Arial" font-size="14.00">examples/esp32/main</text>
<text text-anchor="middle" x="971" y="-361.8" font-family="Arial" font-size="14.00">/PwmComprehensiveTest.cpp</text>
</a>
</g>
</g>
<!-- Node2 -->
<g id="Node000002" class="node">
<title>Node2</title>
<g id="a_Node000002"><a xlink:href="TestFramework_8h.html" target="_top" xlink:title="Shared testing framework for ESP32&#45;C6 comprehensive test suites.">
<polygon fill="white" stroke="#666666" points="496.5,-318 375.5,-318 375.5,-295 496.5,-295 496.5,-318"/>
<text text-anchor="middle" x="436" y="-302.8" font-family="Arial" font-size="14.00">TestFramework.h</text>
</a>
</g>
</g>
<!-- Node1&#45;&gt;Node2 -->
<g id="edge1_Node000001_Node000002" class="edge">
<title>Node1&#45;&gt;Node2</title>
<g id="a_edge1_Node000001_Node000002"><a xlink:title=" ">
<path fill="none" stroke="#63b8ff" d="M872.25,-360.09C766.21,-347.31 600.38,-327.32 506.68,-316.02"/>
<polygon fill="#63b8ff" stroke="#63b8ff" points="507.08,-312.54 496.73,-314.82 506.24,-319.49 507.08,-312.54"/>
</a>
</g>
</g>
<!-- Node12 -->
<g id="Node000012" class="node">
<title>Node12</title>
<g id="a_Node000012"><a xlink:href="EspGpio_8h.html" target="_top" xlink:title="Advanced MCU&#45;specific implementation of the unified BaseGpio class with ESP32/ESP&#45;IDF v5....">
<polygon fill="white" stroke="#666666" points="942.5,-259 791.5,-259 791.5,-236 942.5,-236 942.5,-259"/>
<text text-anchor="middle" x="867" y="-243.8" font-family="Arial" font-size="14.00">mcu/esp32/EspGpio.h</text>
</a>
</g>
</g>
<!-- Node1&#45;&gt;Node12 -->
<g id="edge32_Node000001_Node000012" class="edge">
<title>Node1&#45;&gt;Node12</title>
<g id="a_edge32_Node000001_Node000012"><a xlink:title=" ">
<path fill="none" stroke="#63b8ff" d="M955.65,-353.78C936.03,-330.47 902.23,-290.34 882.52,-266.93"/>
<polygon fill="#63b8ff" stroke="#63b8ff" points="885.07,-264.52 875.95,-259.13 879.71,-269.03 885.07,-264.52"/>
</a>
</g>
</g>
<!-- Node22 -->
<g id="Node000022" class="node">
<title>Node22</title>
<g id="a_Node000022"><a xlink:href="BasePwm_8h.html" target="_top" xlink:title="Abstract base class for PWM implementations in the HardFOC system.">
<polygon fill="white" stroke="#666666" points="1074,-141 952,-141 952,-118 1074,-118 1074,-141"/>
<text text-anchor="middle" x="1013" y="-125.8" font-family="Arial" font-size="14.00">base/BasePwm.h</text>
</a>
</g>
</g>
<!-- Node1&#45;&gt;Node22 -->
<g id="edge28_Node000001_Node000022" class="edge">
<title>Node1&#45;&gt;Node22</title>
<g id="a_edge28_Node000001_Node000022"><a xlink:title=" ">
<path fill="none" stroke="#63b8ff" d="M974.16,-353.85C981.81,-309.87 1001.29,-197.8 1009.39,-151.26"/>
<polygon fill="#63b8ff" stroke="#63b8ff" points="1012.88,-151.61 1011.15,-141.16 1005.98,-150.41 1012.88,-151.61"/>
</a>
</g>
</g>
<!-- Node23 -->
<g id="Node000023" class="node">
<title>Node23</title>
<g id="a_Node000023"><a xlink:href="EspPwm_8h.html" target="_top" xlink:title="ESP32 LEDC (PWM) controller implementation for the HardFOC system.">
<polygon fill="white" stroke="#666666" points="1474,-318 1322,-318 1322,-295 1474,-295 1474,-318"/>
<text text-anchor="middle" x="1398" y="-302.8" font-family="Arial" font-size="14.00">mcu/esp32/EspPwm.h</text>
</a>
</g>
</g>
<!-- Node1&#45;&gt;Node23 -->
<g id="edge33_Node000001_Node000023" class="edge">
<title>Node1&#45;&gt;Node23</title>
<g id="a_edge33_Node000001_Node000023"><a xlink:title=" ">
<path fill="none" stroke="#63b8ff" d="M1069.77,-357.08C1145.25,-345.68 1247.95,-330.17 1318.26,-319.55"/>
<polygon fill="#63b8ff" stroke="#63b8ff" points="1319.02,-322.97 1328.39,-318.02 1317.98,-316.05 1319.02,-322.97"/>
</a>
</g>
</g>
<!-- Node26 -->
<g id="Node000026" class="node">
<title>Node26</title>
<g id="a_Node000026"><a xlink:title=" ">
<polygon fill="#e0e0e0" stroke="#999999" points="1579.5,-259 1532.5,-259 1532.5,-236 1579.5,-236 1579.5,-259"/>
<text text-anchor="middle" x="1556" y="-243.8" font-family="Arial" font-size="14.00">array</text>
</a>
</g>
</g>
<!-- Node1&#45;&gt;Node26 -->
<g id="edge47_Node000001_Node000026" class="edge">
<title>Node1&#45;&gt;Node26</title>
<g id="a_edge47_Node000001_Node000026"><a xlink:title=" ">
<path fill="none" stroke="#63b8ff" d="M1069.65,-369.11C1197.29,-364.09 1411.75,-350.93 1483,-318 1507.39,-306.73 1528.79,-283.97 1542.01,-267.56"/>
<polygon fill="#63b8ff" stroke="#63b8ff" points="1545.12,-269.26 1548.47,-259.21 1539.58,-264.98 1545.12,-269.26"/>
</a>
</g>
</g>
<!-- Node3 -->
<g id="Node000003" class="node">
<title>Node3</title>
<g id="a_Node000003"><a xlink:title=" ">
<polygon fill="#e0e0e0" stroke="#999999" points="335.5,-259 260.5,-259 260.5,-236 335.5,-236 335.5,-259"/>
<text text-anchor="middle" x="298" y="-243.8" font-family="Arial" font-size="14.00">esp_log.h</text>
</a>
</g>
</g>
<!-- Node2&#45;&gt;Node3 -->
<g id="edge2_Node000002_Node000003" class="edge">
<title>Node2&#45;&gt;Node3</title>
<g id="a_edge2_Node000002_Node000003"><a xlink:title=" ">
<path fill="none" stroke="#63b8ff" d="M410.37,-294.91C388.58,-285.91 357.1,-272.91 332.99,-262.95"/>
<polygon fill="#63b8ff" stroke="#63b8ff" points="334.07,-259.61 323.5,-259.03 331.4,-266.08 334.07,-259.61"/>
</a>
</g>
</g>
<!-- Node4 -->
<g id="Node000004" class="node">
<title>Node4</title>
<g id="a_Node000004"><a xlink:title=" ">
<polygon fill="#e0e0e0" stroke="#999999" points="479.5,-259 392.5,-259 392.5,-236 479.5,-236 479.5,-259"/>
<text text-anchor="middle" x="436" y="-243.8" font-family="Arial" font-size="14.00">esp_timer.h</text>
</a>
</g>
</g>
<!-- Node2&#45;&gt;Node4 -->
<g id="edge3_Node000002_Node000004" class="edge">
<title>Node2&#45;&gt;Node4</title>
<g id="a_edge3_Node000002_Node000004"><a xlink:title=" ">
<path fill="none" stroke="#63b8ff" d="M436,-294.78C436,-287.61 436,-277.95 436,-269.31"/>
<polygon fill="#63b8ff" stroke="#63b8ff" points="439.5,-269.17 436,-259.17 432.5,-269.17 439.5,-269.17"/>
</a>
</g>
</g>
<!-- Node5 -->
<g id="Node000005" class="node">
<title>Node5</title>
<g id="a_Node000005"><a xlink:title=" ">
<polygon fill="#e0e0e0" stroke="#999999" points="640.5,-259 497.5,-259 497.5,-236 640.5,-236 640.5,-259"/>
<text text-anchor="middle" x="569" y="-243.8" font-family="Arial" font-size="14.00">freertos/FreeRTOS.h</text>
</a>
</g>
</g>
<!-- Node2&#45;&gt;Node5 -->
<g id="edge4_Node000002_Node000005" class="edge">
<title>Node2&#45;&gt;Node5</title>
<g id="a_edge4_Node000002_Node000005"><a xlink:title=" ">
<path fill="none" stroke="#63b8ff" d="M460.7,-294.91C481.61,-285.95 511.78,-273.02 534.96,-263.09"/>
<polygon fill="#63b8ff" stroke="#63b8ff" points="536.61,-266.19 544.43,-259.03 533.86,-259.75 536.61,-266.19"/>
</a>
</g>
</g>
<!-- Node6 -->
<g id="Node000006" class="node">
<title>Node6</title>
<g id="a_Node000006"><a xlink:title=" ">
<polygon fill="#e0e0e0" stroke="#999999" points="773.5,-259 658.5,-259 658.5,-236 773.5,-236 773.5,-259"/>
<text text-anchor="middle" x="716" y="-243.8" font-family="Arial" font-size="14.00">freertos/queue.h</text>
</a>
</g>
</g>
<!-- Node2&#45;&gt;Node6 -->
<g id="edge5_Node000002_Node000006" class="edge">
<title>Node2&#45;&gt;Node6</title>
<g id="a_edge5_Node000002_Node000006"><a xlink:title=" ">
<path fill="none" stroke="#63b8ff" d="M487.68,-294.98C534.69,-285.41 604.16,-271.27 654.11,-261.1"/>
<polygon fill="#63b8ff" stroke="#63b8ff" points="655.04,-264.48 664.15,-259.06 653.65,-257.62 655.04,-264.48"/>
</a>
</g>
</g>
<!-- Node7 -->
<g id="Node000007" class="node">
<title>Node7</title>
<g id="a_Node000007"><a xlink:title=" ">
<polygon fill="#e0e0e0" stroke="#999999" points="122,-259 0,-259 0,-236 122,-236 122,-259"/>
<text text-anchor="middle" x="61" y="-243.8" font-family="Arial" font-size="14.00">freertos/semphr.h</text>
</a>
</g>
</g>
<!-- Node2&#45;&gt;Node7 -->
<g id="edge6_Node000002_Node000007" class="edge">
<title>Node2&#45;&gt;Node7</title>
<g id="a_edge6_Node000002_Node000007"><a xlink:title=" ">
<path fill="none" stroke="#63b8ff" d="M375.33,-296.28C308.95,-286.19 202.63,-270.03 132.31,-259.34"/>
<polygon fill="#63b8ff" stroke="#63b8ff" points="132.61,-255.85 122.2,-257.8 131.56,-262.77 132.61,-255.85"/>
</a>
</g>
</g>
<!-- Node8 -->
<g id="Node000008" class="node">
<title>Node8</title>
<g id="a_Node000008"><a xlink:title=" ">
<polygon fill="#e0e0e0" stroke="#999999" points="242,-259 140,-259 140,-236 242,-236 242,-259"/>
<text text-anchor="middle" x="191" y="-243.8" font-family="Arial" font-size="14.00">freertos/task.h</text>
</a>
</g>
</g>
<!-- Node2&#45;&gt;Node8 -->
<g id="edge7_Node000002_Node000008" class="edge">
<title>Node2&#45;&gt;Node8</title>
<g id="a_edge7_Node000002_Node000008"><a xlink:title=" ">
<path fill="none" stroke="#63b8ff" d="M390.78,-294.98C349.99,-285.49 289.87,-271.5 246.25,-261.35"/>
<polygon fill="#63b8ff" stroke="#63b8ff" points="246.91,-257.91 236.37,-259.06 245.32,-264.73 246.91,-257.91"/>
</a>
</g>
</g>
<!-- Node9 -->
<g id="Node000009" class="node">
<title>Node9</title>
<g id="a_Node000009"><a xlink:href="HardwareTypes_8h.html" target="_top" xlink:title="Platform&#45;agnostic hardware type definitions for the HardFOC system.">
<polygon fill="white" stroke="#666666" points="1129,-82 1007,-82 1007,-59 1129,-59 1129,-82"/>
<text text-anchor="middle" x="1068" y="-66.8" font-family="Arial" font-size="14.00">HardwareTypes.h</text>
</a>
</g>
</g>
<!-- Node2&#45;&gt;Node9 -->
<g id="edge8_Node000002_Node000009" class="edge">
<title>Node2&#45;&gt;Node9</title>
<g id="a_edge8_Node000002_Node000009"><a xlink:title=" ">
<path fill="none" stroke="#63b8ff" d="M417.83,-294.87C396.79,-281.2 366.94,-256.77 383,-236 510.54,-71.08 633.84,-164.81 837,-118 891.97,-105.33 954.73,-92.82 1000.95,-83.97"/>
<polygon fill="#63b8ff" stroke="#63b8ff" points="1001.68,-87.4 1010.85,-82.09 1000.37,-80.52 1001.68,-87.4"/>
</a>
</g>
</g>
<!-- Node2&#45;&gt;Node12 -->
<g id="edge11_Node000002_Node000012" class="edge">
<title>Node2&#45;&gt;Node12</title>
<g id="a_edge11_Node000002_Node000012"><a xlink:title=" ">
<path fill="none" stroke="#63b8ff" d="M496.84,-297.45C571.09,-287.63 697.12,-270.97 781.2,-259.85"/>
<polygon fill="#63b8ff" stroke="#63b8ff" points="781.78,-263.3 791.24,-258.52 780.86,-256.36 781.78,-263.3"/>
</a>
</g>
</g>
<!-- Node10 -->
<g id="Node000010" class="node">
<title>Node10</title>
<g id="a_Node000010"><a xlink:title=" ">
<polygon fill="#e0e0e0" stroke="#999999" points="1185,-23 1129,-23 1129,0 1185,0 1185,-23"/>
<text text-anchor="middle" x="1157" y="-7.8" font-family="Arial" font-size="14.00">cstdint</text>
</a>
</g>
</g>
<!-- Node9&#45;&gt;Node10 -->
<g id="edge9_Node000009_Node000010" class="edge">
<title>Node9&#45;&gt;Node10</title>
<g id="a_edge9_Node000009_Node000010"><a xlink:title=" ">
<path fill="none" stroke="#63b8ff" d="M1084.74,-58.78C1097.92,-50.34 1116.5,-38.44 1131.52,-28.82"/>
<polygon fill="#63b8ff" stroke="#63b8ff" points="1133.8,-31.51 1140.33,-23.17 1130.03,-25.62 1133.8,-31.51"/>
</a>
</g>
</g>
<!-- Node11 -->
<g id="Node000011" class="node">
<title>Node11</title>
<g id="a_Node000011"><a xlink:title=" ">
<polygon fill="#e0e0e0" stroke="#999999" points="1092,-23 1044,-23 1044,0 1092,0 1092,-23"/>
<text text-anchor="middle" x="1068" y="-7.8" font-family="Arial" font-size="14.00">limits</text>
</a>
</g>
</g>
<!-- Node9&#45;&gt;Node11 -->
<g id="edge10_Node000009_Node000011" class="edge">
<title>Node9&#45;&gt;Node11</title>
<g id="a_edge10_Node000009_Node000011"><a xlink:title=" ">
<path fill="none" stroke="#63b8ff" d="M1068,-58.78C1068,-51.61 1068,-41.95 1068,-33.31"/>
<polygon fill="#63b8ff" stroke="#63b8ff" points="1071.5,-33.17 1068,-23.17 1064.5,-33.17 1071.5,-33.17"/>
</a>
</g>
</g>
<!-- Node13 -->
<g id="Node000013" class="node">
<title>Node13</title>
<g id="a_Node000013"><a xlink:title=" ">
<polygon fill="#e0e0e0" stroke="#999999" points="726.5,-200 635.5,-200 635.5,-177 726.5,-177 726.5,-200"/>
<text text-anchor="middle" x="681" y="-184.8" font-family="Arial" font-size="14.00">driver/gpio.h</text>
</a>
</g>
</g>
<!-- Node12&#45;&gt;Node13 -->
<g id="edge12_Node000012_Node000013" class="edge">
<title>Node12&#45;&gt;Node13</title>
<g id="a_edge12_Node000012_Node000013"><a xlink:title=" ">
<path fill="none" stroke="#63b8ff" d="M832.45,-235.91C802.17,-226.63 758,-213.1 725.16,-203.03"/>
<polygon fill="#63b8ff" stroke="#63b8ff" points="725.95,-199.61 715.36,-200.03 723.9,-206.31 725.95,-199.61"/>
</a>
</g>
</g>
<!-- Node14 -->
<g id="Node000014" class="node">
<title>Node14</title>
<g id="a_Node000014"><a xlink:title=" ">
<polygon fill="#e0e0e0" stroke="#999999" points="821,-200 745,-200 745,-177 821,-177 821,-200"/>
<text text-anchor="middle" x="783" y="-184.8" font-family="Arial" font-size="14.00">esp_attr.h</text>
</a>
</g>
</g>
<!-- Node12&#45;&gt;Node14 -->
<g id="edge13_Node000012_Node000014" class="edge">
<title>Node12&#45;&gt;Node14</title>
<g id="a_edge13_Node000012_Node000014"><a xlink:title=" ">
<path fill="none" stroke="#63b8ff" d="M851.2,-235.78C838.76,-227.34 821.22,-215.44 807.05,-205.82"/>
<polygon fill="#63b8ff" stroke="#63b8ff" points="808.97,-202.89 798.73,-200.17 805.04,-208.68 808.97,-202.89"/>
</a>
</g>
</g>
<!-- Node15 -->
<g id="Node000015" class="node">
<title>Node15</title>
<g id="a_Node000015"><a xlink:href="BaseGpio_8h.html" target="_top" xlink:title="Unified GPIO base class for all digital GPIO implementations.">
<polygon fill="white" stroke="#666666" points="934,-141 846,-141 846,-118 934,-118 934,-141"/>
<text text-anchor="middle" x="890" y="-125.8" font-family="Arial" font-size="14.00">BaseGpio.h</text>
</a>
</g>
</g>
<!-- Node12&#45;&gt;Node15 -->
<g id="edge14_Node000012_Node000015" class="edge">
<title>Node12&#45;&gt;Node15</title>
<g id="a_edge14_Node000012_Node000015"><a xlink:title=" ">
<path fill="none" stroke="#63b8ff" d="M878.87,-236C887.7,-227.34 899.03,-214.22 904,-200 909.68,-183.73 904.96,-164.47 899.52,-150.35"/>
<polygon fill="#63b8ff" stroke="#63b8ff" points="902.71,-148.92 895.56,-141.1 896.27,-151.67 902.71,-148.92"/>
</a>
</g>
</g>
<!-- Node17 -->
<g id="Node000017" class="node">
<title>Node17</title>
<g id="a_Node000017"><a xlink:href="EspTypes__GPIO_8h.html" target="_top" xlink:title="ESP32 GPIO type definitions for hardware abstraction.">
<polygon fill="white" stroke="#666666" points="1205,-200 1075,-200 1075,-177 1205,-177 1205,-200"/>
<text text-anchor="middle" x="1140" y="-184.8" font-family="Arial" font-size="14.00">EspTypes_GPIO.h</text>
</a>
</g>
</g>
<!-- Node12&#45;&gt;Node17 -->
<g id="edge18_Node000012_Node000017" class="edge">
<title>Node12&#45;&gt;Node17</title>
<g id="a_edge18_Node000012_Node000017"><a xlink:title=" ">
<path fill="none" stroke="#63b8ff" d="M917.39,-235.98C963.13,-226.43 1030.67,-212.33 1079.35,-202.16"/>
<polygon fill="#63b8ff" stroke="#63b8ff" points="1080.37,-205.53 1089.44,-200.06 1078.94,-198.67 1080.37,-205.53"/>
</a>
</g>
</g>
<!-- Node21 -->
<g id="Node000021" class="node">
<title>Node21</title>
<g id="a_Node000021"><a xlink:title=" ">
<polygon fill="#e0e0e0" stroke="#999999" points="895,-200 839,-200 839,-177 895,-177 895,-200"/>
<text text-anchor="middle" x="867" y="-184.8" font-family="Arial" font-size="14.00">stdio.h</text>
</a>
</g>
</g>
<!-- Node12&#45;&gt;Node21 -->
<g id="edge27_Node000012_Node000021" class="edge">
<title>Node12&#45;&gt;Node21</title>
<g id="a_edge27_Node000012_Node000021"><a xlink:title=" ">
<path fill="none" stroke="#63b8ff" d="M867,-235.78C867,-228.61 867,-218.95 867,-210.31"/>
<polygon fill="#63b8ff" stroke="#63b8ff" points="870.5,-210.17 867,-200.17 863.5,-210.17 870.5,-210.17"/>
</a>
</g>
</g>
<!-- Node15&#45;&gt;Node9 -->
<g id="edge15_Node000015_Node000009" class="edge">
<title>Node15&#45;&gt;Node9</title>
<g id="a_edge15_Node000015_Node000009"><a xlink:title=" ">
<path fill="none" stroke="#63b8ff" d="M923.06,-117.91C951.91,-108.67 993.95,-95.21 1025.33,-85.16"/>
<polygon fill="#63b8ff" stroke="#63b8ff" points="1026.66,-88.41 1035.11,-82.03 1024.52,-81.75 1026.66,-88.41"/>
</a>
</g>
</g>
<!-- Node15&#45;&gt;Node10 -->
<g id="edge16_Node000015_Node000010" class="edge">
<title>Node15&#45;&gt;Node10</title>
<g id="a_edge16_Node000015_Node000010"><a xlink:title=" ">
<path fill="none" stroke="#63b8ff" d="M887.33,-117.76C884.26,-102.6 881.36,-74.99 896,-59 927.24,-24.89 1055.49,-31.26 1101,-23 1106.8,-21.95 1112.93,-20.82 1118.93,-19.7"/>
<polygon fill="#63b8ff" stroke="#63b8ff" points="1119.62,-23.13 1128.81,-17.85 1118.34,-16.25 1119.62,-23.13"/>
</a>
</g>
</g>
<!-- Node16 -->
<g id="Node000016" class="node">
<title>Node16</title>
<g id="a_Node000016"><a xlink:title=" ">
<polygon fill="#e0e0e0" stroke="#999999" points="989,-82 905,-82 905,-59 989,-59 989,-82"/>
<text text-anchor="middle" x="947" y="-66.8" font-family="Arial" font-size="14.00">string_view</text>
</a>
</g>
</g>
<!-- Node15&#45;&gt;Node16 -->
<g id="edge17_Node000015_Node000016" class="edge">
<title>Node15&#45;&gt;Node16</title>
<g id="a_edge17_Node000015_Node000016"><a xlink:title=" ">
<path fill="none" stroke="#63b8ff" d="M900.72,-117.78C908.68,-109.82 919.73,-98.77 929.03,-89.47"/>
<polygon fill="#63b8ff" stroke="#63b8ff" points="931.73,-91.72 936.33,-82.17 926.78,-86.77 931.73,-91.72"/>
</a>
</g>
</g>
<!-- Node17&#45;&gt;Node9 -->
<g id="edge25_Node000017_Node000009" class="edge">
<title>Node17&#45;&gt;Node9</title>
<g id="a_edge25_Node000017_Node000009"><a xlink:title=" ">
<path fill="none" stroke="#63b8ff" d="M1133.36,-176.79C1121.19,-157.2 1095.2,-115.32 1079.91,-90.69"/>
<polygon fill="#63b8ff" stroke="#63b8ff" points="1082.88,-88.83 1074.63,-82.18 1076.93,-92.52 1082.88,-88.83"/>
</a>
</g>
</g>
<!-- Node17&#45;&gt;Node15 -->
<g id="edge19_Node000017_Node000015" class="edge">
<title>Node17&#45;&gt;Node15</title>
<g id="a_edge19_Node000017_Node000015"><a xlink:title=" ">
<path fill="none" stroke="#63b8ff" d="M1093.85,-176.98C1051.49,-167.32 988.69,-153 944.01,-142.81"/>
<polygon fill="#63b8ff" stroke="#63b8ff" points="944.73,-139.39 934.2,-140.58 943.17,-146.21 944.73,-139.39"/>
</a>
</g>
</g>
<!-- Node18 -->
<g id="Node000018" class="node">
<title>Node18</title>
<g id="a_Node000018"><a xlink:href="EspTypes__Base_8h.html" target="_top" xlink:title="ESP32 base type definitions for hardware abstraction.">
<polygon fill="white" stroke="#666666" points="1331.5,-141 1206.5,-141 1206.5,-118 1331.5,-118 1331.5,-141"/>
<text text-anchor="middle" x="1269" y="-125.8" font-family="Arial" font-size="14.00">EspTypes_Base.h</text>
</a>
</g>
</g>
<!-- Node17&#45;&gt;Node18 -->
<g id="edge20_Node000017_Node000018" class="edge">
<title>Node17&#45;&gt;Node18</title>
<g id="a_edge20_Node000017_Node000018"><a xlink:title=" ">
<path fill="none" stroke="#63b8ff" d="M1163.96,-176.91C1184.24,-167.95 1213.5,-155.02 1235.99,-145.09"/>
<polygon fill="#63b8ff" stroke="#63b8ff" points="1237.43,-148.27 1245.17,-141.03 1234.61,-141.87 1237.43,-148.27"/>
</a>
</g>
</g>
<!-- Node19 -->
<g id="Node000019" class="node">
<title>Node19</title>
<g id="a_Node000019"><a xlink:href="McuSelect_8h.html" target="_top" xlink:title="Centralized MCU platform selection and configuration header.">
<polygon fill="white" stroke="#666666" points="1327,-82 1185,-82 1185,-59 1327,-59 1327,-82"/>
<text text-anchor="middle" x="1256" y="-66.8" font-family="Arial" font-size="14.00">../../utils/McuSelect.h</text>
</a>
</g>
</g>
<!-- Node17&#45;&gt;Node19 -->
<g id="edge26_Node000017_Node000019" class="edge">
<title>Node17&#45;&gt;Node19</title>
<g id="a_edge26_Node000017_Node000019"><a xlink:title=" ">
<path fill="none" stroke="#63b8ff" d="M1147.83,-176.53C1158.25,-162.29 1177.61,-137.01 1197,-118 1207.98,-107.23 1221.37,-96.51 1232.61,-88.09"/>
<polygon fill="#63b8ff" stroke="#63b8ff" points="1234.73,-90.87 1240.72,-82.13 1230.59,-85.23 1234.73,-90.87"/>
</a>
</g>
</g>
<!-- Node18&#45;&gt;Node9 -->
<g id="edge22_Node000018_Node000009" class="edge">
<title>Node18&#45;&gt;Node9</title>
<g id="a_edge22_Node000018_Node000009"><a xlink:title=" ">
<path fill="none" stroke="#63b8ff" d="M1231.66,-117.91C1198.66,-108.55 1150.38,-94.86 1114.81,-84.77"/>
<polygon fill="#63b8ff" stroke="#63b8ff" points="1115.71,-81.39 1105.14,-82.03 1113.8,-88.13 1115.71,-81.39"/>
</a>
</g>
</g>
<!-- Node18&#45;&gt;Node10 -->
<g id="edge24_Node000018_Node000010" class="edge">
<title>Node18&#45;&gt;Node10</title>
<g id="a_edge24_Node000018_Node000010"><a xlink:title=" ">
<path fill="none" stroke="#63b8ff" d="M1292.5,-117.87C1318.17,-104.79 1353.43,-81.54 1336,-59 1318.97,-36.98 1242.9,-23.46 1195.57,-17.02"/>
<polygon fill="#63b8ff" stroke="#63b8ff" points="1195.74,-13.51 1185.37,-15.68 1194.83,-20.46 1195.74,-13.51"/>
</a>
</g>
</g>
<!-- Node18&#45;&gt;Node19 -->
<g id="edge21_Node000018_Node000019" class="edge">
<title>Node18&#45;&gt;Node19</title>
<g id="a_edge21_Node000018_Node000019"><a xlink:title=" ">
<path fill="none" stroke="#63b8ff" d="M1266.55,-117.78C1264.9,-110.53 1262.67,-100.74 1260.68,-92.02"/>
<polygon fill="#63b8ff" stroke="#63b8ff" points="1264.07,-91.14 1258.43,-82.17 1257.25,-92.7 1264.07,-91.14"/>
</a>
</g>
</g>
<!-- Node20 -->
<g id="Node000020" class="node">
<title>Node20</title>
<g id="a_Node000020"><a xlink:title=" ">
<polygon fill="#e0e0e0" stroke="#999999" points="1440.5,-82 1383.5,-82 1383.5,-59 1440.5,-59 1440.5,-82"/>
<text text-anchor="middle" x="1412" y="-66.8" font-family="Arial" font-size="14.00">atomic</text>
</a>
</g>
</g>
<!-- Node18&#45;&gt;Node20 -->
<g id="edge23_Node000018_Node000020" class="edge">
<title>Node18&#45;&gt;Node20</title>
<g id="a_edge23_Node000018_Node000020"><a xlink:title=" ">
<path fill="none" stroke="#63b8ff" d="M1295.56,-117.91C1318.24,-108.87 1351.05,-95.79 1376.07,-85.82"/>
<polygon fill="#63b8ff" stroke="#63b8ff" points="1377.59,-88.98 1385.58,-82.03 1374.99,-82.48 1377.59,-88.98"/>
</a>
</g>
</g>
<!-- Node22&#45;&gt;Node9 -->
<g id="edge29_Node000022_Node000009" class="edge">
<title>Node22&#45;&gt;Node9</title>
<g id="a_edge29_Node000022_Node000009"><a xlink:title=" ">
<path fill="none" stroke="#63b8ff" d="M1023.35,-117.78C1031.03,-109.82 1041.68,-98.77 1050.66,-89.47"/>
<polygon fill="#63b8ff" stroke="#63b8ff" points="1053.28,-91.8 1057.7,-82.17 1048.24,-86.94 1053.28,-91.8"/>
</a>
</g>
</g>
<!-- Node22&#45;&gt;Node10 -->
<g id="edge30_Node000022_Node000010" class="edge">
<title>Node22&#45;&gt;Node10</title>
<g id="a_edge30_Node000022_Node000010"><a xlink:title=" ">
<path fill="none" stroke="#63b8ff" d="M1074.07,-118.07C1096.93,-111.3 1121.36,-100.2 1138,-82 1150.16,-68.7 1154.65,-48.37 1156.25,-33.12"/>
<polygon fill="#63b8ff" stroke="#63b8ff" points="1159.75,-33.32 1156.98,-23.1 1152.77,-32.82 1159.75,-33.32"/>
</a>
</g>
</g>
<!-- Node22&#45;&gt;Node16 -->
<g id="edge31_Node000022_Node000016" class="edge">
<title>Node22&#45;&gt;Node16</title>
<g id="a_edge31_Node000022_Node000016"><a xlink:title=" ">
<path fill="none" stroke="#63b8ff" d="M1000.59,-117.78C991.18,-109.66 978.07,-98.33 967.17,-88.92"/>
<polygon fill="#63b8ff" stroke="#63b8ff" points="969.21,-86.06 959.36,-82.17 964.64,-91.36 969.21,-86.06"/>
</a>
</g>
</g>
<!-- Node23&#45;&gt;Node20 -->
<g id="edge45_Node000023_Node000020" class="edge">
<title>Node23&#45;&gt;Node20</title>
<g id="a_edge45_Node000023_Node000020"><a xlink:title=" ">
<path fill="none" stroke="#63b8ff" d="M1398.64,-294.84C1400.8,-258.75 1407.86,-140.75 1410.75,-92.43"/>
<polygon fill="#63b8ff" stroke="#63b8ff" points="1414.25,-92.42 1411.36,-82.23 1407.27,-92 1414.25,-92.42"/>
</a>
</g>
</g>
<!-- Node23&#45;&gt;Node22 -->
<g id="edge34_Node000023_Node000022" class="edge">
<title>Node23&#45;&gt;Node22</title>
<g id="a_edge34_Node000023_Node000022"><a xlink:title=" ">
<path fill="none" stroke="#63b8ff" d="M1321.69,-305.11C1239.4,-300.36 1110.5,-279.54 1038,-200 1025.63,-186.43 1019.27,-166.28 1016.08,-151.17"/>
<polygon fill="#63b8ff" stroke="#63b8ff" points="1019.5,-150.44 1014.27,-141.23 1012.61,-151.69 1019.5,-150.44"/>
</a>
</g>
</g>
<!-- Node24 -->
<g id="Node000024" class="node">
<title>Node24</title>
<g id="a_Node000024"><a xlink:href="PlatformMutex_8h.html" target="_top" xlink:title="Cross&#45;platform mutex and synchronization primitives with pluggable backend.">
<polygon fill="white" stroke="#666666" points="1542,-141 1426,-141 1426,-118 1542,-118 1542,-141"/>
<text text-anchor="middle" x="1484" y="-125.8" font-family="Arial" font-size="14.00">PlatformMutex.h</text>
</a>
</g>
</g>
<!-- Node23&#45;&gt;Node24 -->
<g id="edge35_Node000023_Node000024" class="edge">
<title>Node23&#45;&gt;Node24</title>
<g id="a_edge35_Node000023_Node000024"><a xlink:title=" ">
<path fill="none" stroke="#63b8ff" d="M1403.25,-294.82C1417.32,-266.19 1456.02,-187.43 1474.26,-150.33"/>
<polygon fill="#63b8ff" stroke="#63b8ff" points="1477.55,-151.56 1478.82,-141.04 1471.27,-148.47 1477.55,-151.56"/>
</a>
</g>
</g>
<!-- Node25 -->
<g id="Node000025" class="node">
<title>Node25</title>
<g id="a_Node000025"><a xlink:href="EspTypes__PWM_8h.html" target="_top" xlink:title="ESP32 PWM type definitions for LEDC peripheral hardware abstraction.">
<polygon fill="white" stroke="#666666" points="1330.5,-259 1173.5,-259 1173.5,-236 1330.5,-236 1330.5,-259"/>
<text text-anchor="middle" x="1252" y="-243.8" font-family="Arial" font-size="14.00">utils/EspTypes_PWM.h</text>
</a>
</g>
</g>
<!-- Node23&#45;&gt;Node25 -->
<g id="edge38_Node000023_Node000025" class="edge">
<title>Node23&#45;&gt;Node25</title>
<g id="a_edge38_Node000023_Node000025"><a xlink:title=" ">
<path fill="none" stroke="#63b8ff" d="M1370.88,-294.91C1347.63,-285.83 1313.93,-272.68 1288.34,-262.69"/>
<polygon fill="#63b8ff" stroke="#63b8ff" points="1289.56,-259.41 1278.97,-259.03 1287.02,-265.93 1289.56,-259.41"/>
</a>
</g>
</g>
<!-- Node23&#45;&gt;Node26 -->
<g id="edge44_Node000023_Node000026" class="edge">
<title>Node23&#45;&gt;Node26</title>
<g id="a_edge44_Node000023_Node000026"><a xlink:title=" ">
<path fill="none" stroke="#63b8ff" d="M1427.35,-294.91C1454.49,-285.12 1494.78,-270.58 1523.03,-260.4"/>
<polygon fill="#63b8ff" stroke="#63b8ff" points="1524.25,-263.67 1532.47,-256.99 1521.88,-257.09 1524.25,-263.67"/>
</a>
</g>
</g>
<!-- Node27 -->
<g id="Node000027" class="node">
<title>Node27</title>
<g id="a_Node000027"><a xlink:title=" ">
<polygon fill="#e0e0e0" stroke="#999999" points="1514,-259 1464,-259 1464,-236 1514,-236 1514,-259"/>
<text text-anchor="middle" x="1489" y="-243.8" font-family="Arial" font-size="14.00">string</text>
</a>
</g>
</g>
<!-- Node23&#45;&gt;Node27 -->
<g id="edge46_Node000023_Node000027" class="edge">
<title>Node23&#45;&gt;Node27</title>
<g id="a_edge46_Node000023_Node000027"><a xlink:title=" ">
<path fill="none" stroke="#63b8ff" d="M1415.12,-294.78C1428.72,-286.26 1447.95,-274.21 1463.38,-264.55"/>
<polygon fill="#63b8ff" stroke="#63b8ff" points="1465.34,-267.45 1471.96,-259.17 1461.63,-261.52 1465.34,-267.45"/>
</a>
</g>
</g>
<!-- Node24&#45;&gt;Node10 -->
<g id="edge37_Node000024_Node000010" class="edge">
<title>Node24&#45;&gt;Node10</title>
<g id="a_edge37_Node000024_Node000010"><a xlink:title=" ">
<path fill="none" stroke="#63b8ff" d="M1481.83,-117.81C1478.06,-102.2 1468.74,-73.43 1449,-59 1409.28,-29.97 1265.37,-18.35 1195.53,-14.33"/>
<polygon fill="#63b8ff" stroke="#63b8ff" points="1195.57,-10.83 1185.39,-13.78 1195.18,-17.82 1195.57,-10.83"/>
</a>
</g>
</g>
<!-- Node24&#45;&gt;Node20 -->
<g id="edge36_Node000024_Node000020" class="edge">
<title>Node24&#45;&gt;Node20</title>
<g id="a_edge36_Node000024_Node000020"><a xlink:title=" ">
<path fill="none" stroke="#63b8ff" d="M1470.46,-117.78C1460.1,-109.58 1445.61,-98.11 1433.65,-88.64"/>
<polygon fill="#63b8ff" stroke="#63b8ff" points="1435.49,-85.64 1425.48,-82.17 1431.15,-91.12 1435.49,-85.64"/>
</a>
</g>
</g>
<!-- Node25&#45;&gt;Node9 -->
<g id="edge40_Node000025_Node000009" class="edge">
<title>Node25&#45;&gt;Node9</title>
<g id="a_edge40_Node000025_Node000009"><a xlink:title=" ">
<path fill="none" stroke="#63b8ff" d="M1247.88,-235.7C1241.97,-221.2 1230.01,-195.15 1214,-177 1179.74,-138.15 1128.69,-105.4 1096.92,-87.13"/>
<polygon fill="#63b8ff" stroke="#63b8ff" points="1098.54,-84.02 1088.11,-82.15 1095.09,-90.12 1098.54,-84.02"/>
</a>
</g>
</g>
<!-- Node25&#45;&gt;Node17 -->
<g id="edge43_Node000025_Node000017" class="edge">
<title>Node25&#45;&gt;Node17</title>
<g id="a_edge43_Node000025_Node000017"><a xlink:title=" ">
<path fill="none" stroke="#63b8ff" d="M1231.2,-235.91C1213.91,-227.11 1189.09,-214.49 1169.71,-204.62"/>
<polygon fill="#63b8ff" stroke="#63b8ff" points="1171.19,-201.45 1160.69,-200.03 1168.02,-207.69 1171.19,-201.45"/>
</a>
</g>
</g>
<!-- Node25&#45;&gt;Node18 -->
<g id="edge42_Node000025_Node000018" class="edge">
<title>Node25&#45;&gt;Node18</title>
<g id="a_edge42_Node000025_Node000018"><a xlink:title=" ">
<path fill="none" stroke="#63b8ff" d="M1253.57,-235.79C1256.38,-216.63 1262.31,-176.15 1265.95,-151.34"/>
<polygon fill="#63b8ff" stroke="#63b8ff" points="1269.45,-151.58 1267.43,-141.18 1262.52,-150.57 1269.45,-151.58"/>
</a>
</g>
</g>
<!-- Node25&#45;&gt;Node19 -->
<g id="edge41_Node000025_Node000019" class="edge">
<title>Node25&#45;&gt;Node19</title>
<g id="a_edge41_Node000025_Node000019"><a xlink:title=" ">
<path fill="none" stroke="#63b8ff" d="M1265.42,-235.95C1286.13,-218.71 1325.05,-182.26 1340,-141 1343.48,-131.39 1345.19,-126.81 1340,-118 1331.52,-103.61 1316.81,-93.36 1302.04,-86.22"/>
<polygon fill="#63b8ff" stroke="#63b8ff" points="1303.46,-83.02 1292.9,-82.16 1300.62,-89.41 1303.46,-83.02"/>
</a>
</g>
</g>
<!-- Node25&#45;&gt;Node22 -->
<g id="edge39_Node000025_Node000022" class="edge">
<title>Node25&#45;&gt;Node22</title>
<g id="a_edge39_Node000025_Node000022"><a xlink:title=" ">
<path fill="none" stroke="#63b8ff" d="M1173.06,-238.71C1138.05,-232.37 1097.7,-220.86 1066,-200 1047,-187.49 1032.08,-165.81 1022.98,-149.98"/>
<polygon fill="#63b8ff" stroke="#63b8ff" points="1025.94,-148.11 1018.07,-141.01 1019.8,-151.47 1025.94,-148.11"/>
</a>
</g>
</g>
</g>
</svg>
