<?xml version="1.0" encoding="UTF-8" standalone="no"?>
<!DOCTYPE svg PUBLIC "-//W3C//DTD SVG 1.1//EN"
 "http://www.w3.org/Graphics/SVG/1.1/DTD/svg11.dtd">
<!-- Generated by graphviz version 2.43.0 (0)
 -->
<!-- Title: examples/esp32/main/PwmComprehensiveTest.cpp Pages: 1 -->
<svg width="1644pt" height="400pt"
 viewBox="0.00 0.00 1644.00 400.00" xmlns="http://www.w3.org/2000/svg" xmlns:xlink="http://www.w3.org/1999/xlink">
<g id="graph0" class="graph" transform="scale(1 1) rotate(0) translate(4 396)">
<title>examples/esp32/main/PwmComprehensiveTest.cpp</title>
<!-- Node1 -->
<g id="Node000001" class="node">
<title>Node1</title>
<g id="a_Node000001"><a xlink:title="Comprehensive PWM testing suite for ESP32 family (noexcept)">
<polygon fill="#999999" stroke="#666666" points="1070,-392 873,-392 873,-354 1070,-354 1070,-392"/>
<text text-anchor="start" x="881" y="-376.8" font-family="Arial" font-size="14.00">examples/esp32/main</text>
<text text-anchor="middle" x="971.5" y="-361.8" font-family="Arial" font-size="14.00">/PwmComprehensiveTest.cpp</text>
</a>
</g>
</g>
<!-- Node2 -->
<g id="Node000002" class="node">
<title>Node2</title>
<g id="a_Node000002"><a xlink:href="TestFramework_8h.html" target="_top" xlink:title="Shared testing framework for ESP32&#45;C6 comprehensive test suites.">
<polygon fill="white" stroke="#666666" points="558,-318 437,-318 437,-295 558,-295 558,-318"/>
<text text-anchor="middle" x="497.5" y="-302.8" font-family="Arial" font-size="14.00">TestFramework.h</text>
</a>
</g>
</g>
<!-- Node1&#45;&gt;Node2 -->
<g id="edge1_Node000001_Node000002" class="edge">
<title>Node1&#45;&gt;Node2</title>
<g id="a_edge1_Node000001_Node000002"><a xlink:title=" ">
<path fill="none" stroke="#63b8ff" d="M873,-358.6C782.09,-346.23 649.29,-328.15 568.4,-317.15"/>
<polygon fill="#63b8ff" stroke="#63b8ff" points="568.7,-313.66 558.32,-315.78 567.75,-320.59 568.7,-313.66"/>
</a>
</g>
</g>
<!-- Node12 -->
<g id="Node000012" class="node">
<title>Node12</title>
<g id="a_Node000012"><a xlink:href="EspGpio_8h.html" target="_top" xlink:title="Advanced MCU&#45;specific implementation of the unified BaseGpio class with ESP32C6/ESP&#45;IDF v5....">
<polygon fill="white" stroke="#666666" points="943,-259 792,-259 792,-236 943,-236 943,-259"/>
<text text-anchor="middle" x="867.5" y="-243.8" font-family="Arial" font-size="14.00">mcu/esp32/EspGpio.h</text>
</a>
</g>
</g>
<!-- Node1&#45;&gt;Node12 -->
<g id="edge32_Node000001_Node000012" class="edge">
<title>Node1&#45;&gt;Node12</title>
<g id="a_edge32_Node000001_Node000012"><a xlink:title=" ">
<path fill="none" stroke="#63b8ff" d="M956.15,-353.78C936.53,-330.47 902.73,-290.34 883.02,-266.93"/>
<polygon fill="#63b8ff" stroke="#63b8ff" points="885.57,-264.52 876.45,-259.13 880.21,-269.03 885.57,-264.52"/>
</a>
</g>
</g>
<!-- Node22 -->
<g id="Node000022" class="node">
<title>Node22</title>
<g id="a_Node000022"><a xlink:href="BasePwm_8h.html" target="_top" xlink:title="Abstract base class for PWM implementations in the HardFOC system.">
<polygon fill="white" stroke="#666666" points="1070.5,-141 948.5,-141 948.5,-118 1070.5,-118 1070.5,-141"/>
<text text-anchor="middle" x="1009.5" y="-125.8" font-family="Arial" font-size="14.00">base/BasePwm.h</text>
</a>
</g>
</g>
<!-- Node1&#45;&gt;Node22 -->
<g id="edge28_Node000001_Node000022" class="edge">
<title>Node1&#45;&gt;Node22</title>
<g id="a_edge28_Node000001_Node000022"><a xlink:title=" ">
<path fill="none" stroke="#63b8ff" d="M974.36,-353.85C981.28,-309.87 998.91,-197.8 1006.23,-151.26"/>
<polygon fill="#63b8ff" stroke="#63b8ff" points="1009.73,-151.58 1007.82,-141.16 1002.81,-150.49 1009.73,-151.58"/>
</a>
</g>
</g>
<!-- Node23 -->
<g id="Node000023" class="node">
<title>Node23</title>
<g id="a_Node000023"><a xlink:href="EspPwm_8h.html" target="_top" xlink:title="ESP32C6 LEDC (PWM) controller implementation for the HardFOC system.">
<polygon fill="white" stroke="#666666" points="1518.5,-318 1366.5,-318 1366.5,-295 1518.5,-295 1518.5,-318"/>
<text text-anchor="middle" x="1442.5" y="-302.8" font-family="Arial" font-size="14.00">mcu/esp32/EspPwm.h</text>
</a>
</g>
</g>
<!-- Node1&#45;&gt;Node23 -->
<g id="edge33_Node000001_Node000023" class="edge">
<title>Node1&#45;&gt;Node23</title>
<g id="a_edge33_Node000001_Node000023"><a xlink:title=" ">
<path fill="none" stroke="#63b8ff" d="M1070.24,-358.48C1154.83,-346.89 1275.44,-330.38 1356.23,-319.31"/>
<polygon fill="#63b8ff" stroke="#63b8ff" points="1356.93,-322.75 1366.37,-317.93 1355.98,-315.82 1356.93,-322.75"/>
</a>
</g>
</g>
<!-- Node26 -->
<g id="Node000026" class="node">
<title>Node26</title>
<g id="a_Node000026"><a xlink:title=" ">
<polygon fill="#e0e0e0" stroke="#999999" points="1636,-259 1589,-259 1589,-236 1636,-236 1636,-259"/>
<text text-anchor="middle" x="1612.5" y="-243.8" font-family="Arial" font-size="14.00">array</text>
</a>
</g>
</g>
<!-- Node1&#45;&gt;Node26 -->
<g id="edge48_Node000001_Node000026" class="edge">
<title>Node1&#45;&gt;Node26</title>
<g id="a_edge48_Node000001_Node000026"><a xlink:title=" ">
<path fill="none" stroke="#63b8ff" d="M1070.08,-369.27C1207.06,-364.32 1447.2,-351.11 1527.5,-318 1555.06,-306.63 1580.67,-283.21 1596.43,-266.71"/>
<polygon fill="#63b8ff" stroke="#63b8ff" points="1599.11,-268.97 1603.34,-259.25 1593.98,-264.21 1599.11,-268.97"/>
</a>
</g>
</g>
<!-- Node3 -->
<g id="Node000003" class="node">
<title>Node3</title>
<g id="a_Node000003"><a xlink:title=" ">
<polygon fill="#e0e0e0" stroke="#999999" points="469,-259 394,-259 394,-236 469,-236 469,-259"/>
<text text-anchor="middle" x="431.5" y="-243.8" font-family="Arial" font-size="14.00">esp_log.h</text>
</a>
</g>
</g>
<!-- Node2&#45;&gt;Node3 -->
<g id="edge2_Node000002_Node000003" class="edge">
<title>Node2&#45;&gt;Node3</title>
<g id="a_edge2_Node000002_Node000003"><a xlink:title=" ">
<path fill="none" stroke="#63b8ff" d="M485.09,-294.78C475.68,-286.66 462.57,-275.33 451.67,-265.92"/>
<polygon fill="#63b8ff" stroke="#63b8ff" points="453.71,-263.06 443.86,-259.17 449.14,-268.36 453.71,-263.06"/>
</a>
</g>
</g>
<!-- Node4 -->
<g id="Node000004" class="node">
<title>Node4</title>
<g id="a_Node000004"><a xlink:title=" ">
<polygon fill="#e0e0e0" stroke="#999999" points="613,-259 526,-259 526,-236 613,-236 613,-259"/>
<text text-anchor="middle" x="569.5" y="-243.8" font-family="Arial" font-size="14.00">esp_timer.h</text>
</a>
</g>
</g>
<!-- Node2&#45;&gt;Node4 -->
<g id="edge3_Node000002_Node000004" class="edge">
<title>Node2&#45;&gt;Node4</title>
<g id="a_edge3_Node000002_Node000004"><a xlink:title=" ">
<path fill="none" stroke="#63b8ff" d="M511.04,-294.78C521.4,-286.58 535.89,-275.11 547.85,-265.64"/>
<polygon fill="#63b8ff" stroke="#63b8ff" points="550.35,-268.12 556.02,-259.17 546.01,-262.64 550.35,-268.12"/>
</a>
</g>
</g>
<!-- Node5 -->
<g id="Node000005" class="node">
<title>Node5</title>
<g id="a_Node000005"><a xlink:title=" ">
<polygon fill="#e0e0e0" stroke="#999999" points="774,-259 631,-259 631,-236 774,-236 774,-259"/>
<text text-anchor="middle" x="702.5" y="-243.8" font-family="Arial" font-size="14.00">freertos/FreeRTOS.h</text>
</a>
</g>
</g>
<!-- Node2&#45;&gt;Node5 -->
<g id="edge4_Node000002_Node000005" class="edge">
<title>Node2&#45;&gt;Node5</title>
<g id="a_edge4_Node000002_Node000005"><a xlink:title=" ">
<path fill="none" stroke="#63b8ff" d="M535.58,-294.91C569.24,-285.55 618.48,-271.86 654.76,-261.77"/>
<polygon fill="#63b8ff" stroke="#63b8ff" points="655.93,-265.08 664.63,-259.03 654.05,-258.34 655.93,-265.08"/>
</a>
</g>
</g>
<!-- Node6 -->
<g id="Node000006" class="node">
<title>Node6</title>
<g id="a_Node000006"><a xlink:title=" ">
<polygon fill="#e0e0e0" stroke="#999999" points="115,-259 0,-259 0,-236 115,-236 115,-259"/>
<text text-anchor="middle" x="57.5" y="-243.8" font-family="Arial" font-size="14.00">freertos/queue.h</text>
</a>
</g>
</g>
<!-- Node2&#45;&gt;Node6 -->
<g id="edge5_Node000002_Node000006" class="edge">
<title>Node2&#45;&gt;Node6</title>
<g id="a_edge5_Node000002_Node000006"><a xlink:title=" ">
<path fill="none" stroke="#63b8ff" d="M436.69,-298.51C364.89,-290.13 241.59,-275.32 125.37,-259.09"/>
<polygon fill="#63b8ff" stroke="#63b8ff" points="125.62,-255.59 115.23,-257.66 124.64,-262.52 125.62,-255.59"/>
</a>
</g>
</g>
<!-- Node7 -->
<g id="Node000007" class="node">
<title>Node7</title>
<g id="a_Node000007"><a xlink:title=" ">
<polygon fill="#e0e0e0" stroke="#999999" points="255.5,-259 133.5,-259 133.5,-236 255.5,-236 255.5,-259"/>
<text text-anchor="middle" x="194.5" y="-243.8" font-family="Arial" font-size="14.00">freertos/semphr.h</text>
</a>
</g>
</g>
<!-- Node2&#45;&gt;Node7 -->
<g id="edge6_Node000002_Node000007" class="edge">
<title>Node2&#45;&gt;Node7</title>
<g id="a_edge6_Node000002_Node000007"><a xlink:title=" ">
<path fill="none" stroke="#63b8ff" d="M441.57,-294.98C390.3,-285.33 314.35,-271.05 260.2,-260.86"/>
<polygon fill="#63b8ff" stroke="#63b8ff" points="260.83,-257.42 250.36,-259.01 259.54,-264.3 260.83,-257.42"/>
</a>
</g>
</g>
<!-- Node8 -->
<g id="Node000008" class="node">
<title>Node8</title>
<g id="a_Node000008"><a xlink:title=" ">
<polygon fill="#e0e0e0" stroke="#999999" points="375.5,-259 273.5,-259 273.5,-236 375.5,-236 375.5,-259"/>
<text text-anchor="middle" x="324.5" y="-243.8" font-family="Arial" font-size="14.00">freertos/task.h</text>
</a>
</g>
</g>
<!-- Node2&#45;&gt;Node8 -->
<g id="edge7_Node000002_Node000008" class="edge">
<title>Node2&#45;&gt;Node8</title>
<g id="a_edge7_Node000002_Node000008"><a xlink:title=" ">
<path fill="none" stroke="#63b8ff" d="M465.37,-294.91C437.33,-285.67 396.47,-272.21 365.97,-262.16"/>
<polygon fill="#63b8ff" stroke="#63b8ff" points="367.06,-258.84 356.46,-259.03 364.86,-265.48 367.06,-258.84"/>
</a>
</g>
</g>
<!-- Node9 -->
<g id="Node000009" class="node">
<title>Node9</title>
<g id="a_Node000009"><a xlink:href="HardwareTypes_8h.html" target="_top" xlink:title="Platform&#45;agnostic hardware type definitions for the HardFOC system.">
<polygon fill="white" stroke="#666666" points="1150.5,-82 1028.5,-82 1028.5,-59 1150.5,-59 1150.5,-82"/>
<text text-anchor="middle" x="1089.5" y="-66.8" font-family="Arial" font-size="14.00">HardwareTypes.h</text>
</a>
</g>
</g>
<!-- Node2&#45;&gt;Node9 -->
<g id="edge8_Node000002_Node000009" class="edge">
<title>Node2&#45;&gt;Node9</title>
<g id="a_edge8_Node000002_Node000009"><a xlink:title=" ">
<path fill="none" stroke="#63b8ff" d="M497.77,-294.86C498.67,-280.06 502.32,-253.17 516.5,-236 554.35,-190.18 581.18,-198.71 636.5,-177 721.58,-143.61 744.62,-139.31 833.5,-118 895.37,-103.16 966.66,-90.58 1018.27,-82.25"/>
<polygon fill="#63b8ff" stroke="#63b8ff" points="1019,-85.68 1028.33,-80.65 1017.9,-78.77 1019,-85.68"/>
</a>
</g>
</g>
<!-- Node2&#45;&gt;Node12 -->
<g id="edge11_Node000002_Node000012" class="edge">
<title>Node2&#45;&gt;Node12</title>
<g id="a_edge11_Node000002_Node000012"><a xlink:title=" ">
<path fill="none" stroke="#63b8ff" d="M558.18,-296.15C621.3,-286.43 720.35,-271.17 789.29,-260.55"/>
<polygon fill="#63b8ff" stroke="#63b8ff" points="789.89,-264 799.24,-259.02 788.83,-257.08 789.89,-264"/>
</a>
</g>
</g>
<!-- Node10 -->
<g id="Node000010" class="node">
<title>Node10</title>
<g id="a_Node000010"><a xlink:title=" ">
<polygon fill="#e0e0e0" stroke="#999999" points="1206.5,-23 1150.5,-23 1150.5,0 1206.5,0 1206.5,-23"/>
<text text-anchor="middle" x="1178.5" y="-7.8" font-family="Arial" font-size="14.00">cstdint</text>
</a>
</g>
</g>
<!-- Node9&#45;&gt;Node10 -->
<g id="edge9_Node000009_Node000010" class="edge">
<title>Node9&#45;&gt;Node10</title>
<g id="a_edge9_Node000009_Node000010"><a xlink:title=" ">
<path fill="none" stroke="#63b8ff" d="M1106.24,-58.78C1119.42,-50.34 1138,-38.44 1153.02,-28.82"/>
<polygon fill="#63b8ff" stroke="#63b8ff" points="1155.3,-31.51 1161.83,-23.17 1151.53,-25.62 1155.3,-31.51"/>
</a>
</g>
</g>
<!-- Node11 -->
<g id="Node000011" class="node">
<title>Node11</title>
<g id="a_Node000011"><a xlink:title=" ">
<polygon fill="#e0e0e0" stroke="#999999" points="1113.5,-23 1065.5,-23 1065.5,0 1113.5,0 1113.5,-23"/>
<text text-anchor="middle" x="1089.5" y="-7.8" font-family="Arial" font-size="14.00">limits</text>
</a>
</g>
</g>
<!-- Node9&#45;&gt;Node11 -->
<g id="edge10_Node000009_Node000011" class="edge">
<title>Node9&#45;&gt;Node11</title>
<g id="a_edge10_Node000009_Node000011"><a xlink:title=" ">
<path fill="none" stroke="#63b8ff" d="M1089.5,-58.78C1089.5,-51.61 1089.5,-41.95 1089.5,-33.31"/>
<polygon fill="#63b8ff" stroke="#63b8ff" points="1093,-33.17 1089.5,-23.17 1086,-33.17 1093,-33.17"/>
</a>
</g>
</g>
<!-- Node13 -->
<g id="Node000013" class="node">
<title>Node13</title>
<g id="a_Node000013"><a xlink:title=" ">
<polygon fill="#e0e0e0" stroke="#999999" points="905,-200 814,-200 814,-177 905,-177 905,-200"/>
<text text-anchor="middle" x="859.5" y="-184.8" font-family="Arial" font-size="14.00">driver/gpio.h</text>
</a>
</g>
</g>
<!-- Node12&#45;&gt;Node13 -->
<g id="edge12_Node000012_Node000013" class="edge">
<title>Node12&#45;&gt;Node13</title>
<g id="a_edge12_Node000012_Node000013"><a xlink:title=" ">
<path fill="none" stroke="#63b8ff" d="M866,-235.78C864.99,-228.61 863.63,-218.95 862.42,-210.31"/>
<polygon fill="#63b8ff" stroke="#63b8ff" points="865.85,-209.59 861,-200.17 858.92,-210.56 865.85,-209.59"/>
</a>
</g>
</g>
<!-- Node14 -->
<g id="Node000014" class="node">
<title>Node14</title>
<g id="a_Node000014"><a xlink:title=" ">
<polygon fill="#e0e0e0" stroke="#999999" points="721.5,-200 645.5,-200 645.5,-177 721.5,-177 721.5,-200"/>
<text text-anchor="middle" x="683.5" y="-184.8" font-family="Arial" font-size="14.00">esp_attr.h</text>
</a>
</g>
</g>
<!-- Node12&#45;&gt;Node14 -->
<g id="edge13_Node000012_Node000014" class="edge">
<title>Node12&#45;&gt;Node14</title>
<g id="a_edge13_Node000012_Node000014"><a xlink:title=" ">
<path fill="none" stroke="#63b8ff" d="M833.32,-235.91C803.37,-226.63 759.67,-213.1 727.19,-203.03"/>
<polygon fill="#63b8ff" stroke="#63b8ff" points="728.08,-199.65 717.49,-200.03 726.01,-206.33 728.08,-199.65"/>
</a>
</g>
</g>
<!-- Node15 -->
<g id="Node000015" class="node">
<title>Node15</title>
<g id="a_Node000015"><a xlink:href="BaseGpio_8h.html" target="_top" xlink:title="Unified GPIO base class for all digital GPIO implementations.">
<polygon fill="white" stroke="#666666" points="930.5,-141 842.5,-141 842.5,-118 930.5,-118 930.5,-141"/>
<text text-anchor="middle" x="886.5" y="-125.8" font-family="Arial" font-size="14.00">BaseGpio.h</text>
</a>
</g>
</g>
<!-- Node12&#45;&gt;Node15 -->
<g id="edge14_Node000012_Node000015" class="edge">
<title>Node12&#45;&gt;Node15</title>
<g id="a_edge14_Node000012_Node000015"><a xlink:title=" ">
<path fill="none" stroke="#63b8ff" d="M883.09,-235.92C893.89,-227.59 907.37,-214.91 913.5,-200 920.44,-183.11 911.53,-163.72 902.13,-149.73"/>
<polygon fill="#63b8ff" stroke="#63b8ff" points="904.77,-147.4 896.05,-141.39 899.11,-151.53 904.77,-147.4"/>
</a>
</g>
</g>
<!-- Node17 -->
<g id="Node000017" class="node">
<title>Node17</title>
<g id="a_Node000017"><a xlink:href="EspTypes__GPIO_8h.html" target="_top" xlink:title="ESP32 GPIO type definitions for hardware abstraction.">
<polygon fill="white" stroke="#666666" points="1205.5,-200 1075.5,-200 1075.5,-177 1205.5,-177 1205.5,-200"/>
<text text-anchor="middle" x="1140.5" y="-184.8" font-family="Arial" font-size="14.00">EspTypes_GPIO.h</text>
</a>
</g>
</g>
<!-- Node12&#45;&gt;Node17 -->
<g id="edge18_Node000012_Node000017" class="edge">
<title>Node12&#45;&gt;Node17</title>
<g id="a_edge18_Node000012_Node000017"><a xlink:title=" ">
<path fill="none" stroke="#63b8ff" d="M917.89,-235.98C963.63,-226.43 1031.17,-212.33 1079.85,-202.16"/>
<polygon fill="#63b8ff" stroke="#63b8ff" points="1080.87,-205.53 1089.94,-200.06 1079.44,-198.67 1080.87,-205.53"/>
</a>
</g>
</g>
<!-- Node21 -->
<g id="Node000021" class="node">
<title>Node21</title>
<g id="a_Node000021"><a xlink:title=" ">
<polygon fill="#e0e0e0" stroke="#999999" points="795.5,-200 739.5,-200 739.5,-177 795.5,-177 795.5,-200"/>
<text text-anchor="middle" x="767.5" y="-184.8" font-family="Arial" font-size="14.00">stdio.h</text>
</a>
</g>
</g>
<!-- Node12&#45;&gt;Node21 -->
<g id="edge27_Node000012_Node000021" class="edge">
<title>Node12&#45;&gt;Node21</title>
<g id="a_edge27_Node000012_Node000021"><a xlink:title=" ">
<path fill="none" stroke="#63b8ff" d="M848.69,-235.78C833.61,-227.18 812.21,-214.99 795.18,-205.28"/>
<polygon fill="#63b8ff" stroke="#63b8ff" points="796.65,-202.08 786.22,-200.17 793.18,-208.17 796.65,-202.08"/>
</a>
</g>
</g>
<!-- Node15&#45;&gt;Node9 -->
<g id="edge15_Node000015_Node000009" class="edge">
<title>Node15&#45;&gt;Node9</title>
<g id="a_edge15_Node000015_Node000009"><a xlink:title=" ">
<path fill="none" stroke="#63b8ff" d="M924.21,-117.91C957.54,-108.55 1006.3,-94.86 1042.22,-84.77"/>
<polygon fill="#63b8ff" stroke="#63b8ff" points="1043.31,-88.1 1051.99,-82.03 1041.42,-81.36 1043.31,-88.1"/>
</a>
</g>
</g>
<!-- Node15&#45;&gt;Node10 -->
<g id="edge16_Node000015_Node000010" class="edge">
<title>Node15&#45;&gt;Node10</title>
<g id="a_edge16_Node000015_Node000010"><a xlink:title=" ">
<path fill="none" stroke="#63b8ff" d="M887.42,-117.92C889.38,-102.43 895.36,-73.83 913.5,-59 986.47,0.66 1029.73,-39.69 1122.5,-23 1128.3,-21.96 1134.43,-20.83 1140.43,-19.72"/>
<polygon fill="#63b8ff" stroke="#63b8ff" points="1141.13,-23.15 1150.31,-17.87 1139.84,-16.27 1141.13,-23.15"/>
</a>
</g>
</g>
<!-- Node16 -->
<g id="Node000016" class="node">
<title>Node16</title>
<g id="a_Node000016"><a xlink:title=" ">
<polygon fill="#e0e0e0" stroke="#999999" points="1006.5,-82 922.5,-82 922.5,-59 1006.5,-59 1006.5,-82"/>
<text text-anchor="middle" x="964.5" y="-66.8" font-family="Arial" font-size="14.00">string_view</text>
</a>
</g>
</g>
<!-- Node15&#45;&gt;Node16 -->
<g id="edge17_Node000015_Node000016" class="edge">
<title>Node15&#45;&gt;Node16</title>
<g id="a_edge17_Node000015_Node000016"><a xlink:title=" ">
<path fill="none" stroke="#63b8ff" d="M901.17,-117.78C912.61,-109.42 928.7,-97.66 941.8,-88.09"/>
<polygon fill="#63b8ff" stroke="#63b8ff" points="943.89,-90.9 949.89,-82.17 939.76,-85.25 943.89,-90.9"/>
</a>
</g>
</g>
<!-- Node17&#45;&gt;Node9 -->
<g id="edge25_Node000017_Node000009" class="edge">
<title>Node17&#45;&gt;Node9</title>
<g id="a_edge25_Node000017_Node000009"><a xlink:title=" ">
<path fill="none" stroke="#63b8ff" d="M1135.79,-176.79C1127.25,-157.37 1109.09,-116.06 1098.23,-91.35"/>
<polygon fill="#63b8ff" stroke="#63b8ff" points="1101.42,-89.92 1094.2,-82.18 1095.02,-92.74 1101.42,-89.92"/>
</a>
</g>
</g>
<!-- Node17&#45;&gt;Node15 -->
<g id="edge19_Node000017_Node000015" class="edge">
<title>Node17&#45;&gt;Node15</title>
<g id="a_edge19_Node000017_Node000015"><a xlink:title=" ">
<path fill="none" stroke="#63b8ff" d="M1093.62,-176.98C1050.31,-167.26 985.98,-152.82 940.53,-142.63"/>
<polygon fill="#63b8ff" stroke="#63b8ff" points="941.08,-139.16 930.56,-140.39 939.55,-145.99 941.08,-139.16"/>
</a>
</g>
</g>
<!-- Node18 -->
<g id="Node000018" class="node">
<title>Node18</title>
<g id="a_Node000018"><a xlink:href="EspTypes__Base_8h.html" target="_top" xlink:title="ESP32 base type definitions for hardware abstraction.">
<polygon fill="white" stroke="#666666" points="1290,-141 1165,-141 1165,-118 1290,-118 1290,-141"/>
<text text-anchor="middle" x="1227.5" y="-125.8" font-family="Arial" font-size="14.00">EspTypes_Base.h</text>
</a>
</g>
</g>
<!-- Node17&#45;&gt;Node18 -->
<g id="edge20_Node000017_Node000018" class="edge">
<title>Node17&#45;&gt;Node18</title>
<g id="a_edge20_Node000017_Node000018"><a xlink:title=" ">
<path fill="none" stroke="#63b8ff" d="M1156.86,-176.78C1169.74,-168.34 1187.91,-156.44 1202.59,-146.82"/>
<polygon fill="#63b8ff" stroke="#63b8ff" points="1204.76,-149.58 1211.21,-141.17 1200.93,-143.73 1204.76,-149.58"/>
</a>
</g>
</g>
<!-- Node19 -->
<g id="Node000019" class="node">
<title>Node19</title>
<g id="a_Node000019"><a xlink:href="McuSelect_8h.html" target="_top" xlink:title="Centralized MCU platform selection and configuration header.">
<polygon fill="white" stroke="#666666" points="1389.5,-82 1247.5,-82 1247.5,-59 1389.5,-59 1389.5,-82"/>
<text text-anchor="middle" x="1318.5" y="-66.8" font-family="Arial" font-size="14.00">../../utils/McuSelect.h</text>
</a>
</g>
</g>
<!-- Node17&#45;&gt;Node19 -->
<g id="edge26_Node000017_Node000019" class="edge">
<title>Node17&#45;&gt;Node19</title>
<g id="a_edge26_Node000017_Node000019"><a xlink:title=" ">
<path fill="none" stroke="#63b8ff" d="M1205.63,-182.82C1237.48,-177.27 1274.11,-165.54 1298.5,-141 1311.32,-128.1 1316.04,-107.55 1317.71,-92.14"/>
<polygon fill="#63b8ff" stroke="#63b8ff" points="1321.22,-92.23 1318.47,-82 1314.24,-91.71 1321.22,-92.23"/>
</a>
</g>
</g>
<!-- Node18&#45;&gt;Node9 -->
<g id="edge22_Node000018_Node000009" class="edge">
<title>Node18&#45;&gt;Node9</title>
<g id="a_edge22_Node000018_Node000009"><a xlink:title=" ">
<path fill="none" stroke="#63b8ff" d="M1201.87,-117.91C1180.08,-108.91 1148.6,-95.91 1124.49,-85.95"/>
<polygon fill="#63b8ff" stroke="#63b8ff" points="1125.57,-82.61 1115,-82.03 1122.9,-89.08 1125.57,-82.61"/>
</a>
</g>
</g>
<!-- Node18&#45;&gt;Node10 -->
<g id="edge24_Node000018_Node000010" class="edge">
<title>Node18&#45;&gt;Node10</title>
<g id="a_edge24_Node000018_Node000010"><a xlink:title=" ">
<path fill="none" stroke="#63b8ff" d="M1222.98,-117.79C1214.81,-98.46 1197.48,-57.42 1187.02,-32.68"/>
<polygon fill="#63b8ff" stroke="#63b8ff" points="1190.13,-31.03 1183.01,-23.18 1183.68,-33.75 1190.13,-31.03"/>
</a>
</g>
</g>
<!-- Node18&#45;&gt;Node19 -->
<g id="edge21_Node000018_Node000019" class="edge">
<title>Node18&#45;&gt;Node19</title>
<g id="a_edge21_Node000018_Node000019"><a xlink:title=" ">
<path fill="none" stroke="#63b8ff" d="M1244.62,-117.78C1258.22,-109.26 1277.45,-97.21 1292.88,-87.55"/>
<polygon fill="#63b8ff" stroke="#63b8ff" points="1294.84,-90.45 1301.46,-82.17 1291.13,-84.52 1294.84,-90.45"/>
</a>
</g>
</g>
<!-- Node20 -->
<g id="Node000020" class="node">
<title>Node20</title>
<g id="a_Node000020"><a xlink:title=" ">
<polygon fill="#e0e0e0" stroke="#999999" points="1503,-82 1446,-82 1446,-59 1503,-59 1503,-82"/>
<text text-anchor="middle" x="1474.5" y="-66.8" font-family="Arial" font-size="14.00">atomic</text>
</a>
</g>
</g>
<!-- Node18&#45;&gt;Node20 -->
<g id="edge23_Node000018_Node000020" class="edge">
<title>Node18&#45;&gt;Node20</title>
<g id="a_edge23_Node000018_Node000020"><a xlink:title=" ">
<path fill="none" stroke="#63b8ff" d="M1273.09,-117.98C1319.91,-107.18 1391.96,-90.55 1436,-80.38"/>
<polygon fill="#63b8ff" stroke="#63b8ff" points="1436.8,-83.79 1445.76,-78.13 1435.23,-76.97 1436.8,-83.79"/>
</a>
</g>
</g>
<!-- Node22&#45;&gt;Node9 -->
<g id="edge29_Node000022_Node000009" class="edge">
<title>Node22&#45;&gt;Node9</title>
<g id="a_edge29_Node000022_Node000009"><a xlink:title=" ">
<path fill="none" stroke="#63b8ff" d="M1024.55,-117.78C1036.28,-109.42 1052.78,-97.66 1066.22,-88.09"/>
<polygon fill="#63b8ff" stroke="#63b8ff" points="1068.41,-90.83 1074.52,-82.17 1064.34,-85.13 1068.41,-90.83"/>
</a>
</g>
</g>
<!-- Node22&#45;&gt;Node10 -->
<g id="edge30_Node000022_Node000010" class="edge">
<title>Node22&#45;&gt;Node10</title>
<g id="a_edge30_Node000022_Node000010"><a xlink:title=" ">
<path fill="none" stroke="#63b8ff" d="M1070.77,-123.27C1101.23,-117.6 1136.38,-105.91 1159.5,-82 1172.02,-69.05 1176.47,-48.67 1177.96,-33.32"/>
<polygon fill="#63b8ff" stroke="#63b8ff" points="1181.46,-33.41 1178.6,-23.21 1174.48,-32.97 1181.46,-33.41"/>
</a>
</g>
</g>
<!-- Node22&#45;&gt;Node16 -->
<g id="edge31_Node000022_Node000016" class="edge">
<title>Node22&#45;&gt;Node16</title>
<g id="a_edge31_Node000022_Node000016"><a xlink:title=" ">
<path fill="none" stroke="#63b8ff" d="M1001.04,-117.78C994.88,-109.98 986.38,-99.21 979.13,-90.03"/>
<polygon fill="#63b8ff" stroke="#63b8ff" points="981.87,-87.85 972.93,-82.17 976.38,-92.19 981.87,-87.85"/>
</a>
</g>
</g>
<!-- Node23&#45;&gt;Node20 -->
<g id="edge46_Node000023_Node000020" class="edge">
<title>Node23&#45;&gt;Node20</title>
<g id="a_edge46_Node000023_Node000020"><a xlink:title=" ">
<path fill="none" stroke="#63b8ff" d="M1448.59,-294.79C1462.73,-269.21 1497.53,-202.13 1509.5,-141 1511.46,-130.97 1512.74,-127.69 1509.5,-118 1506.03,-107.62 1499.23,-97.69 1492.53,-89.7"/>
<polygon fill="#63b8ff" stroke="#63b8ff" points="1495.03,-87.24 1485.74,-82.13 1489.81,-91.91 1495.03,-87.24"/>
</a>
</g>
</g>
<!-- Node23&#45;&gt;Node22 -->
<g id="edge34_Node000023_Node000022" class="edge">
<title>Node23&#45;&gt;Node22</title>
<g id="a_edge34_Node000023_Node000022"><a xlink:title=" ">
<path fill="none" stroke="#63b8ff" d="M1366.3,-298.35C1309.7,-291.7 1231.11,-279.63 1164.5,-259 1105.05,-240.59 1080.35,-245.14 1037.5,-200 1024.67,-186.49 1017.43,-166.34 1013.54,-151.21"/>
<polygon fill="#63b8ff" stroke="#63b8ff" points="1016.91,-150.22 1011.27,-141.25 1010.08,-151.78 1016.91,-150.22"/>
</a>
</g>
</g>
<!-- Node24 -->
<g id="Node000024" class="node">
<title>Node24</title>
<g id="a_Node000024"><a xlink:href="PlatformMutex_8h.html" target="_top" xlink:title="Cross&#45;platform RTOS mutex and synchronization primitives.">
<polygon fill="white" stroke="#666666" points="1500.5,-141 1384.5,-141 1384.5,-118 1500.5,-118 1500.5,-141"/>
<text text-anchor="middle" x="1442.5" y="-125.8" font-family="Arial" font-size="14.00">PlatformMutex.h</text>
</a>
</g>
</g>
<!-- Node23&#45;&gt;Node24 -->
<g id="edge35_Node000023_Node000024" class="edge">
<title>Node23&#45;&gt;Node24</title>
<g id="a_edge35_Node000023_Node000024"><a xlink:title=" ">
<path fill="none" stroke="#63b8ff" d="M1442.5,-294.82C1442.5,-266.44 1442.5,-188.78 1442.5,-151.29"/>
<polygon fill="#63b8ff" stroke="#63b8ff" points="1446,-151.04 1442.5,-141.04 1439,-151.04 1446,-151.04"/>
</a>
</g>
</g>
<!-- Node25 -->
<g id="Node000025" class="node">
<title>Node25</title>
<g id="a_Node000025"><a xlink:href="EspTypes__PWM_8h.html" target="_top" xlink:title="ESP32 PWM type definitions for LEDC peripheral hardware abstraction.">
<polygon fill="white" stroke="#666666" points="1331,-259 1174,-259 1174,-236 1331,-236 1331,-259"/>
<text text-anchor="middle" x="1252.5" y="-243.8" font-family="Arial" font-size="14.00">utils/EspTypes_PWM.h</text>
</a>
</g>
</g>
<!-- Node23&#45;&gt;Node25 -->
<g id="edge39_Node000023_Node000025" class="edge">
<title>Node23&#45;&gt;Node25</title>
<g id="a_edge39_Node000023_Node000025"><a xlink:title=" ">
<path fill="none" stroke="#63b8ff" d="M1407.21,-294.91C1376.28,-285.63 1331.15,-272.1 1297.61,-262.03"/>
<polygon fill="#63b8ff" stroke="#63b8ff" points="1298.19,-258.55 1287.6,-259.03 1296.18,-265.26 1298.19,-258.55"/>
</a>
</g>
</g>
<!-- Node23&#45;&gt;Node26 -->
<g id="edge45_Node000023_Node000026" class="edge">
<title>Node23&#45;&gt;Node26</title>
<g id="a_edge45_Node000023_Node000026"><a xlink:title=" ">
<path fill="none" stroke="#63b8ff" d="M1474.08,-294.91C1503.93,-284.9 1548.56,-269.94 1579.02,-259.73"/>
<polygon fill="#63b8ff" stroke="#63b8ff" points="1580.39,-262.96 1588.76,-256.46 1578.17,-256.32 1580.39,-262.96"/>
</a>
</g>
</g>
<!-- Node27 -->
<g id="Node000027" class="node">
<title>Node27</title>
<g id="a_Node000027"><a xlink:title=" ">
<polygon fill="#e0e0e0" stroke="#999999" points="1570.5,-259 1520.5,-259 1520.5,-236 1570.5,-236 1570.5,-259"/>
<text text-anchor="middle" x="1545.5" y="-243.8" font-family="Arial" font-size="14.00">string</text>
</a>
</g>
</g>
<!-- Node23&#45;&gt;Node27 -->
<g id="edge47_Node000023_Node000027" class="edge">
<title>Node23&#45;&gt;Node27</title>
<g id="a_edge47_Node000023_Node000027"><a xlink:title=" ">
<path fill="none" stroke="#63b8ff" d="M1461.87,-294.78C1477.41,-286.18 1499.44,-273.99 1516.99,-264.28"/>
<polygon fill="#63b8ff" stroke="#63b8ff" points="1519.16,-267.08 1526.21,-259.17 1515.77,-260.95 1519.16,-267.08"/>
</a>
</g>
</g>
<!-- Node24&#45;&gt;Node10 -->
<g id="edge38_Node000024_Node000010" class="edge">
<title>Node24&#45;&gt;Node10</title>
<g id="a_edge38_Node000024_Node000010"><a xlink:title=" ">
<path fill="none" stroke="#63b8ff" d="M1438.85,-117.9C1432.93,-102.39 1419.73,-73.75 1398.5,-59 1343.51,-20.79 1263.45,-12.91 1216.59,-11.87"/>
<polygon fill="#63b8ff" stroke="#63b8ff" points="1216.6,-8.37 1206.56,-11.74 1216.51,-15.36 1216.6,-8.37"/>
</a>
</g>
</g>
<!-- Node24&#45;&gt;Node19 -->
<g id="edge36_Node000024_Node000019" class="edge">
<title>Node24&#45;&gt;Node19</title>
<g id="a_edge36_Node000024_Node000019"><a xlink:title=" ">
<path fill="none" stroke="#63b8ff" d="M1419.47,-117.91C1400.07,-108.99 1372.1,-96.14 1350.52,-86.22"/>
<polygon fill="#63b8ff" stroke="#63b8ff" points="1351.96,-83.03 1341.41,-82.03 1349.03,-89.39 1351.96,-83.03"/>
</a>
</g>
</g>
<!-- Node24&#45;&gt;Node20 -->
<g id="edge37_Node000024_Node000020" class="edge">
<title>Node24&#45;&gt;Node20</title>
<g id="a_edge37_Node000024_Node000020"><a xlink:title=" ">
<path fill="none" stroke="#63b8ff" d="M1448.52,-117.78C1452.72,-110.29 1458.45,-100.09 1463.46,-91.16"/>
<polygon fill="#63b8ff" stroke="#63b8ff" points="1466.66,-92.61 1468.51,-82.17 1460.56,-89.18 1466.66,-92.61"/>
</a>
</g>
</g>
<!-- Node25&#45;&gt;Node9 -->
<g id="edge41_Node000025_Node000009" class="edge">
<title>Node25&#45;&gt;Node9</title>
<g id="a_edge41_Node000025_Node000009"><a xlink:title=" ">
<path fill="none" stroke="#63b8ff" d="M1248.58,-235.51C1242.9,-220.8 1231.2,-194.52 1214.5,-177 1193.3,-154.77 1179.39,-160.3 1155.5,-141 1136.46,-125.62 1117.5,-104.96 1104.83,-90.17"/>
<polygon fill="#63b8ff" stroke="#63b8ff" points="1107.25,-87.62 1098.13,-82.23 1101.9,-92.13 1107.25,-87.62"/>
</a>
</g>
</g>
<!-- Node25&#45;&gt;Node17 -->
<g id="edge44_Node000025_Node000017" class="edge">
<title>Node25&#45;&gt;Node17</title>
<g id="a_edge44_Node000025_Node000017"><a xlink:title=" ">
<path fill="none" stroke="#63b8ff" d="M1231.7,-235.91C1214.41,-227.11 1189.59,-214.49 1170.21,-204.62"/>
<polygon fill="#63b8ff" stroke="#63b8ff" points="1171.69,-201.45 1161.19,-200.03 1168.52,-207.69 1171.69,-201.45"/>
</a>
</g>
</g>
<!-- Node25&#45;&gt;Node18 -->
<g id="edge43_Node000025_Node000018" class="edge">
<title>Node25&#45;&gt;Node18</title>
<g id="a_edge43_Node000025_Node000018"><a xlink:title=" ">
<path fill="none" stroke="#63b8ff" d="M1252.82,-235.97C1253,-222.21 1252.48,-197.45 1247.5,-177 1245.31,-167.99 1241.52,-158.52 1237.84,-150.48"/>
<polygon fill="#63b8ff" stroke="#63b8ff" points="1240.86,-148.69 1233.34,-141.23 1234.56,-151.75 1240.86,-148.69"/>
</a>
</g>
</g>
<!-- Node25&#45;&gt;Node19 -->
<g id="edge42_Node000025_Node000019" class="edge">
<title>Node25&#45;&gt;Node19</title>
<g id="a_edge42_Node000025_Node000019"><a xlink:title=" ">
<path fill="none" stroke="#63b8ff" d="M1262.26,-235.84C1277.97,-217.89 1308.23,-179.75 1319.5,-141 1324.12,-125.09 1323.5,-106.26 1321.93,-92.21"/>
<polygon fill="#63b8ff" stroke="#63b8ff" points="1325.37,-91.55 1320.55,-82.12 1318.44,-92.5 1325.37,-91.55"/>
</a>
</g>
</g>
<!-- Node25&#45;&gt;Node22 -->
<g id="edge40_Node000025_Node000022" class="edge">
<title>Node25&#45;&gt;Node22</title>
<g id="a_edge40_Node000025_Node000022"><a xlink:title=" ">
<path fill="none" stroke="#63b8ff" d="M1173.9,-238.19C1138.95,-231.74 1098.56,-220.3 1066.5,-200 1046.74,-187.49 1030.58,-165.8 1020.57,-149.97"/>
<polygon fill="#63b8ff" stroke="#63b8ff" points="1023.33,-147.76 1015.17,-141.01 1017.34,-151.38 1023.33,-147.76"/>
</a>
</g>
</g>
</g>
</svg>
