<?xml version="1.0" encoding="UTF-8" standalone="no"?>
<!DOCTYPE svg PUBLIC "-//W3C//DTD SVG 1.1//EN"
 "http://www.w3.org/Graphics/SVG/1.1/DTD/svg11.dtd">
<!-- Generated by graphviz version 2.43.0 (0)
 -->
<!-- Title: src/mcu/stm32/StmI2c.cpp Pages: 1 -->
<svg width="429pt" height="267pt"
 viewBox="0.00 0.00 429.48 267.00" xmlns="http://www.w3.org/2000/svg" xmlns:xlink="http://www.w3.org/1999/xlink">

<svg id="main" version="1.1" xmlns="http://www.w3.org/2000/svg" xmlns:xlink="http://www.w3.org/1999/xlink" xml:space="preserve" onload="init(evt)">
<style type="text/css"><![CDATA[
.node, .edge {opacity: 0.7;}
.node.selected, .edge.selected {opacity: 1;}
.edge:hover path { stroke: red; }
.edge:hover polygon { stroke: red; fill: red; }
]]></style>
<script type="application/ecmascript" xlink:href="svg.min.js"/>
<svg id="graph" class="graph">
<g id="graph0" class="graph" transform="scale(1 1) rotate(0) translate(4 263)">
<title>src/mcu/stm32/StmI2c.cpp</title>
<!-- Node1 -->
<g id="Node000001" class="node">
<title>Node1</title>
<g id="a_Node000001"><a xlink:title="STM32 I2C wrapper implementation — full STM32 HAL integration.">
<polygon fill="#999999" stroke="#666666" points="353.98,-259 175.98,-259 175.98,-236 353.98,-236 353.98,-259"/>
<text text-anchor="middle" x="264.98" y="-243.8" font-family="Arial" font-size="14.00">src/mcu/stm32/StmI2c.cpp</text>
</a>
</g>
</g>
<!-- Node2 -->
<g id="Node000002" class="node">
<title>Node2</title>
<g id="a_Node000002"><a xlink:href="StmI2c_8h.html" target="_top" xlink:title="STM32 I2C Bus+Device wrapper — wraps STM32 HAL I2C via CubeMX handle.">
<polygon fill="white" stroke="#666666" points="300.48,-200 229.48,-200 229.48,-177 300.48,-177 300.48,-200"/>
<text text-anchor="middle" x="264.98" y="-184.8" font-family="Arial" font-size="14.00">StmI2c.h</text>
</a>
</g>
</g>
<!-- Node1&#45;&gt;Node2 -->
<g id="edge1_Node000001_Node000002" class="edge">
<title>Node1&#45;&gt;Node2</title>
<g id="a_edge1_Node000001_Node000002"><a xlink:title=" ">
<path fill="none" stroke="#63b8ff" d="M264.98,-235.78C264.98,-228.61 264.98,-218.95 264.98,-210.31"/>
<polygon fill="#63b8ff" stroke="#63b8ff" points="268.48,-210.17 264.98,-200.17 261.48,-210.17 268.48,-210.17"/>
</a>
</g>
</g>
<!-- Node3 -->
<g id="Node000003" class="node">
<title>Node3</title>
<g id="a_Node000003"><a xlink:href="BaseI2c_8h.html" target="_top" xlink:title="Abstract base class for I2C device implementations in the HardFOC system.">
<polygon fill="white" stroke="#666666" points="104.48,-141 27.48,-141 27.48,-118 104.48,-118 104.48,-141"/>
<text text-anchor="middle" x="65.98" y="-125.8" font-family="Arial" font-size="14.00">BaseI2c.h</text>
</a>
</g>
</g>
<!-- Node2&#45;&gt;Node3 -->
<g id="edge2_Node000002_Node000003" class="edge">
<title>Node2&#45;&gt;Node3</title>
<g id="a_edge2_Node000002_Node000003"><a xlink:title=" ">
<path fill="none" stroke="#63b8ff" d="M229.4,-177.31C196.8,-167.97 148.33,-154.09 112.64,-143.86"/>
<polygon fill="#63b8ff" stroke="#63b8ff" points="113.51,-140.47 102.93,-141.09 111.58,-147.2 113.51,-140.47"/>
</a>
</g>
</g>
<!-- Node8 -->
<g id="Node000008" class="node">
<title>Node8</title>
<g id="a_Node000008"><a xlink:href="StmTypes_8h.html" target="_top" xlink:title="STM32 platform&#45;specific type definitions for hardware abstraction.">
<polygon fill="white" stroke="#666666" points="265.48,-141 176.48,-141 176.48,-118 265.48,-118 265.48,-141"/>
<text text-anchor="middle" x="220.98" y="-125.8" font-family="Arial" font-size="14.00">StmTypes.h</text>
</a>
</g>
</g>
<!-- Node2&#45;&gt;Node8 -->
<g id="edge8_Node000002_Node000008" class="edge">
<title>Node2&#45;&gt;Node8</title>
<g id="a_edge8_Node000002_Node000008"><a xlink:title=" ">
<path fill="none" stroke="#63b8ff" d="M256.7,-176.78C250.74,-169.06 242.54,-158.43 235.5,-149.31"/>
<polygon fill="#63b8ff" stroke="#63b8ff" points="238.1,-146.95 229.22,-141.17 232.56,-151.23 238.1,-146.95"/>
</a>
</g>
</g>
<!-- Node10 -->
<g id="Node000010" class="node">
<title>Node10</title>
<g id="a_Node000010"><a xlink:title=" ">
<polygon fill="#e0e0e0" stroke="#999999" points="336.48,-141 283.48,-141 283.48,-118 336.48,-118 336.48,-141"/>
<text text-anchor="middle" x="309.98" y="-125.8" font-family="Arial" font-size="14.00">vector</text>
</a>
</g>
</g>
<!-- Node2&#45;&gt;Node10 -->
<g id="edge12_Node000002_Node000010" class="edge">
<title>Node2&#45;&gt;Node10</title>
<g id="a_edge12_Node000002_Node000010"><a xlink:title=" ">
<path fill="none" stroke="#63b8ff" d="M273.44,-176.78C279.6,-168.98 288.1,-158.21 295.35,-149.03"/>
<polygon fill="#63b8ff" stroke="#63b8ff" points="298.1,-151.19 301.55,-141.17 292.61,-146.85 298.1,-151.19"/>
</a>
</g>
</g>
<!-- Node11 -->
<g id="Node000011" class="node">
<title>Node11</title>
<g id="a_Node000011"><a xlink:title=" ">
<polygon fill="#e0e0e0" stroke="#999999" points="421.48,-141 354.48,-141 354.48,-118 421.48,-118 421.48,-141"/>
<text text-anchor="middle" x="387.98" y="-125.8" font-family="Arial" font-size="14.00">memory</text>
</a>
</g>
</g>
<!-- Node2&#45;&gt;Node11 -->
<g id="edge13_Node000002_Node000011" class="edge">
<title>Node2&#45;&gt;Node11</title>
<g id="a_edge13_Node000002_Node000011"><a xlink:title=" ">
<path fill="none" stroke="#63b8ff" d="M287.82,-176.91C306.98,-168.03 334.56,-155.26 355.92,-145.35"/>
<polygon fill="#63b8ff" stroke="#63b8ff" points="357.65,-148.41 365.25,-141.03 354.71,-142.06 357.65,-148.41"/>
</a>
</g>
</g>
<!-- Node4 -->
<g id="Node000004" class="node">
<title>Node4</title>
<g id="a_Node000004"><a xlink:href="HardwareTypes_8h.html" target="_top" xlink:title="Platform&#45;agnostic hardware type definitions for the HardFOC system.">
<polygon fill="white" stroke="#666666" points="237.98,-82 115.98,-82 115.98,-59 237.98,-59 237.98,-82"/>
<text text-anchor="middle" x="176.98" y="-66.8" font-family="Arial" font-size="14.00">HardwareTypes.h</text>
</a>
</g>
</g>
<!-- Node3&#45;&gt;Node4 -->
<g id="edge3_Node000003_Node000004" class="edge">
<title>Node3&#45;&gt;Node4</title>
<g id="a_edge3_Node000003_Node000004"><a xlink:title=" ">
<path fill="none" stroke="#63b8ff" d="M86.59,-117.91C103.73,-109.11 128.32,-96.49 147.53,-86.62"/>
<polygon fill="#63b8ff" stroke="#63b8ff" points="149.17,-89.71 156.47,-82.03 145.97,-83.49 149.17,-89.71"/>
</a>
</g>
</g>
<!-- Node5 -->
<g id="Node000005" class="node">
<title>Node5</title>
<g id="a_Node000005"><a xlink:title=" ">
<polygon fill="#e0e0e0" stroke="#999999" points="239.98,-23 183.98,-23 183.98,0 239.98,0 239.98,-23"/>
<text text-anchor="middle" x="211.98" y="-7.8" font-family="Arial" font-size="14.00">cstdint</text>
</a>
</g>
</g>
<!-- Node3&#45;&gt;Node5 -->
<g id="edge6_Node000003_Node000005" class="edge">
<title>Node3&#45;&gt;Node5</title>
<g id="a_edge6_Node000003_Node000005"><a xlink:title=" ">
<path fill="none" stroke="#63b8ff" d="M44.97,-117.89C21.1,-104.45 -12.41,-80.45 4.98,-59 51.61,-1.46 96.2,-38.23 173.63,-22.98"/>
<polygon fill="#63b8ff" stroke="#63b8ff" points="174.75,-26.32 183.75,-20.72 173.23,-19.48 174.75,-26.32"/>
</a>
</g>
</g>
<!-- Node7 -->
<g id="Node000007" class="node">
<title>Node7</title>
<g id="a_Node000007"><a xlink:title=" ">
<polygon fill="#e0e0e0" stroke="#999999" points="97.98,-82 13.98,-82 13.98,-59 97.98,-59 97.98,-82"/>
<text text-anchor="middle" x="55.98" y="-66.8" font-family="Arial" font-size="14.00">string_view</text>
</a>
</g>
</g>
<!-- Node3&#45;&gt;Node7 -->
<g id="edge7_Node000003_Node000007" class="edge">
<title>Node3&#45;&gt;Node7</title>
<g id="a_edge7_Node000003_Node000007"><a xlink:title=" ">
<path fill="none" stroke="#63b8ff" d="M64.1,-117.78C62.84,-110.61 61.14,-100.95 59.63,-92.31"/>
<polygon fill="#63b8ff" stroke="#63b8ff" points="63.02,-91.42 57.85,-82.17 56.13,-92.63 63.02,-91.42"/>
</a>
</g>
</g>
<!-- Node4&#45;&gt;Node5 -->
<g id="edge4_Node000004_Node000005" class="edge">
<title>Node4&#45;&gt;Node5</title>
<g id="a_edge4_Node000004_Node000005"><a xlink:title=" ">
<path fill="none" stroke="#63b8ff" d="M183.56,-58.78C188.2,-51.22 194.56,-40.87 200.08,-31.88"/>
<polygon fill="#63b8ff" stroke="#63b8ff" points="203.17,-33.53 205.42,-23.17 197.21,-29.86 203.17,-33.53"/>
</a>
</g>
</g>
<!-- Node6 -->
<g id="Node000006" class="node">
<title>Node6</title>
<g id="a_Node000006"><a xlink:title=" ">
<polygon fill="#e0e0e0" stroke="#999999" points="165.98,-23 117.98,-23 117.98,0 165.98,0 165.98,-23"/>
<text text-anchor="middle" x="141.98" y="-7.8" font-family="Arial" font-size="14.00">limits</text>
</a>
</g>
</g>
<!-- Node4&#45;&gt;Node6 -->
<g id="edge5_Node000004_Node000006" class="edge">
<title>Node4&#45;&gt;Node6</title>
<g id="a_edge5_Node000004_Node000006"><a xlink:title=" ">
<path fill="none" stroke="#63b8ff" d="M170.39,-58.78C165.75,-51.22 159.4,-40.87 153.88,-31.88"/>
<polygon fill="#63b8ff" stroke="#63b8ff" points="156.75,-29.86 148.53,-23.17 150.78,-33.53 156.75,-29.86"/>
</a>
</g>
</g>
<!-- Node8&#45;&gt;Node4 -->
<g id="edge9_Node000008_Node000004" class="edge">
<title>Node8&#45;&gt;Node4</title>
<g id="a_edge9_Node000008_Node000004"><a xlink:title=" ">
<path fill="none" stroke="#63b8ff" d="M212.7,-117.78C206.74,-110.06 198.54,-99.43 191.5,-90.31"/>
<polygon fill="#63b8ff" stroke="#63b8ff" points="194.1,-87.95 185.22,-82.17 188.56,-92.23 194.1,-87.95"/>
</a>
</g>
</g>
<!-- Node8&#45;&gt;Node5 -->
<g id="edge10_Node000008_Node000005" class="edge">
<title>Node8&#45;&gt;Node5</title>
<g id="a_edge10_Node000008_Node000005"><a xlink:title=" ">
<path fill="none" stroke="#63b8ff" d="M229.81,-117.75C239.85,-104.16 254,-80.02 246.98,-59 243.51,-48.62 236.7,-38.69 230.01,-30.7"/>
<polygon fill="#63b8ff" stroke="#63b8ff" points="232.5,-28.24 223.22,-23.13 227.29,-32.91 232.5,-28.24"/>
</a>
</g>
</g>
<!-- Node9 -->
<g id="Node000009" class="node">
<title>Node9</title>
<g id="a_Node000009"><a xlink:title=" ">
<polygon fill="#e0e0e0" stroke="#999999" points="353.98,-82 293.98,-82 293.98,-59 353.98,-59 353.98,-82"/>
<text text-anchor="middle" x="323.98" y="-66.8" font-family="Arial" font-size="14.00">cstddef</text>
</a>
</g>
</g>
<!-- Node8&#45;&gt;Node9 -->
<g id="edge11_Node000008_Node000009" class="edge">
<title>Node8&#45;&gt;Node9</title>
<g id="a_edge11_Node000008_Node000009"><a xlink:title=" ">
<path fill="none" stroke="#63b8ff" d="M240.35,-117.78C255.89,-109.18 277.92,-96.99 295.47,-87.28"/>
<polygon fill="#63b8ff" stroke="#63b8ff" points="297.64,-90.08 304.69,-82.17 294.25,-83.95 297.64,-90.08"/>
</a>
</g>
</g>
</g>
</svg>
</svg>

<style type='text/css'>
<![CDATA[
[data-mouse-over-selected='false'] { opacity: 0.7; }
[data-mouse-over-selected='true']  { opacity: 1.0; }
]]>
</style>
<script type="application/ecmascript"><![CDATA[
document.addEventListener('DOMContentLoaded', (event) => {
  highlightEdges();
  highlightAdjacentNodes();
});
]]></script>
</svg>
