<?xml version="1.0" encoding="UTF-8" standalone="no"?>
<!DOCTYPE svg PUBLIC "-//W3C//DTD SVG 1.1//EN"
 "http://www.w3.org/Graphics/SVG/1.1/DTD/svg11.dtd">
<!-- Generated by graphviz version 2.43.0 (0)
 -->
<!-- Title: inc/mcu/stm32/StmTemperature.h Pages: 1 -->
<svg width="282pt" height="208pt"
 viewBox="0.00 0.00 281.50 208.00" xmlns="http://www.w3.org/2000/svg" xmlns:xlink="http://www.w3.org/1999/xlink">
<g id="graph0" class="graph" transform="scale(1 1) rotate(0) translate(4 204)">
<title>inc/mcu/stm32/StmTemperature.h</title>
<!-- Node1 -->
<g id="Node000001" class="node">
<title>Node1</title>
<g id="a_Node000001"><a xlink:title="STM32 Temperature sensor stub — placeholder for internal temp sensor integration.">
<polygon fill="#999999" stroke="#666666" points="221,-200 0,-200 0,-177 221,-177 221,-200"/>
<text text-anchor="middle" x="110.5" y="-184.8" font-family="Arial" font-size="14.00">inc/mcu/stm32/StmTemperature.h</text>
</a>
</g>
</g>
<!-- Node2 -->
<g id="Node000002" class="node">
<title>Node2</title>
<g id="a_Node000002"><a xlink:href="BaseTemperature_8h.html" target="_top" xlink:title="Abstract base class for temperature sensor implementations in the HardFOC system.">
<polygon fill="white" stroke="#666666" points="194.5,-141 26.5,-141 26.5,-118 194.5,-118 194.5,-141"/>
<text text-anchor="middle" x="110.5" y="-125.8" font-family="Arial" font-size="14.00">base/BaseTemperature.h</text>
</a>
</g>
</g>
<!-- Node1&#45;&gt;Node2 -->
<g id="edge1_Node000001_Node000002" class="edge">
<title>Node1&#45;&gt;Node2</title>
<g id="a_edge1_Node000001_Node000002"><a xlink:title=" ">
<path fill="none" stroke="#63b8ff" d="M110.5,-176.78C110.5,-169.61 110.5,-159.95 110.5,-151.31"/>
<polygon fill="#63b8ff" stroke="#63b8ff" points="114,-151.17 110.5,-141.17 107,-151.17 114,-151.17"/>
</a>
</g>
</g>
<!-- Node3 -->
<g id="Node000003" class="node">
<title>Node3</title>
<g id="a_Node000003"><a xlink:href="HardwareTypes_8h.html" target="_top" xlink:title="Platform&#45;agnostic hardware type definitions for the HardFOC system.">
<polygon fill="white" stroke="#666666" points="171.5,-82 49.5,-82 49.5,-59 171.5,-59 171.5,-82"/>
<text text-anchor="middle" x="110.5" y="-66.8" font-family="Arial" font-size="14.00">HardwareTypes.h</text>
</a>
</g>
</g>
<!-- Node2&#45;&gt;Node3 -->
<g id="edge2_Node000002_Node000003" class="edge">
<title>Node2&#45;&gt;Node3</title>
<g id="a_edge2_Node000002_Node000003"><a xlink:title=" ">
<path fill="none" stroke="#63b8ff" d="M110.5,-117.78C110.5,-110.61 110.5,-100.95 110.5,-92.31"/>
<polygon fill="#63b8ff" stroke="#63b8ff" points="114,-92.17 110.5,-82.17 107,-92.17 114,-92.17"/>
</a>
</g>
</g>
<!-- Node4 -->
<g id="Node000004" class="node">
<title>Node4</title>
<g id="a_Node000004"><a xlink:title=" ">
<polygon fill="#e0e0e0" stroke="#999999" points="59.5,-23 3.5,-23 3.5,0 59.5,0 59.5,-23"/>
<text text-anchor="middle" x="31.5" y="-7.8" font-family="Arial" font-size="14.00">cstdint</text>
</a>
</g>
</g>
<!-- Node2&#45;&gt;Node4 -->
<g id="edge5_Node000002_Node000004" class="edge">
<title>Node2&#45;&gt;Node4</title>
<g id="a_edge5_Node000002_Node000004"><a xlink:title=" ">
<path fill="none" stroke="#63b8ff" d="M84.3,-117.85C68.97,-110.2 50.67,-98.35 40.5,-82 31.48,-67.51 29.65,-48.04 29.83,-33.39"/>
<polygon fill="#63b8ff" stroke="#63b8ff" points="33.33,-33.44 30.27,-23.29 26.34,-33.13 33.33,-33.44"/>
</a>
</g>
</g>
<!-- Node6 -->
<g id="Node000006" class="node">
<title>Node6</title>
<g id="a_Node000006"><a xlink:title=" ">
<polygon fill="#e0e0e0" stroke="#999999" points="273.5,-82 189.5,-82 189.5,-59 273.5,-59 273.5,-82"/>
<text text-anchor="middle" x="231.5" y="-66.8" font-family="Arial" font-size="14.00">string_view</text>
</a>
</g>
</g>
<!-- Node2&#45;&gt;Node6 -->
<g id="edge6_Node000002_Node000006" class="edge">
<title>Node2&#45;&gt;Node6</title>
<g id="a_edge6_Node000002_Node000006"><a xlink:title=" ">
<path fill="none" stroke="#63b8ff" d="M132.98,-117.91C151.82,-109.03 178.95,-96.26 199.97,-86.35"/>
<polygon fill="#63b8ff" stroke="#63b8ff" points="201.59,-89.46 209.14,-82.03 198.61,-83.13 201.59,-89.46"/>
</a>
</g>
</g>
<!-- Node3&#45;&gt;Node4 -->
<g id="edge3_Node000003_Node000004" class="edge">
<title>Node3&#45;&gt;Node4</title>
<g id="a_edge3_Node000003_Node000004"><a xlink:title=" ">
<path fill="none" stroke="#63b8ff" d="M95.64,-58.78C84.05,-50.42 67.76,-38.66 54.49,-29.09"/>
<polygon fill="#63b8ff" stroke="#63b8ff" points="56.45,-26.19 46.29,-23.17 52.35,-31.86 56.45,-26.19"/>
</a>
</g>
</g>
<!-- Node5 -->
<g id="Node000005" class="node">
<title>Node5</title>
<g id="a_Node000005"><a xlink:title=" ">
<polygon fill="#e0e0e0" stroke="#999999" points="134.5,-23 86.5,-23 86.5,0 134.5,0 134.5,-23"/>
<text text-anchor="middle" x="110.5" y="-7.8" font-family="Arial" font-size="14.00">limits</text>
</a>
</g>
</g>
<!-- Node3&#45;&gt;Node5 -->
<g id="edge4_Node000003_Node000005" class="edge">
<title>Node3&#45;&gt;Node5</title>
<g id="a_edge4_Node000003_Node000005"><a xlink:title=" ">
<path fill="none" stroke="#63b8ff" d="M110.5,-58.78C110.5,-51.61 110.5,-41.95 110.5,-33.31"/>
<polygon fill="#63b8ff" stroke="#63b8ff" points="114,-33.17 110.5,-23.17 107,-33.17 114,-33.17"/>
</a>
</g>
</g>
</g>
</svg>
