<?xml version="1.0" encoding="UTF-8" standalone="no"?>
<!DOCTYPE svg PUBLIC "-//W3C//DTD SVG 1.1//EN"
 "http://www.w3.org/Graphics/SVG/1.1/DTD/svg11.dtd">
<!-- Generated by graphviz version 2.43.0 (0)
 -->
<!-- Title: examples/esp32/main/TemperatureComprehensiveTest.cpp Pages: 1 -->
<!--zoomable 415 -->

<svg id="main" version="1.1" xmlns="http://www.w3.org/2000/svg" xmlns:xlink="http://www.w3.org/1999/xlink" xml:space="preserve" onload="init(evt)">
<style type="text/css"><![CDATA[
.node, .edge {opacity: 0.7;}
.node.selected, .edge.selected {opacity: 1;}
.edge:hover path { stroke: red; }
.edge:hover polygon { stroke: red; fill: red; }
]]></style>

<defs>
  <circle id="rim" cx="0" cy="0" r="7"/>
  <circle id="rim2" cx="0" cy="0" r="3.5"/>
  <g id="zoomPlus">
    <use xlink:href="#rim" fill="#404040"><set attributeName="fill" to="#808080" begin="zoomplus.mouseover" end="zoomplus.mouseout"/></use>
    <path d="M-4,0h8M0,-4v8" fill="none" stroke="white" stroke-width="1.5" pointer-events="none"/>
  </g>
  <g id="zoomMin">
    <use xlink:href="#rim" fill="#404040"><set attributeName="fill" to="#808080" begin="zoomminus.mouseover" end="zoomminus.mouseout"/></use>
    <path d="M-4,0h8" fill="none" stroke="white" stroke-width="1.5" pointer-events="none"/>
  </g>
  <g id="arrowUp" transform="translate(30 24)">
    <use xlink:href="#rim"/>
    <path pointer-events="none" fill="none" stroke="white" stroke-width="1.5" d="M0,-3.0v7 M-2.5,-0.5L0,-3.0L2.5,-0.5"/>
  </g>
  <g id="arrowRight" transform="rotate(90) translate(36 -43)">
    <use xlink:href="#rim"/>
    <path pointer-events="none" fill="none" stroke="white" stroke-width="1.5" d="M0,-3.0v7 M-2.5,-0.5L0,-3.0L2.5,-0.5"/>
  </g>
  <g id="arrowDown" transform="rotate(180) translate(-30 -48)">
    <use xlink:href="#rim"/>
    <path pointer-events="none" fill="none" stroke="white" stroke-width="1.5" d="M0,-3.0v7 M-2.5,-0.5L0,-3.0L2.5,-0.5"/>
  </g>
  <g id="arrowLeft" transform="rotate(270) translate(-36 17)">
    <use xlink:href="#rim"/>
    <path pointer-events="none" fill="none" stroke="white" stroke-width="1.5" d="M0,-3.0v7 M-2.5,-0.5L0,-3.0L2.5,-0.5"/>
  </g>
  <g id="resetDef">
    <use xlink:href="#rim2" fill="#404040"><set attributeName="fill" to="#808080" begin="reset.mouseover" end="reset.mouseout"/></use>
  </g>
</defs>
<script type="application/ecmascript">
var viewWidth = 1445;
var viewHeight = 415;
var sectionId = 'dynsection-0';
</script>
<script type="application/ecmascript" xlink:href="svg.min.js"/>
<svg id="graph" class="graph">
<g id="viewport">
<title>examples/esp32/main/TemperatureComprehensiveTest.cpp</title>
<!-- Node1 -->
<g id="Node000001" class="node">
<title>Node1</title>
<g id="a_Node000001"><a xlink:title="Comprehensive Temperature sensor testing suite for ESP32&#45;C6 DevKit&#45;M&#45;1 (noexcept)">
<polygon fill="#999999" stroke="#666666" points="894.34,-407 652.34,-407 652.34,-369 894.34,-369 894.34,-407"/>
<text text-anchor="start" x="660.34" y="-391.8" font-family="Arial" font-size="14.00">examples/esp32/main</text>
<text text-anchor="middle" x="773.34" y="-376.8" font-family="Arial" font-size="14.00">/TemperatureComprehensiveTest.cpp</text>
</a>
</g>
</g>
<!-- Node2 -->
<g id="Node000002" class="node">
<title>Node2</title>
<g id="a_Node000002"><a xlink:href="TestFramework_8h.html" target="_top" xlink:title="Shared testing framework for ESP32&#45;C6 comprehensive test suites.">
<polygon fill="white" stroke="#666666" points="614.84,-333 493.84,-333 493.84,-310 614.84,-310 614.84,-333"/>
<text text-anchor="middle" x="554.34" y="-317.8" font-family="Arial" font-size="14.00">TestFramework.h</text>
</a>
</g>
</g>
<!-- Node1&#45;&gt;Node2 -->
<g id="edge1_Node000001_Node000002" class="edge">
<title>Node1&#45;&gt;Node2</title>
<g id="a_edge1_Node000001_Node000002"><a xlink:title=" ">
<path fill="none" stroke="#63b8ff" d="M712.05,-368.95C676.5,-358.48 632.48,-345.51 599.99,-335.94"/>
<polygon fill="#63b8ff" stroke="#63b8ff" points="600.88,-332.56 590.3,-333.09 598.9,-339.27 600.88,-332.56"/>
</a>
</g>
</g>
<!-- Node20 -->
<g id="Node000020" class="node">
<title>Node20</title>
<g id="a_Node000020"><a xlink:title=" ">
<polygon fill="#e0e0e0" stroke="#999999" points="1254.84,-82 1197.84,-82 1197.84,-59 1254.84,-59 1254.84,-82"/>
<text text-anchor="middle" x="1226.34" y="-66.8" font-family="Arial" font-size="14.00">atomic</text>
</a>
</g>
</g>
<!-- Node1&#45;&gt;Node20 -->
<g id="edge46_Node000001_Node000020" class="edge">
<title>Node1&#45;&gt;Node20</title>
<g id="a_edge46_Node000001_Node000020"><a xlink:title=" ">
<path fill="none" stroke="#63b8ff" d="M894.36,-387.49C1085.88,-384.97 1437.34,-365.42 1437.34,-256 1437.34,-256 1437.34,-256 1437.34,-187.5 1437.34,-151.64 1424.84,-139.77 1396.34,-118 1358.06,-88.75 1302.55,-77.89 1265.5,-73.86"/>
<polygon fill="#63b8ff" stroke="#63b8ff" points="1265.39,-70.34 1255.1,-72.86 1264.72,-77.3 1265.39,-70.34"/>
</a>
</g>
</g>
<!-- Node22 -->
<g id="Node000022" class="node">
<title>Node22</title>
<g id="a_Node000022"><a xlink:href="BaseTemperature_8h.html" target="_top" xlink:title="Abstract base class for temperature sensor implementations in the HardFOC system.">
<polygon fill="white" stroke="#666666" points="303.34,-141 135.34,-141 135.34,-118 303.34,-118 303.34,-141"/>
<text text-anchor="middle" x="219.34" y="-125.8" font-family="Arial" font-size="14.00">base/BaseTemperature.h</text>
</a>
</g>
</g>
<!-- Node1&#45;&gt;Node22 -->
<g id="edge28_Node000001_Node000022" class="edge">
<title>Node1&#45;&gt;Node22</title>
<g id="a_edge28_Node000001_Node000022"><a xlink:title=" ">
<path fill="none" stroke="#63b8ff" d="M651.96,-387.37C458.43,-385.09 93.47,-368.06 12.34,-274 -40.14,-213.15 89.36,-165.72 166.64,-143.8"/>
<polygon fill="#63b8ff" stroke="#63b8ff" points="168.02,-147.05 176.72,-141 166.14,-140.31 168.02,-147.05"/>
</a>
</g>
</g>
<!-- Node23 -->
<g id="Node000023" class="node">
<title>Node23</title>
<g id="a_Node000023"><a xlink:href="EspTemperature_8h.html" target="_top" xlink:title="ESP32&#45;C6 internal temperature sensor implementation for the HardFOC system.">
<polygon fill="white" stroke="#666666" points="1092.34,-333 894.34,-333 894.34,-310 1092.34,-310 1092.34,-333"/>
<text text-anchor="middle" x="993.34" y="-317.8" font-family="Arial" font-size="14.00">mcu/esp32/EspTemperature.h</text>
</a>
</g>
</g>
<!-- Node1&#45;&gt;Node23 -->
<g id="edge32_Node000001_Node000023" class="edge">
<title>Node1&#45;&gt;Node23</title>
<g id="a_edge32_Node000001_Node000023"><a xlink:title=" ">
<path fill="none" stroke="#63b8ff" d="M834.92,-368.95C870.63,-358.48 914.85,-345.51 947.49,-335.94"/>
<polygon fill="#63b8ff" stroke="#63b8ff" points="948.61,-339.26 957.22,-333.09 946.64,-332.54 948.61,-339.26"/>
</a>
</g>
</g>
<!-- Node3 -->
<g id="Node000003" class="node">
<title>Node3</title>
<g id="a_Node000003"><a xlink:title=" ">
<polygon fill="#e0e0e0" stroke="#999999" points="698.84,-266.5 623.84,-266.5 623.84,-243.5 698.84,-243.5 698.84,-266.5"/>
<text text-anchor="middle" x="661.34" y="-251.3" font-family="Arial" font-size="14.00">esp_log.h</text>
</a>
</g>
</g>
<!-- Node2&#45;&gt;Node3 -->
<g id="edge2_Node000002_Node000003" class="edge">
<title>Node2&#45;&gt;Node3</title>
<g id="a_edge2_Node000002_Node000003"><a xlink:title=" ">
<path fill="none" stroke="#63b8ff" d="M572.01,-309.85C589.12,-299.53 615.29,-283.76 634.89,-271.94"/>
<polygon fill="#63b8ff" stroke="#63b8ff" points="636.89,-274.83 643.65,-266.67 633.27,-268.83 636.89,-274.83"/>
</a>
</g>
</g>
<!-- Node4 -->
<g id="Node000004" class="node">
<title>Node4</title>
<g id="a_Node000004"><a xlink:title=" ">
<polygon fill="#e0e0e0" stroke="#999999" points="803.84,-266.5 716.84,-266.5 716.84,-243.5 803.84,-243.5 803.84,-266.5"/>
<text text-anchor="middle" x="760.34" y="-251.3" font-family="Arial" font-size="14.00">esp_timer.h</text>
</a>
</g>
</g>
<!-- Node2&#45;&gt;Node4 -->
<g id="edge3_Node000002_Node000004" class="edge">
<title>Node2&#45;&gt;Node4</title>
<g id="a_edge3_Node000002_Node000004"><a xlink:title=" ">
<path fill="none" stroke="#63b8ff" d="M590.87,-309.92C622.16,-300.75 668.35,-286.95 708.34,-274 712.38,-272.69 716.58,-271.3 720.77,-269.88"/>
<polygon fill="#63b8ff" stroke="#63b8ff" points="722.1,-273.12 730.44,-266.58 719.84,-266.5 722.1,-273.12"/>
</a>
</g>
</g>
<!-- Node5 -->
<g id="Node000005" class="node">
<title>Node5</title>
<g id="a_Node000005"><a xlink:title=" ">
<polygon fill="#e0e0e0" stroke="#999999" points="964.84,-266.5 821.84,-266.5 821.84,-243.5 964.84,-243.5 964.84,-266.5"/>
<text text-anchor="middle" x="893.34" y="-251.3" font-family="Arial" font-size="14.00">freertos/FreeRTOS.h</text>
</a>
</g>
</g>
<!-- Node2&#45;&gt;Node5 -->
<g id="edge4_Node000002_Node000005" class="edge">
<title>Node2&#45;&gt;Node5</title>
<g id="a_edge4_Node000002_Node000005"><a xlink:title=" ">
<path fill="none" stroke="#63b8ff" d="M614.93,-310.39C667.51,-301.44 745.61,-287.69 813.34,-274 821.38,-272.38 829.84,-270.57 838.14,-268.75"/>
<polygon fill="#63b8ff" stroke="#63b8ff" points="839.14,-272.11 848.14,-266.53 837.62,-265.28 839.14,-272.11"/>
</a>
</g>
</g>
<!-- Node6 -->
<g id="Node000006" class="node">
<title>Node6</title>
<g id="a_Node000006"><a xlink:title=" ">
<polygon fill="#e0e0e0" stroke="#999999" points="136.84,-266.5 21.84,-266.5 21.84,-243.5 136.84,-243.5 136.84,-266.5"/>
<text text-anchor="middle" x="79.34" y="-251.3" font-family="Arial" font-size="14.00">freertos/queue.h</text>
</a>
</g>
</g>
<!-- Node2&#45;&gt;Node6 -->
<g id="edge5_Node000002_Node000006" class="edge">
<title>Node2&#45;&gt;Node6</title>
<g id="a_edge5_Node000002_Node000006"><a xlink:title=" ">
<path fill="none" stroke="#63b8ff" d="M493.77,-316.43C413.73,-310.41 268.55,-297.25 146.34,-274 139.18,-272.64 131.66,-270.91 124.36,-269.08"/>
<polygon fill="#63b8ff" stroke="#63b8ff" points="125.14,-265.66 114.58,-266.52 123.37,-272.44 125.14,-265.66"/>
</a>
</g>
</g>
<!-- Node7 -->
<g id="Node000007" class="node">
<title>Node7</title>
<g id="a_Node000007"><a xlink:title=" ">
<polygon fill="#e0e0e0" stroke="#999999" points="277.34,-266.5 155.34,-266.5 155.34,-243.5 277.34,-243.5 277.34,-266.5"/>
<text text-anchor="middle" x="216.34" y="-251.3" font-family="Arial" font-size="14.00">freertos/semphr.h</text>
</a>
</g>
</g>
<!-- Node2&#45;&gt;Node7 -->
<g id="edge6_Node000002_Node000007" class="edge">
<title>Node2&#45;&gt;Node7</title>
<g id="a_edge6_Node000002_Node000007"><a xlink:title=" ">
<path fill="none" stroke="#63b8ff" d="M493.82,-310.87C440.38,-302.11 360.45,-288.39 291.34,-274 283.78,-272.43 275.82,-270.65 268.03,-268.84"/>
<polygon fill="#63b8ff" stroke="#63b8ff" points="268.82,-265.43 258.29,-266.54 267.22,-272.24 268.82,-265.43"/>
</a>
</g>
</g>
<!-- Node8 -->
<g id="Node000008" class="node">
<title>Node8</title>
<g id="a_Node000008"><a xlink:title=" ">
<polygon fill="#e0e0e0" stroke="#999999" points="605.34,-266.5 503.34,-266.5 503.34,-243.5 605.34,-243.5 605.34,-266.5"/>
<text text-anchor="middle" x="554.34" y="-251.3" font-family="Arial" font-size="14.00">freertos/task.h</text>
</a>
</g>
</g>
<!-- Node2&#45;&gt;Node8 -->
<g id="edge7_Node000002_Node000008" class="edge">
<title>Node2&#45;&gt;Node8</title>
<g id="a_edge7_Node000002_Node000008"><a xlink:title=" ">
<path fill="none" stroke="#63b8ff" d="M554.34,-309.85C554.34,-300.94 554.34,-287.96 554.34,-276.98"/>
<polygon fill="#63b8ff" stroke="#63b8ff" points="557.84,-276.88 554.34,-266.88 550.84,-276.88 557.84,-276.88"/>
</a>
</g>
</g>
<!-- Node9 -->
<g id="Node000009" class="node">
<title>Node9</title>
<g id="a_Node000009"><a xlink:href="HardwareTypes_8h.html" target="_top" xlink:title="Platform&#45;agnostic hardware type definitions for the HardFOC system.">
<polygon fill="white" stroke="#666666" points="520.34,-82 398.34,-82 398.34,-59 520.34,-59 520.34,-82"/>
<text text-anchor="middle" x="459.34" y="-66.8" font-family="Arial" font-size="14.00">HardwareTypes.h</text>
</a>
</g>
</g>
<!-- Node2&#45;&gt;Node9 -->
<g id="edge8_Node000002_Node000009" class="edge">
<title>Node2&#45;&gt;Node9</title>
<g id="a_edge8_Node000002_Node000009"><a xlink:title=" ">
<path fill="none" stroke="#63b8ff" d="M493.71,-316.6C433.24,-311.31 346.4,-299.42 325.34,-274 297.83,-240.8 305.44,-215.75 324.34,-177 345.28,-134.05 393.1,-103.46 425.82,-86.63"/>
<polygon fill="#63b8ff" stroke="#63b8ff" points="427.63,-89.64 435.03,-82.05 424.51,-83.37 427.63,-89.64"/>
</a>
</g>
</g>
<!-- Node12 -->
<g id="Node000012" class="node">
<title>Node12</title>
<g id="a_Node000012"><a xlink:href="EspGpio_8h.html" target="_top" xlink:title="Advanced MCU&#45;specific implementation of the unified BaseGpio class with ESP32C6/ESP&#45;IDF v5....">
<polygon fill="white" stroke="#666666" points="484.84,-266.5 333.84,-266.5 333.84,-243.5 484.84,-243.5 484.84,-266.5"/>
<text text-anchor="middle" x="409.34" y="-251.3" font-family="Arial" font-size="14.00">mcu/esp32/EspGpio.h</text>
</a>
</g>
</g>
<!-- Node2&#45;&gt;Node12 -->
<g id="edge11_Node000002_Node000012" class="edge">
<title>Node2&#45;&gt;Node12</title>
<g id="a_edge11_Node000002_Node000012"><a xlink:title=" ">
<path fill="none" stroke="#63b8ff" d="M530.72,-309.99C506.71,-299.31 469.3,-282.67 442.36,-270.69"/>
<polygon fill="#63b8ff" stroke="#63b8ff" points="443.51,-267.37 432.95,-266.5 440.66,-273.76 443.51,-267.37"/>
</a>
</g>
</g>
<!-- Node10 -->
<g id="Node000010" class="node">
<title>Node10</title>
<g id="a_Node000010"><a xlink:title=" ">
<polygon fill="#e0e0e0" stroke="#999999" points="576.34,-23 520.34,-23 520.34,0 576.34,0 576.34,-23"/>
<text text-anchor="middle" x="548.34" y="-7.8" font-family="Arial" font-size="14.00">cstdint</text>
</a>
</g>
</g>
<!-- Node9&#45;&gt;Node10 -->
<g id="edge9_Node000009_Node000010" class="edge">
<title>Node9&#45;&gt;Node10</title>
<g id="a_edge9_Node000009_Node000010"><a xlink:title=" ">
<path fill="none" stroke="#63b8ff" d="M476.08,-58.78C489.26,-50.34 507.84,-38.44 522.86,-28.82"/>
<polygon fill="#63b8ff" stroke="#63b8ff" points="525.14,-31.51 531.68,-23.17 521.37,-25.62 525.14,-31.51"/>
</a>
</g>
</g>
<!-- Node11 -->
<g id="Node000011" class="node">
<title>Node11</title>
<g id="a_Node000011"><a xlink:title=" ">
<polygon fill="#e0e0e0" stroke="#999999" points="483.34,-23 435.34,-23 435.34,0 483.34,0 483.34,-23"/>
<text text-anchor="middle" x="459.34" y="-7.8" font-family="Arial" font-size="14.00">limits</text>
</a>
</g>
</g>
<!-- Node9&#45;&gt;Node11 -->
<g id="edge10_Node000009_Node000011" class="edge">
<title>Node9&#45;&gt;Node11</title>
<g id="a_edge10_Node000009_Node000011"><a xlink:title=" ">
<path fill="none" stroke="#63b8ff" d="M459.34,-58.78C459.34,-51.61 459.34,-41.95 459.34,-33.31"/>
<polygon fill="#63b8ff" stroke="#63b8ff" points="462.84,-33.17 459.34,-23.17 455.84,-33.17 462.84,-33.17"/>
</a>
</g>
</g>
<!-- Node13 -->
<g id="Node000013" class="node">
<title>Node13</title>
<g id="a_Node000013"><a xlink:title=" ">
<polygon fill="#e0e0e0" stroke="#999999" points="630.84,-200 539.84,-200 539.84,-177 630.84,-177 630.84,-200"/>
<text text-anchor="middle" x="585.34" y="-184.8" font-family="Arial" font-size="14.00">driver/gpio.h</text>
</a>
</g>
</g>
<!-- Node12&#45;&gt;Node13 -->
<g id="edge12_Node000012_Node000013" class="edge">
<title>Node12&#45;&gt;Node13</title>
<g id="a_edge12_Node000012_Node000013"><a xlink:title=" ">
<path fill="none" stroke="#63b8ff" d="M438.01,-243.49C467.67,-232.62 514.16,-215.59 546.97,-203.56"/>
<polygon fill="#63b8ff" stroke="#63b8ff" points="548.5,-206.73 556.68,-200 546.09,-200.16 548.5,-206.73"/>
</a>
</g>
</g>
<!-- Node14 -->
<g id="Node000014" class="node">
<title>Node14</title>
<g id="a_Node000014"><a xlink:title=" ">
<polygon fill="#e0e0e0" stroke="#999999" points="409.34,-200 333.34,-200 333.34,-177 409.34,-177 409.34,-200"/>
<text text-anchor="middle" x="371.34" y="-184.8" font-family="Arial" font-size="14.00">esp_attr.h</text>
</a>
</g>
</g>
<!-- Node12&#45;&gt;Node14 -->
<g id="edge13_Node000012_Node000014" class="edge">
<title>Node12&#45;&gt;Node14</title>
<g id="a_edge13_Node000012_Node000014"><a xlink:title=" ">
<path fill="none" stroke="#63b8ff" d="M403.07,-243.35C397.6,-234.07 389.53,-220.37 382.9,-209.11"/>
<polygon fill="#63b8ff" stroke="#63b8ff" points="385.84,-207.22 377.75,-200.38 379.81,-210.77 385.84,-207.22"/>
</a>
</g>
</g>
<!-- Node15 -->
<g id="Node000015" class="node">
<title>Node15</title>
<g id="a_Node000015"><a xlink:href="BaseGpio_8h.html" target="_top" xlink:title="Unified GPIO base class for all digital GPIO implementations.">
<polygon fill="white" stroke="#666666" points="503.34,-141 415.34,-141 415.34,-118 503.34,-118 503.34,-141"/>
<text text-anchor="middle" x="459.34" y="-125.8" font-family="Arial" font-size="14.00">BaseGpio.h</text>
</a>
</g>
</g>
<!-- Node12&#45;&gt;Node15 -->
<g id="edge14_Node000012_Node000015" class="edge">
<title>Node12&#45;&gt;Node15</title>
<g id="a_edge14_Node000012_Node000015"><a xlink:title=" ">
<path fill="none" stroke="#63b8ff" d="M413.6,-243.47C421.94,-222.87 440.54,-176.95 451.27,-150.43"/>
<polygon fill="#63b8ff" stroke="#63b8ff" points="454.58,-151.59 455.09,-141 448.09,-148.96 454.58,-151.59"/>
</a>
</g>
</g>
<!-- Node17 -->
<g id="Node000017" class="node">
<title>Node17</title>
<g id="a_Node000017"><a xlink:href="EspTypes__GPIO_8h.html" target="_top" xlink:title="ESP32 GPIO type definitions for hardware abstraction.">
<polygon fill="white" stroke="#666666" points="984.34,-200 854.34,-200 854.34,-177 984.34,-177 984.34,-200"/>
<text text-anchor="middle" x="919.34" y="-184.8" font-family="Arial" font-size="14.00">EspTypes_GPIO.h</text>
</a>
</g>
</g>
<!-- Node12&#45;&gt;Node17 -->
<g id="edge18_Node000012_Node000017" class="edge">
<title>Node12&#45;&gt;Node17</title>
<g id="a_edge18_Node000012_Node000017"><a xlink:title=" ">
<path fill="none" stroke="#63b8ff" d="M455.06,-243.44C467.74,-240.76 481.53,-238.05 494.34,-236 616.18,-216.48 759,-202.71 844.17,-195.44"/>
<polygon fill="#63b8ff" stroke="#63b8ff" points="844.6,-198.92 854.27,-194.59 844.01,-191.94 844.6,-198.92"/>
</a>
</g>
</g>
<!-- Node21 -->
<g id="Node000021" class="node">
<title>Node21</title>
<g id="a_Node000021"><a xlink:title=" ">
<polygon fill="#e0e0e0" stroke="#999999" points="521.34,-200 465.34,-200 465.34,-177 521.34,-177 521.34,-200"/>
<text text-anchor="middle" x="493.34" y="-184.8" font-family="Arial" font-size="14.00">stdio.h</text>
</a>
</g>
</g>
<!-- Node12&#45;&gt;Node21 -->
<g id="edge27_Node000012_Node000021" class="edge">
<title>Node12&#45;&gt;Node21</title>
<g id="a_edge27_Node000012_Node000021"><a xlink:title=" ">
<path fill="none" stroke="#63b8ff" d="M423.21,-243.35C436.22,-233.36 455.9,-218.25 471.1,-206.58"/>
<polygon fill="#63b8ff" stroke="#63b8ff" points="473.65,-209.03 479.45,-200.17 469.39,-203.48 473.65,-209.03"/>
</a>
</g>
</g>
<!-- Node15&#45;&gt;Node9 -->
<g id="edge15_Node000015_Node000009" class="edge">
<title>Node15&#45;&gt;Node9</title>
<g id="a_edge15_Node000015_Node000009"><a xlink:title=" ">
<path fill="none" stroke="#63b8ff" d="M459.34,-117.78C459.34,-110.61 459.34,-100.95 459.34,-92.31"/>
<polygon fill="#63b8ff" stroke="#63b8ff" points="462.84,-92.17 459.34,-82.17 455.84,-92.17 462.84,-92.17"/>
</a>
</g>
</g>
<!-- Node15&#45;&gt;Node10 -->
<g id="edge16_Node000015_Node000010" class="edge">
<title>Node15&#45;&gt;Node10</title>
<g id="a_edge16_Node000015_Node000010"><a xlink:title=" ">
<path fill="none" stroke="#63b8ff" d="M483.74,-117.86C498.97,-110.02 517.81,-97.97 529.34,-82 539.61,-67.78 544.33,-48.28 546.5,-33.56"/>
<polygon fill="#63b8ff" stroke="#63b8ff" points="550,-33.73 547.71,-23.39 543.05,-32.91 550,-33.73"/>
</a>
</g>
</g>
<!-- Node16 -->
<g id="Node000016" class="node">
<title>Node16</title>
<g id="a_Node000016"><a xlink:title=" ">
<polygon fill="#e0e0e0" stroke="#999999" points="373.34,-82 289.34,-82 289.34,-59 373.34,-59 373.34,-82"/>
<text text-anchor="middle" x="331.34" y="-66.8" font-family="Arial" font-size="14.00">string_view</text>
</a>
</g>
</g>
<!-- Node15&#45;&gt;Node16 -->
<g id="edge17_Node000015_Node000016" class="edge">
<title>Node15&#45;&gt;Node16</title>
<g id="a_edge17_Node000015_Node000016"><a xlink:title=" ">
<path fill="none" stroke="#63b8ff" d="M435.56,-117.91C415.54,-108.99 386.67,-96.14 364.4,-86.22"/>
<polygon fill="#63b8ff" stroke="#63b8ff" points="365.55,-82.9 354.99,-82.03 362.7,-89.3 365.55,-82.9"/>
</a>
</g>
</g>
<!-- Node17&#45;&gt;Node9 -->
<g id="edge25_Node000017_Node000009" class="edge">
<title>Node17&#45;&gt;Node9</title>
<g id="a_edge25_Node000017_Node000009"><a xlink:title=" ">
<path fill="none" stroke="#63b8ff" d="M877.3,-176.9C792.86,-155.6 602.89,-107.7 511.02,-84.53"/>
<polygon fill="#63b8ff" stroke="#63b8ff" points="511.67,-81.09 501.12,-82.04 509.96,-87.87 511.67,-81.09"/>
</a>
</g>
</g>
<!-- Node17&#45;&gt;Node15 -->
<g id="edge19_Node000017_Node000015" class="edge">
<title>Node17&#45;&gt;Node15</title>
<g id="a_edge19_Node000017_Node000015"><a xlink:title=" ">
<path fill="none" stroke="#63b8ff" d="M854.25,-178.79C849.54,-178.18 844.87,-177.58 840.34,-177 723.86,-162.15 587.22,-145.71 513.36,-136.91"/>
<polygon fill="#63b8ff" stroke="#63b8ff" points="513.7,-133.42 503.36,-135.72 512.88,-140.38 513.7,-133.42"/>
</a>
</g>
</g>
<!-- Node18 -->
<g id="Node000018" class="node">
<title>Node18</title>
<g id="a_Node000018"><a xlink:href="EspTypes__Base_8h.html" target="_top" xlink:title="ESP32 base type definitions for hardware abstraction.">
<polygon fill="white" stroke="#666666" points="935.84,-141 810.84,-141 810.84,-118 935.84,-118 935.84,-141"/>
<text text-anchor="middle" x="873.34" y="-125.8" font-family="Arial" font-size="14.00">EspTypes_Base.h</text>
</a>
</g>
</g>
<!-- Node17&#45;&gt;Node18 -->
<g id="edge20_Node000017_Node000018" class="edge">
<title>Node17&#45;&gt;Node18</title>
<g id="a_edge20_Node000017_Node000018"><a xlink:title=" ">
<path fill="none" stroke="#63b8ff" d="M910.69,-176.78C904.39,-168.98 895.71,-158.21 888.3,-149.03"/>
<polygon fill="#63b8ff" stroke="#63b8ff" points="890.96,-146.76 881.95,-141.17 885.51,-151.15 890.96,-146.76"/>
</a>
</g>
</g>
<!-- Node19 -->
<g id="Node000019" class="node">
<title>Node19</title>
<g id="a_Node000019"><a xlink:href="McuSelect_8h.html" target="_top" xlink:title="Centralized MCU platform selection and configuration header.">
<polygon fill="white" stroke="#666666" points="1035.34,-82 893.34,-82 893.34,-59 1035.34,-59 1035.34,-82"/>
<text text-anchor="middle" x="964.34" y="-66.8" font-family="Arial" font-size="14.00">../../utils/McuSelect.h</text>
</a>
</g>
</g>
<!-- Node17&#45;&gt;Node19 -->
<g id="edge26_Node000017_Node000019" class="edge">
<title>Node17&#45;&gt;Node19</title>
<g id="a_edge26_Node000017_Node000019"><a xlink:title=" ">
<path fill="none" stroke="#63b8ff" d="M926.32,-176.79C932.06,-167.6 940.09,-153.84 945.34,-141 951.84,-125.1 956.84,-106.27 960.07,-92.22"/>
<polygon fill="#63b8ff" stroke="#63b8ff" points="963.56,-92.64 962.28,-82.12 956.72,-91.14 963.56,-92.64"/>
</a>
</g>
</g>
<!-- Node18&#45;&gt;Node9 -->
<g id="edge22_Node000018_Node000009" class="edge">
<title>Node18&#45;&gt;Node9</title>
<g id="a_edge22_Node000018_Node000009"><a xlink:title=" ">
<path fill="none" stroke="#63b8ff" d="M810.46,-119.84C735.24,-109.49 609.59,-92.19 530.77,-81.33"/>
<polygon fill="#63b8ff" stroke="#63b8ff" points="530.83,-77.81 520.44,-79.91 529.87,-84.74 530.83,-77.81"/>
</a>
</g>
</g>
<!-- Node18&#45;&gt;Node10 -->
<g id="edge24_Node000018_Node000010" class="edge">
<title>Node18&#45;&gt;Node10</title>
<g id="a_edge24_Node000018_Node000010"><a xlink:title=" ">
<path fill="none" stroke="#63b8ff" d="M843.64,-117.9C784.32,-96.73 651.28,-49.24 585.97,-25.93"/>
<polygon fill="#63b8ff" stroke="#63b8ff" points="587.06,-22.6 576.46,-22.54 584.71,-29.2 587.06,-22.6"/>
</a>
</g>
</g>
<!-- Node18&#45;&gt;Node19 -->
<g id="edge21_Node000018_Node000019" class="edge">
<title>Node18&#45;&gt;Node19</title>
<g id="a_edge21_Node000018_Node000019"><a xlink:title=" ">
<path fill="none" stroke="#63b8ff" d="M890.46,-117.78C904.06,-109.26 923.29,-97.21 938.72,-87.55"/>
<polygon fill="#63b8ff" stroke="#63b8ff" points="940.68,-90.45 947.3,-82.17 936.97,-84.52 940.68,-90.45"/>
</a>
</g>
</g>
<!-- Node18&#45;&gt;Node20 -->
<g id="edge23_Node000018_Node000020" class="edge">
<title>Node18&#45;&gt;Node20</title>
<g id="a_edge23_Node000018_Node000020"><a xlink:title=" ">
<path fill="none" stroke="#63b8ff" d="M936.04,-118.38C1008.9,-106.61 1126.85,-87.57 1187.53,-77.77"/>
<polygon fill="#63b8ff" stroke="#63b8ff" points="1188.16,-81.21 1197.47,-76.16 1187.04,-74.3 1188.16,-81.21"/>
</a>
</g>
</g>
<!-- Node22&#45;&gt;Node9 -->
<g id="edge29_Node000022_Node000009" class="edge">
<title>Node22&#45;&gt;Node9</title>
<g id="a_edge29_Node000022_Node000009"><a xlink:title=" ">
<path fill="none" stroke="#63b8ff" d="M263.64,-117.98C303.51,-108.51 362.24,-94.56 404.95,-84.42"/>
<polygon fill="#63b8ff" stroke="#63b8ff" points="405.97,-87.77 414.89,-82.06 404.36,-80.96 405.97,-87.77"/>
</a>
</g>
</g>
<!-- Node22&#45;&gt;Node10 -->
<g id="edge30_Node000022_Node000010" class="edge">
<title>Node22&#45;&gt;Node10</title>
<g id="a_edge30_Node000022_Node000010"><a xlink:title=" ">
<path fill="none" stroke="#63b8ff" d="M225.45,-117.75C234.98,-102.04 254.97,-73.17 280.34,-59 363.78,-12.4 398.26,-39.81 492.34,-23 498.14,-21.96 504.28,-20.84 510.27,-19.73"/>
<polygon fill="#63b8ff" stroke="#63b8ff" points="510.97,-23.16 520.16,-17.88 509.68,-16.28 510.97,-23.16"/>
</a>
</g>
</g>
<!-- Node22&#45;&gt;Node16 -->
<g id="edge31_Node000022_Node000016" class="edge">
<title>Node22&#45;&gt;Node16</title>
<g id="a_edge31_Node000022_Node000016"><a xlink:title=" ">
<path fill="none" stroke="#63b8ff" d="M240.14,-117.91C257.43,-109.11 282.25,-96.49 301.63,-86.62"/>
<polygon fill="#63b8ff" stroke="#63b8ff" points="303.32,-89.69 310.65,-82.03 300.15,-83.45 303.32,-89.69"/>
</a>
</g>
</g>
<!-- Node23&#45;&gt;Node3 -->
<g id="edge40_Node000023_Node000003" class="edge">
<title>Node23&#45;&gt;Node3</title>
<g id="a_edge40_Node000023_Node000003"><a xlink:title=" ">
<path fill="none" stroke="#63b8ff" d="M898.61,-309.97C842.66,-302.54 770.78,-290.86 708.34,-274 704.26,-272.9 700.04,-271.57 695.89,-270.14"/>
<polygon fill="#63b8ff" stroke="#63b8ff" points="696.99,-266.82 686.39,-266.68 694.59,-273.39 696.99,-266.82"/>
</a>
</g>
</g>
<!-- Node23&#45;&gt;Node4 -->
<g id="edge41_Node000023_Node000004" class="edge">
<title>Node23&#45;&gt;Node4</title>
<g id="a_edge41_Node000023_Node000004"><a xlink:title=" ">
<path fill="none" stroke="#63b8ff" d="M948.7,-309.95C912.12,-301.07 859.11,-287.66 813.34,-274 808.98,-272.7 804.44,-271.27 799.94,-269.81"/>
<polygon fill="#63b8ff" stroke="#63b8ff" points="800.8,-266.41 790.21,-266.58 798.6,-273.05 800.8,-266.41"/>
</a>
</g>
</g>
<!-- Node23&#45;&gt;Node5 -->
<g id="edge42_Node000023_Node000005" class="edge">
<title>Node23&#45;&gt;Node5</title>
<g id="a_edge42_Node000023_Node000005"><a xlink:title=" ">
<path fill="none" stroke="#63b8ff" d="M976.83,-309.85C960.9,-299.58 936.6,-283.9 918.31,-272.1"/>
<polygon fill="#63b8ff" stroke="#63b8ff" points="920.18,-269.15 909.88,-266.67 916.38,-275.03 920.18,-269.15"/>
</a>
</g>
</g>
<!-- Node23&#45;&gt;Node8 -->
<g id="edge43_Node000023_Node000008" class="edge">
<title>Node23&#45;&gt;Node8</title>
<g id="a_edge43_Node000023_Node000008"><a xlink:title=" ">
<path fill="none" stroke="#63b8ff" d="M894.32,-312.81C817.64,-305.77 709.05,-293.45 615.34,-274 609.1,-272.7 602.57,-271.08 596.2,-269.33"/>
<polygon fill="#63b8ff" stroke="#63b8ff" points="596.96,-265.91 586.38,-266.53 595.03,-272.64 596.96,-265.91"/>
</a>
</g>
</g>
<!-- Node23&#45;&gt;Node20 -->
<g id="edge44_Node000023_Node000020" class="edge">
<title>Node23&#45;&gt;Node20</title>
<g id="a_edge44_Node000023_Node000020"><a xlink:title=" ">
<path fill="none" stroke="#63b8ff" d="M1083.06,-309.99C1129.88,-302.61 1180.63,-290.99 1196.34,-274 1220.53,-247.85 1225.23,-138.48 1226.13,-92.26"/>
<polygon fill="#63b8ff" stroke="#63b8ff" points="1229.63,-92.25 1226.29,-82.2 1222.63,-92.14 1229.63,-92.25"/>
</a>
</g>
</g>
<!-- Node23&#45;&gt;Node22 -->
<g id="edge33_Node000023_Node000022" class="edge">
<title>Node23&#45;&gt;Node22</title>
<g id="a_edge33_Node000023_Node000022"><a xlink:title=" ">
<path fill="none" stroke="#63b8ff" d="M994.36,-309.91C995.45,-291.94 994.79,-255.52 974.34,-236 947.08,-209.98 677.64,-182.35 640.34,-177 528.43,-160.95 399.08,-147.41 313.62,-139.15"/>
<polygon fill="#63b8ff" stroke="#63b8ff" points="313.7,-135.64 303.41,-138.17 313.03,-142.61 313.7,-135.64"/>
</a>
</g>
</g>
<!-- Node24 -->
<g id="Node000024" class="node">
<title>Node24</title>
<g id="a_Node000024"><a xlink:href="PlatformMutex_8h.html" target="_top" xlink:title="Cross&#45;platform RTOS mutex and synchronization primitives.">
<polygon fill="white" stroke="#666666" points="1387.34,-141 1243.34,-141 1243.34,-118 1387.34,-118 1387.34,-141"/>
<text text-anchor="middle" x="1315.34" y="-125.8" font-family="Arial" font-size="14.00">utils/PlatformMutex.h</text>
</a>
</g>
</g>
<!-- Node23&#45;&gt;Node24 -->
<g id="edge34_Node000023_Node000024" class="edge">
<title>Node23&#45;&gt;Node24</title>
<g id="a_edge34_Node000023_Node000024"><a xlink:title=" ">
<path fill="none" stroke="#63b8ff" d="M1086.52,-309.98C1142.15,-302.21 1206.32,-290.18 1229.34,-274 1273.1,-243.24 1298.41,-182.46 1309.17,-150.78"/>
<polygon fill="#63b8ff" stroke="#63b8ff" points="1312.5,-151.83 1312.26,-141.24 1305.85,-149.67 1312.5,-151.83"/>
</a>
</g>
</g>
<!-- Node25 -->
<g id="Node000025" class="node">
<title>Node25</title>
<g id="a_Node000025"><a xlink:title=" ">
<polygon fill="#e0e0e0" stroke="#999999" points="1409.34,-274 1281.34,-274 1281.34,-236 1409.34,-236 1409.34,-274"/>
<text text-anchor="start" x="1289.34" y="-258.8" font-family="Arial" font-size="14.00">driver/temperature</text>
<text text-anchor="middle" x="1345.34" y="-243.8" font-family="Arial" font-size="14.00">_sensor.h</text>
</a>
</g>
</g>
<!-- Node23&#45;&gt;Node25 -->
<g id="edge38_Node000023_Node000025" class="edge">
<title>Node23&#45;&gt;Node25</title>
<g id="a_edge38_Node000023_Node000025"><a xlink:title=" ">
<path fill="none" stroke="#63b8ff" d="M1062.24,-309.96C1117.77,-301.18 1197.79,-287.91 1267.34,-274 1268.61,-273.75 1269.88,-273.49 1271.16,-273.23"/>
<polygon fill="#63b8ff" stroke="#63b8ff" points="1272.06,-276.61 1281.13,-271.13 1270.63,-269.76 1272.06,-276.61"/>
</a>
</g>
</g>
<!-- Node26 -->
<g id="Node000026" class="node">
<title>Node26</title>
<g id="a_Node000026"><a xlink:title=" ">
<polygon fill="#e0e0e0" stroke="#999999" points="1094.84,-266.5 1021.84,-266.5 1021.84,-243.5 1094.84,-243.5 1094.84,-266.5"/>
<text text-anchor="middle" x="1058.34" y="-251.3" font-family="Arial" font-size="14.00">esp_err.h</text>
</a>
</g>
</g>
<!-- Node23&#45;&gt;Node26 -->
<g id="edge39_Node000023_Node000026" class="edge">
<title>Node23&#45;&gt;Node26</title>
<g id="a_edge39_Node000023_Node000026"><a xlink:title=" ">
<path fill="none" stroke="#63b8ff" d="M1004.07,-309.85C1013.89,-300.1 1028.62,-285.49 1040.26,-273.94"/>
<polygon fill="#63b8ff" stroke="#63b8ff" points="1042.74,-276.41 1047.37,-266.88 1037.81,-271.44 1042.74,-276.41"/>
</a>
</g>
</g>
<!-- Node27 -->
<g id="Node000027" class="node">
<title>Node27</title>
<g id="a_Node000027"><a xlink:title=" ">
<polygon fill="#e0e0e0" stroke="#999999" points="1187.34,-266.5 1113.34,-266.5 1113.34,-243.5 1187.34,-243.5 1187.34,-266.5"/>
<text text-anchor="middle" x="1150.34" y="-251.3" font-family="Arial" font-size="14.00">functional</text>
</a>
</g>
</g>
<!-- Node23&#45;&gt;Node27 -->
<g id="edge45_Node000023_Node000027" class="edge">
<title>Node23&#45;&gt;Node27</title>
<g id="a_edge45_Node000023_Node000027"><a xlink:title=" ">
<path fill="none" stroke="#63b8ff" d="M1018.91,-309.99C1045.14,-299.22 1086.13,-282.38 1115.36,-270.37"/>
<polygon fill="#63b8ff" stroke="#63b8ff" points="1116.86,-273.54 1124.78,-266.5 1114.2,-267.06 1116.86,-273.54"/>
</a>
</g>
</g>
<!-- Node24&#45;&gt;Node10 -->
<g id="edge37_Node000024_Node000010" class="edge">
<title>Node24&#45;&gt;Node10</title>
<g id="a_edge37_Node000024_Node000010"><a xlink:title=" ">
<path fill="none" stroke="#63b8ff" d="M1311.12,-117.98C1304.1,-102.02 1288.36,-72.16 1264.34,-59 1204.79,-26.36 727.15,-15.59 586.92,-13.11"/>
<polygon fill="#63b8ff" stroke="#63b8ff" points="586.72,-9.61 576.66,-12.93 586.6,-16.61 586.72,-9.61"/>
</a>
</g>
</g>
<!-- Node24&#45;&gt;Node19 -->
<g id="edge35_Node000024_Node000019" class="edge">
<title>Node24&#45;&gt;Node19</title>
<g id="a_edge35_Node000024_Node000019"><a xlink:title=" ">
<path fill="none" stroke="#63b8ff" d="M1250.55,-117.98C1190.79,-108.27 1102.08,-93.87 1039.28,-83.67"/>
<polygon fill="#63b8ff" stroke="#63b8ff" points="1039.48,-80.16 1029.05,-82.01 1038.36,-87.07 1039.48,-80.16"/>
</a>
</g>
</g>
<!-- Node24&#45;&gt;Node20 -->
<g id="edge36_Node000024_Node000020" class="edge">
<title>Node24&#45;&gt;Node20</title>
<g id="a_edge36_Node000024_Node000020"><a xlink:title=" ">
<path fill="none" stroke="#63b8ff" d="M1298.6,-117.78C1285.42,-109.34 1266.84,-97.44 1251.82,-87.82"/>
<polygon fill="#63b8ff" stroke="#63b8ff" points="1253.31,-84.62 1243.01,-82.17 1249.54,-90.51 1253.31,-84.62"/>
</a>
</g>
</g>
</g>
</svg>

<g id="navigator" transform="translate(0 0)" fill="#404254">
  <rect fill="#f2f5e9" fill-opacity="0.5" stroke="#606060" stroke-width=".5" x="0" y="0" width="60" height="60"/>
  <use id="zoomplus" xlink:href="#zoomPlus" x="17" y="9" onmousedown="handleZoom(evt,'in')"/>
  <use id="zoomminus" xlink:href="#zoomMin" x="42" y="9" onmousedown="handleZoom(evt,'out')"/>
  <use id="reset" xlink:href="#resetDef" x="30" y="36" onmousedown="handleReset()"/>
   <use id="arrowup" xlink:href="#arrowUp" x="0" y="0" onmousedown="handlePan(0,-1)"/>
  <use id="arrowright" xlink:href="#arrowRight" x="0" y="0" onmousedown="handlePan(1,0)"/>
  <use id="arrowdown" xlink:href="#arrowDown" x="0" y="0" onmousedown="handlePan(0,1)"/>
  <use id="arrowleft" xlink:href="#arrowLeft" x="0" y="0" onmousedown="handlePan(-1,0)"/>
</g>
<svg viewBox="0 0 15 15" width="100%" height="30px" preserveAspectRatio="xMaxYMin meet">
 <g id="arrow_out" transform="scale(0.3 0.3)">
  <a xlink:href="TemperatureComprehensiveTest_8cpp__incl_org.svg" target="_base">
   <rect id="button" ry="5" rx="5" y="6" x="6" height="38" width="38"
        fill="#f2f5e9" fill-opacity="0.5" stroke="#606060" stroke-width="1.0"/>
   <path id="arrow"
     d="M 11.500037,31.436501 C 11.940474,20.09759 22.043105,11.32322 32.158766,21.979434 L 37.068811,17.246167 C 37.068811,17.246167 37.088388,32 37.088388,32 L 22.160133,31.978069 C 22.160133,31.978069 26.997745,27.140456 26.997745,27.140456 C 18.528582,18.264221 13.291696,25.230495 11.500037,31.436501 z"
     style="fill:#404040;"/>
  </a>
 </g>
</svg>

<style type='text/css'>
<![CDATA[
[data-mouse-over-selected='false'] { opacity: 0.7; }
[data-mouse-over-selected='true']  { opacity: 1.0; }
]]>
</style>
<script type="application/ecmascript"><![CDATA[
document.addEventListener('DOMContentLoaded', (event) => {
  highlightEdges();
  highlightAdjacentNodes();
});
]]></script>
</svg>
