<?xml version="1.0" encoding="UTF-8" standalone="no"?>
<!DOCTYPE svg PUBLIC "-//W3C//DTD SVG 1.1//EN"
 "http://www.w3.org/Graphics/SVG/1.1/DTD/svg11.dtd">
<!-- Generated by graphviz version 2.43.0 (0)
 -->
<!-- Title: inc/utils/AsciiArtGenerator.h Pages: 1 -->
<svg width="278pt" height="90pt"
 viewBox="0.00 0.00 277.50 90.00" xmlns="http://www.w3.org/2000/svg" xmlns:xlink="http://www.w3.org/1999/xlink">

<svg id="main" version="1.1" xmlns="http://www.w3.org/2000/svg" xmlns:xlink="http://www.w3.org/1999/xlink" xml:space="preserve" onload="init(evt)">
<style type="text/css"><![CDATA[
.node, .edge {opacity: 0.7;}
.node.selected, .edge.selected {opacity: 1;}
.edge:hover path { stroke: red; }
.edge:hover polygon { stroke: red; fill: red; }
]]></style>
<script type="application/ecmascript" xlink:href="svg.min.js"/>
<svg id="graph" class="graph">
<g id="graph0" class="graph" transform="scale(1 1) rotate(0) translate(4 86)">
<title>inc/utils/AsciiArtGenerator.h</title>
<!-- Node1 -->
<g id="Node000001" class="node">
<title>Node1</title>
<g id="a_Node000001"><a xlink:title="Simple ASCII art generator.">
<polygon fill="#999999" stroke="#666666" points="225.5,-82 42.5,-82 42.5,-59 225.5,-59 225.5,-82"/>
<text text-anchor="middle" x="134" y="-66.8" font-family="Arial" font-size="14.00">inc/utils/AsciiArtGenerator.h</text>
</a>
</g>
</g>
<!-- Node2 -->
<g id="Node000002" class="node">
<title>Node2</title>
<g id="a_Node000002"><a xlink:title=" ">
<polygon fill="#e0e0e0" stroke="#999999" points="44,-23 0,-23 0,0 44,0 44,-23"/>
<text text-anchor="middle" x="22" y="-7.8" font-family="Arial" font-size="14.00">map</text>
</a>
</g>
</g>
<!-- Node1&#45;&gt;Node2 -->
<g id="edge1_Node000001_Node000002" class="edge">
<title>Node1&#45;&gt;Node2</title>
<g id="a_edge1_Node000001_Node000002"><a xlink:title=" ">
<path fill="none" stroke="#63b8ff" d="M113.2,-58.91C95.91,-50.11 71.09,-37.49 51.71,-27.62"/>
<polygon fill="#63b8ff" stroke="#63b8ff" points="53.19,-24.45 42.69,-23.03 50.02,-30.69 53.19,-24.45"/>
</a>
</g>
</g>
<!-- Node3 -->
<g id="Node000003" class="node">
<title>Node3</title>
<g id="a_Node000003"><a xlink:title=" ">
<polygon fill="#e0e0e0" stroke="#999999" points="129.5,-23 62.5,-23 62.5,0 129.5,0 129.5,-23"/>
<text text-anchor="middle" x="96" y="-7.8" font-family="Arial" font-size="14.00">memory</text>
</a>
</g>
</g>
<!-- Node1&#45;&gt;Node3 -->
<g id="edge2_Node000001_Node000003" class="edge">
<title>Node1&#45;&gt;Node3</title>
<g id="a_edge2_Node000001_Node000003"><a xlink:title=" ">
<path fill="none" stroke="#63b8ff" d="M126.85,-58.78C121.76,-51.14 114.77,-40.65 108.73,-31.6"/>
<polygon fill="#63b8ff" stroke="#63b8ff" points="111.57,-29.55 103.12,-23.17 105.75,-33.44 111.57,-29.55"/>
</a>
</g>
</g>
<!-- Node4 -->
<g id="Node000004" class="node">
<title>Node4</title>
<g id="a_Node000004"><a xlink:title=" ">
<polygon fill="#e0e0e0" stroke="#999999" points="198,-23 148,-23 148,0 198,0 198,-23"/>
<text text-anchor="middle" x="173" y="-7.8" font-family="Arial" font-size="14.00">string</text>
</a>
</g>
</g>
<!-- Node1&#45;&gt;Node4 -->
<g id="edge3_Node000001_Node000004" class="edge">
<title>Node1&#45;&gt;Node4</title>
<g id="a_edge3_Node000001_Node000004"><a xlink:title=" ">
<path fill="none" stroke="#63b8ff" d="M141.34,-58.78C146.57,-51.14 153.74,-40.65 159.93,-31.6"/>
<polygon fill="#63b8ff" stroke="#63b8ff" points="162.94,-33.4 165.7,-23.17 157.16,-29.45 162.94,-33.4"/>
</a>
</g>
</g>
<!-- Node5 -->
<g id="Node000005" class="node">
<title>Node5</title>
<g id="a_Node000005"><a xlink:title=" ">
<polygon fill="#e0e0e0" stroke="#999999" points="269.5,-23 216.5,-23 216.5,0 269.5,0 269.5,-23"/>
<text text-anchor="middle" x="243" y="-7.8" font-family="Arial" font-size="14.00">vector</text>
</a>
</g>
</g>
<!-- Node1&#45;&gt;Node5 -->
<g id="edge4_Node000001_Node000005" class="edge">
<title>Node1&#45;&gt;Node5</title>
<g id="a_edge4_Node000001_Node000005"><a xlink:title=" ">
<path fill="none" stroke="#63b8ff" d="M154.25,-58.91C171,-50.15 195,-37.6 213.82,-27.76"/>
<polygon fill="#63b8ff" stroke="#63b8ff" points="215.62,-30.77 222.86,-23.03 212.38,-24.56 215.62,-30.77"/>
</a>
</g>
</g>
</g>
</svg>
</svg>

<style type='text/css'>
<![CDATA[
[data-mouse-over-selected='false'] { opacity: 0.7; }
[data-mouse-over-selected='true']  { opacity: 1.0; }
]]>
</style>
<script type="application/ecmascript"><![CDATA[
document.addEventListener('DOMContentLoaded', (event) => {
  highlightEdges();
  highlightAdjacentNodes();
});
]]></script>
</svg>
