<?xml version="1.0" encoding="UTF-8" standalone="no"?>
<!DOCTYPE svg PUBLIC "-//W3C//DTD SVG 1.1//EN"
 "http://www.w3.org/Graphics/SVG/1.1/DTD/svg11.dtd">
<!-- Generated by graphviz version 2.43.0 (0)
 -->
<!-- Title: inc/base/BaseGpio.h Pages: 1 -->
<svg width="4678pt" height="416pt"
 viewBox="0.00 0.00 4678.00 416.00" xmlns="http://www.w3.org/2000/svg" xmlns:xlink="http://www.w3.org/1999/xlink">
<g id="graph0" class="graph" transform="scale(1 1) rotate(0) translate(4 412)">
<title>inc/base/BaseGpio.h</title>
<!-- Node1 -->
<g id="Node000001" class="node">
<title>Node1</title>
<g id="a_Node000001"><a xlink:title="Unified GPIO base class for all digital GPIO implementations.">
<polygon fill="#999999" stroke="#666666" points="1037.5,-408 895.5,-408 895.5,-385 1037.5,-385 1037.5,-408"/>
<text text-anchor="middle" x="966.5" y="-392.8" font-family="Arial" font-size="14.00">inc/base/BaseGpio.h</text>
</a>
</g>
</g>
<!-- Node2 -->
<g id="Node000002" class="node">
<title>Node2</title>
<g id="a_Node000002"><a xlink:href="GpioComprehensiveTest_8cpp.html" target="_top" xlink:title="Comprehensive GPIO testing suite for ESP32&#45;C6 DevKit&#45;M&#45;1 (noexcept)">
<polygon fill="white" stroke="#666666" points="195,-45.5 0,-45.5 0,-7.5 195,-7.5 195,-45.5"/>
<text text-anchor="start" x="8" y="-30.3" font-family="Arial" font-size="14.00">examples/esp32/main</text>
<text text-anchor="middle" x="97.5" y="-15.3" font-family="Arial" font-size="14.00">/GpioComprehensiveTest.cpp</text>
</a>
</g>
</g>
<!-- Node1&#45;&gt;Node2 -->
<g id="edge1_Node000001_Node000002" class="edge">
<title>Node1&#45;&gt;Node2</title>
<g id="a_edge1_Node000001_Node000002"><a xlink:title=" ">
<path fill="none" stroke="#63b8ff" d="M885.13,-392.93C725.46,-385.66 386.5,-358.3 386.5,-257 386.5,-257 386.5,-257 386.5,-181 386.5,-134.03 371.74,-117.62 334.5,-89 327.86,-83.9 239.69,-61.8 172.81,-45.54"/>
<polygon fill="#63b8ff" stroke="#63b8ff" points="885.24,-396.44 895.38,-393.38 885.54,-389.44 885.24,-396.44"/>
</a>
</g>
</g>
<!-- Node3 -->
<g id="Node000003" class="node">
<title>Node3</title>
<g id="a_Node000003"><a xlink:href="EspGpio_8h.html" target="_top" xlink:title="Advanced MCU&#45;specific implementation of the unified BaseGpio class with ESP32C6/ESP&#45;IDF v5....">
<polygon fill="white" stroke="#666666" points="1005.5,-193.5 833.5,-193.5 833.5,-170.5 1005.5,-170.5 1005.5,-193.5"/>
<text text-anchor="middle" x="919.5" y="-178.3" font-family="Arial" font-size="14.00">inc/mcu/esp32/EspGpio.h</text>
</a>
</g>
</g>
<!-- Node1&#45;&gt;Node3 -->
<g id="edge2_Node000001_Node000003" class="edge">
<title>Node1&#45;&gt;Node3</title>
<g id="a_edge2_Node000001_Node000003"><a xlink:title=" ">
<path fill="none" stroke="#63b8ff" d="M952.46,-376.4C947.23,-368.33 941.76,-358.59 938.5,-349 919.44,-292.98 918.69,-220.83 919.17,-193.83"/>
<polygon fill="#63b8ff" stroke="#63b8ff" points="949.61,-378.43 958.15,-384.7 955.39,-374.48 949.61,-378.43"/>
</a>
</g>
</g>
<!-- Node21 -->
<g id="Node000021" class="node">
<title>Node21</title>
<g id="a_Node000021"><a xlink:href="EspTypes__GPIO_8h.html" target="_top" xlink:title="ESP32 GPIO type definitions for hardware abstraction.">
<polygon fill="white" stroke="#666666" points="1081.5,-349 947.5,-349 947.5,-311 1081.5,-311 1081.5,-349"/>
<text text-anchor="start" x="955.5" y="-333.8" font-family="Arial" font-size="14.00">inc/mcu/esp32/utils</text>
<text text-anchor="middle" x="1014.5" y="-318.8" font-family="Arial" font-size="14.00">/EspTypes_GPIO.h</text>
</a>
</g>
</g>
<!-- Node1&#45;&gt;Node21 -->
<g id="edge27_Node000001_Node000021" class="edge">
<title>Node1&#45;&gt;Node21</title>
<g id="a_edge27_Node000001_Node000021"><a xlink:title=" ">
<path fill="none" stroke="#63b8ff" d="M980.6,-376.56C987.01,-367.94 994.57,-357.78 1000.92,-349.24"/>
<polygon fill="#63b8ff" stroke="#63b8ff" points="977.59,-374.74 974.43,-384.85 983.2,-378.92 977.59,-374.74"/>
</a>
</g>
</g>
<!-- Node38 -->
<g id="Node000038" class="node">
<title>Node38</title>
<g id="a_Node000038"><a xlink:href="DigitalOutputGuard_8h.html" target="_top" xlink:title="Header file for the DigitalOutputGuard class.">
<polygon fill="white" stroke="#666666" points="1322.5,-341.5 1128.5,-341.5 1128.5,-318.5 1322.5,-318.5 1322.5,-341.5"/>
<text text-anchor="middle" x="1225.5" y="-326.3" font-family="Arial" font-size="14.00">inc/utils/DigitalOutputGuard.h</text>
</a>
</g>
</g>
<!-- Node1&#45;&gt;Node38 -->
<g id="edge54_Node000001_Node000038" class="edge">
<title>Node1&#45;&gt;Node38</title>
<g id="a_edge54_Node000001_Node000038"><a xlink:title=" ">
<path fill="none" stroke="#63b8ff" d="M1018.67,-382.51C1067.12,-370.44 1138.37,-352.7 1183.33,-341.5"/>
<polygon fill="#63b8ff" stroke="#63b8ff" points="1017.55,-379.18 1008.69,-384.99 1019.24,-385.97 1017.55,-379.18"/>
</a>
</g>
</g>
<!-- Node3&#45;&gt;Node2 -->
<g id="edge4_Node000003_Node000002" class="edge">
<title>Node3&#45;&gt;Node2</title>
<g id="a_edge4_Node000003_Node000002"><a xlink:title=" ">
<path fill="none" stroke="#63b8ff" d="M850.07,-168.7C676.48,-137.94 235.22,-59.64 203.5,-53 192.66,-50.73 181.24,-48.17 170.07,-45.56"/>
<polygon fill="#63b8ff" stroke="#63b8ff" points="849.66,-172.18 860.12,-170.48 850.88,-165.29 849.66,-172.18"/>
</a>
</g>
</g>
<!-- Node4 -->
<g id="Node000004" class="node">
<title>Node4</title>
<g id="a_Node000004"><a xlink:href="DigitalOutputGuardComprehensiveTest_8cpp.html" target="_top" xlink:title="DigitalOutputGuard comprehensive test suite for ESP32&#45;C6 DevKit&#45;M&#45;1.">
<polygon fill="white" stroke="#666666" points="661,-53 428,-53 428,0 661,0 661,-53"/>
<text text-anchor="start" x="436" y="-37.8" font-family="Arial" font-size="14.00">examples/esp32/main</text>
<text text-anchor="start" x="436" y="-22.8" font-family="Arial" font-size="14.00">/DigitalOutputGuardComprehensive</text>
<text text-anchor="middle" x="544.5" y="-7.8" font-family="Arial" font-size="14.00">Test.cpp</text>
</a>
</g>
</g>
<!-- Node3&#45;&gt;Node4 -->
<g id="edge3_Node000003_Node000004" class="edge">
<title>Node3&#45;&gt;Node4</title>
<g id="a_edge3_Node000003_Node000004"><a xlink:title=" ">
<path fill="none" stroke="#63b8ff" d="M911.62,-161.03C902.11,-139.68 884.01,-106.52 857.5,-89 786.89,-42.33 753.53,-69.39 670.5,-53 667.43,-52.39 664.33,-51.78 661.19,-51.16"/>
<polygon fill="#63b8ff" stroke="#63b8ff" points="908.48,-162.6 915.6,-170.45 914.93,-159.87 908.48,-162.6"/>
</a>
</g>
</g>
<!-- Node5 -->
<g id="Node000005" class="node">
<title>Node5</title>
<g id="a_Node000005"><a xlink:href="I2cComprehensiveTest_8cpp.html" target="_top" xlink:title="Comprehensive I2C testing suite for ESP32&#45;C6 DevKit&#45;M&#45;1 (noexcept)">
<polygon fill="white" stroke="#666666" points="2857.5,-45.5 2673.5,-45.5 2673.5,-7.5 2857.5,-7.5 2857.5,-45.5"/>
<text text-anchor="start" x="2681.5" y="-30.3" font-family="Arial" font-size="14.00">examples/esp32/main</text>
<text text-anchor="middle" x="2765.5" y="-15.3" font-family="Arial" font-size="14.00">/I2cComprehensiveTest.cpp</text>
</a>
</g>
</g>
<!-- Node3&#45;&gt;Node5 -->
<g id="edge5_Node000003_Node000005" class="edge">
<title>Node3&#45;&gt;Node5</title>
<g id="a_edge5_Node000003_Node000005"><a xlink:title=" ">
<path fill="none" stroke="#63b8ff" d="M979.07,-168.58C991.09,-166.43 1003.66,-164.43 1015.5,-163 1161.55,-145.41 1541.42,-185.24 1676.5,-127 1699.02,-117.29 1693.9,-98.52 1716.5,-89 1813.64,-48.06 2560.16,-67.98 2664.5,-53 2676.94,-51.21 2690.07,-48.52 2702.6,-45.54"/>
<polygon fill="#63b8ff" stroke="#63b8ff" points="978.33,-165.15 969.13,-170.41 979.6,-172.04 978.33,-165.15"/>
</a>
</g>
</g>
<!-- Node6 -->
<g id="Node000006" class="node">
<title>Node6</title>
<g id="a_Node000006"><a xlink:href="PioComprehensiveTest_8cpp.html" target="_top" xlink:title="Comprehensive PIO testing suite for ESP32&#45;C6 DevKit&#45;M&#45;1 with RMT peripheral (noexcept)">
<polygon fill="white" stroke="#666666" points="1094,-45.5 909,-45.5 909,-7.5 1094,-7.5 1094,-45.5"/>
<text text-anchor="start" x="917" y="-30.3" font-family="Arial" font-size="14.00">examples/esp32/main</text>
<text text-anchor="middle" x="1001.5" y="-15.3" font-family="Arial" font-size="14.00">/PioComprehensiveTest.cpp</text>
</a>
</g>
</g>
<!-- Node3&#45;&gt;Node6 -->
<g id="edge6_Node000003_Node000006" class="edge">
<title>Node3&#45;&gt;Node6</title>
<g id="a_edge6_Node000003_Node000006"><a xlink:title=" ">
<path fill="none" stroke="#63b8ff" d="M929.97,-161.4C945.96,-131.48 976.23,-74.8 991.77,-45.72"/>
<polygon fill="#63b8ff" stroke="#63b8ff" points="926.76,-159.98 925.14,-170.45 932.94,-163.28 926.76,-159.98"/>
</a>
</g>
</g>
<!-- Node7 -->
<g id="Node000007" class="node">
<title>Node7</title>
<g id="a_Node000007"><a xlink:href="PwmComprehensiveTest_8cpp.html" target="_top" xlink:title="Comprehensive PWM testing suite for ESP32 family (noexcept)">
<polygon fill="white" stroke="#666666" points="410,-45.5 213,-45.5 213,-7.5 410,-7.5 410,-45.5"/>
<text text-anchor="start" x="221" y="-30.3" font-family="Arial" font-size="14.00">examples/esp32/main</text>
<text text-anchor="middle" x="311.5" y="-15.3" font-family="Arial" font-size="14.00">/PwmComprehensiveTest.cpp</text>
</a>
</g>
</g>
<!-- Node3&#45;&gt;Node7 -->
<g id="edge7_Node000003_Node000007" class="edge">
<title>Node3&#45;&gt;Node7</title>
<g id="a_edge7_Node000003_Node000007"><a xlink:title=" ">
<path fill="none" stroke="#63b8ff" d="M902.35,-163.16C877.65,-137.64 833.96,-93.33 824.5,-89 742.13,-51.33 507.9,-67.54 418.5,-53 406.15,-50.99 393.12,-48.34 380.56,-45.51"/>
<polygon fill="#63b8ff" stroke="#63b8ff" points="899.89,-165.64 909.35,-170.4 904.92,-160.78 899.89,-165.64"/>
</a>
</g>
</g>
<!-- Node8 -->
<g id="Node000008" class="node">
<title>Node8</title>
<g id="a_Node000008"><a xlink:href="TestFramework_8h.html" target="_top" xlink:title="Shared testing framework for ESP32&#45;C6 comprehensive test suites.">
<polygon fill="white" stroke="#666666" points="1632,-127 1483,-127 1483,-89 1632,-89 1632,-127"/>
<text text-anchor="start" x="1491" y="-111.8" font-family="Arial" font-size="14.00">examples/esp32/main</text>
<text text-anchor="middle" x="1557.5" y="-96.8" font-family="Arial" font-size="14.00">/TestFramework.h</text>
</a>
</g>
</g>
<!-- Node3&#45;&gt;Node8 -->
<g id="edge8_Node000003_Node000008" class="edge">
<title>Node3&#45;&gt;Node8</title>
<g id="a_edge8_Node000003_Node000008"><a xlink:title=" ">
<path fill="none" stroke="#63b8ff" d="M981.07,-168.64C992.49,-166.58 1004.33,-164.6 1015.5,-163 1181.65,-139.19 1377.96,-122.44 1482.73,-114.4"/>
<polygon fill="#63b8ff" stroke="#63b8ff" points="980.38,-165.21 971.18,-170.47 981.65,-172.1 980.38,-165.21"/>
</a>
</g>
</g>
<!-- Node18 -->
<g id="Node000018" class="node">
<title>Node18</title>
<g id="a_Node000018"><a xlink:href="UartComprehensiveTest_8cpp.html" target="_top" xlink:title="Comprehensive UART testing suite for ESP32&#45;C6 DevKit&#45;M&#45;1 (noexcept)">
<polygon fill="white" stroke="#666666" points="2655,-45.5 2464,-45.5 2464,-7.5 2655,-7.5 2655,-45.5"/>
<text text-anchor="start" x="2472" y="-30.3" font-family="Arial" font-size="14.00">examples/esp32/main</text>
<text text-anchor="middle" x="2559.5" y="-15.3" font-family="Arial" font-size="14.00">/UartComprehensiveTest.cpp</text>
</a>
</g>
</g>
<!-- Node3&#45;&gt;Node18 -->
<g id="edge25_Node000003_Node000018" class="edge">
<title>Node3&#45;&gt;Node18</title>
<g id="a_edge25_Node000003_Node000018"><a xlink:title=" ">
<path fill="none" stroke="#63b8ff" d="M979.07,-168.61C991.09,-166.45 1003.66,-164.44 1015.5,-163 1153.82,-146.13 1512.97,-180.8 1641.5,-127 1664.72,-117.28 1660.23,-98.59 1683.5,-89 1842.28,-23.54 2285.52,-77.56 2455.5,-53 2468.2,-51.17 2481.6,-48.47 2494.42,-45.5"/>
<polygon fill="#63b8ff" stroke="#63b8ff" points="978.34,-165.18 969.14,-170.44 979.61,-172.07 978.34,-165.18"/>
</a>
</g>
</g>
<!-- Node20 -->
<g id="Node000020" class="node">
<title>Node20</title>
<g id="a_Node000020"><a xlink:href="EspGpio_8cpp.html" target="_top" xlink:title="Production&#45;quality ESP32C6 GPIO implementation with ESP&#45;IDF v5.5+ advanced features.">
<polygon fill="white" stroke="#666666" points="816,-119.5 629,-119.5 629,-96.5 816,-96.5 816,-119.5"/>
<text text-anchor="middle" x="722.5" y="-104.3" font-family="Arial" font-size="14.00">src/mcu/esp32/EspGpio.cpp</text>
</a>
</g>
</g>
<!-- Node3&#45;&gt;Node20 -->
<g id="edge26_Node000003_Node000020" class="edge">
<title>Node3&#45;&gt;Node20</title>
<g id="a_edge26_Node000003_Node000020"><a xlink:title=" ">
<path fill="none" stroke="#63b8ff" d="M880.72,-166.83C842.69,-152.93 785.57,-132.05 751.37,-119.55"/>
<polygon fill="#63b8ff" stroke="#63b8ff" points="879.84,-170.23 890.43,-170.38 882.24,-163.66 879.84,-170.23"/>
</a>
</g>
</g>
<!-- Node8&#45;&gt;Node2 -->
<g id="edge14_Node000008_Node000002" class="edge">
<title>Node8&#45;&gt;Node2</title>
<g id="a_edge14_Node000008_Node000002"><a xlink:title=" ">
<path fill="none" stroke="#63b8ff" d="M1472.59,-104.58C1195.54,-96.56 328.52,-70.36 203.5,-53 190.47,-51.19 176.7,-48.48 163.56,-45.5"/>
<polygon fill="#63b8ff" stroke="#63b8ff" points="1472.88,-108.09 1482.98,-104.88 1473.09,-101.1 1472.88,-108.09"/>
</a>
</g>
</g>
<!-- Node8&#45;&gt;Node4 -->
<g id="edge13_Node000008_Node000004" class="edge">
<title>Node8&#45;&gt;Node4</title>
<g id="a_edge13_Node000008_Node000004"><a xlink:title=" ">
<path fill="none" stroke="#63b8ff" d="M1472.57,-102.15C1258.28,-89.87 709.82,-58.15 670.5,-53 667.4,-52.59 664.27,-52.16 661.11,-51.69"/>
<polygon fill="#63b8ff" stroke="#63b8ff" points="1472.64,-105.66 1482.83,-102.74 1473.04,-98.67 1472.64,-105.66"/>
</a>
</g>
</g>
<!-- Node8&#45;&gt;Node5 -->
<g id="edge15_Node000008_Node000005" class="edge">
<title>Node8&#45;&gt;Node5</title>
<g id="a_edge15_Node000008_Node000005"><a xlink:title=" ">
<path fill="none" stroke="#63b8ff" d="M1642.25,-93.65C1656.01,-91.84 1670.13,-90.2 1683.5,-89 2118.06,-50.1 2232.6,-114.74 2664.5,-53 2676.94,-51.22 2690.07,-48.53 2702.6,-45.55"/>
<polygon fill="#63b8ff" stroke="#63b8ff" points="1641.75,-90.18 1632.3,-94.99 1642.68,-97.12 1641.75,-90.18"/>
</a>
</g>
</g>
<!-- Node8&#45;&gt;Node6 -->
<g id="edge18_Node000008_Node000006" class="edge">
<title>Node8&#45;&gt;Node6</title>
<g id="a_edge18_Node000008_Node000006"><a xlink:title=" ">
<path fill="none" stroke="#63b8ff" d="M1472.7,-100.15C1381.14,-91.99 1231.23,-76.47 1103.5,-53 1092.1,-50.91 1080.08,-48.28 1068.45,-45.52"/>
<polygon fill="#63b8ff" stroke="#63b8ff" points="1472.48,-103.64 1482.75,-101.03 1473.1,-96.67 1472.48,-103.64"/>
</a>
</g>
</g>
<!-- Node8&#45;&gt;Node7 -->
<g id="edge19_Node000008_Node000007" class="edge">
<title>Node8&#45;&gt;Node7</title>
<g id="a_edge19_Node000008_Node000007"><a xlink:title=" ">
<path fill="none" stroke="#63b8ff" d="M1472.44,-105.03C1244.22,-99.4 621.92,-81.8 418.5,-53 405.55,-51.17 391.87,-48.49 378.77,-45.55"/>
<polygon fill="#63b8ff" stroke="#63b8ff" points="1472.6,-108.53 1482.68,-105.28 1472.77,-101.53 1472.6,-108.53"/>
</a>
</g>
</g>
<!-- Node9 -->
<g id="Node000009" class="node">
<title>Node9</title>
<g id="a_Node000009"><a xlink:href="AdcComprehensiveTest_8cpp.html" target="_top" xlink:title="Comprehensive ADC testing suite for ESP32&#45;C6 DevKit&#45;M&#45;1 (noexcept)">
<polygon fill="white" stroke="#666666" points="3065,-45.5 2876,-45.5 2876,-7.5 3065,-7.5 3065,-45.5"/>
<text text-anchor="start" x="2884" y="-30.3" font-family="Arial" font-size="14.00">examples/esp32/main</text>
<text text-anchor="middle" x="2970.5" y="-15.3" font-family="Arial" font-size="14.00">/AdcComprehensiveTest.cpp</text>
</a>
</g>
</g>
<!-- Node8&#45;&gt;Node9 -->
<g id="edge9_Node000008_Node000009" class="edge">
<title>Node8&#45;&gt;Node9</title>
<g id="a_edge9_Node000008_Node000009"><a xlink:title=" ">
<path fill="none" stroke="#63b8ff" d="M1642.32,-96.1C1666.27,-93.38 1692.38,-90.74 1716.5,-89 2226.54,-52.21 2359.85,-122.27 2866.5,-53 2879.39,-51.24 2893.01,-48.53 2905.99,-45.53"/>
<polygon fill="#63b8ff" stroke="#63b8ff" points="1641.73,-92.65 1632.2,-97.27 1642.54,-99.6 1641.73,-92.65"/>
</a>
</g>
</g>
<!-- Node10 -->
<g id="Node000010" class="node">
<title>Node10</title>
<g id="a_Node000010"><a xlink:href="AsciiArtComprehensiveTest_8cpp.html" target="_top" xlink:title="ASCII Art Generator comprehensive example and test suite for ESP32&#45;C6 DevKit&#45;M&#45;1 (noexcept)">
<polygon fill="white" stroke="#666666" points="891.5,-45.5 679.5,-45.5 679.5,-7.5 891.5,-7.5 891.5,-45.5"/>
<text text-anchor="start" x="687.5" y="-30.3" font-family="Arial" font-size="14.00">examples/esp32/main</text>
<text text-anchor="middle" x="785.5" y="-15.3" font-family="Arial" font-size="14.00">/AsciiArtComprehensiveTest.cpp</text>
</a>
</g>
</g>
<!-- Node8&#45;&gt;Node10 -->
<g id="edge10_Node000008_Node000010" class="edge">
<title>Node8&#45;&gt;Node10</title>
<g id="a_edge10_Node000008_Node000010"><a xlink:title=" ">
<path fill="none" stroke="#63b8ff" d="M1472.52,-101.46C1320.66,-91.33 1008.49,-69.33 900.5,-53 887.26,-51 873.26,-48.35 859.77,-45.52"/>
<polygon fill="#63b8ff" stroke="#63b8ff" points="1472.52,-104.97 1482.73,-102.14 1472.98,-97.99 1472.52,-104.97"/>
</a>
</g>
</g>
<!-- Node11 -->
<g id="Node000011" class="node">
<title>Node11</title>
<g id="a_Node000011"><a xlink:href="BluetoothComprehensiveTest_8cpp.html" target="_top" xlink:title="Comprehensive Bluetooth/NimBLE testing suite for ESP32&#45;C6 DevKit&#45;M&#45;1 (noexcept)">
<polygon fill="white" stroke="#666666" points="1335,-45.5 1112,-45.5 1112,-7.5 1335,-7.5 1335,-45.5"/>
<text text-anchor="start" x="1120" y="-30.3" font-family="Arial" font-size="14.00">examples/esp32/main</text>
<text text-anchor="middle" x="1223.5" y="-15.3" font-family="Arial" font-size="14.00">/BluetoothComprehensiveTest.cpp</text>
</a>
</g>
</g>
<!-- Node8&#45;&gt;Node11 -->
<g id="edge11_Node000008_Node000011" class="edge">
<title>Node8&#45;&gt;Node11</title>
<g id="a_edge11_Node000008_Node000011"><a xlink:title=" ">
<path fill="none" stroke="#63b8ff" d="M1473.15,-86.92C1419.65,-74.19 1351.02,-57.85 1299.26,-45.53"/>
<polygon fill="#63b8ff" stroke="#63b8ff" points="1472.42,-90.35 1482.96,-89.26 1474.04,-83.54 1472.42,-90.35"/>
</a>
</g>
</g>
<!-- Node12 -->
<g id="Node000012" class="node">
<title>Node12</title>
<g id="a_Node000012"><a xlink:href="CanComprehensiveTest_8cpp.html" target="_top" xlink:title="Comprehensive CAN testing suite for ESP32&#45;C6 with ESP&#45;IDF v5.5 TWAI API and SN65 transceiver.">
<polygon fill="white" stroke="#666666" points="1544,-45.5 1353,-45.5 1353,-7.5 1544,-7.5 1544,-45.5"/>
<text text-anchor="start" x="1361" y="-30.3" font-family="Arial" font-size="14.00">examples/esp32/main</text>
<text text-anchor="middle" x="1448.5" y="-15.3" font-family="Arial" font-size="14.00">/CanComprehensiveTest.cpp</text>
</a>
</g>
</g>
<!-- Node8&#45;&gt;Node12 -->
<g id="edge12_Node000008_Node000012" class="edge">
<title>Node8&#45;&gt;Node12</title>
<g id="a_edge12_Node000008_Node000012"><a xlink:title=" ">
<path fill="none" stroke="#63b8ff" d="M1524.52,-82.94C1508.13,-70.99 1488.65,-56.78 1473.51,-45.74"/>
<polygon fill="#63b8ff" stroke="#63b8ff" points="1522.62,-85.9 1532.77,-88.96 1526.75,-80.24 1522.62,-85.9"/>
</a>
</g>
</g>
<!-- Node13 -->
<g id="Node000013" class="node">
<title>Node13</title>
<g id="a_Node000013"><a xlink:href="LoggerComprehensiveTest_8cpp.html" target="_top" xlink:title="Comprehensive Logger testing suite for ESP32&#45;C6 DevKit&#45;M&#45;1 (noexcept)">
<polygon fill="white" stroke="#666666" points="1770.5,-45.5 1562.5,-45.5 1562.5,-7.5 1770.5,-7.5 1770.5,-45.5"/>
<text text-anchor="start" x="1570.5" y="-30.3" font-family="Arial" font-size="14.00">examples/esp32/main</text>
<text text-anchor="middle" x="1666.5" y="-15.3" font-family="Arial" font-size="14.00">/LoggerComprehensiveTest.cpp</text>
</a>
</g>
</g>
<!-- Node8&#45;&gt;Node13 -->
<g id="edge16_Node000008_Node000013" class="edge">
<title>Node8&#45;&gt;Node13</title>
<g id="a_edge16_Node000008_Node000013"><a xlink:title=" ">
<path fill="none" stroke="#63b8ff" d="M1590.48,-82.94C1606.87,-70.99 1626.35,-56.78 1641.49,-45.74"/>
<polygon fill="#63b8ff" stroke="#63b8ff" points="1588.25,-80.24 1582.23,-88.96 1592.38,-85.9 1588.25,-80.24"/>
</a>
</g>
</g>
<!-- Node14 -->
<g id="Node000014" class="node">
<title>Node14</title>
<g id="a_Node000014"><a xlink:href="NvsComprehensiveTest_8cpp.html" target="_top" xlink:title="Comprehensive NVS (Non&#45;Volatile Storage) testing suite for ESP32&#45;C6 DevKit&#45;M&#45;1 (noexcept)">
<polygon fill="white" stroke="#666666" points="1978,-45.5 1789,-45.5 1789,-7.5 1978,-7.5 1978,-45.5"/>
<text text-anchor="start" x="1797" y="-30.3" font-family="Arial" font-size="14.00">examples/esp32/main</text>
<text text-anchor="middle" x="1883.5" y="-15.3" font-family="Arial" font-size="14.00">/NvsComprehensiveTest.cpp</text>
</a>
</g>
</g>
<!-- Node8&#45;&gt;Node14 -->
<g id="edge17_Node000008_Node000014" class="edge">
<title>Node8&#45;&gt;Node14</title>
<g id="a_edge17_Node000008_Node000014"><a xlink:title=" ">
<path fill="none" stroke="#63b8ff" d="M1641.56,-86.59C1683.08,-76.5 1733.93,-64.13 1779.5,-53 1789.34,-50.6 1799.71,-48.06 1809.93,-45.56"/>
<polygon fill="#63b8ff" stroke="#63b8ff" points="1640.65,-83.21 1631.76,-88.97 1642.31,-90.01 1640.65,-83.21"/>
</a>
</g>
</g>
<!-- Node15 -->
<g id="Node000015" class="node">
<title>Node15</title>
<g id="a_Node000015"><a xlink:href="SpiComprehensiveTest_8cpp.html" target="_top" xlink:title="Comprehensive SPI testing suite for ESP32&#45;C6 DevKit&#45;M&#45;1 (noexcept)">
<polygon fill="white" stroke="#666666" points="3681,-45.5 3496,-45.5 3496,-7.5 3681,-7.5 3681,-45.5"/>
<text text-anchor="start" x="3504" y="-30.3" font-family="Arial" font-size="14.00">examples/esp32/main</text>
<text text-anchor="middle" x="3588.5" y="-15.3" font-family="Arial" font-size="14.00">/SpiComprehensiveTest.cpp</text>
</a>
</g>
</g>
<!-- Node8&#45;&gt;Node15 -->
<g id="edge20_Node000008_Node000015" class="edge">
<title>Node8&#45;&gt;Node15</title>
<g id="a_edge20_Node000008_Node000015"><a xlink:title=" ">
<path fill="none" stroke="#63b8ff" d="M1642.31,-95.93C1666.26,-93.2 1692.37,-90.61 1716.5,-89 2109.27,-62.83 3097.38,-105.52 3487.5,-53 3500.23,-51.29 3513.66,-48.56 3526.43,-45.52"/>
<polygon fill="#63b8ff" stroke="#63b8ff" points="1641.72,-92.47 1632.19,-97.1 1642.53,-99.43 1641.72,-92.47"/>
</a>
</g>
</g>
<!-- Node16 -->
<g id="Node000016" class="node">
<title>Node16</title>
<g id="a_Node000016"><a xlink:href="TemperatureComprehensiveTest_8cpp.html" target="_top" xlink:title="Comprehensive Temperature sensor testing suite for ESP32&#45;C6 DevKit&#45;M&#45;1 (noexcept)">
<polygon fill="white" stroke="#666666" points="2238.5,-45.5 1996.5,-45.5 1996.5,-7.5 2238.5,-7.5 2238.5,-45.5"/>
<text text-anchor="start" x="2004.5" y="-30.3" font-family="Arial" font-size="14.00">examples/esp32/main</text>
<text text-anchor="middle" x="2117.5" y="-15.3" font-family="Arial" font-size="14.00">/TemperatureComprehensiveTest.cpp</text>
</a>
</g>
</g>
<!-- Node8&#45;&gt;Node16 -->
<g id="edge21_Node000008_Node000016" class="edge">
<title>Node8&#45;&gt;Node16</title>
<g id="a_edge21_Node000008_Node000016"><a xlink:title=" ">
<path fill="none" stroke="#63b8ff" d="M1642.24,-89.51C1643.34,-89.34 1644.42,-89.17 1645.5,-89 1796.55,-65.66 1836.36,-75.73 1987.5,-53 2001.71,-50.86 2016.74,-48.25 2031.33,-45.52"/>
<polygon fill="#63b8ff" stroke="#63b8ff" points="1641.58,-86.07 1632.3,-91.19 1642.75,-92.98 1641.58,-86.07"/>
</a>
</g>
</g>
<!-- Node17 -->
<g id="Node000017" class="node">
<title>Node17</title>
<g id="a_Node000017"><a xlink:href="TimerComprehensiveTest_8cpp.html" target="_top" xlink:title="ESP32&#45;C6 Periodic Timer Comprehensive Test Suite v2.0.">
<polygon fill="white" stroke="#666666" points="3284,-45.5 3083,-45.5 3083,-7.5 3284,-7.5 3284,-45.5"/>
<text text-anchor="start" x="3091" y="-30.3" font-family="Arial" font-size="14.00">examples/esp32/main</text>
<text text-anchor="middle" x="3183.5" y="-15.3" font-family="Arial" font-size="14.00">/TimerComprehensiveTest.cpp</text>
</a>
</g>
</g>
<!-- Node8&#45;&gt;Node17 -->
<g id="edge22_Node000008_Node000017" class="edge">
<title>Node8&#45;&gt;Node17</title>
<g id="a_edge22_Node000008_Node000017"><a xlink:title=" ">
<path fill="none" stroke="#63b8ff" d="M1642.32,-96.03C1666.27,-93.3 1692.37,-90.68 1716.5,-89 2318.81,-47 2475.68,-130.17 3074.5,-53 3088.09,-51.25 3102.46,-48.53 3116.15,-45.51"/>
<polygon fill="#63b8ff" stroke="#63b8ff" points="1641.73,-92.57 1632.2,-97.2 1642.53,-99.53 1641.73,-92.57"/>
</a>
</g>
</g>
<!-- Node8&#45;&gt;Node18 -->
<g id="edge23_Node000008_Node000018" class="edge">
<title>Node8&#45;&gt;Node18</title>
<g id="a_edge23_Node000008_Node000018"><a xlink:title=" ">
<path fill="none" stroke="#63b8ff" d="M1642.23,-89.42C1643.33,-89.27 1644.42,-89.13 1645.5,-89 2003.13,-44.76 2098.79,-104.15 2455.5,-53 2468.2,-51.18 2481.61,-48.49 2494.42,-45.53"/>
<polygon fill="#63b8ff" stroke="#63b8ff" points="1641.65,-85.97 1632.26,-90.87 1642.66,-92.89 1641.65,-85.97"/>
</a>
</g>
</g>
<!-- Node19 -->
<g id="Node000019" class="node">
<title>Node19</title>
<g id="a_Node000019"><a xlink:href="WifiComprehensiveTest_8cpp.html" target="_top" xlink:title="Comprehensive WiFi testing suite for ESP32&#45;C6 DevKit&#45;M&#45;1 with ESP&#45;IDF v5.5f.">
<polygon fill="white" stroke="#666666" points="2446,-45.5 2257,-45.5 2257,-7.5 2446,-7.5 2446,-45.5"/>
<text text-anchor="start" x="2265" y="-30.3" font-family="Arial" font-size="14.00">examples/esp32/main</text>
<text text-anchor="middle" x="2351.5" y="-15.3" font-family="Arial" font-size="14.00">/WifiComprehensiveTest.cpp</text>
</a>
</g>
</g>
<!-- Node8&#45;&gt;Node19 -->
<g id="edge24_Node000008_Node000019" class="edge">
<title>Node8&#45;&gt;Node19</title>
<g id="a_edge24_Node000008_Node000019"><a xlink:title=" ">
<path fill="none" stroke="#63b8ff" d="M1642.23,-89.44C1643.33,-89.29 1644.42,-89.14 1645.5,-89 1911.25,-54.06 1982.48,-93.08 2247.5,-53 2259.91,-51.12 2273,-48.46 2285.56,-45.56"/>
<polygon fill="#63b8ff" stroke="#63b8ff" points="1641.63,-85.99 1632.27,-90.95 1642.68,-92.92 1641.63,-85.99"/>
</a>
</g>
</g>
<!-- Node21&#45;&gt;Node2 -->
<g id="edge28_Node000021_Node000002" class="edge">
<title>Node21&#45;&gt;Node2</title>
<g id="a_edge28_Node000021_Node000002"><a xlink:title=" ">
<path fill="none" stroke="#63b8ff" d="M944.36,-307.99C825.98,-272.3 579.22,-196.88 372.5,-127 292.42,-99.93 200.18,-65.98 145.47,-45.55"/>
<polygon fill="#63b8ff" stroke="#63b8ff" points="943.45,-311.38 954.04,-310.91 945.47,-304.67 943.45,-311.38"/>
</a>
</g>
</g>
<!-- Node21&#45;&gt;Node3 -->
<g id="edge29_Node000021_Node000003" class="edge">
<title>Node21&#45;&gt;Node3</title>
<g id="a_edge29_Node000021_Node000003"><a xlink:title=" ">
<path fill="none" stroke="#63b8ff" d="M997.06,-302.2C975.84,-269.59 941.03,-216.08 926.36,-193.54"/>
<polygon fill="#63b8ff" stroke="#63b8ff" points="994.27,-304.33 1002.66,-310.8 1000.14,-300.51 994.27,-304.33"/>
</a>
</g>
</g>
<!-- Node22 -->
<g id="Node000022" class="node">
<title>Node22</title>
<g id="a_Node000022"><a xlink:href="EspTypes_8h.html" target="_top" xlink:title="Consolidated MCU&#45;specific type definitions for hardware abstraction (hf_* types).">
<polygon fill="white" stroke="#666666" points="2945.5,-201 2813.5,-201 2813.5,-163 2945.5,-163 2945.5,-201"/>
<text text-anchor="start" x="2821.5" y="-185.8" font-family="Arial" font-size="14.00">inc/mcu/esp32/utils</text>
<text text-anchor="middle" x="2879.5" y="-170.8" font-family="Arial" font-size="14.00">/EspTypes.h</text>
</a>
</g>
</g>
<!-- Node21&#45;&gt;Node22 -->
<g id="edge30_Node000021_Node000022" class="edge">
<title>Node21&#45;&gt;Node22</title>
<g id="a_edge30_Node000021_Node000022"><a xlink:title=" ">
<path fill="none" stroke="#63b8ff" d="M1085.63,-307.88C1116.75,-298.32 1153.6,-286.59 1186.5,-275 1230.17,-259.61 1238.16,-246.36 1283.5,-237 1434.7,-205.78 2531.11,-188.01 2813.37,-183.92"/>
<polygon fill="#63b8ff" stroke="#63b8ff" points="1084.28,-304.63 1075.73,-310.9 1086.32,-311.33 1084.28,-304.63"/>
</a>
</g>
</g>
<!-- Node35 -->
<g id="Node000035" class="node">
<title>Node35</title>
<g id="a_Node000035"><a xlink:href="EspTypes__PWM_8h.html" target="_top" xlink:title="ESP32 PWM type definitions for LEDC peripheral hardware abstraction.">
<polygon fill="white" stroke="#666666" points="1177,-275 1044,-275 1044,-237 1177,-237 1177,-275"/>
<text text-anchor="start" x="1052" y="-259.8" font-family="Arial" font-size="14.00">inc/mcu/esp32/utils</text>
<text text-anchor="middle" x="1110.5" y="-244.8" font-family="Arial" font-size="14.00">/EspTypes_PWM.h</text>
</a>
</g>
</g>
<!-- Node21&#45;&gt;Node35 -->
<g id="edge49_Node000021_Node000035" class="edge">
<title>Node21&#45;&gt;Node35</title>
<g id="a_edge49_Node000021_Node000035"><a xlink:title=" ">
<path fill="none" stroke="#63b8ff" d="M1046.9,-304.7C1059.78,-295.04 1074.35,-284.12 1086.28,-275.16"/>
<polygon fill="#63b8ff" stroke="#63b8ff" points="1044.62,-302.03 1038.72,-310.83 1048.82,-307.63 1044.62,-302.03"/>
</a>
</g>
</g>
<!-- Node23 -->
<g id="Node000023" class="node">
<title>Node23</title>
<g id="a_Node000023"><a xlink:href="EspAdc_8h.html" target="_top" xlink:title="ESP32 ADC implementation for the HardFOC system.">
<polygon fill="white" stroke="#666666" points="3053.5,-119.5 2887.5,-119.5 2887.5,-96.5 3053.5,-96.5 3053.5,-119.5"/>
<text text-anchor="middle" x="2970.5" y="-104.3" font-family="Arial" font-size="14.00">inc/mcu/esp32/EspAdc.h</text>
</a>
</g>
</g>
<!-- Node22&#45;&gt;Node23 -->
<g id="edge31_Node000022_Node000023" class="edge">
<title>Node22&#45;&gt;Node23</title>
<g id="a_edge31_Node000022_Node000023"><a xlink:title=" ">
<path fill="none" stroke="#63b8ff" d="M2910.49,-156.48C2926.39,-143.9 2944.93,-129.23 2957.15,-119.57"/>
<polygon fill="#63b8ff" stroke="#63b8ff" points="2908.13,-153.88 2902.46,-162.83 2912.48,-159.37 2908.13,-153.88"/>
</a>
</g>
</g>
<!-- Node25 -->
<g id="Node000025" class="node">
<title>Node25</title>
<g id="a_Node000025"><a xlink:href="EspI2c_8h.html" target="_top" xlink:title="Advanced ESP32&#45;integrated I2C controller for ESP&#45;IDF v5.5+ with proper bus&#45;device architecture.">
<polygon fill="white" stroke="#666666" points="2869,-119.5 2708,-119.5 2708,-96.5 2869,-96.5 2869,-119.5"/>
<text text-anchor="middle" x="2788.5" y="-104.3" font-family="Arial" font-size="14.00">inc/mcu/esp32/EspI2c.h</text>
</a>
</g>
</g>
<!-- Node22&#45;&gt;Node25 -->
<g id="edge34_Node000022_Node000025" class="edge">
<title>Node22&#45;&gt;Node25</title>
<g id="a_edge34_Node000022_Node000025"><a xlink:title=" ">
<path fill="none" stroke="#63b8ff" d="M2848.51,-156.48C2832.61,-143.9 2814.07,-129.23 2801.85,-119.57"/>
<polygon fill="#63b8ff" stroke="#63b8ff" points="2846.52,-159.37 2856.54,-162.83 2850.87,-153.88 2846.52,-159.37"/>
</a>
</g>
</g>
<!-- Node27 -->
<g id="Node000027" class="node">
<title>Node27</title>
<g id="a_Node000027"><a xlink:href="EspPeriodicTimer_8h.html" target="_top" xlink:title="MCU&#45;integrated periodic timer implementation.">
<polygon fill="white" stroke="#666666" points="3437.5,-127 3257.5,-127 3257.5,-89 3437.5,-89 3437.5,-127"/>
<text text-anchor="start" x="3265.5" y="-111.8" font-family="Arial" font-size="14.00">inc/mcu/esp32/EspPeriodic</text>
<text text-anchor="middle" x="3347.5" y="-96.8" font-family="Arial" font-size="14.00">Timer.h</text>
</a>
</g>
</g>
<!-- Node22&#45;&gt;Node27 -->
<g id="edge37_Node000022_Node000027" class="edge">
<title>Node22&#45;&gt;Node27</title>
<g id="a_edge37_Node000022_Node000027"><a xlink:title=" ">
<path fill="none" stroke="#63b8ff" d="M2955.85,-170.61C3030.56,-160.26 3147.51,-143.57 3248.5,-127 3251.43,-126.52 3254.41,-126.02 3257.41,-125.52"/>
<polygon fill="#63b8ff" stroke="#63b8ff" points="2955.02,-167.19 2945.6,-172.03 2955.98,-174.13 2955.02,-167.19"/>
</a>
</g>
</g>
<!-- Node29 -->
<g id="Node000029" class="node">
<title>Node29</title>
<g id="a_Node000029"><a xlink:href="EspPio_8h.html" target="_top" xlink:title="ESP32C6 RMT&#45;based Programmable IO Channel implementation with ESP&#45;IDF v5.5+ features.">
<polygon fill="white" stroke="#666666" points="2689.5,-119.5 2527.5,-119.5 2527.5,-96.5 2689.5,-96.5 2689.5,-119.5"/>
<text text-anchor="middle" x="2608.5" y="-104.3" font-family="Arial" font-size="14.00">inc/mcu/esp32/EspPio.h</text>
</a>
</g>
</g>
<!-- Node22&#45;&gt;Node29 -->
<g id="edge40_Node000022_Node000029" class="edge">
<title>Node22&#45;&gt;Node29</title>
<g id="a_edge40_Node000022_Node000029"><a xlink:title=" ">
<path fill="none" stroke="#63b8ff" d="M2803.31,-160.76C2752.84,-147.35 2688.7,-130.31 2648.11,-119.52"/>
<polygon fill="#63b8ff" stroke="#63b8ff" points="2802.64,-164.2 2813.21,-163.39 2804.44,-157.44 2802.64,-164.2"/>
</a>
</g>
</g>
<!-- Node31 -->
<g id="Node000031" class="node">
<title>Node31</title>
<g id="a_Node000031"><a xlink:href="EspSpi_8h.html" target="_top" xlink:title="Advanced MCU&#45;integrated SPI controller implementation with ESP32C6/ESP&#45;IDF v5.5+ features.">
<polygon fill="white" stroke="#666666" points="3669.5,-119.5 3507.5,-119.5 3507.5,-96.5 3669.5,-96.5 3669.5,-119.5"/>
<text text-anchor="middle" x="3588.5" y="-104.3" font-family="Arial" font-size="14.00">inc/mcu/esp32/EspSpi.h</text>
</a>
</g>
</g>
<!-- Node22&#45;&gt;Node31 -->
<g id="edge43_Node000022_Node000031" class="edge">
<title>Node22&#45;&gt;Node31</title>
<g id="a_edge43_Node000022_Node000031"><a xlink:title=" ">
<path fill="none" stroke="#63b8ff" d="M2956.16,-174.46C3065.2,-164.99 3271.32,-146.44 3446.5,-127 3466.75,-124.75 3488.6,-122.1 3508.94,-119.53"/>
<polygon fill="#63b8ff" stroke="#63b8ff" points="2955.57,-171 2945.91,-175.35 2956.18,-177.97 2955.57,-171"/>
</a>
</g>
</g>
<!-- Node33 -->
<g id="Node000033" class="node">
<title>Node33</title>
<g id="a_Node000033"><a xlink:href="EspUart_8h.html" target="_top" xlink:title="ESP32 UART implementation for the HardFOC system.">
<polygon fill="white" stroke="#666666" points="3239.5,-119.5 3071.5,-119.5 3071.5,-96.5 3239.5,-96.5 3239.5,-119.5"/>
<text text-anchor="middle" x="3155.5" y="-104.3" font-family="Arial" font-size="14.00">inc/mcu/esp32/EspUart.h</text>
</a>
</g>
</g>
<!-- Node22&#45;&gt;Node33 -->
<g id="edge46_Node000022_Node000033" class="edge">
<title>Node22&#45;&gt;Node33</title>
<g id="a_edge46_Node000022_Node000033"><a xlink:title=" ">
<path fill="none" stroke="#63b8ff" d="M2955.4,-161.2C3007.04,-147.73 3073.35,-130.43 3115.14,-119.53"/>
<polygon fill="#63b8ff" stroke="#63b8ff" points="2954.4,-157.84 2945.61,-163.75 2956.17,-164.62 2954.4,-157.84"/>
</a>
</g>
</g>
<!-- Node23&#45;&gt;Node9 -->
<g id="edge32_Node000023_Node000009" class="edge">
<title>Node23&#45;&gt;Node9</title>
<g id="a_edge32_Node000023_Node000009"><a xlink:title=" ">
<path fill="none" stroke="#63b8ff" d="M2970.5,-86.25C2970.5,-73.65 2970.5,-57.73 2970.5,-45.64"/>
<polygon fill="#63b8ff" stroke="#63b8ff" points="2967,-86.28 2970.5,-96.28 2974,-86.28 2967,-86.28"/>
</a>
</g>
</g>
<!-- Node24 -->
<g id="Node000024" class="node">
<title>Node24</title>
<g id="a_Node000024"><a xlink:href="EspAdc_8cpp.html" target="_top" xlink:title="ESP32 ADC implementation for the HardFOC system.">
<polygon fill="white" stroke="#666666" points="4075,-38 3894,-38 3894,-15 4075,-15 4075,-38"/>
<text text-anchor="middle" x="3984.5" y="-22.8" font-family="Arial" font-size="14.00">src/mcu/esp32/EspAdc.cpp</text>
</a>
</g>
</g>
<!-- Node23&#45;&gt;Node24 -->
<g id="edge33_Node000023_Node000024" class="edge">
<title>Node23&#45;&gt;Node24</title>
<g id="a_edge33_Node000023_Node000024"><a xlink:title=" ">
<path fill="none" stroke="#63b8ff" d="M3027.14,-94.54C3038.79,-92.37 3051,-90.37 3062.5,-89 3426.06,-45.73 3523.37,-106.95 3885.5,-53 3907.44,-49.73 3931.56,-43.57 3950.5,-38.13"/>
<polygon fill="#63b8ff" stroke="#63b8ff" points="3026.24,-91.15 3017.09,-96.48 3027.57,-98.02 3026.24,-91.15"/>
</a>
</g>
</g>
<!-- Node25&#45;&gt;Node5 -->
<g id="edge35_Node000025_Node000005" class="edge">
<title>Node25&#45;&gt;Node5</title>
<g id="a_edge35_Node000025_Node000005"><a xlink:title=" ">
<path fill="none" stroke="#63b8ff" d="M2782.61,-86.63C2778.95,-73.98 2774.28,-57.86 2770.75,-45.64"/>
<polygon fill="#63b8ff" stroke="#63b8ff" points="2779.26,-87.64 2785.4,-96.28 2785.98,-85.7 2779.26,-87.64"/>
</a>
</g>
</g>
<!-- Node26 -->
<g id="Node000026" class="node">
<title>Node26</title>
<g id="a_Node000026"><a xlink:href="EspI2c_8cpp.html" target="_top" xlink:title="Implementation of ESP32&#45;integrated I2C controller with proper bus&#45;device architecture.">
<polygon fill="white" stroke="#666666" points="3478.5,-38 3302.5,-38 3302.5,-15 3478.5,-15 3478.5,-38"/>
<text text-anchor="middle" x="3390.5" y="-22.8" font-family="Arial" font-size="14.00">src/mcu/esp32/EspI2c.cpp</text>
</a>
</g>
</g>
<!-- Node25&#45;&gt;Node26 -->
<g id="edge36_Node000025_Node000026" class="edge">
<title>Node25&#45;&gt;Node26</title>
<g id="a_edge36_Node000025_Node000026"><a xlink:title=" ">
<path fill="none" stroke="#63b8ff" d="M2846.1,-94.49C2856.83,-92.45 2867.98,-90.5 2878.5,-89 3061.77,-62.81 3111.09,-84.65 3293.5,-53 3314.6,-49.34 3337.82,-43.31 3356.25,-38.03"/>
<polygon fill="#63b8ff" stroke="#63b8ff" points="2845.11,-91.12 2835.97,-96.48 2846.46,-97.99 2845.11,-91.12"/>
</a>
</g>
</g>
<!-- Node27&#45;&gt;Node17 -->
<g id="edge38_Node000027_Node000017" class="edge">
<title>Node27&#45;&gt;Node17</title>
<g id="a_edge38_Node000027_Node000017"><a xlink:title=" ">
<path fill="none" stroke="#63b8ff" d="M3301.21,-84.56C3275.79,-72.24 3244.7,-57.17 3220.85,-45.61"/>
<polygon fill="#63b8ff" stroke="#63b8ff" points="3299.76,-87.75 3310.29,-88.96 3302.81,-81.45 3299.76,-87.75"/>
</a>
</g>
</g>
<!-- Node28 -->
<g id="Node000028" class="node">
<title>Node28</title>
<g id="a_Node000028"><a xlink:href="EspPeriodicTimer_8cpp.html" target="_top" xlink:title="Implementation of MCU&#45;integrated periodic timer.">
<polygon fill="white" stroke="#666666" points="4475,-45.5 4294,-45.5 4294,-7.5 4475,-7.5 4475,-45.5"/>
<text text-anchor="start" x="4302" y="-30.3" font-family="Arial" font-size="14.00">src/mcu/esp32/EspPeriodic</text>
<text text-anchor="middle" x="4384.5" y="-15.3" font-family="Arial" font-size="14.00">Timer.cpp</text>
</a>
</g>
</g>
<!-- Node27&#45;&gt;Node28 -->
<g id="edge39_Node000027_Node000028" class="edge">
<title>Node27&#45;&gt;Node28</title>
<g id="a_edge39_Node000027_Node000028"><a xlink:title=" ">
<path fill="none" stroke="#63b8ff" d="M3448.03,-93.98C3464.86,-92.1 3482.16,-90.35 3498.5,-89 3847.46,-60.26 3939.23,-104.95 4285.5,-53 4297.61,-51.18 4310.39,-48.49 4322.59,-45.53"/>
<polygon fill="#63b8ff" stroke="#63b8ff" points="3447.16,-90.56 3437.62,-95.17 3447.95,-97.51 3447.16,-90.56"/>
</a>
</g>
</g>
<!-- Node29&#45;&gt;Node6 -->
<g id="edge41_Node000029_Node000006" class="edge">
<title>Node29&#45;&gt;Node6</title>
<g id="a_edge41_Node000029_Node000006"><a xlink:title=" ">
<path fill="none" stroke="#63b8ff" d="M2517.32,-104.84C2212.9,-97.47 1242.88,-72.7 1103.5,-53 1090.94,-51.22 1077.68,-48.53 1065.03,-45.56"/>
<polygon fill="#63b8ff" stroke="#63b8ff" points="2517.35,-108.34 2527.44,-105.08 2517.52,-101.34 2517.35,-108.34"/>
</a>
</g>
</g>
<!-- Node30 -->
<g id="Node000030" class="node">
<title>Node30</title>
<g id="a_Node000030"><a xlink:href="EspPio_8cpp.html" target="_top" xlink:title="ESP32C6 RMT&#45;based Programmable IO Channel implementation.">
<polygon fill="white" stroke="#666666" points="3876,-38 3699,-38 3699,-15 3876,-15 3876,-38"/>
<text text-anchor="middle" x="3787.5" y="-22.8" font-family="Arial" font-size="14.00">src/mcu/esp32/EspPio.cpp</text>
</a>
</g>
</g>
<!-- Node29&#45;&gt;Node30 -->
<g id="edge42_Node000029_Node000030" class="edge">
<title>Node29&#45;&gt;Node30</title>
<g id="a_edge42_Node000029_Node000030"><a xlink:title=" ">
<path fill="none" stroke="#63b8ff" d="M2664.51,-94.47C2676.03,-92.3 2688.12,-90.32 2699.5,-89 3137.28,-38.08 3254.5,-117.42 3690.5,-53 3712.2,-49.79 3736.04,-43.57 3754.65,-38.07"/>
<polygon fill="#63b8ff" stroke="#63b8ff" points="2663.71,-91.06 2654.57,-96.41 2665.05,-97.93 2663.71,-91.06"/>
</a>
</g>
</g>
<!-- Node31&#45;&gt;Node15 -->
<g id="edge44_Node000031_Node000015" class="edge">
<title>Node31&#45;&gt;Node15</title>
<g id="a_edge44_Node000031_Node000015"><a xlink:title=" ">
<path fill="none" stroke="#63b8ff" d="M3588.5,-86.25C3588.5,-73.65 3588.5,-57.73 3588.5,-45.64"/>
<polygon fill="#63b8ff" stroke="#63b8ff" points="3585,-86.28 3588.5,-96.28 3592,-86.28 3585,-86.28"/>
</a>
</g>
</g>
<!-- Node32 -->
<g id="Node000032" class="node">
<title>Node32</title>
<g id="a_Node000032"><a xlink:href="EspSpi_8cpp.html" target="_top" xlink:title="Implementation of MCU&#45;integrated SPI controller for ESP32C6 with ESP&#45;IDF v5.5+ features.">
<polygon fill="white" stroke="#666666" points="4670,-38 4493,-38 4493,-15 4670,-15 4670,-38"/>
<text text-anchor="middle" x="4581.5" y="-22.8" font-family="Arial" font-size="14.00">src/mcu/esp32/EspSpi.cpp</text>
</a>
</g>
</g>
<!-- Node31&#45;&gt;Node32 -->
<g id="edge45_Node000031_Node000032" class="edge">
<title>Node31&#45;&gt;Node32</title>
<g id="a_edge45_Node000031_Node000032"><a xlink:title=" ">
<path fill="none" stroke="#63b8ff" d="M3680.16,-107.4C3843.08,-106.8 4193.33,-99.58 4484.5,-53 4505.82,-49.59 4529.24,-43.5 4547.73,-38.13"/>
<polygon fill="#63b8ff" stroke="#63b8ff" points="3679.69,-103.9 3669.7,-107.43 3679.71,-110.9 3679.69,-103.9"/>
</a>
</g>
</g>
<!-- Node33&#45;&gt;Node18 -->
<g id="edge47_Node000033_Node000018" class="edge">
<title>Node33&#45;&gt;Node18</title>
<g id="a_edge47_Node000033_Node000018"><a xlink:title=" ">
<path fill="none" stroke="#63b8ff" d="M3095.92,-94.54C3084.84,-92.49 3073.35,-90.54 3062.5,-89 2886.64,-64.09 2839.72,-82.04 2664.5,-53 2652.38,-50.99 2639.59,-48.34 2627.26,-45.51"/>
<polygon fill="#63b8ff" stroke="#63b8ff" points="3095.47,-98.02 3105.94,-96.45 3096.77,-91.14 3095.47,-98.02"/>
</a>
</g>
</g>
<!-- Node34 -->
<g id="Node000034" class="node">
<title>Node34</title>
<g id="a_Node000034"><a xlink:href="EspUart_8cpp.html" target="_top" xlink:title="Implementation of ESP32 UART controller for the HardFOC system.">
<polygon fill="white" stroke="#666666" points="4276,-38 4093,-38 4093,-15 4276,-15 4276,-38"/>
<text text-anchor="middle" x="4184.5" y="-22.8" font-family="Arial" font-size="14.00">src/mcu/esp32/EspUart.cpp</text>
</a>
</g>
</g>
<!-- Node33&#45;&gt;Node34 -->
<g id="edge48_Node000033_Node000034" class="edge">
<title>Node33&#45;&gt;Node34</title>
<g id="a_edge48_Node000033_Node000034"><a xlink:title=" ">
<path fill="none" stroke="#63b8ff" d="M3212.76,-94.54C3224.53,-92.37 3236.88,-90.37 3248.5,-89 3617.85,-45.55 3716.58,-107.24 4084.5,-53 4106.83,-49.71 4131.41,-43.48 4150.61,-38"/>
<polygon fill="#63b8ff" stroke="#63b8ff" points="3211.76,-91.16 3202.6,-96.48 3213.08,-98.04 3211.76,-91.16"/>
</a>
</g>
</g>
<!-- Node35&#45;&gt;Node22 -->
<g id="edge53_Node000035_Node000022" class="edge">
<title>Node35&#45;&gt;Node22</title>
<g id="a_edge53_Node000035_Node000022"><a xlink:title=" ">
<path fill="none" stroke="#63b8ff" d="M1187.26,-243.73C1207.47,-241.12 1229.27,-238.64 1249.5,-237 1855.56,-187.83 2591.84,-183.16 2813.38,-182.92"/>
<polygon fill="#63b8ff" stroke="#63b8ff" points="1186.63,-240.28 1177.18,-245.05 1187.55,-247.22 1186.63,-240.28"/>
</a>
</g>
</g>
<!-- Node36 -->
<g id="Node000036" class="node">
<title>Node36</title>
<g id="a_Node000036"><a xlink:href="EspPwm_8h.html" target="_top" xlink:title="ESP32C6 LEDC (PWM) controller implementation for the HardFOC system.">
<polygon fill="white" stroke="#666666" points="1197,-193.5 1024,-193.5 1024,-170.5 1197,-170.5 1197,-193.5"/>
<text text-anchor="middle" x="1110.5" y="-178.3" font-family="Arial" font-size="14.00">inc/mcu/esp32/EspPwm.h</text>
</a>
</g>
</g>
<!-- Node35&#45;&gt;Node36 -->
<g id="edge50_Node000035_Node000036" class="edge">
<title>Node35&#45;&gt;Node36</title>
<g id="a_edge50_Node000035_Node000036"><a xlink:title=" ">
<path fill="none" stroke="#63b8ff" d="M1110.5,-226.62C1110.5,-214.99 1110.5,-202.26 1110.5,-193.57"/>
<polygon fill="#63b8ff" stroke="#63b8ff" points="1107,-226.83 1110.5,-236.83 1114,-226.83 1107,-226.83"/>
</a>
</g>
</g>
<!-- Node36&#45;&gt;Node7 -->
<g id="edge51_Node000036_Node000007" class="edge">
<title>Node36&#45;&gt;Node7</title>
<g id="a_edge51_Node000036_Node000007"><a xlink:title=" ">
<path fill="none" stroke="#63b8ff" d="M1078.62,-166.13C1031.75,-145.01 940.96,-106.91 859.5,-89 667.43,-46.78 612.71,-83.88 418.5,-53 406.05,-51.02 392.91,-48.37 380.26,-45.52"/>
<polygon fill="#63b8ff" stroke="#63b8ff" points="1077.39,-169.41 1087.94,-170.37 1080.28,-163.04 1077.39,-169.41"/>
</a>
</g>
</g>
<!-- Node37 -->
<g id="Node000037" class="node">
<title>Node37</title>
<g id="a_Node000037"><a xlink:href="EspPwm_8cpp.html" target="_top" xlink:title="Implementation of ESP32 family LEDC (PWM) controller for the HardFOC system.">
<polygon fill="white" stroke="#666666" points="1913.5,-119.5 1725.5,-119.5 1725.5,-96.5 1913.5,-96.5 1913.5,-119.5"/>
<text text-anchor="middle" x="1819.5" y="-104.3" font-family="Arial" font-size="14.00">src/mcu/esp32/EspPwm.cpp</text>
</a>
</g>
</g>
<!-- Node36&#45;&gt;Node37 -->
<g id="edge52_Node000036_Node000037" class="edge">
<title>Node36&#45;&gt;Node37</title>
<g id="a_edge52_Node000036_Node000037"><a xlink:title=" ">
<path fill="none" stroke="#63b8ff" d="M1207.49,-174.55C1326.49,-166.12 1534.3,-149.69 1711.5,-127 1727.71,-124.92 1745.22,-122.21 1761.33,-119.52"/>
<polygon fill="#63b8ff" stroke="#63b8ff" points="1207.04,-171.07 1197.31,-175.27 1207.53,-178.06 1207.04,-171.07"/>
</a>
</g>
</g>
<!-- Node38&#45;&gt;Node4 -->
<g id="edge55_Node000038_Node000004" class="edge">
<title>Node38&#45;&gt;Node4</title>
<g id="a_edge55_Node000038_Node000004"><a xlink:title=" ">
<path fill="none" stroke="#63b8ff" d="M1229.9,-308.53C1236.04,-273.92 1242.71,-203.65 1206.5,-163 1044.74,18.59 909.7,-96.85 670.5,-53 667.43,-52.44 664.31,-51.86 661.17,-51.27"/>
<polygon fill="#63b8ff" stroke="#63b8ff" points="1226.45,-307.95 1227.98,-318.43 1233.32,-309.28 1226.45,-307.95"/>
</a>
</g>
</g>
<!-- Node39 -->
<g id="Node000039" class="node">
<title>Node39</title>
<g id="a_Node000039"><a xlink:href="DigitalOutputGuard_8cpp.html" target="_top" xlink:title="Implementation of the DigitalOutputGuard class for unified DigitalGpio.">
<polygon fill="white" stroke="#666666" points="1501,-267.5 1292,-267.5 1292,-244.5 1501,-244.5 1501,-267.5"/>
<text text-anchor="middle" x="1396.5" y="-252.3" font-family="Arial" font-size="14.00">src/utils/DigitalOutputGuard.cpp</text>
</a>
</g>
</g>
<!-- Node38&#45;&gt;Node39 -->
<g id="edge56_Node000038_Node000039" class="edge">
<title>Node38&#45;&gt;Node39</title>
<g id="a_edge56_Node000038_Node000039"><a xlink:title=" ">
<path fill="none" stroke="#63b8ff" d="M1260.01,-314.47C1293.02,-300.57 1342.01,-279.94 1371.44,-267.55"/>
<polygon fill="#63b8ff" stroke="#63b8ff" points="1258.59,-311.27 1250.73,-318.38 1261.31,-317.72 1258.59,-311.27"/>
</a>
</g>
</g>
</g>
</svg>
