<?xml version="1.0" encoding="UTF-8" standalone="no"?>
<!DOCTYPE svg PUBLIC "-//W3C//DTD SVG 1.1//EN"
 "http://www.w3.org/Graphics/SVG/1.1/DTD/svg11.dtd">
<!-- Generated by graphviz version 2.43.0 (0)
 -->
<!-- Title: inc/base/BaseAdc.h Pages: 1 -->
<svg width="2417pt" height="327pt"
 viewBox="0.00 0.00 2417.00 327.00" xmlns="http://www.w3.org/2000/svg" xmlns:xlink="http://www.w3.org/1999/xlink">
<g id="graph0" class="graph" transform="scale(1 1) rotate(0) translate(4 323)">
<title>inc/base/BaseAdc.h</title>
<!-- Node1 -->
<g id="Node000001" class="node">
<title>Node1</title>
<g id="a_Node000001"><a xlink:title="Abstract base class for ADC implementations in the HardFOC system.">
<polygon fill="#999999" stroke="#666666" points="2283.5,-319 2147.5,-319 2147.5,-296 2283.5,-296 2283.5,-319"/>
<text text-anchor="middle" x="2215.5" y="-303.8" font-family="Arial" font-size="14.00">inc/base/BaseAdc.h</text>
</a>
</g>
</g>
<!-- Node2 -->
<g id="Node000002" class="node">
<title>Node2</title>
<g id="a_Node000002"><a xlink:href="AdcComprehensiveTest_8cpp.html" target="_top" xlink:title="Comprehensive ADC testing suite for ESP32&#45;C6 DevKit&#45;M&#45;1 (noexcept)">
<polygon fill="white" stroke="#666666" points="2409,-38 2220,-38 2220,0 2409,0 2409,-38"/>
<text text-anchor="start" x="2228" y="-22.8" font-family="Arial" font-size="14.00">examples/esp32/main</text>
<text text-anchor="middle" x="2314.5" y="-7.8" font-family="Arial" font-size="14.00">/AdcComprehensiveTest.cpp</text>
</a>
</g>
</g>
<!-- Node1&#45;&gt;Node2 -->
<g id="edge1_Node000001_Node000002" class="edge">
<title>Node1&#45;&gt;Node2</title>
<g id="a_edge1_Node000001_Node000002"><a xlink:title=" ">
<path fill="none" stroke="#63b8ff" d="M2254.19,-291.26C2267.89,-283.89 2282,-273.62 2290.5,-260 2335.16,-188.41 2324.38,-80.83 2317.77,-38.27"/>
<polygon fill="#63b8ff" stroke="#63b8ff" points="2252.23,-288.32 2244.84,-295.9 2255.35,-294.59 2252.23,-288.32"/>
</a>
</g>
</g>
<!-- Node3 -->
<g id="Node000003" class="node">
<title>Node3</title>
<g id="a_Node000003"><a xlink:href="EspAdc_8h.html" target="_top" xlink:title="ESP32 ADC implementation for the HardFOC system.">
<polygon fill="white" stroke="#666666" points="2196.5,-104.5 2030.5,-104.5 2030.5,-81.5 2196.5,-81.5 2196.5,-104.5"/>
<text text-anchor="middle" x="2113.5" y="-89.3" font-family="Arial" font-size="14.00">inc/mcu/esp32/EspAdc.h</text>
</a>
</g>
</g>
<!-- Node1&#45;&gt;Node3 -->
<g id="edge2_Node000001_Node000003" class="edge">
<title>Node1&#45;&gt;Node3</title>
<g id="a_edge2_Node000001_Node000003"><a xlink:title=" ">
<path fill="none" stroke="#63b8ff" d="M2177.96,-291.36C2164.1,-283.93 2149.57,-273.59 2140.5,-260 2107.11,-209.97 2109.97,-132.97 2112.37,-104.8"/>
<polygon fill="#63b8ff" stroke="#63b8ff" points="2176.4,-294.5 2186.91,-295.83 2179.53,-288.23 2176.4,-294.5"/>
</a>
</g>
</g>
<!-- Node5 -->
<g id="Node000005" class="node">
<title>Node5</title>
<g id="a_Node000005"><a xlink:href="EspTypes__ADC_8h.html" target="_top" xlink:title="ESP32 ADC type definitions for hardware abstraction.">
<polygon fill="white" stroke="#666666" points="2281.5,-260 2149.5,-260 2149.5,-222 2281.5,-222 2281.5,-260"/>
<text text-anchor="start" x="2157.5" y="-244.8" font-family="Arial" font-size="14.00">inc/mcu/esp32/utils</text>
<text text-anchor="middle" x="2215.5" y="-229.8" font-family="Arial" font-size="14.00">/EspTypes_ADC.h</text>
</a>
</g>
</g>
<!-- Node1&#45;&gt;Node5 -->
<g id="edge5_Node000001_Node000005" class="edge">
<title>Node1&#45;&gt;Node5</title>
<g id="a_edge5_Node000001_Node000005"><a xlink:title=" ">
<path fill="none" stroke="#63b8ff" d="M2215.5,-285.63C2215.5,-277.45 2215.5,-268.15 2215.5,-260.24"/>
<polygon fill="#63b8ff" stroke="#63b8ff" points="2212,-285.85 2215.5,-295.85 2219,-285.85 2212,-285.85"/>
</a>
</g>
</g>
<!-- Node3&#45;&gt;Node2 -->
<g id="edge3_Node000003_Node000002" class="edge">
<title>Node3&#45;&gt;Node2</title>
<g id="a_edge3_Node000003_Node000002"><a xlink:title=" ">
<path fill="none" stroke="#63b8ff" d="M2152.58,-78C2184.39,-66.61 2229.51,-50.44 2264.05,-38.07"/>
<polygon fill="#63b8ff" stroke="#63b8ff" points="2151.39,-74.71 2143.16,-81.38 2153.75,-81.3 2151.39,-74.71"/>
</a>
</g>
</g>
<!-- Node4 -->
<g id="Node000004" class="node">
<title>Node4</title>
<g id="a_Node000004"><a xlink:href="EspAdc_8cpp.html" target="_top" xlink:title="ESP32 ADC implementation for the HardFOC system.">
<polygon fill="white" stroke="#666666" points="2202,-30.5 2021,-30.5 2021,-7.5 2202,-7.5 2202,-30.5"/>
<text text-anchor="middle" x="2111.5" y="-15.3" font-family="Arial" font-size="14.00">src/mcu/esp32/EspAdc.cpp</text>
</a>
</g>
</g>
<!-- Node3&#45;&gt;Node4 -->
<g id="edge4_Node000003_Node000004" class="edge">
<title>Node3&#45;&gt;Node4</title>
<g id="a_edge4_Node000003_Node000004"><a xlink:title=" ">
<path fill="none" stroke="#63b8ff" d="M2112.92,-71.23C2112.55,-57.97 2112.09,-41.32 2111.8,-30.67"/>
<polygon fill="#63b8ff" stroke="#63b8ff" points="2109.43,-71.48 2113.2,-81.38 2116.43,-71.28 2109.43,-71.48"/>
</a>
</g>
</g>
<!-- Node5&#45;&gt;Node2 -->
<g id="edge6_Node000005_Node000002" class="edge">
<title>Node5&#45;&gt;Node2</title>
<g id="a_edge6_Node000005_Node000002"><a xlink:title=" ">
<path fill="none" stroke="#63b8ff" d="M2227.77,-212.74C2248.25,-167.21 2288.89,-76.91 2306.29,-38.25"/>
<polygon fill="#63b8ff" stroke="#63b8ff" points="2224.51,-211.44 2223.6,-222 2230.9,-214.31 2224.51,-211.44"/>
</a>
</g>
</g>
<!-- Node6 -->
<g id="Node000006" class="node">
<title>Node6</title>
<g id="a_Node000006"><a xlink:href="EspTypes_8h.html" target="_top" xlink:title="Consolidated MCU&#45;specific type definitions for hardware abstraction (hf_* types).">
<polygon fill="white" stroke="#666666" points="1482.5,-186 1350.5,-186 1350.5,-148 1482.5,-148 1482.5,-186"/>
<text text-anchor="start" x="1358.5" y="-170.8" font-family="Arial" font-size="14.00">inc/mcu/esp32/utils</text>
<text text-anchor="middle" x="1416.5" y="-155.8" font-family="Arial" font-size="14.00">/EspTypes.h</text>
</a>
</g>
</g>
<!-- Node5&#45;&gt;Node6 -->
<g id="edge7_Node000005_Node000006" class="edge">
<title>Node5&#45;&gt;Node6</title>
<g id="a_edge7_Node000005_Node000006"><a xlink:title=" ">
<path fill="none" stroke="#63b8ff" d="M2139.45,-233.15C1983.5,-219.09 1629.79,-187.22 1482.64,-173.96"/>
<polygon fill="#63b8ff" stroke="#63b8ff" points="2139.16,-236.63 2149.43,-234.05 2139.79,-229.66 2139.16,-236.63"/>
</a>
</g>
</g>
<!-- Node6&#45;&gt;Node3 -->
<g id="edge8_Node000006_Node000003" class="edge">
<title>Node6&#45;&gt;Node3</title>
<g id="a_edge8_Node000006_Node000003"><a xlink:title=" ">
<path fill="none" stroke="#63b8ff" d="M1492.72,-158.13C1624.51,-144.51 1893.95,-116.68 2030.39,-102.59"/>
<polygon fill="#63b8ff" stroke="#63b8ff" points="1492.29,-154.65 1482.7,-159.16 1493.01,-161.62 1492.29,-154.65"/>
</a>
</g>
</g>
<!-- Node7 -->
<g id="Node000007" class="node">
<title>Node7</title>
<g id="a_Node000007"><a xlink:href="EspI2c_8h.html" target="_top" xlink:title="Advanced ESP32&#45;integrated I2C controller for ESP&#45;IDF v5.5+ with proper bus&#45;device architecture.">
<polygon fill="white" stroke="#666666" points="781,-104.5 620,-104.5 620,-81.5 781,-81.5 781,-104.5"/>
<text text-anchor="middle" x="700.5" y="-89.3" font-family="Arial" font-size="14.00">inc/mcu/esp32/EspI2c.h</text>
</a>
</g>
</g>
<!-- Node6&#45;&gt;Node7 -->
<g id="edge9_Node000006_Node000007" class="edge">
<title>Node6&#45;&gt;Node7</title>
<g id="a_edge9_Node000006_Node000007"><a xlink:title=" ">
<path fill="none" stroke="#63b8ff" d="M1340.08,-158.32C1203.82,-144.61 920.19,-116.09 781.03,-102.1"/>
<polygon fill="#63b8ff" stroke="#63b8ff" points="1340.12,-161.84 1350.42,-159.36 1340.82,-154.87 1340.12,-161.84"/>
</a>
</g>
</g>
<!-- Node10 -->
<g id="Node000010" class="node">
<title>Node10</title>
<g id="a_Node000010"><a xlink:href="EspPeriodicTimer_8h.html" target="_top" xlink:title="MCU&#45;integrated periodic timer implementation.">
<polygon fill="white" stroke="#666666" points="1206.5,-112 1026.5,-112 1026.5,-74 1206.5,-74 1206.5,-112"/>
<text text-anchor="start" x="1034.5" y="-96.8" font-family="Arial" font-size="14.00">inc/mcu/esp32/EspPeriodic</text>
<text text-anchor="middle" x="1116.5" y="-81.8" font-family="Arial" font-size="14.00">Timer.h</text>
</a>
</g>
</g>
<!-- Node6&#45;&gt;Node10 -->
<g id="edge12_Node000006_Node000010" class="edge">
<title>Node6&#45;&gt;Node10</title>
<g id="a_edge12_Node000006_Node000010"><a xlink:title=" ">
<path fill="none" stroke="#63b8ff" d="M1340.45,-147.75C1294.8,-136.79 1236.97,-122.91 1191.51,-112"/>
<polygon fill="#63b8ff" stroke="#63b8ff" points="1339.75,-151.18 1350.29,-150.11 1341.39,-144.37 1339.75,-151.18"/>
</a>
</g>
</g>
<!-- Node13 -->
<g id="Node000013" class="node">
<title>Node13</title>
<g id="a_Node000013"><a xlink:href="EspPio_8h.html" target="_top" xlink:title="ESP32C6 RMT&#45;based Programmable IO Channel implementation with ESP&#45;IDF v5.5+ features.">
<polygon fill="white" stroke="#666666" points="1497.5,-104.5 1335.5,-104.5 1335.5,-81.5 1497.5,-81.5 1497.5,-104.5"/>
<text text-anchor="middle" x="1416.5" y="-89.3" font-family="Arial" font-size="14.00">inc/mcu/esp32/EspPio.h</text>
</a>
</g>
</g>
<!-- Node6&#45;&gt;Node13 -->
<g id="edge15_Node000006_Node000013" class="edge">
<title>Node6&#45;&gt;Node13</title>
<g id="a_edge15_Node000006_Node000013"><a xlink:title=" ">
<path fill="none" stroke="#63b8ff" d="M1416.5,-137.62C1416.5,-125.99 1416.5,-113.26 1416.5,-104.57"/>
<polygon fill="#63b8ff" stroke="#63b8ff" points="1413,-137.83 1416.5,-147.83 1420,-137.83 1413,-137.83"/>
</a>
</g>
</g>
<!-- Node16 -->
<g id="Node000016" class="node">
<title>Node16</title>
<g id="a_Node000016"><a xlink:href="EspSpi_8h.html" target="_top" xlink:title="Advanced MCU&#45;integrated SPI controller implementation with ESP32C6/ESP&#45;IDF v5.5+ features.">
<polygon fill="white" stroke="#666666" points="1796.5,-104.5 1634.5,-104.5 1634.5,-81.5 1796.5,-81.5 1796.5,-104.5"/>
<text text-anchor="middle" x="1715.5" y="-89.3" font-family="Arial" font-size="14.00">inc/mcu/esp32/EspSpi.h</text>
</a>
</g>
</g>
<!-- Node6&#45;&gt;Node16 -->
<g id="edge18_Node000006_Node000016" class="edge">
<title>Node6&#45;&gt;Node16</title>
<g id="a_edge18_Node000006_Node000016"><a xlink:title=" ">
<path fill="none" stroke="#63b8ff" d="M1492.84,-147.62C1549.45,-133.99 1624.63,-115.88 1671.53,-104.59"/>
<polygon fill="#63b8ff" stroke="#63b8ff" points="1491.76,-144.28 1482.86,-150.02 1493.4,-151.08 1491.76,-144.28"/>
</a>
</g>
</g>
<!-- Node19 -->
<g id="Node000019" class="node">
<title>Node19</title>
<g id="a_Node000019"><a xlink:href="EspUart_8h.html" target="_top" xlink:title="ESP32 UART implementation for the HardFOC system.">
<polygon fill="white" stroke="#666666" points="384.5,-104.5 216.5,-104.5 216.5,-81.5 384.5,-81.5 384.5,-104.5"/>
<text text-anchor="middle" x="300.5" y="-89.3" font-family="Arial" font-size="14.00">inc/mcu/esp32/EspUart.h</text>
</a>
</g>
</g>
<!-- Node6&#45;&gt;Node19 -->
<g id="edge21_Node000006_Node000019" class="edge">
<title>Node6&#45;&gt;Node19</title>
<g id="a_edge21_Node000006_Node000019"><a xlink:title=" ">
<path fill="none" stroke="#63b8ff" d="M1340.27,-161.08C1139.09,-148.1 594.98,-113 384.88,-99.44"/>
<polygon fill="#63b8ff" stroke="#63b8ff" points="1340.24,-164.59 1350.44,-161.74 1340.69,-157.6 1340.24,-164.59"/>
</a>
</g>
</g>
<!-- Node8 -->
<g id="Node000008" class="node">
<title>Node8</title>
<g id="a_Node000008"><a xlink:href="I2cComprehensiveTest_8cpp.html" target="_top" xlink:title="Comprehensive I2C testing suite for ESP32&#45;C6 DevKit&#45;M&#45;1 (noexcept)">
<polygon fill="white" stroke="#666666" points="594.5,-38 410.5,-38 410.5,0 594.5,0 594.5,-38"/>
<text text-anchor="start" x="418.5" y="-22.8" font-family="Arial" font-size="14.00">examples/esp32/main</text>
<text text-anchor="middle" x="502.5" y="-7.8" font-family="Arial" font-size="14.00">/I2cComprehensiveTest.cpp</text>
</a>
</g>
</g>
<!-- Node7&#45;&gt;Node8 -->
<g id="edge10_Node000007_Node000008" class="edge">
<title>Node7&#45;&gt;Node8</title>
<g id="a_edge10_Node000007_Node000008"><a xlink:title=" ">
<path fill="none" stroke="#63b8ff" d="M661.6,-77.85C630.29,-66.47 586.07,-50.39 552.2,-38.07"/>
<polygon fill="#63b8ff" stroke="#63b8ff" points="660.69,-81.25 671.28,-81.38 663.08,-74.67 660.69,-81.25"/>
</a>
</g>
</g>
<!-- Node9 -->
<g id="Node000009" class="node">
<title>Node9</title>
<g id="a_Node000009"><a xlink:href="EspI2c_8cpp.html" target="_top" xlink:title="Implementation of ESP32&#45;integrated I2C controller with proper bus&#45;device architecture.">
<polygon fill="white" stroke="#666666" points="788.5,-30.5 612.5,-30.5 612.5,-7.5 788.5,-7.5 788.5,-30.5"/>
<text text-anchor="middle" x="700.5" y="-15.3" font-family="Arial" font-size="14.00">src/mcu/esp32/EspI2c.cpp</text>
</a>
</g>
</g>
<!-- Node7&#45;&gt;Node9 -->
<g id="edge11_Node000007_Node000009" class="edge">
<title>Node7&#45;&gt;Node9</title>
<g id="a_edge11_Node000007_Node000009"><a xlink:title=" ">
<path fill="none" stroke="#63b8ff" d="M700.5,-71.23C700.5,-57.97 700.5,-41.32 700.5,-30.67"/>
<polygon fill="#63b8ff" stroke="#63b8ff" points="697,-71.38 700.5,-81.38 704,-71.38 697,-71.38"/>
</a>
</g>
</g>
<!-- Node11 -->
<g id="Node000011" class="node">
<title>Node11</title>
<g id="a_Node000011"><a xlink:href="TimerComprehensiveTest_8cpp.html" target="_top" xlink:title="ESP32&#45;C6 Periodic Timer Comprehensive Test Suite v2.0.">
<polygon fill="white" stroke="#666666" points="1008,-38 807,-38 807,0 1008,0 1008,-38"/>
<text text-anchor="start" x="815" y="-22.8" font-family="Arial" font-size="14.00">examples/esp32/main</text>
<text text-anchor="middle" x="907.5" y="-7.8" font-family="Arial" font-size="14.00">/TimerComprehensiveTest.cpp</text>
</a>
</g>
</g>
<!-- Node10&#45;&gt;Node11 -->
<g id="edge13_Node000010_Node000011" class="edge">
<title>Node10&#45;&gt;Node11</title>
<g id="a_edge13_Node000010_Node000011"><a xlink:title=" ">
<path fill="none" stroke="#63b8ff" d="M1054.48,-70.64C1024.41,-60.28 988.69,-47.97 959.99,-38.08"/>
<polygon fill="#63b8ff" stroke="#63b8ff" points="1053.44,-73.98 1064.03,-73.92 1055.72,-67.36 1053.44,-73.98"/>
</a>
</g>
</g>
<!-- Node12 -->
<g id="Node000012" class="node">
<title>Node12</title>
<g id="a_Node000012"><a xlink:href="EspPeriodicTimer_8cpp.html" target="_top" xlink:title="Implementation of MCU&#45;integrated periodic timer.">
<polygon fill="white" stroke="#666666" points="1207,-38 1026,-38 1026,0 1207,0 1207,-38"/>
<text text-anchor="start" x="1034" y="-22.8" font-family="Arial" font-size="14.00">src/mcu/esp32/EspPeriodic</text>
<text text-anchor="middle" x="1116.5" y="-7.8" font-family="Arial" font-size="14.00">Timer.cpp</text>
</a>
</g>
</g>
<!-- Node10&#45;&gt;Node12 -->
<g id="edge14_Node000010_Node000012" class="edge">
<title>Node10&#45;&gt;Node12</title>
<g id="a_edge14_Node000010_Node000012"><a xlink:title=" ">
<path fill="none" stroke="#63b8ff" d="M1116.5,-63.57C1116.5,-55.11 1116.5,-46.06 1116.5,-38.41"/>
<polygon fill="#63b8ff" stroke="#63b8ff" points="1113,-63.83 1116.5,-73.83 1120,-63.83 1113,-63.83"/>
</a>
</g>
</g>
<!-- Node14 -->
<g id="Node000014" class="node">
<title>Node14</title>
<g id="a_Node000014"><a xlink:href="PioComprehensiveTest_8cpp.html" target="_top" xlink:title="Comprehensive PIO testing suite for ESP32&#45;C6 DevKit&#45;M&#45;1 with RMT peripheral (noexcept)">
<polygon fill="white" stroke="#666666" points="1410,-38 1225,-38 1225,0 1410,0 1410,-38"/>
<text text-anchor="start" x="1233" y="-22.8" font-family="Arial" font-size="14.00">examples/esp32/main</text>
<text text-anchor="middle" x="1317.5" y="-7.8" font-family="Arial" font-size="14.00">/PioComprehensiveTest.cpp</text>
</a>
</g>
</g>
<!-- Node13&#45;&gt;Node14 -->
<g id="edge16_Node000013_Node000014" class="edge">
<title>Node13&#45;&gt;Node14</title>
<g id="a_edge16_Node000013_Node000014"><a xlink:title=" ">
<path fill="none" stroke="#63b8ff" d="M1393.52,-75.29C1378.26,-64.19 1358.22,-49.61 1342.54,-38.21"/>
<polygon fill="#63b8ff" stroke="#63b8ff" points="1391.75,-78.32 1401.89,-81.38 1395.86,-72.66 1391.75,-78.32"/>
</a>
</g>
</g>
<!-- Node15 -->
<g id="Node000015" class="node">
<title>Node15</title>
<g id="a_Node000015"><a xlink:href="EspPio_8cpp.html" target="_top" xlink:title="ESP32C6 RMT&#45;based Programmable IO Channel implementation.">
<polygon fill="white" stroke="#666666" points="1605,-30.5 1428,-30.5 1428,-7.5 1605,-7.5 1605,-30.5"/>
<text text-anchor="middle" x="1516.5" y="-15.3" font-family="Arial" font-size="14.00">src/mcu/esp32/EspPio.cpp</text>
</a>
</g>
</g>
<!-- Node13&#45;&gt;Node15 -->
<g id="edge17_Node000013_Node000015" class="edge">
<title>Node13&#45;&gt;Node15</title>
<g id="a_edge17_Node000013_Node000015"><a xlink:title=" ">
<path fill="none" stroke="#63b8ff" d="M1439.45,-75.48C1458.58,-61.7 1485.26,-42.49 1501.68,-30.67"/>
<polygon fill="#63b8ff" stroke="#63b8ff" points="1437.33,-72.69 1431.26,-81.38 1441.42,-78.37 1437.33,-72.69"/>
</a>
</g>
</g>
<!-- Node17 -->
<g id="Node000017" class="node">
<title>Node17</title>
<g id="a_Node000017"><a xlink:href="SpiComprehensiveTest_8cpp.html" target="_top" xlink:title="Comprehensive SPI testing suite for ESP32&#45;C6 DevKit&#45;M&#45;1 (noexcept)">
<polygon fill="white" stroke="#666666" points="1808,-38 1623,-38 1623,0 1808,0 1808,-38"/>
<text text-anchor="start" x="1631" y="-22.8" font-family="Arial" font-size="14.00">examples/esp32/main</text>
<text text-anchor="middle" x="1715.5" y="-7.8" font-family="Arial" font-size="14.00">/SpiComprehensiveTest.cpp</text>
</a>
</g>
</g>
<!-- Node16&#45;&gt;Node17 -->
<g id="edge19_Node000016_Node000017" class="edge">
<title>Node16&#45;&gt;Node17</title>
<g id="a_edge19_Node000016_Node000017"><a xlink:title=" ">
<path fill="none" stroke="#63b8ff" d="M1715.5,-71.1C1715.5,-60.69 1715.5,-48.23 1715.5,-38.21"/>
<polygon fill="#63b8ff" stroke="#63b8ff" points="1712,-71.38 1715.5,-81.38 1719,-71.38 1712,-71.38"/>
</a>
</g>
</g>
<!-- Node18 -->
<g id="Node000018" class="node">
<title>Node18</title>
<g id="a_Node000018"><a xlink:href="EspSpi_8cpp.html" target="_top" xlink:title="Implementation of MCU&#45;integrated SPI controller for ESP32C6 with ESP&#45;IDF v5.5+ features.">
<polygon fill="white" stroke="#666666" points="2003,-30.5 1826,-30.5 1826,-7.5 2003,-7.5 2003,-30.5"/>
<text text-anchor="middle" x="1914.5" y="-15.3" font-family="Arial" font-size="14.00">src/mcu/esp32/EspSpi.cpp</text>
</a>
</g>
</g>
<!-- Node16&#45;&gt;Node18 -->
<g id="edge20_Node000016_Node000018" class="edge">
<title>Node16&#45;&gt;Node18</title>
<g id="a_edge20_Node000016_Node000018"><a xlink:title=" ">
<path fill="none" stroke="#63b8ff" d="M1754.67,-77.83C1793.09,-63.93 1850.79,-43.05 1885.34,-30.55"/>
<polygon fill="#63b8ff" stroke="#63b8ff" points="1753.08,-74.68 1744.86,-81.38 1755.46,-81.27 1753.08,-74.68"/>
</a>
</g>
</g>
<!-- Node20 -->
<g id="Node000020" class="node">
<title>Node20</title>
<g id="a_Node000020"><a xlink:href="UartComprehensiveTest_8cpp.html" target="_top" xlink:title="Comprehensive UART testing suite for ESP32&#45;C6 DevKit&#45;M&#45;1 (noexcept)">
<polygon fill="white" stroke="#666666" points="191,-38 0,-38 0,0 191,0 191,-38"/>
<text text-anchor="start" x="8" y="-22.8" font-family="Arial" font-size="14.00">examples/esp32/main</text>
<text text-anchor="middle" x="95.5" y="-7.8" font-family="Arial" font-size="14.00">/UartComprehensiveTest.cpp</text>
</a>
</g>
</g>
<!-- Node19&#45;&gt;Node20 -->
<g id="edge22_Node000019_Node000020" class="edge">
<title>Node19&#45;&gt;Node20</title>
<g id="a_edge22_Node000019_Node000020"><a xlink:title=" ">
<path fill="none" stroke="#63b8ff" d="M260.65,-78C228.2,-66.61 182.18,-50.44 146.95,-38.07"/>
<polygon fill="#63b8ff" stroke="#63b8ff" points="259.66,-81.36 270.25,-81.38 261.98,-74.76 259.66,-81.36"/>
</a>
</g>
</g>
<!-- Node21 -->
<g id="Node000021" class="node">
<title>Node21</title>
<g id="a_Node000021"><a xlink:href="EspUart_8cpp.html" target="_top" xlink:title="Implementation of ESP32 UART controller for the HardFOC system.">
<polygon fill="white" stroke="#666666" points="392,-30.5 209,-30.5 209,-7.5 392,-7.5 392,-30.5"/>
<text text-anchor="middle" x="300.5" y="-15.3" font-family="Arial" font-size="14.00">src/mcu/esp32/EspUart.cpp</text>
</a>
</g>
</g>
<!-- Node19&#45;&gt;Node21 -->
<g id="edge23_Node000019_Node000021" class="edge">
<title>Node19&#45;&gt;Node21</title>
<g id="a_edge23_Node000019_Node000021"><a xlink:title=" ">
<path fill="none" stroke="#63b8ff" d="M300.5,-71.23C300.5,-57.97 300.5,-41.32 300.5,-30.67"/>
<polygon fill="#63b8ff" stroke="#63b8ff" points="297,-71.38 300.5,-81.38 304,-71.38 297,-71.38"/>
</a>
</g>
</g>
</g>
</svg>
