<?xml version="1.0" encoding="UTF-8" standalone="no"?>
<!DOCTYPE svg PUBLIC "-//W3C//DTD SVG 1.1//EN"
 "http://www.w3.org/Graphics/SVG/1.1/DTD/svg11.dtd">
<!-- Generated by graphviz version 2.43.0 (0)
 -->
<!-- Title: inc/base/BasePeriodicTimer.h Pages: 1 -->
<svg width="408pt" height="179pt"
 viewBox="0.00 0.00 408.00 179.00" xmlns="http://www.w3.org/2000/svg" xmlns:xlink="http://www.w3.org/1999/xlink">

<svg id="main" version="1.1" xmlns="http://www.w3.org/2000/svg" xmlns:xlink="http://www.w3.org/1999/xlink" xml:space="preserve" onload="init(evt)">
<style type="text/css"><![CDATA[
.node, .edge {opacity: 0.7;}
.node.selected, .edge.selected {opacity: 1;}
.edge:hover path { stroke: red; }
.edge:hover polygon { stroke: red; fill: red; }
]]></style>
<script type="application/ecmascript" xlink:href="svg.min.js"/>
<svg id="graph" class="graph">
<g id="graph0" class="graph" transform="scale(1 1) rotate(0) translate(4 175)">
<title>inc/base/BasePeriodicTimer.h</title>
<!-- Node1 -->
<g id="Node000001" class="node">
<title>Node1</title>
<g id="a_Node000001"><a xlink:title="Abstract base class for periodic timer implementations in the HardFOC system.">
<polygon fill="#999999" stroke="#666666" points="257.5,-171 61.5,-171 61.5,-148 257.5,-148 257.5,-171"/>
<text text-anchor="middle" x="159.5" y="-155.8" font-family="Arial" font-size="14.00">inc/base/BasePeriodicTimer.h</text>
</a>
</g>
</g>
<!-- Node2 -->
<g id="Node000002" class="node">
<title>Node2</title>
<g id="a_Node000002"><a xlink:href="TimerComprehensiveTest_8cpp.html" target="_top" xlink:title="ESP32&#45;C6 Periodic Timer Comprehensive Test Suite v2.0.">
<polygon fill="white" stroke="#666666" points="201,-38 0,-38 0,0 201,0 201,-38"/>
<text text-anchor="start" x="8" y="-22.8" font-family="Arial" font-size="14.00">examples/esp32/main</text>
<text text-anchor="middle" x="100.5" y="-7.8" font-family="Arial" font-size="14.00">/TimerComprehensiveTest.cpp</text>
</a>
</g>
</g>
<!-- Node1&#45;&gt;Node2 -->
<g id="edge1_Node000001_Node000002" class="edge">
<title>Node1&#45;&gt;Node2</title>
<g id="a_edge1_Node000001_Node000002"><a xlink:title=" ">
<path fill="none" stroke="#63b8ff" d="M140.25,-140.52C132.71,-132.48 124.65,-122.46 119.5,-112 107.77,-88.14 103.27,-57.37 101.56,-38.16"/>
<polygon fill="#63b8ff" stroke="#63b8ff" points="137.97,-143.2 147.49,-147.85 142.95,-138.28 137.97,-143.2"/>
</a>
</g>
</g>
<!-- Node3 -->
<g id="Node000003" class="node">
<title>Node3</title>
<g id="a_Node000003"><a xlink:href="EspPeriodicTimer_8h.html" target="_top" xlink:title="MCU&#45;integrated periodic timer implementation.">
<polygon fill="white" stroke="#666666" points="308.5,-112 128.5,-112 128.5,-74 308.5,-74 308.5,-112"/>
<text text-anchor="start" x="136.5" y="-96.8" font-family="Arial" font-size="14.00">inc/mcu/esp32/EspPeriodic</text>
<text text-anchor="middle" x="218.5" y="-81.8" font-family="Arial" font-size="14.00">Timer.h</text>
</a>
</g>
</g>
<!-- Node1&#45;&gt;Node3 -->
<g id="edge2_Node000001_Node000003" class="edge">
<title>Node1&#45;&gt;Node3</title>
<g id="a_edge2_Node000001_Node000003"><a xlink:title=" ">
<path fill="none" stroke="#63b8ff" d="M176.09,-140.37C184.13,-131.58 193.76,-121.05 201.81,-112.24"/>
<polygon fill="#63b8ff" stroke="#63b8ff" points="173.41,-138.11 169.24,-147.85 178.57,-142.83 173.41,-138.11"/>
</a>
</g>
</g>
<!-- Node3&#45;&gt;Node2 -->
<g id="edge3_Node000003_Node000002" class="edge">
<title>Node3&#45;&gt;Node2</title>
<g id="a_edge3_Node000003_Node000002"><a xlink:title=" ">
<path fill="none" stroke="#63b8ff" d="M180.02,-68.52C163.86,-58.66 145.36,-47.37 130.27,-38.16"/>
<polygon fill="#63b8ff" stroke="#63b8ff" points="178.36,-71.61 188.72,-73.83 182.01,-65.63 178.36,-71.61"/>
</a>
</g>
</g>
<!-- Node4 -->
<g id="Node000004" class="node">
<title>Node4</title>
<g id="a_Node000004"><a xlink:href="EspPeriodicTimer_8cpp.html" target="_top" xlink:title="Implementation of MCU&#45;integrated periodic timer.">
<polygon fill="white" stroke="#666666" points="400,-38 219,-38 219,0 400,0 400,-38"/>
<text text-anchor="start" x="227" y="-22.8" font-family="Arial" font-size="14.00">src/mcu/esp32/EspPeriodic</text>
<text text-anchor="middle" x="309.5" y="-7.8" font-family="Arial" font-size="14.00">Timer.cpp</text>
</a>
</g>
</g>
<!-- Node3&#45;&gt;Node4 -->
<g id="edge4_Node000003_Node000004" class="edge">
<title>Node3&#45;&gt;Node4</title>
<g id="a_edge4_Node000003_Node000004"><a xlink:title=" ">
<path fill="none" stroke="#63b8ff" d="M249.56,-67.42C261.69,-57.83 275.34,-47.03 286.54,-38.16"/>
<polygon fill="#63b8ff" stroke="#63b8ff" points="247.13,-64.88 241.46,-73.83 251.48,-70.37 247.13,-64.88"/>
</a>
</g>
</g>
</g>
</svg>
</svg>

<style type='text/css'>
<![CDATA[
[data-mouse-over-selected='false'] { opacity: 0.7; }
[data-mouse-over-selected='true']  { opacity: 1.0; }
]]>
</style>
<script type="application/ecmascript"><![CDATA[
document.addEventListener('DOMContentLoaded', (event) => {
  highlightEdges();
  highlightAdjacentNodes();
});
]]></script>
</svg>
