<?xml version="1.0" encoding="UTF-8" standalone="no"?>
<!DOCTYPE svg PUBLIC "-//W3C//DTD SVG 1.1//EN"
 "http://www.w3.org/Graphics/SVG/1.1/DTD/svg11.dtd">
<!-- Generated by graphviz version 2.43.0 (0)
 -->
<!-- Title: inc/base/BaseNvs.h Pages: 1 -->
<svg width="396pt" height="238pt"
 viewBox="0.00 0.00 396.00 238.00" xmlns="http://www.w3.org/2000/svg" xmlns:xlink="http://www.w3.org/1999/xlink">
<g id="graph0" class="graph" transform="scale(1 1) rotate(0) translate(4 234)">
<title>inc/base/BaseNvs.h</title>
<!-- Node1 -->
<g id="Node000001" class="node">
<title>Node1</title>
<g id="a_Node000001"><a xlink:title="Abstract base class for Non&#45;Volatile Storage implementations in the HardFOC system.">
<polygon fill="#999999" stroke="#666666" points="200.5,-230 64.5,-230 64.5,-207 200.5,-207 200.5,-230"/>
<text text-anchor="middle" x="132.5" y="-214.8" font-family="Arial" font-size="14.00">inc/base/BaseNvs.h</text>
</a>
</g>
</g>
<!-- Node2 -->
<g id="Node000002" class="node">
<title>Node2</title>
<g id="a_Node000002"><a xlink:href="NvsComprehensiveTest_8cpp.html" target="_top" xlink:title="Comprehensive NVS (Non&#45;Volatile Storage) testing suite for ESP32&#45;C6 DevKit&#45;M&#45;1 (noexcept)">
<polygon fill="white" stroke="#666666" points="189,-38 0,-38 0,0 189,0 189,-38"/>
<text text-anchor="start" x="8" y="-22.8" font-family="Arial" font-size="14.00">examples/esp32/main</text>
<text text-anchor="middle" x="94.5" y="-7.8" font-family="Arial" font-size="14.00">/NvsComprehensiveTest.cpp</text>
</a>
</g>
</g>
<!-- Node1&#45;&gt;Node2 -->
<g id="edge1_Node000001_Node000002" class="edge">
<title>Node1&#45;&gt;Node2</title>
<g id="a_edge1_Node000001_Node000002"><a xlink:title=" ">
<path fill="none" stroke="#63b8ff" d="M128.51,-196.75C121.03,-157.88 105.02,-74.69 97.97,-38.01"/>
<polygon fill="#63b8ff" stroke="#63b8ff" points="125.13,-197.72 130.46,-206.88 132,-196.4 125.13,-197.72"/>
</a>
</g>
</g>
<!-- Node3 -->
<g id="Node000003" class="node">
<title>Node3</title>
<g id="a_Node000003"><a xlink:href="EspNvs_8h.html" target="_top" xlink:title="World&#45;class ESP32&#45;C6 NVS storage implementation with ESP&#45;IDF v5.5+ features.">
<polygon fill="white" stroke="#666666" points="298.5,-97 132.5,-97 132.5,-74 298.5,-74 298.5,-97"/>
<text text-anchor="middle" x="215.5" y="-81.8" font-family="Arial" font-size="14.00">inc/mcu/esp32/EspNvs.h</text>
</a>
</g>
</g>
<!-- Node1&#45;&gt;Node3 -->
<g id="edge2_Node000001_Node000003" class="edge">
<title>Node1&#45;&gt;Node3</title>
<g id="a_edge2_Node000001_Node000003"><a xlink:title=" ">
<path fill="none" stroke="#63b8ff" d="M133.11,-196.88C134.53,-178.72 138.84,-152.25 151.5,-133 161.84,-117.28 179.44,-105.07 193.57,-97.11"/>
<polygon fill="#63b8ff" stroke="#63b8ff" points="129.61,-196.79 132.55,-206.97 136.6,-197.18 129.61,-196.79"/>
</a>
</g>
</g>
<!-- Node5 -->
<g id="Node000005" class="node">
<title>Node5</title>
<g id="a_Node000005"><a xlink:href="EspTypes__NVS_8h.html" target="_top" xlink:title="ESP32 NVS type definitions for hardware abstraction.">
<polygon fill="white" stroke="#666666" points="292.5,-171 160.5,-171 160.5,-133 292.5,-133 292.5,-171"/>
<text text-anchor="start" x="168.5" y="-155.8" font-family="Arial" font-size="14.00">inc/mcu/esp32/utils</text>
<text text-anchor="middle" x="226.5" y="-140.8" font-family="Arial" font-size="14.00">/EspTypes_NVS.h</text>
</a>
</g>
</g>
<!-- Node1&#45;&gt;Node5 -->
<g id="edge5_Node000001_Node000005" class="edge">
<title>Node1&#45;&gt;Node5</title>
<g id="a_edge5_Node000001_Node000005"><a xlink:title=" ">
<path fill="none" stroke="#63b8ff" d="M156.6,-200.96C169.85,-191.87 186.3,-180.59 199.91,-171.24"/>
<polygon fill="#63b8ff" stroke="#63b8ff" points="154.29,-198.31 148.02,-206.85 158.25,-204.08 154.29,-198.31"/>
</a>
</g>
</g>
<!-- Node3&#45;&gt;Node2 -->
<g id="edge3_Node000003_Node000002" class="edge">
<title>Node3&#45;&gt;Node2</title>
<g id="a_edge3_Node000003_Node000002"><a xlink:title=" ">
<path fill="none" stroke="#63b8ff" d="M186.63,-69.11C169.14,-59.79 146.73,-47.84 128.4,-38.07"/>
<polygon fill="#63b8ff" stroke="#63b8ff" points="185.32,-72.38 195.79,-73.99 188.61,-66.2 185.32,-72.38"/>
</a>
</g>
</g>
<!-- Node4 -->
<g id="Node000004" class="node">
<title>Node4</title>
<g id="a_Node000004"><a xlink:href="EspNvs_8cpp.html" target="_top" xlink:title="World&#45;class ESP32&#45;C6 NVS implementation with ESP&#45;IDF v5.5+ advanced features.">
<polygon fill="white" stroke="#666666" points="388,-30.5 207,-30.5 207,-7.5 388,-7.5 388,-30.5"/>
<text text-anchor="middle" x="297.5" y="-15.3" font-family="Arial" font-size="14.00">src/mcu/esp32/EspNvs.cpp</text>
</a>
</g>
</g>
<!-- Node3&#45;&gt;Node4 -->
<g id="edge4_Node000003_Node000004" class="edge">
<title>Node3&#45;&gt;Node4</title>
<g id="a_edge4_Node000003_Node000004"><a xlink:title=" ">
<path fill="none" stroke="#63b8ff" d="M237.19,-67.44C252.02,-55.77 271.23,-40.66 283.94,-30.67"/>
<polygon fill="#63b8ff" stroke="#63b8ff" points="234.74,-64.92 229.04,-73.85 239.06,-70.42 234.74,-64.92"/>
</a>
</g>
</g>
<!-- Node5&#45;&gt;Node3 -->
<g id="edge6_Node000005_Node000003" class="edge">
<title>Node5&#45;&gt;Node3</title>
<g id="a_edge6_Node000005_Node000003"><a xlink:title=" ">
<path fill="none" stroke="#63b8ff" d="M221.69,-122.78C220.14,-113.71 218.52,-104.2 217.32,-97.19"/>
<polygon fill="#63b8ff" stroke="#63b8ff" points="218.25,-123.42 223.38,-132.69 225.15,-122.24 218.25,-123.42"/>
</a>
</g>
</g>
</g>
</svg>
