<?xml version="1.0" encoding="UTF-8" standalone="no"?>
<!DOCTYPE svg PUBLIC "-//W3C//DTD SVG 1.1//EN"
 "http://www.w3.org/Graphics/SVG/1.1/DTD/svg11.dtd">
<!-- Generated by graphviz version 2.43.0 (0)
 -->
<!-- Title: examples/esp32/main/BluetoothComprehensiveTest.cpp Pages: 1 -->
<svg width="2311pt" height="400pt"
 viewBox="0.00 0.00 2310.50 400.00" xmlns="http://www.w3.org/2000/svg" xmlns:xlink="http://www.w3.org/1999/xlink">
<g id="graph0" class="graph" transform="scale(1 1) rotate(0) translate(4 396)">
<title>examples/esp32/main/BluetoothComprehensiveTest.cpp</title>
<!-- Node1 -->
<g id="Node000001" class="node">
<title>Node1</title>
<g id="a_Node000001"><a xlink:title="Comprehensive Bluetooth/NimBLE testing suite for ESP32&#45;C6 DevKit&#45;M&#45;1 (noexcept)">
<polygon fill="#999999" stroke="#666666" points="620.5,-392 397.5,-392 397.5,-354 620.5,-354 620.5,-392"/>
<text text-anchor="start" x="405.5" y="-376.8" font-family="Arial" font-size="14.00">examples/esp32/main</text>
<text text-anchor="middle" x="509" y="-361.8" font-family="Arial" font-size="14.00">/BluetoothComprehensiveTest.cpp</text>
</a>
</g>
</g>
<!-- Node2 -->
<g id="Node000002" class="node">
<title>Node2</title>
<g id="a_Node000002"><a xlink:href="BaseBluetooth_8h.html" target="_top" xlink:title="Unified Bluetooth base class for all Bluetooth implementations.">
<polygon fill="white" stroke="#666666" points="214.5,-141 65.5,-141 65.5,-118 214.5,-118 214.5,-141"/>
<text text-anchor="middle" x="140" y="-125.8" font-family="Arial" font-size="14.00">base/BaseBluetooth.h</text>
</a>
</g>
</g>
<!-- Node1&#45;&gt;Node2 -->
<g id="edge1_Node000001_Node000002" class="edge">
<title>Node1&#45;&gt;Node2</title>
<g id="a_edge1_Node000001_Node000002"><a xlink:title=" ">
<path fill="none" stroke="#63b8ff" d="M481.27,-353.85C411.79,-308.38 231.14,-190.15 164.85,-146.77"/>
<polygon fill="#63b8ff" stroke="#63b8ff" points="166.57,-143.7 156.28,-141.16 162.73,-149.56 166.57,-143.7"/>
</a>
</g>
</g>
<!-- Node10 -->
<g id="Node000010" class="node">
<title>Node10</title>
<g id="a_Node000010"><a xlink:title=" ">
<polygon fill="#e0e0e0" stroke="#999999" points="64.5,-82 11.5,-82 11.5,-59 64.5,-59 64.5,-82"/>
<text text-anchor="middle" x="38" y="-66.8" font-family="Arial" font-size="14.00">vector</text>
</a>
</g>
</g>
<!-- Node1&#45;&gt;Node10 -->
<g id="edge59_Node000001_Node000010" class="edge">
<title>Node1&#45;&gt;Node10</title>
<g id="a_edge59_Node000001_Node000010"><a xlink:title=" ">
<path fill="none" stroke="#63b8ff" d="M397.3,-367.21C247.47,-357.68 0,-329.66 0,-248.5 0,-248.5 0,-248.5 0,-187.5 0,-152.24 16.05,-113.82 27.29,-91.23"/>
<polygon fill="#63b8ff" stroke="#63b8ff" points="30.42,-92.8 31.89,-82.31 24.2,-89.59 30.42,-92.8"/>
</a>
</g>
</g>
<!-- Node11 -->
<g id="Node000011" class="node">
<title>Node11</title>
<g id="a_Node000011"><a xlink:href="EspBluetooth_8h.html" target="_top" xlink:title="ESP32 Bluetooth implementation using NimBLE for BLE&#45;only support (ESP32C6)">
<polygon fill="white" stroke="#666666" points="790.5,-200 611.5,-200 611.5,-177 790.5,-177 790.5,-200"/>
<text text-anchor="middle" x="701" y="-184.8" font-family="Arial" font-size="14.00">mcu/esp32/EspBluetooth.h</text>
</a>
</g>
</g>
<!-- Node1&#45;&gt;Node11 -->
<g id="edge11_Node000001_Node000011" class="edge">
<title>Node1&#45;&gt;Node11</title>
<g id="a_edge11_Node000001_Node000011"><a xlink:title=" ">
<path fill="none" stroke="#63b8ff" d="M528.11,-353.83C564.97,-318.8 645.48,-242.28 682.14,-207.43"/>
<polygon fill="#63b8ff" stroke="#63b8ff" points="684.83,-209.7 689.67,-200.27 680.01,-204.63 684.83,-209.7"/>
</a>
</g>
</g>
<!-- Node28 -->
<g id="Node000028" class="node">
<title>Node28</title>
<g id="a_Node000028"><a xlink:href="TestFramework_8h.html" target="_top" xlink:title="Shared testing framework for ESP32&#45;C6 comprehensive test suites.">
<polygon fill="white" stroke="#666666" points="2038.5,-318 1917.5,-318 1917.5,-295 2038.5,-295 2038.5,-318"/>
<text text-anchor="middle" x="1978" y="-302.8" font-family="Arial" font-size="14.00">TestFramework.h</text>
</a>
</g>
</g>
<!-- Node1&#45;&gt;Node28 -->
<g id="edge33_Node000001_Node000028" class="edge">
<title>Node1&#45;&gt;Node28</title>
<g id="a_edge33_Node000001_Node000028"><a xlink:title=" ">
<path fill="none" stroke="#63b8ff" d="M620.62,-367.1C908.6,-354.45 1670.63,-321 1907.03,-310.62"/>
<polygon fill="#63b8ff" stroke="#63b8ff" points="1907.39,-314.1 1917.22,-310.17 1907.08,-307.11 1907.39,-314.1"/>
</a>
</g>
</g>
<!-- Node3 -->
<g id="Node000003" class="node">
<title>Node3</title>
<g id="a_Node000003"><a xlink:href="HardwareTypes_8h.html" target="_top" xlink:title="Platform&#45;agnostic hardware type definitions for the HardFOC system.">
<polygon fill="white" stroke="#666666" points="1580,-82 1458,-82 1458,-59 1580,-59 1580,-82"/>
<text text-anchor="middle" x="1519" y="-66.8" font-family="Arial" font-size="14.00">HardwareTypes.h</text>
</a>
</g>
</g>
<!-- Node2&#45;&gt;Node3 -->
<g id="edge2_Node000002_Node000003" class="edge">
<title>Node2&#45;&gt;Node3</title>
<g id="a_edge2_Node000002_Node000003"><a xlink:title=" ">
<path fill="none" stroke="#63b8ff" d="M214.85,-119.11C219.29,-118.69 223.7,-118.32 228,-118 766.11,-78.04 906.55,-129.72 1447.95,-81.98"/>
<polygon fill="#63b8ff" stroke="#63b8ff" points="1448.32,-85.46 1457.97,-81.09 1447.7,-78.49 1448.32,-85.46"/>
</a>
</g>
</g>
<!-- Node4 -->
<g id="Node000004" class="node">
<title>Node4</title>
<g id="a_Node000004"><a xlink:title=" ">
<polygon fill="#e0e0e0" stroke="#999999" points="1636,-23 1580,-23 1580,0 1636,0 1636,-23"/>
<text text-anchor="middle" x="1608" y="-7.8" font-family="Arial" font-size="14.00">cstdint</text>
</a>
</g>
</g>
<!-- Node2&#45;&gt;Node4 -->
<g id="edge6_Node000002_Node000004" class="edge">
<title>Node2&#45;&gt;Node4</title>
<g id="a_edge6_Node000002_Node000004"><a xlink:title=" ">
<path fill="none" stroke="#63b8ff" d="M214.62,-121.22C226.77,-120.1 239.23,-118.99 251,-118 828.74,-69.59 977.06,-97.65 1552,-23 1557.84,-22.24 1564,-21.27 1570.01,-20.22"/>
<polygon fill="#63b8ff" stroke="#63b8ff" points="1570.69,-23.65 1579.9,-18.41 1569.43,-16.77 1570.69,-23.65"/>
</a>
</g>
</g>
<!-- Node6 -->
<g id="Node000006" class="node">
<title>Node6</title>
<g id="a_Node000006"><a xlink:title=" ">
<polygon fill="#e0e0e0" stroke="#999999" points="154,-82 98,-82 98,-59 154,-59 154,-82"/>
<text text-anchor="middle" x="126" y="-66.8" font-family="Arial" font-size="14.00">cctype</text>
</a>
</g>
</g>
<!-- Node2&#45;&gt;Node6 -->
<g id="edge5_Node000002_Node000006" class="edge">
<title>Node2&#45;&gt;Node6</title>
<g id="a_edge5_Node000002_Node000006"><a xlink:title=" ">
<path fill="none" stroke="#63b8ff" d="M137.37,-117.78C135.59,-110.53 133.18,-100.74 131.04,-92.02"/>
<polygon fill="#63b8ff" stroke="#63b8ff" points="134.41,-91.05 128.62,-82.17 127.61,-92.72 134.41,-91.05"/>
</a>
</g>
</g>
<!-- Node7 -->
<g id="Node000007" class="node">
<title>Node7</title>
<g id="a_Node000007"><a xlink:title=" ">
<polygon fill="#e0e0e0" stroke="#999999" points="1338,-82 1264,-82 1264,-59 1338,-59 1338,-82"/>
<text text-anchor="middle" x="1301" y="-66.8" font-family="Arial" font-size="14.00">functional</text>
</a>
</g>
</g>
<!-- Node2&#45;&gt;Node7 -->
<g id="edge7_Node000002_Node000007" class="edge">
<title>Node2&#45;&gt;Node7</title>
<g id="a_edge7_Node000002_Node000007"><a xlink:title=" ">
<path fill="none" stroke="#63b8ff" d="M214.85,-119.18C219.3,-118.75 223.71,-118.35 228,-118 623.65,-85.87 1103.3,-75.02 1253.62,-72.28"/>
<polygon fill="#63b8ff" stroke="#63b8ff" points="1253.94,-75.77 1263.87,-72.09 1253.81,-68.77 1253.94,-75.77"/>
</a>
</g>
</g>
<!-- Node8 -->
<g id="Node000008" class="node">
<title>Node8</title>
<g id="a_Node000008"><a xlink:title=" ">
<polygon fill="#e0e0e0" stroke="#999999" points="222,-82 172,-82 172,-59 222,-59 222,-82"/>
<text text-anchor="middle" x="197" y="-66.8" font-family="Arial" font-size="14.00">string</text>
</a>
</g>
</g>
<!-- Node2&#45;&gt;Node8 -->
<g id="edge8_Node000002_Node000008" class="edge">
<title>Node2&#45;&gt;Node8</title>
<g id="a_edge8_Node000002_Node000008"><a xlink:title=" ">
<path fill="none" stroke="#63b8ff" d="M150.72,-117.78C158.68,-109.82 169.73,-98.77 179.03,-89.47"/>
<polygon fill="#63b8ff" stroke="#63b8ff" points="181.73,-91.72 186.33,-82.17 176.78,-86.77 181.73,-91.72"/>
</a>
</g>
</g>
<!-- Node9 -->
<g id="Node000009" class="node">
<title>Node9</title>
<g id="a_Node000009"><a xlink:title=" ">
<polygon fill="#e0e0e0" stroke="#999999" points="1440,-82 1356,-82 1356,-59 1440,-59 1440,-82"/>
<text text-anchor="middle" x="1398" y="-66.8" font-family="Arial" font-size="14.00">string_view</text>
</a>
</g>
</g>
<!-- Node2&#45;&gt;Node9 -->
<g id="edge9_Node000002_Node000009" class="edge">
<title>Node2&#45;&gt;Node9</title>
<g id="a_edge9_Node000002_Node000009"><a xlink:title=" ">
<path fill="none" stroke="#63b8ff" d="M214.85,-119.12C219.3,-118.7 223.7,-118.32 228,-118 720.78,-80.74 851.07,-139.57 1345.53,-81.98"/>
<polygon fill="#63b8ff" stroke="#63b8ff" points="1346.27,-85.41 1355.79,-80.77 1345.45,-78.46 1346.27,-85.41"/>
</a>
</g>
</g>
<!-- Node2&#45;&gt;Node10 -->
<g id="edge10_Node000002_Node000010" class="edge">
<title>Node2&#45;&gt;Node10</title>
<g id="a_edge10_Node000002_Node000010"><a xlink:title=" ">
<path fill="none" stroke="#63b8ff" d="M120.81,-117.78C105.43,-109.18 83.61,-96.99 66.23,-87.28"/>
<polygon fill="#63b8ff" stroke="#63b8ff" points="67.54,-84 57.1,-82.17 64.12,-90.11 67.54,-84"/>
</a>
</g>
</g>
<!-- Node3&#45;&gt;Node4 -->
<g id="edge3_Node000003_Node000004" class="edge">
<title>Node3&#45;&gt;Node4</title>
<g id="a_edge3_Node000003_Node000004"><a xlink:title=" ">
<path fill="none" stroke="#63b8ff" d="M1535.74,-58.78C1548.92,-50.34 1567.5,-38.44 1582.52,-28.82"/>
<polygon fill="#63b8ff" stroke="#63b8ff" points="1584.8,-31.51 1591.33,-23.17 1581.03,-25.62 1584.8,-31.51"/>
</a>
</g>
</g>
<!-- Node5 -->
<g id="Node000005" class="node">
<title>Node5</title>
<g id="a_Node000005"><a xlink:title=" ">
<polygon fill="#e0e0e0" stroke="#999999" points="1543,-23 1495,-23 1495,0 1543,0 1543,-23"/>
<text text-anchor="middle" x="1519" y="-7.8" font-family="Arial" font-size="14.00">limits</text>
</a>
</g>
</g>
<!-- Node3&#45;&gt;Node5 -->
<g id="edge4_Node000003_Node000005" class="edge">
<title>Node3&#45;&gt;Node5</title>
<g id="a_edge4_Node000003_Node000005"><a xlink:title=" ">
<path fill="none" stroke="#63b8ff" d="M1519,-58.78C1519,-51.61 1519,-41.95 1519,-33.31"/>
<polygon fill="#63b8ff" stroke="#63b8ff" points="1522.5,-33.17 1519,-23.17 1515.5,-33.17 1522.5,-33.17"/>
</a>
</g>
</g>
<!-- Node11&#45;&gt;Node2 -->
<g id="edge12_Node000011_Node000002" class="edge">
<title>Node11&#45;&gt;Node2</title>
<g id="a_edge12_Node000011_Node000002"><a xlink:title=" ">
<path fill="none" stroke="#63b8ff" d="M611.15,-179.23C515.96,-170.33 361.3,-155.5 228,-141 227.06,-140.9 226.12,-140.8 225.17,-140.69"/>
<polygon fill="#63b8ff" stroke="#63b8ff" points="225.21,-137.17 214.88,-139.54 224.43,-144.13 225.21,-137.17"/>
</a>
</g>
</g>
<!-- Node11&#45;&gt;Node3 -->
<g id="edge13_Node000011_Node000003" class="edge">
<title>Node11&#45;&gt;Node3</title>
<g id="a_edge13_Node000011_Node000003"><a xlink:title=" ">
<path fill="none" stroke="#63b8ff" d="M611.36,-186.39C468.64,-183.06 210.65,-169.9 261,-118 305.5,-72.13 1314.94,-86.86 1447.69,-81.68"/>
<polygon fill="#63b8ff" stroke="#63b8ff" points="1448.18,-85.15 1457.97,-81.09 1447.78,-78.17 1448.18,-85.15"/>
</a>
</g>
</g>
<!-- Node11&#45;&gt;Node7 -->
<g id="edge30_Node000011_Node000007" class="edge">
<title>Node11&#45;&gt;Node7</title>
<g id="a_edge30_Node000011_Node000007"><a xlink:title=" ">
<path fill="none" stroke="#63b8ff" d="M790.66,-187.7C960.06,-187.15 1313.63,-181.13 1351,-141 1366.53,-124.32 1345.52,-102.69 1326.18,-88.03"/>
<polygon fill="#63b8ff" stroke="#63b8ff" points="1327.98,-85.01 1317.82,-82.01 1323.89,-90.69 1327.98,-85.01"/>
</a>
</g>
</g>
<!-- Node11&#45;&gt;Node10 -->
<g id="edge32_Node000011_Node000010" class="edge">
<title>Node11&#45;&gt;Node10</title>
<g id="a_edge32_Node000011_Node000010"><a xlink:title=" ">
<path fill="none" stroke="#63b8ff" d="M611.25,-186.75C443.98,-184.52 97.67,-175.72 56,-141 42.05,-129.38 38.15,-108.48 37.38,-92.63"/>
<polygon fill="#63b8ff" stroke="#63b8ff" points="40.87,-92.14 37.27,-82.18 33.87,-92.22 40.87,-92.14"/>
</a>
</g>
</g>
<!-- Node12 -->
<g id="Node000012" class="node">
<title>Node12</title>
<g id="a_Node000012"><a xlink:title=" ">
<polygon fill="#e0e0e0" stroke="#999999" points="1473.5,-141 1398.5,-141 1398.5,-118 1473.5,-118 1473.5,-141"/>
<text text-anchor="middle" x="1436" y="-125.8" font-family="Arial" font-size="14.00">esp_log.h</text>
</a>
</g>
</g>
<!-- Node11&#45;&gt;Node12 -->
<g id="edge14_Node000011_Node000012" class="edge">
<title>Node11&#45;&gt;Node12</title>
<g id="a_edge14_Node000011_Node000012"><a xlink:title=" ">
<path fill="none" stroke="#63b8ff" d="M790.6,-185.15C921.49,-180.86 1172.42,-169.44 1384,-141 1385.45,-140.8 1386.93,-140.59 1388.42,-140.37"/>
<polygon fill="#63b8ff" stroke="#63b8ff" points="1389.04,-143.81 1398.32,-138.71 1387.88,-136.91 1389.04,-143.81"/>
</a>
</g>
</g>
<!-- Node13 -->
<g id="Node000013" class="node">
<title>Node13</title>
<g id="a_Node000013"><a xlink:title=" ">
<polygon fill="#e0e0e0" stroke="#999999" points="355.5,-141 270.5,-141 270.5,-118 355.5,-118 355.5,-141"/>
<text text-anchor="middle" x="313" y="-125.8" font-family="Arial" font-size="14.00">nvs_flash.h</text>
</a>
</g>
</g>
<!-- Node11&#45;&gt;Node13 -->
<g id="edge15_Node000011_Node000013" class="edge">
<title>Node11&#45;&gt;Node13</title>
<g id="a_edge15_Node000011_Node000013"><a xlink:title=" ">
<path fill="none" stroke="#63b8ff" d="M614.1,-176.97C548.52,-168.67 456.1,-156.25 365.43,-140.99"/>
<polygon fill="#63b8ff" stroke="#63b8ff" points="365.97,-137.53 355.53,-139.31 364.8,-144.43 365.97,-137.53"/>
</a>
</g>
</g>
<!-- Node14 -->
<g id="Node000014" class="node">
<title>Node14</title>
<g id="a_Node000014"><a xlink:title=" ">
<polygon fill="#e0e0e0" stroke="#999999" points="442,-141 374,-141 374,-118 442,-118 442,-141"/>
<text text-anchor="middle" x="408" y="-125.8" font-family="Arial" font-size="14.00">esp_bt.h</text>
</a>
</g>
</g>
<!-- Node11&#45;&gt;Node14 -->
<g id="edge16_Node000011_Node000014" class="edge">
<title>Node11&#45;&gt;Node14</title>
<g id="a_edge16_Node000011_Node000014"><a xlink:title=" ">
<path fill="none" stroke="#63b8ff" d="M639.17,-176.99C590.73,-168.52 521.44,-155.92 452.02,-141.14"/>
<polygon fill="#63b8ff" stroke="#63b8ff" points="452.74,-137.71 442.23,-139.04 451.27,-144.56 452.74,-137.71"/>
</a>
</g>
</g>
<!-- Node15 -->
<g id="Node000015" class="node">
<title>Node15</title>
<g id="a_Node000015"><a xlink:title=" ">
<polygon fill="#e0e0e0" stroke="#999999" points="561.5,-141 460.5,-141 460.5,-118 561.5,-118 561.5,-141"/>
<text text-anchor="middle" x="511" y="-125.8" font-family="Arial" font-size="14.00">esp_bt_defs.h</text>
</a>
</g>
</g>
<!-- Node11&#45;&gt;Node15 -->
<g id="edge17_Node000011_Node000015" class="edge">
<title>Node11&#45;&gt;Node15</title>
<g id="a_edge17_Node000011_Node000015"><a xlink:title=" ">
<path fill="none" stroke="#63b8ff" d="M665.71,-176.91C634.78,-167.63 589.65,-154.1 556.11,-144.03"/>
<polygon fill="#63b8ff" stroke="#63b8ff" points="556.69,-140.55 546.1,-141.03 554.68,-147.26 556.69,-140.55"/>
</a>
</g>
</g>
<!-- Node16 -->
<g id="Node000016" class="node">
<title>Node16</title>
<g id="a_Node000016"><a xlink:title=" ">
<polygon fill="#e0e0e0" stroke="#999999" points="686,-141 580,-141 580,-118 686,-118 686,-141"/>
<text text-anchor="middle" x="633" y="-125.8" font-family="Arial" font-size="14.00">esp_bt_main.h</text>
</a>
</g>
</g>
<!-- Node11&#45;&gt;Node16 -->
<g id="edge18_Node000011_Node000016" class="edge">
<title>Node11&#45;&gt;Node16</title>
<g id="a_edge18_Node000011_Node000016"><a xlink:title=" ">
<path fill="none" stroke="#63b8ff" d="M688.21,-176.78C678.43,-168.58 664.74,-157.11 653.45,-147.64"/>
<polygon fill="#63b8ff" stroke="#63b8ff" points="655.65,-144.91 645.73,-141.17 651.15,-150.28 655.65,-144.91"/>
</a>
</g>
</g>
<!-- Node17 -->
<g id="Node000017" class="node">
<title>Node17</title>
<g id="a_Node000017"><a xlink:title=" ">
<polygon fill="#e0e0e0" stroke="#999999" points="835.5,-141 704.5,-141 704.5,-118 835.5,-118 835.5,-141"/>
<text text-anchor="middle" x="770" y="-125.8" font-family="Arial" font-size="14.00">esp_gap_ble_api.h</text>
</a>
</g>
</g>
<!-- Node11&#45;&gt;Node17 -->
<g id="edge19_Node000011_Node000017" class="edge">
<title>Node11&#45;&gt;Node17</title>
<g id="a_edge19_Node000011_Node000017"><a xlink:title=" ">
<path fill="none" stroke="#63b8ff" d="M713.98,-176.78C723.91,-168.58 737.79,-157.11 749.25,-147.64"/>
<polygon fill="#63b8ff" stroke="#63b8ff" points="751.6,-150.24 757.08,-141.17 747.14,-144.84 751.6,-150.24"/>
</a>
</g>
</g>
<!-- Node18 -->
<g id="Node000018" class="node">
<title>Node18</title>
<g id="a_Node000018"><a xlink:title=" ">
<polygon fill="#e0e0e0" stroke="#999999" points="1020,-141 854,-141 854,-118 1020,-118 1020,-141"/>
<text text-anchor="middle" x="937" y="-125.8" font-family="Arial" font-size="14.00">esp_gatt_common_api.h</text>
</a>
</g>
</g>
<!-- Node11&#45;&gt;Node18 -->
<g id="edge20_Node000011_Node000018" class="edge">
<title>Node11&#45;&gt;Node18</title>
<g id="a_edge20_Node000011_Node000018"><a xlink:title=" ">
<path fill="none" stroke="#63b8ff" d="M744.56,-176.98C783.77,-167.51 841.51,-153.56 883.51,-143.42"/>
<polygon fill="#63b8ff" stroke="#63b8ff" points="884.39,-146.81 893.29,-141.06 882.75,-140 884.39,-146.81"/>
</a>
</g>
</g>
<!-- Node19 -->
<g id="Node000019" class="node">
<title>Node19</title>
<g id="a_Node000019"><a xlink:title=" ">
<polygon fill="#e0e0e0" stroke="#999999" points="1150,-141 1038,-141 1038,-118 1150,-118 1150,-141"/>
<text text-anchor="middle" x="1094" y="-125.8" font-family="Arial" font-size="14.00">esp_gattc_api.h</text>
</a>
</g>
</g>
<!-- Node11&#45;&gt;Node19 -->
<g id="edge21_Node000011_Node000019" class="edge">
<title>Node11&#45;&gt;Node19</title>
<g id="a_edge21_Node000011_Node000019"><a xlink:title=" ">
<path fill="none" stroke="#63b8ff" d="M778.27,-176.97C842.44,-168.14 936.39,-154.96 1027.99,-141.13"/>
<polygon fill="#63b8ff" stroke="#63b8ff" points="1028.63,-144.58 1037.99,-139.62 1027.58,-137.65 1028.63,-144.58"/>
</a>
</g>
</g>
<!-- Node20 -->
<g id="Node000020" class="node">
<title>Node20</title>
<g id="a_Node000020"><a xlink:title=" ">
<polygon fill="#e0e0e0" stroke="#999999" points="1280,-141 1168,-141 1168,-118 1280,-118 1280,-141"/>
<text text-anchor="middle" x="1224" y="-125.8" font-family="Arial" font-size="14.00">esp_gatts_api.h</text>
</a>
</g>
</g>
<!-- Node11&#45;&gt;Node20 -->
<g id="edge22_Node000011_Node000020" class="edge">
<title>Node11&#45;&gt;Node20</title>
<g id="a_edge22_Node000011_Node000020"><a xlink:title=" ">
<path fill="none" stroke="#63b8ff" d="M790.7,-179.97C880.91,-172.03 1024.22,-158.45 1157.66,-141.12"/>
<polygon fill="#63b8ff" stroke="#63b8ff" points="1158.2,-144.58 1167.66,-139.81 1157.29,-137.64 1158.2,-144.58"/>
</a>
</g>
</g>
<!-- Node21 -->
<g id="Node000021" class="node">
<title>Node21</title>
<g id="a_Node000021"><a xlink:href="RtosMutex_8h.html" target="_top" xlink:title="Cross&#45;platform RTOS mutex and synchronization primitives.">
<polygon fill="white" stroke="#666666" points="1949.5,-141 1856.5,-141 1856.5,-118 1949.5,-118 1949.5,-141"/>
<text text-anchor="middle" x="1903" y="-125.8" font-family="Arial" font-size="14.00">RtosMutex.h</text>
</a>
</g>
</g>
<!-- Node11&#45;&gt;Node21 -->
<g id="edge23_Node000011_Node000021" class="edge">
<title>Node11&#45;&gt;Node21</title>
<g id="a_edge23_Node000011_Node000021"><a xlink:title=" ">
<path fill="none" stroke="#63b8ff" d="M790.8,-185.8C979.44,-181.77 1430.63,-169.75 1808,-141 1820.28,-140.06 1833.42,-138.79 1845.9,-137.45"/>
<polygon fill="#63b8ff" stroke="#63b8ff" points="1846.63,-140.89 1856.19,-136.31 1845.87,-133.93 1846.63,-140.89"/>
</a>
</g>
</g>
<!-- Node27 -->
<g id="Node000027" class="node">
<title>Node27</title>
<g id="a_Node000027"><a xlink:title=" ">
<polygon fill="#e0e0e0" stroke="#999999" points="1342,-141 1298,-141 1298,-118 1342,-118 1342,-141"/>
<text text-anchor="middle" x="1320" y="-125.8" font-family="Arial" font-size="14.00">map</text>
</a>
</g>
</g>
<!-- Node11&#45;&gt;Node27 -->
<g id="edge31_Node000011_Node000027" class="edge">
<title>Node11&#45;&gt;Node27</title>
<g id="a_edge31_Node000011_Node000027"><a xlink:title=" ">
<path fill="none" stroke="#63b8ff" d="M790.62,-187.27C904.65,-185.45 1107.48,-177.09 1287.9,-140.78"/>
<polygon fill="#63b8ff" stroke="#63b8ff" points="1288.74,-144.18 1297.83,-138.74 1287.33,-137.32 1288.74,-144.18"/>
</a>
</g>
</g>
<!-- Node21&#45;&gt;Node4 -->
<g id="edge29_Node000021_Node000004" class="edge">
<title>Node21&#45;&gt;Node4</title>
<g id="a_edge29_Node000021_Node000004"><a xlink:title=" ">
<path fill="none" stroke="#63b8ff" d="M1898.03,-117.82C1890.18,-102.22 1873.35,-73.46 1850,-59 1786.33,-19.57 1696.59,-12.32 1646.19,-11.68"/>
<polygon fill="#63b8ff" stroke="#63b8ff" points="1646.08,-8.18 1636.06,-11.63 1646.04,-15.18 1646.08,-8.18"/>
</a>
</g>
</g>
<!-- Node22 -->
<g id="Node000022" class="node">
<title>Node22</title>
<g id="a_Node000022"><a xlink:href="McuSelect_8h.html" target="_top" xlink:title="Centralized MCU platform selection and configuration header.">
<polygon fill="white" stroke="#666666" points="1766,-82 1674,-82 1674,-59 1766,-59 1766,-82"/>
<text text-anchor="middle" x="1720" y="-66.8" font-family="Arial" font-size="14.00">McuSelect.h</text>
</a>
</g>
</g>
<!-- Node21&#45;&gt;Node22 -->
<g id="edge24_Node000021_Node000022" class="edge">
<title>Node21&#45;&gt;Node22</title>
<g id="a_edge24_Node000021_Node000022"><a xlink:title=" ">
<path fill="none" stroke="#63b8ff" d="M1869.01,-117.91C1839.22,-108.63 1795.76,-95.1 1763.45,-85.03"/>
<polygon fill="#63b8ff" stroke="#63b8ff" points="1764.4,-81.66 1753.81,-82.03 1762.32,-88.35 1764.4,-81.66"/>
</a>
</g>
</g>
<!-- Node23 -->
<g id="Node000023" class="node">
<title>Node23</title>
<g id="a_Node000023"><a xlink:title=" ">
<polygon fill="#e0e0e0" stroke="#999999" points="2161.5,-82 2018.5,-82 2018.5,-59 2161.5,-59 2161.5,-82"/>
<text text-anchor="middle" x="2090" y="-66.8" font-family="Arial" font-size="14.00">freertos/FreeRTOS.h</text>
</a>
</g>
</g>
<!-- Node21&#45;&gt;Node23 -->
<g id="edge25_Node000021_Node000023" class="edge">
<title>Node21&#45;&gt;Node23</title>
<g id="a_edge25_Node000021_Node000023"><a xlink:title=" ">
<path fill="none" stroke="#63b8ff" d="M1937.74,-117.91C1968.17,-108.63 2012.59,-95.1 2045.6,-85.03"/>
<polygon fill="#63b8ff" stroke="#63b8ff" points="2046.91,-88.29 2055.45,-82.03 2044.86,-81.6 2046.91,-88.29"/>
</a>
</g>
</g>
<!-- Node24 -->
<g id="Node000024" class="node">
<title>Node24</title>
<g id="a_Node000024"><a xlink:title=" ">
<polygon fill="#e0e0e0" stroke="#999999" points="2302,-82 2180,-82 2180,-59 2302,-59 2302,-82"/>
<text text-anchor="middle" x="2241" y="-66.8" font-family="Arial" font-size="14.00">freertos/semphr.h</text>
</a>
</g>
</g>
<!-- Node21&#45;&gt;Node24 -->
<g id="edge26_Node000021_Node000024" class="edge">
<title>Node21&#45;&gt;Node24</title>
<g id="a_edge26_Node000021_Node000024"><a xlink:title=" ">
<path fill="none" stroke="#63b8ff" d="M1949.64,-120.63C2006.66,-111.02 2103.72,-94.65 2170.02,-83.47"/>
<polygon fill="#63b8ff" stroke="#63b8ff" points="2170.7,-86.9 2179.98,-81.79 2169.54,-80 2170.7,-86.9"/>
</a>
</g>
</g>
<!-- Node25 -->
<g id="Node000025" class="node">
<title>Node25</title>
<g id="a_Node000025"><a xlink:title=" ">
<polygon fill="#e0e0e0" stroke="#999999" points="2000,-82 1898,-82 1898,-59 2000,-59 2000,-82"/>
<text text-anchor="middle" x="1949" y="-66.8" font-family="Arial" font-size="14.00">freertos/task.h</text>
</a>
</g>
</g>
<!-- Node21&#45;&gt;Node25 -->
<g id="edge27_Node000021_Node000025" class="edge">
<title>Node21&#45;&gt;Node25</title>
<g id="a_edge27_Node000021_Node000025"><a xlink:title=" ">
<path fill="none" stroke="#63b8ff" d="M1911.65,-117.78C1917.95,-109.98 1926.63,-99.21 1934.04,-90.03"/>
<polygon fill="#63b8ff" stroke="#63b8ff" points="1936.83,-92.15 1940.39,-82.17 1931.38,-87.76 1936.83,-92.15"/>
</a>
</g>
</g>
<!-- Node26 -->
<g id="Node000026" class="node">
<title>Node26</title>
<g id="a_Node000026"><a xlink:title=" ">
<polygon fill="#e0e0e0" stroke="#999999" points="1841.5,-82 1784.5,-82 1784.5,-59 1841.5,-59 1841.5,-82"/>
<text text-anchor="middle" x="1813" y="-66.8" font-family="Arial" font-size="14.00">atomic</text>
</a>
</g>
</g>
<!-- Node21&#45;&gt;Node26 -->
<g id="edge28_Node000021_Node000026" class="edge">
<title>Node21&#45;&gt;Node26</title>
<g id="a_edge28_Node000021_Node000026"><a xlink:title=" ">
<path fill="none" stroke="#63b8ff" d="M1886.07,-117.78C1872.62,-109.26 1853.6,-97.21 1838.33,-87.55"/>
<polygon fill="#63b8ff" stroke="#63b8ff" points="1840.17,-84.57 1829.85,-82.17 1836.43,-90.48 1840.17,-84.57"/>
</a>
</g>
</g>
<!-- Node28&#45;&gt;Node3 -->
<g id="edge40_Node000028_Node000003" class="edge">
<title>Node28&#45;&gt;Node3</title>
<g id="a_edge40_Node000028_Node000003"><a xlink:title=" ">
<path fill="none" stroke="#63b8ff" d="M1917.4,-303.6C1790.77,-298.11 1505.79,-277.25 1457,-200 1451.54,-191.36 1453.95,-186.76 1457,-177 1462.82,-158.41 1471.85,-157.63 1482,-141 1491.97,-124.66 1502.1,-105.41 1509.24,-91.31"/>
<polygon fill="#63b8ff" stroke="#63b8ff" points="1512.52,-92.58 1513.86,-82.08 1506.25,-89.45 1512.52,-92.58"/>
</a>
</g>
</g>
<!-- Node28&#45;&gt;Node12 -->
<g id="edge34_Node000028_Node000012" class="edge">
<title>Node28&#45;&gt;Node12</title>
<g id="a_edge34_Node000028_Node000012"><a xlink:title=" ">
<path fill="none" stroke="#63b8ff" d="M1961.28,-294.94C1913.13,-264.55 1777.21,-178.89 1772,-177 1758.6,-172.15 1573.33,-148.04 1483.79,-136.58"/>
<polygon fill="#63b8ff" stroke="#63b8ff" points="1483.98,-133.08 1473.62,-135.28 1483.1,-140.02 1483.98,-133.08"/>
</a>
</g>
</g>
<!-- Node28&#45;&gt;Node23 -->
<g id="edge36_Node000028_Node000023" class="edge">
<title>Node28&#45;&gt;Node23</title>
<g id="a_edge36_Node000028_Node000023"><a xlink:title=" ">
<path fill="none" stroke="#63b8ff" d="M1980.73,-295C1989.89,-260.19 2020.1,-149.02 2040,-118 2047.13,-106.89 2057.52,-96.64 2066.98,-88.61"/>
<polygon fill="#63b8ff" stroke="#63b8ff" points="2069.38,-91.17 2074.96,-82.16 2064.98,-85.73 2069.38,-91.17"/>
</a>
</g>
</g>
<!-- Node28&#45;&gt;Node24 -->
<g id="edge38_Node000028_Node000024" class="edge">
<title>Node28&#45;&gt;Node24</title>
<g id="a_edge38_Node000028_Node000024"><a xlink:title=" ">
<path fill="none" stroke="#63b8ff" d="M1989.98,-294.84C2031.57,-257.83 2169.94,-134.73 2221.45,-88.89"/>
<polygon fill="#63b8ff" stroke="#63b8ff" points="2223.8,-91.49 2228.95,-82.23 2219.15,-86.26 2223.8,-91.49"/>
</a>
</g>
</g>
<!-- Node28&#45;&gt;Node25 -->
<g id="edge39_Node000028_Node000025" class="edge">
<title>Node28&#45;&gt;Node25</title>
<g id="a_edge39_Node000028_Node000025"><a xlink:title=" ">
<path fill="none" stroke="#63b8ff" d="M1977.19,-294.89C1974.92,-266.25 1968.04,-185.02 1958,-118 1956.73,-109.5 1954.99,-100.19 1953.39,-92.15"/>
<polygon fill="#63b8ff" stroke="#63b8ff" points="1956.78,-91.26 1951.33,-82.17 1949.92,-92.67 1956.78,-91.26"/>
</a>
</g>
</g>
<!-- Node29 -->
<g id="Node000029" class="node">
<title>Node29</title>
<g id="a_Node000029"><a xlink:title=" ">
<polygon fill="#e0e0e0" stroke="#999999" points="2169.5,-259 2082.5,-259 2082.5,-236 2169.5,-236 2169.5,-259"/>
<text text-anchor="middle" x="2126" y="-243.8" font-family="Arial" font-size="14.00">esp_timer.h</text>
</a>
</g>
</g>
<!-- Node28&#45;&gt;Node29 -->
<g id="edge35_Node000028_Node000029" class="edge">
<title>Node28&#45;&gt;Node29</title>
<g id="a_edge35_Node000028_Node000029"><a xlink:title=" ">
<path fill="none" stroke="#63b8ff" d="M2005.49,-294.91C2029.06,-285.83 2063.22,-272.68 2089.16,-262.69"/>
<polygon fill="#63b8ff" stroke="#63b8ff" points="2090.58,-265.89 2098.66,-259.03 2088.07,-259.36 2090.58,-265.89"/>
</a>
</g>
</g>
<!-- Node30 -->
<g id="Node000030" class="node">
<title>Node30</title>
<g id="a_Node000030"><a xlink:title=" ">
<polygon fill="#e0e0e0" stroke="#999999" points="2302.5,-259 2187.5,-259 2187.5,-236 2302.5,-236 2302.5,-259"/>
<text text-anchor="middle" x="2245" y="-243.8" font-family="Arial" font-size="14.00">freertos/queue.h</text>
</a>
</g>
</g>
<!-- Node28&#45;&gt;Node30 -->
<g id="edge37_Node000028_Node000030" class="edge">
<title>Node28&#45;&gt;Node30</title>
<g id="a_edge37_Node000028_Node000030"><a xlink:title=" ">
<path fill="none" stroke="#63b8ff" d="M2027.28,-294.98C2072.02,-285.43 2138.08,-271.33 2185.69,-261.16"/>
<polygon fill="#63b8ff" stroke="#63b8ff" points="2186.5,-264.57 2195.55,-259.06 2185.04,-257.72 2186.5,-264.57"/>
</a>
</g>
</g>
<!-- Node31 -->
<g id="Node000031" class="node">
<title>Node31</title>
<g id="a_Node000031"><a xlink:href="EspGpio_8h.html" target="_top" xlink:title="Advanced MCU&#45;specific implementation of the unified BaseGpio class with ESP32C6/ESP&#45;IDF v5....">
<polygon fill="white" stroke="#666666" points="1741.5,-259 1590.5,-259 1590.5,-236 1741.5,-236 1741.5,-259"/>
<text text-anchor="middle" x="1666" y="-243.8" font-family="Arial" font-size="14.00">mcu/esp32/EspGpio.h</text>
</a>
</g>
</g>
<!-- Node28&#45;&gt;Node31 -->
<g id="edge41_Node000028_Node000031" class="edge">
<title>Node28&#45;&gt;Node31</title>
<g id="a_edge41_Node000028_Node000031"><a xlink:title=" ">
<path fill="none" stroke="#63b8ff" d="M1920.41,-294.98C1867.62,-285.33 1789.41,-271.05 1733.65,-260.86"/>
<polygon fill="#63b8ff" stroke="#63b8ff" points="1733.98,-257.36 1723.52,-259.01 1732.73,-264.25 1733.98,-257.36"/>
</a>
</g>
</g>
<!-- Node32 -->
<g id="Node000032" class="node">
<title>Node32</title>
<g id="a_Node000032"><a xlink:title=" ">
<polygon fill="#e0e0e0" stroke="#999999" points="1763.5,-200 1672.5,-200 1672.5,-177 1763.5,-177 1763.5,-200"/>
<text text-anchor="middle" x="1718" y="-184.8" font-family="Arial" font-size="14.00">driver/gpio.h</text>
</a>
</g>
</g>
<!-- Node31&#45;&gt;Node32 -->
<g id="edge42_Node000031_Node000032" class="edge">
<title>Node31&#45;&gt;Node32</title>
<g id="a_edge42_Node000031_Node000032"><a xlink:title=" ">
<path fill="none" stroke="#63b8ff" d="M1675.78,-235.78C1682.97,-227.9 1692.92,-216.99 1701.35,-207.75"/>
<polygon fill="#63b8ff" stroke="#63b8ff" points="1704.11,-209.92 1708.26,-200.17 1698.94,-205.2 1704.11,-209.92"/>
</a>
</g>
</g>
<!-- Node33 -->
<g id="Node000033" class="node">
<title>Node33</title>
<g id="a_Node000033"><a xlink:title=" ">
<polygon fill="#e0e0e0" stroke="#999999" points="1542,-200 1466,-200 1466,-177 1542,-177 1542,-200"/>
<text text-anchor="middle" x="1504" y="-184.8" font-family="Arial" font-size="14.00">esp_attr.h</text>
</a>
</g>
</g>
<!-- Node31&#45;&gt;Node33 -->
<g id="edge43_Node000031_Node000033" class="edge">
<title>Node31&#45;&gt;Node33</title>
<g id="a_edge43_Node000031_Node000033"><a xlink:title=" ">
<path fill="none" stroke="#63b8ff" d="M1635.91,-235.91C1609.88,-226.75 1572.06,-213.45 1543.58,-203.43"/>
<polygon fill="#63b8ff" stroke="#63b8ff" points="1544.52,-200.05 1533.93,-200.03 1542.2,-206.65 1544.52,-200.05"/>
</a>
</g>
</g>
<!-- Node34 -->
<g id="Node000034" class="node">
<title>Node34</title>
<g id="a_Node000034"><a xlink:href="BaseGpio_8h.html" target="_top" xlink:title="Unified GPIO base class for all digital GPIO implementations.">
<polygon fill="white" stroke="#666666" points="1618,-141 1530,-141 1530,-118 1618,-118 1618,-141"/>
<text text-anchor="middle" x="1574" y="-125.8" font-family="Arial" font-size="14.00">BaseGpio.h</text>
</a>
</g>
</g>
<!-- Node31&#45;&gt;Node34 -->
<g id="edge44_Node000031_Node000034" class="edge">
<title>Node31&#45;&gt;Node34</title>
<g id="a_edge44_Node000031_Node000034"><a xlink:title=" ">
<path fill="none" stroke="#63b8ff" d="M1661.05,-235.99C1654.1,-221.81 1640.55,-196.14 1625,-177 1616.47,-166.5 1605.54,-156.21 1595.99,-148"/>
<polygon fill="#63b8ff" stroke="#63b8ff" points="1597.96,-145.09 1588.05,-141.36 1593.47,-150.46 1597.96,-145.09"/>
</a>
</g>
</g>
<!-- Node35 -->
<g id="Node000035" class="node">
<title>Node35</title>
<g id="a_Node000035"><a xlink:href="EspTypes__GPIO_8h.html" target="_top" xlink:title="ESP32 GPIO type definitions for hardware abstraction.">
<polygon fill="white" stroke="#666666" points="1950,-200 1820,-200 1820,-177 1950,-177 1950,-200"/>
<text text-anchor="middle" x="1885" y="-184.8" font-family="Arial" font-size="14.00">EspTypes_GPIO.h</text>
</a>
</g>
</g>
<!-- Node31&#45;&gt;Node35 -->
<g id="edge49_Node000031_Node000035" class="edge">
<title>Node31&#45;&gt;Node35</title>
<g id="a_edge49_Node000031_Node000035"><a xlink:title=" ">
<path fill="none" stroke="#63b8ff" d="M1706.42,-235.98C1742.5,-226.59 1795.49,-212.8 1834.38,-202.68"/>
<polygon fill="#63b8ff" stroke="#63b8ff" points="1835.65,-205.96 1844.44,-200.06 1833.88,-199.19 1835.65,-205.96"/>
</a>
</g>
</g>
<!-- Node37 -->
<g id="Node000037" class="node">
<title>Node37</title>
<g id="a_Node000037"><a xlink:title=" ">
<polygon fill="#e0e0e0" stroke="#999999" points="1616,-200 1560,-200 1560,-177 1616,-177 1616,-200"/>
<text text-anchor="middle" x="1588" y="-184.8" font-family="Arial" font-size="14.00">stdio.h</text>
</a>
</g>
</g>
<!-- Node31&#45;&gt;Node37 -->
<g id="edge58_Node000031_Node000037" class="edge">
<title>Node31&#45;&gt;Node37</title>
<g id="a_edge58_Node000031_Node000037"><a xlink:title=" ">
<path fill="none" stroke="#63b8ff" d="M1651.33,-235.78C1639.89,-227.42 1623.8,-215.66 1610.7,-206.09"/>
<polygon fill="#63b8ff" stroke="#63b8ff" points="1612.74,-203.25 1602.61,-200.17 1608.61,-208.9 1612.74,-203.25"/>
</a>
</g>
</g>
<!-- Node34&#45;&gt;Node3 -->
<g id="edge45_Node000034_Node000003" class="edge">
<title>Node34&#45;&gt;Node3</title>
<g id="a_edge45_Node000034_Node000003"><a xlink:title=" ">
<path fill="none" stroke="#63b8ff" d="M1563.65,-117.78C1555.97,-109.82 1545.32,-98.77 1536.34,-89.47"/>
<polygon fill="#63b8ff" stroke="#63b8ff" points="1538.76,-86.94 1529.3,-82.17 1533.72,-91.8 1538.76,-86.94"/>
</a>
</g>
</g>
<!-- Node34&#45;&gt;Node4 -->
<g id="edge46_Node000034_Node000004" class="edge">
<title>Node34&#45;&gt;Node4</title>
<g id="a_edge46_Node000034_Node000004"><a xlink:title=" ">
<path fill="none" stroke="#63b8ff" d="M1577.59,-117.83C1580.72,-108.43 1585.32,-94.36 1589,-82 1593.85,-65.73 1598.89,-47.18 1602.57,-33.34"/>
<polygon fill="#63b8ff" stroke="#63b8ff" points="1606.03,-33.94 1605.19,-23.38 1599.26,-32.16 1606.03,-33.94"/>
</a>
</g>
</g>
<!-- Node34&#45;&gt;Node7 -->
<g id="edge47_Node000034_Node000007" class="edge">
<title>Node34&#45;&gt;Node7</title>
<g id="a_edge47_Node000034_Node000007"><a xlink:title=" ">
<path fill="none" stroke="#63b8ff" d="M1530,-119.79C1486.37,-111.08 1417.35,-97.13 1348.32,-82.25"/>
<polygon fill="#63b8ff" stroke="#63b8ff" points="1348.66,-78.75 1338.14,-80.05 1347.18,-85.59 1348.66,-78.75"/>
</a>
</g>
</g>
<!-- Node34&#45;&gt;Node9 -->
<g id="edge48_Node000034_Node000009" class="edge">
<title>Node34&#45;&gt;Node9</title>
<g id="a_edge48_Node000034_Node000009"><a xlink:title=" ">
<path fill="none" stroke="#63b8ff" d="M1541.31,-117.91C1512.78,-108.67 1471.22,-95.21 1440.19,-85.16"/>
<polygon fill="#63b8ff" stroke="#63b8ff" points="1441.11,-81.78 1430.52,-82.03 1438.95,-88.44 1441.11,-81.78"/>
</a>
</g>
</g>
<!-- Node35&#45;&gt;Node3 -->
<g id="edge56_Node000035_Node000003" class="edge">
<title>Node35&#45;&gt;Node3</title>
<g id="a_edge56_Node000035_Node000003"><a xlink:title=" ">
<path fill="none" stroke="#63b8ff" d="M1824.01,-176.97C1769.3,-167.1 1693.41,-152.23 1665,-141 1646.64,-133.75 1644.55,-127.04 1627,-118 1603.86,-106.09 1576.99,-94.51 1555.84,-85.89"/>
<polygon fill="#63b8ff" stroke="#63b8ff" points="1557.14,-82.64 1546.55,-82.14 1554.52,-89.13 1557.14,-82.64"/>
</a>
</g>
</g>
<!-- Node35&#45;&gt;Node22 -->
<g id="edge57_Node000035_Node000022" class="edge">
<title>Node35&#45;&gt;Node22</title>
<g id="a_edge57_Node000035_Node000022"><a xlink:title=" ">
<path fill="none" stroke="#63b8ff" d="M1874.75,-176.7C1860.63,-162.2 1833.97,-136.16 1808,-118 1790.67,-105.89 1769.81,-94.73 1752.75,-86.38"/>
<polygon fill="#63b8ff" stroke="#63b8ff" points="1754.23,-83.22 1743.7,-82.05 1751.21,-89.53 1754.23,-83.22"/>
</a>
</g>
</g>
<!-- Node35&#45;&gt;Node34 -->
<g id="edge50_Node000035_Node000034" class="edge">
<title>Node35&#45;&gt;Node34</title>
<g id="a_edge50_Node000035_Node000034"><a xlink:title=" ">
<path fill="none" stroke="#63b8ff" d="M1827.6,-176.98C1770.59,-166.53 1683.86,-150.64 1628.06,-140.41"/>
<polygon fill="#63b8ff" stroke="#63b8ff" points="1628.48,-136.93 1618.01,-138.57 1627.22,-143.81 1628.48,-136.93"/>
</a>
</g>
</g>
<!-- Node36 -->
<g id="Node000036" class="node">
<title>Node36</title>
<g id="a_Node000036"><a xlink:href="EspTypes__Base_8h.html" target="_top" xlink:title="ESP32 base type definitions for hardware abstraction.">
<polygon fill="white" stroke="#666666" points="1799.5,-141 1674.5,-141 1674.5,-118 1799.5,-118 1799.5,-141"/>
<text text-anchor="middle" x="1737" y="-125.8" font-family="Arial" font-size="14.00">EspTypes_Base.h</text>
</a>
</g>
</g>
<!-- Node35&#45;&gt;Node36 -->
<g id="edge51_Node000035_Node000036" class="edge">
<title>Node35&#45;&gt;Node36</title>
<g id="a_edge51_Node000035_Node000036"><a xlink:title=" ">
<path fill="none" stroke="#63b8ff" d="M1857.51,-176.91C1833.94,-167.83 1799.78,-154.68 1773.84,-144.69"/>
<polygon fill="#63b8ff" stroke="#63b8ff" points="1774.93,-141.36 1764.34,-141.03 1772.42,-147.89 1774.93,-141.36"/>
</a>
</g>
</g>
<!-- Node36&#45;&gt;Node3 -->
<g id="edge53_Node000036_Node000003" class="edge">
<title>Node36&#45;&gt;Node3</title>
<g id="a_edge53_Node000036_Node000003"><a xlink:title=" ">
<path fill="none" stroke="#63b8ff" d="M1696.76,-117.98C1660.85,-108.59 1608.1,-94.8 1569.39,-84.68"/>
<polygon fill="#63b8ff" stroke="#63b8ff" points="1569.93,-81.2 1559.37,-82.06 1568.16,-87.97 1569.93,-81.2"/>
</a>
</g>
</g>
<!-- Node36&#45;&gt;Node4 -->
<g id="edge55_Node000036_Node000004" class="edge">
<title>Node36&#45;&gt;Node4</title>
<g id="a_edge55_Node000036_Node000004"><a xlink:title=" ">
<path fill="none" stroke="#63b8ff" d="M1717.21,-117.96C1702.06,-109.38 1681.1,-96.37 1665,-82 1648.03,-66.86 1631.91,-46.43 1621.17,-31.64"/>
<polygon fill="#63b8ff" stroke="#63b8ff" points="1623.86,-29.39 1615.22,-23.26 1618.15,-33.44 1623.86,-29.39"/>
</a>
</g>
</g>
<!-- Node36&#45;&gt;Node22 -->
<g id="edge52_Node000036_Node000022" class="edge">
<title>Node36&#45;&gt;Node22</title>
<g id="a_edge52_Node000036_Node000022"><a xlink:title=" ">
<path fill="none" stroke="#63b8ff" d="M1733.8,-117.78C1731.64,-110.53 1728.72,-100.74 1726.12,-92.02"/>
<polygon fill="#63b8ff" stroke="#63b8ff" points="1729.4,-90.76 1723.18,-82.17 1722.69,-92.76 1729.4,-90.76"/>
</a>
</g>
</g>
<!-- Node36&#45;&gt;Node26 -->
<g id="edge54_Node000036_Node000026" class="edge">
<title>Node36&#45;&gt;Node26</title>
<g id="a_edge54_Node000036_Node000026"><a xlink:title=" ">
<path fill="none" stroke="#63b8ff" d="M1751.3,-117.78C1762.33,-109.5 1777.82,-97.89 1790.51,-88.36"/>
<polygon fill="#63b8ff" stroke="#63b8ff" points="1792.87,-90.97 1798.77,-82.17 1788.67,-85.37 1792.87,-90.97"/>
</a>
</g>
</g>
</g>
</svg>
