<?xml version="1.0" encoding="UTF-8" standalone="no"?>
<!DOCTYPE svg PUBLIC "-//W3C//DTD SVG 1.1//EN"
 "http://www.w3.org/Graphics/SVG/1.1/DTD/svg11.dtd">
<!-- Generated by graphviz version 2.43.0 (0)
 -->
<!-- Title: EspTemperature Pages: 1 -->
<svg width="428pt" height="321pt"
 viewBox="0.00 0.00 428.00 320.67" xmlns="http://www.w3.org/2000/svg" xmlns:xlink="http://www.w3.org/1999/xlink">
<g id="graph0" class="graph" transform="scale(1 1) rotate(0) translate(4 316.67)">
<title>EspTemperature</title>
<!-- Node1 -->
<g id="Node000001" class="node">
<title>Node1</title>
<g id="a_Node000001"><a xlink:title="ESP32&#45;C6 internal temperature sensor implementation.">
<polygon fill="#999999" stroke="#666666" points="420,-166 304,-166 304,-143 420,-143 420,-166"/>
<text text-anchor="middle" x="362" y="-150.8" font-family="Arial" font-size="14.00">EspTemperature</text>
</a>
</g>
</g>
<!-- Node2 -->
<g id="Node000002" class="node">
<title>Node2</title>
<g id="a_Node000002"><a xlink:href="classBaseTemperature.html" target="_top" xlink:title="Abstract base class for all temperature sensor implementations.">
<polygon fill="white" stroke="#666666" points="141.5,-312 17.5,-312 17.5,-289 141.5,-289 141.5,-312"/>
<text text-anchor="middle" x="79.5" y="-296.8" font-family="Arial" font-size="14.00">BaseTemperature</text>
</a>
</g>
</g>
<!-- Node2&#45;&gt;Node1 -->
<g id="edge1_Node000001_Node000002" class="edge">
<title>Node2&#45;&gt;Node1</title>
<g id="a_edge1_Node000001_Node000002"><a xlink:title=" ">
<path fill="none" stroke="#63b8ff" d="M151.98,-311.62C194.05,-314.47 246.56,-311.28 286,-286.5 330.86,-258.31 351.51,-193.01 358.31,-166.26"/>
<polygon fill="#63b8ff" stroke="#63b8ff" points="152.05,-308.12 141.81,-310.8 151.49,-315.1 152.05,-308.12"/>
</a>
</g>
</g>
<!-- Node3 -->
<g id="Node000003" class="node">
<title>Node3</title>
<g id="a_Node000003"><a xlink:href="classRtosMutex.html" target="_top" xlink:title=" ">
<polygon fill="white" stroke="#666666" points="120.5,-269 38.5,-269 38.5,-246 120.5,-246 120.5,-269"/>
<text text-anchor="middle" x="79.5" y="-253.8" font-family="Arial" font-size="14.00">RtosMutex</text>
</a>
</g>
</g>
<!-- Node3&#45;&gt;Node1 -->
<g id="edge2_Node000001_Node000003" class="edge">
<title>Node3&#45;&gt;Node1</title>
<g id="a_edge2_Node000001_Node000003"><a xlink:title=" ">
<path fill="none" stroke="#9a32cd" stroke-dasharray="5,2" d="M131.11,-257.89C174.32,-256.34 237.04,-249.53 286,-225.5 314.81,-211.36 340,-182.28 352.55,-166.07"/>
<polygon fill="#9a32cd" stroke="#9a32cd" points="130.74,-254.4 120.84,-258.17 130.94,-261.4 130.74,-254.4"/>
</a>
</g>
<text text-anchor="middle" x="231.5" y="-272.3" font-family="Arial" font-size="14.00" fill="grey"> mutex_</text>
<text text-anchor="middle" x="231.5" y="-257.3" font-family="Arial" font-size="14.00" fill="grey">s_shared_mutex_</text>
</g>
<!-- Node4 -->
<g id="Node000004" class="node">
<title>Node4</title>
<g id="a_Node000004"><a xlink:href="structesp__temp__state__t.html" target="_top" xlink:title="ESP32&#45;C6 specific temperature sensor state.">
<polygon fill="white" stroke="#666666" points="142,-228 17,-228 17,-205 142,-205 142,-228"/>
<text text-anchor="middle" x="79.5" y="-212.8" font-family="Arial" font-size="14.00">esp_temp_state_t</text>
</a>
</g>
</g>
<!-- Node4&#45;&gt;Node1 -->
<g id="edge3_Node000001_Node000004" class="edge">
<title>Node4&#45;&gt;Node1</title>
<g id="a_edge3_Node000001_Node000004"><a xlink:title=" ">
<path fill="none" stroke="#9a32cd" stroke-dasharray="5,2" d="M152.24,-210.62C192.15,-206.21 242.42,-198.76 286,-186.5 304.13,-181.4 323.66,-172.97 338.25,-166.03"/>
<polygon fill="#9a32cd" stroke="#9a32cd" points="151.63,-207.16 142.06,-211.7 152.37,-214.12 151.63,-207.16"/>
</a>
</g>
<text text-anchor="middle" x="231.5" y="-210.3" font-family="Arial" font-size="14.00" fill="grey"> esp_state_</text>
</g>
<!-- Node5 -->
<g id="Node000005" class="node">
<title>Node5</title>
<g id="a_Node000005"><a xlink:href="structesp__temp__config__t.html" target="_top" xlink:title="ESP32&#45;C6 specific temperature sensor configuration.">
<polygon fill="white" stroke="#666666" points="145,-187 14,-187 14,-164 145,-164 145,-187"/>
<text text-anchor="middle" x="79.5" y="-171.8" font-family="Arial" font-size="14.00">esp_temp_config_t</text>
</a>
</g>
</g>
<!-- Node5&#45;&gt;Node1 -->
<g id="edge4_Node000001_Node000005" class="edge">
<title>Node5&#45;&gt;Node1</title>
<g id="a_edge4_Node000001_Node000005"><a xlink:title=" ">
<path fill="none" stroke="#9a32cd" stroke-dasharray="5,2" d="M155.25,-169.9C201.85,-166.42 260.88,-162 303.76,-158.79"/>
<polygon fill="#9a32cd" stroke="#9a32cd" points="154.92,-166.42 145.2,-170.66 155.44,-173.4 154.92,-166.42"/>
</a>
</g>
<text text-anchor="middle" x="231.5" y="-171.3" font-family="Arial" font-size="14.00" fill="grey"> esp_config_</text>
</g>
<!-- Node6 -->
<g id="Node000006" class="node">
<title>Node6</title>
<g id="a_Node000006"><a xlink:href="structhf__temp__config__t.html" target="_top" xlink:title="Temperature sensor configuration structure.">
<polygon fill="white" stroke="#666666" points="140,-146 19,-146 19,-123 140,-123 140,-146"/>
<text text-anchor="middle" x="79.5" y="-130.8" font-family="Arial" font-size="14.00">hf_temp_config_t</text>
</a>
</g>
</g>
<!-- Node6&#45;&gt;Node1 -->
<g id="edge5_Node000001_Node000006" class="edge">
<title>Node6&#45;&gt;Node1</title>
<g id="a_edge5_Node000001_Node000006"><a xlink:title=" ">
<path fill="none" stroke="#9a32cd" stroke-dasharray="5,2" d="M150.21,-132.57C190.09,-132.28 241,-133.31 286,-138.5 294.99,-139.54 304.5,-141.15 313.62,-142.97"/>
<polygon fill="#9a32cd" stroke="#9a32cd" points="150.02,-129.07 140.05,-132.67 150.09,-136.07 150.02,-129.07"/>
</a>
</g>
<text text-anchor="middle" x="231.5" y="-142.3" font-family="Arial" font-size="14.00" fill="grey"> base_config_</text>
</g>
<!-- Node7 -->
<g id="Node000007" class="node">
<title>Node7</title>
<g id="a_Node000007"><a xlink:href="structhf__temp__statistics__t.html" target="_top" xlink:title="Temperature sensor statistics.">
<polygon fill="white" stroke="#666666" points="148,-105 11,-105 11,-82 148,-82 148,-105"/>
<text text-anchor="middle" x="79.5" y="-89.8" font-family="Arial" font-size="14.00">hf_temp_statistics_t</text>
</a>
</g>
</g>
<!-- Node7&#45;&gt;Node1 -->
<g id="edge6_Node000001_Node000007" class="edge">
<title>Node7&#45;&gt;Node1</title>
<g id="a_edge6_Node000001_Node000007"><a xlink:title=" ">
<path fill="none" stroke="#9a32cd" stroke-dasharray="5,2" d="M158.26,-93.73C197.33,-95.68 244.96,-100.87 286,-113.5 307.56,-120.14 329.96,-133.35 344.6,-142.98"/>
<polygon fill="#9a32cd" stroke="#9a32cd" points="158.15,-90.22 148.01,-93.28 157.84,-97.22 158.15,-90.22"/>
</a>
</g>
<text text-anchor="middle" x="231.5" y="-117.3" font-family="Arial" font-size="14.00" fill="grey"> statistics_</text>
</g>
<!-- Node8 -->
<g id="Node000008" class="node">
<title>Node8</title>
<g id="a_Node000008"><a xlink:href="structhf__temp__diagnostics__t.html" target="_top" xlink:title="Temperature sensor diagnostics.">
<polygon fill="white" stroke="#666666" points="155.5,-64 3.5,-64 3.5,-41 155.5,-41 155.5,-64"/>
<text text-anchor="middle" x="79.5" y="-48.8" font-family="Arial" font-size="14.00">hf_temp_diagnostics_t</text>
</a>
</g>
</g>
<!-- Node8&#45;&gt;Node1 -->
<g id="edge7_Node000001_Node000008" class="edge">
<title>Node8&#45;&gt;Node1</title>
<g id="a_edge7_Node000001_Node000008"><a xlink:title=" ">
<path fill="none" stroke="#9a32cd" stroke-dasharray="5,2" d="M165.92,-49.05C204.37,-50.69 249.26,-57.23 286,-75.5 317.16,-90.99 342.27,-125.03 353.93,-142.94"/>
<polygon fill="#9a32cd" stroke="#9a32cd" points="165.89,-45.55 155.78,-48.72 165.66,-52.54 165.89,-45.55"/>
</a>
</g>
<text text-anchor="middle" x="231.5" y="-79.3" font-family="Arial" font-size="14.00" fill="grey"> diagnostics_</text>
</g>
<!-- Node9 -->
<g id="Node000009" class="node">
<title>Node9</title>
<g id="a_Node000009"><a xlink:href="structesp__temp__range__info__t.html" target="_top" xlink:title="Temperature range information structure.">
<polygon fill="white" stroke="#666666" points="159,-23 0,-23 0,0 159,0 159,-23"/>
<text text-anchor="middle" x="79.5" y="-7.8" font-family="Arial" font-size="14.00">esp_temp_range_info_t</text>
</a>
</g>
</g>
<!-- Node9&#45;&gt;Node1 -->
<g id="edge8_Node000001_Node000009" class="edge">
<title>Node9&#45;&gt;Node1</title>
<g id="a_edge8_Node000001_Node000009"><a xlink:title=" ">
<path fill="none" stroke="#9a32cd" stroke-dasharray="5,2" d="M169.2,-2.55C207.7,-2.8 251.71,-9.03 286,-30.5 328.43,-57.07 350.22,-117.26 357.81,-142.75"/>
<polygon fill="#9a32cd" stroke="#9a32cd" points="169,0.95 159.02,-2.62 169.05,-6.05 169,0.95"/>
</a>
</g>
<text text-anchor="middle" x="231.5" y="-34.3" font-family="Arial" font-size="14.00" fill="grey"> RANGE_INFO</text>
</g>
</g>
</svg>
