<?xml version="1.0" encoding="UTF-8" standalone="no"?>
<!DOCTYPE svg PUBLIC "-//W3C//DTD SVG 1.1//EN"
 "http://www.w3.org/Graphics/SVG/1.1/DTD/svg11.dtd">
<!-- Generated by graphviz version 2.43.0 (0)
 -->
<!-- Title: inc/utils/DigitalOutputGuard.h Pages: 1 -->
<svg width="468pt" height="120pt"
 viewBox="0.00 0.00 468.00 120.00" xmlns="http://www.w3.org/2000/svg" xmlns:xlink="http://www.w3.org/1999/xlink">
<g id="graph0" class="graph" transform="scale(1 1) rotate(0) translate(4 116)">
<title>inc/utils/DigitalOutputGuard.h</title>
<!-- Node1 -->
<g id="Node000001" class="node">
<title>Node1</title>
<g id="a_Node000001"><a xlink:title="Header file for the DigitalOutputGuard class.">
<polygon fill="#999999" stroke="#666666" points="332.5,-112 138.5,-112 138.5,-89 332.5,-89 332.5,-112"/>
<text text-anchor="middle" x="235.5" y="-96.8" font-family="Arial" font-size="14.00">inc/utils/DigitalOutputGuard.h</text>
</a>
</g>
</g>
<!-- Node2 -->
<g id="Node000002" class="node">
<title>Node2</title>
<g id="a_Node000002"><a xlink:href="DigitalOutputGuardComprehensiveTest_8cpp.html" target="_top" xlink:title="DigitalOutputGuard comprehensive test suite for ESP32&#45;C6 DevKit&#45;M&#45;1.">
<polygon fill="white" stroke="#666666" points="233,-53 0,-53 0,0 233,0 233,-53"/>
<text text-anchor="start" x="8" y="-37.8" font-family="Arial" font-size="14.00">examples/esp32/main</text>
<text text-anchor="start" x="8" y="-22.8" font-family="Arial" font-size="14.00">/DigitalOutputGuardComprehensive</text>
<text text-anchor="middle" x="116.5" y="-7.8" font-family="Arial" font-size="14.00">Test.cpp</text>
</a>
</g>
</g>
<!-- Node1&#45;&gt;Node2 -->
<g id="edge1_Node000001_Node000002" class="edge">
<title>Node1&#45;&gt;Node2</title>
<g id="a_edge1_Node000001_Node000002"><a xlink:title=" ">
<path fill="none" stroke="#63b8ff" d="M209.31,-83.65C194.52,-74.7 175.67,-63.3 158.83,-53.11"/>
<polygon fill="#63b8ff" stroke="#63b8ff" points="207.57,-86.69 217.94,-88.88 211.2,-80.7 207.57,-86.69"/>
</a>
</g>
</g>
<!-- Node3 -->
<g id="Node000003" class="node">
<title>Node3</title>
<g id="a_Node000003"><a xlink:href="DigitalOutputGuard_8cpp.html" target="_top" xlink:title="Implementation of the DigitalOutputGuard class for unified DigitalGpio.">
<polygon fill="white" stroke="#666666" points="460,-38 251,-38 251,-15 460,-15 460,-38"/>
<text text-anchor="middle" x="355.5" y="-22.8" font-family="Arial" font-size="14.00">src/utils/DigitalOutputGuard.cpp</text>
</a>
</g>
</g>
<!-- Node1&#45;&gt;Node3 -->
<g id="edge2_Node000001_Node000003" class="edge">
<title>Node1&#45;&gt;Node3</title>
<g id="a_edge2_Node000001_Node000003"><a xlink:title=" ">
<path fill="none" stroke="#63b8ff" d="M261.81,-83.72C284.83,-69.9 317.66,-50.2 337.72,-38.17"/>
<polygon fill="#63b8ff" stroke="#63b8ff" points="259.98,-80.73 253.21,-88.88 263.58,-86.73 259.98,-80.73"/>
</a>
</g>
</g>
</g>
</svg>
