<?xml version="1.0" encoding="UTF-8" standalone="no"?>
<!DOCTYPE svg PUBLIC "-//W3C//DTD SVG 1.1//EN"
 "http://www.w3.org/Graphics/SVG/1.1/DTD/svg11.dtd">
<!-- Generated by graphviz version 2.43.0 (0)
 -->
<!-- Title: inc/utils/DigitalOutputGuard.h Pages: 1 -->
<svg width="362pt" height="208pt"
 viewBox="0.00 0.00 362.00 208.00" xmlns="http://www.w3.org/2000/svg" xmlns:xlink="http://www.w3.org/1999/xlink">

<svg id="main" version="1.1" xmlns="http://www.w3.org/2000/svg" xmlns:xlink="http://www.w3.org/1999/xlink" xml:space="preserve" onload="init(evt)">
<style type="text/css"><![CDATA[
.node, .edge {opacity: 0.7;}
.node.selected, .edge.selected {opacity: 1;}
.edge:hover path { stroke: red; }
.edge:hover polygon { stroke: red; fill: red; }
]]></style>
<script type="application/ecmascript" xlink:href="svg.min.js"/>
<svg id="graph" class="graph">
<g id="graph0" class="graph" transform="scale(1 1) rotate(0) translate(4 204)">
<title>inc/utils/DigitalOutputGuard.h</title>
<!-- Node1 -->
<g id="Node000001" class="node">
<title>Node1</title>
<g id="a_Node000001"><a xlink:title="Header file for the DigitalOutputGuard class.">
<polygon fill="#999999" stroke="#666666" points="202,-200 8,-200 8,-177 202,-177 202,-200"/>
<text text-anchor="middle" x="105" y="-184.8" font-family="Arial" font-size="14.00">inc/utils/DigitalOutputGuard.h</text>
</a>
</g>
</g>
<!-- Node2 -->
<g id="Node000002" class="node">
<title>Node2</title>
<g id="a_Node000002"><a xlink:href="BaseGpio_8h.html" target="_top" xlink:title="Unified GPIO base class for all digital GPIO implementations.">
<polygon fill="white" stroke="#666666" points="210.5,-141 89.5,-141 89.5,-118 210.5,-118 210.5,-141"/>
<text text-anchor="middle" x="150" y="-125.8" font-family="Arial" font-size="14.00">base/BaseGpio.h</text>
</a>
</g>
</g>
<!-- Node1&#45;&gt;Node2 -->
<g id="edge1_Node000001_Node000002" class="edge">
<title>Node1&#45;&gt;Node2</title>
<g id="a_edge1_Node000001_Node000002"><a xlink:title=" ">
<path fill="none" stroke="#63b8ff" d="M113.46,-176.78C119.62,-168.98 128.12,-158.21 135.37,-149.03"/>
<polygon fill="#63b8ff" stroke="#63b8ff" points="138.12,-151.19 141.57,-141.17 132.63,-146.85 138.12,-151.19"/>
</a>
</g>
</g>
<!-- Node3 -->
<g id="Node000003" class="node">
<title>Node3</title>
<g id="a_Node000003"><a xlink:href="HardwareTypes_8h.html" target="_top" xlink:title="Platform&#45;agnostic hardware type definitions for the HardFOC system.">
<polygon fill="white" stroke="#666666" points="122,-82 0,-82 0,-59 122,-59 122,-82"/>
<text text-anchor="middle" x="61" y="-66.8" font-family="Arial" font-size="14.00">HardwareTypes.h</text>
</a>
</g>
</g>
<!-- Node1&#45;&gt;Node3 -->
<g id="edge8_Node000001_Node000003" class="edge">
<title>Node1&#45;&gt;Node3</title>
<g id="a_edge8_Node000001_Node000003"><a xlink:title=" ">
<path fill="none" stroke="#63b8ff" d="M98.65,-176.7C93.41,-167.45 86.03,-153.66 81,-141 74.63,-124.98 69.34,-106.15 65.81,-92.14"/>
<polygon fill="#63b8ff" stroke="#63b8ff" points="69.12,-90.96 63.36,-82.08 62.32,-92.62 69.12,-90.96"/>
</a>
</g>
</g>
<!-- Node2&#45;&gt;Node3 -->
<g id="edge2_Node000002_Node000003" class="edge">
<title>Node2&#45;&gt;Node3</title>
<g id="a_edge2_Node000002_Node000003"><a xlink:title=" ">
<path fill="none" stroke="#63b8ff" d="M133.26,-117.78C120.08,-109.34 101.5,-97.44 86.48,-87.82"/>
<polygon fill="#63b8ff" stroke="#63b8ff" points="87.97,-84.62 77.67,-82.17 84.2,-90.51 87.97,-84.62"/>
</a>
</g>
</g>
<!-- Node4 -->
<g id="Node000004" class="node">
<title>Node4</title>
<g id="a_Node000004"><a xlink:title=" ">
<polygon fill="#e0e0e0" stroke="#999999" points="168,-23 112,-23 112,0 168,0 168,-23"/>
<text text-anchor="middle" x="140" y="-7.8" font-family="Arial" font-size="14.00">cstdint</text>
</a>
</g>
</g>
<!-- Node2&#45;&gt;Node4 -->
<g id="edge5_Node000002_Node000004" class="edge">
<title>Node2&#45;&gt;Node4</title>
<g id="a_edge5_Node000002_Node000004"><a xlink:title=" ">
<path fill="none" stroke="#63b8ff" d="M149.08,-117.79C147.43,-98.63 143.94,-58.15 141.8,-33.34"/>
<polygon fill="#63b8ff" stroke="#63b8ff" points="145.27,-32.84 140.92,-23.18 138.29,-33.44 145.27,-32.84"/>
</a>
</g>
</g>
<!-- Node6 -->
<g id="Node000006" class="node">
<title>Node6</title>
<g id="a_Node000006"><a xlink:title=" ">
<polygon fill="#e0e0e0" stroke="#999999" points="252,-82 178,-82 178,-59 252,-59 252,-82"/>
<text text-anchor="middle" x="215" y="-66.8" font-family="Arial" font-size="14.00">functional</text>
</a>
</g>
</g>
<!-- Node2&#45;&gt;Node6 -->
<g id="edge6_Node000002_Node000006" class="edge">
<title>Node2&#45;&gt;Node6</title>
<g id="a_edge6_Node000002_Node000006"><a xlink:title=" ">
<path fill="none" stroke="#63b8ff" d="M162.23,-117.78C171.49,-109.66 184.4,-98.33 195.14,-88.92"/>
<polygon fill="#63b8ff" stroke="#63b8ff" points="197.62,-91.4 202.83,-82.17 193,-86.13 197.62,-91.4"/>
</a>
</g>
</g>
<!-- Node7 -->
<g id="Node000007" class="node">
<title>Node7</title>
<g id="a_Node000007"><a xlink:title=" ">
<polygon fill="#e0e0e0" stroke="#999999" points="354,-82 270,-82 270,-59 354,-59 354,-82"/>
<text text-anchor="middle" x="312" y="-66.8" font-family="Arial" font-size="14.00">string_view</text>
</a>
</g>
</g>
<!-- Node2&#45;&gt;Node7 -->
<g id="edge7_Node000002_Node000007" class="edge">
<title>Node2&#45;&gt;Node7</title>
<g id="a_edge7_Node000002_Node000007"><a xlink:title=" ">
<path fill="none" stroke="#63b8ff" d="M180.09,-117.91C206.12,-108.75 243.94,-95.45 272.42,-85.43"/>
<polygon fill="#63b8ff" stroke="#63b8ff" points="273.8,-88.65 282.07,-82.03 271.48,-82.05 273.8,-88.65"/>
</a>
</g>
</g>
<!-- Node3&#45;&gt;Node4 -->
<g id="edge3_Node000003_Node000004" class="edge">
<title>Node3&#45;&gt;Node4</title>
<g id="a_edge3_Node000003_Node000004"><a xlink:title=" ">
<path fill="none" stroke="#63b8ff" d="M75.86,-58.78C87.45,-50.42 103.74,-38.66 117.01,-29.09"/>
<polygon fill="#63b8ff" stroke="#63b8ff" points="119.15,-31.86 125.21,-23.17 115.05,-26.19 119.15,-31.86"/>
</a>
</g>
</g>
<!-- Node5 -->
<g id="Node000005" class="node">
<title>Node5</title>
<g id="a_Node000005"><a xlink:title=" ">
<polygon fill="#e0e0e0" stroke="#999999" points="85,-23 37,-23 37,0 85,0 85,-23"/>
<text text-anchor="middle" x="61" y="-7.8" font-family="Arial" font-size="14.00">limits</text>
</a>
</g>
</g>
<!-- Node3&#45;&gt;Node5 -->
<g id="edge4_Node000003_Node000005" class="edge">
<title>Node3&#45;&gt;Node5</title>
<g id="a_edge4_Node000003_Node000005"><a xlink:title=" ">
<path fill="none" stroke="#63b8ff" d="M61,-58.78C61,-51.61 61,-41.95 61,-33.31"/>
<polygon fill="#63b8ff" stroke="#63b8ff" points="64.5,-33.17 61,-23.17 57.5,-33.17 64.5,-33.17"/>
</a>
</g>
</g>
</g>
</svg>
</svg>

<style type='text/css'>
<![CDATA[
[data-mouse-over-selected='false'] { opacity: 0.7; }
[data-mouse-over-selected='true']  { opacity: 1.0; }
]]>
</style>
<script type="application/ecmascript"><![CDATA[
document.addEventListener('DOMContentLoaded', (event) => {
  highlightEdges();
  highlightAdjacentNodes();
});
]]></script>
</svg>
