<?xml version="1.0" encoding="UTF-8" standalone="no"?>
<!DOCTYPE svg PUBLIC "-//W3C//DTD SVG 1.1//EN"
 "http://www.w3.org/Graphics/SVG/1.1/DTD/svg11.dtd">
<!-- Generated by graphviz version 2.43.0 (0)
 -->
<!-- Title: inc Pages: 1 -->
<svg width="136pt" height="181pt"
 viewBox="0.00 0.00 136.00 181.00" xmlns="http://www.w3.org/2000/svg" xmlns:xlink="http://www.w3.org/1999/xlink">
<g id="graph0" class="graph" transform="scale(1 1) rotate(0) translate(4 177)">
<title>inc</title>
<g id="clust1" class="cluster">
<title>clusterdir_bfccd401955b95cf8c75461437045ac0</title>
<g id="a_clust1"><a xlink:href="dir_bfccd401955b95cf8c75461437045ac0.html" target="_top">
<polygon fill="#edf0f7" stroke="#404040" stroke-width="2" points="8,-8 8,-165 120,-165 120,-8 8,-8"/>
</a>
</g>
</g>
<!-- dir_bfccd401955b95cf8c75461437045ac0 -->
<g id="node1" class="node">
<title>dir_bfccd401955b95cf8c75461437045ac0</title>
<text text-anchor="middle" x="95" y="-141.8" font-family="Arial" font-size="14.00">inc</text>
</g>
<!-- dir_af527b166bd0aeb318c4d06f73919cfb -->
<g id="node2" class="node">
<title>dir_af527b166bd0aeb318c4d06f73919cfb</title>
<g id="a_node2"><a xlink:href="dir_af527b166bd0aeb318c4d06f73919cfb.html" target="_top" xlink:title="base">
<polygon fill="#a2b4d6" stroke="#404040" points="76,-39 30,-39 30,-16 76,-16 76,-39"/>
<text text-anchor="middle" x="53" y="-23.8" font-family="Arial" font-size="14.00">base</text>
</a>
</g>
</g>
<!-- dir_a8fcf44594a21eb2fd60c83cfa0bc114 -->
<g id="node3" class="node">
<title>dir_a8fcf44594a21eb2fd60c83cfa0bc114</title>
<g id="a_node3"><a xlink:href="dir_a8fcf44594a21eb2fd60c83cfa0bc114.html" target="_top" xlink:title="mcu">
<polygon fill="#a2b4d6" stroke="#404040" points="59.5,-157 16.5,-157 16.5,-134 59.5,-134 59.5,-157"/>
<text text-anchor="middle" x="38" y="-141.8" font-family="Arial" font-size="14.00">mcu</text>
</a>
</g>
</g>
<!-- dir_a8fcf44594a21eb2fd60c83cfa0bc114&#45;&gt;dir_af527b166bd0aeb318c4d06f73919cfb -->
<g id="edge2" class="edge">
<title>dir_a8fcf44594a21eb2fd60c83cfa0bc114&#45;&gt;dir_af527b166bd0aeb318c4d06f73919cfb</title>
<g id="a_edge2"><a xlink:href="dir_000008_000000.html" target="_top">
<path fill="none" stroke="#63b8ff" d="M36.96,-133.58C35.88,-119.83 34.78,-95.5 38,-75 39.37,-66.26 42.12,-56.92 44.89,-48.93"/>
<polygon fill="#63b8ff" stroke="#63b8ff" points="48.24,-49.94 48.43,-39.35 41.68,-47.51 48.24,-49.94"/>
</a>
</g>
<g id="a_edge2&#45;headlabel"><a xlink:href="dir_000008_000000.html" target="_top" xlink:title="36">
<text text-anchor="middle" x="49.66" y="-50.6" font-family="Arial" font-size="14.00" fill="#63b8ff">36</text>
</a>
</g>
</g>
<!-- dir_8f46c503ad4a32bd125d4189308369db -->
<g id="node4" class="node">
<title>dir_8f46c503ad4a32bd125d4189308369db</title>
<g id="a_node4"><a xlink:href="dir_8f46c503ad4a32bd125d4189308369db.html" target="_top" xlink:title="utils">
<polygon fill="#a2b4d6" stroke="#404040" points="87.5,-98 46.5,-98 46.5,-75 87.5,-75 87.5,-98"/>
<text text-anchor="middle" x="67" y="-82.8" font-family="Arial" font-size="14.00">utils</text>
</a>
</g>
</g>
<!-- dir_a8fcf44594a21eb2fd60c83cfa0bc114&#45;&gt;dir_8f46c503ad4a32bd125d4189308369db -->
<g id="edge1" class="edge">
<title>dir_a8fcf44594a21eb2fd60c83cfa0bc114&#45;&gt;dir_8f46c503ad4a32bd125d4189308369db</title>
<g id="a_edge1"><a xlink:href="dir_000008_000012.html" target="_top">
<path fill="none" stroke="#63b8ff" d="M43.45,-133.78C47.26,-126.29 52.46,-116.09 57,-107.16"/>
<polygon fill="#63b8ff" stroke="#63b8ff" points="60.15,-108.67 61.57,-98.17 53.92,-105.5 60.15,-108.67"/>
</a>
</g>
<g id="a_edge1&#45;headlabel"><a xlink:href="dir_000008_000012.html" target="_top" xlink:title="27">
<text text-anchor="middle" x="61.06" y="-109.46" font-family="Arial" font-size="14.00" fill="#63b8ff">27</text>
</a>
</g>
</g>
<!-- dir_8f46c503ad4a32bd125d4189308369db&#45;&gt;dir_af527b166bd0aeb318c4d06f73919cfb -->
<g id="edge3" class="edge">
<title>dir_8f46c503ad4a32bd125d4189308369db&#45;&gt;dir_af527b166bd0aeb318c4d06f73919cfb</title>
<g id="a_edge3"><a xlink:href="dir_000012_000000.html" target="_top">
<path fill="none" stroke="#63b8ff" d="M64.37,-74.78C62.59,-67.53 60.18,-57.74 58.04,-49.02"/>
<polygon fill="#63b8ff" stroke="#63b8ff" points="61.41,-48.05 55.62,-39.17 54.61,-49.72 61.41,-48.05"/>
</a>
</g>
<g id="a_edge3&#45;headlabel"><a xlink:href="dir_000012_000000.html" target="_top" xlink:title="2">
<text text-anchor="middle" x="65.02" y="-47.16" font-family="Arial" font-size="14.00" fill="#63b8ff">2</text>
</a>
</g>
</g>
</g>
</svg>
