<?xml version="1.0" encoding="UTF-8" standalone="no"?>
<!DOCTYPE svg PUBLIC "-//W3C//DTD SVG 1.1//EN"
 "http://www.w3.org/Graphics/SVG/1.1/DTD/svg11.dtd">
<!-- Generated by graphviz version 2.43.0 (0)
 -->
<!-- Title: inc/mcu/esp32/EspCan.h Pages: 1 -->
<!--zoomable 267 -->

<svg id="main" version="1.1" xmlns="http://www.w3.org/2000/svg" xmlns:xlink="http://www.w3.org/1999/xlink" xml:space="preserve" onload="init(evt)">
<style type="text/css"><![CDATA[
.node, .edge {opacity: 0.7;}
.node.selected, .edge.selected {opacity: 1;}
.edge:hover path { stroke: red; }
.edge:hover polygon { stroke: red; fill: red; }
]]></style>

<defs>
  <circle id="rim" cx="0" cy="0" r="7"/>
  <circle id="rim2" cx="0" cy="0" r="3.5"/>
  <g id="zoomPlus">
    <use xlink:href="#rim" fill="#404040"><set attributeName="fill" to="#808080" begin="zoomplus.mouseover" end="zoomplus.mouseout"/></use>
    <path d="M-4,0h8M0,-4v8" fill="none" stroke="white" stroke-width="1.5" pointer-events="none"/>
  </g>
  <g id="zoomMin">
    <use xlink:href="#rim" fill="#404040"><set attributeName="fill" to="#808080" begin="zoomminus.mouseover" end="zoomminus.mouseout"/></use>
    <path d="M-4,0h8" fill="none" stroke="white" stroke-width="1.5" pointer-events="none"/>
  </g>
  <g id="arrowUp" transform="translate(30 24)">
    <use xlink:href="#rim"/>
    <path pointer-events="none" fill="none" stroke="white" stroke-width="1.5" d="M0,-3.0v7 M-2.5,-0.5L0,-3.0L2.5,-0.5"/>
  </g>
  <g id="arrowRight" transform="rotate(90) translate(36 -43)">
    <use xlink:href="#rim"/>
    <path pointer-events="none" fill="none" stroke="white" stroke-width="1.5" d="M0,-3.0v7 M-2.5,-0.5L0,-3.0L2.5,-0.5"/>
  </g>
  <g id="arrowDown" transform="rotate(180) translate(-30 -48)">
    <use xlink:href="#rim"/>
    <path pointer-events="none" fill="none" stroke="white" stroke-width="1.5" d="M0,-3.0v7 M-2.5,-0.5L0,-3.0L2.5,-0.5"/>
  </g>
  <g id="arrowLeft" transform="rotate(270) translate(-36 17)">
    <use xlink:href="#rim"/>
    <path pointer-events="none" fill="none" stroke="white" stroke-width="1.5" d="M0,-3.0v7 M-2.5,-0.5L0,-3.0L2.5,-0.5"/>
  </g>
  <g id="resetDef">
    <use xlink:href="#rim2" fill="#404040"><set attributeName="fill" to="#808080" begin="reset.mouseover" end="reset.mouseout"/></use>
  </g>
</defs>
<script type="application/ecmascript">
var viewWidth = 1074;
var viewHeight = 267;
var sectionId = 'dynsection-0';
</script>
<script type="application/ecmascript" xlink:href="svg.min.js"/>
<svg id="graph" class="graph">
<g id="viewport">
<title>inc/mcu/esp32/EspCan.h</title>
<!-- Node1 -->
<g id="Node000001" class="node">
<title>Node1</title>
<g id="a_Node000001"><a xlink:title="ESP32 CAN (TWAI) implementation for the HardFOC system &#45; ESP&#45;IDF v5.5 Compatible.">
<polygon fill="#999999" stroke="#666666" points="481.5,-259 314.5,-259 314.5,-236 481.5,-236 481.5,-259"/>
<text text-anchor="middle" x="398" y="-243.8" font-family="Arial" font-size="14.00">inc/mcu/esp32/EspCan.h</text>
</a>
</g>
</g>
<!-- Node2 -->
<g id="Node000002" class="node">
<title>Node2</title>
<g id="a_Node000002"><a xlink:href="McuSelect_8h.html" target="_top" xlink:title="Centralized MCU platform selection and configuration header.">
<polygon fill="white" stroke="#666666" points="606,-82 514,-82 514,-59 606,-59 606,-82"/>
<text text-anchor="middle" x="560" y="-66.8" font-family="Arial" font-size="14.00">McuSelect.h</text>
</a>
</g>
</g>
<!-- Node1&#45;&gt;Node2 -->
<g id="edge1_Node000001_Node000002" class="edge">
<title>Node1&#45;&gt;Node2</title>
<g id="a_edge1_Node000001_Node000002"><a xlink:title=" ">
<path fill="none" stroke="#63b8ff" d="M437.9,-235.93C458.84,-228.69 483.67,-217.22 501,-200 531.75,-169.45 548.15,-119.92 555.36,-92.12"/>
<polygon fill="#63b8ff" stroke="#63b8ff" points="558.79,-92.83 557.76,-82.29 551.99,-91.17 558.79,-92.83"/>
</a>
</g>
</g>
<!-- Node3 -->
<g id="Node000003" class="node">
<title>Node3</title>
<g id="a_Node000003"><a xlink:title=" ">
<polygon fill="#e0e0e0" stroke="#999999" points="119.5,-200 38.5,-200 38.5,-177 119.5,-177 119.5,-200"/>
<text text-anchor="middle" x="79" y="-184.8" font-family="Arial" font-size="14.00">esp_twai.h</text>
</a>
</g>
</g>
<!-- Node1&#45;&gt;Node3 -->
<g id="edge2_Node000001_Node000003" class="edge">
<title>Node1&#45;&gt;Node3</title>
<g id="a_edge2_Node000001_Node000003"><a xlink:title=" ">
<path fill="none" stroke="#63b8ff" d="M333.2,-235.97C280.99,-227.33 205.42,-214.48 129.82,-200.11"/>
<polygon fill="#63b8ff" stroke="#63b8ff" points="130.11,-196.6 119.63,-198.16 128.8,-203.47 130.11,-196.6"/>
</a>
</g>
</g>
<!-- Node4 -->
<g id="Node000004" class="node">
<title>Node4</title>
<g id="a_Node000004"><a xlink:title=" ">
<polygon fill="#e0e0e0" stroke="#999999" points="266,-200 138,-200 138,-177 266,-177 266,-200"/>
<text text-anchor="middle" x="202" y="-184.8" font-family="Arial" font-size="14.00">esp_twai_onchip.h</text>
</a>
</g>
</g>
<!-- Node1&#45;&gt;Node4 -->
<g id="edge3_Node000001_Node000004" class="edge">
<title>Node1&#45;&gt;Node4</title>
<g id="a_edge3_Node000001_Node000004"><a xlink:title=" ">
<path fill="none" stroke="#63b8ff" d="M361.59,-235.91C329.55,-226.59 282.74,-212.98 248.09,-202.9"/>
<polygon fill="#63b8ff" stroke="#63b8ff" points="248.79,-199.46 238.21,-200.03 246.84,-206.18 248.79,-199.46"/>
</a>
</g>
</g>
<!-- Node5 -->
<g id="Node000005" class="node">
<title>Node5</title>
<g id="a_Node000005"><a xlink:href="BaseCan_8h.html" target="_top" xlink:title="Abstract base class for CAN bus implementations in the HardFOC system.">
<polygon fill="white" stroke="#666666" points="291.5,-141 208.5,-141 208.5,-118 291.5,-118 291.5,-141"/>
<text text-anchor="middle" x="250" y="-125.8" font-family="Arial" font-size="14.00">BaseCan.h</text>
</a>
</g>
</g>
<!-- Node1&#45;&gt;Node5 -->
<g id="edge4_Node000001_Node000005" class="edge">
<title>Node1&#45;&gt;Node5</title>
<g id="a_edge4_Node000001_Node000005"><a xlink:title=" ">
<path fill="none" stroke="#63b8ff" d="M374.3,-235.93C356.76,-227.51 332.74,-214.73 314,-200 295.03,-185.09 276.72,-164.36 264.59,-149.43"/>
<polygon fill="#63b8ff" stroke="#63b8ff" points="267.16,-147.04 258.19,-141.39 261.68,-151.4 267.16,-147.04"/>
</a>
</g>
</g>
<!-- Node9 -->
<g id="Node000009" class="node">
<title>Node9</title>
<g id="a_Node000009"><a xlink:title=" ">
<polygon fill="#e0e0e0" stroke="#999999" points="495.5,-82 438.5,-82 438.5,-59 495.5,-59 495.5,-82"/>
<text text-anchor="middle" x="467" y="-66.8" font-family="Arial" font-size="14.00">atomic</text>
</a>
</g>
</g>
<!-- Node1&#45;&gt;Node9 -->
<g id="edge28_Node000001_Node000009" class="edge">
<title>Node1&#45;&gt;Node9</title>
<g id="a_edge28_Node000001_Node000009"><a xlink:title=" ">
<path fill="none" stroke="#63b8ff" d="M435.32,-235.95C453.06,-228.85 472.62,-217.51 483,-200 503.14,-166.03 488.1,-118.17 476.68,-91.48"/>
<polygon fill="#63b8ff" stroke="#63b8ff" points="479.73,-89.72 472.42,-82.05 473.35,-92.6 479.73,-89.72"/>
</a>
</g>
</g>
<!-- Node10 -->
<g id="Node000010" class="node">
<title>Node10</title>
<g id="a_Node000010"><a xlink:title=" ">
<polygon fill="#e0e0e0" stroke="#999999" points="74,-82 0,-82 0,-59 74,-59 74,-82"/>
<text text-anchor="middle" x="37" y="-66.8" font-family="Arial" font-size="14.00">functional</text>
</a>
</g>
</g>
<!-- Node1&#45;&gt;Node10 -->
<g id="edge29_Node000001_Node000010" class="edge">
<title>Node1&#45;&gt;Node10</title>
<g id="a_edge29_Node000001_Node000010"><a xlink:title=" ">
<path fill="none" stroke="#63b8ff" d="M314.39,-241.73C211.37,-234.98 47.58,-221.07 29,-200 2.65,-170.12 16.87,-119.56 27.94,-91.6"/>
<polygon fill="#63b8ff" stroke="#63b8ff" points="31.29,-92.65 31.94,-82.08 24.84,-89.94 31.29,-92.65"/>
</a>
</g>
</g>
<!-- Node12 -->
<g id="Node000012" class="node">
<title>Node12</title>
<g id="a_Node000012"><a xlink:href="RtosMutex_8h.html" target="_top" xlink:title="Cross&#45;platform RTOS mutex and synchronization primitives.">
<polygon fill="white" stroke="#666666" points="699.5,-141 606.5,-141 606.5,-118 699.5,-118 699.5,-141"/>
<text text-anchor="middle" x="653" y="-125.8" font-family="Arial" font-size="14.00">RtosMutex.h</text>
</a>
</g>
</g>
<!-- Node1&#45;&gt;Node12 -->
<g id="edge12_Node000001_Node000012" class="edge">
<title>Node1&#45;&gt;Node12</title>
<g id="a_edge12_Node000001_Node000012"><a xlink:title=" ">
<path fill="none" stroke="#63b8ff" d="M481.57,-237.93C517.5,-231.44 558.79,-220.04 592,-200 612.8,-187.45 630.32,-165.46 641.17,-149.57"/>
<polygon fill="#63b8ff" stroke="#63b8ff" points="644.21,-151.32 646.77,-141.04 638.36,-147.48 644.21,-151.32"/>
</a>
</g>
</g>
<!-- Node16 -->
<g id="Node000016" class="node">
<title>Node16</title>
<g id="a_Node000016"><a xlink:href="EspTypes__CAN_8h.html" target="_top" xlink:title="ESP32 CAN type definitions for hardware abstraction.">
<polygon fill="white" stroke="#666666" points="473.5,-200 322.5,-200 322.5,-177 473.5,-177 473.5,-200"/>
<text text-anchor="middle" x="398" y="-184.8" font-family="Arial" font-size="14.00">utils/EspTypes_CAN.h</text>
</a>
</g>
</g>
<!-- Node1&#45;&gt;Node16 -->
<g id="edge19_Node000001_Node000016" class="edge">
<title>Node1&#45;&gt;Node16</title>
<g id="a_edge19_Node000001_Node000016"><a xlink:title=" ">
<path fill="none" stroke="#63b8ff" d="M398,-235.78C398,-228.61 398,-218.95 398,-210.31"/>
<polygon fill="#63b8ff" stroke="#63b8ff" points="401.5,-210.17 398,-200.17 394.5,-210.17 401.5,-210.17"/>
</a>
</g>
</g>
<!-- Node18 -->
<g id="Node000018" class="node">
<title>Node18</title>
<g id="a_Node000018"><a xlink:title=" ">
<polygon fill="#e0e0e0" stroke="#999999" points="711.5,-200 644.5,-200 644.5,-177 711.5,-177 711.5,-200"/>
<text text-anchor="middle" x="678" y="-184.8" font-family="Arial" font-size="14.00">memory</text>
</a>
</g>
</g>
<!-- Node1&#45;&gt;Node18 -->
<g id="edge30_Node000001_Node000018" class="edge">
<title>Node1&#45;&gt;Node18</title>
<g id="a_edge30_Node000001_Node000018"><a xlink:title=" ">
<path fill="none" stroke="#63b8ff" d="M451.96,-235.96C499.02,-226.71 569.09,-212.77 630,-200 631.46,-199.69 632.95,-199.38 634.45,-199.06"/>
<polygon fill="#63b8ff" stroke="#63b8ff" points="635.4,-202.44 644.45,-196.92 633.94,-195.59 635.4,-202.44"/>
</a>
</g>
</g>
<!-- Node6 -->
<g id="Node000006" class="node">
<title>Node6</title>
<g id="a_Node000006"><a xlink:href="HardwareTypes_8h.html" target="_top" xlink:title="Platform&#45;agnostic hardware type definitions for the HardFOC system.">
<polygon fill="white" stroke="#666666" points="382,-82 260,-82 260,-59 382,-59 382,-82"/>
<text text-anchor="middle" x="321" y="-66.8" font-family="Arial" font-size="14.00">HardwareTypes.h</text>
</a>
</g>
</g>
<!-- Node5&#45;&gt;Node6 -->
<g id="edge5_Node000005_Node000006" class="edge">
<title>Node5&#45;&gt;Node6</title>
<g id="a_edge5_Node000005_Node000006"><a xlink:title=" ">
<path fill="none" stroke="#63b8ff" d="M263.35,-117.78C273.57,-109.58 287.86,-98.11 299.65,-88.64"/>
<polygon fill="#63b8ff" stroke="#63b8ff" points="302.1,-91.16 307.71,-82.17 297.72,-85.7 302.1,-91.16"/>
</a>
</g>
</g>
<!-- Node7 -->
<g id="Node000007" class="node">
<title>Node7</title>
<g id="a_Node000007"><a xlink:title=" ">
<polygon fill="#e0e0e0" stroke="#999999" points="428,-23 372,-23 372,0 428,0 428,-23"/>
<text text-anchor="middle" x="400" y="-7.8" font-family="Arial" font-size="14.00">cstdint</text>
</a>
</g>
</g>
<!-- Node5&#45;&gt;Node7 -->
<g id="edge9_Node000005_Node000007" class="edge">
<title>Node5&#45;&gt;Node7</title>
<g id="a_edge9_Node000005_Node000007"><a xlink:title=" ">
<path fill="none" stroke="#63b8ff" d="M246.64,-117.87C242.69,-103.09 238.15,-76.21 251,-59 257.81,-49.87 319.95,-32.68 361.8,-21.95"/>
<polygon fill="#63b8ff" stroke="#63b8ff" points="362.87,-25.29 371.7,-19.43 361.14,-18.5 362.87,-25.29"/>
</a>
</g>
</g>
<!-- Node5&#45;&gt;Node9 -->
<g id="edge8_Node000005_Node000009" class="edge">
<title>Node5&#45;&gt;Node9</title>
<g id="a_edge8_Node000005_Node000009"><a xlink:title=" ">
<path fill="none" stroke="#63b8ff" d="M290.05,-117.98C329.51,-107.61 389.38,-91.89 428.35,-81.65"/>
<polygon fill="#63b8ff" stroke="#63b8ff" points="429.48,-84.97 438.27,-79.05 427.7,-78.2 429.48,-84.97"/>
</a>
</g>
</g>
<!-- Node5&#45;&gt;Node10 -->
<g id="edge10_Node000005_Node000010" class="edge">
<title>Node5&#45;&gt;Node10</title>
<g id="a_edge10_Node000005_Node000010"><a xlink:title=" ">
<path fill="none" stroke="#63b8ff" d="M210.44,-117.91C174.65,-108.34 121.92,-94.22 84,-84.08"/>
<polygon fill="#63b8ff" stroke="#63b8ff" points="84.78,-80.66 74.21,-81.46 82.97,-87.42 84.78,-80.66"/>
</a>
</g>
</g>
<!-- Node11 -->
<g id="Node000011" class="node">
<title>Node11</title>
<g id="a_Node000011"><a xlink:title=" ">
<polygon fill="#e0e0e0" stroke="#999999" points="204,-82 120,-82 120,-59 204,-59 204,-82"/>
<text text-anchor="middle" x="162" y="-66.8" font-family="Arial" font-size="14.00">string_view</text>
</a>
</g>
</g>
<!-- Node5&#45;&gt;Node11 -->
<g id="edge11_Node000005_Node000011" class="edge">
<title>Node5&#45;&gt;Node11</title>
<g id="a_edge11_Node000005_Node000011"><a xlink:title=" ">
<path fill="none" stroke="#63b8ff" d="M233.45,-117.78C220.42,-109.34 202.04,-97.44 187.19,-87.82"/>
<polygon fill="#63b8ff" stroke="#63b8ff" points="188.77,-84.67 178.48,-82.17 184.97,-90.55 188.77,-84.67"/>
</a>
</g>
</g>
<!-- Node6&#45;&gt;Node7 -->
<g id="edge6_Node000006_Node000007" class="edge">
<title>Node6&#45;&gt;Node7</title>
<g id="a_edge6_Node000006_Node000007"><a xlink:title=" ">
<path fill="none" stroke="#63b8ff" d="M335.86,-58.78C347.45,-50.42 363.74,-38.66 377.01,-29.09"/>
<polygon fill="#63b8ff" stroke="#63b8ff" points="379.15,-31.86 385.21,-23.17 375.05,-26.19 379.15,-31.86"/>
</a>
</g>
</g>
<!-- Node8 -->
<g id="Node000008" class="node">
<title>Node8</title>
<g id="a_Node000008"><a xlink:title=" ">
<polygon fill="#e0e0e0" stroke="#999999" points="345,-23 297,-23 297,0 345,0 345,-23"/>
<text text-anchor="middle" x="321" y="-7.8" font-family="Arial" font-size="14.00">limits</text>
</a>
</g>
</g>
<!-- Node6&#45;&gt;Node8 -->
<g id="edge7_Node000006_Node000008" class="edge">
<title>Node6&#45;&gt;Node8</title>
<g id="a_edge7_Node000006_Node000008"><a xlink:title=" ">
<path fill="none" stroke="#63b8ff" d="M321,-58.78C321,-51.61 321,-41.95 321,-33.31"/>
<polygon fill="#63b8ff" stroke="#63b8ff" points="324.5,-33.17 321,-23.17 317.5,-33.17 324.5,-33.17"/>
</a>
</g>
</g>
<!-- Node12&#45;&gt;Node2 -->
<g id="edge13_Node000012_Node000002" class="edge">
<title>Node12&#45;&gt;Node2</title>
<g id="a_edge13_Node000012_Node000002"><a xlink:title=" ">
<path fill="none" stroke="#63b8ff" d="M635.51,-117.78C621.61,-109.26 601.95,-97.21 586.18,-87.55"/>
<polygon fill="#63b8ff" stroke="#63b8ff" points="587.77,-84.41 577.41,-82.17 584.11,-90.38 587.77,-84.41"/>
</a>
</g>
</g>
<!-- Node12&#45;&gt;Node7 -->
<g id="edge18_Node000012_Node000007" class="edge">
<title>Node12&#45;&gt;Node7</title>
<g id="a_edge18_Node000012_Node000007"><a xlink:title=" ">
<path fill="none" stroke="#63b8ff" d="M650.26,-117.94C645.68,-102.47 634.94,-73.9 615,-59 587.47,-38.43 492.36,-23.8 438.32,-16.92"/>
<polygon fill="#63b8ff" stroke="#63b8ff" points="438.44,-13.41 428.09,-15.65 437.58,-20.36 438.44,-13.41"/>
</a>
</g>
</g>
<!-- Node12&#45;&gt;Node9 -->
<g id="edge17_Node000012_Node000009" class="edge">
<title>Node12&#45;&gt;Node9</title>
<g id="a_edge17_Node000012_Node000009"><a xlink:title=" ">
<path fill="none" stroke="#63b8ff" d="M618.45,-117.91C586.37,-108.08 538.67,-93.46 505.4,-83.27"/>
<polygon fill="#63b8ff" stroke="#63b8ff" points="506.16,-79.84 495.58,-80.26 504.11,-86.53 506.16,-79.84"/>
</a>
</g>
</g>
<!-- Node13 -->
<g id="Node000013" class="node">
<title>Node13</title>
<g id="a_Node000013"><a xlink:title=" ">
<polygon fill="#e0e0e0" stroke="#999999" points="925.5,-82 782.5,-82 782.5,-59 925.5,-59 925.5,-82"/>
<text text-anchor="middle" x="854" y="-66.8" font-family="Arial" font-size="14.00">freertos/FreeRTOS.h</text>
</a>
</g>
</g>
<!-- Node12&#45;&gt;Node13 -->
<g id="edge14_Node000012_Node000013" class="edge">
<title>Node12&#45;&gt;Node13</title>
<g id="a_edge14_Node000012_Node000013"><a xlink:title=" ">
<path fill="none" stroke="#63b8ff" d="M690.34,-117.91C723.34,-108.55 771.62,-94.86 807.19,-84.77"/>
<polygon fill="#63b8ff" stroke="#63b8ff" points="808.2,-88.13 816.86,-82.03 806.29,-81.39 808.2,-88.13"/>
</a>
</g>
</g>
<!-- Node14 -->
<g id="Node000014" class="node">
<title>Node14</title>
<g id="a_Node000014"><a xlink:title=" ">
<polygon fill="#e0e0e0" stroke="#999999" points="1066,-82 944,-82 944,-59 1066,-59 1066,-82"/>
<text text-anchor="middle" x="1005" y="-66.8" font-family="Arial" font-size="14.00">freertos/semphr.h</text>
</a>
</g>
</g>
<!-- Node12&#45;&gt;Node14 -->
<g id="edge15_Node000012_Node000014" class="edge">
<title>Node12&#45;&gt;Node14</title>
<g id="a_edge15_Node000012_Node000014"><a xlink:title=" ">
<path fill="none" stroke="#63b8ff" d="M699.74,-120.93C759.63,-111.23 864.03,-94.33 933.83,-83.03"/>
<polygon fill="#63b8ff" stroke="#63b8ff" points="934.55,-86.45 943.86,-81.4 933.43,-79.54 934.55,-86.45"/>
</a>
</g>
</g>
<!-- Node15 -->
<g id="Node000015" class="node">
<title>Node15</title>
<g id="a_Node000015"><a xlink:title=" ">
<polygon fill="#e0e0e0" stroke="#999999" points="764,-82 662,-82 662,-59 764,-59 764,-82"/>
<text text-anchor="middle" x="713" y="-66.8" font-family="Arial" font-size="14.00">freertos/task.h</text>
</a>
</g>
</g>
<!-- Node12&#45;&gt;Node15 -->
<g id="edge16_Node000012_Node000015" class="edge">
<title>Node12&#45;&gt;Node15</title>
<g id="a_edge16_Node000012_Node000015"><a xlink:title=" ">
<path fill="none" stroke="#63b8ff" d="M664.29,-117.78C672.75,-109.74 684.52,-98.55 694.38,-89.19"/>
<polygon fill="#63b8ff" stroke="#63b8ff" points="696.93,-91.6 701.77,-82.17 692.1,-86.52 696.93,-91.6"/>
</a>
</g>
</g>
<!-- Node16&#45;&gt;Node2 -->
<g id="edge27_Node000016_Node000002" class="edge">
<title>Node16&#45;&gt;Node2</title>
<g id="a_edge27_Node000016_Node000002"><a xlink:title=" ">
<path fill="none" stroke="#63b8ff" d="M420.5,-177C438.14,-168.34 462.98,-155.22 483,-141 505.01,-125.37 527.64,-104.22 542.62,-89.37"/>
<polygon fill="#63b8ff" stroke="#63b8ff" points="545.14,-91.8 549.71,-82.24 540.18,-86.86 545.14,-91.8"/>
</a>
</g>
</g>
<!-- Node16&#45;&gt;Node5 -->
<g id="edge20_Node000016_Node000005" class="edge">
<title>Node16&#45;&gt;Node5</title>
<g id="a_edge20_Node000016_Node000005"><a xlink:title=" ">
<path fill="none" stroke="#63b8ff" d="M370.51,-176.91C346.94,-167.83 312.78,-154.68 286.84,-144.69"/>
<polygon fill="#63b8ff" stroke="#63b8ff" points="287.93,-141.36 277.34,-141.03 285.42,-147.89 287.93,-141.36"/>
</a>
</g>
</g>
<!-- Node16&#45;&gt;Node6 -->
<g id="edge26_Node000016_Node000006" class="edge">
<title>Node16&#45;&gt;Node6</title>
<g id="a_edge26_Node000016_Node000006"><a xlink:title=" ">
<path fill="none" stroke="#63b8ff" d="M379.45,-176.99C366.57,-168.77 349.99,-156.21 340,-141 330.37,-126.33 325.59,-106.88 323.24,-92.28"/>
<polygon fill="#63b8ff" stroke="#63b8ff" points="326.68,-91.66 321.87,-82.23 319.75,-92.61 326.68,-91.66"/>
</a>
</g>
</g>
<!-- Node17 -->
<g id="Node000017" class="node">
<title>Node17</title>
<g id="a_Node000017"><a xlink:href="EspTypes__Base_8h.html" target="_top" xlink:title="ESP32 base type definitions for hardware abstraction.">
<polygon fill="white" stroke="#666666" points="473.5,-141 348.5,-141 348.5,-118 473.5,-118 473.5,-141"/>
<text text-anchor="middle" x="411" y="-125.8" font-family="Arial" font-size="14.00">EspTypes_Base.h</text>
</a>
</g>
</g>
<!-- Node16&#45;&gt;Node17 -->
<g id="edge21_Node000016_Node000017" class="edge">
<title>Node16&#45;&gt;Node17</title>
<g id="a_edge21_Node000016_Node000017"><a xlink:title=" ">
<path fill="none" stroke="#63b8ff" d="M400.45,-176.78C402.1,-169.53 404.33,-159.74 406.32,-151.02"/>
<polygon fill="#63b8ff" stroke="#63b8ff" points="409.75,-151.7 408.57,-141.17 402.93,-150.14 409.75,-151.7"/>
</a>
</g>
</g>
<!-- Node17&#45;&gt;Node2 -->
<g id="edge22_Node000017_Node000002" class="edge">
<title>Node17&#45;&gt;Node2</title>
<g id="a_edge22_Node000017_Node000002"><a xlink:title=" ">
<path fill="none" stroke="#63b8ff" d="M438.68,-117.91C462.41,-108.83 496.8,-95.68 522.91,-85.69"/>
<polygon fill="#63b8ff" stroke="#63b8ff" points="524.38,-88.87 532.47,-82.03 521.88,-82.34 524.38,-88.87"/>
</a>
</g>
</g>
<!-- Node17&#45;&gt;Node6 -->
<g id="edge23_Node000017_Node000006" class="edge">
<title>Node17&#45;&gt;Node6</title>
<g id="a_edge23_Node000017_Node000006"><a xlink:title=" ">
<path fill="none" stroke="#63b8ff" d="M394.07,-117.78C380.62,-109.26 361.6,-97.21 346.33,-87.55"/>
<polygon fill="#63b8ff" stroke="#63b8ff" points="348.17,-84.57 337.85,-82.17 344.43,-90.48 348.17,-84.57"/>
</a>
</g>
</g>
<!-- Node17&#45;&gt;Node7 -->
<g id="edge25_Node000017_Node000007" class="edge">
<title>Node17&#45;&gt;Node7</title>
<g id="a_edge25_Node000017_Node000007"><a xlink:title=" ">
<path fill="none" stroke="#63b8ff" d="M409.98,-117.79C408.17,-98.63 404.33,-58.15 401.98,-33.34"/>
<polygon fill="#63b8ff" stroke="#63b8ff" points="405.44,-32.8 401.01,-23.18 398.47,-33.46 405.44,-32.8"/>
</a>
</g>
</g>
<!-- Node17&#45;&gt;Node9 -->
<g id="edge24_Node000017_Node000009" class="edge">
<title>Node17&#45;&gt;Node9</title>
<g id="a_edge24_Node000017_Node000009"><a xlink:title=" ">
<path fill="none" stroke="#63b8ff" d="M421.53,-117.78C429.35,-109.82 440.2,-98.77 449.34,-89.47"/>
<polygon fill="#63b8ff" stroke="#63b8ff" points="452,-91.76 456.51,-82.17 447.01,-86.85 452,-91.76"/>
</a>
</g>
</g>
</g>
</svg>

<g id="navigator" transform="translate(0 0)" fill="#404254">
  <rect fill="#f2f5e9" fill-opacity="0.5" stroke="#606060" stroke-width=".5" x="0" y="0" width="60" height="60"/>
  <use id="zoomplus" xlink:href="#zoomPlus" x="17" y="9" onmousedown="handleZoom(evt,'in')"/>
  <use id="zoomminus" xlink:href="#zoomMin" x="42" y="9" onmousedown="handleZoom(evt,'out')"/>
  <use id="reset" xlink:href="#resetDef" x="30" y="36" onmousedown="handleReset()"/>
   <use id="arrowup" xlink:href="#arrowUp" x="0" y="0" onmousedown="handlePan(0,-1)"/>
  <use id="arrowright" xlink:href="#arrowRight" x="0" y="0" onmousedown="handlePan(1,0)"/>
  <use id="arrowdown" xlink:href="#arrowDown" x="0" y="0" onmousedown="handlePan(0,1)"/>
  <use id="arrowleft" xlink:href="#arrowLeft" x="0" y="0" onmousedown="handlePan(-1,0)"/>
</g>
<svg viewBox="0 0 15 15" width="100%" height="30px" preserveAspectRatio="xMaxYMin meet">
 <g id="arrow_out" transform="scale(0.3 0.3)">
  <a xlink:href="EspCan_8h__incl_org.svg" target="_base">
   <rect id="button" ry="5" rx="5" y="6" x="6" height="38" width="38"
        fill="#f2f5e9" fill-opacity="0.5" stroke="#606060" stroke-width="1.0"/>
   <path id="arrow"
     d="M 11.500037,31.436501 C 11.940474,20.09759 22.043105,11.32322 32.158766,21.979434 L 37.068811,17.246167 C 37.068811,17.246167 37.088388,32 37.088388,32 L 22.160133,31.978069 C 22.160133,31.978069 26.997745,27.140456 26.997745,27.140456 C 18.528582,18.264221 13.291696,25.230495 11.500037,31.436501 z"
     style="fill:#404040;"/>
  </a>
 </g>
</svg>

<style type='text/css'>
<![CDATA[
[data-mouse-over-selected='false'] { opacity: 0.7; }
[data-mouse-over-selected='true']  { opacity: 1.0; }
]]>
</style>
<script type="application/ecmascript"><![CDATA[
document.addEventListener('DOMContentLoaded', (event) => {
  highlightEdges();
  highlightAdjacentNodes();
});
]]></script>
</svg>
