<?xml version="1.0" encoding="UTF-8" standalone="no"?>
<!DOCTYPE svg PUBLIC "-//W3C//DTD SVG 1.1//EN"
 "http://www.w3.org/Graphics/SVG/1.1/DTD/svg11.dtd">
<!-- Generated by graphviz version 2.43.0 (0)
 -->
<!-- Title: inc/mcu/esp32/utils/EspTypes_SPI.h Pages: 1 -->
<svg width="2417pt" height="268pt"
 viewBox="0.00 0.00 2417.00 268.00" xmlns="http://www.w3.org/2000/svg" xmlns:xlink="http://www.w3.org/1999/xlink">
<g id="graph0" class="graph" transform="scale(1 1) rotate(0) translate(4 264)">
<title>inc/mcu/esp32/utils/EspTypes_SPI.h</title>
<!-- Node1 -->
<g id="Node000001" class="node">
<title>Node1</title>
<g id="a_Node000001"><a xlink:title="ESP32 SPI type definitions for hardware abstraction.">
<polygon fill="#999999" stroke="#666666" points="560.5,-260 428.5,-260 428.5,-222 560.5,-222 560.5,-260"/>
<text text-anchor="start" x="436.5" y="-244.8" font-family="Arial" font-size="14.00">inc/mcu/esp32/utils</text>
<text text-anchor="middle" x="494.5" y="-229.8" font-family="Arial" font-size="14.00">/EspTypes_SPI.h</text>
</a>
</g>
</g>
<!-- Node2 -->
<g id="Node000002" class="node">
<title>Node2</title>
<g id="a_Node000002"><a xlink:href="SpiComprehensiveTest_8cpp.html" target="_top" xlink:title="Comprehensive SPI testing suite for ESP32&#45;C6 DevKit&#45;M&#45;1 (noexcept)">
<polygon fill="white" stroke="#666666" points="185,-38 0,-38 0,0 185,0 185,-38"/>
<text text-anchor="start" x="8" y="-22.8" font-family="Arial" font-size="14.00">examples/esp32/main</text>
<text text-anchor="middle" x="92.5" y="-7.8" font-family="Arial" font-size="14.00">/SpiComprehensiveTest.cpp</text>
</a>
</g>
</g>
<!-- Node1&#45;&gt;Node2 -->
<g id="edge1_Node000001_Node000002" class="edge">
<title>Node1&#45;&gt;Node2</title>
<g id="a_edge1_Node000001_Node000002"><a xlink:title=" ">
<path fill="none" stroke="#63b8ff" d="M431.35,-218.47C370.18,-196.25 276,-158.34 201.5,-112 166.59,-90.29 131.13,-58.05 110.5,-38.07"/>
<polygon fill="#63b8ff" stroke="#63b8ff" points="430.29,-221.81 440.88,-221.9 432.66,-215.22 430.29,-221.81"/>
</a>
</g>
</g>
<!-- Node3 -->
<g id="Node000003" class="node">
<title>Node3</title>
<g id="a_Node000003"><a xlink:href="EspTypes_8h.html" target="_top" xlink:title="Consolidated MCU&#45;specific type definitions for hardware abstraction (hf_* types).">
<polygon fill="white" stroke="#666666" points="1061.5,-186 929.5,-186 929.5,-148 1061.5,-148 1061.5,-186"/>
<text text-anchor="start" x="937.5" y="-170.8" font-family="Arial" font-size="14.00">inc/mcu/esp32/utils</text>
<text text-anchor="middle" x="995.5" y="-155.8" font-family="Arial" font-size="14.00">/EspTypes.h</text>
</a>
</g>
</g>
<!-- Node1&#45;&gt;Node3 -->
<g id="edge2_Node000001_Node000003" class="edge">
<title>Node1&#45;&gt;Node3</title>
<g id="a_edge2_Node000001_Node000003"><a xlink:title=" ">
<path fill="none" stroke="#63b8ff" d="M570.63,-229.06C668.43,-215 836.62,-190.83 929.34,-177.51"/>
<polygon fill="#63b8ff" stroke="#63b8ff" points="569.91,-225.63 560.51,-230.51 570.91,-232.56 569.91,-225.63"/>
</a>
</g>
</g>
<!-- Node4 -->
<g id="Node000004" class="node">
<title>Node4</title>
<g id="a_Node000004"><a xlink:href="EspAdc_8h.html" target="_top" xlink:title="ESP32 ADC implementation for the HardFOC system.">
<polygon fill="white" stroke="#666666" points="778.5,-104.5 612.5,-104.5 612.5,-81.5 778.5,-81.5 778.5,-104.5"/>
<text text-anchor="middle" x="695.5" y="-89.3" font-family="Arial" font-size="14.00">inc/mcu/esp32/EspAdc.h</text>
</a>
</g>
</g>
<!-- Node3&#45;&gt;Node4 -->
<g id="edge3_Node000003_Node000004" class="edge">
<title>Node3&#45;&gt;Node4</title>
<g id="a_edge3_Node000003_Node000004"><a xlink:title=" ">
<path fill="none" stroke="#63b8ff" d="M919.25,-147.7C862.27,-134.03 786.41,-115.82 739.28,-104.51"/>
<polygon fill="#63b8ff" stroke="#63b8ff" points="918.75,-151.18 929.29,-150.11 920.39,-144.37 918.75,-151.18"/>
</a>
</g>
</g>
<!-- Node7 -->
<g id="Node000007" class="node">
<title>Node7</title>
<g id="a_Node000007"><a xlink:href="EspI2c_8h.html" target="_top" xlink:title="Advanced ESP32&#45;integrated I2C controller for ESP&#45;IDF v5.5+ with proper bus&#45;device architecture.">
<polygon fill="white" stroke="#666666" points="1076,-104.5 915,-104.5 915,-81.5 1076,-81.5 1076,-104.5"/>
<text text-anchor="middle" x="995.5" y="-89.3" font-family="Arial" font-size="14.00">inc/mcu/esp32/EspI2c.h</text>
</a>
</g>
</g>
<!-- Node3&#45;&gt;Node7 -->
<g id="edge6_Node000003_Node000007" class="edge">
<title>Node3&#45;&gt;Node7</title>
<g id="a_edge6_Node000003_Node000007"><a xlink:title=" ">
<path fill="none" stroke="#63b8ff" d="M995.5,-137.62C995.5,-125.99 995.5,-113.26 995.5,-104.57"/>
<polygon fill="#63b8ff" stroke="#63b8ff" points="992,-137.83 995.5,-147.83 999,-137.83 992,-137.83"/>
</a>
</g>
</g>
<!-- Node10 -->
<g id="Node000010" class="node">
<title>Node10</title>
<g id="a_Node000010"><a xlink:href="EspPeriodicTimer_8h.html" target="_top" xlink:title="MCU&#45;integrated periodic timer implementation.">
<polygon fill="white" stroke="#666666" points="1391.5,-112 1211.5,-112 1211.5,-74 1391.5,-74 1391.5,-112"/>
<text text-anchor="start" x="1219.5" y="-96.8" font-family="Arial" font-size="14.00">inc/mcu/esp32/EspPeriodic</text>
<text text-anchor="middle" x="1301.5" y="-81.8" font-family="Arial" font-size="14.00">Timer.h</text>
</a>
</g>
</g>
<!-- Node3&#45;&gt;Node10 -->
<g id="edge9_Node000003_Node000010" class="edge">
<title>Node3&#45;&gt;Node10</title>
<g id="a_edge9_Node000003_Node000010"><a xlink:title=" ">
<path fill="none" stroke="#63b8ff" d="M1071.29,-148.17C1118.06,-137.16 1177.87,-123.09 1224.8,-112.05"/>
<polygon fill="#63b8ff" stroke="#63b8ff" points="1070.45,-144.77 1061.52,-150.47 1072.06,-151.58 1070.45,-144.77"/>
</a>
</g>
</g>
<!-- Node13 -->
<g id="Node000013" class="node">
<title>Node13</title>
<g id="a_Node000013"><a xlink:href="EspPio_8h.html" target="_top" xlink:title="ESP32C6 RMT&#45;based Programmable IO Channel implementation with ESP&#45;IDF v5.5+ features.">
<polygon fill="white" stroke="#666666" points="1792.5,-104.5 1630.5,-104.5 1630.5,-81.5 1792.5,-81.5 1792.5,-104.5"/>
<text text-anchor="middle" x="1711.5" y="-89.3" font-family="Arial" font-size="14.00">inc/mcu/esp32/EspPio.h</text>
</a>
</g>
</g>
<!-- Node3&#45;&gt;Node13 -->
<g id="edge12_Node000003_Node000013" class="edge">
<title>Node3&#45;&gt;Node13</title>
<g id="a_edge12_Node000003_Node000013"><a xlink:title=" ">
<path fill="none" stroke="#63b8ff" d="M1071.91,-158.32C1207.98,-144.63 1491.05,-116.17 1630.41,-102.15"/>
<polygon fill="#63b8ff" stroke="#63b8ff" points="1071.18,-154.87 1061.58,-159.36 1071.88,-161.84 1071.18,-154.87"/>
</a>
</g>
</g>
<!-- Node16 -->
<g id="Node000016" class="node">
<title>Node16</title>
<g id="a_Node000016"><a xlink:href="EspSpi_8h.html" target="_top" xlink:title="Advanced MCU&#45;integrated SPI controller implementation with ESP32C6/ESP&#45;IDF v5.5+ features.">
<polygon fill="white" stroke="#666666" points="372.5,-104.5 210.5,-104.5 210.5,-81.5 372.5,-81.5 372.5,-104.5"/>
<text text-anchor="middle" x="291.5" y="-89.3" font-family="Arial" font-size="14.00">inc/mcu/esp32/EspSpi.h</text>
</a>
</g>
</g>
<!-- Node3&#45;&gt;Node16 -->
<g id="edge15_Node000003_Node000016" class="edge">
<title>Node3&#45;&gt;Node16</title>
<g id="a_edge15_Node000003_Node000016"><a xlink:title=" ">
<path fill="none" stroke="#63b8ff" d="M919.1,-158.19C785.26,-144.5 509.6,-116.31 372.54,-102.29"/>
<polygon fill="#63b8ff" stroke="#63b8ff" points="918.97,-161.69 929.27,-159.23 919.68,-154.73 918.97,-161.69"/>
</a>
</g>
</g>
<!-- Node18 -->
<g id="Node000018" class="node">
<title>Node18</title>
<g id="a_Node000018"><a xlink:href="EspUart_8h.html" target="_top" xlink:title="ESP32 UART implementation for the HardFOC system.">
<polygon fill="white" stroke="#666666" points="2196.5,-104.5 2028.5,-104.5 2028.5,-81.5 2196.5,-81.5 2196.5,-104.5"/>
<text text-anchor="middle" x="2112.5" y="-89.3" font-family="Arial" font-size="14.00">inc/mcu/esp32/EspUart.h</text>
</a>
</g>
</g>
<!-- Node3&#45;&gt;Node18 -->
<g id="edge18_Node000003_Node000018" class="edge">
<title>Node3&#45;&gt;Node18</title>
<g id="a_edge18_Node000003_Node000018"><a xlink:title=" ">
<path fill="none" stroke="#63b8ff" d="M1071.81,-161.08C1273.29,-148.09 1818.43,-112.96 2028.44,-99.42"/>
<polygon fill="#63b8ff" stroke="#63b8ff" points="1071.37,-157.6 1061.62,-161.74 1071.82,-164.59 1071.37,-157.6"/>
</a>
</g>
</g>
<!-- Node5 -->
<g id="Node000005" class="node">
<title>Node5</title>
<g id="a_Node000005"><a xlink:href="AdcComprehensiveTest_8cpp.html" target="_top" xlink:title="Comprehensive ADC testing suite for ESP32&#45;C6 DevKit&#45;M&#45;1 (noexcept)">
<polygon fill="white" stroke="#666666" points="587,-38 398,-38 398,0 587,0 587,-38"/>
<text text-anchor="start" x="406" y="-22.8" font-family="Arial" font-size="14.00">examples/esp32/main</text>
<text text-anchor="middle" x="492.5" y="-7.8" font-family="Arial" font-size="14.00">/AdcComprehensiveTest.cpp</text>
</a>
</g>
</g>
<!-- Node4&#45;&gt;Node5 -->
<g id="edge4_Node000004_Node000005" class="edge">
<title>Node4&#45;&gt;Node5</title>
<g id="a_edge4_Node000004_Node000005"><a xlink:title=" ">
<path fill="none" stroke="#63b8ff" d="M656.03,-78C623.91,-66.61 578.33,-50.44 543.45,-38.07"/>
<polygon fill="#63b8ff" stroke="#63b8ff" points="654.95,-81.33 665.55,-81.38 657.29,-74.73 654.95,-81.33"/>
</a>
</g>
</g>
<!-- Node6 -->
<g id="Node000006" class="node">
<title>Node6</title>
<g id="a_Node000006"><a xlink:href="EspAdc_8cpp.html" target="_top" xlink:title="ESP32 ADC implementation for the HardFOC system.">
<polygon fill="white" stroke="#666666" points="786,-30.5 605,-30.5 605,-7.5 786,-7.5 786,-30.5"/>
<text text-anchor="middle" x="695.5" y="-15.3" font-family="Arial" font-size="14.00">src/mcu/esp32/EspAdc.cpp</text>
</a>
</g>
</g>
<!-- Node4&#45;&gt;Node6 -->
<g id="edge5_Node000004_Node000006" class="edge">
<title>Node4&#45;&gt;Node6</title>
<g id="a_edge5_Node000004_Node000006"><a xlink:title=" ">
<path fill="none" stroke="#63b8ff" d="M695.5,-71.23C695.5,-57.97 695.5,-41.32 695.5,-30.67"/>
<polygon fill="#63b8ff" stroke="#63b8ff" points="692,-71.38 695.5,-81.38 699,-71.38 692,-71.38"/>
</a>
</g>
</g>
<!-- Node8 -->
<g id="Node000008" class="node">
<title>Node8</title>
<g id="a_Node000008"><a xlink:href="I2cComprehensiveTest_8cpp.html" target="_top" xlink:title="Comprehensive I2C testing suite for ESP32&#45;C6 DevKit&#45;M&#45;1 (noexcept)">
<polygon fill="white" stroke="#666666" points="988.5,-38 804.5,-38 804.5,0 988.5,0 988.5,-38"/>
<text text-anchor="start" x="812.5" y="-22.8" font-family="Arial" font-size="14.00">examples/esp32/main</text>
<text text-anchor="middle" x="896.5" y="-7.8" font-family="Arial" font-size="14.00">/I2cComprehensiveTest.cpp</text>
</a>
</g>
</g>
<!-- Node7&#45;&gt;Node8 -->
<g id="edge7_Node000007_Node000008" class="edge">
<title>Node7&#45;&gt;Node8</title>
<g id="a_edge7_Node000007_Node000008"><a xlink:title=" ">
<path fill="none" stroke="#63b8ff" d="M972.52,-75.29C957.26,-64.19 937.22,-49.61 921.54,-38.21"/>
<polygon fill="#63b8ff" stroke="#63b8ff" points="970.75,-78.32 980.89,-81.38 974.86,-72.66 970.75,-78.32"/>
</a>
</g>
</g>
<!-- Node9 -->
<g id="Node000009" class="node">
<title>Node9</title>
<g id="a_Node000009"><a xlink:href="EspI2c_8cpp.html" target="_top" xlink:title="Implementation of ESP32&#45;integrated I2C controller with proper bus&#45;device architecture.">
<polygon fill="white" stroke="#666666" points="1182.5,-30.5 1006.5,-30.5 1006.5,-7.5 1182.5,-7.5 1182.5,-30.5"/>
<text text-anchor="middle" x="1094.5" y="-15.3" font-family="Arial" font-size="14.00">src/mcu/esp32/EspI2c.cpp</text>
</a>
</g>
</g>
<!-- Node7&#45;&gt;Node9 -->
<g id="edge8_Node000007_Node000009" class="edge">
<title>Node7&#45;&gt;Node9</title>
<g id="a_edge8_Node000007_Node000009"><a xlink:title=" ">
<path fill="none" stroke="#63b8ff" d="M1018.22,-75.48C1037.16,-61.7 1063.58,-42.49 1079.83,-30.67"/>
<polygon fill="#63b8ff" stroke="#63b8ff" points="1016.14,-72.66 1010.11,-81.38 1020.25,-78.32 1016.14,-72.66"/>
</a>
</g>
</g>
<!-- Node11 -->
<g id="Node000011" class="node">
<title>Node11</title>
<g id="a_Node000011"><a xlink:href="TimerComprehensiveTest_8cpp.html" target="_top" xlink:title="ESP32&#45;C6 Periodic Timer Comprehensive Test Suite v2.0.">
<polygon fill="white" stroke="#666666" points="1402,-38 1201,-38 1201,0 1402,0 1402,-38"/>
<text text-anchor="start" x="1209" y="-22.8" font-family="Arial" font-size="14.00">examples/esp32/main</text>
<text text-anchor="middle" x="1301.5" y="-7.8" font-family="Arial" font-size="14.00">/TimerComprehensiveTest.cpp</text>
</a>
</g>
</g>
<!-- Node10&#45;&gt;Node11 -->
<g id="edge10_Node000010_Node000011" class="edge">
<title>Node10&#45;&gt;Node11</title>
<g id="a_edge10_Node000010_Node000011"><a xlink:title=" ">
<path fill="none" stroke="#63b8ff" d="M1301.5,-63.57C1301.5,-55.11 1301.5,-46.06 1301.5,-38.41"/>
<polygon fill="#63b8ff" stroke="#63b8ff" points="1298,-63.83 1301.5,-73.83 1305,-63.83 1298,-63.83"/>
</a>
</g>
</g>
<!-- Node12 -->
<g id="Node000012" class="node">
<title>Node12</title>
<g id="a_Node000012"><a xlink:href="EspPeriodicTimer_8cpp.html" target="_top" xlink:title="Implementation of MCU&#45;integrated periodic timer.">
<polygon fill="white" stroke="#666666" points="1601,-38 1420,-38 1420,0 1601,0 1601,-38"/>
<text text-anchor="start" x="1428" y="-22.8" font-family="Arial" font-size="14.00">src/mcu/esp32/EspPeriodic</text>
<text text-anchor="middle" x="1510.5" y="-7.8" font-family="Arial" font-size="14.00">Timer.cpp</text>
</a>
</g>
</g>
<!-- Node10&#45;&gt;Node12 -->
<g id="edge11_Node000010_Node000012" class="edge">
<title>Node10&#45;&gt;Node12</title>
<g id="a_edge11_Node000010_Node000012"><a xlink:title=" ">
<path fill="none" stroke="#63b8ff" d="M1363.52,-70.64C1393.59,-60.28 1429.31,-47.97 1458.01,-38.08"/>
<polygon fill="#63b8ff" stroke="#63b8ff" points="1362.28,-67.36 1353.97,-73.92 1364.56,-73.98 1362.28,-67.36"/>
</a>
</g>
</g>
<!-- Node14 -->
<g id="Node000014" class="node">
<title>Node14</title>
<g id="a_Node000014"><a xlink:href="PioComprehensiveTest_8cpp.html" target="_top" xlink:title="Comprehensive PIO testing suite for ESP32&#45;C6 DevKit&#45;M&#45;1 with RMT peripheral (noexcept)">
<polygon fill="white" stroke="#666666" points="1804,-38 1619,-38 1619,0 1804,0 1804,-38"/>
<text text-anchor="start" x="1627" y="-22.8" font-family="Arial" font-size="14.00">examples/esp32/main</text>
<text text-anchor="middle" x="1711.5" y="-7.8" font-family="Arial" font-size="14.00">/PioComprehensiveTest.cpp</text>
</a>
</g>
</g>
<!-- Node13&#45;&gt;Node14 -->
<g id="edge13_Node000013_Node000014" class="edge">
<title>Node13&#45;&gt;Node14</title>
<g id="a_edge13_Node000013_Node000014"><a xlink:title=" ">
<path fill="none" stroke="#63b8ff" d="M1711.5,-71.1C1711.5,-60.69 1711.5,-48.23 1711.5,-38.21"/>
<polygon fill="#63b8ff" stroke="#63b8ff" points="1708,-71.38 1711.5,-81.38 1715,-71.38 1708,-71.38"/>
</a>
</g>
</g>
<!-- Node15 -->
<g id="Node000015" class="node">
<title>Node15</title>
<g id="a_Node000015"><a xlink:href="EspPio_8cpp.html" target="_top" xlink:title="ESP32C6 RMT&#45;based Programmable IO Channel implementation.">
<polygon fill="white" stroke="#666666" points="1999,-30.5 1822,-30.5 1822,-7.5 1999,-7.5 1999,-30.5"/>
<text text-anchor="middle" x="1910.5" y="-15.3" font-family="Arial" font-size="14.00">src/mcu/esp32/EspPio.cpp</text>
</a>
</g>
</g>
<!-- Node13&#45;&gt;Node15 -->
<g id="edge14_Node000013_Node000015" class="edge">
<title>Node13&#45;&gt;Node15</title>
<g id="a_edge14_Node000013_Node000015"><a xlink:title=" ">
<path fill="none" stroke="#63b8ff" d="M1750.67,-77.83C1789.09,-63.93 1846.79,-43.05 1881.34,-30.55"/>
<polygon fill="#63b8ff" stroke="#63b8ff" points="1749.08,-74.68 1740.86,-81.38 1751.46,-81.27 1749.08,-74.68"/>
</a>
</g>
</g>
<!-- Node16&#45;&gt;Node2 -->
<g id="edge16_Node000016_Node000002" class="edge">
<title>Node16&#45;&gt;Node2</title>
<g id="a_edge16_Node000016_Node000002"><a xlink:title=" ">
<path fill="none" stroke="#63b8ff" d="M252.4,-77.85C220.93,-66.47 176.49,-50.39 142.45,-38.07"/>
<polygon fill="#63b8ff" stroke="#63b8ff" points="251.54,-81.27 262.14,-81.38 253.92,-74.68 251.54,-81.27"/>
</a>
</g>
</g>
<!-- Node17 -->
<g id="Node000017" class="node">
<title>Node17</title>
<g id="a_Node000017"><a xlink:href="EspSpi_8cpp.html" target="_top" xlink:title="Implementation of MCU&#45;integrated SPI controller for ESP32C6 with ESP&#45;IDF v5.5+ features.">
<polygon fill="white" stroke="#666666" points="380,-30.5 203,-30.5 203,-7.5 380,-7.5 380,-30.5"/>
<text text-anchor="middle" x="291.5" y="-15.3" font-family="Arial" font-size="14.00">src/mcu/esp32/EspSpi.cpp</text>
</a>
</g>
</g>
<!-- Node16&#45;&gt;Node17 -->
<g id="edge17_Node000016_Node000017" class="edge">
<title>Node16&#45;&gt;Node17</title>
<g id="a_edge17_Node000016_Node000017"><a xlink:title=" ">
<path fill="none" stroke="#63b8ff" d="M291.5,-71.23C291.5,-57.97 291.5,-41.32 291.5,-30.67"/>
<polygon fill="#63b8ff" stroke="#63b8ff" points="288,-71.38 291.5,-81.38 295,-71.38 288,-71.38"/>
</a>
</g>
</g>
<!-- Node19 -->
<g id="Node000019" class="node">
<title>Node19</title>
<g id="a_Node000019"><a xlink:href="UartComprehensiveTest_8cpp.html" target="_top" xlink:title="Comprehensive UART testing suite for ESP32&#45;C6 DevKit&#45;M&#45;1 (noexcept)">
<polygon fill="white" stroke="#666666" points="2208,-38 2017,-38 2017,0 2208,0 2208,-38"/>
<text text-anchor="start" x="2025" y="-22.8" font-family="Arial" font-size="14.00">examples/esp32/main</text>
<text text-anchor="middle" x="2112.5" y="-7.8" font-family="Arial" font-size="14.00">/UartComprehensiveTest.cpp</text>
</a>
</g>
</g>
<!-- Node18&#45;&gt;Node19 -->
<g id="edge19_Node000018_Node000019" class="edge">
<title>Node18&#45;&gt;Node19</title>
<g id="a_edge19_Node000018_Node000019"><a xlink:title=" ">
<path fill="none" stroke="#63b8ff" d="M2112.5,-71.1C2112.5,-60.69 2112.5,-48.23 2112.5,-38.21"/>
<polygon fill="#63b8ff" stroke="#63b8ff" points="2109,-71.38 2112.5,-81.38 2116,-71.38 2109,-71.38"/>
</a>
</g>
</g>
<!-- Node20 -->
<g id="Node000020" class="node">
<title>Node20</title>
<g id="a_Node000020"><a xlink:href="EspUart_8cpp.html" target="_top" xlink:title="Implementation of ESP32 UART controller for the HardFOC system.">
<polygon fill="white" stroke="#666666" points="2409,-30.5 2226,-30.5 2226,-7.5 2409,-7.5 2409,-30.5"/>
<text text-anchor="middle" x="2317.5" y="-15.3" font-family="Arial" font-size="14.00">src/mcu/esp32/EspUart.cpp</text>
</a>
</g>
</g>
<!-- Node18&#45;&gt;Node20 -->
<g id="edge20_Node000018_Node000020" class="edge">
<title>Node18&#45;&gt;Node20</title>
<g id="a_edge20_Node000018_Node000020"><a xlink:title=" ">
<path fill="none" stroke="#63b8ff" d="M2152.35,-78C2191.93,-64.1 2251.72,-43.1 2287.46,-30.55"/>
<polygon fill="#63b8ff" stroke="#63b8ff" points="2151.02,-74.76 2142.75,-81.38 2153.34,-81.36 2151.02,-74.76"/>
</a>
</g>
</g>
</g>
</svg>
