<?xml version="1.0" encoding="UTF-8" standalone="no"?>
<!DOCTYPE svg PUBLIC "-//W3C//DTD SVG 1.1//EN"
 "http://www.w3.org/Graphics/SVG/1.1/DTD/svg11.dtd">
<!-- Generated by graphviz version 2.43.0 (0)
 -->
<!-- Title: EspAdc::MonitorContext Pages: 1 -->
<!--zoomable 257 -->

<svg id="main" version="1.1" xmlns="http://www.w3.org/2000/svg" xmlns:xlink="http://www.w3.org/1999/xlink" xml:space="preserve" onload="init(evt)">
<style type="text/css"><![CDATA[
.node, .edge {opacity: 0.7;}
.node.selected, .edge.selected {opacity: 1;}
.edge:hover path { stroke: red; }
.edge:hover polygon { stroke: red; fill: red; }
]]></style>

<defs>
  <circle id="rim" cx="0" cy="0" r="7"/>
  <circle id="rim2" cx="0" cy="0" r="3.5"/>
  <g id="zoomPlus">
    <use xlink:href="#rim" fill="#404040"><set attributeName="fill" to="#808080" begin="zoomplus.mouseover" end="zoomplus.mouseout"/></use>
    <path d="M-4,0h8M0,-4v8" fill="none" stroke="white" stroke-width="1.5" pointer-events="none"/>
  </g>
  <g id="zoomMin">
    <use xlink:href="#rim" fill="#404040"><set attributeName="fill" to="#808080" begin="zoomminus.mouseover" end="zoomminus.mouseout"/></use>
    <path d="M-4,0h8" fill="none" stroke="white" stroke-width="1.5" pointer-events="none"/>
  </g>
  <g id="arrowUp" transform="translate(30 24)">
    <use xlink:href="#rim"/>
    <path pointer-events="none" fill="none" stroke="white" stroke-width="1.5" d="M0,-3.0v7 M-2.5,-0.5L0,-3.0L2.5,-0.5"/>
  </g>
  <g id="arrowRight" transform="rotate(90) translate(36 -43)">
    <use xlink:href="#rim"/>
    <path pointer-events="none" fill="none" stroke="white" stroke-width="1.5" d="M0,-3.0v7 M-2.5,-0.5L0,-3.0L2.5,-0.5"/>
  </g>
  <g id="arrowDown" transform="rotate(180) translate(-30 -48)">
    <use xlink:href="#rim"/>
    <path pointer-events="none" fill="none" stroke="white" stroke-width="1.5" d="M0,-3.0v7 M-2.5,-0.5L0,-3.0L2.5,-0.5"/>
  </g>
  <g id="arrowLeft" transform="rotate(270) translate(-36 17)">
    <use xlink:href="#rim"/>
    <path pointer-events="none" fill="none" stroke="white" stroke-width="1.5" d="M0,-3.0v7 M-2.5,-0.5L0,-3.0L2.5,-0.5"/>
  </g>
  <g id="resetDef">
    <use xlink:href="#rim2" fill="#404040"><set attributeName="fill" to="#808080" begin="reset.mouseover" end="reset.mouseout"/></use>
  </g>
</defs>
<script type="application/ecmascript">
var viewWidth = 1131;
var viewHeight = 257;
var sectionId = 'dynsection-0';
</script>
<script type="application/ecmascript" xlink:href="svg.min.js"/>
<svg id="graph" class="graph">
<g id="viewport">
<title>EspAdc::MonitorContext</title>
<!-- Node1 -->
<g id="Node000001" class="node">
<title>Node1</title>
<g id="a_Node000001"><a xlink:title=" ">
<polygon fill="#999999" stroke="#666666" points="1123,-159 960,-159 960,-136 1123,-136 1123,-159"/>
<text text-anchor="middle" x="1041.5" y="-143.8" font-family="Arial" font-size="14.00">EspAdc::MonitorContext</text>
</a>
</g>
</g>
<!-- Node2 -->
<g id="Node000002" class="node">
<title>Node2</title>
<g id="a_Node000002"><a xlink:href="structhf__adc__monitor__event__t.html" target="_top" xlink:title="ADC monitor event structure.">
<polygon fill="white" stroke="#666666" points="840,-179 678,-179 678,-156 840,-156 840,-179"/>
<text text-anchor="middle" x="759" y="-163.8" font-family="Arial" font-size="14.00">hf_adc_monitor_event_t</text>
</a>
</g>
</g>
<!-- Node2&#45;&gt;Node1 -->
<g id="edge1_Node000001_Node000002" class="edge">
<title>Node2&#45;&gt;Node1</title>
<g id="a_edge1_Node000001_Node000002"><a xlink:title=" ">
<path fill="none" stroke="#9a32cd" stroke-dasharray="5,2" d="M850.29,-161.06C885.55,-158.55 925.64,-155.69 959.9,-153.25"/>
<polygon fill="#9a32cd" stroke="#9a32cd" points="849.73,-157.59 840,-161.8 850.23,-164.58 849.73,-157.59"/>
</a>
</g>
<text text-anchor="middle" x="900" y="-163.3" font-family="Arial" font-size="14.00" fill="grey"> callback</text>
</g>
<!-- Node3 -->
<g id="Node000003" class="node">
<title>Node3</title>
<g id="a_Node000003"><a xlink:href="classEspAdc.html" target="_top" xlink:title="ESP32 ADC implementation class.">
<polygon fill="white" stroke="#666666" points="790.5,-138 727.5,-138 727.5,-115 790.5,-115 790.5,-138"/>
<text text-anchor="middle" x="759" y="-122.8" font-family="Arial" font-size="14.00">EspAdc</text>
</a>
</g>
</g>
<!-- Node3&#45;&gt;Node1 -->
<g id="edge2_Node000001_Node000003" class="edge">
<title>Node3&#45;&gt;Node1</title>
<g id="a_edge2_Node000001_Node000003"><a xlink:title=" ">
<path fill="none" stroke="#9a32cd" stroke-dasharray="5,2" d="M801,-127.69C837.92,-128.95 893.66,-131.37 942,-135.5 947.84,-136 953.86,-136.58 959.92,-137.2"/>
<polygon fill="#9a32cd" stroke="#9a32cd" points="800.75,-124.18 790.64,-127.34 800.52,-131.17 800.75,-124.18"/>
</a>
</g>
<text text-anchor="middle" x="900" y="-139.3" font-family="Arial" font-size="14.00" fill="grey"> adc_instance</text>
</g>
<!-- Node4 -->
<g id="Node000004" class="node">
<title>Node4</title>
<g id="a_Node000004"><a xlink:href="classBaseAdc.html" target="_top" xlink:title="Base class for ADCs.">
<polygon fill="white" stroke="#666666" points="457,-198 386,-198 386,-175 457,-175 457,-198"/>
<text text-anchor="middle" x="421.5" y="-182.8" font-family="Arial" font-size="14.00">BaseAdc</text>
</a>
</g>
</g>
<!-- Node4&#45;&gt;Node3 -->
<g id="edge3_Node000003_Node000004" class="edge">
<title>Node4&#45;&gt;Node3</title>
<g id="a_edge3_Node000003_Node000004"><a xlink:title=" ">
<path fill="none" stroke="#63b8ff" d="M467.48,-184.49C515.82,-181.44 594.55,-173.9 660,-155.5 668.43,-153.13 669.74,-150.4 678,-147.5 693.99,-141.89 712.23,-136.99 727.26,-133.34"/>
<polygon fill="#63b8ff" stroke="#63b8ff" points="467.12,-181 457.34,-185.09 467.53,-187.99 467.12,-181"/>
</a>
</g>
</g>
<!-- Node5 -->
<g id="Node000005" class="node">
<title>Node5</title>
<g id="a_Node000005"><a xlink:href="structhf__adc__statistics__t.html" target="_top" xlink:title="ADC operation statistics.">
<polygon fill="white" stroke="#666666" points="156.5,-229 28.5,-229 28.5,-206 156.5,-206 156.5,-229"/>
<text text-anchor="middle" x="92.5" y="-213.8" font-family="Arial" font-size="14.00">hf_adc_statistics_t</text>
</a>
</g>
</g>
<!-- Node5&#45;&gt;Node3 -->
<g id="edge12_Node000003_Node000005" class="edge">
<title>Node5&#45;&gt;Node3</title>
<g id="a_edge12_Node000003_Node000005"><a xlink:title=" ">
<path fill="none" stroke="#9a32cd" stroke-dasharray="5,2" d="M166.66,-223.59C178.79,-224.38 191.24,-225.07 203,-225.5 253.19,-227.33 265.83,-227.83 316,-225.5 470.02,-218.33 534.88,-270.62 660,-180.5 673.56,-170.74 664.84,-157.8 678,-147.5 692.02,-136.53 711.23,-131.26 727.31,-128.74"/>
<polygon fill="#9a32cd" stroke="#9a32cd" points="166.79,-220.09 156.57,-222.9 166.31,-227.07 166.79,-220.09"/>
</a>
</g>
<text text-anchor="middle" x="421.5" y="-237.3" font-family="Arial" font-size="14.00" fill="grey"> statistics_</text>
</g>
<!-- Node5&#45;&gt;Node4 -->
<g id="edge4_Node000004_Node000005" class="edge">
<title>Node5&#45;&gt;Node4</title>
<g id="a_edge4_Node000004_Node000005"><a xlink:title=" ">
<path fill="none" stroke="#9a32cd" stroke-dasharray="5,2" d="M166.82,-210.55C235.12,-204.07 333.98,-194.7 385.81,-189.79"/>
<polygon fill="#9a32cd" stroke="#9a32cd" points="166.17,-207.09 156.55,-211.52 166.83,-214.06 166.17,-207.09"/>
</a>
</g>
<text text-anchor="middle" x="259.5" y="-210.3" font-family="Arial" font-size="14.00" fill="grey"> statistics_</text>
</g>
<!-- Node6 -->
<g id="Node000006" class="node">
<title>Node6</title>
<g id="a_Node000006"><a xlink:href="structhf__adc__diagnostics__t.html" target="_top" xlink:title="ADC diagnostic information.">
<polygon fill="white" stroke="#666666" points="164,-180 21,-180 21,-157 164,-157 164,-180"/>
<text text-anchor="middle" x="92.5" y="-164.8" font-family="Arial" font-size="14.00">hf_adc_diagnostics_t</text>
</a>
</g>
</g>
<!-- Node6&#45;&gt;Node3 -->
<g id="edge13_Node000003_Node000006" class="edge">
<title>Node6&#45;&gt;Node3</title>
<g id="a_edge13_Node000003_Node000006"><a xlink:title=" ">
<path fill="none" stroke="#9a32cd" stroke-dasharray="5,2" d="M174.31,-162.55C220.97,-159.18 280.78,-154.95 334,-151.5 481.35,-141.95 657.62,-132.04 727.4,-128.18"/>
<polygon fill="#9a32cd" stroke="#9a32cd" points="173.98,-159.07 164.26,-163.28 174.48,-166.05 173.98,-159.07"/>
</a>
</g>
<text text-anchor="middle" x="421.5" y="-155.3" font-family="Arial" font-size="14.00" fill="grey"> diagnostics_</text>
</g>
<!-- Node6&#45;&gt;Node4 -->
<g id="edge5_Node000004_Node000006" class="edge">
<title>Node6&#45;&gt;Node4</title>
<g id="a_edge5_Node000004_Node000006"><a xlink:title=" ">
<path fill="none" stroke="#9a32cd" stroke-dasharray="5,2" d="M174.44,-169.62C216.67,-170.56 269.16,-172.3 316,-175.5 339.3,-177.09 365.42,-179.84 385.72,-182.19"/>
<polygon fill="#9a32cd" stroke="#9a32cd" points="174.28,-166.11 164.21,-169.4 174.13,-173.11 174.28,-166.11"/>
</a>
</g>
<text text-anchor="middle" x="259.5" y="-179.3" font-family="Arial" font-size="14.00" fill="grey"> diagnostics_</text>
</g>
<!-- Node7 -->
<g id="Node000007" class="node">
<title>Node7</title>
<g id="a_Node000007"><a xlink:href="structhf__adc__unit__config__t.html" target="_top" xlink:title="ADC unit configuration structure.">
<polygon fill="white" stroke="#666666" points="492,-105 351,-105 351,-82 492,-82 492,-105"/>
<text text-anchor="middle" x="421.5" y="-89.8" font-family="Arial" font-size="14.00">hf_adc_unit_config_t</text>
</a>
</g>
</g>
<!-- Node7&#45;&gt;Node3 -->
<g id="edge6_Node000003_Node000007" class="edge">
<title>Node7&#45;&gt;Node3</title>
<g id="a_edge6_Node000003_Node000007"><a xlink:title=" ">
<path fill="none" stroke="#9a32cd" stroke-dasharray="5,2" d="M502.47,-98.66C548.59,-101.94 607.64,-106.67 660,-112.5 682.55,-115.01 707.9,-118.65 727.17,-121.59"/>
<polygon fill="#9a32cd" stroke="#9a32cd" points="502.46,-95.15 492.24,-97.94 501.97,-102.13 502.46,-95.15"/>
</a>
</g>
<text text-anchor="middle" x="593.5" y="-116.3" font-family="Arial" font-size="14.00" fill="grey"> config_</text>
</g>
<!-- Node8 -->
<g id="Node000008" class="node">
<title>Node8</title>
<g id="a_Node000008"><a xlink:href="structhf__adc__channel__config__t.html" target="_top" xlink:title="ADC channel configuration structure.">
<polygon fill="white" stroke="#666666" points="176,-125 9,-125 9,-102 176,-102 176,-125"/>
<text text-anchor="middle" x="92.5" y="-109.8" font-family="Arial" font-size="14.00">hf_adc_channel_config_t</text>
</a>
</g>
</g>
<!-- Node8&#45;&gt;Node7 -->
<g id="edge7_Node000007_Node000008" class="edge">
<title>Node8&#45;&gt;Node7</title>
<g id="a_edge7_Node000007_Node000008"><a xlink:title=" ">
<path fill="none" stroke="#9a32cd" stroke-dasharray="5,2" d="M186.3,-107.82C238.57,-104.63 302.78,-100.7 350.74,-97.77"/>
<polygon fill="#9a32cd" stroke="#9a32cd" points="185.78,-104.35 176.02,-108.45 186.21,-111.34 185.78,-104.35"/>
</a>
</g>
<text text-anchor="middle" x="259.5" y="-109.3" font-family="Arial" font-size="14.00" fill="grey"> channel_configs</text>
</g>
<!-- Node9 -->
<g id="Node000009" class="node">
<title>Node9</title>
<g id="a_Node000009"><a xlink:href="structhf__adc__continuous__config__t.html" target="_top" xlink:title="ADC continuous mode configuration structure.">
<polygon fill="white" stroke="#666666" points="185,-84 0,-84 0,-61 185,-61 185,-84"/>
<text text-anchor="middle" x="92.5" y="-68.8" font-family="Arial" font-size="14.00">hf_adc_continuous_config_t</text>
</a>
</g>
</g>
<!-- Node9&#45;&gt;Node7 -->
<g id="edge8_Node000007_Node000009" class="edge">
<title>Node9&#45;&gt;Node7</title>
<g id="a_edge8_Node000007_Node000009"><a xlink:title=" ">
<path fill="none" stroke="#9a32cd" stroke-dasharray="5,2" d="M195.12,-74.28C233.09,-75.43 276.56,-77.34 316,-80.5 327.3,-81.4 339.25,-82.63 350.89,-83.98"/>
<polygon fill="#9a32cd" stroke="#9a32cd" points="195.18,-70.78 185.08,-73.98 194.97,-77.77 195.18,-70.78"/>
</a>
</g>
<text text-anchor="middle" x="259.5" y="-84.3" font-family="Arial" font-size="14.00" fill="grey"> continuous_config</text>
</g>
<!-- Node10 -->
<g id="Node000010" class="node">
<title>Node10</title>
<g id="a_Node000010"><a xlink:href="structhf__adc__calibration__config__t.html" target="_top" xlink:title="ADC calibration configuration structure.">
<polygon fill="white" stroke="#666666" points="155.5,-42.5 29.5,-42.5 29.5,-4.5 155.5,-4.5 155.5,-42.5"/>
<text text-anchor="start" x="37.5" y="-27.3" font-family="Arial" font-size="14.00">hf_adc_calibration</text>
<text text-anchor="middle" x="92.5" y="-12.3" font-family="Arial" font-size="14.00">_config_t</text>
</a>
</g>
</g>
<!-- Node10&#45;&gt;Node7 -->
<g id="edge9_Node000007_Node000010" class="edge">
<title>Node10&#45;&gt;Node7</title>
<g id="a_edge9_Node000007_Node000010"><a xlink:title=" ">
<path fill="none" stroke="#9a32cd" stroke-dasharray="5,2" d="M165.67,-22.45C210.98,-24.49 269.44,-32.19 316,-55.5 326.12,-60.56 324.11,-68.01 334,-73.5 340.07,-76.86 346.67,-79.66 353.44,-81.99"/>
<polygon fill="#9a32cd" stroke="#9a32cd" points="165.75,-18.95 155.63,-22.08 165.49,-25.95 165.75,-18.95"/>
</a>
</g>
<text text-anchor="middle" x="259.5" y="-59.3" font-family="Arial" font-size="14.00" fill="grey"> calibration_config</text>
</g>
<!-- Node11 -->
<g id="Node000011" class="node">
<title>Node11</title>
<g id="a_Node000011"><a xlink:href="classRtosMutex.html" target="_top" xlink:title=" ">
<polygon fill="white" stroke="#666666" points="462.5,-64 380.5,-64 380.5,-41 462.5,-41 462.5,-64"/>
<text text-anchor="middle" x="421.5" y="-48.8" font-family="Arial" font-size="14.00">RtosMutex</text>
</a>
</g>
</g>
<!-- Node11&#45;&gt;Node3 -->
<g id="edge10_Node000003_Node000011" class="edge">
<title>Node11&#45;&gt;Node3</title>
<g id="a_edge10_Node000003_Node000011"><a xlink:title=" ">
<path fill="none" stroke="#9a32cd" stroke-dasharray="5,2" d="M472.67,-48.5C521.62,-46.2 597.64,-46.93 660,-66.5 692.93,-76.84 726.11,-100.6 744.16,-114.93"/>
<polygon fill="#9a32cd" stroke="#9a32cd" points="472.44,-45.01 462.64,-49.03 472.81,-52 472.44,-45.01"/>
</a>
</g>
<text text-anchor="middle" x="593.5" y="-85.3" font-family="Arial" font-size="14.00" fill="grey"> config_mutex_</text>
<text text-anchor="middle" x="593.5" y="-70.3" font-family="Arial" font-size="14.00" fill="grey">stats_mutex_</text>
</g>
<!-- Node12 -->
<g id="Node000012" class="node">
<title>Node12</title>
<g id="a_Node000012"><a xlink:href="structhf__adc__continuous__data__t.html" target="_top" xlink:title="ADC continuous data structure.">
<polygon fill="white" stroke="#666666" points="509,-23 334,-23 334,0 509,0 509,-23"/>
<text text-anchor="middle" x="421.5" y="-7.8" font-family="Arial" font-size="14.00">hf_adc_continuous_data_t</text>
</a>
</g>
</g>
<!-- Node12&#45;&gt;Node3 -->
<g id="edge11_Node000003_Node000012" class="edge">
<title>Node12&#45;&gt;Node3</title>
<g id="a_edge11_Node000003_Node000012"><a xlink:title=" ">
<path fill="none" stroke="#9a32cd" stroke-dasharray="5,2" d="M519.32,-3.9C563.96,-4.08 616.55,-9.68 660,-29.5 701.82,-48.58 736.03,-93.6 750.53,-114.92"/>
<polygon fill="#9a32cd" stroke="#9a32cd" points="519.02,-0.4 509.04,-3.96 519.06,-7.4 519.02,-0.4"/>
</a>
</g>
<text text-anchor="middle" x="593.5" y="-33.3" font-family="Arial" font-size="14.00" fill="grey"> continuous_callback_</text>
</g>
</g>
</svg>

<g id="navigator" transform="translate(0 0)" fill="#404254">
  <rect fill="#f2f5e9" fill-opacity="0.5" stroke="#606060" stroke-width=".5" x="0" y="0" width="60" height="60"/>
  <use id="zoomplus" xlink:href="#zoomPlus" x="17" y="9" onmousedown="handleZoom(evt,'in')"/>
  <use id="zoomminus" xlink:href="#zoomMin" x="42" y="9" onmousedown="handleZoom(evt,'out')"/>
  <use id="reset" xlink:href="#resetDef" x="30" y="36" onmousedown="handleReset()"/>
   <use id="arrowup" xlink:href="#arrowUp" x="0" y="0" onmousedown="handlePan(0,-1)"/>
  <use id="arrowright" xlink:href="#arrowRight" x="0" y="0" onmousedown="handlePan(1,0)"/>
  <use id="arrowdown" xlink:href="#arrowDown" x="0" y="0" onmousedown="handlePan(0,1)"/>
  <use id="arrowleft" xlink:href="#arrowLeft" x="0" y="0" onmousedown="handlePan(-1,0)"/>
</g>
<svg viewBox="0 0 15 15" width="100%" height="30px" preserveAspectRatio="xMaxYMin meet">
 <g id="arrow_out" transform="scale(0.3 0.3)">
  <a xlink:href="structEspAdc_1_1MonitorContext__coll__graph_org.svg" target="_base">
   <rect id="button" ry="5" rx="5" y="6" x="6" height="38" width="38"
        fill="#f2f5e9" fill-opacity="0.5" stroke="#606060" stroke-width="1.0"/>
   <path id="arrow"
     d="M 11.500037,31.436501 C 11.940474,20.09759 22.043105,11.32322 32.158766,21.979434 L 37.068811,17.246167 C 37.068811,17.246167 37.088388,32 37.088388,32 L 22.160133,31.978069 C 22.160133,31.978069 26.997745,27.140456 26.997745,27.140456 C 18.528582,18.264221 13.291696,25.230495 11.500037,31.436501 z"
     style="fill:#404040;"/>
  </a>
 </g>
</svg>

<style type='text/css'>
<![CDATA[
[data-mouse-over-selected='false'] { opacity: 0.7; }
[data-mouse-over-selected='true']  { opacity: 1.0; }
]]>
</style>
<script type="application/ecmascript"><![CDATA[
document.addEventListener('DOMContentLoaded', (event) => {
  highlightEdges();
  highlightAdjacentNodes();
});
]]></script>
</svg>
