<?xml version="1.0" encoding="UTF-8" standalone="no"?>
<!DOCTYPE svg PUBLIC "-//W3C//DTD SVG 1.1//EN"
 "http://www.w3.org/Graphics/SVG/1.1/DTD/svg11.dtd">
<!-- Generated by graphviz version 2.43.0 (0)
 -->
<!-- Title: hf_adc_unit_config_t Pages: 1 -->
<svg width="532pt" height="120pt"
 viewBox="0.00 0.00 531.50 120.00" xmlns="http://www.w3.org/2000/svg" xmlns:xlink="http://www.w3.org/1999/xlink">
<g id="graph0" class="graph" transform="scale(1 1) rotate(0) translate(4 116)">
<title>hf_adc_unit_config_t</title>
<!-- Node1 -->
<g id="Node000001" class="node">
<title>Node1</title>
<g id="a_Node000001"><a xlink:title="ADC unit configuration structure.">
<polygon fill="#999999" stroke="#666666" points="348,-23 207,-23 207,0 348,0 348,-23"/>
<text text-anchor="middle" x="277.5" y="-7.8" font-family="Arial" font-size="14.00">hf_adc_unit_config_t</text>
</a>
</g>
</g>
<!-- Node2 -->
<g id="Node000002" class="node">
<title>Node2</title>
<g id="a_Node000002"><a xlink:href="structhf__adc__channel__config__t.html" target="_top" xlink:title="ADC channel configuration structure.">
<polygon fill="white" stroke="#666666" points="167,-104.5 0,-104.5 0,-81.5 167,-81.5 167,-104.5"/>
<text text-anchor="middle" x="83.5" y="-89.3" font-family="Arial" font-size="14.00">hf_adc_channel_config_t</text>
</a>
</g>
</g>
<!-- Node2&#45;&gt;Node1 -->
<g id="edge1_Node000001_Node000002" class="edge">
<title>Node2&#45;&gt;Node1</title>
<g id="a_edge1_Node000001_Node000002"><a xlink:title=" ">
<path fill="none" stroke="#9a32cd" stroke-dasharray="5,2" d="M107.56,-75.73C124.76,-64.69 148.8,-50.44 171.5,-41 189.27,-33.61 209.52,-27.62 227.53,-23.07"/>
<polygon fill="#9a32cd" stroke="#9a32cd" points="105.21,-73.09 98.75,-81.49 109.04,-78.95 105.21,-73.09"/>
</a>
</g>
<text text-anchor="middle" x="222.5" y="-44.8" font-family="Arial" font-size="14.00" fill="grey"> channel_configs</text>
</g>
<!-- Node3 -->
<g id="Node000003" class="node">
<title>Node3</title>
<g id="a_Node000003"><a xlink:href="structhf__adc__continuous__config__t.html" target="_top" xlink:title="ADC continuous mode configuration structure.">
<polygon fill="white" stroke="#666666" points="370,-104.5 185,-104.5 185,-81.5 370,-81.5 370,-104.5"/>
<text text-anchor="middle" x="277.5" y="-89.3" font-family="Arial" font-size="14.00">hf_adc_continuous_config_t</text>
</a>
</g>
</g>
<!-- Node3&#45;&gt;Node1 -->
<g id="edge2_Node000001_Node000003" class="edge">
<title>Node3&#45;&gt;Node1</title>
<g id="a_edge2_Node000001_Node000003"><a xlink:title=" ">
<path fill="none" stroke="#9a32cd" stroke-dasharray="5,2" d="M277.5,-71.09C277.5,-55.64 277.5,-35.25 277.5,-23.05"/>
<polygon fill="#9a32cd" stroke="#9a32cd" points="274,-71.28 277.5,-81.28 281,-71.28 274,-71.28"/>
</a>
</g>
<text text-anchor="middle" x="334" y="-44.8" font-family="Arial" font-size="14.00" fill="grey"> continuous_config</text>
</g>
<!-- Node4 -->
<g id="Node000004" class="node">
<title>Node4</title>
<g id="a_Node000004"><a xlink:href="structhf__adc__calibration__config__t.html" target="_top" xlink:title="ADC calibration configuration structure.">
<polygon fill="white" stroke="#666666" points="514.5,-112 388.5,-112 388.5,-74 514.5,-74 514.5,-112"/>
<text text-anchor="start" x="396.5" y="-96.8" font-family="Arial" font-size="14.00">hf_adc_calibration</text>
<text text-anchor="middle" x="451.5" y="-81.8" font-family="Arial" font-size="14.00">_config_t</text>
</a>
</g>
</g>
<!-- Node4&#45;&gt;Node1 -->
<g id="edge3_Node000001_Node000004" class="edge">
<title>Node4&#45;&gt;Node1</title>
<g id="a_edge3_Node000001_Node000004"><a xlink:title=" ">
<path fill="none" stroke="#9a32cd" stroke-dasharray="5,2" d="M428.48,-66.67C418.81,-57.38 406.92,-47.54 394.5,-41 379.33,-33.02 361.87,-27.22 345.15,-23.04"/>
<polygon fill="#9a32cd" stroke="#9a32cd" points="426.19,-69.33 435.73,-73.94 431.15,-64.39 426.19,-69.33"/>
</a>
</g>
<text text-anchor="middle" x="469" y="-44.8" font-family="Arial" font-size="14.00" fill="grey"> calibration_config</text>
</g>
</g>
</svg>
