<?xml version="1.0" encoding="UTF-8" standalone="no"?>
<!DOCTYPE svg PUBLIC "-//W3C//DTD SVG 1.1//EN"
 "http://www.w3.org/Graphics/SVG/1.1/DTD/svg11.dtd">
<!-- Generated by graphviz version 2.43.0 (0)
 -->
<!-- Title: inc/base/BaseCan.h Pages: 1 -->
<svg width="446pt" height="149pt"
 viewBox="0.00 0.00 446.00 149.00" xmlns="http://www.w3.org/2000/svg" xmlns:xlink="http://www.w3.org/1999/xlink">
<g id="graph0" class="graph" transform="scale(1 1) rotate(0) translate(4 145)">
<title>inc/base/BaseCan.h</title>
<!-- Node1 -->
<g id="Node000001" class="node">
<title>Node1</title>
<g id="a_Node000001"><a xlink:title="Abstract base class for CAN bus implementations in the HardFOC system.">
<polygon fill="#999999" stroke="#666666" points="283.5,-141 146.5,-141 146.5,-118 283.5,-118 283.5,-141"/>
<text text-anchor="middle" x="215" y="-125.8" font-family="Arial" font-size="14.00">inc/base/BaseCan.h</text>
</a>
</g>
</g>
<!-- Node2 -->
<g id="Node000002" class="node">
<title>Node2</title>
<g id="a_Node000002"><a xlink:href="HardwareTypes_8h.html" target="_top" xlink:title="Platform&#45;agnostic hardware type definitions for the HardFOC system.">
<polygon fill="white" stroke="#666666" points="168,-82 46,-82 46,-59 168,-59 168,-82"/>
<text text-anchor="middle" x="107" y="-66.8" font-family="Arial" font-size="14.00">HardwareTypes.h</text>
</a>
</g>
</g>
<!-- Node1&#45;&gt;Node2 -->
<g id="edge1_Node000001_Node000002" class="edge">
<title>Node1&#45;&gt;Node2</title>
<g id="a_edge1_Node000001_Node000002"><a xlink:title=" ">
<path fill="none" stroke="#63b8ff" d="M194.94,-117.91C178.34,-109.15 154.56,-96.6 135.91,-86.76"/>
<polygon fill="#63b8ff" stroke="#63b8ff" points="137.43,-83.6 126.95,-82.03 134.16,-89.79 137.43,-83.6"/>
</a>
</g>
</g>
<!-- Node3 -->
<g id="Node000003" class="node">
<title>Node3</title>
<g id="a_Node000003"><a xlink:title=" ">
<polygon fill="#e0e0e0" stroke="#999999" points="56,-23 0,-23 0,0 56,0 56,-23"/>
<text text-anchor="middle" x="28" y="-7.8" font-family="Arial" font-size="14.00">cstdint</text>
</a>
</g>
</g>
<!-- Node1&#45;&gt;Node3 -->
<g id="edge5_Node000001_Node000003" class="edge">
<title>Node1&#45;&gt;Node3</title>
<g id="a_edge5_Node000001_Node000003"><a xlink:title=" ">
<path fill="none" stroke="#63b8ff" d="M146.17,-118.6C102.52,-110.85 51.62,-98.6 37,-82 25.42,-68.85 24.02,-48.49 25.01,-33.21"/>
<polygon fill="#63b8ff" stroke="#63b8ff" points="28.51,-33.45 26.05,-23.14 21.54,-32.73 28.51,-33.45"/>
</a>
</g>
</g>
<!-- Node5 -->
<g id="Node000005" class="node">
<title>Node5</title>
<g id="a_Node000005"><a xlink:title=" ">
<polygon fill="#e0e0e0" stroke="#999999" points="243.5,-82 186.5,-82 186.5,-59 243.5,-59 243.5,-82"/>
<text text-anchor="middle" x="215" y="-66.8" font-family="Arial" font-size="14.00">atomic</text>
</a>
</g>
</g>
<!-- Node1&#45;&gt;Node5 -->
<g id="edge4_Node000001_Node000005" class="edge">
<title>Node1&#45;&gt;Node5</title>
<g id="a_edge4_Node000001_Node000005"><a xlink:title=" ">
<path fill="none" stroke="#63b8ff" d="M215,-117.78C215,-110.61 215,-100.95 215,-92.31"/>
<polygon fill="#63b8ff" stroke="#63b8ff" points="218.5,-92.17 215,-82.17 211.5,-92.17 218.5,-92.17"/>
</a>
</g>
</g>
<!-- Node6 -->
<g id="Node000006" class="node">
<title>Node6</title>
<g id="a_Node000006"><a xlink:title=" ">
<polygon fill="#e0e0e0" stroke="#999999" points="336,-82 262,-82 262,-59 336,-59 336,-82"/>
<text text-anchor="middle" x="299" y="-66.8" font-family="Arial" font-size="14.00">functional</text>
</a>
</g>
</g>
<!-- Node1&#45;&gt;Node6 -->
<g id="edge6_Node000001_Node000006" class="edge">
<title>Node1&#45;&gt;Node6</title>
<g id="a_edge6_Node000001_Node000006"><a xlink:title=" ">
<path fill="none" stroke="#63b8ff" d="M230.8,-117.78C243.24,-109.34 260.78,-97.44 274.95,-87.82"/>
<polygon fill="#63b8ff" stroke="#63b8ff" points="276.96,-90.68 283.27,-82.17 273.03,-84.89 276.96,-90.68"/>
</a>
</g>
</g>
<!-- Node7 -->
<g id="Node000007" class="node">
<title>Node7</title>
<g id="a_Node000007"><a xlink:title=" ">
<polygon fill="#e0e0e0" stroke="#999999" points="438,-82 354,-82 354,-59 438,-59 438,-82"/>
<text text-anchor="middle" x="396" y="-66.8" font-family="Arial" font-size="14.00">string_view</text>
</a>
</g>
</g>
<!-- Node1&#45;&gt;Node7 -->
<g id="edge7_Node000001_Node000007" class="edge">
<title>Node1&#45;&gt;Node7</title>
<g id="a_edge7_Node000001_Node000007"><a xlink:title=" ">
<path fill="none" stroke="#63b8ff" d="M248.62,-117.91C277.96,-108.67 320.7,-95.21 352.61,-85.16"/>
<polygon fill="#63b8ff" stroke="#63b8ff" points="354.07,-88.37 362.56,-82.03 351.97,-81.7 354.07,-88.37"/>
</a>
</g>
</g>
<!-- Node2&#45;&gt;Node3 -->
<g id="edge2_Node000002_Node000003" class="edge">
<title>Node2&#45;&gt;Node3</title>
<g id="a_edge2_Node000002_Node000003"><a xlink:title=" ">
<path fill="none" stroke="#63b8ff" d="M92.14,-58.78C80.55,-50.42 64.26,-38.66 50.99,-29.09"/>
<polygon fill="#63b8ff" stroke="#63b8ff" points="52.95,-26.19 42.79,-23.17 48.85,-31.86 52.95,-26.19"/>
</a>
</g>
</g>
<!-- Node4 -->
<g id="Node000004" class="node">
<title>Node4</title>
<g id="a_Node000004"><a xlink:title=" ">
<polygon fill="#e0e0e0" stroke="#999999" points="131,-23 83,-23 83,0 131,0 131,-23"/>
<text text-anchor="middle" x="107" y="-7.8" font-family="Arial" font-size="14.00">limits</text>
</a>
</g>
</g>
<!-- Node2&#45;&gt;Node4 -->
<g id="edge3_Node000002_Node000004" class="edge">
<title>Node2&#45;&gt;Node4</title>
<g id="a_edge3_Node000002_Node000004"><a xlink:title=" ">
<path fill="none" stroke="#63b8ff" d="M107,-58.78C107,-51.61 107,-41.95 107,-33.31"/>
<polygon fill="#63b8ff" stroke="#63b8ff" points="110.5,-33.17 107,-23.17 103.5,-33.17 110.5,-33.17"/>
</a>
</g>
</g>
</g>
</svg>
