<?xml version="1.0" encoding="UTF-8" standalone="no"?>
<!DOCTYPE svg PUBLIC "-//W3C//DTD SVG 1.1//EN"
 "http://www.w3.org/Graphics/SVG/1.1/DTD/svg11.dtd">
<!-- Generated by graphviz version 2.43.0 (0)
 -->
<!-- Title: inc/base/BaseBluetooth.h Pages: 1 -->
<svg width="583pt" height="149pt"
 viewBox="0.00 0.00 582.50 149.00" xmlns="http://www.w3.org/2000/svg" xmlns:xlink="http://www.w3.org/1999/xlink">
<g id="graph0" class="graph" transform="scale(1 1) rotate(0) translate(4 145)">
<title>inc/base/BaseBluetooth.h</title>
<!-- Node1 -->
<g id="Node000001" class="node">
<title>Node1</title>
<g id="a_Node000001"><a xlink:title="Unified Bluetooth base class for all Bluetooth implementations.">
<polygon fill="#999999" stroke="#666666" points="382,-141 212,-141 212,-118 382,-118 382,-141"/>
<text text-anchor="middle" x="297" y="-125.8" font-family="Arial" font-size="14.00">inc/base/BaseBluetooth.h</text>
</a>
</g>
</g>
<!-- Node2 -->
<g id="Node000002" class="node">
<title>Node2</title>
<g id="a_Node000002"><a xlink:href="HardwareTypes_8h.html" target="_top" xlink:title="Platform&#45;agnostic hardware type definitions for the HardFOC system.">
<polygon fill="white" stroke="#666666" points="168,-82 46,-82 46,-59 168,-59 168,-82"/>
<text text-anchor="middle" x="107" y="-66.8" font-family="Arial" font-size="14.00">HardwareTypes.h</text>
</a>
</g>
</g>
<!-- Node1&#45;&gt;Node2 -->
<g id="edge1_Node000001_Node000002" class="edge">
<title>Node1&#45;&gt;Node2</title>
<g id="a_edge1_Node000001_Node000002"><a xlink:title=" ">
<path fill="none" stroke="#63b8ff" d="M261.71,-117.91C230.78,-108.63 185.65,-95.1 152.11,-85.03"/>
<polygon fill="#63b8ff" stroke="#63b8ff" points="152.69,-81.55 142.1,-82.03 150.68,-88.26 152.69,-81.55"/>
</a>
</g>
</g>
<!-- Node3 -->
<g id="Node000003" class="node">
<title>Node3</title>
<g id="a_Node000003"><a xlink:title=" ">
<polygon fill="#e0e0e0" stroke="#999999" points="56,-23 0,-23 0,0 56,0 56,-23"/>
<text text-anchor="middle" x="28" y="-7.8" font-family="Arial" font-size="14.00">cstdint</text>
</a>
</g>
</g>
<!-- Node1&#45;&gt;Node3 -->
<g id="edge5_Node000001_Node000003" class="edge">
<title>Node1&#45;&gt;Node3</title>
<g id="a_edge5_Node000001_Node000003"><a xlink:title=" ">
<path fill="none" stroke="#63b8ff" d="M211.72,-123.94C145.34,-118.5 60.65,-106.81 37,-82 24.84,-69.24 23.56,-48.67 24.74,-33.21"/>
<polygon fill="#63b8ff" stroke="#63b8ff" points="28.24,-33.38 25.91,-23.05 21.29,-32.58 28.24,-33.38"/>
</a>
</g>
</g>
<!-- Node5 -->
<g id="Node000005" class="node">
<title>Node5</title>
<g id="a_Node000005"><a xlink:title=" ">
<polygon fill="#e0e0e0" stroke="#999999" points="242,-82 186,-82 186,-59 242,-59 242,-82"/>
<text text-anchor="middle" x="214" y="-66.8" font-family="Arial" font-size="14.00">cctype</text>
</a>
</g>
</g>
<!-- Node1&#45;&gt;Node5 -->
<g id="edge4_Node000001_Node000005" class="edge">
<title>Node1&#45;&gt;Node5</title>
<g id="a_edge4_Node000001_Node000005"><a xlink:title=" ">
<path fill="none" stroke="#63b8ff" d="M281.39,-117.78C269.22,-109.42 252.1,-97.66 238.16,-88.09"/>
<polygon fill="#63b8ff" stroke="#63b8ff" points="239.77,-84.95 229.54,-82.17 235.8,-90.72 239.77,-84.95"/>
</a>
</g>
</g>
<!-- Node6 -->
<g id="Node000006" class="node">
<title>Node6</title>
<g id="a_Node000006"><a xlink:title=" ">
<polygon fill="#e0e0e0" stroke="#999999" points="334,-82 260,-82 260,-59 334,-59 334,-82"/>
<text text-anchor="middle" x="297" y="-66.8" font-family="Arial" font-size="14.00">functional</text>
</a>
</g>
</g>
<!-- Node1&#45;&gt;Node6 -->
<g id="edge6_Node000001_Node000006" class="edge">
<title>Node1&#45;&gt;Node6</title>
<g id="a_edge6_Node000001_Node000006"><a xlink:title=" ">
<path fill="none" stroke="#63b8ff" d="M297,-117.78C297,-110.61 297,-100.95 297,-92.31"/>
<polygon fill="#63b8ff" stroke="#63b8ff" points="300.5,-92.17 297,-82.17 293.5,-92.17 300.5,-92.17"/>
</a>
</g>
</g>
<!-- Node7 -->
<g id="Node000007" class="node">
<title>Node7</title>
<g id="a_Node000007"><a xlink:title=" ">
<polygon fill="#e0e0e0" stroke="#999999" points="402,-82 352,-82 352,-59 402,-59 402,-82"/>
<text text-anchor="middle" x="377" y="-66.8" font-family="Arial" font-size="14.00">string</text>
</a>
</g>
</g>
<!-- Node1&#45;&gt;Node7 -->
<g id="edge7_Node000001_Node000007" class="edge">
<title>Node1&#45;&gt;Node7</title>
<g id="a_edge7_Node000001_Node000007"><a xlink:title=" ">
<path fill="none" stroke="#63b8ff" d="M312.05,-117.78C323.78,-109.42 340.28,-97.66 353.72,-88.09"/>
<polygon fill="#63b8ff" stroke="#63b8ff" points="355.91,-90.83 362.02,-82.17 351.84,-85.13 355.91,-90.83"/>
</a>
</g>
</g>
<!-- Node8 -->
<g id="Node000008" class="node">
<title>Node8</title>
<g id="a_Node000008"><a xlink:title=" ">
<polygon fill="#e0e0e0" stroke="#999999" points="504,-82 420,-82 420,-59 504,-59 504,-82"/>
<text text-anchor="middle" x="462" y="-66.8" font-family="Arial" font-size="14.00">string_view</text>
</a>
</g>
</g>
<!-- Node1&#45;&gt;Node8 -->
<g id="edge8_Node000001_Node000008" class="edge">
<title>Node1&#45;&gt;Node8</title>
<g id="a_edge8_Node000001_Node000008"><a xlink:title=" ">
<path fill="none" stroke="#63b8ff" d="M327.65,-117.91C354.16,-108.75 392.68,-95.45 421.69,-85.43"/>
<polygon fill="#63b8ff" stroke="#63b8ff" points="423.21,-88.6 431.52,-82.03 420.92,-81.99 423.21,-88.6"/>
</a>
</g>
</g>
<!-- Node9 -->
<g id="Node000009" class="node">
<title>Node9</title>
<g id="a_Node000009"><a xlink:title=" ">
<polygon fill="#e0e0e0" stroke="#999999" points="574.5,-82 521.5,-82 521.5,-59 574.5,-59 574.5,-82"/>
<text text-anchor="middle" x="548" y="-66.8" font-family="Arial" font-size="14.00">vector</text>
</a>
</g>
</g>
<!-- Node1&#45;&gt;Node9 -->
<g id="edge9_Node000001_Node000009" class="edge">
<title>Node1&#45;&gt;Node9</title>
<g id="a_edge9_Node000001_Node000009"><a xlink:title=" ">
<path fill="none" stroke="#63b8ff" d="M351.88,-117.94C393.39,-109.66 452,-97.38 511.39,-82.29"/>
<polygon fill="#63b8ff" stroke="#63b8ff" points="512.49,-85.62 521.31,-79.75 510.75,-78.84 512.49,-85.62"/>
</a>
</g>
</g>
<!-- Node2&#45;&gt;Node3 -->
<g id="edge2_Node000002_Node000003" class="edge">
<title>Node2&#45;&gt;Node3</title>
<g id="a_edge2_Node000002_Node000003"><a xlink:title=" ">
<path fill="none" stroke="#63b8ff" d="M92.14,-58.78C80.55,-50.42 64.26,-38.66 50.99,-29.09"/>
<polygon fill="#63b8ff" stroke="#63b8ff" points="52.95,-26.19 42.79,-23.17 48.85,-31.86 52.95,-26.19"/>
</a>
</g>
</g>
<!-- Node4 -->
<g id="Node000004" class="node">
<title>Node4</title>
<g id="a_Node000004"><a xlink:title=" ">
<polygon fill="#e0e0e0" stroke="#999999" points="131,-23 83,-23 83,0 131,0 131,-23"/>
<text text-anchor="middle" x="107" y="-7.8" font-family="Arial" font-size="14.00">limits</text>
</a>
</g>
</g>
<!-- Node2&#45;&gt;Node4 -->
<g id="edge3_Node000002_Node000004" class="edge">
<title>Node2&#45;&gt;Node4</title>
<g id="a_edge3_Node000002_Node000004"><a xlink:title=" ">
<path fill="none" stroke="#63b8ff" d="M107,-58.78C107,-51.61 107,-41.95 107,-33.31"/>
<polygon fill="#63b8ff" stroke="#63b8ff" points="110.5,-33.17 107,-23.17 103.5,-33.17 110.5,-33.17"/>
</a>
</g>
</g>
</g>
</svg>
