<?xml version="1.0" encoding="UTF-8" standalone="no"?>
<!DOCTYPE svg PUBLIC "-//W3C//DTD SVG 1.1//EN"
 "http://www.w3.org/Graphics/SVG/1.1/DTD/svg11.dtd">
<!-- Generated by graphviz version 2.43.0 (0)
 -->
<!-- Title: EspPwm Pages: 1 -->
<!--zoomable 254 -->

<svg id="main" version="1.1" xmlns="http://www.w3.org/2000/svg" xmlns:xlink="http://www.w3.org/1999/xlink" xml:space="preserve" onload="init(evt)">
<style type="text/css"><![CDATA[
.node, .edge {opacity: 0.7;}
.node.selected, .edge.selected {opacity: 1;}
.edge:hover path { stroke: red; }
.edge:hover polygon { stroke: red; fill: red; }
]]></style>

<defs>
  <circle id="rim" cx="0" cy="0" r="7"/>
  <circle id="rim2" cx="0" cy="0" r="3.5"/>
  <g id="zoomPlus">
    <use xlink:href="#rim" fill="#404040"><set attributeName="fill" to="#808080" begin="zoomplus.mouseover" end="zoomplus.mouseout"/></use>
    <path d="M-4,0h8M0,-4v8" fill="none" stroke="white" stroke-width="1.5" pointer-events="none"/>
  </g>
  <g id="zoomMin">
    <use xlink:href="#rim" fill="#404040"><set attributeName="fill" to="#808080" begin="zoomminus.mouseover" end="zoomminus.mouseout"/></use>
    <path d="M-4,0h8" fill="none" stroke="white" stroke-width="1.5" pointer-events="none"/>
  </g>
  <g id="arrowUp" transform="translate(30 24)">
    <use xlink:href="#rim"/>
    <path pointer-events="none" fill="none" stroke="white" stroke-width="1.5" d="M0,-3.0v7 M-2.5,-0.5L0,-3.0L2.5,-0.5"/>
  </g>
  <g id="arrowRight" transform="rotate(90) translate(36 -43)">
    <use xlink:href="#rim"/>
    <path pointer-events="none" fill="none" stroke="white" stroke-width="1.5" d="M0,-3.0v7 M-2.5,-0.5L0,-3.0L2.5,-0.5"/>
  </g>
  <g id="arrowDown" transform="rotate(180) translate(-30 -48)">
    <use xlink:href="#rim"/>
    <path pointer-events="none" fill="none" stroke="white" stroke-width="1.5" d="M0,-3.0v7 M-2.5,-0.5L0,-3.0L2.5,-0.5"/>
  </g>
  <g id="arrowLeft" transform="rotate(270) translate(-36 17)">
    <use xlink:href="#rim"/>
    <path pointer-events="none" fill="none" stroke="white" stroke-width="1.5" d="M0,-3.0v7 M-2.5,-0.5L0,-3.0L2.5,-0.5"/>
  </g>
  <g id="resetDef">
    <use xlink:href="#rim2" fill="#404040"><set attributeName="fill" to="#808080" begin="reset.mouseover" end="reset.mouseout"/></use>
  </g>
</defs>
<script type="application/ecmascript">
var viewWidth = 677;
var viewHeight = 254;
var sectionId = 'dynsection-1';
</script>
<script type="application/ecmascript" xlink:href="svg.min.js"/>
<svg id="graph" class="graph">
<g id="viewport">
<title>EspPwm</title>
<!-- Node1 -->
<g id="Node000001" class="node">
<title>Node1</title>
<g id="a_Node000001"><a xlink:title="ESP32 PWM implementation using LEDC peripheral with comprehensive ESP32 variant support.">
<polygon fill="#999999" stroke="#666666" points="669,-129 598,-129 598,-106 669,-106 669,-129"/>
<text text-anchor="middle" x="633.5" y="-113.8" font-family="Arial" font-size="14.00">EspPwm</text>
</a>
</g>
</g>
<!-- Node2 -->
<g id="Node000002" class="node">
<title>Node2</title>
<g id="a_Node000002"><a xlink:href="classBasePwm.html" target="_top" xlink:title="Abstract base class for PWM implementations.">
<polygon fill="white" stroke="#666666" points="396,-198 318,-198 318,-175 396,-175 396,-198"/>
<text text-anchor="middle" x="357" y="-182.8" font-family="Arial" font-size="14.00">BasePwm</text>
</a>
</g>
</g>
<!-- Node2&#45;&gt;Node1 -->
<g id="edge1_Node000001_Node000002" class="edge">
<title>Node2&#45;&gt;Node1</title>
<g id="a_edge1_Node000001_Node000002"><a xlink:title=" ">
<path fill="none" stroke="#63b8ff" d="M406.39,-186.42C452.56,-184.81 523.28,-178.33 580,-155.5 595.24,-149.37 610.17,-137.87 620.19,-129.12"/>
<polygon fill="#63b8ff" stroke="#63b8ff" points="406.25,-182.92 396.35,-186.7 406.45,-189.92 406.25,-182.92"/>
</a>
</g>
</g>
<!-- Node3 -->
<g id="Node000003" class="node">
<title>Node3</title>
<g id="a_Node000003"><a xlink:href="structhf__pwm__statistics__t.html" target="_top" xlink:title="PWM statistics information.">
<polygon fill="white" stroke="#666666" points="143,-233 8,-233 8,-210 143,-210 143,-233"/>
<text text-anchor="middle" x="75.5" y="-217.8" font-family="Arial" font-size="14.00">hf_pwm_statistics_t</text>
</a>
</g>
</g>
<!-- Node3&#45;&gt;Node1 -->
<g id="edge6_Node000001_Node000003" class="edge">
<title>Node3&#45;&gt;Node1</title>
<g id="a_edge6_Node000001_Node000003"><a xlink:title=" ">
<path fill="none" stroke="#9a32cd" stroke-dasharray="5,2" d="M153.56,-226.98C183.1,-228.35 217.12,-229.04 248,-227.5 396.72,-220.08 452.23,-258.97 580,-182.5 601.66,-169.54 618.13,-144.17 626.46,-129.25"/>
<polygon fill="#9a32cd" stroke="#9a32cd" points="153.47,-223.47 143.3,-226.47 153.12,-230.46 153.47,-223.47"/>
</a>
</g>
<text text-anchor="middle" x="357" y="-234.3" font-family="Arial" font-size="14.00" fill="grey"> statistics_</text>
</g>
<!-- Node3&#45;&gt;Node2 -->
<g id="edge2_Node000002_Node000003" class="edge">
<title>Node3&#45;&gt;Node2</title>
<g id="a_edge2_Node000002_Node000003"><a xlink:title=" ">
<path fill="none" stroke="#9a32cd" stroke-dasharray="5,2" d="M153.22,-211.89C206.67,-205.2 275.69,-196.56 317.85,-191.28"/>
<polygon fill="#9a32cd" stroke="#9a32cd" points="152.58,-208.45 143.09,-213.16 153.45,-215.39 152.58,-208.45"/>
</a>
</g>
<text text-anchor="middle" x="208.5" y="-212.3" font-family="Arial" font-size="14.00" fill="grey"> statistics_</text>
</g>
<!-- Node4 -->
<g id="Node000004" class="node">
<title>Node4</title>
<g id="a_Node000004"><a xlink:href="structhf__pwm__diagnostics__t.html" target="_top" xlink:title="PWM diagnostics information.">
<polygon fill="white" stroke="#666666" points="151,-177 0,-177 0,-154 151,-154 151,-177"/>
<text text-anchor="middle" x="75.5" y="-161.8" font-family="Arial" font-size="14.00">hf_pwm_diagnostics_t</text>
</a>
</g>
</g>
<!-- Node4&#45;&gt;Node1 -->
<g id="edge7_Node000001_Node000004" class="edge">
<title>Node4&#45;&gt;Node1</title>
<g id="a_edge7_Node000001_Node000004"><a xlink:title=" ">
<path fill="none" stroke="#9a32cd" stroke-dasharray="5,2" d="M161.39,-159.22C302.22,-148.77 569.77,-128.86 580,-127.5 585.79,-126.73 591.92,-125.74 597.85,-124.67"/>
<polygon fill="#9a32cd" stroke="#9a32cd" points="160.78,-155.75 151.07,-159.98 161.3,-162.73 160.78,-155.75"/>
</a>
</g>
<text text-anchor="middle" x="357" y="-154.3" font-family="Arial" font-size="14.00" fill="grey"> diagnostics_</text>
</g>
<!-- Node4&#45;&gt;Node2 -->
<g id="edge3_Node000002_Node000004" class="edge">
<title>Node4&#45;&gt;Node2</title>
<g id="a_edge3_Node000002_Node000004"><a xlink:title=" ">
<path fill="none" stroke="#9a32cd" stroke-dasharray="5,2" d="M161.29,-169.72C188.95,-171.29 219.8,-173.24 248,-175.5 271.2,-177.36 297.15,-179.98 317.8,-182.2"/>
<polygon fill="#9a32cd" stroke="#9a32cd" points="161.44,-166.22 151.26,-169.16 161.05,-173.21 161.44,-166.22"/>
</a>
</g>
<text text-anchor="middle" x="208.5" y="-179.3" font-family="Arial" font-size="14.00" fill="grey"> diagnostics_</text>
</g>
<!-- Node5 -->
<g id="Node000005" class="node">
<title>Node5</title>
<g id="a_Node000005"><a xlink:href="classRtosMutex.html" target="_top" xlink:title=" ">
<polygon fill="white" stroke="#666666" points="398,-105 316,-105 316,-82 398,-82 398,-105"/>
<text text-anchor="middle" x="357" y="-89.8" font-family="Arial" font-size="14.00">RtosMutex</text>
</a>
</g>
</g>
<!-- Node5&#45;&gt;Node1 -->
<g id="edge4_Node000001_Node000005" class="edge">
<title>Node5&#45;&gt;Node1</title>
<g id="a_edge4_Node000001_Node000005"><a xlink:title=" ">
<path fill="none" stroke="#9a32cd" stroke-dasharray="5,2" d="M408.2,-97.66C453.2,-101.42 521.03,-107.17 580,-112.5 585.74,-113.02 591.84,-113.59 597.77,-114.15"/>
<polygon fill="#9a32cd" stroke="#9a32cd" points="408.37,-94.16 398.12,-96.82 407.79,-101.14 408.37,-94.16"/>
</a>
</g>
<text text-anchor="middle" x="523" y="-116.3" font-family="Arial" font-size="14.00" fill="grey"> mutex_</text>
</g>
<!-- Node6 -->
<g id="Node000006" class="node">
<title>Node6</title>
<g id="a_Node000006"><a xlink:href="structhf__pwm__unit__config__t.html" target="_top" xlink:title="ESP32 PWM unit configuration.">
<polygon fill="white" stroke="#666666" points="431.5,-64 282.5,-64 282.5,-41 431.5,-41 431.5,-64"/>
<text text-anchor="middle" x="357" y="-48.8" font-family="Arial" font-size="14.00">hf_pwm_unit_config_t</text>
</a>
</g>
</g>
<!-- Node6&#45;&gt;Node1 -->
<g id="edge5_Node000001_Node000006" class="edge">
<title>Node6&#45;&gt;Node1</title>
<g id="a_edge5_Node000001_Node000006"><a xlink:title=" ">
<path fill="none" stroke="#9a32cd" stroke-dasharray="5,2" d="M441.73,-55.59C484.23,-59.29 536.03,-67.11 580,-83.5 594.04,-88.73 608.2,-98.2 618.27,-105.82"/>
<polygon fill="#9a32cd" stroke="#9a32cd" points="441.94,-52.1 431.69,-54.78 441.38,-59.07 441.94,-52.1"/>
</a>
</g>
<text text-anchor="middle" x="523" y="-87.3" font-family="Arial" font-size="14.00" fill="grey"> unit_config_</text>
</g>
<!-- Node7 -->
<g id="Node000007" class="node">
<title>Node7</title>
<g id="a_Node000007"><a xlink:href="structhf__pwm__eviction__request__t.html" target="_top" xlink:title="Eviction request information passed to user callback.">
<polygon fill="white" stroke="#666666" points="448,-23 266,-23 266,0 448,0 448,-23"/>
<text text-anchor="middle" x="357" y="-7.8" font-family="Arial" font-size="14.00">hf_pwm_eviction_request_t</text>
</a>
</g>
</g>
<!-- Node7&#45;&gt;Node1 -->
<g id="edge8_Node000001_Node000007" class="edge">
<title>Node7&#45;&gt;Node1</title>
<g id="a_edge8_Node000001_Node000007"><a xlink:title=" ">
<path fill="none" stroke="#9a32cd" stroke-dasharray="5,2" d="M458.4,-6.03C498.76,-8.16 544.13,-16.38 580,-38.5 605.65,-54.32 621.46,-87.89 628.38,-105.75"/>
<polygon fill="#9a32cd" stroke="#9a32cd" points="458.39,-2.53 448.26,-5.62 458.11,-9.53 458.39,-2.53"/>
</a>
</g>
<text text-anchor="middle" x="523" y="-42.3" font-family="Arial" font-size="14.00" fill="grey"> eviction_callback_</text>
</g>
</g>
</svg>

<g id="navigator" transform="translate(0 0)" fill="#404254">
  <rect fill="#f2f5e9" fill-opacity="0.5" stroke="#606060" stroke-width=".5" x="0" y="0" width="60" height="60"/>
  <use id="zoomplus" xlink:href="#zoomPlus" x="17" y="9" onmousedown="handleZoom(evt,'in')"/>
  <use id="zoomminus" xlink:href="#zoomMin" x="42" y="9" onmousedown="handleZoom(evt,'out')"/>
  <use id="reset" xlink:href="#resetDef" x="30" y="36" onmousedown="handleReset()"/>
   <use id="arrowup" xlink:href="#arrowUp" x="0" y="0" onmousedown="handlePan(0,-1)"/>
  <use id="arrowright" xlink:href="#arrowRight" x="0" y="0" onmousedown="handlePan(1,0)"/>
  <use id="arrowdown" xlink:href="#arrowDown" x="0" y="0" onmousedown="handlePan(0,1)"/>
  <use id="arrowleft" xlink:href="#arrowLeft" x="0" y="0" onmousedown="handlePan(-1,0)"/>
</g>
<svg viewBox="0 0 15 15" width="100%" height="30px" preserveAspectRatio="xMaxYMin meet">
 <g id="arrow_out" transform="scale(0.3 0.3)">
  <a xlink:href="classEspPwm__coll__graph_org.svg" target="_base">
   <rect id="button" ry="5" rx="5" y="6" x="6" height="38" width="38"
        fill="#f2f5e9" fill-opacity="0.5" stroke="#606060" stroke-width="1.0"/>
   <path id="arrow"
     d="M 11.500037,31.436501 C 11.940474,20.09759 22.043105,11.32322 32.158766,21.979434 L 37.068811,17.246167 C 37.068811,17.246167 37.088388,32 37.088388,32 L 22.160133,31.978069 C 22.160133,31.978069 26.997745,27.140456 26.997745,27.140456 C 18.528582,18.264221 13.291696,25.230495 11.500037,31.436501 z"
     style="fill:#404040;"/>
  </a>
 </g>
</svg>

<style type='text/css'>
<![CDATA[
[data-mouse-over-selected='false'] { opacity: 0.7; }
[data-mouse-over-selected='true']  { opacity: 1.0; }
]]>
</style>
<script type="application/ecmascript"><![CDATA[
document.addEventListener('DOMContentLoaded', (event) => {
  highlightEdges();
  highlightAdjacentNodes();
});
]]></script>
</svg>
