<?xml version="1.0" encoding="UTF-8" standalone="no"?>
<!DOCTYPE svg PUBLIC "-//W3C//DTD SVG 1.1//EN"
 "http://www.w3.org/Graphics/SVG/1.1/DTD/svg11.dtd">
<!-- Generated by graphviz version 2.43.0 (0)
 -->
<!-- Title: inc/mcu/esp32/utils/EspTypes_PWM.h Pages: 1 -->
<svg width="668pt" height="282pt"
 viewBox="0.00 0.00 667.50 282.00" xmlns="http://www.w3.org/2000/svg" xmlns:xlink="http://www.w3.org/1999/xlink">
<g id="graph0" class="graph" transform="scale(1 1) rotate(0) translate(4 278)">
<title>inc/mcu/esp32/utils/EspTypes_PWM.h</title>
<!-- Node1 -->
<g id="Node000001" class="node">
<title>Node1</title>
<g id="a_Node000001"><a xlink:title="ESP32 PWM type definitions for LEDC peripheral hardware abstraction.">
<polygon fill="#999999" stroke="#666666" points="343,-274 210,-274 210,-236 343,-236 343,-274"/>
<text text-anchor="start" x="218" y="-258.8" font-family="Arial" font-size="14.00">inc/mcu/esp32/utils</text>
<text text-anchor="middle" x="276.5" y="-243.8" font-family="Arial" font-size="14.00">/EspTypes_PWM.h</text>
</a>
</g>
</g>
<!-- Node2 -->
<g id="Node000002" class="node">
<title>Node2</title>
<g id="a_Node000002"><a xlink:href="BasePwm_8h.html" target="_top" xlink:title="Abstract base class for PWM implementations in the HardFOC system.">
<polygon fill="white" stroke="#666666" points="659.5,-141 503.5,-141 503.5,-118 659.5,-118 659.5,-141"/>
<text text-anchor="middle" x="581.5" y="-125.8" font-family="Arial" font-size="14.00">../../../base/BasePwm.h</text>
</a>
</g>
</g>
<!-- Node1&#45;&gt;Node2 -->
<g id="edge1_Node000001_Node000002" class="edge">
<title>Node1&#45;&gt;Node2</title>
<g id="a_edge1_Node000001_Node000002"><a xlink:title=" ">
<path fill="none" stroke="#63b8ff" d="M321.18,-235.91C382.05,-211.26 489.86,-167.61 545.72,-144.99"/>
<polygon fill="#63b8ff" stroke="#63b8ff" points="547.24,-148.15 555.19,-141.15 544.61,-141.66 547.24,-148.15"/>
</a>
</g>
</g>
<!-- Node3 -->
<g id="Node000003" class="node">
<title>Node3</title>
<g id="a_Node000003"><a xlink:href="HardwareTypes_8h.html" target="_top" xlink:title="Platform&#45;agnostic hardware type definitions for the HardFOC system.">
<polygon fill="white" stroke="#666666" points="407.5,-82 285.5,-82 285.5,-59 407.5,-59 407.5,-82"/>
<text text-anchor="middle" x="346.5" y="-66.8" font-family="Arial" font-size="14.00">HardwareTypes.h</text>
</a>
</g>
</g>
<!-- Node1&#45;&gt;Node3 -->
<g id="edge8_Node000001_Node000003" class="edge">
<title>Node1&#45;&gt;Node3</title>
<g id="a_edge8_Node000001_Node000003"><a xlink:title=" ">
<path fill="none" stroke="#63b8ff" d="M314.69,-235.83C328.6,-227.09 342.79,-215.17 350.5,-200 368.1,-165.37 359.92,-118.44 352.88,-91.94"/>
<polygon fill="#63b8ff" stroke="#63b8ff" points="356.22,-90.88 350.11,-82.23 349.49,-92.81 356.22,-90.88"/>
</a>
</g>
</g>
<!-- Node8 -->
<g id="Node000008" class="node">
<title>Node8</title>
<g id="a_Node000008"><a xlink:href="McuSelect_8h.html" target="_top" xlink:title="Centralized MCU platform selection and configuration header.">
<polygon fill="white" stroke="#666666" points="267,-82 114,-82 114,-59 267,-59 267,-82"/>
<text text-anchor="middle" x="190.5" y="-66.8" font-family="Arial" font-size="14.00">../../../utils/McuSelect.h</text>
</a>
</g>
</g>
<!-- Node1&#45;&gt;Node8 -->
<g id="edge9_Node000001_Node000008" class="edge">
<title>Node1&#45;&gt;Node8</title>
<g id="a_edge9_Node000001_Node000008"><a xlink:title=" ">
<path fill="none" stroke="#63b8ff" d="M239.79,-235.94C225.75,-227.1 211.06,-215.07 202.5,-200 183.22,-166.08 184.62,-118.85 187.48,-92.12"/>
<polygon fill="#63b8ff" stroke="#63b8ff" points="190.98,-92.37 188.74,-82.01 184.03,-91.5 190.98,-92.37"/>
</a>
</g>
</g>
<!-- Node9 -->
<g id="Node000009" class="node">
<title>Node9</title>
<g id="a_Node000009"><a xlink:href="EspTypes__Base_8h.html" target="_top" xlink:title="ESP32 base type definitions for hardware abstraction.">
<polygon fill="white" stroke="#666666" points="155,-141 30,-141 30,-118 155,-118 155,-141"/>
<text text-anchor="middle" x="92.5" y="-125.8" font-family="Arial" font-size="14.00">EspTypes_Base.h</text>
</a>
</g>
</g>
<!-- Node1&#45;&gt;Node9 -->
<g id="edge10_Node000001_Node000009" class="edge">
<title>Node1&#45;&gt;Node9</title>
<g id="a_edge10_Node000001_Node000009"><a xlink:title=" ">
<path fill="none" stroke="#63b8ff" d="M234.4,-235.94C214.07,-226.44 189.75,-213.88 169.5,-200 147.24,-184.74 124.65,-163.53 109.75,-148.56"/>
<polygon fill="#63b8ff" stroke="#63b8ff" points="112.2,-146.06 102.7,-141.37 107.2,-150.96 112.2,-146.06"/>
</a>
</g>
</g>
<!-- Node11 -->
<g id="Node000011" class="node">
<title>Node11</title>
<g id="a_Node000011"><a xlink:href="EspTypes__GPIO_8h.html" target="_top" xlink:title="ESP32 GPIO type definitions for hardware abstraction.">
<polygon fill="white" stroke="#666666" points="341.5,-200 211.5,-200 211.5,-177 341.5,-177 341.5,-200"/>
<text text-anchor="middle" x="276.5" y="-184.8" font-family="Arial" font-size="14.00">EspTypes_GPIO.h</text>
</a>
</g>
</g>
<!-- Node1&#45;&gt;Node11 -->
<g id="edge15_Node000001_Node000011" class="edge">
<title>Node1&#45;&gt;Node11</title>
<g id="a_edge15_Node000001_Node000011"><a xlink:title=" ">
<path fill="none" stroke="#63b8ff" d="M276.5,-235.69C276.5,-227.8 276.5,-218.54 276.5,-210.39"/>
<polygon fill="#63b8ff" stroke="#63b8ff" points="280,-210.19 276.5,-200.19 273,-210.19 280,-210.19"/>
</a>
</g>
</g>
<!-- Node2&#45;&gt;Node3 -->
<g id="edge2_Node000002_Node000003" class="edge">
<title>Node2&#45;&gt;Node3</title>
<g id="a_edge2_Node000002_Node000003"><a xlink:title=" ">
<path fill="none" stroke="#63b8ff" d="M538.12,-117.98C499.08,-108.51 441.58,-94.56 399.76,-84.42"/>
<polygon fill="#63b8ff" stroke="#63b8ff" points="400.56,-81.01 390.02,-82.06 398.91,-87.81 400.56,-81.01"/>
</a>
</g>
</g>
<!-- Node4 -->
<g id="Node000004" class="node">
<title>Node4</title>
<g id="a_Node000004"><a xlink:title=" ">
<polygon fill="#e0e0e0" stroke="#999999" points="453.5,-23 397.5,-23 397.5,0 453.5,0 453.5,-23"/>
<text text-anchor="middle" x="425.5" y="-7.8" font-family="Arial" font-size="14.00">cstdint</text>
</a>
</g>
</g>
<!-- Node2&#45;&gt;Node4 -->
<g id="edge5_Node000002_Node000004" class="edge">
<title>Node2&#45;&gt;Node4</title>
<g id="a_edge5_Node000002_Node000004"><a xlink:title=" ">
<path fill="none" stroke="#63b8ff" d="M604.73,-117.96C630.61,-104.78 666.58,-81.24 648.5,-59 625.66,-30.91 521.41,-19.21 463.89,-14.83"/>
<polygon fill="#63b8ff" stroke="#63b8ff" points="463.95,-11.33 453.73,-14.09 463.45,-18.31 463.95,-11.33"/>
</a>
</g>
</g>
<!-- Node6 -->
<g id="Node000006" class="node">
<title>Node6</title>
<g id="a_Node000006"><a xlink:title=" ">
<polygon fill="#e0e0e0" stroke="#999999" points="639.5,-82 565.5,-82 565.5,-59 639.5,-59 639.5,-82"/>
<text text-anchor="middle" x="602.5" y="-66.8" font-family="Arial" font-size="14.00">functional</text>
</a>
</g>
</g>
<!-- Node2&#45;&gt;Node6 -->
<g id="edge6_Node000002_Node000006" class="edge">
<title>Node2&#45;&gt;Node6</title>
<g id="a_edge6_Node000002_Node000006"><a xlink:title=" ">
<path fill="none" stroke="#63b8ff" d="M585.45,-117.78C588.15,-110.45 591.81,-100.52 595.04,-91.74"/>
<polygon fill="#63b8ff" stroke="#63b8ff" points="598.39,-92.77 598.57,-82.17 591.83,-90.35 598.39,-92.77"/>
</a>
</g>
</g>
<!-- Node7 -->
<g id="Node000007" class="node">
<title>Node7</title>
<g id="a_Node000007"><a xlink:title=" ">
<polygon fill="#e0e0e0" stroke="#999999" points="547.5,-82 463.5,-82 463.5,-59 547.5,-59 547.5,-82"/>
<text text-anchor="middle" x="505.5" y="-66.8" font-family="Arial" font-size="14.00">string_view</text>
</a>
</g>
</g>
<!-- Node2&#45;&gt;Node7 -->
<g id="edge7_Node000002_Node000007" class="edge">
<title>Node2&#45;&gt;Node7</title>
<g id="a_edge7_Node000002_Node000007"><a xlink:title=" ">
<path fill="none" stroke="#63b8ff" d="M567.2,-117.78C556.17,-109.5 540.68,-97.89 527.99,-88.36"/>
<polygon fill="#63b8ff" stroke="#63b8ff" points="529.83,-85.37 519.73,-82.17 525.63,-90.97 529.83,-85.37"/>
</a>
</g>
</g>
<!-- Node3&#45;&gt;Node4 -->
<g id="edge3_Node000003_Node000004" class="edge">
<title>Node3&#45;&gt;Node4</title>
<g id="a_edge3_Node000003_Node000004"><a xlink:title=" ">
<path fill="none" stroke="#63b8ff" d="M361.36,-58.78C372.95,-50.42 389.24,-38.66 402.51,-29.09"/>
<polygon fill="#63b8ff" stroke="#63b8ff" points="404.65,-31.86 410.71,-23.17 400.55,-26.19 404.65,-31.86"/>
</a>
</g>
</g>
<!-- Node5 -->
<g id="Node000005" class="node">
<title>Node5</title>
<g id="a_Node000005"><a xlink:title=" ">
<polygon fill="#e0e0e0" stroke="#999999" points="370.5,-23 322.5,-23 322.5,0 370.5,0 370.5,-23"/>
<text text-anchor="middle" x="346.5" y="-7.8" font-family="Arial" font-size="14.00">limits</text>
</a>
</g>
</g>
<!-- Node3&#45;&gt;Node5 -->
<g id="edge4_Node000003_Node000005" class="edge">
<title>Node3&#45;&gt;Node5</title>
<g id="a_edge4_Node000003_Node000005"><a xlink:title=" ">
<path fill="none" stroke="#63b8ff" d="M346.5,-58.78C346.5,-51.61 346.5,-41.95 346.5,-33.31"/>
<polygon fill="#63b8ff" stroke="#63b8ff" points="350,-33.17 346.5,-23.17 343,-33.17 350,-33.17"/>
</a>
</g>
</g>
<!-- Node9&#45;&gt;Node3 -->
<g id="edge12_Node000009_Node000003" class="edge">
<title>Node9&#45;&gt;Node3</title>
<g id="a_edge12_Node000009_Node000003"><a xlink:title=" ">
<path fill="none" stroke="#63b8ff" d="M139.38,-117.98C181.76,-108.47 244.26,-94.44 289.51,-84.29"/>
<polygon fill="#63b8ff" stroke="#63b8ff" points="290.47,-87.66 299.46,-82.06 288.94,-80.83 290.47,-87.66"/>
</a>
</g>
</g>
<!-- Node9&#45;&gt;Node4 -->
<g id="edge14_Node000009_Node000004" class="edge">
<title>Node9&#45;&gt;Node4</title>
<g id="a_edge14_Node000009_Node000004"><a xlink:title=" ">
<path fill="none" stroke="#63b8ff" d="M90.84,-117.8C89.13,-102.42 88.6,-74.26 104.5,-59 148.96,-16.32 318.83,-33.87 379.5,-23 382.13,-22.53 384.84,-22.01 387.56,-21.46"/>
<polygon fill="#63b8ff" stroke="#63b8ff" points="388.32,-24.87 397.37,-19.36 386.86,-18.03 388.32,-24.87"/>
</a>
</g>
</g>
<!-- Node9&#45;&gt;Node8 -->
<g id="edge11_Node000009_Node000008" class="edge">
<title>Node9&#45;&gt;Node8</title>
<g id="a_edge11_Node000009_Node000008"><a xlink:title=" ">
<path fill="none" stroke="#63b8ff" d="M110.93,-117.78C125.72,-109.18 146.68,-96.99 163.38,-87.28"/>
<polygon fill="#63b8ff" stroke="#63b8ff" points="165.27,-90.23 172.15,-82.17 161.75,-84.18 165.27,-90.23"/>
</a>
</g>
</g>
<!-- Node10 -->
<g id="Node000010" class="node">
<title>Node10</title>
<g id="a_Node000010"><a xlink:title=" ">
<polygon fill="#e0e0e0" stroke="#999999" points="57,-82 0,-82 0,-59 57,-59 57,-82"/>
<text text-anchor="middle" x="28.5" y="-66.8" font-family="Arial" font-size="14.00">atomic</text>
</a>
</g>
</g>
<!-- Node9&#45;&gt;Node10 -->
<g id="edge13_Node000009_Node000010" class="edge">
<title>Node9&#45;&gt;Node10</title>
<g id="a_edge13_Node000009_Node000010"><a xlink:title=" ">
<path fill="none" stroke="#63b8ff" d="M80.46,-117.78C71.34,-109.66 58.63,-98.33 48.05,-88.92"/>
<polygon fill="#63b8ff" stroke="#63b8ff" points="50.28,-86.21 40.48,-82.17 45.62,-91.44 50.28,-86.21"/>
</a>
</g>
</g>
<!-- Node11&#45;&gt;Node3 -->
<g id="edge22_Node000011_Node000003" class="edge">
<title>Node11&#45;&gt;Node3</title>
<g id="a_edge22_Node000011_Node000003"><a xlink:title=" ">
<path fill="none" stroke="#63b8ff" d="M282.96,-176.79C294.73,-157.29 319.83,-115.69 334.72,-91.02"/>
<polygon fill="#63b8ff" stroke="#63b8ff" points="337.89,-92.55 340.06,-82.18 331.89,-88.93 337.89,-92.55"/>
</a>
</g>
</g>
<!-- Node11&#45;&gt;Node8 -->
<g id="edge23_Node000011_Node000008" class="edge">
<title>Node11&#45;&gt;Node8</title>
<g id="a_edge23_Node000011_Node000008"><a xlink:title=" ">
<path fill="none" stroke="#63b8ff" d="M268.56,-176.79C253.97,-157.11 222.71,-114.95 204.49,-90.37"/>
<polygon fill="#63b8ff" stroke="#63b8ff" points="207.18,-88.13 198.42,-82.18 201.56,-92.3 207.18,-88.13"/>
</a>
</g>
</g>
<!-- Node11&#45;&gt;Node9 -->
<g id="edge21_Node000011_Node000009" class="edge">
<title>Node11&#45;&gt;Node9</title>
<g id="a_edge21_Node000011_Node000009"><a xlink:title=" ">
<path fill="none" stroke="#63b8ff" d="M242.32,-176.91C212.37,-167.63 168.67,-154.1 136.19,-144.03"/>
<polygon fill="#63b8ff" stroke="#63b8ff" points="137.08,-140.65 126.49,-141.03 135.01,-147.33 137.08,-140.65"/>
</a>
</g>
</g>
<!-- Node12 -->
<g id="Node000012" class="node">
<title>Node12</title>
<g id="a_Node000012"><a xlink:href="BaseGpio_8h.html" target="_top" xlink:title="Unified GPIO base class for all digital GPIO implementations.">
<polygon fill="white" stroke="#666666" points="485.5,-141 397.5,-141 397.5,-118 485.5,-118 485.5,-141"/>
<text text-anchor="middle" x="441.5" y="-125.8" font-family="Arial" font-size="14.00">BaseGpio.h</text>
</a>
</g>
</g>
<!-- Node11&#45;&gt;Node12 -->
<g id="edge16_Node000011_Node000012" class="edge">
<title>Node11&#45;&gt;Node12</title>
<g id="a_edge16_Node000011_Node000012"><a xlink:title=" ">
<path fill="none" stroke="#63b8ff" d="M307.15,-176.91C333.66,-167.75 372.18,-154.45 401.19,-144.43"/>
<polygon fill="#63b8ff" stroke="#63b8ff" points="402.71,-147.6 411.02,-141.03 400.42,-140.99 402.71,-147.6"/>
</a>
</g>
</g>
<!-- Node12&#45;&gt;Node3 -->
<g id="edge17_Node000012_Node000003" class="edge">
<title>Node12&#45;&gt;Node3</title>
<g id="a_edge17_Node000012_Node000003"><a xlink:title=" ">
<path fill="none" stroke="#63b8ff" d="M423.63,-117.78C409.43,-109.26 389.35,-97.21 373.24,-87.55"/>
<polygon fill="#63b8ff" stroke="#63b8ff" points="374.66,-84.32 364.29,-82.17 371.06,-90.32 374.66,-84.32"/>
</a>
</g>
</g>
<!-- Node12&#45;&gt;Node4 -->
<g id="edge18_Node000012_Node000004" class="edge">
<title>Node12&#45;&gt;Node4</title>
<g id="a_edge18_Node000012_Node000004"><a xlink:title=" ">
<path fill="none" stroke="#63b8ff" d="M440.02,-117.79C437.38,-98.63 431.8,-58.15 428.37,-33.34"/>
<polygon fill="#63b8ff" stroke="#63b8ff" points="431.81,-32.61 426.97,-23.18 424.87,-33.56 431.81,-32.61"/>
</a>
</g>
</g>
<!-- Node12&#45;&gt;Node6 -->
<g id="edge19_Node000012_Node000006" class="edge">
<title>Node12&#45;&gt;Node6</title>
<g id="a_edge19_Node000012_Node000006"><a xlink:title=" ">
<path fill="none" stroke="#63b8ff" d="M471.41,-117.91C497.27,-108.75 534.86,-95.45 563.17,-85.43"/>
<polygon fill="#63b8ff" stroke="#63b8ff" points="564.5,-88.67 572.75,-82.03 562.16,-82.07 564.5,-88.67"/>
</a>
</g>
</g>
<!-- Node12&#45;&gt;Node7 -->
<g id="edge20_Node000012_Node000007" class="edge">
<title>Node12&#45;&gt;Node7</title>
<g id="a_edge20_Node000012_Node000007"><a xlink:title=" ">
<path fill="none" stroke="#63b8ff" d="M453.54,-117.78C462.66,-109.66 475.37,-98.33 485.95,-88.92"/>
<polygon fill="#63b8ff" stroke="#63b8ff" points="488.38,-91.44 493.52,-82.17 483.72,-86.21 488.38,-91.44"/>
</a>
</g>
</g>
</g>
</svg>
