<?xml version="1.0" encoding="UTF-8" standalone="no"?>
<!DOCTYPE svg PUBLIC "-//W3C//DTD SVG 1.1//EN"
 "http://www.w3.org/Graphics/SVG/1.1/DTD/svg11.dtd">
<!-- Generated by graphviz version 2.43.0 (0)
 -->
<!-- Title: inc/utils/RtosMutex.h Pages: 1 -->
<svg width="5071pt" height="164pt"
 viewBox="0.00 0.00 5071.00 164.00" xmlns="http://www.w3.org/2000/svg" xmlns:xlink="http://www.w3.org/1999/xlink">
<g id="graph0" class="graph" transform="scale(1 1) rotate(0) translate(4 160)">
<title>inc/utils/RtosMutex.h</title>
<!-- Node1 -->
<g id="Node000001" class="node">
<title>Node1</title>
<g id="a_Node000001"><a xlink:title="Cross&#45;platform RTOS mutex and synchronization primitives.">
<polygon fill="#999999" stroke="#666666" points="2597.5,-156 2455.5,-156 2455.5,-133 2597.5,-133 2597.5,-156"/>
<text text-anchor="middle" x="2526.5" y="-140.8" font-family="Arial" font-size="14.00">inc/utils/RtosMutex.h</text>
</a>
</g>
</g>
<!-- Node2 -->
<g id="Node000002" class="node">
<title>Node2</title>
<g id="a_Node000002"><a xlink:href="EspAdc_8h.html" target="_top" xlink:title="ESP32 ADC implementation for the HardFOC system.">
<polygon fill="white" stroke="#666666" points="380.5,-97 214.5,-97 214.5,-74 380.5,-74 380.5,-97"/>
<text text-anchor="middle" x="297.5" y="-81.8" font-family="Arial" font-size="14.00">inc/mcu/esp32/EspAdc.h</text>
</a>
</g>
</g>
<!-- Node1&#45;&gt;Node2 -->
<g id="edge1_Node000001_Node000002" class="edge">
<title>Node1&#45;&gt;Node2</title>
<g id="a_edge1_Node000001_Node000002"><a xlink:title=" ">
<path fill="none" stroke="#63b8ff" d="M2445.01,-141.64C2183.5,-135.65 1341.93,-116.11 645.5,-97 555.02,-94.52 451.32,-91.35 380.82,-89.14"/>
<polygon fill="#63b8ff" stroke="#63b8ff" points="2445.1,-145.15 2455.17,-141.88 2445.26,-138.15 2445.1,-145.15"/>
</a>
</g>
</g>
<!-- Node5 -->
<g id="Node000005" class="node">
<title>Node5</title>
<g id="a_Node000005"><a xlink:href="EspBluetooth_8h.html" target="_top" xlink:title="ESP32 Bluetooth implementation using NimBLE for BLE&#45;only support (ESP32C6)">
<polygon fill="white" stroke="#666666" points="854.5,-97 654.5,-97 654.5,-74 854.5,-74 854.5,-97"/>
<text text-anchor="middle" x="754.5" y="-81.8" font-family="Arial" font-size="14.00">inc/mcu/esp32/EspBluetooth.h</text>
</a>
</g>
</g>
<!-- Node1&#45;&gt;Node5 -->
<g id="edge4_Node000001_Node000005" class="edge">
<title>Node1&#45;&gt;Node5</title>
<g id="a_edge4_Node000001_Node000005"><a xlink:title=" ">
<path fill="none" stroke="#63b8ff" d="M2445.38,-140.89C2155.67,-131.57 1172.39,-99.94 854.51,-89.72"/>
<polygon fill="#63b8ff" stroke="#63b8ff" points="2445.28,-144.39 2455.39,-141.21 2445.51,-137.39 2445.28,-144.39"/>
</a>
</g>
</g>
<!-- Node8 -->
<g id="Node000008" class="node">
<title>Node8</title>
<g id="a_Node000008"><a xlink:href="EspCan_8h.html" target="_top" xlink:title="ESP32 CAN (TWAI) implementation for the HardFOC system &#45; ESP&#45;IDF v5.5 Compatible.">
<polygon fill="white" stroke="#666666" points="1264,-97 1097,-97 1097,-74 1264,-74 1264,-97"/>
<text text-anchor="middle" x="1180.5" y="-81.8" font-family="Arial" font-size="14.00">inc/mcu/esp32/EspCan.h</text>
</a>
</g>
</g>
<!-- Node1&#45;&gt;Node8 -->
<g id="edge7_Node000001_Node000008" class="edge">
<title>Node1&#45;&gt;Node8</title>
<g id="a_edge7_Node000001_Node000008"><a xlink:title=" ">
<path fill="none" stroke="#63b8ff" d="M2445.06,-140.05C2205.83,-129.92 1506.8,-100.32 1264.42,-90.05"/>
<polygon fill="#63b8ff" stroke="#63b8ff" points="2444.94,-143.55 2455.08,-140.48 2445.24,-136.56 2444.94,-143.55"/>
</a>
</g>
</g>
<!-- Node11 -->
<g id="Node000011" class="node">
<title>Node11</title>
<g id="a_Node000011"><a xlink:href="EspI2c_8h.html" target="_top" xlink:title="Advanced ESP32&#45;integrated I2C controller for ESP&#45;IDF v5.5+ with proper bus&#45;device architecture.">
<polygon fill="white" stroke="#666666" points="1660,-97 1499,-97 1499,-74 1660,-74 1660,-97"/>
<text text-anchor="middle" x="1579.5" y="-81.8" font-family="Arial" font-size="14.00">inc/mcu/esp32/EspI2c.h</text>
</a>
</g>
</g>
<!-- Node1&#45;&gt;Node11 -->
<g id="edge10_Node000001_Node000011" class="edge">
<title>Node1&#45;&gt;Node11</title>
<g id="a_edge10_Node000001_Node000011"><a xlink:title=" ">
<path fill="none" stroke="#63b8ff" d="M2445.17,-138.6C2265.94,-127.82 1838.73,-102.1 1660.14,-91.35"/>
<polygon fill="#63b8ff" stroke="#63b8ff" points="2445.13,-142.11 2455.32,-139.22 2445.55,-135.12 2445.13,-142.11"/>
</a>
</g>
</g>
<!-- Node14 -->
<g id="Node000014" class="node">
<title>Node14</title>
<g id="a_Node000014"><a xlink:href="EspLogger_8h.html" target="_top" xlink:title="ESP32&#45;specific logger implementation for the HardFOC system.">
<polygon fill="white" stroke="#666666" points="2103.5,-97 1919.5,-97 1919.5,-74 2103.5,-74 2103.5,-97"/>
<text text-anchor="middle" x="2011.5" y="-81.8" font-family="Arial" font-size="14.00">inc/mcu/esp32/EspLogger.h</text>
</a>
</g>
</g>
<!-- Node1&#45;&gt;Node14 -->
<g id="edge13_Node000001_Node000014" class="edge">
<title>Node1&#45;&gt;Node14</title>
<g id="a_edge13_Node000001_Node000014"><a xlink:title=" ">
<path fill="none" stroke="#63b8ff" d="M2445.24,-134.51C2352.38,-124.23 2200.72,-107.44 2103.56,-96.69"/>
<polygon fill="#63b8ff" stroke="#63b8ff" points="2445.11,-138.01 2455.43,-135.63 2445.88,-131.06 2445.11,-138.01"/>
</a>
</g>
</g>
<!-- Node17 -->
<g id="Node000017" class="node">
<title>Node17</title>
<g id="a_Node000017"><a xlink:href="EspNvs_8h.html" target="_top" xlink:title="World&#45;class ESP32&#45;C6 NVS storage implementation with ESP&#45;IDF v5.5+ features.">
<polygon fill="white" stroke="#666666" points="2509.5,-97 2343.5,-97 2343.5,-74 2509.5,-74 2509.5,-97"/>
<text text-anchor="middle" x="2426.5" y="-81.8" font-family="Arial" font-size="14.00">inc/mcu/esp32/EspNvs.h</text>
</a>
</g>
</g>
<!-- Node1&#45;&gt;Node17 -->
<g id="edge16_Node000001_Node000017" class="edge">
<title>Node1&#45;&gt;Node17</title>
<g id="a_edge16_Node000001_Node000017"><a xlink:title=" ">
<path fill="none" stroke="#63b8ff" d="M2498.73,-127.67C2481.67,-117.95 2460.29,-105.76 2445.22,-97.17"/>
<polygon fill="#63b8ff" stroke="#63b8ff" points="2497.27,-130.87 2507.69,-132.78 2500.74,-124.79 2497.27,-130.87"/>
</a>
</g>
</g>
<!-- Node20 -->
<g id="Node000020" class="node">
<title>Node20</title>
<g id="a_Node000020"><a xlink:href="EspPio_8h.html" target="_top" xlink:title="ESP32C6 RMT&#45;based Programmable IO Channel implementation with ESP&#45;IDF v5.5+ features.">
<polygon fill="white" stroke="#666666" points="2708.5,-97 2546.5,-97 2546.5,-74 2708.5,-74 2708.5,-97"/>
<text text-anchor="middle" x="2627.5" y="-81.8" font-family="Arial" font-size="14.00">inc/mcu/esp32/EspPio.h</text>
</a>
</g>
</g>
<!-- Node1&#45;&gt;Node20 -->
<g id="edge19_Node000001_Node000020" class="edge">
<title>Node1&#45;&gt;Node20</title>
<g id="a_edge19_Node000001_Node000020"><a xlink:title=" ">
<path fill="none" stroke="#63b8ff" d="M2554.55,-127.67C2571.77,-117.95 2593.38,-105.76 2608.59,-97.17"/>
<polygon fill="#63b8ff" stroke="#63b8ff" points="2552.49,-124.82 2545.5,-132.78 2555.93,-130.91 2552.49,-124.82"/>
</a>
</g>
</g>
<!-- Node23 -->
<g id="Node000023" class="node">
<title>Node23</title>
<g id="a_Node000023"><a xlink:href="EspPwm_8h.html" target="_top" xlink:title="ESP32C6 LEDC (PWM) controller implementation for the HardFOC system.">
<polygon fill="white" stroke="#666666" points="3118,-97 2945,-97 2945,-74 3118,-74 3118,-97"/>
<text text-anchor="middle" x="3031.5" y="-81.8" font-family="Arial" font-size="14.00">inc/mcu/esp32/EspPwm.h</text>
</a>
</g>
</g>
<!-- Node1&#45;&gt;Node23 -->
<g id="edge22_Node000001_Node000023" class="edge">
<title>Node1&#45;&gt;Node23</title>
<g id="a_edge22_Node000001_Node000023"><a xlink:title=" ">
<path fill="none" stroke="#63b8ff" d="M2607.65,-134.34C2700,-123.92 2850.25,-106.96 2944.83,-96.28"/>
<polygon fill="#63b8ff" stroke="#63b8ff" points="2607.06,-130.88 2597.52,-135.48 2607.85,-137.84 2607.06,-130.88"/>
</a>
</g>
</g>
<!-- Node26 -->
<g id="Node000026" class="node">
<title>Node26</title>
<g id="a_Node000026"><a xlink:href="EspSpi_8h.html" target="_top" xlink:title="Advanced MCU&#45;integrated SPI controller implementation with ESP32C6/ESP&#45;IDF v5.5+ features.">
<polygon fill="white" stroke="#666666" points="3528.5,-97 3366.5,-97 3366.5,-74 3528.5,-74 3528.5,-97"/>
<text text-anchor="middle" x="3447.5" y="-81.8" font-family="Arial" font-size="14.00">inc/mcu/esp32/EspSpi.h</text>
</a>
</g>
</g>
<!-- Node1&#45;&gt;Node26 -->
<g id="edge25_Node000001_Node000026" class="edge">
<title>Node1&#45;&gt;Node26</title>
<g id="a_edge25_Node000001_Node000026"><a xlink:title=" ">
<path fill="none" stroke="#63b8ff" d="M2607.77,-138.47C2782.37,-127.66 3191.55,-102.34 3366.18,-91.53"/>
<polygon fill="#63b8ff" stroke="#63b8ff" points="2607.39,-134.99 2597.62,-139.1 2607.82,-141.97 2607.39,-134.99"/>
</a>
</g>
</g>
<!-- Node29 -->
<g id="Node000029" class="node">
<title>Node29</title>
<g id="a_Node000029"><a xlink:href="EspTemperature_8h.html" target="_top" xlink:title="ESP32&#45;C6 internal temperature sensor implementation for the HardFOC system.">
<polygon fill="white" stroke="#666666" points="3983,-97 3764,-97 3764,-74 3983,-74 3983,-97"/>
<text text-anchor="middle" x="3873.5" y="-81.8" font-family="Arial" font-size="14.00">inc/mcu/esp32/EspTemperature.h</text>
</a>
</g>
</g>
<!-- Node1&#45;&gt;Node29 -->
<g id="edge28_Node000001_Node000029" class="edge">
<title>Node1&#45;&gt;Node29</title>
<g id="a_edge28_Node000001_Node000029"><a xlink:title=" ">
<path fill="none" stroke="#63b8ff" d="M2608.01,-140.05C2839.5,-130.25 3501.17,-102.26 3763.97,-91.13"/>
<polygon fill="#63b8ff" stroke="#63b8ff" points="2607.81,-136.56 2597.97,-140.48 2608.11,-143.55 2607.81,-136.56"/>
</a>
</g>
</g>
<!-- Node32 -->
<g id="Node000032" class="node">
<title>Node32</title>
<g id="a_Node000032"><a xlink:href="EspUart_8h.html" target="_top" xlink:title="ESP32 UART implementation for the HardFOC system.">
<polygon fill="white" stroke="#666666" points="4444.5,-97 4276.5,-97 4276.5,-74 4444.5,-74 4444.5,-97"/>
<text text-anchor="middle" x="4360.5" y="-81.8" font-family="Arial" font-size="14.00">inc/mcu/esp32/EspUart.h</text>
</a>
</g>
</g>
<!-- Node1&#45;&gt;Node32 -->
<g id="edge31_Node000001_Node000032" class="edge">
<title>Node1&#45;&gt;Node32</title>
<g id="a_edge31_Node000001_Node000032"><a xlink:title=" ">
<path fill="none" stroke="#63b8ff" d="M2607.55,-140.98C2909.74,-131.59 3969.12,-98.66 4276.38,-89.11"/>
<polygon fill="#63b8ff" stroke="#63b8ff" points="2607.44,-137.48 2597.55,-141.29 2607.66,-144.48 2607.44,-137.48"/>
</a>
</g>
</g>
<!-- Node35 -->
<g id="Node000035" class="node">
<title>Node35</title>
<g id="a_Node000035"><a xlink:href="EspWifi_8h.html" target="_top" xlink:title="Advanced ESP32 implementation of the unified BaseWifi class with ESP&#45;IDF v5.5+ features.">
<polygon fill="white" stroke="#666666" points="4852.5,-97 4686.5,-97 4686.5,-74 4852.5,-74 4852.5,-97"/>
<text text-anchor="middle" x="4769.5" y="-81.8" font-family="Arial" font-size="14.00">inc/mcu/esp32/EspWifi.h</text>
</a>
</g>
</g>
<!-- Node1&#45;&gt;Node35 -->
<g id="edge34_Node000001_Node000035" class="edge">
<title>Node1&#45;&gt;Node35</title>
<g id="a_edge34_Node000001_Node000035"><a xlink:title=" ">
<path fill="none" stroke="#63b8ff" d="M2608.14,-141.8C2873.91,-136.19 3738.42,-117.51 4453.5,-97 4532.51,-94.73 4622.62,-91.7 4686.34,-89.47"/>
<polygon fill="#63b8ff" stroke="#63b8ff" points="2607.73,-138.3 2597.81,-142.01 2607.88,-145.3 2607.73,-138.3"/>
</a>
</g>
</g>
<!-- Node3 -->
<g id="Node000003" class="node">
<title>Node3</title>
<g id="a_Node000003"><a xlink:href="AdcComprehensiveTest_8cpp.html" target="_top" xlink:title="Comprehensive ADC testing suite for ESP32&#45;C6 DevKit&#45;M&#45;1 (noexcept)">
<polygon fill="white" stroke="#666666" points="189,-38 0,-38 0,0 189,0 189,-38"/>
<text text-anchor="start" x="8" y="-22.8" font-family="Arial" font-size="14.00">examples/esp32/main</text>
<text text-anchor="middle" x="94.5" y="-7.8" font-family="Arial" font-size="14.00">/AdcComprehensiveTest.cpp</text>
</a>
</g>
</g>
<!-- Node2&#45;&gt;Node3 -->
<g id="edge2_Node000002_Node000003" class="edge">
<title>Node2&#45;&gt;Node3</title>
<g id="a_edge2_Node000002_Node000003"><a xlink:title=" ">
<path fill="none" stroke="#63b8ff" d="M254.67,-70.89C224.62,-61.34 184.12,-48.48 151.37,-38.07"/>
<polygon fill="#63b8ff" stroke="#63b8ff" points="253.84,-74.3 264.43,-73.99 255.96,-67.63 253.84,-74.3"/>
</a>
</g>
</g>
<!-- Node4 -->
<g id="Node000004" class="node">
<title>Node4</title>
<g id="a_Node000004"><a xlink:href="EspAdc_8cpp.html" target="_top" xlink:title="ESP32 ADC implementation for the HardFOC system.">
<polygon fill="white" stroke="#666666" points="388,-30.5 207,-30.5 207,-7.5 388,-7.5 388,-30.5"/>
<text text-anchor="middle" x="297.5" y="-15.3" font-family="Arial" font-size="14.00">src/mcu/esp32/EspAdc.cpp</text>
</a>
</g>
</g>
<!-- Node2&#45;&gt;Node4 -->
<g id="edge3_Node000002_Node000004" class="edge">
<title>Node2&#45;&gt;Node4</title>
<g id="a_edge3_Node000002_Node000004"><a xlink:title=" ">
<path fill="none" stroke="#63b8ff" d="M297.5,-63.81C297.5,-52.86 297.5,-39.86 297.5,-30.88"/>
<polygon fill="#63b8ff" stroke="#63b8ff" points="294,-63.85 297.5,-73.85 301,-63.85 294,-63.85"/>
</a>
</g>
</g>
<!-- Node6 -->
<g id="Node000006" class="node">
<title>Node6</title>
<g id="a_Node000006"><a xlink:href="BluetoothComprehensiveTest_8cpp.html" target="_top" xlink:title="Comprehensive Bluetooth/NimBLE testing suite for ESP32&#45;C6 DevKit&#45;M&#45;1 (noexcept)">
<polygon fill="white" stroke="#666666" points="629,-38 406,-38 406,0 629,0 629,-38"/>
<text text-anchor="start" x="414" y="-22.8" font-family="Arial" font-size="14.00">examples/esp32/main</text>
<text text-anchor="middle" x="517.5" y="-7.8" font-family="Arial" font-size="14.00">/BluetoothComprehensiveTest.cpp</text>
</a>
</g>
</g>
<!-- Node5&#45;&gt;Node6 -->
<g id="edge5_Node000005_Node000006" class="edge">
<title>Node5&#45;&gt;Node6</title>
<g id="a_edge5_Node000005_Node000006"><a xlink:title=" ">
<path fill="none" stroke="#63b8ff" d="M705.86,-71.26C670.65,-61.68 622.63,-48.61 583.89,-38.07"/>
<polygon fill="#63b8ff" stroke="#63b8ff" points="705.33,-74.74 715.89,-73.99 707.16,-67.99 705.33,-74.74"/>
</a>
</g>
</g>
<!-- Node7 -->
<g id="Node000007" class="node">
<title>Node7</title>
<g id="a_Node000007"><a xlink:href="EspBluetooth_8cpp.html" target="_top" xlink:title="ESP32 Bluetooth implementation using NimBLE for BLE&#45;only support (ESP32C6)">
<polygon fill="white" stroke="#666666" points="862,-30.5 647,-30.5 647,-7.5 862,-7.5 862,-30.5"/>
<text text-anchor="middle" x="754.5" y="-15.3" font-family="Arial" font-size="14.00">src/mcu/esp32/EspBluetooth.cpp</text>
</a>
</g>
</g>
<!-- Node5&#45;&gt;Node7 -->
<g id="edge6_Node000005_Node000007" class="edge">
<title>Node5&#45;&gt;Node7</title>
<g id="a_edge6_Node000005_Node000007"><a xlink:title=" ">
<path fill="none" stroke="#63b8ff" d="M754.5,-63.81C754.5,-52.86 754.5,-39.86 754.5,-30.88"/>
<polygon fill="#63b8ff" stroke="#63b8ff" points="751,-63.85 754.5,-73.85 758,-63.85 751,-63.85"/>
</a>
</g>
</g>
<!-- Node9 -->
<g id="Node000009" class="node">
<title>Node9</title>
<g id="a_Node000009"><a xlink:href="CanComprehensiveTest_8cpp.html" target="_top" xlink:title="Comprehensive CAN testing suite for ESP32&#45;C6 with ESP&#45;IDF v5.5 TWAI API and SN65 transceiver.">
<polygon fill="white" stroke="#666666" points="1071,-38 880,-38 880,0 1071,0 1071,-38"/>
<text text-anchor="start" x="888" y="-22.8" font-family="Arial" font-size="14.00">examples/esp32/main</text>
<text text-anchor="middle" x="975.5" y="-7.8" font-family="Arial" font-size="14.00">/CanComprehensiveTest.cpp</text>
</a>
</g>
</g>
<!-- Node8&#45;&gt;Node9 -->
<g id="edge8_Node000008_Node000009" class="edge">
<title>Node8&#45;&gt;Node9</title>
<g id="a_edge8_Node000008_Node000009"><a xlink:title=" ">
<path fill="none" stroke="#63b8ff" d="M1137.25,-70.89C1106.9,-61.34 1066,-48.48 1032.93,-38.07"/>
<polygon fill="#63b8ff" stroke="#63b8ff" points="1136.52,-74.33 1147.11,-73.99 1138.62,-67.65 1136.52,-74.33"/>
</a>
</g>
</g>
<!-- Node10 -->
<g id="Node000010" class="node">
<title>Node10</title>
<g id="a_Node000010"><a xlink:href="EspCan_8cpp.html" target="_top" xlink:title="ESP32 CAN (TWAI) implementation for the HardFOC system &#45; ESP&#45;IDF v5.5 Compatible.">
<polygon fill="white" stroke="#666666" points="1271.5,-30.5 1089.5,-30.5 1089.5,-7.5 1271.5,-7.5 1271.5,-30.5"/>
<text text-anchor="middle" x="1180.5" y="-15.3" font-family="Arial" font-size="14.00">src/mcu/esp32/EspCan.cpp</text>
</a>
</g>
</g>
<!-- Node8&#45;&gt;Node10 -->
<g id="edge9_Node000008_Node000010" class="edge">
<title>Node8&#45;&gt;Node10</title>
<g id="a_edge9_Node000008_Node000010"><a xlink:title=" ">
<path fill="none" stroke="#63b8ff" d="M1180.5,-63.81C1180.5,-52.86 1180.5,-39.86 1180.5,-30.88"/>
<polygon fill="#63b8ff" stroke="#63b8ff" points="1177,-63.85 1180.5,-73.85 1184,-63.85 1177,-63.85"/>
</a>
</g>
</g>
<!-- Node12 -->
<g id="Node000012" class="node">
<title>Node12</title>
<g id="a_Node000012"><a xlink:href="I2cComprehensiveTest_8cpp.html" target="_top" xlink:title="Comprehensive I2C testing suite for ESP32&#45;C6 DevKit&#45;M&#45;1 (noexcept)">
<polygon fill="white" stroke="#666666" points="1473.5,-38 1289.5,-38 1289.5,0 1473.5,0 1473.5,-38"/>
<text text-anchor="start" x="1297.5" y="-22.8" font-family="Arial" font-size="14.00">examples/esp32/main</text>
<text text-anchor="middle" x="1381.5" y="-7.8" font-family="Arial" font-size="14.00">/I2cComprehensiveTest.cpp</text>
</a>
</g>
</g>
<!-- Node11&#45;&gt;Node12 -->
<g id="edge11_Node000011_Node000012" class="edge">
<title>Node11&#45;&gt;Node12</title>
<g id="a_edge11_Node000011_Node000012"><a xlink:title=" ">
<path fill="none" stroke="#63b8ff" d="M1537.72,-70.89C1508.41,-61.34 1468.91,-48.48 1436.97,-38.07"/>
<polygon fill="#63b8ff" stroke="#63b8ff" points="1536.65,-74.22 1547.25,-73.99 1538.82,-67.57 1536.65,-74.22"/>
</a>
</g>
</g>
<!-- Node13 -->
<g id="Node000013" class="node">
<title>Node13</title>
<g id="a_Node000013"><a xlink:href="EspI2c_8cpp.html" target="_top" xlink:title="Implementation of ESP32&#45;integrated I2C controller with proper bus&#45;device architecture.">
<polygon fill="white" stroke="#666666" points="1667.5,-30.5 1491.5,-30.5 1491.5,-7.5 1667.5,-7.5 1667.5,-30.5"/>
<text text-anchor="middle" x="1579.5" y="-15.3" font-family="Arial" font-size="14.00">src/mcu/esp32/EspI2c.cpp</text>
</a>
</g>
</g>
<!-- Node11&#45;&gt;Node13 -->
<g id="edge12_Node000011_Node000013" class="edge">
<title>Node11&#45;&gt;Node13</title>
<g id="a_edge12_Node000011_Node000013"><a xlink:title=" ">
<path fill="none" stroke="#63b8ff" d="M1579.5,-63.81C1579.5,-52.86 1579.5,-39.86 1579.5,-30.88"/>
<polygon fill="#63b8ff" stroke="#63b8ff" points="1576,-63.85 1579.5,-73.85 1583,-63.85 1576,-63.85"/>
</a>
</g>
</g>
<!-- Node15 -->
<g id="Node000015" class="node">
<title>Node15</title>
<g id="a_Node000015"><a xlink:href="LoggerComprehensiveTest_8cpp.html" target="_top" xlink:title="Comprehensive Logger testing suite for ESP32&#45;C6 DevKit&#45;M&#45;1 (noexcept)">
<polygon fill="white" stroke="#666666" points="1893.5,-38 1685.5,-38 1685.5,0 1893.5,0 1893.5,-38"/>
<text text-anchor="start" x="1693.5" y="-22.8" font-family="Arial" font-size="14.00">examples/esp32/main</text>
<text text-anchor="middle" x="1789.5" y="-7.8" font-family="Arial" font-size="14.00">/LoggerComprehensiveTest.cpp</text>
</a>
</g>
</g>
<!-- Node14&#45;&gt;Node15 -->
<g id="edge14_Node000014_Node000015" class="edge">
<title>Node14&#45;&gt;Node15</title>
<g id="a_edge14_Node000014_Node000015"><a xlink:title=" ">
<path fill="none" stroke="#63b8ff" d="M1965.51,-71.14C1932.57,-61.57 1887.82,-48.57 1851.69,-38.07"/>
<polygon fill="#63b8ff" stroke="#63b8ff" points="1964.76,-74.56 1975.34,-73.99 1966.71,-67.84 1964.76,-74.56"/>
</a>
</g>
</g>
<!-- Node16 -->
<g id="Node000016" class="node">
<title>Node16</title>
<g id="a_Node000016"><a xlink:href="EspLogger_8cpp.html" target="_top" xlink:title="Implementation of ESP32 logger for the HardFOC system.">
<polygon fill="white" stroke="#666666" points="2111,-30.5 1912,-30.5 1912,-7.5 2111,-7.5 2111,-30.5"/>
<text text-anchor="middle" x="2011.5" y="-15.3" font-family="Arial" font-size="14.00">src/mcu/esp32/EspLogger.cpp</text>
</a>
</g>
</g>
<!-- Node14&#45;&gt;Node16 -->
<g id="edge15_Node000014_Node000016" class="edge">
<title>Node14&#45;&gt;Node16</title>
<g id="a_edge15_Node000014_Node000016"><a xlink:title=" ">
<path fill="none" stroke="#63b8ff" d="M2011.5,-63.81C2011.5,-52.86 2011.5,-39.86 2011.5,-30.88"/>
<polygon fill="#63b8ff" stroke="#63b8ff" points="2008,-63.85 2011.5,-73.85 2015,-63.85 2008,-63.85"/>
</a>
</g>
</g>
<!-- Node18 -->
<g id="Node000018" class="node">
<title>Node18</title>
<g id="a_Node000018"><a xlink:href="NvsComprehensiveTest_8cpp.html" target="_top" xlink:title="Comprehensive NVS (Non&#45;Volatile Storage) testing suite for ESP32&#45;C6 DevKit&#45;M&#45;1 (noexcept)">
<polygon fill="white" stroke="#666666" points="2318,-38 2129,-38 2129,0 2318,0 2318,-38"/>
<text text-anchor="start" x="2137" y="-22.8" font-family="Arial" font-size="14.00">examples/esp32/main</text>
<text text-anchor="middle" x="2223.5" y="-7.8" font-family="Arial" font-size="14.00">/NvsComprehensiveTest.cpp</text>
</a>
</g>
</g>
<!-- Node17&#45;&gt;Node18 -->
<g id="edge17_Node000017_Node000018" class="edge">
<title>Node17&#45;&gt;Node18</title>
<g id="a_edge17_Node000017_Node000018"><a xlink:title=" ">
<path fill="none" stroke="#63b8ff" d="M2383.67,-70.89C2353.62,-61.34 2313.12,-48.48 2280.37,-38.07"/>
<polygon fill="#63b8ff" stroke="#63b8ff" points="2382.84,-74.3 2393.43,-73.99 2384.96,-67.63 2382.84,-74.3"/>
</a>
</g>
</g>
<!-- Node19 -->
<g id="Node000019" class="node">
<title>Node19</title>
<g id="a_Node000019"><a xlink:href="EspNvs_8cpp.html" target="_top" xlink:title="World&#45;class ESP32&#45;C6 NVS implementation with ESP&#45;IDF v5.5+ advanced features.">
<polygon fill="white" stroke="#666666" points="2517,-30.5 2336,-30.5 2336,-7.5 2517,-7.5 2517,-30.5"/>
<text text-anchor="middle" x="2426.5" y="-15.3" font-family="Arial" font-size="14.00">src/mcu/esp32/EspNvs.cpp</text>
</a>
</g>
</g>
<!-- Node17&#45;&gt;Node19 -->
<g id="edge18_Node000017_Node000019" class="edge">
<title>Node17&#45;&gt;Node19</title>
<g id="a_edge18_Node000017_Node000019"><a xlink:title=" ">
<path fill="none" stroke="#63b8ff" d="M2426.5,-63.81C2426.5,-52.86 2426.5,-39.86 2426.5,-30.88"/>
<polygon fill="#63b8ff" stroke="#63b8ff" points="2423,-63.85 2426.5,-73.85 2430,-63.85 2423,-63.85"/>
</a>
</g>
</g>
<!-- Node21 -->
<g id="Node000021" class="node">
<title>Node21</title>
<g id="a_Node000021"><a xlink:href="PioComprehensiveTest_8cpp.html" target="_top" xlink:title="Comprehensive PIO testing suite for ESP32&#45;C6 DevKit&#45;M&#45;1 with RMT peripheral (noexcept)">
<polygon fill="white" stroke="#666666" points="2720,-38 2535,-38 2535,0 2720,0 2720,-38"/>
<text text-anchor="start" x="2543" y="-22.8" font-family="Arial" font-size="14.00">examples/esp32/main</text>
<text text-anchor="middle" x="2627.5" y="-7.8" font-family="Arial" font-size="14.00">/PioComprehensiveTest.cpp</text>
</a>
</g>
</g>
<!-- Node20&#45;&gt;Node21 -->
<g id="edge20_Node000020_Node000021" class="edge">
<title>Node20&#45;&gt;Node21</title>
<g id="a_edge20_Node000020_Node000021"><a xlink:title=" ">
<path fill="none" stroke="#63b8ff" d="M2627.5,-63.63C2627.5,-55.45 2627.5,-46.15 2627.5,-38.24"/>
<polygon fill="#63b8ff" stroke="#63b8ff" points="2624,-63.85 2627.5,-73.85 2631,-63.85 2624,-63.85"/>
</a>
</g>
</g>
<!-- Node22 -->
<g id="Node000022" class="node">
<title>Node22</title>
<g id="a_Node000022"><a xlink:href="EspPio_8cpp.html" target="_top" xlink:title="ESP32C6 RMT&#45;based Programmable IO Channel implementation.">
<polygon fill="white" stroke="#666666" points="2915,-30.5 2738,-30.5 2738,-7.5 2915,-7.5 2915,-30.5"/>
<text text-anchor="middle" x="2826.5" y="-15.3" font-family="Arial" font-size="14.00">src/mcu/esp32/EspPio.cpp</text>
</a>
</g>
</g>
<!-- Node20&#45;&gt;Node22 -->
<g id="edge21_Node000020_Node000022" class="edge">
<title>Node20&#45;&gt;Node22</title>
<g id="a_edge21_Node000020_Node000022"><a xlink:title=" ">
<path fill="none" stroke="#63b8ff" d="M2669.46,-70.9C2706.64,-58.85 2760.13,-41.51 2794.1,-30.5"/>
<polygon fill="#63b8ff" stroke="#63b8ff" points="2668.35,-67.58 2659.92,-73.99 2670.51,-74.24 2668.35,-67.58"/>
</a>
</g>
</g>
<!-- Node24 -->
<g id="Node000024" class="node">
<title>Node24</title>
<g id="a_Node000024"><a xlink:href="PwmComprehensiveTest_8cpp.html" target="_top" xlink:title="Comprehensive PWM testing suite for ESP32 family (noexcept)">
<polygon fill="white" stroke="#666666" points="3130,-38 2933,-38 2933,0 3130,0 3130,-38"/>
<text text-anchor="start" x="2941" y="-22.8" font-family="Arial" font-size="14.00">examples/esp32/main</text>
<text text-anchor="middle" x="3031.5" y="-7.8" font-family="Arial" font-size="14.00">/PwmComprehensiveTest.cpp</text>
</a>
</g>
</g>
<!-- Node23&#45;&gt;Node24 -->
<g id="edge23_Node000023_Node000024" class="edge">
<title>Node23&#45;&gt;Node24</title>
<g id="a_edge23_Node000023_Node000024"><a xlink:title=" ">
<path fill="none" stroke="#63b8ff" d="M3031.5,-63.63C3031.5,-55.45 3031.5,-46.15 3031.5,-38.24"/>
<polygon fill="#63b8ff" stroke="#63b8ff" points="3028,-63.85 3031.5,-73.85 3035,-63.85 3028,-63.85"/>
</a>
</g>
</g>
<!-- Node25 -->
<g id="Node000025" class="node">
<title>Node25</title>
<g id="a_Node000025"><a xlink:href="EspPwm_8cpp.html" target="_top" xlink:title="Implementation of ESP32 family LEDC (PWM) controller for the HardFOC system.">
<polygon fill="white" stroke="#666666" points="3336.5,-30.5 3148.5,-30.5 3148.5,-7.5 3336.5,-7.5 3336.5,-30.5"/>
<text text-anchor="middle" x="3242.5" y="-15.3" font-family="Arial" font-size="14.00">src/mcu/esp32/EspPwm.cpp</text>
</a>
</g>
</g>
<!-- Node23&#45;&gt;Node25 -->
<g id="edge24_Node000023_Node000025" class="edge">
<title>Node23&#45;&gt;Node25</title>
<g id="a_edge24_Node000023_Node000025"><a xlink:title=" ">
<path fill="none" stroke="#63b8ff" d="M3075.49,-71.05C3114.93,-59 3171.98,-41.56 3208.14,-30.5"/>
<polygon fill="#63b8ff" stroke="#63b8ff" points="3074.41,-67.72 3065.87,-73.99 3076.46,-74.42 3074.41,-67.72"/>
</a>
</g>
</g>
<!-- Node27 -->
<g id="Node000027" class="node">
<title>Node27</title>
<g id="a_Node000027"><a xlink:href="SpiComprehensiveTest_8cpp.html" target="_top" xlink:title="Comprehensive SPI testing suite for ESP32&#45;C6 DevKit&#45;M&#45;1 (noexcept)">
<polygon fill="white" stroke="#666666" points="3540,-38 3355,-38 3355,0 3540,0 3540,-38"/>
<text text-anchor="start" x="3363" y="-22.8" font-family="Arial" font-size="14.00">examples/esp32/main</text>
<text text-anchor="middle" x="3447.5" y="-7.8" font-family="Arial" font-size="14.00">/SpiComprehensiveTest.cpp</text>
</a>
</g>
</g>
<!-- Node26&#45;&gt;Node27 -->
<g id="edge26_Node000026_Node000027" class="edge">
<title>Node26&#45;&gt;Node27</title>
<g id="a_edge26_Node000026_Node000027"><a xlink:title=" ">
<path fill="none" stroke="#63b8ff" d="M3447.5,-63.63C3447.5,-55.45 3447.5,-46.15 3447.5,-38.24"/>
<polygon fill="#63b8ff" stroke="#63b8ff" points="3444,-63.85 3447.5,-73.85 3451,-63.85 3444,-63.85"/>
</a>
</g>
</g>
<!-- Node28 -->
<g id="Node000028" class="node">
<title>Node28</title>
<g id="a_Node000028"><a xlink:href="EspSpi_8cpp.html" target="_top" xlink:title="Implementation of MCU&#45;integrated SPI controller for ESP32C6 with ESP&#45;IDF v5.5+ features.">
<polygon fill="white" stroke="#666666" points="3735,-30.5 3558,-30.5 3558,-7.5 3735,-7.5 3735,-30.5"/>
<text text-anchor="middle" x="3646.5" y="-15.3" font-family="Arial" font-size="14.00">src/mcu/esp32/EspSpi.cpp</text>
</a>
</g>
</g>
<!-- Node26&#45;&gt;Node28 -->
<g id="edge27_Node000026_Node000028" class="edge">
<title>Node26&#45;&gt;Node28</title>
<g id="a_edge27_Node000026_Node000028"><a xlink:title=" ">
<path fill="none" stroke="#63b8ff" d="M3489.46,-70.9C3526.64,-58.85 3580.13,-41.51 3614.1,-30.5"/>
<polygon fill="#63b8ff" stroke="#63b8ff" points="3488.35,-67.58 3479.92,-73.99 3490.51,-74.24 3488.35,-67.58"/>
</a>
</g>
</g>
<!-- Node30 -->
<g id="Node000030" class="node">
<title>Node30</title>
<g id="a_Node000030"><a xlink:href="TemperatureComprehensiveTest_8cpp.html" target="_top" xlink:title="Comprehensive Temperature sensor testing suite for ESP32&#45;C6 DevKit&#45;M&#45;1 (noexcept)">
<polygon fill="white" stroke="#666666" points="3994.5,-38 3752.5,-38 3752.5,0 3994.5,0 3994.5,-38"/>
<text text-anchor="start" x="3760.5" y="-22.8" font-family="Arial" font-size="14.00">examples/esp32/main</text>
<text text-anchor="middle" x="3873.5" y="-7.8" font-family="Arial" font-size="14.00">/TemperatureComprehensiveTest.cpp</text>
</a>
</g>
</g>
<!-- Node29&#45;&gt;Node30 -->
<g id="edge29_Node000029_Node000030" class="edge">
<title>Node29&#45;&gt;Node30</title>
<g id="a_edge29_Node000029_Node000030"><a xlink:title=" ">
<path fill="none" stroke="#63b8ff" d="M3873.5,-63.63C3873.5,-55.45 3873.5,-46.15 3873.5,-38.24"/>
<polygon fill="#63b8ff" stroke="#63b8ff" points="3870,-63.85 3873.5,-73.85 3877,-63.85 3870,-63.85"/>
</a>
</g>
</g>
<!-- Node31 -->
<g id="Node000031" class="node">
<title>Node31</title>
<g id="a_Node000031"><a xlink:href="EspTemperature_8cpp.html" target="_top" xlink:title="ESP32&#45;C6 internal temperature sensor implementation for the HardFOC system.">
<polygon fill="white" stroke="#666666" points="4246.5,-30.5 4012.5,-30.5 4012.5,-7.5 4246.5,-7.5 4246.5,-30.5"/>
<text text-anchor="middle" x="4129.5" y="-15.3" font-family="Arial" font-size="14.00">src/mcu/esp32/EspTemperature.cpp</text>
</a>
</g>
</g>
<!-- Node29&#45;&gt;Node31 -->
<g id="edge30_Node000029_Node000031" class="edge">
<title>Node29&#45;&gt;Node31</title>
<g id="a_edge30_Node000029_Node000031"><a xlink:title=" ">
<path fill="none" stroke="#63b8ff" d="M3925.06,-71.51C3972.96,-59.44 4043.38,-41.7 4087.82,-30.5"/>
<polygon fill="#63b8ff" stroke="#63b8ff" points="3924.04,-68.16 3915.2,-73.99 3925.75,-74.94 3924.04,-68.16"/>
</a>
</g>
</g>
<!-- Node33 -->
<g id="Node000033" class="node">
<title>Node33</title>
<g id="a_Node000033"><a xlink:href="UartComprehensiveTest_8cpp.html" target="_top" xlink:title="Comprehensive UART testing suite for ESP32&#45;C6 DevKit&#45;M&#45;1 (noexcept)">
<polygon fill="white" stroke="#666666" points="4456,-38 4265,-38 4265,0 4456,0 4456,-38"/>
<text text-anchor="start" x="4273" y="-22.8" font-family="Arial" font-size="14.00">examples/esp32/main</text>
<text text-anchor="middle" x="4360.5" y="-7.8" font-family="Arial" font-size="14.00">/UartComprehensiveTest.cpp</text>
</a>
</g>
</g>
<!-- Node32&#45;&gt;Node33 -->
<g id="edge32_Node000032_Node000033" class="edge">
<title>Node32&#45;&gt;Node33</title>
<g id="a_edge32_Node000032_Node000033"><a xlink:title=" ">
<path fill="none" stroke="#63b8ff" d="M4360.5,-63.63C4360.5,-55.45 4360.5,-46.15 4360.5,-38.24"/>
<polygon fill="#63b8ff" stroke="#63b8ff" points="4357,-63.85 4360.5,-73.85 4364,-63.85 4357,-63.85"/>
</a>
</g>
</g>
<!-- Node34 -->
<g id="Node000034" class="node">
<title>Node34</title>
<g id="a_Node000034"><a xlink:href="EspUart_8cpp.html" target="_top" xlink:title="Implementation of ESP32 UART controller for the HardFOC system.">
<polygon fill="white" stroke="#666666" points="4657,-30.5 4474,-30.5 4474,-7.5 4657,-7.5 4657,-30.5"/>
<text text-anchor="middle" x="4565.5" y="-15.3" font-family="Arial" font-size="14.00">src/mcu/esp32/EspUart.cpp</text>
</a>
</g>
</g>
<!-- Node32&#45;&gt;Node34 -->
<g id="edge33_Node000032_Node000034" class="edge">
<title>Node32&#45;&gt;Node34</title>
<g id="a_edge33_Node000032_Node000034"><a xlink:title=" ">
<path fill="none" stroke="#63b8ff" d="M4403.73,-70.9C4442.02,-58.85 4497.13,-41.51 4532.12,-30.5"/>
<polygon fill="#63b8ff" stroke="#63b8ff" points="4402.38,-67.65 4393.89,-73.99 4404.48,-74.33 4402.38,-67.65"/>
</a>
</g>
</g>
<!-- Node36 -->
<g id="Node000036" class="node">
<title>Node36</title>
<g id="a_Node000036"><a xlink:href="WifiComprehensiveTest_8cpp.html" target="_top" xlink:title="Comprehensive WiFi testing suite for ESP32&#45;C6 DevKit&#45;M&#45;1 with ESP&#45;IDF v5.5f.">
<polygon fill="white" stroke="#666666" points="4864,-38 4675,-38 4675,0 4864,0 4864,-38"/>
<text text-anchor="start" x="4683" y="-22.8" font-family="Arial" font-size="14.00">examples/esp32/main</text>
<text text-anchor="middle" x="4769.5" y="-7.8" font-family="Arial" font-size="14.00">/WifiComprehensiveTest.cpp</text>
</a>
</g>
</g>
<!-- Node35&#45;&gt;Node36 -->
<g id="edge35_Node000035_Node000036" class="edge">
<title>Node35&#45;&gt;Node36</title>
<g id="a_edge35_Node000035_Node000036"><a xlink:title=" ">
<path fill="none" stroke="#63b8ff" d="M4769.5,-63.63C4769.5,-55.45 4769.5,-46.15 4769.5,-38.24"/>
<polygon fill="#63b8ff" stroke="#63b8ff" points="4766,-63.85 4769.5,-73.85 4773,-63.85 4766,-63.85"/>
</a>
</g>
</g>
<!-- Node37 -->
<g id="Node000037" class="node">
<title>Node37</title>
<g id="a_Node000037"><a xlink:href="EspWifi_8cpp.html" target="_top" xlink:title="Advanced ESP32 implementation of the unified BaseWifi class with ESP&#45;IDF v5.5+ features.">
<polygon fill="white" stroke="#666666" points="5063,-30.5 4882,-30.5 4882,-7.5 5063,-7.5 5063,-30.5"/>
<text text-anchor="middle" x="4972.5" y="-15.3" font-family="Arial" font-size="14.00">src/mcu/esp32/EspWifi.cpp</text>
</a>
</g>
</g>
<!-- Node35&#45;&gt;Node37 -->
<g id="edge36_Node000035_Node000037" class="edge">
<title>Node35&#45;&gt;Node37</title>
<g id="a_edge36_Node000035_Node000037"><a xlink:title=" ">
<path fill="none" stroke="#63b8ff" d="M4812.31,-70.9C4850.23,-58.85 4904.8,-41.51 4939.45,-30.5"/>
<polygon fill="#63b8ff" stroke="#63b8ff" points="4811.04,-67.63 4802.57,-73.99 4813.16,-74.3 4811.04,-67.63"/>
</a>
</g>
</g>
</g>
</svg>
