<?xml version="1.0" encoding="UTF-8" standalone="no"?>
<!DOCTYPE svg PUBLIC "-//W3C//DTD SVG 1.1//EN"
 "http://www.w3.org/Graphics/SVG/1.1/DTD/svg11.dtd">
<!-- Generated by graphviz version 2.43.0 (0)
 -->
<!-- Title: examples/esp32/main/WifiComprehensiveTest.cpp Pages: 1 -->
<!--zoomable 400 -->

<svg id="main" version="1.1" xmlns="http://www.w3.org/2000/svg" xmlns:xlink="http://www.w3.org/1999/xlink" xml:space="preserve" onload="init(evt)">
<style type="text/css"><![CDATA[
.node, .edge {opacity: 0.7;}
.node.selected, .edge.selected {opacity: 1;}
.edge:hover path { stroke: red; }
.edge:hover polygon { stroke: red; fill: red; }
]]></style>

<defs>
  <circle id="rim" cx="0" cy="0" r="7"/>
  <circle id="rim2" cx="0" cy="0" r="3.5"/>
  <g id="zoomPlus">
    <use xlink:href="#rim" fill="#404040"><set attributeName="fill" to="#808080" begin="zoomplus.mouseover" end="zoomplus.mouseout"/></use>
    <path d="M-4,0h8M0,-4v8" fill="none" stroke="white" stroke-width="1.5" pointer-events="none"/>
  </g>
  <g id="zoomMin">
    <use xlink:href="#rim" fill="#404040"><set attributeName="fill" to="#808080" begin="zoomminus.mouseover" end="zoomminus.mouseout"/></use>
    <path d="M-4,0h8" fill="none" stroke="white" stroke-width="1.5" pointer-events="none"/>
  </g>
  <g id="arrowUp" transform="translate(30 24)">
    <use xlink:href="#rim"/>
    <path pointer-events="none" fill="none" stroke="white" stroke-width="1.5" d="M0,-3.0v7 M-2.5,-0.5L0,-3.0L2.5,-0.5"/>
  </g>
  <g id="arrowRight" transform="rotate(90) translate(36 -43)">
    <use xlink:href="#rim"/>
    <path pointer-events="none" fill="none" stroke="white" stroke-width="1.5" d="M0,-3.0v7 M-2.5,-0.5L0,-3.0L2.5,-0.5"/>
  </g>
  <g id="arrowDown" transform="rotate(180) translate(-30 -48)">
    <use xlink:href="#rim"/>
    <path pointer-events="none" fill="none" stroke="white" stroke-width="1.5" d="M0,-3.0v7 M-2.5,-0.5L0,-3.0L2.5,-0.5"/>
  </g>
  <g id="arrowLeft" transform="rotate(270) translate(-36 17)">
    <use xlink:href="#rim"/>
    <path pointer-events="none" fill="none" stroke="white" stroke-width="1.5" d="M0,-3.0v7 M-2.5,-0.5L0,-3.0L2.5,-0.5"/>
  </g>
  <g id="resetDef">
    <use xlink:href="#rim2" fill="#404040"><set attributeName="fill" to="#808080" begin="reset.mouseover" end="reset.mouseout"/></use>
  </g>
</defs>
<script type="application/ecmascript">
var viewWidth = 2006;
var viewHeight = 400;
var sectionId = 'dynsection-0';
</script>
<script type="application/ecmascript" xlink:href="svg.min.js"/>
<svg id="graph" class="graph">
<g id="viewport">
<title>examples/esp32/main/WifiComprehensiveTest.cpp</title>
<!-- Node1 -->
<g id="Node000001" class="node">
<title>Node1</title>
<g id="a_Node000001"><a xlink:title="Comprehensive WiFi testing suite for ESP32&#45;C6 DevKit&#45;M&#45;1 with ESP&#45;IDF v5.5f.">
<polygon fill="#999999" stroke="#666666" points="1422.55,-392 1233.55,-392 1233.55,-354 1422.55,-354 1422.55,-392"/>
<text text-anchor="start" x="1241.55" y="-376.8" font-family="Arial" font-size="14.00">examples/esp32/main</text>
<text text-anchor="middle" x="1328.05" y="-361.8" font-family="Arial" font-size="14.00">/WifiComprehensiveTest.cpp</text>
</a>
</g>
</g>
<!-- Node2 -->
<g id="Node000002" class="node">
<title>Node2</title>
<g id="a_Node000002"><a xlink:href="TestFramework_8h.html" target="_top" xlink:title="Shared testing framework for ESP32&#45;C6 comprehensive test suites.">
<polygon fill="white" stroke="#666666" points="1388.55,-318 1267.55,-318 1267.55,-295 1388.55,-295 1388.55,-318"/>
<text text-anchor="middle" x="1328.05" y="-302.8" font-family="Arial" font-size="14.00">TestFramework.h</text>
</a>
</g>
</g>
<!-- Node1&#45;&gt;Node2 -->
<g id="edge1_Node000001_Node000002" class="edge">
<title>Node1&#45;&gt;Node2</title>
<g id="a_edge1_Node000001_Node000002"><a xlink:title=" ">
<path fill="none" stroke="#63b8ff" d="M1328.05,-353.69C1328.05,-345.8 1328.05,-336.54 1328.05,-328.39"/>
<polygon fill="#63b8ff" stroke="#63b8ff" points="1331.55,-328.19 1328.05,-318.19 1324.55,-328.19 1331.55,-328.19"/>
</a>
</g>
</g>
<!-- Node23 -->
<g id="Node000023" class="node">
<title>Node23</title>
<g id="a_Node000023"><a xlink:href="BaseWifi_8h.html" target="_top" xlink:title="Unified WiFi base class for all WiFi implementations.">
<polygon fill="white" stroke="#666666" points="1820.55,-141 1705.55,-141 1705.55,-118 1820.55,-118 1820.55,-141"/>
<text text-anchor="middle" x="1763.05" y="-125.8" font-family="Arial" font-size="14.00">base/BaseWifi.h</text>
</a>
</g>
</g>
<!-- Node1&#45;&gt;Node23 -->
<g id="edge29_Node000001_Node000023" class="edge">
<title>Node1&#45;&gt;Node23</title>
<g id="a_edge29_Node000001_Node000023"><a xlink:title=" ">
<path fill="none" stroke="#63b8ff" d="M1422.6,-370.25C1512.47,-363.45 1645.53,-339.23 1726.05,-259 1755.11,-230.05 1761.68,-179.87 1762.97,-151.54"/>
<polygon fill="#63b8ff" stroke="#63b8ff" points="1766.47,-151.27 1763.24,-141.18 1759.48,-151.09 1766.47,-151.27"/>
</a>
</g>
</g>
<!-- Node25 -->
<g id="Node000025" class="node">
<title>Node25</title>
<g id="a_Node000025"><a xlink:href="EspWifi_8h.html" target="_top" xlink:title="Advanced ESP32 implementation of the unified BaseWifi class with ESP&#45;IDF v5.5+ features.">
<polygon fill="white" stroke="#666666" points="852.55,-200 707.55,-200 707.55,-177 852.55,-177 852.55,-200"/>
<text text-anchor="middle" x="780.05" y="-184.8" font-family="Arial" font-size="14.00">mcu/esp32/EspWifi.h</text>
</a>
</g>
</g>
<!-- Node1&#45;&gt;Node25 -->
<g id="edge35_Node000001_Node000025" class="edge">
<title>Node1&#45;&gt;Node25</title>
<g id="a_edge35_Node000001_Node000025"><a xlink:title=" ">
<path fill="none" stroke="#63b8ff" d="M1273.76,-353.92C1164.23,-317.44 918.97,-235.76 821.32,-203.24"/>
<polygon fill="#63b8ff" stroke="#63b8ff" points="822.38,-199.91 811.79,-200.07 820.17,-206.55 822.38,-199.91"/>
</a>
</g>
</g>
<!-- Node3 -->
<g id="Node000003" class="node">
<title>Node3</title>
<g id="a_Node000003"><a xlink:title=" ">
<polygon fill="#e0e0e0" stroke="#999999" points="1422.55,-259 1347.55,-259 1347.55,-236 1422.55,-236 1422.55,-259"/>
<text text-anchor="middle" x="1385.05" y="-243.8" font-family="Arial" font-size="14.00">esp_log.h</text>
</a>
</g>
</g>
<!-- Node2&#45;&gt;Node3 -->
<g id="edge2_Node000002_Node000003" class="edge">
<title>Node2&#45;&gt;Node3</title>
<g id="a_edge2_Node000002_Node000003"><a xlink:title=" ">
<path fill="none" stroke="#63b8ff" d="M1338.77,-294.78C1346.74,-286.82 1357.78,-275.77 1367.08,-266.47"/>
<polygon fill="#63b8ff" stroke="#63b8ff" points="1369.78,-268.72 1374.38,-259.17 1364.83,-263.77 1369.78,-268.72"/>
</a>
</g>
</g>
<!-- Node4 -->
<g id="Node000004" class="node">
<title>Node4</title>
<g id="a_Node000004"><a xlink:title=" ">
<polygon fill="#e0e0e0" stroke="#999999" points="1527.55,-259 1440.55,-259 1440.55,-236 1527.55,-236 1527.55,-259"/>
<text text-anchor="middle" x="1484.05" y="-243.8" font-family="Arial" font-size="14.00">esp_timer.h</text>
</a>
</g>
</g>
<!-- Node2&#45;&gt;Node4 -->
<g id="edge3_Node000002_Node000004" class="edge">
<title>Node2&#45;&gt;Node4</title>
<g id="a_edge3_Node000002_Node000004"><a xlink:title=" ">
<path fill="none" stroke="#63b8ff" d="M1357.03,-294.91C1381.98,-285.79 1418.2,-272.56 1445.58,-262.56"/>
<polygon fill="#63b8ff" stroke="#63b8ff" points="1447.04,-265.75 1455.23,-259.03 1444.64,-259.18 1447.04,-265.75"/>
</a>
</g>
</g>
<!-- Node5 -->
<g id="Node000005" class="node">
<title>Node5</title>
<g id="a_Node000005"><a xlink:title=" ">
<polygon fill="#e0e0e0" stroke="#999999" points="1089.55,-82 946.55,-82 946.55,-59 1089.55,-59 1089.55,-82"/>
<text text-anchor="middle" x="1018.05" y="-66.8" font-family="Arial" font-size="14.00">freertos/FreeRTOS.h</text>
</a>
</g>
</g>
<!-- Node2&#45;&gt;Node5 -->
<g id="edge4_Node000002_Node000005" class="edge">
<title>Node2&#45;&gt;Node5</title>
<g id="a_edge4_Node000002_Node000005"><a xlink:title=" ">
<path fill="none" stroke="#63b8ff" d="M1288.22,-294.94C1261.72,-287.04 1226.66,-274.88 1198.05,-259 1124.19,-218.01 1100.86,-207.72 1049.05,-141 1037.58,-126.22 1029.31,-106.52 1024.21,-91.87"/>
<polygon fill="#63b8ff" stroke="#63b8ff" points="1027.5,-90.66 1021.06,-82.24 1020.85,-92.83 1027.5,-90.66"/>
</a>
</g>
</g>
<!-- Node6 -->
<g id="Node000006" class="node">
<title>Node6</title>
<g id="a_Node000006"><a xlink:title=" ">
<polygon fill="#e0e0e0" stroke="#999999" points="1329.55,-259 1214.55,-259 1214.55,-236 1329.55,-236 1329.55,-259"/>
<text text-anchor="middle" x="1272.05" y="-243.8" font-family="Arial" font-size="14.00">freertos/queue.h</text>
</a>
</g>
</g>
<!-- Node2&#45;&gt;Node6 -->
<g id="edge5_Node000002_Node000006" class="edge">
<title>Node2&#45;&gt;Node6</title>
<g id="a_edge5_Node000002_Node000006"><a xlink:title=" ">
<path fill="none" stroke="#63b8ff" d="M1317.52,-294.78C1309.7,-286.82 1298.85,-275.77 1289.71,-266.47"/>
<polygon fill="#63b8ff" stroke="#63b8ff" points="1292.04,-263.85 1282.54,-259.17 1287.05,-268.76 1292.04,-263.85"/>
</a>
</g>
</g>
<!-- Node7 -->
<g id="Node000007" class="node">
<title>Node7</title>
<g id="a_Node000007"><a xlink:title=" ">
<polygon fill="#e0e0e0" stroke="#999999" points="1542.05,-82 1420.05,-82 1420.05,-59 1542.05,-59 1542.05,-82"/>
<text text-anchor="middle" x="1481.05" y="-66.8" font-family="Arial" font-size="14.00">freertos/semphr.h</text>
</a>
</g>
</g>
<!-- Node2&#45;&gt;Node7 -->
<g id="edge6_Node000002_Node000007" class="edge">
<title>Node2&#45;&gt;Node7</title>
<g id="a_edge6_Node000002_Node000007"><a xlink:title=" ">
<path fill="none" stroke="#63b8ff" d="M1388.73,-302.37C1490.22,-296.52 1685.41,-282.34 1706.05,-259 1730.2,-231.7 1725.6,-207.76 1706.05,-177 1672.46,-124.15 1604.63,-97.32 1552.19,-83.99"/>
<polygon fill="#63b8ff" stroke="#63b8ff" points="1552.8,-80.53 1542.25,-81.57 1551.15,-87.33 1552.8,-80.53"/>
</a>
</g>
</g>
<!-- Node8 -->
<g id="Node000008" class="node">
<title>Node8</title>
<g id="a_Node000008"><a xlink:title=" ">
<polygon fill="#e0e0e0" stroke="#999999" points="483.05,-82 381.05,-82 381.05,-59 483.05,-59 483.05,-82"/>
<text text-anchor="middle" x="432.05" y="-66.8" font-family="Arial" font-size="14.00">freertos/task.h</text>
</a>
</g>
</g>
<!-- Node2&#45;&gt;Node8 -->
<g id="edge7_Node000002_Node000008" class="edge">
<title>Node2&#45;&gt;Node8</title>
<g id="a_edge7_Node000002_Node000008"><a xlink:title=" ">
<path fill="none" stroke="#63b8ff" d="M1267.53,-302.59C1019.64,-290.08 90.89,-237.04 6.05,-141 -43.27,-85.15 241.1,-74.13 370.49,-72"/>
<polygon fill="#63b8ff" stroke="#63b8ff" points="370.71,-75.49 380.66,-71.84 370.6,-68.49 370.71,-75.49"/>
</a>
</g>
</g>
<!-- Node9 -->
<g id="Node000009" class="node">
<title>Node9</title>
<g id="a_Node000009"><a xlink:href="HardwareTypes_8h.html" target="_top" xlink:title="Platform&#45;agnostic hardware type definitions for the HardFOC system.">
<polygon fill="white" stroke="#666666" points="1682.05,-82 1560.05,-82 1560.05,-59 1682.05,-59 1682.05,-82"/>
<text text-anchor="middle" x="1621.05" y="-66.8" font-family="Arial" font-size="14.00">HardwareTypes.h</text>
</a>
</g>
</g>
<!-- Node2&#45;&gt;Node9 -->
<g id="edge8_Node000002_Node000009" class="edge">
<title>Node2&#45;&gt;Node9</title>
<g id="a_edge8_Node000002_Node000009"><a xlink:title=" ">
<path fill="none" stroke="#63b8ff" d="M1268.08,-294.98C1230.21,-285.16 1191.03,-267.19 1206.05,-236 1224.31,-198.1 1243.05,-197.01 1280.05,-177 1353.73,-137.15 1379,-142.67 1459.05,-118 1497.19,-106.25 1540.68,-93.82 1572.98,-84.77"/>
<polygon fill="#63b8ff" stroke="#63b8ff" points="1573.94,-88.14 1582.63,-82.07 1572.06,-81.39 1573.94,-88.14"/>
</a>
</g>
</g>
<!-- Node12 -->
<g id="Node000012" class="node">
<title>Node12</title>
<g id="a_Node000012"><a xlink:href="EspGpio_8h.html" target="_top" xlink:title="Advanced MCU&#45;specific implementation of the unified BaseGpio class with ESP32C6/ESP&#45;IDF v5....">
<polygon fill="white" stroke="#666666" points="1696.55,-259 1545.55,-259 1545.55,-236 1696.55,-236 1696.55,-259"/>
<text text-anchor="middle" x="1621.05" y="-243.8" font-family="Arial" font-size="14.00">mcu/esp32/EspGpio.h</text>
</a>
</g>
</g>
<!-- Node2&#45;&gt;Node12 -->
<g id="edge11_Node000002_Node000012" class="edge">
<title>Node2&#45;&gt;Node12</title>
<g id="a_edge11_Node000002_Node000012"><a xlink:title=" ">
<path fill="none" stroke="#63b8ff" d="M1382.13,-294.98C1431.53,-285.37 1504.63,-271.15 1556.95,-260.97"/>
<polygon fill="#63b8ff" stroke="#63b8ff" points="1557.64,-264.4 1566.79,-259.06 1556.31,-257.53 1557.64,-264.4"/>
</a>
</g>
</g>
<!-- Node10 -->
<g id="Node000010" class="node">
<title>Node10</title>
<g id="a_Node000010"><a xlink:title=" ">
<polygon fill="#e0e0e0" stroke="#999999" points="1684.05,-23 1628.05,-23 1628.05,0 1684.05,0 1684.05,-23"/>
<text text-anchor="middle" x="1656.05" y="-7.8" font-family="Arial" font-size="14.00">cstdint</text>
</a>
</g>
</g>
<!-- Node9&#45;&gt;Node10 -->
<g id="edge9_Node000009_Node000010" class="edge">
<title>Node9&#45;&gt;Node10</title>
<g id="a_edge9_Node000009_Node000010"><a xlink:title=" ">
<path fill="none" stroke="#63b8ff" d="M1627.64,-58.78C1632.28,-51.22 1638.63,-40.87 1644.15,-31.88"/>
<polygon fill="#63b8ff" stroke="#63b8ff" points="1647.25,-33.53 1649.5,-23.17 1641.28,-29.86 1647.25,-33.53"/>
</a>
</g>
</g>
<!-- Node11 -->
<g id="Node000011" class="node">
<title>Node11</title>
<g id="a_Node000011"><a xlink:title=" ">
<polygon fill="#e0e0e0" stroke="#999999" points="1610.05,-23 1562.05,-23 1562.05,0 1610.05,0 1610.05,-23"/>
<text text-anchor="middle" x="1586.05" y="-7.8" font-family="Arial" font-size="14.00">limits</text>
</a>
</g>
</g>
<!-- Node9&#45;&gt;Node11 -->
<g id="edge10_Node000009_Node000011" class="edge">
<title>Node9&#45;&gt;Node11</title>
<g id="a_edge10_Node000009_Node000011"><a xlink:title=" ">
<path fill="none" stroke="#63b8ff" d="M1614.47,-58.78C1609.83,-51.22 1603.47,-40.87 1597.95,-31.88"/>
<polygon fill="#63b8ff" stroke="#63b8ff" points="1600.82,-29.86 1592.61,-23.17 1594.86,-33.53 1600.82,-29.86"/>
</a>
</g>
</g>
<!-- Node13 -->
<g id="Node000013" class="node">
<title>Node13</title>
<g id="a_Node000013"><a xlink:title=" ">
<polygon fill="#e0e0e0" stroke="#999999" points="1602.55,-200 1511.55,-200 1511.55,-177 1602.55,-177 1602.55,-200"/>
<text text-anchor="middle" x="1557.05" y="-184.8" font-family="Arial" font-size="14.00">driver/gpio.h</text>
</a>
</g>
</g>
<!-- Node12&#45;&gt;Node13 -->
<g id="edge12_Node000012_Node000013" class="edge">
<title>Node12&#45;&gt;Node13</title>
<g id="a_edge12_Node000012_Node000013"><a xlink:title=" ">
<path fill="none" stroke="#63b8ff" d="M1609.01,-235.78C1599.9,-227.66 1587.18,-216.33 1576.61,-206.92"/>
<polygon fill="#63b8ff" stroke="#63b8ff" points="1578.83,-204.21 1569.04,-200.17 1574.18,-209.44 1578.83,-204.21"/>
</a>
</g>
</g>
<!-- Node14 -->
<g id="Node000014" class="node">
<title>Node14</title>
<g id="a_Node000014"><a xlink:title=" ">
<polygon fill="#e0e0e0" stroke="#999999" points="1697.05,-200 1621.05,-200 1621.05,-177 1697.05,-177 1697.05,-200"/>
<text text-anchor="middle" x="1659.05" y="-184.8" font-family="Arial" font-size="14.00">esp_attr.h</text>
</a>
</g>
</g>
<!-- Node12&#45;&gt;Node14 -->
<g id="edge13_Node000012_Node000014" class="edge">
<title>Node12&#45;&gt;Node14</title>
<g id="a_edge13_Node000012_Node000014"><a xlink:title=" ">
<path fill="none" stroke="#63b8ff" d="M1628.2,-235.78C1633.3,-228.14 1640.28,-217.65 1646.32,-208.6"/>
<polygon fill="#63b8ff" stroke="#63b8ff" points="1649.3,-210.44 1651.94,-200.17 1643.48,-206.55 1649.3,-210.44"/>
</a>
</g>
</g>
<!-- Node15 -->
<g id="Node000015" class="node">
<title>Node15</title>
<g id="a_Node000015"><a xlink:href="BaseGpio_8h.html" target="_top" xlink:title="Unified GPIO base class for all digital GPIO implementations.">
<polygon fill="white" stroke="#666666" points="1927.05,-141 1839.05,-141 1839.05,-118 1927.05,-118 1927.05,-141"/>
<text text-anchor="middle" x="1883.05" y="-125.8" font-family="Arial" font-size="14.00">BaseGpio.h</text>
</a>
</g>
</g>
<!-- Node12&#45;&gt;Node15 -->
<g id="edge14_Node000012_Node000015" class="edge">
<title>Node12&#45;&gt;Node15</title>
<g id="a_edge14_Node000012_Node000015"><a xlink:title=" ">
<path fill="none" stroke="#63b8ff" d="M1645.23,-235.79C1692.34,-214.94 1796.47,-168.84 1849.94,-145.16"/>
<polygon fill="#63b8ff" stroke="#63b8ff" points="1851.58,-148.26 1859.31,-141.01 1848.75,-141.86 1851.58,-148.26"/>
</a>
</g>
</g>
<!-- Node18 -->
<g id="Node000018" class="node">
<title>Node18</title>
<g id="a_Node000018"><a xlink:href="EspTypes__GPIO_8h.html" target="_top" xlink:title="ESP32 GPIO type definitions for hardware abstraction.">
<polygon fill="white" stroke="#666666" points="1419.05,-200 1289.05,-200 1289.05,-177 1419.05,-177 1419.05,-200"/>
<text text-anchor="middle" x="1354.05" y="-184.8" font-family="Arial" font-size="14.00">EspTypes_GPIO.h</text>
</a>
</g>
</g>
<!-- Node12&#45;&gt;Node18 -->
<g id="edge19_Node000012_Node000018" class="edge">
<title>Node12&#45;&gt;Node18</title>
<g id="a_edge19_Node000012_Node000018"><a xlink:title=" ">
<path fill="none" stroke="#63b8ff" d="M1571.77,-235.98C1527.04,-226.43 1460.98,-212.33 1413.37,-202.16"/>
<polygon fill="#63b8ff" stroke="#63b8ff" points="1414.01,-198.72 1403.5,-200.06 1412.55,-205.57 1414.01,-198.72"/>
</a>
</g>
</g>
<!-- Node22 -->
<g id="Node000022" class="node">
<title>Node22</title>
<g id="a_Node000022"><a xlink:title=" ">
<polygon fill="#e0e0e0" stroke="#999999" points="1493.05,-200 1437.05,-200 1437.05,-177 1493.05,-177 1493.05,-200"/>
<text text-anchor="middle" x="1465.05" y="-184.8" font-family="Arial" font-size="14.00">stdio.h</text>
</a>
</g>
</g>
<!-- Node12&#45;&gt;Node22 -->
<g id="edge28_Node000012_Node000022" class="edge">
<title>Node12&#45;&gt;Node22</title>
<g id="a_edge28_Node000012_Node000022"><a xlink:title=" ">
<path fill="none" stroke="#63b8ff" d="M1592.08,-235.91C1566.89,-226.71 1530.22,-213.31 1502.75,-203.27"/>
<polygon fill="#63b8ff" stroke="#63b8ff" points="1503.68,-199.89 1493.09,-199.74 1501.28,-206.46 1503.68,-199.89"/>
</a>
</g>
</g>
<!-- Node15&#45;&gt;Node9 -->
<g id="edge15_Node000015_Node000009" class="edge">
<title>Node15&#45;&gt;Node9</title>
<g id="a_edge15_Node000015_Node000009"><a xlink:title=" ">
<path fill="none" stroke="#63b8ff" d="M1838.9,-118.9C1795.06,-109.36 1727.6,-94.68 1679.37,-84.19"/>
<polygon fill="#63b8ff" stroke="#63b8ff" points="1679.9,-80.72 1669.39,-82.02 1678.42,-87.56 1679.9,-80.72"/>
</a>
</g>
</g>
<!-- Node15&#45;&gt;Node10 -->
<g id="edge16_Node000015_Node000010" class="edge">
<title>Node15&#45;&gt;Node10</title>
<g id="a_edge16_Node000015_Node000010"><a xlink:title=" ">
<path fill="none" stroke="#63b8ff" d="M1926.74,-117.97C1966.14,-106.45 2014.55,-85.99 1991.05,-59 1952.95,-15.24 1774.03,-11.33 1694.42,-11.83"/>
<polygon fill="#63b8ff" stroke="#63b8ff" points="1694.29,-8.33 1684.32,-11.92 1694.35,-15.33 1694.29,-8.33"/>
</a>
</g>
</g>
<!-- Node16 -->
<g id="Node000016" class="node">
<title>Node16</title>
<g id="a_Node000016"><a xlink:title=" ">
<polygon fill="#e0e0e0" stroke="#999999" points="1982.05,-82 1908.05,-82 1908.05,-59 1982.05,-59 1982.05,-82"/>
<text text-anchor="middle" x="1945.05" y="-66.8" font-family="Arial" font-size="14.00">functional</text>
</a>
</g>
</g>
<!-- Node15&#45;&gt;Node16 -->
<g id="edge17_Node000015_Node000016" class="edge">
<title>Node15&#45;&gt;Node16</title>
<g id="a_edge17_Node000015_Node000016"><a xlink:title=" ">
<path fill="none" stroke="#63b8ff" d="M1894.71,-117.78C1903.46,-109.74 1915.63,-98.55 1925.81,-89.19"/>
<polygon fill="#63b8ff" stroke="#63b8ff" points="1928.45,-91.52 1933.44,-82.17 1923.71,-86.36 1928.45,-91.52"/>
</a>
</g>
</g>
<!-- Node17 -->
<g id="Node000017" class="node">
<title>Node17</title>
<g id="a_Node000017"><a xlink:title=" ">
<polygon fill="#e0e0e0" stroke="#999999" points="1890.05,-82 1806.05,-82 1806.05,-59 1890.05,-59 1890.05,-82"/>
<text text-anchor="middle" x="1848.05" y="-66.8" font-family="Arial" font-size="14.00">string_view</text>
</a>
</g>
</g>
<!-- Node15&#45;&gt;Node17 -->
<g id="edge18_Node000015_Node000017" class="edge">
<title>Node15&#45;&gt;Node17</title>
<g id="a_edge18_Node000015_Node000017"><a xlink:title=" ">
<path fill="none" stroke="#63b8ff" d="M1876.47,-117.78C1871.83,-110.22 1865.47,-99.87 1859.95,-90.88"/>
<polygon fill="#63b8ff" stroke="#63b8ff" points="1862.82,-88.86 1854.61,-82.17 1856.86,-92.53 1862.82,-88.86"/>
</a>
</g>
</g>
<!-- Node18&#45;&gt;Node9 -->
<g id="edge26_Node000018_Node000009" class="edge">
<title>Node18&#45;&gt;Node9</title>
<g id="a_edge26_Node000018_Node000009"><a xlink:title=" ">
<path fill="none" stroke="#63b8ff" d="M1378.69,-176.79C1426.8,-155.9 1533.25,-109.64 1587.65,-86.01"/>
<polygon fill="#63b8ff" stroke="#63b8ff" points="1589.08,-89.21 1596.86,-82.01 1586.29,-82.79 1589.08,-89.21"/>
</a>
</g>
</g>
<!-- Node18&#45;&gt;Node15 -->
<g id="edge20_Node000018_Node000015" class="edge">
<title>Node18&#45;&gt;Node15</title>
<g id="a_edge20_Node000018_Node000015"><a xlink:title=" ">
<path fill="none" stroke="#63b8ff" d="M1419.4,-178.04C1422.32,-177.68 1425.22,-177.33 1428.05,-177 1603.03,-156.77 1650.77,-166.11 1828.9,-141.04"/>
<polygon fill="#63b8ff" stroke="#63b8ff" points="1829.46,-144.49 1838.87,-139.62 1828.47,-137.56 1829.46,-144.49"/>
</a>
</g>
</g>
<!-- Node19 -->
<g id="Node000019" class="node">
<title>Node19</title>
<g id="a_Node000019"><a xlink:href="EspTypes__Base_8h.html" target="_top" xlink:title="ESP32 base type definitions for hardware abstraction.">
<polygon fill="white" stroke="#666666" points="1360.55,-141 1235.55,-141 1235.55,-118 1360.55,-118 1360.55,-141"/>
<text text-anchor="middle" x="1298.05" y="-125.8" font-family="Arial" font-size="14.00">EspTypes_Base.h</text>
</a>
</g>
</g>
<!-- Node18&#45;&gt;Node19 -->
<g id="edge21_Node000018_Node000019" class="edge">
<title>Node18&#45;&gt;Node19</title>
<g id="a_edge21_Node000018_Node000019"><a xlink:title=" ">
<path fill="none" stroke="#63b8ff" d="M1343.52,-176.78C1335.7,-168.82 1324.85,-157.77 1315.71,-148.47"/>
<polygon fill="#63b8ff" stroke="#63b8ff" points="1318.04,-145.85 1308.54,-141.17 1313.05,-150.76 1318.04,-145.85"/>
</a>
</g>
</g>
<!-- Node20 -->
<g id="Node000020" class="node">
<title>Node20</title>
<g id="a_Node000020"><a xlink:href="McuSelect_8h.html" target="_top" xlink:title="Centralized MCU platform selection and configuration header.">
<polygon fill="white" stroke="#666666" points="1364.05,-82 1222.05,-82 1222.05,-59 1364.05,-59 1364.05,-82"/>
<text text-anchor="middle" x="1293.05" y="-66.8" font-family="Arial" font-size="14.00">../../utils/McuSelect.h</text>
</a>
</g>
</g>
<!-- Node18&#45;&gt;Node20 -->
<g id="edge27_Node000018_Node000020" class="edge">
<title>Node18&#45;&gt;Node20</title>
<g id="a_edge27_Node000018_Node000020"><a xlink:title=" ">
<path fill="none" stroke="#63b8ff" d="M1360.9,-176.94C1369.18,-162.71 1380.76,-136.98 1370.05,-118 1362.12,-103.94 1348.04,-93.66 1334.07,-86.39"/>
<polygon fill="#63b8ff" stroke="#63b8ff" points="1335.51,-83.19 1324.97,-82.04 1332.49,-89.51 1335.51,-83.19"/>
</a>
</g>
</g>
<!-- Node19&#45;&gt;Node9 -->
<g id="edge23_Node000019_Node000009" class="edge">
<title>Node19&#45;&gt;Node9</title>
<g id="a_edge23_Node000019_Node000009"><a xlink:title=" ">
<path fill="none" stroke="#63b8ff" d="M1357.67,-117.98C1412.44,-108.31 1493.63,-93.99 1551.37,-83.8"/>
<polygon fill="#63b8ff" stroke="#63b8ff" points="1552.27,-87.19 1561.51,-82.01 1551.05,-80.3 1552.27,-87.19"/>
</a>
</g>
</g>
<!-- Node19&#45;&gt;Node10 -->
<g id="edge25_Node000019_Node000010" class="edge">
<title>Node19&#45;&gt;Node10</title>
<g id="a_edge25_Node000019_Node000010"><a xlink:title=" ">
<path fill="none" stroke="#63b8ff" d="M1315.22,-117.82C1346.2,-98.58 1408.47,-59.98 1411.05,-59 1495.81,-26.96 1525.54,-42.66 1617.81,-23.05"/>
<polygon fill="#63b8ff" stroke="#63b8ff" points="1618.84,-26.41 1627.85,-20.83 1617.33,-19.57 1618.84,-26.41"/>
</a>
</g>
</g>
<!-- Node19&#45;&gt;Node20 -->
<g id="edge22_Node000019_Node000020" class="edge">
<title>Node19&#45;&gt;Node20</title>
<g id="a_edge22_Node000019_Node000020"><a xlink:title=" ">
<path fill="none" stroke="#63b8ff" d="M1297.11,-117.78C1296.48,-110.61 1295.64,-100.95 1294.88,-92.31"/>
<polygon fill="#63b8ff" stroke="#63b8ff" points="1298.35,-91.83 1293.99,-82.17 1291.38,-92.44 1298.35,-91.83"/>
</a>
</g>
</g>
<!-- Node21 -->
<g id="Node000021" class="node">
<title>Node21</title>
<g id="a_Node000021"><a xlink:title=" ">
<polygon fill="#e0e0e0" stroke="#999999" points="1203.55,-82 1146.55,-82 1146.55,-59 1203.55,-59 1203.55,-82"/>
<text text-anchor="middle" x="1175.05" y="-66.8" font-family="Arial" font-size="14.00">atomic</text>
</a>
</g>
</g>
<!-- Node19&#45;&gt;Node21 -->
<g id="edge24_Node000019_Node000021" class="edge">
<title>Node19&#45;&gt;Node21</title>
<g id="a_edge24_Node000019_Node000021"><a xlink:title=" ">
<path fill="none" stroke="#63b8ff" d="M1275.21,-117.91C1256.05,-109.03 1228.47,-96.26 1207.11,-86.35"/>
<polygon fill="#63b8ff" stroke="#63b8ff" points="1208.32,-83.06 1197.78,-82.03 1205.38,-89.41 1208.32,-83.06"/>
</a>
</g>
</g>
<!-- Node23&#45;&gt;Node9 -->
<g id="edge30_Node000023_Node000009" class="edge">
<title>Node23&#45;&gt;Node9</title>
<g id="a_edge30_Node000023_Node000009"><a xlink:title=" ">
<path fill="none" stroke="#63b8ff" d="M1736.68,-117.91C1714.16,-108.87 1681.57,-95.79 1656.73,-85.82"/>
<polygon fill="#63b8ff" stroke="#63b8ff" points="1657.87,-82.51 1647.29,-82.03 1655.26,-89 1657.87,-82.51"/>
</a>
</g>
</g>
<!-- Node23&#45;&gt;Node10 -->
<g id="edge31_Node000023_Node000010" class="edge">
<title>Node23&#45;&gt;Node10</title>
<g id="a_edge31_Node000023_Node000010"><a xlink:title=" ">
<path fill="none" stroke="#63b8ff" d="M1753.18,-117.79C1734.86,-97.94 1695.45,-55.21 1672.86,-30.72"/>
<polygon fill="#63b8ff" stroke="#63b8ff" points="1675.26,-28.16 1665.9,-23.18 1670.11,-32.9 1675.26,-28.16"/>
</a>
</g>
</g>
<!-- Node23&#45;&gt;Node16 -->
<g id="edge32_Node000023_Node000016" class="edge">
<title>Node23&#45;&gt;Node16</title>
<g id="a_edge32_Node000023_Node000016"><a xlink:title=" ">
<path fill="none" stroke="#63b8ff" d="M1796.86,-117.91C1826.48,-108.63 1869.71,-95.1 1901.84,-85.03"/>
<polygon fill="#63b8ff" stroke="#63b8ff" points="1902.93,-88.36 1911.43,-82.03 1900.84,-81.68 1902.93,-88.36"/>
</a>
</g>
</g>
<!-- Node23&#45;&gt;Node17 -->
<g id="edge34_Node000023_Node000017" class="edge">
<title>Node23&#45;&gt;Node17</title>
<g id="a_edge34_Node000023_Node000017"><a xlink:title=" ">
<path fill="none" stroke="#63b8ff" d="M1779.04,-117.78C1791.63,-109.34 1809.37,-97.44 1823.72,-87.82"/>
<polygon fill="#63b8ff" stroke="#63b8ff" points="1825.78,-90.65 1832.14,-82.17 1821.88,-84.84 1825.78,-90.65"/>
</a>
</g>
</g>
<!-- Node24 -->
<g id="Node000024" class="node">
<title>Node24</title>
<g id="a_Node000024"><a xlink:title=" ">
<polygon fill="#e0e0e0" stroke="#999999" points="1788.05,-82 1738.05,-82 1738.05,-59 1788.05,-59 1788.05,-82"/>
<text text-anchor="middle" x="1763.05" y="-66.8" font-family="Arial" font-size="14.00">string</text>
</a>
</g>
</g>
<!-- Node23&#45;&gt;Node24 -->
<g id="edge33_Node000023_Node000024" class="edge">
<title>Node23&#45;&gt;Node24</title>
<g id="a_edge33_Node000023_Node000024"><a xlink:title=" ">
<path fill="none" stroke="#63b8ff" d="M1763.05,-117.78C1763.05,-110.61 1763.05,-100.95 1763.05,-92.31"/>
<polygon fill="#63b8ff" stroke="#63b8ff" points="1766.55,-92.17 1763.05,-82.17 1759.55,-92.17 1766.55,-92.17"/>
</a>
</g>
</g>
<!-- Node25&#45;&gt;Node19 -->
<g id="edge45_Node000025_Node000019" class="edge">
<title>Node25&#45;&gt;Node19</title>
<g id="a_edge45_Node000025_Node000019"><a xlink:title=" ">
<path fill="none" stroke="#63b8ff" d="M852.7,-180.52C940.18,-171.97 1091.5,-156.66 1221.05,-141 1222.52,-140.82 1224,-140.64 1225.49,-140.46"/>
<polygon fill="#63b8ff" stroke="#63b8ff" points="1225.98,-143.92 1235.46,-139.2 1225.1,-136.98 1225.98,-143.92"/>
</a>
</g>
</g>
<!-- Node25&#45;&gt;Node21 -->
<g id="edge53_Node000025_Node000021" class="edge">
<title>Node25&#45;&gt;Node21</title>
<g id="a_edge53_Node000025_Node000021"><a xlink:title=" ">
<path fill="none" stroke="#63b8ff" d="M852.63,-184.39C963.9,-178.86 1166.16,-165.53 1188.05,-141 1200.05,-127.55 1194.01,-106.67 1186.68,-91.3"/>
<polygon fill="#63b8ff" stroke="#63b8ff" points="1189.6,-89.35 1181.84,-82.13 1183.41,-92.61 1189.6,-89.35"/>
</a>
</g>
</g>
<!-- Node25&#45;&gt;Node23 -->
<g id="edge44_Node000025_Node000023" class="edge">
<title>Node25&#45;&gt;Node23</title>
<g id="a_edge44_Node000025_Node000023"><a xlink:title=" ">
<path fill="none" stroke="#63b8ff" d="M852.73,-183.29C1036.39,-172.64 1517.09,-144.76 1695.3,-134.43"/>
<polygon fill="#63b8ff" stroke="#63b8ff" points="1695.55,-137.92 1705.33,-133.85 1695.14,-130.93 1695.55,-137.92"/>
</a>
</g>
</g>
<!-- Node26 -->
<g id="Node000026" class="node">
<title>Node26</title>
<g id="a_Node000026"><a xlink:title=" ">
<polygon fill="#e0e0e0" stroke="#999999" points="366.05,-141 276.05,-141 276.05,-118 366.05,-118 366.05,-141"/>
<text text-anchor="middle" x="321.05" y="-125.8" font-family="Arial" font-size="14.00">esp_event.h</text>
</a>
</g>
</g>
<!-- Node25&#45;&gt;Node26 -->
<g id="edge36_Node000025_Node000026" class="edge">
<title>Node25&#45;&gt;Node26</title>
<g id="a_edge36_Node000025_Node000026"><a xlink:title=" ">
<path fill="none" stroke="#63b8ff" d="M707.4,-180.88C628.31,-173.28 497.91,-159.62 375.98,-141.05"/>
<polygon fill="#63b8ff" stroke="#63b8ff" points="376.5,-137.59 366.09,-139.53 375.44,-144.51 376.5,-137.59"/>
</a>
</g>
</g>
<!-- Node27 -->
<g id="Node000027" class="node">
<title>Node27</title>
<g id="a_Node000027"><a xlink:title=" ">
<polygon fill="#e0e0e0" stroke="#999999" points="475.55,-141 384.55,-141 384.55,-118 475.55,-118 475.55,-141"/>
<text text-anchor="middle" x="430.05" y="-125.8" font-family="Arial" font-size="14.00">esp_mesh.h</text>
</a>
</g>
</g>
<!-- Node25&#45;&gt;Node27 -->
<g id="edge37_Node000025_Node000027" class="edge">
<title>Node25&#45;&gt;Node27</title>
<g id="a_edge37_Node000025_Node000027"><a xlink:title=" ">
<path fill="none" stroke="#63b8ff" d="M708.46,-177C650.78,-168.36 567.35,-155.49 485.65,-141.24"/>
<polygon fill="#63b8ff" stroke="#63b8ff" points="486.15,-137.77 475.7,-139.5 484.94,-144.67 486.15,-137.77"/>
</a>
</g>
</g>
<!-- Node28 -->
<g id="Node000028" class="node">
<title>Node28</title>
<g id="a_Node000028"><a xlink:title=" ">
<polygon fill="#e0e0e0" stroke="#999999" points="576.55,-141 493.55,-141 493.55,-118 576.55,-118 576.55,-141"/>
<text text-anchor="middle" x="535.05" y="-125.8" font-family="Arial" font-size="14.00">esp_netif.h</text>
</a>
</g>
</g>
<!-- Node25&#45;&gt;Node28 -->
<g id="edge38_Node000025_Node000028" class="edge">
<title>Node25&#45;&gt;Node28</title>
<g id="a_edge38_Node000025_Node000028"><a xlink:title=" ">
<path fill="none" stroke="#63b8ff" d="M734.83,-176.98C692.89,-167.22 630.51,-152.71 586.64,-142.5"/>
<polygon fill="#63b8ff" stroke="#63b8ff" points="587.28,-139.06 576.74,-140.2 585.69,-145.87 587.28,-139.06"/>
</a>
</g>
</g>
<!-- Node29 -->
<g id="Node000029" class="node">
<title>Node29</title>
<g id="a_Node000029"><a xlink:title=" ">
<polygon fill="#e0e0e0" stroke="#999999" points="723.05,-141 595.05,-141 595.05,-118 723.05,-118 723.05,-141"/>
<text text-anchor="middle" x="659.05" y="-125.8" font-family="Arial" font-size="14.00">esp_smartconfig.h</text>
</a>
</g>
</g>
<!-- Node25&#45;&gt;Node29 -->
<g id="edge39_Node000025_Node000029" class="edge">
<title>Node25&#45;&gt;Node29</title>
<g id="a_edge39_Node000025_Node000029"><a xlink:title=" ">
<path fill="none" stroke="#63b8ff" d="M757.58,-176.91C738.73,-168.03 711.6,-155.26 690.58,-145.35"/>
<polygon fill="#63b8ff" stroke="#63b8ff" points="691.95,-142.13 681.41,-141.03 688.96,-148.46 691.95,-142.13"/>
</a>
</g>
</g>
<!-- Node30 -->
<g id="Node000030" class="node">
<title>Node30</title>
<g id="a_Node000030"><a xlink:title=" ">
<polygon fill="#e0e0e0" stroke="#999999" points="818.55,-141 741.55,-141 741.55,-118 818.55,-118 818.55,-141"/>
<text text-anchor="middle" x="780.05" y="-125.8" font-family="Arial" font-size="14.00">esp_wifi.h</text>
</a>
</g>
</g>
<!-- Node25&#45;&gt;Node30 -->
<g id="edge40_Node000025_Node000030" class="edge">
<title>Node25&#45;&gt;Node30</title>
<g id="a_edge40_Node000025_Node000030"><a xlink:title=" ">
<path fill="none" stroke="#63b8ff" d="M780.05,-176.78C780.05,-169.61 780.05,-159.95 780.05,-151.31"/>
<polygon fill="#63b8ff" stroke="#63b8ff" points="783.55,-151.17 780.05,-141.17 776.55,-151.17 783.55,-151.17"/>
</a>
</g>
</g>
<!-- Node31 -->
<g id="Node000031" class="node">
<title>Node31</title>
<g id="a_Node000031"><a xlink:title=" ">
<polygon fill="#e0e0e0" stroke="#999999" points="907.55,-141 836.55,-141 836.55,-118 907.55,-118 907.55,-141"/>
<text text-anchor="middle" x="872.05" y="-125.8" font-family="Arial" font-size="14.00">lwip/err.h</text>
</a>
</g>
</g>
<!-- Node25&#45;&gt;Node31 -->
<g id="edge41_Node000025_Node000031" class="edge">
<title>Node25&#45;&gt;Node31</title>
<g id="a_edge41_Node000025_Node000031"><a xlink:title=" ">
<path fill="none" stroke="#63b8ff" d="M797.36,-176.78C811.11,-168.26 830.55,-156.21 846.15,-146.55"/>
<polygon fill="#63b8ff" stroke="#63b8ff" points="848.17,-149.42 854.83,-141.17 844.48,-143.46 848.17,-149.42"/>
</a>
</g>
</g>
<!-- Node32 -->
<g id="Node000032" class="node">
<title>Node32</title>
<g id="a_Node000032"><a xlink:title=" ">
<polygon fill="#e0e0e0" stroke="#999999" points="1000.55,-141 925.55,-141 925.55,-118 1000.55,-118 1000.55,-141"/>
<text text-anchor="middle" x="963.05" y="-125.8" font-family="Arial" font-size="14.00">lwip/sys.h</text>
</a>
</g>
</g>
<!-- Node25&#45;&gt;Node32 -->
<g id="edge42_Node000025_Node000032" class="edge">
<title>Node25&#45;&gt;Node32</title>
<g id="a_edge42_Node000025_Node000032"><a xlink:title=" ">
<path fill="none" stroke="#63b8ff" d="M814.04,-176.91C843.83,-167.63 887.3,-154.1 919.6,-144.03"/>
<polygon fill="#63b8ff" stroke="#63b8ff" points="920.74,-147.35 929.24,-141.03 918.65,-140.66 920.74,-147.35"/>
</a>
</g>
</g>
<!-- Node33 -->
<g id="Node000033" class="node">
<title>Node33</title>
<g id="a_Node000033"><a xlink:title=" ">
<polygon fill="#e0e0e0" stroke="#999999" points="100.55,-141 15.55,-141 15.55,-118 100.55,-118 100.55,-141"/>
<text text-anchor="middle" x="58.05" y="-125.8" font-family="Arial" font-size="14.00">nvs_flash.h</text>
</a>
</g>
</g>
<!-- Node25&#45;&gt;Node33 -->
<g id="edge43_Node000025_Node000033" class="edge">
<title>Node25&#45;&gt;Node33</title>
<g id="a_edge43_Node000025_Node000033"><a xlink:title=" ">
<path fill="none" stroke="#63b8ff" d="M707.24,-185.64C585.58,-181.84 333.19,-170.97 110.79,-141.09"/>
<polygon fill="#63b8ff" stroke="#63b8ff" points="110.94,-137.57 100.56,-139.69 109.99,-144.51 110.94,-137.57"/>
</a>
</g>
</g>
<!-- Node34 -->
<g id="Node000034" class="node">
<title>Node34</title>
<g id="a_Node000034"><a xlink:href="RtosMutex_8h.html" target="_top" xlink:title="Cross&#45;platform RTOS mutex and synchronization primitives.">
<polygon fill="white" stroke="#666666" points="1178.55,-141 1057.55,-141 1057.55,-118 1178.55,-118 1178.55,-141"/>
<text text-anchor="middle" x="1118.05" y="-125.8" font-family="Arial" font-size="14.00">utils/RtosMutex.h</text>
</a>
</g>
</g>
<!-- Node25&#45;&gt;Node34 -->
<g id="edge46_Node000025_Node000034" class="edge">
<title>Node25&#45;&gt;Node34</title>
<g id="a_edge46_Node000025_Node000034"><a xlink:title=" ">
<path fill="none" stroke="#63b8ff" d="M842.44,-176.98C900.53,-167.18 987.03,-152.6 1047.59,-142.38"/>
<polygon fill="#63b8ff" stroke="#63b8ff" points="1048.17,-145.83 1057.45,-140.72 1047.01,-138.93 1048.17,-145.83"/>
</a>
</g>
</g>
<!-- Node35 -->
<g id="Node000035" class="node">
<title>Node35</title>
<g id="a_Node000035"><a xlink:title=" ">
<polygon fill="#e0e0e0" stroke="#999999" points="185.55,-141 118.55,-141 118.55,-118 185.55,-118 185.55,-141"/>
<text text-anchor="middle" x="152.05" y="-125.8" font-family="Arial" font-size="14.00">memory</text>
</a>
</g>
</g>
<!-- Node25&#45;&gt;Node35 -->
<g id="edge54_Node000025_Node000035" class="edge">
<title>Node25&#45;&gt;Node35</title>
<g id="a_edge54_Node000025_Node000035"><a xlink:title=" ">
<path fill="none" stroke="#63b8ff" d="M707.1,-185.45C597.92,-181.56 385.51,-170.78 195.9,-140.89"/>
<polygon fill="#63b8ff" stroke="#63b8ff" points="196.18,-137.39 185.75,-139.27 195.07,-144.3 196.18,-137.39"/>
</a>
</g>
</g>
<!-- Node36 -->
<g id="Node000036" class="node">
<title>Node36</title>
<g id="a_Node000036"><a xlink:title=" ">
<polygon fill="#e0e0e0" stroke="#999999" points="258.05,-141 204.05,-141 204.05,-118 258.05,-118 258.05,-141"/>
<text text-anchor="middle" x="231.05" y="-125.8" font-family="Arial" font-size="14.00">queue</text>
</a>
</g>
</g>
<!-- Node25&#45;&gt;Node36 -->
<g id="edge55_Node000025_Node000036" class="edge">
<title>Node25&#45;&gt;Node36</title>
<g id="a_edge55_Node000025_Node000036"><a xlink:title=" ">
<path fill="none" stroke="#63b8ff" d="M707.23,-185.33C609.28,-181.42 429.69,-170.81 268.53,-140.98"/>
<polygon fill="#63b8ff" stroke="#63b8ff" points="268.91,-137.49 258.44,-139.08 267.62,-144.37 268.91,-137.49"/>
</a>
</g>
</g>
<!-- Node34&#45;&gt;Node5 -->
<g id="edge48_Node000034_Node000005" class="edge">
<title>Node34&#45;&gt;Node5</title>
<g id="a_edge48_Node000034_Node000005"><a xlink:title=" ">
<path fill="none" stroke="#63b8ff" d="M1099.24,-117.78C1084.16,-109.18 1062.77,-96.99 1045.73,-87.28"/>
<polygon fill="#63b8ff" stroke="#63b8ff" points="1047.2,-84.08 1036.78,-82.17 1043.73,-90.17 1047.2,-84.08"/>
</a>
</g>
</g>
<!-- Node34&#45;&gt;Node7 -->
<g id="edge49_Node000034_Node000007" class="edge">
<title>Node34&#45;&gt;Node7</title>
<g id="a_edge49_Node000034_Node000007"><a xlink:title=" ">
<path fill="none" stroke="#63b8ff" d="M1178.81,-118.96C1242.45,-108.97 1342.34,-93.28 1409.69,-82.71"/>
<polygon fill="#63b8ff" stroke="#63b8ff" points="1410.46,-86.13 1419.79,-81.12 1409.37,-79.21 1410.46,-86.13"/>
</a>
</g>
</g>
<!-- Node34&#45;&gt;Node8 -->
<g id="edge50_Node000034_Node000008" class="edge">
<title>Node34&#45;&gt;Node8</title>
<g id="a_edge50_Node000034_Node000008"><a xlink:title=" ">
<path fill="none" stroke="#63b8ff" d="M1057.52,-122.44C1042.05,-120.94 1025.44,-119.37 1010.05,-118 821.79,-101.28 598.78,-84.07 493.25,-76.09"/>
<polygon fill="#63b8ff" stroke="#63b8ff" points="493.34,-72.58 483.11,-75.32 492.81,-79.56 493.34,-72.58"/>
</a>
</g>
</g>
<!-- Node34&#45;&gt;Node10 -->
<g id="edge52_Node000034_Node000010" class="edge">
<title>Node34&#45;&gt;Node10</title>
<g id="a_edge52_Node000034_Node000010"><a xlink:title=" ">
<path fill="none" stroke="#63b8ff" d="M1117.66,-117.79C1117.72,-102.14 1120.42,-73.34 1138.05,-59 1177.81,-26.68 1532.97,-31.81 1617.96,-22.5"/>
<polygon fill="#63b8ff" stroke="#63b8ff" points="1618.48,-25.96 1627.91,-21.12 1617.52,-19.03 1618.48,-25.96"/>
</a>
</g>
</g>
<!-- Node34&#45;&gt;Node20 -->
<g id="edge47_Node000034_Node000020" class="edge">
<title>Node34&#45;&gt;Node20</title>
<g id="a_edge47_Node000034_Node000020"><a xlink:title=" ">
<path fill="none" stroke="#63b8ff" d="M1150.56,-117.91C1178.92,-108.67 1220.25,-95.21 1251.1,-85.16"/>
<polygon fill="#63b8ff" stroke="#63b8ff" points="1252.3,-88.46 1260.72,-82.03 1250.13,-81.8 1252.3,-88.46"/>
</a>
</g>
</g>
<!-- Node34&#45;&gt;Node21 -->
<g id="edge51_Node000034_Node000021" class="edge">
<title>Node34&#45;&gt;Node21</title>
<g id="a_edge51_Node000034_Node000021"><a xlink:title=" ">
<path fill="none" stroke="#63b8ff" d="M1128.77,-117.78C1136.74,-109.82 1147.78,-98.77 1157.08,-89.47"/>
<polygon fill="#63b8ff" stroke="#63b8ff" points="1159.78,-91.72 1164.38,-82.17 1154.83,-86.77 1159.78,-91.72"/>
</a>
</g>
</g>
</g>
</svg>

<g id="navigator" transform="translate(0 0)" fill="#404254">
  <rect fill="#f2f5e9" fill-opacity="0.5" stroke="#606060" stroke-width=".5" x="0" y="0" width="60" height="60"/>
  <use id="zoomplus" xlink:href="#zoomPlus" x="17" y="9" onmousedown="handleZoom(evt,'in')"/>
  <use id="zoomminus" xlink:href="#zoomMin" x="42" y="9" onmousedown="handleZoom(evt,'out')"/>
  <use id="reset" xlink:href="#resetDef" x="30" y="36" onmousedown="handleReset()"/>
   <use id="arrowup" xlink:href="#arrowUp" x="0" y="0" onmousedown="handlePan(0,-1)"/>
  <use id="arrowright" xlink:href="#arrowRight" x="0" y="0" onmousedown="handlePan(1,0)"/>
  <use id="arrowdown" xlink:href="#arrowDown" x="0" y="0" onmousedown="handlePan(0,1)"/>
  <use id="arrowleft" xlink:href="#arrowLeft" x="0" y="0" onmousedown="handlePan(-1,0)"/>
</g>
<svg viewBox="0 0 15 15" width="100%" height="30px" preserveAspectRatio="xMaxYMin meet">
 <g id="arrow_out" transform="scale(0.3 0.3)">
  <a xlink:href="WifiComprehensiveTest_8cpp__incl_org.svg" target="_base">
   <rect id="button" ry="5" rx="5" y="6" x="6" height="38" width="38"
        fill="#f2f5e9" fill-opacity="0.5" stroke="#606060" stroke-width="1.0"/>
   <path id="arrow"
     d="M 11.500037,31.436501 C 11.940474,20.09759 22.043105,11.32322 32.158766,21.979434 L 37.068811,17.246167 C 37.068811,17.246167 37.088388,32 37.088388,32 L 22.160133,31.978069 C 22.160133,31.978069 26.997745,27.140456 26.997745,27.140456 C 18.528582,18.264221 13.291696,25.230495 11.500037,31.436501 z"
     style="fill:#404040;"/>
  </a>
 </g>
</svg>

<style type='text/css'>
<![CDATA[
[data-mouse-over-selected='false'] { opacity: 0.7; }
[data-mouse-over-selected='true']  { opacity: 1.0; }
]]>
</style>
<script type="application/ecmascript"><![CDATA[
document.addEventListener('DOMContentLoaded', (event) => {
  highlightEdges();
  highlightAdjacentNodes();
});
]]></script>
</svg>
