<?xml version="1.0" encoding="UTF-8" standalone="no"?>
<!DOCTYPE svg PUBLIC "-//W3C//DTD SVG 1.1//EN"
 "http://www.w3.org/Graphics/SVG/1.1/DTD/svg11.dtd">
<!-- Generated by graphviz version 2.43.0 (0)
 -->
<!-- Title: examples/esp32/main/CanComprehensiveTest.cpp Pages: 1 -->
<svg width="1799pt" height="400pt"
 viewBox="0.00 0.00 1798.62 400.00" xmlns="http://www.w3.org/2000/svg" xmlns:xlink="http://www.w3.org/1999/xlink">
<g id="graph0" class="graph" transform="scale(1 1) rotate(0) translate(4 396)">
<title>examples/esp32/main/CanComprehensiveTest.cpp</title>
<!-- Node1 -->
<g id="Node000001" class="node">
<title>Node1</title>
<g id="a_Node000001"><a xlink:title="Comprehensive CAN testing suite for ESP32&#45;C6 with ESP&#45;IDF v5.5 TWAI API and SN65 transceiver.">
<polygon fill="#999999" stroke="#666666" points="776.62,-392 585.62,-392 585.62,-354 776.62,-354 776.62,-392"/>
<text text-anchor="start" x="593.62" y="-376.8" font-family="Arial" font-size="14.00">examples/esp32/main</text>
<text text-anchor="middle" x="681.12" y="-361.8" font-family="Arial" font-size="14.00">/CanComprehensiveTest.cpp</text>
</a>
</g>
</g>
<!-- Node2 -->
<g id="Node000002" class="node">
<title>Node2</title>
<g id="a_Node000002"><a xlink:title=" ">
<polygon fill="#e0e0e0" stroke="#999999" points="92.62,-259 17.62,-259 17.62,-236 92.62,-236 92.62,-259"/>
<text text-anchor="middle" x="55.12" y="-243.8" font-family="Arial" font-size="14.00">esp_log.h</text>
</a>
</g>
</g>
<!-- Node1&#45;&gt;Node2 -->
<g id="edge1_Node000001_Node000002" class="edge">
<title>Node1&#45;&gt;Node2</title>
<g id="a_edge1_Node000001_Node000002"><a xlink:title=" ">
<path fill="none" stroke="#63b8ff" d="M585.23,-369.8C488.48,-365.55 335.57,-353.28 208.12,-318 161.95,-305.22 112.05,-280.23 82.21,-263.96"/>
<polygon fill="#63b8ff" stroke="#63b8ff" points="83.7,-260.79 73.26,-259.01 80.31,-266.92 83.7,-260.79"/>
</a>
</g>
</g>
<!-- Node3 -->
<g id="Node000003" class="node">
<title>Node3</title>
<g id="a_Node000003"><a xlink:title=" ">
<polygon fill="#e0e0e0" stroke="#999999" points="197.62,-259 110.62,-259 110.62,-236 197.62,-236 197.62,-259"/>
<text text-anchor="middle" x="154.12" y="-243.8" font-family="Arial" font-size="14.00">esp_timer.h</text>
</a>
</g>
</g>
<!-- Node1&#45;&gt;Node3 -->
<g id="edge2_Node000001_Node000003" class="edge">
<title>Node1&#45;&gt;Node3</title>
<g id="a_edge2_Node000001_Node000003"><a xlink:title=" ">
<path fill="none" stroke="#63b8ff" d="M585.21,-365.39C477.77,-357.02 310.97,-340.9 252.12,-318 221.3,-306.01 191.07,-282.22 172.52,-265.84"/>
<polygon fill="#63b8ff" stroke="#63b8ff" points="174.85,-263.23 165.09,-259.11 170.15,-268.42 174.85,-263.23"/>
</a>
</g>
</g>
<!-- Node4 -->
<g id="Node000004" class="node">
<title>Node4</title>
<g id="a_Node000004"><a xlink:title=" ">
<polygon fill="#e0e0e0" stroke="#999999" points="235.62,-141 92.62,-141 92.62,-118 235.62,-118 235.62,-141"/>
<text text-anchor="middle" x="164.12" y="-125.8" font-family="Arial" font-size="14.00">freertos/FreeRTOS.h</text>
</a>
</g>
</g>
<!-- Node1&#45;&gt;Node4 -->
<g id="edge3_Node000001_Node000004" class="edge">
<title>Node1&#45;&gt;Node4</title>
<g id="a_edge3_Node000001_Node000004"><a xlink:title=" ">
<path fill="none" stroke="#63b8ff" d="M585.33,-372.14C414.72,-369.96 70.24,-353.66 8.12,-259 -26.18,-206.73 62.85,-164.97 120.14,-144.41"/>
<polygon fill="#63b8ff" stroke="#63b8ff" points="121.45,-147.66 129.74,-141.06 119.14,-141.05 121.45,-147.66"/>
</a>
</g>
</g>
<!-- Node5 -->
<g id="Node000005" class="node">
<title>Node5</title>
<g id="a_Node000005"><a xlink:title=" ">
<polygon fill="#e0e0e0" stroke="#999999" points="420.62,-318 261.62,-318 261.62,-295 420.62,-295 420.62,-318"/>
<text text-anchor="middle" x="341.12" y="-302.8" font-family="Arial" font-size="14.00">freertos/event_groups.h</text>
</a>
</g>
</g>
<!-- Node1&#45;&gt;Node5 -->
<g id="edge4_Node000001_Node000005" class="edge">
<title>Node1&#45;&gt;Node5</title>
<g id="a_edge4_Node000001_Node000005"><a xlink:title=" ">
<path fill="none" stroke="#63b8ff" d="M585.96,-353.95C528.87,-343.12 457.7,-329.62 406.84,-319.97"/>
<polygon fill="#63b8ff" stroke="#63b8ff" points="407.42,-316.51 396.94,-318.09 406.12,-323.39 407.42,-316.51"/>
</a>
</g>
</g>
<!-- Node6 -->
<g id="Node000006" class="node">
<title>Node6</title>
<g id="a_Node000006"><a xlink:title=" ">
<polygon fill="#e0e0e0" stroke="#999999" points="586.12,-141 484.12,-141 484.12,-118 586.12,-118 586.12,-141"/>
<text text-anchor="middle" x="535.12" y="-125.8" font-family="Arial" font-size="14.00">freertos/task.h</text>
</a>
</g>
</g>
<!-- Node1&#45;&gt;Node6 -->
<g id="edge5_Node000001_Node000006" class="edge">
<title>Node1&#45;&gt;Node6</title>
<g id="a_edge5_Node000001_Node000006"><a xlink:title=" ">
<path fill="none" stroke="#63b8ff" d="M676.07,-353.81C665.33,-317.42 637.5,-234.24 593.12,-177 584.2,-165.49 571.87,-155.09 560.88,-147.06"/>
<polygon fill="#63b8ff" stroke="#63b8ff" points="562.64,-144.02 552.44,-141.16 558.62,-149.76 562.64,-144.02"/>
</a>
</g>
</g>
<!-- Node7 -->
<g id="Node000007" class="node">
<title>Node7</title>
<g id="a_Node000007"><a xlink:href="TestFramework_8h.html" target="_top" xlink:title="Shared testing framework for ESP32&#45;C6 comprehensive test suites.">
<polygon fill="white" stroke="#666666" points="559.62,-318 438.62,-318 438.62,-295 559.62,-295 559.62,-318"/>
<text text-anchor="middle" x="499.12" y="-302.8" font-family="Arial" font-size="14.00">TestFramework.h</text>
</a>
</g>
</g>
<!-- Node1&#45;&gt;Node7 -->
<g id="edge6_Node000001_Node000007" class="edge">
<title>Node1&#45;&gt;Node7</title>
<g id="a_edge6_Node000001_Node000007"><a xlink:title=" ">
<path fill="none" stroke="#63b8ff" d="M629.94,-353.86C600.91,-343.57 565.15,-330.9 538.36,-321.41"/>
<polygon fill="#63b8ff" stroke="#63b8ff" points="539.52,-318.1 528.92,-318.06 537.18,-324.7 539.52,-318.1"/>
</a>
</g>
</g>
<!-- Node22 -->
<g id="Node000022" class="node">
<title>Node22</title>
<g id="a_Node000022"><a xlink:title=" ">
<polygon fill="#e0e0e0" stroke="#999999" points="1444.62,-82 1387.62,-82 1387.62,-59 1444.62,-59 1444.62,-82"/>
<text text-anchor="middle" x="1416.12" y="-66.8" font-family="Arial" font-size="14.00">atomic</text>
</a>
</g>
</g>
<!-- Node1&#45;&gt;Node22 -->
<g id="edge60_Node000001_Node000022" class="edge">
<title>Node1&#45;&gt;Node22</title>
<g id="a_edge60_Node000001_Node000022"><a xlink:title=" ">
<path fill="none" stroke="#63b8ff" d="M776.91,-370.44C1032.11,-365.03 1709.12,-341.86 1709.12,-248.5 1709.12,-248.5 1709.12,-248.5 1709.12,-187.5 1709.12,-133.44 1534.51,-93.72 1454.88,-78.41"/>
<polygon fill="#63b8ff" stroke="#63b8ff" points="1455.23,-74.91 1444.75,-76.5 1453.93,-81.79 1455.23,-74.91"/>
</a>
</g>
</g>
<!-- Node24 -->
<g id="Node000024" class="node">
<title>Node24</title>
<g id="a_Node000024"><a xlink:href="BaseCan_8h.html" target="_top" xlink:title="Abstract base class for CAN bus implementations in the HardFOC system.">
<polygon fill="white" stroke="#666666" points="1381.12,-141 1265.12,-141 1265.12,-118 1381.12,-118 1381.12,-141"/>
<text text-anchor="middle" x="1323.12" y="-125.8" font-family="Arial" font-size="14.00">base/BaseCan.h</text>
</a>
</g>
</g>
<!-- Node1&#45;&gt;Node24 -->
<g id="edge34_Node000001_Node000024" class="edge">
<title>Node1&#45;&gt;Node24</title>
<g id="a_edge34_Node000001_Node000024"><a xlink:title=" ">
<path fill="none" stroke="#63b8ff" d="M776.86,-370.4C999.99,-364.38 1543.84,-335.8 1651.12,-200 1657.46,-191.98 1657.82,-184.72 1651.12,-177 1618.19,-139.08 1477.53,-131.25 1391.46,-130.11"/>
<polygon fill="#63b8ff" stroke="#63b8ff" points="1391.28,-126.61 1381.25,-130.01 1391.21,-133.61 1391.28,-126.61"/>
</a>
</g>
</g>
<!-- Node25 -->
<g id="Node000025" class="node">
<title>Node25</title>
<g id="a_Node000025"><a xlink:href="EspCan_8h.html" target="_top" xlink:title="ESP32 CAN (TWAI) implementation for the HardFOC system &#45; ESP&#45;IDF v5.5 Compatible.">
<polygon fill="white" stroke="#666666" points="1332.12,-259 1186.12,-259 1186.12,-236 1332.12,-236 1332.12,-259"/>
<text text-anchor="middle" x="1259.12" y="-243.8" font-family="Arial" font-size="14.00">mcu/esp32/EspCan.h</text>
</a>
</g>
</g>
<!-- Node1&#45;&gt;Node25 -->
<g id="edge40_Node000001_Node000025" class="edge">
<title>Node1&#45;&gt;Node25</title>
<g id="a_edge40_Node000001_Node000025"><a xlink:title=" ">
<path fill="none" stroke="#63b8ff" d="M765.48,-353.98C884.04,-328.64 1096.99,-283.14 1200.05,-261.12"/>
<polygon fill="#63b8ff" stroke="#63b8ff" points="1200.92,-264.51 1209.97,-259 1199.46,-257.67 1200.92,-264.51"/>
</a>
</g>
</g>
<!-- Node30 -->
<g id="Node000030" class="node">
<title>Node30</title>
<g id="a_Node000030"><a xlink:title=" ">
<polygon fill="#e0e0e0" stroke="#999999" points="1642.62,-200 1575.62,-200 1575.62,-177 1642.62,-177 1642.62,-200"/>
<text text-anchor="middle" x="1609.12" y="-184.8" font-family="Arial" font-size="14.00">memory</text>
</a>
</g>
</g>
<!-- Node1&#45;&gt;Node30 -->
<g id="edge61_Node000001_Node000030" class="edge">
<title>Node1&#45;&gt;Node30</title>
<g id="a_edge61_Node000001_Node000030"><a xlink:title=" ">
<path fill="none" stroke="#63b8ff" d="M776.71,-358.3C905.53,-339.23 1141.71,-302.13 1341.12,-259 1421.01,-241.72 1513.01,-216.73 1565.79,-201.9"/>
<polygon fill="#63b8ff" stroke="#63b8ff" points="1566.81,-205.25 1575.49,-199.16 1564.91,-198.51 1566.81,-205.25"/>
</a>
</g>
</g>
<!-- Node31 -->
<g id="Node000031" class="node">
<title>Node31</title>
<g id="a_Node000031"><a xlink:title=" ">
<polygon fill="#e0e0e0" stroke="#999999" points="1790.62,-318 1737.62,-318 1737.62,-295 1790.62,-295 1790.62,-318"/>
<text text-anchor="middle" x="1764.12" y="-302.8" font-family="Arial" font-size="14.00">vector</text>
</a>
</g>
</g>
<!-- Node1&#45;&gt;Node31 -->
<g id="edge62_Node000001_Node000031" class="edge">
<title>Node1&#45;&gt;Node31</title>
<g id="a_edge62_Node000001_Node000031"><a xlink:title=" ">
<path fill="none" stroke="#63b8ff" d="M776.92,-369.47C998.72,-363.23 1542.37,-345.55 1723.12,-318 1724.57,-317.78 1726.05,-317.53 1727.54,-317.25"/>
<polygon fill="#63b8ff" stroke="#63b8ff" points="1728.32,-320.67 1737.37,-315.16 1726.86,-313.82 1728.32,-320.67"/>
</a>
</g>
</g>
<!-- Node7&#45;&gt;Node2 -->
<g id="edge7_Node000007_Node000002" class="edge">
<title>Node7&#45;&gt;Node2</title>
<g id="a_edge7_Node000007_Node000002"><a xlink:title=" ">
<path fill="none" stroke="#63b8ff" d="M438.44,-296.25C435.29,-295.81 432.17,-295.4 429.12,-295 286.96,-276.54 247.5,-283.05 102.85,-259.15"/>
<polygon fill="#63b8ff" stroke="#63b8ff" points="103.15,-255.65 92.71,-257.45 101.99,-262.55 103.15,-255.65"/>
</a>
</g>
</g>
<!-- Node7&#45;&gt;Node3 -->
<g id="edge8_Node000007_Node000003" class="edge">
<title>Node7&#45;&gt;Node3</title>
<g id="a_edge8_Node000007_Node000003"><a xlink:title=" ">
<path fill="none" stroke="#63b8ff" d="M438.6,-296.03C380.48,-286.85 290.23,-272.4 212.12,-259 210.67,-258.75 209.2,-258.5 207.72,-258.24"/>
<polygon fill="#63b8ff" stroke="#63b8ff" points="208.27,-254.78 197.81,-256.5 207.05,-261.68 208.27,-254.78"/>
</a>
</g>
</g>
<!-- Node7&#45;&gt;Node4 -->
<g id="edge9_Node000007_Node000004" class="edge">
<title>Node7&#45;&gt;Node4</title>
<g id="a_edge9_Node000007_Node000004"><a xlink:title=" ">
<path fill="none" stroke="#63b8ff" d="M438.53,-295.39C367.39,-283.35 258,-264.2 250.12,-259 209.8,-232.42 183.68,-179.74 171.71,-150.77"/>
<polygon fill="#63b8ff" stroke="#63b8ff" points="174.88,-149.26 167.94,-141.26 168.37,-151.84 174.88,-149.26"/>
</a>
</g>
</g>
<!-- Node7&#45;&gt;Node6 -->
<g id="edge12_Node000007_Node000006" class="edge">
<title>Node7&#45;&gt;Node6</title>
<g id="a_edge12_Node000007_Node000006"><a xlink:title=" ">
<path fill="none" stroke="#63b8ff" d="M537.32,-294.89C555.14,-287.81 574.69,-276.5 585.12,-259 607.02,-222.26 574,-174.22 552.05,-148.54"/>
<polygon fill="#63b8ff" stroke="#63b8ff" points="554.65,-146.19 545.4,-141.03 549.41,-150.84 554.65,-146.19"/>
</a>
</g>
</g>
<!-- Node8 -->
<g id="Node000008" class="node">
<title>Node8</title>
<g id="a_Node000008"><a xlink:title=" ">
<polygon fill="#e0e0e0" stroke="#999999" points="576.62,-259 461.62,-259 461.62,-236 576.62,-236 576.62,-259"/>
<text text-anchor="middle" x="519.12" y="-243.8" font-family="Arial" font-size="14.00">freertos/queue.h</text>
</a>
</g>
</g>
<!-- Node7&#45;&gt;Node8 -->
<g id="edge10_Node000007_Node000008" class="edge">
<title>Node7&#45;&gt;Node8</title>
<g id="a_edge10_Node000007_Node000008"><a xlink:title=" ">
<path fill="none" stroke="#63b8ff" d="M502.88,-294.78C505.45,-287.45 508.94,-277.52 512.02,-268.74"/>
<polygon fill="#63b8ff" stroke="#63b8ff" points="515.37,-269.77 515.38,-259.17 508.76,-267.45 515.37,-269.77"/>
</a>
</g>
</g>
<!-- Node9 -->
<g id="Node000009" class="node">
<title>Node9</title>
<g id="a_Node000009"><a xlink:title=" ">
<polygon fill="#e0e0e0" stroke="#999999" points="726.12,-141 604.12,-141 604.12,-118 726.12,-118 726.12,-141"/>
<text text-anchor="middle" x="665.12" y="-125.8" font-family="Arial" font-size="14.00">freertos/semphr.h</text>
</a>
</g>
</g>
<!-- Node7&#45;&gt;Node9 -->
<g id="edge11_Node000007_Node000009" class="edge">
<title>Node7&#45;&gt;Node9</title>
<g id="a_edge11_Node000007_Node000009"><a xlink:title=" ">
<path fill="none" stroke="#63b8ff" d="M539.02,-294.96C560.18,-287.72 585.39,-276.23 603.12,-259 634.49,-228.53 652.08,-178.96 659.98,-151.14"/>
<polygon fill="#63b8ff" stroke="#63b8ff" points="663.41,-151.87 662.62,-141.3 656.65,-150.05 663.41,-151.87"/>
</a>
</g>
</g>
<!-- Node10 -->
<g id="Node000010" class="node">
<title>Node10</title>
<g id="a_Node000010"><a xlink:href="HardwareTypes_8h.html" target="_top" xlink:title="Platform&#45;agnostic hardware type definitions for the HardFOC system.">
<polygon fill="white" stroke="#666666" points="901.12,-82 779.12,-82 779.12,-59 901.12,-59 901.12,-82"/>
<text text-anchor="middle" x="840.12" y="-66.8" font-family="Arial" font-size="14.00">HardwareTypes.h</text>
</a>
</g>
</g>
<!-- Node7&#45;&gt;Node10 -->
<g id="edge13_Node000007_Node000010" class="edge">
<title>Node7&#45;&gt;Node10</title>
<g id="a_edge13_Node000007_Node000010"><a xlink:title=" ">
<path fill="none" stroke="#63b8ff" d="M438.48,-296.41C378.09,-286.73 292.96,-271.18 283.12,-259 260.22,-230.65 261.46,-206.31 283.12,-177 339.97,-100.06 631.63,-79.14 768.73,-73.52"/>
<polygon fill="#63b8ff" stroke="#63b8ff" points="768.88,-77.02 778.73,-73.13 768.6,-70.02 768.88,-77.02"/>
</a>
</g>
</g>
<!-- Node13 -->
<g id="Node000013" class="node">
<title>Node13</title>
<g id="a_Node000013"><a xlink:href="EspGpio_8h.html" target="_top" xlink:title="Advanced MCU&#45;specific implementation of the unified BaseGpio class with ESP32C6/ESP&#45;IDF v5....">
<polygon fill="white" stroke="#666666" points="443.62,-259 292.62,-259 292.62,-236 443.62,-236 443.62,-259"/>
<text text-anchor="middle" x="368.12" y="-243.8" font-family="Arial" font-size="14.00">mcu/esp32/EspGpio.h</text>
</a>
</g>
</g>
<!-- Node7&#45;&gt;Node13 -->
<g id="edge16_Node000007_Node000013" class="edge">
<title>Node7&#45;&gt;Node13</title>
<g id="a_edge16_Node000007_Node000013"><a xlink:title=" ">
<path fill="none" stroke="#63b8ff" d="M474.79,-294.91C454.2,-285.95 424.49,-273.02 401.65,-263.09"/>
<polygon fill="#63b8ff" stroke="#63b8ff" points="402.89,-259.81 392.32,-259.03 400.1,-266.23 402.89,-259.81"/>
</a>
</g>
</g>
<!-- Node11 -->
<g id="Node000011" class="node">
<title>Node11</title>
<g id="a_Node000011"><a xlink:title=" ">
<polygon fill="#e0e0e0" stroke="#999999" points="957.12,-23 901.12,-23 901.12,0 957.12,0 957.12,-23"/>
<text text-anchor="middle" x="929.12" y="-7.8" font-family="Arial" font-size="14.00">cstdint</text>
</a>
</g>
</g>
<!-- Node10&#45;&gt;Node11 -->
<g id="edge14_Node000010_Node000011" class="edge">
<title>Node10&#45;&gt;Node11</title>
<g id="a_edge14_Node000010_Node000011"><a xlink:title=" ">
<path fill="none" stroke="#63b8ff" d="M856.86,-58.78C870.04,-50.34 888.62,-38.44 903.64,-28.82"/>
<polygon fill="#63b8ff" stroke="#63b8ff" points="905.92,-31.51 912.46,-23.17 902.15,-25.62 905.92,-31.51"/>
</a>
</g>
</g>
<!-- Node12 -->
<g id="Node000012" class="node">
<title>Node12</title>
<g id="a_Node000012"><a xlink:title=" ">
<polygon fill="#e0e0e0" stroke="#999999" points="864.12,-23 816.12,-23 816.12,0 864.12,0 864.12,-23"/>
<text text-anchor="middle" x="840.12" y="-7.8" font-family="Arial" font-size="14.00">limits</text>
</a>
</g>
</g>
<!-- Node10&#45;&gt;Node12 -->
<g id="edge15_Node000010_Node000012" class="edge">
<title>Node10&#45;&gt;Node12</title>
<g id="a_edge15_Node000010_Node000012"><a xlink:title=" ">
<path fill="none" stroke="#63b8ff" d="M840.12,-58.78C840.12,-51.61 840.12,-41.95 840.12,-33.31"/>
<polygon fill="#63b8ff" stroke="#63b8ff" points="843.62,-33.17 840.12,-23.17 836.62,-33.17 843.62,-33.17"/>
</a>
</g>
</g>
<!-- Node14 -->
<g id="Node000014" class="node">
<title>Node14</title>
<g id="a_Node000014"><a xlink:title=" ">
<polygon fill="#e0e0e0" stroke="#999999" points="551.62,-200 460.62,-200 460.62,-177 551.62,-177 551.62,-200"/>
<text text-anchor="middle" x="506.12" y="-184.8" font-family="Arial" font-size="14.00">driver/gpio.h</text>
</a>
</g>
</g>
<!-- Node13&#45;&gt;Node14 -->
<g id="edge17_Node000013_Node000014" class="edge">
<title>Node13&#45;&gt;Node14</title>
<g id="a_edge17_Node000013_Node000014"><a xlink:title=" ">
<path fill="none" stroke="#63b8ff" d="M393.76,-235.91C415.54,-226.91 447.03,-213.91 471.13,-203.95"/>
<polygon fill="#63b8ff" stroke="#63b8ff" points="472.72,-207.08 480.63,-200.03 470.05,-200.61 472.72,-207.08"/>
</a>
</g>
</g>
<!-- Node15 -->
<g id="Node000015" class="node">
<title>Node15</title>
<g id="a_Node000015"><a xlink:title=" ">
<polygon fill="#e0e0e0" stroke="#999999" points="368.12,-200 292.12,-200 292.12,-177 368.12,-177 368.12,-200"/>
<text text-anchor="middle" x="330.12" y="-184.8" font-family="Arial" font-size="14.00">esp_attr.h</text>
</a>
</g>
</g>
<!-- Node13&#45;&gt;Node15 -->
<g id="edge18_Node000013_Node000015" class="edge">
<title>Node13&#45;&gt;Node15</title>
<g id="a_edge18_Node000013_Node000015"><a xlink:title=" ">
<path fill="none" stroke="#63b8ff" d="M360.97,-235.78C355.88,-228.14 348.89,-217.65 342.85,-208.6"/>
<polygon fill="#63b8ff" stroke="#63b8ff" points="345.7,-206.55 337.24,-200.17 339.87,-210.44 345.7,-206.55"/>
</a>
</g>
</g>
<!-- Node16 -->
<g id="Node000016" class="node">
<title>Node16</title>
<g id="a_Node000016"><a xlink:href="BaseGpio_8h.html" target="_top" xlink:title="Unified GPIO base class for all digital GPIO implementations.">
<polygon fill="white" stroke="#666666" points="951.12,-141 863.12,-141 863.12,-118 951.12,-118 951.12,-141"/>
<text text-anchor="middle" x="907.12" y="-125.8" font-family="Arial" font-size="14.00">BaseGpio.h</text>
</a>
</g>
</g>
<!-- Node13&#45;&gt;Node16 -->
<g id="edge19_Node000013_Node000016" class="edge">
<title>Node13&#45;&gt;Node16</title>
<g id="a_edge19_Node000013_Node000016"><a xlink:title=" ">
<path fill="none" stroke="#63b8ff" d="M443.67,-236.97C446.52,-236.64 449.35,-236.31 452.12,-236 611.47,-218.05 661.23,-256.98 811.12,-200 827.22,-193.88 863.33,-166.03 886.38,-147.5"/>
<polygon fill="#63b8ff" stroke="#63b8ff" points="888.66,-150.16 894.23,-141.15 884.25,-144.72 888.66,-150.16"/>
</a>
</g>
</g>
<!-- Node19 -->
<g id="Node000019" class="node">
<title>Node19</title>
<g id="a_Node000019"><a xlink:href="EspTypes__GPIO_8h.html" target="_top" xlink:title="ESP32 GPIO type definitions for hardware abstraction.">
<polygon fill="white" stroke="#666666" points="989.12,-200 859.12,-200 859.12,-177 989.12,-177 989.12,-200"/>
<text text-anchor="middle" x="924.12" y="-184.8" font-family="Arial" font-size="14.00">EspTypes_GPIO.h</text>
</a>
</g>
</g>
<!-- Node13&#45;&gt;Node19 -->
<g id="edge24_Node000013_Node000019" class="edge">
<title>Node13&#45;&gt;Node19</title>
<g id="a_edge24_Node000013_Node000019"><a xlink:title=" ">
<path fill="none" stroke="#63b8ff" d="M443.66,-236.94C446.52,-236.61 449.35,-236.3 452.12,-236 626.5,-217.12 670.82,-219.56 845.12,-200 846.4,-199.86 847.69,-199.71 848.98,-199.56"/>
<polygon fill="#63b8ff" stroke="#63b8ff" points="849.53,-203.02 859.05,-198.36 848.71,-196.07 849.53,-203.02"/>
</a>
</g>
</g>
<!-- Node23 -->
<g id="Node000023" class="node">
<title>Node23</title>
<g id="a_Node000023"><a xlink:title=" ">
<polygon fill="#e0e0e0" stroke="#999999" points="442.12,-200 386.12,-200 386.12,-177 442.12,-177 442.12,-200"/>
<text text-anchor="middle" x="414.12" y="-184.8" font-family="Arial" font-size="14.00">stdio.h</text>
</a>
</g>
</g>
<!-- Node13&#45;&gt;Node23 -->
<g id="edge33_Node000013_Node000023" class="edge">
<title>Node13&#45;&gt;Node23</title>
<g id="a_edge33_Node000013_Node000023"><a xlink:title=" ">
<path fill="none" stroke="#63b8ff" d="M376.77,-235.78C383.07,-227.98 391.76,-217.21 399.17,-208.03"/>
<polygon fill="#63b8ff" stroke="#63b8ff" points="401.95,-210.15 405.51,-200.17 396.5,-205.76 401.95,-210.15"/>
</a>
</g>
</g>
<!-- Node16&#45;&gt;Node10 -->
<g id="edge20_Node000016_Node000010" class="edge">
<title>Node16&#45;&gt;Node10</title>
<g id="a_edge20_Node000016_Node000010"><a xlink:title=" ">
<path fill="none" stroke="#63b8ff" d="M894.52,-117.78C884.97,-109.66 871.66,-98.33 860.59,-88.92"/>
<polygon fill="#63b8ff" stroke="#63b8ff" points="862.55,-85.99 852.67,-82.17 858.02,-91.32 862.55,-85.99"/>
</a>
</g>
</g>
<!-- Node16&#45;&gt;Node11 -->
<g id="edge21_Node000016_Node000011" class="edge">
<title>Node16&#45;&gt;Node11</title>
<g id="a_edge21_Node000016_Node000011"><a xlink:title=" ">
<path fill="none" stroke="#63b8ff" d="M909.15,-117.79C912.8,-98.55 920.53,-57.79 925.23,-33.01"/>
<polygon fill="#63b8ff" stroke="#63b8ff" points="928.67,-33.66 927.1,-23.18 921.79,-32.35 928.67,-33.66"/>
</a>
</g>
</g>
<!-- Node17 -->
<g id="Node000017" class="node">
<title>Node17</title>
<g id="a_Node000017"><a xlink:title=" ">
<polygon fill="#e0e0e0" stroke="#999999" points="1031.12,-82 957.12,-82 957.12,-59 1031.12,-59 1031.12,-82"/>
<text text-anchor="middle" x="994.12" y="-66.8" font-family="Arial" font-size="14.00">functional</text>
</a>
</g>
</g>
<!-- Node16&#45;&gt;Node17 -->
<g id="edge22_Node000016_Node000017" class="edge">
<title>Node16&#45;&gt;Node17</title>
<g id="a_edge22_Node000016_Node000017"><a xlink:title=" ">
<path fill="none" stroke="#63b8ff" d="M923.49,-117.78C936.37,-109.34 954.53,-97.44 969.22,-87.82"/>
<polygon fill="#63b8ff" stroke="#63b8ff" points="971.38,-90.58 977.83,-82.17 967.55,-84.73 971.38,-90.58"/>
</a>
</g>
</g>
<!-- Node18 -->
<g id="Node000018" class="node">
<title>Node18</title>
<g id="a_Node000018"><a xlink:title=" ">
<polygon fill="#e0e0e0" stroke="#999999" points="1171.12,-82 1087.12,-82 1087.12,-59 1171.12,-59 1171.12,-82"/>
<text text-anchor="middle" x="1129.12" y="-66.8" font-family="Arial" font-size="14.00">string_view</text>
</a>
</g>
</g>
<!-- Node16&#45;&gt;Node18 -->
<g id="edge23_Node000016_Node000018" class="edge">
<title>Node16&#45;&gt;Node18</title>
<g id="a_edge23_Node000016_Node000018"><a xlink:title=" ">
<path fill="none" stroke="#63b8ff" d="M948.1,-117.98C984.83,-108.55 1038.84,-94.68 1078.31,-84.55"/>
<polygon fill="#63b8ff" stroke="#63b8ff" points="1079.19,-87.93 1088.01,-82.06 1077.45,-81.15 1079.19,-87.93"/>
</a>
</g>
</g>
<!-- Node19&#45;&gt;Node10 -->
<g id="edge31_Node000019_Node000010" class="edge">
<title>Node19&#45;&gt;Node10</title>
<g id="a_edge31_Node000019_Node000010"><a xlink:title=" ">
<path fill="none" stroke="#63b8ff" d="M872.98,-176.98C853.3,-170.16 832.78,-159.05 821.12,-141 811.33,-125.83 818.62,-105.66 826.85,-90.96"/>
<polygon fill="#63b8ff" stroke="#63b8ff" points="829.98,-92.56 832.22,-82.2 824.01,-88.9 829.98,-92.56"/>
</a>
</g>
</g>
<!-- Node19&#45;&gt;Node16 -->
<g id="edge25_Node000019_Node000016" class="edge">
<title>Node19&#45;&gt;Node16</title>
<g id="a_edge25_Node000019_Node000016"><a xlink:title=" ">
<path fill="none" stroke="#63b8ff" d="M920.92,-176.78C918.76,-169.53 915.84,-159.74 913.24,-151.02"/>
<polygon fill="#63b8ff" stroke="#63b8ff" points="916.52,-149.76 910.31,-141.17 909.81,-151.76 916.52,-149.76"/>
</a>
</g>
</g>
<!-- Node20 -->
<g id="Node000020" class="node">
<title>Node20</title>
<g id="a_Node000020"><a xlink:href="EspTypes__Base_8h.html" target="_top" xlink:title="ESP32 base type definitions for hardware abstraction.">
<polygon fill="white" stroke="#666666" points="1208.62,-141 1083.62,-141 1083.62,-118 1208.62,-118 1208.62,-141"/>
<text text-anchor="middle" x="1146.12" y="-125.8" font-family="Arial" font-size="14.00">EspTypes_Base.h</text>
</a>
</g>
</g>
<!-- Node19&#45;&gt;Node20 -->
<g id="edge26_Node000019_Node000020" class="edge">
<title>Node19&#45;&gt;Node20</title>
<g id="a_edge26_Node000019_Node000020"><a xlink:title=" ">
<path fill="none" stroke="#63b8ff" d="M965.1,-176.98C1001.83,-167.55 1055.84,-153.68 1095.31,-143.55"/>
<polygon fill="#63b8ff" stroke="#63b8ff" points="1096.19,-146.93 1105.01,-141.06 1094.45,-140.15 1096.19,-146.93"/>
</a>
</g>
</g>
<!-- Node21 -->
<g id="Node000021" class="node">
<title>Node21</title>
<g id="a_Node000021"><a xlink:href="McuSelect_8h.html" target="_top" xlink:title="Centralized MCU platform selection and configuration header.">
<polygon fill="white" stroke="#666666" points="1331.12,-82 1189.12,-82 1189.12,-59 1331.12,-59 1331.12,-82"/>
<text text-anchor="middle" x="1260.12" y="-66.8" font-family="Arial" font-size="14.00">../../utils/McuSelect.h</text>
</a>
</g>
</g>
<!-- Node19&#45;&gt;Node21 -->
<g id="edge32_Node000019_Node000021" class="edge">
<title>Node19&#45;&gt;Node21</title>
<g id="a_edge32_Node000019_Node000021"><a xlink:title=" ">
<path fill="none" stroke="#63b8ff" d="M944,-176.81C972.25,-161.97 1025.95,-135.01 1074.12,-118 1114.14,-103.87 1160.44,-92.28 1196.84,-84.2"/>
<polygon fill="#63b8ff" stroke="#63b8ff" points="1197.8,-87.57 1206.82,-82.02 1196.31,-80.74 1197.8,-87.57"/>
</a>
</g>
</g>
<!-- Node20&#45;&gt;Node10 -->
<g id="edge28_Node000020_Node000010" class="edge">
<title>Node20&#45;&gt;Node10</title>
<g id="a_edge28_Node000020_Node000010"><a xlink:title=" ">
<path fill="none" stroke="#63b8ff" d="M1089.64,-117.98C1037.86,-108.33 961.16,-94.05 906.48,-83.86"/>
<polygon fill="#63b8ff" stroke="#63b8ff" points="907,-80.4 896.53,-82.01 905.72,-87.28 907,-80.4"/>
</a>
</g>
</g>
<!-- Node20&#45;&gt;Node11 -->
<g id="edge30_Node000020_Node000011" class="edge">
<title>Node20&#45;&gt;Node11</title>
<g id="a_edge30_Node000020_Node000011"><a xlink:title=" ">
<path fill="none" stroke="#63b8ff" d="M1130.73,-117.91C1105.96,-100.94 1058.19,-68.6 1040.12,-59 1016.44,-46.41 988.61,-34.76 966.73,-26.27"/>
<polygon fill="#63b8ff" stroke="#63b8ff" points="967.73,-22.9 957.14,-22.6 965.23,-29.44 967.73,-22.9"/>
</a>
</g>
</g>
<!-- Node20&#45;&gt;Node21 -->
<g id="edge27_Node000020_Node000021" class="edge">
<title>Node20&#45;&gt;Node21</title>
<g id="a_edge27_Node000020_Node000021"><a xlink:title=" ">
<path fill="none" stroke="#63b8ff" d="M1167.3,-117.91C1184.89,-109.11 1210.15,-96.49 1229.88,-86.62"/>
<polygon fill="#63b8ff" stroke="#63b8ff" points="1231.68,-89.63 1239.06,-82.03 1228.55,-83.37 1231.68,-89.63"/>
</a>
</g>
</g>
<!-- Node20&#45;&gt;Node22 -->
<g id="edge29_Node000020_Node000022" class="edge">
<title>Node20&#45;&gt;Node22</title>
<g id="a_edge29_Node000020_Node000022"><a xlink:title=" ">
<path fill="none" stroke="#63b8ff" d="M1195.96,-117.98C1248.34,-106.92 1329.64,-89.76 1377.4,-79.67"/>
<polygon fill="#63b8ff" stroke="#63b8ff" points="1378.29,-83.06 1387.35,-77.57 1376.84,-76.22 1378.29,-83.06"/>
</a>
</g>
</g>
<!-- Node24&#45;&gt;Node10 -->
<g id="edge35_Node000024_Node000010" class="edge">
<title>Node24&#45;&gt;Node10</title>
<g id="a_edge35_Node000024_Node000010"><a xlink:title=" ">
<path fill="none" stroke="#63b8ff" d="M1264.86,-121.62C1176.14,-111.15 1007.37,-91.24 911.44,-79.92"/>
<polygon fill="#63b8ff" stroke="#63b8ff" points="911.59,-76.41 901.25,-78.71 910.77,-83.36 911.59,-76.41"/>
</a>
</g>
</g>
<!-- Node24&#45;&gt;Node11 -->
<g id="edge37_Node000024_Node000011" class="edge">
<title>Node24&#45;&gt;Node11</title>
<g id="a_edge37_Node000024_Node000011"><a xlink:title=" ">
<path fill="none" stroke="#63b8ff" d="M1330.83,-117.92C1340.72,-102.95 1354.93,-75.58 1340.12,-59 1315.51,-31.45 1064.89,-18.14 967.52,-13.99"/>
<polygon fill="#63b8ff" stroke="#63b8ff" points="967.37,-10.48 957.23,-13.56 967.08,-17.47 967.37,-10.48"/>
</a>
</g>
</g>
<!-- Node24&#45;&gt;Node17 -->
<g id="edge38_Node000024_Node000017" class="edge">
<title>Node24&#45;&gt;Node17</title>
<g id="a_edge38_Node000024_Node000017"><a xlink:title=" ">
<path fill="none" stroke="#63b8ff" d="M1265.06,-118.44C1201.37,-107.41 1100.37,-89.91 1041.34,-79.68"/>
<polygon fill="#63b8ff" stroke="#63b8ff" points="1041.63,-76.18 1031.18,-77.92 1040.44,-83.08 1041.63,-76.18"/>
</a>
</g>
</g>
<!-- Node24&#45;&gt;Node18 -->
<g id="edge39_Node000024_Node000018" class="edge">
<title>Node24&#45;&gt;Node18</title>
<g id="a_edge39_Node000024_Node000018"><a xlink:title=" ">
<path fill="none" stroke="#63b8ff" d="M1287.09,-117.91C1255.37,-108.59 1209.03,-94.98 1174.74,-84.9"/>
<polygon fill="#63b8ff" stroke="#63b8ff" points="1175.55,-81.49 1164.96,-82.03 1173.57,-88.21 1175.55,-81.49"/>
</a>
</g>
</g>
<!-- Node24&#45;&gt;Node22 -->
<g id="edge36_Node000024_Node000022" class="edge">
<title>Node24&#45;&gt;Node22</title>
<g id="a_edge36_Node000024_Node000022"><a xlink:title=" ">
<path fill="none" stroke="#63b8ff" d="M1340.61,-117.78C1354.51,-109.26 1374.17,-97.21 1389.94,-87.55"/>
<polygon fill="#63b8ff" stroke="#63b8ff" points="1392.01,-90.38 1398.71,-82.17 1388.35,-84.41 1392.01,-90.38"/>
</a>
</g>
</g>
<!-- Node25&#45;&gt;Node17 -->
<g id="edge58_Node000025_Node000017" class="edge">
<title>Node25&#45;&gt;Node17</title>
<g id="a_edge58_Node000025_Node000017"><a xlink:title=" ">
<path fill="none" stroke="#63b8ff" d="M1186.04,-239.19C1129.77,-232.14 1058.04,-219.62 1036.12,-200 1004.94,-172.08 996.82,-120.7 994.76,-92.1"/>
<polygon fill="#63b8ff" stroke="#63b8ff" points="998.25,-91.82 994.22,-82.02 991.26,-92.19 998.25,-91.82"/>
</a>
</g>
</g>
<!-- Node25&#45;&gt;Node21 -->
<g id="edge41_Node000025_Node000021" class="edge">
<title>Node25&#45;&gt;Node21</title>
<g id="a_edge41_Node000025_Node000021"><a xlink:title=" ">
<path fill="none" stroke="#63b8ff" d="M1332.18,-241.68C1392.17,-236.02 1470.36,-224.14 1490.12,-200 1540.15,-138.89 1418.07,-101.76 1333.28,-84.06"/>
<polygon fill="#63b8ff" stroke="#63b8ff" points="1333.89,-80.61 1323.4,-82.05 1332.5,-87.47 1333.89,-80.61"/>
</a>
</g>
</g>
<!-- Node25&#45;&gt;Node22 -->
<g id="edge57_Node000025_Node000022" class="edge">
<title>Node25&#45;&gt;Node22</title>
<g id="a_edge57_Node000025_Node000022"><a xlink:title=" ">
<path fill="none" stroke="#63b8ff" d="M1332.41,-243.04C1398.23,-238.21 1487.84,-226.79 1510.12,-200 1542.36,-161.24 1480.95,-112.49 1442.97,-87.65"/>
<polygon fill="#63b8ff" stroke="#63b8ff" points="1444.66,-84.58 1434.35,-82.16 1440.9,-90.48 1444.66,-84.58"/>
</a>
</g>
</g>
<!-- Node25&#45;&gt;Node24 -->
<g id="edge44_Node000025_Node000024" class="edge">
<title>Node25&#45;&gt;Node24</title>
<g id="a_edge44_Node000025_Node000024"><a xlink:title=" ">
<path fill="none" stroke="#63b8ff" d="M1252.48,-235.91C1244.47,-221.64 1233.34,-195.86 1244.12,-177 1252.22,-162.83 1266.51,-152.56 1280.72,-145.32"/>
<polygon fill="#63b8ff" stroke="#63b8ff" points="1282.41,-148.4 1289.99,-141 1279.45,-142.06 1282.41,-148.4"/>
</a>
</g>
</g>
<!-- Node26 -->
<g id="Node000026" class="node">
<title>Node26</title>
<g id="a_Node000026"><a xlink:title=" ">
<polygon fill="#e0e0e0" stroke="#999999" points="1334.62,-200 1253.62,-200 1253.62,-177 1334.62,-177 1334.62,-200"/>
<text text-anchor="middle" x="1294.12" y="-184.8" font-family="Arial" font-size="14.00">esp_twai.h</text>
</a>
</g>
</g>
<!-- Node25&#45;&gt;Node26 -->
<g id="edge42_Node000025_Node000026" class="edge">
<title>Node25&#45;&gt;Node26</title>
<g id="a_edge42_Node000025_Node000026"><a xlink:title=" ">
<path fill="none" stroke="#63b8ff" d="M1265.71,-235.78C1270.35,-228.22 1276.7,-217.87 1282.22,-208.88"/>
<polygon fill="#63b8ff" stroke="#63b8ff" points="1285.32,-210.53 1287.57,-200.17 1279.35,-206.86 1285.32,-210.53"/>
</a>
</g>
</g>
<!-- Node27 -->
<g id="Node000027" class="node">
<title>Node27</title>
<g id="a_Node000027"><a xlink:title=" ">
<polygon fill="#e0e0e0" stroke="#999999" points="1481.12,-200 1353.12,-200 1353.12,-177 1481.12,-177 1481.12,-200"/>
<text text-anchor="middle" x="1417.12" y="-184.8" font-family="Arial" font-size="14.00">esp_twai_onchip.h</text>
</a>
</g>
</g>
<!-- Node25&#45;&gt;Node27 -->
<g id="edge43_Node000025_Node000027" class="edge">
<title>Node25&#45;&gt;Node27</title>
<g id="a_edge43_Node000025_Node000027"><a xlink:title=" ">
<path fill="none" stroke="#63b8ff" d="M1288.47,-235.91C1313.86,-226.75 1350.75,-213.45 1378.52,-203.43"/>
<polygon fill="#63b8ff" stroke="#63b8ff" points="1379.71,-206.72 1387.93,-200.03 1377.34,-200.13 1379.71,-206.72"/>
</a>
</g>
</g>
<!-- Node28 -->
<g id="Node000028" class="node">
<title>Node28</title>
<g id="a_Node000028"><a xlink:href="RtosMutex_8h.html" target="_top" xlink:title="Cross&#45;platform RTOS mutex and synchronization primitives.">
<polygon fill="white" stroke="#666666" points="802.62,-200 709.62,-200 709.62,-177 802.62,-177 802.62,-200"/>
<text text-anchor="middle" x="756.12" y="-184.8" font-family="Arial" font-size="14.00">RtosMutex.h</text>
</a>
</g>
</g>
<!-- Node25&#45;&gt;Node28 -->
<g id="edge45_Node000025_Node000028" class="edge">
<title>Node25&#45;&gt;Node28</title>
<g id="a_edge45_Node000025_Node000028"><a xlink:title=" ">
<path fill="none" stroke="#63b8ff" d="M1185.98,-238.21C1084.84,-226.75 904.41,-206.3 812.82,-195.93"/>
<polygon fill="#63b8ff" stroke="#63b8ff" points="812.97,-192.42 802.64,-194.77 812.18,-199.38 812.97,-192.42"/>
</a>
</g>
</g>
<!-- Node29 -->
<g id="Node000029" class="node">
<title>Node29</title>
<g id="a_Node000029"><a xlink:href="EspTypes__CAN_8h.html" target="_top" xlink:title="ESP32 CAN type definitions for hardware abstraction.">
<polygon fill="white" stroke="#666666" points="1196.62,-200 1045.62,-200 1045.62,-177 1196.62,-177 1196.62,-200"/>
<text text-anchor="middle" x="1121.12" y="-184.8" font-family="Arial" font-size="14.00">utils/EspTypes_CAN.h</text>
</a>
</g>
</g>
<!-- Node25&#45;&gt;Node29 -->
<g id="edge52_Node000025_Node000029" class="edge">
<title>Node25&#45;&gt;Node29</title>
<g id="a_edge52_Node000025_Node000029"><a xlink:title=" ">
<path fill="none" stroke="#63b8ff" d="M1233.49,-235.91C1211.7,-226.91 1180.22,-213.91 1156.12,-203.95"/>
<polygon fill="#63b8ff" stroke="#63b8ff" points="1157.2,-200.61 1146.62,-200.03 1154.52,-207.08 1157.2,-200.61"/>
</a>
</g>
</g>
<!-- Node25&#45;&gt;Node30 -->
<g id="edge59_Node000025_Node000030" class="edge">
<title>Node25&#45;&gt;Node30</title>
<g id="a_edge59_Node000025_Node000030"><a xlink:title=" ">
<path fill="none" stroke="#63b8ff" d="M1332.26,-236.55C1393.56,-227.89 1483.28,-214.49 1561.12,-200 1562.59,-199.73 1564.08,-199.44 1565.59,-199.15"/>
<polygon fill="#63b8ff" stroke="#63b8ff" points="1566.5,-202.53 1575.61,-197.11 1565.11,-195.67 1566.5,-202.53"/>
</a>
</g>
</g>
<!-- Node28&#45;&gt;Node4 -->
<g id="edge47_Node000028_Node000004" class="edge">
<title>Node28&#45;&gt;Node4</title>
<g id="a_edge47_Node000028_Node000004"><a xlink:title=" ">
<path fill="none" stroke="#63b8ff" d="M709.17,-182.98C608.66,-173.3 371.57,-150.47 245.8,-138.36"/>
<polygon fill="#63b8ff" stroke="#63b8ff" points="246.12,-134.88 235.83,-137.4 245.45,-141.85 246.12,-134.88"/>
</a>
</g>
</g>
<!-- Node28&#45;&gt;Node6 -->
<g id="edge49_Node000028_Node000006" class="edge">
<title>Node28&#45;&gt;Node6</title>
<g id="a_edge49_Node000028_Node000006"><a xlink:title=" ">
<path fill="none" stroke="#63b8ff" d="M715.33,-176.98C678.84,-167.57 625.22,-153.74 585.96,-143.61"/>
<polygon fill="#63b8ff" stroke="#63b8ff" points="586.61,-140.16 576.05,-141.06 584.86,-146.94 586.61,-140.16"/>
</a>
</g>
</g>
<!-- Node28&#45;&gt;Node9 -->
<g id="edge48_Node000028_Node000009" class="edge">
<title>Node28&#45;&gt;Node9</title>
<g id="a_edge48_Node000028_Node000009"><a xlink:title=" ">
<path fill="none" stroke="#63b8ff" d="M739.01,-176.78C725.41,-168.26 706.17,-156.21 690.74,-146.55"/>
<polygon fill="#63b8ff" stroke="#63b8ff" points="692.49,-143.52 682.16,-141.17 688.78,-149.45 692.49,-143.52"/>
</a>
</g>
</g>
<!-- Node28&#45;&gt;Node11 -->
<g id="edge51_Node000028_Node000011" class="edge">
<title>Node28&#45;&gt;Node11</title>
<g id="a_edge51_Node000028_Node000011"><a xlink:title=" ">
<path fill="none" stroke="#63b8ff" d="M753.7,-176.68C748.97,-152.48 741.3,-93.4 770.12,-59 778.03,-49.57 846.44,-31.96 890.92,-21.33"/>
<polygon fill="#63b8ff" stroke="#63b8ff" points="891.91,-24.69 900.83,-18.98 890.3,-17.88 891.91,-24.69"/>
</a>
</g>
</g>
<!-- Node28&#45;&gt;Node21 -->
<g id="edge46_Node000028_Node000021" class="edge">
<title>Node28&#45;&gt;Node21</title>
<g id="a_edge46_Node000028_Node000021"><a xlink:title=" ">
<path fill="none" stroke="#63b8ff" d="M802.89,-179.13C844.62,-171.12 907.14,-157.79 960.12,-141 985.77,-132.87 990.33,-125.67 1016.12,-118 1069.47,-102.14 1131.05,-90.45 1179,-82.76"/>
<polygon fill="#63b8ff" stroke="#63b8ff" points="1179.68,-86.19 1189.01,-81.18 1178.59,-79.28 1179.68,-86.19"/>
</a>
</g>
</g>
<!-- Node28&#45;&gt;Node22 -->
<g id="edge50_Node000028_Node000022" class="edge">
<title>Node28&#45;&gt;Node22</title>
<g id="a_edge50_Node000028_Node000022"><a xlink:title=" ">
<path fill="none" stroke="#63b8ff" d="M802.94,-181.85C817.99,-180.15 834.75,-178.37 850.12,-177 910.02,-171.66 1341.88,-176.9 1390.12,-141 1405.41,-129.63 1411.71,-108.2 1414.3,-92.14"/>
<polygon fill="#63b8ff" stroke="#63b8ff" points="1417.8,-92.42 1415.58,-82.06 1410.85,-91.54 1417.8,-92.42"/>
</a>
</g>
</g>
<!-- Node29&#45;&gt;Node10 -->
<g id="edge55_Node000029_Node000010" class="edge">
<title>Node29&#45;&gt;Node10</title>
<g id="a_edge55_Node000029_Node000010"><a xlink:title=" ">
<path fill="none" stroke="#63b8ff" d="M1045.43,-178.72C971.39,-169.43 867.79,-154.32 854.12,-141 841.35,-128.56 838.55,-107.95 838.52,-92.39"/>
<polygon fill="#63b8ff" stroke="#63b8ff" points="842.03,-92.27 838.89,-82.15 835.04,-92.02 842.03,-92.27"/>
</a>
</g>
</g>
<!-- Node29&#45;&gt;Node20 -->
<g id="edge54_Node000029_Node000020" class="edge">
<title>Node29&#45;&gt;Node20</title>
<g id="a_edge54_Node000029_Node000020"><a xlink:title=" ">
<path fill="none" stroke="#63b8ff" d="M1125.82,-176.78C1129.07,-169.37 1133.49,-159.3 1137.37,-150.45"/>
<polygon fill="#63b8ff" stroke="#63b8ff" points="1140.63,-151.74 1141.44,-141.17 1134.22,-148.93 1140.63,-151.74"/>
</a>
</g>
</g>
<!-- Node29&#45;&gt;Node21 -->
<g id="edge56_Node000029_Node000021" class="edge">
<title>Node29&#45;&gt;Node21</title>
<g id="a_edge56_Node000029_Node000021"><a xlink:title=" ">
<path fill="none" stroke="#63b8ff" d="M1154.1,-176.86C1174.01,-169.22 1198.97,-157.37 1217.12,-141 1232.36,-127.26 1244.1,-106.86 1251.44,-91.71"/>
<polygon fill="#63b8ff" stroke="#63b8ff" points="1254.81,-92.76 1255.8,-82.21 1248.45,-89.84 1254.81,-92.76"/>
</a>
</g>
</g>
<!-- Node29&#45;&gt;Node24 -->
<g id="edge53_Node000029_Node000024" class="edge">
<title>Node29&#45;&gt;Node24</title>
<g id="a_edge53_Node000029_Node000024"><a xlink:title=" ">
<path fill="none" stroke="#63b8ff" d="M1158.64,-176.91C1191.81,-167.55 1240.33,-153.86 1276.08,-143.77"/>
<polygon fill="#63b8ff" stroke="#63b8ff" points="1277.13,-147.12 1285.8,-141.03 1275.23,-140.38 1277.13,-147.12"/>
</a>
</g>
</g>
</g>
</svg>
