<?xml version="1.0" encoding="UTF-8" standalone="no"?>
<!DOCTYPE svg PUBLIC "-//W3C//DTD SVG 1.1//EN"
 "http://www.w3.org/Graphics/SVG/1.1/DTD/svg11.dtd">
<!-- Generated by graphviz version 2.43.0 (0)
 -->
<!-- Title: EspGpio Pages: 1 -->
<svg width="654pt" height="190pt"
 viewBox="0.00 0.00 654.00 190.00" xmlns="http://www.w3.org/2000/svg" xmlns:xlink="http://www.w3.org/1999/xlink">
<g id="graph0" class="graph" transform="scale(1 1) rotate(0) translate(4 186)">
<title>EspGpio</title>
<!-- Node1 -->
<g id="Node000001" class="node">
<title>Node1</title>
<g id="a_Node000001"><a xlink:title="Advanced MCU&#45;specific implementation of unified BaseGpio with ESP32C6/ESP&#45;IDF v5.5+ features.">
<polygon fill="#999999" stroke="#666666" points="646,-88 577,-88 577,-65 646,-65 646,-88"/>
<text text-anchor="middle" x="611.5" y="-72.8" font-family="Arial" font-size="14.00">EspGpio</text>
</a>
</g>
</g>
<!-- Node2 -->
<g id="Node000002" class="node">
<title>Node2</title>
<g id="a_Node000002"><a xlink:href="classBaseGpio.html" target="_top" xlink:title="Unified GPIO base class for all digital GPIO implementations.">
<polygon fill="white" stroke="#666666" points="385.5,-162 308.5,-162 308.5,-139 385.5,-139 385.5,-162"/>
<text text-anchor="middle" x="347" y="-146.8" font-family="Arial" font-size="14.00">BaseGpio</text>
</a>
</g>
</g>
<!-- Node2&#45;&gt;Node1 -->
<g id="edge1_Node000001_Node000002" class="edge">
<title>Node2&#45;&gt;Node1</title>
<g id="a_edge1_Node000001_Node000002"><a xlink:title=" ">
<path fill="none" stroke="#63b8ff" d="M395.94,-146.84C439.73,-142.26 505.59,-132.17 559,-110.5 572.5,-105.02 586.19,-95.77 596.06,-88.3"/>
<polygon fill="#63b8ff" stroke="#63b8ff" points="395.46,-143.38 385.85,-147.85 396.15,-150.34 395.46,-143.38"/>
</a>
</g>
</g>
<!-- Node3 -->
<g id="Node000003" class="node">
<title>Node3</title>
<g id="a_Node000003"><a xlink:href="structhf__gpio__statistics__t.html" target="_top" xlink:title="GPIO operation statistics.">
<polygon fill="white" stroke="#666666" points="139,-182 8,-182 8,-159 139,-159 139,-182"/>
<text text-anchor="middle" x="73.5" y="-166.8" font-family="Arial" font-size="14.00">hf_gpio_statistics_t</text>
</a>
</g>
</g>
<!-- Node3&#45;&gt;Node2 -->
<g id="edge2_Node000002_Node000003" class="edge">
<title>Node3&#45;&gt;Node2</title>
<g id="a_edge2_Node000002_Node000003"><a xlink:title=" ">
<path fill="none" stroke="#9a32cd" stroke-dasharray="5,2" d="M149.29,-164.99C200.85,-161.19 267.21,-156.3 308.17,-153.29"/>
<polygon fill="#9a32cd" stroke="#9a32cd" points="148.9,-161.51 139.19,-165.73 149.42,-168.49 148.9,-161.51"/>
</a>
</g>
<text text-anchor="middle" x="204.5" y="-166.3" font-family="Arial" font-size="14.00" fill="grey"> statistics_</text>
</g>
<!-- Node4 -->
<g id="Node000004" class="node">
<title>Node4</title>
<g id="a_Node000004"><a xlink:href="structhf__gpio__diagnostics__t.html" target="_top" xlink:title="GPIO diagnostic information.">
<polygon fill="white" stroke="#666666" points="147,-141 0,-141 0,-118 147,-118 147,-141"/>
<text text-anchor="middle" x="73.5" y="-125.8" font-family="Arial" font-size="14.00">hf_gpio_diagnostics_t</text>
</a>
</g>
</g>
<!-- Node4&#45;&gt;Node2 -->
<g id="edge3_Node000002_Node000004" class="edge">
<title>Node4&#45;&gt;Node2</title>
<g id="a_edge3_Node000002_Node000004"><a xlink:title=" ">
<path fill="none" stroke="#9a32cd" stroke-dasharray="5,2" d="M157.18,-132.83C184.81,-134.22 215.76,-136.09 244,-138.5 265.32,-140.32 289.06,-143.07 308.28,-145.48"/>
<polygon fill="#9a32cd" stroke="#9a32cd" points="157.32,-129.33 147.16,-132.33 156.97,-136.32 157.32,-129.33"/>
</a>
</g>
<text text-anchor="middle" x="204.5" y="-142.3" font-family="Arial" font-size="14.00" fill="grey"> diagnostics_</text>
</g>
<!-- Node5 -->
<g id="Node000005" class="node">
<title>Node5</title>
<g id="a_Node000005"><a xlink:href="structhf__gpio__flex__filter__config__t.html" target="_top" xlink:title="Flexible glitch filter configuration.">
<polygon fill="white" stroke="#666666" points="408,-120.5 286,-120.5 286,-82.5 408,-82.5 408,-120.5"/>
<text text-anchor="start" x="294" y="-105.3" font-family="Arial" font-size="14.00">hf_gpio_flex_filter</text>
<text text-anchor="middle" x="347" y="-90.3" font-family="Arial" font-size="14.00">_config_t</text>
</a>
</g>
</g>
<!-- Node5&#45;&gt;Node1 -->
<g id="edge4_Node000001_Node000005" class="edge">
<title>Node5&#45;&gt;Node1</title>
<g id="a_edge4_Node000001_Node000005"><a xlink:title=" ">
<path fill="none" stroke="#9a32cd" stroke-dasharray="5,2" d="M418.25,-94.81C469.53,-89.93 536.79,-83.52 576.65,-79.72"/>
<polygon fill="#9a32cd" stroke="#9a32cd" points="417.85,-91.33 408.22,-95.76 418.51,-98.3 417.85,-91.33"/>
</a>
</g>
<text text-anchor="middle" x="504.5" y="-95.3" font-family="Arial" font-size="14.00" fill="grey"> flex_filter_config_</text>
</g>
<!-- Node6 -->
<g id="Node000006" class="node">
<title>Node6</title>
<g id="a_Node000006"><a xlink:href="structhf__gpio__sleep__config__t.html" target="_top" xlink:title="GPIO sleep mode configuration.">
<polygon fill="white" stroke="#666666" points="424.5,-64 269.5,-64 269.5,-41 424.5,-41 424.5,-64"/>
<text text-anchor="middle" x="347" y="-48.8" font-family="Arial" font-size="14.00">hf_gpio_sleep_config_t</text>
</a>
</g>
</g>
<!-- Node6&#45;&gt;Node1 -->
<g id="edge5_Node000001_Node000006" class="edge">
<title>Node6&#45;&gt;Node1</title>
<g id="a_edge5_Node000001_Node000006"><a xlink:title=" ">
<path fill="none" stroke="#9a32cd" stroke-dasharray="5,2" d="M435.05,-54.08C473.23,-55.65 518.49,-58.67 559,-64.5 564.82,-65.34 570.94,-66.5 576.86,-67.79"/>
<polygon fill="#9a32cd" stroke="#9a32cd" points="435.11,-50.58 424.99,-53.7 434.85,-57.58 435.11,-50.58"/>
</a>
</g>
<text text-anchor="middle" x="504.5" y="-68.3" font-family="Arial" font-size="14.00" fill="grey"> sleep_config_</text>
</g>
<!-- Node7 -->
<g id="Node000007" class="node">
<title>Node7</title>
<g id="a_Node000007"><a xlink:href="structhf__gpio__wakeup__config__t.html" target="_top" xlink:title="GPIO wake&#45;up configuration for deep sleep.">
<polygon fill="white" stroke="#666666" points="432,-23 262,-23 262,0 432,0 432,-23"/>
<text text-anchor="middle" x="347" y="-7.8" font-family="Arial" font-size="14.00">hf_gpio_wakeup_config_t</text>
</a>
</g>
</g>
<!-- Node7&#45;&gt;Node1 -->
<g id="edge6_Node000001_Node000007" class="edge">
<title>Node7&#45;&gt;Node1</title>
<g id="a_edge6_Node000001_Node000007"><a xlink:title=" ">
<path fill="none" stroke="#9a32cd" stroke-dasharray="5,2" d="M442.41,-11.85C479.85,-14.74 522.58,-21.56 559,-36.5 574.71,-42.94 589.69,-55.57 599.4,-64.92"/>
<polygon fill="#9a32cd" stroke="#9a32cd" points="442.22,-8.33 432,-11.14 441.74,-15.31 442.22,-8.33"/>
</a>
</g>
<text text-anchor="middle" x="504.5" y="-40.3" font-family="Arial" font-size="14.00" fill="grey"> wakeup_config_</text>
</g>
</g>
</svg>
