<?xml version="1.0" encoding="UTF-8" standalone="no"?>
<!DOCTYPE svg PUBLIC "-//W3C//DTD SVG 1.1//EN"
 "http://www.w3.org/Graphics/SVG/1.1/DTD/svg11.dtd">
<!-- Generated by graphviz version 2.43.0 (0)
 -->
<!-- Title: EspBluetooth Pages: 1 -->
<svg width="445pt" height="120pt"
 viewBox="0.00 0.00 445.00 120.00" xmlns="http://www.w3.org/2000/svg" xmlns:xlink="http://www.w3.org/1999/xlink">
<g id="graph0" class="graph" transform="scale(1 1) rotate(0) translate(4 116)">
<title>EspBluetooth</title>
<!-- Node1 -->
<g id="Node000001" class="node">
<title>Node1</title>
<g id="a_Node000001"><a xlink:title="ESP32 Bluetooth implementation class.">
<polygon fill="#999999" stroke="#666666" points="256.5,-23 159.5,-23 159.5,0 256.5,0 256.5,-23"/>
<text text-anchor="middle" x="208" y="-7.8" font-family="Arial" font-size="14.00">EspBluetooth</text>
</a>
</g>
</g>
<!-- Node2 -->
<g id="Node000002" class="node">
<title>Node2</title>
<g id="a_Node000002"><a xlink:href="classBaseBluetooth.html" target="_top" xlink:title="Abstract base class for Bluetooth functionality.">
<polygon fill="white" stroke="#666666" points="104,-112 0,-112 0,-89 104,-89 104,-112"/>
<text text-anchor="middle" x="52" y="-96.8" font-family="Arial" font-size="14.00">BaseBluetooth</text>
</a>
</g>
</g>
<!-- Node2&#45;&gt;Node1 -->
<g id="edge1_Node000001_Node000002" class="edge">
<title>Node2&#45;&gt;Node1</title>
<g id="a_edge1_Node000001_Node000002"><a xlink:title=" ">
<path fill="none" stroke="#63b8ff" d="M80.23,-83.75C111.63,-66.25 161.49,-38.44 188.71,-23.26"/>
<polygon fill="#63b8ff" stroke="#63b8ff" points="78.16,-80.9 71.13,-88.83 81.57,-87.02 78.16,-80.9"/>
</a>
</g>
</g>
<!-- Node3 -->
<g id="Node000003" class="node">
<title>Node3</title>
<g id="a_Node000003"><a xlink:href="structhf__bluetooth__ble__config__t.html" target="_top" xlink:title="Bluetooth Low Energy configuration structure.">
<polygon fill="white" stroke="#666666" points="293.5,-112 122.5,-112 122.5,-89 293.5,-89 293.5,-112"/>
<text text-anchor="middle" x="208" y="-96.8" font-family="Arial" font-size="14.00">hf_bluetooth_ble_config_t</text>
</a>
</g>
</g>
<!-- Node3&#45;&gt;Node1 -->
<g id="edge2_Node000001_Node000003" class="edge">
<title>Node3&#45;&gt;Node1</title>
<g id="a_edge2_Node000001_Node000003"><a xlink:title=" ">
<path fill="none" stroke="#9a32cd" stroke-dasharray="5,2" d="M208,-78.52C208,-61.08 208,-37 208,-23.26"/>
<polygon fill="#9a32cd" stroke="#9a32cd" points="204.5,-78.83 208,-88.83 211.5,-78.83 204.5,-78.83"/>
</a>
</g>
<text text-anchor="middle" x="250.5" y="-52.3" font-family="Arial" font-size="14.00" fill="grey"> m_ble_config</text>
</g>
<!-- Node4 -->
<g id="Node000004" class="node">
<title>Node4</title>
<g id="a_Node000004"><a xlink:href="classRtosMutex.html" target="_top" xlink:title=" ">
<polygon fill="white" stroke="#666666" points="394,-112 312,-112 312,-89 394,-89 394,-112"/>
<text text-anchor="middle" x="353" y="-96.8" font-family="Arial" font-size="14.00">RtosMutex</text>
</a>
</g>
</g>
<!-- Node4&#45;&gt;Node1 -->
<g id="edge3_Node000001_Node000004" class="edge">
<title>Node4&#45;&gt;Node1</title>
<g id="a_edge3_Node000001_Node000004"><a xlink:title=" ">
<path fill="none" stroke="#9a32cd" stroke-dasharray="5,2" d="M339.15,-80.71C328.82,-67.89 313.66,-51.41 297,-41 284.48,-33.18 269.61,-27.31 255.65,-23.01"/>
<polygon fill="#9a32cd" stroke="#9a32cd" points="336.6,-83.12 345.49,-88.88 342.13,-78.83 336.6,-83.12"/>
</a>
</g>
<text text-anchor="middle" x="383" y="-59.8" font-family="Arial" font-size="14.00" fill="grey"> m_device_mutex</text>
<text text-anchor="middle" x="383" y="-44.8" font-family="Arial" font-size="14.00" fill="grey">m_state_mutex</text>
</g>
</g>
</svg>
