<?xml version="1.0" encoding="UTF-8" standalone="no"?>
<!DOCTYPE svg PUBLIC "-//W3C//DTD SVG 1.1//EN"
 "http://www.w3.org/Graphics/SVG/1.1/DTD/svg11.dtd">
<!-- Generated by graphviz version 2.43.0 (0)
 -->
<!-- Title: EspPio Pages: 1 -->
<svg width="498pt" height="179pt"
 viewBox="0.00 0.00 498.00 179.00" xmlns="http://www.w3.org/2000/svg" xmlns:xlink="http://www.w3.org/1999/xlink">
<g id="graph0" class="graph" transform="scale(1 1) rotate(0) translate(4 175)">
<title>EspPio</title>
<!-- Node1 -->
<g id="Node000001" class="node">
<title>Node1</title>
<g id="a_Node000001"><a xlink:title="ESP32C6 RMT&#45;based Programmable IO Channel implementation with advanced ESP&#45;IDF v5....">
<polygon fill="#999999" stroke="#666666" points="278.5,-23 219.5,-23 219.5,0 278.5,0 278.5,-23"/>
<text text-anchor="middle" x="249" y="-7.8" font-family="Arial" font-size="14.00">EspPio</text>
</a>
</g>
</g>
<!-- Node2 -->
<g id="Node000002" class="node">
<title>Node2</title>
<g id="a_Node000002"><a xlink:href="classBasePio.html" target="_top" xlink:title="Abstract base class for Programmable IO Channel implementations.">
<polygon fill="white" stroke="#666666" points="230.5,-97 163.5,-97 163.5,-74 230.5,-74 230.5,-97"/>
<text text-anchor="middle" x="197" y="-81.8" font-family="Arial" font-size="14.00">BasePio</text>
</a>
</g>
</g>
<!-- Node2&#45;&gt;Node1 -->
<g id="edge1_Node000001_Node000002" class="edge">
<title>Node2&#45;&gt;Node1</title>
<g id="a_edge1_Node000001_Node000002"><a xlink:title=" ">
<path fill="none" stroke="#63b8ff" d="M210.58,-65.7C220.36,-52.15 233.22,-34.35 241.3,-23.17"/>
<polygon fill="#63b8ff" stroke="#63b8ff" points="207.69,-63.72 204.67,-73.88 213.37,-67.82 207.69,-63.72"/>
</a>
</g>
</g>
<!-- Node3 -->
<g id="Node000003" class="node">
<title>Node3</title>
<g id="a_Node000003"><a xlink:href="structhf__pio__statistics__t.html" target="_top" xlink:title="PIO operation statistics.">
<polygon fill="white" stroke="#666666" points="124,-171 0,-171 0,-148 124,-148 124,-171"/>
<text text-anchor="middle" x="62" y="-155.8" font-family="Arial" font-size="14.00">hf_pio_statistics_t</text>
</a>
</g>
</g>
<!-- Node3&#45;&gt;Node1 -->
<g id="edge5_Node000001_Node000003" class="edge">
<title>Node3&#45;&gt;Node1</title>
<g id="a_edge5_Node000001_Node000003"><a xlink:title=" ">
<path fill="none" stroke="#9a32cd" stroke-dasharray="5,2" d="M50.87,-139.03C41.95,-120.55 33.02,-92.88 47,-74 67.68,-46.09 168.43,-25.8 219.38,-17.14"/>
<polygon fill="#9a32cd" stroke="#9a32cd" points="47.82,-140.75 55.55,-148 54.03,-137.51 47.82,-140.75"/>
</a>
</g>
<text text-anchor="middle" x="100.5" y="-81.8" font-family="Arial" font-size="14.00" fill="grey"> global_statistics_</text>
</g>
<!-- Node3&#45;&gt;Node2 -->
<g id="edge2_Node000002_Node000003" class="edge">
<title>Node3&#45;&gt;Node2</title>
<g id="a_edge2_Node000002_Node000003"><a xlink:title=" ">
<path fill="none" stroke="#9a32cd" stroke-dasharray="5,2" d="M76.21,-139.9C83.66,-131.26 93.42,-121.49 104,-115 114.08,-108.82 140.95,-100.88 163.23,-94.95"/>
<polygon fill="#9a32cd" stroke="#9a32cd" points="73.46,-137.74 69.83,-147.69 78.87,-142.17 73.46,-137.74"/>
</a>
</g>
<text text-anchor="middle" x="136" y="-118.8" font-family="Arial" font-size="14.00" fill="grey"> statistics_</text>
</g>
<!-- Node4 -->
<g id="Node000004" class="node">
<title>Node4</title>
<g id="a_Node000004"><a xlink:href="structhf__pio__diagnostics__t.html" target="_top" xlink:title="PIO diagnostic information.">
<polygon fill="white" stroke="#666666" points="309,-171 169,-171 169,-148 309,-148 309,-171"/>
<text text-anchor="middle" x="239" y="-155.8" font-family="Arial" font-size="14.00">hf_pio_diagnostics_t</text>
</a>
</g>
</g>
<!-- Node4&#45;&gt;Node1 -->
<g id="edge6_Node000001_Node000004" class="edge">
<title>Node4&#45;&gt;Node1</title>
<g id="a_edge6_Node000001_Node000004"><a xlink:title=" ">
<path fill="none" stroke="#9a32cd" stroke-dasharray="5,2" d="M250.11,-138.74C251.3,-135.88 252.32,-132.92 253,-130 261.96,-91.43 255.04,-43.84 251.17,-23.05"/>
<polygon fill="#9a32cd" stroke="#9a32cd" points="246.91,-137.32 245.68,-147.84 253.21,-140.38 246.91,-137.32"/>
</a>
</g>
<text text-anchor="middle" x="319.5" y="-81.8" font-family="Arial" font-size="14.00" fill="grey"> global_diagnostics_</text>
</g>
<!-- Node4&#45;&gt;Node2 -->
<g id="edge3_Node000002_Node000004" class="edge">
<title>Node4&#45;&gt;Node2</title>
<g id="a_edge3_Node000002_Node000004"><a xlink:title=" ">
<path fill="none" stroke="#9a32cd" stroke-dasharray="5,2" d="M187.01,-142.85C181.9,-139.38 177.37,-135.15 174,-130 166.99,-119.27 176.09,-106.18 184.83,-97.18"/>
<polygon fill="#9a32cd" stroke="#9a32cd" points="185.63,-146.09 196.05,-147.99 189.09,-140.01 185.63,-146.09"/>
</a>
</g>
<text text-anchor="middle" x="213.5" y="-118.8" font-family="Arial" font-size="14.00" fill="grey"> diagnostics_</text>
</g>
<!-- Node5 -->
<g id="Node000005" class="node">
<title>Node5</title>
<g id="a_Node000005"><a xlink:href="classRtosMutex.html" target="_top" xlink:title=" ">
<polygon fill="white" stroke="#666666" points="490,-97 408,-97 408,-74 490,-74 490,-97"/>
<text text-anchor="middle" x="449" y="-81.8" font-family="Arial" font-size="14.00">RtosMutex</text>
</a>
</g>
</g>
<!-- Node5&#45;&gt;Node1 -->
<g id="edge4_Node000001_Node000005" class="edge">
<title>Node5&#45;&gt;Node1</title>
<g id="a_edge4_Node000001_Node000005"><a xlink:title=" ">
<path fill="none" stroke="#9a32cd" stroke-dasharray="5,2" d="M409.63,-70.33C371.02,-56.43 313.03,-35.55 278.31,-23.05"/>
<polygon fill="#9a32cd" stroke="#9a32cd" points="408.89,-73.78 419.49,-73.88 411.27,-67.2 408.89,-73.78"/>
</a>
</g>
<text text-anchor="middle" x="409" y="-44.8" font-family="Arial" font-size="14.00" fill="grey"> state_mutex_</text>
</g>
</g>
</svg>
