<?xml version="1.0" encoding="UTF-8" standalone="no"?>
<!DOCTYPE svg PUBLIC "-//W3C//DTD SVG 1.1//EN"
 "http://www.w3.org/Graphics/SVG/1.1/DTD/svg11.dtd">
<!-- Generated by graphviz version 2.43.0 (0)
 -->
<!-- Title: EspCan Pages: 1 -->
<!--zoomable 333 -->

<svg id="main" version="1.1" xmlns="http://www.w3.org/2000/svg" xmlns:xlink="http://www.w3.org/1999/xlink" xml:space="preserve" onload="init(evt)">
<style type="text/css"><![CDATA[
.node, .edge {opacity: 0.7;}
.node.selected, .edge.selected {opacity: 1;}
.edge:hover path { stroke: red; }
.edge:hover polygon { stroke: red; fill: red; }
]]></style>

<defs>
  <circle id="rim" cx="0" cy="0" r="7"/>
  <circle id="rim2" cx="0" cy="0" r="3.5"/>
  <g id="zoomPlus">
    <use xlink:href="#rim" fill="#404040"><set attributeName="fill" to="#808080" begin="zoomplus.mouseover" end="zoomplus.mouseout"/></use>
    <path d="M-4,0h8M0,-4v8" fill="none" stroke="white" stroke-width="1.5" pointer-events="none"/>
  </g>
  <g id="zoomMin">
    <use xlink:href="#rim" fill="#404040"><set attributeName="fill" to="#808080" begin="zoomminus.mouseover" end="zoomminus.mouseout"/></use>
    <path d="M-4,0h8" fill="none" stroke="white" stroke-width="1.5" pointer-events="none"/>
  </g>
  <g id="arrowUp" transform="translate(30 24)">
    <use xlink:href="#rim"/>
    <path pointer-events="none" fill="none" stroke="white" stroke-width="1.5" d="M0,-3.0v7 M-2.5,-0.5L0,-3.0L2.5,-0.5"/>
  </g>
  <g id="arrowRight" transform="rotate(90) translate(36 -43)">
    <use xlink:href="#rim"/>
    <path pointer-events="none" fill="none" stroke="white" stroke-width="1.5" d="M0,-3.0v7 M-2.5,-0.5L0,-3.0L2.5,-0.5"/>
  </g>
  <g id="arrowDown" transform="rotate(180) translate(-30 -48)">
    <use xlink:href="#rim"/>
    <path pointer-events="none" fill="none" stroke="white" stroke-width="1.5" d="M0,-3.0v7 M-2.5,-0.5L0,-3.0L2.5,-0.5"/>
  </g>
  <g id="arrowLeft" transform="rotate(270) translate(-36 17)">
    <use xlink:href="#rim"/>
    <path pointer-events="none" fill="none" stroke="white" stroke-width="1.5" d="M0,-3.0v7 M-2.5,-0.5L0,-3.0L2.5,-0.5"/>
  </g>
  <g id="resetDef">
    <use xlink:href="#rim2" fill="#404040"><set attributeName="fill" to="#808080" begin="reset.mouseover" end="reset.mouseout"/></use>
  </g>
</defs>
<script type="application/ecmascript">
var viewWidth = 667;
var viewHeight = 333;
var sectionId = 'dynsection-1';
</script>
<script type="application/ecmascript" xlink:href="svg.min.js"/>
<svg id="graph" class="graph">
<g id="viewport">
<title>EspCan</title>
<!-- Node1 -->
<g id="Node000001" class="node">
<title>Node1</title>
<g id="a_Node000001"><a xlink:title="ESP32 CAN (TWAI) implementation using ESP&#45;IDF v5.5+ node&#45;based API.">
<polygon fill="#999999" stroke="#666666" points="659,-183.72 594,-183.72 594,-160.72 659,-160.72 659,-183.72"/>
<text text-anchor="middle" x="626.5" y="-168.52" font-family="Arial" font-size="14.00">EspCan</text>
</a>
</g>
</g>
<!-- Node2 -->
<g id="Node000002" class="node">
<title>Node2</title>
<g id="a_Node000002"><a xlink:href="classBaseCan.html" target="_top" xlink:title="Abstract base class defining the unified CAN bus API.">
<polygon fill="white" stroke="#666666" points="386.5,-258.72 314.5,-258.72 314.5,-235.72 386.5,-235.72 386.5,-258.72"/>
<text text-anchor="middle" x="350.5" y="-243.52" font-family="Arial" font-size="14.00">BaseCan</text>
</a>
</g>
</g>
<!-- Node2&#45;&gt;Node1 -->
<g id="edge1_Node000001_Node000002" class="edge">
<title>Node2&#45;&gt;Node1</title>
<g id="a_edge1_Node000001_Node000002"><a xlink:title=" ">
<path fill="none" stroke="#63b8ff" d="M396.87,-248.54C443.8,-248.21 518.2,-242.86 576,-216.22 592.08,-208.8 606.73,-194.39 615.85,-184.08"/>
<polygon fill="#63b8ff" stroke="#63b8ff" points="396.71,-245.04 386.71,-248.53 396.71,-252.04 396.71,-245.04"/>
</a>
</g>
</g>
<!-- Node3 -->
<g id="Node000003" class="node">
<title>Node3</title>
<g id="a_Node000003"><a xlink:href="structhf__can__statistics__t.html" target="_top" xlink:title="CAN bus statistics structure for performance monitoring.">
<polygon fill="white" stroke="#666666" points="135.5,-293.72 7.5,-293.72 7.5,-270.72 135.5,-270.72 135.5,-293.72"/>
<text text-anchor="middle" x="71.5" y="-278.52" font-family="Arial" font-size="14.00">hf_can_statistics_t</text>
</a>
</g>
</g>
<!-- Node3&#45;&gt;Node1 -->
<g id="edge6_Node000001_Node000003" class="edge">
<title>Node3&#45;&gt;Node1</title>
<g id="a_edge6_Node000001_Node000003"><a xlink:title=" ">
<path fill="none" stroke="#9a32cd" stroke-dasharray="5,2" d="M136.73,-295.54C238.77,-312.99 440.2,-331.93 576,-244.22 598.81,-229.48 613.92,-200.15 620.95,-183.84"/>
<polygon fill="#9a32cd" stroke="#9a32cd" points="137.04,-292.04 126.58,-293.75 135.82,-298.93 137.04,-292.04"/>
</a>
</g>
<text text-anchor="middle" x="350.5" y="-314.02" font-family="Arial" font-size="14.00" fill="grey"> statistics_</text>
</g>
<!-- Node3&#45;&gt;Node2 -->
<g id="edge2_Node000002_Node000003" class="edge">
<title>Node3&#45;&gt;Node2</title>
<g id="a_edge2_Node000002_Node000003"><a xlink:title=" ">
<path fill="none" stroke="#9a32cd" stroke-dasharray="5,2" d="M145.67,-272.97C200.19,-266.08 272.24,-256.98 314.46,-251.64"/>
<polygon fill="#9a32cd" stroke="#9a32cd" points="145.18,-269.5 135.7,-274.23 146.06,-276.45 145.18,-269.5"/>
</a>
</g>
<text text-anchor="middle" x="200.5" y="-274.02" font-family="Arial" font-size="14.00" fill="grey"> statistics_</text>
</g>
<!-- Node4 -->
<g id="Node000004" class="node">
<title>Node4</title>
<g id="a_Node000004"><a xlink:href="structhf__can__diagnostics__t.html" target="_top" xlink:title="CAN diagnostics structure for detailed error analysis.">
<polygon fill="white" stroke="#666666" points="143,-237.72 0,-237.72 0,-214.72 143,-214.72 143,-237.72"/>
<text text-anchor="middle" x="71.5" y="-222.52" font-family="Arial" font-size="14.00">hf_can_diagnostics_t</text>
</a>
</g>
</g>
<!-- Node4&#45;&gt;Node1 -->
<g id="edge7_Node000001_Node000004" class="edge">
<title>Node4&#45;&gt;Node1</title>
<g id="a_edge7_Node000001_Node000004"><a xlink:title=" ">
<path fill="none" stroke="#9a32cd" stroke-dasharray="5,2" d="M153.55,-220.05C294.61,-209.3 570.87,-188.18 576,-187.22 581.82,-186.12 587.94,-184.59 593.8,-182.93"/>
<polygon fill="#9a32cd" stroke="#9a32cd" points="152.92,-216.59 143.22,-220.84 153.45,-223.57 152.92,-216.59"/>
</a>
</g>
<text text-anchor="middle" x="350.5" y="-215.02" font-family="Arial" font-size="14.00" fill="grey"> diagnostics_</text>
</g>
<!-- Node4&#45;&gt;Node2 -->
<g id="edge3_Node000002_Node000004" class="edge">
<title>Node4&#45;&gt;Node2</title>
<g id="a_edge3_Node000002_Node000004"><a xlink:title=" ">
<path fill="none" stroke="#9a32cd" stroke-dasharray="5,2" d="M153.04,-230.36C180.63,-231.96 211.68,-233.95 240,-236.22 264.76,-238.2 292.61,-241 314.03,-243.29"/>
<polygon fill="#9a32cd" stroke="#9a32cd" points="153.22,-226.87 143.04,-229.79 152.82,-233.86 153.22,-226.87"/>
</a>
</g>
<text text-anchor="middle" x="200.5" y="-240.02" font-family="Arial" font-size="14.00" fill="grey"> diagnostics_</text>
</g>
<!-- Node5 -->
<g id="Node000005" class="node">
<title>Node5</title>
<g id="a_Node000005"><a xlink:href="structhf__esp__can__config__t.html" target="_top" xlink:title="ESP32 TWAI node configuration structure for ESP&#45;IDF v5.5.">
<polygon fill="white" stroke="#666666" points="421,-165.72 280,-165.72 280,-142.72 421,-142.72 421,-165.72"/>
<text text-anchor="middle" x="350.5" y="-150.52" font-family="Arial" font-size="14.00">hf_esp_can_config_t</text>
</a>
</g>
</g>
<!-- Node5&#45;&gt;Node1 -->
<g id="edge4_Node000001_Node000005" class="edge">
<title>Node5&#45;&gt;Node1</title>
<g id="a_edge4_Node000001_Node000005"><a xlink:title=" ">
<path fill="none" stroke="#9a32cd" stroke-dasharray="5,2" d="M431.63,-159.48C485.81,-163.04 554.4,-167.55 593.79,-170.13"/>
<polygon fill="#9a32cd" stroke="#9a32cd" points="431.56,-155.97 421.35,-158.81 431.1,-162.95 431.56,-155.97"/>
</a>
</g>
<text text-anchor="middle" x="518.5" y="-172.02" font-family="Arial" font-size="14.00" fill="grey"> config_</text>
</g>
<!-- Node6 -->
<g id="Node000006" class="node">
<title>Node6</title>
<g id="a_Node000006"><a xlink:href="classRtosMutex.html" target="_top" xlink:title=" ">
<polygon fill="white" stroke="#666666" points="391.5,-117.72 309.5,-117.72 309.5,-94.72 391.5,-94.72 391.5,-117.72"/>
<text text-anchor="middle" x="350.5" y="-102.52" font-family="Arial" font-size="14.00">RtosMutex</text>
</a>
</g>
</g>
<!-- Node6&#45;&gt;Node1 -->
<g id="edge5_Node000001_Node000006" class="edge">
<title>Node6&#45;&gt;Node1</title>
<g id="a_edge5_Node000001_Node000006"><a xlink:title=" ">
<path fill="none" stroke="#9a32cd" stroke-dasharray="5,2" d="M401.59,-96.17C449.03,-89.2 520.99,-85.38 576,-112.22 596.88,-122.4 612.04,-145.98 619.75,-160.37"/>
<polygon fill="#9a32cd" stroke="#9a32cd" points="400.89,-92.74 391.56,-97.75 401.98,-99.65 400.89,-92.74"/>
</a>
</g>
<text text-anchor="middle" x="518.5" y="-146.02" font-family="Arial" font-size="14.00" fill="grey"> callback_mutex_</text>
<text text-anchor="middle" x="518.5" y="-131.02" font-family="Arial" font-size="14.00" fill="grey">config_mutex_</text>
<text text-anchor="middle" x="518.5" y="-116.02" font-family="Arial" font-size="14.00" fill="grey">stats_mutex_</text>
</g>
<!-- Node7 -->
<g id="Node000007" class="node">
<title>Node7</title>
<g id="a_Node000007"><a xlink:href="structhf__esp__can__timing__config__t.html" target="_top" xlink:title="Advanced bit timing configuration for fine&#45;tuning.">
<polygon fill="white" stroke="#666666" points="443,-76.72 258,-76.72 258,-53.72 443,-53.72 443,-76.72"/>
<text text-anchor="middle" x="350.5" y="-61.52" font-family="Arial" font-size="14.00">hf_esp_can_timing_config_t</text>
</a>
</g>
</g>
<!-- Node7&#45;&gt;Node1 -->
<g id="edge8_Node000001_Node000007" class="edge">
<title>Node7&#45;&gt;Node1</title>
<g id="a_edge8_Node000001_Node000007"><a xlink:title=" ">
<path fill="none" stroke="#9a32cd" stroke-dasharray="5,2" d="M406.36,-51.79C454.89,-43.16 525.62,-38.86 576,-71.22 607.71,-91.58 619.74,-138.65 623.74,-160.58"/>
<polygon fill="#9a32cd" stroke="#9a32cd" points="405.53,-48.39 396.36,-53.68 406.83,-55.26 405.53,-48.39"/>
</a>
</g>
<text text-anchor="middle" x="518.5" y="-75.02" font-family="Arial" font-size="14.00" fill="grey"> advanced_timing_</text>
</g>
<!-- Node8 -->
<g id="Node000008" class="node">
<title>Node8</title>
<g id="a_Node000008"><a xlink:href="structhf__esp__can__filter__config__t.html" target="_top" xlink:title="CAN message filter configuration for hardware filtering.">
<polygon fill="white" stroke="#666666" points="437.5,-35.72 263.5,-35.72 263.5,-12.72 437.5,-12.72 437.5,-35.72"/>
<text text-anchor="middle" x="350.5" y="-20.52" font-family="Arial" font-size="14.00">hf_esp_can_filter_config_t</text>
</a>
</g>
</g>
<!-- Node8&#45;&gt;Node1 -->
<g id="edge9_Node000001_Node000008" class="edge">
<title>Node8&#45;&gt;Node1</title>
<g id="a_edge9_Node000001_Node000008"><a xlink:title=" ">
<path fill="none" stroke="#9a32cd" stroke-dasharray="5,2" d="M398.69,-10.3C447.82,1.13 524.64,10.04 576,-27.22 619.92,-59.08 625.28,-132.24 625.64,-160.64"/>
<polygon fill="#9a32cd" stroke="#9a32cd" points="397.83,-6.91 388.95,-12.68 399.49,-13.71 397.83,-6.91"/>
</a>
</g>
<text text-anchor="middle" x="518.5" y="-31.02" font-family="Arial" font-size="14.00" fill="grey"> current_filter_</text>
</g>
</g>
</svg>

<g id="navigator" transform="translate(0 0)" fill="#404254">
  <rect fill="#f2f5e9" fill-opacity="0.5" stroke="#606060" stroke-width=".5" x="0" y="0" width="60" height="60"/>
  <use id="zoomplus" xlink:href="#zoomPlus" x="17" y="9" onmousedown="handleZoom(evt,'in')"/>
  <use id="zoomminus" xlink:href="#zoomMin" x="42" y="9" onmousedown="handleZoom(evt,'out')"/>
  <use id="reset" xlink:href="#resetDef" x="30" y="36" onmousedown="handleReset()"/>
   <use id="arrowup" xlink:href="#arrowUp" x="0" y="0" onmousedown="handlePan(0,-1)"/>
  <use id="arrowright" xlink:href="#arrowRight" x="0" y="0" onmousedown="handlePan(1,0)"/>
  <use id="arrowdown" xlink:href="#arrowDown" x="0" y="0" onmousedown="handlePan(0,1)"/>
  <use id="arrowleft" xlink:href="#arrowLeft" x="0" y="0" onmousedown="handlePan(-1,0)"/>
</g>
<svg viewBox="0 0 15 15" width="100%" height="30px" preserveAspectRatio="xMaxYMin meet">
 <g id="arrow_out" transform="scale(0.3 0.3)">
  <a xlink:href="classEspCan__coll__graph_org.svg" target="_base">
   <rect id="button" ry="5" rx="5" y="6" x="6" height="38" width="38"
        fill="#f2f5e9" fill-opacity="0.5" stroke="#606060" stroke-width="1.0"/>
   <path id="arrow"
     d="M 11.500037,31.436501 C 11.940474,20.09759 22.043105,11.32322 32.158766,21.979434 L 37.068811,17.246167 C 37.068811,17.246167 37.088388,32 37.088388,32 L 22.160133,31.978069 C 22.160133,31.978069 26.997745,27.140456 26.997745,27.140456 C 18.528582,18.264221 13.291696,25.230495 11.500037,31.436501 z"
     style="fill:#404040;"/>
  </a>
 </g>
</svg>

<style type='text/css'>
<![CDATA[
[data-mouse-over-selected='false'] { opacity: 0.7; }
[data-mouse-over-selected='true']  { opacity: 1.0; }
]]>
</style>
<script type="application/ecmascript"><![CDATA[
document.addEventListener('DOMContentLoaded', (event) => {
  highlightEdges();
  highlightAdjacentNodes();
});
]]></script>
</svg>
