<?xml version="1.0" encoding="UTF-8" standalone="no"?>
<!DOCTYPE svg PUBLIC "-//W3C//DTD SVG 1.1//EN"
 "http://www.w3.org/Graphics/SVG/1.1/DTD/svg11.dtd">
<!-- Generated by graphviz version 2.43.0 (0)
 -->
<!-- Title: inc/mcu/esp32/utils/EspTypes_UART.h Pages: 1 -->
<svg width="710pt" height="223pt"
 viewBox="0.00 0.00 710.00 223.00" xmlns="http://www.w3.org/2000/svg" xmlns:xlink="http://www.w3.org/1999/xlink">
<g id="graph0" class="graph" transform="scale(1 1) rotate(0) translate(4 219)">
<title>inc/mcu/esp32/utils/EspTypes_UART.h</title>
<!-- Node1 -->
<g id="Node000001" class="node">
<title>Node1</title>
<g id="a_Node000001"><a xlink:title="ESP32 UART type definitions for hardware abstraction.">
<polygon fill="#999999" stroke="#666666" points="479,-215 345,-215 345,-177 479,-177 479,-215"/>
<text text-anchor="start" x="353" y="-199.8" font-family="Arial" font-size="14.00">inc/mcu/esp32/utils</text>
<text text-anchor="middle" x="412" y="-184.8" font-family="Arial" font-size="14.00">/EspTypes_UART.h</text>
</a>
</g>
</g>
<!-- Node2 -->
<g id="Node000002" class="node">
<title>Node2</title>
<g id="a_Node000002"><a xlink:href="BaseUart_8h.html" target="_top" xlink:title="Abstract base class for UART driver implementations in the HardFOC system.">
<polygon fill="white" stroke="#666666" points="292,-141 208,-141 208,-118 292,-118 292,-141"/>
<text text-anchor="middle" x="250" y="-125.8" font-family="Arial" font-size="14.00">BaseUart.h</text>
</a>
</g>
</g>
<!-- Node1&#45;&gt;Node2 -->
<g id="edge1_Node000001_Node000002" class="edge">
<title>Node1&#45;&gt;Node2</title>
<g id="a_edge1_Node000001_Node000002"><a xlink:title=" ">
<path fill="none" stroke="#63b8ff" d="M366.44,-176.86C340.94,-166.71 309.61,-154.23 285.87,-144.78"/>
<polygon fill="#63b8ff" stroke="#63b8ff" points="287.11,-141.51 276.53,-141.06 284.52,-148.01 287.11,-141.51"/>
</a>
</g>
</g>
<!-- Node3 -->
<g id="Node000003" class="node">
<title>Node3</title>
<g id="a_Node000003"><a xlink:href="HardwareTypes_8h.html" target="_top" xlink:title="Platform&#45;agnostic hardware type definitions for the HardFOC system.">
<polygon fill="white" stroke="#666666" points="428,-82 306,-82 306,-59 428,-59 428,-82"/>
<text text-anchor="middle" x="367" y="-66.8" font-family="Arial" font-size="14.00">HardwareTypes.h</text>
</a>
</g>
</g>
<!-- Node1&#45;&gt;Node3 -->
<g id="edge14_Node000001_Node000003" class="edge">
<title>Node1&#45;&gt;Node3</title>
<g id="a_edge14_Node000001_Node000003"><a xlink:title=" ">
<path fill="none" stroke="#63b8ff" d="M402.25,-176.87C396.96,-166.55 390.59,-153.28 386,-141 379.99,-124.91 374.96,-106.09 371.59,-92.09"/>
<polygon fill="#63b8ff" stroke="#63b8ff" points="374.93,-91 369.25,-82.05 368.11,-92.58 374.93,-91"/>
</a>
</g>
</g>
<!-- Node9 -->
<g id="Node000009" class="node">
<title>Node9</title>
<g id="a_Node000009"><a xlink:href="EspTypes__Base_8h.html" target="_top" xlink:title="ESP32 base type definitions for hardware abstraction.">
<polygon fill="white" stroke="#666666" points="520.5,-141 395.5,-141 395.5,-118 520.5,-118 520.5,-141"/>
<text text-anchor="middle" x="458" y="-125.8" font-family="Arial" font-size="14.00">EspTypes_Base.h</text>
</a>
</g>
</g>
<!-- Node1&#45;&gt;Node9 -->
<g id="edge9_Node000001_Node000009" class="edge">
<title>Node1&#45;&gt;Node9</title>
<g id="a_edge9_Node000001_Node000009"><a xlink:title=" ">
<path fill="none" stroke="#63b8ff" d="M425.06,-176.69C431.13,-168.18 438.35,-158.06 444.48,-149.46"/>
<polygon fill="#63b8ff" stroke="#63b8ff" points="447.42,-151.37 450.38,-141.19 441.72,-147.3 447.42,-151.37"/>
</a>
</g>
</g>
<!-- Node10 -->
<g id="Node000010" class="node">
<title>Node10</title>
<g id="a_Node000010"><a xlink:href="McuSelect_8h.html" target="_top" xlink:title="Centralized MCU platform selection and configuration header.">
<polygon fill="white" stroke="#666666" points="702,-82 560,-82 560,-59 702,-59 702,-82"/>
<text text-anchor="middle" x="631" y="-66.8" font-family="Arial" font-size="14.00">../../utils/McuSelect.h</text>
</a>
</g>
</g>
<!-- Node1&#45;&gt;Node10 -->
<g id="edge15_Node000001_Node000010" class="edge">
<title>Node1&#45;&gt;Node10</title>
<g id="a_edge15_Node000001_Node000010"><a xlink:title=" ">
<path fill="none" stroke="#63b8ff" d="M455.64,-176.92C478.02,-167.13 505.44,-154.34 529,-141 557.59,-124.81 588.52,-103.09 608.73,-88.26"/>
<polygon fill="#63b8ff" stroke="#63b8ff" points="611,-90.94 616.96,-82.17 606.84,-85.31 611,-90.94"/>
</a>
</g>
</g>
<!-- Node2&#45;&gt;Node3 -->
<g id="edge2_Node000002_Node000003" class="edge">
<title>Node2&#45;&gt;Node3</title>
<g id="a_edge2_Node000002_Node000003"><a xlink:title=" ">
<path fill="none" stroke="#63b8ff" d="M271.73,-117.91C289.87,-109.07 315.95,-96.37 336.24,-86.49"/>
<polygon fill="#63b8ff" stroke="#63b8ff" points="337.93,-89.56 345.38,-82.03 334.86,-83.26 337.93,-89.56"/>
</a>
</g>
</g>
<!-- Node4 -->
<g id="Node000004" class="node">
<title>Node4</title>
<g id="a_Node000004"><a xlink:title=" ">
<polygon fill="#e0e0e0" stroke="#999999" points="430,-23 374,-23 374,0 430,0 430,-23"/>
<text text-anchor="middle" x="402" y="-7.8" font-family="Arial" font-size="14.00">cstdint</text>
</a>
</g>
</g>
<!-- Node2&#45;&gt;Node4 -->
<g id="edge5_Node000002_Node000004" class="edge">
<title>Node2&#45;&gt;Node4</title>
<g id="a_edge5_Node000002_Node000004"><a xlink:title=" ">
<path fill="none" stroke="#63b8ff" d="M254.77,-117.96C261.99,-103.04 277,-75.73 297,-59 316.54,-42.66 342.73,-31.05 364.06,-23.51"/>
<polygon fill="#63b8ff" stroke="#63b8ff" points="365.43,-26.75 373.79,-20.24 363.2,-20.11 365.43,-26.75"/>
</a>
</g>
</g>
<!-- Node6 -->
<g id="Node000006" class="node">
<title>Node6</title>
<g id="a_Node000006"><a xlink:title=" ">
<polygon fill="#e0e0e0" stroke="#999999" points="250,-82 194,-82 194,-59 250,-59 250,-82"/>
<text text-anchor="middle" x="222" y="-66.8" font-family="Arial" font-size="14.00">cstring</text>
</a>
</g>
</g>
<!-- Node2&#45;&gt;Node6 -->
<g id="edge6_Node000002_Node000006" class="edge">
<title>Node2&#45;&gt;Node6</title>
<g id="a_edge6_Node000002_Node000006"><a xlink:title=" ">
<path fill="none" stroke="#63b8ff" d="M244.73,-117.78C241.06,-110.29 236.04,-100.09 231.66,-91.16"/>
<polygon fill="#63b8ff" stroke="#63b8ff" points="234.79,-89.61 227.24,-82.17 228.51,-92.69 234.79,-89.61"/>
</a>
</g>
</g>
<!-- Node7 -->
<g id="Node000007" class="node">
<title>Node7</title>
<g id="a_Node000007"><a xlink:title=" ">
<polygon fill="#e0e0e0" stroke="#999999" points="74,-82 0,-82 0,-59 74,-59 74,-82"/>
<text text-anchor="middle" x="37" y="-66.8" font-family="Arial" font-size="14.00">functional</text>
</a>
</g>
</g>
<!-- Node2&#45;&gt;Node7 -->
<g id="edge7_Node000002_Node000007" class="edge">
<title>Node2&#45;&gt;Node7</title>
<g id="a_edge7_Node000002_Node000007"><a xlink:title=" ">
<path fill="none" stroke="#63b8ff" d="M210.44,-117.91C174.65,-108.34 121.92,-94.22 84,-84.08"/>
<polygon fill="#63b8ff" stroke="#63b8ff" points="84.78,-80.66 74.21,-81.46 82.97,-87.42 84.78,-80.66"/>
</a>
</g>
</g>
<!-- Node8 -->
<g id="Node000008" class="node">
<title>Node8</title>
<g id="a_Node000008"><a xlink:title=" ">
<polygon fill="#e0e0e0" stroke="#999999" points="176,-82 92,-82 92,-59 176,-59 176,-82"/>
<text text-anchor="middle" x="134" y="-66.8" font-family="Arial" font-size="14.00">string_view</text>
</a>
</g>
</g>
<!-- Node2&#45;&gt;Node8 -->
<g id="edge8_Node000002_Node000008" class="edge">
<title>Node2&#45;&gt;Node8</title>
<g id="a_edge8_Node000002_Node000008"><a xlink:title=" ">
<path fill="none" stroke="#63b8ff" d="M228.45,-117.91C210.47,-109.07 184.61,-96.37 164.5,-86.49"/>
<polygon fill="#63b8ff" stroke="#63b8ff" points="165.95,-83.3 155.43,-82.03 162.86,-89.58 165.95,-83.3"/>
</a>
</g>
</g>
<!-- Node3&#45;&gt;Node4 -->
<g id="edge3_Node000003_Node000004" class="edge">
<title>Node3&#45;&gt;Node4</title>
<g id="a_edge3_Node000003_Node000004"><a xlink:title=" ">
<path fill="none" stroke="#63b8ff" d="M373.58,-58.78C378.23,-51.22 384.58,-40.87 390.1,-31.88"/>
<polygon fill="#63b8ff" stroke="#63b8ff" points="393.2,-33.53 395.45,-23.17 387.23,-29.86 393.2,-33.53"/>
</a>
</g>
</g>
<!-- Node5 -->
<g id="Node000005" class="node">
<title>Node5</title>
<g id="a_Node000005"><a xlink:title=" ">
<polygon fill="#e0e0e0" stroke="#999999" points="356,-23 308,-23 308,0 356,0 356,-23"/>
<text text-anchor="middle" x="332" y="-7.8" font-family="Arial" font-size="14.00">limits</text>
</a>
</g>
</g>
<!-- Node3&#45;&gt;Node5 -->
<g id="edge4_Node000003_Node000005" class="edge">
<title>Node3&#45;&gt;Node5</title>
<g id="a_edge4_Node000003_Node000005"><a xlink:title=" ">
<path fill="none" stroke="#63b8ff" d="M360.42,-58.78C355.77,-51.22 349.42,-40.87 343.9,-31.88"/>
<polygon fill="#63b8ff" stroke="#63b8ff" points="346.77,-29.86 338.55,-23.17 340.8,-33.53 346.77,-29.86"/>
</a>
</g>
</g>
<!-- Node9&#45;&gt;Node3 -->
<g id="edge11_Node000009_Node000003" class="edge">
<title>Node9&#45;&gt;Node3</title>
<g id="a_edge11_Node000009_Node000003"><a xlink:title=" ">
<path fill="none" stroke="#63b8ff" d="M440.88,-117.78C427.28,-109.26 408.05,-97.21 392.62,-87.55"/>
<polygon fill="#63b8ff" stroke="#63b8ff" points="394.37,-84.52 384.04,-82.17 390.66,-90.45 394.37,-84.52"/>
</a>
</g>
</g>
<!-- Node9&#45;&gt;Node4 -->
<g id="edge13_Node000009_Node000004" class="edge">
<title>Node9&#45;&gt;Node4</title>
<g id="a_edge13_Node000009_Node000004"><a xlink:title=" ">
<path fill="none" stroke="#63b8ff" d="M455.97,-117.7C453.06,-103.64 446.92,-78.56 437,-59 431.98,-49.1 424.82,-39.14 418.29,-30.98"/>
<polygon fill="#63b8ff" stroke="#63b8ff" points="420.91,-28.66 411.82,-23.22 415.54,-33.15 420.91,-28.66"/>
</a>
</g>
</g>
<!-- Node9&#45;&gt;Node10 -->
<g id="edge10_Node000009_Node000010" class="edge">
<title>Node9&#45;&gt;Node10</title>
<g id="a_edge10_Node000009_Node000010"><a xlink:title=" ">
<path fill="none" stroke="#63b8ff" d="M490.13,-117.91C518.17,-108.67 559.03,-95.21 589.53,-85.16"/>
<polygon fill="#63b8ff" stroke="#63b8ff" points="590.64,-88.48 599.04,-82.03 588.44,-81.84 590.64,-88.48"/>
</a>
</g>
</g>
<!-- Node11 -->
<g id="Node000011" class="node">
<title>Node11</title>
<g id="a_Node000011"><a xlink:title=" ">
<polygon fill="#e0e0e0" stroke="#999999" points="541.5,-82 484.5,-82 484.5,-59 541.5,-59 541.5,-82"/>
<text text-anchor="middle" x="513" y="-66.8" font-family="Arial" font-size="14.00">atomic</text>
</a>
</g>
</g>
<!-- Node9&#45;&gt;Node11 -->
<g id="edge12_Node000009_Node000011" class="edge">
<title>Node9&#45;&gt;Node11</title>
<g id="a_edge12_Node000009_Node000011"><a xlink:title=" ">
<path fill="none" stroke="#63b8ff" d="M468.35,-117.78C476.03,-109.82 486.68,-98.77 495.66,-89.47"/>
<polygon fill="#63b8ff" stroke="#63b8ff" points="498.28,-91.8 502.7,-82.17 493.24,-86.94 498.28,-91.8"/>
</a>
</g>
</g>
</g>
</svg>
