<?xml version="1.0" encoding="UTF-8" standalone="no"?>
<!DOCTYPE svg PUBLIC "-//W3C//DTD SVG 1.1//EN"
 "http://www.w3.org/Graphics/SVG/1.1/DTD/svg11.dtd">
<!-- Generated by graphviz version 2.43.0 (0)
 -->
<!-- Title: inc/mcu/esp32/utils/EspTypes_WiFi.h Pages: 1 -->
<svg width="1098pt" height="223pt"
 viewBox="0.00 0.00 1097.50 223.00" xmlns="http://www.w3.org/2000/svg" xmlns:xlink="http://www.w3.org/1999/xlink">
<g id="graph0" class="graph" transform="scale(1 1) rotate(0) translate(4 219)">
<title>inc/mcu/esp32/utils/EspTypes_WiFi.h</title>
<!-- Node1 -->
<g id="Node000001" class="node">
<title>Node1</title>
<g id="a_Node000001"><a xlink:title="ESP32 WiFi type definitions for hardware abstraction.">
<polygon fill="#999999" stroke="#666666" points="682,-215 550,-215 550,-177 682,-177 682,-215"/>
<text text-anchor="start" x="558" y="-199.8" font-family="Arial" font-size="14.00">inc/mcu/esp32/utils</text>
<text text-anchor="middle" x="616" y="-184.8" font-family="Arial" font-size="14.00">/EspTypes_WiFi.h</text>
</a>
</g>
</g>
<!-- Node2 -->
<g id="Node000002" class="node">
<title>Node2</title>
<g id="a_Node000002"><a xlink:href="EspTypes__Base_8h.html" target="_top" xlink:title="ESP32 base type definitions for hardware abstraction.">
<polygon fill="white" stroke="#666666" points="276.5,-141 151.5,-141 151.5,-118 276.5,-118 276.5,-141"/>
<text text-anchor="middle" x="214" y="-125.8" font-family="Arial" font-size="14.00">EspTypes_Base.h</text>
</a>
</g>
</g>
<!-- Node1&#45;&gt;Node2 -->
<g id="edge1_Node000001_Node000002" class="edge">
<title>Node1&#45;&gt;Node2</title>
<g id="a_edge1_Node000001_Node000002"><a xlink:title=" ">
<path fill="none" stroke="#63b8ff" d="M549.62,-184.35C477.2,-172.73 361.64,-154.19 286.79,-142.18"/>
<polygon fill="#63b8ff" stroke="#63b8ff" points="286.94,-138.66 276.51,-140.53 285.83,-145.57 286.94,-138.66"/>
</a>
</g>
</g>
<!-- Node8 -->
<g id="Node000008" class="node">
<title>Node8</title>
<g id="a_Node000008"><a xlink:title=" ">
<polygon fill="#e0e0e0" stroke="#999999" points="385,-141 295,-141 295,-118 385,-118 385,-141"/>
<text text-anchor="middle" x="340" y="-125.8" font-family="Arial" font-size="14.00">esp_event.h</text>
</a>
</g>
</g>
<!-- Node1&#45;&gt;Node8 -->
<g id="edge8_Node000001_Node000008" class="edge">
<title>Node1&#45;&gt;Node8</title>
<g id="a_edge8_Node000001_Node000008"><a xlink:title=" ">
<path fill="none" stroke="#63b8ff" d="M549.89,-179.55C502.6,-168.5 439.67,-153.79 395.09,-143.37"/>
<polygon fill="#63b8ff" stroke="#63b8ff" points="395.84,-139.95 385.3,-141.09 394.24,-146.77 395.84,-139.95"/>
</a>
</g>
</g>
<!-- Node9 -->
<g id="Node000009" class="node">
<title>Node9</title>
<g id="a_Node000009"><a xlink:title=" ">
<polygon fill="#e0e0e0" stroke="#999999" points="494.5,-141 403.5,-141 403.5,-118 494.5,-118 494.5,-141"/>
<text text-anchor="middle" x="449" y="-125.8" font-family="Arial" font-size="14.00">esp_mesh.h</text>
</a>
</g>
</g>
<!-- Node1&#45;&gt;Node9 -->
<g id="edge9_Node000001_Node000009" class="edge">
<title>Node1&#45;&gt;Node9</title>
<g id="a_edge9_Node000001_Node000009"><a xlink:title=" ">
<path fill="none" stroke="#63b8ff" d="M569.04,-176.86C542.75,-166.71 510.45,-154.23 485.98,-144.78"/>
<polygon fill="#63b8ff" stroke="#63b8ff" points="486.93,-141.4 476.34,-141.06 484.41,-147.93 486.93,-141.4"/>
</a>
</g>
</g>
<!-- Node10 -->
<g id="Node000010" class="node">
<title>Node10</title>
<g id="a_Node000010"><a xlink:title=" ">
<polygon fill="#e0e0e0" stroke="#999999" points="595.5,-141 512.5,-141 512.5,-118 595.5,-118 595.5,-141"/>
<text text-anchor="middle" x="554" y="-125.8" font-family="Arial" font-size="14.00">esp_netif.h</text>
</a>
</g>
</g>
<!-- Node1&#45;&gt;Node10 -->
<g id="edge10_Node000001_Node000010" class="edge">
<title>Node1&#45;&gt;Node10</title>
<g id="a_edge10_Node000001_Node000010"><a xlink:title=" ">
<path fill="none" stroke="#63b8ff" d="M598.4,-176.69C589.96,-167.91 579.87,-157.42 571.45,-148.65"/>
<polygon fill="#63b8ff" stroke="#63b8ff" points="573.73,-145.98 564.28,-141.19 568.68,-150.83 573.73,-145.98"/>
</a>
</g>
</g>
<!-- Node11 -->
<g id="Node000011" class="node">
<title>Node11</title>
<g id="a_Node000011"><a xlink:title=" ">
<polygon fill="#e0e0e0" stroke="#999999" points="742,-141 614,-141 614,-118 742,-118 742,-141"/>
<text text-anchor="middle" x="678" y="-125.8" font-family="Arial" font-size="14.00">esp_smartconfig.h</text>
</a>
</g>
</g>
<!-- Node1&#45;&gt;Node11 -->
<g id="edge11_Node000001_Node000011" class="edge">
<title>Node1&#45;&gt;Node11</title>
<g id="a_edge11_Node000001_Node000011"><a xlink:title=" ">
<path fill="none" stroke="#63b8ff" d="M633.6,-176.69C642.04,-167.91 652.13,-157.42 660.55,-148.65"/>
<polygon fill="#63b8ff" stroke="#63b8ff" points="663.32,-150.83 667.72,-141.19 658.27,-145.98 663.32,-150.83"/>
</a>
</g>
</g>
<!-- Node12 -->
<g id="Node000012" class="node">
<title>Node12</title>
<g id="a_Node000012"><a xlink:title=" ">
<polygon fill="#e0e0e0" stroke="#999999" points="837.5,-141 760.5,-141 760.5,-118 837.5,-118 837.5,-141"/>
<text text-anchor="middle" x="799" y="-125.8" font-family="Arial" font-size="14.00">esp_wifi.h</text>
</a>
</g>
</g>
<!-- Node1&#45;&gt;Node12 -->
<g id="edge12_Node000001_Node000012" class="edge">
<title>Node1&#45;&gt;Node12</title>
<g id="a_edge12_Node000001_Node000012"><a xlink:title=" ">
<path fill="none" stroke="#63b8ff" d="M667.46,-176.86C696.65,-166.57 732.61,-153.9 759.55,-144.41"/>
<polygon fill="#63b8ff" stroke="#63b8ff" points="760.77,-147.69 769.04,-141.06 758.44,-141.08 760.77,-147.69"/>
</a>
</g>
</g>
<!-- Node13 -->
<g id="Node000013" class="node">
<title>Node13</title>
<g id="a_Node000013"><a xlink:title=" ">
<polygon fill="#e0e0e0" stroke="#999999" points="972,-141 856,-141 856,-118 972,-118 972,-141"/>
<text text-anchor="middle" x="914" y="-125.8" font-family="Arial" font-size="14.00">esp_wifi_types.h</text>
</a>
</g>
</g>
<!-- Node1&#45;&gt;Node13 -->
<g id="edge13_Node000001_Node000013" class="edge">
<title>Node1&#45;&gt;Node13</title>
<g id="a_edge13_Node000001_Node000013"><a xlink:title=" ">
<path fill="none" stroke="#63b8ff" d="M682.14,-180.69C733.95,-169.47 805.37,-154.01 855.2,-143.23"/>
<polygon fill="#63b8ff" stroke="#63b8ff" points="856.15,-146.6 865.18,-141.07 854.67,-139.76 856.15,-146.6"/>
</a>
</g>
</g>
<!-- Node14 -->
<g id="Node000014" class="node">
<title>Node14</title>
<g id="a_Node000014"><a xlink:title=" ">
<polygon fill="#e0e0e0" stroke="#999999" points="1089.5,-141 990.5,-141 990.5,-118 1089.5,-118 1089.5,-141"/>
<text text-anchor="middle" x="1040" y="-125.8" font-family="Arial" font-size="14.00">lwip/ip_addr.h</text>
</a>
</g>
</g>
<!-- Node1&#45;&gt;Node14 -->
<g id="edge14_Node000001_Node000014" class="edge">
<title>Node1&#45;&gt;Node14</title>
<g id="a_edge14_Node000001_Node000014"><a xlink:title=" ">
<path fill="none" stroke="#63b8ff" d="M682.03,-185.82C753.06,-175.82 869.6,-159.02 980.43,-141.06"/>
<polygon fill="#63b8ff" stroke="#63b8ff" points="981.13,-144.49 990.44,-139.43 980.01,-137.58 981.13,-144.49"/>
</a>
</g>
</g>
<!-- Node3 -->
<g id="Node000003" class="node">
<title>Node3</title>
<g id="a_Node000003"><a xlink:href="McuSelect_8h.html" target="_top" xlink:title="Centralized MCU platform selection and configuration header.">
<polygon fill="white" stroke="#666666" points="142,-82 0,-82 0,-59 142,-59 142,-82"/>
<text text-anchor="middle" x="71" y="-66.8" font-family="Arial" font-size="14.00">../../utils/McuSelect.h</text>
</a>
</g>
</g>
<!-- Node2&#45;&gt;Node3 -->
<g id="edge2_Node000002_Node000003" class="edge">
<title>Node2&#45;&gt;Node3</title>
<g id="a_edge2_Node000002_Node000003"><a xlink:title=" ">
<path fill="none" stroke="#63b8ff" d="M187.44,-117.91C164.76,-108.87 131.95,-95.79 106.93,-85.82"/>
<polygon fill="#63b8ff" stroke="#63b8ff" points="108.01,-82.48 97.42,-82.03 105.41,-88.98 108.01,-82.48"/>
</a>
</g>
</g>
<!-- Node4 -->
<g id="Node000004" class="node">
<title>Node4</title>
<g id="a_Node000004"><a xlink:href="HardwareTypes_8h.html" target="_top" xlink:title="Platform&#45;agnostic hardware type definitions for the HardFOC system.">
<polygon fill="white" stroke="#666666" points="320,-82 198,-82 198,-59 320,-59 320,-82"/>
<text text-anchor="middle" x="259" y="-66.8" font-family="Arial" font-size="14.00">HardwareTypes.h</text>
</a>
</g>
</g>
<!-- Node2&#45;&gt;Node4 -->
<g id="edge3_Node000002_Node000004" class="edge">
<title>Node2&#45;&gt;Node4</title>
<g id="a_edge3_Node000002_Node000004"><a xlink:title=" ">
<path fill="none" stroke="#63b8ff" d="M222.46,-117.78C228.62,-109.98 237.12,-99.21 244.37,-90.03"/>
<polygon fill="#63b8ff" stroke="#63b8ff" points="247.12,-92.19 250.57,-82.17 241.63,-87.85 247.12,-92.19"/>
</a>
</g>
</g>
<!-- Node5 -->
<g id="Node000005" class="node">
<title>Node5</title>
<g id="a_Node000005"><a xlink:title=" ">
<polygon fill="#e0e0e0" stroke="#999999" points="208,-23 152,-23 152,0 208,0 208,-23"/>
<text text-anchor="middle" x="180" y="-7.8" font-family="Arial" font-size="14.00">cstdint</text>
</a>
</g>
</g>
<!-- Node2&#45;&gt;Node5 -->
<g id="edge7_Node000002_Node000005" class="edge">
<title>Node2&#45;&gt;Node5</title>
<g id="a_edge7_Node000002_Node000005"><a xlink:title=" ">
<path fill="none" stroke="#63b8ff" d="M206.86,-117.92C201.07,-108.8 193.21,-95.09 189,-82 183.89,-66.1 181.67,-47.26 180.71,-33.21"/>
<polygon fill="#63b8ff" stroke="#63b8ff" points="184.2,-32.92 180.18,-23.12 177.21,-33.29 184.2,-32.92"/>
</a>
</g>
</g>
<!-- Node7 -->
<g id="Node000007" class="node">
<title>Node7</title>
<g id="a_Node000007"><a xlink:title=" ">
<polygon fill="#e0e0e0" stroke="#999999" points="395.5,-82 338.5,-82 338.5,-59 395.5,-59 395.5,-82"/>
<text text-anchor="middle" x="367" y="-66.8" font-family="Arial" font-size="14.00">atomic</text>
</a>
</g>
</g>
<!-- Node2&#45;&gt;Node7 -->
<g id="edge6_Node000002_Node000007" class="edge">
<title>Node2&#45;&gt;Node7</title>
<g id="a_edge6_Node000002_Node000007"><a xlink:title=" ">
<path fill="none" stroke="#63b8ff" d="M242.42,-117.91C266.89,-108.79 302.41,-95.56 329.27,-85.56"/>
<polygon fill="#63b8ff" stroke="#63b8ff" points="330.58,-88.8 338.73,-82.03 328.14,-82.24 330.58,-88.8"/>
</a>
</g>
</g>
<!-- Node4&#45;&gt;Node5 -->
<g id="edge4_Node000004_Node000005" class="edge">
<title>Node4&#45;&gt;Node5</title>
<g id="a_edge4_Node000004_Node000005"><a xlink:title=" ">
<path fill="none" stroke="#63b8ff" d="M244.14,-58.78C232.55,-50.42 216.26,-38.66 202.99,-29.09"/>
<polygon fill="#63b8ff" stroke="#63b8ff" points="204.95,-26.19 194.79,-23.17 200.85,-31.86 204.95,-26.19"/>
</a>
</g>
</g>
<!-- Node6 -->
<g id="Node000006" class="node">
<title>Node6</title>
<g id="a_Node000006"><a xlink:title=" ">
<polygon fill="#e0e0e0" stroke="#999999" points="283,-23 235,-23 235,0 283,0 283,-23"/>
<text text-anchor="middle" x="259" y="-7.8" font-family="Arial" font-size="14.00">limits</text>
</a>
</g>
</g>
<!-- Node4&#45;&gt;Node6 -->
<g id="edge5_Node000004_Node000006" class="edge">
<title>Node4&#45;&gt;Node6</title>
<g id="a_edge5_Node000004_Node000006"><a xlink:title=" ">
<path fill="none" stroke="#63b8ff" d="M259,-58.78C259,-51.61 259,-41.95 259,-33.31"/>
<polygon fill="#63b8ff" stroke="#63b8ff" points="262.5,-33.17 259,-23.17 255.5,-33.17 262.5,-33.17"/>
</a>
</g>
</g>
</g>
</svg>
