<?xml version="1.0" encoding="UTF-8" standalone="no"?>
<!DOCTYPE svg PUBLIC "-//W3C//DTD SVG 1.1//EN"
 "http://www.w3.org/Graphics/SVG/1.1/DTD/svg11.dtd">
<!-- Generated by graphviz version 2.43.0 (0)
 -->
<!-- Title: inc/mcu/esp32/utils/EspTypes_Timer.h Pages: 1 -->
<svg width="2417pt" height="268pt"
 viewBox="0.00 0.00 2417.00 268.00" xmlns="http://www.w3.org/2000/svg" xmlns:xlink="http://www.w3.org/1999/xlink">
<g id="graph0" class="graph" transform="scale(1 1) rotate(0) translate(4 264)">
<title>inc/mcu/esp32/utils/EspTypes_Timer.h</title>
<!-- Node1 -->
<g id="Node000001" class="node">
<title>Node1</title>
<g id="a_Node000001"><a xlink:title="ESP32 timer type definitions for hardware abstraction.">
<polygon fill="#999999" stroke="#666666" points="1279,-260 1146,-260 1146,-222 1279,-222 1279,-260"/>
<text text-anchor="start" x="1154" y="-244.8" font-family="Arial" font-size="14.00">inc/mcu/esp32/utils</text>
<text text-anchor="middle" x="1212.5" y="-229.8" font-family="Arial" font-size="14.00">/EspTypes_Timer.h</text>
</a>
</g>
</g>
<!-- Node2 -->
<g id="Node000002" class="node">
<title>Node2</title>
<g id="a_Node000002"><a xlink:href="EspTypes_8h.html" target="_top" xlink:title="Consolidated MCU&#45;specific type definitions for hardware abstraction (hf_* types).">
<polygon fill="white" stroke="#666666" points="1278.5,-186 1146.5,-186 1146.5,-148 1278.5,-148 1278.5,-186"/>
<text text-anchor="start" x="1154.5" y="-170.8" font-family="Arial" font-size="14.00">inc/mcu/esp32/utils</text>
<text text-anchor="middle" x="1212.5" y="-155.8" font-family="Arial" font-size="14.00">/EspTypes.h</text>
</a>
</g>
</g>
<!-- Node1&#45;&gt;Node2 -->
<g id="edge1_Node000001_Node000002" class="edge">
<title>Node1&#45;&gt;Node2</title>
<g id="a_edge1_Node000001_Node000002"><a xlink:title=" ">
<path fill="none" stroke="#63b8ff" d="M1212.5,-211.57C1212.5,-203.11 1212.5,-194.06 1212.5,-186.41"/>
<polygon fill="#63b8ff" stroke="#63b8ff" points="1209,-211.83 1212.5,-221.83 1216,-211.83 1209,-211.83"/>
</a>
</g>
</g>
<!-- Node3 -->
<g id="Node000003" class="node">
<title>Node3</title>
<g id="a_Node000003"><a xlink:href="EspAdc_8h.html" target="_top" xlink:title="ESP32 ADC implementation for the HardFOC system.">
<polygon fill="white" stroke="#666666" points="380.5,-104.5 214.5,-104.5 214.5,-81.5 380.5,-81.5 380.5,-104.5"/>
<text text-anchor="middle" x="297.5" y="-89.3" font-family="Arial" font-size="14.00">inc/mcu/esp32/EspAdc.h</text>
</a>
</g>
</g>
<!-- Node2&#45;&gt;Node3 -->
<g id="edge2_Node000002_Node000003" class="edge">
<title>Node2&#45;&gt;Node3</title>
<g id="a_edge2_Node000002_Node000003"><a xlink:title=" ">
<path fill="none" stroke="#63b8ff" d="M1136.21,-160C966.13,-146.61 557.05,-114.42 380.71,-100.55"/>
<polygon fill="#63b8ff" stroke="#63b8ff" points="1136.08,-163.5 1146.33,-160.79 1136.63,-156.52 1136.08,-163.5"/>
</a>
</g>
</g>
<!-- Node6 -->
<g id="Node000006" class="node">
<title>Node6</title>
<g id="a_Node000006"><a xlink:href="EspI2c_8h.html" target="_top" xlink:title="Advanced ESP32&#45;integrated I2C controller for ESP&#45;IDF v5.5+ with proper bus&#45;device architecture.">
<polygon fill="white" stroke="#666666" points="777,-104.5 616,-104.5 616,-81.5 777,-81.5 777,-104.5"/>
<text text-anchor="middle" x="696.5" y="-89.3" font-family="Arial" font-size="14.00">inc/mcu/esp32/EspI2c.h</text>
</a>
</g>
</g>
<!-- Node2&#45;&gt;Node6 -->
<g id="edge5_Node000002_Node000006" class="edge">
<title>Node2&#45;&gt;Node6</title>
<g id="a_edge5_Node000002_Node000006"><a xlink:title=" ">
<path fill="none" stroke="#63b8ff" d="M1136.24,-155.36C1038.32,-141.7 869.45,-118.13 771.93,-104.53"/>
<polygon fill="#63b8ff" stroke="#63b8ff" points="1135.97,-158.86 1146.36,-156.77 1136.94,-151.92 1135.97,-158.86"/>
</a>
</g>
</g>
<!-- Node9 -->
<g id="Node000009" class="node">
<title>Node9</title>
<g id="a_Node000009"><a xlink:href="EspPeriodicTimer_8h.html" target="_top" xlink:title="MCU&#45;integrated periodic timer implementation.">
<polygon fill="white" stroke="#666666" points="1202.5,-112 1022.5,-112 1022.5,-74 1202.5,-74 1202.5,-112"/>
<text text-anchor="start" x="1030.5" y="-96.8" font-family="Arial" font-size="14.00">inc/mcu/esp32/EspPeriodic</text>
<text text-anchor="middle" x="1112.5" y="-81.8" font-family="Arial" font-size="14.00">Timer.h</text>
</a>
</g>
</g>
<!-- Node2&#45;&gt;Node9 -->
<g id="edge8_Node000002_Node000009" class="edge">
<title>Node2&#45;&gt;Node9</title>
<g id="a_edge8_Node000002_Node000009"><a xlink:title=" ">
<path fill="none" stroke="#63b8ff" d="M1179.13,-141.97C1165.62,-132.25 1150.28,-121.2 1137.73,-112.16"/>
<polygon fill="#63b8ff" stroke="#63b8ff" points="1177.11,-144.83 1187.27,-147.83 1181.2,-139.15 1177.11,-144.83"/>
</a>
</g>
</g>
<!-- Node12 -->
<g id="Node000012" class="node">
<title>Node12</title>
<g id="a_Node000012"><a xlink:href="EspPio_8h.html" target="_top" xlink:title="ESP32C6 RMT&#45;based Programmable IO Channel implementation with ESP&#45;IDF v5.5+ features.">
<polygon fill="white" stroke="#666666" points="1394.5,-104.5 1232.5,-104.5 1232.5,-81.5 1394.5,-81.5 1394.5,-104.5"/>
<text text-anchor="middle" x="1313.5" y="-89.3" font-family="Arial" font-size="14.00">inc/mcu/esp32/EspPio.h</text>
</a>
</g>
</g>
<!-- Node2&#45;&gt;Node12 -->
<g id="edge11_Node000002_Node000012" class="edge">
<title>Node2&#45;&gt;Node12</title>
<g id="a_edge11_Node000002_Node000012"><a xlink:title=" ">
<path fill="none" stroke="#63b8ff" d="M1246.41,-141.83C1264.16,-129.17 1284.99,-114.32 1298.68,-104.57"/>
<polygon fill="#63b8ff" stroke="#63b8ff" points="1244.1,-139.18 1237.99,-147.83 1248.16,-144.88 1244.1,-139.18"/>
</a>
</g>
</g>
<!-- Node15 -->
<g id="Node000015" class="node">
<title>Node15</title>
<g id="a_Node000015"><a xlink:href="EspSpi_8h.html" target="_top" xlink:title="Advanced MCU&#45;integrated SPI controller implementation with ESP32C6/ESP&#45;IDF v5.5+ features.">
<polygon fill="white" stroke="#666666" points="1792.5,-104.5 1630.5,-104.5 1630.5,-81.5 1792.5,-81.5 1792.5,-104.5"/>
<text text-anchor="middle" x="1711.5" y="-89.3" font-family="Arial" font-size="14.00">inc/mcu/esp32/EspSpi.h</text>
</a>
</g>
</g>
<!-- Node2&#45;&gt;Node15 -->
<g id="edge14_Node000002_Node000015" class="edge">
<title>Node2&#45;&gt;Node15</title>
<g id="a_edge14_Node000002_Node000015"><a xlink:title=" ">
<path fill="none" stroke="#63b8ff" d="M1288.62,-155.02C1383.59,-141.31 1544.85,-118.05 1638.39,-104.55"/>
<polygon fill="#63b8ff" stroke="#63b8ff" points="1287.9,-151.58 1278.51,-156.48 1288.9,-158.51 1287.9,-151.58"/>
</a>
</g>
</g>
<!-- Node18 -->
<g id="Node000018" class="node">
<title>Node18</title>
<g id="a_Node000018"><a xlink:href="EspUart_8h.html" target="_top" xlink:title="ESP32 UART implementation for the HardFOC system.">
<polygon fill="white" stroke="#666666" points="2196.5,-104.5 2028.5,-104.5 2028.5,-81.5 2196.5,-81.5 2196.5,-104.5"/>
<text text-anchor="middle" x="2112.5" y="-89.3" font-family="Arial" font-size="14.00">inc/mcu/esp32/EspUart.h</text>
</a>
</g>
</g>
<!-- Node2&#45;&gt;Node18 -->
<g id="edge17_Node000002_Node000018" class="edge">
<title>Node2&#45;&gt;Node18</title>
<g id="a_edge17_Node000002_Node000018"><a xlink:title=" ">
<path fill="none" stroke="#63b8ff" d="M1288.88,-159.89C1456.19,-146.5 1853.97,-114.68 2028.25,-100.74"/>
<polygon fill="#63b8ff" stroke="#63b8ff" points="1288.37,-156.42 1278.68,-160.71 1288.93,-163.4 1288.37,-156.42"/>
</a>
</g>
</g>
<!-- Node4 -->
<g id="Node000004" class="node">
<title>Node4</title>
<g id="a_Node000004"><a xlink:href="AdcComprehensiveTest_8cpp.html" target="_top" xlink:title="Comprehensive ADC testing suite for ESP32&#45;C6 DevKit&#45;M&#45;1 (noexcept)">
<polygon fill="white" stroke="#666666" points="189,-38 0,-38 0,0 189,0 189,-38"/>
<text text-anchor="start" x="8" y="-22.8" font-family="Arial" font-size="14.00">examples/esp32/main</text>
<text text-anchor="middle" x="94.5" y="-7.8" font-family="Arial" font-size="14.00">/AdcComprehensiveTest.cpp</text>
</a>
</g>
</g>
<!-- Node3&#45;&gt;Node4 -->
<g id="edge3_Node000003_Node000004" class="edge">
<title>Node3&#45;&gt;Node4</title>
<g id="a_edge3_Node000003_Node000004"><a xlink:title=" ">
<path fill="none" stroke="#63b8ff" d="M258.03,-78C225.91,-66.61 180.33,-50.44 145.45,-38.07"/>
<polygon fill="#63b8ff" stroke="#63b8ff" points="256.95,-81.33 267.55,-81.38 259.29,-74.73 256.95,-81.33"/>
</a>
</g>
</g>
<!-- Node5 -->
<g id="Node000005" class="node">
<title>Node5</title>
<g id="a_Node000005"><a xlink:href="EspAdc_8cpp.html" target="_top" xlink:title="ESP32 ADC implementation for the HardFOC system.">
<polygon fill="white" stroke="#666666" points="388,-30.5 207,-30.5 207,-7.5 388,-7.5 388,-30.5"/>
<text text-anchor="middle" x="297.5" y="-15.3" font-family="Arial" font-size="14.00">src/mcu/esp32/EspAdc.cpp</text>
</a>
</g>
</g>
<!-- Node3&#45;&gt;Node5 -->
<g id="edge4_Node000003_Node000005" class="edge">
<title>Node3&#45;&gt;Node5</title>
<g id="a_edge4_Node000003_Node000005"><a xlink:title=" ">
<path fill="none" stroke="#63b8ff" d="M297.5,-71.23C297.5,-57.97 297.5,-41.32 297.5,-30.67"/>
<polygon fill="#63b8ff" stroke="#63b8ff" points="294,-71.38 297.5,-81.38 301,-71.38 294,-71.38"/>
</a>
</g>
</g>
<!-- Node7 -->
<g id="Node000007" class="node">
<title>Node7</title>
<g id="a_Node000007"><a xlink:href="I2cComprehensiveTest_8cpp.html" target="_top" xlink:title="Comprehensive I2C testing suite for ESP32&#45;C6 DevKit&#45;M&#45;1 (noexcept)">
<polygon fill="white" stroke="#666666" points="590.5,-38 406.5,-38 406.5,0 590.5,0 590.5,-38"/>
<text text-anchor="start" x="414.5" y="-22.8" font-family="Arial" font-size="14.00">examples/esp32/main</text>
<text text-anchor="middle" x="498.5" y="-7.8" font-family="Arial" font-size="14.00">/I2cComprehensiveTest.cpp</text>
</a>
</g>
</g>
<!-- Node6&#45;&gt;Node7 -->
<g id="edge6_Node000006_Node000007" class="edge">
<title>Node6&#45;&gt;Node7</title>
<g id="a_edge6_Node000006_Node000007"><a xlink:title=" ">
<path fill="none" stroke="#63b8ff" d="M657.6,-77.85C626.29,-66.47 582.07,-50.39 548.2,-38.07"/>
<polygon fill="#63b8ff" stroke="#63b8ff" points="656.69,-81.25 667.28,-81.38 659.08,-74.67 656.69,-81.25"/>
</a>
</g>
</g>
<!-- Node8 -->
<g id="Node000008" class="node">
<title>Node8</title>
<g id="a_Node000008"><a xlink:href="EspI2c_8cpp.html" target="_top" xlink:title="Implementation of ESP32&#45;integrated I2C controller with proper bus&#45;device architecture.">
<polygon fill="white" stroke="#666666" points="784.5,-30.5 608.5,-30.5 608.5,-7.5 784.5,-7.5 784.5,-30.5"/>
<text text-anchor="middle" x="696.5" y="-15.3" font-family="Arial" font-size="14.00">src/mcu/esp32/EspI2c.cpp</text>
</a>
</g>
</g>
<!-- Node6&#45;&gt;Node8 -->
<g id="edge7_Node000006_Node000008" class="edge">
<title>Node6&#45;&gt;Node8</title>
<g id="a_edge7_Node000006_Node000008"><a xlink:title=" ">
<path fill="none" stroke="#63b8ff" d="M696.5,-71.23C696.5,-57.97 696.5,-41.32 696.5,-30.67"/>
<polygon fill="#63b8ff" stroke="#63b8ff" points="693,-71.38 696.5,-81.38 700,-71.38 693,-71.38"/>
</a>
</g>
</g>
<!-- Node10 -->
<g id="Node000010" class="node">
<title>Node10</title>
<g id="a_Node000010"><a xlink:href="TimerComprehensiveTest_8cpp.html" target="_top" xlink:title="ESP32&#45;C6 Periodic Timer Comprehensive Test Suite v2.0.">
<polygon fill="white" stroke="#666666" points="1004,-38 803,-38 803,0 1004,0 1004,-38"/>
<text text-anchor="start" x="811" y="-22.8" font-family="Arial" font-size="14.00">examples/esp32/main</text>
<text text-anchor="middle" x="903.5" y="-7.8" font-family="Arial" font-size="14.00">/TimerComprehensiveTest.cpp</text>
</a>
</g>
</g>
<!-- Node9&#45;&gt;Node10 -->
<g id="edge9_Node000009_Node000010" class="edge">
<title>Node9&#45;&gt;Node10</title>
<g id="a_edge9_Node000009_Node000010"><a xlink:title=" ">
<path fill="none" stroke="#63b8ff" d="M1050.48,-70.64C1020.41,-60.28 984.69,-47.97 955.99,-38.08"/>
<polygon fill="#63b8ff" stroke="#63b8ff" points="1049.44,-73.98 1060.03,-73.92 1051.72,-67.36 1049.44,-73.98"/>
</a>
</g>
</g>
<!-- Node11 -->
<g id="Node000011" class="node">
<title>Node11</title>
<g id="a_Node000011"><a xlink:href="EspPeriodicTimer_8cpp.html" target="_top" xlink:title="Implementation of MCU&#45;integrated periodic timer.">
<polygon fill="white" stroke="#666666" points="1203,-38 1022,-38 1022,0 1203,0 1203,-38"/>
<text text-anchor="start" x="1030" y="-22.8" font-family="Arial" font-size="14.00">src/mcu/esp32/EspPeriodic</text>
<text text-anchor="middle" x="1112.5" y="-7.8" font-family="Arial" font-size="14.00">Timer.cpp</text>
</a>
</g>
</g>
<!-- Node9&#45;&gt;Node11 -->
<g id="edge10_Node000009_Node000011" class="edge">
<title>Node9&#45;&gt;Node11</title>
<g id="a_edge10_Node000009_Node000011"><a xlink:title=" ">
<path fill="none" stroke="#63b8ff" d="M1112.5,-63.57C1112.5,-55.11 1112.5,-46.06 1112.5,-38.41"/>
<polygon fill="#63b8ff" stroke="#63b8ff" points="1109,-63.83 1112.5,-73.83 1116,-63.83 1109,-63.83"/>
</a>
</g>
</g>
<!-- Node13 -->
<g id="Node000013" class="node">
<title>Node13</title>
<g id="a_Node000013"><a xlink:href="PioComprehensiveTest_8cpp.html" target="_top" xlink:title="Comprehensive PIO testing suite for ESP32&#45;C6 DevKit&#45;M&#45;1 with RMT peripheral (noexcept)">
<polygon fill="white" stroke="#666666" points="1406,-38 1221,-38 1221,0 1406,0 1406,-38"/>
<text text-anchor="start" x="1229" y="-22.8" font-family="Arial" font-size="14.00">examples/esp32/main</text>
<text text-anchor="middle" x="1313.5" y="-7.8" font-family="Arial" font-size="14.00">/PioComprehensiveTest.cpp</text>
</a>
</g>
</g>
<!-- Node12&#45;&gt;Node13 -->
<g id="edge12_Node000012_Node000013" class="edge">
<title>Node12&#45;&gt;Node13</title>
<g id="a_edge12_Node000012_Node000013"><a xlink:title=" ">
<path fill="none" stroke="#63b8ff" d="M1313.5,-71.1C1313.5,-60.69 1313.5,-48.23 1313.5,-38.21"/>
<polygon fill="#63b8ff" stroke="#63b8ff" points="1310,-71.38 1313.5,-81.38 1317,-71.38 1310,-71.38"/>
</a>
</g>
</g>
<!-- Node14 -->
<g id="Node000014" class="node">
<title>Node14</title>
<g id="a_Node000014"><a xlink:href="EspPio_8cpp.html" target="_top" xlink:title="ESP32C6 RMT&#45;based Programmable IO Channel implementation.">
<polygon fill="white" stroke="#666666" points="1601,-30.5 1424,-30.5 1424,-7.5 1601,-7.5 1601,-30.5"/>
<text text-anchor="middle" x="1512.5" y="-15.3" font-family="Arial" font-size="14.00">src/mcu/esp32/EspPio.cpp</text>
</a>
</g>
</g>
<!-- Node12&#45;&gt;Node14 -->
<g id="edge13_Node000012_Node000014" class="edge">
<title>Node12&#45;&gt;Node14</title>
<g id="a_edge13_Node000012_Node000014"><a xlink:title=" ">
<path fill="none" stroke="#63b8ff" d="M1352.67,-77.83C1391.09,-63.93 1448.79,-43.05 1483.34,-30.55"/>
<polygon fill="#63b8ff" stroke="#63b8ff" points="1351.08,-74.68 1342.86,-81.38 1353.46,-81.27 1351.08,-74.68"/>
</a>
</g>
</g>
<!-- Node16 -->
<g id="Node000016" class="node">
<title>Node16</title>
<g id="a_Node000016"><a xlink:href="SpiComprehensiveTest_8cpp.html" target="_top" xlink:title="Comprehensive SPI testing suite for ESP32&#45;C6 DevKit&#45;M&#45;1 (noexcept)">
<polygon fill="white" stroke="#666666" points="1804,-38 1619,-38 1619,0 1804,0 1804,-38"/>
<text text-anchor="start" x="1627" y="-22.8" font-family="Arial" font-size="14.00">examples/esp32/main</text>
<text text-anchor="middle" x="1711.5" y="-7.8" font-family="Arial" font-size="14.00">/SpiComprehensiveTest.cpp</text>
</a>
</g>
</g>
<!-- Node15&#45;&gt;Node16 -->
<g id="edge15_Node000015_Node000016" class="edge">
<title>Node15&#45;&gt;Node16</title>
<g id="a_edge15_Node000015_Node000016"><a xlink:title=" ">
<path fill="none" stroke="#63b8ff" d="M1711.5,-71.1C1711.5,-60.69 1711.5,-48.23 1711.5,-38.21"/>
<polygon fill="#63b8ff" stroke="#63b8ff" points="1708,-71.38 1711.5,-81.38 1715,-71.38 1708,-71.38"/>
</a>
</g>
</g>
<!-- Node17 -->
<g id="Node000017" class="node">
<title>Node17</title>
<g id="a_Node000017"><a xlink:href="EspSpi_8cpp.html" target="_top" xlink:title="Implementation of MCU&#45;integrated SPI controller for ESP32C6 with ESP&#45;IDF v5.5+ features.">
<polygon fill="white" stroke="#666666" points="1999,-30.5 1822,-30.5 1822,-7.5 1999,-7.5 1999,-30.5"/>
<text text-anchor="middle" x="1910.5" y="-15.3" font-family="Arial" font-size="14.00">src/mcu/esp32/EspSpi.cpp</text>
</a>
</g>
</g>
<!-- Node15&#45;&gt;Node17 -->
<g id="edge16_Node000015_Node000017" class="edge">
<title>Node15&#45;&gt;Node17</title>
<g id="a_edge16_Node000015_Node000017"><a xlink:title=" ">
<path fill="none" stroke="#63b8ff" d="M1750.67,-77.83C1789.09,-63.93 1846.79,-43.05 1881.34,-30.55"/>
<polygon fill="#63b8ff" stroke="#63b8ff" points="1749.08,-74.68 1740.86,-81.38 1751.46,-81.27 1749.08,-74.68"/>
</a>
</g>
</g>
<!-- Node19 -->
<g id="Node000019" class="node">
<title>Node19</title>
<g id="a_Node000019"><a xlink:href="UartComprehensiveTest_8cpp.html" target="_top" xlink:title="Comprehensive UART testing suite for ESP32&#45;C6 DevKit&#45;M&#45;1 (noexcept)">
<polygon fill="white" stroke="#666666" points="2208,-38 2017,-38 2017,0 2208,0 2208,-38"/>
<text text-anchor="start" x="2025" y="-22.8" font-family="Arial" font-size="14.00">examples/esp32/main</text>
<text text-anchor="middle" x="2112.5" y="-7.8" font-family="Arial" font-size="14.00">/UartComprehensiveTest.cpp</text>
</a>
</g>
</g>
<!-- Node18&#45;&gt;Node19 -->
<g id="edge18_Node000018_Node000019" class="edge">
<title>Node18&#45;&gt;Node19</title>
<g id="a_edge18_Node000018_Node000019"><a xlink:title=" ">
<path fill="none" stroke="#63b8ff" d="M2112.5,-71.1C2112.5,-60.69 2112.5,-48.23 2112.5,-38.21"/>
<polygon fill="#63b8ff" stroke="#63b8ff" points="2109,-71.38 2112.5,-81.38 2116,-71.38 2109,-71.38"/>
</a>
</g>
</g>
<!-- Node20 -->
<g id="Node000020" class="node">
<title>Node20</title>
<g id="a_Node000020"><a xlink:href="EspUart_8cpp.html" target="_top" xlink:title="Implementation of ESP32 UART controller for the HardFOC system.">
<polygon fill="white" stroke="#666666" points="2409,-30.5 2226,-30.5 2226,-7.5 2409,-7.5 2409,-30.5"/>
<text text-anchor="middle" x="2317.5" y="-15.3" font-family="Arial" font-size="14.00">src/mcu/esp32/EspUart.cpp</text>
</a>
</g>
</g>
<!-- Node18&#45;&gt;Node20 -->
<g id="edge19_Node000018_Node000020" class="edge">
<title>Node18&#45;&gt;Node20</title>
<g id="a_edge19_Node000018_Node000020"><a xlink:title=" ">
<path fill="none" stroke="#63b8ff" d="M2152.35,-78C2191.93,-64.1 2251.72,-43.1 2287.46,-30.55"/>
<polygon fill="#63b8ff" stroke="#63b8ff" points="2151.02,-74.76 2142.75,-81.38 2153.34,-81.36 2151.02,-74.76"/>
</a>
</g>
</g>
</g>
</svg>
