<?xml version="1.0" encoding="UTF-8" standalone="no"?>
<!DOCTYPE svg PUBLIC "-//W3C//DTD SVG 1.1//EN"
 "http://www.w3.org/Graphics/SVG/1.1/DTD/svg11.dtd">
<!-- Generated by graphviz version 2.43.0 (0)
 -->
<!-- Title: src/mcu/esp32/EspWifi.cpp Pages: 1 -->
<svg width="2373pt" height="282pt"
 viewBox="0.00 0.00 2373.00 282.00" xmlns="http://www.w3.org/2000/svg" xmlns:xlink="http://www.w3.org/1999/xlink">
<g id="graph0" class="graph" transform="scale(1 1) rotate(0) translate(4 278)">
<title>src/mcu/esp32/EspWifi.cpp</title>
<!-- Node1 -->
<g id="Node000001" class="node">
<title>Node1</title>
<g id="a_Node000001"><a xlink:title="Advanced ESP32 implementation of the unified BaseWifi class with ESP&#45;IDF v5.5+ features.">
<polygon fill="#999999" stroke="#666666" points="1902.5,-274 1721.5,-274 1721.5,-251 1902.5,-251 1902.5,-274"/>
<text text-anchor="middle" x="1812" y="-258.8" font-family="Arial" font-size="14.00">src/mcu/esp32/EspWifi.cpp</text>
</a>
</g>
</g>
<!-- Node2 -->
<g id="Node000002" class="node">
<title>Node2</title>
<g id="a_Node000002"><a xlink:href="EspWifi_8h.html" target="_top" xlink:title="Advanced ESP32 implementation of the unified BaseWifi class with ESP&#45;IDF v5.5+ features.">
<polygon fill="white" stroke="#666666" points="923.5,-215 778.5,-215 778.5,-192 923.5,-192 923.5,-215"/>
<text text-anchor="middle" x="851" y="-199.8" font-family="Arial" font-size="14.00">mcu/esp32/EspWifi.h</text>
</a>
</g>
</g>
<!-- Node1&#45;&gt;Node2 -->
<g id="edge1_Node000001_Node000002" class="edge">
<title>Node1&#45;&gt;Node2</title>
<g id="a_edge1_Node000001_Node000002"><a xlink:title=" ">
<path fill="none" stroke="#63b8ff" d="M1721.16,-256.11C1535.05,-245.07 1112.9,-220.03 933.81,-209.41"/>
<polygon fill="#63b8ff" stroke="#63b8ff" points="933.85,-205.91 923.66,-208.81 933.43,-212.9 933.85,-205.91"/>
</a>
</g>
</g>
<!-- Node22 -->
<g id="Node000022" class="node">
<title>Node22</title>
<g id="a_Node000022"><a xlink:title=" ">
<polygon fill="#e0e0e0" stroke="#999999" points="1276.5,-82 1133.5,-82 1133.5,-59 1276.5,-59 1276.5,-82"/>
<text text-anchor="middle" x="1205" y="-66.8" font-family="Arial" font-size="14.00">freertos/FreeRTOS.h</text>
</a>
</g>
</g>
<!-- Node1&#45;&gt;Node22 -->
<g id="edge37_Node000001_Node000022" class="edge">
<title>Node1&#45;&gt;Node22</title>
<g id="a_edge37_Node000001_Node000022"><a xlink:title=" ">
<path fill="none" stroke="#63b8ff" d="M1728.19,-250.97C1675.58,-243.01 1613.72,-230.76 1592,-215 1551.71,-185.76 1577.27,-145.84 1536,-118 1496.47,-91.34 1371.32,-79.75 1286.74,-74.86"/>
<polygon fill="#63b8ff" stroke="#63b8ff" points="1286.82,-71.36 1276.64,-74.3 1286.43,-78.35 1286.82,-71.36"/>
</a>
</g>
</g>
<!-- Node24 -->
<g id="Node000024" class="node">
<title>Node24</title>
<g id="a_Node000024"><a xlink:title=" ">
<polygon fill="#e0e0e0" stroke="#999999" points="1518,-82 1416,-82 1416,-59 1518,-59 1518,-82"/>
<text text-anchor="middle" x="1467" y="-66.8" font-family="Arial" font-size="14.00">freertos/task.h</text>
</a>
</g>
</g>
<!-- Node1&#45;&gt;Node24 -->
<g id="edge39_Node000001_Node000024" class="edge">
<title>Node1&#45;&gt;Node24</title>
<g id="a_edge39_Node000001_Node000024"><a xlink:title=" ">
<path fill="none" stroke="#63b8ff" d="M1721.49,-257.74C1684.4,-252.08 1643.2,-240 1613,-215 1576.68,-184.93 1603.23,-151.46 1570,-118 1555.4,-103.3 1535.32,-92.82 1516.77,-85.57"/>
<polygon fill="#63b8ff" stroke="#63b8ff" points="1517.83,-82.23 1507.24,-82.07 1515.42,-88.8 1517.83,-82.23"/>
</a>
</g>
</g>
<!-- Node27 -->
<g id="Node000027" class="node">
<title>Node27</title>
<g id="a_Node000027"><a xlink:title=" ">
<polygon fill="#e0e0e0" stroke="#999999" points="1697.5,-215 1622.5,-215 1622.5,-192 1697.5,-192 1697.5,-215"/>
<text text-anchor="middle" x="1660" y="-199.8" font-family="Arial" font-size="14.00">esp_log.h</text>
</a>
</g>
</g>
<!-- Node1&#45;&gt;Node27 -->
<g id="edge33_Node000001_Node000027" class="edge">
<title>Node1&#45;&gt;Node27</title>
<g id="a_edge33_Node000001_Node000027"><a xlink:title=" ">
<path fill="none" stroke="#63b8ff" d="M1783.77,-250.91C1759.45,-241.79 1724.17,-228.56 1697.49,-218.56"/>
<polygon fill="#63b8ff" stroke="#63b8ff" points="1698.67,-215.27 1688.08,-215.03 1696.22,-221.82 1698.67,-215.27"/>
</a>
</g>
</g>
<!-- Node28 -->
<g id="Node000028" class="node">
<title>Node28</title>
<g id="a_Node000028"><a xlink:title=" ">
<polygon fill="#e0e0e0" stroke="#999999" points="1798.5,-215 1715.5,-215 1715.5,-192 1798.5,-192 1798.5,-215"/>
<text text-anchor="middle" x="1757" y="-199.8" font-family="Arial" font-size="14.00">esp_mac.h</text>
</a>
</g>
</g>
<!-- Node1&#45;&gt;Node28 -->
<g id="edge34_Node000001_Node000028" class="edge">
<title>Node1&#45;&gt;Node28</title>
<g id="a_edge34_Node000001_Node000028"><a xlink:title=" ">
<path fill="none" stroke="#63b8ff" d="M1801.65,-250.78C1793.97,-242.82 1783.32,-231.77 1774.34,-222.47"/>
<polygon fill="#63b8ff" stroke="#63b8ff" points="1776.76,-219.94 1767.3,-215.17 1771.72,-224.8 1776.76,-219.94"/>
</a>
</g>
</g>
<!-- Node29 -->
<g id="Node000029" class="node">
<title>Node29</title>
<g id="a_Node000029"><a xlink:title=" ">
<polygon fill="#e0e0e0" stroke="#999999" points="1917.5,-215 1816.5,-215 1816.5,-192 1917.5,-192 1917.5,-215"/>
<text text-anchor="middle" x="1867" y="-199.8" font-family="Arial" font-size="14.00">esp_system.h</text>
</a>
</g>
</g>
<!-- Node1&#45;&gt;Node29 -->
<g id="edge35_Node000001_Node000029" class="edge">
<title>Node1&#45;&gt;Node29</title>
<g id="a_edge35_Node000001_Node000029"><a xlink:title=" ">
<path fill="none" stroke="#63b8ff" d="M1822.35,-250.78C1830.03,-242.82 1840.68,-231.77 1849.66,-222.47"/>
<polygon fill="#63b8ff" stroke="#63b8ff" points="1852.28,-224.8 1856.7,-215.17 1847.24,-219.94 1852.28,-224.8"/>
</a>
</g>
</g>
<!-- Node30 -->
<g id="Node000030" class="node">
<title>Node30</title>
<g id="a_Node000030"><a xlink:title=" ">
<polygon fill="#e0e0e0" stroke="#999999" points="2022.5,-215 1935.5,-215 1935.5,-192 2022.5,-192 2022.5,-215"/>
<text text-anchor="middle" x="1979" y="-199.8" font-family="Arial" font-size="14.00">esp_timer.h</text>
</a>
</g>
</g>
<!-- Node1&#45;&gt;Node30 -->
<g id="edge36_Node000001_Node000030" class="edge">
<title>Node1&#45;&gt;Node30</title>
<g id="a_edge36_Node000001_Node000030"><a xlink:title=" ">
<path fill="none" stroke="#63b8ff" d="M1843.02,-250.91C1869.97,-241.71 1909.18,-228.33 1938.58,-218.29"/>
<polygon fill="#63b8ff" stroke="#63b8ff" points="1939.81,-221.57 1948.15,-215.03 1937.55,-214.95 1939.81,-221.57"/>
</a>
</g>
</g>
<!-- Node31 -->
<g id="Node000031" class="node">
<title>Node31</title>
<g id="a_Node000031"><a xlink:title=" ">
<polygon fill="#e0e0e0" stroke="#999999" points="2199.5,-215 2040.5,-215 2040.5,-192 2199.5,-192 2199.5,-215"/>
<text text-anchor="middle" x="2120" y="-199.8" font-family="Arial" font-size="14.00">freertos/event_groups.h</text>
</a>
</g>
</g>
<!-- Node1&#45;&gt;Node31 -->
<g id="edge38_Node000001_Node000031" class="edge">
<title>Node1&#45;&gt;Node31</title>
<g id="a_edge38_Node000001_Node000031"><a xlink:title=" ">
<path fill="none" stroke="#63b8ff" d="M1868.85,-250.98C1920.97,-241.33 1998.18,-227.05 2053.21,-216.86"/>
<polygon fill="#63b8ff" stroke="#63b8ff" points="2054.02,-220.27 2063.22,-215.01 2052.75,-213.39 2054.02,-220.27"/>
</a>
</g>
</g>
<!-- Node32 -->
<g id="Node000032" class="node">
<title>Node32</title>
<g id="a_Node000032"><a xlink:title=" ">
<polygon fill="#e0e0e0" stroke="#999999" points="2290.5,-215 2217.5,-215 2217.5,-192 2290.5,-192 2290.5,-215"/>
<text text-anchor="middle" x="2254" y="-199.8" font-family="Arial" font-size="14.00">algorithm</text>
</a>
</g>
</g>
<!-- Node1&#45;&gt;Node32 -->
<g id="edge40_Node000001_Node000032" class="edge">
<title>Node1&#45;&gt;Node32</title>
<g id="a_edge40_Node000001_Node000032"><a xlink:title=" ">
<path fill="none" stroke="#63b8ff" d="M1902.83,-253.63C1981,-246.22 2096.94,-233.69 2207.43,-214.94"/>
<polygon fill="#63b8ff" stroke="#63b8ff" points="2208.15,-218.37 2217.41,-213.22 2206.97,-211.47 2208.15,-218.37"/>
</a>
</g>
</g>
<!-- Node33 -->
<g id="Node000033" class="node">
<title>Node33</title>
<g id="a_Node000033"><a xlink:title=" ">
<polygon fill="#e0e0e0" stroke="#999999" points="2365,-215 2309,-215 2309,-192 2365,-192 2365,-215"/>
<text text-anchor="middle" x="2337" y="-199.8" font-family="Arial" font-size="14.00">cstring</text>
</a>
</g>
</g>
<!-- Node1&#45;&gt;Node33 -->
<g id="edge41_Node000001_Node000033" class="edge">
<title>Node1&#45;&gt;Node33</title>
<g id="a_edge41_Node000001_Node000033"><a xlink:title=" ">
<path fill="none" stroke="#63b8ff" d="M1902.86,-257.56C2001.17,-252.21 2162.23,-240.23 2299,-215 2299.1,-214.98 2299.2,-214.96 2299.3,-214.94"/>
<polygon fill="#63b8ff" stroke="#63b8ff" points="2299.88,-218.4 2308.91,-212.85 2298.39,-211.56 2299.88,-218.4"/>
</a>
</g>
</g>
<!-- Node3 -->
<g id="Node000003" class="node">
<title>Node3</title>
<g id="a_Node000003"><a xlink:title=" ">
<polygon fill="#e0e0e0" stroke="#999999" points="986,-148.5 896,-148.5 896,-125.5 986,-125.5 986,-148.5"/>
<text text-anchor="middle" x="941" y="-133.3" font-family="Arial" font-size="14.00">esp_event.h</text>
</a>
</g>
</g>
<!-- Node2&#45;&gt;Node3 -->
<g id="edge2_Node000002_Node000003" class="edge">
<title>Node2&#45;&gt;Node3</title>
<g id="a_edge2_Node000002_Node000003"><a xlink:title=" ">
<path fill="none" stroke="#63b8ff" d="M865.86,-191.85C879.93,-181.77 901.28,-166.47 917.63,-154.75"/>
<polygon fill="#63b8ff" stroke="#63b8ff" points="920.03,-157.34 926.12,-148.67 915.95,-151.65 920.03,-157.34"/>
</a>
</g>
</g>
<!-- Node4 -->
<g id="Node000004" class="node">
<title>Node4</title>
<g id="a_Node000004"><a xlink:title=" ">
<polygon fill="#e0e0e0" stroke="#999999" points="1095.5,-148.5 1004.5,-148.5 1004.5,-125.5 1095.5,-125.5 1095.5,-148.5"/>
<text text-anchor="middle" x="1050" y="-133.3" font-family="Arial" font-size="14.00">esp_mesh.h</text>
</a>
</g>
</g>
<!-- Node2&#45;&gt;Node4 -->
<g id="edge3_Node000002_Node000004" class="edge">
<title>Node2&#45;&gt;Node4</title>
<g id="a_edge3_Node000002_Node000004"><a xlink:title=" ">
<path fill="none" stroke="#63b8ff" d="M883.9,-191.92C913.09,-182.52 956.9,-168.39 995,-156 999.25,-154.62 1003.69,-153.17 1008.12,-151.73"/>
<polygon fill="#63b8ff" stroke="#63b8ff" points="1009.31,-155.02 1017.73,-148.59 1007.13,-148.37 1009.31,-155.02"/>
</a>
</g>
</g>
<!-- Node5 -->
<g id="Node000005" class="node">
<title>Node5</title>
<g id="a_Node000005"><a xlink:title=" ">
<polygon fill="#e0e0e0" stroke="#999999" points="1196.5,-148.5 1113.5,-148.5 1113.5,-125.5 1196.5,-125.5 1196.5,-148.5"/>
<text text-anchor="middle" x="1155" y="-133.3" font-family="Arial" font-size="14.00">esp_netif.h</text>
</a>
</g>
</g>
<!-- Node2&#45;&gt;Node5 -->
<g id="edge4_Node000002_Node000005" class="edge">
<title>Node2&#45;&gt;Node5</title>
<g id="a_edge4_Node000002_Node000005"><a xlink:title=" ">
<path fill="none" stroke="#63b8ff" d="M923.65,-192.26C974.58,-184.33 1044.02,-171.99 1104,-156 1108.63,-154.76 1113.45,-153.31 1118.18,-151.76"/>
<polygon fill="#63b8ff" stroke="#63b8ff" points="1119.38,-155.05 1127.72,-148.52 1117.13,-148.43 1119.38,-155.05"/>
</a>
</g>
</g>
<!-- Node6 -->
<g id="Node000006" class="node">
<title>Node6</title>
<g id="a_Node000006"><a xlink:title=" ">
<polygon fill="#e0e0e0" stroke="#999999" points="1343,-148.5 1215,-148.5 1215,-125.5 1343,-125.5 1343,-148.5"/>
<text text-anchor="middle" x="1279" y="-133.3" font-family="Arial" font-size="14.00">esp_smartconfig.h</text>
</a>
</g>
</g>
<!-- Node2&#45;&gt;Node6 -->
<g id="edge5_Node000002_Node000006" class="edge">
<title>Node2&#45;&gt;Node6</title>
<g id="a_edge5_Node000002_Node000006"><a xlink:title=" ">
<path fill="none" stroke="#63b8ff" d="M923.57,-195.29C995.38,-187.61 1108.27,-174.06 1205,-156 1212.95,-154.52 1221.32,-152.71 1229.46,-150.83"/>
<polygon fill="#63b8ff" stroke="#63b8ff" points="1230.31,-154.23 1239.23,-148.51 1228.69,-147.42 1230.31,-154.23"/>
</a>
</g>
</g>
<!-- Node7 -->
<g id="Node000007" class="node">
<title>Node7</title>
<g id="a_Node000007"><a xlink:title=" ">
<polygon fill="#e0e0e0" stroke="#999999" points="1438.5,-148.5 1361.5,-148.5 1361.5,-125.5 1438.5,-125.5 1438.5,-148.5"/>
<text text-anchor="middle" x="1400" y="-133.3" font-family="Arial" font-size="14.00">esp_wifi.h</text>
</a>
</g>
</g>
<!-- Node2&#45;&gt;Node7 -->
<g id="edge6_Node000002_Node000007" class="edge">
<title>Node2&#45;&gt;Node7</title>
<g id="a_edge6_Node000002_Node000007"><a xlink:title=" ">
<path fill="none" stroke="#63b8ff" d="M923.72,-201.78C1022.06,-199.45 1202.37,-190.35 1352,-156 1356.51,-154.96 1361.17,-153.61 1365.74,-152.1"/>
<polygon fill="#63b8ff" stroke="#63b8ff" points="1367.23,-155.28 1375.47,-148.63 1364.88,-148.69 1367.23,-155.28"/>
</a>
</g>
</g>
<!-- Node8 -->
<g id="Node000008" class="node">
<title>Node8</title>
<g id="a_Node000008"><a xlink:title=" ">
<polygon fill="#e0e0e0" stroke="#999999" points="1527.5,-148.5 1456.5,-148.5 1456.5,-125.5 1527.5,-125.5 1527.5,-148.5"/>
<text text-anchor="middle" x="1492" y="-133.3" font-family="Arial" font-size="14.00">lwip/err.h</text>
</a>
</g>
</g>
<!-- Node2&#45;&gt;Node8 -->
<g id="edge7_Node000002_Node000008" class="edge">
<title>Node2&#45;&gt;Node8</title>
<g id="a_edge7_Node000002_Node000008"><a xlink:title=" ">
<path fill="none" stroke="#63b8ff" d="M923.53,-199.58C1059.87,-193.65 1349.4,-178.77 1447,-156 1451.24,-155.01 1455.61,-153.69 1459.87,-152.2"/>
<polygon fill="#63b8ff" stroke="#63b8ff" points="1461.43,-155.35 1469.54,-148.53 1458.95,-148.81 1461.43,-155.35"/>
</a>
</g>
</g>
<!-- Node9 -->
<g id="Node000009" class="node">
<title>Node9</title>
<g id="a_Node000009"><a xlink:title=" ">
<polygon fill="#e0e0e0" stroke="#999999" points="125.5,-148.5 50.5,-148.5 50.5,-125.5 125.5,-125.5 125.5,-148.5"/>
<text text-anchor="middle" x="88" y="-133.3" font-family="Arial" font-size="14.00">lwip/sys.h</text>
</a>
</g>
</g>
<!-- Node2&#45;&gt;Node9 -->
<g id="edge8_Node000002_Node000009" class="edge">
<title>Node2&#45;&gt;Node9</title>
<g id="a_edge8_Node000002_Node000009"><a xlink:title=" ">
<path fill="none" stroke="#63b8ff" d="M778.21,-200.62C621.21,-196.1 255.16,-182.95 134,-156 129.55,-155.01 124.96,-153.65 120.48,-152.13"/>
<polygon fill="#63b8ff" stroke="#63b8ff" points="121.56,-148.79 110.97,-148.59 119.12,-155.35 121.56,-148.79"/>
</a>
</g>
</g>
<!-- Node10 -->
<g id="Node000010" class="node">
<title>Node10</title>
<g id="a_Node000010"><a xlink:title=" ">
<polygon fill="#e0e0e0" stroke="#999999" points="228.5,-148.5 143.5,-148.5 143.5,-125.5 228.5,-125.5 228.5,-148.5"/>
<text text-anchor="middle" x="186" y="-133.3" font-family="Arial" font-size="14.00">nvs_flash.h</text>
</a>
</g>
</g>
<!-- Node2&#45;&gt;Node10 -->
<g id="edge9_Node000002_Node000010" class="edge">
<title>Node2&#45;&gt;Node10</title>
<g id="a_edge9_Node000002_Node000010"><a xlink:title=" ">
<path fill="none" stroke="#63b8ff" d="M778.44,-203C662.84,-202.45 430.29,-195.88 238,-156 232.81,-154.92 227.43,-153.47 222.19,-151.85"/>
<polygon fill="#63b8ff" stroke="#63b8ff" points="222.94,-148.42 212.35,-148.59 220.74,-155.06 222.94,-148.42"/>
</a>
</g>
</g>
<!-- Node11 -->
<g id="Node000011" class="node">
<title>Node11</title>
<g id="a_Node000011"><a xlink:href="BaseWifi_8h.html" target="_top" xlink:title="Unified WiFi base class for all WiFi implementations.">
<polygon fill="white" stroke="#666666" points="329,-148.5 247,-148.5 247,-125.5 329,-125.5 329,-148.5"/>
<text text-anchor="middle" x="288" y="-133.3" font-family="Arial" font-size="14.00">BaseWifi.h</text>
</a>
</g>
</g>
<!-- Node2&#45;&gt;Node11 -->
<g id="edge10_Node000002_Node000011" class="edge">
<title>Node2&#45;&gt;Node11</title>
<g id="a_edge10_Node000002_Node000011"><a xlink:title=" ">
<path fill="none" stroke="#63b8ff" d="M778.17,-199.03C681.9,-193.67 507.27,-181.23 360,-156 351.96,-154.62 343.5,-152.83 335.32,-150.9"/>
<polygon fill="#63b8ff" stroke="#63b8ff" points="336.06,-147.48 325.51,-148.51 334.4,-154.28 336.06,-147.48"/>
</a>
</g>
</g>
<!-- Node18 -->
<g id="Node000018" class="node">
<title>Node18</title>
<g id="a_Node000018"><a xlink:href="EspTypes__Base_8h.html" target="_top" xlink:title="ESP32 base type definitions for hardware abstraction.">
<polygon fill="white" stroke="#666666" points="543,-156 369,-156 369,-118 543,-118 543,-156"/>
<text text-anchor="start" x="377" y="-140.8" font-family="Arial" font-size="14.00">mcu/esp32/utils/EspTypes</text>
<text text-anchor="middle" x="456" y="-125.8" font-family="Arial" font-size="14.00">_Base.h</text>
</a>
</g>
</g>
<!-- Node2&#45;&gt;Node18 -->
<g id="edge18_Node000002_Node000018" class="edge">
<title>Node2&#45;&gt;Node18</title>
<g id="a_edge18_Node000002_Node000018"><a xlink:title=" ">
<path fill="none" stroke="#63b8ff" d="M782.03,-191.98C722.41,-182.79 633.95,-168.94 557,-156 555.72,-155.78 554.42,-155.57 553.12,-155.35"/>
<polygon fill="#63b8ff" stroke="#63b8ff" points="553.47,-151.85 543.03,-153.62 552.3,-158.75 553.47,-151.85"/>
</a>
</g>
</g>
<!-- Node20 -->
<g id="Node000020" class="node">
<title>Node20</title>
<g id="a_Node000020"><a xlink:title=" ">
<polygon fill="#e0e0e0" stroke="#999999" points="695.5,-82 638.5,-82 638.5,-59 695.5,-59 695.5,-82"/>
<text text-anchor="middle" x="667" y="-66.8" font-family="Arial" font-size="14.00">atomic</text>
</a>
</g>
</g>
<!-- Node2&#45;&gt;Node20 -->
<g id="edge30_Node000002_Node000020" class="edge">
<title>Node2&#45;&gt;Node20</title>
<g id="a_edge30_Node000002_Node000020"><a xlink:title=" ">
<path fill="none" stroke="#63b8ff" d="M778.39,-199.7C709.69,-195.33 613.64,-184.23 590,-156 579.16,-143.05 581.7,-132.71 590,-118 598.52,-102.91 614.12,-92.16 629.06,-84.83"/>
<polygon fill="#63b8ff" stroke="#63b8ff" points="630.54,-88 638.21,-80.7 627.66,-81.62 630.54,-88"/>
</a>
</g>
</g>
<!-- Node21 -->
<g id="Node000021" class="node">
<title>Node21</title>
<g id="a_Node000021"><a xlink:href="RtosMutex_8h.html" target="_top" xlink:title="Cross&#45;platform RTOS mutex and synchronization primitives.">
<polygon fill="white" stroke="#666666" points="720.5,-148.5 599.5,-148.5 599.5,-125.5 720.5,-125.5 720.5,-148.5"/>
<text text-anchor="middle" x="660" y="-133.3" font-family="Arial" font-size="14.00">utils/RtosMutex.h</text>
</a>
</g>
</g>
<!-- Node2&#45;&gt;Node21 -->
<g id="edge23_Node000002_Node000021" class="edge">
<title>Node2&#45;&gt;Node21</title>
<g id="a_edge23_Node000002_Node000021"><a xlink:title=" ">
<path fill="none" stroke="#63b8ff" d="M819.89,-191.99C787.42,-181.03 736.37,-163.79 700.72,-151.75"/>
<polygon fill="#63b8ff" stroke="#63b8ff" points="701.69,-148.39 691.1,-148.5 699.45,-155.02 701.69,-148.39"/>
</a>
</g>
</g>
<!-- Node25 -->
<g id="Node000025" class="node">
<title>Node25</title>
<g id="a_Node000025"><a xlink:title=" ">
<polygon fill="#e0e0e0" stroke="#999999" points="805.5,-148.5 738.5,-148.5 738.5,-125.5 805.5,-125.5 805.5,-148.5"/>
<text text-anchor="middle" x="772" y="-133.3" font-family="Arial" font-size="14.00">memory</text>
</a>
</g>
</g>
<!-- Node2&#45;&gt;Node25 -->
<g id="edge31_Node000002_Node000025" class="edge">
<title>Node2&#45;&gt;Node25</title>
<g id="a_edge31_Node000002_Node000025"><a xlink:title=" ">
<path fill="none" stroke="#63b8ff" d="M837.95,-191.85C825.72,-181.86 807.21,-166.75 792.92,-155.08"/>
<polygon fill="#63b8ff" stroke="#63b8ff" points="795.02,-152.28 785.06,-148.67 790.6,-157.7 795.02,-152.28"/>
</a>
</g>
</g>
<!-- Node26 -->
<g id="Node000026" class="node">
<title>Node26</title>
<g id="a_Node000026"><a xlink:title=" ">
<polygon fill="#e0e0e0" stroke="#999999" points="878,-148.5 824,-148.5 824,-125.5 878,-125.5 878,-148.5"/>
<text text-anchor="middle" x="851" y="-133.3" font-family="Arial" font-size="14.00">queue</text>
</a>
</g>
</g>
<!-- Node2&#45;&gt;Node26 -->
<g id="edge32_Node000002_Node000026" class="edge">
<title>Node2&#45;&gt;Node26</title>
<g id="a_edge32_Node000002_Node000026"><a xlink:title=" ">
<path fill="none" stroke="#63b8ff" d="M851,-191.85C851,-182.94 851,-169.96 851,-158.98"/>
<polygon fill="#63b8ff" stroke="#63b8ff" points="854.5,-158.88 851,-148.88 847.5,-158.88 854.5,-158.88"/>
</a>
</g>
</g>
<!-- Node12 -->
<g id="Node000012" class="node">
<title>Node12</title>
<g id="a_Node000012"><a xlink:href="HardwareTypes_8h.html" target="_top" xlink:title="Platform&#45;agnostic hardware type definitions for the HardFOC system.">
<polygon fill="white" stroke="#666666" points="422,-82 300,-82 300,-59 422,-59 422,-82"/>
<text text-anchor="middle" x="361" y="-66.8" font-family="Arial" font-size="14.00">HardwareTypes.h</text>
</a>
</g>
</g>
<!-- Node11&#45;&gt;Node12 -->
<g id="edge11_Node000011_Node000012" class="edge">
<title>Node11&#45;&gt;Node12</title>
<g id="a_edge11_Node000011_Node000012"><a xlink:title=" ">
<path fill="none" stroke="#63b8ff" d="M300.05,-125.35C311.19,-115.51 327.94,-100.71 341.06,-89.12"/>
<polygon fill="#63b8ff" stroke="#63b8ff" points="343.51,-91.63 348.68,-82.38 338.87,-86.38 343.51,-91.63"/>
</a>
</g>
</g>
<!-- Node13 -->
<g id="Node000013" class="node">
<title>Node13</title>
<g id="a_Node000013"><a xlink:title=" ">
<polygon fill="#e0e0e0" stroke="#999999" points="468,-23 412,-23 412,0 468,0 468,-23"/>
<text text-anchor="middle" x="440" y="-7.8" font-family="Arial" font-size="14.00">cstdint</text>
</a>
</g>
</g>
<!-- Node11&#45;&gt;Node13 -->
<g id="edge14_Node000011_Node000013" class="edge">
<title>Node11&#45;&gt;Node13</title>
<g id="a_edge14_Node000011_Node000013"><a xlink:title=" ">
<path fill="none" stroke="#63b8ff" d="M284.9,-125.26C280.92,-109.09 276.19,-78.33 291,-59 297.93,-49.96 360.03,-32.73 401.84,-21.98"/>
<polygon fill="#63b8ff" stroke="#63b8ff" points="402.9,-25.32 411.73,-19.46 401.17,-18.54 402.9,-25.32"/>
</a>
</g>
</g>
<!-- Node15 -->
<g id="Node000015" class="node">
<title>Node15</title>
<g id="a_Node000015"><a xlink:title=" ">
<polygon fill="#e0e0e0" stroke="#999999" points="74,-82 0,-82 0,-59 74,-59 74,-82"/>
<text text-anchor="middle" x="37" y="-66.8" font-family="Arial" font-size="14.00">functional</text>
</a>
</g>
</g>
<!-- Node11&#45;&gt;Node15 -->
<g id="edge15_Node000011_Node000015" class="edge">
<title>Node11&#45;&gt;Node15</title>
<g id="a_edge15_Node000011_Node000015"><a xlink:title=" ">
<path fill="none" stroke="#63b8ff" d="M259.86,-125.44C252.47,-122.84 244.48,-120.18 237,-118 229.6,-115.84 140.76,-95.34 84,-82.29"/>
<polygon fill="#63b8ff" stroke="#63b8ff" points="84.68,-78.85 74.15,-80.03 83.11,-85.68 84.68,-78.85"/>
</a>
</g>
</g>
<!-- Node16 -->
<g id="Node000016" class="node">
<title>Node16</title>
<g id="a_Node000016"><a xlink:title=" ">
<polygon fill="#e0e0e0" stroke="#999999" points="142,-82 92,-82 92,-59 142,-59 142,-82"/>
<text text-anchor="middle" x="117" y="-66.8" font-family="Arial" font-size="14.00">string</text>
</a>
</g>
</g>
<!-- Node11&#45;&gt;Node16 -->
<g id="edge16_Node000011_Node000016" class="edge">
<title>Node11&#45;&gt;Node16</title>
<g id="a_edge16_Node000011_Node000016"><a xlink:title=" ">
<path fill="none" stroke="#63b8ff" d="M260.15,-125.49C230.47,-114.3 183.45,-96.57 151.47,-84.5"/>
<polygon fill="#63b8ff" stroke="#63b8ff" points="152.65,-81.21 142.06,-80.95 150.18,-87.76 152.65,-81.21"/>
</a>
</g>
</g>
<!-- Node17 -->
<g id="Node000017" class="node">
<title>Node17</title>
<g id="a_Node000017"><a xlink:title=" ">
<polygon fill="#e0e0e0" stroke="#999999" points="244,-82 160,-82 160,-59 244,-59 244,-82"/>
<text text-anchor="middle" x="202" y="-66.8" font-family="Arial" font-size="14.00">string_view</text>
</a>
</g>
</g>
<!-- Node11&#45;&gt;Node17 -->
<g id="edge17_Node000011_Node000017" class="edge">
<title>Node11&#45;&gt;Node17</title>
<g id="a_edge17_Node000011_Node000017"><a xlink:title=" ">
<path fill="none" stroke="#63b8ff" d="M273.8,-125.35C260.35,-115.27 239.96,-99.97 224.34,-88.25"/>
<polygon fill="#63b8ff" stroke="#63b8ff" points="226.32,-85.37 216.22,-82.17 222.12,-90.97 226.32,-85.37"/>
</a>
</g>
</g>
<!-- Node12&#45;&gt;Node13 -->
<g id="edge12_Node000012_Node000013" class="edge">
<title>Node12&#45;&gt;Node13</title>
<g id="a_edge12_Node000012_Node000013"><a xlink:title=" ">
<path fill="none" stroke="#63b8ff" d="M375.86,-58.78C387.45,-50.42 403.74,-38.66 417.01,-29.09"/>
<polygon fill="#63b8ff" stroke="#63b8ff" points="419.15,-31.86 425.21,-23.17 415.05,-26.19 419.15,-31.86"/>
</a>
</g>
</g>
<!-- Node14 -->
<g id="Node000014" class="node">
<title>Node14</title>
<g id="a_Node000014"><a xlink:title=" ">
<polygon fill="#e0e0e0" stroke="#999999" points="385,-23 337,-23 337,0 385,0 385,-23"/>
<text text-anchor="middle" x="361" y="-7.8" font-family="Arial" font-size="14.00">limits</text>
</a>
</g>
</g>
<!-- Node12&#45;&gt;Node14 -->
<g id="edge13_Node000012_Node000014" class="edge">
<title>Node12&#45;&gt;Node14</title>
<g id="a_edge13_Node000012_Node000014"><a xlink:title=" ">
<path fill="none" stroke="#63b8ff" d="M361,-58.78C361,-51.61 361,-41.95 361,-33.31"/>
<polygon fill="#63b8ff" stroke="#63b8ff" points="364.5,-33.17 361,-23.17 357.5,-33.17 364.5,-33.17"/>
</a>
</g>
</g>
<!-- Node18&#45;&gt;Node12 -->
<g id="edge20_Node000018_Node000012" class="edge">
<title>Node18&#45;&gt;Node12</title>
<g id="a_edge20_Node000018_Node000012"><a xlink:title=" ">
<path fill="none" stroke="#63b8ff" d="M429.28,-117.86C415.33,-108.39 398.39,-96.89 384.88,-87.71"/>
<polygon fill="#63b8ff" stroke="#63b8ff" points="386.79,-84.78 376.56,-82.06 382.86,-90.57 386.79,-84.78"/>
</a>
</g>
</g>
<!-- Node18&#45;&gt;Node13 -->
<g id="edge22_Node000018_Node000013" class="edge">
<title>Node18&#45;&gt;Node13</title>
<g id="a_edge22_Node000018_Node000013"><a xlink:title=" ">
<path fill="none" stroke="#63b8ff" d="M453.64,-117.78C450.71,-95.19 445.74,-56.78 442.67,-33.13"/>
<polygon fill="#63b8ff" stroke="#63b8ff" points="446.13,-32.59 441.38,-23.13 439.19,-33.49 446.13,-32.59"/>
</a>
</g>
</g>
<!-- Node19 -->
<g id="Node000019" class="node">
<title>Node19</title>
<g id="a_Node000019"><a xlink:href="McuSelect_8h.html" target="_top" xlink:title="Centralized MCU platform selection and configuration header.">
<polygon fill="white" stroke="#666666" points="620,-82 478,-82 478,-59 620,-59 620,-82"/>
<text text-anchor="middle" x="549" y="-66.8" font-family="Arial" font-size="14.00">../../utils/McuSelect.h</text>
</a>
</g>
</g>
<!-- Node18&#45;&gt;Node19 -->
<g id="edge19_Node000018_Node000019" class="edge">
<title>Node18&#45;&gt;Node19</title>
<g id="a_edge19_Node000018_Node000019"><a xlink:title=" ">
<path fill="none" stroke="#63b8ff" d="M482.4,-117.69C495.93,-108.31 512.26,-96.98 525.37,-87.89"/>
<polygon fill="#63b8ff" stroke="#63b8ff" points="527.63,-90.58 533.85,-82 523.64,-84.83 527.63,-90.58"/>
</a>
</g>
</g>
<!-- Node18&#45;&gt;Node20 -->
<g id="edge21_Node000018_Node000020" class="edge">
<title>Node18&#45;&gt;Node20</title>
<g id="a_edge21_Node000018_Node000020"><a xlink:title=" ">
<path fill="none" stroke="#63b8ff" d="M515.06,-117.95C551.36,-106.85 596.83,-92.95 628.53,-83.26"/>
<polygon fill="#63b8ff" stroke="#63b8ff" points="629.76,-86.54 638.3,-80.27 627.72,-79.85 629.76,-86.54"/>
</a>
</g>
</g>
<!-- Node21&#45;&gt;Node13 -->
<g id="edge29_Node000021_Node000013" class="edge">
<title>Node21&#45;&gt;Node13</title>
<g id="a_edge29_Node000021_Node000013"><a xlink:title=" ">
<path fill="none" stroke="#63b8ff" d="M674.04,-125.28C692.83,-109.67 721.82,-80.23 704,-59 675.6,-25.16 544.14,-15.94 478.09,-13.43"/>
<polygon fill="#63b8ff" stroke="#63b8ff" points="478.19,-9.93 468.08,-13.08 477.95,-16.93 478.19,-9.93"/>
</a>
</g>
</g>
<!-- Node21&#45;&gt;Node19 -->
<g id="edge24_Node000021_Node000019" class="edge">
<title>Node21&#45;&gt;Node19</title>
<g id="a_edge24_Node000021_Node000019"><a xlink:title=" ">
<path fill="none" stroke="#63b8ff" d="M641.67,-125.35C623.84,-114.99 596.52,-99.11 576.16,-87.28"/>
<polygon fill="#63b8ff" stroke="#63b8ff" points="577.76,-84.16 567.36,-82.17 574.24,-90.22 577.76,-84.16"/>
</a>
</g>
</g>
<!-- Node21&#45;&gt;Node20 -->
<g id="edge28_Node000021_Node000020" class="edge">
<title>Node21&#45;&gt;Node20</title>
<g id="a_edge28_Node000021_Node000020"><a xlink:title=" ">
<path fill="none" stroke="#63b8ff" d="M661.16,-125.35C662.12,-116.44 663.53,-103.46 664.72,-92.48"/>
<polygon fill="#63b8ff" stroke="#63b8ff" points="668.22,-92.7 665.82,-82.38 661.26,-91.95 668.22,-92.7"/>
</a>
</g>
</g>
<!-- Node21&#45;&gt;Node22 -->
<g id="edge25_Node000021_Node000022" class="edge">
<title>Node21&#45;&gt;Node22</title>
<g id="a_edge25_Node000021_Node000022"><a xlink:title=" ">
<path fill="none" stroke="#63b8ff" d="M695.93,-125.48C706.51,-122.7 718.15,-119.93 729,-118 866.04,-93.59 1027.72,-81.21 1123,-75.57"/>
<polygon fill="#63b8ff" stroke="#63b8ff" points="1123.37,-79.06 1133.15,-74.98 1122.96,-72.07 1123.37,-79.06"/>
</a>
</g>
</g>
<!-- Node23 -->
<g id="Node000023" class="node">
<title>Node23</title>
<g id="a_Node000023"><a xlink:title=" ">
<polygon fill="#e0e0e0" stroke="#999999" points="874,-82 752,-82 752,-59 874,-59 874,-82"/>
<text text-anchor="middle" x="813" y="-66.8" font-family="Arial" font-size="14.00">freertos/semphr.h</text>
</a>
</g>
</g>
<!-- Node21&#45;&gt;Node23 -->
<g id="edge26_Node000021_Node000023" class="edge">
<title>Node21&#45;&gt;Node23</title>
<g id="a_edge26_Node000021_Node000023"><a xlink:title=" ">
<path fill="none" stroke="#63b8ff" d="M684.92,-125.49C710.37,-114.76 750.08,-98.03 778.53,-86.03"/>
<polygon fill="#63b8ff" stroke="#63b8ff" points="780.23,-89.11 788.09,-82 777.51,-82.66 780.23,-89.11"/>
</a>
</g>
</g>
<!-- Node21&#45;&gt;Node24 -->
<g id="edge27_Node000021_Node000024" class="edge">
<title>Node21&#45;&gt;Node24</title>
<g id="a_edge27_Node000021_Node000024"><a xlink:title=" ">
<path fill="none" stroke="#63b8ff" d="M695.18,-125.43C705.94,-122.57 717.88,-119.78 729,-118 762.17,-112.68 1234.62,-84.96 1405.71,-75.04"/>
<polygon fill="#63b8ff" stroke="#63b8ff" points="1406.03,-78.53 1415.81,-74.45 1405.63,-71.54 1406.03,-78.53"/>
</a>
</g>
</g>
</g>
</svg>
