<?xml version="1.0" encoding="UTF-8" standalone="no"?>
<!DOCTYPE svg PUBLIC "-//W3C//DTD SVG 1.1//EN"
 "http://www.w3.org/Graphics/SVG/1.1/DTD/svg11.dtd">
<!-- Generated by graphviz version 2.43.0 (0)
 -->
<!-- Title: inc/mcu/esp32/EspWifi.h Pages: 1 -->
<!--zoomable 223 -->

<svg id="main" version="1.1" xmlns="http://www.w3.org/2000/svg" xmlns:xlink="http://www.w3.org/1999/xlink" xml:space="preserve" onload="init(evt)">
<style type="text/css"><![CDATA[
.node, .edge {opacity: 0.7;}
.node.selected, .edge.selected {opacity: 1;}
.edge:hover path { stroke: red; }
.edge:hover polygon { stroke: red; fill: red; }
]]></style>

<defs>
  <circle id="rim" cx="0" cy="0" r="7"/>
  <circle id="rim2" cx="0" cy="0" r="3.5"/>
  <g id="zoomPlus">
    <use xlink:href="#rim" fill="#404040"><set attributeName="fill" to="#808080" begin="zoomplus.mouseover" end="zoomplus.mouseout"/></use>
    <path d="M-4,0h8M0,-4v8" fill="none" stroke="white" stroke-width="1.5" pointer-events="none"/>
  </g>
  <g id="zoomMin">
    <use xlink:href="#rim" fill="#404040"><set attributeName="fill" to="#808080" begin="zoomminus.mouseover" end="zoomminus.mouseout"/></use>
    <path d="M-4,0h8" fill="none" stroke="white" stroke-width="1.5" pointer-events="none"/>
  </g>
  <g id="arrowUp" transform="translate(30 24)">
    <use xlink:href="#rim"/>
    <path pointer-events="none" fill="none" stroke="white" stroke-width="1.5" d="M0,-3.0v7 M-2.5,-0.5L0,-3.0L2.5,-0.5"/>
  </g>
  <g id="arrowRight" transform="rotate(90) translate(36 -43)">
    <use xlink:href="#rim"/>
    <path pointer-events="none" fill="none" stroke="white" stroke-width="1.5" d="M0,-3.0v7 M-2.5,-0.5L0,-3.0L2.5,-0.5"/>
  </g>
  <g id="arrowDown" transform="rotate(180) translate(-30 -48)">
    <use xlink:href="#rim"/>
    <path pointer-events="none" fill="none" stroke="white" stroke-width="1.5" d="M0,-3.0v7 M-2.5,-0.5L0,-3.0L2.5,-0.5"/>
  </g>
  <g id="arrowLeft" transform="rotate(270) translate(-36 17)">
    <use xlink:href="#rim"/>
    <path pointer-events="none" fill="none" stroke="white" stroke-width="1.5" d="M0,-3.0v7 M-2.5,-0.5L0,-3.0L2.5,-0.5"/>
  </g>
  <g id="resetDef">
    <use xlink:href="#rim2" fill="#404040"><set attributeName="fill" to="#808080" begin="reset.mouseover" end="reset.mouseout"/></use>
  </g>
</defs>
<script type="application/ecmascript">
var viewWidth = 1712;
var viewHeight = 223;
var sectionId = 'dynsection-0';
</script>
<script type="application/ecmascript" xlink:href="svg.min.js"/>
<svg id="graph" class="graph">
<g id="viewport">
<title>inc/mcu/esp32/EspWifi.h</title>
<!-- Node1 -->
<g id="Node000001" class="node">
<title>Node1</title>
<g id="a_Node000001"><a xlink:title="Advanced ESP32 implementation of the unified BaseWifi class with ESP&#45;IDF v5.5+ features.">
<polygon fill="#999999" stroke="#666666" points="819,-215 653,-215 653,-192 819,-192 819,-215"/>
<text text-anchor="middle" x="736" y="-199.8" font-family="Arial" font-size="14.00">inc/mcu/esp32/EspWifi.h</text>
</a>
</g>
</g>
<!-- Node2 -->
<g id="Node000002" class="node">
<title>Node2</title>
<g id="a_Node000002"><a xlink:title=" ">
<polygon fill="#e0e0e0" stroke="#999999" points="90,-148.5 0,-148.5 0,-125.5 90,-125.5 90,-148.5"/>
<text text-anchor="middle" x="45" y="-133.3" font-family="Arial" font-size="14.00">esp_event.h</text>
</a>
</g>
</g>
<!-- Node1&#45;&gt;Node2 -->
<g id="edge1_Node000001_Node000002" class="edge">
<title>Node1&#45;&gt;Node2</title>
<g id="a_edge1_Node000001_Node000002"><a xlink:title=" ">
<path fill="none" stroke="#63b8ff" d="M652.91,-202.99C530.46,-202.23 294.86,-195.15 99,-156 93.43,-154.89 87.63,-153.36 82,-151.67"/>
<polygon fill="#63b8ff" stroke="#63b8ff" points="82.71,-148.22 72.11,-148.5 80.57,-154.89 82.71,-148.22"/>
</a>
</g>
</g>
<!-- Node3 -->
<g id="Node000003" class="node">
<title>Node3</title>
<g id="a_Node000003"><a xlink:title=" ">
<polygon fill="#e0e0e0" stroke="#999999" points="199.5,-148.5 108.5,-148.5 108.5,-125.5 199.5,-125.5 199.5,-148.5"/>
<text text-anchor="middle" x="154" y="-133.3" font-family="Arial" font-size="14.00">esp_mesh.h</text>
</a>
</g>
</g>
<!-- Node1&#45;&gt;Node3 -->
<g id="edge2_Node000001_Node000003" class="edge">
<title>Node1&#45;&gt;Node3</title>
<g id="a_edge2_Node000001_Node000003"><a xlink:title=" ">
<path fill="none" stroke="#63b8ff" d="M652.82,-201.16C548.05,-198.11 362.97,-188.19 208,-156 202.5,-154.86 196.77,-153.33 191.2,-151.65"/>
<polygon fill="#63b8ff" stroke="#63b8ff" points="192,-148.24 181.41,-148.51 189.86,-154.9 192,-148.24"/>
</a>
</g>
</g>
<!-- Node4 -->
<g id="Node000004" class="node">
<title>Node4</title>
<g id="a_Node000004"><a xlink:title=" ">
<polygon fill="#e0e0e0" stroke="#999999" points="300.5,-148.5 217.5,-148.5 217.5,-125.5 300.5,-125.5 300.5,-148.5"/>
<text text-anchor="middle" x="259" y="-133.3" font-family="Arial" font-size="14.00">esp_netif.h</text>
</a>
</g>
</g>
<!-- Node1&#45;&gt;Node4 -->
<g id="edge3_Node000001_Node000004" class="edge">
<title>Node1&#45;&gt;Node4</title>
<g id="a_edge3_Node000001_Node000004"><a xlink:title=" ">
<path fill="none" stroke="#63b8ff" d="M652.6,-199.08C566.03,-194.21 427.15,-182.69 310,-156 304.98,-154.86 299.77,-153.38 294.68,-151.76"/>
<polygon fill="#63b8ff" stroke="#63b8ff" points="295.72,-148.41 285.13,-148.52 293.48,-155.04 295.72,-148.41"/>
</a>
</g>
</g>
<!-- Node5 -->
<g id="Node000005" class="node">
<title>Node5</title>
<g id="a_Node000005"><a xlink:title=" ">
<polygon fill="#e0e0e0" stroke="#999999" points="447,-148.5 319,-148.5 319,-125.5 447,-125.5 447,-148.5"/>
<text text-anchor="middle" x="383" y="-133.3" font-family="Arial" font-size="14.00">esp_smartconfig.h</text>
</a>
</g>
</g>
<!-- Node1&#45;&gt;Node5 -->
<g id="edge4_Node000001_Node000005" class="edge">
<title>Node1&#45;&gt;Node5</title>
<g id="a_edge4_Node000001_Node000005"><a xlink:title=" ">
<path fill="none" stroke="#63b8ff" d="M663.2,-191.99C606.52,-183.42 525.98,-170.42 456,-156 448.62,-154.48 440.86,-152.73 433.26,-150.93"/>
<polygon fill="#63b8ff" stroke="#63b8ff" points="433.96,-147.5 423.42,-148.56 432.32,-154.3 433.96,-147.5"/>
</a>
</g>
</g>
<!-- Node6 -->
<g id="Node000006" class="node">
<title>Node6</title>
<g id="a_Node000006"><a xlink:title=" ">
<polygon fill="#e0e0e0" stroke="#999999" points="542.5,-148.5 465.5,-148.5 465.5,-125.5 542.5,-125.5 542.5,-148.5"/>
<text text-anchor="middle" x="504" y="-133.3" font-family="Arial" font-size="14.00">esp_wifi.h</text>
</a>
</g>
</g>
<!-- Node1&#45;&gt;Node6 -->
<g id="edge5_Node000001_Node000006" class="edge">
<title>Node1&#45;&gt;Node6</title>
<g id="a_edge5_Node000001_Node000006"><a xlink:title=" ">
<path fill="none" stroke="#63b8ff" d="M687.26,-191.92C649.69,-183.37 596.63,-170.42 551,-156 547.26,-154.82 543.39,-153.5 539.55,-152.13"/>
<polygon fill="#63b8ff" stroke="#63b8ff" points="540.75,-148.84 530.15,-148.65 538.32,-155.4 540.75,-148.84"/>
</a>
</g>
</g>
<!-- Node7 -->
<g id="Node000007" class="node">
<title>Node7</title>
<g id="a_Node000007"><a xlink:title=" ">
<polygon fill="#e0e0e0" stroke="#999999" points="631.5,-148.5 560.5,-148.5 560.5,-125.5 631.5,-125.5 631.5,-148.5"/>
<text text-anchor="middle" x="596" y="-133.3" font-family="Arial" font-size="14.00">lwip/err.h</text>
</a>
</g>
</g>
<!-- Node1&#45;&gt;Node7 -->
<g id="edge6_Node000001_Node000007" class="edge">
<title>Node1&#45;&gt;Node7</title>
<g id="a_edge6_Node000001_Node000007"><a xlink:title=" ">
<path fill="none" stroke="#63b8ff" d="M713.19,-191.99C690.01,-181.31 653.89,-164.67 627.88,-152.69"/>
<polygon fill="#63b8ff" stroke="#63b8ff" points="629.34,-149.51 618.8,-148.5 626.41,-155.87 629.34,-149.51"/>
</a>
</g>
</g>
<!-- Node8 -->
<g id="Node000008" class="node">
<title>Node8</title>
<g id="a_Node000008"><a xlink:title=" ">
<polygon fill="#e0e0e0" stroke="#999999" points="724.5,-148.5 649.5,-148.5 649.5,-125.5 724.5,-125.5 724.5,-148.5"/>
<text text-anchor="middle" x="687" y="-133.3" font-family="Arial" font-size="14.00">lwip/sys.h</text>
</a>
</g>
</g>
<!-- Node1&#45;&gt;Node8 -->
<g id="edge7_Node000001_Node000008" class="edge">
<title>Node1&#45;&gt;Node8</title>
<g id="a_edge7_Node000001_Node000008"><a xlink:title=" ">
<path fill="none" stroke="#63b8ff" d="M727.91,-191.85C720.72,-182.38 710.03,-168.32 701.39,-156.94"/>
<polygon fill="#63b8ff" stroke="#63b8ff" points="704.1,-154.73 695.27,-148.88 698.53,-158.96 704.1,-154.73"/>
</a>
</g>
</g>
<!-- Node9 -->
<g id="Node000009" class="node">
<title>Node9</title>
<g id="a_Node000009"><a xlink:title=" ">
<polygon fill="#e0e0e0" stroke="#999999" points="827.5,-148.5 742.5,-148.5 742.5,-125.5 827.5,-125.5 827.5,-148.5"/>
<text text-anchor="middle" x="785" y="-133.3" font-family="Arial" font-size="14.00">nvs_flash.h</text>
</a>
</g>
</g>
<!-- Node1&#45;&gt;Node9 -->
<g id="edge8_Node000001_Node000009" class="edge">
<title>Node1&#45;&gt;Node9</title>
<g id="a_edge8_Node000001_Node000009"><a xlink:title=" ">
<path fill="none" stroke="#63b8ff" d="M744.09,-191.85C751.28,-182.38 761.97,-168.32 770.61,-156.94"/>
<polygon fill="#63b8ff" stroke="#63b8ff" points="773.47,-158.96 776.73,-148.88 767.9,-154.73 773.47,-158.96"/>
</a>
</g>
</g>
<!-- Node10 -->
<g id="Node000010" class="node">
<title>Node10</title>
<g id="a_Node000010"><a xlink:href="BaseWifi_8h.html" target="_top" xlink:title="Unified WiFi base class for all WiFi implementations.">
<polygon fill="white" stroke="#666666" points="928,-148.5 846,-148.5 846,-125.5 928,-125.5 928,-148.5"/>
<text text-anchor="middle" x="887" y="-133.3" font-family="Arial" font-size="14.00">BaseWifi.h</text>
</a>
</g>
</g>
<!-- Node1&#45;&gt;Node10 -->
<g id="edge9_Node000001_Node000010" class="edge">
<title>Node1&#45;&gt;Node10</title>
<g id="a_edge9_Node000001_Node000010"><a xlink:title=" ">
<path fill="none" stroke="#63b8ff" d="M760.6,-191.99C785.71,-181.26 824.9,-164.53 852.98,-152.53"/>
<polygon fill="#63b8ff" stroke="#63b8ff" points="854.59,-155.65 862.41,-148.5 851.84,-149.21 854.59,-155.65"/>
</a>
</g>
</g>
<!-- Node17 -->
<g id="Node000017" class="node">
<title>Node17</title>
<g id="a_Node000017"><a xlink:href="EspTypes__Base_8h.html" target="_top" xlink:title="ESP32 base type definitions for hardware abstraction.">
<polygon fill="white" stroke="#666666" points="1120,-156 946,-156 946,-118 1120,-118 1120,-156"/>
<text text-anchor="start" x="954" y="-140.8" font-family="Arial" font-size="14.00">mcu/esp32/utils/EspTypes</text>
<text text-anchor="middle" x="1033" y="-125.8" font-family="Arial" font-size="14.00">_Base.h</text>
</a>
</g>
</g>
<!-- Node1&#45;&gt;Node17 -->
<g id="edge17_Node000001_Node000017" class="edge">
<title>Node1&#45;&gt;Node17</title>
<g id="a_edge17_Node000001_Node000017"><a xlink:title=" ">
<path fill="none" stroke="#63b8ff" d="M784.38,-191.99C826.46,-182.85 888.61,-169.36 940.25,-158.14"/>
<polygon fill="#63b8ff" stroke="#63b8ff" points="941.06,-161.55 950.09,-156 939.58,-154.71 941.06,-161.55"/>
</a>
</g>
</g>
<!-- Node19 -->
<g id="Node000019" class="node">
<title>Node19</title>
<g id="a_Node000019"><a xlink:title=" ">
<polygon fill="#e0e0e0" stroke="#999999" points="1243.5,-82 1186.5,-82 1186.5,-59 1243.5,-59 1243.5,-82"/>
<text text-anchor="middle" x="1215" y="-66.8" font-family="Arial" font-size="14.00">atomic</text>
</a>
</g>
</g>
<!-- Node1&#45;&gt;Node19 -->
<g id="edge29_Node000001_Node000019" class="edge">
<title>Node1&#45;&gt;Node19</title>
<g id="a_edge29_Node000001_Node000019"><a xlink:title=" ">
<path fill="none" stroke="#63b8ff" d="M819.26,-198.95C918.02,-193.65 1075.96,-181.44 1129,-156 1130.06,-155.49 1171.94,-114.12 1196.86,-89.46"/>
<polygon fill="#63b8ff" stroke="#63b8ff" points="1199.64,-91.64 1204.28,-82.12 1194.71,-86.67 1199.64,-91.64"/>
</a>
</g>
</g>
<!-- Node20 -->
<g id="Node000020" class="node">
<title>Node20</title>
<g id="a_Node000020"><a xlink:href="RtosMutex_8h.html" target="_top" xlink:title="Cross&#45;platform RTOS mutex and synchronization primitives.">
<polygon fill="white" stroke="#666666" points="1297.5,-148.5 1176.5,-148.5 1176.5,-125.5 1297.5,-125.5 1297.5,-148.5"/>
<text text-anchor="middle" x="1237" y="-133.3" font-family="Arial" font-size="14.00">utils/RtosMutex.h</text>
</a>
</g>
</g>
<!-- Node1&#45;&gt;Node20 -->
<g id="edge22_Node000001_Node000020" class="edge">
<title>Node1&#45;&gt;Node20</title>
<g id="a_edge22_Node000001_Node000020"><a xlink:title=" ">
<path fill="none" stroke="#63b8ff" d="M819.3,-196.55C905.49,-189.66 1043.81,-176.55 1162,-156 1170.16,-154.58 1178.75,-152.8 1187.1,-150.91"/>
<polygon fill="#63b8ff" stroke="#63b8ff" points="1188.16,-154.25 1197.1,-148.57 1186.57,-147.44 1188.16,-154.25"/>
</a>
</g>
</g>
<!-- Node24 -->
<g id="Node000024" class="node">
<title>Node24</title>
<g id="a_Node000024"><a xlink:title=" ">
<polygon fill="#e0e0e0" stroke="#999999" points="1382.5,-148.5 1315.5,-148.5 1315.5,-125.5 1382.5,-125.5 1382.5,-148.5"/>
<text text-anchor="middle" x="1349" y="-133.3" font-family="Arial" font-size="14.00">memory</text>
</a>
</g>
</g>
<!-- Node1&#45;&gt;Node24 -->
<g id="edge30_Node000001_Node000024" class="edge">
<title>Node1&#45;&gt;Node24</title>
<g id="a_edge30_Node000001_Node000024"><a xlink:title=" ">
<path fill="none" stroke="#63b8ff" d="M819.23,-199.03C954.72,-192.82 1216.92,-178.34 1307,-156 1310.87,-155.04 1314.85,-153.76 1318.73,-152.33"/>
<polygon fill="#63b8ff" stroke="#63b8ff" points="1320.14,-155.53 1328.1,-148.53 1317.51,-149.04 1320.14,-155.53"/>
</a>
</g>
</g>
<!-- Node25 -->
<g id="Node000025" class="node">
<title>Node25</title>
<g id="a_Node000025"><a xlink:title=" ">
<polygon fill="#e0e0e0" stroke="#999999" points="1455,-148.5 1401,-148.5 1401,-125.5 1455,-125.5 1455,-148.5"/>
<text text-anchor="middle" x="1428" y="-133.3" font-family="Arial" font-size="14.00">queue</text>
</a>
</g>
</g>
<!-- Node1&#45;&gt;Node25 -->
<g id="edge31_Node000001_Node000025" class="edge">
<title>Node1&#45;&gt;Node25</title>
<g id="a_edge31_Node000001_Node000025"><a xlink:title=" ">
<path fill="none" stroke="#63b8ff" d="M819.27,-200.64C970.96,-196.6 1286.42,-184.9 1392,-156 1395,-155.18 1398.05,-154.1 1401.04,-152.87"/>
<polygon fill="#63b8ff" stroke="#63b8ff" points="1402.64,-155.99 1410.24,-148.61 1399.7,-149.64 1402.64,-155.99"/>
</a>
</g>
</g>
<!-- Node11 -->
<g id="Node000011" class="node">
<title>Node11</title>
<g id="a_Node000011"><a xlink:href="HardwareTypes_8h.html" target="_top" xlink:title="Platform&#45;agnostic hardware type definitions for the HardFOC system.">
<polygon fill="white" stroke="#666666" points="970,-82 848,-82 848,-59 970,-59 970,-82"/>
<text text-anchor="middle" x="909" y="-66.8" font-family="Arial" font-size="14.00">HardwareTypes.h</text>
</a>
</g>
</g>
<!-- Node10&#45;&gt;Node11 -->
<g id="edge10_Node000010_Node000011" class="edge">
<title>Node10&#45;&gt;Node11</title>
<g id="a_edge10_Node000010_Node000011"><a xlink:title=" ">
<path fill="none" stroke="#63b8ff" d="M890.63,-125.35C893.7,-116.35 898.19,-103.19 901.96,-92.13"/>
<polygon fill="#63b8ff" stroke="#63b8ff" points="905.37,-92.98 905.29,-82.38 898.75,-90.72 905.37,-92.98"/>
</a>
</g>
</g>
<!-- Node12 -->
<g id="Node000012" class="node">
<title>Node12</title>
<g id="a_Node000012"><a xlink:title=" ">
<polygon fill="#e0e0e0" stroke="#999999" points="1016,-23 960,-23 960,0 1016,0 1016,-23"/>
<text text-anchor="middle" x="988" y="-7.8" font-family="Arial" font-size="14.00">cstdint</text>
</a>
</g>
</g>
<!-- Node10&#45;&gt;Node12 -->
<g id="edge13_Node000010_Node000012" class="edge">
<title>Node10&#45;&gt;Node12</title>
<g id="a_edge13_Node000010_Node000012"><a xlink:title=" ">
<path fill="none" stroke="#63b8ff" d="M872.05,-125.46C852.42,-110.31 822.29,-81.72 839,-59 845.75,-49.82 907.91,-32.64 949.78,-21.93"/>
<polygon fill="#63b8ff" stroke="#63b8ff" points="950.85,-25.27 959.68,-19.42 949.13,-18.48 950.85,-25.27"/>
</a>
</g>
</g>
<!-- Node14 -->
<g id="Node000014" class="node">
<title>Node14</title>
<g id="a_Node000014"><a xlink:title=" ">
<polygon fill="#e0e0e0" stroke="#999999" points="622,-82 548,-82 548,-59 622,-59 622,-82"/>
<text text-anchor="middle" x="585" y="-66.8" font-family="Arial" font-size="14.00">functional</text>
</a>
</g>
</g>
<!-- Node10&#45;&gt;Node14 -->
<g id="edge14_Node000010_Node000014" class="edge">
<title>Node10&#45;&gt;Node14</title>
<g id="a_edge14_Node000010_Node000014"><a xlink:title=" ">
<path fill="none" stroke="#63b8ff" d="M859.73,-125.44C852.13,-122.75 843.81,-120.05 836,-118 749.58,-95.33 723.45,-99.94 632.07,-82.12"/>
<polygon fill="#63b8ff" stroke="#63b8ff" points="632.61,-78.66 622.12,-80.14 631.25,-85.53 632.61,-78.66"/>
</a>
</g>
</g>
<!-- Node15 -->
<g id="Node000015" class="node">
<title>Node15</title>
<g id="a_Node000015"><a xlink:title=" ">
<polygon fill="#e0e0e0" stroke="#999999" points="690,-82 640,-82 640,-59 690,-59 690,-82"/>
<text text-anchor="middle" x="665" y="-66.8" font-family="Arial" font-size="14.00">string</text>
</a>
</g>
</g>
<!-- Node10&#45;&gt;Node15 -->
<g id="edge15_Node000010_Node000015" class="edge">
<title>Node10&#45;&gt;Node15</title>
<g id="a_edge15_Node000010_Node000015"><a xlink:title=" ">
<path fill="none" stroke="#63b8ff" d="M858.55,-125.49C851.24,-122.92 843.36,-120.26 836,-118 778.76,-100.41 761.23,-99.36 700,-82.19"/>
<polygon fill="#63b8ff" stroke="#63b8ff" points="700.79,-78.78 690.22,-79.42 698.88,-85.51 700.79,-78.78"/>
</a>
</g>
</g>
<!-- Node16 -->
<g id="Node000016" class="node">
<title>Node16</title>
<g id="a_Node000016"><a xlink:title=" ">
<polygon fill="#e0e0e0" stroke="#999999" points="792,-82 708,-82 708,-59 792,-59 792,-82"/>
<text text-anchor="middle" x="750" y="-66.8" font-family="Arial" font-size="14.00">string_view</text>
</a>
</g>
</g>
<!-- Node10&#45;&gt;Node16 -->
<g id="edge16_Node000010_Node000016" class="edge">
<title>Node10&#45;&gt;Node16</title>
<g id="a_edge16_Node000010_Node000016"><a xlink:title=" ">
<path fill="none" stroke="#63b8ff" d="M864.68,-125.49C842.09,-114.86 806.96,-98.32 781.53,-86.34"/>
<polygon fill="#63b8ff" stroke="#63b8ff" points="782.85,-83.1 772.31,-82 779.86,-89.43 782.85,-83.1"/>
</a>
</g>
</g>
<!-- Node11&#45;&gt;Node12 -->
<g id="edge11_Node000011_Node000012" class="edge">
<title>Node11&#45;&gt;Node12</title>
<g id="a_edge11_Node000011_Node000012"><a xlink:title=" ">
<path fill="none" stroke="#63b8ff" d="M923.86,-58.78C935.45,-50.42 951.74,-38.66 965.01,-29.09"/>
<polygon fill="#63b8ff" stroke="#63b8ff" points="967.15,-31.86 973.21,-23.17 963.05,-26.19 967.15,-31.86"/>
</a>
</g>
</g>
<!-- Node13 -->
<g id="Node000013" class="node">
<title>Node13</title>
<g id="a_Node000013"><a xlink:title=" ">
<polygon fill="#e0e0e0" stroke="#999999" points="933,-23 885,-23 885,0 933,0 933,-23"/>
<text text-anchor="middle" x="909" y="-7.8" font-family="Arial" font-size="14.00">limits</text>
</a>
</g>
</g>
<!-- Node11&#45;&gt;Node13 -->
<g id="edge12_Node000011_Node000013" class="edge">
<title>Node11&#45;&gt;Node13</title>
<g id="a_edge12_Node000011_Node000013"><a xlink:title=" ">
<path fill="none" stroke="#63b8ff" d="M909,-58.78C909,-51.61 909,-41.95 909,-33.31"/>
<polygon fill="#63b8ff" stroke="#63b8ff" points="912.5,-33.17 909,-23.17 905.5,-33.17 912.5,-33.17"/>
</a>
</g>
</g>
<!-- Node17&#45;&gt;Node11 -->
<g id="edge19_Node000017_Node000011" class="edge">
<title>Node17&#45;&gt;Node11</title>
<g id="a_edge19_Node000017_Node000011"><a xlink:title=" ">
<path fill="none" stroke="#63b8ff" d="M998.13,-117.86C979.39,-108.12 956.54,-96.23 938.66,-86.93"/>
<polygon fill="#63b8ff" stroke="#63b8ff" points="939.79,-83.57 929.3,-82.06 936.56,-89.78 939.79,-83.57"/>
</a>
</g>
</g>
<!-- Node17&#45;&gt;Node12 -->
<g id="edge21_Node000017_Node000012" class="edge">
<title>Node17&#45;&gt;Node12</title>
<g id="a_edge21_Node000017_Node000012"><a xlink:title=" ">
<path fill="none" stroke="#63b8ff" d="M1026.36,-117.78C1018.09,-95.08 1004.01,-56.44 995.4,-32.81"/>
<polygon fill="#63b8ff" stroke="#63b8ff" points="998.58,-31.32 991.87,-23.13 992.01,-33.72 998.58,-31.32"/>
</a>
</g>
</g>
<!-- Node18 -->
<g id="Node000018" class="node">
<title>Node18</title>
<g id="a_Node000018"><a xlink:href="McuSelect_8h.html" target="_top" xlink:title="Centralized MCU platform selection and configuration header.">
<polygon fill="white" stroke="#666666" points="1168,-82 1026,-82 1026,-59 1168,-59 1168,-82"/>
<text text-anchor="middle" x="1097" y="-66.8" font-family="Arial" font-size="14.00">../../utils/McuSelect.h</text>
</a>
</g>
</g>
<!-- Node17&#45;&gt;Node18 -->
<g id="edge18_Node000017_Node000018" class="edge">
<title>Node17&#45;&gt;Node18</title>
<g id="a_edge18_Node000017_Node000018"><a xlink:title=" ">
<path fill="none" stroke="#63b8ff" d="M1051.17,-117.69C1059.97,-108.82 1070.51,-98.2 1079.25,-89.39"/>
<polygon fill="#63b8ff" stroke="#63b8ff" points="1081.83,-91.76 1086.39,-82.19 1076.86,-86.82 1081.83,-91.76"/>
</a>
</g>
</g>
<!-- Node17&#45;&gt;Node19 -->
<g id="edge20_Node000017_Node000019" class="edge">
<title>Node17&#45;&gt;Node19</title>
<g id="a_edge20_Node000017_Node000019"><a xlink:title=" ">
<path fill="none" stroke="#63b8ff" d="M1084.18,-117.86C1113.58,-107.44 1149.9,-94.57 1176.8,-85.04"/>
<polygon fill="#63b8ff" stroke="#63b8ff" points="1177.99,-88.33 1186.25,-81.69 1175.66,-81.73 1177.99,-88.33"/>
</a>
</g>
</g>
<!-- Node20&#45;&gt;Node12 -->
<g id="edge28_Node000020_Node000012" class="edge">
<title>Node20&#45;&gt;Node12</title>
<g id="a_edge28_Node000020_Node000012"><a xlink:title=" ">
<path fill="none" stroke="#63b8ff" d="M1244.08,-125.45C1253.99,-109.26 1269.07,-78.13 1253,-59 1224.49,-25.05 1092.53,-15.88 1026.23,-13.41"/>
<polygon fill="#63b8ff" stroke="#63b8ff" points="1026.3,-9.91 1016.18,-13.07 1026.06,-16.9 1026.3,-9.91"/>
</a>
</g>
</g>
<!-- Node20&#45;&gt;Node18 -->
<g id="edge23_Node000020_Node000018" class="edge">
<title>Node20&#45;&gt;Node18</title>
<g id="a_edge23_Node000020_Node000018"><a xlink:title=" ">
<path fill="none" stroke="#63b8ff" d="M1214.19,-125.49C1191.01,-114.81 1154.89,-98.17 1128.88,-86.19"/>
<polygon fill="#63b8ff" stroke="#63b8ff" points="1130.34,-83.01 1119.8,-82 1127.41,-89.37 1130.34,-83.01"/>
</a>
</g>
</g>
<!-- Node20&#45;&gt;Node19 -->
<g id="edge27_Node000020_Node000019" class="edge">
<title>Node20&#45;&gt;Node19</title>
<g id="a_edge27_Node000020_Node000019"><a xlink:title=" ">
<path fill="none" stroke="#63b8ff" d="M1233.37,-125.35C1230.3,-116.35 1225.81,-103.19 1222.04,-92.13"/>
<polygon fill="#63b8ff" stroke="#63b8ff" points="1225.25,-90.72 1218.71,-82.38 1218.63,-92.98 1225.25,-90.72"/>
</a>
</g>
</g>
<!-- Node21 -->
<g id="Node000021" class="node">
<title>Node21</title>
<g id="a_Node000021"><a xlink:title=" ">
<polygon fill="#e0e0e0" stroke="#999999" points="1443.5,-82 1300.5,-82 1300.5,-59 1443.5,-59 1443.5,-82"/>
<text text-anchor="middle" x="1372" y="-66.8" font-family="Arial" font-size="14.00">freertos/FreeRTOS.h</text>
</a>
</g>
</g>
<!-- Node20&#45;&gt;Node21 -->
<g id="edge24_Node000020_Node000021" class="edge">
<title>Node20&#45;&gt;Node21</title>
<g id="a_edge24_Node000020_Node000021"><a xlink:title=" ">
<path fill="none" stroke="#63b8ff" d="M1258.99,-125.49C1281.25,-114.86 1315.87,-98.32 1340.93,-86.34"/>
<polygon fill="#63b8ff" stroke="#63b8ff" points="1342.5,-89.47 1350.02,-82 1339.49,-83.16 1342.5,-89.47"/>
</a>
</g>
</g>
<!-- Node22 -->
<g id="Node000022" class="node">
<title>Node22</title>
<g id="a_Node000022"><a xlink:title=" ">
<polygon fill="#e0e0e0" stroke="#999999" points="1584,-82 1462,-82 1462,-59 1584,-59 1584,-82"/>
<text text-anchor="middle" x="1523" y="-66.8" font-family="Arial" font-size="14.00">freertos/semphr.h</text>
</a>
</g>
</g>
<!-- Node20&#45;&gt;Node22 -->
<g id="edge25_Node000020_Node000022" class="edge">
<title>Node20&#45;&gt;Node22</title>
<g id="a_edge25_Node000020_Node000022"><a xlink:title=" ">
<path fill="none" stroke="#63b8ff" d="M1276.91,-125.45C1286.73,-122.93 1297.23,-120.31 1307,-118 1358.95,-105.73 1418.25,-93.06 1461.55,-84.05"/>
<polygon fill="#63b8ff" stroke="#63b8ff" points="1462.29,-87.47 1471.37,-82.01 1460.87,-80.62 1462.29,-87.47"/>
</a>
</g>
</g>
<!-- Node23 -->
<g id="Node000023" class="node">
<title>Node23</title>
<g id="a_Node000023"><a xlink:title=" ">
<polygon fill="#e0e0e0" stroke="#999999" points="1704,-82 1602,-82 1602,-59 1704,-59 1704,-82"/>
<text text-anchor="middle" x="1653" y="-66.8" font-family="Arial" font-size="14.00">freertos/task.h</text>
</a>
</g>
</g>
<!-- Node20&#45;&gt;Node23 -->
<g id="edge26_Node000020_Node000023" class="edge">
<title>Node20&#45;&gt;Node23</title>
<g id="a_edge26_Node000020_Node000023"><a xlink:title=" ">
<path fill="none" stroke="#63b8ff" d="M1274.22,-125.5C1284.76,-122.78 1296.28,-120.05 1307,-118 1429.65,-94.61 1464.55,-100.71 1591.83,-82.11"/>
<polygon fill="#63b8ff" stroke="#63b8ff" points="1592.59,-85.53 1601.96,-80.6 1591.56,-78.61 1592.59,-85.53"/>
</a>
</g>
</g>
</g>
</svg>

<g id="navigator" transform="translate(0 0)" fill="#404254">
  <rect fill="#f2f5e9" fill-opacity="0.5" stroke="#606060" stroke-width=".5" x="0" y="0" width="60" height="60"/>
  <use id="zoomplus" xlink:href="#zoomPlus" x="17" y="9" onmousedown="handleZoom(evt,'in')"/>
  <use id="zoomminus" xlink:href="#zoomMin" x="42" y="9" onmousedown="handleZoom(evt,'out')"/>
  <use id="reset" xlink:href="#resetDef" x="30" y="36" onmousedown="handleReset()"/>
   <use id="arrowup" xlink:href="#arrowUp" x="0" y="0" onmousedown="handlePan(0,-1)"/>
  <use id="arrowright" xlink:href="#arrowRight" x="0" y="0" onmousedown="handlePan(1,0)"/>
  <use id="arrowdown" xlink:href="#arrowDown" x="0" y="0" onmousedown="handlePan(0,1)"/>
  <use id="arrowleft" xlink:href="#arrowLeft" x="0" y="0" onmousedown="handlePan(-1,0)"/>
</g>
<svg viewBox="0 0 15 15" width="100%" height="30px" preserveAspectRatio="xMaxYMin meet">
 <g id="arrow_out" transform="scale(0.3 0.3)">
  <a xlink:href="EspWifi_8h__incl_org.svg" target="_base">
   <rect id="button" ry="5" rx="5" y="6" x="6" height="38" width="38"
        fill="#f2f5e9" fill-opacity="0.5" stroke="#606060" stroke-width="1.0"/>
   <path id="arrow"
     d="M 11.500037,31.436501 C 11.940474,20.09759 22.043105,11.32322 32.158766,21.979434 L 37.068811,17.246167 C 37.068811,17.246167 37.088388,32 37.088388,32 L 22.160133,31.978069 C 22.160133,31.978069 26.997745,27.140456 26.997745,27.140456 C 18.528582,18.264221 13.291696,25.230495 11.500037,31.436501 z"
     style="fill:#404040;"/>
  </a>
 </g>
</svg>

<style type='text/css'>
<![CDATA[
[data-mouse-over-selected='false'] { opacity: 0.7; }
[data-mouse-over-selected='true']  { opacity: 1.0; }
]]>
</style>
<script type="application/ecmascript"><![CDATA[
document.addEventListener('DOMContentLoaded', (event) => {
  highlightEdges();
  highlightAdjacentNodes();
});
]]></script>
</svg>
