<?xml version="1.0" encoding="UTF-8" standalone="no"?>
<!DOCTYPE svg PUBLIC "-//W3C//DTD SVG 1.1//EN"
 "http://www.w3.org/Graphics/SVG/1.1/DTD/svg11.dtd">
<!-- Generated by graphviz version 2.43.0 (0)
 -->
<!-- Title: hf_gpio_advanced_config_t Pages: 1 -->
<svg width="498pt" height="185pt"
 viewBox="0.00 0.00 498.00 184.50" xmlns="http://www.w3.org/2000/svg" xmlns:xlink="http://www.w3.org/1999/xlink">

<svg id="main" version="1.1" xmlns="http://www.w3.org/2000/svg" xmlns:xlink="http://www.w3.org/1999/xlink" xml:space="preserve" onload="init(evt)">
<style type="text/css"><![CDATA[
.node, .edge {opacity: 0.7;}
.node.selected, .edge.selected {opacity: 1;}
.edge:hover path { stroke: red; }
.edge:hover polygon { stroke: red; fill: red; }
]]></style>
<script type="application/ecmascript" xlink:href="svg.min.js"/>
<svg id="graph" class="graph">
<g id="graph0" class="graph" transform="scale(1 1) rotate(0) translate(4 180.5)">
<title>hf_gpio_advanced_config_t</title>
<!-- Node1 -->
<g id="Node000001" class="node">
<title>Node1</title>
<g id="a_Node000001"><a xlink:title="Complete ESP32 GPIO configuration with all advanced features.">
<polygon fill="#999999" stroke="#666666" points="490,-88 308,-88 308,-65 490,-65 490,-88"/>
<text text-anchor="middle" x="399" y="-72.8" font-family="Arial" font-size="14.00">hf_gpio_advanced_config_t</text>
</a>
</g>
</g>
<!-- Node2 -->
<g id="Node000002" class="node">
<title>Node2</title>
<g id="a_Node000002"><a xlink:href="structhf__gpio__flex__filter__config__t.html" target="_top" xlink:title="Flexible glitch filter configuration.">
<polygon fill="white" stroke="#666666" points="146,-176.5 24,-176.5 24,-138.5 146,-138.5 146,-176.5"/>
<text text-anchor="start" x="32" y="-161.3" font-family="Arial" font-size="14.00">hf_gpio_flex_filter</text>
<text text-anchor="middle" x="85" y="-146.3" font-family="Arial" font-size="14.00">_config_t</text>
</a>
</g>
</g>
<!-- Node2&#45;&gt;Node1 -->
<g id="edge1_Node000001_Node000002" class="edge">
<title>Node2&#45;&gt;Node1</title>
<g id="a_edge1_Node000001_Node000002"><a xlink:title=" ">
<path fill="none" stroke="#9a32cd" stroke-dasharray="5,2" d="M155.98,-143.38C195.54,-134.98 245.78,-123.62 290,-111.5 315.47,-104.52 343.87,-95.25 365.15,-88.01"/>
<polygon fill="#9a32cd" stroke="#9a32cd" points="155.23,-139.96 146.16,-145.45 156.67,-146.81 155.23,-139.96"/>
</a>
</g>
<text text-anchor="middle" x="239" y="-139.3" font-family="Arial" font-size="14.00" fill="grey"> flex_filter_config</text>
</g>
<!-- Node3 -->
<g id="Node000003" class="node">
<title>Node3</title>
<g id="a_Node000003"><a xlink:href="structhf__gpio__pin__filter__config__t.html" target="_top" xlink:title="Pin glitch filter configuration.">
<polygon fill="white" stroke="#666666" points="144.5,-120.5 25.5,-120.5 25.5,-82.5 144.5,-82.5 144.5,-120.5"/>
<text text-anchor="start" x="33.5" y="-105.3" font-family="Arial" font-size="14.00">hf_gpio_pin_filter</text>
<text text-anchor="middle" x="85" y="-90.3" font-family="Arial" font-size="14.00">_config_t</text>
</a>
</g>
</g>
<!-- Node3&#45;&gt;Node1 -->
<g id="edge2_Node000001_Node000003" class="edge">
<title>Node3&#45;&gt;Node1</title>
<g id="a_edge2_Node000001_Node000003"><a xlink:title=" ">
<path fill="none" stroke="#9a32cd" stroke-dasharray="5,2" d="M154.94,-95.98C199.97,-92.37 259.23,-87.62 307.97,-83.71"/>
<polygon fill="#9a32cd" stroke="#9a32cd" points="154.37,-92.51 144.68,-96.8 154.93,-99.49 154.37,-92.51"/>
</a>
</g>
<text text-anchor="middle" x="239" y="-96.3" font-family="Arial" font-size="14.00" fill="grey"> pin_filter_config</text>
</g>
<!-- Node4 -->
<g id="Node000004" class="node">
<title>Node4</title>
<g id="a_Node000004"><a xlink:href="structhf__gpio__sleep__config__t.html" target="_top" xlink:title="GPIO sleep mode configuration.">
<polygon fill="white" stroke="#666666" points="162.5,-64 7.5,-64 7.5,-41 162.5,-41 162.5,-64"/>
<text text-anchor="middle" x="85" y="-48.8" font-family="Arial" font-size="14.00">hf_gpio_sleep_config_t</text>
</a>
</g>
</g>
<!-- Node4&#45;&gt;Node1 -->
<g id="edge3_Node000001_Node000004" class="edge">
<title>Node4&#45;&gt;Node1</title>
<g id="a_edge3_Node000001_Node000004"><a xlink:title=" ">
<path fill="none" stroke="#9a32cd" stroke-dasharray="5,2" d="M172.66,-56.6C208.94,-58.58 251.55,-61.24 290,-64.5 295.83,-64.99 301.83,-65.55 307.87,-66.13"/>
<polygon fill="#9a32cd" stroke="#9a32cd" points="172.77,-53.1 162.6,-56.06 172.4,-60.09 172.77,-53.1"/>
</a>
</g>
<text text-anchor="middle" x="239" y="-68.3" font-family="Arial" font-size="14.00" fill="grey"> sleep_config</text>
</g>
<!-- Node5 -->
<g id="Node000005" class="node">
<title>Node5</title>
<g id="a_Node000005"><a xlink:href="structhf__gpio__wakeup__config__t.html" target="_top" xlink:title="GPIO wake&#45;up configuration for deep sleep.">
<polygon fill="white" stroke="#666666" points="170,-23 0,-23 0,0 170,0 170,-23"/>
<text text-anchor="middle" x="85" y="-7.8" font-family="Arial" font-size="14.00">hf_gpio_wakeup_config_t</text>
</a>
</g>
</g>
<!-- Node5&#45;&gt;Node1 -->
<g id="edge4_Node000001_Node000005" class="edge">
<title>Node5&#45;&gt;Node1</title>
<g id="a_edge4_Node000001_Node000005"><a xlink:title=" ">
<path fill="none" stroke="#9a32cd" stroke-dasharray="5,2" d="M180.24,-19.85C215.03,-24.01 254.58,-30.02 290,-38.5 317.84,-45.16 348.53,-56.35 370.06,-64.87"/>
<polygon fill="#9a32cd" stroke="#9a32cd" points="180.43,-16.35 170.09,-18.68 179.62,-23.31 180.43,-16.35"/>
</a>
</g>
<text text-anchor="middle" x="239" y="-42.3" font-family="Arial" font-size="14.00" fill="grey"> wakeup_config</text>
</g>
</g>
</svg>
</svg>

<style type='text/css'>
<![CDATA[
[data-mouse-over-selected='false'] { opacity: 0.7; }
[data-mouse-over-selected='true']  { opacity: 1.0; }
]]>
</style>
<script type="application/ecmascript"><![CDATA[
document.addEventListener('DOMContentLoaded', (event) => {
  highlightEdges();
  highlightAdjacentNodes();
});
]]></script>
</svg>
