<?xml version="1.0" encoding="UTF-8" standalone="no"?>
<!DOCTYPE svg PUBLIC "-//W3C//DTD SVG 1.1//EN"
 "http://www.w3.org/Graphics/SVG/1.1/DTD/svg11.dtd">
<!-- Generated by graphviz version 2.43.0 (0)
 -->
<!-- Title: examples/esp32/main/TestFramework.h Pages: 1 -->
<svg width="3493pt" height="135pt"
 viewBox="0.00 0.00 3493.00 135.00" xmlns="http://www.w3.org/2000/svg" xmlns:xlink="http://www.w3.org/1999/xlink">
<g id="graph0" class="graph" transform="scale(1 1) rotate(0) translate(4 131)">
<title>examples/esp32/main/TestFramework.h</title>
<!-- Node1 -->
<g id="Node000001" class="node">
<title>Node1</title>
<g id="a_Node000001"><a xlink:title="Shared testing framework for ESP32&#45;C6 comprehensive test suites.">
<polygon fill="#999999" stroke="#666666" points="1840,-127 1691,-127 1691,-89 1840,-89 1840,-127"/>
<text text-anchor="start" x="1699" y="-111.8" font-family="Arial" font-size="14.00">examples/esp32/main</text>
<text text-anchor="middle" x="1765.5" y="-96.8" font-family="Arial" font-size="14.00">/TestFramework.h</text>
</a>
</g>
</g>
<!-- Node2 -->
<g id="Node000002" class="node">
<title>Node2</title>
<g id="a_Node000002"><a xlink:href="AdcComprehensiveTest_8cpp.html" target="_top" xlink:title="Comprehensive ADC testing suite for ESP32&#45;C6 DevKit&#45;M&#45;1 (noexcept)">
<polygon fill="white" stroke="#666666" points="189,-45.5 0,-45.5 0,-7.5 189,-7.5 189,-45.5"/>
<text text-anchor="start" x="8" y="-30.3" font-family="Arial" font-size="14.00">examples/esp32/main</text>
<text text-anchor="middle" x="94.5" y="-15.3" font-family="Arial" font-size="14.00">/AdcComprehensiveTest.cpp</text>
</a>
</g>
</g>
<!-- Node1&#45;&gt;Node2 -->
<g id="edge1_Node000001_Node000002" class="edge">
<title>Node1&#45;&gt;Node2</title>
<g id="a_edge1_Node000001_Node000002"><a xlink:title=" ">
<path fill="none" stroke="#63b8ff" d="M1680.46,-106.38C1397.39,-103.94 488.49,-93.11 198.5,-53 185.7,-51.23 172.19,-48.54 159.29,-45.56"/>
<polygon fill="#63b8ff" stroke="#63b8ff" points="1680.64,-109.88 1690.67,-106.46 1680.7,-102.88 1680.64,-109.88"/>
</a>
</g>
</g>
<!-- Node3 -->
<g id="Node000003" class="node">
<title>Node3</title>
<g id="a_Node000003"><a xlink:href="AsciiArtComprehensiveTest_8cpp.html" target="_top" xlink:title="ASCII Art Generator comprehensive example and test suite for ESP32&#45;C6 DevKit&#45;M&#45;1 (noexcept)">
<polygon fill="white" stroke="#666666" points="419.5,-45.5 207.5,-45.5 207.5,-7.5 419.5,-7.5 419.5,-45.5"/>
<text text-anchor="start" x="215.5" y="-30.3" font-family="Arial" font-size="14.00">examples/esp32/main</text>
<text text-anchor="middle" x="313.5" y="-15.3" font-family="Arial" font-size="14.00">/AsciiArtComprehensiveTest.cpp</text>
</a>
</g>
</g>
<!-- Node1&#45;&gt;Node3 -->
<g id="edge2_Node000001_Node000003" class="edge">
<title>Node1&#45;&gt;Node3</title>
<g id="a_edge2_Node000001_Node000003"><a xlink:title=" ">
<path fill="none" stroke="#63b8ff" d="M1680.61,-105.57C1425.99,-100.97 671.35,-84.93 427.5,-53 413.62,-51.18 398.95,-48.49 384.91,-45.53"/>
<polygon fill="#63b8ff" stroke="#63b8ff" points="1680.84,-109.07 1690.91,-105.75 1680.97,-102.08 1680.84,-109.07"/>
</a>
</g>
</g>
<!-- Node4 -->
<g id="Node000004" class="node">
<title>Node4</title>
<g id="a_Node000004"><a xlink:href="BluetoothComprehensiveTest_8cpp.html" target="_top" xlink:title="Comprehensive Bluetooth/NimBLE testing suite for ESP32&#45;C6 DevKit&#45;M&#45;1 (noexcept)">
<polygon fill="white" stroke="#666666" points="660,-45.5 437,-45.5 437,-7.5 660,-7.5 660,-45.5"/>
<text text-anchor="start" x="445" y="-30.3" font-family="Arial" font-size="14.00">examples/esp32/main</text>
<text text-anchor="middle" x="548.5" y="-15.3" font-family="Arial" font-size="14.00">/BluetoothComprehensiveTest.cpp</text>
</a>
</g>
</g>
<!-- Node1&#45;&gt;Node4 -->
<g id="edge3_Node000001_Node000004" class="edge">
<title>Node1&#45;&gt;Node4</title>
<g id="a_edge3_Node000001_Node000004"><a xlink:title=" ">
<path fill="none" stroke="#63b8ff" d="M1680.79,-107.44C1496.09,-107.38 1043.61,-101.77 668.5,-53 654.14,-51.13 638.94,-48.46 624.36,-45.54"/>
<polygon fill="#63b8ff" stroke="#63b8ff" points="1680.98,-110.94 1690.98,-107.43 1680.98,-103.94 1680.98,-110.94"/>
</a>
</g>
</g>
<!-- Node5 -->
<g id="Node000005" class="node">
<title>Node5</title>
<g id="a_Node000005"><a xlink:href="CanComprehensiveTest_8cpp.html" target="_top" xlink:title="Comprehensive CAN testing suite for ESP32&#45;C6 with ESP&#45;IDF v5.5 TWAI API and SN65 transceiver.">
<polygon fill="white" stroke="#666666" points="869,-45.5 678,-45.5 678,-7.5 869,-7.5 869,-45.5"/>
<text text-anchor="start" x="686" y="-30.3" font-family="Arial" font-size="14.00">examples/esp32/main</text>
<text text-anchor="middle" x="773.5" y="-15.3" font-family="Arial" font-size="14.00">/CanComprehensiveTest.cpp</text>
</a>
</g>
</g>
<!-- Node1&#45;&gt;Node5 -->
<g id="edge4_Node000001_Node000005" class="edge">
<title>Node1&#45;&gt;Node5</title>
<g id="a_edge4_Node000001_Node000005"><a xlink:title=" ">
<path fill="none" stroke="#63b8ff" d="M1680.59,-106.89C1521.92,-105.58 1169.99,-97.38 877.5,-53 865.09,-51.12 852,-48.45 839.44,-45.55"/>
<polygon fill="#63b8ff" stroke="#63b8ff" points="1680.74,-110.4 1690.76,-106.97 1680.79,-103.4 1680.74,-110.4"/>
</a>
</g>
</g>
<!-- Node6 -->
<g id="Node000006" class="node">
<title>Node6</title>
<g id="a_Node000006"><a xlink:href="DigitalOutputGuardComprehensiveTest_8cpp.html" target="_top" xlink:title="DigitalOutputGuard comprehensive test suite for ESP32&#45;C6 DevKit&#45;M&#45;1.">
<polygon fill="white" stroke="#666666" points="1120,-53 887,-53 887,0 1120,0 1120,-53"/>
<text text-anchor="start" x="895" y="-37.8" font-family="Arial" font-size="14.00">examples/esp32/main</text>
<text text-anchor="start" x="895" y="-22.8" font-family="Arial" font-size="14.00">/DigitalOutputGuardComprehensive</text>
<text text-anchor="middle" x="1003.5" y="-7.8" font-family="Arial" font-size="14.00">Test.cpp</text>
</a>
</g>
</g>
<!-- Node1&#45;&gt;Node6 -->
<g id="edge5_Node000001_Node000006" class="edge">
<title>Node1&#45;&gt;Node6</title>
<g id="a_edge5_Node000001_Node000006"><a xlink:title=" ">
<path fill="none" stroke="#63b8ff" d="M1680.59,-102.96C1558.14,-96.42 1325.11,-81.29 1128.5,-53 1125.76,-52.61 1122.99,-52.19 1120.2,-51.75"/>
<polygon fill="#63b8ff" stroke="#63b8ff" points="1680.48,-106.46 1690.65,-103.49 1680.85,-99.47 1680.48,-106.46"/>
</a>
</g>
</g>
<!-- Node7 -->
<g id="Node000007" class="node">
<title>Node7</title>
<g id="a_Node000007"><a xlink:href="GpioComprehensiveTest_8cpp.html" target="_top" xlink:title="Comprehensive GPIO testing suite for ESP32&#45;C6 DevKit&#45;M&#45;1 (noexcept)">
<polygon fill="white" stroke="#666666" points="1333,-45.5 1138,-45.5 1138,-7.5 1333,-7.5 1333,-45.5"/>
<text text-anchor="start" x="1146" y="-30.3" font-family="Arial" font-size="14.00">examples/esp32/main</text>
<text text-anchor="middle" x="1235.5" y="-15.3" font-family="Arial" font-size="14.00">/GpioComprehensiveTest.cpp</text>
</a>
</g>
</g>
<!-- Node1&#45;&gt;Node7 -->
<g id="edge6_Node000001_Node000007" class="edge">
<title>Node1&#45;&gt;Node7</title>
<g id="a_edge6_Node000001_Node000007"><a xlink:title=" ">
<path fill="none" stroke="#63b8ff" d="M1680.43,-98.84C1594.72,-89.99 1458.85,-74.23 1342.5,-53 1330.76,-50.86 1318.37,-48.24 1306.36,-45.51"/>
<polygon fill="#63b8ff" stroke="#63b8ff" points="1680.32,-102.35 1690.63,-99.89 1681.04,-95.39 1680.32,-102.35"/>
</a>
</g>
</g>
<!-- Node8 -->
<g id="Node000008" class="node">
<title>Node8</title>
<g id="a_Node000008"><a xlink:href="I2cComprehensiveTest_8cpp.html" target="_top" xlink:title="Comprehensive I2C testing suite for ESP32&#45;C6 DevKit&#45;M&#45;1 (noexcept)">
<polygon fill="white" stroke="#666666" points="1535.5,-45.5 1351.5,-45.5 1351.5,-7.5 1535.5,-7.5 1535.5,-45.5"/>
<text text-anchor="start" x="1359.5" y="-30.3" font-family="Arial" font-size="14.00">examples/esp32/main</text>
<text text-anchor="middle" x="1443.5" y="-15.3" font-family="Arial" font-size="14.00">/I2cComprehensiveTest.cpp</text>
</a>
</g>
</g>
<!-- Node1&#45;&gt;Node8 -->
<g id="edge7_Node000001_Node000008" class="edge">
<title>Node1&#45;&gt;Node8</title>
<g id="a_edge7_Node000001_Node000008"><a xlink:title=" ">
<path fill="none" stroke="#63b8ff" d="M1681.3,-86.59C1640.05,-76.55 1589.66,-64.22 1544.5,-53 1534.85,-50.6 1524.68,-48.06 1514.66,-45.54"/>
<polygon fill="#63b8ff" stroke="#63b8ff" points="1680.5,-89.99 1691.04,-88.96 1682.15,-83.19 1680.5,-89.99"/>
</a>
</g>
</g>
<!-- Node9 -->
<g id="Node000009" class="node">
<title>Node9</title>
<g id="a_Node000009"><a xlink:href="LoggerComprehensiveTest_8cpp.html" target="_top" xlink:title="Comprehensive Logger testing suite for ESP32&#45;C6 DevKit&#45;M&#45;1 (noexcept)">
<polygon fill="white" stroke="#666666" points="1761.5,-45.5 1553.5,-45.5 1553.5,-7.5 1761.5,-7.5 1761.5,-45.5"/>
<text text-anchor="start" x="1561.5" y="-30.3" font-family="Arial" font-size="14.00">examples/esp32/main</text>
<text text-anchor="middle" x="1657.5" y="-15.3" font-family="Arial" font-size="14.00">/LoggerComprehensiveTest.cpp</text>
</a>
</g>
</g>
<!-- Node1&#45;&gt;Node9 -->
<g id="edge8_Node000001_Node000009" class="edge">
<title>Node1&#45;&gt;Node9</title>
<g id="a_edge8_Node000001_Node000009"><a xlink:title=" ">
<path fill="none" stroke="#63b8ff" d="M1732.82,-82.94C1716.58,-70.99 1697.28,-56.78 1682.28,-45.74"/>
<polygon fill="#63b8ff" stroke="#63b8ff" points="1730.86,-85.85 1740.99,-88.96 1735.01,-80.21 1730.86,-85.85"/>
</a>
</g>
</g>
<!-- Node10 -->
<g id="Node000010" class="node">
<title>Node10</title>
<g id="a_Node000010"><a xlink:href="NvsComprehensiveTest_8cpp.html" target="_top" xlink:title="Comprehensive NVS (Non&#45;Volatile Storage) testing suite for ESP32&#45;C6 DevKit&#45;M&#45;1 (noexcept)">
<polygon fill="white" stroke="#666666" points="1969,-45.5 1780,-45.5 1780,-7.5 1969,-7.5 1969,-45.5"/>
<text text-anchor="start" x="1788" y="-30.3" font-family="Arial" font-size="14.00">examples/esp32/main</text>
<text text-anchor="middle" x="1874.5" y="-15.3" font-family="Arial" font-size="14.00">/NvsComprehensiveTest.cpp</text>
</a>
</g>
</g>
<!-- Node1&#45;&gt;Node10 -->
<g id="edge9_Node000001_Node000010" class="edge">
<title>Node1&#45;&gt;Node10</title>
<g id="a_edge9_Node000001_Node000010"><a xlink:title=" ">
<path fill="none" stroke="#63b8ff" d="M1798.48,-82.94C1814.87,-70.99 1834.35,-56.78 1849.49,-45.74"/>
<polygon fill="#63b8ff" stroke="#63b8ff" points="1796.25,-80.24 1790.23,-88.96 1800.38,-85.9 1796.25,-80.24"/>
</a>
</g>
</g>
<!-- Node11 -->
<g id="Node000011" class="node">
<title>Node11</title>
<g id="a_Node000011"><a xlink:href="PioComprehensiveTest_8cpp.html" target="_top" xlink:title="Comprehensive PIO testing suite for ESP32&#45;C6 DevKit&#45;M&#45;1 with RMT peripheral (noexcept)">
<polygon fill="white" stroke="#666666" points="2172,-45.5 1987,-45.5 1987,-7.5 2172,-7.5 2172,-45.5"/>
<text text-anchor="start" x="1995" y="-30.3" font-family="Arial" font-size="14.00">examples/esp32/main</text>
<text text-anchor="middle" x="2079.5" y="-15.3" font-family="Arial" font-size="14.00">/PioComprehensiveTest.cpp</text>
</a>
</g>
</g>
<!-- Node1&#45;&gt;Node11 -->
<g id="edge10_Node000001_Node000011" class="edge">
<title>Node1&#45;&gt;Node11</title>
<g id="a_edge10_Node000001_Node000011"><a xlink:title=" ">
<path fill="none" stroke="#63b8ff" d="M1846.57,-86.47C1896.59,-73.81 1960.17,-57.71 2008.26,-45.54"/>
<polygon fill="#63b8ff" stroke="#63b8ff" points="1845.59,-83.11 1836.75,-88.96 1847.3,-89.9 1845.59,-83.11"/>
</a>
</g>
</g>
<!-- Node12 -->
<g id="Node000012" class="node">
<title>Node12</title>
<g id="a_Node000012"><a xlink:href="PwmComprehensiveTest_8cpp.html" target="_top" xlink:title="Comprehensive PWM testing suite for ESP32 family (noexcept)">
<polygon fill="white" stroke="#666666" points="2387,-45.5 2190,-45.5 2190,-7.5 2387,-7.5 2387,-45.5"/>
<text text-anchor="start" x="2198" y="-30.3" font-family="Arial" font-size="14.00">examples/esp32/main</text>
<text text-anchor="middle" x="2288.5" y="-15.3" font-family="Arial" font-size="14.00">/PwmComprehensiveTest.cpp</text>
</a>
</g>
</g>
<!-- Node1&#45;&gt;Node12 -->
<g id="edge11_Node000001_Node000012" class="edge">
<title>Node1&#45;&gt;Node12</title>
<g id="a_edge11_Node000001_Node000012"><a xlink:title=" ">
<path fill="none" stroke="#63b8ff" d="M1850.3,-98.63C1934.66,-89.68 2067.58,-73.91 2181.5,-53 2193.15,-50.86 2205.43,-48.26 2217.35,-45.55"/>
<polygon fill="#63b8ff" stroke="#63b8ff" points="1849.84,-95.16 1840.26,-99.68 1850.57,-102.12 1849.84,-95.16"/>
</a>
</g>
</g>
<!-- Node13 -->
<g id="Node000013" class="node">
<title>Node13</title>
<g id="a_Node000013"><a xlink:href="SpiComprehensiveTest_8cpp.html" target="_top" xlink:title="Comprehensive SPI testing suite for ESP32&#45;C6 DevKit&#45;M&#45;1 (noexcept)">
<polygon fill="white" stroke="#666666" points="2590,-45.5 2405,-45.5 2405,-7.5 2590,-7.5 2590,-45.5"/>
<text text-anchor="start" x="2413" y="-30.3" font-family="Arial" font-size="14.00">examples/esp32/main</text>
<text text-anchor="middle" x="2497.5" y="-15.3" font-family="Arial" font-size="14.00">/SpiComprehensiveTest.cpp</text>
</a>
</g>
</g>
<!-- Node1&#45;&gt;Node13 -->
<g id="edge12_Node000001_Node000013" class="edge">
<title>Node1&#45;&gt;Node13</title>
<g id="a_edge12_Node000001_Node000013"><a xlink:title=" ">
<path fill="none" stroke="#63b8ff" d="M1850.3,-104.1C1971.95,-98.96 2202.71,-85.54 2396.5,-53 2408.27,-51.02 2420.69,-48.37 2432.63,-45.52"/>
<polygon fill="#63b8ff" stroke="#63b8ff" points="1850.15,-100.61 1840.3,-104.52 1850.44,-107.6 1850.15,-100.61"/>
</a>
</g>
</g>
<!-- Node14 -->
<g id="Node000014" class="node">
<title>Node14</title>
<g id="a_Node000014"><a xlink:href="TemperatureComprehensiveTest_8cpp.html" target="_top" xlink:title="Comprehensive Temperature sensor testing suite for ESP32&#45;C6 DevKit&#45;M&#45;1 (noexcept)">
<polygon fill="white" stroke="#666666" points="2849.5,-45.5 2607.5,-45.5 2607.5,-7.5 2849.5,-7.5 2849.5,-45.5"/>
<text text-anchor="start" x="2615.5" y="-30.3" font-family="Arial" font-size="14.00">examples/esp32/main</text>
<text text-anchor="middle" x="2728.5" y="-15.3" font-family="Arial" font-size="14.00">/TemperatureComprehensiveTest.cpp</text>
</a>
</g>
</g>
<!-- Node1&#45;&gt;Node14 -->
<g id="edge13_Node000001_Node000014" class="edge">
<title>Node1&#45;&gt;Node14</title>
<g id="a_edge13_Node000001_Node000014"><a xlink:title=" ">
<path fill="none" stroke="#63b8ff" d="M1850.14,-105.17C2001.22,-101.08 2327.01,-88.6 2599.5,-53 2614.44,-51.05 2630.25,-48.41 2645.49,-45.56"/>
<polygon fill="#63b8ff" stroke="#63b8ff" points="1849.91,-101.67 1840.01,-105.43 1850.1,-108.67 1849.91,-101.67"/>
</a>
</g>
</g>
<!-- Node15 -->
<g id="Node000015" class="node">
<title>Node15</title>
<g id="a_Node000015"><a xlink:href="TimerComprehensiveTest_8cpp.html" target="_top" xlink:title="ESP32&#45;C6 Periodic Timer Comprehensive Test Suite v2.0.">
<polygon fill="white" stroke="#666666" points="3069,-45.5 2868,-45.5 2868,-7.5 3069,-7.5 3069,-45.5"/>
<text text-anchor="start" x="2876" y="-30.3" font-family="Arial" font-size="14.00">examples/esp32/main</text>
<text text-anchor="middle" x="2968.5" y="-15.3" font-family="Arial" font-size="14.00">/TimerComprehensiveTest.cpp</text>
</a>
</g>
</g>
<!-- Node1&#45;&gt;Node15 -->
<g id="edge14_Node000001_Node000015" class="edge">
<title>Node1&#45;&gt;Node15</title>
<g id="a_edge14_Node000001_Node000015"><a xlink:title=" ">
<path fill="none" stroke="#63b8ff" d="M1850.59,-104.76C2072.34,-98.61 2664.24,-80.09 2858.5,-53 2871.8,-51.15 2885.86,-48.46 2899.32,-45.51"/>
<polygon fill="#63b8ff" stroke="#63b8ff" points="1850.21,-101.27 1840.31,-105.04 1850.4,-108.27 1850.21,-101.27"/>
</a>
</g>
</g>
<!-- Node16 -->
<g id="Node000016" class="node">
<title>Node16</title>
<g id="a_Node000016"><a xlink:href="UartComprehensiveTest_8cpp.html" target="_top" xlink:title="Comprehensive UART testing suite for ESP32&#45;C6 DevKit&#45;M&#45;1 (noexcept)">
<polygon fill="white" stroke="#666666" points="3278,-45.5 3087,-45.5 3087,-7.5 3278,-7.5 3278,-45.5"/>
<text text-anchor="start" x="3095" y="-30.3" font-family="Arial" font-size="14.00">examples/esp32/main</text>
<text text-anchor="middle" x="3182.5" y="-15.3" font-family="Arial" font-size="14.00">/UartComprehensiveTest.cpp</text>
</a>
</g>
</g>
<!-- Node1&#45;&gt;Node16 -->
<g id="edge15_Node000001_Node000016" class="edge">
<title>Node1&#45;&gt;Node16</title>
<g id="a_edge15_Node000001_Node000016"><a xlink:title=" ">
<path fill="none" stroke="#63b8ff" d="M1850.59,-105.72C2102.23,-101.57 2840.11,-86.78 3078.5,-53 3091.2,-51.2 3104.61,-48.52 3117.42,-45.56"/>
<polygon fill="#63b8ff" stroke="#63b8ff" points="1850.35,-102.22 1840.41,-105.88 1850.47,-109.22 1850.35,-102.22"/>
</a>
</g>
</g>
<!-- Node17 -->
<g id="Node000017" class="node">
<title>Node17</title>
<g id="a_Node000017"><a xlink:href="WifiComprehensiveTest_8cpp.html" target="_top" xlink:title="Comprehensive WiFi testing suite for ESP32&#45;C6 DevKit&#45;M&#45;1 with ESP&#45;IDF v5.5f.">
<polygon fill="white" stroke="#666666" points="3485,-45.5 3296,-45.5 3296,-7.5 3485,-7.5 3485,-45.5"/>
<text text-anchor="start" x="3304" y="-30.3" font-family="Arial" font-size="14.00">examples/esp32/main</text>
<text text-anchor="middle" x="3390.5" y="-15.3" font-family="Arial" font-size="14.00">/WifiComprehensiveTest.cpp</text>
</a>
</g>
</g>
<!-- Node1&#45;&gt;Node17 -->
<g id="edge16_Node000001_Node000017" class="edge">
<title>Node1&#45;&gt;Node17</title>
<g id="a_edge16_Node000001_Node000017"><a xlink:title=" ">
<path fill="none" stroke="#63b8ff" d="M1850.41,-106.3C2127.98,-103.66 3006.68,-92.31 3287.5,-53 3300.18,-51.23 3313.57,-48.53 3326.34,-45.56"/>
<polygon fill="#63b8ff" stroke="#63b8ff" points="1849.98,-102.81 1840.01,-106.4 1850.04,-109.81 1849.98,-102.81"/>
</a>
</g>
</g>
</g>
</svg>
